<svg xmlns="http://www.w3.org/2000/svg" width="187" height="56" fill="none" viewBox="0 0 187 56"><rect width="187" height="56" fill="url(#a)" rx="8"/><rect width="184.9" height="53.9" x="1.05" y="1.05" stroke="#fff" stroke-opacity=".15" stroke-width="2.1" rx="6.95"/><g fill="#0c9ef0" filter="url(#b)"><path d="M47.026 26.2a1 1 0 0 0-.903.464c-.36-.226-1.335-.702-1.713-.897l-.138-.07a.1.1 0 0 0-.069 0v-.107c.383-7.89-7.587-14.02-15.303-11.647a12.1 12.1 0 0 0-4.894 2.986 12.14 12.14 0 0 0-2.976 4.908 14 14 0 0 0-.497 3.523l-.29.115-.211.088a22 22 0 0 0-1.148.545c-.383.195-.765.383-1.113.625a.12.12 0 0 0-.046.15.12.12 0 0 0 .157.057c.382-.177.765-.334 1.147-.48a13 13 0 0 1 1.183-.383h.022q.287-.084.578-.157l.298-.069h.035l.268-.057a13 13 0 0 1 1.213-.192h.046a.417.417 0 1 0-.196-.81 13 13 0 0 0-1.113.311l.073-.023a13 13 0 0 1 .455-3.14 11.2 11.2 0 0 1 2.75-4.528 11.2 11.2 0 0 1 4.519-2.756q.46-.14.93-.242c.302-.065 1.51-.238.191.502a10.1 10.1 0 0 0-4.591 5.728c-.383 1.239-.532 3.681-.264 5.556.084.587-.115.702-.478.855-.765.326-2.104.916-2.793 1.752-.268.322-.383 0-.448-.23a12 12 0 0 1-.245-1.917.187.187 0 0 0-.233-.172c-.187.046-.382.091-.558.153a.19.19 0 0 0-.127.184c.107 2.465.731 4.758 2.223 4.685a.2.2 0 0 0 .18-.242 1.15 1.15 0 0 1-.517-.575c-.493-1.48 4.083-3.416 9.947-4.294 5.387-.809 10.013-.44 10.816.79a.65.65 0 0 1 .046.732 3.64 3.64 0 0 1-1.458 1.438.223.223 0 0 0-.069.315.22.22 0 0 0 .283.076 4.25 4.25 0 0 0 1.799-1.671 4.6 4.6 0 0 0 .382-1.718c.383.119 1.393.525 1.78.682h.03q-.024.097-.03.196a1.113 1.113 0 0 0 1.002 1.15 1.006 1.006 0 0 0 1.052-.97 1.106 1.106 0 0 0-.984-1.17zm-7.544-2.492a.527.527 0 0 1-.55.544 20.3 20.3 0 0 0-3.865.07.522.522 0 0 1-.566-.541v-.453a.246.246 0 0 1 .191-.238 15 15 0 0 1 4.591-.053.23.23 0 0 1 .191.234zm2.701-1.285a.2.2 0 0 1-.241.077c-3.336-1.269-8.543-.552-8.543-.552a21.2 21.2 0 0 0-5.226 1.204.588.588 0 0 1-.8-.568q.021-.69.138-1.368a6.97 6.97 0 0 1 1.442-3.386q.068-.08.142-.157a.2.2 0 0 1 .03-.038l.023-.027.058-.061.027-.027c2.268-2.377 6.259-2.65 9.06-1.1a8.9 8.9 0 0 1 3.358 3.343c.123.23.895 2.02.532 2.66"/><path d="M40.408 19.448a5.8 5.8 0 0 0-2.75-2.415 8.4 8.4 0 0 0-4.075-.621 5.4 5.4 0 0 0-1.443.318.196.196 0 0 0 .05.383 12 12 0 0 1 3.141.085c3.826.767 5.05 2.61 5.184 2.683.038.02.084-.019.065-.057a4 4 0 0 0-.168-.383m-17.113 6.698a.383.383 0 0 0 .585.046 1.1 1.1 0 0 0 .272-.46 2.17 2.17 0 0 0-.08-1.346 1.3 1.3 0 0 0-.563-.648.2.2 0 0 0-.157-.027.74.74 0 0 0-.382.295.13.13 0 0 0-.005.152q.015.023.04.036a1.15 1.15 0 0 1 .592.81 1.25 1.25 0 0 1-.302.977.13.13 0 0 0 0 .165m-7.154.56a1.237 1.237 0 0 0-1.34 1.15 1.33 1.33 0 0 0 1.256 1.345 1.24 1.24 0 0 0 1.323-1.127 1.32 1.32 0 0 0-1.24-1.369"/><path d="M51.989 28.04c0-9.37-6.48-17.49-15.603-19.549-9.124-2.058-18.45 2.496-22.457 10.964-4.006 8.467-1.62 18.586 5.743 24.362l.383.303c.13.1.264.196.382.292a19.9 19.9 0 0 0 6.814 3.105h.057l.34.08.104.02.322.069.126.023.314.057.122.023q.31.05.62.092l.122.02.233.026.238.027.222.023.256.023h3.156l.218-.019.28-.023.23-.027.267-.03.233-.031.257-.038.237-.039.248-.038.241-.046.245-.046.241-.054.237-.05.242-.057.233-.058.294-.042.222-.061.25-.07.217-.064.245-.08q.11-.03.214-.07l.249-.084.206-.073.25-.092.198-.077.245-.096.191-.076.253-.108.187-.08.253-.115.18-.085.252-.122.172-.088.253-.127.168-.092q.132-.064.253-.134l.164-.092.253-.146.153-.092.256-.153.145-.092.257-.161.137-.092.257-.173.13-.088.26-.184.119-.088.264-.196.107-.08.267-.207.096-.08.272-.22.08-.072.28-.234.064-.058.287-.26.042-.035.303-.287a20 20 0 0 0 4.563-6.601 20 20 0 0 0 1.6-7.869M38.086 34.75c-.027-.222-.054-.449-.088-.671-.035-.223-.065-.445-.107-.663-.043-.219-.077-.441-.12-.66a9 9 0 0 0-.148-.64.3.3 0 0 1 .416-.335.3.3 0 0 1 .15.155c.084.237.141.452.203.682.06.23.114.449.164.675.096.456.172.909.245 1.365.092.598.153 1.2.203 1.798.382.02.792.046 1.186.084 1.068.11 2.122.333 3.145.664a.272.272 0 0 1-.13.525h-.02c-.512-.088-1.01-.211-1.53-.268l-.383-.058-.19-.027h-.192l-.765-.073c-.13-.019-.26 0-.383-.026l-.382-.023h-.283v.195l.03.686v2.07c0 .46-.034.917-.05 1.373-.015.456-.065.917-.107 1.373a.299.299 0 0 1-.593-.027c0-.452 0-.905.023-1.357.023-.453 0-.909 0-1.361 0-.453 0-.905-.023-1.354l-.023-.678v-.997h-1.278c-.26 0-.52.023-.765.03-.245.008-.52.027-.765.05a39 39 0 0 0-4.648.61.275.275 0 0 1-.322-.215.276.276 0 0 1 .195-.314 23 23 0 0 1 1.561-.357 36 36 0 0 1 1.573-.268c.26-.042.528-.07.792-.104q.396-.05.792-.084c.264-.023.528-.05.795-.061.268-.012.532-.039.8-.042.42-.02.842-.023 1.266 0q-.066-.846-.168-1.68m-10.215-2.718c-.191.636-.639 2.17-.918 3.37a97 97 0 0 0-1.565 10.59 18.8 18.8 0 0 1-4.816-2.63 43 43 0 0 1 1.473-6.818 11 11 0 0 1 1.002-2.32 3.25 3.25 0 0 1 1.347-1.126l.1-.046.164-.092.21-.108q.217-.105.428-.199l.219-.096.214-.088.436-.169a26 26 0 0 1 1.438-.46c.21-.061.322 0 .268.192m17.04 5.368c-.596-2.228-1.404-5.717-3.787-6.518-2.54-.867-5.272-.963-7.912-.794a25 25 0 0 0-5.543.993c-.8.234-3.363 1.22-3.872 1.48-.582.263-1.08.68-1.443 1.208a12 12 0 0 0-1.075 2.484 48 48 0 0 0-1.473 6.518 20 20 0 0 1-1.3-1.192c-7.426-7.44-7.46-19.494-.075-26.975s19.412-7.578 26.916-.216c7.503 7.361 7.662 19.414.356 26.972a31 31 0 0 0-.792-3.957"/></g><g filter="url(#c)"><path fill="#e8e8e8" d="M61.278 24.5V12.864h4.148q1.353 0 2.244.465.899.466 1.341 1.29.444.82.444 1.892 0 1.07-.45 1.881-.443.807-1.34 1.256-.892.449-2.245.449h-3.142v-1.512h2.983q.852 0 1.387-.244.54-.245.79-.71.25-.466.25-1.12 0-.659-.256-1.142a1.65 1.65 0 0 0-.79-.738q-.534-.262-1.403-.262h-2.205V24.5zm5.745-5.25 2.875 5.25h-2l-2.818-5.25zm8.084 5.426q-1.29 0-2.222-.551a3.74 3.74 0 0 1-1.432-1.562q-.5-1.012-.5-2.37 0-1.341.5-2.364a3.9 3.9 0 0 1 1.41-1.596q.908-.574 2.124-.574.74 0 1.432.244.693.244 1.244.768.551.522.87 1.357.318.83.318 2.018v.602h-6.938v-1.273h5.273q0-.67-.273-1.187a2.06 2.06 0 0 0-.767-.824q-.489-.302-1.147-.302-.716 0-1.25.353a2.36 2.36 0 0 0-.819.909q-.284.556-.284 1.21v.994q0 .876.307 1.489.312.615.87.938.556.318 1.3.318.483 0 .881-.137.398-.142.688-.42.289-.279.443-.688l1.608.29q-.194.71-.693 1.244a3.36 3.36 0 0 1-1.245.824q-.744.29-1.699.29m12.845-8.903L84.787 24.5h-1.818l-3.17-8.727h1.823l2.21 6.716h.091l2.205-6.716zm1.596 8.727v-8.727h1.7V24.5zm.858-10.074a1.08 1.08 0 0 1-.761-.295.96.96 0 0 1-.313-.716q0-.421.313-.716.318-.3.761-.301.444 0 .756.3a.94.94 0 0 1 .318.717.95.95 0 0 1-.318.716 1.06 1.06 0 0 1-.756.295m6.888 10.25q-1.29 0-2.222-.551a3.74 3.74 0 0 1-1.431-1.562q-.5-1.012-.5-2.37 0-1.341.5-2.364a3.9 3.9 0 0 1 1.409-1.596q.909-.574 2.125-.574.739 0 1.431.244.694.244 1.245.768.55.522.869 1.357.318.83.318 2.018v.602H94.1v-1.273h5.273q0-.67-.273-1.187a2.06 2.06 0 0 0-.767-.824q-.49-.302-1.148-.302-.716 0-1.25.353a2.36 2.36 0 0 0-.818.909q-.284.556-.284 1.21v.994q0 .876.307 1.489.312.615.869.938.557.318 1.301.318.483 0 .88-.137.399-.142.688-.42.29-.279.443-.688l1.608.29a2.9 2.9 0 0 1-.693 1.244q-.494.529-1.244.824-.744.29-1.699.29m7.506-.176-2.569-8.727h1.756l1.71 6.409h.086l1.716-6.41h1.755l1.705 6.381h.085l1.699-6.38h1.756l-2.563 8.727h-1.733l-1.773-6.301h-.13l-1.773 6.301zm19.221.176q-1.227 0-2.142-.562a3.8 3.8 0 0 1-1.42-1.574q-.506-1.011-.506-2.364 0-1.358.506-2.375a3.8 3.8 0 0 1 1.42-1.58q.915-.561 2.142-.562 1.227 0 2.142.563t1.421 1.58q.505 1.016.505 2.374 0 1.353-.505 2.364a3.8 3.8 0 0 1-1.421 1.574q-.915.562-2.142.562m.006-1.426q.795 0 1.318-.42t.773-1.12q.255-.699.256-1.54 0-.835-.256-1.534a2.5 2.5 0 0 0-.773-1.13q-.523-.426-1.318-.427-.8 0-1.33.427a2.54 2.54 0 0 0-.778 1.13q-.25.7-.25 1.535 0 .84.25 1.54.256.697.778 1.119.53.42 1.33.42m7.658-3.932V24.5h-1.699v-8.727h1.63v1.42h.108q.302-.693.944-1.114.647-.42 1.63-.42.893 0 1.563.375.67.37 1.04 1.102.369.733.369 1.813V24.5h-1.699v-5.347q0-.948-.494-1.482-.495-.54-1.358-.54-.591 0-1.051.255-.455.255-.722.75-.261.489-.261 1.182"/><path fill="#0c9ef0" d="M63.61 43.5h-3.212l4.172-12.364h3.978L72.72 43.5h-3.212l-2.904-9.249h-.096zm-.429-4.866h6.713v2.27h-6.713zm13.822-7.498V43.5h-2.952V31.136zm7.113 3.091v2.174h-5.85v-2.174zm-4.624-2.221h2.952v8.578q0 .272.084.44.09.165.26.236.169.067.404.067.17 0 .357-.03.192-.038.29-.06l.446 2.13q-.21.06-.598.151a5 5 0 0 1-.911.115q-1.038.048-1.781-.242a2.3 2.3 0 0 1-1.129-.917q-.386-.622-.374-1.564zm10.365 11.67q-1.455 0-2.511-.574a3.97 3.97 0 0 1-1.618-1.648q-.561-1.075-.562-2.554 0-1.437.568-2.511.568-1.08 1.6-1.679 1.032-.603 2.433-.604.99 0 1.81.308.821.309 1.42.912.597.604.929 1.491.332.882.332 2.023v.736h-8.06v-1.715h5.313a1.66 1.66 0 0 0-.223-.839 1.5 1.5 0 0 0-.598-.573 1.7 1.7 0 0 0-.863-.211q-.495 0-.888.223a1.68 1.68 0 0 0-.863 1.449v1.745q0 .567.224.996.223.421.633.658.411.235.978.235.393 0 .713-.109.32-.108.55-.32.228-.21.343-.519l2.71.079a3.35 3.35 0 0 1-.742 1.587q-.567.67-1.49 1.045-.925.368-2.138.368m5.909-.176v-9.273h2.867v1.69h.097q.254-.917.827-1.364a2.1 2.1 0 0 1 1.334-.453q.206 0 .423.03.217.025.404.08v2.565a3 3 0 0 0-.555-.115 5 5 0 0 0-.604-.042q-.525 0-.948.235a1.7 1.7 0 0 0-.658.646 1.9 1.9 0 0 0-.235.966V43.5zm10.107-5.288V43.5h-2.952v-9.273h2.807v1.703h.103a2.6 2.6 0 0 1 1.05-1.334q.743-.49 1.769-.49.978 0 1.696.441.725.435 1.123 1.22.405.779.399 1.823v5.91h-2.952v-5.33q.006-.773-.393-1.208-.392-.435-1.092-.435-.465 0-.821.206a1.36 1.36 0 0 0-.544.573q-.186.375-.193.906m10.436 5.445q-.886 0-1.575-.296a2.46 2.46 0 0 1-1.081-.905q-.392-.61-.392-1.528 0-.773.271-1.304a2.3 2.3 0 0 1 .749-.863 3.5 3.5 0 0 1 1.099-.501 7 7 0 0 1 1.328-.235q.79-.074 1.274-.151.483-.085.7-.236a.51.51 0 0 0 .223-.44v-.03q0-.465-.32-.72-.32-.252-.863-.253-.585 0-.942.254a1.12 1.12 0 0 0-.452.7l-2.723-.096q.12-.846.622-1.51.507-.67 1.388-1.05.888-.387 2.131-.387.888 0 1.636.212.749.205 1.304.604.555.392.857.965.309.575.308 1.31V43.5h-2.777v-1.292h-.072q-.247.471-.634.797a2.5 2.5 0 0 1-.899.489 3.8 3.8 0 0 1-1.16.163m.912-1.932q.477 0 .857-.193.387-.194.616-.531.23-.344.229-.797v-.882a2 2 0 0 1-.307.121q-.175.054-.387.103t-.434.084l-.429.067a2.7 2.7 0 0 0-.712.205 1.1 1.1 0 0 0-.447.362.9.9 0 0 0-.151.52q0 .458.326.7.332.24.839.241m11.669-7.498v2.174h-5.849v-2.174zm-4.624-2.221h2.952v8.578q0 .272.085.44.09.165.259.236.17.067.405.067.168 0 .356-.03.193-.038.29-.06l.446 2.13q-.21.06-.597.151-.381.09-.912.115-1.038.048-1.781-.242a2.3 2.3 0 0 1-1.129-.917q-.386-.622-.374-1.564zm6.131 11.494v-9.273h2.952V43.5zm1.479-10.353q-.622 0-1.069-.41a1.32 1.32 0 0 1-.447-1.003q0-.579.447-.99a1.5 1.5 0 0 1 1.069-.417q.627 0 1.068.417.447.411.447.99 0 .585-.447 1.002a1.5 1.5 0 0 1-1.068.41m12.347 1.08-3.182 9.273h-3.38l-3.176-9.273h3.109l1.709 6.387h.096l1.715-6.387zm5.167 9.448q-1.455 0-2.511-.573a3.97 3.97 0 0 1-1.618-1.648q-.561-1.075-.561-2.554 0-1.437.567-2.511.567-1.08 1.6-1.679 1.032-.603 2.433-.604.99 0 1.811.308.82.309 1.419.912.597.604.929 1.491.332.882.332 2.023v.736h-8.059V37.86h5.312a1.66 1.66 0 0 0-.223-.839 1.5 1.5 0 0 0-.598-.573 1.7 1.7 0 0 0-.863-.211q-.495 0-.887.223a1.68 1.68 0 0 0-.864 1.449v1.745q0 .567.224.996.223.421.634.658.41.235.978.235.392 0 .712-.109.32-.108.549-.32.23-.21.344-.519l2.711.079a3.35 3.35 0 0 1-.743 1.587q-.567.67-1.491 1.045-.923.368-2.137.368m4.641-10.112v-2.427h10.45v2.427h-3.749V43.5h-2.946v-9.937zm14.893 10.112q-1.461 0-2.511-.598a4.1 4.1 0 0 1-1.612-1.678q-.561-1.08-.561-2.505 0-1.432.561-2.505.567-1.08 1.612-1.679 1.05-.603 2.511-.604 1.46 0 2.506.604 1.05.598 1.611 1.678.568 1.075.568 2.506 0 1.425-.568 2.505a4.07 4.07 0 0 1-1.611 1.678q-1.045.598-2.506.598m.018-2.228q.532 0 .9-.326t.561-.905q.2-.58.2-1.34 0-.773-.2-1.353-.193-.58-.561-.905a1.3 1.3 0 0 0-.9-.326q-.55 0-.929.326-.375.327-.574.905-.193.58-.193 1.353 0 .76.193 1.34.2.58.574.905.38.327.929.326"/></g><defs><filter id="b" width="51.429" height="51.429" x="6.286" y="2.286" color-interpolation-filters="sRGB" filterUnits="userSpaceOnUse"><feFlood flood-opacity="0" result="BackgroundImageFix"/><feColorMatrix in="SourceAlpha" result="hardAlpha" values="0 0 0 0 0 0 0 0 0 0 0 0 0 0 0 0 0 0 127 0"/><feOffset/><feGaussianBlur stdDeviation="2.857"/><feComposite in2="hardAlpha" operator="out"/><feColorMatrix values="0 0 0 0 0 0 0 0 0 0 0 0 0 0 0 0 0 0 0.25 0"/><feBlend in2="BackgroundImageFix" result="effect1_dropShadow_8_96"/><feBlend in="SourceGraphic" in2="effect1_dropShadow_8_96" result="shape"/></filter><filter id="c" width="126.2" height="48.2" x="54.4" y="3.9" color-interpolation-filters="sRGB" filterUnits="userSpaceOnUse"><feFlood flood-opacity="0" result="BackgroundImageFix"/><feColorMatrix in="SourceAlpha" result="hardAlpha" values="0 0 0 0 0 0 0 0 0 0 0 0 0 0 0 0 0 0 127 0"/><feOffset/><feGaussianBlur stdDeviation="2.8"/><feComposite in2="hardAlpha" operator="out"/><feColorMatrix values="0 0 0 0 0 0 0 0 0 0 0 0 0 0 0 0 0 0 0.25 0"/><feBlend in2="BackgroundImageFix" result="effect1_dropShadow_8_96"/><feBlend in="SourceGraphic" in2="effect1_dropShadow_8_96" result="shape"/></filter><linearGradient id="a" x1="93.5" x2="93.5" y1="0" y2="56" gradientUnits="userSpaceOnUse"><stop stop-color="#152531"/><stop offset="1" stop-color="#0c161c"/></linearGradient></defs></svg>