<svg xmlns="http://www.w3.org/2000/svg" width="164" height="56" fill="none" viewBox="0 0 164 56"><rect width="164" height="56" fill="url(#a)" rx="8"/><rect width="161.9" height="53.9" x="1.05" y="1.05" stroke="#fff" stroke-opacity=".15" stroke-width="2.1" rx="6.95"/><g filter="url(#b)"><path fill="#353535" d="M22.52 8v3.27h-5.996v2.884h-3.095v3.27h3.095v2.884h3.095v3.077h6.19v3.077h12.382v-3.077h6.19v-3.077h2.902v9.423H44.38v9.038h-3.289v6.154h-18.57V48h18.571v-3.077h3.289V38.77h2.902v-9.038h3.288V14.154h-3.288v3.27H44.38v2.884h-6.19v3.077H25.81v-3.077h-6.19v-2.885h-3.096v-3.269h5.997v-2.885H32V8z"/><path fill="#515151" d="M32 8v3.27h9.092v2.884h6.19v-2.885h-6.19V8z"/><path fill="#a37b63" d="M22.521 11.27v2.884h3.289v-2.885z"/><path fill="#ab826b" d="M25.81 11.27v2.884h3.095v-2.885z"/><path fill="#aba26b" d="M28.905 11.27v2.884h5.997v-2.885z"/><path fill="#ab826b" d="M34.902 11.27v2.884h3.289v-2.885z"/><path fill="#bf967e" d="M38.19 11.27v2.884h2.902v3.27h3.289v-3.27h-3.289v-2.885z"/><path fill="#958c55" d="M16.524 14.154v3.27h3.095v-3.27z"/><path fill="#956c55" d="M19.62 14.154v3.27h2.901v-3.27z"/><path fill="#c33e1f" d="M22.521 14.154v3.27h3.289v-3.27z"/><path fill="#e38c3f" d="M25.81 14.154v3.27h3.095v2.884H32v3.077h6.19v-3.077H32v-2.885h-3.095v-3.269z"/><path fill="#e4d25c" d="M28.905 14.154v3.27H32v2.884h6.19v-2.885h-3.288v-3.269z"/><path fill="#e38c3f" d="M34.902 14.154v3.27h3.289v-3.27z"/><path fill="#cc4628" d="M38.19 14.154v3.27h2.902v2.884h3.289v-2.885h-3.289v-3.269z"/><path fill="#bfb67e" d="M44.381 14.154v3.27h2.902v-3.27z"/><path fill="#515151" d="M13.429 17.423v12.308h3.095v9.038h3.095v6.154h2.902V38.77h-2.902v-9.038h-3.095V17.423z"/><path fill="#dc8638" d="M19.62 17.423v2.885h2.901v-2.885z"/><path fill="#e2cf5a" d="M22.521 17.423v2.885h3.289v3.077h3.095v-5.962z"/><path fill="#ea9346" d="M38.19 17.423v2.885h2.902v-2.885z"/><path fill="#e7e7e7" d="M16.524 20.308v3.077h3.095v3.077h6.19v-3.077h-6.19v-3.077z"/><path fill="#c54021" d="M28.905 20.308v3.077H32v-3.077z"/><path fill="#a9a9a9" d="M44.381 20.308v3.077h2.902v-3.077z"/><path fill="#d8d8d8" d="M16.524 23.385v6.346h3.095v9.038h2.902v3.27h3.288v2.884H32V32.615h-3.095v-2.884h-3.096v2.884h-3.288v-6.153h-2.902v-3.077z"/><path fill="#ead762" d="M38.19 23.385v3.077h2.902v-3.077z"/><path fill="#cb4627" d="M41.093 23.385v3.077h3.288v-3.077z"/><path fill="#727272" d="M44.381 23.385v6.346h-3.288v9.038h3.288v-9.038h2.902v-6.346z"/><path fill="#fff" d="M22.521 26.462v6.153h3.289v-6.153z"/><path fill="#d85334" d="M25.81 26.462v3.269h3.095v-3.27z"/><path fill="#cacaca" d="M28.905 26.462v3.269h9.286v-3.27z"/><path fill="#e99245" d="M38.19 26.462v3.269h2.902v-3.27z"/><path fill="#969696" d="M41.093 26.462v3.269h3.288v-3.27z"/><path fill="#a8a8a8" d="M28.905 29.731v2.885H32v9.423h2.902v-9.423h3.289V29.73z"/><path fill="#cb4627" d="M38.19 29.731v2.885h2.902V29.73z"/><path fill="#fff" d="M25.81 32.615v6.154h3.095v-6.154z"/><path fill="#969696" d="M34.902 32.615v9.423H32v2.885h9.092v-6.154h-2.901v-2.884h2.901v-3.27z"/><path fill="#cb4627" d="M38.19 35.885v2.884h2.902v-2.884z"/><path fill="#969696" d="M22.521 42.039v2.884h3.289V42.04z"/></g><g filter="url(#c)"><path fill="#e8e8e8" d="M62.261 24.5h-1.863l4.187-11.636h2.029L70.8 24.5h-1.864l-3.29-9.523h-.09zm.313-4.557h6.045v1.477h-6.045zm16.143-4.17L75.552 24.5h-1.818l-3.17-8.727h1.824l2.21 6.716h.09l2.205-6.716zm3.887 8.92a3.6 3.6 0 0 1-1.5-.307 2.53 2.53 0 0 1-1.063-.903q-.386-.591-.386-1.449 0-.739.284-1.216.285-.477.767-.756a4 4 0 0 1 1.08-.42q.596-.142 1.215-.216l1.273-.148q.49-.061.71-.198.222-.137.222-.444v-.04q0-.744-.42-1.153-.415-.41-1.24-.409-.857 0-1.351.38-.49.376-.677.836l-1.596-.364q.284-.795.83-1.284.551-.495 1.266-.716.717-.227 1.506-.227.523 0 1.108.125.59.12 1.102.443.517.324.847.926.33.597.33 1.552V24.5h-1.66v-1.193h-.068q-.165.33-.494.648-.33.318-.847.528t-1.238.21m.369-1.364q.705 0 1.204-.278a1.95 1.95 0 0 0 .768-.727q.267-.454.267-.972v-1.125q-.091.091-.353.17-.255.075-.585.131-.33.052-.642.097l-.523.068q-.494.063-.903.21-.403.148-.648.427-.238.272-.238.727 0 .63.466.954.465.32 1.187.319m6.2 1.171v-8.727h1.7V24.5zm.858-10.074a1.08 1.08 0 0 1-.761-.295.96.96 0 0 1-.313-.716q0-.421.313-.716.318-.3.761-.301.444 0 .756.3a.94.94 0 0 1 .318.717.95.95 0 0 1-.318.716 1.06 1.06 0 0 1-.756.295m4.825-1.562V24.5h-1.698V12.864zm4.826 11.83a3.6 3.6 0 0 1-1.5-.308 2.53 2.53 0 0 1-1.063-.903q-.386-.591-.386-1.449 0-.739.284-1.216t.767-.756a4 4 0 0 1 1.08-.42q.596-.142 1.216-.216l1.272-.148q.49-.061.71-.198.222-.137.222-.444v-.04q0-.744-.42-1.153-.415-.41-1.239-.409-.858 0-1.352.38-.489.376-.676.836L97 17.886q.284-.795.83-1.284.551-.495 1.267-.716.716-.227 1.505-.227.523 0 1.108.125.592.12 1.102.443.517.324.847.926.33.597.33 1.552V24.5h-1.659v-1.193h-.069q-.165.33-.494.648-.33.318-.847.528t-1.238.21m.369-1.364q.704 0 1.205-.279.505-.278.767-.727.267-.454.267-.972v-1.125q-.091.091-.353.17-.255.075-.585.131-.329.052-.642.097l-.523.068a4.2 4.2 0 0 0-.903.21q-.403.148-.648.427-.238.272-.238.727 0 .63.466.954.465.32 1.187.319m6.337 1.17V12.864h1.699v4.323h.102q.147-.272.426-.63t.773-.625q.494-.273 1.307-.273 1.056 0 1.886.534.83.535 1.301 1.54.477 1.005.477 2.42t-.471 2.427q-.472 1.005-1.296 1.55-.824.54-1.88.54-.796 0-1.302-.267a2.5 2.5 0 0 1-.784-.625 5 5 0 0 1-.437-.636h-.142V24.5zm1.665-4.364q0 .921.267 1.614t.772 1.085q.506.387 1.239.387.761 0 1.273-.404.511-.41.772-1.108.267-.699.267-1.574 0-.863-.261-1.55-.255-.689-.773-1.086-.511-.398-1.278-.398-.739 0-1.25.381-.506.38-.767 1.063-.261.681-.261 1.59m9.913-7.272V24.5h-1.699V12.864zm6.047 11.812q-1.29 0-2.222-.551a3.74 3.74 0 0 1-1.432-1.562q-.5-1.012-.5-2.37 0-1.341.5-2.364a3.9 3.9 0 0 1 1.409-1.596q.91-.574 2.125-.574.74 0 1.432.244.693.244 1.245.768.55.522.869 1.357.318.83.318 2.018v.602h-6.937v-1.273h5.272q0-.67-.272-1.187a2.07 2.07 0 0 0-.767-.824q-.49-.302-1.148-.302-.716 0-1.25.353a2.36 2.36 0 0 0-.818.909q-.284.556-.284 1.21v.994q0 .876.306 1.489.313.615.87.938.557.318 1.301.318.483 0 .88-.137.399-.142.688-.42.29-.279.443-.688l1.608.29q-.194.71-.693 1.244-.494.529-1.244.824-.745.29-1.699.29m13.54 0q-1.228 0-2.143-.562a3.8 3.8 0 0 1-1.42-1.574q-.506-1.011-.506-2.364 0-1.358.506-2.375a3.8 3.8 0 0 1 1.42-1.58q.915-.561 2.143-.562 1.227 0 2.142.563a3.8 3.8 0 0 1 1.42 1.58q.506 1.016.506 2.374 0 1.353-.506 2.364a3.8 3.8 0 0 1-1.42 1.574q-.915.562-2.142.562m.005-1.426q.796 0 1.318-.42.523-.42.773-1.12.256-.699.256-1.54 0-.835-.256-1.534a2.5 2.5 0 0 0-.773-1.13q-.523-.426-1.318-.427-.801 0-1.329.427a2.54 2.54 0 0 0-.779 1.13q-.25.7-.25 1.535 0 .84.25 1.54.256.697.779 1.119.528.42 1.329.42m7.658-3.932V24.5h-1.699v-8.727h1.631v1.42h.108q.3-.693.943-1.114.648-.42 1.63-.42.893 0 1.563.375.67.37 1.04 1.102.369.733.369 1.813V24.5h-1.699v-5.347q0-.948-.494-1.482-.495-.54-1.358-.54-.59 0-1.051.255-.455.255-.722.75-.261.489-.261 1.182"/><path fill="url(#d)" d="M60.936 43.5V31.136h5.155q1.388 0 2.325.393.94.392 1.412 1.098.477.707.477 1.636 0 .707-.296 1.262-.296.55-.815.912-.519.361-1.201.507v.12q.749.037 1.382.405a2.8 2.8 0 0 1 1.027 1.026q.386.652.386 1.546a3.2 3.2 0 0 1-.507 1.78q-.507.78-1.467 1.232-.96.447-2.33.447zm2.988-2.409h1.847q.972 0 1.431-.368.465-.368.465-1.026 0-.477-.224-.821a1.44 1.44 0 0 0-.633-.538q-.411-.192-.984-.193h-1.902zm0-4.872h1.654q.489 0 .87-.163.38-.162.591-.47.217-.309.217-.743 0-.622-.44-.978t-1.19-.356h-1.702zm14.283 3.279v-5.27h2.946V43.5H78.34v-1.727h-.096a2.7 2.7 0 0 1-1.05 1.353q-.737.495-1.782.495-.948 0-1.666-.435a2.96 2.96 0 0 1-1.117-1.213q-.398-.785-.404-1.836v-5.91h2.952v5.33q.006.755.398 1.19.393.435 1.069.435.44 0 .79-.193.357-.2.562-.574.21-.38.211-.917m7.488 1.57.012-3.52h.41l2.608-3.32h3.345l-3.876 4.756h-.779zM83.032 43.5V31.136h2.952V43.5zm5.76 0-2.427-3.852 1.944-2.094 3.894 5.946zm6.996-2.433.013-3.52h.41l2.608-3.32h3.344l-3.875 4.757h-.78zM93.126 43.5V31.136h2.952V43.5zm5.76 0-2.427-3.852 1.943-2.094 3.894 5.946zm4.334 0v-9.273h2.952V43.5zm1.479-10.353q-.622 0-1.069-.41a1.32 1.32 0 0 1-.446-1.003q0-.579.446-.99a1.5 1.5 0 0 1 1.069-.417q.628 0 1.068.417.447.411.447.99 0 .585-.447 1.002a1.5 1.5 0 0 1-1.068.41m8.586 1.08V36.4h-5.85v-2.174zm-4.624-2.221h2.952v8.578q0 .272.084.44a.53.53 0 0 0 .26.236 1.1 1.1 0 0 0 .404.067q.17 0 .356-.03.194-.038.29-.06l.447 2.13q-.211.06-.598.151-.38.09-.911.115-1.039.048-1.781-.242a2.3 2.3 0 0 1-1.129-.917q-.387-.622-.374-1.564z"/></g><defs><linearGradient id="a" x1="82" x2="82" y1="0" y2="56" gradientUnits="userSpaceOnUse"><stop stop-color="#342c18"/><stop offset="1" stop-color="#251a11"/></linearGradient><linearGradient id="d" x1="87" x2="87" y1="28.5" y2="46.5" gradientUnits="userSpaceOnUse"><stop stop-color="#fff"/><stop offset="1" stop-color="#b9b9b9"/></linearGradient><filter id="b" width="51.429" height="51.429" x="6.286" y="2.286" color-interpolation-filters="sRGB" filterUnits="userSpaceOnUse"><feFlood flood-opacity="0" result="BackgroundImageFix"/><feColorMatrix in="SourceAlpha" result="hardAlpha" values="0 0 0 0 0 0 0 0 0 0 0 0 0 0 0 0 0 0 127 0"/><feOffset/><feGaussianBlur stdDeviation="2.857"/><feComposite in2="hardAlpha" operator="out"/><feColorMatrix values="0 0 0 0 0 0 0 0 0 0 0 0 0 0 0 0 0 0 0.25 0"/><feBlend in2="BackgroundImageFix" result="effect1_dropShadow_2_3325"/><feBlend in="SourceGraphic" in2="effect1_dropShadow_2_3325" result="shape"/></filter><filter id="c" width="103.2" height="48.2" x="54.4" y="3.9" color-interpolation-filters="sRGB" filterUnits="userSpaceOnUse"><feFlood flood-opacity="0" result="BackgroundImageFix"/><feColorMatrix in="SourceAlpha" result="hardAlpha" values="0 0 0 0 0 0 0 0 0 0 0 0 0 0 0 0 0 0 127 0"/><feOffset/><feGaussianBlur stdDeviation="2.8"/><feComposite in2="hardAlpha" operator="out"/><feColorMatrix values="0 0 0 0 0 0 0 0 0 0 0 0 0 0 0 0 0 0 0.25 0"/><feBlend in2="BackgroundImageFix" result="effect1_dropShadow_2_3325"/><feBlend in="SourceGraphic" in2="effect1_dropShadow_2_3325" result="shape"/></filter></defs></svg>