<svg xmlns="http://www.w3.org/2000/svg" width="164" height="56" fill="none" viewBox="0 0 164 56"><rect width="164" height="56" fill="url(#a)" rx="8"/><rect width="161.9" height="53.9" x="1.05" y="1.05" stroke="#fff" stroke-opacity=".15" stroke-width="2.1" rx="6.95"/><g fill="#ff3e3e" filter="url(#b)"><path d="m22.69 22.782 9.526-3.108c.631-.206 1.035-.83.852-1.49-.17-.614-.869-1.05-1.501-.847l-9.524 3.108c-.632.206-1.036.83-.853 1.49.17.613.869 1.05 1.5.847"/><path d="m31.565 19.674 9.518 3.104c.632.206 1.33-.234 1.5-.847.183-.66-.221-1.284-.852-1.49l-9.515-3.104c-.632-.206-1.331.233-1.501.847-.183.66.22 1.284.852 1.49zM21.75 22.66l9.499 4.305c.604.274 1.308.177 1.67-.435.31-.526.167-1.383-.438-1.658l-9.499-4.305c-.604-.274-1.308-.177-1.669.435-.31.526-.168 1.383.438 1.658"/><path d="m40.788 20.563-9.539 4.312c-.606.274-.748 1.131-.438 1.658.361.612 1.064.708 1.67.434l9.54-4.311c.605-.274.747-1.131.437-1.658-.361-.613-1.064-.708-1.67-.435M21.75 36.052l9.472 4.29c.605.274 1.308.178 1.67-.434.31-.526.167-1.384-.438-1.658l-9.472-4.29c-.604-.275-1.308-.178-1.669.434-.31.526-.168 1.384.438 1.658"/><path d="m32.454 40.343 9.577-4.318c.605-.273.748-1.131.438-1.658-.362-.613-1.064-.708-1.67-.435l-9.577 4.318c-.606.273-.747 1.131-.437 1.658.36.612 1.064.708 1.669.434"/><path d="m40.188 21.61.009 12.02v1.348c0 1.563 2.44 1.564 2.44 0l-.009-12.02V21.61c0-1.563-2.44-1.563-2.44 0m-19.042.004v13.392c0 1.563 2.44 1.563 2.44 0V21.614c0-1.563-2.44-1.563-2.44 0m9.499 4.307-.025 12.026v1.35c0 1.562 2.44 1.562 2.44 0l.024-12.026v-1.35c0-1.562-2.44-1.562-2.44 0m-18.196 2.282v-1.386q1.865 0 2.603-.782.75-.782.749-2.614v-3.576q0-1.542.29-2.67.301-1.13.972-1.866.67-.738 1.788-1.095 1.117-.358 2.76-.358v2.19q-1.296 0-2.045.402-.738.403-1.05 1.252-.302.839-.302 2.145v4.47a5 5 0 0 1-.234 1.586 2.6 2.6 0 0 1-.838 1.23q-.615.513-1.755.793-1.128.279-2.938.279M21.61 42.46q-1.642 0-2.76-.358-1.117-.357-1.788-1.094-.67-.738-.972-1.867-.29-1.128-.29-2.67v-3.575q0-1.833-.749-2.615-.738-.782-2.603-.782v-1.386q1.81 0 2.938.28 1.14.279 1.755.793t.838 1.23a5 5 0 0 1 .234 1.586v4.47q0 1.306.302 2.144.312.838 1.05 1.24.749.414 2.045.414zm-9.162-12.961v-2.682h2.637V29.5zm39.104-1.537v-1.385q-1.865 0-2.603-.782-.75-.782-.749-2.615v-3.575q0-1.542-.29-2.67-.301-1.13-.972-1.867-.67-.736-1.788-1.095-1.117-.357-2.76-.357v2.19q1.296 0 2.045.402.737.402 1.05 1.251.302.839.302 2.146v4.469q0 .872.235 1.587.223.714.837 1.229.615.513 1.755.793 1.129.28 2.938.28M42.39 42.22q1.643 0 2.76-.357t1.788-1.095.972-1.866q.29-1.128.29-2.67v-3.576q0-1.833.749-2.614.738-.782 2.603-.782v-1.386q-1.81 0-2.938.28-1.14.279-1.755.793-.615.513-.837 1.229a5 5 0 0 0-.235 1.586v4.47q0 1.307-.302 2.145-.313.838-1.05 1.24-.749.413-2.045.413zm9.162-12.96v-2.682h-2.637v2.682z"/></g><g filter="url(#c)"><path fill="#e8e8e8" d="M62.261 24.5h-1.863l4.187-11.636h2.029L70.8 24.5h-1.864l-3.29-9.523h-.09zm.313-4.557h6.045v1.477h-6.045zm16.143-4.17L75.552 24.5h-1.818l-3.17-8.727h1.824l2.21 6.716h.09l2.205-6.716zm3.887 8.92a3.6 3.6 0 0 1-1.5-.307 2.53 2.53 0 0 1-1.063-.903q-.386-.591-.386-1.449 0-.739.284-1.216.285-.477.767-.756a4 4 0 0 1 1.08-.42q.596-.142 1.215-.216l1.273-.148q.49-.061.71-.198.222-.137.222-.444v-.04q0-.744-.42-1.153-.415-.41-1.24-.409-.857 0-1.351.38-.49.376-.677.836l-1.596-.364q.284-.795.83-1.284.551-.495 1.266-.716.717-.227 1.506-.227.523 0 1.108.125.59.12 1.102.443.517.324.847.926.33.597.33 1.552V24.5h-1.66v-1.193h-.068q-.165.33-.494.648-.33.318-.847.528t-1.238.21m.369-1.364q.705 0 1.204-.278a1.95 1.95 0 0 0 .768-.727q.267-.454.267-.972v-1.125q-.091.091-.353.17-.255.075-.585.131-.33.052-.642.097l-.523.068q-.494.063-.903.21-.403.148-.648.427-.238.272-.238.727 0 .63.466.954.465.32 1.187.319m6.2 1.171v-8.727h1.7V24.5zm.858-10.074a1.08 1.08 0 0 1-.761-.295.96.96 0 0 1-.313-.716q0-.421.313-.716.318-.3.761-.301.444 0 .756.3a.94.94 0 0 1 .318.717.95.95 0 0 1-.318.716 1.06 1.06 0 0 1-.756.295m4.825-1.562V24.5h-1.698V12.864zm4.826 11.83a3.6 3.6 0 0 1-1.5-.308 2.53 2.53 0 0 1-1.063-.903q-.386-.591-.386-1.449 0-.739.284-1.216t.767-.756a4 4 0 0 1 1.08-.42q.596-.142 1.216-.216l1.272-.148q.49-.061.71-.198.222-.137.222-.444v-.04q0-.744-.42-1.153-.415-.41-1.239-.409-.858 0-1.352.38-.489.376-.676.836L97 17.886q.284-.795.83-1.284.551-.495 1.267-.716.716-.227 1.505-.227.523 0 1.108.125.592.12 1.102.443.517.324.847.926.33.597.33 1.552V24.5h-1.659v-1.193h-.069q-.165.33-.494.648-.33.318-.847.528t-1.238.21m.369-1.364q.704 0 1.205-.279.505-.278.767-.727.267-.454.267-.972v-1.125q-.091.091-.353.17-.255.075-.585.131-.329.052-.642.097l-.523.068a4.2 4.2 0 0 0-.903.21q-.403.148-.648.427-.238.272-.238.727 0 .63.466.954.465.32 1.187.319m6.337 1.17V12.864h1.699v4.323h.102q.147-.272.426-.63t.773-.625q.494-.273 1.307-.273 1.056 0 1.886.534.83.535 1.301 1.54.477 1.005.477 2.42t-.471 2.427q-.472 1.005-1.296 1.55-.824.54-1.88.54-.796 0-1.302-.267a2.5 2.5 0 0 1-.784-.625 5 5 0 0 1-.437-.636h-.142V24.5zm1.665-4.364q0 .921.267 1.614t.772 1.085q.506.387 1.239.387.761 0 1.273-.404.511-.41.772-1.108.267-.699.267-1.574 0-.863-.261-1.55-.255-.689-.773-1.086-.511-.398-1.278-.398-.739 0-1.25.381-.506.38-.767 1.063-.261.681-.261 1.59m9.913-7.272V24.5h-1.699V12.864zm6.047 11.812q-1.29 0-2.222-.551a3.74 3.74 0 0 1-1.432-1.562q-.5-1.012-.5-2.37 0-1.341.5-2.364a3.9 3.9 0 0 1 1.409-1.596q.91-.574 2.125-.574.74 0 1.432.244.693.244 1.245.768.55.522.869 1.357.318.83.318 2.018v.602h-6.937v-1.273h5.272q0-.67-.272-1.187a2.07 2.07 0 0 0-.767-.824q-.49-.302-1.148-.302-.716 0-1.25.353a2.36 2.36 0 0 0-.818.909q-.284.556-.284 1.21v.994q0 .876.306 1.489.313.615.87.938.557.318 1.301.318.483 0 .88-.137.399-.142.688-.42.29-.279.443-.688l1.608.29q-.194.71-.693 1.244-.494.529-1.244.824-.745.29-1.699.29m13.54 0q-1.228 0-2.143-.562a3.8 3.8 0 0 1-1.42-1.574q-.506-1.011-.506-2.364 0-1.358.506-2.375a3.8 3.8 0 0 1 1.42-1.58q.915-.561 2.143-.562 1.227 0 2.142.563a3.8 3.8 0 0 1 1.42 1.58q.506 1.016.506 2.374 0 1.353-.506 2.364a3.8 3.8 0 0 1-1.42 1.574q-.915.562-2.142.562m.005-1.426q.796 0 1.318-.42.523-.42.773-1.12.256-.699.256-1.54 0-.835-.256-1.534a2.5 2.5 0 0 0-.773-1.13q-.523-.426-1.318-.427-.801 0-1.329.427a2.54 2.54 0 0 0-.779 1.13q-.25.7-.25 1.535 0 .84.25 1.54.256.697.779 1.119.528.42 1.329.42m7.658-3.932V24.5h-1.699v-8.727h1.631v1.42h.108q.3-.693.943-1.114.648-.42 1.63-.42.893 0 1.563.375.67.37 1.04 1.102.369.733.369 1.813V24.5h-1.699v-5.347q0-.948-.494-1.482-.495-.54-1.358-.54-.59 0-1.051.255-.455.255-.722.75-.261.489-.261 1.182"/><path fill="#ff3e3e" d="M72.158 35.616H69.14a2.6 2.6 0 0 0-.248-.84 2 2 0 0 0-.495-.64 2.1 2.1 0 0 0-.73-.404 2.8 2.8 0 0 0-.924-.145q-.9 0-1.551.441-.646.44-.996 1.274-.344.832-.344 2.016 0 1.232.35 2.065.356.827.996 1.25.646.416 1.527.416.495 0 .9-.127.41-.126.718-.368.314-.247.513-.598.206-.356.284-.803l3.018.019a4.6 4.6 0 0 1-.477 1.617 5.2 5.2 0 0 1-1.08 1.455 5.1 5.1 0 0 1-1.678 1.039q-.986.386-2.258.386-1.679 0-3.007-.736-1.322-.743-2.088-2.162-.768-1.418-.767-3.453 0-2.04.779-3.459t2.106-2.155 2.977-.737q1.122 0 2.076.314a5 5 0 0 1 1.679.906q.724.592 1.177 1.455.453.862.561 1.974m6.039 8.06q-1.46 0-2.512-.599a4.1 4.1 0 0 1-1.611-1.678q-.562-1.08-.562-2.505 0-1.432.562-2.505.567-1.08 1.611-1.679 1.05-.603 2.512-.604 1.461 0 2.505.604 1.05.598 1.612 1.678.567 1.075.567 2.506 0 1.425-.567 2.505a4.07 4.07 0 0 1-1.612 1.678q-1.044.598-2.505.598m.018-2.229q.531 0 .9-.326.368-.326.56-.905.2-.58.2-1.34 0-.773-.2-1.353-.192-.58-.56-.905a1.3 1.3 0 0 0-.9-.326 1.38 1.38 0 0 0-.93.326q-.374.327-.573.905-.195.58-.194 1.353 0 .76.194 1.34.199.58.573.905.381.327.93.326m9.565 2.186a3.4 3.4 0 0 1-1.865-.531q-.84-.532-1.34-1.594t-.501-2.638q0-1.636.519-2.693.52-1.056 1.358-1.563a3.47 3.47 0 0 1 1.817-.508q.73 0 1.25.254.52.247.857.64.339.392.513.815h.06v-4.679h2.953V43.5h-2.922v-1.503h-.09a2.9 2.9 0 0 1-.532.803q-.344.374-.863.603-.513.23-1.214.23m1.027-2.3q.537 0 .917-.302.38-.308.586-.863t.205-1.304q0-.762-.205-1.31-.2-.55-.586-.846a1.45 1.45 0 0 0-.917-.295q-.55 0-.93.302-.38.3-.58.85-.193.55-.193 1.299t.2 1.304q.198.555.573.863.38.302.93.302m10.795 2.342q-1.455 0-2.511-.573a3.97 3.97 0 0 1-1.618-1.648q-.561-1.075-.561-2.554 0-1.437.567-2.511.568-1.08 1.6-1.679 1.032-.603 2.433-.604.99 0 1.811.308a3.9 3.9 0 0 1 1.418.912q.599.604.93 1.491.332.882.332 2.023v.736h-8.06v-1.715h5.313a1.66 1.66 0 0 0-.223-.839 1.5 1.5 0 0 0-.598-.573 1.7 1.7 0 0 0-.863-.211q-.495 0-.887.223a1.68 1.68 0 0 0-.863 1.449v1.745q0 .567.223.996.223.421.634.658.41.235.978.235.392 0 .712-.109.32-.108.549-.32.23-.21.344-.519l2.711.079a3.35 3.35 0 0 1-.743 1.587q-.567.67-1.491 1.045-.923.368-2.137.368m5.909-12.539h3.701l3.139 7.655h.145l3.139-7.655h3.7V43.5h-2.909v-7.594h-.103l-2.97 7.516h-1.86l-2.97-7.559h-.102V43.5h-2.91zm26.911 4.48h-3.018a2.6 2.6 0 0 0-.248-.84 2.1 2.1 0 0 0-.495-.64 2.1 2.1 0 0 0-.73-.404 2.8 2.8 0 0 0-.924-.145q-.9 0-1.552.441-.645.44-.996 1.274-.344.832-.344 2.016 0 1.232.35 2.065.357.827.996 1.25.646.416 1.528.416.495 0 .899-.127.41-.126.719-.368.314-.247.513-.598.205-.356.284-.803l3.018.019a4.6 4.6 0 0 1-.477 1.617 5.2 5.2 0 0 1-1.081 1.455 5.1 5.1 0 0 1-1.678 1.039q-.984.386-2.258.386-1.678 0-3.006-.736-1.322-.743-2.089-2.162-.766-1.418-.766-3.453 0-2.04.778-3.459.779-1.419 2.107-2.155 1.329-.737 2.976-.737a6.6 6.6 0 0 1 2.077.314 5 5 0 0 1 1.678.906q.725.592 1.178 1.455.452.862.561 1.974"/></g><defs><filter id="b" width="51.429" height="51.429" x="6.286" y="2.286" color-interpolation-filters="sRGB" filterUnits="userSpaceOnUse"><feFlood flood-opacity="0" result="BackgroundImageFix"/><feColorMatrix in="SourceAlpha" result="hardAlpha" values="0 0 0 0 0 0 0 0 0 0 0 0 0 0 0 0 0 0 127 0"/><feOffset/><feGaussianBlur stdDeviation="2.857"/><feComposite in2="hardAlpha" operator="out"/><feColorMatrix values="0 0 0 0 0 0 0 0 0 0 0 0 0 0 0 0 0 0 0.25 0"/><feBlend in2="BackgroundImageFix" result="effect1_dropShadow_5_297"/><feBlend in="SourceGraphic" in2="effect1_dropShadow_5_297" result="shape"/></filter><filter id="c" width="103.2" height="48.2" x="54.4" y="3.9" color-interpolation-filters="sRGB" filterUnits="userSpaceOnUse"><feFlood flood-opacity="0" result="BackgroundImageFix"/><feColorMatrix in="SourceAlpha" result="hardAlpha" values="0 0 0 0 0 0 0 0 0 0 0 0 0 0 0 0 0 0 127 0"/><feOffset/><feGaussianBlur stdDeviation="2.8"/><feComposite in2="hardAlpha" operator="out"/><feColorMatrix values="0 0 0 0 0 0 0 0 0 0 0 0 0 0 0 0 0 0 0.25 0"/><feBlend in2="BackgroundImageFix" result="effect1_dropShadow_5_297"/><feBlend in="SourceGraphic" in2="effect1_dropShadow_5_297" result="shape"/></filter><linearGradient id="a" x1="82" x2="82" y1="0" y2="56" gradientUnits="userSpaceOnUse"><stop stop-color="#310d0d"/><stop offset="1" stop-color="#1d0808"/></linearGradient></defs></svg>