<svg xmlns="http://www.w3.org/2000/svg" width="164" height="56" fill="none" viewBox="0 0 164 56"><rect width="164" height="56" fill="url(#a)" rx="8"/><rect width="161.9" height="53.9" x="1.05" y="1.05" stroke="#fff" stroke-opacity=".15" stroke-width="2.1" rx="6.95"/><g fill="#fff" filter="url(#b)"><path d="M30.426 8.01c-.094.01-.394.045-.664.07-3.847.402-7.635 2.03-10.724 4.618-.57.472-1.87 1.77-2.341 2.341-2.558 3.055-4.054 6.484-4.605 10.542-.123.9-.123 3.94 0 4.84.551 4.058 2.047 7.487 4.605 10.541.472.57 1.77 1.87 2.341 2.342 3.055 2.557 6.483 4.053 10.542 4.604.9.123 3.94.123 4.84 0 4.058-.551 7.487-2.047 10.542-4.604.57-.473 1.87-1.771 2.341-2.342 2.558-3.054 4.054-6.483 4.605-10.541.123-.9.123-3.94 0-4.84-.551-4.058-2.047-7.487-4.605-10.542-.472-.57-1.77-1.869-2.341-2.341-3.045-2.548-6.508-4.063-10.512-4.6-.433-.058-1.063-.083-2.229-.093a44 44 0 0 0-1.795.005m.246 2.125c0 .576.04 1.825.093 3.01.03.581.064 1.412.079 1.845.054 1.535.216 5.564.241 5.923l.025.359-.222-.025a.8.8 0 0 1-.256-.054c-.014-.02-.049-.359-.068-.758a1140 1140 0 0 1-.409-9.537l-.03-1.092.139-.02c.073-.01.196-.025.275-.03l.133-.004zm4.708-.118c.004.005.02 1.49.034 3.3.02 1.816.044 3.444.059 3.621.015.182.01.34-.015.35-.02.014-.142.014-.265 0l-.227-.02-.034-1.432c-.02-.792-.044-1.667-.054-1.953-.04-.87-.074-3.826-.044-3.9.02-.054.073-.06.28-.025.143.03.26.054.266.06M24 11.665c.03.044.261 2.755.546 6.301.094 1.205.188 2.307.202 2.445.025.25.02.26-.137.359a.8.8 0 0 1-.197.098c-.015 0-.045-.127-.06-.285-.068-.64-.334-3.728-.52-5.962a301 301 0 0 0-.222-2.617c-.025-.216-.02-.236.108-.304.157-.084.246-.099.28-.035m13.543.989c.138.049.152.073.182.354.05.492.034 2.843-.02 2.843-.142 0-.438-.167-.462-.26-.015-.06-.03-.758-.03-1.55 0-1.599-.02-1.505.33-1.387m-9.086.231c0 .133.035.866.074 1.638.04.772.084 1.751.103 2.174.035.856.045.826-.285.846-.162.005-.162.005-.172-.24-.01-.139-.035-.567-.064-.96-.025-.394-.084-1.245-.123-1.894-.04-.65-.089-1.293-.103-1.431-.03-.246-.025-.256.108-.305.079-.03.216-.054.305-.054.157-.005.157-.005.157.226m13.646.674.167.069.035.659c.014.359.024 1.136.014 1.722l-.014 1.072-.207-.104-.207-.098-.014-1.633c-.01-.9-.005-1.663.005-1.697.02-.074.02-.074.22.01m-8.982.644c.03.03.098 2.415.103 3.625l.005.729-.231-.035a2 2 0 0 1-.246-.034c-.015-.01-.163-3.655-.163-4.01v-.363l.251.03c.143.019.266.043.28.058m11.328.35c.06.068.07 1.146.084 7.088.015 6.822.015 7-.074 7a.3.3 0 0 1-.172-.065c-.074-.054-.084-.649-.108-6.478-.02-3.532-.044-6.739-.06-7.127l-.029-.709.143.104c.084.059.177.142.216.187m-4.412 1.008c.025.02.05.3.054.62.025 1.087.03 7.752.005 7.772-.01.01-.098-.015-.197-.055l-.177-.073v-8.367l.138.03a.5.5 0 0 1 .177.073m-13.577.275c.015.133.04.433.054.68.015.24.05.791.079 1.219.059.866.05.92-.231.92-.148 0-.168-.015-.187-.163-.05-.29-.222-2.71-.197-2.75.025-.034.28-.122.399-.132.029-.005.068.098.083.226m-8.136 1.255c.054.521.162 1.613.24 2.425.084.811.153 1.5.153 1.53 0 .059-.378.245-.418.206-.024-.024-.516-4.378-.516-4.574 0-.119.379-.615.428-.561.014.01.064.447.113.974m19.288.516.142.084.005 1.062c.005.58.015 1.23.015 1.442.01.442-.044.516-.31.422l-.152-.054v-.423c0-.236-.015-.92-.035-1.524l-.03-1.093h.114c.059 0 .172.04.25.084M20.48 19.516c.089.944.231 2.538.325 3.541l.167 1.82-.192.192-.186.192-.035-.389c-.02-.216-.118-1.22-.221-2.233s-.251-2.484-.325-3.266l-.138-1.417.192-.177c.172-.162.192-.167.226-.078.02.049.104.865.187 1.815m-3.684.595c.108.969.393 3.546.64 5.726.245 2.179.476 4.279.52 4.672.04.394.109.99.148 1.329.07.575.07.614-.01.673-.117.089-.167.08-.167-.024 0-.044-.044-.418-.098-.822-.089-.673-.236-1.815-.566-4.377-.069-.517-.201-1.545-.295-2.288-.098-.742-.241-1.85-.32-2.46-.078-.61-.211-1.652-.295-2.326-.088-.669-.142-1.264-.128-1.328.035-.133.325-.595.354-.566.01.015.109.817.217 1.79m-1.505 2.12a694 694 0 0 0 .57 4.417l.094.689-.104.088c-.059.05-.118.07-.137.05s-.06-.217-.089-.433c-.03-.217-.211-1.481-.408-2.804l-.35-2.41.114-.335c.059-.182.123-.33.138-.33.02 0 .093.483.172 1.068m27.006-.645c.069.07.078.374.078 2.632v2.553h-.137c-.3 0-.295.074-.315-2.72l-.015-2.543h.157c.084 0 .192.034.232.079m-10.768.881a9.6 9.6 0 0 1 3.04.97c.62.319.915.54 1.603 1.2 1.024.978 1.653 1.834 2.243 3.044.861 1.761 1.196 3.32 1.619 7.501.192 1.875.443 5.274.497 6.666.015.403.049 1.067.078 1.475.055.866.118.748-.644 1.117-1.058.512-2.076.866-3.419 1.195-1.643.404-2.705.532-4.329.536l-1.18.005.01-.565c0-.31.03-1.033.059-1.599.147-2.74.118-6.198-.074-8.116-.108-1.102-.32-2.44-.438-2.735-.024-.064.089-.118.576-.285.89-.31 1.662-.699 1.78-.89.212-.365-.167-.886-.649-.886-.084 0-.334.088-.566.192-1.102.506-3.31 1.101-4.584 1.234-.88.094-2.248.04-3.198-.133-.516-.093-1.441-.442-2.213-.84-.89-.463-1.437-1.078-1.6-1.806-.088-.393-.063-1.18.05-1.623.123-.487.467-1.195.782-1.609 1.402-1.844 4.295-3.443 7.26-4.004.945-.177 2.283-.196 3.297-.044m15.175.152c.177.074.197.094.197.261.01 1.343-.02 4.413-.044 4.54-.005.045-.261.05-.37.01-.068-.024-.078-.29-.078-2.46 0-1.554.02-2.43.05-2.43.024 0 .137.035.245.08m2.15 2.701.177.074-.034 4.073c-.04 5.19-.045 5.342-.232 5.79-.305.732-.29.88-.26-2.337.01-1.609.034-3.237.044-3.616.01-.378.02-1.446.025-2.375q-.002-1.683.049-1.683c.03 0 .133.035.23.074m-29.584 1.225c.03.398.02.438-.123.752l-.157.335-.06-.492c-.093-.787-.093-.821.094-.94.084-.058.172-.098.187-.088s.044.207.06.433m-3.04 2.966c.044.403.389 3.08.566 4.393.265 2.031.285 2.321.167 2.198-.015-.014-.128-.698-.246-1.52-.767-5.302-.762-5.268-.698-5.307.133-.089.177-.04.211.236m3.542 2.253c.03.123.172 1.456.172 1.618 0 .138-.177.266-.256.187-.024-.025-.088-.443-.137-.925-.055-.487-.109-.993-.123-1.126l-.03-.246.172.197c.099.108.187.24.202.295m3.97 1.854c.054.05.088.246.133.777.073.96.083.886-.119.886-.206 0-.201.015-.27-.851-.069-.88-.069-.87.064-.87a.4.4 0 0 1 .192.058m3.896.074c.01.05.034.344.054.654.014.31.059 1.009.098 1.55.138 1.987.143 2.238.06 2.238-.094 0-.104-.074-.212-1.476-.04-.58-.113-1.495-.163-2.031-.044-.537-.073-.984-.059-.994.054-.059.197-.015.222.059m-9.248.944c.03.045.216 1.619.447 3.768.07.65.138 1.274.153 1.392l.024.212-.123-.079c-.093-.064-.128-.128-.128-.24 0-.31-.211-2.352-.373-3.601a38 38 0 0 1-.168-1.392c0-.104.119-.143.168-.06m28.388 2.057-.034 2.056-.123.182c-.28.413-.266.492-.251-1.81l.01-2.11.182-.188c.098-.098.196-.182.216-.182.015 0 .015.925 0 2.052m-4.55 3.26c.024 2.859.02 3.08-.06 3.169-.048.054-.093.088-.107.073-.035-.039-.084-6.271-.045-6.306.02-.02.07-.03.113-.024.064.014.08.364.099 3.089m-16.066-1.957c.034.305.157 1.766.206 2.455.03.462.03.477-.078.511-.06.02-.128.015-.148-.01-.034-.034-.142-1.126-.275-2.808l-.035-.404h.153c.142 0 .152.01.177.256m-3.867 1.722c.035.034.06.157.06.28 0 .128.058.792.122 1.48.187 1.885.202 2.14.119 2.091-.128-.074-.242-.187-.217-.216.01-.02-.01-.266-.05-.546a25 25 0 0 1-.098-1.033 32 32 0 0 0-.103-1.156c-.093-.86-.088-.96.02-.96.05 0 .113.025.147.06m2.327 3.31c.015.108.044.512.064.895.035.738.02.792-.182.64-.059-.044-.098-.231-.157-.792-.104-1.013-.108-.974.083-.954.143.014.163.034.192.211"/><path d="M22.87 24.823c-.512.222-.55.915-.069 1.161.35.177.704.094.886-.211a.652.652 0 0 0-.817-.95m3.335.473a.754.754 0 0 0 0 1.278c.468.28 1.073-.088 1.073-.649 0-.541-.62-.905-1.073-.63"/></g><g filter="url(#c)"><path fill="#e8e8e8" d="M62.261 24.5h-1.863l4.187-11.636h2.029L70.8 24.5h-1.864l-3.29-9.523h-.09zm.313-4.557h6.045v1.477h-6.045zm16.143-4.17L75.552 24.5h-1.818l-3.17-8.727h1.824l2.21 6.716h.09l2.205-6.716zm3.887 8.92a3.6 3.6 0 0 1-1.5-.307 2.53 2.53 0 0 1-1.063-.903q-.386-.591-.386-1.449 0-.739.284-1.216.285-.477.767-.756a4 4 0 0 1 1.08-.42q.596-.142 1.215-.216l1.273-.148q.49-.061.71-.198.222-.137.222-.444v-.04q0-.744-.42-1.153-.415-.41-1.24-.409-.857 0-1.351.38-.49.376-.677.836l-1.596-.364q.284-.795.83-1.284.551-.495 1.266-.716.717-.227 1.506-.227.523 0 1.108.125.59.12 1.102.443.517.324.847.926.33.597.33 1.552V24.5h-1.66v-1.193h-.068q-.165.33-.494.648-.33.318-.847.528t-1.238.21m.369-1.364q.705 0 1.204-.278a1.95 1.95 0 0 0 .768-.727q.267-.454.267-.972v-1.125q-.091.091-.353.17-.255.075-.585.131-.33.052-.642.097l-.523.068q-.494.063-.903.21-.403.148-.648.427-.238.272-.238.727 0 .63.466.954.465.32 1.187.319m6.2 1.171v-8.727h1.7V24.5zm.858-10.074a1.08 1.08 0 0 1-.761-.295.96.96 0 0 1-.313-.716q0-.421.313-.716.318-.3.761-.301.444 0 .756.3a.94.94 0 0 1 .318.717.95.95 0 0 1-.318.716 1.06 1.06 0 0 1-.756.295m4.825-1.562V24.5h-1.698V12.864zm4.826 11.83a3.6 3.6 0 0 1-1.5-.308 2.53 2.53 0 0 1-1.063-.903q-.386-.591-.386-1.449 0-.739.284-1.216t.767-.756a4 4 0 0 1 1.08-.42q.596-.142 1.216-.216l1.272-.148q.49-.061.71-.198.222-.137.222-.444v-.04q0-.744-.42-1.153-.415-.41-1.239-.409-.858 0-1.352.38-.489.376-.676.836L97 17.886q.284-.795.83-1.284.551-.495 1.267-.716.716-.227 1.505-.227.523 0 1.108.125.592.12 1.102.443.517.324.847.926.33.597.33 1.552V24.5h-1.659v-1.193h-.069q-.165.33-.494.648-.33.318-.847.528t-1.238.21m.369-1.364q.704 0 1.205-.279.505-.278.767-.727.267-.454.267-.972v-1.125q-.091.091-.353.17-.255.075-.585.131-.329.052-.642.097l-.523.068a4.2 4.2 0 0 0-.903.21q-.403.148-.648.427-.238.272-.238.727 0 .63.466.954.465.32 1.187.319m6.337 1.17V12.864h1.699v4.323h.102q.147-.272.426-.63t.773-.625q.494-.273 1.307-.273 1.056 0 1.886.534.83.535 1.301 1.54.477 1.005.477 2.42t-.471 2.427q-.472 1.005-1.296 1.55-.824.54-1.88.54-.796 0-1.302-.267a2.5 2.5 0 0 1-.784-.625 5 5 0 0 1-.437-.636h-.142V24.5zm1.665-4.364q0 .921.267 1.614t.772 1.085q.506.387 1.239.387.761 0 1.273-.404.511-.41.772-1.108.267-.699.267-1.574 0-.863-.261-1.55-.255-.689-.773-1.086-.511-.398-1.278-.398-.739 0-1.25.381-.506.38-.767 1.063-.261.681-.261 1.59m9.913-7.272V24.5h-1.699V12.864zm6.047 11.812q-1.29 0-2.222-.551a3.74 3.74 0 0 1-1.432-1.562q-.5-1.012-.5-2.37 0-1.341.5-2.364a3.9 3.9 0 0 1 1.409-1.596q.91-.574 2.125-.574.74 0 1.432.244.693.244 1.245.768.55.522.869 1.357.318.83.318 2.018v.602h-6.937v-1.273h5.272q0-.67-.272-1.187a2.07 2.07 0 0 0-.767-.824q-.49-.302-1.148-.302-.716 0-1.25.353a2.36 2.36 0 0 0-.818.909q-.284.556-.284 1.21v.994q0 .876.306 1.489.313.615.87.938.557.318 1.301.318.483 0 .88-.137.399-.142.688-.42.29-.279.443-.688l1.608.29q-.194.71-.693 1.244-.494.529-1.244.824-.745.29-1.699.29m13.54 0q-1.228 0-2.143-.562a3.8 3.8 0 0 1-1.42-1.574q-.506-1.011-.506-2.364 0-1.358.506-2.375a3.8 3.8 0 0 1 1.42-1.58q.915-.561 2.143-.562 1.227 0 2.142.563a3.8 3.8 0 0 1 1.42 1.58q.506 1.016.506 2.374 0 1.353-.506 2.364a3.8 3.8 0 0 1-1.42 1.574q-.915.562-2.142.562m.005-1.426q.796 0 1.318-.42.523-.42.773-1.12.256-.699.256-1.54 0-.835-.256-1.534a2.5 2.5 0 0 0-.773-1.13q-.523-.426-1.318-.427-.801 0-1.329.427a2.54 2.54 0 0 0-.779 1.13q-.25.7-.25 1.535 0 .84.25 1.54.256.697.779 1.119.528.42 1.329.42m7.658-3.932V24.5h-1.699v-8.727h1.631v1.42h.108q.3-.693.943-1.114.648-.42 1.63-.42.893 0 1.563.375.67.37 1.04 1.102.369.733.369 1.813V24.5h-1.699v-5.347q0-.948-.494-1.482-.495-.54-1.358-.54-.59 0-1.051.255-.455.255-.722.75-.261.489-.261 1.182"/><path fill="#fff" d="M65.506 43.5h-4.57V31.136H65.5q1.89 0 3.254.743a5.07 5.07 0 0 1 2.112 2.125q.743 1.383.743 3.308 0 1.932-.743 3.32a5.1 5.1 0 0 1-2.106 2.132q-1.371.735-3.254.736m-1.582-2.548h1.467q1.038 0 1.757-.35.725-.355 1.092-1.153.375-.802.375-2.137t-.375-2.125q-.374-.796-1.104-1.147-.725-.356-1.787-.356h-1.425zm13.764 2.723q-1.455 0-2.511-.573a3.97 3.97 0 0 1-1.618-1.648q-.561-1.075-.561-2.554 0-1.437.567-2.511.568-1.08 1.6-1.679 1.032-.603 2.433-.604.99 0 1.81.308.821.309 1.42.912.597.604.93 1.491.33.882.331 2.023v.736h-8.06v-1.715h5.313a1.66 1.66 0 0 0-.223-.839 1.5 1.5 0 0 0-.598-.573 1.7 1.7 0 0 0-.863-.211q-.495 0-.887.223a1.68 1.68 0 0 0-.863 1.449v1.745q0 .567.223.996.223.421.633.658.41.235.979.235.392 0 .712-.109.32-.108.55-.32a1.3 1.3 0 0 0 .343-.519l2.71.079a3.35 3.35 0 0 1-.742 1.587q-.567.67-1.49 1.045-.924.368-2.138.368m8.86-5.463V43.5h-2.951v-9.273h2.807v1.703h.103a2.6 2.6 0 0 1 1.05-1.334q.743-.49 1.769-.49.978 0 1.696.441.724.435 1.123 1.22.405.779.399 1.823v5.91H89.59v-5.33q.007-.773-.392-1.208-.392-.435-1.093-.435-.465 0-.82.206a1.36 1.36 0 0 0-.544.573q-.188.375-.193.906M98.7 43.675q-1.46 0-2.512-.598a4.1 4.1 0 0 1-1.612-1.678q-.56-1.08-.56-2.505 0-1.432.56-2.505.568-1.08 1.612-1.679 1.05-.603 2.512-.604 1.461 0 2.505.604 1.05.598 1.612 1.678.567 1.075.567 2.506 0 1.425-.567 2.505a4.07 4.07 0 0 1-1.612 1.678q-1.044.598-2.505.598m.018-2.228q.531 0 .9-.326.368-.326.561-.905.2-.58.199-1.34 0-.773-.199-1.353-.193-.58-.562-.905a1.3 1.3 0 0 0-.9-.326 1.38 1.38 0 0 0-.929.326q-.374.327-.573.905-.195.58-.194 1.353 0 .76.194 1.34.199.58.573.905.381.327.93.326"/></g><defs><filter id="b" width="51.429" height="51.429" x="6.286" y="2.286" color-interpolation-filters="sRGB" filterUnits="userSpaceOnUse"><feFlood flood-opacity="0" result="BackgroundImageFix"/><feColorMatrix in="SourceAlpha" result="hardAlpha" values="0 0 0 0 0 0 0 0 0 0 0 0 0 0 0 0 0 0 127 0"/><feOffset/><feGaussianBlur stdDeviation="2.857"/><feComposite in2="hardAlpha" operator="out"/><feColorMatrix values="0 0 0 0 0 0 0 0 0 0 0 0 0 0 0 0 0 0 0.25 0"/><feBlend in2="BackgroundImageFix" result="effect1_dropShadow_9_9"/><feBlend in="SourceGraphic" in2="effect1_dropShadow_9_9" result="shape"/></filter><filter id="c" width="103.2" height="48.2" x="54.4" y="3.9" color-interpolation-filters="sRGB" filterUnits="userSpaceOnUse"><feFlood flood-opacity="0" result="BackgroundImageFix"/><feColorMatrix in="SourceAlpha" result="hardAlpha" values="0 0 0 0 0 0 0 0 0 0 0 0 0 0 0 0 0 0 127 0"/><feOffset/><feGaussianBlur stdDeviation="2.8"/><feComposite in2="hardAlpha" operator="out"/><feColorMatrix values="0 0 0 0 0 0 0 0 0 0 0 0 0 0 0 0 0 0 0.25 0"/><feBlend in2="BackgroundImageFix" result="effect1_dropShadow_9_9"/><feBlend in="SourceGraphic" in2="effect1_dropShadow_9_9" result="shape"/></filter><linearGradient id="a" x1="82" x2="82" y1="0" y2="56" gradientUnits="userSpaceOnUse"><stop stop-color="#282828"/><stop offset="1" stop-color="#1a1a1a"/></linearGradient></defs></svg>