<svg xmlns="http://www.w3.org/2000/svg" width="171" height="56" fill="none" viewBox="0 0 171 56"><rect width="171" height="56" fill="url(#a)" rx="8"/><rect width="168.9" height="53.9" x="1.05" y="1.05" stroke="#fff" stroke-opacity=".15" stroke-width="2.1" rx="6.95"/><g fill="#fff" filter="url(#b)"><path d="m47.145 36.99-.008.077-.007.085-.016.078-.024.078-.015.07-.024.078-.031.07-.032.062-.031.07-.04.062-.039.062-.047.063-.04.062-.046.054-.056.055-.047.046-.063.055-.054.046-.064.047-.062.038-.063.047-.071.039-.07.031-.071.039-.08.031-.078.031-.078.023-.078.024-.072.023-.078.016-.07.015-.071.016-.08.015-.078.008-.07.008-.08.008-.085.008-.079.007h-.33l-.079-.008h-.086l-.078-.007-.08-.008-.086-.008-.078-.016-.079-.007-.079-.016-.078-.015-.079-.016-.078-.016-.079-.023-.07-.015-.08-.024-.078-.023-.07-.031-.08-.024-.07-.023-.078-.03-.071-.032-.07-.031-.071-.038-.071-.032-.071-.038-.063-.04-.07-.038-.063-.04-.064-.038-.062-.047-.063-.046-.063-.047-.063-.047-.055-.046-.063-.055.048-.062.054-.054.048-.063.055-.062.047-.054.047-.062.055-.063.047-.054.055-.062.047-.055.055-.062.047-.062.048-.054.054-.063.048-.062.055-.054.047-.062.063.046.07.047.063.047.071.046.063.039.07.047.063.039.072.03.062.04.07.03.072.032.07.03.071.024.071.031.078.024.079.023.07.023.08.016.078.015.078.016.087.008.079.015h.078l.086.008h.173l.087-.008.079-.015.07-.016.07-.015.064-.024.055-.03.063-.048.047-.054.031-.062.024-.07.008-.078v-.015l-.008-.094-.032-.078-.039-.054-.055-.047-.063-.046-.063-.031-.07-.032-.08-.03-.093-.04-.055-.015-.063-.015-.07-.024-.072-.015-.078-.024-.079-.015-.086-.024-.079-.015-.086-.023-.079-.016-.079-.023-.078-.016-.078-.023-.072-.024-.078-.015-.07-.023-.071-.024-.071-.023-.087-.031-.078-.031-.079-.032-.078-.03-.071-.04-.079-.038-.063-.04-.07-.038-.063-.047-.063-.039-.055-.046-.055-.055-.055-.054-.047-.055-.047-.054-.04-.054-.039-.063-.04-.07-.03-.053-.024-.063-.024-.07-.023-.062-.016-.078-.016-.07-.008-.078-.008-.077-.008-.086v-.179l.008-.077.008-.07.008-.078.016-.07.016-.07.023-.07.016-.07.031-.07.032-.07.031-.07.04-.07.039-.07.047-.062.047-.062.055-.062.055-.055.055-.062.063-.055.055-.038.063-.047.063-.047.062-.039.072-.039.07-.03.07-.04.072-.03.078-.024.079-.031.07-.023.063-.016.071-.016.071-.015.078-.016.071-.015.078-.008.08-.008.078-.008.078-.007h.338l.087.008.086.007h.079l.087.008.078.016.086.007.079.016.07.015.08.016.078.016.07.015.08.023.07.024.07.015.08.032.07.023.07.03.071.032.08.031.07.039.062.031.072.039.07.039.063.039.07.046.064.04.063.046.062.047.063.046-.047.062-.04.063-.046.062-.048.062-.047.07-.039.062-.047.063-.047.062-.04.062-.047.062-.047.062-.04.063-.046.07-.048.062-.047.062-.04.062-.046.062-.063-.046-.07-.04-.064-.038-.063-.047-.07-.03-.063-.04-.07-.03-.064-.032-.07-.031-.063-.031-.07-.023-.064-.032-.087-.023-.078-.023-.078-.024-.08-.015-.078-.016-.078-.015-.079-.008-.079-.008-.07-.008h-.173l-.086.016-.08.015-.07.016-.063.031-.055.031-.07.063-.048.07-.03.07-.009.077v.016l.008.1.04.086.03.047.056.054.07.04.063.038.079.031.087.032.094.03.063.016.062.023.071.016.07.023.08.016.086.023.087.023.086.024.086.015.079.024.086.023.079.016.078.023.079.023.07.023.08.024.07.023.07.023.087.031.079.04.078.03.079.039.071.039.07.039.063.039.063.046.063.04.063.054.063.054.055.062.055.055.047.062.047.07.04.062.039.07.031.062.024.07.023.07.016.07.016.078.016.078.007.078.008.085v.187zm-5.511 1.554H37.13v-5.66h4.542v1.283h-3.041v.925h2.735v1.205h-2.735v.964h3.08v1.283zm-5.742 0h-1.438v-3.347l-.04.062-.047.07-.04.063-.046.062-.04.07-.047.062-.039.063-.04.07-.046.062-.04.062-.047.063-.04.07-.047.062-.039.063-.039.07-.047.062-.04.062-.047.07-.039.063-.047.062-.04.07-.039.062-.047.063-.039.07-.047.062-.04.062-.047.063-.04.07-.038.062-.047.063-.04.07-.047.062-.04.062-.046.07-.04.063h-.03l-.048-.07-.04-.063-.047-.07-.039-.062-.047-.07-.04-.063-.046-.07-.04-.062-.047-.07-.04-.062-.047-.07-.038-.063-.048-.07-.04-.062-.046-.07-.04-.063-.047-.07-.047-.062-.04-.07-.046-.063-.04-.07-.047-.062-.04-.07-.046-.062-.04-.07-.047-.063-.039-.07-.047-.062-.04-.07-.047-.062-.04-.07-.046-.063-.04-.07-.046-.062v3.331h-1.494v-5.66h1.612l.039.062.039.07.047.062.04.07.039.062.039.07.04.062.046.07.04.062.04.062.038.07.04.062.047.07.039.062.04.07.038.062.048.062.04.07.038.062.04.07.039.062.047.07.04.062.039.07.04.062.038.062.047.07.04.062.039.07.04.062.038.07.048.062.04.07.038.062.04-.063.04-.07.046-.061.04-.07.039-.062.04-.07.046-.062.04-.07.039-.062.039-.062.047-.07.04-.062.039-.07.04-.062.046-.07.04-.062.04-.07.038-.062.04-.062.047-.07.039-.062.04-.07.038-.062.048-.07.039-.062.04-.062.039-.07.047-.062.04-.07.038-.062.04-.07.047-.062.039-.07.04-.062h1.61v5.66zm-9.119-2.332-.023-.07-.032-.079-.031-.07-.024-.07-.03-.07-.032-.078-.024-.07-.032-.07-.03-.07-.025-.07-.031-.078-.023-.07-.032-.07-.032-.07-.023-.07-.031-.079-.032-.07-.024-.07-.031-.07-.031-.078-.024-.07-.031-.07-.032.07-.023.07-.032.078-.031.07-.024.07-.031.07-.032.078-.03.07-.025.07-.031.07-.032.07-.023.079-.032.07-.031.07-.024.07-.031.07-.032.078-.031.07-.023.07-.032.07-.031.078-.024.07-.031.07h1.328zm2.468 2.332h-1.54l-.032-.07-.023-.07-.032-.07-.031-.078-.024-.07-.031-.07-.032-.07-.023-.07-.032-.07-.031-.07-.024-.07-.03-.077-.033-.07-.023-.07-.032-.07h-2.255l-.031.07-.024.07-.032.07-.031.078-.023.07-.032.07-.032.07-.023.07-.031.07-.032.07-.024.07-.03.077-.032.07-.024.07-.031.07h-1.588l.031-.07.032-.07.032-.07.03-.078.024-.07.032-.07.032-.07.03-.07.032-.07.032-.077.03-.07.033-.07.023-.07.032-.07.03-.07.032-.078.032-.07.031-.07.032-.07.031-.07.024-.07.031-.077.032-.07.031-.07.031-.07.032-.07.032-.07.03-.078.024-.07.032-.07.031-.07.032-.07.031-.07.032-.078.03-.07.032-.07.024-.07.032-.07.03-.07.032-.077.032-.07.031-.07.032-.07.031-.07.024-.07.031-.07.032-.078.031-.07.031-.07.032-.07.031-.07.032-.07.023-.077.032-.07.031-.07.031-.07.032-.07.032-.07.03-.078.032-.07.024-.07.032-.07.03-.07.032-.07.032-.078.03-.07.032-.07.032-.07.023-.07.032-.07.031-.077.032-.07.031-.07.032-.07.031-.07.031-.07.024-.078.032-.07.031-.07.031-.07h1.454l.032.07.031.07.032.07.031.078.024.07.03.07.033.07.031.07.032.07.03.078.032.07.032.07.023.07.032.07.031.07.032.077.031.07.031.07.032.07.031.07.024.07.031.078.032.07.031.07.032.07.031.07.031.07.032.078.024.07.03.07.032.07.032.07.032.07.03.077.032.07.032.07.023.07.031.07.032.07.031.07.032.077.031.07.032.07.031.07.024.07.031.07.032.078.031.07.032.07.031.07.031.07.032.07.023.078.032.07.031.07.032.07.03.07.032.07.032.077.032.07.023.07.032.07.031.07.031.07.032.078.031.07.032.07.031.07.024.07.031.07.031.078.032.07.032.07.03.07.032.07.032.07.023.077.031.07.032.07.032.07zm-6.885-.723-.063.047-.055.039-.063.046-.062.04-.063.046-.063.039-.063.039-.071.039-.07.038-.071.04-.071.03-.07.039-.08.03-.07.032-.079.031-.07.031-.071.023-.071.024-.07.023-.08.023-.07.024-.079.016-.07.015-.079.015-.079.016-.078.008-.086.008-.079.008-.086.007-.08.008-.086.008h-.338l-.078-.008-.087-.008-.078-.008-.079-.007-.079-.008-.078-.016-.079-.015-.07-.016-.079-.015-.07-.024-.079-.015-.071-.024-.07-.03-.071-.024-.079-.031-.07-.031-.071-.031-.07-.031-.072-.04-.063-.038-.07-.039-.063-.038-.063-.04-.063-.046-.063-.047-.063-.046-.055-.047-.055-.047-.055-.054-.055-.047-.055-.054-.055-.055-.047-.054-.047-.062-.047-.055-.04-.062-.047-.062-.04-.062-.038-.062-.04-.07-.04-.063-.03-.07-.032-.07-.031-.07-.031-.07-.024-.062-.032-.07-.016-.07-.023-.07-.016-.077-.023-.07-.016-.078-.008-.07-.016-.078-.008-.07-.008-.078-.007-.078-.008-.077v-.257l.008-.085v-.078l.007-.078.008-.085.016-.078.008-.077.016-.07.023-.078.016-.078.023-.07.024-.078.024-.07.032-.077.03-.07.032-.07.032-.07.03-.07.04-.07.04-.062.039-.063.04-.062.039-.062.047-.062.047-.062.047-.063.047-.054.055-.055.047-.054.055-.054.055-.055.055-.047.063-.054.055-.047.063-.046.063-.04.063-.046.063-.039.063-.039.07-.039.071-.038.07-.04.071-.03.071-.031.079-.04.063-.023.078-.023.071-.031.07-.016.071-.023.08-.016.07-.023.078-.015.079-.008.079-.016.078-.008.079-.007.078-.008.08-.008h.337l.087.008.086.008h.078l.079.008.086.015.071.008.079.015.078.016.071.015.07.016.071.016.072.023.07.015.063.024.07.023.071.031.07.031.072.031.07.04.071.03.063.04.07.038.064.039.07.039.063.046.063.04.063.046.063.047.063.054.063.047-.048.062-.055.054-.047.063-.055.062-.047.062-.047.054-.055.063-.047.062-.047.054-.055.063-.048.062-.055.062-.047.054-.047.063-.055.062-.047.062-.055.054-.047.063-.063-.047-.063-.054-.063-.04-.063-.046-.062-.039-.064-.039-.062-.038-.07-.04-.064-.03-.063-.032-.063-.023-.07-.023-.07-.024-.072-.015-.078-.016-.079-.015-.078-.008-.087-.008-.087-.008h-.164l-.079.008-.071.008-.078.015-.071.016-.071.023-.07.024-.071.03-.07.032-.064.039-.063.039-.063.039-.055.046-.055.047-.055.047-.047.054-.055.054-.047.063-.04.054-.039.062-.039.07-.04.062-.03.07-.024.07-.032.07-.023.078-.016.077-.016.07-.016.086-.007.078-.008.077v.179l.008.078.007.07.008.078.016.07.016.07.016.07.023.07.024.062.031.078.032.07.039.07.04.062.039.062.047.062.047.055.055.054.047.055.055.046.063.047.063.047.062.038.063.04.071.03.07.031.072.032.078.023.079.023.079.016.078.015.079.008.086.008h.181l.087-.008.086-.008.078-.008.079-.015.079-.016.078-.023.07-.015.071-.032.064-.03.07-.032.055-.03.063-.04v-.707h-1.148v-1.135h2.594v2.527zm-2.527-17.743h3.406v-2.595h-3.406v-5.298h3.541V9.589h-6.434v18.73h6.488v-2.595H19.83zm24.397.562v4.228c0 .749-.352 1.097-1.081 1.097h-.542c-.756 0-1.108-.348-1.108-1.097V13.04c0-.75.352-1.097 1.108-1.097h.487c.73 0 1.082.347 1.082 1.097v3.666h2.838V12.88c0-2.328-1.136-3.451-3.487-3.451h-1.406c-2.351 0-3.514 1.15-3.514 3.478v12.094c0 2.328 1.163 3.479 3.514 3.479h1.433c2.352 0 3.514-1.15 3.514-3.479V20.64zm-10.045 7.68h2.893V9.59h-2.893zm-4.197-10.41c0 .75-.351 1.098-1.081 1.098h-1.19v-6.903h1.19c.73 0 1.08.347 1.08 1.096zm-.622-8.32h-4.541v18.73h2.892v-6.797h1.65c2.351 0 3.513-1.15 3.513-3.478v-4.977c0-2.328-1.162-3.479-3.514-3.479"/><path fill-rule="evenodd" d="M23.76 45.255h16.558L31.867 48z" clip-rule="evenodd"/></g><g filter="url(#c)"><path fill="#e8e8e8" d="M62.261 24.5h-1.863l4.187-11.636h2.029L70.8 24.5h-1.864l-3.29-9.523h-.09zm.313-4.557h6.045v1.477h-6.045zm16.143-4.17L75.552 24.5h-1.818l-3.17-8.727h1.824l2.21 6.716h.09l2.205-6.716zm3.887 8.92a3.6 3.6 0 0 1-1.5-.307 2.53 2.53 0 0 1-1.063-.903q-.386-.591-.386-1.449 0-.739.284-1.216.285-.477.767-.756a4 4 0 0 1 1.08-.42q.596-.142 1.215-.216l1.273-.148q.49-.061.71-.198.222-.137.222-.444v-.04q0-.744-.42-1.153-.415-.41-1.24-.409-.857 0-1.351.38-.49.376-.677.836l-1.596-.364q.284-.795.83-1.284.551-.495 1.266-.716.717-.227 1.506-.227.523 0 1.108.125.59.12 1.102.443.517.324.847.926.33.597.33 1.552V24.5h-1.66v-1.193h-.068q-.165.33-.494.648-.33.318-.847.528t-1.238.21m.369-1.364q.705 0 1.204-.278a1.95 1.95 0 0 0 .768-.727q.267-.454.267-.972v-1.125q-.091.091-.353.17-.255.075-.585.131-.33.052-.642.097l-.523.068q-.494.063-.903.21-.403.148-.648.427-.238.272-.238.727 0 .63.466.954.465.32 1.187.319m6.2 1.171v-8.727h1.7V24.5zm.858-10.074a1.08 1.08 0 0 1-.761-.295.96.96 0 0 1-.313-.716q0-.421.313-.716.318-.3.761-.301.444 0 .756.3a.94.94 0 0 1 .318.717.95.95 0 0 1-.318.716 1.06 1.06 0 0 1-.756.295m4.825-1.562V24.5h-1.698V12.864zm4.826 11.83a3.6 3.6 0 0 1-1.5-.308 2.53 2.53 0 0 1-1.063-.903q-.386-.591-.386-1.449 0-.739.284-1.216t.767-.756a4 4 0 0 1 1.08-.42q.596-.142 1.216-.216l1.272-.148q.49-.061.71-.198.222-.137.222-.444v-.04q0-.744-.42-1.153-.415-.41-1.239-.409-.858 0-1.352.38-.489.376-.676.836L97 17.886q.284-.795.83-1.284.551-.495 1.267-.716.716-.227 1.505-.227.523 0 1.108.125.592.12 1.102.443.517.324.847.926.33.597.33 1.552V24.5h-1.659v-1.193h-.069q-.165.33-.494.648-.33.318-.847.528t-1.238.21m.369-1.364q.704 0 1.205-.279.505-.278.767-.727.267-.454.267-.972v-1.125q-.091.091-.353.17-.255.075-.585.131-.329.052-.642.097l-.523.068a4.2 4.2 0 0 0-.903.21q-.403.148-.648.427-.238.272-.238.727 0 .63.466.954.465.32 1.187.319m6.337 1.17V12.864h1.699v4.323h.102q.147-.272.426-.63t.773-.625q.494-.273 1.307-.273 1.056 0 1.886.534.83.535 1.301 1.54.477 1.005.477 2.42t-.471 2.427q-.472 1.005-1.296 1.55-.824.54-1.88.54-.796 0-1.302-.267a2.5 2.5 0 0 1-.784-.625 5 5 0 0 1-.437-.636h-.142V24.5zm1.665-4.364q0 .921.267 1.614t.772 1.085q.506.387 1.239.387.761 0 1.273-.404.511-.41.772-1.108.267-.699.267-1.574 0-.863-.261-1.55-.255-.689-.773-1.086-.511-.398-1.278-.398-.739 0-1.25.381-.506.38-.767 1.063-.261.681-.261 1.59m9.913-7.272V24.5h-1.699V12.864zm6.047 11.812q-1.29 0-2.222-.551a3.74 3.74 0 0 1-1.432-1.562q-.5-1.012-.5-2.37 0-1.341.5-2.364a3.9 3.9 0 0 1 1.409-1.596q.91-.574 2.125-.574.74 0 1.432.244.693.244 1.245.768.55.522.869 1.357.318.83.318 2.018v.602h-6.937v-1.273h5.272q0-.67-.272-1.187a2.07 2.07 0 0 0-.767-.824q-.49-.302-1.148-.302-.716 0-1.25.353a2.36 2.36 0 0 0-.818.909q-.284.556-.284 1.21v.994q0 .876.306 1.489.313.615.87.938.557.318 1.301.318.483 0 .88-.137.399-.142.688-.42.29-.279.443-.688l1.608.29q-.194.71-.693 1.244-.494.529-1.244.824-.745.29-1.699.29m13.54 0q-1.228 0-2.143-.562a3.8 3.8 0 0 1-1.42-1.574q-.506-1.011-.506-2.364 0-1.358.506-2.375a3.8 3.8 0 0 1 1.42-1.58q.915-.561 2.143-.562 1.227 0 2.142.563a3.8 3.8 0 0 1 1.42 1.58q.506 1.016.506 2.374 0 1.353-.506 2.364a3.8 3.8 0 0 1-1.42 1.574q-.915.562-2.142.562m.005-1.426q.796 0 1.318-.42.523-.42.773-1.12.256-.699.256-1.54 0-.835-.256-1.534a2.5 2.5 0 0 0-.773-1.13q-.523-.426-1.318-.427-.801 0-1.329.427a2.54 2.54 0 0 0-.779 1.13q-.25.7-.25 1.535 0 .84.25 1.54.256.697.779 1.119.528.42 1.329.42m7.658-3.932V24.5h-1.699v-8.727h1.631v1.42h.108q.3-.693.943-1.114.648-.42 1.63-.42.893 0 1.563.375.67.37 1.04 1.102.369.733.369 1.813V24.5h-1.699v-5.347q0-.948-.494-1.482-.495-.54-1.358-.54-.59 0-1.051.255-.455.255-.722.75-.261.489-.261 1.182"/><path fill="#fff" d="M60.936 43.5V31.136h8.62v2.427h-5.632V36.1h5.192v2.433h-5.192v2.541h5.632V43.5zm10.492 3.477v-12.75h2.922v1.588h.09q.181-.422.513-.815.339-.393.858-.64.525-.254 1.255-.254.966 0 1.805.508.846.507 1.365 1.563t.519 2.693q0 1.575-.501 2.638-.495 1.063-1.34 1.594a3.4 3.4 0 0 1-1.866.53q-.7 0-1.213-.229a2.6 2.6 0 0 1-.863-.603 2.9 2.9 0 0 1-.532-.803h-.06v4.98zm2.892-8.113q0 .748.199 1.304.206.555.585.863.387.302.924.302.543 0 .924-.302.38-.308.573-.863.2-.555.2-1.304 0-.75-.2-1.298-.194-.55-.573-.852-.375-.3-.924-.301-.543 0-.924.295-.38.297-.585.846-.2.548-.2 1.31m7.982 4.636v-9.273h2.952V43.5zm1.479-10.353q-.621 0-1.069-.41a1.32 1.32 0 0 1-.446-1.003q0-.579.446-.99a1.5 1.5 0 0 1 1.069-.417q.628 0 1.069.417.446.411.446.99 0 .585-.447 1.002-.44.41-1.068.41m7.68 10.528q-1.467 0-2.517-.604a4.1 4.1 0 0 1-1.606-1.678q-.561-1.08-.561-2.5 0-1.424.561-2.498a4.1 4.1 0 0 1 1.612-1.685q1.05-.603 2.505-.604 1.287 0 2.24.465.96.465 1.497 1.316.544.846.574 1.987h-2.76q-.083-.713-.482-1.117-.393-.405-1.026-.405-.513 0-.9.29-.386.284-.603.845-.212.556-.212 1.377 0 .82.212 1.388.217.561.603.851.387.285.9.284.41 0 .724-.175.32-.175.525-.513.206-.344.26-.833h2.759q-.043 1.146-.574 2.004a3.56 3.56 0 0 1-1.479 1.334q-.947.471-2.252.471m17.581-8.5a2.2 2.2 0 0 0-.301-.67 1.9 1.9 0 0 0-.489-.501 2.1 2.1 0 0 0-.664-.308 3 3 0 0 0-.821-.109q-.9 0-1.558.435-.653.434-1.008 1.268-.356.827-.356 2.01 0 1.19.344 2.029t.996 1.28 1.582.44q.82 0 1.388-.266.573-.27.869-.766.297-.495.296-1.165l.556.066h-3.007v-2.18h5.331v1.637q0 1.66-.707 2.843a4.7 4.7 0 0 1-1.931 1.817q-1.226.634-2.82.634-1.768 0-3.109-.767-1.34-.766-2.088-2.185-.749-1.425-.749-3.38 0-1.522.453-2.7.453-1.182 1.262-2.004a5.45 5.45 0 0 1 1.883-1.243 6.3 6.3 0 0 1 2.312-.423q1.075 0 1.998.308.93.308 1.642.87.719.561 1.166 1.334.446.772.555 1.696zm7.533 8.482q-.888 0-1.576-.296a2.45 2.45 0 0 1-1.08-.905q-.393-.61-.393-1.528 0-.773.272-1.304t.749-.863a3.5 3.5 0 0 1 1.098-.501 7 7 0 0 1 1.328-.235q.791-.074 1.274-.151.483-.085.701-.236a.51.51 0 0 0 .223-.44v-.03q0-.465-.32-.72-.32-.252-.863-.253-.587 0-.942.254a1.12 1.12 0 0 0-.453.7l-2.722-.096q.12-.846.621-1.51.507-.67 1.389-1.05.887-.387 2.131-.387.887 0 1.636.212.749.205 1.304.604.555.392.857.965.308.575.308 1.31V43.5h-2.777v-1.292h-.072q-.248.471-.634.797-.381.326-.9.489a3.8 3.8 0 0 1-1.159.163m.912-1.932q.476 0 .857-.193a1.6 1.6 0 0 0 .616-.531q.23-.344.229-.797v-.882a1.7 1.7 0 0 1-.308.121q-.175.054-.386.103t-.435.084l-.428.067a2.7 2.7 0 0 0-.713.205 1.13 1.13 0 0 0-.447.362.9.9 0 0 0-.15.52q0 .458.326.7.332.24.839.241m6.435 1.775v-9.273h2.807v1.703h.103a2.64 2.64 0 0 1 .978-1.334q.688-.49 1.642-.49.966 0 1.654.496.689.494.875 1.328h.097a2.4 2.4 0 0 1 1.014-1.322q.755-.502 1.781-.502 1.316 0 2.137.846.82.84.821 2.306V43.5h-2.952v-5.566q0-.694-.356-1.056-.356-.369-.924-.369-.609 0-.96.399-.344.392-.344 1.056V43.5h-2.837v-5.596q0-.646-.35-1.02-.351-.375-.924-.375a1.25 1.25 0 0 0-1.147.707 1.8 1.8 0 0 0-.163.796V43.5zm20.073.175q-1.455 0-2.512-.573a3.97 3.97 0 0 1-1.617-1.648q-.562-1.075-.562-2.554 0-1.437.568-2.511.567-1.08 1.599-1.679 1.034-.603 2.433-.604.99 0 1.811.308.822.309 1.419.912.597.604.93 1.491.332.882.332 2.023v.736h-8.06v-1.715h5.313a1.67 1.67 0 0 0-.223-.839 1.5 1.5 0 0 0-.598-.573 1.7 1.7 0 0 0-.863-.211q-.495 0-.888.223a1.68 1.68 0 0 0-.863 1.449v1.745q0 .567.223.996.223.421.634.658.411.235.978.235.393 0 .712-.109a1.5 1.5 0 0 0 .55-.32q.229-.21.344-.519l2.711.079a3.36 3.36 0 0 1-.743 1.587q-.567.67-1.491 1.045-.924.368-2.137.368m14.004-6.616-2.711.072a1 1 0 0 0-.229-.513 1.24 1.24 0 0 0-.489-.356 1.7 1.7 0 0 0-.688-.133q-.513 0-.876.205-.356.205-.35.556a.6.6 0 0 0 .218.47q.229.2.815.32l1.787.339q1.387.265 2.064.88.682.617.688 1.63-.006.955-.567 1.661-.555.706-1.521 1.099-.966.386-2.21.386-1.986 0-3.133-.815-1.141-.821-1.304-2.197l2.916-.073q.096.507.501.773.404.266 1.032.266.567 0 .924-.212.356-.21.362-.561a.6.6 0 0 0-.278-.501q-.272-.194-.851-.302l-1.618-.308q-1.394-.253-2.076-.936-.683-.688-.677-1.75-.006-.93.495-1.588.501-.664 1.425-1.014t2.179-.35q1.884 0 2.971.79 1.086.785 1.201 2.162"/></g><defs><filter id="b" width="51.429" height="51.429" x="6.286" y="2.286" color-interpolation-filters="sRGB" filterUnits="userSpaceOnUse"><feFlood flood-opacity="0" result="BackgroundImageFix"/><feColorMatrix in="SourceAlpha" result="hardAlpha" values="0 0 0 0 0 0 0 0 0 0 0 0 0 0 0 0 0 0 127 0"/><feOffset/><feGaussianBlur stdDeviation="2.857"/><feComposite in2="hardAlpha" operator="out"/><feColorMatrix values="0 0 0 0 0 0 0 0 0 0 0 0 0 0 0 0 0 0 0.25 0"/><feBlend in2="BackgroundImageFix" result="effect1_dropShadow_28_589"/><feBlend in="SourceGraphic" in2="effect1_dropShadow_28_589" result="shape"/></filter><filter id="c" width="110.2" height="48.677" x="54.4" y="3.9" color-interpolation-filters="sRGB" filterUnits="userSpaceOnUse"><feFlood flood-opacity="0" result="BackgroundImageFix"/><feColorMatrix in="SourceAlpha" result="hardAlpha" values="0 0 0 0 0 0 0 0 0 0 0 0 0 0 0 0 0 0 127 0"/><feOffset/><feGaussianBlur stdDeviation="2.8"/><feComposite in2="hardAlpha" operator="out"/><feColorMatrix values="0 0 0 0 0 0 0 0 0 0 0 0 0 0 0 0 0 0 0.25 0"/><feBlend in2="BackgroundImageFix" result="effect1_dropShadow_28_589"/><feBlend in="SourceGraphic" in2="effect1_dropShadow_28_589" result="shape"/></filter><linearGradient id="a" x1="85.5" x2="85.5" y1="0" y2="56" gradientUnits="userSpaceOnUse"><stop stop-color="#181818"/><stop offset="1" stop-color="#0f0f0f"/></linearGradient></defs></svg>