<svg xmlns="http://www.w3.org/2000/svg" width="180" height="56" fill="none" viewBox="0 0 180 56"><rect width="180" height="56" fill="url(#a)" rx="8"/><rect width="177.9" height="53.9" x="1.05" y="1.05" stroke="#fff" stroke-opacity=".15" stroke-width="2.1" rx="6.95"/><g filter="url(#b)"><path fill="#dd4c35" d="M51.249 26.22 33.784 8.757a2.57 2.57 0 0 0-3.643 0l-3.627 3.627 4.6 4.6a3.058 3.058 0 0 1 3.875 3.9l4.428 4.429a3.062 3.062 0 1 1-1.836 1.729l-4.135-4.136v10.881a3.059 3.059 0 1 1-2.52-.088V22.716a3.066 3.066 0 0 1-1.665-4.02l-4.528-4.531-11.976 11.98a2.57 2.57 0 0 0 0 3.644l17.464 17.459a2.57 2.57 0 0 0 3.643 0L51.25 29.859a2.573 2.573 0 0 0 0-3.644"/><path fill="#fff" d="m26.514 12.384 4.6 4.6a3.058 3.058 0 0 1 3.875 3.9l4.428 4.428a3.061 3.061 0 1 1-1.836 1.729l-4.135-4.136v10.881a3.059 3.059 0 1 1-2.52-.088V22.716a3.066 3.066 0 0 1-1.665-4.02l-4.528-4.531"/></g><g filter="url(#c)"><path fill="#e8e8e8" d="M70.943 16.648H69.17a2.7 2.7 0 0 0-1.062-1.733q-.403-.301-.904-.455a3.5 3.5 0 0 0-1.05-.153q-1.007 0-1.802.505-.79.506-1.25 1.484-.454.976-.454 2.386 0 1.42.454 2.398.46.977 1.256 1.477.795.5 1.79.5.551 0 1.045-.148.5-.153.904-.449a2.72 2.72 0 0 0 1.074-1.71l1.772.006a4.8 4.8 0 0 1-.551 1.58q-.403.716-1.04 1.238-.63.517-1.443.801a5.3 5.3 0 0 1-1.773.284q-1.51 0-2.693-.716-1.182-.72-1.863-2.062-.677-1.34-.677-3.2 0-1.863.682-3.198.682-1.341 1.864-2.057 1.181-.721 2.687-.722.927 0 1.728.268.806.26 1.448.772.642.505 1.063 1.239.42.727.568 1.665m3.663 2.67V24.5h-1.698V12.864h1.676v4.33h.108q.306-.706.937-1.12.63-.415 1.648-.415.897 0 1.568.37.676.369 1.046 1.102.375.727.375 1.818V24.5h-1.7v-5.347q0-.96-.494-1.488-.495-.534-1.375-.534-.602 0-1.08.255-.471.255-.743.75-.267.489-.267 1.182m11.688 5.358q-1.29 0-2.222-.551a3.74 3.74 0 0 1-1.431-1.562q-.5-1.012-.5-2.37 0-1.341.5-2.364a3.9 3.9 0 0 1 1.409-1.596q.909-.574 2.125-.574.739 0 1.431.244.694.244 1.245.768.55.522.87 1.357.317.83.317 2.017v.603h-6.937v-1.273h5.273q0-.67-.273-1.187a2.06 2.06 0 0 0-.767-.824q-.49-.302-1.148-.302-.716 0-1.25.353a2.36 2.36 0 0 0-.818.909q-.285.556-.284 1.21v.994q0 .876.307 1.489.312.615.869.938.557.318 1.301.318.483 0 .88-.137.399-.142.688-.42.29-.279.443-.688l1.608.29q-.193.71-.693 1.244a3.36 3.36 0 0 1-1.244.824q-.744.29-1.699.29m9.305 0q-1.267 0-2.181-.574a3.8 3.8 0 0 1-1.398-1.596q-.489-1.017-.489-2.33 0-1.329.5-2.346a3.83 3.83 0 0 1 1.41-1.597q.909-.574 2.141-.574.995 0 1.773.37a3.2 3.2 0 0 1 1.256 1.022q.483.66.574 1.54H97.53a1.98 1.98 0 0 0-.625-1.057q-.483-.443-1.295-.443a2.1 2.1 0 0 0-1.245.375q-.528.369-.823 1.057-.296.681-.296 1.613 0 .955.29 1.648t.818 1.074q.534.38 1.256.38.483 0 .875-.175.397-.183.664-.518.274-.335.381-.806h1.654a3.2 3.2 0 0 1-.552 1.511 3.17 3.17 0 0 1-1.233 1.045q-.766.381-1.8.381m6.965-3.136-.011-2.074h.295l3.477-3.693h2.034l-3.966 4.204h-.267zm-1.563 2.96V12.864h1.699V24.5zm5.512 0-3.125-4.148 1.17-1.187 4.04 5.335zm11.305.176q-1.227 0-2.142-.562a3.8 3.8 0 0 1-1.42-1.574q-.506-1.011-.506-2.364 0-1.358.506-2.375a3.8 3.8 0 0 1 1.42-1.58q.915-.561 2.142-.562 1.227 0 2.142.563t1.421 1.58q.505 1.016.505 2.374 0 1.353-.505 2.364a3.8 3.8 0 0 1-1.421 1.574q-.915.562-2.142.562m.006-1.426q.796 0 1.318-.42a2.47 2.47 0 0 0 .773-1.12q.255-.699.255-1.54 0-.835-.255-1.534a2.5 2.5 0 0 0-.773-1.13q-.522-.426-1.318-.427-.8 0-1.33.427a2.54 2.54 0 0 0-.778 1.13q-.25.7-.25 1.534 0 .841.25 1.54.255.7.778 1.12.53.42 1.33.42m11.487-2.37v-5.107h1.705V24.5h-1.671v-1.511h-.091a2.73 2.73 0 0 1-.966 1.164q-.658.46-1.642.46-.84 0-1.488-.369-.643-.375-1.012-1.108-.363-.732-.363-1.812v-5.551h1.698v5.346q0 .893.495 1.42.493.53 1.284.53.477 0 .949-.24.477-.239.79-.721.318-.483.312-1.227m8.061-5.107v1.363h-4.767v-1.363zm-3.489-2.091h1.699v8.256q0 .493.148.744a.77.77 0 0 0 .381.335q.238.085.517.085a2 2 0 0 0 .358-.028l.238-.046.307 1.404a3 3 0 0 1-.42.113 3.3 3.3 0 0 1-.682.069 3 3 0 0 1-1.25-.239 2.15 2.15 0 0 1-.938-.773q-.358-.523-.358-1.312zm13.677 2.09v1.364h-4.767v-1.363zm-3.489-2.09h1.699v8.256q0 .493.148.744a.77.77 0 0 0 .38.335q.239.085.517.085.205 0 .358-.028l.239-.046.307 1.404a3 3 0 0 1-.421.113 3.3 3.3 0 0 1-.682.069 3 3 0 0 1-1.25-.239 2.15 2.15 0 0 1-.937-.773q-.358-.523-.358-1.312zm7.254 5.636V24.5h-1.699V12.864h1.676v4.33h.108q.307-.706.938-1.12.63-.415 1.648-.415.897 0 1.568.37.676.369 1.045 1.102.375.727.375 1.818V24.5h-1.699v-5.347q0-.96-.494-1.488-.494-.534-1.375-.534-.602 0-1.079.255-.472.255-.745.75-.267.489-.267 1.182m11.688 5.358q-1.29 0-2.222-.551a3.74 3.74 0 0 1-1.432-1.562q-.5-1.012-.5-2.37 0-1.341.5-2.364a3.9 3.9 0 0 1 1.409-1.596q.91-.574 2.125-.574.74 0 1.432.244.693.244 1.245.768.55.522.869 1.357.318.83.318 2.017v.603h-6.937v-1.273h5.272q0-.67-.272-1.187a2.06 2.06 0 0 0-.768-.824q-.488-.302-1.147-.302-.716 0-1.25.353a2.36 2.36 0 0 0-.818.909q-.285.556-.285 1.21v.994q0 .876.307 1.489.313.615.87.938.557.318 1.301.318.483 0 .88-.137.399-.142.688-.42.29-.279.443-.688l1.608.29q-.194.71-.693 1.244-.495.529-1.244.824-.745.29-1.699.29"/><path fill="#dd4c35" d="M60.936 43.5V31.136h5.107q1.388 0 2.397.501 1.014.495 1.563 1.425.55.924.55 2.192 0 1.285-.562 2.185-.562.893-1.594 1.364-1.032.465-2.445.465h-3.23v-2.354h2.675q.675 0 1.129-.175.459-.181.694-.544.236-.368.236-.941 0-.575-.236-.948a1.4 1.4 0 0 0-.694-.568q-.459-.193-1.129-.193h-1.473V43.5zm6.96-5.65 3.08 5.65h-3.26l-3.02-5.65zm8.447 5.825q-1.455 0-2.51-.573a3.97 3.97 0 0 1-1.619-1.648q-.561-1.075-.561-2.554 0-1.437.567-2.511.568-1.08 1.6-1.679 1.033-.603 2.433-.604.99 0 1.811.308.82.309 1.419.912.597.604.93 1.491.33.882.331 2.023v.736h-8.059v-1.715h5.313a1.66 1.66 0 0 0-.224-.839 1.5 1.5 0 0 0-.597-.573 1.7 1.7 0 0 0-.864-.211q-.495 0-.887.223a1.68 1.68 0 0 0-.863 1.449v1.745q0 .567.223.996.223.421.634.658.41.235.978.235.392 0 .712-.109.32-.108.55-.32.228-.21.344-.519l2.71.079a3.35 3.35 0 0 1-.742 1.587q-.569.67-1.491 1.045-.924.368-2.138.368m5.91 3.302v-12.75h2.921v1.588h.09q.181-.422.514-.815.337-.393.857-.64.525-.254 1.256-.254.965 0 1.805.508.845.507 1.364 1.563t.52 2.693q0 1.575-.502 2.638-.495 1.063-1.34 1.594a3.4 3.4 0 0 1-1.865.53q-.7 0-1.214-.229a2.6 2.6 0 0 1-.863-.603 2.9 2.9 0 0 1-.532-.803h-.06v4.98zm2.89-8.113q0 .748.2 1.304.205.555.586.863.386.302.923.302.543 0 .924-.302.38-.308.573-.863.2-.555.2-1.304 0-.75-.2-1.298-.193-.55-.573-.852-.374-.3-.924-.301-.543 0-.923.295-.382.297-.586.846-.2.548-.2 1.31m12.312 4.811q-1.46 0-2.512-.598a4.1 4.1 0 0 1-1.612-1.678q-.561-1.08-.561-2.505 0-1.432.561-2.505.568-1.08 1.612-1.679 1.05-.603 2.512-.604 1.461 0 2.505.604 1.05.598 1.612 1.678.567 1.075.567 2.506 0 1.425-.567 2.505a4.1 4.1 0 0 1-1.612 1.678q-1.044.598-2.505.598m.018-2.228q.531 0 .9-.326.368-.326.56-.905.2-.58.2-1.34 0-.773-.2-1.353-.192-.58-.56-.905a1.3 1.3 0 0 0-.9-.326 1.38 1.38 0 0 0-.93.326q-.374.327-.574.905-.192.58-.193 1.353 0 .76.194 1.34.198.58.573.905.38.327.93.326m14.274-4.388-2.711.072a1 1 0 0 0-.229-.513 1.24 1.24 0 0 0-.489-.356 1.7 1.7 0 0 0-.688-.133q-.513 0-.876.205-.356.205-.35.555a.6.6 0 0 0 .218.471q.229.2.815.32l1.787.339q1.388.265 2.064.88.682.617.688 1.63-.006.955-.567 1.661-.555.706-1.521 1.099-.966.386-2.21.386-1.986 0-3.133-.815-1.141-.821-1.304-2.197l2.916-.073q.096.507.501.773t1.032.266q.568 0 .924-.212.356-.21.362-.561a.6.6 0 0 0-.278-.501q-.271-.194-.851-.302l-1.618-.308q-1.394-.253-2.076-.936-.683-.688-.677-1.75-.006-.93.495-1.588.502-.664 1.425-1.014t2.18-.35q1.882 0 2.97.79 1.087.785 1.201 2.162m1.683 6.441v-9.273h2.952V43.5zm1.479-10.353q-.622 0-1.069-.41a1.32 1.32 0 0 1-.446-1.003q0-.579.446-.99a1.5 1.5 0 0 1 1.069-.417q.628 0 1.068.417.447.411.447.99 0 .585-.447 1.002a1.5 1.5 0 0 1-1.068.41m8.586 1.08V36.4h-5.85v-2.174zm-4.624-2.221h2.952v8.578q0 .272.084.44a.53.53 0 0 0 .26.236 1.1 1.1 0 0 0 .404.067q.17 0 .356-.03.194-.038.29-.06l.447 2.13q-.211.06-.598.151-.38.09-.911.115-1.039.048-1.781-.242a2.3 2.3 0 0 1-1.129-.917q-.387-.622-.374-1.564zm10.359 11.67q-1.461 0-2.511-.599a4.1 4.1 0 0 1-1.612-1.678q-.562-1.08-.562-2.505 0-1.432.562-2.505a4.07 4.07 0 0 1 1.612-1.679q1.05-.603 2.511-.604 1.461 0 2.505.604a4 4 0 0 1 1.612 1.678q.567 1.075.568 2.506 0 1.425-.568 2.505a4.07 4.07 0 0 1-1.612 1.678q-1.044.598-2.505.598m.018-2.229q.531 0 .9-.326.367-.326.561-.905.2-.58.199-1.34 0-.773-.199-1.353-.194-.58-.561-.905a1.3 1.3 0 0 0-.9-.326q-.549 0-.93.326-.374.327-.573.905-.193.58-.193 1.353 0 .76.193 1.34.2.58.573.905.381.327.93.326m6.179 2.053v-9.273h2.867v1.69h.097q.254-.917.827-1.364a2.1 2.1 0 0 1 1.334-.453q.206 0 .423.03.218.025.404.08v2.565a3 3 0 0 0-.555-.115 5 5 0 0 0-.604-.042q-.525 0-.948.235a1.7 1.7 0 0 0-.658.646 1.9 1.9 0 0 0-.235.966V43.5zm9.242 3.477q-.531 0-1.002-.084a4 4 0 0 1-.809-.212l.652-2.143q.435.145.785.17.357.023.61-.115.26-.133.398-.477l.115-.278-3.296-9.61h3.091l1.708 6.616h.097l1.732-6.617h3.109l-3.495 10.16a4.3 4.3 0 0 1-.718 1.34q-.46.587-1.19.918-.724.332-1.787.332"/></g><defs><filter id="b" width="51.434" height="51.433" x="6.286" y="2.286" color-interpolation-filters="sRGB" filterUnits="userSpaceOnUse"><feFlood flood-opacity="0" result="BackgroundImageFix"/><feColorMatrix in="SourceAlpha" result="hardAlpha" values="0 0 0 0 0 0 0 0 0 0 0 0 0 0 0 0 0 0 127 0"/><feOffset/><feGaussianBlur stdDeviation="2.857"/><feComposite in2="hardAlpha" operator="out"/><feColorMatrix values="0 0 0 0 0 0 0 0 0 0 0 0 0 0 0 0 0 0 0.25 0"/><feBlend in2="BackgroundImageFix" result="effect1_dropShadow_28_669"/><feBlend in="SourceGraphic" in2="effect1_dropShadow_28_669" result="shape"/></filter><filter id="c" width="119.2" height="48.677" x="54.4" y="3.9" color-interpolation-filters="sRGB" filterUnits="userSpaceOnUse"><feFlood flood-opacity="0" result="BackgroundImageFix"/><feColorMatrix in="SourceAlpha" result="hardAlpha" values="0 0 0 0 0 0 0 0 0 0 0 0 0 0 0 0 0 0 127 0"/><feOffset/><feGaussianBlur stdDeviation="2.8"/><feComposite in2="hardAlpha" operator="out"/><feColorMatrix values="0 0 0 0 0 0 0 0 0 0 0 0 0 0 0 0 0 0 0.25 0"/><feBlend in2="BackgroundImageFix" result="effect1_dropShadow_28_669"/><feBlend in="SourceGraphic" in2="effect1_dropShadow_28_669" result="shape"/></filter><linearGradient id="a" x1="90" x2="90" y1="0" y2="56" gradientUnits="userSpaceOnUse"><stop stop-color="#361712"/><stop offset="1" stop-color="#1d0c09"/></linearGradient></defs></svg>