<svg xmlns="http://www.w3.org/2000/svg" width="164" height="56" fill="none" viewBox="0 0 164 56"><rect width="164" height="56" fill="url(#a)" rx="8"/><rect width="161.9" height="53.9" x="1.05" y="1.05" stroke="#fff" stroke-opacity=".15" stroke-width="2.1" rx="6.95"/><g filter="url(#b)"><path fill="#fff" d="M32.001 8.716C20.951 8.716 12 17.573 12 28.488c0 8.741 5.73 16.15 13.672 18.763 1.004.187 1.366-.425 1.366-.954 0-.47-.01-1.711-.018-3.36-5.567 1.192-6.74-2.658-6.74-2.658-.91-2.279-2.226-2.89-2.226-2.89-1.81-1.223.144-1.197.144-1.197 2.005.135 3.06 2.033 3.06 2.033 1.784 3.025 4.68 2.15 5.827 1.641.175-1.274.696-2.15 1.264-2.638-4.44-.496-9.11-2.195-9.11-9.772 0-2.163.775-3.926 2.057-5.31-.222-.495-.9-2.51.176-5.233 0 0 1.674-.528 5.5 2.027a19.5 19.5 0 0 1 5-.668c1.7.011 3.4.231 5 .669 3.805-2.556 5.477-2.028 5.477-2.028 1.074 2.723.397 4.736.202 5.233 1.268 1.384 2.044 3.148 2.044 5.31 0 7.594-4.676 9.269-9.121 9.752.695.592 1.346 1.81 1.346 3.657 0 2.644-.025 4.775-.025 5.419 0 .514.35 1.132 1.38.933C46.275 44.63 52 37.216 52 28.487c0-10.916-8.952-19.773-20.001-19.773z"/></g><g filter="url(#c)"><path fill="#e8e8e8" d="M62.261 24.5h-1.863l4.187-11.636h2.029L70.8 24.5h-1.864l-3.29-9.523h-.09zm.313-4.557h6.045v1.477h-6.045zm16.143-4.17L75.552 24.5h-1.818l-3.17-8.727h1.824l2.21 6.716h.09l2.205-6.716zm3.887 8.92a3.6 3.6 0 0 1-1.5-.307 2.53 2.53 0 0 1-1.063-.903q-.386-.591-.386-1.449 0-.739.284-1.216.285-.477.767-.756a4 4 0 0 1 1.08-.42q.596-.142 1.215-.216l1.273-.148q.49-.061.71-.198.222-.137.222-.444v-.04q0-.744-.42-1.153-.415-.41-1.24-.409-.857 0-1.351.38-.49.376-.677.836l-1.596-.364q.284-.795.83-1.284.551-.495 1.266-.716.717-.227 1.506-.227.523 0 1.108.125.59.12 1.102.443.517.324.847.926.33.597.33 1.552V24.5h-1.66v-1.193h-.068q-.165.33-.494.648-.33.318-.847.528t-1.238.21m.369-1.364q.705 0 1.204-.278a1.95 1.95 0 0 0 .768-.727q.267-.454.267-.972v-1.125q-.091.091-.353.17-.255.075-.585.131-.33.052-.642.097l-.523.068q-.494.063-.903.21-.403.148-.648.427-.238.272-.238.727 0 .63.466.954.465.32 1.187.319m6.2 1.171v-8.727h1.7V24.5zm.858-10.074a1.08 1.08 0 0 1-.761-.295.96.96 0 0 1-.313-.716q0-.421.313-.716.318-.3.761-.301.444 0 .756.3a.94.94 0 0 1 .318.717.95.95 0 0 1-.318.716 1.06 1.06 0 0 1-.756.295m4.825-1.562V24.5h-1.698V12.864zm4.826 11.83a3.6 3.6 0 0 1-1.5-.308 2.53 2.53 0 0 1-1.063-.903q-.386-.591-.386-1.449 0-.739.284-1.216t.767-.756a4 4 0 0 1 1.08-.42q.596-.142 1.216-.216l1.272-.148q.49-.061.71-.198.222-.137.222-.444v-.04q0-.744-.42-1.153-.415-.41-1.239-.409-.858 0-1.352.38-.489.376-.676.836L97 17.886q.284-.795.83-1.284.551-.495 1.267-.716.716-.227 1.505-.227.523 0 1.108.125.592.12 1.102.443.517.324.847.926.33.597.33 1.552V24.5h-1.659v-1.193h-.069q-.165.33-.494.648-.33.318-.847.528t-1.238.21m.369-1.364q.704 0 1.205-.279.505-.278.767-.727.267-.454.267-.972v-1.125q-.091.091-.353.17-.255.075-.585.131-.329.052-.642.097l-.523.068a4.2 4.2 0 0 0-.903.21q-.403.148-.648.427-.238.272-.238.727 0 .63.466.954.465.32 1.187.319m6.337 1.17V12.864h1.699v4.323h.102q.147-.272.426-.63t.773-.625q.494-.273 1.307-.273 1.056 0 1.886.534.83.535 1.301 1.54.477 1.005.477 2.42t-.471 2.427q-.472 1.005-1.296 1.55-.824.54-1.88.54-.796 0-1.302-.267a2.5 2.5 0 0 1-.784-.625 5 5 0 0 1-.437-.636h-.142V24.5zm1.665-4.364q0 .921.267 1.614t.772 1.085q.506.387 1.239.387.761 0 1.273-.404.511-.41.772-1.108.267-.699.267-1.574 0-.863-.261-1.55-.255-.689-.773-1.086-.511-.398-1.278-.398-.739 0-1.25.381-.506.38-.767 1.063-.261.681-.261 1.59m9.913-7.272V24.5h-1.699V12.864zm6.047 11.812q-1.29 0-2.222-.551a3.74 3.74 0 0 1-1.432-1.562q-.5-1.012-.5-2.37 0-1.341.5-2.364a3.9 3.9 0 0 1 1.409-1.596q.91-.574 2.125-.574.74 0 1.432.244.693.244 1.245.768.55.522.869 1.357.318.83.318 2.018v.602h-6.937v-1.273h5.272q0-.67-.272-1.187a2.07 2.07 0 0 0-.767-.824q-.49-.302-1.148-.302-.716 0-1.25.353a2.36 2.36 0 0 0-.818.909q-.284.556-.284 1.21v.994q0 .876.306 1.489.313.615.87.938.557.318 1.301.318.483 0 .88-.137.399-.142.688-.42.29-.279.443-.688l1.608.29q-.194.71-.693 1.244-.494.529-1.244.824-.745.29-1.699.29m13.54 0q-1.228 0-2.143-.562a3.8 3.8 0 0 1-1.42-1.574q-.506-1.011-.506-2.364 0-1.358.506-2.375a3.8 3.8 0 0 1 1.42-1.58q.915-.561 2.143-.562 1.227 0 2.142.563a3.8 3.8 0 0 1 1.42 1.58q.506 1.016.506 2.374 0 1.353-.506 2.364a3.8 3.8 0 0 1-1.42 1.574q-.915.562-2.142.562m.005-1.426q.796 0 1.318-.42.523-.42.773-1.12.256-.699.256-1.54 0-.835-.256-1.534a2.5 2.5 0 0 0-.773-1.13q-.523-.426-1.318-.427-.801 0-1.329.427a2.54 2.54 0 0 0-.779 1.13q-.25.7-.25 1.535 0 .84.25 1.54.256.697.779 1.119.528.42 1.329.42m7.658-3.932V24.5h-1.699v-8.727h1.631v1.42h.108q.3-.693.943-1.114.648-.42 1.63-.42.893 0 1.563.375.67.37 1.04 1.102.369.733.369 1.813V24.5h-1.699v-5.347q0-.948-.494-1.482-.495-.54-1.358-.54-.59 0-1.051.255-.455.255-.722.75-.261.489-.261 1.182"/><path fill="#fff" d="M69.05 35.175a2.2 2.2 0 0 0-.302-.67 1.9 1.9 0 0 0-.49-.501 2.1 2.1 0 0 0-.664-.308 3 3 0 0 0-.82-.109q-.9 0-1.558.435-.652.434-1.008 1.268-.356.827-.356 2.01 0 1.19.344 2.029t.996 1.28q.652.44 1.581.44.821 0 1.389-.266.573-.27.87-.766.294-.495.295-1.165l.555.066h-3.006v-2.18h5.33v1.637q0 1.66-.706 2.843a4.7 4.7 0 0 1-1.931 1.817q-1.226.634-2.82.634-1.768 0-3.109-.767-1.34-.766-2.089-2.185-.748-1.425-.748-3.38 0-1.522.453-2.7.452-1.182 1.261-2.004a5.45 5.45 0 0 1 1.884-1.243 6.3 6.3 0 0 1 2.312-.423q1.075 0 1.998.308.93.308 1.642.87.72.561 1.165 1.334a4.4 4.4 0 0 1 .556 1.696zm5.499 8.325v-9.273h2.952V43.5zm1.479-10.353q-.622 0-1.069-.41a1.32 1.32 0 0 1-.446-1.003q0-.579.447-.99a1.5 1.5 0 0 1 1.068-.417q.628 0 1.069.417.446.411.446.99 0 .585-.446 1.002-.44.41-1.069.41m8.586 1.08V36.4h-5.85v-2.174zm-4.624-2.221h2.952v8.578q0 .272.084.44.09.165.26.236.169.067.404.067.17 0 .357-.03.192-.038.29-.06l.446 2.13q-.21.06-.598.151a5 5 0 0 1-.911.115q-1.038.048-1.781-.242a2.3 2.3 0 0 1-1.129-.917q-.386-.622-.374-1.564zM86.32 43.5V31.136h2.988V36.1h4.872v-4.963h2.982V43.5H94.18v-4.968h-4.872V43.5zm18.699-4.002v-5.27h2.946V43.5h-2.813v-1.727h-.097a2.7 2.7 0 0 1-1.05 1.353q-.737.495-1.781.495-.948 0-1.666-.435a2.96 2.96 0 0 1-1.117-1.213q-.398-.785-.405-1.836v-5.91h2.952v5.33q.006.755.399 1.19.392.435 1.068.435.441 0 .791-.193.357-.2.562-.574.21-.38.211-.917m4.825 4.002V31.136h2.952v4.679h.06q.181-.422.513-.815.339-.393.858-.64.525-.254 1.255-.254.966 0 1.805.508.846.507 1.365 1.563t.519 2.693q0 1.575-.501 2.638-.495 1.063-1.34 1.594a3.4 3.4 0 0 1-1.866.53q-.7 0-1.213-.229a2.6 2.6 0 0 1-.863-.603 2.9 2.9 0 0 1-.532-.803h-.09V43.5zm2.892-4.636q0 .748.199 1.304.206.555.585.863.387.302.924.302.543 0 .924-.302.38-.308.573-.863.2-.555.199-1.304 0-.75-.199-1.298-.194-.55-.573-.852-.375-.3-.924-.301-.543 0-.924.295-.38.297-.585.846-.2.548-.199 1.31"/></g><defs><filter id="b" width="51.429" height="51.429" x="6.286" y="2.286" color-interpolation-filters="sRGB" filterUnits="userSpaceOnUse"><feFlood flood-opacity="0" result="BackgroundImageFix"/><feColorMatrix in="SourceAlpha" result="hardAlpha" values="0 0 0 0 0 0 0 0 0 0 0 0 0 0 0 0 0 0 127 0"/><feOffset/><feGaussianBlur stdDeviation="2.857"/><feComposite in2="hardAlpha" operator="out"/><feColorMatrix values="0 0 0 0 0 0 0 0 0 0 0 0 0 0 0 0 0 0 0.25 0"/><feBlend in2="BackgroundImageFix" result="effect1_dropShadow_28_641"/><feBlend in="SourceGraphic" in2="effect1_dropShadow_28_641" result="shape"/></filter><filter id="c" width="103.2" height="48.2" x="54.4" y="3.9" color-interpolation-filters="sRGB" filterUnits="userSpaceOnUse"><feFlood flood-opacity="0" result="BackgroundImageFix"/><feColorMatrix in="SourceAlpha" result="hardAlpha" values="0 0 0 0 0 0 0 0 0 0 0 0 0 0 0 0 0 0 127 0"/><feOffset/><feGaussianBlur stdDeviation="2.8"/><feComposite in2="hardAlpha" operator="out"/><feColorMatrix values="0 0 0 0 0 0 0 0 0 0 0 0 0 0 0 0 0 0 0.25 0"/><feBlend in2="BackgroundImageFix" result="effect1_dropShadow_28_641"/><feBlend in="SourceGraphic" in2="effect1_dropShadow_28_641" result="shape"/></filter><linearGradient id="a" x1="82" x2="82" y1="0" y2="56" gradientUnits="userSpaceOnUse"><stop stop-color="#181f29"/><stop offset="1" stop-color="#0f131a"/></linearGradient></defs></svg>