<svg xmlns="http://www.w3.org/2000/svg" width="239" height="56" fill="none" viewBox="0 0 239 56"><rect width="239" height="56" fill="url(#a)" rx="8"/><rect width="236.9" height="53.9" x="1.05" y="1.05" stroke="#fff" stroke-opacity=".15" stroke-width="2.1" rx="6.95"/><g filter="url(#b)"><path fill="#7dc1d1" d="M49.816 14.935c-2.501-2.551-6.336-2.551-8.838-.17-.166.17-.166.34-.166.51s0 .34.166.51l.834.851c.167.17.5.17.834 0 .667-.51 1.334-.68 2.167-.68 2.001 0 3.669 1.7 3.669 3.742q0 1.53-1 2.551c-5.003 5.103-11.84-9.185-27.013-1.87-1 .51-1.5 1.7-1 2.72v.17l2.5 4.593c.501 1.02 1.835 1.36 2.835.85l1.168-.68c1.333-.85 2.5-1.7 3.668-2.721.167-.17.667-.17.834 0 .333.17.333.51.166.85l-.166.17a32.6 32.6 0 0 1-3.835 2.892l-1.168.51c-.5.34-1 .51-1.667.51-1.167 0-2.334-.68-2.835-1.7l-2.5-4.423c-4.67 3.402-7.671 10.035-6.004 18.37 0 .34.334.51.667.51h2.835c.333 0 .5-.17.667-.51.334-2.382 2.334-3.912 4.669-3.572 1.834.17 3.335 1.7 3.501 3.572 0 .34.334.51.667.51h2.668c.334 0 .5-.17.667-.51.334-2.382 2.335-3.912 4.669-3.572 1.834.17 3.335 1.7 3.502 3.572 0 .34.333.51.667.51h2.668c.333 0 .666-.34.666-.68 0-3.912 1.168-8.335 4.002-10.546 9.838-7.824 7.17-14.457 4.836-16.839M39.478 26.672l-2.001-1.021c0-.68.5-1.19 1.167-1.19s1.167.51 1.167 1.19c.167.51 0 .85-.333 1.02"/></g><g filter="url(#c)"><path fill="#e8e8e8" d="M62.261 24.5h-1.863l4.187-11.636h2.029L70.8 24.5h-1.864l-3.29-9.523h-.09zm.313-4.557h6.045v1.477h-6.045zm16.143-4.17L75.552 24.5h-1.818l-3.17-8.727h1.824l2.21 6.716h.09l2.205-6.716zm3.887 8.92a3.6 3.6 0 0 1-1.5-.307 2.53 2.53 0 0 1-1.063-.903q-.386-.591-.386-1.449 0-.739.284-1.216.285-.477.767-.756a4 4 0 0 1 1.08-.42q.596-.142 1.215-.216l1.273-.148q.49-.061.71-.198.222-.137.222-.444v-.04q0-.744-.42-1.153-.415-.41-1.24-.409-.857 0-1.351.38-.49.376-.677.836l-1.596-.364q.284-.795.83-1.284.551-.495 1.266-.716.717-.227 1.506-.227.523 0 1.108.125.59.12 1.102.443.517.324.847.926.33.597.33 1.552V24.5h-1.66v-1.193h-.068q-.165.33-.494.648-.33.318-.847.528t-1.238.21m.369-1.364q.705 0 1.204-.278a1.95 1.95 0 0 0 .768-.727q.267-.454.267-.972v-1.125q-.091.091-.353.17-.255.075-.585.131-.33.052-.642.097l-.523.068q-.494.063-.903.21-.403.148-.648.427-.238.272-.238.727 0 .63.466.954.465.32 1.187.319m6.2 1.171v-8.727h1.7V24.5zm.858-10.074a1.08 1.08 0 0 1-.761-.295.96.96 0 0 1-.313-.716q0-.421.313-.716.318-.3.761-.301.444 0 .756.3a.94.94 0 0 1 .318.717.95.95 0 0 1-.318.716 1.06 1.06 0 0 1-.756.295m4.825-1.562V24.5h-1.698V12.864zm4.826 11.83a3.6 3.6 0 0 1-1.5-.308 2.53 2.53 0 0 1-1.063-.903q-.386-.591-.386-1.449 0-.739.284-1.216t.767-.756a4 4 0 0 1 1.08-.42q.596-.142 1.216-.216l1.272-.148q.49-.061.71-.198.222-.137.222-.444v-.04q0-.744-.42-1.153-.415-.41-1.239-.409-.858 0-1.352.38-.489.376-.676.836L97 17.886q.284-.795.83-1.284.551-.495 1.267-.716.716-.227 1.505-.227.523 0 1.108.125.592.12 1.102.443.517.324.847.926.33.597.33 1.552V24.5h-1.659v-1.193h-.069q-.165.33-.494.648-.33.318-.847.528t-1.238.21m.369-1.364q.704 0 1.205-.279.505-.278.767-.727.267-.454.267-.972v-1.125q-.091.091-.353.17-.255.075-.585.131-.329.052-.642.097l-.523.068a4.2 4.2 0 0 0-.903.21q-.403.148-.648.427-.238.272-.238.727 0 .63.466.954.465.32 1.187.319m6.337 1.17V12.864h1.699v4.323h.102q.147-.272.426-.63t.773-.625q.494-.273 1.307-.273 1.056 0 1.886.534.83.535 1.301 1.54.477 1.005.477 2.42t-.471 2.427q-.472 1.005-1.296 1.55-.824.54-1.88.54-.796 0-1.302-.267a2.5 2.5 0 0 1-.784-.625 5 5 0 0 1-.437-.636h-.142V24.5zm1.665-4.364q0 .921.267 1.614t.772 1.085q.506.387 1.239.387.761 0 1.273-.404.511-.41.772-1.108.267-.699.267-1.574 0-.863-.261-1.55-.255-.689-.773-1.086-.511-.398-1.278-.398-.739 0-1.25.381-.506.38-.767 1.063-.261.681-.261 1.59m9.913-7.272V24.5h-1.699V12.864zm6.047 11.812q-1.29 0-2.222-.551a3.74 3.74 0 0 1-1.432-1.562q-.5-1.012-.5-2.37 0-1.341.5-2.364a3.9 3.9 0 0 1 1.409-1.596q.91-.574 2.125-.574.74 0 1.432.244.693.244 1.245.768.55.522.869 1.357.318.83.318 2.018v.602h-6.937v-1.273h5.272q0-.67-.272-1.187a2.07 2.07 0 0 0-.767-.824q-.49-.302-1.148-.302-.716 0-1.25.353a2.36 2.36 0 0 0-.818.909q-.284.556-.284 1.21v.994q0 .876.306 1.489.313.615.87.938.557.318 1.301.318.483 0 .88-.137.399-.142.688-.42.29-.279.443-.688l1.608.29q-.194.71-.693 1.244-.494.529-1.244.824-.745.29-1.699.29m13.54 0q-1.228 0-2.143-.562a3.8 3.8 0 0 1-1.42-1.574q-.506-1.011-.506-2.364 0-1.358.506-2.375a3.8 3.8 0 0 1 1.42-1.58q.915-.561 2.143-.562 1.227 0 2.142.563a3.8 3.8 0 0 1 1.42 1.58q.506 1.016.506 2.374 0 1.353-.506 2.364a3.8 3.8 0 0 1-1.42 1.574q-.915.562-2.142.562m.005-1.426q.796 0 1.318-.42.523-.42.773-1.12.256-.699.256-1.54 0-.835-.256-1.534a2.5 2.5 0 0 0-.773-1.13q-.523-.426-1.318-.427-.801 0-1.329.427a2.54 2.54 0 0 0-.779 1.13q-.25.7-.25 1.535 0 .84.25 1.54.256.697.779 1.119.528.42 1.329.42m7.658-3.932V24.5h-1.699v-8.727h1.631v1.42h.108q.3-.693.943-1.114.648-.42 1.63-.42.893 0 1.563.375.67.37 1.04 1.102.369.733.369 1.813V24.5h-1.699v-5.347q0-.948-.494-1.482-.495-.54-1.358-.54-.59 0-1.051.255-.455.255-.722.75-.261.489-.261 1.182"/><path fill="#7dc1d1" d="M69.05 35.175a2.2 2.2 0 0 0-.302-.67 1.9 1.9 0 0 0-.49-.501 2.1 2.1 0 0 0-.664-.308 3 3 0 0 0-.82-.109q-.9 0-1.558.435-.652.434-1.008 1.268-.356.827-.356 2.01 0 1.19.344 2.029t.996 1.28q.652.44 1.581.44.821 0 1.389-.266.573-.27.87-.766.294-.495.295-1.165l.555.066h-3.006v-2.18h5.33v1.637q0 1.66-.706 2.843a4.7 4.7 0 0 1-1.931 1.817q-1.226.634-2.82.634-1.768 0-3.109-.767-1.34-.766-2.089-2.185-.748-1.425-.748-3.38 0-1.522.453-2.7.452-1.182 1.261-2.004a5.45 5.45 0 0 1 1.884-1.243 6.3 6.3 0 0 1 2.312-.423q1.075 0 1.998.308.93.308 1.642.87.72.561 1.165 1.334a4.4 4.4 0 0 1 .556 1.696zm4.918 8.325v-9.273h2.867v1.69h.097q.254-.917.827-1.364a2.1 2.1 0 0 1 1.334-.453q.206 0 .423.03.218.025.404.08v2.565a3 3 0 0 0-.555-.115 5 5 0 0 0-.604-.042q-.525 0-.948.235a1.7 1.7 0 0 0-.658.646 1.9 1.9 0 0 0-.235.966V43.5zm9.42.157q-.886 0-1.575-.296a2.45 2.45 0 0 1-1.08-.905q-.393-.61-.393-1.528 0-.773.272-1.304.27-.531.748-.863a3.5 3.5 0 0 1 1.099-.501 7 7 0 0 1 1.328-.235q.79-.074 1.274-.151.483-.085.7-.236a.51.51 0 0 0 .223-.44v-.03q0-.465-.32-.72-.319-.252-.863-.253-.585 0-.942.254a1.12 1.12 0 0 0-.452.7l-2.723-.096a3.2 3.2 0 0 1 .622-1.51q.506-.67 1.388-1.05.888-.387 2.131-.387.888 0 1.636.212.75.205 1.304.604.555.392.858.965.307.575.307 1.31V43.5h-2.777v-1.292h-.072q-.247.471-.634.797-.38.326-.9.489a3.8 3.8 0 0 1-1.159.163m.912-1.932q.477 0 .857-.193.387-.194.616-.531.23-.344.23-.797v-.882a2 2 0 0 1-.308.121q-.176.054-.387.103t-.434.084-.429.067a2.7 2.7 0 0 0-.712.205 1.1 1.1 0 0 0-.447.362.9.9 0 0 0-.151.52q0 .458.326.7.332.24.84.241m9.822 1.908a3.4 3.4 0 0 1-1.865-.531q-.84-.532-1.34-1.594-.502-1.063-.502-2.638 0-1.636.52-2.693.52-1.056 1.358-1.563a3.47 3.47 0 0 1 1.817-.508q.73 0 1.25.254.52.247.857.64.337.392.513.815h.06v-4.679h2.953V43.5H96.82v-1.503h-.09a2.9 2.9 0 0 1-.532.803q-.344.374-.863.603-.514.23-1.214.23m1.026-2.3q.538 0 .918-.302.38-.308.586-.863t.205-1.304q0-.762-.205-1.31-.2-.55-.586-.846a1.45 1.45 0 0 0-.918-.295q-.549 0-.93.302-.38.3-.579.85-.193.55-.193 1.299t.2 1.304q.198.555.573.863.38.302.93.302m9.414-10.197V43.5h-2.952V31.136zm6.213 12.54q-1.455 0-2.511-.574a3.96 3.96 0 0 1-1.618-1.648q-.561-1.075-.562-2.554 0-1.437.568-2.511.567-1.08 1.6-1.679 1.032-.603 2.433-.604.99 0 1.811.308a3.9 3.9 0 0 1 1.418.912q.599.604.93 1.491.332.882.332 2.023v.736h-8.059v-1.715h5.312a1.66 1.66 0 0 0-.223-.839 1.5 1.5 0 0 0-.598-.573 1.7 1.7 0 0 0-.863-.211q-.495 0-.888.223a1.68 1.68 0 0 0-.863 1.449v1.745q0 .567.224.996.223.421.633.658.411.235.978.235.392 0 .713-.109.32-.108.549-.32.23-.21.344-.519l2.711.079a3.35 3.35 0 0 1-.743 1.587q-.567.67-1.491 1.045-.924.368-2.137.368m9.561-.176V31.136h5.107q1.389 0 2.397.544 1.014.537 1.564 1.503.549.96.549 2.233 0 1.28-.562 2.24a3.76 3.76 0 0 1-1.587 1.48q-1.032.525-2.451.524h-3.152v-2.354h2.596q.676 0 1.129-.235.46-.236.695-.658.235-.429.235-.996 0-.575-.235-.99a1.6 1.6 0 0 0-.695-.652q-.459-.23-1.129-.23h-1.473V43.5zm14.042-12.364V43.5h-2.952V31.136zm7.862 8.362v-5.27h2.946V43.5h-2.814v-1.727h-.096a2.7 2.7 0 0 1-1.051 1.353q-.736.495-1.781.495-.947 0-1.666-.435a2.96 2.96 0 0 1-1.117-1.213q-.398-.785-.404-1.836v-5.91h2.952v5.33q.006.755.398 1.19.393.435 1.069.435.44 0 .791-.193a1.43 1.43 0 0 0 .561-.574q.212-.38.212-.917m9.147 7.672q-1.322 0-2.264-.368-.942-.367-1.479-1.008a2.8 2.8 0 0 1-.646-1.449l2.795-.157q.079.284.29.495.218.212.561.326.351.115.821.115.743 0 1.226-.362.489-.356.489-1.25v-1.63h-.103a2.2 2.2 0 0 1-.531.767 2.5 2.5 0 0 1-.887.531q-.525.193-1.208.193a3.75 3.75 0 0 1-1.859-.47q-.84-.478-1.346-1.474-.501-1.002-.501-2.577 0-1.624.519-2.675.52-1.056 1.358-1.563a3.47 3.47 0 0 1 1.817-.508q.73 0 1.25.254.525.247.863.64.339.392.513.815h.085v-1.588h2.94v9.31q0 1.176-.592 1.985-.591.81-1.654 1.226-1.062.422-2.457.422m.091-5.946q.537 0 .917-.284.38-.283.586-.815.205-.53.205-1.273 0-.755-.205-1.298-.2-.55-.586-.846a1.45 1.45 0 0 0-.917-.295q-.55 0-.93.302-.38.3-.58.85-.192.544-.193 1.287 0 .743.199 1.273.2.532.574.815.38.284.93.284m6.494 2.276v-9.273h2.952V43.5zm1.479-10.353q-.622 0-1.069-.41a1.32 1.32 0 0 1-.446-1.003q0-.579.446-.99a1.5 1.5 0 0 1 1.069-.417q.628 0 1.068.417.447.411.447.99 0 .585-.447 1.002a1.5 1.5 0 0 1-1.068.41m6.304 5.065V43.5h-2.952v-9.273h2.807v1.703h.103a2.6 2.6 0 0 1 1.05-1.334q.743-.49 1.769-.49.978 0 1.696.441.725.435 1.123 1.22.405.779.399 1.823v5.91h-2.952v-5.33q.006-.773-.393-1.208-.392-.435-1.093-.435-.464 0-.821.206a1.36 1.36 0 0 0-.543.573q-.187.375-.193.906M177.23 43.5V31.136h5.107q1.388 0 2.397.544 1.014.537 1.563 1.503.549.96.549 2.233 0 1.28-.561 2.24-.555.954-1.588 1.48-1.032.525-2.451.524h-3.151v-2.354h2.596q.676 0 1.129-.235.459-.236.694-.658.235-.429.235-.996 0-.575-.235-.99a1.6 1.6 0 0 0-.694-.652q-.459-.23-1.129-.23h-1.473V43.5zm15.235.175q-1.461 0-2.511-.598a4.1 4.1 0 0 1-1.612-1.678q-.561-1.08-.561-2.505 0-1.432.561-2.505.567-1.08 1.612-1.679 1.05-.603 2.511-.604 1.46 0 2.506.604 1.05.598 1.611 1.678.568 1.075.568 2.506 0 1.425-.568 2.505a4.07 4.07 0 0 1-1.611 1.678q-1.045.598-2.506.598m.018-2.228q.532 0 .9-.326t.561-.905q.2-.58.2-1.34 0-.773-.2-1.353-.193-.58-.561-.905a1.3 1.3 0 0 0-.9-.326q-.55 0-.929.326-.375.327-.574.905-.193.58-.193 1.353 0 .76.193 1.34.2.58.574.905.38.327.929.326m6.179 2.053v-9.273h2.868v1.69h.096q.254-.917.827-1.364a2.1 2.1 0 0 1 1.335-.453q.204 0 .422.03.218.025.405.08v2.565a3 3 0 0 0-.556-.115 5 5 0 0 0-.603-.042q-.527 0-.948.235a1.7 1.7 0 0 0-.658.646 1.9 1.9 0 0 0-.236.966V43.5zm12.821-9.273v2.174h-5.85v-2.174zm-4.624-2.221h2.952v8.578q0 .272.084.44a.53.53 0 0 0 .26.236q.17.067.404.067.17 0 .357-.03.192-.038.289-.06l.447 2.13q-.212.06-.597.151-.381.09-.912.115-1.038.048-1.781-.242a2.3 2.3 0 0 1-1.129-.917q-.386-.622-.374-1.564zm8.744 11.651q-.887 0-1.575-.296a2.46 2.46 0 0 1-1.081-.905q-.392-.61-.392-1.528 0-.773.271-1.304.272-.531.749-.863a3.5 3.5 0 0 1 1.099-.501 7 7 0 0 1 1.328-.235q.79-.074 1.274-.151.483-.085.7-.236a.51.51 0 0 0 .223-.44v-.03q0-.465-.32-.72-.32-.252-.863-.253-.585 0-.942.254a1.12 1.12 0 0 0-.453.7l-2.722-.096q.12-.846.622-1.51.507-.67 1.388-1.05.888-.387 2.131-.387.888 0 1.636.212.749.205 1.304.604.555.392.857.965.308.575.308 1.31V43.5h-2.777v-1.292h-.072q-.247.471-.634.797-.38.326-.9.489a3.8 3.8 0 0 1-1.159.163m.912-1.932q.477 0 .857-.193.387-.194.616-.531.23-.344.229-.797v-.882a1.7 1.7 0 0 1-.308.121 5 5 0 0 1-.386.103q-.212.048-.435.084-.222.036-.428.067a2.7 2.7 0 0 0-.713.205 1.1 1.1 0 0 0-.446.362.9.9 0 0 0-.151.52q0 .458.326.7.332.24.839.241m9.387-10.589V43.5h-2.952V31.136z"/></g><defs><filter id="b" width="51.429" height="51.429" x="6.286" y="2.286" color-interpolation-filters="sRGB" filterUnits="userSpaceOnUse"><feFlood flood-opacity="0" result="BackgroundImageFix"/><feColorMatrix in="SourceAlpha" result="hardAlpha" values="0 0 0 0 0 0 0 0 0 0 0 0 0 0 0 0 0 0 127 0"/><feOffset/><feGaussianBlur stdDeviation="2.857"/><feComposite in2="hardAlpha" operator="out"/><feColorMatrix values="0 0 0 0 0 0 0 0 0 0 0 0 0 0 0 0 0 0 0.25 0"/><feBlend in2="BackgroundImageFix" result="effect1_dropShadow_28_606"/><feBlend in="SourceGraphic" in2="effect1_dropShadow_28_606" result="shape"/></filter><filter id="c" width="178.2" height="48.87" x="54.4" y="3.9" color-interpolation-filters="sRGB" filterUnits="userSpaceOnUse"><feFlood flood-opacity="0" result="BackgroundImageFix"/><feColorMatrix in="SourceAlpha" result="hardAlpha" values="0 0 0 0 0 0 0 0 0 0 0 0 0 0 0 0 0 0 127 0"/><feOffset/><feGaussianBlur stdDeviation="2.8"/><feComposite in2="hardAlpha" operator="out"/><feColorMatrix values="0 0 0 0 0 0 0 0 0 0 0 0 0 0 0 0 0 0 0.25 0"/><feBlend in2="BackgroundImageFix" result="effect1_dropShadow_28_606"/><feBlend in="SourceGraphic" in2="effect1_dropShadow_28_606" result="shape"/></filter><linearGradient id="a" x1="119.5" x2="119.5" y1="0" y2="56" gradientUnits="userSpaceOnUse"><stop stop-color="#19282c"/><stop offset="1" stop-color="#121c1f"/></linearGradient></defs></svg>