<svg xmlns="http://www.w3.org/2000/svg" width="167" height="56" fill="none" viewBox="0 0 167 56"><rect width="166.94" height="56" fill="url(#a)" rx="8"/><rect width="164.84" height="53.9" x="1.05" y="1.05" stroke="#fff" stroke-opacity=".15" stroke-width="2.1" rx="6.95"/><g fill="#fff" filter="url(#b)"><path d="M46 25.676c-2.915-1.141-7.213 3.232-9.317 9.949A28 28 0 0 0 35.631 47l-1.352-.602c-2.585-8.46-1.142-17.712 3.336-24.398z"/><path d="m48.526 39.413-10.373-4.278c1.906-5.777 5.437-9.243 7.717-9.243q.353.013.688.125l.187.094c.813.375 3.281 2.498 1.781 13.302m-3.718-25.636a22.9 22.9 0 0 0-8.061 7.307c-4.562 6.62-6.124 15.581-3.75 23.95.283 1.008.627 2 1.031 2.966l-13.904-5.745C14.874 29.39 19.687 14.058 30.904 8z"/></g><g fill="#e8e8e8" filter="url(#c)"><path d="M65.201 24.5h-1.863l4.187-11.636h2.028L73.742 24.5h-1.864l-3.29-9.523h-.09zm.313-4.557h6.045v1.477h-6.045zm16.143-4.17L78.492 24.5h-1.818l-3.17-8.727h1.824l2.21 6.716h.09l2.205-6.716zm3.886 8.92a3.6 3.6 0 0 1-1.5-.307 2.53 2.53 0 0 1-1.062-.903q-.386-.591-.386-1.449 0-.739.284-1.216t.767-.756a4 4 0 0 1 1.08-.42q.596-.142 1.215-.216l1.273-.148q.49-.061.71-.198.222-.137.222-.444v-.04q0-.744-.42-1.153-.415-.41-1.24-.409-.857 0-1.352.38-.487.376-.676.836l-1.596-.364q.284-.795.83-1.284.55-.495 1.266-.716.717-.227 1.506-.227.523 0 1.108.125.59.12 1.102.443.517.324.847.926.33.597.33 1.552V24.5h-1.66v-1.193h-.068q-.165.33-.494.648-.33.318-.847.528t-1.239.21m.37-1.364q.705 0 1.204-.278a1.95 1.95 0 0 0 .767-.727q.267-.454.267-.972v-1.125q-.09.091-.352.17-.255.075-.585.131-.33.052-.642.097l-.523.068q-.494.063-.903.21-.404.148-.648.427-.239.272-.239.727 0 .63.466.954.467.32 1.188.319m6.2 1.171v-8.727h1.699V24.5zm.858-10.074a1.08 1.08 0 0 1-.761-.295.96.96 0 0 1-.313-.716q0-.421.313-.716.318-.3.761-.301.442 0 .756.3a.94.94 0 0 1 .318.717.95.95 0 0 1-.318.716 1.06 1.06 0 0 1-.756.295m4.825-1.562V24.5h-1.699V12.864zm4.826 11.83a3.6 3.6 0 0 1-1.5-.308 2.53 2.53 0 0 1-1.063-.903q-.386-.591-.386-1.449 0-.739.284-1.216t.767-.756a4 4 0 0 1 1.079-.42q.597-.142 1.216-.216l1.273-.148q.49-.061.71-.198.222-.137.222-.444v-.04q0-.744-.421-1.153-.414-.41-1.238-.409-.858 0-1.352.38-.49.376-.677.836l-1.596-.364q.284-.795.829-1.284a3.4 3.4 0 0 1 1.267-.716q.717-.227 1.506-.227.523 0 1.108.125.59.12 1.102.443.517.324.847.926.33.597.329 1.552V24.5h-1.659v-1.193h-.068q-.165.33-.494.648-.33.318-.847.528t-1.238.21m.369-1.364q.705 0 1.205-.279.505-.278.767-.727.267-.454.267-.972v-1.125q-.091.091-.353.17-.255.075-.585.131-.33.052-.642.097l-.523.068q-.493.063-.903.21-.404.148-.648.427-.238.272-.238.727 0 .63.465.954.466.32 1.188.319m6.337 1.17V12.864h1.698v4.323h.103q.147-.272.426-.63a2.4 2.4 0 0 1 .773-.625q.494-.273 1.306-.273 1.057 0 1.887.534.83.535 1.301 1.54.477 1.005.477 2.42t-.471 2.427q-.472 1.005-1.296 1.55-.824.54-1.881.54-.795 0-1.301-.267a2.5 2.5 0 0 1-.784-.625 5 5 0 0 1-.437-.636h-.142V24.5zm1.664-4.364q0 .921.267 1.614t.773 1.085q.505.387 1.239.387.761 0 1.273-.404.51-.41.772-1.108.267-.699.267-1.574 0-.863-.261-1.55-.256-.689-.773-1.086-.512-.398-1.278-.398-.739 0-1.25.381-.506.38-.767 1.063-.262.681-.262 1.59m9.914-7.272V24.5h-1.699V12.864zm6.047 11.812q-1.29 0-2.222-.551a3.74 3.74 0 0 1-1.432-1.562q-.5-1.012-.5-2.37 0-1.341.5-2.364a3.9 3.9 0 0 1 1.409-1.596q.91-.574 2.125-.574.74 0 1.432.244.693.244 1.244.768.552.522.87 1.357.318.83.318 2.018v.602h-6.938v-1.273h5.273q0-.67-.273-1.187a2.05 2.05 0 0 0-.767-.824q-.488-.302-1.147-.302-.717 0-1.25.353a2.37 2.37 0 0 0-.819.909 2.6 2.6 0 0 0-.284 1.21v.994q0 .876.307 1.489.313.615.87.938.556.318 1.301.318.483 0 .88-.137.398-.142.688-.42.29-.279.443-.688l1.608.29q-.194.71-.693 1.244-.495.529-1.245.824-.744.29-1.698.29m13.539 0q-1.227 0-2.142-.562a3.8 3.8 0 0 1-1.42-1.574q-.506-1.011-.506-2.364 0-1.358.506-2.375a3.8 3.8 0 0 1 1.42-1.58q.915-.561 2.142-.562 1.228 0 2.142.563.915.562 1.421 1.58.506 1.016.506 2.374 0 1.353-.506 2.364a3.8 3.8 0 0 1-1.421 1.574q-.914.562-2.142.562m.006-1.426q.796 0 1.318-.42.523-.42.773-1.12.255-.699.256-1.54 0-.835-.256-1.534a2.5 2.5 0 0 0-.773-1.13q-.523-.426-1.318-.427-.801 0-1.329.427a2.54 2.54 0 0 0-.779 1.13q-.25.7-.25 1.535 0 .84.25 1.54.256.697.779 1.119.528.42 1.329.42m7.658-3.932V24.5h-1.699v-8.727h1.631v1.42h.108q.3-.693.943-1.114.648-.42 1.63-.42.893 0 1.563.375.67.37 1.04 1.102.369.733.369 1.813V24.5h-1.699v-5.347q0-.948-.494-1.482-.495-.54-1.358-.54-.59 0-1.051.255-.455.255-.722.75-.261.489-.261 1.182M63.876 43.5V31.136h2.988V36.1h4.872v-4.963h2.982V43.5h-2.982v-4.968h-4.872V43.5zm15.33.157q-.887 0-1.575-.296a2.45 2.45 0 0 1-1.08-.905q-.394-.61-.393-1.528 0-.773.271-1.304.272-.531.749-.863a3.5 3.5 0 0 1 1.099-.501 7 7 0 0 1 1.328-.235q.79-.074 1.274-.151.483-.085.7-.236a.51.51 0 0 0 .223-.44v-.03q0-.465-.32-.72-.319-.252-.863-.253-.585 0-.942.254a1.12 1.12 0 0 0-.453.7l-2.722-.096a3.2 3.2 0 0 1 .622-1.51q.506-.67 1.388-1.05.888-.387 2.131-.387.888 0 1.636.212.75.205 1.304.604.555.392.857.965.309.575.308 1.31V43.5h-2.777v-1.292H81.9q-.248.471-.634.797-.38.326-.9.489a3.8 3.8 0 0 1-1.159.163m.912-1.932q.477 0 .857-.193.387-.194.616-.531.23-.344.23-.797v-.882a2 2 0 0 1-.308.121 5 5 0 0 1-.387.103q-.21.048-.435.084-.222.036-.428.067a2.7 2.7 0 0 0-.713.205 1.1 1.1 0 0 0-.446.362.9.9 0 0 0-.151.52q0 .458.326.7.331.24.839.241m9.387-3.513V43.5h-2.952v-9.273h2.808v1.703h.102a2.6 2.6 0 0 1 1.05-1.334q.743-.49 1.77-.49.977 0 1.696.441.724.435 1.123 1.22.404.779.398 1.823v5.91h-2.952v-5.33q.006-.773-.392-1.208-.393-.435-1.093-.435-.465 0-.821.206a1.36 1.36 0 0 0-.544.573q-.186.375-.193.906m12.145 8.958q-1.322 0-2.264-.368-.94-.367-1.479-1.008a2.8 2.8 0 0 1-.646-1.449l2.795-.157q.079.284.29.495.217.212.562.326.35.115.821.115.742 0 1.225-.362.489-.356.489-1.25v-1.63h-.103a2.2 2.2 0 0 1-.531.767 2.5 2.5 0 0 1-.887.531q-.525.193-1.208.193a3.75 3.75 0 0 1-1.859-.47q-.84-.478-1.346-1.474-.501-1.002-.501-2.577 0-1.624.519-2.675.52-1.056 1.358-1.563a3.47 3.47 0 0 1 1.817-.508q.73 0 1.25.254.525.247.863.64.339.392.513.815h.085v-1.588h2.94v9.31q0 1.176-.592 1.985-.59.81-1.654 1.226-1.062.422-2.457.422m.091-5.946q.537 0 .917-.284.38-.283.586-.815.205-.53.205-1.273 0-.755-.205-1.298-.2-.55-.586-.846a1.45 1.45 0 0 0-.917-.295q-.55 0-.93.302-.38.3-.58.85-.193.544-.193 1.287t.2 1.273q.198.532.573.815.38.284.93.284m9.108 2.433q-.888 0-1.576-.296a2.45 2.45 0 0 1-1.08-.905q-.393-.61-.393-1.528 0-.773.272-1.304t.749-.863a3.5 3.5 0 0 1 1.098-.501 7 7 0 0 1 1.328-.235q.791-.074 1.274-.151.483-.085.7-.236a.51.51 0 0 0 .224-.44v-.03q0-.465-.32-.72-.32-.252-.863-.253-.587 0-.942.254a1.1 1.1 0 0 0-.453.7l-2.723-.096a3.2 3.2 0 0 1 .622-1.51q.507-.67 1.389-1.05.887-.387 2.131-.387.887 0 1.636.212.748.205 1.304.604.555.392.857.965.308.575.308 1.31V43.5h-2.777v-1.292h-.073q-.248.471-.633.797-.381.326-.9.489a3.8 3.8 0 0 1-1.159.163m.912-1.932q.476 0 .857-.193a1.6 1.6 0 0 0 .616-.531 1.4 1.4 0 0 0 .229-.797v-.882a2 2 0 0 1-.308.121q-.175.054-.386.103t-.435.084l-.429.067a2.7 2.7 0 0 0-.712.205 1.13 1.13 0 0 0-.447.362.9.9 0 0 0-.151.52q0 .458.326.7.332.24.84.241m6.435 1.775v-9.273h2.867v1.69h.097q.254-.917.827-1.364a2.1 2.1 0 0 1 1.334-.453q.206 0 .423.03.218.025.404.08v2.565a3 3 0 0 0-.555-.115 5 5 0 0 0-.604-.042q-.525 0-.948.235a1.7 1.7 0 0 0-.658.646 1.9 1.9 0 0 0-.235.966V43.5z"/></g><defs><filter id="b" width="54.368" height="51.429" x="6.286" y="2.286" color-interpolation-filters="sRGB" filterUnits="userSpaceOnUse"><feFlood flood-opacity="0" result="BackgroundImageFix"/><feColorMatrix in="SourceAlpha" result="hardAlpha" values="0 0 0 0 0 0 0 0 0 0 0 0 0 0 0 0 0 0 127 0"/><feOffset/><feGaussianBlur stdDeviation="2.857"/><feComposite in2="hardAlpha" operator="out"/><feColorMatrix values="0 0 0 0 0 0 0 0 0 0 0 0 0 0 0 0 0 0 0.25 0"/><feBlend in2="BackgroundImageFix" result="effect1_dropShadow_4_1042"/><feBlend in="SourceGraphic" in2="effect1_dropShadow_4_1042" result="shape"/></filter><filter id="c" width="103.2" height="48.87" x="57.34" y="3.9" color-interpolation-filters="sRGB" filterUnits="userSpaceOnUse"><feFlood flood-opacity="0" result="BackgroundImageFix"/><feColorMatrix in="SourceAlpha" result="hardAlpha" values="0 0 0 0 0 0 0 0 0 0 0 0 0 0 0 0 0 0 127 0"/><feOffset/><feGaussianBlur stdDeviation="2.8"/><feComposite in2="hardAlpha" operator="out"/><feColorMatrix values="0 0 0 0 0 0 0 0 0 0 0 0 0 0 0 0 0 0 0.25 0"/><feBlend in2="BackgroundImageFix" result="effect1_dropShadow_4_1042"/><feBlend in="SourceGraphic" in2="effect1_dropShadow_4_1042" result="shape"/></filter><linearGradient id="a" x1="83.47" x2="83.47" y1="0" y2="56" gradientUnits="userSpaceOnUse"><stop stop-color="#1c252c"/><stop offset="1" stop-color="#13191d"/></linearGradient></defs></svg>