<svg xmlns="http://www.w3.org/2000/svg" width="164" height="56" fill="none" viewBox="0 0 164 56"><rect width="164" height="56" fill="url(#a)" rx="8"/><rect width="161.9" height="53.9" x="1.05" y="1.05" stroke="#fff" stroke-opacity=".15" stroke-width="2.1" rx="6.95"/><g fill="#00d845" filter="url(#b)"><path d="M30.011 8.114c-6.901.685-12.893 4.825-15.996 11.056a20 20 0 0 0-1.961 6.721l-.054.517h1.783c.981 0 1.784-.027 1.793-.072.098-1.45.74-3.73 1.515-5.359 2.755-5.768 8.489-9.391 14.837-9.391 2.693 0 4.975.525 7.311 1.682 2.658 1.317 4.789 3.187 6.42 5.617.723 1.077 1.721 3.045 1.596 3.152-.044.044-.758.258-1.578.472l-1.498.4-.392-.765c-1.266-2.529-3.38-4.647-5.876-5.903-.9-.454-1.828-.8-1.97-.747-.063.017-.143.231-.17.471a45 45 0 0 1-.232 1.362c-.089.517-.187 1.086-.214 1.264l-.062.33.758.356c2.603 1.21 4.485 3.454 5.278 6.285.232.819.259 1.006.259 2.448s-.027 1.63-.259 2.448c-.472 1.674-1.31 3.152-2.46 4.309-.66.668-1.633 1.389-2.337 1.754-.24.115-.428.267-.428.329.01.151.856 3.267.919 3.32.08.08 1.587-.72 2.47-1.308 1.105-.739 2.639-2.27 3.379-3.374 1.034-1.549 1.676-3.036 2.077-4.816.17-.784.205-1.184.205-2.635 0-1.442.018-1.718.134-1.745 1.088-.312 2.97-.775 3.005-.748.062.071.16 1.558.16 2.466 0 1.229-.116 2.43-.312 3.294-.089.41-.16.757-.151.765.009.018.758.285 1.658.615 1.248.454 1.658.57 1.712.48.143-.24.526-2.59.624-3.845.205-2.804-.285-6.027-1.31-8.564-2.89-7.149-9.202-11.903-16.799-12.641-1.525-.152-2.327-.152-3.834 0"/><path d="M30.457 14.897c-.651.062-2.104.41-2.844.668-3.647 1.282-6.652 4.21-8.007 7.816-1.053 2.786-1.088 6.285-.09 9.018l.223.605-.82.472c-1.64.953-1.935 1.122-1.997 1.122-.08 0-.473-.988-.722-1.825-.286-.997-.589-2.44-.624-3.098-.01-.036-.812-.062-1.793-.062H12l.053.507c.473 4.602 2.595 8.947 5.974 12.232 7.927 7.691 20.58 7.504 28.31-.419 1.016-1.05 2.024-2.341 2.737-3.516.615-1.024 1.088-1.985 1.017-2.057-.036-.035-.464-.204-.954-.382s-1.15-.419-1.472-.526c-.32-.115-.642-.24-.713-.267-.098-.035-.223.116-.472.597-1.498 2.92-4.298 5.573-7.463 7.086-2.702 1.282-5.448 1.763-8.703 1.504-3.183-.249-6.732-1.816-9.308-4.103-.732-.65-1.793-1.79-2.194-2.36-.134-.195-.205-.142 1.864-1.344l.775-.454 1.097 1.095c1.962 1.967 4.066 3.125 6.759 3.73.793.17 1.177.205 2.639.205.936 0 1.73-.027 1.756-.053.036-.027-.107-.65-.303-1.38s-.401-1.487-.455-1.692l-.098-.365-1.257-.053c-2.371-.098-4.253-.846-6.018-2.395-.295-.258-.624-.579-.723-.703l-.178-.232 1.97-1.14 1.98-1.13 2.069 2.19 2.38-.49 2.381-.48 3.21-3.205-.285-1.05c-.179-.668-.321-1.042-.393-1.042-.071 0-.793.178-1.614.4l-1.498.41-.624.605c-.677.66-.58.633-2.05.766l-.535.053-.642-.632c-.357-.338-.651-.64-.651-.658 0-.027-.098-.4-.214-.846l-.214-.81.58-.775c.32-.436.597-.792.614-.81.01-.017.393-.133.857-.249l.829-.214 1.132-1.13c.633-.623 1.141-1.175 1.141-1.229 0-.053-.339-.427-.749-.837l-.749-.738-2.166.587-2.176.588-.446.463c-.24.258-.749.81-1.114 1.228-.366.41-.83.935-1.026 1.157-.758.855-.73.597-.258 2.217.223.792.401 1.46.383 1.469-.044.035-1.89 1.113-3.031 1.754-.428.24-.812.436-.865.436-.045 0-.178-.374-.294-.828-.188-.703-.214-1.024-.214-2.332.008-1.38.026-1.594.258-2.404.482-1.71 1.31-3.143 2.506-4.335 1.64-1.638 3.798-2.644 5.991-2.796.928-.07.856 0 1.008-.97.053-.347.134-.784.178-.98.045-.195.098-.516.125-.712.036-.195.08-.49.107-.65l.054-.284-.919.018c-.508 0-1.07.026-1.24.044"/></g><g filter="url(#c)"><path fill="#e8e8e8" d="M62.261 24.5h-1.863l4.187-11.636h2.029L70.8 24.5h-1.864l-3.29-9.523h-.09zm.313-4.557h6.045v1.477h-6.045zm16.143-4.17L75.552 24.5h-1.818l-3.17-8.727h1.824l2.21 6.716h.09l2.205-6.716zm3.887 8.92a3.6 3.6 0 0 1-1.5-.307 2.53 2.53 0 0 1-1.063-.903q-.386-.591-.386-1.449 0-.739.284-1.216.285-.477.767-.756a4 4 0 0 1 1.08-.42q.596-.142 1.215-.216l1.273-.148q.49-.061.71-.198.222-.137.222-.444v-.04q0-.744-.42-1.153-.415-.41-1.24-.409-.857 0-1.351.38-.49.376-.677.836l-1.596-.364q.284-.795.83-1.284.551-.495 1.266-.716.717-.227 1.506-.227.523 0 1.108.125.59.12 1.102.443.517.324.847.926.33.597.33 1.552V24.5h-1.66v-1.193h-.068q-.165.33-.494.648-.33.318-.847.528t-1.238.21m.369-1.364q.705 0 1.204-.278a1.95 1.95 0 0 0 .768-.727q.267-.454.267-.972v-1.125q-.091.091-.353.17-.255.075-.585.131-.33.052-.642.097l-.523.068q-.494.063-.903.21-.403.148-.648.427-.238.272-.238.727 0 .63.466.954.465.32 1.187.319m6.2 1.171v-8.727h1.7V24.5zm.858-10.074a1.08 1.08 0 0 1-.761-.295.96.96 0 0 1-.313-.716q0-.421.313-.716.318-.3.761-.301.444 0 .756.3a.94.94 0 0 1 .318.717.95.95 0 0 1-.318.716 1.06 1.06 0 0 1-.756.295m4.825-1.562V24.5h-1.698V12.864zm4.826 11.83a3.6 3.6 0 0 1-1.5-.308 2.53 2.53 0 0 1-1.063-.903q-.386-.591-.386-1.449 0-.739.284-1.216t.767-.756a4 4 0 0 1 1.08-.42q.596-.142 1.216-.216l1.272-.148q.49-.061.71-.198.222-.137.222-.444v-.04q0-.744-.42-1.153-.415-.41-1.239-.409-.858 0-1.352.38-.489.376-.676.836L97 17.886q.284-.795.83-1.284.551-.495 1.267-.716.716-.227 1.505-.227.523 0 1.108.125.592.12 1.102.443.517.324.847.926.33.597.33 1.552V24.5h-1.659v-1.193h-.069q-.165.33-.494.648-.33.318-.847.528t-1.238.21m.369-1.364q.704 0 1.205-.279.505-.278.767-.727.267-.454.267-.972v-1.125q-.091.091-.353.17-.255.075-.585.131-.329.052-.642.097l-.523.068a4.2 4.2 0 0 0-.903.21q-.403.148-.648.427-.238.272-.238.727 0 .63.466.954.465.32 1.187.319m6.337 1.17V12.864h1.699v4.323h.102q.147-.272.426-.63t.773-.625q.494-.273 1.307-.273 1.056 0 1.886.534.83.535 1.301 1.54.477 1.005.477 2.42t-.471 2.427q-.472 1.005-1.296 1.55-.824.54-1.88.54-.796 0-1.302-.267a2.5 2.5 0 0 1-.784-.625 5 5 0 0 1-.437-.636h-.142V24.5zm1.665-4.364q0 .921.267 1.614t.772 1.085q.506.387 1.239.387.761 0 1.273-.404.511-.41.772-1.108.267-.699.267-1.574 0-.863-.261-1.55-.255-.689-.773-1.086-.511-.398-1.278-.398-.739 0-1.25.381-.506.38-.767 1.063-.261.681-.261 1.59m9.913-7.272V24.5h-1.699V12.864zm6.047 11.812q-1.29 0-2.222-.551a3.74 3.74 0 0 1-1.432-1.562q-.5-1.012-.5-2.37 0-1.341.5-2.364a3.9 3.9 0 0 1 1.409-1.596q.91-.574 2.125-.574.74 0 1.432.244.693.244 1.245.768.55.522.869 1.357.318.83.318 2.018v.602h-6.937v-1.273h5.272q0-.67-.272-1.187a2.07 2.07 0 0 0-.767-.824q-.49-.302-1.148-.302-.716 0-1.25.353a2.36 2.36 0 0 0-.818.909q-.284.556-.284 1.21v.994q0 .876.306 1.489.313.615.87.938.557.318 1.301.318.483 0 .88-.137.399-.142.688-.42.29-.279.443-.688l1.608.29q-.194.71-.693 1.244-.494.529-1.244.824-.745.29-1.699.29m13.54 0q-1.228 0-2.143-.562a3.8 3.8 0 0 1-1.42-1.574q-.506-1.011-.506-2.364 0-1.358.506-2.375a3.8 3.8 0 0 1 1.42-1.58q.915-.561 2.143-.562 1.227 0 2.142.563a3.8 3.8 0 0 1 1.42 1.58q.506 1.016.506 2.374 0 1.353-.506 2.364a3.8 3.8 0 0 1-1.42 1.574q-.915.562-2.142.562m.005-1.426q.796 0 1.318-.42.523-.42.773-1.12.256-.699.256-1.54 0-.835-.256-1.534a2.5 2.5 0 0 0-.773-1.13q-.523-.426-1.318-.427-.801 0-1.329.427a2.54 2.54 0 0 0-.779 1.13q-.25.7-.25 1.535 0 .84.25 1.54.256.697.779 1.119.528.42 1.329.42m7.658-3.932V24.5h-1.699v-8.727h1.631v1.42h.108q.3-.693.943-1.114.648-.42 1.63-.42.893 0 1.563.375.67.37 1.04 1.102.369.733.369 1.813V24.5h-1.699v-5.347q0-.948-.494-1.482-.495-.54-1.358-.54-.59 0-1.051.255-.455.255-.722.75-.261.489-.261 1.182"/><path fill="#00d845" d="M60.936 31.136h3.7l3.14 7.655h.144l3.14-7.655h3.7V43.5h-2.91v-7.594h-.102l-2.97 7.516h-1.86l-2.97-7.559h-.102V43.5h-2.91zm20.017 12.54q-1.46 0-2.512-.599A4.1 4.1 0 0 1 76.83 41.4q-.561-1.08-.561-2.505 0-1.432.561-2.505.568-1.08 1.612-1.679 1.05-.603 2.512-.604 1.461 0 2.505.604 1.05.598 1.612 1.678.567 1.075.567 2.506 0 1.425-.567 2.505a4.07 4.07 0 0 1-1.612 1.678q-1.044.598-2.505.598m.018-2.229q.531 0 .9-.326.368-.326.56-.905.2-.58.2-1.34 0-.773-.2-1.353-.192-.58-.56-.905a1.3 1.3 0 0 0-.9-.326 1.38 1.38 0 0 0-.93.326q-.374.327-.573.905-.194.58-.194 1.353 0 .76.194 1.34.198.58.573.905.381.327.93.326m9.565 2.186a3.4 3.4 0 0 1-1.865-.531q-.84-.532-1.34-1.594t-.501-2.638q0-1.636.519-2.693.52-1.056 1.358-1.563a3.47 3.47 0 0 1 1.817-.508q.73 0 1.25.254.52.247.857.64.338.392.513.815h.06v-4.679h2.953V43.5h-2.922v-1.503h-.09a2.9 2.9 0 0 1-.532.803q-.344.374-.863.603-.513.23-1.214.23m1.026-2.3q.538 0 .918-.302.38-.308.586-.863t.205-1.304q0-.762-.205-1.31-.2-.55-.586-.846a1.45 1.45 0 0 0-.918-.295q-.549 0-.93.302-.38.3-.579.85-.193.55-.193 1.299t.2 1.304q.198.555.573.863.38.302.93.302m6.462 2.167v-9.273h2.867v1.69h.097q.253-.917.827-1.364a2.1 2.1 0 0 1 1.334-.453q.206 0 .423.03.216.025.404.08v2.565a3 3 0 0 0-.555-.115 5 5 0 0 0-.604-.042q-.525 0-.948.235a1.7 1.7 0 0 0-.658.646 1.9 1.9 0 0 0-.235.966V43.5zm7.155 0v-9.273h2.952V43.5zm1.479-10.353q-.622 0-1.069-.41a1.32 1.32 0 0 1-.446-1.003q0-.579.446-.99a1.5 1.5 0 0 1 1.069-.417q.628 0 1.068.417.447.411.447.99 0 .585-.447 1.002a1.5 1.5 0 0 1-1.068.41m6.304 5.065V43.5h-2.952v-9.273h2.807v1.703h.103a2.6 2.6 0 0 1 1.05-1.334q.743-.49 1.769-.49.978 0 1.696.441.725.435 1.123 1.22.405.779.399 1.823v5.91h-2.952v-5.33q.006-.773-.393-1.208-.392-.435-1.093-.435-.464 0-.821.206a1.36 1.36 0 0 0-.543.573q-.187.375-.193.906m13.056-3.985v2.174h-5.849v-2.174zm-4.624-2.221h2.952v8.578q0 .272.085.44.09.165.259.236.17.067.405.067.168 0 .356-.03.193-.038.29-.06l.446 2.13q-.212.06-.597.151-.381.09-.912.115-1.038.048-1.781-.242a2.3 2.3 0 0 1-1.129-.917q-.386-.622-.374-1.564zm9.282 6.206V43.5h-2.952V31.136h2.855v4.794h.103a2.7 2.7 0 0 1 1.026-1.34q.719-.484 1.757-.484.978 0 1.702.435.725.428 1.123 1.214.405.785.399 1.835v5.91h-2.952v-5.33q.006-.773-.387-1.208-.392-.435-1.105-.435-.464 0-.821.206a1.4 1.4 0 0 0-.549.573q-.193.375-.199.906"/></g><defs><filter id="b" width="51.429" height="51.429" x="6.286" y="2.286" color-interpolation-filters="sRGB" filterUnits="userSpaceOnUse"><feFlood flood-opacity="0" result="BackgroundImageFix"/><feColorMatrix in="SourceAlpha" result="hardAlpha" values="0 0 0 0 0 0 0 0 0 0 0 0 0 0 0 0 0 0 127 0"/><feOffset/><feGaussianBlur stdDeviation="2.857"/><feComposite in2="hardAlpha" operator="out"/><feColorMatrix values="0 0 0 0 0 0 0 0 0 0 0 0 0 0 0 0 0 0 0.25 0"/><feBlend in2="BackgroundImageFix" result="effect1_dropShadow_28_626"/><feBlend in="SourceGraphic" in2="effect1_dropShadow_28_626" result="shape"/></filter><filter id="c" width="103.2" height="48.2" x="54.4" y="3.9" color-interpolation-filters="sRGB" filterUnits="userSpaceOnUse"><feFlood flood-opacity="0" result="BackgroundImageFix"/><feColorMatrix in="SourceAlpha" result="hardAlpha" values="0 0 0 0 0 0 0 0 0 0 0 0 0 0 0 0 0 0 127 0"/><feOffset/><feGaussianBlur stdDeviation="2.8"/><feComposite in2="hardAlpha" operator="out"/><feColorMatrix values="0 0 0 0 0 0 0 0 0 0 0 0 0 0 0 0 0 0 0.25 0"/><feBlend in2="BackgroundImageFix" result="effect1_dropShadow_28_626"/><feBlend in="SourceGraphic" in2="effect1_dropShadow_28_626" result="shape"/></filter><linearGradient id="a" x1="82" x2="82" y1="0" y2="56" gradientUnits="userSpaceOnUse"><stop stop-color="#072c13"/><stop offset="1" stop-color="#041c0b"/></linearGradient></defs></svg>