<svg xmlns="http://www.w3.org/2000/svg" width="171" height="56" fill="none" viewBox="0 0 171 56"><g clip-path="url(#a)"><rect width="171" height="56" fill="url(#b)" rx="8"/><g filter="url(#c)"><path fill="url(#d)" stroke="#544125" stroke-width="1.357" d="m30.3 7.354 5 1.587.412.13.055.428 1.667 12.696.013.094-.015.094-.833 5.555-.113.754-.736-.2-5.833-1.588-.617-.168.131-.626.81-3.854-.581-4.423-3.164 4.821-.201.307h-2.4l-.2-.307-3.165-4.82-.58 4.422.81 3.854.13.627-.617.167-5.833 1.587-.736.2-.113-.753-.833-5.555-.015-.094.013-.095L14.423 9.5l.055-.429.412-.13 5-1.586.382-.122.291.277 4.532 4.314 4.532-4.314.29-.277z"/><circle cx="30.214" cy="13.357" r="1.786" fill="#000"/><circle cx="20.214" cy="13.357" r="1.786" fill="#000"/><path fill="url(#e)" stroke="#959595" stroke-width="1.357" d="m34.05 48.647-4.896-1.554-.41-.13-.056-.428-1.632-12.428-.013-.095.015-.095.815-5.437.113-.755.736.2 5.71 1.554.619.168-.132.627-.792 3.773.564 4.286 3.076-4.687.2-.307h2.365l.201.307 3.078 4.687.562-4.288-.792-3.771-.132-.627.617-.168 5.711-1.554.737-.2.113.755.815 5.437.015.095-.013.095-1.632 12.428-.055.428-.412.13-4.895 1.554-.383.122-.29-.278-4.426-4.213-4.428 4.213-.291.278z"/></g><g filter="url(#f)"><path fill="#e8e8e8" d="M62.261 24.5h-1.863l4.187-11.636h2.029L70.8 24.5h-1.864l-3.29-9.523h-.09zm.313-4.557h6.045v1.477h-6.045zm16.143-4.17L75.552 24.5h-1.818l-3.17-8.727h1.824l2.21 6.716h.09l2.205-6.716zm3.887 8.92a3.6 3.6 0 0 1-1.5-.307 2.53 2.53 0 0 1-1.063-.903q-.386-.591-.386-1.449 0-.739.284-1.216.285-.477.767-.756a4 4 0 0 1 1.08-.42q.596-.142 1.215-.216l1.273-.148q.49-.061.71-.198.222-.137.222-.444v-.04q0-.744-.42-1.153-.415-.41-1.24-.409-.857 0-1.351.38-.49.376-.677.836l-1.596-.364q.284-.795.83-1.284.551-.495 1.266-.716.717-.227 1.506-.227.523 0 1.108.125.59.12 1.102.443.517.324.847.926.33.597.33 1.552V24.5h-1.66v-1.193h-.068q-.165.33-.494.648-.33.318-.847.528t-1.238.21m.369-1.364q.705 0 1.204-.278a1.95 1.95 0 0 0 .768-.727q.267-.454.267-.972v-1.125q-.091.091-.353.17-.255.075-.585.131-.33.052-.642.097l-.523.068q-.494.063-.903.21-.403.148-.648.427-.238.272-.238.727 0 .63.466.954.465.32 1.187.319m6.2 1.171v-8.727h1.7V24.5zm.858-10.074a1.08 1.08 0 0 1-.761-.295.96.96 0 0 1-.313-.716q0-.421.313-.716.318-.3.761-.301.444 0 .756.3a.94.94 0 0 1 .318.717.95.95 0 0 1-.318.716 1.06 1.06 0 0 1-.756.295m4.825-1.562V24.5h-1.698V12.864zm4.826 11.83a3.6 3.6 0 0 1-1.5-.308 2.53 2.53 0 0 1-1.063-.903q-.386-.591-.386-1.449 0-.739.284-1.216t.767-.756a4 4 0 0 1 1.08-.42q.596-.142 1.216-.216l1.272-.148q.49-.061.71-.198.222-.137.222-.444v-.04q0-.744-.42-1.153-.415-.41-1.239-.409-.858 0-1.352.38-.489.376-.676.836L97 17.886q.284-.795.83-1.284.551-.495 1.267-.716.716-.227 1.505-.227.523 0 1.108.125.592.12 1.102.443.517.324.847.926.33.597.33 1.552V24.5h-1.659v-1.193h-.069q-.165.33-.494.648-.33.318-.847.528t-1.238.21m.369-1.364q.704 0 1.205-.279.505-.278.767-.727.267-.454.267-.972v-1.125q-.091.091-.353.17-.255.075-.585.131-.329.052-.642.097l-.523.068a4.2 4.2 0 0 0-.903.21q-.403.148-.648.427-.238.272-.238.727 0 .63.466.954.465.32 1.187.319m6.337 1.17V12.864h1.699v4.323h.102q.147-.272.426-.63t.773-.625q.494-.273 1.307-.273 1.056 0 1.886.534.83.535 1.301 1.54.477 1.005.477 2.42t-.471 2.427q-.472 1.005-1.296 1.55-.824.54-1.88.54-.796 0-1.302-.267a2.5 2.5 0 0 1-.784-.625 5 5 0 0 1-.437-.636h-.142V24.5zm1.665-4.364q0 .921.267 1.614t.772 1.085q.506.387 1.239.387.761 0 1.273-.404.511-.41.772-1.108.267-.699.267-1.574 0-.863-.261-1.55-.255-.689-.773-1.086-.511-.398-1.278-.398-.739 0-1.25.381-.506.38-.767 1.063-.261.681-.261 1.59m9.913-7.272V24.5h-1.699V12.864zm6.047 11.812q-1.29 0-2.222-.551a3.74 3.74 0 0 1-1.432-1.562q-.5-1.012-.5-2.37 0-1.341.5-2.364a3.9 3.9 0 0 1 1.409-1.596q.91-.574 2.125-.574.74 0 1.432.244.693.244 1.245.768.55.522.869 1.357.318.83.318 2.018v.602h-6.937v-1.273h5.272q0-.67-.272-1.187a2.07 2.07 0 0 0-.767-.824q-.49-.302-1.148-.302-.716 0-1.25.353a2.36 2.36 0 0 0-.818.909q-.284.556-.284 1.21v.994q0 .876.306 1.489.313.615.87.938.557.318 1.301.318.483 0 .88-.137.399-.142.688-.42.29-.279.443-.688l1.608.29q-.194.71-.693 1.244-.494.529-1.244.824-.745.29-1.699.29m13.54 0q-1.228 0-2.143-.562a3.8 3.8 0 0 1-1.42-1.574q-.506-1.011-.506-2.364 0-1.358.506-2.375a3.8 3.8 0 0 1 1.42-1.58q.915-.561 2.143-.562 1.227 0 2.142.563a3.8 3.8 0 0 1 1.42 1.58q.506 1.016.506 2.374 0 1.353-.506 2.364a3.8 3.8 0 0 1-1.42 1.574q-.915.562-2.142.562m.005-1.426q.796 0 1.318-.42.523-.42.773-1.12.256-.699.256-1.54 0-.835-.256-1.534a2.5 2.5 0 0 0-.773-1.13q-.523-.426-1.318-.427-.801 0-1.329.427a2.54 2.54 0 0 0-.779 1.13q-.25.7-.25 1.535 0 .84.25 1.54.256.697.779 1.119.528.42 1.329.42m7.658-3.932V24.5h-1.699v-8.727h1.631v1.42h.108q.3-.693.943-1.114.648-.42 1.63-.42.893 0 1.563.375.67.37 1.04 1.102.369.733.369 1.813V24.5h-1.699v-5.347q0-.948-.494-1.482-.495-.54-1.358-.54-.59 0-1.051.255-.455.255-.722.75-.261.489-.261 1.182"/><path fill="url(#g)" d="M60.936 31.136h3.7l3.14 7.655h.144l3.14-7.655h3.7V43.5h-2.91v-7.594h-.102l-2.97 7.516h-1.86l-2.97-7.559h-.102V43.5h-2.91zm20.017 12.54q-1.46 0-2.512-.599A4.1 4.1 0 0 1 76.83 41.4q-.561-1.08-.561-2.505 0-1.432.561-2.505.568-1.08 1.612-1.679 1.05-.603 2.512-.604 1.461 0 2.505.604 1.05.598 1.612 1.678.567 1.075.567 2.506 0 1.425-.567 2.505a4.07 4.07 0 0 1-1.612 1.678q-1.044.598-2.505.598m.018-2.229q.531 0 .9-.326.368-.326.56-.905.2-.58.2-1.34 0-.773-.2-1.353-.192-.58-.56-.905a1.3 1.3 0 0 0-.9-.326 1.38 1.38 0 0 0-.93.326q-.374.327-.573.905-.194.58-.194 1.353 0 .76.194 1.34.198.58.573.905.381.327.93.326m9.565 2.186a3.4 3.4 0 0 1-1.865-.531q-.84-.532-1.34-1.594t-.501-2.638q0-1.636.519-2.693.52-1.056 1.358-1.563a3.47 3.47 0 0 1 1.817-.508q.73 0 1.25.254.52.247.857.64.338.392.513.815h.06v-4.679h2.953V43.5h-2.922v-1.503h-.09a2.9 2.9 0 0 1-.532.803q-.344.374-.863.603-.513.23-1.214.23m1.026-2.3q.538 0 .918-.302.38-.308.586-.863t.205-1.304q0-.762-.205-1.31-.2-.55-.586-.846a1.45 1.45 0 0 0-.918-.295q-.549 0-.93.302-.38.3-.579.85-.193.55-.193 1.299t.2 1.304q.198.555.573.863.38.302.93.302m8.194 2.167-2.415-9.273h2.965l1.249 5.94h.079l1.34-5.94h2.892l1.376 5.898h.078l1.214-5.898h2.964l-2.421 9.273h-3.157l-1.449-5.403h-.103l-1.45 5.403zm17.062.175q-1.455 0-2.511-.573a3.96 3.96 0 0 1-1.618-1.648q-.562-1.075-.562-2.554 0-1.437.568-2.511.567-1.08 1.6-1.679 1.032-.603 2.432-.604.99 0 1.812.308a3.9 3.9 0 0 1 1.418.912q.599.604.93 1.491.332.882.332 2.023v.736h-8.059v-1.715h5.312a1.66 1.66 0 0 0-.223-.839 1.5 1.5 0 0 0-.598-.573 1.7 1.7 0 0 0-.863-.211q-.495 0-.888.223a1.68 1.68 0 0 0-.863 1.449v1.745q0 .567.224.996.223.421.633.658.411.235.978.235.392 0 .713-.109.32-.108.549-.32.23-.21.344-.519l2.711.079a3.35 3.35 0 0 1-.743 1.587q-.567.67-1.491 1.045-.924.368-2.137.368m8.523-.018q-.888 0-1.576-.296a2.46 2.46 0 0 1-1.081-.905q-.392-.61-.392-1.528 0-.773.272-1.304.271-.531.748-.863a3.5 3.5 0 0 1 1.099-.501 7 7 0 0 1 1.328-.235q.79-.074 1.274-.151.483-.085.7-.236a.51.51 0 0 0 .224-.44v-.03q0-.465-.32-.72-.32-.252-.864-.253-.585 0-.941.254a1.1 1.1 0 0 0-.453.7l-2.723-.096a3.2 3.2 0 0 1 .622-1.51q.507-.67 1.388-1.05.888-.387 2.131-.387.888 0 1.636.212.75.205 1.304.604.556.392.858.965.308.575.308 1.31V43.5h-2.777v-1.292h-.073q-.247.471-.634.797-.38.326-.899.489a3.8 3.8 0 0 1-1.159.163m.911-1.932q.477 0 .858-.193.385-.194.615-.531.23-.344.23-.797v-.882a2 2 0 0 1-.308.121q-.175.054-.387.103a7 7 0 0 1-.434.084l-.429.067a2.7 2.7 0 0 0-.712.205 1.13 1.13 0 0 0-.447.362.9.9 0 0 0-.151.52q0 .458.326.7.332.24.839.241m15.099-7.498-3.182 9.273h-3.381l-3.175-9.273h3.109l1.709 6.387h.096l1.715-6.387zm5.167 9.448q-1.455 0-2.511-.573a3.97 3.97 0 0 1-1.618-1.648q-.561-1.075-.561-2.554 0-1.437.567-2.511.567-1.08 1.6-1.679 1.032-.603 2.433-.604.99 0 1.811.308a3.9 3.9 0 0 1 1.418.912q.599.604.93 1.491.332.882.332 2.023v.736h-8.059v-1.715h5.312a1.66 1.66 0 0 0-.223-.839 1.5 1.5 0 0 0-.598-.573 1.7 1.7 0 0 0-.863-.211q-.495 0-.887.223a1.68 1.68 0 0 0-.864 1.449v1.745q0 .567.224.996.223.421.634.658.41.235.978.235.392 0 .712-.109.32-.108.549-.32.23-.21.344-.519l2.711.079a3.35 3.35 0 0 1-.743 1.587q-.567.67-1.491 1.045-.923.368-2.137.368m5.909-.175v-9.273h2.867v1.69h.097q.254-.917.827-1.364a2.1 2.1 0 0 1 1.334-.453q.206 0 .423.03.218.025.404.08v2.565a3 3 0 0 0-.555-.115 5 5 0 0 0-.604-.042q-.525 0-.948.235a1.7 1.7 0 0 0-.658.646 1.9 1.9 0 0 0-.235.966V43.5z"/></g></g><rect width="168.9" height="53.9" x="1.05" y="1.05" stroke="#fff" stroke-opacity=".15" stroke-width="2.1" rx="6.95"/><defs><linearGradient id="b" x1="85.5" x2="85.5" y1="0" y2="56" gradientUnits="userSpaceOnUse"><stop stop-color="#2c2a07"/><stop offset="1" stop-color="#1c1604"/></linearGradient><linearGradient id="d" x1="25.095" x2="25.095" y1="8" y2="27.837" gradientUnits="userSpaceOnUse"><stop stop-color="#fff500"/><stop offset="1" stop-color="#d7a700"/></linearGradient><linearGradient id="e" x1="39.15" x2="39.15" y1="48" y2="28.58" gradientUnits="userSpaceOnUse"><stop stop-color="#111000"/><stop offset="1" stop-color="#161100"/></linearGradient><linearGradient id="g" x1="109.5" x2="109.5" y1="31.269" y2="43.731" gradientUnits="userSpaceOnUse"><stop stop-color="#fff400"/><stop offset="1" stop-color="#d6a700"/></linearGradient><filter id="c" width="51.429" height="54.501" x="6.286" y=".749" color-interpolation-filters="sRGB" filterUnits="userSpaceOnUse"><feFlood flood-opacity="0" result="BackgroundImageFix"/><feColorMatrix in="SourceAlpha" result="hardAlpha" values="0 0 0 0 0 0 0 0 0 0 0 0 0 0 0 0 0 0 127 0"/><feOffset/><feGaussianBlur stdDeviation="2.857"/><feComposite in2="hardAlpha" operator="out"/><feColorMatrix values="0 0 0 0 0 0 0 0 0 0 0 0 0 0 0 0 0 0 0.25 0"/><feBlend in2="BackgroundImageFix" result="effect1_dropShadow_3_975"/><feBlend in="SourceGraphic" in2="effect1_dropShadow_3_975" result="shape"/></filter><filter id="f" width="110.2" height="48.2" x="54.4" y="3.9" color-interpolation-filters="sRGB" filterUnits="userSpaceOnUse"><feFlood flood-opacity="0" result="BackgroundImageFix"/><feColorMatrix in="SourceAlpha" result="hardAlpha" values="0 0 0 0 0 0 0 0 0 0 0 0 0 0 0 0 0 0 127 0"/><feOffset/><feGaussianBlur stdDeviation="2.8"/><feComposite in2="hardAlpha" operator="out"/><feColorMatrix values="0 0 0 0 0 0 0 0 0 0 0 0 0 0 0 0 0 0 0.25 0"/><feBlend in2="BackgroundImageFix" result="effect1_dropShadow_3_975"/><feBlend in="SourceGraphic" in2="effect1_dropShadow_3_975" result="shape"/></filter><clipPath id="a"><rect width="171" height="56" fill="#fff" rx="8"/></clipPath></defs></svg>