<svg xmlns="http://www.w3.org/2000/svg" width="166" height="56" fill="none" viewBox="0 0 166 56"><rect width="166" height="56" fill="url(#a)" rx="8"/><rect width="163.9" height="53.9" x="1.05" y="1.05" stroke="#fff" stroke-opacity=".15" stroke-width="2.1" rx="6.95"/><g filter="url(#b)"><path fill="url(#c)" d="M12 28c0 11.046 8.954 20 20 20s20-8.954 20-20S43.046 8 32 8s-20 8.954-20 20"/><path fill="#fff" d="M27.29 25.453c-.898-1.212-2.668-2.008-4.317-2.008-2.725 0-5.259 1.634-5.259 6.118v7.518c0 .509.424.92.946.92a.934.934 0 0 0 .945-.92v-7.518c0-3.408 1.684-4.275 3.368-4.275s3.368 1.366 3.368 3.672v8.12c0 .51.424.92.946.92h.008c.522 0 .945-.41.945-.92v-8.12c0-2.306 1.684-3.672 3.368-3.672 1.07 0 3.368.463 3.368 3.672l.064 2.728c0 5.039 3.465 6.312 5.67 6.312s5.508-1.486 5.576-5.945V24.92c0-1.227-1.897-1.227-1.897 0v7.135c0 3.382-2.576 4.103-3.679 4.103s-3.78-.507-3.78-4.47l-.063-2.578c0-3.822-2.457-5.818-5.259-5.818-1.649 0-3.42.949-4.318 2.16m9.433-4.62c0-1.846 1.392-3.844 3.799-3.844s3.794 1.999 3.794 3.843a.951.951 0 0 0 1.895 0c0-3.228-2.494-5.688-5.69-5.688-3.194 0-5.687 2.46-5.687 5.688a.949.949 0 0 0 1.889 0"/><path fill="#fff" d="M41.952 20.883c0-.673-.558-1.218-1.248-1.218-.689 0-1.247.545-1.247 1.218s.558 1.218 1.247 1.218 1.248-.545 1.248-1.218"/></g><g filter="url(#d)"><path fill="#e8e8e8" d="M62.261 24.5h-1.863l4.187-11.636h2.029L70.8 24.5h-1.864l-3.29-9.523h-.09zm.313-4.557h6.045v1.477h-6.045zm16.143-4.17L75.552 24.5h-1.818l-3.17-8.727h1.824l2.21 6.716h.09l2.205-6.716zm3.887 8.92a3.6 3.6 0 0 1-1.5-.307 2.53 2.53 0 0 1-1.063-.903q-.386-.591-.386-1.449 0-.739.284-1.216.285-.477.767-.756a4 4 0 0 1 1.08-.42q.596-.142 1.215-.216l1.273-.148q.49-.061.71-.198.222-.137.222-.444v-.04q0-.744-.42-1.153-.415-.41-1.24-.409-.857 0-1.351.38-.49.376-.677.836l-1.596-.364q.284-.795.83-1.284.551-.495 1.266-.716.717-.227 1.506-.227.523 0 1.108.125.59.12 1.102.443.517.324.847.926.33.597.33 1.552V24.5h-1.66v-1.193h-.068q-.165.33-.494.648-.33.318-.847.528t-1.238.21m.369-1.364q.705 0 1.204-.278a1.95 1.95 0 0 0 .768-.727q.267-.454.267-.972v-1.125q-.091.091-.353.17-.255.075-.585.131-.33.052-.642.097l-.523.068q-.494.063-.903.21-.403.148-.648.427-.238.272-.238.727 0 .63.466.954.465.32 1.187.319m6.2 1.171v-8.727h1.7V24.5zm.858-10.074a1.08 1.08 0 0 1-.761-.295.96.96 0 0 1-.313-.716q0-.421.313-.716.318-.3.761-.301.444 0 .756.3a.94.94 0 0 1 .318.717.95.95 0 0 1-.318.716 1.06 1.06 0 0 1-.756.295m4.825-1.562V24.5h-1.698V12.864zm4.826 11.83a3.6 3.6 0 0 1-1.5-.308 2.53 2.53 0 0 1-1.063-.903q-.386-.591-.386-1.449 0-.739.284-1.216t.767-.756a4 4 0 0 1 1.08-.42q.596-.142 1.216-.216l1.272-.148q.49-.061.71-.198.222-.137.222-.444v-.04q0-.744-.42-1.153-.415-.41-1.239-.409-.858 0-1.352.38-.489.376-.676.836L97 17.886q.284-.795.83-1.284.551-.495 1.267-.716.716-.227 1.505-.227.523 0 1.108.125.592.12 1.102.443.517.324.847.926.33.597.33 1.552V24.5h-1.659v-1.193h-.069q-.165.33-.494.648-.33.318-.847.528t-1.238.21m.369-1.364q.704 0 1.205-.279.505-.278.767-.727.267-.454.267-.972v-1.125q-.091.091-.353.17-.255.075-.585.131-.329.052-.642.097l-.523.068a4.2 4.2 0 0 0-.903.21q-.403.148-.648.427-.238.272-.238.727 0 .63.466.954.465.32 1.187.319m6.337 1.17V12.864h1.699v4.323h.102q.147-.272.426-.63t.773-.625q.494-.273 1.307-.273 1.056 0 1.886.534.83.535 1.301 1.54.477 1.005.477 2.42t-.471 2.427q-.472 1.005-1.296 1.55-.824.54-1.88.54-.796 0-1.302-.267a2.5 2.5 0 0 1-.784-.625 5 5 0 0 1-.437-.636h-.142V24.5zm1.665-4.364q0 .921.267 1.614t.772 1.085q.506.387 1.239.387.761 0 1.273-.404.511-.41.772-1.108.267-.699.267-1.574 0-.863-.261-1.55-.255-.689-.773-1.086-.511-.398-1.278-.398-.739 0-1.25.381-.506.38-.767 1.063-.261.681-.261 1.59m9.913-7.272V24.5h-1.699V12.864zm6.047 11.812q-1.29 0-2.222-.551a3.74 3.74 0 0 1-1.432-1.562q-.5-1.012-.5-2.37 0-1.341.5-2.364a3.9 3.9 0 0 1 1.409-1.596q.91-.574 2.125-.574.74 0 1.432.244.693.244 1.245.768.55.522.869 1.357.318.83.318 2.018v.602h-6.937v-1.273h5.272q0-.67-.272-1.187a2.07 2.07 0 0 0-.767-.824q-.49-.302-1.148-.302-.716 0-1.25.353a2.36 2.36 0 0 0-.818.909q-.284.556-.284 1.21v.994q0 .876.306 1.489.313.615.87.938.557.318 1.301.318.483 0 .88-.137.399-.142.688-.42.29-.279.443-.688l1.608.29q-.194.71-.693 1.244-.494.529-1.244.824-.745.29-1.699.29m13.54 0q-1.228 0-2.143-.562a3.8 3.8 0 0 1-1.42-1.574q-.506-1.011-.506-2.364 0-1.358.506-2.375a3.8 3.8 0 0 1 1.42-1.58q.915-.561 2.143-.562 1.227 0 2.142.563a3.8 3.8 0 0 1 1.42 1.58q.506 1.016.506 2.374 0 1.353-.506 2.364a3.8 3.8 0 0 1-1.42 1.574q-.915.562-2.142.562m.005-1.426q.796 0 1.318-.42.523-.42.773-1.12.256-.699.256-1.54 0-.835-.256-1.534a2.5 2.5 0 0 0-.773-1.13q-.523-.426-1.318-.427-.801 0-1.329.427a2.54 2.54 0 0 0-.779 1.13q-.25.7-.25 1.535 0 .84.25 1.54.256.697.779 1.119.528.42 1.329.42m7.658-3.932V24.5h-1.699v-8.727h1.631v1.42h.108q.3-.693.943-1.114.648-.42 1.63-.42.893 0 1.563.375.67.37 1.04 1.102.369.733.369 1.813V24.5h-1.699v-5.347q0-.948-.494-1.482-.495-.54-1.358-.54-.59 0-1.051.255-.455.255-.722.75-.261.489-.261 1.182"/><path fill="#663ded" d="M60.936 31.136h3.7l3.14 7.655h.144l3.14-7.655h3.7V43.5h-2.91v-7.594h-.102l-2.97 7.516h-1.86l-2.97-7.559h-.102V43.5h-2.91zm21.67 8.362v-5.27h2.947V43.5H82.74v-1.727h-.097a2.7 2.7 0 0 1-1.05 1.353q-.737.495-1.781.495-.948 0-1.666-.435a2.96 2.96 0 0 1-1.117-1.213q-.398-.785-.405-1.836v-5.91h2.952v5.33q.006.755.399 1.19.391.435 1.068.435.441 0 .791-.193.356-.2.561-.574.212-.38.212-.917m12.921-2.44-2.71.073a1 1 0 0 0-.23-.513 1.2 1.2 0 0 0-.489-.356 1.7 1.7 0 0 0-.688-.133q-.513 0-.875.205-.356.205-.35.556a.6.6 0 0 0 .217.47q.229.2.815.32l1.787.339q1.388.265 2.064.88.683.617.689 1.63-.007.955-.568 1.661-.555.706-1.521 1.099-.966.386-2.21.386-1.986 0-3.133-.815-1.14-.821-1.304-2.197l2.916-.073q.096.507.501.773t1.032.266q.568 0 .924-.212.357-.21.362-.561a.6.6 0 0 0-.277-.501q-.272-.194-.852-.302l-1.617-.308q-1.395-.253-2.077-.936-.682-.688-.676-1.75-.007-.93.495-1.588.501-.664 1.425-1.014.923-.35 2.179-.35 1.884 0 2.97.79 1.087.785 1.201 2.162m6.018 6.617q-1.455 0-2.512-.573a3.97 3.97 0 0 1-1.618-1.648q-.561-1.075-.561-2.554 0-1.437.567-2.511.568-1.08 1.6-1.679 1.032-.603 2.433-.604.99 0 1.811.308.82.309 1.419.912.597.604.93 1.491.332.882.332 2.023v.736h-8.06v-1.715h5.313a1.66 1.66 0 0 0-.224-.839 1.5 1.5 0 0 0-.597-.573 1.73 1.73 0 0 0-.864-.211q-.495 0-.887.223a1.64 1.64 0 0 0-.622.598q-.23.375-.241.85v1.745q0 .567.223.997.223.421.634.658.411.235.978.235.393 0 .712-.109a1.5 1.5 0 0 0 .55-.32q.229-.21.344-.519l2.71.079a3.35 3.35 0 0 1-.742 1.587q-.569.67-1.491 1.045-.924.368-2.137.368m14.004-6.616-2.711.072a1 1 0 0 0-.229-.513 1.24 1.24 0 0 0-.489-.356 1.7 1.7 0 0 0-.688-.133q-.513 0-.876.205-.356.205-.35.556a.6.6 0 0 0 .217.47q.23.2.815.32l1.787.339q1.389.265 2.065.88.682.617.688 1.63-.006.955-.567 1.661-.556.706-1.522 1.099-.966.386-2.209.386-1.986 0-3.133-.815-1.142-.821-1.304-2.197l2.916-.073q.096.507.501.773.404.266 1.032.266.567 0 .924-.212.356-.21.362-.561a.6.6 0 0 0-.278-.501q-.272-.194-.851-.302l-1.618-.308q-1.395-.253-2.077-.936-.682-.688-.676-1.75-.006-.93.495-1.588.501-.664 1.425-1.014t2.179-.35q1.884 0 2.97.79 1.087.785 1.202 2.162m6.011 6.616q-1.467 0-2.517-.604a4.1 4.1 0 0 1-1.606-1.678q-.561-1.08-.562-2.5 0-1.424.562-2.498a4.1 4.1 0 0 1 1.612-1.685q1.05-.603 2.505-.604 1.286 0 2.24.465a3.56 3.56 0 0 1 1.497 1.316q.543.846.573 1.987h-2.758q-.085-.713-.483-1.117-.393-.405-1.027-.405-.513 0-.899.29-.387.284-.604.845-.211.556-.211 1.377 0 .82.211 1.388.217.561.604.851.386.285.899.284.41 0 .725-.175.32-.175.525-.513.205-.344.26-.833h2.758q-.042 1.146-.573 2.004a3.55 3.55 0 0 1-1.479 1.334q-.948.471-2.252.471m10.144 0q-1.46 0-2.512-.598a4.13 4.13 0 0 1-1.612-1.678q-.561-1.08-.561-2.505 0-1.432.561-2.505.568-1.08 1.612-1.679 1.051-.603 2.512-.604 1.461 0 2.505.604 1.05.598 1.612 1.678.567 1.075.567 2.506 0 1.425-.567 2.505a4.07 4.07 0 0 1-1.612 1.678q-1.044.598-2.505.598m.018-2.228q.531 0 .899-.326.369-.326.562-.905.199-.58.199-1.34 0-.773-.199-1.353-.193-.58-.562-.905a1.3 1.3 0 0 0-.899-.326 1.38 1.38 0 0 0-.93.326q-.374.327-.573.905-.194.58-.194 1.353 0 .76.194 1.34.199.58.573.905.38.327.93.326m6.179 2.053v-9.273h2.867v1.69h.097q.253-.917.827-1.364a2.1 2.1 0 0 1 1.334-.453q.206 0 .422.03.218.025.405.08v2.565a3 3 0 0 0-.555-.115 5 5 0 0 0-.604-.042q-.525 0-.948.235a1.7 1.7 0 0 0-.658.646 1.9 1.9 0 0 0-.235.966V43.5zm11.008.175q-1.455 0-2.512-.573a3.97 3.97 0 0 1-1.617-1.648q-.562-1.075-.562-2.554 0-1.437.568-2.511.567-1.08 1.599-1.679 1.034-.603 2.433-.604.99 0 1.811.308.822.309 1.419.912.597.604.93 1.491.332.882.332 2.023v.736h-8.06v-1.715h5.313a1.67 1.67 0 0 0-.223-.839 1.5 1.5 0 0 0-.598-.573 1.7 1.7 0 0 0-.863-.211q-.495 0-.888.223a1.65 1.65 0 0 0-.622.598q-.228.375-.241.85v1.745q0 .567.223.997.224.421.634.658.411.235.978.235.393 0 .713-.109.32-.108.549-.32.23-.21.344-.519l2.711.079a3.36 3.36 0 0 1-.743 1.587q-.567.67-1.491 1.045-.924.368-2.137.368"/></g><defs><linearGradient id="a" x1="83" x2="83" y1="0" y2="56" gradientUnits="userSpaceOnUse"><stop stop-color="#170b3f"/><stop offset="1" stop-color="#0f0729"/></linearGradient><linearGradient id="c" x1="32" x2="32" y1="8" y2="48" gradientUnits="userSpaceOnUse"><stop stop-color="#5529e5"/><stop offset="1" stop-color="#0f0239"/></linearGradient><filter id="b" width="51.429" height="51.429" x="6.286" y="2.286" color-interpolation-filters="sRGB" filterUnits="userSpaceOnUse"><feFlood flood-opacity="0" result="BackgroundImageFix"/><feColorMatrix in="SourceAlpha" result="hardAlpha" values="0 0 0 0 0 0 0 0 0 0 0 0 0 0 0 0 0 0 127 0"/><feOffset/><feGaussianBlur stdDeviation="2.857"/><feComposite in2="hardAlpha" operator="out"/><feColorMatrix values="0 0 0 0 0 0 0 0 0 0 0 0 0 0 0 0 0 0 0.25 0"/><feBlend in2="BackgroundImageFix" result="effect1_dropShadow_1_30"/><feBlend in="SourceGraphic" in2="effect1_dropShadow_1_30" result="shape"/></filter><filter id="d" width="105.2" height="48.2" x="54.4" y="3.9" color-interpolation-filters="sRGB" filterUnits="userSpaceOnUse"><feFlood flood-opacity="0" result="BackgroundImageFix"/><feColorMatrix in="SourceAlpha" result="hardAlpha" values="0 0 0 0 0 0 0 0 0 0 0 0 0 0 0 0 0 0 127 0"/><feOffset/><feGaussianBlur stdDeviation="2.8"/><feComposite in2="hardAlpha" operator="out"/><feColorMatrix values="0 0 0 0 0 0 0 0 0 0 0 0 0 0 0 0 0 0 0.25 0"/><feBlend in2="BackgroundImageFix" result="effect1_dropShadow_1_30"/><feBlend in="SourceGraphic" in2="effect1_dropShadow_1_30" result="shape"/></filter></defs></svg>