<svg xmlns="http://www.w3.org/2000/svg" width="172" height="56" fill="none" viewBox="0 0 172 56"><rect width="172" height="56" fill="url(#a)" rx="8"/><rect width="169.9" height="53.9" x="1.05" y="1.05" stroke="#fff" stroke-opacity=".15" stroke-width="2.1" rx="6.95"/><g filter="url(#b)"><path fill="#fefefe" d="M40.576 8.93a9.5 9.5 0 0 1 2.188-.921c.188-.032.377.03.56.076.948.3 1.792.846 2.613 1.393a25 25 0 0 1 3.295 2.707c.12.108.238.221.337.35q-.179-.018-.355-.04c-.878-.096-1.744.173-2.544.51-.9.408-1.73.958-2.494 1.584q-.176.142-.341.296c-.194.106-.319.295-.481.44-.202.185-.38.397-.607.552a9 9 0 0 1-.898.938c-.286.402-.614.773-.919 1.161-.29.391-.563.794-.852 1.186-.068.093-.12.195-.172.299-.335.416-.58.9-.836 1.368-.084.224-.259.42-.254.67.295.126.57.293.853.442q.728.372 1.438.778c-.292.171-.626.246-.926.4-.373.108-.715.295-1.087.405-.464.207-.95.365-1.417.568-.62.22-1.221.487-1.838.716-.828.318-1.643.67-2.487.944-.15-.156-.134-.398-.185-.596-.153-.431-.258-.877-.375-1.318-.05-.178-.105-.354-.132-.538l-.076-.113c-.036-.357-.183-.687-.249-1.038-.046-.242-.156-.468-.18-.715l-.059-.092c-.035-.306-.15-.593-.223-.89a84 84 0 0 0-.576-2.154c-.063-.308-.173-.606-.213-.919.218.03.388.169.573.273.324.136.616.334.935.482.186.081.346.22.55.26.622-1.425 1.304-2.827 2.121-4.151.037-.064.066-.133.097-.2.22-.264.378-.57.578-.848.269-.376.53-.759.836-1.107.223-.255.422-.531.66-.771l.48-.481c.442-.413.916-.792 1.422-1.124.416-.256.81-.547 1.24-.782"/><path fill="#f9a332" d="M27.83 10.335c1.295-.323 2.629-.456 3.96-.5 2.075-.004 4.167.294 6.124 1l-.48.482c-.238.24-.437.516-.66.771-.306.348-.567.731-.836 1.107-.2.278-.359.584-.578.848-.031.067-.06.136-.097.2-.817 1.324-1.5 2.726-2.122 4.15-.203-.038-.363-.177-.549-.26-.319-.147-.61-.345-.935-.481-.185-.104-.355-.244-.573-.273.04.313.15.61.213.919q.302 1.074.576 2.154c.074.297.188.584.223.89l.059.092c.024.247.134.473.18.716.066.35.213.68.249 1.037l.076.114c.027.183.082.36.132.537.117.44.222.887.375 1.318.05.198.035.44.185.597.844-.274 1.66-.627 2.487-.945.617-.229 1.218-.497 1.838-.716.467-.203.953-.36 1.417-.568.372-.11.714-.297 1.087-.405.3-.154.634-.229.926-.4q-.71-.406-1.438-.778c-.283-.149-.558-.316-.853-.442-.005-.25.17-.445.254-.67.256-.468.5-.952.836-1.368.051-.103.104-.206.172-.3.29-.39.562-.794.852-1.184.305-.389.633-.76.92-1.162.319-.291.622-.604.897-.938.227-.155.405-.367.607-.552.162-.145.287-.334.48-.44q.166-.154.342-.296c.617.449 1.077 1.066 1.59 1.621.195.198.346.433.531.64.379.525.766 1.048 1.086 1.613.201.281.355.591.525.892.131.24.204.509.363.734.778 1.58 1.286 3.29 1.558 5.029.2 1.274.222 2.57.17 3.856a17.4 17.4 0 0 1-.921 4.692c-1.41-1.433-3.132-2.513-4.897-3.45-.423-.246-.875-.434-1.31-.656a13 13 0 0 0-1.143-.523c-.082-.025-.1-.108-.116-.18l.148-.114c.143-.42.406-.784.59-1.186.089-.211.237-.392.312-.61a.95.95 0 0 0-.397.06 994 994 0 0 0-6.517 1.758c-.495.096-.968.283-1.464.384q.057.257.142.508c.19.438.33.896.525 1.332.17.444.328.895.518 1.331.588 1.558 1.22 3.098 1.8 4.658.189-.211.282-.482.426-.722.284-.523.562-1.05.846-1.575.1.01.202.02.291.073.26.143.54.251.787.419a.9.9 0 0 0 .277.114c.305.26.676.426.99.675.681.44 1.322.94 1.94 1.465.276.195.491.463.776.645.115.152.246.29.384.42.181.172.34.37.55.511.243.331.54.62.802.937-.11.252-.34.409-.522.603-.523.598-1.167 1.068-1.77 1.58-.253.232-.558.393-.83.6-.65.486-1.357.887-2.086 1.242a17.7 17.7 0 0 1-6.929 1.887c-.619.07-1.244.025-1.866.036-1.538-.079-3.075-.316-4.549-.774-.183-.054-.37-.1-.54-.192.55-.574 1.07-1.178 1.516-1.836q.082-.12.174-.233l.039-.13c.24-.202.363-.497.543-.746.174-.244.275-.53.448-.776.277-.462.51-.949.79-1.407.077-.26.238-.483.328-.738a10 10 0 0 0 .49-1.036l.103-.035q.02-.177.042-.353c.25.02.458.167.677.275.473.244.925.53 1.41.75-.005-.395-.166-.76-.254-1.137-.27-.988-.515-1.982-.794-2.968a2 2 0 0 0-.11-.288c-.096-.58-.305-1.137-.423-1.715-.118-.265-.142-.558-.224-.834a19 19 0 0 1-.376-1.443c-.264-.04-.473.146-.712.218-.454.151-.89.353-1.34.515-.382.161-.779.286-1.159.452q-.169.074-.347.125c-.452.203-.926.349-1.38.548-.445.163-.89.325-1.323.518-.378.144-.764.273-1.128.45l-.31.086-.022.179c.73.376 1.453.767 2.173 1.163-.013.092-.017.191-.064.276-.293.552-.56 1.12-.919 1.633a26 26 0 0 1-1.814 2.453c-.276.327-.585.626-.852.962a7 7 0 0 0-.926.92c-.206.137-.38.313-.567.473-.36-.332-.703-.682-1.049-1.028a27 27 0 0 1-1.752-2.21c-.153-.281-.377-.517-.52-.805-.186-.392-.435-.75-.64-1.133a4 4 0 0 0-.389-.859c-.186-.38-.323-.783-.482-1.175.094-.044.058-.155.024-.223a.6.6 0 0 0-.053.203 3 3 0 0 0-.165-.55 17.5 17.5 0 0 1-.712-3.113c-.056-.423-.131-.846-.121-1.274a15.6 15.6 0 0 1-.002-2.39c.02-.189-.023-.4.049-.572l.026.01.023.04c-.01-.08-.022-.16-.018-.239.082-.73.197-1.458.37-2.173.09-.407.224-.803.323-1.209l.11-.04c.43.43.878.84 1.364 1.207.374.263.734.547 1.11.808a32 32 0 0 0 4.17 2.277c.25.136.542.191.763.38a.22.22 0 0 1-.023.14c-.248.45-.486.903-.727 1.356-.095.16-.181.324-.241.5.326.02.625-.122.94-.179.285-.055.548-.19.839-.224 1.52-.43 3.047-.827 4.572-1.236.368-.072.716-.22 1.088-.273l.101-.076c.291-.005.55-.162.838-.184-.168-.577-.428-1.12-.627-1.687-.42-1.064-.828-2.132-1.237-3.2-.13-.268-.203-.56-.343-.824-.214-.648-.488-1.274-.727-1.913-.027-.066-.058-.194-.158-.134-.08.106-.133.23-.192.35-.13.275-.304.53-.406.817-.227.32-.387.68-.57 1.025-.27.006-.504-.138-.733-.262-1.08-.536-2.045-1.266-3.005-1.986-.385-.322-.784-.625-1.15-.966-.738-.713-1.479-1.429-2.115-2.235.283-.364.629-.67.942-1.005.335-.312.657-.64 1.024-.916.44-.319.82-.718 1.292-.995.573-.37 1.119-.793 1.75-1.064.684-.412 1.43-.707 2.168-1.007.71-.257 1.43-.488 2.166-.662"/><path fill="#9d6b36" d="M16.487 10.687c.364-.12.748-.107 1.125-.105.408.01.822-.035 1.223.057a9 9 0 0 1 2.24.482c.555.18 1.113.36 1.648.596.251.11.5.238.773.287-.631.27-1.177.694-1.75 1.064-.471.276-.852.676-1.292.995-.367.276-.69.603-1.024.915-.313.337-.66.642-.942 1.006-.944-1.198-1.774-2.565-1.988-4.102-.06-.387 0-.778-.008-1.165z"/><path fill="#fefefe" d="M12.84 15.343c1.012-1.691 2.27-3.225 3.652-4.626.008.387-.052.778.008 1.165.214 1.537 1.044 2.904 1.988 4.102.637.806 1.377 1.521 2.114 2.235.367.34.766.644 1.15.965.96.721 1.926 1.45 3.006 1.987.229.123.462.268.733.262.183-.344.343-.705.57-1.025.102-.288.276-.542.406-.817.06-.12.111-.244.192-.35.1-.06.13.068.158.134.24.64.513 1.265.727 1.913.14.264.212.556.343.824.409 1.068.816 2.136 1.237 3.2.199.566.459 1.11.627 1.687-.288.022-.547.179-.838.184l-.101.076c-.372.053-.72.2-1.088.273-1.524.409-3.052.805-4.572 1.236-.29.033-.554.169-.84.224-.314.056-.613.2-.94.18.06-.177.147-.342.242-.5.241-.454.48-.908.727-1.357a.22.22 0 0 0 .023-.14c-.22-.19-.513-.244-.763-.38a32.4 32.4 0 0 1-4.17-2.277c-.376-.261-.736-.545-1.11-.808a13 13 0 0 1-1.478-1.327 10.7 10.7 0 0 1-1.315-1.729c-.667-.955-1.203-2.007-1.518-3.131a.9.9 0 0 1 .031-.402c.16-.634.48-1.211.798-1.778"/><path fill="#9d6b36" d="M46.67 13.006c.8-.338 1.666-.607 2.544-.51.138.028.29.023.417.09.076.644.096 1.298.033 1.945-.041 1.015-.31 2.004-.649 2.955-.131.383-.253.77-.42 1.14-.15.349-.257.726-.47 1.043.05.14.107.277.146.42-.159-.225-.232-.494-.363-.734-.17-.3-.324-.61-.525-.892-.32-.565-.707-1.088-1.086-1.614-.185-.206-.336-.44-.531-.639-.513-.555-.973-1.172-1.59-1.62.763-.627 1.594-1.177 2.494-1.584m-31.827 9.377.114.12-.11.04c-.099.406-.233.801-.323 1.21a18 18 0 0 0-.37 2.172c-.004.08.009.16.018.24l-.023-.042c-.07-.271.013-.545.043-.815.115-.995.38-1.964.651-2.925"/><path fill="#fefefe" d="M42.265 27.008a.95.95 0 0 1 .397-.062c-.075.219-.223.4-.312.611-.184.401-.447.767-.59 1.185l-.148.115c.017.071.034.155.116.18q.584.234 1.143.523c.435.222.887.41 1.31.655 1.765.938 3.487 2.018 4.897 3.45.511.543.976 1.13 1.368 1.766.643.921 1.174 1.928 1.5 3.006.135.353-.013.727-.128 1.063-.397.999-1 1.899-1.615 2.773-.62.842-1.27 1.667-1.992 2.422a28 28 0 0 0-.571.613.42.42 0 0 1-.285.19c.048-.062.127-.104.144-.185.118-.873-.068-1.764-.405-2.569-.427-1.023-1.041-1.96-1.756-2.804-.262-.318-.559-.606-.803-.937-.208-.141-.368-.339-.549-.51a3.4 3.4 0 0 1-.384-.42c-.285-.183-.5-.452-.776-.646a18.5 18.5 0 0 0-1.94-1.465c-.314-.249-.685-.414-.99-.675a.9.9 0 0 1-.277-.115c-.247-.167-.527-.275-.787-.418-.089-.053-.192-.062-.291-.074-.284.525-.562 1.052-.846 1.576-.144.24-.237.51-.426.721-.58-1.56-1.212-3.1-1.8-4.657-.19-.436-.348-.887-.518-1.331-.195-.436-.334-.895-.525-1.332a5 5 0 0 1-.142-.508c.495-.101.969-.288 1.464-.384 2.17-.591 4.343-1.18 6.517-1.757M29.913 30.49c.24-.072.448-.257.712-.218.109.485.228.968.376 1.443.082.276.106.568.224.834.118.577.326 1.134.423 1.715.044.093.084.188.11.288.279.985.524 1.98.794 2.967.088.378.249.743.255 1.137-.486-.219-.938-.506-1.411-.75-.219-.107-.427-.255-.677-.274q-.023.176-.042.353l-.103.034a10 10 0 0 1-.49 1.036c-.09.255-.251.478-.327.738-.282.459-.514.946-.791 1.407-.173.246-.274.532-.448.777-.18.249-.302.543-.543.745l-.039.13q-.091.113-.174.234a14 14 0 0 1-1.516 1.836c-.464.44-.94.871-1.473 1.228-.716.474-1.428.962-2.212 1.317-.474.215-.96.419-1.471.533-.327.005-.638-.117-.94-.233-.78-.337-1.513-.778-2.211-1.263a25 25 0 0 1-3.605-3.011c.383.02.768.073 1.149.005.673-.072 1.319-.295 1.928-.584.917-.431 1.745-1.027 2.523-1.67.187-.162.362-.337.568-.473.276-.337.592-.644.926-.922.267-.335.576-.634.852-.961a26 26 0 0 0 1.814-2.454c.36-.512.626-1.08.918-1.632.048-.085.052-.184.065-.277a93 93 0 0 0-2.173-1.163l.022-.178.31-.087c.364-.177.75-.305 1.128-.45.433-.193.878-.354 1.323-.518.454-.198.928-.344 1.38-.547a3 3 0 0 0 .347-.126c.38-.165.777-.29 1.159-.452.45-.161.886-.363 1.34-.515"/><path fill="#9d6b36" d="M15.586 35.208c.159.272.295.558.388.86.205.382.454.74.64 1.132.143.288.367.524.52.806a27 27 0 0 0 1.752 2.209c.346.346.69.696 1.049 1.028-.779.644-1.607 1.24-2.524 1.67-.61.29-1.255.513-1.928.585-.381.068-.766.015-1.149-.005l-.037-.002c-.134-.709-.11-1.437-.052-2.153.063-1.04.347-2.052.71-3.023.252-.798.603-1.563.958-2.319-.077-.272-.27-.505-.328-.788m29.231 5.335c.182-.194.411-.351.522-.603.715.844 1.33 1.782 1.756 2.805.338.805.523 1.695.405 2.568-.017.082-.096.123-.144.184l-.016.018c-.523.04-1.05.083-1.573.033a3.8 3.8 0 0 1-.863-.084c-.662-.051-1.308-.224-1.936-.432-.453-.132-.9-.287-1.33-.48-.292-.088-.568-.218-.851-.329-.213-.099-.417-.227-.656-.258.73-.355 1.436-.756 2.086-1.243.272-.206.577-.367.83-.598.603-.513 1.247-.983 1.77-1.581"/></g><g filter="url(#c)"><path fill="#e8e8e8" d="M62.261 24.5h-1.863l4.187-11.636h2.029L70.8 24.5h-1.864l-3.29-9.523h-.09zm.313-4.557h6.045v1.477h-6.045zm16.143-4.17L75.552 24.5h-1.818l-3.17-8.727h1.824l2.21 6.716h.09l2.205-6.716zm3.887 8.92a3.6 3.6 0 0 1-1.5-.307 2.53 2.53 0 0 1-1.063-.903q-.386-.591-.386-1.449 0-.739.284-1.216.285-.477.767-.756a4 4 0 0 1 1.08-.42q.596-.142 1.215-.216l1.273-.148q.49-.061.71-.198.222-.137.222-.444v-.04q0-.744-.42-1.153-.415-.41-1.24-.409-.857 0-1.351.38-.49.376-.677.836l-1.596-.364q.284-.795.83-1.284.551-.495 1.266-.716.717-.227 1.506-.227.523 0 1.108.125.59.12 1.102.443.517.324.847.926.33.597.33 1.552V24.5h-1.66v-1.193h-.068q-.165.33-.494.648-.33.318-.847.528t-1.238.21m.369-1.364q.705 0 1.204-.278a1.95 1.95 0 0 0 .768-.727q.267-.454.267-.972v-1.125q-.091.091-.353.17-.255.075-.585.131-.33.052-.642.097l-.523.068q-.494.063-.903.21-.403.148-.648.427-.238.272-.238.727 0 .63.466.954.465.32 1.187.319m6.2 1.171v-8.727h1.7V24.5zm.858-10.074a1.08 1.08 0 0 1-.761-.295.96.96 0 0 1-.313-.716q0-.421.313-.716.318-.3.761-.301.444 0 .756.3a.94.94 0 0 1 .318.717.95.95 0 0 1-.318.716 1.06 1.06 0 0 1-.756.295m4.825-1.562V24.5h-1.698V12.864zm4.826 11.83a3.6 3.6 0 0 1-1.5-.308 2.53 2.53 0 0 1-1.063-.903q-.386-.591-.386-1.449 0-.739.284-1.216t.767-.756a4 4 0 0 1 1.08-.42q.596-.142 1.216-.216l1.272-.148q.49-.061.71-.198.222-.137.222-.444v-.04q0-.744-.42-1.153-.415-.41-1.239-.409-.858 0-1.352.38-.489.376-.676.836L97 17.886q.284-.795.83-1.284.551-.495 1.267-.716.716-.227 1.505-.227.523 0 1.108.125.592.12 1.102.443.517.324.847.926.33.597.33 1.552V24.5h-1.659v-1.193h-.069q-.165.33-.494.648-.33.318-.847.528t-1.238.21m.369-1.364q.704 0 1.205-.279.505-.278.767-.727.267-.454.267-.972v-1.125q-.091.091-.353.17-.255.075-.585.131-.329.052-.642.097l-.523.068a4.2 4.2 0 0 0-.903.21q-.403.148-.648.427-.238.272-.238.727 0 .63.466.954.465.32 1.187.319m6.337 1.17V12.864h1.699v4.323h.102q.147-.272.426-.63t.773-.625q.494-.273 1.307-.273 1.056 0 1.886.534.83.535 1.301 1.54.477 1.005.477 2.42t-.471 2.427q-.472 1.005-1.296 1.55-.824.54-1.88.54-.796 0-1.302-.267a2.5 2.5 0 0 1-.784-.625 5 5 0 0 1-.437-.636h-.142V24.5zm1.665-4.364q0 .921.267 1.614t.772 1.085q.506.387 1.239.387.761 0 1.273-.404.511-.41.772-1.108.267-.699.267-1.574 0-.863-.261-1.55-.255-.689-.773-1.086-.511-.398-1.278-.398-.739 0-1.25.381-.506.38-.767 1.063-.261.681-.261 1.59m9.913-7.272V24.5h-1.699V12.864zm6.047 11.812q-1.29 0-2.222-.551a3.74 3.74 0 0 1-1.432-1.562q-.5-1.012-.5-2.37 0-1.341.5-2.364a3.9 3.9 0 0 1 1.409-1.596q.91-.574 2.125-.574.74 0 1.432.244.693.244 1.245.768.55.522.869 1.357.318.83.318 2.018v.602h-6.937v-1.273h5.272q0-.67-.272-1.187a2.07 2.07 0 0 0-.767-.824q-.49-.302-1.148-.302-.716 0-1.25.353a2.36 2.36 0 0 0-.818.909q-.284.556-.284 1.21v.994q0 .876.306 1.489.313.615.87.938.557.318 1.301.318.483 0 .88-.137.399-.142.688-.42.29-.279.443-.688l1.608.29q-.194.71-.693 1.244-.494.529-1.244.824-.745.29-1.699.29m13.54 0q-1.228 0-2.143-.562a3.8 3.8 0 0 1-1.42-1.574q-.506-1.011-.506-2.364 0-1.358.506-2.375a3.8 3.8 0 0 1 1.42-1.58q.915-.561 2.143-.562 1.227 0 2.142.563a3.8 3.8 0 0 1 1.42 1.58q.506 1.016.506 2.374 0 1.353-.506 2.364a3.8 3.8 0 0 1-1.42 1.574q-.915.562-2.142.562m.005-1.426q.796 0 1.318-.42.523-.42.773-1.12.256-.699.256-1.54 0-.835-.256-1.534a2.5 2.5 0 0 0-.773-1.13q-.523-.426-1.318-.427-.801 0-1.329.427a2.54 2.54 0 0 0-.779 1.13q-.25.7-.25 1.535 0 .84.25 1.54.256.697.779 1.119.528.42 1.329.42m7.658-3.932V24.5h-1.699v-8.727h1.631v1.42h.108q.3-.693.943-1.114.648-.42 1.63-.42.893 0 1.563.375.67.37 1.04 1.102.369.733.369 1.813V24.5h-1.699v-5.347q0-.948-.494-1.482-.495-.54-1.358-.54-.59 0-1.051.255-.455.255-.722.75-.261.489-.261 1.182"/><path fill="#f9a332" d="M71.458 31.136V43.5h-2.535l-4.92-7.136h-.079V43.5h-2.988V31.136h2.571l4.866 7.124h.103v-7.124zm6.214 12.54q-1.455 0-2.512-.574a3.97 3.97 0 0 1-1.618-1.648q-.561-1.075-.561-2.554 0-1.437.567-2.511.568-1.08 1.6-1.679 1.033-.603 2.433-.604.99 0 1.811.308.82.309 1.419.912.597.604.93 1.491.331.882.332 2.023v.736h-8.06v-1.715h5.313a1.66 1.66 0 0 0-.224-.839 1.5 1.5 0 0 0-.597-.573 1.7 1.7 0 0 0-.864-.211q-.494 0-.887.223a1.68 1.68 0 0 0-.863 1.449v1.745q0 .567.223.996.223.421.634.658.411.235.978.235.392 0 .712-.109.32-.108.55-.32a1.3 1.3 0 0 0 .344-.519l2.71.079a3.35 3.35 0 0 1-.742 1.587q-.569.67-1.491 1.045-.924.368-2.137.368m8.287-9.449 1.527 3.055 1.582-3.055h2.976l-2.59 4.637 2.687 4.636h-2.953l-1.702-3.079-1.66 3.079h-2.994l2.692-4.636-2.56-4.637zm13.415 5.27v-5.27h2.946V43.5h-2.813v-1.727h-.096a2.7 2.7 0 0 1-1.05 1.353q-.738.495-1.782.495-.948 0-1.666-.435a2.96 2.96 0 0 1-1.117-1.213q-.398-.785-.404-1.836v-5.91h2.952v5.33q.006.755.398 1.19.393.435 1.069.435.44 0 .79-.193.357-.2.562-.574.21-.38.211-.917m12.921-2.438-2.711.072a1 1 0 0 0-.229-.513 1.24 1.24 0 0 0-.489-.356 1.7 1.7 0 0 0-.688-.133q-.513 0-.876.205-.356.205-.35.556a.6.6 0 0 0 .218.47q.228.2.815.32l1.786.339q1.389.265 2.065.88.682.617.688 1.63-.006.955-.567 1.661-.556.706-1.521 1.099-.966.386-2.21.386-1.986 0-3.133-.815-1.141-.821-1.304-2.197l2.916-.073q.096.507.501.773.403.266 1.032.266.567 0 .924-.212.356-.21.362-.561a.6.6 0 0 0-.278-.501q-.272-.194-.851-.302l-1.618-.308q-1.395-.253-2.077-.936-.681-.688-.676-1.75-.006-.93.495-1.588.501-.664 1.425-1.014t2.179-.35q1.884 0 2.971.79 1.086.785 1.201 2.162m1.683-5.923h3.7l3.14 7.655h.144l3.14-7.655h3.7V43.5h-2.91v-7.594h-.102l-2.97 7.516h-1.86l-2.97-7.559h-.103V43.5h-2.909zm20.017 12.54q-1.46 0-2.512-.599a4.13 4.13 0 0 1-1.612-1.678q-.561-1.08-.561-2.505 0-1.432.561-2.505.568-1.08 1.612-1.679 1.051-.603 2.512-.604 1.461 0 2.505.604 1.05.598 1.612 1.678.567 1.075.567 2.506 0 1.425-.567 2.505a4.07 4.07 0 0 1-1.612 1.678q-1.044.598-2.505.598m.018-2.229q.531 0 .899-.326.369-.326.562-.905.199-.58.199-1.34 0-.773-.199-1.353-.193-.58-.562-.905a1.3 1.3 0 0 0-.899-.326 1.38 1.38 0 0 0-.93.326q-.374.327-.573.905-.194.58-.194 1.353 0 .76.194 1.34.199.58.573.905.38.327.93.326m9.565 2.186a3.4 3.4 0 0 1-1.865-.531q-.84-.532-1.34-1.594t-.501-2.638q0-1.636.519-2.693.52-1.056 1.358-1.563a3.47 3.47 0 0 1 1.817-.508q.73 0 1.25.254.52.247.857.64.337.392.513.815h.061v-4.679h2.952V43.5h-2.922v-1.503h-.091a2.9 2.9 0 0 1-.531.803q-.344.374-.863.603-.513.23-1.214.23m1.027-2.3q.537 0 .917-.302.38-.308.586-.863t.205-1.304q0-.762-.205-1.31-.2-.55-.586-.846a1.45 1.45 0 0 0-.917-.295q-.55 0-.93.302-.38.3-.58.85-.192.55-.193 1.299 0 .748.199 1.304.2.555.574.863.38.302.93.302m14.556-4.274-2.711.072a1 1 0 0 0-.229-.513 1.24 1.24 0 0 0-.489-.356 1.7 1.7 0 0 0-.688-.133q-.513 0-.875.205-.357.205-.351.556a.6.6 0 0 0 .218.47q.229.2.815.32l1.787.339q1.388.265 2.064.88.682.617.688 1.63-.006.955-.567 1.661-.555.706-1.521 1.099-.966.386-2.21.386-1.986 0-3.133-.815-1.141-.821-1.304-2.197l2.916-.073q.096.507.501.773t1.032.266q.568 0 .924-.212.356-.21.362-.561a.6.6 0 0 0-.278-.501q-.271-.194-.851-.302l-1.618-.308q-1.394-.253-2.076-.936-.683-.688-.677-1.75-.006-.93.496-1.588.5-.664 1.424-1.014t2.18-.35q1.882 0 2.97.79 1.086.785 1.201 2.162"/></g><defs><filter id="b" width="51.429" height="51.429" x="6.286" y="2.286" color-interpolation-filters="sRGB" filterUnits="userSpaceOnUse"><feFlood flood-opacity="0" result="BackgroundImageFix"/><feColorMatrix in="SourceAlpha" result="hardAlpha" values="0 0 0 0 0 0 0 0 0 0 0 0 0 0 0 0 0 0 127 0"/><feOffset/><feGaussianBlur stdDeviation="2.857"/><feComposite in2="hardAlpha" operator="out"/><feColorMatrix values="0 0 0 0 0 0 0 0 0 0 0 0 0 0 0 0 0 0 0.25 0"/><feBlend in2="BackgroundImageFix" result="effect1_dropShadow_44_2"/><feBlend in="SourceGraphic" in2="effect1_dropShadow_44_2" result="shape"/></filter><filter id="c" width="111.2" height="48.2" x="54.4" y="3.9" color-interpolation-filters="sRGB" filterUnits="userSpaceOnUse"><feFlood flood-opacity="0" result="BackgroundImageFix"/><feColorMatrix in="SourceAlpha" result="hardAlpha" values="0 0 0 0 0 0 0 0 0 0 0 0 0 0 0 0 0 0 127 0"/><feOffset/><feGaussianBlur stdDeviation="2.8"/><feComposite in2="hardAlpha" operator="out"/><feColorMatrix values="0 0 0 0 0 0 0 0 0 0 0 0 0 0 0 0 0 0 0.25 0"/><feBlend in2="BackgroundImageFix" result="effect1_dropShadow_44_2"/><feBlend in="SourceGraphic" in2="effect1_dropShadow_44_2" result="shape"/></filter><linearGradient id="a" x1="86" x2="86" y1="0" y2="56" gradientUnits="userSpaceOnUse"><stop stop-color="#301f09"/><stop offset="1" stop-color="#20150a"/></linearGradient></defs></svg>