<svg xmlns="http://www.w3.org/2000/svg" width="164" height="56" fill="none" viewBox="0 0 164 56"><rect width="164" height="56" fill="url(#a)" rx="8"/><rect width="161.9" height="53.9" x="1.05" y="1.05" stroke="#fff" stroke-opacity=".15" stroke-width="2.1" rx="6.95"/><g filter="url(#b)"><path fill="#e9e9ff" stroke="#ccc" stroke-linejoin="bevel" stroke-width=".304" d="m23.478 21.463 5.685 2.18v7.041l-5.685-2.18z"/><path fill="#353564" stroke="#ccc" stroke-linejoin="bevel" stroke-width=".304" d="M17.71 23.675v7.041l5.768-2.212v-7.041z"/><path fill="#afafde" stroke="#ccc" stroke-linejoin="bevel" stroke-width=".304" d="m17.71 30.716 5.684 2.18 5.769-2.212-5.685-2.18z"/><path fill="#f7f7f4" stroke="#ccc" stroke-linejoin="bevel" stroke-width=".304" d="m17.71 23.675 5.684 2.18 5.769-2.212-5.685-2.18z"/><path fill="#fff" stroke="#ccc" stroke-linejoin="bevel" stroke-width=".304" d="M23.394 25.856v7.04l5.769-2.212v-7.041z"/><path fill="#efeeea" stroke="#ccc" stroke-linejoin="bevel" stroke-width=".304" d="m17.71 23.675 5.684 2.18v7.042l-5.685-2.18z"/><path fill="#e9e9ff" stroke="#ccc" stroke-linejoin="bevel" stroke-width=".304" d="m29.188 16.54 5.684 2.18v7.041l-5.684-2.18z"/><path fill="#353564" stroke="#ccc" stroke-linejoin="bevel" stroke-width=".304" d="M23.419 18.752v7.042l5.768-2.213V16.54z"/><path fill="#afafde" stroke="#ccc" stroke-linejoin="bevel" stroke-width=".304" d="m23.419 25.793 5.684 2.18 5.769-2.212-5.684-2.18z"/><path fill="#f7f7f4" stroke="#ccc" stroke-linejoin="bevel" stroke-width=".304" d="m23.419 18.752 5.684 2.18 5.769-2.212-5.684-2.18z"/><path fill="#fff" stroke="#ccc" stroke-linejoin="bevel" stroke-width=".304" d="M29.103 20.933v7.04l5.769-2.212v-7.04z"/><path fill="#efeeea" stroke="#ccc" stroke-linejoin="bevel" stroke-width=".304" d="m23.419 18.752 5.684 2.18v7.042l-5.684-2.18z"/><path fill="#e9e9ff" stroke="#ccc" stroke-linejoin="bevel" stroke-width=".304" d="m17.769 30.761 5.684 2.18v7.042l-5.684-2.18z"/><path fill="#353564" stroke="#ccc" stroke-linejoin="bevel" stroke-width=".304" d="M12 32.974v7.041l5.769-2.213v-7.04z"/><path fill="#afafde" stroke="#ccc" stroke-linejoin="bevel" stroke-width=".304" d="m12 40.015 5.685 2.18 5.768-2.213-5.684-2.18z"/><path fill="#f7f7f4" stroke="#ccc" stroke-linejoin="bevel" stroke-width=".304" d="m12 32.974 5.685 2.18 5.768-2.213-5.684-2.18z"/><path fill="#fff" stroke="#ccc" stroke-linejoin="bevel" stroke-width=".304" d="M17.685 35.155v7.04l5.768-2.212v-7.041z"/><path fill="#efeeea" stroke="#ccc" stroke-linejoin="bevel" stroke-width=".304" d="m12 32.974 5.685 2.18v7.041L12 40.016z"/><path fill="#e9e9ff" stroke="#ccc" stroke-linejoin="bevel" stroke-width=".304" d="m23.478 32.95 5.685 2.18v7.04l-5.685-2.18z"/><path fill="#353564" stroke="#ccc" stroke-linejoin="bevel" stroke-width=".304" d="M17.71 35.162v7.041l5.768-2.213v-7.04z"/><path fill="#afafde" stroke="#ccc" stroke-linejoin="bevel" stroke-width=".304" d="m17.71 42.203 5.684 2.18 5.769-2.213-5.685-2.18z"/><path fill="#f7f7f4" stroke="#ccc" stroke-linejoin="bevel" stroke-width=".304" d="m17.71 35.162 5.684 2.18 5.769-2.213-5.685-2.18z"/><path fill="#fff" stroke="#ccc" stroke-linejoin="bevel" stroke-width=".304" d="M23.394 37.343v7.04l5.769-2.212V35.13z"/><path fill="#efeeea" stroke="#ccc" stroke-linejoin="bevel" stroke-width=".304" d="m17.71 35.162 5.684 2.18v7.042l-5.685-2.18z"/><path fill="#e9e9ff" stroke="#ccc" stroke-linejoin="bevel" stroke-width=".304" d="m23.478 25.839 5.685 2.18v7.041l-5.685-2.18z"/><path fill="#353564" stroke="#ccc" stroke-linejoin="bevel" stroke-width=".304" d="M17.71 28.051v7.041l5.768-2.212v-7.042z"/><path fill="#afafde" stroke="#ccc" stroke-linejoin="bevel" stroke-width=".304" d="m17.71 35.092 5.684 2.18 5.769-2.212-5.685-2.18z"/><path fill="#f7f7f4" stroke="#ccc" stroke-linejoin="bevel" stroke-width=".304" d="m17.71 28.05 5.684 2.18 5.769-2.212-5.685-2.18z"/><path fill="#fff" stroke="#ccc" stroke-linejoin="bevel" stroke-width=".304" d="M23.394 30.232v7.04l5.769-2.212v-7.041z"/><path fill="#efeeea" stroke="#ccc" stroke-linejoin="bevel" stroke-width=".304" d="m17.71 28.051 5.684 2.18v7.042l-5.685-2.18z"/><path fill="#e9e9ff" stroke="#ccc" stroke-linejoin="bevel" stroke-width=".304" d="M46.316 28.573 52 30.753v7.042l-5.684-2.18z"/><path fill="#353564" stroke="#ccc" stroke-linejoin="bevel" stroke-width=".304" d="M40.547 30.786v7.041l5.769-2.213v-7.04z"/><path fill="#afafde" stroke="#ccc" stroke-linejoin="bevel" stroke-width=".304" d="m40.547 37.827 5.684 2.18L52 37.795l-5.684-2.18z"/><path fill="#f7f7f4" stroke="#ccc" stroke-linejoin="bevel" stroke-width=".304" d="m40.547 30.786 5.684 2.18L52 30.753l-5.684-2.18z"/><path fill="#fff" stroke="#ccc" stroke-linejoin="bevel" stroke-width=".304" d="M46.231 32.967v7.04l5.77-2.212v-7.041z"/><path fill="#efeeea" stroke="#ccc" stroke-linejoin="bevel" stroke-width=".304" d="m40.547 30.786 5.684 2.18v7.042l-5.684-2.18z"/><path fill="#e9e9ff" stroke="#ccc" stroke-linejoin="bevel" stroke-width=".304" d="m40.606 30.761 5.685 2.18v7.042l-5.685-2.18z"/><path fill="#353564" stroke="#ccc" stroke-linejoin="bevel" stroke-width=".304" d="M34.838 32.974v7.041l5.768-2.213v-7.04z"/><path fill="#afafde" stroke="#ccc" stroke-linejoin="bevel" stroke-width=".304" d="m34.838 40.015 5.684 2.18 5.769-2.213-5.685-2.18z"/><path fill="#f7f7f4" stroke="#ccc" stroke-linejoin="bevel" stroke-width=".304" d="m34.838 32.974 5.684 2.18 5.769-2.213-5.685-2.18z"/><path fill="#ffd242" stroke="#ccc" stroke-linejoin="bevel" stroke-width=".304" d="M40.522 35.155v7.04l5.769-2.212v-7.041z"/><path fill="#efeeea" stroke="#ccc" stroke-linejoin="bevel" stroke-width=".304" d="m34.838 32.974 5.684 2.18v7.042l-5.684-2.18z"/><path fill="#fff" d="M44.137 38.538c.612-.234 1.108-.98 1.108-1.667 0-.686-.496-1.052-1.108-.817-.612.234-1.108.981-1.108 1.667s.496 1.052 1.108.817"/><path fill="#e9e9ff" stroke="#ccc" stroke-linejoin="bevel" stroke-width=".304" d="m34.897 32.95 5.684 2.18v7.04l-5.684-2.18z"/><path fill="#353564" stroke="#ccc" stroke-linejoin="bevel" stroke-width=".304" d="M29.128 35.162v7.041l5.769-2.213v-7.04z"/><path fill="#afafde" stroke="#ccc" stroke-linejoin="bevel" stroke-width=".304" d="m29.128 42.203 5.685 2.18 5.768-2.212-5.684-2.18z"/><path fill="#f7f7f4" stroke="#ccc" stroke-linejoin="bevel" stroke-width=".304" d="m29.128 35.162 5.685 2.18 5.768-2.213-5.684-2.18z"/><path fill="#ffd242" stroke="#ccc" stroke-linejoin="bevel" stroke-width=".304" d="M34.813 37.343v7.04l5.768-2.212V35.13z"/><path fill="#efeeea" stroke="#ccc" stroke-linejoin="bevel" stroke-width=".304" d="m29.128 35.162 5.685 2.18v7.042l-5.685-2.18z"/><path fill="#e9e9ff" stroke="#ccc" stroke-linejoin="bevel" stroke-width=".304" d="m29.187 35.137 5.685 2.18v7.042l-5.685-2.18z"/><path fill="#353564" stroke="#ccc" stroke-linejoin="bevel" stroke-width=".304" d="M23.419 37.35v7.041l5.768-2.213v-7.04z"/><path fill="#afafde" stroke="#ccc" stroke-linejoin="bevel" stroke-width=".304" d="m23.419 44.39 5.684 2.18 5.769-2.212-5.684-2.18z"/><path fill="#f7f7f4" stroke="#ccc" stroke-linejoin="bevel" stroke-width=".304" d="m23.419 37.35 5.684 2.18 5.769-2.213-5.685-2.18z"/><path fill="#fff" stroke="#ccc" stroke-linejoin="bevel" stroke-width=".304" d="M29.103 39.53v7.042l5.77-2.213v-7.041z"/><path fill="#efeeea" stroke="#ccc" stroke-linejoin="bevel" stroke-width=".304" d="m23.419 37.35 5.684 2.18v7.042l-5.684-2.18z"/><path fill="#e9e9ff" stroke="#ccc" stroke-linejoin="bevel" stroke-width=".304" d="M46.316 21.463 52 23.643v7.041l-5.684-2.18z"/><path fill="#353564" stroke="#ccc" stroke-linejoin="bevel" stroke-width=".304" d="M40.547 23.675v7.041l5.769-2.212v-7.041z"/><path fill="#afafde" stroke="#ccc" stroke-linejoin="bevel" stroke-width=".304" d="m40.547 30.716 5.684 2.18L52 30.684l-5.684-2.18z"/><path fill="#f7f7f4" stroke="#ccc" stroke-linejoin="bevel" stroke-width=".304" d="m40.547 23.675 5.684 2.18L52 23.643l-5.684-2.18z"/><path fill="#ffd242" stroke="#ccc" stroke-linejoin="bevel" stroke-width=".304" d="M46.231 25.856v7.04l5.77-2.212v-7.041z"/><path fill="#efeeea" stroke="#ccc" stroke-linejoin="bevel" stroke-width=".304" d="m40.547 23.675 5.684 2.18v7.042l-5.684-2.18z"/><path fill="#e9e9ff" stroke="#ccc" stroke-linejoin="bevel" stroke-width=".304" d="M46.316 14.352 52 16.532v7.041l-5.684-2.18z"/><path fill="#353564" stroke="#ccc" stroke-linejoin="bevel" stroke-width=".304" d="M40.547 16.564v7.041l5.769-2.212v-7.041z"/><path fill="#afafde" stroke="#ccc" stroke-linejoin="bevel" stroke-width=".304" d="m40.547 23.605 5.684 2.18L52 23.573l-5.684-2.18z"/><path fill="#ffc91d" stroke="#ccc" stroke-linejoin="bevel" stroke-width=".304" d="m40.547 16.564 5.684 2.18L52 16.532l-5.684-2.18z"/><path fill="#ffd242" stroke="#ccc" stroke-linejoin="bevel" stroke-width=".304" d="M46.231 18.745v7.04l5.77-2.212v-7.04z"/><path fill="#efeeea" stroke="#ccc" stroke-linejoin="bevel" stroke-width=".304" d="m40.547 16.564 5.684 2.18v7.042l-5.684-2.18z"/><path fill="#e9e9ff" stroke="#ccc" stroke-linejoin="bevel" stroke-width=".304" d="m40.606 23.65 5.685 2.18v7.042l-5.685-2.18z"/><path fill="#353564" stroke="#ccc" stroke-linejoin="bevel" stroke-width=".304" d="M34.838 25.863v7.041l5.768-2.213v-7.04z"/><path fill="#afafde" stroke="#ccc" stroke-linejoin="bevel" stroke-width=".304" d="m34.838 32.904 5.684 2.18 5.769-2.212-5.685-2.18z"/><path fill="#f7f7f4" stroke="#ccc" stroke-linejoin="bevel" stroke-width=".304" d="m34.838 25.863 5.684 2.18 5.769-2.213-5.685-2.18z"/><path fill="#ffd242" stroke="#ccc" stroke-linejoin="bevel" stroke-width=".304" d="M40.522 28.044v7.04l5.769-2.212v-7.04z"/><path fill="#efeeea" stroke="#ccc" stroke-linejoin="bevel" stroke-width=".304" d="m34.838 25.863 5.684 2.18v7.042l-5.684-2.18z"/><path fill="#e9e9ff" stroke="#ccc" stroke-linejoin="bevel" stroke-width=".304" d="m40.606 16.54 5.685 2.18v7.041l-5.685-2.18z"/><path fill="#353564" stroke="#ccc" stroke-linejoin="bevel" stroke-width=".304" d="M34.838 18.752v7.042l5.768-2.213V16.54z"/><path fill="#afafde" stroke="#ccc" stroke-linejoin="bevel" stroke-width=".304" d="m34.838 25.793 5.684 2.18 5.769-2.212-5.685-2.18z"/><path fill="#f7f7f4" stroke="#ccc" stroke-linejoin="bevel" stroke-width=".304" d="m34.838 18.752 5.684 2.18 5.769-2.212-5.685-2.18z"/><path fill="#3775a9" stroke="#ccc" stroke-linejoin="bevel" stroke-width=".304" d="M40.522 20.933v7.04l5.769-2.212v-7.04z"/><path fill="#efeeea" stroke="#ccc" stroke-linejoin="bevel" stroke-width=".304" d="m34.838 18.752 5.684 2.18v7.042l-5.684-2.18z"/><path fill="#e9e9ff" stroke="#ccc" stroke-linejoin="bevel" stroke-width=".304" d="m40.606 9.429 5.685 2.18v7.041l-5.685-2.18z"/><path fill="#353564" stroke="#ccc" stroke-linejoin="bevel" stroke-width=".304" d="M34.838 11.641v7.042l5.768-2.213V9.429z"/><path fill="#afafde" stroke="#ccc" stroke-linejoin="bevel" stroke-width=".304" d="m34.838 18.682 5.684 2.18 5.769-2.212-5.685-2.18z"/><path fill="#2f6491" stroke="#ccc" stroke-linejoin="bevel" stroke-width=".304" d="m34.838 11.641 5.684 2.18 5.769-2.212-5.685-2.18z"/><path fill="#3775a9" stroke="#ccc" stroke-linejoin="bevel" stroke-width=".304" d="M40.522 13.822v7.041l5.769-2.213v-7.04z"/><path fill="#efeeea" stroke="#ccc" stroke-linejoin="bevel" stroke-width=".304" d="m34.838 11.642 5.684 2.18v7.041l-5.684-2.18z"/><path fill="#e9e9ff" stroke="#ccc" stroke-linejoin="bevel" stroke-width=".304" d="m34.897 25.839 5.684 2.18v7.041l-5.684-2.18z"/><path fill="#353564" stroke="#ccc" stroke-linejoin="bevel" stroke-width=".304" d="M29.128 28.051v7.041l5.769-2.212v-7.042z"/><path fill="#afafde" stroke="#ccc" stroke-linejoin="bevel" stroke-width=".304" d="m29.128 35.092 5.685 2.18 5.768-2.212-5.684-2.18z"/><path fill="#f7f7f4" stroke="#ccc" stroke-linejoin="bevel" stroke-width=".304" d="m29.128 28.05 5.685 2.18 5.768-2.212-5.684-2.18z"/><path fill="#ffd242" stroke="#ccc" stroke-linejoin="bevel" stroke-width=".304" d="M34.813 30.232v7.04l5.768-2.212v-7.041z"/><path fill="#efeeea" stroke="#ccc" stroke-linejoin="bevel" stroke-width=".304" d="m29.128 28.051 5.685 2.18v7.042l-5.685-2.18z"/><path fill="#e9e9ff" stroke="#ccc" stroke-linejoin="bevel" stroke-width=".304" d="m34.897 18.728 5.684 2.18v7.041l-5.684-2.18z"/><path fill="#353564" stroke="#ccc" stroke-linejoin="bevel" stroke-width=".304" d="M29.128 20.94v7.041l5.769-2.212v-7.041z"/><path fill="#afafde" stroke="#ccc" stroke-linejoin="bevel" stroke-width=".304" d="m29.128 27.98 5.685 2.18 5.768-2.212-5.684-2.18z"/><path fill="#f7f7f4" stroke="#ccc" stroke-linejoin="bevel" stroke-width=".304" d="m29.128 20.94 5.685 2.18 5.768-2.212-5.684-2.18z"/><path fill="#3775a9" stroke="#ccc" stroke-linejoin="bevel" stroke-width=".304" d="M34.813 23.12v7.042l5.768-2.213v-7.04z"/><path fill="#efeeea" stroke="#ccc" stroke-linejoin="bevel" stroke-width=".304" d="m29.128 20.94 5.685 2.18v7.042l-5.685-2.18z"/><path fill="#e9e9ff" stroke="#ccc" stroke-linejoin="bevel" stroke-width=".304" d="m29.187 28.027 5.685 2.18v7.041l-5.685-2.18z"/><path fill="#353564" stroke="#ccc" stroke-linejoin="bevel" stroke-width=".304" d="M23.419 30.24v7.04l5.768-2.212v-7.041z"/><path fill="#afafde" stroke="#ccc" stroke-linejoin="bevel" stroke-width=".304" d="m23.419 37.28 5.684 2.18 5.769-2.212-5.684-2.18z"/><path fill="#f7f7f4" stroke="#ccc" stroke-linejoin="bevel" stroke-width=".304" d="m23.419 30.239 5.684 2.18 5.769-2.212-5.685-2.18z"/><path fill="#3775a9" stroke="#ccc" stroke-linejoin="bevel" stroke-width=".304" d="M29.103 32.42v7.04l5.77-2.212v-7.041z"/><path fill="#2f6491" stroke="#ccc" stroke-linejoin="bevel" stroke-width=".304" d="m23.419 30.24 5.684 2.18v7.04l-5.684-2.18z"/><path fill="#e9e9ff" stroke="#ccc" stroke-linejoin="bevel" stroke-width=".304" d="m29.187 20.916 5.685 2.18v7.041l-5.685-2.18z"/><path fill="#353564" stroke="#ccc" stroke-linejoin="bevel" stroke-width=".304" d="M23.419 23.128v7.041l5.768-2.212v-7.041z"/><path fill="#afafde" stroke="#ccc" stroke-linejoin="bevel" stroke-width=".304" d="m23.419 30.169 5.684 2.18 5.769-2.212-5.684-2.18z"/><path fill="#2f6491" stroke="#ccc" stroke-linejoin="bevel" stroke-width=".304" d="m23.419 23.128 5.684 2.18 5.769-2.212-5.685-2.18z"/><path fill="#3775a9" stroke="#ccc" stroke-linejoin="bevel" stroke-width=".304" d="M29.103 25.309v7.04l5.77-2.212v-7.04z"/><path fill="#2f6491" stroke="#ccc" stroke-linejoin="bevel" stroke-width=".304" d="m23.419 23.128 5.684 2.18v7.042l-5.684-2.18z"/><path fill="#e9e9ff" stroke="#ccc" stroke-linejoin="bevel" stroke-width=".304" d="m34.897 11.617 5.684 2.18v7.041l-5.684-2.18z"/><path fill="#353564" stroke="#ccc" stroke-linejoin="bevel" stroke-width=".304" d="M29.128 13.83v7.04l5.769-2.212v-7.041z"/><path fill="#afafde" stroke="#ccc" stroke-linejoin="bevel" stroke-width=".304" d="m29.128 20.87 5.685 2.18 5.768-2.212-5.684-2.18z"/><path fill="#2f6491" stroke="#ccc" stroke-linejoin="bevel" stroke-width=".304" d="m29.128 13.829 5.685 2.18 5.768-2.212-5.684-2.18z"/><path fill="#3775a9" stroke="#ccc" stroke-linejoin="bevel" stroke-width=".304" d="M34.813 16.01v7.04l5.768-2.212v-7.04z"/><path fill="#2f6491" stroke="#ccc" stroke-linejoin="bevel" stroke-width=".304" d="m29.128 13.83 5.685 2.18v7.041l-5.685-2.18z"/><path fill="#fff" d="M36.966 19.938c.612-.234 1.108-.98 1.108-1.667 0-.686-.496-1.052-1.108-.817s-1.108.98-1.108 1.667c0 .686.496 1.052 1.108.817"/></g><g filter="url(#c)"><path fill="#e8e8e8" d="M62.261 24.5h-1.863l4.187-11.636h2.029L70.8 24.5h-1.864l-3.29-9.523h-.09zm.313-4.557h6.045v1.477h-6.045zm16.143-4.17L75.552 24.5h-1.818l-3.17-8.727h1.824l2.21 6.716h.09l2.205-6.716zm3.887 8.92a3.6 3.6 0 0 1-1.5-.307 2.53 2.53 0 0 1-1.063-.903q-.386-.591-.386-1.449 0-.739.284-1.216.285-.477.767-.756a4 4 0 0 1 1.08-.42q.596-.142 1.215-.216l1.273-.148q.49-.061.71-.198.222-.137.222-.444v-.04q0-.744-.42-1.153-.415-.41-1.24-.409-.857 0-1.351.38-.49.376-.677.836l-1.596-.364q.284-.795.83-1.284.551-.495 1.266-.716.717-.227 1.506-.227.523 0 1.108.125.59.12 1.102.443.517.324.847.926.33.597.33 1.552V24.5h-1.66v-1.193h-.068q-.165.33-.494.648-.33.318-.847.528t-1.238.21m.369-1.364q.705 0 1.204-.278a1.95 1.95 0 0 0 .768-.727q.267-.454.267-.972v-1.125q-.091.091-.353.17-.255.075-.585.131-.33.052-.642.097l-.523.068q-.494.063-.903.21-.403.148-.648.427-.238.272-.238.727 0 .63.466.954.465.32 1.187.319m6.2 1.171v-8.727h1.7V24.5zm.858-10.074a1.08 1.08 0 0 1-.761-.295.96.96 0 0 1-.313-.716q0-.421.313-.716.318-.3.761-.301.444 0 .756.3a.94.94 0 0 1 .318.717.95.95 0 0 1-.318.716 1.06 1.06 0 0 1-.756.295m4.825-1.562V24.5h-1.698V12.864zm4.826 11.83a3.6 3.6 0 0 1-1.5-.308 2.53 2.53 0 0 1-1.063-.903q-.386-.591-.386-1.449 0-.739.284-1.216t.767-.756a4 4 0 0 1 1.08-.42q.596-.142 1.216-.216l1.272-.148q.49-.061.71-.198.222-.137.222-.444v-.04q0-.744-.42-1.153-.415-.41-1.239-.409-.858 0-1.352.38-.489.376-.676.836L97 17.886q.284-.795.83-1.284.551-.495 1.267-.716.716-.227 1.505-.227.523 0 1.108.125.592.12 1.102.443.517.324.847.926.33.597.33 1.552V24.5h-1.659v-1.193h-.069q-.165.33-.494.648-.33.318-.847.528t-1.238.21m.369-1.364q.704 0 1.205-.279.505-.278.767-.727.267-.454.267-.972v-1.125q-.091.091-.353.17-.255.075-.585.131-.329.052-.642.097l-.523.068a4.2 4.2 0 0 0-.903.21q-.403.148-.648.427-.238.272-.238.727 0 .63.466.954.465.32 1.187.319m6.337 1.17V12.864h1.699v4.323h.102q.147-.272.426-.63t.773-.625q.494-.273 1.307-.273 1.056 0 1.886.534.83.535 1.301 1.54.477 1.005.477 2.42t-.471 2.427q-.472 1.005-1.296 1.55-.824.54-1.88.54-.796 0-1.302-.267a2.5 2.5 0 0 1-.784-.625 5 5 0 0 1-.437-.636h-.142V24.5zm1.665-4.364q0 .921.267 1.614t.772 1.085q.506.387 1.239.387.761 0 1.273-.404.511-.41.772-1.108.267-.699.267-1.574 0-.863-.261-1.55-.255-.689-.773-1.086-.511-.398-1.278-.398-.739 0-1.25.381-.506.38-.767 1.063-.261.681-.261 1.59m9.913-7.272V24.5h-1.699V12.864zm6.047 11.812q-1.29 0-2.222-.551a3.74 3.74 0 0 1-1.432-1.562q-.5-1.012-.5-2.37 0-1.341.5-2.364a3.9 3.9 0 0 1 1.409-1.596q.91-.574 2.125-.574.74 0 1.432.244.693.244 1.245.768.55.522.869 1.357.318.83.318 2.018v.602h-6.937v-1.273h5.272q0-.67-.272-1.187a2.07 2.07 0 0 0-.767-.824q-.49-.302-1.148-.302-.716 0-1.25.353a2.36 2.36 0 0 0-.818.909q-.284.556-.284 1.21v.994q0 .876.306 1.489.313.615.87.938.557.318 1.301.318.483 0 .88-.137.399-.142.688-.42.29-.279.443-.688l1.608.29q-.194.71-.693 1.244-.494.529-1.244.824-.745.29-1.699.29m13.54 0q-1.228 0-2.143-.562a3.8 3.8 0 0 1-1.42-1.574q-.506-1.011-.506-2.364 0-1.358.506-2.375a3.8 3.8 0 0 1 1.42-1.58q.915-.561 2.143-.562 1.227 0 2.142.563a3.8 3.8 0 0 1 1.42 1.58q.506 1.016.506 2.374 0 1.353-.506 2.364a3.8 3.8 0 0 1-1.42 1.574q-.915.562-2.142.562m.005-1.426q.796 0 1.318-.42.523-.42.773-1.12.256-.699.256-1.54 0-.835-.256-1.534a2.5 2.5 0 0 0-.773-1.13q-.523-.426-1.318-.427-.801 0-1.329.427a2.54 2.54 0 0 0-.779 1.13q-.25.7-.25 1.535 0 .84.25 1.54.256.697.779 1.119.528.42 1.329.42m7.658-3.932V24.5h-1.699v-8.727h1.631v1.42h.108q.3-.693.943-1.114.648-.42 1.63-.42.893 0 1.563.375.67.37 1.04 1.102.369.733.369 1.813V24.5h-1.699v-5.347q0-.948-.494-1.482-.495-.54-1.358-.54-.59 0-1.051.255-.455.255-.722.75-.261.489-.261 1.182"/><path fill="#fff" d="M60.936 43.5V31.136h5.107q1.388 0 2.397.544 1.014.537 1.563 1.503.55.96.55 2.233 0 1.28-.562 2.24-.556.954-1.588 1.48-1.032.525-2.45.524H62.8v-2.354h2.596q.675 0 1.129-.235.459-.236.694-.658.236-.429.236-.996 0-.575-.236-.99a1.6 1.6 0 0 0-.694-.652q-.459-.23-1.129-.23h-1.473V43.5zm12.895 3.477q-.532 0-1.003-.084a4 4 0 0 1-.809-.212l.652-2.143q.435.145.785.17.357.023.61-.115.26-.133.398-.477l.115-.278-3.296-9.61h3.09l1.71 6.616h.096l1.733-6.617h3.109l-3.496 10.16q-.253.762-.718 1.34a3.1 3.1 0 0 1-1.19.918q-.724.332-1.786.332m8.322-3.477V31.136h5.107q1.388 0 2.396.544 1.014.537 1.564 1.503.55.96.55 2.233 0 1.28-.562 2.24-.556.954-1.588 1.48-1.032.525-2.45.524h-3.152v-2.354h2.596q.675 0 1.129-.235.459-.236.694-.658.235-.429.235-.996 0-.575-.235-.99a1.6 1.6 0 0 0-.694-.652q-.459-.23-1.13-.23h-1.472V43.5zM96.23 31.136V43.5h-2.989V31.136z"/></g><defs><filter id="b" width="51.733" height="51.429" x="6.134" y="2.286" color-interpolation-filters="sRGB" filterUnits="userSpaceOnUse"><feFlood flood-opacity="0" result="BackgroundImageFix"/><feColorMatrix in="SourceAlpha" result="hardAlpha" values="0 0 0 0 0 0 0 0 0 0 0 0 0 0 0 0 0 0 127 0"/><feOffset/><feGaussianBlur stdDeviation="2.857"/><feComposite in2="hardAlpha" operator="out"/><feColorMatrix values="0 0 0 0 0 0 0 0 0 0 0 0 0 0 0 0 0 0 0.25 0"/><feBlend in2="BackgroundImageFix" result="effect1_dropShadow_48_2"/><feBlend in="SourceGraphic" in2="effect1_dropShadow_48_2" result="shape"/></filter><filter id="c" width="103.2" height="48.677" x="54.4" y="3.9" color-interpolation-filters="sRGB" filterUnits="userSpaceOnUse"><feFlood flood-opacity="0" result="BackgroundImageFix"/><feColorMatrix in="SourceAlpha" result="hardAlpha" values="0 0 0 0 0 0 0 0 0 0 0 0 0 0 0 0 0 0 127 0"/><feOffset/><feGaussianBlur stdDeviation="2.8"/><feComposite in2="hardAlpha" operator="out"/><feColorMatrix values="0 0 0 0 0 0 0 0 0 0 0 0 0 0 0 0 0 0 0.25 0"/><feBlend in2="BackgroundImageFix" result="effect1_dropShadow_48_2"/><feBlend in="SourceGraphic" in2="effect1_dropShadow_48_2" result="shape"/></filter><linearGradient id="a" x1="82" x2="82" y1="0" y2="56" gradientUnits="userSpaceOnUse"><stop stop-color="#001f31"/><stop offset="1" stop-color="#00121d"/></linearGradient></defs></svg>