<svg xmlns="http://www.w3.org/2000/svg" width="174" height="56" fill="none" viewBox="0 0 174 56"><rect width="174" height="56" fill="url(#a)" rx="8"/><rect width="171.9" height="53.9" x="1.05" y="1.05" stroke="#fff" stroke-opacity=".15" stroke-width="2.1" rx="6.95"/><g filter="url(#b)"><path fill="url(#c)" d="M8.264 30.242c-.1 0-.181.085-.194.206l-.356 2.923.356 2.873c.013.121.093.206.194.206.099 0 .179-.084.194-.205l.421-2.874-.42-2.924c-.016-.12-.097-.205-.195-.205m1.998-1.598c-.017-.125-.1-.212-.202-.212s-.188.09-.202.212l-.478 4.727.478 4.622c.013.124.098.214.202.214.102 0 .185-.087.201-.213l.544-4.623zm7.524-4.36c-.196 0-.358.174-.367.395l-.38 8.696.38 5.62c.01.22.171.393.367.393s.356-.174.368-.394v.002l.43-5.62-.43-8.697c-.012-.22-.173-.394-.368-.394m-3.894 3.023c-.15 0-.274.13-.285.304l-.429 5.762.428 5.574c.012.173.135.303.286.303.149 0 .271-.13.284-.303l.487-5.574-.487-5.763c-.013-.173-.135-.303-.284-.303m7.851 12.08c.243 0 .44-.212.45-.484l.374-5.525-.373-11.578c-.01-.271-.207-.484-.45-.484-.245 0-.443.213-.451.485l-.33 11.576.33 5.528c.008.27.206.482.45.482m8.102.026c.334 0 .61-.298.616-.665l.26-5.367-.26-13.371c-.005-.366-.282-.665-.616-.665-.335 0-.611.298-.616.666l-.233 13.366.233 5.375c.005.363.282.661.616.661m-4.082-.02c.291 0 .526-.254.534-.576v.004l.316-5.442-.317-11.661c-.008-.323-.242-.575-.533-.575-.293 0-.528.252-.534.575l-.282 11.662.283 5.44c.006.32.24.572.533.572m-9.932-.052c.173 0 .313-.15.326-.347l.459-5.621-.459-5.347c-.012-.198-.152-.347-.326-.347s-.315.15-.326.35l-.404 5.344.404 5.62c.011.198.15.348.326.348m-3.863-.308c.126 0 .229-.108.243-.257l.515-5.404-.514-5.608c-.015-.15-.118-.258-.244-.258-.128 0-.23.108-.244.258l-.453 5.608.453 5.403c.013.15.115.258.244.258m15.828-17.51c-.316 0-.569.273-.575.621l-.257 11.236.257 5.407c.006.344.259.616.575.616s.568-.272.575-.62v.004l.288-5.406-.288-11.238c-.007-.347-.26-.62-.575-.62M19.757 39.4c.219 0 .399-.193.41-.44l.4-5.582-.4-10.685c-.012-.247-.191-.44-.41-.44-.22 0-.4.193-.41.44l-.354 10.685.355 5.585c.01.244.189.437.41.437m4.48-.527v-.003l.345-5.49-.345-11.968c-.008-.297-.225-.53-.492-.53-.268 0-.484.232-.492.53l-.306 11.967.307 5.493c.007.294.223.527.491.527s.483-.233.492-.529zM50.312 26.48c-.819 0-1.6.18-2.31.503-.476-5.835-4.992-10.412-10.5-10.412a10 10 0 0 0-3.82.774c-.452.19-.572.384-.576.761v20.547c.005.396.288.726.645.765.015.002 16.454.01 16.56.01 3.3 0 5.975-2.898 5.975-6.473 0-3.576-2.675-6.475-5.974-6.475m-18.427-8.392c-.359 0-.654.32-.659.712l-.27 14.583.27 5.293c.005.386.3.705.659.705.358 0 .652-.319.657-.71v.005l.294-5.293-.294-14.584c-.005-.391-.3-.71-.657-.71"/></g><g filter="url(#d)"><path fill="#e8e8e8" d="M62.261 24.5h-1.863l4.187-11.636h2.029L70.8 24.5h-1.864l-3.29-9.523h-.09zm.313-4.557h6.045v1.477h-6.045zm16.143-4.17L75.552 24.5h-1.818l-3.17-8.727h1.824l2.21 6.716h.09l2.205-6.716zm3.887 8.92a3.6 3.6 0 0 1-1.5-.307 2.53 2.53 0 0 1-1.063-.903q-.386-.591-.386-1.449 0-.739.284-1.216.285-.477.767-.756a4 4 0 0 1 1.08-.42q.596-.142 1.215-.216l1.273-.148q.49-.061.71-.198.222-.137.222-.444v-.04q0-.744-.42-1.153-.415-.41-1.24-.409-.857 0-1.351.38-.49.376-.677.836l-1.596-.364q.284-.795.83-1.284.551-.495 1.266-.716.717-.227 1.506-.227.523 0 1.108.125.59.12 1.102.443.517.324.847.926.33.597.33 1.552V24.5h-1.66v-1.193h-.068q-.165.33-.494.648-.33.318-.847.528t-1.238.21m.369-1.364q.705 0 1.204-.278a1.95 1.95 0 0 0 .768-.727q.267-.454.267-.972v-1.125q-.091.091-.353.17-.255.075-.585.131-.33.052-.642.097l-.523.068q-.494.063-.903.21-.403.148-.648.427-.238.272-.238.727 0 .63.466.954.465.32 1.187.319m6.2 1.171v-8.727h1.7V24.5zm.858-10.074a1.08 1.08 0 0 1-.761-.295.96.96 0 0 1-.313-.716q0-.421.313-.716.318-.3.761-.301.444 0 .756.3a.94.94 0 0 1 .318.717.95.95 0 0 1-.318.716 1.06 1.06 0 0 1-.756.295m4.825-1.562V24.5h-1.698V12.864zm4.826 11.83a3.6 3.6 0 0 1-1.5-.308 2.53 2.53 0 0 1-1.063-.903q-.386-.591-.386-1.449 0-.739.284-1.216t.767-.756a4 4 0 0 1 1.08-.42q.596-.142 1.216-.216l1.272-.148q.49-.061.71-.198.222-.137.222-.444v-.04q0-.744-.42-1.153-.415-.41-1.239-.409-.858 0-1.352.38-.489.376-.676.836L97 17.886q.284-.795.83-1.284.551-.495 1.267-.716.716-.227 1.505-.227.523 0 1.108.125.592.12 1.102.443.517.324.847.926.33.597.33 1.552V24.5h-1.659v-1.193h-.069q-.165.33-.494.648-.33.318-.847.528t-1.238.21m.369-1.364q.704 0 1.205-.279.505-.278.767-.727.267-.454.267-.972v-1.125q-.091.091-.353.17-.255.075-.585.131-.329.052-.642.097l-.523.068a4.2 4.2 0 0 0-.903.21q-.403.148-.648.427-.238.272-.238.727 0 .63.466.954.465.32 1.187.319m6.337 1.17V12.864h1.699v4.323h.102q.147-.272.426-.63t.773-.625q.494-.273 1.307-.273 1.056 0 1.886.534.83.535 1.301 1.54.477 1.005.477 2.42t-.471 2.427q-.472 1.005-1.296 1.55-.824.54-1.88.54-.796 0-1.302-.267a2.5 2.5 0 0 1-.784-.625 5 5 0 0 1-.437-.636h-.142V24.5zm1.665-4.364q0 .921.267 1.614t.772 1.085q.506.387 1.239.387.761 0 1.273-.404.511-.41.772-1.108.267-.699.267-1.574 0-.863-.261-1.55-.255-.689-.773-1.086-.511-.398-1.278-.398-.739 0-1.25.381-.506.38-.767 1.063-.261.681-.261 1.59m9.913-7.272V24.5h-1.699V12.864zm6.047 11.812q-1.29 0-2.222-.551a3.74 3.74 0 0 1-1.432-1.562q-.5-1.012-.5-2.37 0-1.341.5-2.364a3.9 3.9 0 0 1 1.409-1.596q.91-.574 2.125-.574.74 0 1.432.244.693.244 1.245.768.55.522.869 1.357.318.83.318 2.018v.602h-6.937v-1.273h5.272q0-.67-.272-1.187a2.07 2.07 0 0 0-.767-.824q-.49-.302-1.148-.302-.716 0-1.25.353a2.36 2.36 0 0 0-.818.909q-.284.556-.284 1.21v.994q0 .876.306 1.489.313.615.87.938.557.318 1.301.318.483 0 .88-.137.399-.142.688-.42.29-.279.443-.688l1.608.29q-.194.71-.693 1.244-.494.529-1.244.824-.745.29-1.699.29m13.54 0q-1.228 0-2.143-.562a3.8 3.8 0 0 1-1.42-1.574q-.506-1.011-.506-2.364 0-1.358.506-2.375a3.8 3.8 0 0 1 1.42-1.58q.915-.561 2.143-.562 1.227 0 2.142.563a3.8 3.8 0 0 1 1.42 1.58q.506 1.016.506 2.374 0 1.353-.506 2.364a3.8 3.8 0 0 1-1.42 1.574q-.915.562-2.142.562m.005-1.426q.796 0 1.318-.42.523-.42.773-1.12.256-.699.256-1.54 0-.835-.256-1.534a2.5 2.5 0 0 0-.773-1.13q-.523-.426-1.318-.427-.801 0-1.329.427a2.54 2.54 0 0 0-.779 1.13q-.25.7-.25 1.535 0 .84.25 1.54.256.697.779 1.119.528.42 1.329.42m7.658-3.932V24.5h-1.699v-8.727h1.631v1.42h.108q.3-.693.943-1.114.648-.42 1.63-.42.893 0 1.563.375.67.37 1.04 1.102.369.733.369 1.813V24.5h-1.699v-5.347q0-.948-.494-1.482-.495-.54-1.358-.54-.59 0-1.051.255-.455.255-.722.75-.261.489-.261 1.182"/><path fill="url(#e)" d="M67.619 34.843q-.06-.665-.538-1.032-.47-.375-1.346-.375-.579 0-.966.151-.385.151-.58.417a1 1 0 0 0-.199.598.9.9 0 0 0 .109.489q.127.21.362.374.241.157.58.277.338.122.76.212l1.063.241a7.5 7.5 0 0 1 1.618.532q.706.331 1.183.79.484.459.73 1.057.248.597.254 1.34-.006 1.17-.591 2.01t-1.685 1.286q-1.093.447-2.638.447-1.552 0-2.704-.465-1.154-.464-1.794-1.413-.639-.947-.657-2.396h2.861q.036.597.32.996t.779.604q.5.204 1.159.205.603 0 1.026-.163.429-.163.658-.453a1.07 1.07 0 0 0 .236-.664.92.92 0 0 0-.218-.598q-.21-.254-.652-.434-.435-.188-1.11-.344l-1.292-.302q-1.606-.369-2.53-1.19-.924-.825-.917-2.233-.007-1.148.615-2.01.622-.864 1.72-1.347 1.1-.483 2.506-.483 1.437 0 2.493.49 1.063.482 1.648 1.358.586.875.598 2.028zm8.868 8.832q-1.461 0-2.511-.598a4.1 4.1 0 0 1-1.612-1.678q-.562-1.08-.562-2.505 0-1.432.562-2.505.567-1.08 1.611-1.679 1.05-.603 2.512-.604 1.461 0 2.505.604 1.05.598 1.612 1.678.567 1.075.567 2.506 0 1.425-.567 2.505a4.07 4.07 0 0 1-1.612 1.678q-1.044.598-2.505.598m.018-2.228q.531 0 .9-.326.368-.326.56-.905.2-.58.2-1.34 0-.773-.2-1.353-.192-.58-.56-.905a1.3 1.3 0 0 0-.9-.326 1.38 1.38 0 0 0-.93.326q-.374.327-.573.905-.193.58-.193 1.353 0 .76.193 1.34.2.58.573.905.381.327.93.326m12.161-1.95v-5.27h2.946V43.5H88.8v-1.727h-.096a2.7 2.7 0 0 1-1.05 1.353q-.738.495-1.782.495-.948 0-1.666-.435a2.96 2.96 0 0 1-1.117-1.213q-.398-.785-.404-1.836v-5.91h2.952v5.33q.006.755.398 1.19.393.435 1.069.435.44 0 .79-.193.357-.2.562-.574.21-.38.211-.917m7.777-1.285V43.5h-2.952v-9.273H96.3v1.703h.102a2.6 2.6 0 0 1 1.05-1.334q.743-.49 1.77-.49.977 0 1.696.441.724.435 1.123 1.22.404.779.398 1.823v5.91h-2.952v-5.33q.006-.773-.392-1.208-.393-.435-1.093-.435-.465 0-.821.206a1.36 1.36 0 0 0-.543.573q-.188.375-.194.906m11.209 5.42a3.4 3.4 0 0 1-1.865-.53q-.839-.532-1.34-1.594t-.501-2.638q0-1.636.519-2.693.52-1.056 1.358-1.563a3.47 3.47 0 0 1 1.817-.508q.73 0 1.25.254.52.247.857.64.339.392.513.815h.061v-4.679h2.952V43.5h-2.922v-1.503h-.091a2.9 2.9 0 0 1-.531.803q-.344.374-.863.603-.513.23-1.214.23m1.027-2.3q.537 0 .917-.301.38-.308.586-.863t.205-1.304q0-.762-.205-1.31-.2-.55-.586-.846a1.45 1.45 0 0 0-.917-.295q-.549 0-.93.302-.38.3-.579.85-.194.55-.194 1.299t.2 1.304q.199.555.573.863.381.302.93.302m10.789 2.343q-1.467 0-2.517-.604a4.1 4.1 0 0 1-1.606-1.678q-.561-1.08-.561-2.5 0-1.424.561-2.498a4.1 4.1 0 0 1 1.612-1.685q1.05-.603 2.505-.604 1.286 0 2.24.465a3.56 3.56 0 0 1 1.497 1.316q.543.846.574 1.987h-2.759q-.086-.713-.483-1.117-.393-.405-1.027-.405-.513 0-.899.29-.387.284-.604.845-.211.556-.211 1.377 0 .82.211 1.388.217.561.604.851.386.285.899.284.411 0 .725-.175.32-.175.525-.513.205-.344.26-.833h2.759q-.043 1.146-.574 2.004a3.55 3.55 0 0 1-1.479 1.334q-.947.471-2.252.471m8.767-12.539V43.5h-2.952V31.136zm6.208 12.54q-1.461 0-2.511-.599a4.1 4.1 0 0 1-1.612-1.678q-.562-1.08-.562-2.505 0-1.432.562-2.505a4.07 4.07 0 0 1 1.612-1.679q1.05-.603 2.511-.604 1.461 0 2.505.604 1.05.598 1.612 1.678.567 1.075.568 2.506 0 1.425-.568 2.505a4.07 4.07 0 0 1-1.612 1.678q-1.044.598-2.505.598m.018-2.229q.531 0 .899-.326.369-.326.562-.905.2-.58.199-1.34 0-.773-.199-1.353-.193-.58-.562-.905a1.3 1.3 0 0 0-.899-.326q-.549 0-.93.326-.373.327-.573.905-.193.58-.193 1.353 0 .76.193 1.34.2.58.573.905.381.327.93.326m12.161-1.95v-5.27h2.946V43.5h-2.813v-1.727h-.096a2.7 2.7 0 0 1-1.051 1.353q-.736.495-1.781.495-.948 0-1.666-.435a2.96 2.96 0 0 1-1.117-1.213q-.398-.785-.404-1.836v-5.91h2.952v5.33q.006.755.398 1.19.393.435 1.069.435.44 0 .791-.193a1.43 1.43 0 0 0 .561-.574q.211-.38.211-.917m8.212 4.136a3.4 3.4 0 0 1-1.865-.531q-.84-.532-1.341-1.594t-.501-2.638q0-1.636.52-2.693.519-1.056 1.358-1.563a3.47 3.47 0 0 1 1.817-.508q.73 0 1.25.254.52.247.857.64.338.392.513.815h.06v-4.679h2.952V43.5h-2.921v-1.503h-.091a2.9 2.9 0 0 1-.531.803q-.344.374-.863.603-.514.23-1.214.23m1.026-2.3q.538 0 .918-.302.38-.308.586-.863.204-.555.205-1.304 0-.762-.205-1.31-.2-.55-.586-.846a1.45 1.45 0 0 0-.918-.295q-.55 0-.929.302-.38.3-.58.85-.193.55-.193 1.299t.199 1.304.574.863q.38.302.929.302"/></g><defs><linearGradient id="a" x1="87" x2="87" y1="0" y2="56" gradientUnits="userSpaceOnUse"><stop stop-color="#402806"/><stop offset="1" stop-color="#270802"/></linearGradient><linearGradient id="c" x1="31.998" x2="31.998" y1="16.567" y2="46.569" gradientUnits="userSpaceOnUse"><stop stop-color="#f79810"/><stop offset="1" stop-color="#f8310e"/></linearGradient><linearGradient id="e" x1="111" x2="111" y1="28.5" y2="46.5" gradientUnits="userSpaceOnUse"><stop stop-color="#f4b252"/><stop offset="1" stop-color="#f4644a"/></linearGradient><filter id="b" width="60" height="51.429" x="2" y="2.286" color-interpolation-filters="sRGB" filterUnits="userSpaceOnUse"><feFlood flood-opacity="0" result="BackgroundImageFix"/><feColorMatrix in="SourceAlpha" result="hardAlpha" values="0 0 0 0 0 0 0 0 0 0 0 0 0 0 0 0 0 0 127 0"/><feOffset/><feGaussianBlur stdDeviation="2.857"/><feComposite in2="hardAlpha" operator="out"/><feColorMatrix values="0 0 0 0 0 0 0 0 0 0 0 0 0 0 0 0 0 0 0.25 0"/><feBlend in2="BackgroundImageFix" result="effect1_dropShadow_1_17"/><feBlend in="SourceGraphic" in2="effect1_dropShadow_1_17" result="shape"/></filter><filter id="d" width="113.2" height="48.2" x="54.4" y="3.9" color-interpolation-filters="sRGB" filterUnits="userSpaceOnUse"><feFlood flood-opacity="0" result="BackgroundImageFix"/><feColorMatrix in="SourceAlpha" result="hardAlpha" values="0 0 0 0 0 0 0 0 0 0 0 0 0 0 0 0 0 0 127 0"/><feOffset/><feGaussianBlur stdDeviation="2.8"/><feComposite in2="hardAlpha" operator="out"/><feColorMatrix values="0 0 0 0 0 0 0 0 0 0 0 0 0 0 0 0 0 0 0.25 0"/><feBlend in2="BackgroundImageFix" result="effect1_dropShadow_1_17"/><feBlend in="SourceGraphic" in2="effect1_dropShadow_1_17" result="shape"/></filter></defs></svg>