<svg xmlns="http://www.w3.org/2000/svg" width="164" height="56" fill="none" viewBox="0 0 164 56"><rect width="164" height="56" fill="url(#a)" rx="8"/><rect width="161.9" height="53.9" x="1.05" y="1.05" stroke="#fff" stroke-opacity=".15" stroke-width="2.1" rx="6.95"/><g filter="url(#b)"><path fill="url(#c)" fill-rule="evenodd" d="M32.75 10.941c-.445.142-.786.4-1.173.883-.11.136-.297.184-.54.138-.29-.054-1.388-.125-4.261-.275-.84-.044-1.01-.02-1.16.162-.36.436-.264 1.84.148 2.145.117.087.755.1 1.383.028.338-.04.676-.074 1.45-.149l1.608-.159c.302-.03.744-.095.984-.144l.436-.091.13.087c.38.255.485.44.43.76-.102.6-.112.93-.097 3.05.018 2.618.079 2.387-.645 2.444-.453.035-.63.164-.709.518-.038.169-.029 1.784.013 2.225.026.276-.192.434-.69.499-.488.063-.606.343-.502 1.19.023.185-.089.334-.378.503a.478.478 0 0 0-.111.735c.224.237.236.355.058.613-.185.268-.19.31-.191 1.95-.002 1.648-.023 1.918-.168 2.134-.21.312-1.24 1.26-1.482 1.365-.074.032-.701.05-2.38.066-1.255.013-2.325.035-2.378.05-.216.059-.415-.01-.608-.21-.27-.28-.24-.276-2.088-.257-1.817.019-1.798.021-1.841-.238a2 2 0 0 0-.197-.643c-.224-.49-.423-.585-1.05-.506-.4.05-.49.158-.588.708-.122.69-.25.833-.616.695-.24-.09-.277-.092-1.224-.06a1.4 1.4 0 0 1-.236-.02.6.6 0 0 0-.265.023 1.8 1.8 0 0 1-.4.054c-.653.02-.762.053-.911.28-.33.501-.607 3.302-.46 4.637.167 1.521.377 2.242.692 2.373.432.178 2.298.261 2.788.123l.253-.072.114.081c.148.105.228.293.299.704.085.493.172.603.535.671.247.047.582.029.733-.04.318-.144.495-1.133.303-1.688-.11-.317-.028-.393.117-.107.203.401.411.441 2.29.441 1.7 0 1.577.03 1.815-.438.192-.377.279-.446.547-.436.11.004.996.02 1.969.037 1.94.033 1.755.012 2.368.282 1.606.707 3.365 1.105 5.569 1.261 1.212.086 2.879.05 3.924-.086 1.88-.244 3.12-.557 4.402-1.112.935-.405 1.349-.19 1.54.798.15.772.115.886-.338 1.07-.638.258-1.033.525-1.127.76-.069.169-.037.355.146.862.05.136.094.335.1.441.016.303.048.428.155.62.055.097.11.255.122.352.03.224.115.49.216.669.048.085.088.233.102.375.063.665.35.858 1.435.966.127.013.268.029.314.036 2.203.337 5.247-.583 7.436-2.248 1.02-.776 1.277-1.144 1.077-1.544a.8.8 0 0 1-.059-.305c0-.204-.102-.52-.215-.663a.55.55 0 0 1-.086-.247 1.7 1.7 0 0 0-.213-.598.4.4 0 0 1-.051-.189c0-.13-.087-.37-.185-.512a1.2 1.2 0 0 1-.117-.266c-.144-.486-.968-.78-1.802-.643-.715.117-.763.091-.97-.515-.657-1.928-1.552-3.35-2.587-4.115-.394-.29-.54-.357-2.011-.917-1.443-.549-1.808-.702-2.469-1.038a16 16 0 0 1-.972-.528c-2.136-1.375-1.906-1.015-1.983-3.1-.053-1.402-.064-1.457-.339-1.678-.223-.179-.255-.261-.194-.494.107-.398.051-.575-.245-.776-.232-.158-.264-.225-.228-.48.121-.86-.017-1.17-.55-1.227-.323-.035-.459-.078-.55-.176l-.084-.088-.003-1.261c-.004-1.675.008-1.65-.763-1.687-.55-.027-.678-.058-.793-.195l-.09-.108v-2.37c-.001-1.376-.016-2.5-.037-2.682-.043-.368-.037-.38.29-.688.251-.235.41-.33.507-.304.568.154.476.147 3.588.284 2.388.105 2.368.107 2.563-.283.256-.511.083-1.893-.254-2.036-.116-.048-.572-.046-1 .005-.318.038-.401.047-1.945.216-1.918.21-1.956.216-2.427.298-.462.08-.49.071-.754-.248-.566-.683-1.408-.966-2.159-.727" clip-rule="evenodd"/></g><g filter="url(#d)"><path fill="#e8e8e8" d="M62.261 24.5h-1.863l4.187-11.636h2.029L70.8 24.5h-1.864l-3.29-9.523h-.09zm.313-4.557h6.045v1.477h-6.045zm16.143-4.17L75.552 24.5h-1.818l-3.17-8.727h1.824l2.21 6.716h.09l2.205-6.716zm3.887 8.92a3.6 3.6 0 0 1-1.5-.307 2.53 2.53 0 0 1-1.063-.903q-.386-.591-.386-1.449 0-.739.284-1.216.285-.477.767-.756a4 4 0 0 1 1.08-.42q.596-.142 1.215-.216l1.273-.148q.49-.061.71-.198.222-.137.222-.444v-.04q0-.744-.42-1.153-.415-.41-1.24-.409-.857 0-1.351.38-.49.376-.677.836l-1.596-.364q.284-.795.83-1.284.551-.495 1.266-.716.717-.227 1.506-.227.523 0 1.108.125.59.12 1.102.443.517.324.847.926.33.597.33 1.552V24.5h-1.66v-1.193h-.068q-.165.33-.494.648-.33.318-.847.528t-1.238.21m.369-1.364q.705 0 1.204-.278a1.95 1.95 0 0 0 .768-.727q.267-.454.267-.972v-1.125q-.091.091-.353.17-.255.075-.585.131-.33.052-.642.097l-.523.068q-.494.063-.903.21-.403.148-.648.427-.238.272-.238.727 0 .63.466.954.465.32 1.187.319m6.2 1.171v-8.727h1.7V24.5zm.858-10.074a1.08 1.08 0 0 1-.761-.295.96.96 0 0 1-.313-.716q0-.421.313-.716.318-.3.761-.301.444 0 .756.3a.94.94 0 0 1 .318.717.95.95 0 0 1-.318.716 1.06 1.06 0 0 1-.756.295m4.825-1.562V24.5h-1.698V12.864zm4.826 11.83a3.6 3.6 0 0 1-1.5-.308 2.53 2.53 0 0 1-1.063-.903q-.386-.591-.386-1.449 0-.739.284-1.216t.767-.756a4 4 0 0 1 1.08-.42q.596-.142 1.216-.216l1.272-.148q.49-.061.71-.198.222-.137.222-.444v-.04q0-.744-.42-1.153-.415-.41-1.239-.409-.858 0-1.352.38-.489.376-.676.836L97 17.886q.284-.795.83-1.284.551-.495 1.267-.716.716-.227 1.505-.227.523 0 1.108.125.592.12 1.102.443.517.324.847.926.33.597.33 1.552V24.5h-1.659v-1.193h-.069q-.165.33-.494.648-.33.318-.847.528t-1.238.21m.369-1.364q.704 0 1.205-.279.505-.278.767-.727.267-.454.267-.972v-1.125q-.091.091-.353.17-.255.075-.585.131-.329.052-.642.097l-.523.068a4.2 4.2 0 0 0-.903.21q-.403.148-.648.427-.238.272-.238.727 0 .63.466.954.465.32 1.187.319m6.337 1.17V12.864h1.699v4.323h.102q.147-.272.426-.63t.773-.625q.494-.273 1.307-.273 1.056 0 1.886.534.83.535 1.301 1.54.477 1.005.477 2.42t-.471 2.427q-.472 1.005-1.296 1.55-.824.54-1.88.54-.796 0-1.302-.267a2.5 2.5 0 0 1-.784-.625 5 5 0 0 1-.437-.636h-.142V24.5zm1.665-4.364q0 .921.267 1.614t.772 1.085q.506.387 1.239.387.761 0 1.273-.404.511-.41.772-1.108.267-.699.267-1.574 0-.863-.261-1.55-.255-.689-.773-1.086-.511-.398-1.278-.398-.739 0-1.25.381-.506.38-.767 1.063-.261.681-.261 1.59m9.913-7.272V24.5h-1.699V12.864zm6.047 11.812q-1.29 0-2.222-.551a3.74 3.74 0 0 1-1.432-1.562q-.5-1.012-.5-2.37 0-1.341.5-2.364a3.9 3.9 0 0 1 1.409-1.596q.91-.574 2.125-.574.74 0 1.432.244.693.244 1.245.768.55.522.869 1.357.318.83.318 2.018v.602h-6.937v-1.273h5.272q0-.67-.272-1.187a2.07 2.07 0 0 0-.767-.824q-.49-.302-1.148-.302-.716 0-1.25.353a2.36 2.36 0 0 0-.818.909q-.284.556-.284 1.21v.994q0 .876.306 1.489.313.615.87.938.557.318 1.301.318.483 0 .88-.137.399-.142.688-.42.29-.279.443-.688l1.608.29q-.194.71-.693 1.244-.494.529-1.244.824-.745.29-1.699.29m13.54 0q-1.228 0-2.143-.562a3.8 3.8 0 0 1-1.42-1.574q-.506-1.011-.506-2.364 0-1.358.506-2.375a3.8 3.8 0 0 1 1.42-1.58q.915-.561 2.143-.562 1.227 0 2.142.563a3.8 3.8 0 0 1 1.42 1.58q.506 1.016.506 2.374 0 1.353-.506 2.364a3.8 3.8 0 0 1-1.42 1.574q-.915.562-2.142.562m.005-1.426q.796 0 1.318-.42.523-.42.773-1.12.256-.699.256-1.54 0-.835-.256-1.534a2.5 2.5 0 0 0-.773-1.13q-.523-.426-1.318-.427-.801 0-1.329.427a2.54 2.54 0 0 0-.779 1.13q-.25.7-.25 1.535 0 .84.25 1.54.256.697.779 1.119.528.42 1.329.42m7.658-3.932V24.5h-1.699v-8.727h1.631v1.42h.108q.3-.693.943-1.114.648-.42 1.63-.42.893 0 1.563.375.67.37 1.04 1.102.369.733.369 1.813V24.5h-1.699v-5.347q0-.948-.494-1.482-.495-.54-1.358-.54-.59 0-1.051.255-.455.255-.722.75-.261.489-.261 1.182"/><path fill="url(#e)" d="M67.619 34.843q-.06-.665-.538-1.032-.47-.375-1.346-.375-.579 0-.966.151-.385.151-.58.417a1 1 0 0 0-.199.598.9.9 0 0 0 .109.489q.127.21.362.374.241.157.58.277.338.122.76.212l1.063.241a7.5 7.5 0 0 1 1.618.532q.706.331 1.183.79.484.459.73 1.057.248.597.254 1.34-.006 1.17-.591 2.01t-1.685 1.286q-1.093.447-2.638.447-1.552 0-2.704-.465-1.154-.464-1.794-1.413-.639-.947-.657-2.396h2.861q.036.597.32.996t.779.604q.5.204 1.159.205.603 0 1.026-.163.429-.163.658-.453a1.07 1.07 0 0 0 .236-.664.92.92 0 0 0-.218-.598q-.21-.254-.652-.434-.435-.188-1.11-.344l-1.292-.302q-1.606-.369-2.53-1.19-.924-.825-.917-2.233-.007-1.148.615-2.01.622-.864 1.72-1.347 1.1-.483 2.506-.483 1.437 0 2.493.49 1.063.482 1.648 1.358.586.875.598 2.028zm4.54 12.134v-12.75h2.921v1.588h.09q.182-.422.514-.815.338-.393.857-.64.525-.254 1.256-.254.966 0 1.805.508.845.507 1.364 1.563t.52 2.693q0 1.575-.502 2.638-.494 1.063-1.34 1.594a3.4 3.4 0 0 1-1.865.53q-.7 0-1.214-.229a2.6 2.6 0 0 1-.863-.603 2.9 2.9 0 0 1-.531-.803h-.06v4.98zm2.891-8.113q0 .748.2 1.304.204.555.585.863.386.302.924.302.543 0 .923-.302.38-.308.574-.863.198-.555.199-1.304 0-.75-.2-1.298-.193-.55-.573-.852-.374-.3-.924-.301-.543 0-.923.295-.38.297-.586.846-.2.548-.199 1.31m7.982 4.636v-9.273h2.952V43.5zm1.48-10.353q-.622 0-1.07-.41a1.32 1.32 0 0 1-.446-1.003q0-.579.447-.99a1.5 1.5 0 0 1 1.068-.417q.628 0 1.069.417.447.411.447.99 0 .585-.447 1.002-.44.41-1.069.41m7.674 14.023q-1.322 0-2.264-.368-.941-.367-1.479-1.008a2.8 2.8 0 0 1-.646-1.449l2.795-.157q.078.284.29.495.218.212.561.326.35.115.821.115.743 0 1.226-.362.489-.356.489-1.25v-1.63h-.103a2.2 2.2 0 0 1-.531.767 2.5 2.5 0 0 1-.888.531q-.525.193-1.207.193a3.76 3.76 0 0 1-1.86-.47q-.838-.478-1.346-1.474-.5-1.002-.5-2.577 0-1.624.519-2.675.52-1.056 1.358-1.563a3.47 3.47 0 0 1 1.817-.508q.73 0 1.25.254.525.247.863.64.337.392.513.815h.085v-1.588h2.94v9.31q0 1.176-.592 1.985t-1.654 1.226q-1.063.422-2.457.422m.09-5.946q.538 0 .918-.284.38-.283.586-.815.204-.53.205-1.273 0-.755-.205-1.298-.2-.55-.586-.846a1.45 1.45 0 0 0-.918-.295q-.549 0-.93.302-.38.3-.579.85-.193.544-.193 1.287t.2 1.273q.198.532.573.815.38.284.93.284m10.823 2.451q-1.461 0-2.511-.598a4.1 4.1 0 0 1-1.612-1.678q-.561-1.08-.561-2.505 0-1.432.56-2.505.569-1.08 1.613-1.679 1.05-.603 2.511-.604 1.461 0 2.505.604a4 4 0 0 1 1.612 1.678q.568 1.075.568 2.506 0 1.425-.568 2.505a4.07 4.07 0 0 1-1.612 1.678q-1.044.598-2.505.598m.018-2.228q.531 0 .9-.326.368-.326.561-.905.2-.58.199-1.34 0-.773-.199-1.353-.194-.58-.561-.905a1.3 1.3 0 0 0-.9-.326q-.55 0-.929.326-.375.327-.574.905-.193.58-.193 1.353 0 .76.193 1.34.2.58.574.905.38.327.929.326m11.413-7.22V36.4h-5.85v-2.174zm-4.624-2.221h2.952v8.578q0 .272.084.44a.53.53 0 0 0 .26.236q.169.067.404.067.17 0 .357-.03.192-.038.289-.06l.447 2.13q-.211.06-.598.151-.38.09-.911.115-1.038.048-1.781-.242a2.3 2.3 0 0 1-1.129-.917q-.387-.622-.374-1.564z"/></g><defs><linearGradient id="a" x1="82" x2="82" y1="0" y2="56" gradientUnits="userSpaceOnUse"><stop stop-color="#342a1d"/><stop offset="1" stop-color="#1c1610"/></linearGradient><linearGradient id="c" x1="32" x2="32" y1="10.857" y2="45.143" gradientUnits="userSpaceOnUse"><stop stop-color="#cea260"/><stop offset="1" stop-color="#81562e"/></linearGradient><linearGradient id="e" x1="88" x2="88" y1="28.5" y2="46.5" gradientUnits="userSpaceOnUse"><stop stop-color="#e9c48d"/><stop offset="1" stop-color="#a2825d"/></linearGradient><filter id="b" width="51.429" height="51.429" x="6.286" y="2.286" color-interpolation-filters="sRGB" filterUnits="userSpaceOnUse"><feFlood flood-opacity="0" result="BackgroundImageFix"/><feColorMatrix in="SourceAlpha" result="hardAlpha" values="0 0 0 0 0 0 0 0 0 0 0 0 0 0 0 0 0 0 127 0"/><feOffset/><feGaussianBlur stdDeviation="2.857"/><feComposite in2="hardAlpha" operator="out"/><feColorMatrix values="0 0 0 0 0 0 0 0 0 0 0 0 0 0 0 0 0 0 0.25 0"/><feBlend in2="BackgroundImageFix" result="effect1_dropShadow_2_3368"/><feBlend in="SourceGraphic" in2="effect1_dropShadow_2_3368" result="shape"/></filter><filter id="d" width="103.2" height="48.87" x="54.4" y="3.9" color-interpolation-filters="sRGB" filterUnits="userSpaceOnUse"><feFlood flood-opacity="0" result="BackgroundImageFix"/><feColorMatrix in="SourceAlpha" result="hardAlpha" values="0 0 0 0 0 0 0 0 0 0 0 0 0 0 0 0 0 0 127 0"/><feOffset/><feGaussianBlur stdDeviation="2.8"/><feComposite in2="hardAlpha" operator="out"/><feColorMatrix values="0 0 0 0 0 0 0 0 0 0 0 0 0 0 0 0 0 0 0.25 0"/><feBlend in2="BackgroundImageFix" result="effect1_dropShadow_2_3368"/><feBlend in="SourceGraphic" in2="effect1_dropShadow_2_3368" result="shape"/></filter></defs></svg>