<svg xmlns="http://www.w3.org/2000/svg" width="134" height="56" fill="none" viewBox="0 0 134 56"><rect width="134" height="56" fill="url(#a)" rx="8"/><rect width="131.9" height="53.9" x="1.05" y="1.05" stroke="#fff" stroke-opacity=".15" stroke-width="2.1" rx="6.95"/><g filter="url(#b)"><path fill="url(#c)" fill-rule="evenodd" d="M44.964 11H19.042A4.043 4.043 0 0 0 15 15.04v25.9A4.046 4.046 0 0 0 19.042 45h25.922A4.04 4.04 0 0 0 49 40.94V15.039A4.043 4.043 0 0 0 44.964 11m-15.3 24.49a1.35 1.35 0 0 1-1.363 1.345h-5.664a1.346 1.346 0 0 1-1.34-1.346V18.62c0-.74.599-1.342 1.34-1.345h5.665a1.35 1.35 0 0 1 1.345 1.346zm13.072-7.746a1.346 1.346 0 0 1-1.362 1.346H35.71a1.35 1.35 0 0 1-1.345-1.346V18.62a1.35 1.35 0 0 1 1.345-1.346h5.665c.741.003 1.34.604 1.34 1.346z" clip-rule="evenodd"/></g><g filter="url(#d)"><path fill="#e8e8e8" d="m62.295 12.864 3.24 9.477h.13l3.238-9.477h1.898L66.614 24.5h-2.029l-4.187-11.636zM72.345 24.5v-8.727h1.699V24.5zm.858-10.074a1.08 1.08 0 0 1-.761-.295.96.96 0 0 1-.313-.716q0-.421.313-.716.318-.3.761-.301.443 0 .756.3a.94.94 0 0 1 .318.717.95.95 0 0 1-.318.716 1.06 1.06 0 0 1-.756.295m6.888 10.25q-1.29 0-2.222-.551a3.74 3.74 0 0 1-1.431-1.562q-.5-1.012-.5-2.37 0-1.341.5-2.364a3.9 3.9 0 0 1 1.409-1.596q.909-.574 2.125-.574.739 0 1.431.244t1.245.768q.55.522.869 1.357.318.83.318 2.018v.602h-6.937v-1.273h5.272q0-.67-.272-1.187a2.06 2.06 0 0 0-.767-.824q-.49-.302-1.148-.302-.716 0-1.25.353a2.36 2.36 0 0 0-.818.909q-.284.556-.284 1.21v.994q0 .876.306 1.489.314.615.87.938.557.318 1.3.318.484 0 .882-.137.397-.142.687-.42.29-.279.443-.688l1.608.29q-.194.71-.693 1.244a3.36 3.36 0 0 1-1.244.824q-.745.29-1.7.29m7.506-.176-2.569-8.727h1.756l1.71 6.409h.085l1.716-6.41h1.756l1.705 6.381h.085l1.699-6.38h1.755L94.733 24.5H93l-1.773-6.301h-.13L89.324 24.5zm19.221.176q-1.227 0-2.142-.562a3.8 3.8 0 0 1-1.42-1.574q-.506-1.011-.506-2.364 0-1.358.506-2.375a3.8 3.8 0 0 1 1.42-1.58q.915-.561 2.142-.562 1.227 0 2.142.563t1.421 1.58q.505 1.016.505 2.374 0 1.353-.505 2.364a3.8 3.8 0 0 1-1.421 1.574q-.915.562-2.142.562m.006-1.426q.796 0 1.318-.42a2.47 2.47 0 0 0 .773-1.12q.255-.699.255-1.54 0-.835-.255-1.534a2.5 2.5 0 0 0-.773-1.13q-.522-.426-1.318-.427-.8 0-1.33.427a2.54 2.54 0 0 0-.778 1.13q-.25.7-.25 1.535 0 .84.25 1.54.255.697.778 1.119.53.42 1.33.42m7.657-3.932V24.5h-1.698v-8.727h1.63v1.42h.108q.301-.693.943-1.114.648-.42 1.631-.42.892 0 1.563.375.67.37 1.039 1.102.37.733.37 1.813V24.5h-1.699v-5.347q0-.948-.494-1.482-.495-.54-1.358-.54-.591 0-1.052.255-.454.255-.721.75-.261.489-.262 1.182"/><path fill="#2684ff" d="M60.531 33.563v-2.427h10.45v2.427h-3.749V43.5h-2.946v-9.937zM71.478 43.5v-9.273h2.867v1.69h.097q.254-.917.827-1.364a2.1 2.1 0 0 1 1.334-.453q.206 0 .423.03.218.025.404.08v2.565a3 3 0 0 0-.555-.115 5 5 0 0 0-.604-.042q-.525 0-.948.235a1.7 1.7 0 0 0-.658.646 1.9 1.9 0 0 0-.235.966V43.5zm11.008.175q-1.455 0-2.511-.573a3.97 3.97 0 0 1-1.618-1.648q-.561-1.075-.562-2.554 0-1.437.568-2.511.567-1.08 1.6-1.679 1.032-.603 2.433-.604.99 0 1.81.308.821.309 1.42.912.597.604.929 1.491.332.882.332 2.023v.736h-8.06v-1.715h5.313a1.66 1.66 0 0 0-.223-.839 1.5 1.5 0 0 0-.598-.573 1.7 1.7 0 0 0-.863-.211q-.495 0-.888.223a1.68 1.68 0 0 0-.863 1.449v1.745q0 .567.224.996.223.421.633.658.411.235.978.235.393 0 .713-.109.32-.108.55-.32.228-.21.343-.519l2.71.079a3.35 3.35 0 0 1-.742 1.587q-.567.67-1.49 1.045-.925.368-2.138.368m8.86-12.539V43.5h-2.951V31.136zm4.832 0V43.5h-2.952V31.136zm6.207 12.54q-1.461 0-2.511-.599a4.1 4.1 0 0 1-1.612-1.678q-.561-1.08-.561-2.505 0-1.432.561-2.505.567-1.08 1.612-1.679 1.05-.603 2.511-.604 1.46 0 2.506.604 1.05.598 1.611 1.678.568 1.075.568 2.506 0 1.425-.568 2.505a4.07 4.07 0 0 1-1.611 1.678q-1.045.598-2.506.598m.018-2.229q.532 0 .9-.326t.561-.905q.2-.58.2-1.34 0-.773-.2-1.353-.193-.58-.561-.905a1.3 1.3 0 0 0-.9-.326q-.55 0-.929.326-.375.327-.574.905-.193.58-.193 1.353 0 .76.193 1.34.2.58.574.905.38.327.929.326"/></g><defs><linearGradient id="a" x1="67" x2="67" y1="0" y2="56" gradientUnits="userSpaceOnUse"><stop stop-color="#081f3e"/><stop offset="1" stop-color="#051428"/></linearGradient><linearGradient id="c" x1="5324.1" x2="5324.1" y1="2187" y2="11" gradientUnits="userSpaceOnUse"><stop stop-color="#0052cc"/><stop offset="1" stop-color="#2684ff"/></linearGradient><filter id="b" width="51.429" height="51.428" x="6.286" y="2.286" color-interpolation-filters="sRGB" filterUnits="userSpaceOnUse"><feFlood flood-opacity="0" result="BackgroundImageFix"/><feColorMatrix in="SourceAlpha" result="hardAlpha" values="0 0 0 0 0 0 0 0 0 0 0 0 0 0 0 0 0 0 127 0"/><feOffset/><feGaussianBlur stdDeviation="2.857"/><feComposite in2="hardAlpha" operator="out"/><feColorMatrix values="0 0 0 0 0 0 0 0 0 0 0 0 0 0 0 0 0 0 0.25 0"/><feBlend in2="BackgroundImageFix" result="effect1_dropShadow_7_249"/><feBlend in="SourceGraphic" in2="effect1_dropShadow_7_249" result="shape"/></filter><filter id="d" width="73.2" height="48.2" x="54.4" y="3.9" color-interpolation-filters="sRGB" filterUnits="userSpaceOnUse"><feFlood flood-opacity="0" result="BackgroundImageFix"/><feColorMatrix in="SourceAlpha" result="hardAlpha" values="0 0 0 0 0 0 0 0 0 0 0 0 0 0 0 0 0 0 127 0"/><feOffset/><feGaussianBlur stdDeviation="2.8"/><feComposite in2="hardAlpha" operator="out"/><feColorMatrix values="0 0 0 0 0 0 0 0 0 0 0 0 0 0 0 0 0 0 0.25 0"/><feBlend in2="BackgroundImageFix" result="effect1_dropShadow_7_249"/><feBlend in="SourceGraphic" in2="effect1_dropShadow_7_249" result="shape"/></filter></defs></svg>