<svg xmlns="http://www.w3.org/2000/svg" width="40" height="40" fill="none" viewBox="0 0 40 40"><g clip-path="url(#a)"><rect width="40" height="40" fill="url(#b)" rx="8"/><g fill="#e8e8e8" filter="url(#c)"><path d="M6 6h7v2.333H8.333V13H6zm21 0h7v7h-2.333V8.333H27zm-14 4.667h2.333V13h2.333v2.333h-2.333v2.334H13v-2.334h-2.334V13H13zm11.667 0H27V13h2.334v2.333H27v2.334h-2.333v-2.334h-2.334V13h2.334zM13 22.333h2.333v2.334h2.333V27h-2.333v2.333H13V27h-2.334v-2.333H13zm11.667 0H27v2.334h2.334V27H27v2.333h-2.333V27h-2.334v-2.333h2.334zM6 27h2.333v4.667H13V34H6zm25.667 0H34v7h-7v-2.333h4.667z"/></g></g><rect width="37.9" height="37.9" x="1.05" y="1.05" stroke="#fff" stroke-opacity=".15" stroke-width="2.1" rx="6.95"/><defs><linearGradient id="b" x1="20" x2="20" y1="0" y2="38" gradientUnits="userSpaceOnUse"><stop stop-color="#32313e"/><stop offset="1" stop-color="#272730"/></linearGradient><clipPath id="a"><rect width="40" height="40" fill="#fff" rx="8"/></clipPath><filter id="c" width="39.429" height="39.429" x=".286" y=".286" color-interpolation-filters="sRGB" filterUnits="userSpaceOnUse"><feFlood flood-opacity="0" result="BackgroundImageFix"/><feColorMatrix in="SourceAlpha" result="hardAlpha" values="0 0 0 0 0 0 0 0 0 0 0 0 0 0 0 0 0 0 127 0"/><feOffset/><feGaussianBlur stdDeviation="2.857"/><feComposite in2="hardAlpha" operator="out"/><feColorMatrix values="0 0 0 0 0 0 0 0 0 0 0 0 0 0 0 0 0 0 0.25 0"/><feBlend in2="BackgroundImageFix" result="effect1_dropShadow_67_48"/><feBlend in="SourceGraphic" in2="effect1_dropShadow_67_48" result="shape"/></filter></defs></svg>