<svg xmlns="http://www.w3.org/2000/svg" width="56" height="56" fill="none" viewBox="0 0 56 56"><rect width="56" height="56" fill="url(#a)" rx="8"/><rect width="53.9" height="53.9" x="1.05" y="1.05" stroke="#fff" stroke-opacity=".15" stroke-width="2.1" rx="6.95"/><g fill="#e8e8e8" filter="url(#b)"><path d="M8 8h10v3.333h-6.667V18H8zm30 0h10v10h-3.333v-6.667H38zm-20 6.667h3.333V18h3.334v3.333h-3.334v3.334H18v-3.334h-3.334V18H18zm16.667 0H38V18h3.334v3.333H38v3.334h-3.333v-3.334h-3.334V18h3.334zM18 31.333h3.333v3.334h3.334V38h-3.334v3.333H18V38h-3.334v-3.333H18zm16.667 0H38v3.334h3.334V38H38v3.333h-3.333V38h-3.334v-3.333h3.334zM8 38h3.333v6.667H18V48H8zm36.667 0H48v10H38v-3.333h6.667z"/></g><defs><linearGradient id="a" x1="28" x2="28" y1="0" y2="53.2" gradientUnits="userSpaceOnUse"><stop stop-color="#32313e"/><stop offset="1" stop-color="#272730"/></linearGradient><filter id="b" width="51.429" height="51.429" x="2.286" y="2.286" color-interpolation-filters="sRGB" filterUnits="userSpaceOnUse"><feFlood flood-opacity="0" result="BackgroundImageFix"/><feColorMatrix in="SourceAlpha" result="hardAlpha" values="0 0 0 0 0 0 0 0 0 0 0 0 0 0 0 0 0 0 127 0"/><feOffset/><feGaussianBlur stdDeviation="2.857"/><feComposite in2="hardAlpha" operator="out"/><feColorMatrix values="0 0 0 0 0 0 0 0 0 0 0 0 0 0 0 0 0 0 0.25 0"/><feBlend in2="BackgroundImageFix" result="effect1_dropShadow_67_63"/><feBlend in="SourceGraphic" in2="effect1_dropShadow_67_63" result="shape"/></filter></defs></svg>