<svg xmlns="http://www.w3.org/2000/svg" width="143" height="56" fill="none" viewBox="0 0 143 56"><rect width="143" height="56" fill="url(#a)" rx="8"/><rect width="140.9" height="53.9" x="1.05" y="1.05" stroke="#fff" stroke-opacity=".15" stroke-width="2.1" rx="6.95"/><g filter="url(#b)"><g clip-path="url(#c)"><path fill="#ffc4c4" d="M12 8h40v40H12z"/><mask id="d" width="39" height="35" x="14" y="13" maskUnits="userSpaceOnUse" style="mask-type:alpha"><path fill="#d9d9d9" d="m14.662 18.675 32.64-5.626 5.01 29.071-32.639 5.626z"/></mask><g mask="url(#d)"><rect width="7.321" height="28.086" x="25.489" y="12.511" fill="#fff" fill-opacity=".3" stroke="#000" stroke-width="2.5" rx="3.661" transform="rotate(-9.777 25.489 12.511)"/></g><mask id="e" width="9" height="27" x="27" y="12" maskUnits="userSpaceOnUse" style="mask-type:alpha"><rect width="4.821" height="25.949" x="26.871" y="13.173" fill="#fff" rx="2.411" transform="rotate(-9.777 26.871 13.173)"/></mask><g mask="url(#e)"><path fill="url(#f)" d="M18.692 19.825h29.556V41.32H18.692z"/></g><path fill="#ff5e5e" d="M42.253 10.13 58.078 21.5l-17.76 8.02z"/><path fill="#ffa337" d="m49.367 33.834 2.099 15.186-14.2-5.776z"/><path fill="#ffee57" d="m14.757 18.275 9.498 12.032-15.17 2.21z"/></g></g><g filter="url(#g)"><path fill="#e8e8e8" d="M61.278 24.5V12.864h4.262q1.239 0 2.05.409.814.403 1.217 1.096.403.688.403 1.552 0 .726-.267 1.227a2.2 2.2 0 0 1-.716.795q-.442.296-.977.432v.114a2.3 2.3 0 0 1 1.13.375q.558.34.921.971.364.63.364 1.534 0 .893-.42 1.603-.415.704-1.285 1.119-.87.41-2.221.409zm1.756-1.506h2.534q1.261 0 1.807-.488.546-.489.546-1.222 0-.55-.279-1.011a2 2 0 0 0-.795-.733q-.512-.273-1.216-.273h-2.597zm0-5.096h2.352q.592 0 1.063-.227a1.86 1.86 0 0 0 .755-.637q.285-.414.285-.977 0-.722-.506-1.21-.506-.489-1.551-.489h-2.398zM77.14 20.88v-5.108h1.705V24.5h-1.67v-1.511h-.092q-.3.698-.965 1.164-.66.46-1.643.46-.84 0-1.488-.369-.642-.375-1.012-1.108-.363-.732-.363-1.812v-5.551h1.699v5.346q0 .893.494 1.42.494.53 1.284.53.478 0 .949-.24.477-.239.79-.721.318-.483.312-1.227m3.987 3.619v-8.727h1.7V24.5zm.858-10.074a1.08 1.08 0 0 1-.761-.295.96.96 0 0 1-.312-.716q0-.421.312-.716.318-.3.761-.301.444 0 .756.3a.94.94 0 0 1 .318.717.95.95 0 0 1-.318.716 1.06 1.06 0 0 1-.756.295m4.826-1.562V24.5h-1.7V12.864zm6.359 2.909v1.363h-4.767v-1.363zm-3.489-2.091h1.7v8.256q0 .493.147.744a.77.77 0 0 0 .38.335q.24.085.518.085.204 0 .358-.028l.238-.046.307 1.404a3 3 0 0 1-.42.114q-.274.062-.682.068a3 3 0 0 1-1.25-.239 2.15 2.15 0 0 1-.938-.773q-.357-.523-.358-1.312zm13.279 10.994q-1.227 0-2.142-.562a3.8 3.8 0 0 1-1.42-1.574q-.507-1.011-.506-2.364 0-1.358.505-2.375a3.8 3.8 0 0 1 1.421-1.58q.915-.561 2.142-.562 1.227 0 2.142.563t1.42 1.58q.506 1.016.506 2.374 0 1.353-.506 2.364a3.8 3.8 0 0 1-1.42 1.574q-.915.562-2.142.562m.005-1.426q.796 0 1.319-.42t.772-1.12q.256-.699.256-1.54 0-.835-.256-1.534a2.5 2.5 0 0 0-.772-1.13q-.523-.426-1.319-.427-.801 0-1.329.427a2.53 2.53 0 0 0-.778 1.13q-.25.7-.25 1.535 0 .84.25 1.54.255.697.778 1.119.528.42 1.329.42m7.658-3.932V24.5h-1.699v-8.727h1.631v1.42h.108q.301-.693.943-1.114.647-.42 1.631-.42.891 0 1.562.375.67.37 1.04 1.102.369.733.369 1.813V24.5h-1.698v-5.347q0-.948-.495-1.482-.494-.54-1.358-.54-.59 0-1.051.255-.454.255-.721.75-.262.489-.262 1.182"/><path fill="#fff" d="M63.61 43.5h-3.212l4.172-12.364h3.978L72.72 43.5h-3.212l-2.904-9.249h-.096zm-.428-4.866h6.712v2.27h-6.713zm13.675 4.999a3.4 3.4 0 0 1-1.866-.531q-.84-.532-1.34-1.594t-.501-2.638q0-1.636.52-2.693.518-1.056 1.357-1.563a3.47 3.47 0 0 1 1.817-.508q.732 0 1.25.254.52.247.857.64.339.392.514.815h.06v-4.679h2.952V43.5h-2.922v-1.503h-.09a2.9 2.9 0 0 1-.532.803q-.345.374-.863.603-.513.23-1.213.23m1.026-2.3q.537 0 .918-.302.38-.308.585-.863t.205-1.304q0-.762-.205-1.31-.2-.55-.585-.846a1.45 1.45 0 0 0-.918-.295q-.549 0-.93.302-.38.3-.58.85-.192.55-.193 1.299 0 .748.2 1.304.2.555.573.863.381.302.93.302m9.848 2.3a3.4 3.4 0 0 1-1.866-.531q-.84-.532-1.34-1.594t-.501-2.638q0-1.636.52-2.693.518-1.056 1.357-1.563a3.47 3.47 0 0 1 1.818-.508q.73 0 1.25.254.518.247.857.64.338.392.513.815h.06v-4.679h2.952V43.5h-2.922v-1.503h-.09a2.9 2.9 0 0 1-.532.803q-.344.374-.863.603-.513.23-1.213.23m1.026-2.3q.537 0 .917-.302.382-.308.586-.863.205-.555.205-1.304 0-.762-.205-1.31-.2-.55-.586-.846a1.45 1.45 0 0 0-.917-.295q-.549 0-.93.302-.38.3-.58.85-.192.55-.192 1.299t.199 1.304.573.863q.381.302.93.302m6.46 2.167v-9.273h2.953V43.5zm1.48-10.353q-.621 0-1.069-.41a1.32 1.32 0 0 1-.446-1.003q0-.579.447-.99a1.5 1.5 0 0 1 1.068-.417q.628 0 1.069.417.446.411.446.99 0 .585-.447 1.002a1.5 1.5 0 0 1-1.068.41m8.586 1.08V36.4h-5.85v-2.174zm-4.624-2.221h2.952v8.578q0 .272.084.44a.53.53 0 0 0 .26.236q.169.067.404.067.17 0 .357-.03.192-.038.289-.06l.447 2.13q-.211.06-.598.151-.38.09-.911.115-1.038.048-1.781-.242a2.3 2.3 0 0 1-1.129-.917q-.386-.622-.374-1.564zm6.13 11.494v-9.273h2.952V43.5zm1.479-10.353q-.621 0-1.068-.41a1.32 1.32 0 0 1-.447-1.003q0-.579.447-.99a1.5 1.5 0 0 1 1.068-.417 1.5 1.5 0 0 1 1.069.417q.447.411.447.99 0 .585-.447 1.002-.44.41-1.069.41m12.347 1.08-3.181 9.273h-3.381l-3.175-9.273h3.109l1.708 6.387h.097l1.714-6.387zm5.168 9.448q-1.455 0-2.511-.573a3.96 3.96 0 0 1-1.618-1.648q-.562-1.075-.562-2.554 0-1.437.568-2.511.567-1.08 1.599-1.679 1.033-.603 2.433-.604.99 0 1.811.308.822.309 1.419.912.598.604.93 1.491.332.882.332 2.023v.736h-8.059v-1.715h5.312a1.66 1.66 0 0 0-.223-.839 1.5 1.5 0 0 0-.598-.573 1.7 1.7 0 0 0-.863-.211q-.495 0-.888.223a1.68 1.68 0 0 0-.863 1.449v1.745q0 .567.223.996.224.421.634.658.411.235.978.235.392 0 .713-.109.32-.108.549-.32.23-.21.344-.519l2.711.079a3.36 3.36 0 0 1-.743 1.587q-.567.67-1.491 1.045-.924.368-2.137.368"/></g><defs><linearGradient id="a" x1="71.5" x2="71.5" y1="0" y2="56" gradientUnits="userSpaceOnUse"><stop stop-color="#363313"/><stop offset="1" stop-color="#2d0f0f"/></linearGradient><linearGradient id="f" x1="33.47" x2="33.47" y1="19.825" y2="41.321" gradientUnits="userSpaceOnUse"><stop stop-color="#ff4d00"/><stop offset=".089" stop-color="#ff4d00"/><stop offset="1" stop-color="red"/></linearGradient><filter id="b" width="51.429" height="51.429" x="6.286" y="2.286" color-interpolation-filters="sRGB" filterUnits="userSpaceOnUse"><feFlood flood-opacity="0" result="BackgroundImageFix"/><feColorMatrix in="SourceAlpha" result="hardAlpha" values="0 0 0 0 0 0 0 0 0 0 0 0 0 0 0 0 0 0 127 0"/><feOffset/><feGaussianBlur stdDeviation="2.857"/><feComposite in2="hardAlpha" operator="out"/><feColorMatrix values="0 0 0 0 0 0 0 0 0 0 0 0 0 0 0 0 0 0 0.25 0"/><feBlend in2="BackgroundImageFix" result="effect1_dropShadow_28_25"/><feBlend in="SourceGraphic" in2="effect1_dropShadow_28_25" result="shape"/></filter><filter id="g" width="82.2" height="48.2" x="54.4" y="3.9" color-interpolation-filters="sRGB" filterUnits="userSpaceOnUse"><feFlood flood-opacity="0" result="BackgroundImageFix"/><feColorMatrix in="SourceAlpha" result="hardAlpha" values="0 0 0 0 0 0 0 0 0 0 0 0 0 0 0 0 0 0 127 0"/><feOffset/><feGaussianBlur stdDeviation="2.8"/><feComposite in2="hardAlpha" operator="out"/><feColorMatrix values="0 0 0 0 0 0 0 0 0 0 0 0 0 0 0 0 0 0 0.25 0"/><feBlend in2="BackgroundImageFix" result="effect1_dropShadow_28_25"/><feBlend in="SourceGraphic" in2="effect1_dropShadow_28_25" result="shape"/></filter><clipPath id="c"><rect width="40" height="40" x="12" y="8" fill="#fff" rx="20"/></clipPath></defs></svg>