<svg xmlns="http://www.w3.org/2000/svg" width="164" height="56" fill="none" viewBox="0 0 164 56"><rect width="164" height="56" fill="url(#a)" rx="8"/><rect width="161.9" height="53.9" x="1.05" y="1.05" stroke="#fff" stroke-opacity=".15" stroke-width="2.1" rx="6.95"/><g filter="url(#b)"><g clip-path="url(#c)"><mask id="d" width="41" height="40" x="12" y="8" maskUnits="userSpaceOnUse" style="mask-type:luminance"><path fill="#fff" d="M52 8H12v40h40z"/></mask><g mask="url(#d)"><path fill="#cbfff6" d="M52 8H12v40h40z"/><path fill="#e5ff45" d="M45.75 45.5a6.25 6.25 0 1 0 0-12.5 6.25 6.25 0 0 0 0 12.5"/><path fill="#45ff79" d="M48.25 28a8.75 8.75 0 1 0 0-17.5 8.75 8.75 0 0 0 0 17.5"/><path fill="#ffd18b" d="M17 33a7.5 7.5 0 1 0 0-15 7.5 7.5 0 0 0 0 15"/><path fill="#fff" fill-opacity=".3" stroke="#000" stroke-width="2.5" d="M36.761 23.634a3.75 3.75 0 0 0-7.244-1.94l-2.589 9.658a3.75 3.75 0 1 0 7.245 1.942z"/><path fill="#000" d="m30.464 37.476.323-1.207-2.414-.647-.324 1.207zm-3.709 4.183a1.25 1.25 0 0 0 2.415.647zm1.294-4.83-1.294 4.83 2.415.647 1.294-4.83z"/><path stroke="#000" stroke-linecap="square" stroke-width="2.5" d="m35.08 15.42-.647 2.414"/><path stroke="#000" stroke-linecap="round" stroke-width="2.5" d="m39.91 16.713-9.66-2.588"/><mask id="e" width="8" height="15" x="28" y="20" maskUnits="userSpaceOnUse" style="mask-type:alpha"><path fill="#fff" d="M35.554 23.31a2.5 2.5 0 1 0-4.83-1.293l-2.588 9.659a2.5 2.5 0 1 0 4.83 1.294z"/></mask><g mask="url(#e)"><path fill="url(#f)" d="M44.021 24.95h-25v10h25z"/></g></g></g></g><g filter="url(#g)"><path fill="#e8e8e8" d="M61.278 24.5V12.864h4.262q1.239 0 2.05.409.814.403 1.217 1.096.403.688.403 1.552 0 .726-.267 1.227a2.2 2.2 0 0 1-.716.795q-.442.296-.977.432v.114a2.3 2.3 0 0 1 1.13.375q.558.34.921.971.364.63.364 1.534 0 .893-.42 1.603-.415.704-1.285 1.119-.87.41-2.221.409zm1.756-1.506h2.534q1.261 0 1.807-.488.546-.489.546-1.222 0-.55-.279-1.011a2 2 0 0 0-.795-.733q-.512-.273-1.216-.273h-2.597zm0-5.096h2.352q.592 0 1.063-.227a1.86 1.86 0 0 0 .755-.637q.285-.414.285-.977 0-.722-.506-1.21-.506-.489-1.551-.489h-2.398zM77.14 20.88v-5.108h1.705V24.5h-1.67v-1.511h-.092q-.3.698-.965 1.164-.66.46-1.643.46-.84 0-1.488-.369-.642-.375-1.012-1.108-.363-.732-.363-1.812v-5.551h1.699v5.346q0 .893.494 1.42.494.53 1.284.53.478 0 .949-.24.477-.239.79-.721.318-.483.312-1.227m3.987 3.619v-8.727h1.7V24.5zm.858-10.074a1.08 1.08 0 0 1-.761-.295.96.96 0 0 1-.312-.716q0-.421.312-.716.318-.3.761-.301.444 0 .756.3a.94.94 0 0 1 .318.717.95.95 0 0 1-.318.716 1.06 1.06 0 0 1-.756.295m4.826-1.562V24.5h-1.7V12.864zm6.359 2.909v1.363h-4.767v-1.363zm-3.489-2.091h1.7v8.256q0 .493.147.744a.77.77 0 0 0 .38.335q.24.085.518.085.204 0 .358-.028l.238-.046.307 1.404a3 3 0 0 1-.42.114q-.274.062-.682.068a3 3 0 0 1-1.25-.239 2.15 2.15 0 0 1-.938-.773q-.357-.523-.358-1.312zm13.279 10.994q-1.227 0-2.142-.562a3.8 3.8 0 0 1-1.42-1.574q-.507-1.011-.506-2.364 0-1.358.505-2.375a3.8 3.8 0 0 1 1.421-1.58q.915-.561 2.142-.562 1.227 0 2.142.563t1.42 1.58q.506 1.016.506 2.374 0 1.353-.506 2.364a3.8 3.8 0 0 1-1.42 1.574q-.915.562-2.142.562m.005-1.426q.796 0 1.319-.42t.772-1.12q.256-.699.256-1.54 0-.835-.256-1.534a2.5 2.5 0 0 0-.772-1.13q-.523-.426-1.319-.427-.801 0-1.329.427a2.53 2.53 0 0 0-.778 1.13q-.25.7-.25 1.535 0 .84.25 1.54.255.697.778 1.119.528.42 1.329.42m7.658-3.932V24.5h-1.699v-8.727h1.631v1.42h.108q.301-.693.943-1.114.647-.42 1.631-.42.891 0 1.562.375.67.37 1.04 1.102.369.733.369 1.813V24.5h-1.698v-5.347q0-.948-.495-1.482-.494-.54-1.358-.54-.59 0-1.051.255-.454.255-.721.75-.262.489-.262 1.182"/><path fill="#fff" d="M63.61 43.5h-3.212l4.172-12.364h3.978L72.72 43.5h-3.212l-2.904-9.249h-.096zm-.428-4.866h6.712v2.27h-6.713zm13.675 4.999a3.4 3.4 0 0 1-1.866-.531q-.84-.532-1.34-1.594t-.501-2.638q0-1.636.52-2.693.518-1.056 1.357-1.563a3.47 3.47 0 0 1 1.817-.508q.732 0 1.25.254.52.247.857.64.339.392.514.815h.06v-4.679h2.952V43.5h-2.922v-1.503h-.09a2.9 2.9 0 0 1-.532.803q-.345.374-.863.603-.513.23-1.213.23m1.026-2.3q.537 0 .918-.302.38-.308.585-.863t.205-1.304q0-.762-.205-1.31-.2-.55-.585-.846a1.45 1.45 0 0 0-.918-.295q-.549 0-.93.302-.38.3-.58.85-.192.55-.193 1.299 0 .748.2 1.304.2.555.573.863.381.302.93.302m6.46 2.167v-9.273h2.868v1.69h.097q.254-.917.827-1.364a2.1 2.1 0 0 1 1.334-.453q.206 0 .423.03.218.025.404.08v2.565a3 3 0 0 0-.555-.115 5 5 0 0 0-.604-.042q-.525 0-.948.235a1.7 1.7 0 0 0-.658.646 1.9 1.9 0 0 0-.235.966V43.5zm11.01.175q-1.456 0-2.512-.573a3.97 3.97 0 0 1-1.618-1.648q-.561-1.075-.561-2.554 0-1.437.567-2.511.568-1.08 1.6-1.679 1.032-.603 2.433-.604.99 0 1.81.308.822.309 1.42.912.597.604.93 1.491.33.882.331 2.023v.736h-8.06v-1.715h5.313a1.66 1.66 0 0 0-.223-.839 1.5 1.5 0 0 0-.598-.573 1.7 1.7 0 0 0-.863-.211q-.495 0-.887.223a1.68 1.68 0 0 0-.863 1.449v1.745q0 .567.223.996.223.421.634.658.41.235.978.235.392 0 .712-.109.32-.108.55-.32a1.3 1.3 0 0 0 .343-.519l2.711.079a3.35 3.35 0 0 1-.742 1.587q-.568.67-1.492 1.045-.923.368-2.137.368m8.86-5.463V43.5h-2.952v-9.273h2.807v1.703h.103a2.6 2.6 0 0 1 1.05-1.334q.743-.49 1.769-.49.978 0 1.696.441.725.435 1.123 1.22.405.779.399 1.823v5.91h-2.952v-5.33q.006-.773-.393-1.208-.392-.435-1.093-.435-.464 0-.821.206a1.36 1.36 0 0 0-.543.573q-.187.375-.193.906m10.436 5.445q-.887 0-1.575-.296a2.46 2.46 0 0 1-1.081-.905q-.392-.61-.392-1.528 0-.773.271-1.304.272-.531.749-.863a3.5 3.5 0 0 1 1.099-.501 7 7 0 0 1 1.328-.235q.79-.074 1.274-.151.483-.085.7-.236a.51.51 0 0 0 .223-.44v-.03q0-.465-.32-.72-.32-.252-.863-.253-.585 0-.942.254a1.12 1.12 0 0 0-.453.7l-2.722-.096q.12-.846.622-1.51.507-.67 1.388-1.05.888-.387 2.131-.387.888 0 1.636.212.749.205 1.304.604.555.392.857.965.308.575.308 1.31V43.5h-2.777v-1.292h-.072q-.248.471-.634.797-.38.326-.9.489a3.8 3.8 0 0 1-1.159.163m.912-1.932q.477 0 .857-.193.387-.194.616-.531.23-.344.229-.797v-.882a1.7 1.7 0 0 1-.308.121 5 5 0 0 1-.386.103q-.212.048-.435.084t-.428.067a2.7 2.7 0 0 0-.713.205 1.1 1.1 0 0 0-.446.362.9.9 0 0 0-.151.52q0 .458.326.7.332.24.839.241m9.387-10.589V43.5h-2.952V31.136zm1.879 12.364v-9.273h2.952V43.5zm1.479-10.353q-.621 0-1.068-.41a1.32 1.32 0 0 1-.447-1.003q0-.579.447-.99a1.5 1.5 0 0 1 1.068-.417 1.5 1.5 0 0 1 1.069.417q.447.411.447.99 0 .585-.447 1.002-.44.41-1.069.41m6.304 5.065V43.5h-2.952v-9.273h2.808v1.703h.102a2.6 2.6 0 0 1 1.051-1.334q.742-.49 1.768-.49.978 0 1.697.441.724.435 1.123 1.22.404.779.398 1.823v5.91h-2.952v-5.33q.006-.773-.392-1.208-.393-.435-1.093-.435-.465 0-.821.206a1.35 1.35 0 0 0-.543.573q-.188.375-.194.906m12.157 5.463q-1.455 0-2.511-.573a3.97 3.97 0 0 1-1.618-1.648q-.561-1.075-.561-2.554 0-1.437.567-2.511.567-1.08 1.6-1.679 1.032-.603 2.433-.604.99 0 1.811.308a3.9 3.9 0 0 1 1.418.912q.599.604.93 1.491.333.882.332 2.023v.736h-8.059v-1.715h5.312a1.66 1.66 0 0 0-.223-.839 1.5 1.5 0 0 0-.598-.573 1.7 1.7 0 0 0-.863-.211q-.495 0-.887.223a1.68 1.68 0 0 0-.864 1.449v1.745q0 .567.224.996.223.421.634.658.41.235.978.235.392 0 .712-.109.32-.108.549-.32.23-.21.344-.519l2.711.079a3.35 3.35 0 0 1-.743 1.587q-.567.67-1.491 1.045-.923.368-2.137.368"/></g><defs><linearGradient id="a" x1="82" x2="82" y1="0" y2="56" gradientUnits="userSpaceOnUse"><stop stop-color="#2a2e11"/><stop offset="1" stop-color="#102b17"/></linearGradient><linearGradient id="f" x1="31.521" x2="31.521" y1="24.951" y2="34.951" gradientUnits="userSpaceOnUse"><stop stop-color="#00ff19"/><stop offset="0" stop-color="#42ff00"/><stop offset="1" stop-color="#cf0"/></linearGradient><filter id="b" width="51.429" height="51.429" x="6.286" y="2.286" color-interpolation-filters="sRGB" filterUnits="userSpaceOnUse"><feFlood flood-opacity="0" result="BackgroundImageFix"/><feColorMatrix in="SourceAlpha" result="hardAlpha" values="0 0 0 0 0 0 0 0 0 0 0 0 0 0 0 0 0 0 127 0"/><feOffset/><feGaussianBlur stdDeviation="2.857"/><feComposite in2="hardAlpha" operator="out"/><feColorMatrix values="0 0 0 0 0 0 0 0 0 0 0 0 0 0 0 0 0 0 0.25 0"/><feBlend in2="BackgroundImageFix" result="effect1_dropShadow_28_19"/><feBlend in="SourceGraphic" in2="effect1_dropShadow_28_19" result="shape"/></filter><filter id="g" width="103.2" height="48.2" x="54.4" y="3.9" color-interpolation-filters="sRGB" filterUnits="userSpaceOnUse"><feFlood flood-opacity="0" result="BackgroundImageFix"/><feColorMatrix in="SourceAlpha" result="hardAlpha" values="0 0 0 0 0 0 0 0 0 0 0 0 0 0 0 0 0 0 127 0"/><feOffset/><feGaussianBlur stdDeviation="2.8"/><feComposite in2="hardAlpha" operator="out"/><feColorMatrix values="0 0 0 0 0 0 0 0 0 0 0 0 0 0 0 0 0 0 0.25 0"/><feBlend in2="BackgroundImageFix" result="effect1_dropShadow_28_19"/><feBlend in="SourceGraphic" in2="effect1_dropShadow_28_19" result="shape"/></filter><clipPath id="c"><rect width="40" height="40" x="12" y="8" fill="#fff" rx="20"/></clipPath></defs></svg>