<svg xmlns="http://www.w3.org/2000/svg" width="144" height="56" fill="none" viewBox="0 0 144 56"><rect width="144" height="56" fill="url(#a)" rx="8"/><rect width="141.9" height="53.9" x="1.05" y="1.05" stroke="#fff" stroke-opacity=".15" stroke-width="2.1" rx="6.95"/><g filter="url(#b)"><g clip-path="url(#c)"><path fill="#fff" d="M26.387 42.07c-1.82-1.652-2.351-5.123-1.593-7.637 1.314 1.585 3.136 2.087 5.023 2.37 2.913.438 5.773.275 8.479-1.047.31-.152.595-.353.934-.557.254.732.32 1.47.231 2.222-.216 1.83-1.133 3.244-2.592 4.316-.583.428-1.2.811-1.803 1.216-1.851 1.242-2.352 2.699-1.657 4.818.017.052.032.103.07.23a4.86 4.86 0 0 1-2.162-1.837c-.556-.848-.82-1.787-.834-2.803-.007-.494-.007-.993-.074-1.48-.164-1.188-.725-1.72-1.783-1.75-1.086-.032-1.946.634-2.173 1.684-.018.08-.043.16-.068.254z"/><path fill="url(#d)" d="M26.387 42.07c-1.82-1.652-2.351-5.123-1.593-7.637 1.314 1.585 3.136 2.087 5.023 2.37 2.913.438 5.773.275 8.479-1.047.31-.152.595-.353.934-.557.254.732.32 1.47.231 2.222-.216 1.83-1.133 3.244-2.592 4.316-.583.428-1.2.811-1.803 1.216-1.851 1.242-2.352 2.699-1.657 4.818.017.052.032.103.07.23a4.86 4.86 0 0 1-2.162-1.837c-.556-.848-.82-1.787-.834-2.803-.007-.494-.007-.993-.074-1.48-.164-1.188-.725-1.72-1.783-1.75-1.086-.032-1.946.634-2.173 1.684-.018.08-.043.16-.068.254z"/><path fill="#fff" d="M16 34.014s5.389-2.607 10.793-2.607l4.074-12.52c.152-.606.598-1.018 1.1-1.018.504 0 .949.412 1.101 1.017l4.075 12.521c6.4 0 10.792 2.607 10.792 2.607s-9.153-24.76-9.17-24.81C38.5 8.472 38.057 8 37.46 8H26.476c-.598 0-1.023.472-1.304 1.204-.02.048-9.172 24.81-9.172 24.81"/></g></g><g filter="url(#e)"><path fill="#e8e8e8" d="M61.278 24.5V12.864h4.262q1.239 0 2.05.409.814.403 1.217 1.096.403.688.403 1.552 0 .726-.267 1.227a2.2 2.2 0 0 1-.716.795q-.442.296-.977.432v.114a2.3 2.3 0 0 1 1.13.375q.558.34.921.971.364.63.364 1.534 0 .893-.42 1.603-.415.704-1.285 1.119-.87.41-2.221.409zm1.756-1.506h2.534q1.261 0 1.807-.488.546-.489.546-1.222 0-.55-.279-1.011a2 2 0 0 0-.795-.733q-.512-.273-1.216-.273h-2.597zm0-5.096h2.352q.592 0 1.063-.227a1.86 1.86 0 0 0 .755-.637q.285-.414.285-.977 0-.722-.506-1.21-.506-.489-1.551-.489h-2.398zM77.14 20.88v-5.108h1.705V24.5h-1.67v-1.511h-.092q-.3.698-.965 1.164-.66.46-1.643.46-.84 0-1.488-.369-.642-.375-1.012-1.108-.363-.732-.363-1.812v-5.551h1.699v5.346q0 .893.494 1.42.494.53 1.284.53.478 0 .949-.24.477-.239.79-.721.318-.483.312-1.227m3.987 3.619v-8.727h1.7V24.5zm.858-10.074a1.08 1.08 0 0 1-.761-.295.96.96 0 0 1-.312-.716q0-.421.312-.716.318-.3.761-.301.444 0 .756.3a.94.94 0 0 1 .318.717.95.95 0 0 1-.318.716 1.06 1.06 0 0 1-.756.295m4.826-1.562V24.5h-1.7V12.864zm6.359 2.909v1.363h-4.767v-1.363zm-3.489-2.091h1.7v8.256q0 .493.147.744a.77.77 0 0 0 .38.335q.24.085.518.085.204 0 .358-.028l.238-.046.307 1.404a3 3 0 0 1-.42.114q-.274.062-.682.068a3 3 0 0 1-1.25-.239 2.15 2.15 0 0 1-.938-.773q-.357-.523-.358-1.312zM101.175 24.5l-2.568-8.727h1.755l1.71 6.409h.086l1.716-6.41h1.755l1.705 6.381h.085l1.699-6.38h1.756l-2.563 8.727h-1.733l-1.773-6.301h-.13l-1.773 6.301zm11.311 0v-8.727h1.699V24.5zm.858-10.074a1.08 1.08 0 0 1-.762-.295.96.96 0 0 1-.312-.716.95.95 0 0 1 .312-.716q.318-.3.762-.301.443 0 .755.3a.94.94 0 0 1 .319.717.95.95 0 0 1-.319.716q-.312.295-.755.295m7.2 1.347v1.363h-4.767v-1.363zm-3.489-2.091h1.699v8.256q0 .493.148.744a.77.77 0 0 0 .381.335q.238.085.517.085a2 2 0 0 0 .358-.028l.238-.046.307 1.404a3 3 0 0 1-.42.114 3.3 3.3 0 0 1-.682.068 3 3 0 0 1-1.25-.239 2.14 2.14 0 0 1-.938-.773q-.358-.523-.358-1.312zm7.255 5.636V24.5h-1.699V12.864h1.676v4.33h.108q.306-.706.937-1.12t1.648-.415q.898 0 1.568.37.677.369 1.046 1.102.375.727.375 1.818V24.5h-1.699v-5.347q0-.96-.494-1.488-.495-.534-1.375-.534a2.25 2.25 0 0 0-1.08.255q-.471.255-.744.75-.267.489-.267 1.182"/><path fill="#fff" d="M63.61 43.5h-3.212l4.172-12.364h3.978L72.72 43.5h-3.212l-2.904-9.249h-.096zm-.428-4.866h6.712v2.27h-6.713zm18.682-1.575-2.71.072a1 1 0 0 0-.23-.513 1.24 1.24 0 0 0-.489-.356 1.7 1.7 0 0 0-.688-.133q-.513 0-.875.205-.357.205-.35.556a.6.6 0 0 0 .217.47q.229.2.815.32l1.787.339q1.388.265 2.064.88.683.617.689 1.63-.007.955-.568 1.661-.555.706-1.521 1.099-.966.386-2.21.386-1.986 0-3.133-.815-1.14-.821-1.304-2.197l2.916-.073q.096.507.501.773t1.032.266q.569 0 .924-.212.357-.21.362-.561a.6.6 0 0 0-.277-.501q-.271-.194-.852-.302l-1.617-.308q-1.395-.253-2.077-.936-.682-.688-.676-1.75-.007-.93.495-1.588.501-.664 1.424-1.014.924-.35 2.18-.35 1.883 0 2.97.79 1.087.785 1.201 2.162m6.917-2.832v2.174h-5.85v-2.174zm-4.624-2.221h2.952v8.578q0 .272.084.44.09.165.26.236.17.067.404.067.17 0 .357-.03.192-.038.29-.06l.446 2.13q-.21.06-.598.151a5 5 0 0 1-.911.115q-1.038.048-1.781-.242a2.3 2.3 0 0 1-1.129-.917q-.386-.622-.374-1.564zm6.13 11.494v-9.273h2.868v1.69h.096q.254-.917.828-1.364a2.1 2.1 0 0 1 1.334-.453q.204 0 .422.03.218.025.405.08v2.565a3 3 0 0 0-.556-.115 5 5 0 0 0-.603-.042q-.525 0-.948.235a1.7 1.7 0 0 0-.658.646 1.9 1.9 0 0 0-.236.966V43.5zm11.003.175q-1.462 0-2.512-.598a4.1 4.1 0 0 1-1.612-1.678q-.561-1.08-.561-2.505 0-1.432.561-2.505.568-1.08 1.612-1.679 1.05-.603 2.512-.604 1.461 0 2.505.604 1.05.598 1.612 1.678.567 1.075.567 2.506 0 1.425-.567 2.505a4.1 4.1 0 0 1-1.612 1.678q-1.044.598-2.505.598m.018-2.228q.531 0 .899-.326.369-.326.562-.905.198-.58.199-1.34 0-.773-.199-1.353-.193-.58-.562-.905a1.3 1.3 0 0 0-.899-.326 1.38 1.38 0 0 0-.93.326q-.374.327-.573.905-.195.58-.194 1.353 0 .76.194 1.34.198.58.573.905.38.327.93.326"/></g><defs><linearGradient id="a" x1="57.5" x2="61.039" y1="63" y2="-4.108" gradientUnits="userSpaceOnUse"><stop stop-color="#321818"/><stop offset="1" stop-color="#4b244e"/></linearGradient><linearGradient id="d" x1="24.459" x2="41.986" y1="48" y2="39.661" gradientUnits="userSpaceOnUse"><stop stop-color="#d83333"/><stop offset="1" stop-color="#f041ff"/></linearGradient><filter id="b" width="51.429" height="51.429" x="6.286" y="2.286" color-interpolation-filters="sRGB" filterUnits="userSpaceOnUse"><feFlood flood-opacity="0" result="BackgroundImageFix"/><feColorMatrix in="SourceAlpha" result="hardAlpha" values="0 0 0 0 0 0 0 0 0 0 0 0 0 0 0 0 0 0 127 0"/><feOffset/><feGaussianBlur stdDeviation="2.857"/><feComposite in2="hardAlpha" operator="out"/><feColorMatrix values="0 0 0 0 0 0 0 0 0 0 0 0 0 0 0 0 0 0 0.25 0"/><feBlend in2="BackgroundImageFix" result="effect1_dropShadow_62_25"/><feBlend in="SourceGraphic" in2="effect1_dropShadow_62_25" result="shape"/></filter><filter id="e" width="83.2" height="48.2" x="54.4" y="3.9" color-interpolation-filters="sRGB" filterUnits="userSpaceOnUse"><feFlood flood-opacity="0" result="BackgroundImageFix"/><feColorMatrix in="SourceAlpha" result="hardAlpha" values="0 0 0 0 0 0 0 0 0 0 0 0 0 0 0 0 0 0 127 0"/><feOffset/><feGaussianBlur stdDeviation="2.8"/><feComposite in2="hardAlpha" operator="out"/><feColorMatrix values="0 0 0 0 0 0 0 0 0 0 0 0 0 0 0 0 0 0 0.25 0"/><feBlend in2="BackgroundImageFix" result="effect1_dropShadow_62_25"/><feBlend in="SourceGraphic" in2="effect1_dropShadow_62_25" result="shape"/></filter><clipPath id="c"><path fill="#fff" d="M16 8h32v40H16z"/></clipPath></defs></svg>