<svg xmlns="http://www.w3.org/2000/svg" width="173" height="56" fill="none" viewBox="0 0 173 56"><rect width="173" height="56" fill="url(#a)" rx="8"/><rect width="170.9" height="53.9" x="1.05" y="1.05" stroke="#fff" stroke-opacity=".15" stroke-width="2.1" rx="6.95"/><g filter="url(#b)"><mask id="d" width="45" height="33" x="9.571" y="11.286" fill="#000" maskUnits="userSpaceOnUse"><path fill="#fff" d="M9.571 11.286h45v33h-45z"/><path fill-rule="evenodd" d="M35.572 40.857V28.998c-.368-.137-1.058-.25-2.143-.25H30.57c-1.085 0-1.775.113-2.142.25v11.86a2.857 2.857 0 0 1-2.857 2.857H13.429a2.857 2.857 0 0 1-2.857-2.858v-6.666a2.857 2.857 0 0 1 2.857-2.858h5.714v-5.306h-5.714a2.857 2.857 0 0 1-2.857-2.857v-6.666a2.857 2.857 0 0 1 2.857-2.858h7.143a1.428 1.428 0 1 1 0 2.858h-7.143v6.666h5.714A2.857 2.857 0 0 1 22 26.027v5.307a2.857 2.857 0 0 1-2.857 2.857h-5.714v6.666h12.143V16.436c0-1.027.35-1.89.964-2.548.583-.625 1.325-.982 1.996-1.195 1.285-.408 2.717-.407 3.42-.407h.097c.702 0 2.134 0 3.419.407.671.213 1.413.57 1.996 1.195.614.658.965 1.52.965 2.548v24.421H50.57v-6.666h-5.714A2.857 2.857 0 0 1 42 31.333v-5.306a2.857 2.857 0 0 1 2.857-2.857h5.715v-6.666h-7.143a1.429 1.429 0 1 1 0-2.858h7.142a2.857 2.857 0 0 1 2.858 2.858v6.666a2.857 2.857 0 0 1-2.858 2.857h-5.714v5.307h5.715a2.857 2.857 0 0 1 2.857 2.857v6.666a2.857 2.857 0 0 1-2.858 2.858H38.43a2.857 2.857 0 0 1-2.858-2.858" clip-rule="evenodd"/></mask><path fill="url(#c)" fill-rule="evenodd" d="M35.572 40.857V28.998c-.368-.137-1.058-.25-2.143-.25H30.57c-1.085 0-1.775.113-2.142.25v11.86a2.857 2.857 0 0 1-2.857 2.857H13.429a2.857 2.857 0 0 1-2.857-2.858v-6.666a2.857 2.857 0 0 1 2.857-2.858h5.714v-5.306h-5.714a2.857 2.857 0 0 1-2.857-2.857v-6.666a2.857 2.857 0 0 1 2.857-2.858h7.143a1.428 1.428 0 1 1 0 2.858h-7.143v6.666h5.714A2.857 2.857 0 0 1 22 26.027v5.307a2.857 2.857 0 0 1-2.857 2.857h-5.714v6.666h12.143V16.436c0-1.027.35-1.89.964-2.548.583-.625 1.325-.982 1.996-1.195 1.285-.408 2.717-.407 3.42-.407h.097c.702 0 2.134 0 3.419.407.671.213 1.413.57 1.996 1.195.614.658.965 1.52.965 2.548v24.421H50.57v-6.666h-5.714A2.857 2.857 0 0 1 42 31.333v-5.306a2.857 2.857 0 0 1 2.857-2.857h5.715v-6.666h-7.143a1.429 1.429 0 1 1 0-2.858h7.142a2.857 2.857 0 0 1 2.858 2.858v6.666a2.857 2.857 0 0 1-2.858 2.857h-5.714v5.307h5.715a2.857 2.857 0 0 1 2.857 2.857v6.666a2.857 2.857 0 0 1-2.858 2.858H38.43a2.857 2.857 0 0 1-2.858-2.858" clip-rule="evenodd"/><path fill="#544125" d="M35.572 28.998h.57v-.396l-.37-.14zm-7.143 0-.2-.535-.372.139v.396zm-15 2.335v-.57zm5.714 0v.572h.571v-.572zm0-5.306h.571v-.571h-.571zm-5.714-9.523v-.572h-.572v.572zm0 6.666h-.572v.572h.572zm5.714 0v.572zm-5.714 11.02v-.57h-.572v.57zm0 6.667h-.572v.572h.572zm12.143 0v.572h.57v-.572zm.964-26.97-.418-.39zm1.996-1.194.173.545zm3.42-.407v.571zm.048 0v.571zm.049 0v.571zm3.419.407-.173.545zm1.996 1.195-.418.39zm.965 26.97h-.572v.57h.572zm12.142 0v.57h.572v-.57zm0-6.667h.572v-.572h-.572zm0-11.02v.57h.572v-.57zm0-6.667h.572v-.572h-.572zm0 9.523v.572zm-5.714 0v-.571h-.571v.571zm0 5.307h-.571v.571h.571zM35 28.998v11.86h1.143v-11.86zm-1.571.322c1.062 0 1.67.112 1.943.214l.4-1.071c-.464-.173-1.236-.286-2.343-.286zm-.017 0h.017v-1.143h-.017zm-.017 0h.017v-1.143h-.017zm-.016 0h.016v-1.143h-.016zm-.016 0h.016v-1.143h-.016zm-.017 0h.017v-1.143h-.017zm-.015 0h.015v-1.143h-.015zm-.016 0h.016v-1.143h-.016zm-.016 0h.016v-1.143h-.016zm-.016 0h.016v-1.143h-.016zm-.015 0h.015v-1.143h-.015zm-.016 0h.016v-1.143h-.016zm-.015 0h.015v-1.143h-.015zm-.015 0h.015v-1.143h-.015zm-.015 0h.015v-1.143h-.015zm-.015 0h.015v-1.143h-.015zm-.015 0h.015v-1.143h-.015zm-.014 0h.014v-1.143h-.014zm-.015 0h.014v-1.143h-.014zm-.014 0h.014v-1.143h-.014zm-.015 0h.015v-1.143h-.015zm-.014 0h.014v-1.143h-.014zm-.014 0h.014v-1.143h-.014zm-.014 0h.014v-1.143h-.014zm-.014 0h.014v-1.143h-.014zm-.013 0h.013v-1.143h-.013zm-.014 0h.014v-1.143h-.014zm-.013 0h.013v-1.143h-.013zm-.014 0h.014v-1.143h-.014zm-.013 0h.013v-1.143h-.013zm-.013 0h.013v-1.143h-.013zm-.013 0h.013v-1.143h-.013zm-.013 0h.013v-1.143h-.013zm-.013 0h.013v-1.143h-.013zm-.012 0h.012v-1.143h-.012zm-.013 0h.013v-1.143h-.013zm-.012 0h.012v-1.143h-.012zm-.013 0h.013v-1.143h-.013zm-.012 0h.012v-1.143h-.012zm-.012 0h.012v-1.143h-.012zm-.012 0h.012v-1.143h-.012zm-.012 0h.012v-1.143h-.012zm-.011 0h.011v-1.143h-.011zm-.012 0h.011v-1.143h-.011zm-.012 0h.012v-1.143h-.012zm-.011 0h.011v-1.143H32.8zm-.011 0h.01v-1.143h-.01zm-.012 0h.012v-1.143h-.012zm-.01 0h.01v-1.143h-.01zm-.012 0h.011v-1.143h-.01zm-.01 0h.01v-1.143h-.01zm-.011 0h.01v-1.143h-.01zm-.011 0h.01v-1.143h-.01zm-.01 0h.01v-1.143h-.01zm-.011 0h.01v-1.143h-.01zm-.01 0h.01v-1.143h-.01zm-.01 0h.01v-1.143h-.01zm-.01 0h.01v-1.143h-.01zm-.011 0h.01v-1.143h-.01zm-.01 0h.01v-1.143h-.01zm-.01 0h.01v-1.143h-.01zm-.01 0h.01v-1.143h-.01zm-.01 0h.01v-1.143h-.01zm-.009 0h.01v-1.143h-.01zm-.01 0h.01v-1.143h-.01zm-.009 0h.01v-1.143h-.01zm-.009 0h.01v-1.143h-.01zm-.01 0h.01v-1.143h-.01zm-.008 0h.009v-1.143h-.01zm-.01 0h.01v-1.143h-.01zm-.008 0h.009v-1.143h-.009zm-.009 0h.009v-1.143h-.009zm-.008 0h.008v-1.143h-.008zm-.01 0h.01v-1.143h-.01zm-.008 0h.009v-1.143h-.009zm-.008 0h.008v-1.143h-.008zm-.008 0h.008v-1.143h-.008zm-.009 0h.009v-1.143h-.009zm-.008 0h.008v-1.143h-.008zm-.008 0h.008v-1.143h-.008zm-.008 0h.008v-1.143h-.008zm-.008 0h.008v-1.143h-.008zm-.007 0h.007v-1.143h-.007zm-.008 0h.008v-1.143h-.008zm-.008 0h.008v-1.143h-.008zm-.007 0h.007v-1.143h-.007zm-.008 0h.008v-1.143h-.008zm-.007 0h.007v-1.143h-.007zm-.007 0h.007v-1.143h-.007zm-.007 0h.007v-1.143h-.007zm-.008 0h.008v-1.143h-.008zm-.007 0h.008v-1.143h-.008zm-.006 0h.007v-1.143h-.007zm-.007 0h.007v-1.143h-.007zm-.007 0h.007v-1.143h-.007zm-.007 0h.007v-1.143h-.007zm-.006 0h.006v-1.143h-.006zm-.007 0h.007v-1.143h-.007zm-.006 0h.006v-1.143h-.006zm-.006 0h.006v-1.143h-.006zm-.007 0h.007v-1.143h-.007zm-.006 0h.006v-1.143h-.006zm-.006 0h.006v-1.143h-.006zm-.006 0h.006v-1.143h-.006zm-.006 0h.006v-1.143h-.006zm-.006 0h.006v-1.143h-.006zm-.006 0h.006v-1.143h-.006zm-.005 0h.005v-1.143h-.005zm-.006 0h.006v-1.143h-.006zm-.006 0h.006v-1.143h-.006zm-.005 0h.005v-1.143h-.005zm-.005 0h.005v-1.143h-.005zm-.006 0h.006v-1.143h-.006zm-.005 0h.005v-1.143h-.005zm-.005 0h.005v-1.143h-.005zm-.005 0h.005v-1.143h-.005zm-.005 0h.005v-1.143h-.005zm-.005 0h.005v-1.143h-.005zm-.005 0h.005v-1.143h-.005zm-.005 0h.005v-1.143h-.005zm-.005 0h.005v-1.143h-.005zm-.005 0h.005v-1.143h-.005zm-.004 0h.005v-1.143h-.005zm-.005 0h.005v-1.143H32.2zm-.004 0h.004v-1.143h-.004zm-.005 0h.005v-1.143h-.005zm-.004 0h.005v-1.143h-.005zm-.004 0h.004v-1.143h-.004zm-.004 0h.004v-1.143h-.004zm-.005 0h.005v-1.143h-.005zm-.004 0h.005v-1.143h-.005zm-.004 0h.004v-1.143h-.004zm-.004 0h.004v-1.143h-.004zm-.004 0h.004v-1.143h-.004zm-.003 0h.003v-1.143h-.003zm-.004 0h.004v-1.143h-.004zm-.004 0h.004v-1.143h-.004zm-.003 0h.003v-1.143h-.003zm-.004 0h.004v-1.143h-.004zm-.004 0h.004v-1.143h-.004zm-.003 0h.003v-1.143h-.003zm-.004 0h.004v-1.143h-.004zm-.003 0h.004v-1.143h-.004zm-.003 0h.003v-1.143h-.003zm-.003 0h.003v-1.143h-.003zm-.003 0h.003v-1.143h-.003zm-.004 0h.004v-1.143h-.004zm-.003 0h.003v-1.143h-.003zm-.003 0h.003v-1.143h-.003zm-.003 0h.003v-1.143h-.003zm-.002 0h.002v-1.143h-.002zm-.003 0h.003v-1.143h-.003zm-.003 0h.003v-1.143h-.003zm-.003 0h.003v-1.143h-.003zm-.003 0h.003v-1.143h-.003zm-.002 0h.002v-1.143h-.002zm-.003 0h.003v-1.143h-.003zm-.002 0h.002v-1.143h-.002zm-.003 0h.003v-1.143h-.003zm-.002 0h.002v-1.143h-.002zm-.003 0h.003v-1.143h-.003zm-.002 0h.002v-1.143h-.002zm-.002 0h.002v-1.143h-.002zm-.002 0h.002v-1.143h-.002zm-.003 0h.002v-1.143h-.002zm-.002 0h.002v-1.143h-.002zm-.002 0h.002v-1.143h-.002zm-.002 0h.002v-1.143h-.002zm-.002 0h.002v-1.143h-.002zm-.002 0h.002v-1.143h-.002zm-.002 0h.002v-1.143h-.002zm-.002 0h.002v-1.143h-.002zm-.002 0h.002v-1.143h-.002zm-.001 0h.002v-1.143h-.002zm-.002 0h.002v-1.143h-.002zm-.002 0h.002v-1.143h-.002zm-.001 0v-1.143h-.001zm-.002 0h.002v-1.143h-.002zm-.002 0h.002v-1.143h-.002zm-.001 0h.002v-1.143h-.002zm-.002 0h.002v-1.143h-.002zm-.001 0v-1.143h-.001zm-.002 0h.002v-1.143h-.002zm0 0v-1.143zm-.002 0v-1.143h-.001zm-.001 0v-1.143zm-.002 0h.002v-1.143h-.002zm-.001 0v-1.143h-.001zm-.001 0v-1.143h-.001zm-.001 0v-1.143zm-.002 0h.002v-1.143h-.002zm0 0v-1.143zm-.002 0v-1.143zm0 0v-1.143zm-.002 0v-1.143zm0 0v-1.143zm-.002 0v-1.143zm0 0v-1.143zm-.001 0v-1.143zm-.001 0v-1.143zm-.001 0v-1.143zm0 0v-1.143zm-.002 0v-1.143zm0 0v-1.143zm-.001 0v-1.143zm0 0v-1.143zm-.001 0v-1.143zm0 0v-1.143zm-.002 0v-1.143zm0 0v-1.143zm0 0v-1.143zm-.001 0v-1.143zm0 0v-1.143zm-.001 0v-1.143zm0 0v-1.143zm-.001 0v-1.143zm0 0v-1.143zm0 0v-1.143zm-.001 0v-1.143zm0 0v-1.143zm-.001 0v-1.143zm0 0v-1.143zm0 0v-1.143zm0 0v-1.143zm-.001 0v-1.143zm0 0v-1.143zm0 0v-1.143zm0 0v-1.143zm-.001 0v-1.143zm0 0v-1.143zm0 0v-1.143zm0 0v-1.143zm0 0v-1.143zm0 0v-1.143zm-.001 0v-1.143zm0 0v-1.143zm0 0v-1.143zm0 0v-1.143zm0 0v-1.143zm0 0v-1.143zm0 0v-1.143zm0 0v-1.143zm0 0v-1.143zm0 0v-1.143zm0 0v-1.143zm0 0v-1.143zm0 0v-1.143zm0 0v-1.143zm0 0v-1.143zm0 0v-1.143zm-.001 0v-1.143zm0 0v-1.143zm0 0v-1.143zm0 0v-1.143zm0 0v-1.143zm0 0v-1.143zm0 0v-1.143zm0 0v-1.143zm0 0v-1.143zm0 0v-1.143zm0 0v-1.143zm0 0v-1.143zm0 0v-1.143zm0 0v-1.143zm0 0v-1.143zm0 0v-1.143zm0 0v-1.143zm-.001 0v-1.143zm0 0v-1.143zm0 0v-1.143zm0 0v-1.143zm0 0v-1.143zm0 0v-1.143zm-.001 0v-1.143zm0 0v-1.143zm0 0v-1.143zm0 0v-1.143zm-.001 0v-1.143zm0 0v-1.143zm0 0v-1.143zm0 0v-1.143zm-.001 0v-1.143zm0 0v-1.143zm-.001 0v-1.143zm0 0v-1.143zm0 0v-1.143zm-.001 0v-1.143zm0 0v-1.143zm-.001 0v-1.143zm0 0v-1.143zm-.001 0v-1.143zm0 0v-1.143zm-.001 0v-1.143zm-.001 0v-1.143zm0 0v-1.143zm-.001 0v-1.143zm0 0v-1.143zm-.002 0v-1.143zm0 0v-1.143zm-.001 0v-1.143zm0 0v-1.143zm-.002 0v-1.143zm0 0v-1.143zm-.001 0v-1.143zm-.001 0v-1.143zm-.001 0v-1.143zm-.001 0v-1.143zm-.001 0v-1.143zm-.001 0v-1.143zm-.001 0v-1.143zm-.001 0v-1.143zm-.002 0h.002v-1.143h-.002zm0 0v-1.143zm-.002 0v-1.143zm-.001 0v-1.143h-.001zm-.001 0v-1.143zm-.002 0h.002v-1.143h-.002zm-.001 0v-1.143h-.001zm-.002 0h.002v-1.143h-.002zm0 0v-1.143zm-.002 0v-1.143h-.001zm-.002 0h.002v-1.143h-.002zm-.001 0v-1.143h-.001zm-.002 0h.002v-1.143h-.002zm-.002 0h.002v-1.143h-.002zm-.001 0v-1.143h-.001zm-.002 0h.002v-1.143h-.002zm-.002 0h.002v-1.143h-.002zm-.001 0v-1.143h-.001zm-.002 0h.002v-1.143h-.002zm-.002 0h.002v-1.143h-.002zm-.002 0h.002v-1.143h-.002zm-.002 0h.002v-1.143h-.002zm-.002 0h.002v-1.143h-.002zm-.002 0h.002v-1.143h-.002zm-.002 0h.002v-1.143h-.002zm-.002 0h.002v-1.143h-.002zm-.002 0h.002v-1.143h-.002zm-.003 0h.003v-1.143h-.003zm-.002 0h.002v-1.143h-.002zm-.002 0h.002v-1.143h-.002zm-.003 0h.003v-1.143h-.003zm-.002 0h.002v-1.143h-.002zm-.003 0h.003v-1.143h-.003zm-.002 0h.002v-1.143h-.002zm-.003 0h.003v-1.143h-.003zm-.002 0h.002v-1.143h-.002zm-.003 0h.003v-1.143h-.003zm-.003 0h.003v-1.143h-.003zm-.003 0h.003v-1.143h-.003zm-.002 0h.002v-1.143H31.9zm-.003 0h.003v-1.143h-.003zm-.003 0h.003v-1.143h-.003zm-.003 0h.003v-1.143h-.003zm-.003 0h.003v-1.143h-.003zm-.003 0h.003v-1.143h-.003zm-.004 0h.004v-1.143h-.004zm-.003 0h.003v-1.143h-.003zm-.003 0h.003v-1.143h-.003zm-.003 0h.003v-1.143h-.003zm-.004 0h.003v-1.143h-.003zm-.003 0h.003v-1.143h-.003zm-.004 0h.004v-1.143h-.004zm-.003 0h.003v-1.143h-.003zm-.004 0h.004v-1.143h-.004zm-.004 0h.004v-1.143h-.004zm-.004 0h.004v-1.143h-.004zm-.003 0h.003v-1.143h-.003zm-.004 0h.004v-1.143h-.004zm-.004 0h.004v-1.143h-.004zm-.004 0h.004v-1.143h-.004zm-.004 0h.004v-1.143h-.004zm-.005 0h.005v-1.143h-.005zm-.004 0h.005v-1.143h-.005zm-.004 0h.004v-1.143h-.004zm-.004 0h.004v-1.143h-.004zm-.005 0h.005v-1.143h-.005zm-.004 0h.004v-1.143H31.8zm-.005 0h.005v-1.143h-.005zm-.005 0h.005v-1.143h-.005zm-.004 0h.005v-1.143h-.005zm-.005 0h.005v-1.143h-.005zm-.005 0h.005v-1.143h-.005zm-.005 0h.005v-1.143h-.005zm-.005 0h.005v-1.143h-.005zm-.005 0h.005v-1.143h-.005zm-.005 0h.005v-1.143h-.005zm-.005 0h.005v-1.143h-.005zm-.005 0h.005v-1.143h-.005zm-.005 0h.005v-1.143h-.005zm-.006 0h.006v-1.143h-.006zm-.005 0h.005v-1.143h-.005zm-.006 0h.006v-1.143h-.006zm-.006 0h.006v-1.143h-.006zm-.005 0h.005v-1.143h-.005zm-.006 0h.006v-1.143h-.006zm-.006 0h.006v-1.143H31.7zm-.006 0h.006v-1.143h-.006zm-.006 0h.006v-1.143h-.006zm-.006 0h.006v-1.143h-.006zm-.006 0h.006v-1.143h-.006zm-.006 0h.006v-1.143h-.006zm-.007 0h.006v-1.143h-.006zm-.006 0h.006v-1.143h-.006zm-.007 0h.007v-1.143h-.007zm-.006 0h.006v-1.143h-.006zm-.007 0h.007v-1.143h-.007zm-.007 0h.007v-1.143h-.007zm-.006 0h.006v-1.143h-.006zm-.008 0h.008v-1.143h-.008zm-.007 0h.008v-1.143h-.008zm-.006 0h.006v-1.143h-.006zm-.008 0h.008v-1.143h-.008zm-.007 0h.007v-1.143h-.007zm-.007 0h.007v-1.143h-.007zm-.008 0h.008v-1.143h-.008zm-.007 0h.007v-1.143h-.007zm-.008 0h.008v-1.143h-.008zm-.008 0h.008v-1.143h-.008zm-.007 0h.008v-1.143h-.008zm-.008 0h.008v-1.143h-.008zm-.008 0h.008v-1.143h-.008zm-.008 0h.008v-1.143h-.008zm-.008 0h.008v-1.143h-.008zm-.009 0h.009v-1.143h-.009zm-.008 0h.008v-1.143h-.008zm-.008 0h.008v-1.143h-.008zm-.009 0h.009v-1.143h-.009zm-.008 0h.008v-1.143h-.008zm-.01 0h.01v-1.143h-.01zm-.008 0h.009v-1.143h-.009zm-.009 0h.01v-1.143h-.01zm-.009 0h.01v-1.143h-.01zm-.009 0h.01v-1.143h-.01zm-.009 0h.01v-1.143h-.01zm-.01 0h.01v-1.143h-.01zm-.009 0h.01v-1.143h-.01zm-.01 0h.01v-1.143h-.01zm-.009 0h.01v-1.143h-.01zm-.01 0h.01v-1.143h-.01zm-.01 0h.01v-1.143h-.01zm-.009 0h.01v-1.143h-.01zm-.01 0h.01v-1.143h-.01zm-.01 0h.01v-1.143h-.01zm-.01 0h.01v-1.143h-.01zm-.01 0h.01v-1.143h-.01zm-.01 0h.01v-1.143h-.01zm-.011 0h.01v-1.143h-.01zm-.01 0h.01v-1.143h-.01zm-.011 0h.01v-1.143h-.01zm-.011 0h.01v-1.143h-.01zm-.011 0h.01v-1.143h-.01zm-.011 0h.01v-1.143h-.01zm-.011 0h.01v-1.143h-.01zm-.011 0h.01v-1.143h-.01zm-.012 0h.012v-1.143H31.2zm-.011 0h.011v-1.143h-.011zm-.012 0h.012v-1.143h-.012zm-.011 0h.011v-1.143h-.011zm-.012 0h.012v-1.143h-.012zm-.012 0h.012v-1.143h-.012zm-.012 0h.012v-1.143h-.012zm-.012 0h.012v-1.143h-.012zm-.012 0h.012v-1.143h-.012zm-.013 0h.013v-1.143h-.013zm-.012 0h.012v-1.143h-.012zm-.013 0h.013v-1.143h-.013zm-.012 0h.012v-1.143h-.012zm-.013 0h.013v-1.143h-.013zm-.013 0h.013v-1.143h-.013zm-.013 0h.013v-1.143h-.013zm-.013 0h.013v-1.143h-.013zm-.013 0h.013v-1.143h-.013zm-.014 0h.014v-1.143h-.014zm-.013 0h.014v-1.143h-.014zm-.013 0h.013v-1.143h-.013zm-.014 0h.014v-1.143h-.014zm-.014 0h.014v-1.143h-.014zm-.014 0h.014v-1.143h-.014zm-.014 0h.014v-1.143h-.014zm-.014 0h.014v-1.143h-.014zm-.015 0h.015v-1.143h-.015zm-.014 0h.014v-1.143h-.014zm-.014 0h.014v-1.143h-.014zm-.015 0h.015v-1.143h-.015zm-.015 0h.015v-1.143h-.015zm-.015 0h.015v-1.143h-.015zm-.015 0h.015v-1.143h-.015zm-.015 0h.015v-1.143h-.015zm-.015 0h.015v-1.143h-.015zm-.016 0h.016v-1.143h-.016zm-.015 0h.015v-1.143h-.015zm-.016 0h.016v-1.143H30.7zm-.015 0h.015v-1.143h-.015zm-.016 0h.015v-1.143h-.015zm-.016 0h.016v-1.143h-.016zm-.017 0h.017v-1.143h-.017zm-.016 0h.016v-1.143h-.016zm-.016 0h.016v-1.143h-.016zm-.017 0h.017v-1.143h-.017zm-.017 0h.017v-1.143h-.017zm-1.943.214c.272-.102.881-.214 1.944-.214v-1.143c-1.108 0-1.88.113-2.343.286zM29 40.857V28.998h-1.143v11.86zm-3.428 3.429A3.43 3.43 0 0 0 29 40.857h-1.143a2.286 2.286 0 0 1-2.285 2.286zm-12.143 0h12.143v-1.143H13.429zM10 40.857a3.43 3.43 0 0 0 3.429 3.429v-1.143a2.286 2.286 0 0 1-2.286-2.286zm0-6.666v6.666h1.143v-6.666zm3.429-3.429A3.43 3.43 0 0 0 10 34.191h1.143a2.286 2.286 0 0 1 2.286-2.286zm5.714 0h-5.714v1.143h5.714zm-.572-4.735v5.307h1.143v-5.307zm-5.142.572h5.714v-1.143h-5.714zM10 23.17a3.43 3.43 0 0 0 3.429 3.429v-1.143a2.286 2.286 0 0 1-2.286-2.286zm0-6.666v6.666h1.143v-6.666zm3.429-3.429A3.43 3.43 0 0 0 10 16.504h1.143a2.286 2.286 0 0 1 2.286-2.286zm7.143 0h-7.143v1.143h7.143zm2 2a2 2 0 0 0-2-2v1.143c.473 0 .857.384.857.857zm-2 2a2 2 0 0 0 2-2h-1.143a.857.857 0 0 1-.857.857zm-7.143 0h7.143v-1.143h-7.143zM14 23.17v-6.666h-1.143v6.666zm5.143-.571h-5.714v1.143h5.714zm3.428 3.428a3.43 3.43 0 0 0-3.428-3.428v1.143a2.286 2.286 0 0 1 2.286 2.285zm0 5.307v-5.307H21.43v5.307zm-3.428 3.428a3.43 3.43 0 0 0 3.428-3.428H21.43a2.286 2.286 0 0 1-2.286 2.285zm-5.714 0h5.714V33.62h-5.714zM14 40.857v-6.666h-1.143v6.666zm11.572-.571H13.429v1.143h12.143zM25 28.68v12.177h1.143V28.681zm0-2.72v2.72h1.143v-2.72zm0-.014v.013h1.143v-.013zm0-.013v.013h1.143v-.013zm0-.014v.014h1.143v-.014zm0-.013v.013h1.143v-.013zm0-.014v.014h1.143v-.014zm0-.014v.014h1.143v-.014zm0-.013v.014h1.143v-.014zm0-.014v.014h1.143v-.014zm0-.014v.014h1.143v-.014zm0-.014v.014h1.143v-.014zm0-.014v.014h1.143v-.014zm0-.014v.014h1.143v-.014zm0-.014v.014h1.143v-.014zm0-.014v.014h1.143v-.014zm0-.014v.014h1.143v-.014zm0-.014v.014h1.143v-.014zm0-.015v.015h1.143v-.015zm0-.014v.014h1.143v-.014zm0-.014v.014h1.143v-.014zm0-.015v.015h1.143v-.015zm0-.014v.014h1.143v-.014zm0-.015v.015h1.143v-.015zm0-.015v.015h1.143v-.015zm0-.014v.014h1.143v-.014zm0-.015v.015h1.143v-.015zm0-.015v.015h1.143v-.015zm0-.015v.015h1.143v-.015zm0-.015v.015h1.143v-.015zm0-.015v.015h1.143v-.015zm0-.015v.015h1.143v-.015zm0-.015v.015h1.143v-.015zm0-.015v.015h1.143v-.015zm0-.016v.016h1.143v-.016zm0-.015v.015h1.143v-.015zm0-.015v.015h1.143v-.015zm0-.016v.016h1.143v-.016zm0-.015v.015h1.143v-.015zm0-.016v.016h1.143v-.016zm0-.015v.015h1.143v-.015zm0-.016v.016h1.143v-.016zm0-.016v.016h1.143v-.016zm0-.015v.015h1.143v-.015zm0-.016v.016h1.143v-.016zm0-.016v.016h1.143v-.016zm0-.016v.016h1.143V25.3zm0-.016v.016h1.143v-.016zm0-.016v.016h1.143v-.016zm0-.016v.016h1.143v-.016zm0-.016v.016h1.143v-.016zm0-.016v.016h1.143v-.016zm0-.016v.016h1.143v-.016zm0-.017v.017h1.143v-.017zm0-.016v.017h1.143v-.017zm0-.016v.016h1.143v-.016zm0-.017v.017h1.143v-.017zm0-.016v.016h1.143v-.016zm0-.017v.017h1.143v-.017zm0-.016v.016h1.143v-.016zm0-.017v.017h1.143v-.017zm0-.017v.017h1.143v-.017zm0-.016v.016h1.143v-.016zm0-.017v.017h1.143v-.017zm0-.017v.017h1.143v-.017zm0-.017v.017h1.143v-.017zm0-.017v.017h1.143v-.017zm0-.017v.017h1.143v-.017zm0-.017v.017h1.143v-.017zm0-.017v.017h1.143v-.017zm0-.017v.018h1.143v-.018zm0-.017v.017h1.143v-.017zm0-.017v.017h1.143v-.017zm0-.017v.017h1.143v-.017zm0-.018v.018h1.143v-.018zm0-.017v.017h1.143v-.017zm0-.017v.017h1.143V24.8zm0-.018v.018h1.143v-.018zm0-.017v.017h1.143v-.017zm0-.018v.018h1.143v-.018zm0-.017v.017h1.143v-.017zm0-.018v.018h1.143v-.018zm0-.017v.017h1.143v-.017zm0-.018v.018h1.143v-.018zm0-.018v.018h1.143v-.018zm0-.017v.017h1.143v-.017zm0-.018v.018h1.143v-.018zm0-.018v.018h1.143v-.018zm0-.018v.018h1.143v-.018zm0-.018v.018h1.143v-.018zm0-.018v.018h1.143v-.018zm0-.018v.018h1.143v-.018zm0-.018v.018h1.143v-.018zm0-.018v.018h1.143v-.018zm0-.018v.018h1.143v-.018zm0-.018v.018h1.143v-.018zm0-.019v.018h1.143v-.018zm0-.018v.018h1.143v-.018zm0-.018v.018h1.143v-.018zm0-.019v.019h1.143v-.019zm0-.018v.018h1.143v-.018zm0-.018v.018h1.143v-.018zm0-.019v.019h1.143v-.019zm0-.018v.018h1.143v-.018zm0-.019v.018h1.143v-.018zm0-.019v.019h1.143v-.019zm0-.018v.018h1.143v-.018zm0-.019v.019h1.143v-.019zm0-.018v.018h1.143v-.018zm0-.02v.02h1.143v-.02zm0-.018v.019h1.143v-.019zm0-.019v.019h1.143v-.019zm0-.019v.02h1.143v-.02zm0-.018v.018h1.143v-.018zm0-.02v.02h1.143v-.02zm0-.018v.018h1.143v-.018zm0-.02v.02h1.143v-.02zm0-.018v.019h1.143v-.02zm0-.02v.02h1.143v-.02zm0-.018v.019h1.143v-.02zm0-.02v.02h1.143v-.02zm0-.019v.02h1.143v-.02zm0-.019v.02h1.143v-.02zm0-.02v.02h1.143v-.02zm0-.018v.019h1.143v-.02zm0-.02v.02h1.143v-.02zm0-.02v.02h1.143v-.02zm0-.018v.019h1.143v-.02zm0-.02v.02h1.143v-.02zm0-.02v.02h1.143v-.02zm0-.019v.02h1.143v-.02zm0-.02v.02h1.143v-.02zm0-.019v.02h1.143v-.02zm0-.02v.02h1.143v-.02zm0-.019v.02h1.143v-.02zm0-.02v.02h1.143v-.02zm0-.019v.02h1.143v-.02zm0-.02v.02h1.143v-.02zm0-.02v.02h1.143v-.02zm0-.02v.02h1.143v-.02zm0-.019v.02h1.143v-.02zm0-.02v.02h1.143v-.02zm0-.02v.02h1.143v-.02zm0-.02v.02h1.143v-.02zm0-.02v.02h1.143v-.02zm0-.019v.02h1.143v-.02zm0-.02v.02h1.143v-.02zm0-.02v.02h1.143v-.02zm0-.02v.02h1.143v-.02zm0-.02v.02h1.143v-.02zm0-.02v.02h1.143v-.02zm0-.02v.02h1.143v-.02zm0-.02v.02h1.143v-.02zm0-.02v.02h1.143v-.02zm0-.02v.02h1.143v-.02zm0-.02v.02h1.143v-.02zm0-.02v.02h1.143v-.02zm0-.02v.02h1.143v-.02zm0-.021v.02h1.143v-.02zm0-.02v.02h1.143v-.02zm0-.02v.02h1.143v-.02zm0-.02v.02h1.143v-.02zm0-.021v.02h1.143v-.02zm0-.02v.02h1.143v-.02zm0-.02v.02h1.143v-.02zm0-.021v.02h1.143v-.02zm0-.02v.02h1.143v-.02zm0-.021v.02h1.143v-.02zm0-.02v.02h1.143v-.02zm0-.021v.02h1.143v-.02zm0-.02v.02h1.143V23zm0-.021V23h1.143v-.02zm0-.02v.02h1.143v-.02zm0-.021v.02h1.143v-.02zm0-.02v.02h1.143v-.02zm0-.021v.02h1.143v-.02zm0-.021v.02h1.143v-.02zm0-.02v.02h1.143v-.02zm0-.021v.02h1.143v-.02zm0-.021v.02h1.143v-.02zm0-.02v.02h1.143v-.02zm0-.022v.021h1.143v-.02zm0-.02v.02h1.143v-.02zm0-.021v.02h1.143v-.02zm0-.02v.02h1.143v-.02zm0-.022v.021h1.143v-.02zm0-.02v.02h1.143v-.02zm0-.021v.02h1.143v-.02zm0-.021v.02h1.143v-.02zm0-.02v.02h1.143v-.02zm0-.022v.021h1.143v-.02zm0-.02v.02h1.143v-.02zm0-.022v.021h1.143v-.02zm0-.02v.02h1.143v-.02zm0-.021v.02h1.143v-.02zm0-.021v.02h1.143v-.02zm0-.021v.02h1.143v-.02zm0-.021v.02h1.143v-.02zm0-.021v.02h1.143v-.02zm0-.021v.02h1.143v-.02zm0-.021v.02h1.143v-.02zm0-.021v.02h1.143v-.02zm0-.022v.021h1.143v-.02zm0-.02v.02h1.143v-.02zm0-.022v.021h1.143v-.02zm0-.02v.02h1.143v-.02zm0-.022v.021h1.143v-.02zm0-.021v.021h1.143v-.021zm0-.021v.021h1.143v-.021zm0-.021v.02h1.143v-.02zm0-.021v.02h1.143v-.02zm0-.022v.022h1.143v-.022zm0-.02v.02h1.143v-.02zm0-.022v.021h1.143v-.02zm0-.021v.021h1.143v-.021zm0-.021v.02h1.143v-.02zm0-.022v.022h1.143v-.022zm0-.02v.02h1.143v-.02zm0-.022v.021h1.143v-.021zm0-.021v.021h1.143v-.021zm0-.022v.022h1.143v-.022zm0-.02v.02h1.143v-.02zm0-.022v.021h1.143v-.021zm0-.021v.021h1.143v-.021zm0-.022v.022h1.143v-.022zm0-.02v.02h1.143v-.02zm0-.022v.021h1.143v-.021zm0-.021v.02h1.143v-.02zm0-.022v.021h1.143v-.02zm0-.021v.021h1.143v-.021zm0-.021v.02h1.143v-.02zm0-.022v.022h1.143v-.022zm0-.021v.021h1.143v-.021zm0-.021v.02h1.143v-.02zm0-.022v.022h1.143v-.022zm0-.021v.021h1.143v-.021zm0-.021v.02h1.143v-.02zm0-.022v.021h1.143v-.02zm0-.021v.021h1.143v-.021zm0-.022v.022h1.143v-.022zm0-.02v.02h1.143v-.02zm0-.022v.021h1.143v-.021zm0-.022v.022h1.143v-.022zm0-.021v.021h1.143v-.021zm0-.021v.02h1.143v-.02zm0-.022v.021h1.143v-.02zm0-.021v.021h1.143v-.02zm0-.022v.022h1.143v-.022zm0-.021v.021h1.143v-.021zm0-.021v.021h1.143v-.021zm0-.022v.022h1.143v-.022zm0-.021v.021h1.143v-.021zm0-.022v.022h1.143v-.022zm0-.021v.021h1.143v-.021zm0-.021v.021h1.143v-.021zm0-.022v.022h1.143v-.022zm0-.021v.021h1.143v-.021zm0-.021v.02h1.143v-.02zm0-.022v.021h1.143v-.02zm0-.021v.021h1.143v-.021zm0-.022v.022h1.143v-.022zm0-.021v.021h1.143v-.021zm0-.021v.02h1.143v-.02zm0-.022v.021h1.143v-.02zm0-.021v.021h1.143v-.021zm0-.022v.022h1.143v-.022zm0-.021v.021h1.143v-.021zm0-.021v.021h1.143v-.021zm0-.022v.022h1.143v-.022zm0-.021v.021h1.143v-.021zm0-.021v.02h1.143v-.02zm0-.022v.022h1.143v-.022zm0-.021v.021h1.143v-.021zm0-.021v.02h1.143v-.02zm0-.022v.021h1.143v-.02zm0-.021v.021h1.143v-.021zm0-.021v.02h1.143v-.02zm0-.022v.021h1.143v-.02zm0-.021v.021h1.143v-.021zm0-.021v.02h1.143v-.02zm0-.022v.022h1.143v-.022zm0-.021v.021h1.143v-.021zm0-.021v.021h1.143v-.021zm0-.022v.022h1.143v-.022zm0-.02v.02h1.143v-.02zm0-.022v.021h1.143v-.021zm0-.021v.02h1.143v-.02zm0-.022v.022h1.143v-.022zm0-.02v.02h1.143v-.02zm0-.022v.021h1.143v-.021zm0-.021v.02h1.143v-.02zm0-.022v.022h1.143v-.022zm0-.02v.02h1.143v-.02zm0-.022v.021h1.143v-.021zm0-.021v.021h1.143v-.021zm0-.021v.02h1.143v-.02zm0-.021v.02h1.143v-.02zm0-.022v.021h1.143v-.02zm0-.02v.02h1.143v-.02zm0-.022v.021h1.143v-.02zm0-.021v.021h1.143v-.021zm0-.021v.021h1.143v-.021zm0-.021v.02h1.143v-.02zm0-.021v.02h1.143v-.02zm0-.021v.02h1.143v-.02zm0-.021v.02h1.143v-.02zm0-.021v.02h1.143v-.02zm0-.021v.02h1.143v-.02zm0-.021v.02h1.143v-.02zm0-.021v.02h1.143v-.02zm0-.021v.02h1.143v-.02zm0-.021v.02h1.143v-.02zm0-.021v.02h1.143v-.02zm0-.021v.02h1.143v-.02zm0-.021v.02h1.143v-.02zm0-.021v.02h1.143v-.02zm0-.021v.02h1.143v-.02zm0-.021v.02h1.143v-.02zm0-.02v.02h1.143v-.02zm0-.022v.021h1.143v-.02zm0-.02v.02h1.143v-.02zm0-.021v.02h1.143v-.02zm0-.021v.02h1.143v-.02zm0-.02v.02h1.143v-.02zm0-.022v.021h1.143v-.02zm0-.02v.02h1.143v-.02zm0-.021v.02h1.143v-.02zm0-.02v.02h1.143v-.02zm0-.021v.02h1.143v-.02zm0-.021v.02h1.143v-.02zm0-.02v.02h1.143v-.02zm0-.021v.02h1.143v-.02zm0-.021v.02h1.143v-.02zm0-.02v.02h1.143v-.02zm0-.021v.02h1.143v-.02zm0-.02v.02h1.143v-.02zm0-.021v.02h1.143v-.02zm0-.02v.02h1.143v-.02zm0-.021v.02h1.143v-.02zm0-.02v.02h1.143v-.02zm0-.021v.02h1.143v-.02zm0-.02v.02h1.143v-.02zm0-.02v.02h1.143v-.02zm0-.021v.02h1.143v-.02zm0-.02v.02h1.143v-.02zm0-.02v.02h1.143v-.02zm0-.021v.02h1.143v-.02zm0-.02v.02h1.143v-.02zm0-.02v.02h1.143v-.02zm0-.021v.02h1.143v-.02zm0-.02v.02h1.143v-.02zm0-.02v.02h1.143v-.02zm0-.02v.02h1.143v-.02zm0-.02v.02h1.143v-.02zm0-.02v.02h1.143v-.02zm0-.02v.02h1.143v-.02zm0-.02v.02h1.143v-.02zm0-.02v.02h1.143v-.02zm0-.02v.02h1.143v-.02zm0-.02v.02h1.143v-.02zm0-.02v.02h1.143v-.02zm0-.02v.02h1.143v-.02zm0-.02v.02h1.143v-.02zm0-.02v.02h1.143v-.02zm0-.02v.02h1.143v-.02zm0-.02v.02h1.143v-.02zm0-.02v.02h1.143v-.02zm0-.02v.02h1.143v-.02zm0-.02v.02h1.143v-.02zm0-.019v.02h1.143v-.02zm0-.02v.02h1.143v-.02zm0-.02v.02h1.143v-.02zm0-.019v.02h1.143v-.02zm0-.02v.02h1.143v-.02zm0-.019v.02h1.143v-.02zm0-.02v.02h1.143v-.02zm0-.019v.02h1.143v-.02zm0-.02v.02h1.143v-.02zm0-.019v.02h1.143v-.02zm0-.02v.02h1.143v-.02zm0-.019v.02h1.143v-.02zm0-.019v.02h1.143v-.02zm0-.02v.02h1.143v-.02zm0-.018v.019h1.143v-.02zm0-.02v.02h1.143v-.02zm0-.019v.02h1.143v-.02zm0-.019v.02h1.143v-.02zm0-.02v.02h1.143v-.02zm0-.018v.019h1.143v-.02zm0-.02v.02h1.143v-.02zm0-.018v.019h1.143v-.02zm0-.02v.02h1.143v-.02zm0-.018v.019h1.143v-.02zm0-.02v.02h1.143v-.02zm0-.018v.019h1.143v-.019zm0-.019v.02h1.143v-.02zm0-.019v.02h1.143v-.02zm0-.018v.018h1.143v-.018zm0-.02v.02h1.143v-.02zm0-.018v.019h1.143v-.019zm0-.018v.018h1.143v-.018zm0-.019v.019h1.143v-.019zm0-.019v.019h1.143v-.019zm0-.018v.018h1.143v-.018zm0-.019v.019h1.143v-.019zm0-.018v.018h1.143v-.018zm0-.018v.018h1.143v-.018zm0-.019v.018h1.143v-.018zm0-.018v.018h1.143v-.018zm0-.018v.018h1.143v-.018zm0-.019v.018h1.143v-.018zm0-.018v.018h1.143v-.018zm0-.018v.018h1.143v-.018zM25 18v.018h1.143V18zm0-.018V18h1.143v-.018zm0-.018v.018h1.143v-.018zm0-.018v.018h1.143v-.018zm0-.018v.018h1.143v-.018zm0-.018v.017h1.143v-.017zm0-.018v.018h1.143v-.018zm0-.018v.018h1.143v-.018zm0-.018v.018h1.143v-.018zm0-.018v.018h1.143v-.018zm0-.017v.017h1.143v-.017zm0-.018v.018h1.143v-.018zm0-.018v.018h1.143v-.018zm0-.017v.017h1.143v-.017zm0-.018v.018h1.143v-.018zm0-.017v.017h1.143v-.017zm0-.018v.018h1.143v-.018zm0-.017v.017h1.143V17.7zm0-.018v.018h1.143v-.018zm0-.017v.017h1.143v-.017zm0-.017v.017h1.143v-.017zm0-.017v.017h1.143v-.017zm0-.018v.018h1.143v-.018zm0-.017v.017h1.143v-.017zm0-.017v.017h1.143v-.017zm0-.017v.017h1.143v-.017zm0-.017v.017h1.143v-.017zm0-.017v.017h1.143v-.017zm0-.017v.017h1.143v-.017zm0-.017v.017h1.143v-.017zm0-.016v.016h1.143v-.016zm0-.017v.017h1.143v-.017zm0-.017v.017h1.143v-.017zm0-.017v.017h1.143v-.017zm0-.016v.017h1.143v-.017zm0-.017v.017h1.143v-.017zm0-.016v.016h1.143v-.016zm0-.017v.017h1.143v-.017zm0-.016v.016h1.143v-.016zm0-.016v.016h1.143v-.016zm0-.017v.017h1.143v-.017zm0-.016v.016h1.143v-.016zm0-.016v.016h1.143v-.016zm0-.016v.016h1.143v-.016zm0-.017v.017h1.143v-.017zm0-.015v.015h1.143v-.015zm0-.017v.017h1.143v-.017zm0-.015v.015h1.143V17.2zm0-.016v.016h1.143v-.016zm0-.016v.016h1.143v-.016zm0-.016v.016h1.143v-.016zm0-.016v.016h1.143v-.016zm0-.015v.015h1.143v-.015zm0-.016v.016h1.143v-.016zm0-.016v.016h1.143v-.016zm0-.015v.015h1.143v-.015zm0-.015v.015h1.143v-.015zm0-.016v.015h1.143v-.015zm0-.015v.015h1.143v-.015zm0-.016v.016h1.143v-.016zm0-.015v.015h1.143v-.015zm0-.015v.015h1.143v-.015zm0-.015v.015h1.143v-.015zm0-.015v.015h1.143v-.015zm0-.015v.015h1.143v-.015zm0-.015v.015h1.143v-.015zm0-.015v.015h1.143v-.015zm0-.015v.015h1.143v-.015zm0-.015v.015h1.143v-.015zm0-.014v.014h1.143v-.014zm0-.015v.015h1.143v-.015zm0-.015v.015h1.143v-.015zm0-.014v.014h1.143v-.014zm0-.015v.015h1.143v-.015zm0-.014v.014h1.143v-.014zm0-.015v.015h1.143v-.015zm0-.014v.014h1.143v-.014zm0-.014v.014h1.143v-.014zm0-.014v.014h1.143v-.014zm0-.014v.014h1.143v-.014zm0-.014v.014h1.143v-.014zm0-.014v.014h1.143v-.014zm0-.014v.014h1.143v-.014zm0-.014v.014h1.143v-.014zm0-.014v.014h1.143v-.014zm0-.014v.014h1.143v-.014zm0-.014v.014h1.143v-.014zm0-.013v.014h1.143v-.014zm0-.014v.014h1.143v-.014zm0-.013v.013h1.143v-.013zm0-.014v.014h1.143v-.014zm0-.013v.013h1.143v-.013zm0-.013v.013h1.143v-.013zm0-.014v.014h1.143v-.014zm0-.013v.013h1.143v-.013zm0-.013v.013h1.143V16.5zm0-.013v.013h1.143v-.013zm0-.013v.013h1.143v-.013zm0-.013v.013h1.143v-.013zm0-.013v.013h1.143v-.013zm0-.012v.012h1.143v-.012zm1.118-2.938C25.401 14.266 25 15.27 25 16.436h1.143c0-.889.3-1.61.81-2.158zm2.241-1.35c-.726.23-1.567.628-2.24 1.35l.835.78c.492-.528 1.134-.844 1.751-1.04zm3.593-.434c-.695 0-2.212-.004-3.593.434l.346 1.09c1.189-.378 2.537-.38 3.246-.38zm.048 0h-.048v1.143H32zm.048 0H32v1.143h.049zm3.593.434c-1.38-.438-2.898-.434-3.593-.434v1.143c.71 0 2.058.003 3.247.38zm2.24 1.35c-.673-.722-1.514-1.12-2.24-1.35l-.346 1.09c.617.196 1.259.512 1.751 1.04zM39 16.436c0-1.166-.401-2.17-1.118-2.938l-.836.78c.512.547.811 1.27.811 2.158zm0 .012v-.012h-1.143v.012zm0 .013v-.013h-1.143v.013zm0 .013v-.013h-1.143v.013zm0 .013v-.013h-1.143v.013zm0 .013v-.013h-1.143v.013zm0 .013V16.5h-1.143v.013zm0 .013v-.013h-1.143v.013zm0 .014v-.014h-1.143v.014zm0 .013v-.013h-1.143v.013zm0 .013v-.013h-1.143v.013zm0 .014v-.014h-1.143v.014zm0 .013v-.013h-1.143v.013zm0 .014v-.014h-1.143v.014zm0 .014v-.014h-1.143v.014zm0 .013v-.014h-1.143v.014zm0 .014v-.014h-1.143v.014zm0 .014v-.014h-1.143v.014zm0 .014v-.014h-1.143v.014zm0 .014v-.014h-1.143v.014zm0 .014v-.014h-1.143v.014zm0 .014v-.014h-1.143v.014zm0 .014v-.014h-1.143v.014zm0 .014v-.014h-1.143v.014zm0 .014v-.014h-1.143v.014zm0 .014v-.014h-1.143v.014zm0 .015v-.015h-1.143v.015zm0 .014v-.014h-1.143v.014zm0 .015v-.015h-1.143v.015zm0 .014v-.014h-1.143v.014zm0 .015v-.015h-1.143v.015zm0 .015v-.015h-1.143v.015zm0 .014v-.014h-1.143v.014zm0 .015v-.015h-1.143v.015zm0 .015v-.015h-1.143v.015zm0 .015v-.015h-1.143v.015zm0 .015v-.015h-1.143v.015zm0 .015v-.015h-1.143v.015zm0 .015v-.015h-1.143v.015zm0 .015v-.015h-1.143v.015zm0 .015v-.015h-1.143v.015zm0 .015v-.015h-1.143v.015zm0 .016v-.016h-1.143v.016zm0 .015v-.015h-1.143v.015zm0 .015v-.015h-1.143v.015zm0 .016v-.015h-1.143v.015zm0 .015v-.015h-1.143v.015zm0 .016v-.016h-1.143v.016zm0 .016v-.016h-1.143v.016zm0 .015v-.015h-1.143v.015zm0 .016v-.016h-1.143v.016zm0 .016v-.016h-1.143v.016zm0 .016v-.016h-1.143v.016zm0 .016v-.016h-1.143v.016zm0 .015V17.2h-1.143v.015zm0 .017v-.017h-1.143v.017zm0 .015v-.015h-1.143v.015zm0 .017v-.017h-1.143v.017zm0 .016v-.016h-1.143v.016zm0 .016v-.016h-1.143v.016zm0 .016v-.016h-1.143v.016zm0 .017v-.017h-1.143v.017zm0 .016v-.016h-1.143v.016zm0 .016v-.016h-1.143v.016zm0 .017v-.017h-1.143v.017zm0 .016v-.016h-1.143v.016zm0 .017v-.017h-1.143v.017zm0 .017v-.017h-1.143v.017zm0 .016v-.017h-1.143v.017zm0 .017v-.017h-1.143v.017zm0 .017v-.017h-1.143v.017zm0 .016v-.016h-1.143v.016zm0 .017v-.017h-1.143v.017zm0 .017v-.017h-1.143v.017zm0 .017v-.017h-1.143v.017zm0 .017v-.017h-1.143v.017zm0 .017v-.017h-1.143v.017zm0 .017v-.017h-1.143v.017zm0 .017v-.017h-1.143v.017zm0 .018v-.018h-1.143v.018zm0 .017v-.017h-1.143v.017zm0 .017v-.017h-1.143v.017zm0 .017v-.017h-1.143v.017zm0 .018v-.018h-1.143v.018zm0 .017V17.7h-1.143v.017zm0 .018v-.018h-1.143v.018zm0 .017v-.017h-1.143v.017zm0 .018v-.018h-1.143v.018zm0 .017v-.017h-1.143v.017zm0 .018v-.018h-1.143v.018zm0 .018v-.018h-1.143v.018zm0 .017v-.017h-1.143v.017zm0 .018v-.018h-1.143v.018zm0 .018v-.018h-1.143v.018zm0 .018v-.018h-1.143v.018zm0 .018v-.018h-1.143v.018zm0 .017v-.017h-1.143v.017zm0 .018v-.018h-1.143v.018zm0 .018v-.017h-1.143v.018zm0 .019v-.018h-1.143v.018zM39 18v-.018h-1.143V18zm0 .018V18h-1.143v.018zm0 .018v-.018h-1.143v.018zm0 .018v-.018h-1.143v.018zm0 .018v-.018h-1.143v.018zm0 .019v-.018h-1.143v.018zm0 .018v-.018h-1.143v.018zm0 .018v-.018h-1.143v.018zm0 .019v-.018h-1.143v.018zm0 .018v-.018h-1.143v.018zm0 .019v-.019h-1.143v.019zm0 .018v-.018h-1.143v.018zm0 .019v-.019h-1.143v.019zm0 .019v-.019h-1.143v.019zm0 .018v-.018h-1.143v.018zm0 .019v-.019h-1.143v.019zm0 .019v-.02h-1.143v.02zm0 .018v-.018h-1.143v.018zm0 .02v-.02h-1.143v.02zm0 .018v-.019h-1.143v.02zm0 .019v-.019h-1.143v.019zm0 .019v-.02h-1.143v.02zm0 .019v-.02h-1.143v.02zm0 .019v-.02h-1.143v.02zm0 .019v-.02h-1.143v.02zm0 .019v-.02h-1.143v.02zm0 .019v-.02h-1.143v.02zm0 .019v-.02h-1.143v.02zm0 .02v-.02h-1.143v.02zm0 .018v-.019h-1.143v.02zm0 .02v-.02h-1.143v.02zm0 .019v-.02h-1.143v.02zm0 .02v-.02h-1.143v.02zm0 .018V18.6h-1.143v.02zm0 .02v-.02h-1.143v.02zm0 .02v-.02h-1.143v.02zm0 .018v-.019h-1.143v.02zm0 .02v-.02h-1.143v.02zm0 .02v-.02h-1.143v.02zm0 .019v-.02h-1.143v.02zm0 .02v-.02h-1.143v.02zm0 .02v-.02h-1.143v.02zm0 .019v-.02h-1.143v.02zm0 .02v-.02h-1.143v.02zm0 .019v-.02h-1.143v.02zm0 .02v-.02h-1.143v.02zm0 .02v-.02h-1.143v.02zm0 .02v-.02h-1.143v.02zm0 .019v-.02h-1.143v.02zm0 .02v-.02h-1.143v.02zm0 .02v-.02h-1.143v.02zm0 .02v-.02h-1.143v.02zm0 .02v-.02h-1.143v.02zm0 .02v-.02h-1.143v.02zm0 .02v-.02h-1.143v.02zm0 .02v-.02h-1.143v.02zm0 .02v-.02h-1.143v.02zm0 .02v-.02h-1.143v.02zm0 .02v-.02h-1.143v.02zm0 .02v-.02h-1.143v.02zm0 .02v-.02h-1.143v.02zm0 .02v-.02h-1.143v.02zm0 .02v-.02h-1.143v.02zm0 .02v-.02h-1.143v.02zm0 .02v-.02h-1.143v.02zm0 .02v-.02h-1.143v.02zm0 .02v-.02h-1.143v.02zm0 .02v-.02h-1.143v.02zm0 .021v-.02h-1.143v.02zm0 .02v-.02h-1.143v.02zm0 .02v-.02h-1.143v.02zm0 .021v-.02h-1.143v.02zm0 .02v-.02h-1.143v.02zm0 .02v-.02h-1.143v.02zm0 .021v-.02h-1.143v.02zm0 .02v-.02h-1.143v.02zm0 .021v-.02h-1.143v.02zm0 .02v-.02h-1.143v.02zm0 .021v-.02h-1.143v.02zm0 .02v-.02h-1.143v.02zm0 .021v-.02h-1.143v.02zm0 .021v-.02h-1.143v.02zm0 .02v-.02h-1.143v.02zm0 .021v-.02h-1.143v.02zm0 .02v-.02h-1.143v.02zm0 .022v-.021h-1.143v.02zm0 .02v-.02h-1.143v.02zm0 .02v-.02h-1.143v.02zm0 .022v-.021h-1.143v.02zm0 .02v-.02h-1.143v.02zm0 .021v-.02h-1.143v.02zm0 .02v-.02h-1.143v.02zm0 .022v-.021h-1.143v.02zm0 .02v-.02h-1.143v.02zm0 .021v-.02h-1.143v.02zm0 .021v-.02h-1.143v.02zm0 .021v-.02h-1.143v.02zm0 .02v-.02h-1.143v.02zm0 .022v-.021h-1.143v.02zm0 .02v-.02h-1.143v.02zm0 .022v-.021h-1.143v.02zm0 .02v-.02h-1.143v.02zm0 .021v-.02h-1.143v.02zm0 .022v-.021h-1.143v.02zm0 .02v-.02h-1.143v.02zm0 .021v-.02h-1.143v.02zm0 .021v-.02h-1.143v.02zm0 .021v-.02h-1.143v.02zm0 .022v-.021h-1.143v.02zm0 .02v-.02h-1.143v.02zm0 .022v-.021h-1.143v.02zm0 .02v-.02h-1.143v.02zm0 .022v-.021h-1.143v.02zm0 .021v-.021h-1.143v.021zm0 .021v-.021h-1.143v.021zm0 .021v-.02h-1.143v.02zm0 .021v-.02h-1.143v.02zm0 .021v-.02h-1.143v.02zm0 .022v-.021h-1.143v.02zm0 .02v-.02h-1.143v.02zm0 .022v-.021h-1.143v.021zm0 .021v-.021h-1.143v.021zm0 .021v-.02h-1.143v.02zm0 .022v-.022h-1.143v.022zm0 .02v-.02h-1.143v.02zm0 .022v-.021h-1.143v.021zm0 .021v-.02h-1.143v.02zm0 .022v-.022h-1.143v.022zm0 .02v-.02h-1.143v.02zm0 .022v-.021h-1.143v.021zm0 .021v-.02h-1.143v.02zm0 .022v-.022h-1.143v.022zm0 .021v-.021h-1.143v.021zm0 .021v-.021h-1.143v.021zm0 .022v-.022h-1.143v.022zm0 .02v-.02h-1.143v.02zm0 .022v-.021h-1.143v.021zm0 .021v-.02h-1.143v.02zm0 .022v-.021h-1.143v.02zm0 .021v-.021h-1.143v.021zm0 .021v-.02h-1.143v.02zm0 .022v-.021h-1.143v.02zm0 .021v-.021h-1.143v.021zm0 .022v-.022h-1.143v.022zm0 .02v-.02h-1.143v.02zm0 .022v-.021h-1.143v.021zm0 .022v-.022h-1.143v.022zm0 .021v-.021h-1.143v.021zm0 .021v-.021h-1.143v.021zm0 .022v-.022h-1.143v.022zm0 .021v-.021h-1.143v.021zm0 .021v-.02h-1.143v.02zm0 .022v-.021h-1.143v.02zm0 .021v-.021h-1.143v.021zm0 .022v-.022h-1.143v.022zm0 .021v-.021h-1.143v.021zm0 .021v-.02h-1.143v.02zm0 .022v-.021h-1.143v.02zm0 .021v-.021h-1.143v.021zm0 .022v-.022h-1.143v.022zm0 .021v-.021h-1.143v.021zm0 .021v-.021h-1.143v.021zm0 .022v-.022h-1.143v.022zm0 .021v-.021h-1.143v.021zm0 .022v-.022h-1.143v.022zm0 .021v-.021h-1.143v.021zm0 .021v-.021h-1.143v.021zm0 .022v-.022h-1.143v.022zm0 .021V21.4h-1.143v.021zm0 .021v-.02h-1.143v.02zm0 .022v-.021h-1.143v.02zm0 .021v-.021h-1.143v.021zm0 .022v-.022h-1.143v.022zm0 .021v-.021h-1.143v.021zm0 .021v-.02h-1.143v.02zm0 .022v-.022h-1.143v.022zm0 .021v-.021h-1.143v.021zm0 .021v-.02h-1.143v.02zm0 .022v-.021h-1.143v.02zm0 .021v-.021h-1.143v.021zm0 .022v-.022h-1.143v.022zm0 .02v-.02h-1.143v.02zm0 .022v-.021h-1.143v.021zm0 .022v-.022h-1.143v.022zm0 .02v-.02h-1.143v.02zm0 .022v-.021h-1.143v.021zm0 .021v-.02h-1.143v.02zm0 .022v-.021h-1.143v.02zm0 .021v-.021h-1.143v.021zm0 .021v-.02h-1.143v.02zm0 .022v-.022h-1.143v.022zm0 .021v-.021h-1.143v.021zm0 .021v-.021h-1.143v.021zm0 .021v-.02h-1.143v.02zm0 .022v-.022h-1.143v.022zm0 .021v-.021h-1.143v.021zm0 .021v-.021h-1.143v.021zm0 .021v-.02h-1.143v.02zm0 .022v-.022h-1.143v.022zm0 .02v-.02h-1.143v.02zm0 .022v-.021h-1.143v.021zm0 .021v-.02h-1.143v.02zm0 .021v-.02h-1.143v.02zm0 .022v-.022h-1.143v.022zm0 .02v-.02h-1.143v.02zm0 .022v-.021h-1.143v.02zm0 .021v-.021h-1.143v.021zm0 .021v-.021h-1.143v.021zm0 .021v-.02h-1.143v.02zm0 .021v-.02h-1.143v.02zm0 .021v-.02h-1.143v.02zm0 .021v-.02h-1.143v.02zm0 .021v-.02h-1.143v.02zm0 .022v-.021h-1.143v.02zm0 .02v-.02h-1.143v.02zm0 .022v-.021h-1.143v.02zm0 .02v-.02h-1.143v.02zm0 .022v-.021h-1.143v.02zm0 .02v-.02h-1.143v.02zm0 .021v-.02h-1.143v.02zm0 .021v-.02h-1.143v.02zm0 .021v-.02h-1.143v.02zm0 .021v-.02h-1.143v.02zm0 .021v-.02h-1.143v.02zm0 .021v-.02h-1.143v.02zm0 .021v-.02h-1.143v.02zm0 .02v-.02h-1.143v.02zm0 .022v-.021h-1.143v.02zm0 .02v-.02h-1.143v.02zm0 .021v-.02h-1.143v.02zm0 .021v-.02h-1.143v.02zm0 .02v-.02h-1.143v.02zm0 .021v-.02h-1.143v.02zm0 .021v-.02h-1.143v.02zm0 .02v-.02h-1.143v.02zm0 .022v-.021h-1.143v.02zm0 .02v-.02h-1.143v.02zm0 .02v-.02h-1.143v.02zm0 .022v-.021h-1.143v.02zm0 .02v-.02h-1.143v.02zm0 .02v-.02h-1.143v.02zm0 .021v-.02h-1.143v.02zm0 .02v-.02h-1.143v.02zM39 23v-.02h-1.143V23zm0 .02V23h-1.143v.02zm0 .021v-.02h-1.143v.02zm0 .02v-.02h-1.143v.02zm0 .021v-.02h-1.143v.02zm0 .02v-.02h-1.143v.02zm0 .021v-.02h-1.143v.02zm0 .02v-.02h-1.143v.02zm0 .02v-.02h-1.143v.02zm0 .021v-.02h-1.143v.02zm0 .02v-.02h-1.143v.02zm0 .02v-.02h-1.143v.02zm0 .021v-.02h-1.143v.02zm0 .02v-.02h-1.143v.02zm0 .02v-.02h-1.143v.02zm0 .02v-.02h-1.143v.02zm0 .02v-.02h-1.143v.02zm0 .02v-.02h-1.143v.02zm0 .021v-.02h-1.143v.02zm0 .02v-.02h-1.143v.02zm0 .02v-.02h-1.143v.02zm0 .02v-.02h-1.143v.02zm0 .02v-.02h-1.143v.02zm0 .02v-.02h-1.143v.02zm0 .02v-.02h-1.143v.02zm0 .02v-.02h-1.143v.02zm0 .02v-.02h-1.143v.02zm0 .02v-.02h-1.143v.02zm0 .02v-.02h-1.143v.02zm0 .02v-.02h-1.143v.02zm0 .02v-.02h-1.143v.02zm0 .019v-.02h-1.143v.02zm0 .02v-.02h-1.143v.02zm0 .02v-.02h-1.143v.02zm0 .019v-.02h-1.143v.02zm0 .02v-.02h-1.143v.02zm0 .02v-.02h-1.143v.02zm0 .019v-.02h-1.143v.02zm0 .02v-.02h-1.143v.02zm0 .019v-.02h-1.143v.02zm0 .02v-.02h-1.143v.02zm0 .019v-.02h-1.143v.02zm0 .02v-.02h-1.143v.02zm0 .019v-.02h-1.143v.02zm0 .019v-.02h-1.143v.02zm0 .02v-.02h-1.143v.02zm0 .018v-.019h-1.143v.02zm0 .02v-.02h-1.143v.02zm0 .019v-.02h-1.143v.02zm0 .02v-.02h-1.143v.02zm0 .018v-.019h-1.143v.02zm0 .02v-.02h-1.143v.02zm0 .019v-.02h-1.143v.02zm0 .019v-.02h-1.143v.02zm0 .019v-.02h-1.143v.02zm0 .019v-.02h-1.143v.02zm0 .018v-.018h-1.143v.018zm0 .02v-.02h-1.143v.02zm0 .018v-.018h-1.143v.018zm0 .02v-.02h-1.143v.02zm0 .018v-.019h-1.143v.019zm0 .019v-.019h-1.143v.019zm0 .018v-.018h-1.143v.018zm0 .02v-.02h-1.143v.02zm0 .018v-.019h-1.143v.019zm0 .018v-.018h-1.143v.018zm0 .019v-.019h-1.143v.019zm0 .018v-.018h-1.143v.018zm0 .02v-.02h-1.143v.02zm0 .018v-.019h-1.143v.019zm0 .018v-.018h-1.143v.018zm0 .018v-.018h-1.143v.018zm0 .019v-.019h-1.143v.019zm0 .018v-.018h-1.143v.018zm0 .018v-.018h-1.143v.018zm0 .018v-.018h-1.143v.018zm0 .019v-.018h-1.143v.018zm0 .018v-.018h-1.143v.018zm0 .018v-.018h-1.143v.018zm0 .018v-.018h-1.143v.018zm0 .018v-.018h-1.143v.018zm0 .018v-.018h-1.143v.018zm0 .018v-.018h-1.143v.018zm0 .018v-.018h-1.143v.018zm0 .018v-.018h-1.143v.018zm0 .018v-.018h-1.143v.018zm0 .017v-.017h-1.143v.017zm0 .018v-.018h-1.143v.018zm0 .018v-.018h-1.143v.018zm0 .017v-.017h-1.143v.017zm0 .018v-.018h-1.143v.018zm0 .017v-.017h-1.143v.017zm0 .018v-.018h-1.143v.018zm0 .017v-.017h-1.143v.017zm0 .018v-.018h-1.143v.018zm0 .017V24.8h-1.143v.017zm0 .017v-.017h-1.143v.017zm0 .018v-.018h-1.143v.018zm0 .017v-.017h-1.143v.017zm0 .017v-.017h-1.143v.017zm0 .017v-.017h-1.143v.017zm0 .018v-.018h-1.143v.018zm0 .017v-.017h-1.143v.017zm0 .017v-.017h-1.143v.017zm0 .017v-.018h-1.143v.017zm0 .016v-.017h-1.143v.017zm0 .017v-.017h-1.143v.017zm0 .017v-.017h-1.143v.017zm0 .017v-.017h-1.143v.017zm0 .016v-.016h-1.143v.016zm0 .017v-.017h-1.143v.017zm0 .017v-.017h-1.143v.017zm0 .016v-.016h-1.143v.016zm0 .017v-.017h-1.143v.017zm0 .016v-.016h-1.143v.016zm0 .017v-.017h-1.143v.017zm0 .016v-.016h-1.143v.016zm0 .017v-.017h-1.143v.017zm0 .016v-.017h-1.143v.017zm0 .016v-.016h-1.143v.016zm0 .016v-.016h-1.143v.016zm0 .016v-.016h-1.143v.016zm0 .016v-.016h-1.143v.016zm0 .016v-.016h-1.143v.016zm0 .016v-.016h-1.143v.016zm0 .016V25.3h-1.143v.016zm0 .016v-.016h-1.143v.016zm0 .016v-.016h-1.143v.016zm0 .015v-.015h-1.143v.015zm0 .016v-.016h-1.143v.016zm0 .016v-.016h-1.143v.016zm0 .015v-.015h-1.143v.015zm0 .016v-.016h-1.143v.016zm0 .015v-.015h-1.143v.015zm0 .016v-.016h-1.143v.016zm0 .015v-.015h-1.143v.015zm0 .015v-.015h-1.143v.015zm0 .016v-.016h-1.143v.016zm0 .015v-.015h-1.143v.015zm0 .015v-.015h-1.143v.015zm0 .015v-.015h-1.143v.015zm0 .015v-.015h-1.143v.015zm0 .015v-.015h-1.143v.015zm0 .015v-.015h-1.143v.015zm0 .015v-.015h-1.143v.015zm0 .015v-.015h-1.143v.015zm0 .014v-.014h-1.143v.014zm0 .015v-.015h-1.143v.015zm0 .015v-.015h-1.143v.015zm0 .014v-.014h-1.143v.014zm0 .015v-.015h-1.143v.015zm0 .014v-.014h-1.143v.014zm0 .014v-.014h-1.143v.014zm0 .015v-.015h-1.143v.015zm0 .014v-.014h-1.143v.014zm0 .014v-.014h-1.143v.014zm0 .014v-.014h-1.143v.014zm0 .014v-.014h-1.143v.014zm0 .014v-.014h-1.143v.014zm0 .014v-.014h-1.143v.014zm0 .014v-.014h-1.143v.014zm0 .014v-.014h-1.143v.014zm0 .014v-.014h-1.143v.014zm0 .014v-.014h-1.143v.014zm0 .013v-.014h-1.143v.014zm0 .014v-.014h-1.143v.014zm0 .013v-.013h-1.143v.013zm0 .014v-.014h-1.143v.014zm0 .013v-.013h-1.143v.013zm0 .013v-.013h-1.143v.013zm0 2.721v-2.72h-1.143v2.72zm0 12.177V28.681h-1.143v12.176zm11.572-.571H38.429v1.143H50.57zM50 34.19v6.666h1.143V34.19zm-5.143.571h5.715V33.62h-5.715zm-3.428-3.428a3.43 3.43 0 0 0 3.428 3.428V33.62a2.286 2.286 0 0 1-2.285-2.285zm0-5.307v5.307h1.142v-5.307zm3.428-3.428a3.43 3.43 0 0 0-3.428 3.428h1.142a2.286 2.286 0 0 1 2.286-2.285zm5.715 0h-5.715v1.143h5.715zM50 16.504v6.666h1.143v-6.666zm-6.571.571h7.142v-1.143H43.43zm-2-2a2 2 0 0 0 2 2v-1.143a.857.857 0 0 1-.858-.857zm2-2a2 2 0 0 0-2 2h1.142c0-.473.384-.857.858-.857zm7.142 0H43.43v1.143h7.142zM54 16.504a3.43 3.43 0 0 0-3.428-3.429v1.143a2.286 2.286 0 0 1 2.285 2.286zm0 6.666v-6.666h-1.143v6.666zm-3.428 3.43A3.43 3.43 0 0 0 54 23.17h-1.143a2.286 2.286 0 0 1-2.285 2.286zm-5.715 0h5.715v-1.143h-5.715zm.572 4.735v-5.307h-1.143v5.307zm5.142-.572h-5.714v1.143h5.715zM54 34.191a3.43 3.43 0 0 0-3.428-3.429v1.143a2.286 2.286 0 0 1 2.285 2.286zm0 6.666v-6.666h-1.143v6.666zm-3.428 3.429A3.43 3.43 0 0 0 54 40.857h-1.143a2.286 2.286 0 0 1-2.285 2.286zm-12.143 0H50.57v-1.143H38.43zM35 40.857a3.43 3.43 0 0 0 3.429 3.429v-1.143a2.286 2.286 0 0 1-2.286-2.286z" mask="url(#d)"/><circle cx="28.964" cy="21.036" r="1.607" fill="#000"/><circle cx="35.036" cy="21.036" r="1.607" fill="#000"/></g><g filter="url(#e)"><path fill="#e8e8e8" d="M61.278 24.5V12.864h4.262q1.239 0 2.05.409.814.403 1.217 1.096.403.688.403 1.552 0 .726-.267 1.227a2.2 2.2 0 0 1-.716.795q-.442.296-.977.432v.114a2.3 2.3 0 0 1 1.13.375q.558.34.921.971.364.63.364 1.534 0 .893-.42 1.603-.415.704-1.285 1.119-.87.41-2.221.409zm1.756-1.506h2.534q1.261 0 1.807-.488.546-.489.546-1.222 0-.55-.279-1.011a2 2 0 0 0-.795-.733q-.512-.273-1.216-.273h-2.597zm0-5.096h2.352q.592 0 1.063-.227a1.86 1.86 0 0 0 .755-.637q.285-.414.285-.977 0-.722-.506-1.21-.506-.489-1.551-.489h-2.398zM77.14 20.88v-5.108h1.705V24.5h-1.67v-1.511h-.092q-.3.698-.965 1.164-.66.46-1.643.46-.84 0-1.488-.369-.642-.375-1.012-1.108-.363-.732-.363-1.812v-5.551h1.699v5.346q0 .893.494 1.42.494.53 1.284.53.478 0 .949-.24.477-.239.79-.721.318-.483.312-1.227m3.987 3.619v-8.727h1.7V24.5zm.858-10.074a1.08 1.08 0 0 1-.761-.295.96.96 0 0 1-.312-.716q0-.421.312-.716.318-.3.761-.301.444 0 .756.3a.94.94 0 0 1 .318.717.95.95 0 0 1-.318.716 1.06 1.06 0 0 1-.756.295m4.826-1.562V24.5h-1.7V12.864zm6.359 2.909v1.363h-4.767v-1.363zm-3.489-2.091h1.7v8.256q0 .493.147.744a.77.77 0 0 0 .38.335q.24.085.518.085.204 0 .358-.028l.238-.046.307 1.404a3 3 0 0 1-.42.114q-.274.062-.682.068a3 3 0 0 1-1.25-.239 2.15 2.15 0 0 1-.938-.773q-.357-.523-.358-1.312zM101.175 24.5l-2.568-8.727h1.755l1.71 6.409h.086l1.716-6.41h1.755l1.705 6.381h.085l1.699-6.38h1.756l-2.563 8.727h-1.733l-1.773-6.301h-.13l-1.773 6.301zm11.311 0v-8.727h1.699V24.5zm.858-10.074a1.08 1.08 0 0 1-.762-.295.96.96 0 0 1-.312-.716.95.95 0 0 1 .312-.716q.318-.3.762-.301.443 0 .755.3a.94.94 0 0 1 .319.717.95.95 0 0 1-.319.716q-.312.295-.755.295m7.2 1.347v1.363h-4.767v-1.363zm-3.489-2.091h1.699v8.256q0 .493.148.744a.77.77 0 0 0 .381.335q.238.085.517.085a2 2 0 0 0 .358-.028l.238-.046.307 1.404a3 3 0 0 1-.42.114 3.3 3.3 0 0 1-.682.068 3 3 0 0 1-1.25-.239 2.14 2.14 0 0 1-.938-.773q-.358-.523-.358-1.312zm7.255 5.636V24.5h-1.699V12.864h1.676v4.33h.108q.306-.706.937-1.12t1.648-.415q.898 0 1.568.37.677.369 1.046 1.102.375.727.375 1.818V24.5h-1.699v-5.347q0-.96-.494-1.488-.495-.534-1.375-.534a2.25 2.25 0 0 0-1.08.255q-.471.255-.744.75-.267.489-.267 1.182"/><path fill="url(#f)" d="M60.936 43.5V31.136h5.155q1.388 0 2.325.393.94.392 1.412 1.098.477.707.477 1.636 0 .707-.296 1.262-.296.55-.815.912-.519.361-1.201.507v.12q.749.037 1.382.405.641.369 1.027 1.026.386.652.386 1.546a3.2 3.2 0 0 1-.507 1.78q-.507.78-1.467 1.232-.96.447-2.33.447zm2.988-2.409h1.847q.972 0 1.431-.368.465-.368.465-1.026 0-.477-.224-.821a1.44 1.44 0 0 0-.633-.538q-.411-.192-.984-.193h-1.902zm0-4.872h1.654q.489 0 .87-.163.38-.162.591-.47.217-.309.217-.743 0-.622-.44-.978t-1.19-.356h-1.702zm12.635 7.456q-1.455 0-2.511-.573a3.97 3.97 0 0 1-1.618-1.648q-.561-1.075-.561-2.554 0-1.437.567-2.511.568-1.08 1.6-1.679 1.032-.603 2.433-.604.99 0 1.81.308.822.309 1.42.912.597.604.93 1.491.33.882.331 2.023v.736H72.9v-1.715h5.313a1.66 1.66 0 0 0-.223-.839 1.5 1.5 0 0 0-.598-.573 1.7 1.7 0 0 0-.863-.211q-.495 0-.887.223a1.68 1.68 0 0 0-.863 1.449v1.745q0 .567.223.996.223.421.634.658.41.235.978.235.392 0 .712-.109.32-.108.55-.32.228-.21.343-.519l2.711.079a3.35 3.35 0 0 1-.743 1.587q-.567.67-1.49 1.045-.924.368-2.138.368m5.909 3.302v-12.75h2.922v1.588h.09q.181-.422.513-.815.339-.393.858-.64.526-.254 1.255-.254.966 0 1.806.508.845.507 1.364 1.563t.519 2.693q0 1.575-.501 2.638-.495 1.063-1.34 1.594a3.4 3.4 0 0 1-1.866.53q-.7 0-1.213-.229a2.6 2.6 0 0 1-.863-.603 2.9 2.9 0 0 1-.532-.803h-.06v4.98zm2.892-8.113q0 .748.199 1.304.206.555.585.863.387.302.924.302.543 0 .924-.302.38-.308.573-.863.2-.555.2-1.304 0-.75-.2-1.298-.194-.55-.573-.852-.375-.3-.924-.301-.543 0-.924.295-.38.297-.585.846-.2.548-.2 1.31m7.982 4.636v-9.273h2.952V43.5zm1.479-10.353q-.621 0-1.069-.41a1.32 1.32 0 0 1-.446-1.003q0-.579.447-.99a1.5 1.5 0 0 1 1.068-.417q.628 0 1.069.417.446.411.446.99 0 .585-.447 1.002a1.5 1.5 0 0 1-1.068.41m6.304 5.065V43.5h-2.952v-9.273h2.807v1.703h.103a2.6 2.6 0 0 1 1.05-1.334q.743-.49 1.769-.49.979 0 1.696.441.725.435 1.123 1.22.405.779.399 1.823v5.91h-2.952v-5.33q.006-.773-.393-1.208-.392-.435-1.092-.435-.465 0-.821.206a1.36 1.36 0 0 0-.544.573q-.187.375-.193.906m7.822 5.288V31.136h2.989V36.1h4.872v-4.963h2.982V43.5h-2.982v-4.968h-4.872V43.5zm17.052.175q-1.455 0-2.512-.573a3.97 3.97 0 0 1-1.618-1.648q-.561-1.075-.561-2.554 0-1.437.568-2.511.567-1.08 1.599-1.679 1.033-.603 2.433-.604.99 0 1.811.308.822.309 1.419.912.597.604.93 1.491.332.882.332 2.023v.736h-8.06v-1.715h5.313a1.66 1.66 0 0 0-.224-.839 1.5 1.5 0 0 0-.597-.573 1.7 1.7 0 0 0-.863-.211q-.495 0-.888.223a1.68 1.68 0 0 0-.863 1.449v1.745q0 .567.223.996.223.421.634.658.411.235.978.235.393 0 .712-.109a1.5 1.5 0 0 0 .55-.32q.229-.21.344-.519l2.71.079a3.35 3.35 0 0 1-.742 1.587q-.567.67-1.491 1.045-.924.368-2.137.368m10.237 0q-1.467 0-2.518-.604a4.1 4.1 0 0 1-1.605-1.678q-.562-1.08-.562-2.5 0-1.424.562-2.498a4.1 4.1 0 0 1 1.611-1.685q1.051-.603 2.506-.604 1.286 0 2.24.465.958.465 1.497 1.316.543.846.573 1.987h-2.759q-.084-.713-.483-1.117-.392-.405-1.026-.405-.513 0-.899.29-.387.284-.604.845-.211.556-.211 1.377 0 .82.211 1.388.217.561.604.851.386.285.899.284.41 0 .725-.175.32-.175.525-.513.205-.344.259-.833h2.759q-.042 1.146-.573 2.004a3.55 3.55 0 0 1-1.479 1.334q-.948.471-2.252.471m8.477-2.608.012-3.52h.411l2.608-3.32h3.344l-3.875 4.757h-.779zM142.05 43.5V31.136h2.952V43.5zm5.759 0-2.427-3.852 1.944-2.094 3.894 5.946zm12.43-6.441-2.71.072a1 1 0 0 0-.23-.513 1.24 1.24 0 0 0-.489-.356 1.7 1.7 0 0 0-.688-.133q-.513 0-.875.205-.357.205-.35.556a.59.59 0 0 0 .217.47q.229.2.815.32l1.787.339q1.388.265 2.064.88.683.617.689 1.63a2.62 2.62 0 0 1-.568 1.661q-.555.706-1.521 1.099-.966.386-2.21.386-1.986 0-3.133-.815-1.141-.821-1.304-2.197l2.916-.073q.096.507.501.773t1.032.266q.569 0 .924-.212.356-.21.362-.561a.6.6 0 0 0-.277-.501q-.272-.194-.852-.302l-1.618-.308q-1.393-.253-2.076-.936-.682-.688-.676-1.75-.006-.93.495-1.588.501-.664 1.424-1.014.924-.35 2.18-.35 1.883 0 2.97.79 1.087.785 1.201 2.162"/></g><defs><linearGradient id="a" x1="86.5" x2="86.5" y1="0" y2="56" gradientUnits="userSpaceOnUse"><stop stop-color="#2c2a07"/><stop offset="1" stop-color="#1c1604"/></linearGradient><linearGradient id="c" x1="32" x2="32" y1="12.224" y2="43.777" gradientUnits="userSpaceOnUse"><stop stop-color="#e4d652"/><stop offset="1" stop-color="#cbba24"/></linearGradient><linearGradient id="f" x1="110.5" x2="110.5" y1="31.269" y2="43.731" gradientUnits="userSpaceOnUse"><stop stop-color="#e4d551"/><stop offset="1" stop-color="#cbba23"/></linearGradient><filter id="b" width="55.429" height="51.429" x="4.286" y="2.286" color-interpolation-filters="sRGB" filterUnits="userSpaceOnUse"><feFlood flood-opacity="0" result="BackgroundImageFix"/><feColorMatrix in="SourceAlpha" result="hardAlpha" values="0 0 0 0 0 0 0 0 0 0 0 0 0 0 0 0 0 0 127 0"/><feOffset/><feGaussianBlur stdDeviation="2.857"/><feComposite in2="hardAlpha" operator="out"/><feColorMatrix values="0 0 0 0 0 0 0 0 0 0 0 0 0 0 0 0 0 0 0.25 0"/><feBlend in2="BackgroundImageFix" result="effect1_dropShadow_4_55"/><feBlend in="SourceGraphic" in2="effect1_dropShadow_4_55" result="shape"/></filter><filter id="e" width="112.2" height="48.677" x="54.4" y="3.9" color-interpolation-filters="sRGB" filterUnits="userSpaceOnUse"><feFlood flood-opacity="0" result="BackgroundImageFix"/><feColorMatrix in="SourceAlpha" result="hardAlpha" values="0 0 0 0 0 0 0 0 0 0 0 0 0 0 0 0 0 0 127 0"/><feOffset/><feGaussianBlur stdDeviation="2.8"/><feComposite in2="hardAlpha" operator="out"/><feColorMatrix values="0 0 0 0 0 0 0 0 0 0 0 0 0 0 0 0 0 0 0.25 0"/><feBlend in2="BackgroundImageFix" result="effect1_dropShadow_4_55"/><feBlend in="SourceGraphic" in2="effect1_dropShadow_4_55" result="shape"/></filter></defs></svg>