<svg xmlns="http://www.w3.org/2000/svg" width="175" height="56" fill="none" viewBox="0 0 175 56"><rect width="175" height="56" fill="url(#a)" rx="8"/><rect width="172.9" height="53.9" x="1.05" y="1.05" stroke="#fff" stroke-opacity=".15" stroke-width="2.1" rx="6.95"/><g filter="url(#b)"><path fill="#fff" fill-rule="evenodd" d="M31.692 18.05h17.231v7.031h-17.23z" clip-rule="evenodd"/><path fill="#3ecc5f" fill-rule="evenodd" d="M16.103 41.006a4.09 4.09 0 0 1-3.55-2.068A4.14 4.14 0 0 0 12 41.006c0 2.285 1.837 4.137 4.103 4.137h4.102v-4.137z" clip-rule="evenodd"/><path fill="#3ecc5f" fill-rule="evenodd" d="m34.56 19.161 14.363-.905v-2.068c0-2.285-1.837-4.137-4.102-4.137H26.359l-.513-.895a.59.59 0 0 0-1.026 0l-.512.895-.513-.895a.59.59 0 0 0-1.026 0l-.513.895-.512-.895a.59.59 0 0 0-1.026 0l-.513.895h-.013l-.85-.856a.59.59 0 0 0-.99.268l-.281 1.056-1.065-.288a.594.594 0 0 0-.725.731l.285 1.074-1.047.283a.6.6 0 0 0-.265.999l.85.856-.002.014-.888.517a.6.6 0 0 0 0 1.034l.888.517-.888.517a.6.6 0 0 0 0 1.034l.888.517-.888.517a.6.6 0 0 0 0 1.034l.888.517-.888.517a.6.6 0 0 0 0 1.035l.888.517-.888.517a.6.6 0 0 0 0 1.034l.888.517-.888.517a.6.6 0 0 0 0 1.034l.888.517-.888.517a.6.6 0 0 0 0 1.034l.888.517-.888.517a.6.6 0 0 0 0 1.034l.888.517-.888.518a.6.6 0 0 0 0 1.034l.888.517-.888.517a.6.6 0 0 0 0 1.034l.888.517-.888.517a.6.6 0 0 0 0 1.034l.888.517-.888.517a.6.6 0 0 0 0 1.034l.888.517c0 2.285 1.837 4.137 4.103 4.137h24.616c2.265 0 4.102-1.852 4.102-4.137V24.461l-14.363-.905a2.18 2.18 0 0 1-1.455-.69 2.2 2.2 0 0 1-.592-1.508c0-1.162.896-2.124 2.047-2.197" clip-rule="evenodd"/><path fill="#3ecc5f" fill-rule="evenodd" d="M40.718 45.143h6.154V36.87h-6.154z" clip-rule="evenodd"/><path fill="#44d860" fill-rule="evenodd" d="M50.974 39.972c-.045 0-.087.008-.13.014l-.025-.094a1.03 1.03 0 0 0 .51-.469 1.04 1.04 0 0 0-.255-1.284 1.01 1.01 0 0 0-1.268-.02l-.069-.07a1.03 1.03 0 0 0-1.294-1.533c-.21.11-.375.29-.467.51q-.045-.013-.092-.024.011-.065.013-.132a1.04 1.04 0 0 0-.3-.731 1.02 1.02 0 0 0-1.45 0c-.193.194-.3.457-.3.73 0 .046.007.09.012.133l-.091.024a1.03 1.03 0 0 0-.467-.511 1.02 1.02 0 0 0-1.271.261 1.04 1.04 0 0 0-.024 1.273 4.14 4.14 0 0 0-1.237 2.957c0 2.285 1.837 4.137 4.103 4.137 1.916 0 3.52-1.326 3.971-3.116.044.006.086.014.131.014.272 0 .533-.11.726-.303a1.04 1.04 0 0 0 0-1.463 1.02 1.02 0 0 0-.726-.303" clip-rule="evenodd"/><path fill="#3ecc5f" fill-rule="evenodd" d="M42.77 32.734h6.153v-4.137H42.77z" clip-rule="evenodd"/><path fill="#44d860" fill-rule="evenodd" d="M50.974 31.182a.51.51 0 0 0 .513-.517.51.51 0 0 0-.513-.517q-.033.001-.065.007l-.012-.047a.515.515 0 0 0 .305-.578.52.52 0 0 0-.502-.416.5.5 0 0 0-.31.107l-.034-.035a.515.515 0 0 0-.648-.766.5.5 0 0 0-.233.255 2 2 0 0 0-.552-.078 2.06 2.06 0 0 0-2.051 2.068 2.06 2.06 0 0 0 2.051 2.069c.192 0 .376-.03.552-.078a.516.516 0 0 0 .574.303.51.51 0 0 0 .41-.506.5.5 0 0 0-.103-.309l.034-.035a.504.504 0 0 0 .635-.01.518.518 0 0 0-.128-.877l.012-.046z" clip-rule="evenodd"/><path fill="#000" fill-rule="evenodd" d="M24.308 18.773a.52.52 0 0 1-.513-.517c0-.855-.69-1.551-1.539-1.551-.848 0-1.538.696-1.538 1.55a.52.52 0 0 1-.15.367.51.51 0 0 1-.876-.366c0-1.426 1.15-2.585 2.564-2.585s2.564 1.16 2.564 2.585a.52.52 0 0 1-.512.517" clip-rule="evenodd"/><path fill="#ffff50" fill-rule="evenodd" d="M32.513 45.143H44.82c2.266 0 4.103-1.852 4.103-4.137V26.53H36.615c-2.266 0-4.102 1.852-4.102 4.136z" clip-rule="evenodd"/><path fill="#000" fill-rule="evenodd" d="M45.85 32.94H35.586a.208.208 0 0 1 0-.414H45.85a.204.204 0 0 1 .205.207.21.21 0 0 1-.205.207m0 4.137H35.586a.208.208 0 0 1 0-.414H45.85a.204.204 0 0 1 .205.207.21.21 0 0 1-.205.207m0 4.136H35.586a.208.208 0 0 1 0-.414H45.85a.204.204 0 0 1 .205.207.21.21 0 0 1-.205.207m0-10.302H35.586a.208.208 0 0 1 0-.414H45.85a.204.204 0 0 1 .205.207.21.21 0 0 1-.205.207m0 4.098H35.586a.208.208 0 0 1 0-.414H45.85a.204.204 0 0 1 .205.207.21.21 0 0 1-.205.207m0 4.136H35.586a.207.207 0 0 1 0-.414H45.85a.204.204 0 0 1 .205.207.207.207 0 0 1-.205.207m3.073-19.108-.007-.001c-.634.022-.934.66-1.198 1.225-.276.59-.49.973-.84.961-.387-.014-.609-.455-.844-.922-.27-.537-.577-1.145-1.223-1.123-.625.022-.925.578-1.19 1.069-.283.523-.476.84-.846.826-.395-.014-.606-.373-.849-.789-.27-.462-.584-.982-1.217-.964-.615.021-.916.493-1.183.91-.281.44-.478.709-.854.693-.404-.015-.614-.312-.855-.657-.272-.388-.578-.826-1.21-.805-.6.021-.902.408-1.168.749-.253.323-.45.58-.867.563a.205.205 0 0 0-.213.2.21.21 0 0 0 .198.214c.619.02.932-.373 1.204-.722.242-.309.45-.576.86-.59.395-.017.58.23.86.63.267.379.569.81 1.176.831.637.022.943-.458 1.214-.882.243-.38.452-.707.852-.72.367-.015.568.279.85.76.266.455.567.97 1.187.992.641.023.95-.541 1.22-1.04.234-.433.454-.84.845-.854.368-.009.56.33.843.895.266.528.566 1.127 1.195 1.15h.035c.629 0 .927-.636 1.19-1.198.234-.499.456-.968.835-.987z" clip-rule="evenodd"/><path fill="#3ecc5f" fill-rule="evenodd" d="M28.41 45.143h8.205V36.87H28.41z" clip-rule="evenodd"/><path fill="#d8d8d8" d="m48.874 23.68-15.955 4.31a.414.414 0 0 0-.29.506l1.559 5.867a.41.41 0 0 0 .502.293l15.955-4.31a.414.414 0 0 0 .29-.507l-1.559-5.867a.41.41 0 0 0-.502-.293"/><path fill="#4a4a4a" d="m37.734 31.201-.571.155a.207.207 0 0 0-.145.253l.153.576c.03.11.142.176.251.146l.571-.154a.207.207 0 0 0 .145-.253l-.153-.576a.205.205 0 0 0-.25-.147m1.145-.309-.57.154a.207.207 0 0 0-.146.253l.154.576c.029.11.141.176.25.146l.572-.154a.207.207 0 0 0 .145-.253l-.153-.576a.205.205 0 0 0-.251-.146m1.146-.31-.57.154a.207.207 0 0 0-.146.253l.153.576c.03.11.142.176.251.147l.572-.155a.207.207 0 0 0 .145-.253l-.153-.576a.205.205 0 0 0-.252-.146m1.147-.31-.571.154a.207.207 0 0 0-.145.254l.153.576c.03.11.142.175.251.146l.571-.155a.207.207 0 0 0 .145-.253l-.153-.576a.205.205 0 0 0-.251-.146m1.146-.31-.57.154a.207.207 0 0 0-.146.254l.154.576c.029.11.141.176.25.146l.572-.154a.207.207 0 0 0 .145-.254l-.153-.576a.205.205 0 0 0-.251-.146m1.146-.31-.57.155a.207.207 0 0 0-.146.253l.153.576c.03.11.142.176.251.146l.572-.154a.207.207 0 0 0 .145-.253l-.154-.576a.205.205 0 0 0-.25-.147m1.146-.309-.571.154a.207.207 0 0 0-.145.253l.153.576c.029.11.141.176.25.146l.572-.154a.207.207 0 0 0 .145-.253l-.153-.576a.205.205 0 0 0-.251-.146m1.146-.31-.57.154a.207.207 0 0 0-.146.253l.153.576c.03.11.142.176.252.147l.57-.155a.207.207 0 0 0 .146-.253l-.153-.576a.205.205 0 0 0-.252-.146m1.147-.31-.571.154a.207.207 0 0 0-.145.254l.153.576c.03.11.142.175.251.146l.571-.154a.207.207 0 0 0 .145-.254l-.153-.576a.205.205 0 0 0-.25-.146"/><path fill="#4a4a4a" fill-rule="evenodd" d="m34.117 32.179 2.435-.658a.204.204 0 0 1 .25.146l.154.576a.205.205 0 0 1-.145.253l-2.434.658a.207.207 0 0 1-.251-.146l-.154-.576a.21.21 0 0 1 .145-.254m13.401-3.62 2.435-.659a.204.204 0 0 1 .251.147l.153.575a.21.21 0 0 1-.145.254l-2.435.657a.204.204 0 0 1-.25-.146l-.154-.576a.21.21 0 0 1 .145-.253m-14.021 1.287.93-.251a.204.204 0 0 1 .25.146l.154.576a.21.21 0 0 1-.146.253l-.929.251a.203.203 0 0 1-.251-.146l-.153-.576a.21.21 0 0 1 .145-.253" clip-rule="evenodd"/><path fill="#4a4a4a" d="m35.573 29.283-.571.154a.207.207 0 0 0-.145.254l.153.576c.03.11.142.176.251.146l.571-.154a.207.207 0 0 0 .145-.254l-.153-.576a.205.205 0 0 0-.25-.146m1.146-.31-.572.155a.207.207 0 0 0-.145.253l.154.576c.029.11.141.176.25.146l.572-.154a.207.207 0 0 0 .145-.253l-.153-.576a.205.205 0 0 0-.251-.147m1.146-.309-.57.154a.207.207 0 0 0-.146.253l.153.576c.03.11.142.176.251.146l.572-.154a.207.207 0 0 0 .145-.253l-.153-.576a.205.205 0 0 0-.252-.146m1.147-.31-.571.154a.207.207 0 0 0-.145.254l.153.575c.03.11.142.176.251.147l.571-.155a.207.207 0 0 0 .145-.253l-.153-.576a.205.205 0 0 0-.251-.146m1.147-.31-.572.154a.207.207 0 0 0-.145.254l.153.576c.03.11.142.175.252.146l.57-.154a.207.207 0 0 0 .146-.254l-.153-.576a.205.205 0 0 0-.252-.146m1.147-.31-.571.155a.207.207 0 0 0-.145.253l.153.576c.03.11.142.176.251.146l.572-.154a.207.207 0 0 0 .145-.254l-.154-.575a.205.205 0 0 0-.25-.147m1.146-.309-.572.154a.207.207 0 0 0-.145.253l.154.576c.029.11.141.176.25.146l.572-.154a.207.207 0 0 0 .145-.253l-.153-.576a.205.205 0 0 0-.251-.147m1.147-.309-.572.154a.207.207 0 0 0-.145.253l.153.576c.03.11.142.176.252.147l.57-.155a.207.207 0 0 0 .146-.253l-.153-.576a.205.205 0 0 0-.252-.146m1.147-.31-.571.154a.207.207 0 0 0-.145.254l.153.575c.029.11.142.176.25.147l.572-.154a.207.207 0 0 0 .145-.254l-.153-.576a.205.205 0 0 0-.251-.146m1.147-.31-.572.154a.207.207 0 0 0-.145.254l.153.576c.03.11.142.176.252.146l.57-.154a.207.207 0 0 0 .146-.254l-.153-.575a.205.205 0 0 0-.252-.147m1.148-.309-.572.154a.207.207 0 0 0-.145.253l.153.576c.03.11.142.176.251.146l.571-.154a.207.207 0 0 0 .145-.253l-.153-.576a.205.205 0 0 0-.25-.146m1.146-.31-.572.154a.207.207 0 0 0-.145.253l.154.576c.029.11.141.176.25.146l.572-.154a.207.207 0 0 0 .145-.253l-.153-.576a.205.205 0 0 0-.251-.146m1.146-.31-.57.154a.207.207 0 0 0-.146.254l.153.575c.03.11.142.176.251.147l.572-.155a.207.207 0 0 0 .145-.253l-.153-.576a.205.205 0 0 0-.252-.146"/><path fill="#4a4a4a" fill-rule="evenodd" d="m49.298 25.435-.93.251a.204.204 0 0 1-.251-.146l-.153-.576a.21.21 0 0 1 .145-.253l.93-.251a.204.204 0 0 1 .25.146l.154.576a.21.21 0 0 1-.145.253" clip-rule="evenodd"/><path fill="#4a4a4a" d="m47.222 25.996.57-.154a.207.207 0 0 0 .146-.253l-.153-.576a.205.205 0 0 0-.251-.147l-.572.155a.207.207 0 0 0-.145.253l.153.576c.03.11.142.176.252.146m-1.147.31.571-.154a.207.207 0 0 0 .145-.254l-.153-.576a.205.205 0 0 0-.251-.146l-.571.154a.207.207 0 0 0-.145.254l.153.576c.029.11.142.175.25.146m-1.146.31.572-.155a.207.207 0 0 0 .145-.253l-.154-.576a.205.205 0 0 0-.25-.146l-.572.154a.207.207 0 0 0-.145.253l.153.576c.03.11.142.176.251.147m-1.146.309.57-.154a.207.207 0 0 0 .146-.253l-.153-.576a.205.205 0 0 0-.251-.146l-.572.154a.207.207 0 0 0-.145.253l.153.576c.03.11.142.176.252.146m-1.147.31.571-.154a.207.207 0 0 0 .145-.253l-.153-.576a.205.205 0 0 0-.251-.147l-.571.155a.207.207 0 0 0-.145.253l.153.576c.03.11.142.176.251.146m-1.147.31.572-.154a.207.207 0 0 0 .145-.254l-.153-.576a.205.205 0 0 0-.252-.146l-.57.155a.207.207 0 0 0-.146.253l.153.576c.03.11.142.176.251.146m-1.146.31.571-.154a.207.207 0 0 0 .145-.254l-.153-.576a.205.205 0 0 0-.251-.146l-.572.154a.207.207 0 0 0-.145.254l.154.576c.029.11.141.175.25.146m-1.146.31.572-.155a.207.207 0 0 0 .144-.253l-.153-.576a.205.205 0 0 0-.25-.146l-.572.154a.207.207 0 0 0-.145.253l.153.576c.03.11.142.176.251.147m-1.146.309.57-.154a.207.207 0 0 0 .146-.253l-.153-.576a.205.205 0 0 0-.252-.146l-.57.154a.207.207 0 0 0-.146.253l.153.576c.03.11.142.176.252.146m-1.147.31.571-.154a.207.207 0 0 0 .145-.253l-.153-.576a.205.205 0 0 0-.251-.147l-.571.155a.207.207 0 0 0-.145.253l.153.576c.029.11.141.176.251.146m-1.147.31.572-.154a.207.207 0 0 0 .145-.254l-.154-.576a.205.205 0 0 0-.25-.146l-.572.154a.207.207 0 0 0-.145.254l.153.576c.03.11.142.175.251.146m-1.146.31.57-.155a.207.207 0 0 0 .146-.253l-.153-.576a.205.205 0 0 0-.251-.146l-.572.154a.207.207 0 0 0-.145.253l.153.576c.03.11.142.176.252.147m-1.147.309.571-.154a.207.207 0 0 0 .145-.253l-.152-.576a.205.205 0 0 0-.252-.146l-.571.154a.207.207 0 0 0-.145.253l.153.576c.03.11.142.176.251.146"/><path fill="#4a4a4a" d="m47.222 25.996.57-.154a.207.207 0 0 0 .146-.253l-.153-.576a.205.205 0 0 0-.251-.147l-.572.155a.207.207 0 0 0-.145.253l.153.576c.03.11.142.176.252.146m-1.147.31.571-.154a.207.207 0 0 0 .145-.254l-.153-.576a.205.205 0 0 0-.251-.146l-.571.154a.207.207 0 0 0-.145.254l.153.576c.029.11.142.175.25.146m-1.146.31.572-.155a.207.207 0 0 0 .145-.253l-.154-.576a.205.205 0 0 0-.25-.146l-.572.154a.207.207 0 0 0-.145.253l.153.576c.03.11.142.176.251.147m-1.146.309.57-.154a.207.207 0 0 0 .146-.253l-.153-.576a.205.205 0 0 0-.251-.146l-.572.154a.207.207 0 0 0-.145.253l.153.576c.03.11.142.176.252.146m-1.147.31.571-.154a.207.207 0 0 0 .145-.253l-.153-.576a.205.205 0 0 0-.251-.147l-.571.155a.207.207 0 0 0-.145.253l.153.576c.03.11.142.176.251.146m-1.147.31.572-.154a.207.207 0 0 0 .145-.254l-.153-.576a.205.205 0 0 0-.252-.146l-.57.155a.207.207 0 0 0-.146.253l.153.576c.03.11.142.176.251.146m-1.146.31.571-.154a.207.207 0 0 0 .145-.254l-.153-.576a.205.205 0 0 0-.251-.146l-.572.154a.207.207 0 0 0-.145.254l.154.576c.029.11.141.175.25.146m-1.146.31.572-.155a.207.207 0 0 0 .144-.253l-.153-.576a.205.205 0 0 0-.25-.146l-.572.154a.207.207 0 0 0-.145.253l.153.576c.03.11.142.176.251.147m-1.146.309.57-.154a.207.207 0 0 0 .146-.253l-.153-.576a.205.205 0 0 0-.252-.146l-.57.154a.207.207 0 0 0-.146.253l.153.576c.03.11.142.176.252.146m-1.147.31.571-.154a.207.207 0 0 0 .145-.253l-.153-.576a.205.205 0 0 0-.251-.147l-.571.155a.207.207 0 0 0-.145.253l.153.576c.029.11.141.176.251.146m-1.147.31.572-.154a.207.207 0 0 0 .145-.254l-.154-.576a.205.205 0 0 0-.25-.146l-.572.154a.207.207 0 0 0-.145.254l.153.576c.03.11.142.175.251.146m-1.146.31.57-.155a.207.207 0 0 0 .146-.253l-.153-.576a.205.205 0 0 0-.251-.146l-.572.154a.207.207 0 0 0-.145.253l.153.576c.03.11.142.176.252.147m-1.147.309.571-.154a.207.207 0 0 0 .145-.253l-.152-.576a.205.205 0 0 0-.252-.146l-.571.154a.207.207 0 0 0-.145.253l.153.576c.03.11.142.176.251.146"/><path fill="#4a4a4a" fill-rule="evenodd" d="m33.804 31 1.324-.358a.204.204 0 0 1 .25.147l.154.576a.21.21 0 0 1-.145.253l-1.324.357a.204.204 0 0 1-.25-.146l-.154-.576a.21.21 0 0 1 .145-.253" clip-rule="evenodd"/><path fill="#4a4a4a" d="m36.31 30.323-.57.154a.207.207 0 0 0-.146.253l.153.576c.03.11.142.176.252.147l.57-.155a.207.207 0 0 0 .146-.253l-.153-.576a.205.205 0 0 0-.252-.146m1.147-.31-.571.154a.207.207 0 0 0-.145.254l.153.576c.03.11.142.175.251.146l.571-.154a.207.207 0 0 0 .145-.254l-.153-.576a.205.205 0 0 0-.251-.146m1.147-.31-.572.155a.207.207 0 0 0-.145.253l.153.576c.03.11.142.176.252.146l.57-.154a.207.207 0 0 0 .146-.253l-.153-.576a.205.205 0 0 0-.251-.147m1.146-.309-.571.154a.207.207 0 0 0-.145.253l.153.576c.03.11.142.176.251.146l.572-.154a.207.207 0 0 0 .145-.253L40 29.54a.205.205 0 0 0-.25-.146m1.147-.31-.571.154a.207.207 0 0 0-.145.253l.153.576c.029.11.141.176.25.147l.572-.155a.207.207 0 0 0 .145-.253l-.153-.576a.205.205 0 0 0-.251-.146m1.147-.31-.572.154a.207.207 0 0 0-.145.254l.153.576c.03.11.142.175.252.146l.57-.154a.207.207 0 0 0 .146-.254l-.153-.576a.205.205 0 0 0-.252-.146m1.147-.31-.571.155a.207.207 0 0 0-.145.253l.153.576c.03.11.142.176.251.146l.572-.154a.207.207 0 0 0 .144-.254l-.153-.576a.205.205 0 0 0-.25-.146m1.146-.309-.572.154a.207.207 0 0 0-.145.253l.153.576c.03.11.142.176.252.146l.57-.154a.207.207 0 0 0 .146-.253l-.153-.576a.205.205 0 0 0-.251-.146m1.146-.31-.571.154a.207.207 0 0 0-.145.253l.153.576c.03.11.142.176.251.147l.572-.155a.207.207 0 0 0 .145-.253l-.154-.576a.205.205 0 0 0-.25-.146m1.146-.31-.571.154a.207.207 0 0 0-.145.254l.153.576c.029.11.142.175.25.146l.572-.154a.207.207 0 0 0 .145-.254l-.153-.576a.205.205 0 0 0-.251-.146m1.147-.31-.572.154a.207.207 0 0 0-.145.254l.153.576c.03.11.142.176.252.146l.57-.154a.207.207 0 0 0 .146-.254l-.153-.576a.205.205 0 0 0-.252-.146"/><path fill="#4a4a4a" fill-rule="evenodd" d="m48.388 27.06 1.252-.338a.203.203 0 0 1 .25.146l.154.576a.21.21 0 0 1-.145.253l-1.252.339a.204.204 0 0 1-.252-.147l-.153-.575a.21.21 0 0 1 .146-.254" clip-rule="evenodd"/><path fill="#4a4a4a" d="m35.009 33.23-.571.155a.207.207 0 0 0-.145.253l.153.576c.03.11.142.175.251.146l.571-.154a.207.207 0 0 0 .145-.254l-.153-.576a.205.205 0 0 0-.251-.146m1.147-.31-.572.155a.207.207 0 0 0-.145.253l.154.576c.029.11.141.176.25.146l.572-.154a.207.207 0 0 0 .145-.254l-.153-.575a.205.205 0 0 0-.251-.147m1.146-.31-.57.155a.207.207 0 0 0-.146.253l.153.576c.03.11.142.176.251.146l.572-.154a.207.207 0 0 0 .145-.253l-.153-.576a.205.205 0 0 0-.252-.146m1.147-.311-.571.155a.207.207 0 0 0-.145.253l.153.576c.029.11.142.176.25.147l.572-.155a.207.207 0 0 0 .145-.253l-.153-.576a.205.205 0 0 0-.251-.146"/><path fill="#4a4a4a" fill-rule="evenodd" d="m39.024 32.145 5.516-1.49a.204.204 0 0 1 .252.146l.153.577a.205.205 0 0 1-.145.253l-5.517 1.49a.207.207 0 0 1-.251-.146l-.153-.576a.21.21 0 0 1 .145-.254m6.091-1.645.715-.193a.204.204 0 0 1 .251.146l.153.576a.21.21 0 0 1-.145.253l-.714.193a.204.204 0 0 1-.251-.146l-.154-.576a.21.21 0 0 1 .145-.253" clip-rule="evenodd"/><path fill="#4a4a4a" d="m46.977 29.997-.571.154a.207.207 0 0 0-.145.253l.153.576c.029.11.141.176.25.147l.572-.155a.207.207 0 0 0 .145-.253l-.153-.576a.205.205 0 0 0-.251-.146m1.146-.31-.57.154a.207.207 0 0 0-.146.254l.153.576c.03.11.142.175.251.146l.572-.154a.207.207 0 0 0 .145-.254l-.153-.576a.205.205 0 0 0-.252-.146m2.15-.581-.571.155a.207.207 0 0 0-.145.253l.153.576c.03.11.142.176.251.146l.572-.154a.207.207 0 0 0 .145-.254l-.153-.575a.205.205 0 0 0-.252-.147m-1.733.914-.058-.216a.21.21 0 0 1 .145-.253l.571-.154a.204.204 0 0 1 .251.146l.058.216zm1.005-.117.058.216a.21.21 0 0 1-.145.253l-.572.154a.207.207 0 0 1-.251-.146l-.057-.215zm-.707-5.985-15.694 4.24a.224.224 0 0 0 .115.434l15.694-4.24a.225.225 0 0 0-.115-.434"/><path fill="#d8d8d8" d="m34.103 27.977-.618.166a.15.15 0 0 0-.105.184c.022.08.103.127.182.105l.618-.166a.15.15 0 0 0 .105-.183.15.15 0 0 0-.182-.106m1.237-.335-.617.167a.15.15 0 0 0-.105.183c.021.08.102.128.181.106l.618-.167a.15.15 0 0 0 .105-.183.15.15 0 0 0-.182-.106m.952-.257-.618.167a.15.15 0 0 0-.104.183c.02.08.102.128.181.106l.618-.167a.15.15 0 0 0 .105-.183.15.15 0 0 0-.182-.106m.952-.257-.618.167a.15.15 0 0 0-.105.183c.021.08.103.127.182.106l.617-.167a.15.15 0 0 0 .105-.183.15.15 0 0 0-.181-.106m.952-.258-.618.168a.15.15 0 0 0-.105.183c.021.08.103.127.182.106l.617-.167a.15.15 0 0 0 .105-.183.15.15 0 0 0-.181-.106m1.189-.321-.617.166a.15.15 0 0 0-.105.183c.02.08.102.128.181.106l.618-.166a.15.15 0 0 0 .105-.184.15.15 0 0 0-.182-.106m.952-.256-.618.166a.15.15 0 0 0-.105.183c.022.08.103.128.182.106l.618-.167a.15.15 0 0 0 .105-.183.15.15 0 0 0-.182-.105m.952-.258-.618.167a.15.15 0 0 0-.105.183c.021.08.103.128.182.106l.618-.167a.15.15 0 0 0 .104-.183.15.15 0 0 0-.181-.106m.951-.257-.617.167a.15.15 0 0 0-.105.183c.021.08.102.128.182.106l.617-.167a.15.15 0 0 0 .105-.183.15.15 0 0 0-.182-.106m1.19-.321-.617.167a.15.15 0 0 0-.105.183c.021.08.102.127.181.106l.618-.167a.15.15 0 0 0 .105-.183.15.15 0 0 0-.182-.106m.952-.257-.618.166a.15.15 0 0 0-.105.184c.022.08.103.127.182.105l.618-.166a.15.15 0 0 0 .104-.184.15.15 0 0 0-.181-.105m.952-.258-.618.167a.15.15 0 0 0-.105.183c.022.08.103.128.182.106l.618-.166a.15.15 0 0 0 .104-.184.15.15 0 0 0-.181-.106m1.189-.321-.617.167a.15.15 0 0 0-.105.183c.021.08.102.127.181.106l.618-.167a.15.15 0 0 0 .105-.183.15.15 0 0 0-.182-.106m.952-.257-.618.167a.15.15 0 0 0-.104.183c.02.08.102.127.181.106l.618-.167a.15.15 0 0 0 .105-.183.15.15 0 0 0-.182-.106m.952-.257-.618.167a.15.15 0 0 0-.105.183.15.15 0 0 0 .182.106l.618-.167a.15.15 0 0 0 .105-.183.15.15 0 0 0-.182-.106" opacity=".136"/><path fill="#44d860" fill-rule="evenodd" d="M40.718 39.972c-.045 0-.088.008-.131.014q-.011-.048-.024-.094a1.04 1.04 0 0 0 .255-1.754 1.01 1.01 0 0 0-1.268-.02l-.07-.07a1.03 1.03 0 0 0-1.294-1.532c-.21.11-.374.29-.467.51q-.045-.013-.091-.024c.005-.044.013-.087.013-.132a1.04 1.04 0 0 0-.3-.731 1.02 1.02 0 0 0-1.45 0 1.04 1.04 0 0 0-.301.73q.002.069.013.133l-.092.024a1.03 1.03 0 0 0-.466-.511 1.02 1.02 0 0 0-1.272.261 1.04 1.04 0 0 0-.023 1.273 4.14 4.14 0 0 0-1.237 2.957c0 2.285 1.837 4.137 4.102 4.137 1.916 0 3.52-1.326 3.972-3.116.043.006.086.014.13.014.273 0 .534-.11.726-.303a1.04 1.04 0 0 0 0-1.463 1.02 1.02 0 0 0-.725-.303" clip-rule="evenodd"/><path fill="#3ecc5f" fill-rule="evenodd" d="M28.41 32.734h8.205v-4.137H28.41z" clip-rule="evenodd"/><path fill="#44d860" fill-rule="evenodd" d="M38.667 31.182a.51.51 0 0 0 .512-.517.51.51 0 0 0-.513-.517q-.032.001-.065.007l-.012-.047a.515.515 0 0 0 .305-.578.52.52 0 0 0-.502-.416.5.5 0 0 0-.31.107l-.034-.035a.515.515 0 0 0-.647-.766.5.5 0 0 0-.234.255 2 2 0 0 0-.552-.078 2.06 2.06 0 0 0-2.05 2.068 2.06 2.06 0 0 0 2.05 2.069c.192 0 .376-.03.552-.078a.515.515 0 0 0 .574.303.51.51 0 0 0 .41-.506.5.5 0 0 0-.103-.309l.034-.035a.505.505 0 0 0 .635-.01.518.518 0 0 0-.128-.877q.007-.022.012-.046.032.004.066.006" clip-rule="evenodd"/><path fill="#000" fill-rule="evenodd" d="M40.718 15.93a.6.6 0 0 1-.197-.04.5.5 0 0 1-.166-.112q-.035-.037-.064-.078a.55.55 0 0 1-.076-.389.56.56 0 0 1 .14-.265.5.5 0 0 1 .263-.14.52.52 0 0 1 .464.14.53.53 0 0 1 .15.366.53.53 0 0 1-.229.43.5.5 0 0 1-.285.087m4.102-.26a.52.52 0 0 1-.474-.318.53.53 0 0 1 .189-.629.5.5 0 0 1 .185-.076.52.52 0 0 1 .386.076.53.53 0 0 1 .189.629 1 1 0 0 1-.048.09 1 1 0 0 1-.063.078.53.53 0 0 1-.363.151" clip-rule="evenodd"/></g><g filter="url(#c)"><path fill="#e8e8e8" d="M61.278 24.5V12.864h4.262q1.239 0 2.05.409.814.403 1.217 1.096.403.688.403 1.552 0 .726-.267 1.227a2.2 2.2 0 0 1-.716.795q-.442.296-.977.432v.114a2.3 2.3 0 0 1 1.13.375q.558.34.921.971.364.63.364 1.534 0 .893-.42 1.603-.415.704-1.285 1.119-.87.41-2.221.409zm1.756-1.506h2.534q1.261 0 1.807-.488.546-.489.546-1.222 0-.55-.279-1.011a2 2 0 0 0-.795-.733q-.512-.273-1.216-.273h-2.597zm0-5.096h2.352q.592 0 1.063-.227a1.86 1.86 0 0 0 .755-.637q.285-.414.285-.977 0-.722-.506-1.21-.506-.489-1.551-.489h-2.398zM77.14 20.88v-5.108h1.705V24.5h-1.67v-1.511h-.092q-.3.698-.965 1.164-.66.46-1.643.46-.84 0-1.488-.369-.642-.375-1.012-1.108-.363-.732-.363-1.812v-5.551h1.699v5.346q0 .893.494 1.42.494.53 1.284.53.478 0 .949-.24.477-.239.79-.721.318-.483.312-1.227m3.987 3.619v-8.727h1.7V24.5zm.858-10.074a1.08 1.08 0 0 1-.761-.295.96.96 0 0 1-.312-.716q0-.421.312-.716.318-.3.761-.301.444 0 .756.3a.94.94 0 0 1 .318.717.95.95 0 0 1-.318.716 1.06 1.06 0 0 1-.756.295m4.826-1.562V24.5h-1.7V12.864zm6.359 2.909v1.363h-4.767v-1.363zm-3.489-2.091h1.7v8.256q0 .493.147.744a.77.77 0 0 0 .38.335q.24.085.518.085.204 0 .358-.028l.238-.046.307 1.404a3 3 0 0 1-.42.114q-.274.062-.682.068a3 3 0 0 1-1.25-.239 2.15 2.15 0 0 1-.938-.773q-.357-.523-.358-1.312zM101.175 24.5l-2.568-8.727h1.755l1.71 6.409h.086l1.716-6.41h1.755l1.705 6.381h.085l1.699-6.38h1.756l-2.563 8.727h-1.733l-1.773-6.301h-.13l-1.773 6.301zm11.311 0v-8.727h1.699V24.5zm.858-10.074a1.08 1.08 0 0 1-.762-.295.96.96 0 0 1-.312-.716.95.95 0 0 1 .312-.716q.318-.3.762-.301.443 0 .755.3a.94.94 0 0 1 .319.717.95.95 0 0 1-.319.716q-.312.295-.755.295m7.2 1.347v1.363h-4.767v-1.363zm-3.489-2.091h1.699v8.256q0 .493.148.744a.77.77 0 0 0 .381.335q.238.085.517.085a2 2 0 0 0 .358-.028l.238-.046.307 1.404a3 3 0 0 1-.42.114 3.3 3.3 0 0 1-.682.068 3 3 0 0 1-1.25-.239 2.14 2.14 0 0 1-.938-.773q-.358-.523-.358-1.312zm7.255 5.636V24.5h-1.699V12.864h1.676v4.33h.108q.306-.706.937-1.12t1.648-.415q.898 0 1.568.37.677.369 1.046 1.102.375.727.375 1.818V24.5h-1.699v-5.347q0-.96-.494-1.488-.495-.534-1.375-.534a2.25 2.25 0 0 0-1.08.255q-.471.255-.744.75-.267.489-.267 1.182"/><path fill="url(#d)" d="M65.506 43.5h-4.57V31.136H65.5q1.89 0 3.254.743a5.1 5.1 0 0 1 2.112 2.125q.743 1.383.743 3.308 0 1.932-.742 3.32a5.1 5.1 0 0 1-2.107 2.132q-1.371.735-3.254.736m-1.582-2.548h1.467q1.038 0 1.757-.35.725-.355 1.092-1.153.375-.802.375-2.137t-.375-2.125q-.374-.796-1.104-1.147-.725-.356-1.787-.356h-1.425zm13.758 2.723q-1.46 0-2.511-.598a4.1 4.1 0 0 1-1.612-1.678q-.561-1.08-.561-2.505 0-1.432.56-2.505.569-1.08 1.613-1.679 1.05-.603 2.511-.604 1.462 0 2.505.604 1.05.598 1.612 1.678.568 1.075.568 2.506 0 1.425-.568 2.505a4.07 4.07 0 0 1-1.612 1.678q-1.043.598-2.505.598m.018-2.228q.531 0 .9-.326.367-.326.561-.905.2-.58.2-1.34 0-.773-.2-1.353-.194-.58-.561-.905a1.3 1.3 0 0 0-.9-.326 1.38 1.38 0 0 0-.93.326q-.374.327-.573.905-.193.58-.193 1.353 0 .76.193 1.34.2.58.574.905.38.327.93.326m10.508 2.228q-1.467 0-2.518-.604a4.1 4.1 0 0 1-1.606-1.678q-.561-1.08-.561-2.5 0-1.424.561-2.498a4.1 4.1 0 0 1 1.612-1.685q1.05-.603 2.505-.604 1.287 0 2.24.465.96.465 1.497 1.316.544.846.574 1.987h-2.759q-.084-.713-.483-1.117-.392-.405-1.026-.405-.513 0-.9.29-.386.284-.603.845-.212.556-.212 1.377 0 .82.212 1.388.217.561.603.851.387.285.9.284.41 0 .724-.175.32-.175.525-.513a2.05 2.05 0 0 0 .26-.833h2.759q-.043 1.146-.574 2.004a3.56 3.56 0 0 1-1.479 1.334q-.948.471-2.251.471m11.797-4.177v-5.27h2.946V43.5h-2.813v-1.727h-.097a2.7 2.7 0 0 1-1.05 1.353q-.737.495-1.78.495-.949 0-1.667-.435a2.96 2.96 0 0 1-1.117-1.213q-.399-.785-.404-1.836v-5.91h2.952v5.33q.006.755.398 1.19.393.435 1.069.435.44 0 .79-.193.357-.2.562-.574.21-.38.211-.917m12.921-2.44-2.711.073a1 1 0 0 0-.229-.513 1.24 1.24 0 0 0-.489-.356 1.7 1.7 0 0 0-.688-.133q-.514 0-.876.205-.356.205-.35.556a.6.6 0 0 0 .217.47q.23.2.815.32l1.787.339q1.389.265 2.065.88.682.617.688 1.63-.006.955-.567 1.661-.556.706-1.522 1.099-.966.386-2.209.386-1.987 0-3.133-.815-1.142-.821-1.304-2.197l2.916-.073q.096.507.501.773.404.266 1.032.266.567 0 .924-.212.356-.21.362-.561a.6.6 0 0 0-.278-.501q-.272-.194-.851-.302l-1.618-.308q-1.395-.253-2.077-.936-.682-.688-.676-1.75-.006-.93.495-1.588.501-.664 1.425-1.014t2.179-.35q1.884 0 2.97.79 1.087.785 1.202 2.162m4.297 6.599q-.888 0-1.576-.296a2.46 2.46 0 0 1-1.081-.905q-.392-.61-.392-1.528 0-.773.272-1.304.271-.531.748-.863a3.5 3.5 0 0 1 1.099-.501 7 7 0 0 1 1.328-.235q.79-.074 1.274-.151.483-.085.7-.236a.51.51 0 0 0 .223-.44v-.03q0-.465-.32-.72-.32-.252-.863-.253-.585 0-.942.254a1.12 1.12 0 0 0-.452.7l-2.723-.096q.12-.846.622-1.51.507-.67 1.388-1.05.888-.387 2.131-.387.888 0 1.636.212.749.205 1.304.604.556.392.858.965.307.575.307 1.31V43.5h-2.777v-1.292h-.072q-.247.471-.634.797-.38.326-.899.489a3.8 3.8 0 0 1-1.159.163m.911-1.932q.477 0 .857-.193.387-.194.616-.531.23-.344.23-.797v-.882a2 2 0 0 1-.308.121q-.175.054-.387.103-.211.048-.434.084l-.429.067a2.7 2.7 0 0 0-.712.205 1.1 1.1 0 0 0-.447.362.9.9 0 0 0-.151.52q0 .458.326.7.332.24.839.241m12.418-2.227v-5.27h2.946V43.5h-2.813v-1.727h-.097a2.7 2.7 0 0 1-1.05 1.353q-.737.495-1.781.495-.948 0-1.666-.435a2.96 2.96 0 0 1-1.117-1.213q-.398-.785-.405-1.836v-5.91h2.953v5.33q.005.755.398 1.19t1.069.435q.44 0 .79-.193.357-.2.562-.574.211-.38.211-.917m4.825 4.002v-9.273h2.868v1.69h.096q.254-.917.827-1.364a2.1 2.1 0 0 1 1.334-.453q.206 0 .423.03.217.025.405.08v2.565a3 3 0 0 0-.556-.115 5 5 0 0 0-.604-.042q-.525 0-.947.235a1.7 1.7 0 0 0-.658.646 1.9 1.9 0 0 0-.236.966V43.5zm13.138-4.002v-5.27h2.946V43.5h-2.813v-1.727h-.097a2.7 2.7 0 0 1-1.05 1.353q-.737.495-1.781.495-.948 0-1.666-.435a2.96 2.96 0 0 1-1.117-1.213q-.399-.785-.405-1.836v-5.91h2.952v5.33q.006.755.399 1.19.392.435 1.068.435.441 0 .791-.193.357-.2.562-.574.211-.38.211-.917m12.921-2.44-2.711.073a1 1 0 0 0-.229-.513 1.24 1.24 0 0 0-.489-.356 1.7 1.7 0 0 0-.689-.133q-.513 0-.875.205-.356.205-.35.556a.6.6 0 0 0 .217.47q.23.2.815.32l1.787.339q1.389.265 2.065.88.681.617.688 1.63-.006.955-.568 1.661-.555.706-1.521 1.099-.966.386-2.209.386-1.986 0-3.134-.815-1.14-.821-1.304-2.197l2.916-.073q.097.507.501.773.405.266 1.033.266.567 0 .923-.212.357-.21.363-.561a.6.6 0 0 0-.278-.501q-.272-.194-.851-.302l-1.618-.308q-1.395-.253-2.077-.936-.682-.688-.676-1.75-.006-.93.495-1.588.501-.664 1.425-1.014.923-.35 2.179-.35 1.884 0 2.97.79 1.087.785 1.202 2.162"/></g><defs><linearGradient id="a" x1="87.5" x2="87.5" y1="0" y2="56" gradientUnits="userSpaceOnUse"><stop stop-color="#103519"/><stop offset="1" stop-color="#22220a"/></linearGradient><linearGradient id="d" x1="111.5" x2="111.5" y1="28.5" y2="46.5" gradientUnits="userSpaceOnUse"><stop stop-color="#31a4e7"/><stop offset="0" stop-color="#6cca82"/><stop offset="1" stop-color="#ffff8d"/></linearGradient><filter id="b" width="51.429" height="51.428" x="6.286" y="2.286" color-interpolation-filters="sRGB" filterUnits="userSpaceOnUse"><feFlood flood-opacity="0" result="BackgroundImageFix"/><feColorMatrix in="SourceAlpha" result="hardAlpha" values="0 0 0 0 0 0 0 0 0 0 0 0 0 0 0 0 0 0 127 0"/><feOffset/><feGaussianBlur stdDeviation="2.857"/><feComposite in2="hardAlpha" operator="out"/><feColorMatrix values="0 0 0 0 0 0 0 0 0 0 0 0 0 0 0 0 0 0 0.25 0"/><feBlend in2="BackgroundImageFix" result="effect1_dropShadow_40_111"/><feBlend in="SourceGraphic" in2="effect1_dropShadow_40_111" result="shape"/></filter><filter id="c" width="114.2" height="48.2" x="54.4" y="3.9" color-interpolation-filters="sRGB" filterUnits="userSpaceOnUse"><feFlood flood-opacity="0" result="BackgroundImageFix"/><feColorMatrix in="SourceAlpha" result="hardAlpha" values="0 0 0 0 0 0 0 0 0 0 0 0 0 0 0 0 0 0 127 0"/><feOffset/><feGaussianBlur stdDeviation="2.8"/><feComposite in2="hardAlpha" operator="out"/><feColorMatrix values="0 0 0 0 0 0 0 0 0 0 0 0 0 0 0 0 0 0 0.25 0"/><feBlend in2="BackgroundImageFix" result="effect1_dropShadow_40_111"/><feBlend in="SourceGraphic" in2="effect1_dropShadow_40_111" result="shape"/></filter></defs></svg>