<svg xmlns="http://www.w3.org/2000/svg" width="256" height="56" fill="none" viewBox="0 0 256 56"><rect width="256" height="56" fill="url(#a)" rx="8"/><rect width="253.9" height="53.9" x="1.05" y="1.05" stroke="#fff" stroke-opacity=".15" stroke-width="2.1" rx="6.95"/><g filter="url(#b)"><path fill="#decfac" d="M13.337 39.072v-22.5h16.071v3.214H16.551V23h6.429v3.214h-6.43v12.858zm22.5 0v-3.215h9.643v3.215zm-3.215-3.215V19.786h3.215v16.071zm12.858 0V19.786h3.214v16.071zm-9.643-16.071V16.57h9.643v3.215z"/></g><g filter="url(#c)"><path fill="#e8e8e8" d="M61.278 24.5V12.864h4.262q1.239 0 2.05.409.814.403 1.217 1.096.403.688.403 1.552 0 .726-.267 1.227a2.2 2.2 0 0 1-.716.795q-.442.296-.977.432v.114a2.3 2.3 0 0 1 1.13.375q.558.34.921.971.364.63.364 1.534 0 .893-.42 1.603-.415.704-1.285 1.119-.87.41-2.221.409zm1.756-1.506h2.534q1.261 0 1.807-.488.546-.489.546-1.222 0-.55-.279-1.011a2 2 0 0 0-.795-.733q-.512-.273-1.216-.273h-2.597zm0-5.096h2.352q.592 0 1.063-.227a1.86 1.86 0 0 0 .755-.637q.285-.414.285-.977 0-.722-.506-1.21-.506-.489-1.551-.489h-2.398zM77.14 20.88v-5.108h1.705V24.5h-1.67v-1.511h-.092q-.3.698-.965 1.164-.66.46-1.643.46-.84 0-1.488-.369-.642-.375-1.012-1.108-.363-.732-.363-1.812v-5.551h1.699v5.346q0 .893.494 1.42.494.53 1.284.53.478 0 .949-.24.477-.239.79-.721.318-.483.312-1.227m3.987 3.619v-8.727h1.7V24.5zm.858-10.074a1.08 1.08 0 0 1-.761-.295.96.96 0 0 1-.312-.716q0-.421.312-.716.318-.3.761-.301.444 0 .756.3a.94.94 0 0 1 .318.717.95.95 0 0 1-.318.716 1.06 1.06 0 0 1-.756.295m4.826-1.562V24.5h-1.7V12.864zm6.359 2.909v1.363h-4.767v-1.363zm-3.489-2.091h1.7v8.256q0 .493.147.744a.77.77 0 0 0 .38.335q.24.085.518.085.204 0 .358-.028l.238-.046.307 1.404a3 3 0 0 1-.42.114q-.274.062-.682.068a3 3 0 0 1-1.25-.239 2.15 2.15 0 0 1-.938-.773q-.357-.523-.358-1.312zm13.279 10.994q-1.227 0-2.142-.562a3.8 3.8 0 0 1-1.42-1.574q-.507-1.011-.506-2.364 0-1.358.505-2.375a3.8 3.8 0 0 1 1.421-1.58q.915-.561 2.142-.562 1.227 0 2.142.563t1.42 1.58q.506 1.016.506 2.374 0 1.353-.506 2.364a3.8 3.8 0 0 1-1.42 1.574q-.915.562-2.142.562m.005-1.426q.796 0 1.319-.42t.772-1.12q.256-.699.256-1.54 0-.835-.256-1.534a2.5 2.5 0 0 0-.772-1.13q-.523-.426-1.319-.427-.801 0-1.329.427a2.53 2.53 0 0 0-.778 1.13q-.25.7-.25 1.535 0 .84.25 1.54.255.697.778 1.119.528.42 1.329.42m7.658-3.932V24.5h-1.699v-8.727h1.631v1.42h.108q.301-.693.943-1.114.647-.42 1.631-.42.891 0 1.562.375.67.37 1.04 1.102.369.733.369 1.813V24.5h-1.698v-5.347q0-.948-.495-1.482-.494-.54-1.358-.54-.59 0-1.051.255-.454.255-.721.75-.262.489-.262 1.182"/><path fill="#decfac" d="M60.936 43.5V31.136h8.44v2.427h-5.452V36.1h4.914v2.433h-4.914V43.5zm12.409.157q-.888 0-1.576-.296a2.45 2.45 0 0 1-1.08-.905q-.393-.61-.393-1.528 0-.773.272-1.304.27-.531.748-.863a3.5 3.5 0 0 1 1.099-.501 7 7 0 0 1 1.328-.235q.79-.074 1.274-.151.483-.085.7-.236a.51.51 0 0 0 .224-.44v-.03q0-.465-.32-.72-.32-.252-.864-.253-.585 0-.942.254a1.12 1.12 0 0 0-.452.7l-2.723-.096a3.2 3.2 0 0 1 .622-1.51q.506-.67 1.388-1.05.888-.387 2.131-.387.888 0 1.636.212.75.205 1.304.604.555.392.858.965.308.575.308 1.31V43.5h-2.778v-1.292h-.072q-.247.471-.634.797-.38.326-.9.489a3.8 3.8 0 0 1-1.158.163m.911-1.932q.477 0 .858-.193.386-.193.615-.531.23-.344.23-.797v-.882a2 2 0 0 1-.308.121 5 5 0 0 1-.387.103q-.21.048-.434.084t-.429.067a2.7 2.7 0 0 0-.712.205 1.1 1.1 0 0 0-.447.362.9.9 0 0 0-.15.52q0 .458.325.7.332.24.84.241m6.436 1.775V31.136h2.952v4.679h.06q.18-.422.513-.815.338-.393.857-.64.526-.254 1.256-.254.966 0 1.805.508.845.507 1.364 1.563t.52 2.693q0 1.575-.501 2.638-.495 1.063-1.34 1.594a3.4 3.4 0 0 1-1.866.53q-.7 0-1.213-.229a2.6 2.6 0 0 1-.864-.603 2.9 2.9 0 0 1-.531-.803h-.09V43.5zm2.891-4.636q0 .748.2 1.304.205.555.585.863.387.302.924.302.543 0 .923-.302.38-.308.574-.863.2-.555.2-1.304 0-.75-.2-1.298-.193-.55-.574-.852-.374-.3-.923-.301-.543 0-.924.295-.38.297-.585.846-.2.548-.2 1.31m13.965.634v-5.27h2.946V43.5h-2.813v-1.727h-.097a2.7 2.7 0 0 1-1.05 1.353q-.737.495-1.78.495-.949 0-1.667-.435a2.96 2.96 0 0 1-1.117-1.213q-.399-.785-.404-1.836v-5.91h2.952v5.33q.005.755.398 1.19t1.069.435q.44 0 .79-.193.357-.2.562-.574.21-.38.211-.917m7.777-8.362V43.5h-2.952V31.136zm6.208 12.54q-1.46 0-2.512-.599a4.1 4.1 0 0 1-1.611-1.678q-.562-1.08-.562-2.505 0-1.432.562-2.505.567-1.08 1.611-1.679 1.051-.603 2.512-.604 1.461 0 2.505.604 1.05.598 1.612 1.678.567 1.075.567 2.506 0 1.425-.567 2.505a4.07 4.07 0 0 1-1.612 1.678q-1.044.598-2.505.598m.018-2.229q.531 0 .899-.326.369-.326.562-.905.2-.58.199-1.34 0-.773-.199-1.353-.193-.58-.562-.905a1.3 1.3 0 0 0-.899-.326q-.549 0-.93.326-.374.327-.573.905-.194.58-.194 1.353 0 .76.194 1.34.199.58.573.905.381.327.93.326m12.161-1.95v-5.27h2.946V43.5h-2.813v-1.727h-.097a2.7 2.7 0 0 1-1.05 1.353q-.737.495-1.781.495-.948 0-1.666-.435a2.96 2.96 0 0 1-1.117-1.213q-.398-.785-.404-1.836v-5.91h2.952v5.33q.006.755.398 1.19.393.435 1.069.435.44 0 .791-.193a1.43 1.43 0 0 0 .561-.574q.211-.38.211-.917m12.921-2.438-2.711.072a1 1 0 0 0-.229-.513 1.24 1.24 0 0 0-.489-.356 1.7 1.7 0 0 0-.688-.133q-.513 0-.876.205-.356.205-.35.555a.6.6 0 0 0 .217.471q.23.2.815.32l1.787.339q1.389.265 2.065.88.682.617.688 1.63-.006.955-.567 1.661-.556.706-1.522 1.099-.966.386-2.209.386-1.987 0-3.133-.815-1.142-.821-1.304-2.197l2.916-.073q.096.507.501.773.404.266 1.032.266.567 0 .924-.212.356-.21.362-.561a.6.6 0 0 0-.278-.501q-.272-.194-.851-.302l-1.618-.308q-1.395-.253-2.077-.936-.682-.688-.676-1.75-.006-.93.495-1.588.501-.664 1.425-1.014t2.179-.35q1.884 0 2.97.79 1.087.785 1.202 2.162m4.635-5.923V43.5h-2.952V31.136zm3.684 15.841q-.532 0-1.002-.084a4 4 0 0 1-.809-.212l.652-2.143q.434.145.784.17.357.023.61-.115.26-.133.399-.477l.114-.278-3.296-9.61h3.091l1.708 6.616h.097l1.733-6.617h3.109l-3.496 10.16a4.3 4.3 0 0 1-.718 1.34 3.1 3.1 0 0 1-1.189.918q-.725.332-1.787.332m23.643-9.659q0 2.04-.784 3.46-.786 1.418-2.125 2.154-1.335.737-2.995.737-1.667 0-3-.742-1.335-.743-2.119-2.156-.779-1.418-.779-3.453 0-2.04.779-3.459.784-1.419 2.119-2.155 1.333-.737 3-.737 1.66 0 2.995.737 1.34.736 2.125 2.155t.784 3.46m-3.054 0q0-1.208-.344-2.04-.339-.834-.978-1.262-.634-.429-1.528-.429-.887 0-1.527.429t-.984 1.262q-.338.833-.338 2.04t.338 2.04q.344.834.984 1.262t1.527.429q.894 0 1.528-.429.639-.428.978-1.261.344-.834.344-2.04m4.799 9.66v-12.75h2.922v1.587h.09q.181-.422.514-.815.338-.393.857-.64.526-.254 1.255-.254.966 0 1.806.508.845.507 1.364 1.563t.519 2.693q0 1.575-.501 2.638-.495 1.063-1.34 1.594a3.4 3.4 0 0 1-1.866.53q-.7 0-1.213-.229a2.6 2.6 0 0 1-.863-.603 2.9 2.9 0 0 1-.532-.803h-.06v4.98zm2.892-8.114q0 .748.199 1.304.206.555.585.863.387.302.924.302.543 0 .924-.302.38-.308.573-.863.2-.555.2-1.304 0-.75-.2-1.298-.193-.55-.573-.852-.375-.3-.924-.301-.543 0-.924.295-.38.297-.585.846-.2.548-.199 1.31m13.216-4.637v2.174h-5.85V34.23zm-4.624-2.221h2.952v8.578q0 .272.084.44a.53.53 0 0 0 .26.236q.169.067.404.067.17 0 .357-.03.192-.038.289-.06l.447 2.13q-.211.06-.598.151-.38.09-.911.115-1.038.048-1.781-.242a2.3 2.3 0 0 1-1.129-.917q-.387-.622-.374-1.564zm6.13 11.494V34.23h2.952v9.27zm1.479-10.353q-.621 0-1.068-.41a1.32 1.32 0 0 1-.447-1.003q0-.579.447-.99a1.5 1.5 0 0 1 1.068-.417 1.5 1.5 0 0 1 1.069.417q.447.411.447.99 0 .585-.447 1.002-.44.41-1.069.41m3.352 10.353v-9.273h2.807v1.703h.103a2.64 2.64 0 0 1 .978-1.334q.688-.49 1.642-.49.966 0 1.654.496.688.494.876 1.328h.096a2.4 2.4 0 0 1 1.014-1.322q.755-.502 1.781-.502 1.317 0 2.137.846.822.84.821 2.306v6.24h-2.952v-5.566q0-.694-.356-1.056-.355-.369-.924-.369-.61 0-.959.399-.344.392-.344 1.056V43.5h-2.838v-5.596q0-.646-.35-1.02-.35-.375-.924-.375a1.25 1.25 0 0 0-1.147.706 1.8 1.8 0 0 0-.163.797V43.5zm15.739 0v-9.273h2.952V43.5zm1.479-10.353q-.622 0-1.069-.41a1.32 1.32 0 0 1-.447-1.003q0-.579.447-.99a1.5 1.5 0 0 1 1.069-.417q.627 0 1.068.417.447.411.447.99 0 .585-.447 1.002a1.5 1.5 0 0 1-1.068.41m3.376 10.353v-1.684l4.298-5.234v-.06h-4.147v-2.295h7.667v1.848l-3.985 5.07v.061h4.129V43.5zm13.939.175q-1.455 0-2.511-.573a3.96 3.96 0 0 1-1.618-1.648q-.562-1.075-.562-2.554 0-1.437.568-2.511.567-1.08 1.6-1.679 1.032-.603 2.432-.604.99 0 1.812.308a3.9 3.9 0 0 1 1.418.912q.599.604.93 1.491.332.882.332 2.023v.736h-8.059v-1.715h5.312a1.66 1.66 0 0 0-.223-.839 1.5 1.5 0 0 0-.598-.573 1.7 1.7 0 0 0-.863-.211q-.495 0-.888.223a1.68 1.68 0 0 0-.863 1.449v1.745q0 .567.224.996.223.421.633.658.411.235.978.235.392 0 .713-.109.32-.108.549-.32.23-.21.344-.519l2.711.079a3.35 3.35 0 0 1-.743 1.587q-.567.67-1.491 1.045-.924.368-2.137.368m9.295-.042a3.4 3.4 0 0 1-1.865-.531q-.839-.532-1.34-1.594t-.501-2.638q0-1.636.519-2.693.52-1.056 1.358-1.563a3.47 3.47 0 0 1 1.817-.508q.73 0 1.25.254.52.247.857.64.339.392.513.815h.061v-4.679h2.952V43.5h-2.922v-1.503h-.091a2.9 2.9 0 0 1-.531.803q-.344.374-.863.603-.513.23-1.214.23m1.027-2.3q.537 0 .917-.302.38-.308.586-.863t.205-1.304q0-.762-.205-1.31-.2-.55-.586-.846a1.45 1.45 0 0 0-.917-.295q-.55 0-.93.302-.38.3-.58.85-.192.55-.193 1.299 0 .748.199 1.304.2.555.574.863.38.302.93.302"/></g><defs><filter id="b" width="51.429" height="51.429" x="6.286" y="2.286" color-interpolation-filters="sRGB" filterUnits="userSpaceOnUse"><feFlood flood-opacity="0" result="BackgroundImageFix"/><feColorMatrix in="SourceAlpha" result="hardAlpha" values="0 0 0 0 0 0 0 0 0 0 0 0 0 0 0 0 0 0 127 0"/><feOffset/><feGaussianBlur stdDeviation="2.857"/><feComposite in2="hardAlpha" operator="out"/><feColorMatrix values="0 0 0 0 0 0 0 0 0 0 0 0 0 0 0 0 0 0 0.25 0"/><feBlend in2="BackgroundImageFix" result="effect1_dropShadow_28_12"/><feBlend in="SourceGraphic" in2="effect1_dropShadow_28_12" result="shape"/></filter><filter id="c" width="195.2" height="48.677" x="54.4" y="3.9" color-interpolation-filters="sRGB" filterUnits="userSpaceOnUse"><feFlood flood-opacity="0" result="BackgroundImageFix"/><feColorMatrix in="SourceAlpha" result="hardAlpha" values="0 0 0 0 0 0 0 0 0 0 0 0 0 0 0 0 0 0 127 0"/><feOffset/><feGaussianBlur stdDeviation="2.8"/><feComposite in2="hardAlpha" operator="out"/><feColorMatrix values="0 0 0 0 0 0 0 0 0 0 0 0 0 0 0 0 0 0 0.25 0"/><feBlend in2="BackgroundImageFix" result="effect1_dropShadow_28_12"/><feBlend in="SourceGraphic" in2="effect1_dropShadow_28_12" result="shape"/></filter><linearGradient id="a" x1="128" x2="128" y1="0" y2="56" gradientUnits="userSpaceOnUse"><stop stop-color="#33302a"/><stop offset="1" stop-color="#211f1b"/></linearGradient></defs></svg>