<svg xmlns="http://www.w3.org/2000/svg" width="144" height="56" fill="none" viewBox="0 0 144 56"><rect width="144" height="56" fill="url(#a)" rx="8"/><rect width="141.9" height="53.9" x="1.05" y="1.05" stroke="#fff" stroke-opacity=".15" stroke-width="2.1" rx="6.95"/><g filter="url(#b)"><path fill="#fff" d="M23.953 42.056c-1.523-1.209-3.149-2.368-4.26-4-2.337-2.88-4.137-6.213-5.367-9.715-.743-2.278-.998-4.72-1.957-6.91-1.002-1.59.172-3.328 1.899-3.833.769-.15 2.12-.88.489-.358-1.463 1.083-1.605-.983-.105-1.114 1.024-.137 1.4-.982 1.05-1.743-1.098-.723 2.665-1.518.772-2.597-1.973-2.147 2.759-2.56 1.592-.122-.28 1.876 3.306-.343 2.474 1.822.846 1.04 3.167.237 3.109 1.696 1.232.085 1.655 1.13 2.811 1.211 1.199.546 3.371.976 3.78 2.339-1.19.95-3.943-1.962-4.076.667.36 3.884.268 7.884 1.676 11.583.666 2.239 2.282 4.002 3.74 5.746 1.395 1.708 3.285 2.91 5.212 3.923 1.69.804 3.512 1.337 5.354 1.672.747-.576 2.066-2.72 3.231-1.816.055 1.016-2.313 2.123-.111 2.01 1.293-.393 2.19 1.01 3.254-.255.98 1.172 4.076-.75 3.379 1.646-.944.615-2.32.243-3.266 1.088-1.558-.785-2.799.703-4.524.515-1.916.346-3.865.486-5.808.489-3.186-.254-6.44-.361-9.472-1.48-1.708-.501-3.375-1.482-4.876-2.464m2.692 1.177c1.667.727 3.298 1.494 5.126 1.725 2.9.407 5.893 1.033 8.803.462-1.317-.6-2.678.234-3.99-.429-1.574.342-3.263-.087-4.862-.298-1.82-.817-3.783-1.38-5.486-2.44-2.13-.785 1.1 1.005 1.675 1.15 1.331.762-1.463-.39-1.857-.707-1.114-.63-1.256-.5-.11.142.23.136.459.279.7.395M23.47 40.97c1.616.604-.007-1.146-.747-1.044-.328-.575-1.254-.937-.6-1.246-1.175.411-1.23-1.564-1.783-1.282-1.242-.395-.483-1.797-1.963-2.658-.135-.907-1.47-1.694-1.896-3.062-.188-.7-1.508-2.713-.697-.84.69 1.802 1.905 3.345 2.916 4.887.785 1.468 1.713 3.002 3.142 3.918.482.466.948 1.181 1.628 1.327m-4.655-5.156c.056-.246.296.533 0 0m6.59 5.88c-.514-.204.359-.162 0 0m.878.323c-.4.25-.09-.446 0 0m1.098.462c-.806-.316.523-.502 0 0m1.882 1.058c-1.017-.178.318-.473 0 0m-3.614-2.541c-1.049-.008.812-.53 0 0m.824.414c-.294.126-.023-.28 0 0m4.117 2.593c.662.42 3.864.923 1.859.172-.336.072-3.719-.965-1.86-.172m-6.536-5.136c-1.027-.31-.064-.28 0 0m1.917 1.127c-1.036-.27.498-.351 0 0m1.612.997c-1.162-.273.715-.272 0 0m-4.309-2.98c.777.6 3.132.076 1.19-.36-.885-.475-2.878-.8-1.52.287zm5.4 3.325c-1.356-.318.324-.556 0 0m-1.64-1.316c1.898.542-1.597-1.212-.469-.2l.25.114zm3.29 1.918c-1.625-.25 1.798.018 0 0m-7.742-4.978c-.444.029-.07-.338 0 0m10.784 6.7c-.587.454.048-.61 0 0m-7.715-4.803c-.562-.014-.108-.322 0 0m-2.898-2.109c-1.414-.459 1.032-.062 0 0M19.32 34.51c-1.124-.898-.129-.5 0 0m9.014 5.772c-.189-.218-.089.047 0 0m5.611 3.474c-.305.125-.018-.333 0 0m-6.107-3.992c-.88-.13.1-.428 0 0m-4.18-2.672c-1.23-.524.768-.083 0 0m7.07 4.432c-1.166-.233 1.198-.478 0 0m-3.677-2.518c1.38.18-1.642-.947-.303-.101zm4.794 2.974c1.288-.777.864 1.819 2.185.22 1.304-.961-1.126 1.187.481.17 1.162-.784 2.879.372 3.963.75.78-.04 1.538.68 2.337.242 1.54-.418-3.009-.62-1.817-1.362-1.408.413-2.448-.493-3.14-1.403-1.58-.368-3.407-1.182-4.195-2.593-.321-.53.464.075-.277-.79-.952-.855-1.427-1.824-2.066-2.862-.763-.411-.852-1.62-.93-.04.007-.998-.921-1.668-1.147-1.39-.005-.96.992-.478.294-1.188-.15-.995-.644-2.032-.793-3.156-.23-.541-.032-1.7-.788-.475-.275 1.296-.091-1.592.337-.64.562-.971-.202-.857-.233-.722.366-.82.232-1.983-.096-1.54.195-.868.308-3.197-.292-2.784.364-.909.69-4.158-.889-2.92-.64.01-1.748.235-2.272.498 1.643.913-.165.33-.834.185-.087.845-.75.48-1.576.488 1.321.164-.644 1.363-1.402.897-.985.475.85 1.66.02 2.027.102.552-1.509-.2-1.382 1.076-.956-.406-.132 1.513.346.864 1.626.444 1.145 1.456 1.186 2.417-.265.56-1.307-1.316-.232-1.23-.848-1.39-.939-.502-1.644.144-.164.047 1.799.919.567 1.35 1.084.169 1.115 1.125 1.335 1.73.651.685.518-.755 1.297.068-.493-.733-2.611-2.065-.906-1.638-.009-.737-.308-1.332.214-1.317.518-.946-.542 2.331.625 1.13.323-.143.403-.947.983.076.844.836.305 1.442-.884.676.212.729 1.59.989 1.332 2.128.274 1.001.658.632.993.574.263.973.412.258.424-.205 1.203.26.921.977 1.298 1.478.828.377-1.187-2.558.236-.883 1.497 1.364.562 1.933-.782 1.714.85-.069 1.125 1.16 2.188 1.117.97.465 1.627 2.253-.045 1.509-.58-.527-2.632-1.178-.956-.175 1.548.723 2.777 1.156 4.27 2.063 1.068.77 1.53 1.651 1.935 1.826-.898.432-2.706-.346-1.364-.584-.837-.154-1.779-.582-.977.471.682.575 2.416.514 2.727.579-.263.586-.715.632.011.678-.81.435.26.503.335.752m-1.657-4.723c-.494-.52-.621-1.495-.088-.647.273.111.876 1.593.088.647m5.398 3.46c.009.236.307-.02 0 0m-6.177-4.736c-.019-.786.178.607 0 0m-.537-.728c-.62-1.209.782.343 0 0m-6.501-4.527c.18.629.364-.098 0 0m5.174 2.83c.224-.848.263.711 0 0M23.89 30.99c-.258-.468.539.439 0 0m3.137 1.015c-.588-1.329.416-.726.13.217zm-5.41-3.64c-.263-.436-.698-1.715-.558-2.105.127.636 1.34 2.736.595.87-.823-1.564.984.508 1.17.898.087.388-.508-.106-.105.804-.734-1.036-.433.572-1.102-.467m-1.672-1.163c.069-1.013.383.695 0 0m.752.261c.359-.764.608 1.067 0 0m-1.81-1.412c-.622-.623-1.072-1.199.03-.387.424.017-.944-1.308.102-.42 1.1.202.543 1.819-.131.808m.951-.024c.192.355.361-.362 0 0m.585.189c-.548-1.037.665.434 0 0m-1.163-1.121c-1.81-1.625 2.274.85.296.301zm5.185 3.04c-.783-.475-.207-3.336.06-1.379.761-.248-.042 1.01.526 1-.09.793-.344 1.08-.586.378m1.918 1.143c.077-.863.162.59 0 0m-.333-.332c.009.433.086-.369 0 0m-6.415-4.385c-1.162-1.618 3.38 1.637.745.41-.275-.072-.607-.098-.745-.41m3.693 1.975c-.11-1.362.246.226 0 0m2.804 1.815c.016.514.217-.776 0 0m-6.319-4.408c.691-.149 2.864 1.225.869.393-.222-.248-.694-.135-.869-.393m5.934 2.984c.074-1.393.413-.832.003.2zm-5.42-3.468c.282-.417-.747-1.884.149-.527.387.31 1.12.52.473.65 1.019.907-.248.246-.621-.123m5.127 3.033c.171.93.194-1.588 0 0m-5.714-4.5c.113.29.215-.092 0 0m1.337.803c.344-.728.635.813 0 0m3.771 2.117c-.003-.28.071.407 0 0m-.218-.488c-.524-1.303.487.69 0 0m-.322-.854c-.088-.539.299.676 0 0m.523-.858c-.359-.639.454-2.814.545-1.465-.38 1.051-.11 1.64.155.23.488-1.11-.106 2.19-.7 1.235m.538-3.236c.035.234.157-.194 0 0m-.898 17.846c-.213-.187.027.12 0 0m1.85.944c1.028.266 1.023-.161.093-.288-.5-.47-2.078-.968-.665-.059.093.24.389.234.572.347m-3.653-2.447c.567.426 2.135 1.208.808.162.447-.525-.857-.804-.424-1.155-1.1-.679-.868-.618-.098-.597-1.322-.596.191-.552.12-.857-.51-.102-2.532-.907-1.342.066-1.21-.622-.289.232-.654.141-1.237-.34 1.101.95-.197.63.71.568 1.91 1.454.3.6-.212.309 1.152.776 1.487 1.01m1.934 1.12c-1.153-.933 2.352.765 0 0m9.901 6.052c-.321.401.03-.47 0 0m1.018.432c.543-.53.022.845.899-.13.01-.698-.027-1.11-1.008-.262-.27.151-.39.794.109.392M19.347 33.188c-1.168-.657-.167-.66 0 0m1.087.718c-1.44-.61-.404-.675 0 0m6.182 3.762c.603.54 2.772.397.733.066-.302-.45-1.918-.342-.733-.066m8.498 5.295c-.9.35.929-.787 0 0m1.932 1.34c-.4.11.006-.253 0 0m.003-.354c-.997.065 1.029-1.1 0 0M16.675 30.93c-.877-1.262-.546-1.83-1.391-2.86-.16-.788-1.45-2.576-.667-.682.717 1.108.93 2.823 2.057 3.542m20.051 12.668c-.777-.537 1.893-1.234 0 0m1.445.571c-.6-.171.947-.82 0 0M19.025 31.793c-.7-.052.271-.407 0 0M37.87 43.78c.918-.596-.211-.505-.166.055zm-12.453-7.919c-.485.035-.032-.403 0 0m.77.447c-.377.078-.245-.499 0 0m13.156 7.876c1.175-.856-.713-.164-.247.162zm-.45-.22c-1.012.36.957-.81 0 0m2.3 1.546c-.782-.141.642-.435 0 0M19.614 31.5c.862.194 3.444 2.141 1.92.134-.78-.233-.312-2.157-1.108-1.817.535.9.44 1.284-.682.716-1.41-.694-.792.344-.517.63-.375.087.497.33.387.337m-3.927-3.13c.154-.643-1.42-3.541-.744-1.451.245.437.22 1.267.744 1.452m7.207 4.484c-.444-.375-.02-.053 0 0m1.093.256c-1.208-.277 0-.682 0 0m9.471 6.024c-.714-.01-.18-.466 0 0m.455.335c-.262.05-.067-.26 0 0m3.754 2.386c-.45-.035.361-.27 0 0m-20.018-12.98c-1.106-.288 1.033-.403 0 0m14.976 9.519c-.658.167-.011-.675 0 0M17.241 27.917c-.613-.15.664-.226 0 0m1.926.94c-.204.085-.012-.22 0 0m23.484 14.53c.853-.175 2.797.438 3.111-.229-1.036-.025-3.584-.737-3.704.17l.227.036zM19.78 29.013c-.529-.025.015-.683 0 0m-5.063-3.543c-.874-.197-.23-1.302 0 0m1.208.307c-1.105-.377.014-.419 0 0m.69.341c-.2-.163-.157.206 0 0m4.34 2.81c-.483-.14.205-.19 0 0m-4.8-3.58c-1.398-.148-.117-.984 0 0m-2.475-1.62c-.241.17-.035-.455 0 0m.368-.281c-.316.068-.06-.538 0 0m2.034 1.225c.86-.341-1.566-.705-.175-.065zm27.223 16.964c-.7-.157.55-.509 0 0m3.289 1.72c-.556.087.22-.658 0 0M16.29 23.596c-.682.127.09-.637 0 0m-2.894-1.956c-.155-.9-.134-2.477 1.353-1.944-1.985.398 1.374 2.489.95.838.834.041 1.632-.498 1.194.32 1.645-.183 2.785-1.622 4.373-1.42 1.238-.166 2.59-.29 3.924-.793 1.096-.08 2.151-1.27 1.55-1.977-1.495-.127-3.06.061-4.712.393-1.831.384-3.494 1.114-5.342 1.427-1.8.244.363.672-.153.767-.94.33 1.12.551-.122.898-.767-.147-1.566-.413-1.238-1.229-1.725.226-3.241.948-1.878 2.72zm4.157-2.136c.404-1.503 2.166 1.237.663.2-.18-.136-.475-.246-.663-.2m.078-.729c.31.246.584-.438 0 0m.742.012c.052-.691 1.696.367.27.25zm1.014-.411c.106.388.37-.436 0 0m.259-.175c.616-.748 3.491-.477 1.387-.073-.564-.428-.996.253-1.387.073m3.752-.584c-.094-2.041 1.864.726 0 0m1.064-.006c.39-1.029 1.51-.412.18-.206.03.11-.039.53-.18.206m-8.592 5.457c-1.234-.623 1.163-.718 0 0m.86.241c-.886-.177.408-.437 0 0m-2.533-1.814c-.787-.196.664-.515 0 0m34.338 21.673c-.508.27.02-.597 0 0m-3.49-2.402c-.448.06.1-.688 0 0m4.45 2.634c.929.003 2.815-.291.793-.29-.317.05-1.848.039-.794.29M17.485 22.888c.751-.053 1.176-.837-.146-.792-2.049-.214 1.808.707-.263.444-.278.186.392.399.408.348m.662.338c-.233.258-.079-.487 0 0m.785-2.114c-.451-.109.326-.408 0 0m-2.5-4.216c1.342-.461 3.177-.979 3.81.226-.645-.783-.26-1.553.349-.409.861 1.159 1.292-.527.732-.915.638.8 1.364 1.178.427.05 1.019-1.235-2.038.162-2.733.148-.334.152-3.451.802-2.585.9m.786-1.52c.765-.583 2.647.347 1.44-.58-.118-.104-2.645.703-1.44.58m2.79.116c.896.023-.386-1.214.681-.653-.175-.578-1.243-.686-1.764-.917-.295.528.6 1.577 1.083 1.57m-2.3-2.555c-.544.215.31-.424 0 0m1.14.275c1.443-.193-.368-.627-.291-.015zm-2.13-1.68c-1.016-1.339 1.912.225.88-1.177-.87-.698-1.705.786-.88 1.176m13.043 7.087c.466-.834-1.925-1.124-.314-.295.148.05.115.353.314.295"/></g><g filter="url(#c)"><path fill="#e8e8e8" d="M61.278 24.5V12.864h4.262q1.239 0 2.05.409.814.403 1.217 1.096.403.688.403 1.552 0 .726-.267 1.227a2.2 2.2 0 0 1-.716.795q-.442.296-.977.432v.114a2.3 2.3 0 0 1 1.13.375q.558.34.921.971.364.63.364 1.534 0 .893-.42 1.603-.415.704-1.285 1.119-.87.41-2.221.409zm1.756-1.506h2.534q1.261 0 1.807-.488.546-.489.546-1.222 0-.55-.279-1.011a2 2 0 0 0-.795-.733q-.512-.273-1.216-.273h-2.597zm0-5.096h2.352q.592 0 1.063-.227a1.86 1.86 0 0 0 .755-.637q.285-.414.285-.977 0-.722-.506-1.21-.506-.489-1.551-.489h-2.398zM77.14 20.88v-5.108h1.705V24.5h-1.67v-1.511h-.092q-.3.698-.965 1.164-.66.46-1.643.46-.84 0-1.488-.369-.642-.375-1.012-1.108-.363-.732-.363-1.812v-5.551h1.699v5.346q0 .893.494 1.42.494.53 1.284.53.478 0 .949-.24.477-.239.79-.721.318-.483.312-1.227m3.987 3.619v-8.727h1.7V24.5zm.858-10.074a1.08 1.08 0 0 1-.761-.295.96.96 0 0 1-.312-.716q0-.421.312-.716.318-.3.761-.301.444 0 .756.3a.94.94 0 0 1 .318.717.95.95 0 0 1-.318.716 1.06 1.06 0 0 1-.756.295m4.826-1.562V24.5h-1.7V12.864zm6.359 2.909v1.363h-4.767v-1.363zm-3.489-2.091h1.7v8.256q0 .493.147.744a.77.77 0 0 0 .38.335q.24.085.518.085.204 0 .358-.028l.238-.046.307 1.404a3 3 0 0 1-.42.114q-.274.062-.682.068a3 3 0 0 1-1.25-.239 2.15 2.15 0 0 1-.938-.773q-.357-.523-.358-1.312zM101.175 24.5l-2.568-8.727h1.755l1.71 6.409h.086l1.716-6.41h1.755l1.705 6.381h.085l1.699-6.38h1.756l-2.563 8.727h-1.733l-1.773-6.301h-.13l-1.773 6.301zm11.311 0v-8.727h1.699V24.5zm.858-10.074a1.08 1.08 0 0 1-.762-.295.96.96 0 0 1-.312-.716.95.95 0 0 1 .312-.716q.318-.3.762-.301.443 0 .755.3a.94.94 0 0 1 .319.717.95.95 0 0 1-.319.716q-.312.295-.755.295m7.2 1.347v1.363h-4.767v-1.363zm-3.489-2.091h1.699v8.256q0 .493.148.744a.77.77 0 0 0 .381.335q.238.085.517.085a2 2 0 0 0 .358-.028l.238-.046.307 1.404a3 3 0 0 1-.42.114 3.3 3.3 0 0 1-.682.068 3 3 0 0 1-1.25-.239 2.14 2.14 0 0 1-.938-.773q-.358-.523-.358-1.312zm7.255 5.636V24.5h-1.699V12.864h1.676v4.33h.108q.306-.706.937-1.12t1.648-.415q.898 0 1.568.37.677.369 1.046 1.102.375.727.375 1.818V24.5h-1.699v-5.347q0-.96-.494-1.488-.495-.534-1.375-.534a2.25 2.25 0 0 0-1.08.255q-.471.255-.744.75-.267.489-.267 1.182"/><path fill="#fff" d="M60.936 43.5V31.136h8.44v2.427h-5.452V36.1h4.914v2.433h-4.914V43.5zm12.896-12.364V43.5H70.88V31.136zm4.493 12.521q-.887 0-1.576-.296a2.45 2.45 0 0 1-1.08-.905q-.393-.61-.392-1.528 0-.773.271-1.304t.749-.863a3.5 3.5 0 0 1 1.098-.501 7 7 0 0 1 1.329-.235q.79-.074 1.273-.151.484-.085.7-.236a.51.51 0 0 0 .224-.44v-.03q0-.465-.32-.72-.32-.252-.863-.253-.586 0-.942.254a1.12 1.12 0 0 0-.453.7l-2.722-.096q.12-.846.621-1.51.507-.67 1.389-1.05.887-.387 2.13-.387.889 0 1.637.212.749.205 1.304.604.555.392.857.965.308.575.308 1.31V43.5H81.09v-1.292h-.072q-.248.471-.634.797-.381.326-.9.489a3.8 3.8 0 0 1-1.159.163m.912-1.932q.476 0 .857-.193.387-.194.616-.531.23-.344.23-.797v-.882a2 2 0 0 1-.309.121 5 5 0 0 1-.386.103 7 7 0 0 1-.435.084l-.428.067a2.7 2.7 0 0 0-.713.205 1.1 1.1 0 0 0-.447.362.9.9 0 0 0-.15.52q0 .458.325.7.333.24.84.241m14.53-4.666-2.71.072a1 1 0 0 0-.23-.513 1.24 1.24 0 0 0-.488-.356 1.7 1.7 0 0 0-.689-.133q-.513 0-.875.205-.356.205-.35.556a.6.6 0 0 0 .217.47q.23.2.815.32l1.787.339q1.389.265 2.065.88.681.617.688 1.63-.006.955-.567 1.661-.556.706-1.522 1.099-.965.386-2.21.386-1.985 0-3.132-.815-1.141-.821-1.305-2.197l2.916-.073q.097.507.501.773.405.266 1.033.266.567 0 .923-.212.357-.21.363-.561a.6.6 0 0 0-.278-.501q-.272-.194-.851-.302l-1.618-.308q-1.395-.253-2.077-.936-.682-.688-.676-1.75-.006-.93.495-1.588.501-.664 1.425-1.014.923-.35 2.179-.35 1.884 0 2.97.79 1.087.785 1.202 2.162m4.346 4.008.012-3.52h.41l2.608-3.32h3.345l-3.876 4.757h-.779zM95.45 43.5V31.136h2.952V43.5zm5.76 0-2.427-3.852 1.944-2.094 3.893 5.946z"/></g><defs><filter id="b" width="51.429" height="51.429" x="6.286" y="2.286" color-interpolation-filters="sRGB" filterUnits="userSpaceOnUse"><feFlood flood-opacity="0" result="BackgroundImageFix"/><feColorMatrix in="SourceAlpha" result="hardAlpha" values="0 0 0 0 0 0 0 0 0 0 0 0 0 0 0 0 0 0 127 0"/><feOffset/><feGaussianBlur stdDeviation="2.857"/><feComposite in2="hardAlpha" operator="out"/><feColorMatrix values="0 0 0 0 0 0 0 0 0 0 0 0 0 0 0 0 0 0 0.25 0"/><feBlend in2="BackgroundImageFix" result="effect1_dropShadow_2_3646"/><feBlend in="SourceGraphic" in2="effect1_dropShadow_2_3646" result="shape"/></filter><filter id="c" width="83.2" height="48.2" x="54.4" y="3.9" color-interpolation-filters="sRGB" filterUnits="userSpaceOnUse"><feFlood flood-opacity="0" result="BackgroundImageFix"/><feColorMatrix in="SourceAlpha" result="hardAlpha" values="0 0 0 0 0 0 0 0 0 0 0 0 0 0 0 0 0 0 127 0"/><feOffset/><feGaussianBlur stdDeviation="2.8"/><feComposite in2="hardAlpha" operator="out"/><feColorMatrix values="0 0 0 0 0 0 0 0 0 0 0 0 0 0 0 0 0 0 0.25 0"/><feBlend in2="BackgroundImageFix" result="effect1_dropShadow_2_3646"/><feBlend in="SourceGraphic" in2="effect1_dropShadow_2_3646" result="shape"/></filter><linearGradient id="a" x1="72" x2="72" y1="0" y2="56" gradientUnits="userSpaceOnUse"><stop stop-color="#0a2135"/><stop offset="1" stop-color="#041823"/></linearGradient></defs></svg>