<svg xmlns="http://www.w3.org/2000/svg" width="144" height="56" fill="none" viewBox="0 0 144 56"><g clip-path="url(#a)"><rect width="144" height="56" fill="url(#b)" rx="8"/><g filter="url(#c)"><g clip-path="url(#d)"><path fill="#f6d2a2" fill-rule="evenodd" stroke="#000" stroke-linecap="round" stroke-width=".5" d="M17.043 29.633c.06 1.238 1.296.665 1.856.278.532-.368.687-.062.734-.788.03-.477.085-.954.058-1.433-.803-.072-1.678.12-2.337.598-.34.247-.976 1.035-.311 1.345Z" clip-rule="evenodd"/><path fill="#c6b198" fill-rule="evenodd" d="M17.043 29.632c.18-.067.37-.114.492-.277z" clip-rule="evenodd"/><path stroke="#000" stroke-linecap="round" stroke-width=".5" d="M17.043 29.632c.18-.067.37-.114.492-.277"/><path fill="#6ad7e5" fill-rule="evenodd" stroke="#000" stroke-linecap="round" stroke-width=".5" d="M19.9 14.875c-4.738-1.333-1.215-7.366 2.59-4.885zm21.05-5.337c3.75-2.637 7.14 3.312 2.78 4.808z" clip-rule="evenodd"/><path fill="#f6d2a2" fill-rule="evenodd" stroke="#000" stroke-linecap="round" stroke-width=".5" d="M41.757 44.878c.952.59 2.694 2.374 1.265 3.239-1.373 1.258-2.142-1.381-3.347-1.747.519-.706 1.177-1.349 2.082-1.492Z" clip-rule="evenodd"/><path stroke="#000" stroke-linecap="round" stroke-width=".5" d="M43.022 48.116c-.212-.421-.283-.913-.637-1.253"/><path fill="#f6d2a2" fill-rule="evenodd" stroke="#000" stroke-linecap="round" stroke-width=".5" d="M24.739 46.894c-1.118.173-1.748 1.182-2.68 1.695-.878.524-1.214-.168-1.293-.308-.138-.063-.126.058-.339-.156-.814-1.286.849-2.226 1.715-2.865 1.205-.244 1.961.802 2.597 1.634Z" clip-rule="evenodd"/><path stroke="#000" stroke-linecap="round" stroke-width=".5" d="M20.766 48.28c.043-.49.431-.818.616-1.232"/><path fill="#000" fill-rule="evenodd" d="M20.098 13.21c-.625-.332-1.084-.781-.702-1.505.354-.67 1.012-.597 1.637-.266zm22.645-.63c.625-.33 1.084-.78.702-1.504-.354-.67-1.012-.597-1.637-.266z" clip-rule="evenodd"/><path fill="#f6d2a2" fill-rule="evenodd" stroke="#000" stroke-linecap="round" stroke-width=".5" d="M47.046 29.475c-.06 1.239-1.296.666-1.856.278-.532-.367-.687-.062-.734-.787-.03-.477-.086-.954-.059-1.433.804-.073 1.679.119 2.338.598.339.247.976 1.035.311 1.344Z" clip-rule="evenodd"/><path fill="#c6b198" fill-rule="evenodd" d="M47.046 29.475c-.18-.067-.37-.115-.493-.277z" clip-rule="evenodd"/><path stroke="#000" stroke-linecap="round" stroke-width=".5" d="M47.046 29.475c-.18-.067-.37-.115-.493-.277"/><path fill="#6ad7e5" fill-rule="evenodd" stroke="#000" stroke-linecap="round" stroke-width=".5" d="M31.57 7.032c4.743 0 9.19.68 11.507 5.24 2.08 5.113 1.34 10.626 1.658 16.029.273 4.64.877 9.999-1.274 14.298-2.262 4.524-7.914 5.661-12.572 5.495-3.658-.131-8.077-1.326-10.141-4.67-2.422-3.925-1.276-9.76-1.1-14.127.209-5.173-1.4-10.361.298-15.423 1.761-5.25 6.511-6.437 11.624-6.842Z" clip-rule="evenodd"/><path fill="#fff" fill-rule="evenodd" stroke="#000" stroke-linecap="round" stroke-width=".5" d="M32.407 13.405c.852 4.955 8.944 3.645 7.781-1.352-1.042-4.481-8.064-3.241-7.781 1.352Zm-9.67.802c1.104 4.313 8.004 3.209 7.744-1.118-.312-5.182-8.8-4.182-7.744 1.118Zm10.646 5.144c.004.644.146 1.367.025 2.053-.165.31-.487.343-.765.47a1.13 1.13 0 0 1-.861-.673c-.099-.783.037-1.54.062-2.323z" clip-rule="evenodd"/><path fill="#000" d="M24.64 14.766c.644 0 1.165-.565 1.165-1.263s-.521-1.263-1.165-1.263c-.643 0-1.165.565-1.165 1.263s.522 1.263 1.165 1.263"/><path fill="#fff" d="M25.17 14.11c.152 0 .275-.144.275-.322 0-.177-.123-.32-.275-.32s-.275.143-.275.32.123.321.275.321"/><path fill="#000" d="M34.403 14.452c.633 0 1.146-.566 1.146-1.264 0-.697-.513-1.263-1.146-1.263s-1.146.566-1.146 1.263c0 .698.513 1.264 1.146 1.264"/><path fill="#fff" d="M34.924 13.795c.15 0 .27-.144.27-.321s-.12-.321-.27-.321c-.149 0-.27.143-.27.32s.121.322.27.322"/><path fill="#fff" fill-rule="evenodd" stroke="#000" stroke-linecap="round" stroke-width=".5" d="M30.054 19.28c-.509 1.234.283 3.7 1.662 1.881-.098-.782.037-1.54.062-2.322z" clip-rule="evenodd"/><path fill="#f6d2a2" fill-rule="evenodd" stroke="#231f20" stroke-linecap="round" stroke-width=".5" d="M30.228 16.906c-.948.08-1.723 1.209-1.23 2.1.652 1.182 2.109-.104 3.016.017 1.044.02 1.899 1.104 2.737.195.933-1.01-.401-1.995-1.444-2.435z" clip-rule="evenodd"/><path fill="#000" fill-rule="evenodd" d="M30.108 16.857c-.07-1.643 3.06-1.849 3.43-.473.368 1.372-3.276 1.69-3.43.473" clip-rule="evenodd"/></g></g><g filter="url(#e)"><path fill="#e8e8e8" d="M61.278 24.5V12.864h4.262q1.239 0 2.05.409.814.403 1.217 1.096.403.688.403 1.552 0 .726-.267 1.227a2.2 2.2 0 0 1-.716.795q-.442.296-.977.432v.114a2.3 2.3 0 0 1 1.13.375q.558.34.921.971.364.63.364 1.534 0 .893-.42 1.603-.415.704-1.285 1.119-.87.41-2.221.409zm1.756-1.506h2.534q1.261 0 1.807-.488.546-.489.546-1.222 0-.55-.279-1.011a2 2 0 0 0-.795-.733q-.512-.273-1.216-.273h-2.597zm0-5.096h2.352q.592 0 1.063-.227a1.86 1.86 0 0 0 .755-.637q.285-.414.285-.977 0-.722-.506-1.21-.506-.489-1.551-.489h-2.398zM77.14 20.88v-5.108h1.705V24.5h-1.67v-1.511h-.092q-.3.698-.965 1.164-.66.46-1.643.46-.84 0-1.488-.369-.642-.375-1.012-1.108-.363-.732-.363-1.812v-5.551h1.699v5.346q0 .893.494 1.42.494.53 1.284.53.478 0 .949-.24.477-.239.79-.721.318-.483.312-1.227m3.987 3.619v-8.727h1.7V24.5zm.858-10.074a1.08 1.08 0 0 1-.761-.295.96.96 0 0 1-.312-.716q0-.421.312-.716.318-.3.761-.301.444 0 .756.3a.94.94 0 0 1 .318.717.95.95 0 0 1-.318.716 1.06 1.06 0 0 1-.756.295m4.826-1.562V24.5h-1.7V12.864zm6.359 2.909v1.363h-4.767v-1.363zm-3.489-2.091h1.7v8.256q0 .493.147.744a.77.77 0 0 0 .38.335q.24.085.518.085.204 0 .358-.028l.238-.046.307 1.404a3 3 0 0 1-.42.114q-.274.062-.682.068a3 3 0 0 1-1.25-.239 2.15 2.15 0 0 1-.938-.773q-.357-.523-.358-1.312zM101.175 24.5l-2.568-8.727h1.755l1.71 6.409h.086l1.716-6.41h1.755l1.705 6.381h.085l1.699-6.38h1.756l-2.563 8.727h-1.733l-1.773-6.301h-.13l-1.773 6.301zm11.311 0v-8.727h1.699V24.5zm.858-10.074a1.08 1.08 0 0 1-.762-.295.96.96 0 0 1-.312-.716.95.95 0 0 1 .312-.716q.318-.3.762-.301.443 0 .755.3a.94.94 0 0 1 .319.717.95.95 0 0 1-.319.716q-.312.295-.755.295m7.2 1.347v1.363h-4.767v-1.363zm-3.489-2.091h1.699v8.256q0 .493.148.744a.77.77 0 0 0 .381.335q.238.085.517.085a2 2 0 0 0 .358-.028l.238-.046.307 1.404a3 3 0 0 1-.42.114 3.3 3.3 0 0 1-.682.068 3 3 0 0 1-1.25-.239 2.14 2.14 0 0 1-.938-.773q-.358-.523-.358-1.312zm7.255 5.636V24.5h-1.699V12.864h1.676v4.33h.108q.306-.706.937-1.12t1.648-.415q.898 0 1.568.37.677.369 1.046 1.102.375.727.375 1.818V24.5h-1.699v-5.347q0-.96-.494-1.488-.495-.534-1.375-.534a2.25 2.25 0 0 0-1.08.255q-.471.255-.744.75-.267.489-.267 1.182"/><path fill="#6ad7e5" d="M69.05 35.175a2.2 2.2 0 0 0-.302-.67 1.9 1.9 0 0 0-.49-.501 2.1 2.1 0 0 0-.663-.308 3 3 0 0 0-.822-.109q-.9 0-1.557.435-.652.434-1.008 1.268-.356.827-.356 2.01 0 1.19.344 2.029t.996 1.28q.652.44 1.581.44.821 0 1.389-.266.573-.27.87-.766.295-.495.295-1.165l.555.066h-3.006v-2.18h5.33v1.637q0 1.66-.706 2.843a4.7 4.7 0 0 1-1.931 1.817q-1.226.634-2.82.634-1.768 0-3.109-.767-1.34-.766-2.089-2.185-.748-1.425-.748-3.38 0-1.522.453-2.7.452-1.182 1.261-2.004a5.45 5.45 0 0 1 1.884-1.243 6.3 6.3 0 0 1 2.312-.423q1.075 0 1.998.308.93.308 1.642.87.72.561 1.166 1.334.445.772.555 1.696zm9.246 8.5q-1.46 0-2.51-.598a4.1 4.1 0 0 1-1.613-1.678q-.561-1.08-.561-2.505 0-1.432.561-2.505.568-1.08 1.612-1.679 1.05-.603 2.511-.604 1.462 0 2.506.604 1.05.598 1.612 1.678.567 1.075.567 2.506 0 1.425-.567 2.505a4.07 4.07 0 0 1-1.612 1.678q-1.045.598-2.506.598m.018-2.228q.533 0 .9-.326.369-.326.561-.905.2-.58.2-1.34 0-.773-.2-1.353-.193-.58-.561-.905a1.3 1.3 0 0 0-.9-.326 1.38 1.38 0 0 0-.93.326q-.373.327-.573.905-.192.58-.193 1.353 0 .76.193 1.34.2.58.574.905.38.327.93.326"/></g></g><rect width="141.9" height="53.9" x="1.05" y="1.05" stroke="#fff" stroke-opacity=".15" stroke-width="2.1" rx="6.95"/><defs><clipPath id="a"><rect width="144" height="56" fill="#fff" rx="8"/></clipPath><clipPath id="d"><path fill="#fff" d="M16.207 6h31.586v44H16.207z"/></clipPath><filter id="c" width="55.429" height="55.429" x="4.286" y=".286" color-interpolation-filters="sRGB" filterUnits="userSpaceOnUse"><feFlood flood-opacity="0" result="BackgroundImageFix"/><feColorMatrix in="SourceAlpha" result="hardAlpha" values="0 0 0 0 0 0 0 0 0 0 0 0 0 0 0 0 0 0 127 0"/><feOffset/><feGaussianBlur stdDeviation="2.857"/><feComposite in2="hardAlpha" operator="out"/><feColorMatrix values="0 0 0 0 0 0 0 0 0 0 0 0 0 0 0 0 0 0 0.25 0"/><feBlend in2="BackgroundImageFix" result="effect1_dropShadow_1_866"/><feBlend in="SourceGraphic" in2="effect1_dropShadow_1_866" result="shape"/></filter><filter id="e" width="83.2" height="48.2" x="54.4" y="3.9" color-interpolation-filters="sRGB" filterUnits="userSpaceOnUse"><feFlood flood-opacity="0" result="BackgroundImageFix"/><feColorMatrix in="SourceAlpha" result="hardAlpha" values="0 0 0 0 0 0 0 0 0 0 0 0 0 0 0 0 0 0 127 0"/><feOffset/><feGaussianBlur stdDeviation="2.8"/><feComposite in2="hardAlpha" operator="out"/><feColorMatrix values="0 0 0 0 0 0 0 0 0 0 0 0 0 0 0 0 0 0 0.25 0"/><feBlend in2="BackgroundImageFix" result="effect1_dropShadow_1_866"/><feBlend in="SourceGraphic" in2="effect1_dropShadow_1_866" result="shape"/></filter><linearGradient id="b" x1="72" x2="72" y1="0" y2="56" gradientUnits="userSpaceOnUse"><stop stop-color="#152a2d"/><stop offset="1" stop-color="#102022"/></linearGradient></defs></svg>