<svg xmlns="http://www.w3.org/2000/svg" width="144" height="56" fill="none" viewBox="0 0 144 56"><g clip-path="url(#a)"><rect width="144" height="56" fill="url(#b)" rx="8"/><g stroke-width=".357" filter="url(#c)"><path fill="#4e7896" stroke="#4e7896" d="M46.834 45.289v-.001l.001-.001zm0 0 .344.08c-.08 1.017-.95 1.79-2.223 2.374-1.283.59-3.037 1.018-5.01 1.314-3.947.593-8.818.665-12.67.414l-.166-.011v-.002c-2.435-.148-3.914-.427-4.79-.676a5.6 5.6 0 0 1-.926-.337 2 2 0 0 1-.2-.111l-.05-.035-.014-.011-.005-.004h-.002v-.002l-.483-.415.628.103c4.749.781 12.84.925 19.367-.286l.523-.101c2.54-.51 3.963-1.084 4.75-1.532.418-.24.655-.442.785-.579a1 1 0 0 0 .142-.183Zm-25.378-2.625c.408.012.775.083 1.024.257l.464.325h-.585l-.064.003q-.088.004-.264.022a9 9 0 0 0-1.039.185l-.012.003v-.001c-.44.069-1.36.332-1.98.653-.154.08-.284.16-.38.239a.54.54 0 0 0-.17.195c-.014.034-.014.06.013.096a.5.5 0 0 0 .18.138l.116.056c1.04.453 2.768.773 4.869.972 2.095.199 4.54.275 7.005.248 4.935-.053 9.912-.519 12.27-1.227.63-.193 1.01-.395 1.23-.578.218-.18.275-.337.281-.45a.53.53 0 0 0-.104-.32 1 1 0 0 0-.11-.128l-.006-.005.047-.057.056-.259h.075l.049.04c.53.25.868.565.876.963.004.203-.082.394-.22.567-.14.174-.34.34-.589.5-.99.633-2.89 1.24-5.434 1.692-4.94.879-12.394 1.191-20.605-.062l-.797-.126c-.78-.126-1.338-.294-1.702-.499s-.572-.47-.556-.794c.014-.301.225-.58.502-.823.285-.248.675-.488 1.118-.706a12.3 12.3 0 0 1 3.036-.99 7 7 0 0 1 1.406-.13Zm4.91-3.138-.542.331-.002.001-.01.007-.042.028a2 2 0 0 0-.132.106c-.106.094-.186.196-.204.28a.13.13 0 0 0 .012.095.4.4 0 0 0 .162.142c.204.115.593.228 1.28.3h.005c3.322.425 5.084.356 8.767-.356l.069-.013.06.036c.733.452 1.508.83 2.316 1.13l.418.155-.41.176c-4.203 1.807-8.959 1.754-11.848 1.012-.724-.186-1.337-.418-1.8-.678-.454-.256-.793-.558-.913-.901a.8.8 0 0 1 .002-.544q.1-.267.368-.494c.351-.3.932-.57 1.759-.806l.024-.007zm15.692-9.73c2.51-.756 4.767.596 5.072 2.582.157 1.024-.218 2.18-1.299 3.247-1.079 1.064-2.864 2.046-5.55 2.748l-.634.166.462-.465.003-.004.024-.03a1 1 0 0 0 .082-.134l.05-.099h.068c3.942-2.062 4.899-4.036 4.672-5.364-.23-1.345-1.688-2.17-2.884-1.94a6 6 0 0 0-.68.192 3 3 0 0 0-.158.06l-.036.016-.007.004-.002.001-.476.239.237-.478.16.08-.16-.081.001-.001.004-.008a1 1 0 0 1 .047-.078 1.4 1.4 0 0 1 .76-.573zm-15.397.31.001.003.139.28-.293-.021-.05.013q-.084.02-.236.06a29 29 0 0 0-.806.218c-.647.184-1.454.434-2.102.703a5 5 0 0 0-.8.403 1.2 1.2 0 0 0-.219.178c-.048.054-.058.088-.06.103 0 .006-.002.021.027.053a.7.7 0 0 0 .222.135c.242.103.646.2 1.264.28h.001c2.115.283 6.295.212 10.208-.073a79 79 0 0 0 4.395-.534 89 89 0 0 0 1.854-.296l.107-.018.027-.005.007-.001h.002l.103.339-.003.002-.01.003-.037.017-.137.063c-.118.054-.284.132-.474.225-.38.187-.853.434-1.236.679l-.025.015-.027.007c-3.974 1.045-9.759 1.33-14.004 1.088-2.118-.12-3.877-.374-4.84-.742a2.2 2.2 0 0 1-.592-.313c-.146-.118-.258-.267-.27-.452s.082-.352.226-.495q.219-.215.64-.42l.001-.002a16.3 16.3 0 0 1 4.821-1.473 13 13 0 0 1 1.477-.123 8 8 0 0 1 .406 0l.107.003.123-.029zm-1.817 5.076-.094.032-.038.033a2 2 0 0 0-.15.145c-.118.126-.229.278-.266.421a.3.3 0 0 0 0 .183.4.4 0 0 0 .146.183c.184.137.552.272 1.237.343 3.616.357 6.445.428 11.336-.568l.094-.02.069.07a4.16 4.16 0 0 0 1.637 1.028l.53.18-.536.16c-5.044 1.51-10.393 1.584-13.59.97-.799-.153-1.471-.35-1.974-.584-.492-.23-.862-.512-.988-.858-.138-.378.038-.745.425-1.068.381-.319 1.006-.633 1.893-.936l.269-.204z"/><path fill="#f58219" stroke="#f58219" d="M40.994 15.528c-2.31 1.34-3.928 2.437-5.022 3.38-1.096.943-1.651 1.717-1.863 2.404-.21.677-.093 1.296.22 1.955.318.667.825 1.35 1.382 2.163.633.88.771 1.732.607 2.512-.163.771-.617 1.455-1.136 2.017a9 9 0 0 1-1.577 1.33 10 10 0 0 1-.74.454l-.046.025-.016.008-.196-.296v-.001l.006-.004q.005-.006.02-.017l.074-.068a4.1 4.1 0 0 0 .91-1.218c.19-.396.316-.854.276-1.348-.04-.49-.245-1.033-.738-1.597l-.001-.001c-1.769-2.05-2.197-3.853-1.79-5.406.402-1.54 1.614-2.786 3.015-3.757 1.405-.974 3.026-1.69 4.291-2.16a26 26 0 0 1 2.025-.659l.122-.033.032-.008.008-.002h.003zM35.68 6.447v.001l.005.003.01.012.039.043c.032.038.079.093.133.164.11.143.253.355.398.63.29.548.582 1.351.596 2.373.027 2.052-1.066 4.925-5.397 8.344-1.712 1.367-2.647 2.574-3.077 3.66-.428 1.08-.362 2.057-.04 2.985.325.936.909 1.819 1.522 2.704.608.878 1.248 1.763 1.648 2.677l-.282.205c-2.028-1.823-3.79-3.558-4.793-5.22-.503-.834-.822-1.66-.881-2.478a3.7 3.7 0 0 1 .482-2.114l.18-.294c.745-1.133 1.812-2.113 2.951-3.05 1.147-.944 2.357-1.836 3.429-2.82 1.068-.98 1.977-2.032 2.511-3.266.533-1.23.701-2.654.265-4.392l-.16-.638z"/></g><g filter="url(#d)"><path fill="#e8e8e8" d="M61.278 24.5V12.864h4.262q1.239 0 2.05.409.814.403 1.217 1.096.403.688.403 1.552 0 .726-.267 1.227a2.2 2.2 0 0 1-.716.795q-.442.296-.977.432v.114a2.3 2.3 0 0 1 1.13.375q.558.34.921.971.364.63.364 1.534 0 .893-.42 1.603-.415.704-1.285 1.119-.87.41-2.221.409zm1.756-1.506h2.534q1.261 0 1.807-.488.546-.489.546-1.222 0-.55-.279-1.011a2 2 0 0 0-.795-.733q-.512-.273-1.216-.273h-2.597zm0-5.096h2.352q.592 0 1.063-.227a1.86 1.86 0 0 0 .755-.637q.285-.414.285-.977 0-.722-.506-1.21-.506-.489-1.551-.489h-2.398zM77.14 20.88v-5.108h1.705V24.5h-1.67v-1.511h-.092q-.3.698-.965 1.164-.66.46-1.643.46-.84 0-1.488-.369-.642-.375-1.012-1.108-.363-.732-.363-1.812v-5.551h1.699v5.346q0 .893.494 1.42.494.53 1.284.53.478 0 .949-.24.477-.239.79-.721.318-.483.312-1.227m3.987 3.619v-8.727h1.7V24.5zm.858-10.074a1.08 1.08 0 0 1-.761-.295.96.96 0 0 1-.312-.716q0-.421.312-.716.318-.3.761-.301.444 0 .756.3a.94.94 0 0 1 .318.717.95.95 0 0 1-.318.716 1.06 1.06 0 0 1-.756.295m4.826-1.562V24.5h-1.7V12.864zm6.359 2.909v1.363h-4.767v-1.363zm-3.489-2.091h1.7v8.256q0 .493.147.744a.77.77 0 0 0 .38.335q.24.085.518.085.204 0 .358-.028l.238-.046.307 1.404a3 3 0 0 1-.42.114q-.274.062-.682.068a3 3 0 0 1-1.25-.239 2.15 2.15 0 0 1-.938-.773q-.357-.523-.358-1.312zM101.175 24.5l-2.568-8.727h1.755l1.71 6.409h.086l1.716-6.41h1.755l1.705 6.381h.085l1.699-6.38h1.756l-2.563 8.727h-1.733l-1.773-6.301h-.13l-1.773 6.301zm11.311 0v-8.727h1.699V24.5zm.858-10.074a1.08 1.08 0 0 1-.762-.295.96.96 0 0 1-.312-.716.95.95 0 0 1 .312-.716q.318-.3.762-.301.443 0 .755.3a.94.94 0 0 1 .319.717.95.95 0 0 1-.319.716q-.312.295-.755.295m7.2 1.347v1.363h-4.767v-1.363zm-3.489-2.091h1.699v8.256q0 .493.148.744a.77.77 0 0 0 .381.335q.238.085.517.085a2 2 0 0 0 .358-.028l.238-.046.307 1.404a3 3 0 0 1-.42.114 3.3 3.3 0 0 1-.682.068 3 3 0 0 1-1.25-.239 2.14 2.14 0 0 1-.938-.773q-.358-.523-.358-1.312zm7.255 5.636V24.5h-1.699V12.864h1.676v4.33h.108q.306-.706.937-1.12t1.648-.415q.898 0 1.568.37.677.369 1.046 1.102.375.727.375 1.818V24.5h-1.699v-5.347q0-.96-.494-1.488-.495-.534-1.375-.534a2.25 2.25 0 0 0-1.08.255q-.471.255-.744.75-.267.489-.267 1.182"/><path fill="#f58219" d="M65.958 31.136h2.947v8.549q-.007 1.2-.574 2.1a3.8 3.8 0 0 1-1.57 1.389q-.996.495-2.306.495-1.16 0-2.107-.404a3.34 3.34 0 0 1-1.503-1.256q-.555-.852-.55-2.18h2.977q.018.478.181.816.17.331.465.5a1.4 1.4 0 0 0 .706.17q.43 0 .725-.181.295-.187.447-.55.156-.361.162-.9zm7.436 12.521q-.886 0-1.575-.296a2.45 2.45 0 0 1-1.08-.905q-.393-.61-.393-1.528 0-.773.272-1.304.27-.531.748-.863a3.5 3.5 0 0 1 1.099-.501 7 7 0 0 1 1.328-.235q.79-.074 1.274-.151.483-.085.7-.236a.51.51 0 0 0 .223-.44v-.03q0-.465-.32-.72-.319-.252-.863-.253-.585 0-.942.254a1.12 1.12 0 0 0-.453.7l-2.722-.096a3.2 3.2 0 0 1 .622-1.51q.506-.67 1.388-1.05.888-.387 2.131-.387.888 0 1.636.212.75.205 1.304.604.555.392.858.965.307.575.307 1.31V43.5H76.16v-1.292h-.072q-.247.471-.634.797-.38.326-.9.489a3.8 3.8 0 0 1-1.159.163m.912-1.932q.477 0 .857-.193.387-.194.616-.531.23-.344.23-.797v-.882a2 2 0 0 1-.308.121 5 5 0 0 1-.387.103q-.211.048-.434.084-.224.036-.43.067a2.7 2.7 0 0 0-.712.205 1.1 1.1 0 0 0-.446.362.9.9 0 0 0-.151.52q0 .458.326.7.331.24.839.241m15.098-7.498L86.223 43.5h-3.38l-3.176-9.273h3.109l1.708 6.387h.097l1.714-6.387zm3.497 9.43q-.887 0-1.575-.296a2.45 2.45 0 0 1-1.081-.905q-.392-.61-.392-1.528 0-.773.271-1.304t.749-.863a3.5 3.5 0 0 1 1.099-.501 7 7 0 0 1 1.328-.235q.79-.074 1.273-.151.484-.085.7-.236a.51.51 0 0 0 .224-.44v-.03q0-.465-.32-.72-.319-.252-.863-.253-.585 0-.942.254a1.12 1.12 0 0 0-.453.7l-2.722-.096a3.2 3.2 0 0 1 .621-1.51q.508-.67 1.389-1.05.888-.387 2.131-.387.888 0 1.636.212.75.205 1.304.604.555.392.857.965.309.575.308 1.31V43.5h-2.777v-1.292h-.072q-.248.471-.634.797-.38.326-.9.489a3.8 3.8 0 0 1-1.159.163m.912-1.932q.476 0 .857-.193.387-.194.616-.531.23-.344.23-.797v-.882a2 2 0 0 1-.309.121 5 5 0 0 1-.386.103 7 7 0 0 1-.435.084q-.223.036-.428.067a2.7 2.7 0 0 0-.713.205 1.1 1.1 0 0 0-.446.362.9.9 0 0 0-.151.52q0 .458.326.7.331.24.839.241m10.063 1.775v-2.15l4.51-3.947q.507-.459.863-.84a3.2 3.2 0 0 0 .544-.772q.186-.392.187-.851 0-.514-.224-.876a1.5 1.5 0 0 0-.615-.567 1.96 1.96 0 0 0-.9-.2q-.513 0-.899.212a1.46 1.46 0 0 0-.604.597q-.211.393-.211.954h-2.832q0-1.26.568-2.179a3.73 3.73 0 0 1 1.594-1.413q1.032-.5 2.396-.5 1.407 0 2.445.47 1.038.471 1.606 1.316.573.84.573 1.95 0 .707-.283 1.4-.284.696-1.021 1.534-.73.84-2.076 2.01l-1.479 1.365v.078h5.01V43.5zm15.574.169q-1.351 0-2.403-.489-1.05-.49-1.66-1.346-.603-.858-.628-1.968h2.898q.036.681.556 1.099.519.41 1.237.41.561 0 .996-.248.435-.247.682-.694.248-.453.242-1.038a2.04 2.04 0 0 0-.248-1.045 1.76 1.76 0 0 0-.688-.694 1.95 1.95 0 0 0-1.002-.253 2.2 2.2 0 0 0-1.02.235q-.477.241-.725.658l-2.638-.495.538-6.665h7.932v2.41h-5.475l-.284 2.915h.072q.309-.513.99-.845.688-.339 1.564-.338 1.11 0 1.98.519a3.66 3.66 0 0 1 1.376 1.425q.508.911.508 2.088 0 1.275-.604 2.258a4.16 4.16 0 0 1-1.678 1.546q-1.075.555-2.518.555"/></g></g><rect width="141.9" height="53.9" x="1.05" y="1.05" stroke="#fff" stroke-opacity=".15" stroke-width="2.1" rx="6.95"/><defs><filter id="c" width="51.429" height="55.835" x="6.286" y="-.335" color-interpolation-filters="sRGB" filterUnits="userSpaceOnUse"><feFlood flood-opacity="0" result="BackgroundImageFix"/><feColorMatrix in="SourceAlpha" result="hardAlpha" values="0 0 0 0 0 0 0 0 0 0 0 0 0 0 0 0 0 0 127 0"/><feOffset/><feGaussianBlur stdDeviation="2.857"/><feComposite in2="hardAlpha" operator="out"/><feColorMatrix values="0 0 0 0 0 0 0 0 0 0 0 0 0 0 0 0 0 0 0.25 0"/><feBlend in2="BackgroundImageFix" result="effect1_dropShadow_56_130"/><feBlend in="SourceGraphic" in2="effect1_dropShadow_56_130" result="shape"/></filter><filter id="d" width="83.2" height="48.2" x="54.4" y="3.9" color-interpolation-filters="sRGB" filterUnits="userSpaceOnUse"><feFlood flood-opacity="0" result="BackgroundImageFix"/><feColorMatrix in="SourceAlpha" result="hardAlpha" values="0 0 0 0 0 0 0 0 0 0 0 0 0 0 0 0 0 0 127 0"/><feOffset/><feGaussianBlur stdDeviation="2.8"/><feComposite in2="hardAlpha" operator="out"/><feColorMatrix values="0 0 0 0 0 0 0 0 0 0 0 0 0 0 0 0 0 0 0.25 0"/><feBlend in2="BackgroundImageFix" result="effect1_dropShadow_56_130"/><feBlend in="SourceGraphic" in2="effect1_dropShadow_56_130" result="shape"/></filter><linearGradient id="b" x1="72" x2="72" y1="0" y2="56" gradientUnits="userSpaceOnUse"><stop stop-color="#2f1a07"/><stop offset="1" stop-color="#111a21"/></linearGradient><clipPath id="a"><rect width="144" height="56" fill="#fff" rx="8"/></clipPath></defs></svg>