<svg xmlns="http://www.w3.org/2000/svg" width="163" height="56" fill="none" viewBox="0 0 163 56"><rect width="163" height="56" fill="url(#a)" rx="8"/><rect width="160.9" height="53.9" x="1.05" y="1.05" stroke="#fff" stroke-opacity=".15" stroke-width="2.1" rx="6.95"/><g filter="url(#b)"><path fill="#f7df1e" d="M12 8h40v40H12zm36.724 30.46c-.292-1.825-1.48-3.358-5.005-4.788-1.227-.575-2.59-.975-2.995-1.9-.152-.55-.175-.85-.077-1.175.25-1.077 1.525-1.4 2.525-1.1.65.2 1.25.7 1.627 1.5 1.723-1.127 1.723-1.127 2.925-1.875-.45-.7-.674-1.002-.977-1.3-1.05-1.175-2.448-1.775-4.723-1.724l-1.175.149c-1.127.275-2.2.875-2.85 1.675-1.9 2.151-1.352 5.901.948 7.451 2.275 1.7 5.602 2.074 6.027 3.675.4 1.95-1.45 2.575-3.277 2.35-1.352-.3-2.1-.976-2.925-2.226l-3.05 1.751c.35.8.75 1.149 1.35 1.849 2.9 2.926 10.15 2.776 11.452-1.674.048-.15.4-1.175.123-2.75zM33.752 26.385h-3.747c0 3.23-.015 6.44-.015 9.675 0 2.053.105 3.938-.23 4.518-.55 1.149-1.966 1.002-2.61.8-.66-.326-.995-.776-1.383-1.425-.105-.175-.183-.326-.212-.326l-3.041 1.875c.508 1.05 1.25 1.953 2.206 2.528 1.425.85 3.34 1.125 5.345.675 1.305-.377 2.43-1.152 3.019-2.352.85-1.55.67-3.45.661-5.576.02-3.424 0-6.849 0-10.299z"/></g><g filter="url(#c)"><path fill="#e8e8e8" d="M61.278 24.5V12.864h4.262q1.239 0 2.05.409.814.403 1.217 1.096.403.688.403 1.552 0 .726-.267 1.227a2.2 2.2 0 0 1-.716.795q-.442.296-.977.432v.114a2.3 2.3 0 0 1 1.13.375q.558.34.921.971.364.63.364 1.534 0 .893-.42 1.603-.415.704-1.285 1.119-.87.41-2.221.409zm1.756-1.506h2.534q1.261 0 1.807-.488.546-.489.546-1.222 0-.55-.279-1.011a2 2 0 0 0-.795-.733q-.512-.273-1.216-.273h-2.597zm0-5.096h2.352q.592 0 1.063-.227a1.86 1.86 0 0 0 .755-.637q.285-.414.285-.977 0-.722-.506-1.21-.506-.489-1.551-.489h-2.398zM77.14 20.88v-5.108h1.705V24.5h-1.67v-1.511h-.092q-.3.698-.965 1.164-.66.46-1.643.46-.84 0-1.488-.369-.642-.375-1.012-1.108-.363-.732-.363-1.812v-5.551h1.699v5.346q0 .893.494 1.42.494.53 1.284.53.478 0 .949-.24.477-.239.79-.721.318-.483.312-1.227m3.987 3.619v-8.727h1.7V24.5zm.858-10.074a1.08 1.08 0 0 1-.761-.295.96.96 0 0 1-.312-.716q0-.421.312-.716.318-.3.761-.301.444 0 .756.3a.94.94 0 0 1 .318.717.95.95 0 0 1-.318.716 1.06 1.06 0 0 1-.756.295m4.826-1.562V24.5h-1.7V12.864zm6.359 2.909v1.363h-4.767v-1.363zm-3.489-2.091h1.7v8.256q0 .493.147.744a.77.77 0 0 0 .38.335q.24.085.518.085.204 0 .358-.028l.238-.046.307 1.404a3 3 0 0 1-.42.114q-.274.062-.682.068a3 3 0 0 1-1.25-.239 2.15 2.15 0 0 1-.938-.773q-.357-.523-.358-1.312zM101.175 24.5l-2.568-8.727h1.755l1.71 6.409h.086l1.716-6.41h1.755l1.705 6.381h.085l1.699-6.38h1.756l-2.563 8.727h-1.733l-1.773-6.301h-.13l-1.773 6.301zm11.311 0v-8.727h1.699V24.5zm.858-10.074a1.08 1.08 0 0 1-.762-.295.96.96 0 0 1-.312-.716.95.95 0 0 1 .312-.716q.318-.3.762-.301.443 0 .755.3a.94.94 0 0 1 .319.717.95.95 0 0 1-.319.716q-.312.295-.755.295m7.2 1.347v1.363h-4.767v-1.363zm-3.489-2.091h1.699v8.256q0 .493.148.744a.77.77 0 0 0 .381.335q.238.085.517.085a2 2 0 0 0 .358-.028l.238-.046.307 1.404a3 3 0 0 1-.42.114 3.3 3.3 0 0 1-.682.068 3 3 0 0 1-1.25-.239 2.14 2.14 0 0 1-.938-.773q-.358-.523-.358-1.312zm7.255 5.636V24.5h-1.699V12.864h1.676v4.33h.108q.306-.706.937-1.12t1.648-.415q.898 0 1.568.37.677.369 1.046 1.102.375.727.375 1.818V24.5h-1.699v-5.347q0-.96-.494-1.488-.495-.534-1.375-.534a2.25 2.25 0 0 0-1.08.255q-.471.255-.744.75-.267.489-.267 1.182"/><path fill="#f7df1e" d="M65.958 31.136h2.947v8.549q-.007 1.2-.574 2.1a3.8 3.8 0 0 1-1.57 1.389q-.996.495-2.306.495-1.16 0-2.107-.404a3.34 3.34 0 0 1-1.503-1.256q-.555-.852-.55-2.18h2.977q.018.478.181.816.17.331.465.5a1.4 1.4 0 0 0 .706.17q.43 0 .725-.181.295-.187.447-.55.156-.361.162-.9zm7.436 12.521q-.886 0-1.575-.296a2.45 2.45 0 0 1-1.08-.905q-.393-.61-.393-1.528 0-.773.272-1.304.27-.531.748-.863a3.5 3.5 0 0 1 1.099-.501 7 7 0 0 1 1.328-.235q.79-.074 1.274-.151.483-.085.7-.236a.51.51 0 0 0 .223-.44v-.03q0-.465-.32-.72-.319-.252-.863-.253-.585 0-.942.254a1.12 1.12 0 0 0-.453.7l-2.722-.096a3.2 3.2 0 0 1 .622-1.51q.506-.67 1.388-1.05.888-.387 2.131-.387.888 0 1.636.212.75.205 1.304.604.555.392.858.965.307.575.307 1.31V43.5H76.16v-1.292h-.072q-.247.471-.634.797-.38.326-.9.489a3.8 3.8 0 0 1-1.159.163m.912-1.932q.477 0 .857-.193.387-.194.616-.531.23-.344.23-.797v-.882a2 2 0 0 1-.308.121 5 5 0 0 1-.387.103q-.211.048-.434.084-.224.036-.43.067a2.7 2.7 0 0 0-.712.205 1.1 1.1 0 0 0-.446.362.9.9 0 0 0-.151.52q0 .458.326.7.331.24.839.241m15.098-7.498L86.223 43.5h-3.38l-3.176-9.273h3.109l1.708 6.387h.097l1.714-6.387zm3.497 9.43q-.887 0-1.575-.296a2.45 2.45 0 0 1-1.081-.905q-.392-.61-.392-1.528 0-.773.271-1.304t.749-.863a3.5 3.5 0 0 1 1.099-.501 7 7 0 0 1 1.328-.235q.79-.074 1.273-.151.484-.085.7-.236a.51.51 0 0 0 .224-.44v-.03q0-.465-.32-.72-.319-.252-.863-.253-.585 0-.942.254a1.12 1.12 0 0 0-.453.7l-2.722-.096a3.2 3.2 0 0 1 .621-1.51q.508-.67 1.389-1.05.888-.387 2.131-.387.888 0 1.636.212.75.205 1.304.604.555.392.857.965.309.575.308 1.31V43.5h-2.777v-1.292h-.072q-.248.471-.634.797-.38.326-.9.489a3.8 3.8 0 0 1-1.159.163m.912-1.932q.476 0 .857-.193.387-.194.616-.531.23-.344.23-.797v-.882a2 2 0 0 1-.309.121 5 5 0 0 1-.386.103 7 7 0 0 1-.435.084q-.223.036-.428.067a2.7 2.7 0 0 0-.713.205 1.1 1.1 0 0 0-.446.362.9.9 0 0 0-.151.52q0 .458.326.7.331.24.839.241m13.118-6.882q-.06-.665-.537-1.032-.471-.375-1.346-.375-.58 0-.966.151-.387.151-.58.417a1 1 0 0 0-.199.598.9.9 0 0 0 .109.489q.126.21.362.374.242.157.579.277.338.122.761.212l1.062.241q.919.2 1.618.532.707.331 1.184.79.483.459.73 1.057.248.597.254 1.34-.006 1.17-.592 2.01-.585.84-1.684 1.286-1.093.447-2.638.447-1.552 0-2.705-.465-1.153-.464-1.793-1.413-.64-.947-.658-2.396h2.862q.036.597.319.996.285.399.779.604.501.204 1.159.205.604 0 1.027-.163.428-.163.658-.453t.235-.664a.9.9 0 0 0-.217-.598q-.211-.254-.652-.434-.435-.188-1.111-.344l-1.292-.302q-1.606-.369-2.529-1.19-.924-.825-.918-2.233-.006-1.148.616-2.01.621-.864 1.72-1.347 1.1-.483 2.506-.483 1.436 0 2.493.49 1.063.482 1.648 1.358.586.875.598 2.028zm8.868 8.832q-1.467 0-2.517-.604a4.1 4.1 0 0 1-1.606-1.678q-.561-1.08-.561-2.5 0-1.424.561-2.498a4.1 4.1 0 0 1 1.612-1.685q1.05-.603 2.505-.604 1.287 0 2.24.465a3.56 3.56 0 0 1 1.497 1.316q.543.846.574 1.987h-2.759q-.086-.713-.483-1.117-.393-.405-1.026-.405-.514 0-.9.29-.387.284-.604.845-.21.556-.211 1.377 0 .82.211 1.388.217.561.604.851.386.285.9.284.41 0 .724-.175.32-.175.525-.513.206-.344.26-.833h2.759q-.043 1.146-.574 2.004a3.55 3.55 0 0 1-1.479 1.334q-.948.471-2.252.471m5.815-.175v-9.273h2.868v1.69h.097q.253-.917.827-1.364a2.1 2.1 0 0 1 1.334-.453q.205 0 .422.03.218.025.405.08v2.565a3 3 0 0 0-.556-.115 5 5 0 0 0-.603-.042q-.525 0-.948.235a1.7 1.7 0 0 0-.658.646 1.9 1.9 0 0 0-.236.966V43.5zm7.156 0v-9.273h2.952V43.5zm1.479-10.353q-.622 0-1.069-.41a1.32 1.32 0 0 1-.447-1.003q0-.579.447-.99a1.5 1.5 0 0 1 1.069-.417q.627 0 1.068.417.447.411.447.99 0 .585-.447 1.002a1.5 1.5 0 0 1-1.068.41m3.352 13.83v-12.75h2.922v1.588h.09q.182-.422.513-.815.338-.393.858-.64.525-.254 1.255-.254.966 0 1.805.508.846.507 1.365 1.563t.519 2.693q0 1.575-.501 2.638-.495 1.063-1.34 1.594a3.4 3.4 0 0 1-1.866.53q-.7 0-1.213-.229a2.7 2.7 0 0 1-.864-.603 2.9 2.9 0 0 1-.531-.803h-.06v4.98zm2.891-8.113q0 .748.2 1.304.205.555.585.863.387.302.924.302.543 0 .924-.302.38-.308.573-.863.2-.555.199-1.304 0-.75-.199-1.298-.194-.55-.573-.852-.375-.3-.924-.301-.543 0-.924.295-.38.297-.585.846-.2.548-.2 1.31m13.217-4.637V36.4h-5.85v-2.174zm-4.625-2.221h2.953v8.578q0 .272.084.44.09.165.26.236a1.1 1.1 0 0 0 .404.067q.17 0 .356-.03.194-.038.29-.06l.447 2.13q-.211.06-.598.151-.38.09-.911.115-1.039.048-1.781-.242a2.3 2.3 0 0 1-1.129-.917q-.387-.622-.375-1.564z"/></g><defs><filter id="b" width="51.429" height="51.429" x="6.286" y="2.286" color-interpolation-filters="sRGB" filterUnits="userSpaceOnUse"><feFlood flood-opacity="0" result="BackgroundImageFix"/><feColorMatrix in="SourceAlpha" result="hardAlpha" values="0 0 0 0 0 0 0 0 0 0 0 0 0 0 0 0 0 0 127 0"/><feOffset/><feGaussianBlur stdDeviation="2.857"/><feComposite in2="hardAlpha" operator="out"/><feColorMatrix values="0 0 0 0 0 0 0 0 0 0 0 0 0 0 0 0 0 0 0.25 0"/><feBlend in2="BackgroundImageFix" result="effect1_dropShadow_2_848"/><feBlend in="SourceGraphic" in2="effect1_dropShadow_2_848" result="shape"/></filter><filter id="c" width="102.2" height="48.677" x="54.4" y="3.9" color-interpolation-filters="sRGB" filterUnits="userSpaceOnUse"><feFlood flood-opacity="0" result="BackgroundImageFix"/><feColorMatrix in="SourceAlpha" result="hardAlpha" values="0 0 0 0 0 0 0 0 0 0 0 0 0 0 0 0 0 0 127 0"/><feOffset/><feGaussianBlur stdDeviation="2.8"/><feComposite in2="hardAlpha" operator="out"/><feColorMatrix values="0 0 0 0 0 0 0 0 0 0 0 0 0 0 0 0 0 0 0.25 0"/><feBlend in2="BackgroundImageFix" result="effect1_dropShadow_2_848"/><feBlend in="SourceGraphic" in2="effect1_dropShadow_2_848" result="shape"/></filter><linearGradient id="a" x1="81.5" x2="81.5" y1="0" y2="56" gradientUnits="userSpaceOnUse"><stop stop-color="#35300a"/><stop offset="1" stop-color="#232004"/></linearGradient></defs></svg>