<svg xmlns="http://www.w3.org/2000/svg" width="144" height="56" fill="none" viewBox="0 0 144 56"><rect width="144" height="56" fill="url(#a)" rx="8"/><rect width="141.9" height="53.9" x="1.05" y="1.05" stroke="#fff" stroke-opacity=".15" stroke-width="2.1" rx="6.95"/><g filter="url(#b)"><path fill="red" d="M16.704 44.756a5.7 5.7 0 0 1-1.647-1.073c-2.03-1.89-2.25-4.89-.618-6.875l-.022-.021.316-.304 24.995-24.58c.373-.364.74-1.45.902-2.075a.8.8 0 0 1 .182-.388l.03-.031.022-.02.005-.012.029-.024c.394-.399 1.094-.384 2.068.033 1.174.504 2.647 1.544 4.048 2.85 1.174 1.1 2.172 2.27 2.79 3.285.734 1.189.869 2.032.39 2.498l-.086.051-.038.013a1.4 1.4 0 0 1-.378.158c-.739.21-1.85.635-2.131.923L22.273 44.11l-.024-.022c-1.53 1.187-3.638 1.466-5.536.66l-.01-.005zm-1.2-7.738-.07.067c-1.625 1.636-1.517 4.318.256 5.974a4.6 4.6 0 0 0 1.352.879c1.694.726 3.605.409 4.874-.825l.09-.08L46.88 18.551c.529-.53 2.183-1.046 2.51-1.138l.04-.015c.03-.015.045-.01.055-.034.043-.099.084-.489-.518-1.475-.582-.95-1.507-2.045-2.615-3.074-1.284-1.188-2.705-2.208-3.752-2.657-.681-.292-.973-.257-1.04-.2l-.028.065c-.046.182-.472 1.808-1.126 2.46l-24.9 24.53zm23.715-12.189s-2.462 1.1-4.278 1.098c-1.815-.005-2.874-.663-4.58-.495-1.701.166-2.85.921-2.85.921L16.018 37.671c-1.272 1.289-1.15 3.49.26 4.814 1.415 1.324 3.644 1.33 4.952.071zM23.588 37.527c.21.01.392.169.39.371a.347.347 0 0 1-.369.355c-.212-.007-.393-.168-.39-.37-.006-.19.151-.354.369-.356m-.501-3.716c-.313-.002-.583-.25-.584-.551a.517.517 0 0 1 .548-.537c.318 0 .585.25.587.55.023.3-.207.52-.545.523zm1.27-1.585c-.012-.564.439-1.022 1.034-1.03.585.01 1.073.461 1.108 1.03a1.016 1.016 0 0 1-1.03 1.029c-.612-.018-1.097-.47-1.134-1.04zm5.822-1.89c.32-.007.585.25.59.544a.52.52 0 0 1-.548.54c-.32-.001-.589-.252-.588-.553-.022-.305.235-.548.548-.536zm-1.285-3.231c.212.01.394.169.39.371a.35.35 0 0 1-.369.359c-.21-.009-.394-.17-.39-.369a.36.36 0 0 1 .369-.361m13.683-15.67c.358-.354 1.847.477 3.322 1.863 1.473 1.378 2.377 2.786 2.02 3.14-.366.356-1.854-.477-3.326-1.856-1.483-1.384-2.386-2.791-2.02-3.151l.005.002z"/></g><g filter="url(#c)"><path fill="#e8e8e8" d="M61.278 24.5V12.864h4.262q1.239 0 2.05.409.814.403 1.217 1.096.403.688.403 1.552 0 .726-.267 1.227a2.2 2.2 0 0 1-.716.795q-.442.296-.977.432v.114a2.3 2.3 0 0 1 1.13.375q.558.34.921.971.364.63.364 1.534 0 .893-.42 1.603-.415.704-1.285 1.119-.87.41-2.221.409zm1.756-1.506h2.534q1.261 0 1.807-.488.546-.489.546-1.222 0-.55-.279-1.011a2 2 0 0 0-.795-.733q-.512-.273-1.216-.273h-2.597zm0-5.096h2.352q.592 0 1.063-.227a1.86 1.86 0 0 0 .755-.637q.285-.414.285-.977 0-.722-.506-1.21-.506-.489-1.551-.489h-2.398zM77.14 20.88v-5.108h1.705V24.5h-1.67v-1.511h-.092q-.3.698-.965 1.164-.66.46-1.643.46-.84 0-1.488-.369-.642-.375-1.012-1.108-.363-.732-.363-1.812v-5.551h1.699v5.346q0 .893.494 1.42.494.53 1.284.53.478 0 .949-.24.477-.239.79-.721.318-.483.312-1.227m3.987 3.619v-8.727h1.7V24.5zm.858-10.074a1.08 1.08 0 0 1-.761-.295.96.96 0 0 1-.312-.716q0-.421.312-.716.318-.3.761-.301.444 0 .756.3a.94.94 0 0 1 .318.717.95.95 0 0 1-.318.716 1.06 1.06 0 0 1-.756.295m4.826-1.562V24.5h-1.7V12.864zm6.359 2.909v1.363h-4.767v-1.363zm-3.489-2.091h1.7v8.256q0 .493.147.744a.77.77 0 0 0 .38.335q.24.085.518.085.204 0 .358-.028l.238-.046.307 1.404a3 3 0 0 1-.42.114q-.274.062-.682.068a3 3 0 0 1-1.25-.239 2.15 2.15 0 0 1-.938-.773q-.357-.523-.358-1.312zM101.175 24.5l-2.568-8.727h1.755l1.71 6.409h.086l1.716-6.41h1.755l1.705 6.381h.085l1.699-6.38h1.756l-2.563 8.727h-1.733l-1.773-6.301h-.13l-1.773 6.301zm11.311 0v-8.727h1.699V24.5zm.858-10.074a1.08 1.08 0 0 1-.762-.295.96.96 0 0 1-.312-.716.95.95 0 0 1 .312-.716q.318-.3.762-.301.443 0 .755.3a.94.94 0 0 1 .319.717.95.95 0 0 1-.319.716q-.312.295-.755.295m7.2 1.347v1.363h-4.767v-1.363zm-3.489-2.091h1.699v8.256q0 .493.148.744a.77.77 0 0 0 .381.335q.238.085.517.085a2 2 0 0 0 .358-.028l.238-.046.307 1.404a3 3 0 0 1-.42.114 3.3 3.3 0 0 1-.682.068 3 3 0 0 1-1.25-.239 2.14 2.14 0 0 1-.938-.773q-.358-.523-.358-1.312zm7.255 5.636V24.5h-1.699V12.864h1.676v4.33h.108q.306-.706.937-1.12t1.648-.415q.898 0 1.568.37.677.369 1.046 1.102.375.727.375 1.818V24.5h-1.699v-5.347q0-.96-.494-1.488-.495-.534-1.375-.534a2.25 2.25 0 0 0-1.08.255q-.471.255-.744.75-.267.489-.267 1.182"/><path fill="red" d="M65.958 31.136h2.947v8.549q-.007 1.2-.574 2.1a3.8 3.8 0 0 1-1.57 1.389q-.996.495-2.306.495-1.16 0-2.107-.404a3.34 3.34 0 0 1-1.503-1.256q-.555-.852-.55-2.18h2.977q.018.478.181.816.17.331.465.5a1.4 1.4 0 0 0 .706.17q.43 0 .725-.181.295-.187.447-.55.156-.361.162-.9zm9.157 12.54q-1.455 0-2.511-.574a3.97 3.97 0 0 1-1.618-1.648q-.562-1.075-.562-2.554 0-1.437.568-2.511.567-1.08 1.6-1.679 1.032-.603 2.432-.604.99 0 1.811.308.821.309 1.42.912.597.604.929 1.491.332.882.332 2.023v.736h-8.06v-1.715h5.313a1.66 1.66 0 0 0-.223-.839 1.5 1.5 0 0 0-.598-.573 1.7 1.7 0 0 0-.863-.211q-.495 0-.888.223a1.68 1.68 0 0 0-.863 1.449v1.745q0 .567.223.996.224.421.634.658.411.235.978.235.393 0 .713-.109.32-.108.549-.32a1.3 1.3 0 0 0 .344-.519l2.71.079a3.35 3.35 0 0 1-.742 1.587q-.567.67-1.491 1.045-.924.368-2.137.368m8.57-2.609.013-3.52h.41l2.608-3.32h3.345l-3.876 4.757h-.779zm-2.66 2.434V31.136h2.952V43.5zm5.759 0-2.427-3.852 1.944-2.094 3.894 5.946zm6.339 3.477q-.532 0-1.002-.084a4 4 0 0 1-.81-.212l.653-2.143q.434.145.784.17.357.023.61-.115.26-.133.398-.477l.115-.278-3.296-9.61h3.09l1.71 6.616h.096l1.733-6.617h3.109l-3.496 10.16a4.3 4.3 0 0 1-.718 1.34 3.1 3.1 0 0 1-1.19.918q-.724.332-1.786.332m11.274-15.84V43.5h-2.952V31.136zm4.831 0V43.5h-2.952V31.136z"/></g><defs><filter id="b" width="51.429" height="51.429" x="6.286" y="2.286" color-interpolation-filters="sRGB" filterUnits="userSpaceOnUse"><feFlood flood-opacity="0" result="BackgroundImageFix"/><feColorMatrix in="SourceAlpha" result="hardAlpha" values="0 0 0 0 0 0 0 0 0 0 0 0 0 0 0 0 0 0 127 0"/><feOffset/><feGaussianBlur stdDeviation="2.857"/><feComposite in2="hardAlpha" operator="out"/><feColorMatrix values="0 0 0 0 0 0 0 0 0 0 0 0 0 0 0 0 0 0 0.25 0"/><feBlend in2="BackgroundImageFix" result="effect1_dropShadow_40_80"/><feBlend in="SourceGraphic" in2="effect1_dropShadow_40_80" result="shape"/></filter><filter id="c" width="83.2" height="48.677" x="54.4" y="3.9" color-interpolation-filters="sRGB" filterUnits="userSpaceOnUse"><feFlood flood-opacity="0" result="BackgroundImageFix"/><feColorMatrix in="SourceAlpha" result="hardAlpha" values="0 0 0 0 0 0 0 0 0 0 0 0 0 0 0 0 0 0 127 0"/><feOffset/><feGaussianBlur stdDeviation="2.8"/><feComposite in2="hardAlpha" operator="out"/><feColorMatrix values="0 0 0 0 0 0 0 0 0 0 0 0 0 0 0 0 0 0 0.25 0"/><feBlend in2="BackgroundImageFix" result="effect1_dropShadow_40_80"/><feBlend in="SourceGraphic" in2="effect1_dropShadow_40_80" result="shape"/></filter><linearGradient id="a" x1="72" x2="72" y1="0" y2="56" gradientUnits="userSpaceOnUse"><stop stop-color="#360a0a"/><stop offset="1" stop-color="#1e0505"/></linearGradient></defs></svg>