<svg xmlns="http://www.w3.org/2000/svg" width="144" height="56" fill="none" viewBox="0 0 144 56"><rect width="144" height="56" fill="url(#a)" rx="8"/><rect width="141.9" height="53.9" x="1.05" y="1.05" stroke="#fff" stroke-opacity=".15" stroke-width="2.1" rx="6.95"/><g filter="url(#b)"><path fill="url(#c)" d="M47.363 9.323c-.733.298-2.02 1.242-3.587 2.653l.897 2.446a30 30 0 0 1 3.22-2.954c-.037.035-.082.061-.12.096-.334.266-1.347 1.136-2.946 2.927 1.27.114 3.245.133 4.867.088.851-2.515.092-3.825.092-3.825s-.915-2.047-2.423-1.431"/><path fill="#be202e" d="M41.14 25.898q-.01-.001 0 0c.025.003.05-.001.074.002q.162.002.314-.012c-.124.007-.255.004-.387.01"/><path fill="#be202e" d="M41.14 25.898q-.01-.001 0 0c.025.003.05-.001.074.002q.162.002.314-.012c-.124.007-.255.004-.387.01" opacity=".35"/><path fill="url(#d)" d="M40.182 19.782a117 117 0 0 1 1.427-1.847 53 53 0 0 1 3.057-3.522l-.898-2.438c-.104.097-.217.194-.33.299q-.628.574-1.305 1.238a91 91 0 0 0-1.57 1.587c-.493.517-1 1.064-1.509 1.627-.431.486-.864.979-1.3 1.488-.02.021-.03.036-.05.057l1.148 3.316c.449-.603.89-1.208 1.33-1.805"/><path fill="url(#e)" d="M30.34 36.204c-.291.537-.593 1.09-.89 1.658 0 .008-.01.014-.011.022-.045.082-.089.157-.125.24-.204.38-.377.726-.786 1.503.443.28.74.883 1.002 1.562a2.53 2.53 0 0 0-.582-1.856c2.308.428 4.4.135 5.673-1.39.11-.137.222-.282.327-.435-.56.515-1.175.686-2.267.469l-.008-.001.008.001c1.72-.482 2.63-1.053 3.51-2.078.209-.244.42-.511.636-.81-1.623 1.226-3.321 1.398-5.004.849l-1.315-.04c-.056.105-.111.202-.167.306"/><path fill="url(#f)" d="M31.36 33.449c.384-.67.778-1.344 1.173-2.028q.574-.978 1.173-1.963.602-.988 1.216-1.974.627-1.006 1.276-1.997c.424-.655.864-1.308 1.295-1.954.157-.235.313-.462.479-.696.27-.395.55-.79.83-1.184.01-.023.03-.044.042-.067l-1.133-3.305c-.03.035-.06.08-.098.114-.457.546-.924 1.1-1.376 1.67a65 65 0 0 0-1.366 1.768c-.378.509-.748 1.02-1.119 1.537-.072.103-.146.213-.218.315a43 43 0 0 0-3.044 5.114c-.164.33-.32.67-.475 1.001q-.538 1.177-.97 2.37l1.153 3.332c.29-.53.597-1.056.898-1.6.087-.149.175-.297.263-.453"/><path fill="url(#g)" d="M29.005 32.276a24 24 0 0 0-.853 2.915c-.005.032-.018.07-.023.101-.383-.856-1.62-1.816-1.614-1.807.764 1.504 1.298 2.96 1.208 4.304-.53.03-1.215-.219-1.984-.623.74.882 1.344 1.183 1.585 1.273-.786-.062-1.675.352-2.583.843 1.267-.312 2.267-.365 2.935-.11-1.546 2.89-3.14 6.103-4.763 9.52.351-.046.585-.246.742-.53.287-.618 2.218-4.683 5.076-9.975.08-.15.166-.298.247-.456.023-.044.045-.081.068-.127q.453-.827.937-1.699c.077-.134.145-.26.222-.394l.001-.008-1.153-3.333a.6.6 0 0 0-.048.106"/><path fill="url(#h)" d="M39.07 21.891c-.062.088-.115.169-.177.256-.178.265-.364.527-.544.8l-.607.902q-.157.229-.315.47c-.316.477-.634.97-.963 1.479a164 164 0 0 0-2.45 3.96c-.39.66-.793 1.334-1.2 2.04-.361.624-.727 1.271-1.102 1.933-.021.03-.035.068-.055.097a277 277 0 0 0-1.148 2.071l1.314.04c-.023-.012-.047-.015-.078-.027 1.579.028 3.802-.817 5.333-2.032.705-.56 1.37-1.237 2.015-2.054.482-.607.943-1.29 1.408-2.059.4-.666.803-1.397 1.198-2.193a5 5 0 0 1-1.273.24l-.248.013c-.083.004-.164.001-.255.004 1.526-.34 2.587-1.26 3.435-2.457a5.4 5.4 0 0 1-1.845.504c-.1.01-.207.011-.314.012-.024-.003-.05.002-.081-.003a6 6 0 0 0 1.397-.527c.089-.044.17-.096.252-.15.126-.078.245-.166.365-.253.075-.062.148-.116.223-.178q.255-.217.481-.486c.05-.058.098-.107.139-.166q.095-.128.176-.248a14 14 0 0 0 .877-1.402c.025-.053.056-.097.08-.15.07-.143.138-.27.187-.383q.11-.252.157-.404a1 1 0 0 1-.184.087c-.471.19-1.253.322-1.872.348l1.208.04-1.208-.04q-.012-.003-.025.004-.088-.002-.19.006c.01-.007.026-.005.035-.011l-4.13-.137c.003.033-.007.047-.016.054"/><path fill="url(#i)" d="M44.827 14.492a63 63 0 0 0-1.453 1.691c-.03.036-.06.064-.08.101-.46.554-.942 1.161-1.458 1.836-.446.58-.914 1.197-1.407 1.874-.43.582-.864 1.204-1.33 1.861l4.13.137c1.26-.37 1.86-.775 2.477-1.404q.246-.257.499-.548a24 24 0 0 0 1.487-1.871c.453-.627.864-1.252 1.185-1.818q.314-.547.515-1.003c.113-.265.207-.517.292-.762-1.613.039-3.587.02-4.857-.094"/><path fill="#be202e" d="M40.191 27.845c-.082.005-.164.001-.255.005.083-.005.166-.01.255-.005"/><path fill="#be202e" d="M40.191 27.845c-.082.005-.164.001-.255.005.083-.005.166-.01.255-.005" opacity=".35"/><path fill="url(#j)" d="M40.191 27.845c-.082.005-.164.001-.255.005.083-.005.166-.01.255-.005"/><path fill="#be202e" d="M41.133 25.897c.024.003.05-.001.082.004-.025-.004-.05 0-.082-.004"/><path fill="#be202e" d="M41.133 25.897c.024.003.05-.001.082.004-.025-.004-.05 0-.082-.004" opacity=".35"/><path fill="url(#k)" d="M41.133 25.897c.024.003.05-.001.082.004-.025-.004-.05 0-.082-.004"/><path fill="url(#l)" d="M18.507 8.443c-.254.645-.422 2.034-.457 3.886l2.157.932a25.6 25.6 0 0 1 .024-3.705c.005-.085.011-.134.011-.134 0 .045-.01.09-.011.134-.03.374-.08 1.546.116 3.65.855-.731 2.078-1.964 3.043-3.015-1.13-2.076-2.457-2.4-2.457-2.4s-1.905-.677-2.426.652"/><path fill="#be202e" d="M26.416 24.146q-.145.163-.296.318c.052-.05.106-.108.153-.163q.079-.077.143-.155"/><path fill="#be202e" d="M26.416 24.146q-.145.163-.296.318c.052-.05.106-.108.153-.163q.079-.077.143-.155" opacity=".35"/><path fill="#be202e" d="M25.581 22.516q-.009.006 0 0c.017-.013.03-.032.047-.045.064-.068.13-.136.184-.205-.072.082-.154.163-.231.25"/><path fill="#be202e" d="M25.581 22.516q-.009.006 0 0c.017-.013.03-.032.047-.045.064-.068.13-.136.184-.205-.072.082-.154.163-.231.25" opacity=".35"/><path fill="url(#m)" d="M20.975 19.376a101 101 0 0 1-.34-2.031 46 46 0 0 1-.265-2.043q-.009-.061-.011-.117a42 42 0 0 1-.162-1.925l-2.153-.926c0 .126-.005.256-.006.391q-.008.748.013 1.581.026.938.08 1.961c.037.628.086 1.283.144 1.948q.08.854.18 1.731l.007.066 2.883 1.308c-.121-.653-.248-1.301-.37-1.944"/><path fill="url(#n)" d="M25.728 35.636c.174.513.351 1.042.543 1.577.004.005.003.015.008.02.026.08.048.152.08.226.126.362.246.682.506 1.417.455-.11 1.034.073 1.64.324a2.34 2.34 0 0 0-1.575-.77c1.696-1.193 2.787-2.692 2.567-4.428a6 6 0 0 0-.087-.473c-.004.669-.27 1.162-1.082 1.717l-.005.005.005-.005c.738-1.379.923-2.303.789-3.486q-.048-.419-.143-.896c-.19 1.774-1.119 2.95-2.512 3.675l-.832.804z"/><path fill="url(#o)" d="m24.542 33.307-.612-1.982q-.29-.96-.57-1.941-.28-.985-.551-1.975a90 90 0 0 1-.53-2.028c-.17-.668-.33-1.346-.49-2.013-.058-.243-.11-.48-.163-.728-.094-.413-.181-.83-.27-1.248-.007-.021-.01-.047-.017-.068l-2.866-1.31c.005.04.015.087.014.132.079.623.156 1.256.253 1.89q.144.966.324 1.944c.103.55.211 1.096.324 1.647l.073.33a38 38 0 0 0 1.492 5.05c.117.306.245.613.367.914q.443 1.06.962 2.062l2.897 1.314c-.17-.508-.328-1.024-.5-1.547z"/><path fill="url(#p)" d="M22.327 34.073c.42.808.881 1.585 1.392 2.323.018.022.035.054.053.076-.798-.282-2.188-.09-2.178-.089 1.457.44 2.74.994 3.569 1.874-.305.352-.889.632-1.626.87 1.034.073 1.602-.123 1.809-.22-.523.458-.797 1.272-1.031 2.145.572-.99 1.151-1.653 1.728-1.92.95 2.746 2.084 5.718 3.334 8.835.184-.25.197-.52.107-.793-.23-.56-1.717-4.266-3.441-9.309-.05-.141-.094-.287-.148-.434-.015-.042-.026-.079-.042-.12q-.265-.794-.541-1.632c-.04-.13-.083-.251-.123-.382l-.005-.005-2.897-1.314a.5.5 0 0 0 .04.095"/><path fill="url(#q)" d="m21.677 21.368.06.268c.065.274.123.552.192.832l.22.936q.054.238.116.486.181.736.381 1.512a144 144 0 0 0 1.1 3.97c.193.65.39 1.317.604 2.006.188.61.389 1.237.593 1.879.007.03.023.063.03.094.206.632.42 1.285.642 1.95q.003.023.015.042l.832-.805c-.021.008-.038.02-.065.033.987-.978 1.795-2.897 1.936-4.606.065-.788.028-1.622-.114-2.529a17 17 0 0 0-.489-2.148 27 27 0 0 0-.705-2.099c-.147.32-.36.638-.624.95l-.144.165c-.047.054-.1.104-.153.163.713-1.17.76-2.403.492-3.67a4.6 4.6 0 0 1-.8 1.471c-.055.07-.12.138-.184.206-.017.013-.03.032-.053.049a5 5 0 0 0 .511-1.204c.026-.082.041-.166.056-.25.026-.128.042-.257.058-.386.005-.085.014-.164.02-.249a3.5 3.5 0 0 0-.025-.601c-.007-.066-.01-.127-.023-.189-.02-.093-.035-.18-.055-.263a12 12 0 0 0-.384-1.412c-.02-.048-.03-.094-.05-.142-.05-.131-.092-.252-.136-.353a4 4 0 0 0-.169-.346.8.8 0 0 1-.056.17c-.164.414-.557.987-.92 1.393l.768-.737-.768.737q-.009.005-.012.019c-.035.036-.076.076-.113.123.001-.01.013-.02.014-.029l-2.623 2.52c.023.018.027.034.025.043"/><path fill="url(#r)" d="M20.347 13.207q.08.871.22 1.952c.006.04.006.076.017.112a76 76 0 0 0 .681 4.077c.12.628.26 1.283.407 1.979l2.623-2.52c.53-1.02.632-1.648.598-2.421q-.017-.314-.055-.65a20 20 0 0 0-.317-2.084 18 18 0 0 0-.467-1.86 10 10 0 0 0-.343-.94 11 11 0 0 0-.322-.65c-.964 1.04-2.187 2.273-3.042 3.005"/><path fill="#be202e" d="M26.278 24.306c-.048.055-.1.104-.154.164.048-.055.096-.11.154-.164"/><path fill="#be202e" d="M26.278 24.306c-.048.055-.1.104-.154.164.048-.055.096-.11.154-.164" opacity=".35"/><path fill="url(#s)" d="M26.278 24.306c-.048.055-.1.104-.154.164.048-.055.096-.11.154-.164"/><path fill="#be202e" d="M25.575 22.52c.017-.013.03-.031.052-.049-.017.013-.03.032-.052.049"/><path fill="#be202e" d="M25.575 22.52c.017-.013.03-.031.052-.049-.017.013-.03.032-.052.049" opacity=".35"/><path fill="url(#t)" d="M25.575 22.52c.017-.013.03-.031.052-.049-.017.013-.03.032-.052.049"/></g><g filter="url(#u)"><path fill="#e8e8e8" d="M61.278 24.5V12.864h4.262q1.239 0 2.05.409.814.403 1.217 1.096.403.688.403 1.552 0 .726-.267 1.227a2.2 2.2 0 0 1-.716.795q-.442.296-.977.432v.114a2.3 2.3 0 0 1 1.13.375q.558.34.921.971.364.63.364 1.534 0 .893-.42 1.603-.415.704-1.285 1.119-.87.41-2.221.409zm1.756-1.506h2.534q1.261 0 1.807-.488.546-.489.546-1.222 0-.55-.279-1.011a2 2 0 0 0-.795-.733q-.512-.273-1.216-.273h-2.597zm0-5.096h2.352q.592 0 1.063-.227a1.86 1.86 0 0 0 .755-.637q.285-.414.285-.977 0-.722-.506-1.21-.506-.489-1.551-.489h-2.398zM77.14 20.88v-5.108h1.705V24.5h-1.67v-1.511h-.092q-.3.698-.965 1.164-.66.46-1.643.46-.84 0-1.488-.369-.642-.375-1.012-1.108-.363-.732-.363-1.812v-5.551h1.699v5.346q0 .893.494 1.42.494.53 1.284.53.478 0 .949-.24.477-.239.79-.721.318-.483.312-1.227m3.987 3.619v-8.727h1.7V24.5zm.858-10.074a1.08 1.08 0 0 1-.761-.295.96.96 0 0 1-.312-.716q0-.421.312-.716.318-.3.761-.301.444 0 .756.3a.94.94 0 0 1 .318.717.95.95 0 0 1-.318.716 1.06 1.06 0 0 1-.756.295m4.826-1.562V24.5h-1.7V12.864zm6.359 2.909v1.363h-4.767v-1.363zm-3.489-2.091h1.7v8.256q0 .493.147.744a.77.77 0 0 0 .38.335q.24.085.518.085.204 0 .358-.028l.238-.046.307 1.404a3 3 0 0 1-.42.114q-.274.062-.682.068a3 3 0 0 1-1.25-.239 2.15 2.15 0 0 1-.938-.773q-.357-.523-.358-1.312zM101.175 24.5l-2.568-8.727h1.755l1.71 6.409h.086l1.716-6.41h1.755l1.705 6.381h.085l1.699-6.38h1.756l-2.563 8.727h-1.733l-1.773-6.301h-.13l-1.773 6.301zm11.311 0v-8.727h1.699V24.5zm.858-10.074a1.08 1.08 0 0 1-.762-.295.96.96 0 0 1-.312-.716.95.95 0 0 1 .312-.716q.318-.3.762-.301.443 0 .755.3a.94.94 0 0 1 .319.717.95.95 0 0 1-.319.716q-.312.295-.755.295m7.2 1.347v1.363h-4.767v-1.363zm-3.489-2.091h1.699v8.256q0 .493.148.744a.77.77 0 0 0 .381.335q.238.085.517.085a2 2 0 0 0 .358-.028l.238-.046.307 1.404a3 3 0 0 1-.42.114 3.3 3.3 0 0 1-.682.068 3 3 0 0 1-1.25-.239 2.14 2.14 0 0 1-.938-.773q-.358-.523-.358-1.312zm7.255 5.636V24.5h-1.699V12.864h1.676v4.33h.108q.306-.706.937-1.12t1.648-.415q.898 0 1.568.37.677.369 1.046 1.102.375.727.375 1.818V24.5h-1.699v-5.347q0-.96-.494-1.488-.495-.534-1.375-.534a2.25 2.25 0 0 0-1.08.255q-.471.255-.744.75-.267.489-.267 1.182"/><path fill="url(#v)" d="M60.936 31.136h3.7l3.14 7.655h.145l3.139-7.655h3.7V43.5h-2.91v-7.594h-.102l-2.97 7.516h-1.86l-2.97-7.559h-.102V43.5h-2.91zm18.302 12.521q-.887 0-1.576-.296a2.46 2.46 0 0 1-1.08-.905q-.393-.61-.392-1.528 0-.773.271-1.304t.749-.863a3.5 3.5 0 0 1 1.099-.501 7 7 0 0 1 1.328-.235q.79-.074 1.273-.151.484-.085.7-.236a.51.51 0 0 0 .224-.44v-.03q0-.465-.32-.72-.32-.252-.863-.253-.585 0-.942.254a1.12 1.12 0 0 0-.453.7l-2.722-.096a3.2 3.2 0 0 1 .621-1.51q.507-.67 1.389-1.05.888-.387 2.131-.387.888 0 1.636.212.749.205 1.304.604.555.392.857.965.309.575.308 1.31V43.5h-2.777v-1.292h-.072q-.248.471-.634.797-.381.326-.9.489a3.8 3.8 0 0 1-1.159.163m.912-1.932q.476 0 .857-.193.387-.194.616-.531.23-.344.23-.797v-.882a2 2 0 0 1-.309.121 5 5 0 0 1-.386.103 7 7 0 0 1-.435.084q-.223.036-.428.067a2.7 2.7 0 0 0-.713.205 1.1 1.1 0 0 0-.446.362.9.9 0 0 0-.151.52q0 .458.326.7.331.24.839.241m15.098-7.498L92.067 43.5h-3.381l-3.175-9.273h3.109l1.708 6.387h.097l1.714-6.387zm5.168 9.448q-1.455 0-2.512-.573a3.97 3.97 0 0 1-1.617-1.648q-.562-1.075-.562-2.554 0-1.437.568-2.511.567-1.08 1.6-1.679 1.031-.603 2.432-.604.99 0 1.811.308.822.309 1.419.912.597.604.93 1.491.332.882.332 2.023v.736h-8.06v-1.715h5.313a1.66 1.66 0 0 0-.224-.839 1.5 1.5 0 0 0-.597-.573 1.7 1.7 0 0 0-.863-.211q-.495 0-.888.223a1.68 1.68 0 0 0-.863 1.449v1.745q0 .567.223.996.224.421.634.658.411.235.978.235.393 0 .712-.109a1.5 1.5 0 0 0 .55-.32q.229-.21.344-.519l2.71.079a3.35 3.35 0 0 1-.742 1.587q-.567.67-1.491 1.045-.924.368-2.137.368m8.86-5.463V43.5h-2.952v-9.273h2.808v1.703h.102a2.6 2.6 0 0 1 1.051-1.334q.742-.49 1.768-.49.978 0 1.697.441.724.435 1.123 1.22.404.779.398 1.823v5.91h-2.952v-5.33q.006-.773-.392-1.208-.393-.435-1.093-.435-.465 0-.821.206a1.36 1.36 0 0 0-.543.573q-.188.375-.194.906"/></g><defs><linearGradient id="a" x1="72" x2="72" y1="0" y2="56" gradientUnits="userSpaceOnUse"><stop stop-color="#352008"/><stop offset=".5" stop-color="#30080d"/><stop offset="1" stop-color="#12112e"/></linearGradient><linearGradient id="c" x1="44.785" x2="54.149" y1="12.397" y2="11.157" gradientUnits="userSpaceOnUse"><stop stop-color="#f69923"/><stop offset=".312" stop-color="#f79a23"/><stop offset=".838" stop-color="#e97826"/></linearGradient><linearGradient id="d" x1="19.268" x2="42.515" y1="49.23" y2="12.86" gradientUnits="userSpaceOnUse"><stop offset=".323" stop-color="#9e2064"/><stop offset=".63" stop-color="#c92037"/><stop offset=".751" stop-color="#cd2335"/><stop offset="1" stop-color="#e97826"/></linearGradient><linearGradient id="e" x1="25.839" x2="39.692" y1="47.246" y2="25.573" gradientUnits="userSpaceOnUse"><stop stop-color="#282662"/><stop offset=".095" stop-color="#662e8d"/><stop offset=".788" stop-color="#9f2064"/><stop offset=".949" stop-color="#cd2032"/></linearGradient><linearGradient id="f" x1="20.272" x2="43.518" y1="46.995" y2="10.624" gradientUnits="userSpaceOnUse"><stop offset=".323" stop-color="#9e2064"/><stop offset=".63" stop-color="#c92037"/><stop offset=".751" stop-color="#cd2335"/><stop offset="1" stop-color="#e97826"/></linearGradient><linearGradient id="g" x1="22.515" x2="34.732" y1="44.692" y2="25.578" gradientUnits="userSpaceOnUse"><stop stop-color="#282662"/><stop offset=".095" stop-color="#662e8d"/><stop offset=".788" stop-color="#9f2064"/><stop offset=".949" stop-color="#cd2032"/></linearGradient><linearGradient id="h" x1="24.068" x2="47.315" y1="49.422" y2="13.051" gradientUnits="userSpaceOnUse"><stop offset=".323" stop-color="#9e2064"/><stop offset=".63" stop-color="#c92037"/><stop offset=".751" stop-color="#cd2335"/><stop offset="1" stop-color="#e97826"/></linearGradient><linearGradient id="i" x1="22.393" x2="45.64" y1="51.529" y2="15.159" gradientUnits="userSpaceOnUse"><stop offset=".323" stop-color="#9e2064"/><stop offset=".63" stop-color="#c92037"/><stop offset=".751" stop-color="#cd2335"/><stop offset="1" stop-color="#e97826"/></linearGradient><linearGradient id="j" x1="25.197" x2="48.444" y1="50.144" y2="13.773" gradientUnits="userSpaceOnUse"><stop offset=".323" stop-color="#9e2064"/><stop offset=".63" stop-color="#c92037"/><stop offset=".751" stop-color="#cd2335"/><stop offset="1" stop-color="#e97826"/></linearGradient><linearGradient id="k" x1="24.983" x2="48.164" y1="50.05" y2="13.575" gradientUnits="userSpaceOnUse"><stop offset=".323" stop-color="#9e2064"/><stop offset=".63" stop-color="#c92037"/><stop offset=".751" stop-color="#cd2335"/><stop offset="1" stop-color="#e97826"/></linearGradient><linearGradient id="l" x1="18.945" x2="23.771" y1="11.951" y2="5.213" gradientUnits="userSpaceOnUse"><stop stop-color="#f69923"/><stop offset=".312" stop-color="#f79a23"/><stop offset=".838" stop-color="#e97826"/></linearGradient><linearGradient id="m" x1="27.494" x2="18.893" y1="50.594" y2="13.426" gradientUnits="userSpaceOnUse"><stop offset=".323" stop-color="#9e2064"/><stop offset=".63" stop-color="#c92037"/><stop offset=".751" stop-color="#cd2335"/><stop offset="1" stop-color="#e97826"/></linearGradient><linearGradient id="n" x1="30.222" x2="25.096" y1="45.236" y2="23.087" gradientUnits="userSpaceOnUse"><stop stop-color="#282662"/><stop offset=".095" stop-color="#662e8d"/><stop offset=".788" stop-color="#9f2064"/><stop offset=".949" stop-color="#cd2032"/></linearGradient><linearGradient id="o" x1="26.641" x2="18.04" y1="48.593" y2="11.425" gradientUnits="userSpaceOnUse"><stop offset=".323" stop-color="#9e2064"/><stop offset=".63" stop-color="#c92037"/><stop offset=".751" stop-color="#cd2335"/><stop offset="1" stop-color="#e97826"/></linearGradient><linearGradient id="p" x1="26.505" x2="21.985" y1="45.768" y2="26.235" gradientUnits="userSpaceOnUse"><stop stop-color="#282662"/><stop offset=".095" stop-color="#662e8d"/><stop offset=".788" stop-color="#9f2064"/><stop offset=".949" stop-color="#cd2032"/></linearGradient><linearGradient id="q" x1="30.564" x2="21.963" y1="47.684" y2="10.516" gradientUnits="userSpaceOnUse"><stop offset=".323" stop-color="#9e2064"/><stop offset=".63" stop-color="#c92037"/><stop offset=".751" stop-color="#cd2335"/><stop offset="1" stop-color="#e97826"/></linearGradient><linearGradient id="r" x1="30.922" x2="22.321" y1="50.031" y2="12.863" gradientUnits="userSpaceOnUse"><stop offset=".323" stop-color="#9e2064"/><stop offset=".63" stop-color="#c92037"/><stop offset=".751" stop-color="#cd2335"/><stop offset="1" stop-color="#e97826"/></linearGradient><linearGradient id="s" x1="31.731" x2="23.13" y1="47.414" y2="10.246" gradientUnits="userSpaceOnUse"><stop offset=".323" stop-color="#9e2064"/><stop offset=".63" stop-color="#c92037"/><stop offset=".751" stop-color="#cd2335"/><stop offset="1" stop-color="#e97826"/></linearGradient><linearGradient id="t" x1="31.604" x2="23.165" y1="47.212" y2="10.352" gradientUnits="userSpaceOnUse"><stop offset=".323" stop-color="#9e2064"/><stop offset=".63" stop-color="#c92037"/><stop offset=".751" stop-color="#cd2335"/><stop offset="1" stop-color="#e97826"/></linearGradient><linearGradient id="v" x1="88.5" x2="88.5" y1="28.5" y2="46.5" gradientUnits="userSpaceOnUse"><stop stop-color="#ffb054"/><stop offset="1" stop-color="#ce5ec3"/></linearGradient><filter id="b" width="51.429" height="52.503" x="6.286" y="1.904" color-interpolation-filters="sRGB" filterUnits="userSpaceOnUse"><feFlood flood-opacity="0" result="BackgroundImageFix"/><feColorMatrix in="SourceAlpha" result="hardAlpha" values="0 0 0 0 0 0 0 0 0 0 0 0 0 0 0 0 0 0 127 0"/><feOffset/><feGaussianBlur stdDeviation="2.857"/><feComposite in2="hardAlpha" operator="out"/><feColorMatrix values="0 0 0 0 0 0 0 0 0 0 0 0 0 0 0 0 0 0 0.25 0"/><feBlend in2="BackgroundImageFix" result="effect1_dropShadow_1_172"/><feBlend in="SourceGraphic" in2="effect1_dropShadow_1_172" result="shape"/></filter><filter id="u" width="83.2" height="48.2" x="54.4" y="3.9" color-interpolation-filters="sRGB" filterUnits="userSpaceOnUse"><feFlood flood-opacity="0" result="BackgroundImageFix"/><feColorMatrix in="SourceAlpha" result="hardAlpha" values="0 0 0 0 0 0 0 0 0 0 0 0 0 0 0 0 0 0 127 0"/><feOffset/><feGaussianBlur stdDeviation="2.8"/><feComposite in2="hardAlpha" operator="out"/><feColorMatrix values="0 0 0 0 0 0 0 0 0 0 0 0 0 0 0 0 0 0 0.25 0"/><feBlend in2="BackgroundImageFix" result="effect1_dropShadow_1_172"/><feBlend in="SourceGraphic" in2="effect1_dropShadow_1_172" result="shape"/></filter></defs></svg>