<svg xmlns="http://www.w3.org/2000/svg" width="144" height="56" fill="none" viewBox="0 0 144 56"><rect width="144" height="56" fill="url(#a)" rx="8"/><rect width="141.9" height="53.9" x="1.05" y="1.05" stroke="#fff" stroke-opacity=".15" stroke-width="2.1" rx="6.95"/><g filter="url(#b)"><path fill="#31a4e7" fill-rule="evenodd" d="M30.893 9.467c-.185.031-.438.11-.563.175-.167.087-13.909 15.372-16.342 18.178-.338.39-.858 1.355-1.15 2.133-1.618 4.321-.876 7.99 2.08 10.274.886.684.744.636 10.524 3.556 10.54 3.146 10 3.017 10.618 2.516.354-.287 15.448-18.526 15.616-18.87.2-.412.21-.857.027-1.356-.268-.733-.287-1.851-.045-2.63.447-1.44-.135-2.47-1.394-2.464-1.312.006-2.222 2.04-1.925 4.3.053.396.1.811.106.922.011.217-13.683 16.907-13.878 16.915-.178.007-17.427-5.145-17.71-5.29-1.913-.98-2.404-5.42-.695-6.295.795-.407-.568-.745 14.044 3.483 4.237 1.226 4.276 1.229 5.11.326 1.144-1.238 16.38-18.966 16.52-19.223.251-.455.208-1.224-.092-1.659-.401-.582-.064-.49-10.442-2.818-10.896-2.443-9.967-2.25-10.41-2.173m6.199 7.715c7.132 1.757 6.631 1.479 5.375 2.989-1.32 1.585-.725 1.598-7.954-.177-7.556-1.856-7.029-1.57-5.767-3.118 1.26-1.544.763-1.563 8.346.306" clip-rule="evenodd"/></g><g filter="url(#c)"><path fill="#e8e8e8" d="M61.278 24.5V12.864h4.262q1.239 0 2.05.409.814.403 1.217 1.096.403.688.403 1.552 0 .726-.267 1.227a2.2 2.2 0 0 1-.716.795q-.442.296-.977.432v.114a2.3 2.3 0 0 1 1.13.375q.558.34.921.971.364.63.364 1.534 0 .893-.42 1.603-.415.704-1.285 1.119-.87.41-2.221.409zm1.756-1.506h2.534q1.261 0 1.807-.488.546-.489.546-1.222 0-.55-.279-1.011a2 2 0 0 0-.795-.733q-.512-.273-1.216-.273h-2.597zm0-5.096h2.352q.592 0 1.063-.227a1.86 1.86 0 0 0 .755-.637q.285-.414.285-.977 0-.722-.506-1.21-.506-.489-1.551-.489h-2.398zM77.14 20.88v-5.108h1.705V24.5h-1.67v-1.511h-.092q-.3.698-.965 1.164-.66.46-1.643.46-.84 0-1.488-.369-.642-.375-1.012-1.108-.363-.732-.363-1.812v-5.551h1.699v5.346q0 .893.494 1.42.494.53 1.284.53.478 0 .949-.24.477-.239.79-.721.318-.483.312-1.227m3.987 3.619v-8.727h1.7V24.5zm.858-10.074a1.08 1.08 0 0 1-.761-.295.96.96 0 0 1-.312-.716q0-.421.312-.716.318-.3.761-.301.444 0 .756.3a.94.94 0 0 1 .318.717.95.95 0 0 1-.318.716 1.06 1.06 0 0 1-.756.295m4.826-1.562V24.5h-1.7V12.864zm6.359 2.909v1.363h-4.767v-1.363zm-3.489-2.091h1.7v8.256q0 .493.147.744a.77.77 0 0 0 .38.335q.24.085.518.085.204 0 .358-.028l.238-.046.307 1.404a3 3 0 0 1-.42.114q-.274.062-.682.068a3 3 0 0 1-1.25-.239 2.15 2.15 0 0 1-.938-.773q-.357-.523-.358-1.312zM101.175 24.5l-2.568-8.727h1.755l1.71 6.409h.086l1.716-6.41h1.755l1.705 6.381h.085l1.699-6.38h1.756l-2.563 8.727h-1.733l-1.773-6.301h-.13l-1.773 6.301zm11.311 0v-8.727h1.699V24.5zm.858-10.074a1.08 1.08 0 0 1-.762-.295.96.96 0 0 1-.312-.716.95.95 0 0 1 .312-.716q.318-.3.762-.301.443 0 .755.3a.94.94 0 0 1 .319.717.95.95 0 0 1-.319.716q-.312.295-.755.295m7.2 1.347v1.363h-4.767v-1.363zm-3.489-2.091h1.699v8.256q0 .493.148.744a.77.77 0 0 0 .381.335q.238.085.517.085a2 2 0 0 0 .358-.028l.238-.046.307 1.404a3 3 0 0 1-.42.114 3.3 3.3 0 0 1-.682.068 3 3 0 0 1-1.25-.239 2.14 2.14 0 0 1-.938-.773q-.358-.523-.358-1.312zm7.255 5.636V24.5h-1.699V12.864h1.676v4.33h.108q.306-.706.937-1.12t1.648-.415q.898 0 1.568.37.677.369 1.046 1.102.375.727.375 1.818V24.5h-1.699v-5.347q0-.96-.494-1.488-.495-.534-1.375-.534a2.25 2.25 0 0 0-1.08.255q-.471.255-.744.75-.267.489-.267 1.182"/><path fill="#31a4e7" d="M60.936 31.136h3.7l3.14 7.655h.145l3.139-7.655h3.7V43.5h-2.91v-7.594h-.102l-2.97 7.516h-1.86l-2.97-7.559h-.102V43.5h-2.91zm18.35 9.931.013-3.52h.41l2.608-3.32h3.345l-3.876 4.757h-.779zM76.625 43.5V31.136h2.952V43.5zm5.76 0-2.427-3.852 1.944-2.094 3.893 5.946zm8.904 0h-4.57V31.136h4.564q1.89 0 3.254.743a5.07 5.07 0 0 1 2.113 2.125q.742 1.383.742 3.308 0 1.932-.742 3.32a5.1 5.1 0 0 1-2.107 2.132q-1.37.735-3.254.736m-1.582-2.548h1.467q1.038 0 1.757-.35.724-.355 1.093-1.153.374-.802.374-2.137t-.374-2.125q-.375-.796-1.105-1.147-.725-.356-1.787-.356h-1.425zm13.758 2.723q-1.461 0-2.511-.598a4.13 4.13 0 0 1-1.612-1.678q-.561-1.08-.561-2.505 0-1.432.561-2.505.568-1.08 1.612-1.679 1.05-.603 2.511-.604 1.46 0 2.506.604 1.05.598 1.612 1.678.567 1.075.567 2.506 0 1.425-.567 2.505a4.1 4.1 0 0 1-1.612 1.678q-1.045.598-2.506.598m.018-2.228q.532 0 .9-.326.369-.326.561-.905.2-.58.2-1.34 0-.773-.2-1.353-.192-.58-.561-.905a1.3 1.3 0 0 0-.9-.326q-.55 0-.929.326-.375.327-.574.905a4.3 4.3 0 0 0-.193 1.353q0 .76.193 1.34.2.58.574.905.38.327.929.326m10.508 2.228q-1.467 0-2.518-.604a4.1 4.1 0 0 1-1.605-1.678q-.562-1.08-.562-2.5 0-1.424.562-2.498a4.1 4.1 0 0 1 1.611-1.685q1.051-.603 2.506-.604 1.286 0 2.239.465.96.465 1.498 1.316.543.846.573 1.987h-2.759q-.084-.713-.483-1.117-.391-.405-1.026-.405a1.46 1.46 0 0 0-.9.29q-.386.284-.603.845-.211.556-.211 1.377 0 .82.211 1.388.218.561.603.851.387.285.9.284.41 0 .724-.175.32-.175.526-.513a2.1 2.1 0 0 0 .259-.833h2.759q-.042 1.146-.573 2.004a3.57 3.57 0 0 1-1.479 1.334q-.948.471-2.252.471m13.91-6.616-2.71.072a1 1 0 0 0-.23-.513 1.2 1.2 0 0 0-.489-.356 1.7 1.7 0 0 0-.688-.133q-.513 0-.875.205-.356.205-.35.556a.6.6 0 0 0 .217.47q.23.2.815.32l1.787.339q1.389.265 2.065.88.682.617.688 1.63-.006.955-.568 1.661-.555.706-1.521 1.099-.966.386-2.21.386-1.986 0-3.133-.815-1.14-.821-1.304-2.197l2.916-.073q.097.507.501.773.405.266 1.033.266.567 0 .923-.212.357-.21.362-.561a.6.6 0 0 0-.277-.501q-.272-.194-.851-.302l-1.618-.308q-1.395-.253-2.077-.936-.682-.688-.676-1.75-.006-.93.495-1.588.501-.664 1.425-1.014.923-.35 2.179-.35 1.884 0 2.97.79 1.087.785 1.201 2.162"/></g><defs><filter id="b" width="51.429" height="51.429" x="6.286" y="2.286" color-interpolation-filters="sRGB" filterUnits="userSpaceOnUse"><feFlood flood-opacity="0" result="BackgroundImageFix"/><feColorMatrix in="SourceAlpha" result="hardAlpha" values="0 0 0 0 0 0 0 0 0 0 0 0 0 0 0 0 0 0 127 0"/><feOffset/><feGaussianBlur stdDeviation="2.857"/><feComposite in2="hardAlpha" operator="out"/><feColorMatrix values="0 0 0 0 0 0 0 0 0 0 0 0 0 0 0 0 0 0 0.25 0"/><feBlend in2="BackgroundImageFix" result="effect1_dropShadow_40_102"/><feBlend in="SourceGraphic" in2="effect1_dropShadow_40_102" result="shape"/></filter><filter id="c" width="83.2" height="48.2" x="54.4" y="3.9" color-interpolation-filters="sRGB" filterUnits="userSpaceOnUse"><feFlood flood-opacity="0" result="BackgroundImageFix"/><feColorMatrix in="SourceAlpha" result="hardAlpha" values="0 0 0 0 0 0 0 0 0 0 0 0 0 0 0 0 0 0 127 0"/><feOffset/><feGaussianBlur stdDeviation="2.8"/><feComposite in2="hardAlpha" operator="out"/><feColorMatrix values="0 0 0 0 0 0 0 0 0 0 0 0 0 0 0 0 0 0 0.25 0"/><feBlend in2="BackgroundImageFix" result="effect1_dropShadow_40_102"/><feBlend in="SourceGraphic" in2="effect1_dropShadow_40_102" result="shape"/></filter><linearGradient id="a" x1="72" x2="72" y1="0" y2="56" gradientUnits="userSpaceOnUse"><stop stop-color="#142e3d"/><stop offset="0" stop-color="#112734"/><stop offset="1" stop-color="#04111a"/></linearGradient></defs></svg>