<svg xmlns="http://www.w3.org/2000/svg" width="177" height="56" fill="none" viewBox="0 0 177 56"><rect width="177" height="56" fill="url(#a)" rx="8"/><rect width="174.9" height="53.9" x="1.05" y="1.05" stroke="#fff" stroke-opacity=".15" stroke-width="2.1" rx="6.95"/><g filter="url(#b)"><path fill="#3655ff" d="M16.168 12.152a8.8 8.8 0 0 1 6.237-2.723h19.5c2.12 0 4.101.928 5.927 2.723a8.4 8.4 0 0 1 2.74 6.098v19.763c0 2.074-.867 3.993-2.6 5.773a8.93 8.93 0 0 1-6.3 2.785H22.515a9.75 9.75 0 0 1-6.346-2.43c-1.671-1.516-2.584-3.714-2.739-6.654v-19.19a8.06 8.06 0 0 1 2.74-6.145m9.673 12.846 12.272 15.569h3.281c.759-.093 1.362-.31 1.81-.666.465-.356.775-.867.991-1.547v-7.646c.124-1.47 1.037-2.383 2.74-2.708q-2.554-.929-2.74-2.879v-7.304c-.185-.681-.51-1.238-.99-1.656a2.83 2.83 0 0 0-1.687-.728h-3.327V31.22L25.84 15.418h-3.45c-.867.155-1.501.464-1.935.928-.433.465-.712 1.208-.835 2.214v7.506c-.542 1.067-1.393 1.702-2.554 1.934 1.315.248 2.167.944 2.553 2.105v7.382c.032.851.31 1.547.836 2.12.51.557 1.084.82 1.703.774h3.652z"/></g><g filter="url(#c)"><path fill="#e8e8e8" d="M61.278 24.5V12.864h4.262q1.239 0 2.05.409.814.403 1.217 1.096.403.688.403 1.552 0 .726-.267 1.227a2.2 2.2 0 0 1-.716.795q-.442.296-.977.432v.114a2.3 2.3 0 0 1 1.13.375q.558.34.921.971.364.63.364 1.534 0 .893-.42 1.603-.415.704-1.285 1.119-.87.41-2.221.409zm1.756-1.506h2.534q1.261 0 1.807-.488.546-.489.546-1.222 0-.55-.279-1.011a2 2 0 0 0-.795-.733q-.512-.273-1.216-.273h-2.597zm0-5.096h2.352q.592 0 1.063-.227a1.86 1.86 0 0 0 .755-.637q.285-.414.285-.977 0-.722-.506-1.21-.506-.489-1.551-.489h-2.398zM77.14 20.88v-5.108h1.705V24.5h-1.67v-1.511h-.092q-.3.698-.965 1.164-.66.46-1.643.46-.84 0-1.488-.369-.642-.375-1.012-1.108-.363-.732-.363-1.812v-5.551h1.699v5.346q0 .893.494 1.42.494.53 1.284.53.478 0 .949-.24.477-.239.79-.721.318-.483.312-1.227m3.987 3.619v-8.727h1.7V24.5zm.858-10.074a1.08 1.08 0 0 1-.761-.295.96.96 0 0 1-.312-.716q0-.421.312-.716.318-.3.761-.301.444 0 .756.3a.94.94 0 0 1 .318.717.95.95 0 0 1-.318.716 1.06 1.06 0 0 1-.756.295m4.826-1.562V24.5h-1.7V12.864zm6.359 2.909v1.363h-4.767v-1.363zm-3.489-2.091h1.7v8.256q0 .493.147.744a.77.77 0 0 0 .38.335q.24.085.518.085.204 0 .358-.028l.238-.046.307 1.404a3 3 0 0 1-.42.114q-.274.062-.682.068a3 3 0 0 1-1.25-.239 2.15 2.15 0 0 1-.938-.773q-.357-.523-.358-1.312zM101.175 24.5l-2.568-8.727h1.755l1.71 6.409h.086l1.716-6.41h1.755l1.705 6.381h.085l1.699-6.38h1.756l-2.563 8.727h-1.733l-1.773-6.301h-.13l-1.773 6.301zm11.311 0v-8.727h1.699V24.5zm.858-10.074a1.08 1.08 0 0 1-.762-.295.96.96 0 0 1-.312-.716.95.95 0 0 1 .312-.716q.318-.3.762-.301.443 0 .755.3a.94.94 0 0 1 .319.717.95.95 0 0 1-.319.716q-.312.295-.755.295m7.2 1.347v1.363h-4.767v-1.363zm-3.489-2.091h1.699v8.256q0 .493.148.744a.77.77 0 0 0 .381.335q.238.085.517.085a2 2 0 0 0 .358-.028l.238-.046.307 1.404a3 3 0 0 1-.42.114 3.3 3.3 0 0 1-.682.068 3 3 0 0 1-1.25-.239 2.14 2.14 0 0 1-.938-.773q-.358-.523-.358-1.312zm7.255 5.636V24.5h-1.699V12.864h1.676v4.33h.108q.306-.706.937-1.12t1.648-.415q.898 0 1.568.37.677.369 1.046 1.102.375.727.375 1.818V24.5h-1.699v-5.347q0-.96-.494-1.488-.495-.534-1.375-.534a2.25 2.25 0 0 0-1.08.255q-.471.255-.744.75-.267.489-.267 1.182"/><path fill="#3655ff" d="M71.458 31.136V43.5h-2.535l-4.92-7.136h-.079V43.5h-2.988V31.136h2.572l4.865 7.124h.103v-7.124zm4.493 12.521q-.887 0-1.576-.296a2.46 2.46 0 0 1-1.08-.905q-.393-.61-.393-1.528 0-.773.272-1.304.271-.531.749-.863a3.5 3.5 0 0 1 1.098-.501 7 7 0 0 1 1.329-.235q.79-.074 1.273-.151.483-.085.7-.236a.51.51 0 0 0 .224-.44v-.03q0-.465-.32-.72-.32-.252-.863-.253-.586 0-.942.254a1.12 1.12 0 0 0-.453.7l-2.722-.096a3.2 3.2 0 0 1 .621-1.51q.507-.67 1.389-1.05.887-.387 2.13-.387.889 0 1.637.212.749.205 1.304.604.555.392.857.965.308.575.308 1.31V43.5h-2.777v-1.292h-.072q-.249.471-.634.797-.381.326-.9.489a3.8 3.8 0 0 1-1.159.163m.912-1.932q.476 0 .857-.193.387-.194.616-.531.23-.344.23-.797v-.882a2 2 0 0 1-.309.121 5 5 0 0 1-.386.103 7 7 0 0 1-.435.084q-.224.036-.429.067a2.7 2.7 0 0 0-.712.205 1.1 1.1 0 0 0-.447.362.9.9 0 0 0-.15.52q0 .458.326.7.33.24.839.241m11.669-7.498v2.174h-5.85v-2.174zm-4.624-2.221h2.952v8.578q0 .272.084.44.09.165.26.236.169.067.404.067.17 0 .357-.03.192-.038.29-.06l.446 2.13q-.21.06-.598.151a5 5 0 0 1-.911.115q-1.038.048-1.781-.242a2.3 2.3 0 0 1-1.129-.917q-.386-.622-.374-1.564zm6.13 11.494v-9.273h2.952V43.5zm1.48-10.353q-.622 0-1.07-.41a1.32 1.32 0 0 1-.446-1.003q0-.579.447-.99a1.5 1.5 0 0 1 1.068-.417q.628 0 1.069.417.447.411.447.99 0 .585-.447 1.002a1.5 1.5 0 0 1-1.069.41m12.346 1.08-3.181 9.273h-3.38l-3.176-9.273h3.109l1.708 6.387h.097l1.714-6.387zm5.168 9.448q-1.455 0-2.511-.573a3.96 3.96 0 0 1-1.618-1.648q-.562-1.075-.562-2.554 0-1.437.568-2.511.567-1.08 1.6-1.679 1.032-.603 2.432-.604.99 0 1.811.308.822.309 1.419.912.598.604.93 1.491.332.882.332 2.023v.736h-8.059V37.86h5.312a1.66 1.66 0 0 0-.223-.839 1.5 1.5 0 0 0-.598-.573 1.7 1.7 0 0 0-.863-.211q-.495 0-.888.223a1.68 1.68 0 0 0-.863 1.449v1.745q0 .567.223.996.224.421.634.658.411.235.978.235.392 0 .713-.109.32-.108.549-.32.23-.21.344-.519l2.711.079a3.36 3.36 0 0 1-.743 1.587q-.567.67-1.491 1.045-.924.368-2.137.368m12.591-8.832q-.06-.665-.537-1.032-.47-.375-1.346-.375-.579 0-.966.151t-.58.417a1 1 0 0 0-.199.598.9.9 0 0 0 .109.489q.126.21.362.374.241.157.58.277.338.122.76.212l1.063.241q.918.2 1.618.532.706.331 1.183.79.483.459.73 1.057.248.597.254 1.34-.006 1.17-.592 2.01-.585.84-1.684 1.286-1.092.447-2.638.447-1.551 0-2.705-.465-1.152-.464-1.793-1.413-.64-.947-.658-2.396h2.862q.036.597.32.996t.779.604q.5.204 1.159.205.603 0 1.026-.163.429-.163.658-.453t.235-.664a.9.9 0 0 0-.217-.598q-.211-.254-.652-.434-.435-.188-1.111-.344l-1.292-.302q-1.605-.369-2.529-1.19-.924-.825-.918-2.233-.005-1.148.616-2.01.622-.864 1.721-1.347 1.098-.483 2.505-.483 1.437 0 2.493.49 1.063.482 1.648 1.358.586.875.598 2.028zm8.869 8.832q-1.467 0-2.518-.604a4.1 4.1 0 0 1-1.606-1.678q-.561-1.08-.561-2.5 0-1.424.561-2.498a4.1 4.1 0 0 1 1.612-1.685q1.051-.603 2.506-.604 1.285 0 2.239.465.96.465 1.498 1.316.543.846.573 1.987h-2.759q-.084-.713-.483-1.117-.392-.405-1.026-.405a1.46 1.46 0 0 0-.9.29q-.385.284-.603.845-.212.556-.212 1.377 0 .82.212 1.388.218.561.603.851.387.285.9.284.41 0 .724-.175.32-.175.526-.513a2.1 2.1 0 0 0 .259-.833h2.759q-.042 1.146-.573 2.004a3.56 3.56 0 0 1-1.48 1.334q-.947.471-2.251.471m5.815-.175v-9.273h2.867v1.69h.097q.254-.917.827-1.364a2.1 2.1 0 0 1 1.334-.453q.206 0 .423.03.217.025.404.08v2.565a3 3 0 0 0-.555-.115 5 5 0 0 0-.604-.042q-.525 0-.948.235a1.7 1.7 0 0 0-.658.646 1.9 1.9 0 0 0-.235.966V43.5zm7.155 0v-9.273h2.952V43.5zm1.479-10.353q-.622 0-1.068-.41a1.32 1.32 0 0 1-.447-1.003q0-.579.447-.99a1.5 1.5 0 0 1 1.068-.417 1.5 1.5 0 0 1 1.069.417q.446.411.446.99 0 .585-.446 1.002-.44.41-1.069.41m3.352 13.83v-12.75h2.922v1.588h.091q.18-.422.513-.815.338-.393.857-.64.525-.254 1.256-.254.965 0 1.805.508.845.507 1.364 1.563t.519 2.693q0 1.575-.501 2.638-.495 1.063-1.34 1.594a3.4 3.4 0 0 1-1.865.53q-.7 0-1.214-.229a2.6 2.6 0 0 1-.863-.603 2.9 2.9 0 0 1-.531-.803h-.061v4.98zm2.892-8.113q0 .748.199 1.304.205.555.586.863.386.302.923.302.543 0 .924-.302.38-.308.573-.863.2-.555.2-1.304 0-.75-.2-1.298-.193-.55-.573-.852-.374-.3-.924-.301-.543 0-.923.295-.38.297-.586.846-.2.548-.199 1.31m13.216-4.637v2.174h-5.85v-2.174zm-4.624-2.221h2.952v8.578q0 .272.084.44a.53.53 0 0 0 .26.236q.17.067.405.067.168 0 .356-.03.192-.038.289-.06l.447 2.13q-.212.06-.597.151-.381.09-.912.115-1.038.048-1.781-.242a2.3 2.3 0 0 1-1.129-.917q-.386-.622-.374-1.564z"/></g><defs><filter id="b" width="51.429" height="51.429" x="6.286" y="2.286" color-interpolation-filters="sRGB" filterUnits="userSpaceOnUse"><feFlood flood-opacity="0" result="BackgroundImageFix"/><feColorMatrix in="SourceAlpha" result="hardAlpha" values="0 0 0 0 0 0 0 0 0 0 0 0 0 0 0 0 0 0 127 0"/><feOffset/><feGaussianBlur stdDeviation="2.857"/><feComposite in2="hardAlpha" operator="out"/><feColorMatrix values="0 0 0 0 0 0 0 0 0 0 0 0 0 0 0 0 0 0 0.25 0"/><feBlend in2="BackgroundImageFix" result="effect1_dropShadow_2_868"/><feBlend in="SourceGraphic" in2="effect1_dropShadow_2_868" result="shape"/></filter><filter id="c" width="116.2" height="48.677" x="54.4" y="3.9" color-interpolation-filters="sRGB" filterUnits="userSpaceOnUse"><feFlood flood-opacity="0" result="BackgroundImageFix"/><feColorMatrix in="SourceAlpha" result="hardAlpha" values="0 0 0 0 0 0 0 0 0 0 0 0 0 0 0 0 0 0 127 0"/><feOffset/><feGaussianBlur stdDeviation="2.8"/><feComposite in2="hardAlpha" operator="out"/><feColorMatrix values="0 0 0 0 0 0 0 0 0 0 0 0 0 0 0 0 0 0 0.25 0"/><feBlend in2="BackgroundImageFix" result="effect1_dropShadow_2_868"/><feBlend in="SourceGraphic" in2="effect1_dropShadow_2_868" result="shape"/></filter><linearGradient id="a" x1="88.5" x2="88.5" y1="0" y2="56" gradientUnits="userSpaceOnUse"><stop stop-color="#0d1439"/><stop offset="1" stop-color="#060b24"/></linearGradient></defs></svg>