<svg xmlns="http://www.w3.org/2000/svg" width="144" height="56" fill="none" viewBox="0 0 144 56"><rect width="144" height="56" fill="url(#a)" rx="8"/><rect width="141.9" height="53.9" x="1.05" y="1.05" stroke="#fff" stroke-opacity=".15" stroke-width="2.1" rx="6.95"/><g filter="url(#b)"><path fill="#fff" d="M31.288 8c-.294 0-.517.002-.598.011-.086.009-.36.035-.606.055-5.681.512-11.003 3.577-14.373 8.288a19.8 19.8 0 0 0-3.53 8.738c-.161 1.098-.18 1.423-.18 2.912 0 1.49.02 1.814.18 2.913 1.086 7.51 6.431 13.82 13.68 16.157 1.299.419 2.667.704 4.223.876.607.067 3.226.067 3.832 0 2.686-.297 4.962-.962 7.206-2.107.345-.176.411-.223.364-.262-.031-.024-1.498-1.99-3.257-4.367l-3.198-4.32-4.008-5.93c-2.205-3.261-4.02-5.927-4.035-5.927-.016-.005-.032 2.631-.04 5.848-.01 5.634-.015 5.86-.085 5.994-.102.191-.18.27-.344.355-.125.063-.235.074-.825.074h-.677l-.18-.113a.73.73 0 0 1-.262-.285l-.082-.176.009-7.839.011-7.842.121-.152c.063-.083.196-.188.29-.239.16-.078.222-.086.899-.086.797 0 .93.031 1.137.258.06.063 2.23 3.331 4.825 7.268q3.945 5.977 7.891 11.95l3.167 4.798.16-.106c1.42-.922 2.921-2.236 4.11-3.604a19.9 19.9 0 0 0 4.708-10.224c.16-1.098.18-1.423.18-2.912 0-1.49-.02-1.814-.18-2.913-1.087-7.51-6.432-13.82-13.682-16.157-1.278-.415-2.639-.7-4.164-.872C33.693 8.032 32.17 8 31.288 8m6.78 12.028c.58 0 .68.01.81.079.188.093.34.273.395.46.031.102.04 2.276.031 7.175l-.011 7.029-1.24-1.9-1.243-1.9v-5.11c0-3.303.016-5.16.04-5.25a.8.8 0 0 1 .386-.493c.16-.082.22-.09.833-.09"/></g><g filter="url(#c)"><path fill="#e8e8e8" d="M61.278 24.5V12.864h4.262q1.239 0 2.05.409.814.403 1.217 1.096.403.688.403 1.552 0 .726-.267 1.227a2.2 2.2 0 0 1-.716.795q-.442.296-.977.432v.114a2.3 2.3 0 0 1 1.13.375q.558.34.921.971.364.63.364 1.534 0 .893-.42 1.603-.415.704-1.285 1.119-.87.41-2.221.409zm1.756-1.506h2.534q1.261 0 1.807-.488.546-.489.546-1.222 0-.55-.279-1.011a2 2 0 0 0-.795-.733q-.512-.273-1.216-.273h-2.597zm0-5.096h2.352q.592 0 1.063-.227a1.86 1.86 0 0 0 .755-.637q.285-.414.285-.977 0-.722-.506-1.21-.506-.489-1.551-.489h-2.398zM77.14 20.88v-5.108h1.705V24.5h-1.67v-1.511h-.092q-.3.698-.965 1.164-.66.46-1.643.46-.84 0-1.488-.369-.642-.375-1.012-1.108-.363-.732-.363-1.812v-5.551h1.699v5.346q0 .893.494 1.42.494.53 1.284.53.478 0 .949-.24.477-.239.79-.721.318-.483.312-1.227m3.987 3.619v-8.727h1.7V24.5zm.858-10.074a1.08 1.08 0 0 1-.761-.295.96.96 0 0 1-.312-.716q0-.421.312-.716.318-.3.761-.301.444 0 .756.3a.94.94 0 0 1 .318.717.95.95 0 0 1-.318.716 1.06 1.06 0 0 1-.756.295m4.826-1.562V24.5h-1.7V12.864zm6.359 2.909v1.363h-4.767v-1.363zm-3.489-2.091h1.7v8.256q0 .493.147.744a.77.77 0 0 0 .38.335q.24.085.518.085.204 0 .358-.028l.238-.046.307 1.404a3 3 0 0 1-.42.114q-.274.062-.682.068a3 3 0 0 1-1.25-.239 2.15 2.15 0 0 1-.938-.773q-.357-.523-.358-1.312zM101.175 24.5l-2.568-8.727h1.755l1.71 6.409h.086l1.716-6.41h1.755l1.705 6.381h.085l1.699-6.38h1.756l-2.563 8.727h-1.733l-1.773-6.301h-.13l-1.773 6.301zm11.311 0v-8.727h1.699V24.5zm.858-10.074a1.08 1.08 0 0 1-.762-.295.96.96 0 0 1-.312-.716.95.95 0 0 1 .312-.716q.318-.3.762-.301.443 0 .755.3a.94.94 0 0 1 .319.717.95.95 0 0 1-.319.716q-.312.295-.755.295m7.2 1.347v1.363h-4.767v-1.363zm-3.489-2.091h1.699v8.256q0 .493.148.744a.77.77 0 0 0 .381.335q.238.085.517.085a2 2 0 0 0 .358-.028l.238-.046.307 1.404a3 3 0 0 1-.42.114 3.3 3.3 0 0 1-.682.068 3 3 0 0 1-1.25-.239 2.14 2.14 0 0 1-.938-.773q-.358-.523-.358-1.312zm7.255 5.636V24.5h-1.699V12.864h1.676v4.33h.108q.306-.706.937-1.12t1.648-.415q.898 0 1.568.37.677.369 1.046 1.102.375.727.375 1.818V24.5h-1.699v-5.347q0-.96-.494-1.488-.495-.534-1.375-.534a2.25 2.25 0 0 0-1.08.255q-.471.255-.744.75-.267.489-.267 1.182"/><path fill="#fff" d="M71.458 31.136V43.5h-2.535l-4.92-7.136h-.079V43.5h-2.988V31.136h2.572l4.865 7.124h.103v-7.124zm6.214 12.54q-1.455 0-2.512-.574a3.97 3.97 0 0 1-1.618-1.648q-.561-1.075-.561-2.554 0-1.437.567-2.511.568-1.08 1.6-1.679 1.033-.603 2.433-.604.99 0 1.811.308.82.309 1.419.912.597.604.93 1.491.331.882.332 2.023v.736h-8.06v-1.715h5.313a1.66 1.66 0 0 0-.224-.839 1.5 1.5 0 0 0-.597-.573 1.7 1.7 0 0 0-.864-.211q-.494 0-.887.223a1.68 1.68 0 0 0-.863 1.449v1.745q0 .567.223.996.223.421.634.658.411.235.978.235.392 0 .712-.109.32-.108.55-.32.229-.21.344-.519l2.71.079a3.35 3.35 0 0 1-.742 1.587q-.569.67-1.491 1.045-.924.368-2.137.368m8.287-9.449 1.527 3.055 1.582-3.055h2.976l-2.59 4.637 2.687 4.636h-2.952l-1.703-3.079-1.66 3.079h-2.994l2.692-4.636-2.56-4.637zm12.667 0V36.4h-5.85v-2.174zM94 32.006h2.953v8.578q0 .272.084.44.09.165.26.236.168.067.404.067.17 0 .356-.03.194-.038.29-.06l.447 2.13q-.211.06-.598.151a5 5 0 0 1-.911.115q-1.039.048-1.781-.242a2.3 2.3 0 0 1-1.13-.917q-.386-.622-.374-1.564zm7.791 11.67q-.652 0-1.117-.46a1.5 1.5 0 0 1-.452-1.11q-.007-.64.452-1.093.465-.459 1.117-.459.616 0 1.087.459a1.47 1.47 0 0 1 .253 1.883 1.65 1.65 0 0 1-.573.568q-.35.21-.767.211m3.52-9.449h2.952v9.66q0 1.147-.471 1.822-.465.676-1.316.972-.852.297-2.01.296-.158 0-.296-.006l-.302-.012v-2.24l.193.019q.084.006.169.006.61 0 .845-.23.236-.223.236-.688zm1.473-1.08q-.622 0-1.069-.41a1.32 1.32 0 0 1-.447-1.003q0-.579.447-.99a1.5 1.5 0 0 1 1.069-.417q.627 0 1.068.417.447.411.447.99 0 .585-.447 1.002a1.5 1.5 0 0 1-1.068.41m11.453 3.912-2.71.072a1 1 0 0 0-.23-.513 1.2 1.2 0 0 0-.489-.356 1.7 1.7 0 0 0-.688-.133q-.513 0-.875.205-.356.205-.35.556a.6.6 0 0 0 .217.47q.23.2.815.32l1.787.339q1.388.265 2.064.88.683.617.689 1.63a2.62 2.62 0 0 1-.568 1.661q-.555.706-1.521 1.099-.966.386-2.21.386-1.986 0-3.133-.815-1.14-.821-1.304-2.197l2.916-.073q.096.507.501.773t1.032.266q.569 0 .924-.212.356-.21.362-.561a.6.6 0 0 0-.277-.501q-.272-.194-.852-.302l-1.617-.308q-1.395-.253-2.077-.936-.682-.688-.676-1.75-.006-.93.495-1.588.501-.664 1.424-1.014.924-.35 2.18-.35 1.882 0 2.97.79 1.087.785 1.201 2.162"/></g><defs><filter id="b" width="51.429" height="51.428" x="6.286" y="2.286" color-interpolation-filters="sRGB" filterUnits="userSpaceOnUse"><feFlood flood-opacity="0" result="BackgroundImageFix"/><feColorMatrix in="SourceAlpha" result="hardAlpha" values="0 0 0 0 0 0 0 0 0 0 0 0 0 0 0 0 0 0 127 0"/><feOffset/><feGaussianBlur stdDeviation="2.857"/><feComposite in2="hardAlpha" operator="out"/><feColorMatrix values="0 0 0 0 0 0 0 0 0 0 0 0 0 0 0 0 0 0 0.25 0"/><feBlend in2="BackgroundImageFix" result="effect1_dropShadow_2_936"/><feBlend in="SourceGraphic" in2="effect1_dropShadow_2_936" result="shape"/></filter><filter id="c" width="83.2" height="48.677" x="54.4" y="3.9" color-interpolation-filters="sRGB" filterUnits="userSpaceOnUse"><feFlood flood-opacity="0" result="BackgroundImageFix"/><feColorMatrix in="SourceAlpha" result="hardAlpha" values="0 0 0 0 0 0 0 0 0 0 0 0 0 0 0 0 0 0 127 0"/><feOffset/><feGaussianBlur stdDeviation="2.8"/><feComposite in2="hardAlpha" operator="out"/><feColorMatrix values="0 0 0 0 0 0 0 0 0 0 0 0 0 0 0 0 0 0 0.25 0"/><feBlend in2="BackgroundImageFix" result="effect1_dropShadow_2_936"/><feBlend in="SourceGraphic" in2="effect1_dropShadow_2_936" result="shape"/></filter><linearGradient id="a" x1="72" x2="72" y1="0" y2="56" gradientUnits="userSpaceOnUse"><stop stop-color="#1e1e1e"/><stop offset="1" stop-color="#0d0d0d"/></linearGradient></defs></svg>