<svg xmlns="http://www.w3.org/2000/svg" width="144" height="56" fill="none" viewBox="0 0 144 56"><rect width="144" height="56" fill="url(#a)" rx="8"/><rect width="141.9" height="53.9" x="1.05" y="1.05" stroke="#fff" stroke-opacity=".15" stroke-width="2.1" rx="6.95"/><g filter="url(#b)"><path fill="#80eec0" fill-rule="evenodd" d="M30.283 15.466c-1.16-1.996-4.063-1.996-5.224 0L12.41 37.218c-1.16 1.996.29 4.49 2.612 4.49h9.875c-.992-.866-1.359-2.366-.608-3.653l9.58-16.423z" clip-rule="evenodd"/><path fill="#00dc82" d="M38.299 20.238c.96-1.633 3.362-1.633 4.322 0l10.47 17.796c.96 1.633-.24 3.675-2.161 3.675H29.99c-1.92 0-3.121-2.042-2.16-3.675z"/></g><g filter="url(#c)"><path fill="#e8e8e8" d="M61.278 24.5V12.864h4.262q1.239 0 2.05.409.814.403 1.217 1.096.403.688.403 1.552 0 .726-.267 1.227a2.2 2.2 0 0 1-.716.795q-.442.296-.977.432v.114a2.3 2.3 0 0 1 1.13.375q.558.34.921.971.364.63.364 1.534 0 .893-.42 1.603-.415.704-1.285 1.119-.87.41-2.221.409zm1.756-1.506h2.534q1.261 0 1.807-.488.546-.489.546-1.222 0-.55-.279-1.011a2 2 0 0 0-.795-.733q-.512-.273-1.216-.273h-2.597zm0-5.096h2.352q.592 0 1.063-.227a1.86 1.86 0 0 0 .755-.637q.285-.414.285-.977 0-.722-.506-1.21-.506-.489-1.551-.489h-2.398zM77.14 20.88v-5.108h1.705V24.5h-1.67v-1.511h-.092q-.3.698-.965 1.164-.66.46-1.643.46-.84 0-1.488-.369-.642-.375-1.012-1.108-.363-.732-.363-1.812v-5.551h1.699v5.346q0 .893.494 1.42.494.53 1.284.53.478 0 .949-.24.477-.239.79-.721.318-.483.312-1.227m3.987 3.619v-8.727h1.7V24.5zm.858-10.074a1.08 1.08 0 0 1-.761-.295.96.96 0 0 1-.312-.716q0-.421.312-.716.318-.3.761-.301.444 0 .756.3a.94.94 0 0 1 .318.717.95.95 0 0 1-.318.716 1.06 1.06 0 0 1-.756.295m4.826-1.562V24.5h-1.7V12.864zm6.359 2.909v1.363h-4.767v-1.363zm-3.489-2.091h1.7v8.256q0 .493.147.744a.77.77 0 0 0 .38.335q.24.085.518.085.204 0 .358-.028l.238-.046.307 1.404a3 3 0 0 1-.42.114q-.274.062-.682.068a3 3 0 0 1-1.25-.239 2.15 2.15 0 0 1-.938-.773q-.357-.523-.358-1.312zM101.175 24.5l-2.568-8.727h1.755l1.71 6.409h.086l1.716-6.41h1.755l1.705 6.381h.085l1.699-6.38h1.756l-2.563 8.727h-1.733l-1.773-6.301h-.13l-1.773 6.301zm11.311 0v-8.727h1.699V24.5zm.858-10.074a1.08 1.08 0 0 1-.762-.295.96.96 0 0 1-.312-.716.95.95 0 0 1 .312-.716q.318-.3.762-.301.443 0 .755.3a.94.94 0 0 1 .319.717.95.95 0 0 1-.319.716q-.312.295-.755.295m7.2 1.347v1.363h-4.767v-1.363zm-3.489-2.091h1.699v8.256q0 .493.148.744a.77.77 0 0 0 .381.335q.238.085.517.085a2 2 0 0 0 .358-.028l.238-.046.307 1.404a3 3 0 0 1-.42.114 3.3 3.3 0 0 1-.682.068 3 3 0 0 1-1.25-.239 2.14 2.14 0 0 1-.938-.773q-.358-.523-.358-1.312zm7.255 5.636V24.5h-1.699V12.864h1.676v4.33h.108q.306-.706.937-1.12t1.648-.415q.898 0 1.568.37.677.369 1.046 1.102.375.727.375 1.818V24.5h-1.699v-5.347q0-.96-.494-1.488-.495-.534-1.375-.534a2.25 2.25 0 0 0-1.08.255q-.471.255-.744.75-.267.489-.267 1.182"/><path fill="#00dc82" d="M71.458 31.136V43.5h-2.535l-4.92-7.136h-.079V43.5h-2.988V31.136h2.572l4.865 7.124h.103v-7.124zm7.862 8.362v-5.27h2.946V43.5h-2.814v-1.727h-.096a2.7 2.7 0 0 1-1.05 1.353q-.737.495-1.781.495-.948 0-1.667-.435a2.96 2.96 0 0 1-1.116-1.213q-.398-.785-.405-1.836v-5.91h2.952v5.33q.006.755.399 1.19.392.435 1.068.435.441 0 .791-.193.356-.2.561-.574.212-.38.212-.917m7.336-5.27 1.527 3.054 1.582-3.055h2.976l-2.59 4.637 2.687 4.636h-2.952l-1.703-3.079-1.66 3.079H83.53l2.692-4.636-2.56-4.637zm12.667 0V36.4h-5.85v-2.174zM94.7 32.005h2.952v8.578q0 .272.084.44.09.165.26.236.169.067.404.067.17 0 .357-.03.192-.038.29-.06l.446 2.13q-.21.06-.598.151a5 5 0 0 1-.911.115q-1.038.048-1.781-.242a2.3 2.3 0 0 1-1.129-.917q-.386-.622-.374-1.564zm7.79 11.67q-.652 0-1.116-.46a1.5 1.5 0 0 1-.453-1.11q-.006-.64.453-1.093a1.53 1.53 0 0 1 1.116-.459q.616 0 1.087.459a1.47 1.47 0 0 1 .254 1.883 1.65 1.65 0 0 1-.574.568q-.35.21-.767.211m3.52-9.449h2.952v9.66q0 1.147-.471 1.822-.465.676-1.316.972-.85.297-2.01.296-.157 0-.296-.006l-.302-.012v-2.24l.193.019q.085.006.169.006.61 0 .846-.23.234-.223.235-.688zm1.473-1.08q-.622 0-1.069-.41a1.32 1.32 0 0 1-.446-1.003q0-.579.446-.99a1.5 1.5 0 0 1 1.069-.417 1.5 1.5 0 0 1 1.069.417q.446.411.446.99 0 .585-.446 1.002-.44.41-1.069.41m11.454 3.912-2.711.072a1 1 0 0 0-.229-.513 1.24 1.24 0 0 0-.489-.356 1.7 1.7 0 0 0-.689-.133q-.513 0-.875.205-.356.205-.35.556a.6.6 0 0 0 .217.47q.23.2.815.32l1.787.339q1.389.265 2.065.88.682.617.688 1.63-.006.955-.568 1.661-.555.706-1.521 1.099-.966.386-2.209.386-1.986 0-3.134-.815-1.14-.821-1.304-2.197l2.916-.073q.097.507.501.773.405.266 1.033.266.567 0 .923-.212.357-.21.363-.561a.6.6 0 0 0-.278-.501q-.272-.194-.851-.302l-1.618-.308q-1.395-.253-2.077-.936-.682-.688-.676-1.75-.006-.93.495-1.588.501-.664 1.425-1.014.923-.35 2.179-.35 1.884 0 2.97.79 1.087.785 1.202 2.162"/></g><defs><filter id="b" width="52.858" height="51.429" x="6.286" y="2.286" color-interpolation-filters="sRGB" filterUnits="userSpaceOnUse"><feFlood flood-opacity="0" result="BackgroundImageFix"/><feColorMatrix in="SourceAlpha" result="hardAlpha" values="0 0 0 0 0 0 0 0 0 0 0 0 0 0 0 0 0 0 127 0"/><feOffset/><feGaussianBlur stdDeviation="2.857"/><feComposite in2="hardAlpha" operator="out"/><feColorMatrix values="0 0 0 0 0 0 0 0 0 0 0 0 0 0 0 0 0 0 0.25 0"/><feBlend in2="BackgroundImageFix" result="effect1_dropShadow_2_896"/><feBlend in="SourceGraphic" in2="effect1_dropShadow_2_896" result="shape"/></filter><filter id="c" width="83.2" height="48.677" x="54.4" y="3.9" color-interpolation-filters="sRGB" filterUnits="userSpaceOnUse"><feFlood flood-opacity="0" result="BackgroundImageFix"/><feColorMatrix in="SourceAlpha" result="hardAlpha" values="0 0 0 0 0 0 0 0 0 0 0 0 0 0 0 0 0 0 127 0"/><feOffset/><feGaussianBlur stdDeviation="2.8"/><feComposite in2="hardAlpha" operator="out"/><feColorMatrix values="0 0 0 0 0 0 0 0 0 0 0 0 0 0 0 0 0 0 0.25 0"/><feBlend in2="BackgroundImageFix" result="effect1_dropShadow_2_896"/><feBlend in="SourceGraphic" in2="effect1_dropShadow_2_896" result="shape"/></filter><linearGradient id="a" x1="72" x2="72" y1="0" y2="56" gradientUnits="userSpaceOnUse"><stop stop-color="#0c3826"/><stop offset="1" stop-color="#052115"/></linearGradient></defs></svg>