<svg xmlns="http://www.w3.org/2000/svg" width="144" height="56" fill="none" viewBox="0 0 144 56"><rect width="144" height="56" fill="url(#a)" rx="8"/><rect width="141.9" height="53.9" x="1.05" y="1.05" stroke="#fff" stroke-opacity=".15" stroke-width="2.1" rx="6.95"/><g filter="url(#b)"><path fill="url(#c)" d="M31.762 8a28 28 0 0 0-4.61.39c-4.083.713-4.825 2.206-4.825 4.96v3.637h9.648v1.212H18.708c-2.805 0-5.26 1.667-6.028 4.838-.886 3.635-.925 5.904 0 9.699.686 2.825 2.324 4.838 5.128 4.838h3.317v-4.36c0-3.15 2.756-5.928 6.028-5.928h9.636c2.683 0 4.824-2.185 4.824-4.85V13.35c0-2.586-2.205-4.529-4.824-4.96A30.4 30.4 0 0 0 31.762 8m-5.218 2.925c.997 0 1.81.818 1.81 1.824a1.81 1.81 0 1 1-3.62 0c0-1.005.81-1.824 1.81-1.824"/><path fill="url(#d)" d="M42.816 18.2v4.237c0 3.285-2.816 6.05-6.028 6.05h-9.636c-2.64 0-4.825 2.235-4.825 4.85v9.086c0 2.586 2.274 4.107 4.824 4.85 3.055.887 5.983 1.048 9.637 0 2.43-.696 4.824-2.096 4.824-4.85v-3.637h-9.637v-1.212h14.462c2.803 0 3.848-1.935 4.824-4.838 1.007-2.99.964-5.864 0-9.699-.693-2.76-2.017-4.838-4.824-4.838zm-5.42 23.01c1 0 1.81.811 1.81 1.814 0 1.006-.81 1.824-1.81 1.824a1.82 1.82 0 0 1-1.81-1.824c0-1.003.813-1.813 1.81-1.813"/></g><g filter="url(#e)"><path fill="#e8e8e8" d="M61.278 24.5V12.864h4.262q1.239 0 2.05.409.814.403 1.217 1.096.403.688.403 1.552 0 .726-.267 1.227a2.2 2.2 0 0 1-.716.795q-.442.296-.977.432v.114a2.3 2.3 0 0 1 1.13.375q.558.34.921.971.364.63.364 1.534 0 .893-.42 1.603-.415.704-1.285 1.119-.87.41-2.221.409zm1.756-1.506h2.534q1.261 0 1.807-.488.546-.489.546-1.222 0-.55-.279-1.011a2 2 0 0 0-.795-.733q-.512-.273-1.216-.273h-2.597zm0-5.096h2.352q.592 0 1.063-.227a1.86 1.86 0 0 0 .755-.637q.285-.414.285-.977 0-.722-.506-1.21-.506-.489-1.551-.489h-2.398zM77.14 20.88v-5.108h1.705V24.5h-1.67v-1.511h-.092q-.3.698-.965 1.164-.66.46-1.643.46-.84 0-1.488-.369-.642-.375-1.012-1.108-.363-.732-.363-1.812v-5.551h1.699v5.346q0 .893.494 1.42.494.53 1.284.53.478 0 .949-.24.477-.239.79-.721.318-.483.312-1.227m3.987 3.619v-8.727h1.7V24.5zm.858-10.074a1.08 1.08 0 0 1-.761-.295.96.96 0 0 1-.312-.716q0-.421.312-.716.318-.3.761-.301.444 0 .756.3a.94.94 0 0 1 .318.717.95.95 0 0 1-.318.716 1.06 1.06 0 0 1-.756.295m4.826-1.562V24.5h-1.7V12.864zm6.359 2.909v1.363h-4.767v-1.363zm-3.489-2.091h1.7v8.256q0 .493.147.744a.77.77 0 0 0 .38.335q.24.085.518.085.204 0 .358-.028l.238-.046.307 1.404a3 3 0 0 1-.42.114q-.274.062-.682.068a3 3 0 0 1-1.25-.239 2.15 2.15 0 0 1-.938-.773q-.357-.523-.358-1.312zM101.175 24.5l-2.568-8.727h1.755l1.71 6.409h.086l1.716-6.41h1.755l1.705 6.381h.085l1.699-6.38h1.756l-2.563 8.727h-1.733l-1.773-6.301h-.13l-1.773 6.301zm11.311 0v-8.727h1.699V24.5zm.858-10.074a1.08 1.08 0 0 1-.762-.295.96.96 0 0 1-.312-.716.95.95 0 0 1 .312-.716q.318-.3.762-.301.443 0 .755.3a.94.94 0 0 1 .319.717.95.95 0 0 1-.319.716q-.312.295-.755.295m7.2 1.347v1.363h-4.767v-1.363zm-3.489-2.091h1.699v8.256q0 .493.148.744a.77.77 0 0 0 .381.335q.238.085.517.085a2 2 0 0 0 .358-.028l.238-.046.307 1.404a3 3 0 0 1-.42.114 3.3 3.3 0 0 1-.682.068 3 3 0 0 1-1.25-.239 2.14 2.14 0 0 1-.938-.773q-.358-.523-.358-1.312zm7.255 5.636V24.5h-1.699V12.864h1.676v4.33h.108q.306-.706.937-1.12t1.648-.415q.898 0 1.568.37.677.369 1.046 1.102.375.727.375 1.818V24.5h-1.699v-5.347q0-.96-.494-1.488-.495-.534-1.375-.534a2.25 2.25 0 0 0-1.08.255q-.471.255-.744.75-.267.489-.267 1.182"/><path fill="#fff" d="M60.936 43.5V31.136h5.107q1.388 0 2.397.544 1.014.537 1.563 1.503.55.96.55 2.233 0 1.28-.562 2.24-.556.954-1.588 1.48-1.032.525-2.45.524H62.8v-2.354h2.596q.675 0 1.129-.235.459-.236.694-.658.236-.429.236-.996 0-.575-.236-.99a1.6 1.6 0 0 0-.694-.652q-.459-.23-1.129-.23h-1.473V43.5zm12.895 3.477q-.532 0-1.002-.084a4 4 0 0 1-.81-.212l.652-2.143q.435.145.785.17.357.023.61-.115.26-.133.398-.477l.115-.278-3.296-9.61h3.09l1.71 6.616h.096l1.733-6.617h3.109l-3.496 10.16a4.3 4.3 0 0 1-.718 1.34 3.1 3.1 0 0 1-1.19.918q-.724.332-1.786.332m13.555-12.75v2.174h-5.85v-2.174zm-4.624-2.221h2.952v8.578q0 .272.085.44.09.165.26.236.168.067.404.067.169 0 .356-.03a5 5 0 0 0 .29-.06l.447 2.13q-.211.06-.598.151a5 5 0 0 1-.912.115q-1.038.048-1.78-.242a2.3 2.3 0 0 1-1.13-.917q-.386-.622-.374-1.564zm9.282 6.206V43.5h-2.952V31.136h2.855v4.794h.103a2.7 2.7 0 0 1 1.026-1.34q.72-.484 1.757-.484.978 0 1.703.435a2.9 2.9 0 0 1 1.122 1.214q.405.785.399 1.835v5.91h-2.952v-5.33q.006-.773-.387-1.208-.392-.435-1.104-.435-.465 0-.821.206a1.4 1.4 0 0 0-.55.573q-.192.375-.199.906m12.184 5.463q-1.461 0-2.511-.598a4.1 4.1 0 0 1-1.612-1.678q-.561-1.08-.562-2.505 0-1.432.562-2.505a4.07 4.07 0 0 1 1.612-1.679q1.05-.603 2.511-.604 1.461 0 2.505.604a4 4 0 0 1 1.612 1.678q.568 1.075.568 2.506 0 1.425-.568 2.505a4.07 4.07 0 0 1-1.612 1.678q-1.044.598-2.505.598m.018-2.228q.531 0 .9-.326.368-.326.561-.905.2-.58.199-1.34 0-.773-.199-1.353-.194-.58-.561-.905a1.3 1.3 0 0 0-.9-.326q-.549 0-.93.326-.373.327-.573.905-.193.58-.193 1.353 0 .76.193 1.34.2.58.573.905.381.327.93.326m9.131-3.235V43.5h-2.952v-9.273h2.807v1.703h.103a2.6 2.6 0 0 1 1.05-1.334q.743-.49 1.769-.49.978 0 1.696.441.725.435 1.123 1.22.405.779.399 1.823v5.91h-2.952v-5.33q.006-.773-.393-1.208-.392-.435-1.092-.435-.465 0-.821.206a1.36 1.36 0 0 0-.544.573q-.187.375-.193.906"/></g><defs><linearGradient id="a" x1="23" x2="120" y1="0" y2="56" gradientUnits="userSpaceOnUse"><stop stop-color="#152b3e"/><stop offset="1" stop-color="#282208"/></linearGradient><linearGradient id="c" x1="12" x2="34.042" y1="8" y2="26.99" gradientUnits="userSpaceOnUse"><stop stop-color="#5a9fd4"/><stop offset="1" stop-color="#306998"/></linearGradient><linearGradient id="d" x1="37.164" x2="29.298" y1="42.718" y2="31.574" gradientUnits="userSpaceOnUse"><stop stop-color="#ffd43b"/><stop offset="1" stop-color="#ffe873"/></linearGradient><filter id="b" width="51.429" height="51.429" x="6.286" y="2.286" color-interpolation-filters="sRGB" filterUnits="userSpaceOnUse"><feFlood flood-opacity="0" result="BackgroundImageFix"/><feColorMatrix in="SourceAlpha" result="hardAlpha" values="0 0 0 0 0 0 0 0 0 0 0 0 0 0 0 0 0 0 127 0"/><feOffset/><feGaussianBlur stdDeviation="2.857"/><feComposite in2="hardAlpha" operator="out"/><feColorMatrix values="0 0 0 0 0 0 0 0 0 0 0 0 0 0 0 0 0 0 0.25 0"/><feBlend in2="BackgroundImageFix" result="effect1_dropShadow_2_3624"/><feBlend in="SourceGraphic" in2="effect1_dropShadow_2_3624" result="shape"/></filter><filter id="e" width="83.2" height="48.677" x="54.4" y="3.9" color-interpolation-filters="sRGB" filterUnits="userSpaceOnUse"><feFlood flood-opacity="0" result="BackgroundImageFix"/><feColorMatrix in="SourceAlpha" result="hardAlpha" values="0 0 0 0 0 0 0 0 0 0 0 0 0 0 0 0 0 0 127 0"/><feOffset/><feGaussianBlur stdDeviation="2.8"/><feComposite in2="hardAlpha" operator="out"/><feColorMatrix values="0 0 0 0 0 0 0 0 0 0 0 0 0 0 0 0 0 0 0.25 0"/><feBlend in2="BackgroundImageFix" result="effect1_dropShadow_2_3624"/><feBlend in="SourceGraphic" in2="effect1_dropShadow_2_3624" result="shape"/></filter></defs></svg>