<svg xmlns="http://www.w3.org/2000/svg" width="144" height="56" fill="none" viewBox="0 0 144 56"><rect width="144" height="56" fill="url(#a)" rx="8"/><rect width="141.9" height="53.9" x="1.05" y="1.05" stroke="#fff" stroke-opacity=".15" stroke-width="2.1" rx="6.95"/><g filter="url(#b)"><path fill="#61dafb" d="M35.717 28.005a3.97 3.97 0 0 1-1.09 2.746 3.65 3.65 0 0 1-2.635 1.14c-.988 0-1.936-.41-2.635-1.139a3.97 3.97 0 0 1-1.092-2.747c0-1.03.393-2.019 1.091-2.747a3.65 3.65 0 0 1 2.634-1.139c.989 0 1.937.41 2.636 1.138a3.97 3.97 0 0 1 1.091 2.748M40.13 9.429c-2.243 0-5.178 1.668-8.146 4.556-2.967-2.872-5.904-4.521-8.145-4.521-.684 0-1.305.161-1.844.483-2.291 1.378-2.805 5.671-1.621 11.06C15.3 22.64 12 25.252 12 28.005c0 2.762 3.317 5.381 8.405 7.002-1.173 5.41-.65 9.71 1.647 11.087.533.325 1.15.478 1.837.478 2.241 0 5.178-1.669 8.146-4.56 2.967 2.874 5.904 4.523 8.145 4.523.684 0 1.305-.156 1.844-.478 2.29-1.376 2.805-5.67 1.621-11.06C48.7 33.377 52 30.761 52 28.005c0-2.763-3.316-5.382-8.405-7.007 1.174-5.404.65-9.708-1.646-11.086-.53-.32-1.147-.481-1.82-.483zm-.008 1.894v.01c.375 0 .677.077.93.221 1.11.664 1.592 3.189 1.217 6.436-.09.8-.237 1.643-.417 2.503a38 38 0 0 0-5.178-.928 41 41 0 0 0-3.392-4.252c2.653-2.572 5.145-3.983 6.842-3.988zm-16.283.035c1.686 0 4.19 1.404 6.85 3.962a40 40 0 0 0-3.367 4.243c-1.845.203-3.59.518-5.188.935a27 27 0 0 1-.424-2.468c-.383-3.246.09-5.769 1.19-6.441.317-.157.667-.22.939-.23zm8.136 5.3a34 34 0 0 1 2.267 2.717A47 47 0 0 0 32 19.316c-.766 0-1.525.018-2.266.06a33 33 0 0 1 2.241-2.72zM32 21.22c1.234 0 2.462.059 3.67.161a46 46 0 0 1 1.972 3.232 44 44 0 0 1 1.697 3.382 48 48 0 0 1-1.689 3.388 44 44 0 0 1-1.966 3.25 41 41 0 0 1-3.684.17 44 44 0 0 1-3.67-.162 47 47 0 0 1-1.971-3.232 44 44 0 0 1-1.697-3.381 45 45 0 0 1 1.688-3.395 44 44 0 0 1 1.967-3.247 40 40 0 0 1 3.683-.17zm-6.058.441c-.4.655-.8 1.326-1.173 2.016a46 46 0 0 0-1.059 2.04 37 37 0 0 1-1.126-3.383 39 39 0 0 1 3.358-.671zm12.1 0c1.158.18 2.275.4 3.343.673a38 38 0 0 1-1.1 3.358 46 46 0 0 0-2.242-4.031zm5.105 1.173q1.212.391 2.292.865c2.886 1.286 4.753 2.968 4.753 4.303-.008 1.334-1.875 3.023-4.762 4.3-.7.313-1.466.595-2.258.857a43 43 0 0 0-1.833-5.178 42 42 0 0 0 1.808-5.15zm-22.325.007a42 42 0 0 0 1.833 5.178 41 41 0 0 0-1.81 5.15 23 23 0 0 1-2.283-.868c-2.887-1.28-4.753-2.965-4.753-4.3s1.866-3.026 4.753-4.302c.7-.312 1.467-.594 2.26-.858m19.463 7.437c.442 1.142.817 2.28 1.127 3.385a34 34 0 0 1-3.36.678 45 45 0 0 0 2.235-4.063zm-16.575.035c.334.681.684 1.36 1.067 2.042q.575 1.017 1.175 1.986a35 35 0 0 1-3.343-.67 39 39 0 0 1 1.1-3.36zm18.157 5.19c.187.857.333 1.683.423 2.473.384 3.246-.09 5.77-1.19 6.444-.245.156-.563.222-.938.222-1.687 0-4.19-1.402-6.85-3.962a40 40 0 0 0 3.367-4.24 37 37 0 0 0 5.188-.938zm-19.717.018c1.6.406 3.344.72 5.179.924a41 41 0 0 0 3.391 4.25c-2.658 2.578-5.153 3.989-6.85 3.989-.366-.01-.676-.087-.921-.23-1.11-.66-1.592-3.187-1.217-6.434.09-.8.237-1.64.417-2.5zm7.6 1.112c.734.035 1.484.059 2.242.059.767 0 1.525-.017 2.267-.06a33 33 0 0 1-2.242 2.72 35 35 0 0 1-2.267-2.72"/></g><g filter="url(#c)"><path fill="#e8e8e8" d="M61.278 24.5V12.864h4.262q1.239 0 2.05.409.814.403 1.217 1.096.403.688.403 1.552 0 .726-.267 1.227a2.2 2.2 0 0 1-.716.795q-.442.296-.977.432v.114a2.3 2.3 0 0 1 1.13.375q.558.34.921.971.364.63.364 1.534 0 .893-.42 1.603-.415.704-1.285 1.119-.87.41-2.221.409zm1.756-1.506h2.534q1.261 0 1.807-.488.546-.489.546-1.222 0-.55-.279-1.011a2 2 0 0 0-.795-.733q-.512-.273-1.216-.273h-2.597zm0-5.096h2.352q.592 0 1.063-.227a1.86 1.86 0 0 0 .755-.637q.285-.414.285-.977 0-.722-.506-1.21-.506-.489-1.551-.489h-2.398zM77.14 20.88v-5.108h1.705V24.5h-1.67v-1.511h-.092q-.3.698-.965 1.164-.66.46-1.643.46-.84 0-1.488-.369-.642-.375-1.012-1.108-.363-.732-.363-1.812v-5.551h1.699v5.346q0 .893.494 1.42.494.53 1.284.53.478 0 .949-.24.477-.239.79-.721.318-.483.312-1.227m3.987 3.619v-8.727h1.7V24.5zm.858-10.074a1.08 1.08 0 0 1-.761-.295.96.96 0 0 1-.312-.716q0-.421.312-.716.318-.3.761-.301.444 0 .756.3a.94.94 0 0 1 .318.717.95.95 0 0 1-.318.716 1.06 1.06 0 0 1-.756.295m4.826-1.562V24.5h-1.7V12.864zm6.359 2.909v1.363h-4.767v-1.363zm-3.489-2.091h1.7v8.256q0 .493.147.744a.77.77 0 0 0 .38.335q.24.085.518.085.204 0 .358-.028l.238-.046.307 1.404a3 3 0 0 1-.42.114q-.274.062-.682.068a3 3 0 0 1-1.25-.239 2.15 2.15 0 0 1-.938-.773q-.357-.523-.358-1.312zM101.175 24.5l-2.568-8.727h1.755l1.71 6.409h.086l1.716-6.41h1.755l1.705 6.381h.085l1.699-6.38h1.756l-2.563 8.727h-1.733l-1.773-6.301h-.13l-1.773 6.301zm11.311 0v-8.727h1.699V24.5zm.858-10.074a1.08 1.08 0 0 1-.762-.295.96.96 0 0 1-.312-.716.95.95 0 0 1 .312-.716q.318-.3.762-.301.443 0 .755.3a.94.94 0 0 1 .319.717.95.95 0 0 1-.319.716q-.312.295-.755.295m7.2 1.347v1.363h-4.767v-1.363zm-3.489-2.091h1.699v8.256q0 .493.148.744a.77.77 0 0 0 .381.335q.238.085.517.085a2 2 0 0 0 .358-.028l.238-.046.307 1.404a3 3 0 0 1-.42.114 3.3 3.3 0 0 1-.682.068 3 3 0 0 1-1.25-.239 2.14 2.14 0 0 1-.938-.773q-.358-.523-.358-1.312zm7.255 5.636V24.5h-1.699V12.864h1.676v4.33h.108q.306-.706.937-1.12t1.648-.415q.898 0 1.568.37.677.369 1.046 1.102.375.727.375 1.818V24.5h-1.699v-5.347q0-.96-.494-1.488-.495-.534-1.375-.534a2.25 2.25 0 0 0-1.08.255q-.471.255-.744.75-.267.489-.267 1.182"/><path fill="#61dafb" d="M60.936 43.5V31.136h5.107q1.388 0 2.397.501 1.014.495 1.563 1.425.55.924.55 2.192 0 1.285-.562 2.185-.56.893-1.594 1.364-1.032.465-2.445.465h-3.23v-2.354h2.675q.675 0 1.129-.175a1.42 1.42 0 0 0 .694-.544q.236-.368.236-.941 0-.575-.236-.948a1.4 1.4 0 0 0-.694-.568q-.459-.193-1.129-.193h-1.473V43.5zm6.96-5.65 3.08 5.65h-3.26l-3.02-5.65zm8.448 5.825q-1.456 0-2.512-.573a3.97 3.97 0 0 1-1.618-1.648q-.561-1.075-.561-2.554 0-1.437.567-2.511.568-1.08 1.6-1.679 1.033-.603 2.433-.604.99 0 1.811.308.82.309 1.419.912.597.604.93 1.491.33.882.331 2.023v.736h-8.059v-1.715h5.313a1.66 1.66 0 0 0-.224-.839 1.5 1.5 0 0 0-.597-.573 1.7 1.7 0 0 0-.864-.211q-.495 0-.887.223a1.68 1.68 0 0 0-.863 1.449v1.745q0 .567.223.996.223.421.634.658.41.235.978.235.392 0 .712-.109.32-.108.55-.32a1.3 1.3 0 0 0 .344-.519l2.71.079a3.35 3.35 0 0 1-.742 1.587q-.569.67-1.491 1.045-.924.368-2.137.368m8.522-.018q-.887 0-1.576-.296a2.45 2.45 0 0 1-1.08-.905q-.392-.61-.392-1.528 0-.773.271-1.304t.749-.863a3.5 3.5 0 0 1 1.098-.501 7 7 0 0 1 1.329-.235q.79-.074 1.273-.151.484-.085.7-.236a.51.51 0 0 0 .224-.44v-.03q0-.465-.32-.72-.32-.252-.863-.253-.586 0-.942.254a1.12 1.12 0 0 0-.453.7l-2.722-.096q.12-.846.621-1.51.507-.67 1.389-1.05.887-.387 2.13-.387.888 0 1.637.212.749.205 1.304.604.555.392.857.965.308.575.308 1.31V43.5h-2.777v-1.292h-.072q-.248.471-.634.797-.381.326-.9.489a3.8 3.8 0 0 1-1.159.163m.912-1.932q.477 0 .857-.193.386-.194.616-.531.23-.344.23-.797v-.882a2 2 0 0 1-.309.121 5 5 0 0 1-.386.103q-.212.048-.435.084l-.428.067a2.7 2.7 0 0 0-.713.205 1.1 1.1 0 0 0-.447.362.9.9 0 0 0-.15.52q0 .458.326.7.33.24.839.241m10.763 1.95q-1.466 0-2.517-.604a4.1 4.1 0 0 1-1.606-1.678q-.561-1.08-.561-2.5 0-1.424.561-2.498a4.1 4.1 0 0 1 1.612-1.685q1.05-.603 2.505-.604 1.287 0 2.24.465.96.465 1.497 1.316.544.846.574 1.987h-2.759q-.084-.713-.483-1.117-.393-.405-1.026-.405-.513 0-.9.29-.386.284-.603.845-.212.556-.212 1.377 0 .82.212 1.388.217.561.603.851.387.285.9.284.41 0 .724-.175.32-.175.525-.513.206-.344.26-.833h2.759q-.042 1.146-.574 2.004a3.55 3.55 0 0 1-1.479 1.334q-.948.471-2.252.471m11.05-9.448v2.174h-5.85v-2.174zm-4.625-2.221h2.952v8.578q0 .272.085.44.09.165.26.236a1.1 1.1 0 0 0 .404.067q.169 0 .356-.03.194-.038.29-.06l.447 2.13q-.211.06-.598.151a5 5 0 0 1-.912.115q-1.038.048-1.78-.242a2.3 2.3 0 0 1-1.129-.917q-.387-.622-.375-1.564z"/></g><defs><filter id="b" width="51.429" height="51.429" x="6.286" y="2.286" color-interpolation-filters="sRGB" filterUnits="userSpaceOnUse"><feFlood flood-opacity="0" result="BackgroundImageFix"/><feColorMatrix in="SourceAlpha" result="hardAlpha" values="0 0 0 0 0 0 0 0 0 0 0 0 0 0 0 0 0 0 127 0"/><feOffset/><feGaussianBlur stdDeviation="2.857"/><feComposite in2="hardAlpha" operator="out"/><feColorMatrix values="0 0 0 0 0 0 0 0 0 0 0 0 0 0 0 0 0 0 0.25 0"/><feBlend in2="BackgroundImageFix" result="effect1_dropShadow_2_903"/><feBlend in="SourceGraphic" in2="effect1_dropShadow_2_903" result="shape"/></filter><filter id="c" width="83.2" height="48.2" x="54.4" y="3.9" color-interpolation-filters="sRGB" filterUnits="userSpaceOnUse"><feFlood flood-opacity="0" result="BackgroundImageFix"/><feColorMatrix in="SourceAlpha" result="hardAlpha" values="0 0 0 0 0 0 0 0 0 0 0 0 0 0 0 0 0 0 127 0"/><feOffset/><feGaussianBlur stdDeviation="2.8"/><feComposite in2="hardAlpha" operator="out"/><feColorMatrix values="0 0 0 0 0 0 0 0 0 0 0 0 0 0 0 0 0 0 0.25 0"/><feBlend in2="BackgroundImageFix" result="effect1_dropShadow_2_903"/><feBlend in="SourceGraphic" in2="effect1_dropShadow_2_903" result="shape"/></filter><linearGradient id="a" x1="72" x2="72" y1="0" y2="56" gradientUnits="userSpaceOnUse"><stop stop-color="#0f343e"/><stop offset="1" stop-color="#072027"/></linearGradient></defs></svg>