<svg xmlns="http://www.w3.org/2000/svg" width="144" height="56" fill="none" viewBox="0 0 144 56"><rect width="144" height="56" fill="url(#a)" rx="8"/><rect width="141.9" height="53.9" x="1.05" y="1.05" stroke="#fff" stroke-opacity=".15" stroke-width="2.1" rx="6.95"/><g filter="url(#b)"><g clip-path="url(#c)"><path fill="#cd6699" fill-rule="evenodd" d="M32 8c11.046 0 20 8.954 20 20s-8.954 20-20 20-20-8.954-20-20S20.954 8 32 8" clip-rule="evenodd"/><path fill="#fff" d="M28.026 34.662c.29 1.076.259 2.08-.042 2.99a5 5 0 0 1-.24.59 5.5 5.5 0 0 1-.923 1.347c-1.162 1.268-2.786 1.748-3.482 1.344-.752-.436-.375-2.224.972-3.648 1.45-1.532 3.535-2.517 3.535-2.517l-.003-.006zm16.52-18.102c-.906-3.552-6.796-4.72-12.37-2.74-3.318 1.18-6.909 3.029-9.491 5.444-3.07 2.872-3.56 5.372-3.358 6.416.712 3.685 5.761 6.094 7.837 7.881v.011c-.612.301-5.092 2.569-6.14 4.886-1.107 2.446.176 4.2 1.025 4.437 2.63.731 5.33-.585 6.78-2.749 1.4-2.088 1.283-4.784.675-6.125.839-.222 1.817-.32 3.06-.176 3.509.41 4.197 2.6 4.066 3.517s-.868 1.421-1.114 1.574c-.246.152-.32.205-.3.318.03.164.144.158.353.123.29-.05 1.843-.746 1.909-2.439.085-2.148-1.974-4.552-5.62-4.489-1.502.026-2.446.169-3.128.423l-.155-.172c-2.254-2.404-6.42-4.105-6.244-7.338.065-1.175.473-4.27 8.007-8.024 6.171-3.075 11.111-2.229 11.965-.354 1.22 2.68-2.64 7.66-9.05 8.378-2.44.274-3.727-.673-4.046-1.025-.337-.371-.387-.388-.513-.318-.205.113-.075.44 0 .636.191.498.977 1.381 2.315 1.82 1.178.387 4.045.6 7.512-.742 3.883-1.502 6.915-5.68 6.025-9.173"/></g></g><g filter="url(#d)"><path fill="#e8e8e8" d="M61.278 24.5V12.864h4.262q1.239 0 2.05.409.814.403 1.217 1.096.403.688.403 1.552 0 .726-.267 1.227a2.2 2.2 0 0 1-.716.795q-.442.296-.977.432v.114a2.3 2.3 0 0 1 1.13.375q.558.34.921.971.364.63.364 1.534 0 .893-.42 1.603-.415.704-1.285 1.119-.87.41-2.221.409zm1.756-1.506h2.534q1.261 0 1.807-.488.546-.489.546-1.222 0-.55-.279-1.011a2 2 0 0 0-.795-.733q-.512-.273-1.216-.273h-2.597zm0-5.096h2.352q.592 0 1.063-.227a1.86 1.86 0 0 0 .755-.637q.285-.414.285-.977 0-.722-.506-1.21-.506-.489-1.551-.489h-2.398zM77.14 20.88v-5.108h1.705V24.5h-1.67v-1.511h-.092q-.3.698-.965 1.164-.66.46-1.643.46-.84 0-1.488-.369-.642-.375-1.012-1.108-.363-.732-.363-1.812v-5.551h1.699v5.346q0 .893.494 1.42.494.53 1.284.53.478 0 .949-.24.477-.239.79-.721.318-.483.312-1.227m3.987 3.619v-8.727h1.7V24.5zm.858-10.074a1.08 1.08 0 0 1-.761-.295.96.96 0 0 1-.312-.716q0-.421.312-.716.318-.3.761-.301.444 0 .756.3a.94.94 0 0 1 .318.717.95.95 0 0 1-.318.716 1.06 1.06 0 0 1-.756.295m4.826-1.562V24.5h-1.7V12.864zm6.359 2.909v1.363h-4.767v-1.363zm-3.489-2.091h1.7v8.256q0 .493.147.744a.77.77 0 0 0 .38.335q.24.085.518.085.204 0 .358-.028l.238-.046.307 1.404a3 3 0 0 1-.42.114q-.274.062-.682.068a3 3 0 0 1-1.25-.239 2.15 2.15 0 0 1-.938-.773q-.357-.523-.358-1.312zM101.175 24.5l-2.568-8.727h1.755l1.71 6.409h.086l1.716-6.41h1.755l1.705 6.381h.085l1.699-6.38h1.756l-2.563 8.727h-1.733l-1.773-6.301h-.13l-1.773 6.301zm11.311 0v-8.727h1.699V24.5zm.858-10.074a1.08 1.08 0 0 1-.762-.295.96.96 0 0 1-.312-.716.95.95 0 0 1 .312-.716q.318-.3.762-.301.443 0 .755.3a.94.94 0 0 1 .319.717.95.95 0 0 1-.319.716q-.312.295-.755.295m7.2 1.347v1.363h-4.767v-1.363zm-3.489-2.091h1.699v8.256q0 .493.148.744a.77.77 0 0 0 .381.335q.238.085.517.085a2 2 0 0 0 .358-.028l.238-.046.307 1.404a3 3 0 0 1-.42.114 3.3 3.3 0 0 1-.682.068 3 3 0 0 1-1.25-.239 2.14 2.14 0 0 1-.938-.773q-.358-.523-.358-1.312zm7.255 5.636V24.5h-1.699V12.864h1.676v4.33h.108q.306-.706.937-1.12t1.648-.415q.898 0 1.568.37.677.369 1.046 1.102.375.727.375 1.818V24.5h-1.699v-5.347q0-.96-.494-1.488-.495-.534-1.375-.534a2.25 2.25 0 0 0-1.08.255q-.471.255-.744.75-.267.489-.267 1.182"/><path fill="#cd6699" d="M67.619 34.843q-.06-.665-.538-1.032-.47-.375-1.346-.375-.579 0-.966.151-.385.151-.58.417a1 1 0 0 0-.199.598.9.9 0 0 0 .11.489q.126.21.361.374.242.157.58.277.338.122.76.212l1.063.241a7.5 7.5 0 0 1 1.618.532q.706.331 1.183.79.484.459.73 1.057.248.597.254 1.34-.006 1.17-.591 2.01t-1.685 1.286q-1.093.447-2.638.447-1.552 0-2.704-.465-1.154-.464-1.793-1.413-.64-.947-.658-2.396h2.861q.035.597.32.996t.779.604q.5.204 1.159.205.603 0 1.026-.163.429-.163.658-.453a1.07 1.07 0 0 0 .236-.664.92.92 0 0 0-.218-.598q-.21-.254-.652-.434-.435-.188-1.11-.344l-1.292-.302q-1.606-.369-2.53-1.19-.924-.825-.917-2.233-.007-1.148.615-2.01.622-.864 1.72-1.347 1.1-.483 2.506-.483 1.438 0 2.493.49 1.063.482 1.648 1.358.586.875.598 2.028zm7.153 8.814q-.887 0-1.575-.296a2.45 2.45 0 0 1-1.08-.905q-.394-.61-.393-1.528 0-.773.271-1.304.272-.531.749-.863a3.5 3.5 0 0 1 1.099-.501 7 7 0 0 1 1.328-.235q.79-.074 1.274-.151.483-.085.7-.236a.51.51 0 0 0 .223-.44v-.03q0-.465-.32-.72-.319-.252-.863-.253-.585 0-.942.254a1.12 1.12 0 0 0-.453.7l-2.722-.096a3.2 3.2 0 0 1 .622-1.51q.506-.67 1.388-1.05.888-.387 2.131-.387.888 0 1.636.212.75.205 1.304.604.555.392.857.965.309.575.308 1.31V43.5h-2.777v-1.292h-.072q-.248.471-.634.797-.38.326-.9.489a3.8 3.8 0 0 1-1.159.163m.912-1.932q.477 0 .857-.193.387-.194.616-.531.23-.344.23-.797v-.882a2 2 0 0 1-.308.121 5 5 0 0 1-.387.103 7 7 0 0 1-.434.084q-.224.036-.43.067a2.7 2.7 0 0 0-.712.205 1.1 1.1 0 0 0-.446.362.9.9 0 0 0-.151.52q0 .458.326.7.331.24.839.241m14.53-4.666-2.71.072a1 1 0 0 0-.23-.513 1.2 1.2 0 0 0-.488-.356 1.7 1.7 0 0 0-.688-.133q-.513 0-.876.205-.356.205-.35.556a.6.6 0 0 0 .218.47q.228.2.814.32l1.787.339q1.389.265 2.065.88.682.617.688 1.63-.006.955-.567 1.661-.556.706-1.521 1.099-.966.386-2.21.386-1.986 0-3.133-.815-1.141-.821-1.304-2.197l2.916-.073q.096.507.5.773.405.266 1.033.266.567 0 .924-.212.356-.21.362-.561a.6.6 0 0 0-.278-.501q-.271-.194-.851-.302l-1.618-.308q-1.395-.253-2.077-.936-.682-.688-.676-1.75-.006-.93.495-1.588.502-.664 1.425-1.014t2.18-.35q1.883 0 2.97.79 1.086.785 1.2 2.162m9.78 0-2.711.072a1 1 0 0 0-.23-.513 1.24 1.24 0 0 0-.489-.356 1.7 1.7 0 0 0-.688-.133q-.513 0-.875.205-.357.205-.35.556a.6.6 0 0 0 .217.47q.229.2.815.32l1.787.339q1.388.265 2.064.88.683.617.689 1.63a2.62 2.62 0 0 1-.568 1.661q-.555.706-1.521 1.099-.966.386-2.21.386-1.986 0-3.133-.815-1.14-.821-1.304-2.197l2.916-.073q.096.507.501.773t1.032.266q.568 0 .924-.212.356-.21.362-.561a.6.6 0 0 0-.277-.501q-.272-.194-.852-.302l-1.618-.308q-1.394-.253-2.076-.936-.682-.688-.676-1.75-.007-.93.495-1.588.5-.664 1.424-1.014t2.18-.35q1.883 0 2.97.79 1.087.785 1.201 2.162"/></g><defs><filter id="b" width="51.429" height="51.429" x="6.286" y="2.286" color-interpolation-filters="sRGB" filterUnits="userSpaceOnUse"><feFlood flood-opacity="0" result="BackgroundImageFix"/><feColorMatrix in="SourceAlpha" result="hardAlpha" values="0 0 0 0 0 0 0 0 0 0 0 0 0 0 0 0 0 0 127 0"/><feOffset/><feGaussianBlur stdDeviation="2.857"/><feComposite in2="hardAlpha" operator="out"/><feColorMatrix values="0 0 0 0 0 0 0 0 0 0 0 0 0 0 0 0 0 0 0.25 0"/><feBlend in2="BackgroundImageFix" result="effect1_dropShadow_2_3639"/><feBlend in="SourceGraphic" in2="effect1_dropShadow_2_3639" result="shape"/></filter><filter id="d" width="83.2" height="48.2" x="54.4" y="3.9" color-interpolation-filters="sRGB" filterUnits="userSpaceOnUse"><feFlood flood-opacity="0" result="BackgroundImageFix"/><feColorMatrix in="SourceAlpha" result="hardAlpha" values="0 0 0 0 0 0 0 0 0 0 0 0 0 0 0 0 0 0 127 0"/><feOffset/><feGaussianBlur stdDeviation="2.8"/><feComposite in2="hardAlpha" operator="out"/><feColorMatrix values="0 0 0 0 0 0 0 0 0 0 0 0 0 0 0 0 0 0 0.25 0"/><feBlend in2="BackgroundImageFix" result="effect1_dropShadow_2_3639"/><feBlend in="SourceGraphic" in2="effect1_dropShadow_2_3639" result="shape"/></filter><linearGradient id="a" x1="72" x2="72" y1="0" y2="56" gradientUnits="userSpaceOnUse"><stop stop-color="#442132"/><stop offset="1" stop-color="#26121c"/></linearGradient><clipPath id="c"><path fill="#fff" d="M12 8h40v40H12z"/></clipPath></defs></svg>