<svg xmlns="http://www.w3.org/2000/svg" width="221" height="56" fill="none" viewBox="0 0 221 56"><rect width="221" height="56" fill="url(#a)" rx="8"/><rect width="218.9" height="53.9" x="1.05" y="1.05" stroke="#fff" stroke-opacity=".15" stroke-width="2.1" rx="6.95"/><g filter="url(#b)"><g filter="url(#c)"><path fill="#fff" fill-opacity=".25" d="M16.551 39.072v-3.215h9.643v3.215zm-3.214-3.215v-3.214h3.214v3.214zm12.857 0v-9.643h3.214v9.643zm-9.643-9.643V23h9.643v3.214zM13.337 23v-3.214h3.214V23zm3.214-3.214V16.57h12.857v3.215zm19.286 19.286v-3.215h9.643v3.215zm-3.215-3.215V19.786h3.215v16.071zm12.858 0V19.786h3.214v16.071zm-9.643-16.071V16.57h9.643v3.215z"/></g><path fill="#fff" d="M16.551 39.072v-3.215h9.643v3.215zm-3.214-3.215v-3.214h3.214v3.214zm12.857 0v-9.643h3.214v9.643zm-9.643-9.643V23h9.643v3.214zM13.337 23v-3.214h3.214V23zm3.214-3.214V16.57h12.857v3.215zm19.286 19.286v-3.215h9.643v3.215zm-3.215-3.215V19.786h3.215v16.071zm12.858 0V19.786h3.214v16.071zm-9.643-16.071V16.57h9.643v3.215z"/></g><g filter="url(#d)"><path fill="#e8e8e8" d="M61.278 24.5V12.864h4.262q1.239 0 2.05.409.814.403 1.217 1.096.403.688.403 1.552 0 .726-.267 1.227a2.2 2.2 0 0 1-.716.795q-.442.296-.977.432v.114a2.3 2.3 0 0 1 1.13.375q.558.34.921.971.364.63.364 1.534 0 .893-.42 1.603-.415.704-1.285 1.119-.87.41-2.221.409zm1.756-1.506h2.534q1.261 0 1.807-.488.546-.489.546-1.222 0-.55-.279-1.011a2 2 0 0 0-.795-.733q-.512-.273-1.216-.273h-2.597zm0-5.096h2.352q.592 0 1.063-.227a1.86 1.86 0 0 0 .755-.637q.285-.414.285-.977 0-.722-.506-1.21-.506-.489-1.551-.489h-2.398zM77.14 20.88v-5.108h1.705V24.5h-1.67v-1.511h-.092q-.3.698-.965 1.164-.66.46-1.643.46-.84 0-1.488-.369-.642-.375-1.012-1.108-.363-.732-.363-1.812v-5.551h1.699v5.346q0 .893.494 1.42.494.53 1.284.53.478 0 .949-.24.477-.239.79-.721.318-.483.312-1.227m3.987 3.619v-8.727h1.7V24.5zm.858-10.074a1.08 1.08 0 0 1-.761-.295.96.96 0 0 1-.312-.716q0-.421.312-.716.318-.3.761-.301.444 0 .756.3a.94.94 0 0 1 .318.717.95.95 0 0 1-.318.716 1.06 1.06 0 0 1-.756.295m4.826-1.562V24.5h-1.7V12.864zm6.359 2.909v1.363h-4.767v-1.363zm-3.489-2.091h1.7v8.256q0 .493.147.744a.77.77 0 0 0 .38.335q.24.085.518.085.204 0 .358-.028l.238-.046.307 1.404a3 3 0 0 1-.42.113q-.274.063-.682.069a3 3 0 0 1-1.25-.239 2.15 2.15 0 0 1-.938-.773q-.357-.523-.358-1.312zm13.279 10.994q-1.227 0-2.142-.562a3.8 3.8 0 0 1-1.42-1.574q-.507-1.011-.506-2.364 0-1.358.505-2.375a3.8 3.8 0 0 1 1.421-1.58q.915-.561 2.142-.562 1.227 0 2.142.563t1.42 1.58q.506 1.016.506 2.374 0 1.353-.506 2.364a3.8 3.8 0 0 1-1.42 1.574q-.915.562-2.142.562m.005-1.426q.796 0 1.319-.42t.772-1.12q.256-.699.256-1.54 0-.835-.256-1.534a2.5 2.5 0 0 0-.772-1.13q-.523-.426-1.319-.427-.801 0-1.329.427a2.53 2.53 0 0 0-.778 1.13q-.25.7-.25 1.534 0 .841.25 1.54.255.7.778 1.12.528.42 1.329.42m7.658-3.932V24.5h-1.699v-8.727h1.631v1.42h.108q.301-.693.943-1.114.647-.42 1.631-.42.891 0 1.562.375.67.37 1.04 1.102.369.733.369 1.813V24.5h-1.698v-5.347q0-.948-.495-1.482-.494-.54-1.358-.54-.59 0-1.051.255-.454.255-.721.75-.262.489-.262 1.182"/><path fill="#fff" d="M67.619 34.843q-.06-.665-.538-1.032-.47-.375-1.346-.375-.579 0-.966.151-.385.151-.58.417a1 1 0 0 0-.199.598.9.9 0 0 0 .11.489q.126.21.361.374.242.157.58.277.338.122.76.212l1.063.241a7.5 7.5 0 0 1 1.618.532q.706.331 1.183.79.484.459.73 1.057.248.597.254 1.34-.006 1.17-.591 2.01t-1.685 1.286q-1.093.447-2.638.447-1.552 0-2.704-.465-1.154-.464-1.793-1.413-.64-.947-.658-2.396h2.861q.035.597.32.996t.779.604q.5.204 1.159.205.603 0 1.026-.163.429-.163.658-.453a1.07 1.07 0 0 0 .236-.664.92.92 0 0 0-.218-.598q-.21-.254-.652-.434-.435-.188-1.11-.344l-1.292-.302q-1.606-.369-2.53-1.19-.924-.825-.917-2.233-.007-1.148.615-2.01.622-.864 1.72-1.347 1.1-.483 2.506-.483 1.438 0 2.493.49 1.063.482 1.648 1.358.586.875.598 2.028zm4.54 8.657v-9.273h2.951V43.5zm1.478-10.353q-.621 0-1.068-.41a1.32 1.32 0 0 1-.447-1.003q0-.579.447-.99a1.5 1.5 0 0 1 1.068-.417q.628 0 1.069.417.447.411.447.99 0 .585-.447 1.002-.44.41-1.069.41M76.99 43.5v-9.273h2.808v1.703h.102q.29-.846.978-1.334.688-.49 1.642-.49.967 0 1.654.496.69.494.876 1.328h.096a2.4 2.4 0 0 1 1.014-1.322q.756-.502 1.781-.502 1.317 0 2.138.846.82.84.82 2.306V43.5h-2.951v-5.566q0-.694-.357-1.056-.356-.369-.923-.369-.61 0-.96.399-.344.392-.344 1.056V43.5h-2.838v-5.596q0-.646-.35-1.02-.35-.375-.924-.375a1.25 1.25 0 0 0-1.147.706 1.8 1.8 0 0 0-.162.797V43.5zm15.739 3.477v-12.75h2.922v1.588h.09q.18-.422.513-.815.338-.393.858-.64.525-.254 1.255-.254.966 0 1.805.508.845.507 1.365 1.563.519 1.057.519 2.693 0 1.575-.501 2.638-.495 1.063-1.34 1.594a3.4 3.4 0 0 1-1.866.53q-.7 0-1.213-.229a2.6 2.6 0 0 1-.864-.603 2.9 2.9 0 0 1-.53-.803h-.061v4.98zm2.891-8.113q0 .748.2 1.304.205.555.585.863.387.302.924.302.543 0 .923-.302.38-.308.574-.863.2-.555.2-1.304 0-.75-.2-1.298-.193-.55-.574-.852-.374-.3-.923-.301-.543 0-.924.295-.38.297-.585.846-.2.548-.2 1.31m10.935-7.728V43.5h-2.952V31.136zm3.684 15.841q-.531 0-1.002-.084a4 4 0 0 1-.809-.212l.652-2.143q.434.145.785.17.356.023.609-.115.26-.133.399-.477l.114-.278-3.296-9.61h3.091l1.709 6.616h.096l1.733-6.617h3.109l-3.496 10.16a4.3 4.3 0 0 1-.718 1.34 3.1 3.1 0 0 1-1.189.918q-.725.332-1.787.332m23.643-9.659q0 2.04-.784 3.46-.786 1.418-2.125 2.154-1.335.737-2.995.737-1.666 0-3-.742-1.334-.743-2.119-2.156-.779-1.418-.779-3.453 0-2.04.779-3.459.785-1.419 2.119-2.155 1.334-.737 3-.737 1.66 0 2.995.737 1.34.736 2.125 2.155t.784 3.46m-3.054 0q0-1.208-.344-2.04-.339-.834-.978-1.262-.634-.429-1.528-.429-.886 0-1.527.429t-.984 1.262q-.338.833-.338 2.04t.338 2.04q.343.834.984 1.262.64.429 1.527.429.894 0 1.528-.429.639-.428.978-1.261.344-.834.344-2.04m4.799 9.66V34.23h2.922v1.587h.091q.18-.422.513-.815.338-.393.857-.64.525-.254 1.256-.254.966 0 1.805.508.845.507 1.364 1.563t.519 2.693q0 1.575-.501 2.638-.495 1.063-1.34 1.594a3.4 3.4 0 0 1-1.865.53q-.7 0-1.214-.229a2.6 2.6 0 0 1-.863-.603 2.9 2.9 0 0 1-.531-.803h-.061v4.98zm2.892-8.114q0 .748.199 1.304.205.555.586.863.386.302.923.302.543 0 .924-.302.38-.308.573-.863.2-.555.2-1.304 0-.75-.2-1.298-.193-.55-.573-.852-.374-.3-.924-.301-.543 0-.923.295-.38.297-.586.846-.2.548-.199 1.31m13.216-4.637v2.174h-5.85v-2.174zm-4.624-2.221h2.952v8.578q0 .272.084.44a.53.53 0 0 0 .26.236q.17.067.405.067.168 0 .356-.03.192-.038.289-.06l.447 2.13q-.211.06-.597.151-.381.09-.912.115-1.038.048-1.781-.242a2.3 2.3 0 0 1-1.129-.917q-.386-.622-.374-1.564zm6.13 11.494v-9.273h2.952V43.5zm1.479-10.353q-.621 0-1.068-.41a1.32 1.32 0 0 1-.447-1.003q0-.579.447-.99a1.5 1.5 0 0 1 1.068-.417 1.5 1.5 0 0 1 1.069.417q.447.411.447.99 0 .585-.447 1.002-.44.41-1.069.41m3.352 10.353v-9.273h2.808v1.703h.102a2.64 2.64 0 0 1 .978-1.334q.688-.49 1.642-.49.966 0 1.654.496.689.494.876 1.328h.096a2.4 2.4 0 0 1 1.015-1.322q.754-.502 1.78-.502 1.317 0 2.138.846.82.84.821 2.306V43.5h-2.953v-5.566q0-.694-.356-1.056-.356-.369-.923-.369-.61 0-.96.399-.344.392-.344 1.056V43.5h-2.838v-5.596q0-.646-.35-1.02-.35-.375-.923-.375-.387 0-.683.187-.296.181-.465.52a1.8 1.8 0 0 0-.163.796V43.5zm15.739 0v-9.273h2.952V43.5zm1.479-10.353q-.622 0-1.069-.41a1.32 1.32 0 0 1-.447-1.003q0-.579.447-.99a1.5 1.5 0 0 1 1.069-.417q.628 0 1.068.417.447.411.447.99 0 .585-.447 1.002a1.5 1.5 0 0 1-1.068.41m3.376 10.353v-1.684l4.298-5.234v-.06h-4.147v-2.295h7.667v1.848l-3.985 5.07v.061h4.13V43.5zm13.939.175q-1.455 0-2.511-.573a3.97 3.97 0 0 1-1.618-1.648q-.562-1.075-.562-2.554 0-1.437.568-2.511.567-1.08 1.6-1.679 1.032-.603 2.433-.604.99 0 1.811.308a3.9 3.9 0 0 1 1.418.912q.599.604.93 1.491.332.882.332 2.023v.736h-8.059v-1.715h5.312a1.66 1.66 0 0 0-.223-.839 1.5 1.5 0 0 0-.598-.573 1.7 1.7 0 0 0-.863-.211q-.495 0-.887.223a1.68 1.68 0 0 0-.864 1.449v1.745q0 .567.224.996.223.421.634.658.41.235.978.235.392 0 .712-.109.32-.108.549-.32.23-.21.344-.519l2.711.079a3.35 3.35 0 0 1-.743 1.587q-.567.67-1.491 1.045-.924.368-2.137.368m9.296-.042a3.4 3.4 0 0 1-1.866-.531q-.839-.532-1.34-1.594t-.501-2.638q0-1.636.519-2.693.52-1.056 1.358-1.563a3.5 3.5 0 0 1 1.817-.508q.73 0 1.25.254.52.247.857.64.339.392.514.815h.06v-4.679h2.952V43.5h-2.922v-1.503h-.09a2.9 2.9 0 0 1-.532.803q-.344.374-.863.603-.514.23-1.213.23m1.026-2.3q.537 0 .917-.302.38-.308.586-.863t.205-1.304q0-.762-.205-1.31-.2-.55-.586-.846a1.45 1.45 0 0 0-.917-.295q-.549 0-.93.302-.38.3-.579.85-.194.55-.194 1.299t.2 1.304.573.863q.381.302.93.302"/></g><defs><filter id="b" width="51.429" height="51.429" x="6.286" y="2.286" color-interpolation-filters="sRGB" filterUnits="userSpaceOnUse"><feFlood flood-opacity="0" result="BackgroundImageFix"/><feColorMatrix in="SourceAlpha" result="hardAlpha" values="0 0 0 0 0 0 0 0 0 0 0 0 0 0 0 0 0 0 127 0"/><feOffset/><feGaussianBlur stdDeviation="2.857"/><feComposite in2="hardAlpha" operator="out"/><feColorMatrix values="0 0 0 0 0 0 0 0 0 0 0 0 0 0 0 0 0 0 0.25 0"/><feBlend in2="BackgroundImageFix" result="effect1_dropShadow_28_4"/><feBlend in="SourceGraphic" in2="effect1_dropShadow_28_4" result="shape"/></filter><filter id="c" width="46.786" height="33.929" x="7.622" y="10.857" color-interpolation-filters="sRGB" filterUnits="userSpaceOnUse"><feFlood flood-opacity="0" result="BackgroundImageFix"/><feBlend in="SourceGraphic" in2="BackgroundImageFix" result="shape"/><feGaussianBlur result="effect1_foregroundBlur_28_4" stdDeviation="2.857"/></filter><filter id="d" width="160.2" height="48.677" x="54.4" y="3.9" color-interpolation-filters="sRGB" filterUnits="userSpaceOnUse"><feFlood flood-opacity="0" result="BackgroundImageFix"/><feColorMatrix in="SourceAlpha" result="hardAlpha" values="0 0 0 0 0 0 0 0 0 0 0 0 0 0 0 0 0 0 127 0"/><feOffset/><feGaussianBlur stdDeviation="2.8"/><feComposite in2="hardAlpha" operator="out"/><feColorMatrix values="0 0 0 0 0 0 0 0 0 0 0 0 0 0 0 0 0 0 0.25 0"/><feBlend in2="BackgroundImageFix" result="effect1_dropShadow_28_4"/><feBlend in="SourceGraphic" in2="effect1_dropShadow_28_4" result="shape"/></filter><linearGradient id="a" x1="110.5" x2="110.5" y1="0" y2="56" gradientUnits="userSpaceOnUse"><stop stop-color="#021f1d"/><stop offset="1" stop-color="#000606"/></linearGradient></defs></svg>