<svg xmlns="http://www.w3.org/2000/svg" width="144" height="56" fill="none" viewBox="0 0 144 56"><rect width="144" height="56" fill="url(#a)" rx="8"/><rect width="141.9" height="53.9" x="1.05" y="1.05" stroke="#fff" stroke-opacity=".15" stroke-width="2.1" rx="6.95"/><g filter="url(#b)"><g clip-path="url(#c)"><path fill="#ff3e00" d="M46.619 13.288c-3.695-5.322-11.051-6.881-16.34-3.525l-9.321 5.966a10.6 10.6 0 0 0-4.814 7.152c-.44 2.475-.068 5.017 1.119 7.22a10.2 10.2 0 0 0-1.594 4 11.4 11.4 0 0 0 1.933 8.61c3.729 5.323 11.05 6.882 16.339 3.526l9.322-5.932a10.6 10.6 0 0 0 4.813-7.152c.441-2.475.068-5.017-1.118-7.22a10.2 10.2 0 0 0 1.593-4 11.17 11.17 0 0 0-1.932-8.645"/><path fill="#fff" d="M29.364 43.22a7.39 7.39 0 0 1-7.932-2.949c-1.085-1.491-1.491-3.356-1.186-5.186.068-.305.135-.576.203-.881l.17-.543.474.34a12.4 12.4 0 0 0 3.661 1.83l.34.101-.035.34c-.034.474.102.982.373 1.39.543.779 1.492 1.152 2.407.914.203-.067.407-.135.576-.237l9.288-5.932c.475-.305.78-.746.882-1.288a2.1 2.1 0 0 0-.34-1.56 2.225 2.225 0 0 0-2.406-.88 3 3 0 0 0-.576.236l-3.56 2.272a6.3 6.3 0 0 1-1.898.813 7.39 7.39 0 0 1-7.932-2.949 6.85 6.85 0 0 1-1.153-5.186 6.42 6.42 0 0 1 2.916-4.305l9.322-5.933c.576-.373 1.22-.644 1.898-.847a7.39 7.39 0 0 1 7.932 2.949c1.085 1.492 1.492 3.356 1.187 5.186a9 9 0 0 1-.238.882l-.17.542-.474-.339a12.4 12.4 0 0 0-3.66-1.83l-.34-.102.034-.339a2.27 2.27 0 0 0-.373-1.39 2.225 2.225 0 0 0-2.407-.881c-.203.068-.406.135-.576.237l-9.288 5.932c-.475.305-.78.746-.881 1.288a2.1 2.1 0 0 0 .339 1.56 2.225 2.225 0 0 0 2.406.881c.204-.068.407-.136.577-.237l3.559-2.271c.576-.373 1.22-.644 1.898-.848a7.39 7.39 0 0 1 7.932 2.95c1.085 1.49 1.492 3.355 1.187 5.186a6.42 6.42 0 0 1-2.915 4.305l-9.322 5.932c-.577.373-1.22.644-1.899.848"/></g></g><g filter="url(#d)"><path fill="#e8e8e8" d="M61.278 24.5V12.864h4.262q1.239 0 2.05.409.814.403 1.217 1.096.403.688.403 1.552 0 .726-.267 1.227a2.2 2.2 0 0 1-.716.795q-.442.296-.977.432v.114a2.3 2.3 0 0 1 1.13.375q.558.34.921.971.364.63.364 1.534 0 .893-.42 1.603-.415.704-1.285 1.119-.87.41-2.221.409zm1.756-1.506h2.534q1.261 0 1.807-.488.546-.489.546-1.222 0-.55-.279-1.011a2 2 0 0 0-.795-.733q-.512-.273-1.216-.273h-2.597zm0-5.096h2.352q.592 0 1.063-.227a1.86 1.86 0 0 0 .755-.637q.285-.414.285-.977 0-.722-.506-1.21-.506-.489-1.551-.489h-2.398zM77.14 20.88v-5.108h1.705V24.5h-1.67v-1.511h-.092q-.3.698-.965 1.164-.66.46-1.643.46-.84 0-1.488-.369-.642-.375-1.012-1.108-.363-.732-.363-1.812v-5.551h1.699v5.346q0 .893.494 1.42.494.53 1.284.53.478 0 .949-.24.477-.239.79-.721.318-.483.312-1.227m3.987 3.619v-8.727h1.7V24.5zm.858-10.074a1.08 1.08 0 0 1-.761-.295.96.96 0 0 1-.312-.716q0-.421.312-.716.318-.3.761-.301.444 0 .756.3a.94.94 0 0 1 .318.717.95.95 0 0 1-.318.716 1.06 1.06 0 0 1-.756.295m4.826-1.562V24.5h-1.7V12.864zm6.359 2.909v1.363h-4.767v-1.363zm-3.489-2.091h1.7v8.256q0 .493.147.744a.77.77 0 0 0 .38.335q.24.085.518.085.204 0 .358-.028l.238-.046.307 1.404a3 3 0 0 1-.42.114q-.274.062-.682.068a3 3 0 0 1-1.25-.239 2.15 2.15 0 0 1-.938-.773q-.357-.523-.358-1.312zM101.175 24.5l-2.568-8.727h1.755l1.71 6.409h.086l1.716-6.41h1.755l1.705 6.381h.085l1.699-6.38h1.756l-2.563 8.727h-1.733l-1.773-6.301h-.13l-1.773 6.301zm11.311 0v-8.727h1.699V24.5zm.858-10.074a1.08 1.08 0 0 1-.762-.295.96.96 0 0 1-.312-.716.95.95 0 0 1 .312-.716q.318-.3.762-.301.443 0 .755.3a.94.94 0 0 1 .319.717.95.95 0 0 1-.319.716q-.312.295-.755.295m7.2 1.347v1.363h-4.767v-1.363zm-3.489-2.091h1.699v8.256q0 .493.148.744a.77.77 0 0 0 .381.335q.238.085.517.085a2 2 0 0 0 .358-.028l.238-.046.307 1.404a3 3 0 0 1-.42.114 3.3 3.3 0 0 1-.682.068 3 3 0 0 1-1.25-.239 2.14 2.14 0 0 1-.938-.773q-.358-.523-.358-1.312zm7.255 5.636V24.5h-1.699V12.864h1.676v4.33h.108q.306-.706.937-1.12t1.648-.415q.898 0 1.568.37.677.369 1.046 1.102.375.727.375 1.818V24.5h-1.699v-5.347q0-.96-.494-1.488-.495-.534-1.375-.534a2.25 2.25 0 0 0-1.08.255q-.471.255-.744.75-.267.489-.267 1.182"/><path fill="#ff3e00" d="M67.619 34.843q-.06-.665-.538-1.032-.47-.375-1.346-.375-.579 0-.966.151-.385.151-.58.417a1 1 0 0 0-.199.598.9.9 0 0 0 .11.489q.126.21.361.374.242.157.58.277.338.122.76.212l1.063.241a7.5 7.5 0 0 1 1.618.532q.706.331 1.183.79.484.459.73 1.057.248.597.254 1.34-.006 1.17-.591 2.01t-1.685 1.286q-1.093.447-2.638.447-1.552 0-2.704-.465-1.154-.464-1.793-1.413-.64-.947-.658-2.396h2.861q.035.597.32.996t.779.604q.5.204 1.159.205.603 0 1.026-.163.429-.163.658-.453a1.07 1.07 0 0 0 .236-.664.92.92 0 0 0-.218-.598q-.21-.254-.652-.434-.435-.188-1.11-.344l-1.292-.302q-1.606-.369-2.53-1.19-.924-.825-.917-2.233-.007-1.148.615-2.01.622-.864 1.72-1.347 1.1-.483 2.506-.483 1.438 0 2.493.49 1.063.482 1.648 1.358.586.875.598 2.028zm13.534-.616L77.972 43.5h-3.38l-3.176-9.273h3.109l1.708 6.387h.097l1.714-6.387zm5.168 9.448q-1.455 0-2.511-.573a3.97 3.97 0 0 1-1.618-1.648q-.561-1.075-.562-2.554 0-1.437.568-2.511.567-1.08 1.6-1.679 1.032-.603 2.433-.604.99 0 1.81.308.821.309 1.42.912.597.604.929 1.491.332.882.332 2.023v.736h-8.06v-1.715h5.313a1.66 1.66 0 0 0-.223-.839 1.5 1.5 0 0 0-.598-.573 1.7 1.7 0 0 0-.863-.211q-.495 0-.888.223a1.68 1.68 0 0 0-.863 1.449v1.745q0 .567.223.996.224.421.634.658.411.235.978.235.393 0 .713-.109.32-.108.55-.32.228-.21.343-.519l2.71.079a3.35 3.35 0 0 1-.742 1.587q-.567.67-1.49 1.045-.925.368-2.138.368m8.86-12.539V43.5H92.23V31.136zm7.114 3.091v2.174h-5.85v-2.174zm-4.625-2.221h2.953v8.578q0 .272.084.44.09.165.26.236a1.1 1.1 0 0 0 .404.067q.169 0 .356-.03.194-.038.29-.06l.447 2.13q-.211.06-.598.151-.38.09-.911.115-1.039.048-1.781-.242a2.3 2.3 0 0 1-1.13-.917q-.386-.622-.374-1.564zm10.366 11.67q-1.455 0-2.512-.574a3.97 3.97 0 0 1-1.617-1.648q-.562-1.075-.562-2.554 0-1.437.568-2.511.567-1.08 1.599-1.679 1.033-.603 2.433-.604.99 0 1.811.308.822.309 1.419.912.597.604.93 1.491.332.882.332 2.023v.736h-8.06v-1.715h5.313a1.67 1.67 0 0 0-.223-.839 1.5 1.5 0 0 0-.598-.573 1.7 1.7 0 0 0-.863-.211q-.495 0-.888.223a1.68 1.68 0 0 0-.863 1.449v1.745q0 .567.223.996.224.421.634.658.411.235.978.235.393 0 .713-.109.32-.108.549-.32.23-.21.344-.519l2.711.079a3.36 3.36 0 0 1-.743 1.587q-.567.67-1.491 1.045-.924.368-2.137.368"/></g><defs><filter id="b" width="51.429" height="51.429" x="6.286" y="2.286" color-interpolation-filters="sRGB" filterUnits="userSpaceOnUse"><feFlood flood-opacity="0" result="BackgroundImageFix"/><feColorMatrix in="SourceAlpha" result="hardAlpha" values="0 0 0 0 0 0 0 0 0 0 0 0 0 0 0 0 0 0 127 0"/><feOffset/><feGaussianBlur stdDeviation="2.857"/><feComposite in2="hardAlpha" operator="out"/><feColorMatrix values="0 0 0 0 0 0 0 0 0 0 0 0 0 0 0 0 0 0 0.25 0"/><feBlend in2="BackgroundImageFix" result="effect1_dropShadow_62_41"/><feBlend in="SourceGraphic" in2="effect1_dropShadow_62_41" result="shape"/></filter><filter id="d" width="83.2" height="48.2" x="54.4" y="3.9" color-interpolation-filters="sRGB" filterUnits="userSpaceOnUse"><feFlood flood-opacity="0" result="BackgroundImageFix"/><feColorMatrix in="SourceAlpha" result="hardAlpha" values="0 0 0 0 0 0 0 0 0 0 0 0 0 0 0 0 0 0 127 0"/><feOffset/><feGaussianBlur stdDeviation="2.8"/><feComposite in2="hardAlpha" operator="out"/><feColorMatrix values="0 0 0 0 0 0 0 0 0 0 0 0 0 0 0 0 0 0 0.25 0"/><feBlend in2="BackgroundImageFix" result="effect1_dropShadow_62_41"/><feBlend in="SourceGraphic" in2="effect1_dropShadow_62_41" result="shape"/></filter><linearGradient id="a" x1="72" x2="72" y1="0" y2="56" gradientUnits="userSpaceOnUse"><stop stop-color="#381f0c"/><stop offset="1" stop-color="#211205"/></linearGradient><clipPath id="c"><path fill="#fff" d="M15.5 8h33.254v40H15.5z"/></clipPath></defs></svg>