<svg xmlns="http://www.w3.org/2000/svg" width="165" height="56" fill="none" viewBox="0 0 165 56"><rect width="165" height="56" fill="url(#a)" rx="8"/><rect width="162.9" height="53.9" x="1.05" y="1.05" stroke="#fff" stroke-opacity=".15" stroke-width="2.1" rx="6.95"/><g filter="url(#b)"><path fill="#3178c6" d="M13.875 8A1.87 1.87 0 0 0 12 9.875v36.25c0 1.038.837 1.875 1.875 1.875h36.25A1.87 1.87 0 0 0 52 46.125V9.875A1.87 1.87 0 0 0 50.125 8zm28.939 16.25q1.53 0 2.711.185c.744.111 1.474.301 2.177.567v4.096a6.6 6.6 0 0 0-1.072-.601 8.5 8.5 0 0 0-1.195-.434 9 9 0 0 0-2.376-.333q-.75 0-1.365.143a3.5 3.5 0 0 0-1.039.404q-.424.26-.655.623a1.5 1.5 0 0 0-.233.817q.001.49.26.881.26.39.738.74t1.16.684q.683.338 1.544.693a17 17 0 0 1 2.11 1.047 7.5 7.5 0 0 1 1.605 1.255q.668.697 1.023 1.595.356.896.357 2.088-.001 1.644-.622 2.76a5.06 5.06 0 0 1-1.687 1.808 7.3 7.3 0 0 1-2.478.994q-1.415.3-2.983.3a16.5 16.5 0 0 1-3.067-.274 9.2 9.2 0 0 1-2.52-.821v-4.384a8.4 8.4 0 0 0 5.395 2q.833 0 1.453-.15.621-.151 1.039-.416.414-.269.621-.634a1.7 1.7 0 0 0-.123-1.815 3.5 3.5 0 0 0-.895-.833 9.3 9.3 0 0 0-1.345-.74 46 46 0 0 0-1.678-.727q-2.294-.958-3.422-2.341-1.126-1.384-1.127-3.342 0-1.534.615-2.637.614-1.103 1.674-1.815a7.5 7.5 0 0 1 2.45-1.048 12.6 12.6 0 0 1 2.95-.335m-25.189.313h15.939v3.61h-5.72V44.25h-4.529V28.173h-5.69z"/></g><g filter="url(#c)"><path fill="#e8e8e8" d="M61.278 24.5V12.864h4.262q1.239 0 2.05.409.814.403 1.217 1.096.403.688.403 1.552 0 .726-.267 1.227a2.2 2.2 0 0 1-.716.795q-.442.296-.977.432v.114a2.3 2.3 0 0 1 1.13.375q.558.34.921.971.364.63.364 1.534 0 .893-.42 1.603-.415.704-1.285 1.119-.87.41-2.221.409zm1.756-1.506h2.534q1.261 0 1.807-.488.546-.489.546-1.222 0-.55-.279-1.011a2 2 0 0 0-.795-.733q-.512-.273-1.216-.273h-2.597zm0-5.096h2.352q.592 0 1.063-.227a1.86 1.86 0 0 0 .755-.637q.285-.414.285-.977 0-.722-.506-1.21-.506-.489-1.551-.489h-2.398zM77.14 20.88v-5.108h1.705V24.5h-1.67v-1.511h-.092q-.3.698-.965 1.164-.66.46-1.643.46-.84 0-1.488-.369-.642-.375-1.012-1.108-.363-.732-.363-1.812v-5.551h1.699v5.346q0 .893.494 1.42.494.53 1.284.53.478 0 .949-.24.477-.239.79-.721.318-.483.312-1.227m3.987 3.619v-8.727h1.7V24.5zm.858-10.074a1.08 1.08 0 0 1-.761-.295.96.96 0 0 1-.312-.716q0-.421.312-.716.318-.3.761-.301.444 0 .756.3a.94.94 0 0 1 .318.717.95.95 0 0 1-.318.716 1.06 1.06 0 0 1-.756.295m4.826-1.562V24.5h-1.7V12.864zm6.359 2.909v1.363h-4.767v-1.363zm-3.489-2.091h1.7v8.256q0 .493.147.744a.77.77 0 0 0 .38.335q.24.085.518.085.204 0 .358-.028l.238-.046.307 1.404a3 3 0 0 1-.42.114q-.274.062-.682.068a3 3 0 0 1-1.25-.239 2.15 2.15 0 0 1-.938-.773q-.357-.523-.358-1.312zM101.175 24.5l-2.568-8.727h1.755l1.71 6.409h.086l1.716-6.41h1.755l1.705 6.381h.085l1.699-6.38h1.756l-2.563 8.727h-1.733l-1.773-6.301h-.13l-1.773 6.301zm11.311 0v-8.727h1.699V24.5zm.858-10.074a1.08 1.08 0 0 1-.762-.295.96.96 0 0 1-.312-.716.95.95 0 0 1 .312-.716q.318-.3.762-.301.443 0 .755.3a.94.94 0 0 1 .319.717.95.95 0 0 1-.319.716q-.312.295-.755.295m7.2 1.347v1.363h-4.767v-1.363zm-3.489-2.091h1.699v8.256q0 .493.148.744a.77.77 0 0 0 .381.335q.238.085.517.085a2 2 0 0 0 .358-.028l.238-.046.307 1.404a3 3 0 0 1-.42.114 3.3 3.3 0 0 1-.682.068 3 3 0 0 1-1.25-.239 2.14 2.14 0 0 1-.938-.773q-.358-.523-.358-1.312zm7.255 5.636V24.5h-1.699V12.864h1.676v4.33h.108q.306-.706.937-1.12t1.648-.415q.898 0 1.568.37.677.369 1.046 1.102.375.727.375 1.818V24.5h-1.699v-5.347q0-.96-.494-1.488-.495-.534-1.375-.534a2.25 2.25 0 0 0-1.08.255q-.471.255-.744.75-.267.489-.267 1.182"/><path fill="#3178c6" d="M60.531 33.563v-2.427h10.45v2.427h-3.749V43.5h-2.946v-9.937zm12.652 13.414q-.531 0-1.002-.084a4 4 0 0 1-.809-.212l.652-2.143q.435.145.785.17.355.023.61-.115.26-.133.398-.477l.115-.278-3.296-9.61h3.09l1.709 6.616h.096l1.733-6.617h3.11l-3.496 10.16a4.3 4.3 0 0 1-.719 1.34 3.1 3.1 0 0 1-1.189.918q-.725.332-1.787.332m8.322 0v-12.75h2.922v1.588h.09q.181-.422.514-.815.337-.393.857-.64.526-.254 1.255-.254.966 0 1.806.508.845.507 1.364 1.563t.52 2.693q0 1.575-.502 2.638-.495 1.063-1.34 1.594a3.4 3.4 0 0 1-1.866.53q-.699 0-1.213-.229a2.6 2.6 0 0 1-.863-.603 2.9 2.9 0 0 1-.532-.803h-.06v4.98zm2.892-8.113q0 .748.199 1.304.206.555.585.863.387.302.924.302.543 0 .924-.302.38-.308.573-.863.2-.555.2-1.304 0-.75-.2-1.298-.193-.55-.573-.852-.375-.3-.924-.301-.543 0-.924.295-.38.297-.585.846-.2.548-.2 1.31m12.317 4.811q-1.456 0-2.512-.573a3.97 3.97 0 0 1-1.618-1.648q-.561-1.075-.561-2.554 0-1.437.567-2.511.568-1.08 1.6-1.679 1.033-.603 2.433-.604.99 0 1.811.308.82.309 1.419.912.597.604.929 1.491.333.882.333 2.023v.736h-8.06v-1.715h5.313a1.66 1.66 0 0 0-.224-.839 1.5 1.5 0 0 0-.597-.573 1.7 1.7 0 0 0-.864-.211q-.495 0-.887.223a1.68 1.68 0 0 0-.863 1.449v1.745q0 .567.223.996.223.421.634.658.411.235.978.235.392 0 .712-.109.32-.108.55-.32a1.3 1.3 0 0 0 .344-.519l2.71.079a3.35 3.35 0 0 1-.742 1.587q-.569.67-1.491 1.045-.924.368-2.137.368m12.591-8.832q-.06-.665-.537-1.032-.471-.375-1.346-.375-.58 0-.966.151-.387.151-.58.417a1 1 0 0 0-.199.598.9.9 0 0 0 .109.489q.126.21.362.374.242.157.579.277.339.122.761.212l1.063.241q.917.2 1.617.532.707.331 1.184.79.483.459.73 1.057.248.597.254 1.34-.007 1.17-.592 2.01t-1.684 1.286q-1.093.447-2.638.447-1.552 0-2.705-.465-1.153-.464-1.793-1.413-.64-.947-.658-2.396h2.862q.036.597.32.996.283.399.778.604.502.204 1.159.205.604 0 1.027-.163.428-.163.658-.453t.235-.664a.9.9 0 0 0-.217-.598q-.211-.254-.652-.434-.435-.188-1.111-.344l-1.292-.302q-1.606-.369-2.529-1.19-.924-.825-.918-2.233-.006-1.148.616-2.01.621-.864 1.72-1.347 1.1-.483 2.506-.483 1.436 0 2.493.49 1.063.482 1.648 1.358.586.875.598 2.028zm8.868 8.832q-1.467 0-2.517-.604a4.1 4.1 0 0 1-1.606-1.678q-.561-1.08-.561-2.5 0-1.424.561-2.498a4.1 4.1 0 0 1 1.612-1.685q1.05-.603 2.505-.604 1.287 0 2.24.465a3.56 3.56 0 0 1 1.497 1.316q.544.846.574 1.987h-2.759q-.085-.713-.483-1.117-.393-.405-1.026-.405-.514 0-.9.29-.386.284-.604.845-.21.556-.211 1.377 0 .82.211 1.388.218.561.604.851.386.285.9.284.41 0 .724-.175.32-.175.525-.513.206-.344.26-.833h2.759q-.043 1.146-.574 2.004a3.55 3.55 0 0 1-1.479 1.334q-.948.471-2.252.471m5.815-.175v-9.273h2.868v1.69h.097q.253-.917.827-1.364a2.1 2.1 0 0 1 1.334-.453q.205 0 .422.03.217.025.405.08v2.565a3 3 0 0 0-.556-.115 5 5 0 0 0-.603-.042q-.525 0-.948.235a1.7 1.7 0 0 0-.658.646 1.9 1.9 0 0 0-.236.966V43.5zm7.156 0v-9.273h2.952V43.5zm1.479-10.353q-.622 0-1.069-.41a1.32 1.32 0 0 1-.447-1.003q0-.579.447-.99a1.5 1.5 0 0 1 1.069-.417q.627 0 1.068.417.447.411.447.99 0 .585-.447 1.002a1.5 1.5 0 0 1-1.068.41m3.352 13.83v-12.75h2.922v1.588h.09q.181-.422.513-.815.338-.393.858-.64.525-.254 1.255-.254.966 0 1.805.508.846.507 1.365 1.563t.519 2.693q0 1.575-.501 2.638-.495 1.063-1.34 1.594a3.4 3.4 0 0 1-1.866.53q-.7 0-1.213-.229a2.7 2.7 0 0 1-.864-.603 2.9 2.9 0 0 1-.531-.803h-.06v4.98zm2.891-8.113q0 .748.2 1.304.206.555.585.863.387.302.924.302.543 0 .924-.302.38-.308.573-.863.2-.555.199-1.304 0-.75-.199-1.298-.193-.55-.573-.852-.375-.3-.924-.301-.543 0-.924.295-.38.297-.585.846-.2.548-.2 1.31m13.217-4.637V36.4h-5.85v-2.174zm-4.624-2.221h2.952v8.578q0 .272.084.44.09.165.26.236a1.1 1.1 0 0 0 .404.067q.17 0 .356-.03.194-.038.29-.06l.447 2.13q-.211.06-.598.151-.38.09-.911.115-1.039.048-1.781-.242a2.3 2.3 0 0 1-1.129-.917q-.387-.622-.374-1.564z"/></g><defs><filter id="b" width="51.429" height="51.429" x="6.286" y="2.286" color-interpolation-filters="sRGB" filterUnits="userSpaceOnUse"><feFlood flood-opacity="0" result="BackgroundImageFix"/><feColorMatrix in="SourceAlpha" result="hardAlpha" values="0 0 0 0 0 0 0 0 0 0 0 0 0 0 0 0 0 0 127 0"/><feOffset/><feGaussianBlur stdDeviation="2.857"/><feComposite in2="hardAlpha" operator="out"/><feColorMatrix values="0 0 0 0 0 0 0 0 0 0 0 0 0 0 0 0 0 0 0.25 0"/><feBlend in2="BackgroundImageFix" result="effect1_dropShadow_2_858"/><feBlend in="SourceGraphic" in2="effect1_dropShadow_2_858" result="shape"/></filter><filter id="c" width="104.2" height="48.677" x="54.4" y="3.9" color-interpolation-filters="sRGB" filterUnits="userSpaceOnUse"><feFlood flood-opacity="0" result="BackgroundImageFix"/><feColorMatrix in="SourceAlpha" result="hardAlpha" values="0 0 0 0 0 0 0 0 0 0 0 0 0 0 0 0 0 0 127 0"/><feOffset/><feGaussianBlur stdDeviation="2.8"/><feComposite in2="hardAlpha" operator="out"/><feColorMatrix values="0 0 0 0 0 0 0 0 0 0 0 0 0 0 0 0 0 0 0.25 0"/><feBlend in2="BackgroundImageFix" result="effect1_dropShadow_2_858"/><feBlend in="SourceGraphic" in2="effect1_dropShadow_2_858" result="shape"/></filter><linearGradient id="a" x1="82.5" x2="82.5" y1="0" y2="56" gradientUnits="userSpaceOnUse"><stop stop-color="#0c1f34"/><stop offset="1" stop-color="#051220"/></linearGradient></defs></svg>