<svg xmlns="http://www.w3.org/2000/svg" width="194" height="56" fill="none" viewBox="0 0 194 56"><rect width="194" height="56" fill="url(#a)" rx="8"/><rect width="191.9" height="53.9" x="1.05" y="1.05" stroke="#fff" stroke-opacity=".15" stroke-width="2.1" rx="6.95"/><g filter="url(#b)"><path fill="#654ff0" d="M36.575 8v.215a4.587 4.587 0 1 1-9.173 0V8H12v40h40V8zM31.09 43.718l-1.948-9.638h-.033l-2.107 9.638h-2.685l-3.04-14.161h2.65l1.813 9.638h.034l2.185-9.638h2.478l1.962 9.756h.033l2.07-9.756h2.602l-3.379 14.161zm14.592 0-.903-3.151H40.01l-.695 3.151h-2.65l3.427-14.161h4.182l4.166 14.161zm-3.995-10.671-1.157 5.196h3.599l-1.327-5.196z"/></g><g filter="url(#c)"><path fill="#e8e8e8" d="M61.278 24.5V12.864h4.262q1.239 0 2.05.409.814.403 1.217 1.096.403.688.403 1.552 0 .726-.267 1.227a2.2 2.2 0 0 1-.716.795q-.442.296-.977.432v.114a2.3 2.3 0 0 1 1.13.375q.558.34.921.971.364.63.364 1.534 0 .893-.42 1.603-.415.704-1.285 1.119-.87.41-2.221.409zm1.756-1.506h2.534q1.261 0 1.807-.488.546-.489.546-1.222 0-.55-.279-1.011a2 2 0 0 0-.795-.733q-.512-.273-1.216-.273h-2.597zm0-5.096h2.352q.592 0 1.063-.227a1.86 1.86 0 0 0 .755-.637q.285-.414.285-.977 0-.722-.506-1.21-.506-.489-1.551-.489h-2.398zM77.14 20.88v-5.108h1.705V24.5h-1.67v-1.511h-.092q-.3.698-.965 1.164-.66.46-1.643.46-.84 0-1.488-.369-.642-.375-1.012-1.108-.363-.732-.363-1.812v-5.551h1.699v5.346q0 .893.494 1.42.494.53 1.284.53.478 0 .949-.24.477-.239.79-.721.318-.483.312-1.227m3.987 3.619v-8.727h1.7V24.5zm.858-10.074a1.08 1.08 0 0 1-.761-.295.96.96 0 0 1-.312-.716q0-.421.312-.716.318-.3.761-.301.444 0 .756.3a.94.94 0 0 1 .318.717.95.95 0 0 1-.318.716 1.06 1.06 0 0 1-.756.295m4.826-1.562V24.5h-1.7V12.864zm6.359 2.909v1.363h-4.767v-1.363zm-3.489-2.091h1.7v8.256q0 .493.147.744a.77.77 0 0 0 .38.335q.24.085.518.085.204 0 .358-.028l.238-.046.307 1.404a3 3 0 0 1-.42.114q-.274.062-.682.068a3 3 0 0 1-1.25-.239 2.15 2.15 0 0 1-.938-.773q-.357-.523-.358-1.312zM101.175 24.5l-2.568-8.727h1.755l1.71 6.409h.086l1.716-6.41h1.755l1.705 6.381h.085l1.699-6.38h1.756l-2.563 8.727h-1.733l-1.773-6.301h-.13l-1.773 6.301zm11.311 0v-8.727h1.699V24.5zm.858-10.074a1.08 1.08 0 0 1-.762-.295.96.96 0 0 1-.312-.716.95.95 0 0 1 .312-.716q.318-.3.762-.301.443 0 .755.3a.94.94 0 0 1 .319.717.95.95 0 0 1-.319.716q-.312.295-.755.295m7.2 1.347v1.363h-4.767v-1.363zm-3.489-2.091h1.699v8.256q0 .493.148.744a.77.77 0 0 0 .381.335q.238.085.517.085a2 2 0 0 0 .358-.028l.238-.046.307 1.404a3 3 0 0 1-.42.114 3.3 3.3 0 0 1-.682.068 3 3 0 0 1-1.25-.239 2.14 2.14 0 0 1-.938-.773q-.358-.523-.358-1.312zm7.255 5.636V24.5h-1.699V12.864h1.676v4.33h.108q.306-.706.937-1.12t1.648-.415q.898 0 1.568.37.677.369 1.046 1.102.375.727.375 1.818V24.5h-1.699v-5.347q0-.96-.494-1.488-.495-.534-1.375-.534a2.25 2.25 0 0 0-1.08.255q-.471.255-.744.75-.267.489-.267 1.182"/><path fill="#654ff0" d="m63.9 43.5-3.598-12.364h3.302l1.865 8.102h.103l2.131-8.102h2.693l2.13 8.12h.103l1.872-8.12h3.296L74.205 43.5h-2.88l-2.227-7.498H69L66.773 43.5zm18.437.175q-1.455 0-2.512-.573a3.97 3.97 0 0 1-1.618-1.648q-.561-1.075-.561-2.554 0-1.437.567-2.511.568-1.08 1.6-1.679 1.033-.603 2.433-.604.99 0 1.811.308.82.309 1.419.912.597.604.93 1.491.331.882.332 2.023v.736h-8.06v-1.715h5.313a1.66 1.66 0 0 0-.224-.839 1.5 1.5 0 0 0-.597-.573 1.7 1.7 0 0 0-.864-.211q-.494 0-.887.223a1.68 1.68 0 0 0-.863 1.449v1.745q0 .567.223.996.223.421.634.658.411.235.978.235.393 0 .712-.109.32-.108.55-.32.229-.21.344-.519l2.71.079a3.35 3.35 0 0 1-.742 1.587q-.569.67-1.491 1.045-.924.368-2.137.368m5.908-.175V31.136h2.952v4.679h.06q.181-.422.514-.815.338-.393.857-.64.525-.254 1.256-.254.965 0 1.805.508.845.507 1.364 1.563t.52 2.693q0 1.575-.502 2.638-.495 1.063-1.34 1.594a3.4 3.4 0 0 1-1.865.53q-.7 0-1.214-.229a2.6 2.6 0 0 1-.863-.603 2.9 2.9 0 0 1-.531-.803h-.09V43.5zm2.892-4.636q0 .748.2 1.304.204.555.585.863.386.302.923.302.544 0 .924-.302.38-.308.574-.863.198-.555.199-1.304 0-.75-.2-1.298-.193-.55-.573-.852-.374-.3-.924-.301-.543 0-.923.295-.38.297-.586.846-.2.548-.199 1.31m10.076 4.636h-3.212l4.171-12.364h3.979l4.171 12.364h-3.211l-2.904-9.249h-.097zm-.429-4.866h6.713v2.27h-6.713zm18.683-1.575-2.711.072a1 1 0 0 0-.229-.513 1.24 1.24 0 0 0-.489-.356 1.7 1.7 0 0 0-.688-.133q-.513 0-.876.205-.356.205-.35.556a.6.6 0 0 0 .217.47q.23.2.815.32l1.787.339q1.389.265 2.065.88.682.617.688 1.63-.006.955-.567 1.661-.556.706-1.522 1.099-.966.386-2.209.386-1.987 0-3.133-.815-1.142-.821-1.304-2.197l2.916-.073q.096.507.501.773.404.266 1.032.266.567 0 .924-.212.356-.21.362-.561a.6.6 0 0 0-.278-.501q-.272-.194-.851-.302l-1.618-.308q-1.395-.253-2.077-.936-.682-.688-.676-1.75-.006-.93.495-1.588.501-.664 1.425-1.014t2.179-.35q1.884 0 2.97.79 1.087.785 1.202 2.162m9.778 0-2.71.072a1 1 0 0 0-.23-.513 1.24 1.24 0 0 0-.489-.356 1.7 1.7 0 0 0-.688-.133q-.513 0-.875.205-.357.205-.351.556a.6.6 0 0 0 .218.47q.229.2.815.32l1.787.339q1.388.265 2.064.88.682.617.688 1.63-.006.955-.567 1.661-.555.706-1.521 1.099-.966.386-2.21.386-1.986 0-3.133-.815-1.141-.821-1.304-2.197l2.916-.073q.096.507.501.773t1.032.266q.568 0 .924-.212.356-.21.362-.561a.6.6 0 0 0-.278-.501q-.271-.194-.851-.302l-1.618-.308q-1.394-.253-2.076-.936-.683-.688-.676-1.75-.008-.93.495-1.588.5-.664 1.424-1.014t2.18-.35q1.882 0 2.97.79 1.087.785 1.201 2.162m6.017 6.616q-1.455 0-2.511-.573a3.97 3.97 0 0 1-1.618-1.648q-.561-1.075-.561-2.554 0-1.437.567-2.511.567-1.08 1.6-1.679 1.032-.603 2.433-.604.99 0 1.811.308.82.309 1.419.912.597.604.929 1.491.332.882.332 2.023v.736h-8.059v-1.715h5.313a1.66 1.66 0 0 0-.224-.839 1.5 1.5 0 0 0-.597-.573 1.73 1.73 0 0 0-.864-.211q-.495 0-.887.223a1.68 1.68 0 0 0-.863 1.449v1.745q0 .567.223.996.223.421.634.658.41.235.978.235.392 0 .712-.109.32-.108.549-.32.23-.21.345-.519l2.71.079a3.36 3.36 0 0 1-.742 1.587q-.568.67-1.492 1.045-.923.368-2.137.368m5.909-.175v-9.273h2.807v1.703h.103a2.64 2.64 0 0 1 .978-1.334q.688-.49 1.642-.49.966 0 1.654.496.689.494.875 1.328h.097a2.4 2.4 0 0 1 1.014-1.322q.755-.502 1.781-.502 1.316 0 2.137.846.82.84.821 2.306V43.5h-2.952v-5.566q0-.694-.356-1.056-.356-.369-.924-.369-.609 0-.96.399-.344.392-.344 1.056V43.5h-2.837v-5.596q0-.646-.35-1.02-.351-.375-.924-.375a1.25 1.25 0 0 0-1.147.707 1.8 1.8 0 0 0-.163.796V43.5zm15.738 0V31.136h2.952v4.679h.061a3.2 3.2 0 0 1 .513-.815q.338-.393.857-.64.525-.254 1.256-.254.966 0 1.805.508.845.507 1.364 1.563t.519 2.693q0 1.575-.501 2.638-.495 1.063-1.34 1.594a3.4 3.4 0 0 1-1.865.53q-.7 0-1.214-.229a2.6 2.6 0 0 1-.863-.603 2.9 2.9 0 0 1-.531-.803h-.091V43.5zm2.892-4.636q0 .748.199 1.304.205.555.586.863.386.302.923.302.544 0 .924-.302.38-.308.574-.863.199-.555.199-1.304 0-.75-.199-1.298-.193-.55-.574-.852-.373-.3-.924-.301-.543 0-.923.295-.38.297-.586.846-.2.548-.199 1.31m10.934-7.728V43.5h-2.952V31.136zm3.684 15.841q-.531 0-1.002-.084a4 4 0 0 1-.809-.212l.652-2.143q.435.145.785.17.357.023.61-.115.26-.133.398-.477l.115-.278-3.296-9.61h3.091l1.708 6.616h.097l1.732-6.617h3.109l-3.495 10.16a4.3 4.3 0 0 1-.718 1.34q-.46.587-1.19.918-.724.332-1.787.332"/></g><defs><filter id="b" width="51.429" height="51.429" x="6.286" y="2.286" color-interpolation-filters="sRGB" filterUnits="userSpaceOnUse"><feFlood flood-opacity="0" result="BackgroundImageFix"/><feColorMatrix in="SourceAlpha" result="hardAlpha" values="0 0 0 0 0 0 0 0 0 0 0 0 0 0 0 0 0 0 127 0"/><feOffset/><feGaussianBlur stdDeviation="2.857"/><feComposite in2="hardAlpha" operator="out"/><feColorMatrix values="0 0 0 0 0 0 0 0 0 0 0 0 0 0 0 0 0 0 0.25 0"/><feBlend in2="BackgroundImageFix" result="effect1_dropShadow_2_875"/><feBlend in="SourceGraphic" in2="effect1_dropShadow_2_875" result="shape"/></filter><filter id="c" width="133.2" height="48.677" x="54.4" y="3.9" color-interpolation-filters="sRGB" filterUnits="userSpaceOnUse"><feFlood flood-opacity="0" result="BackgroundImageFix"/><feColorMatrix in="SourceAlpha" result="hardAlpha" values="0 0 0 0 0 0 0 0 0 0 0 0 0 0 0 0 0 0 127 0"/><feOffset/><feGaussianBlur stdDeviation="2.8"/><feComposite in2="hardAlpha" operator="out"/><feColorMatrix values="0 0 0 0 0 0 0 0 0 0 0 0 0 0 0 0 0 0 0.25 0"/><feBlend in2="BackgroundImageFix" result="effect1_dropShadow_2_875"/><feBlend in="SourceGraphic" in2="effect1_dropShadow_2_875" result="shape"/></filter><linearGradient id="a" x1="97" x2="97" y1="0" y2="56" gradientUnits="userSpaceOnUse"><stop stop-color="#140e3a"/><stop offset="1" stop-color="#0a0622"/></linearGradient></defs></svg>