<svg xmlns="http://www.w3.org/2000/svg" width="56" height="56" fill="none" viewBox="0 0 56 56"><rect width="56" height="56" fill="url(#a)" rx="8.4"/><rect width="53.9" height="53.9" x="1.05" y="1.05" stroke="#fff" stroke-opacity=".15" stroke-width="2.1" rx="7.35"/><g filter="url(#b)"><path fill="#f1f1f1" d="M34.852 38.016a4.4 4.4 0 0 1-2.721-.93c-.907-.743-1.633-1.86-1.633-3.161 0-.744.726-.744.726-.744h1.633c.544 0 .725.744.725.93.182 1.86 1.27 2.604 1.996 2.976.362.185.181.93-.726.93m-9.433-9.113-3.265-.372c-1.452-.557-1.452-1.86-1.27-2.231.181-1.302.725-2.604 1.27-3.72.907-1.302 2.176-2.604 3.81-3.534 3.083-1.86 7.437-2.975 12.153-2.975 3.447 0 7.075.558 7.075.558.363 0 .544.372.544.744s-.18.743-.544.743h-1.451c-4.898 0-8.345.744-10.884 2.232-2.54 1.488-4.354 3.72-5.443 6.882-.181.186-.544 1.86-1.995 1.673M29.59 42.48c-2.358 0-4.716-1.116-6.349-2.976-1.451-1.674-2.358-3.347-2.54-5.393-.181-1.488.544-1.86 1.27-1.86l3.265.372c.726.186 1.27.558 1.452 1.488.725 4.65 3.447 6.51 5.26 7.067q.545 0 .545.558c0 .372-.182.558-.544.744zm-6.893 4.092c-1.27 0-2.54-.187-3.81-.373-1.995-.371-3.628-.93-5.08-2.045-3.446-2.232-5.441-6.324-5.804-10.973 0-1.116-.182-3.348 2.358-3.162 1.088 0 2.721.558 3.991.93 1.451.372 2.177 1.674 2.177 2.79 0 6.695 5.805 11.159 8.345 11.159 1.088 0 .725 1.301.181 1.301-.726.373-1.814.373-2.358.373m-8.89-19.528c-1.088-.186-1.995-.558-2.902-.93-2.902-.744-2.358-3.906-2.177-4.65 2.722-8.183 11.248-10.973 18.141-11.717a49.9 49.9 0 0 1 19.592 1.674c.544.186 2.177.558 1.27 1.488-.544.558-2.903 0-3.447 0-3.628-.372-7.437-.372-11.066.186-3.99.558-7.982 1.86-11.065 4.65-1.814 1.301-4.536 5.95-4.536 6.509-.181.558-.907 3.162-3.81 2.79m16.509 1.487c.544-2.603 3.084-6.695 10.703-6.323 1.814 0 .907 1.302 0 1.302-4.354-.186-6.35 2.79-7.438 5.58-.363.93-1.088 1.115-2.177.93-.544-.187-1.27-.187-1.088-1.489"/></g><defs><linearGradient id="a" x1="28" x2="28" y1="0" y2="56" gradientUnits="userSpaceOnUse"><stop stop-color="#273227"/><stop offset="1" stop-color="#181f18"/></linearGradient><filter id="b" width="51.429" height="51.429" x="2.286" y="2.286" color-interpolation-filters="sRGB" filterUnits="userSpaceOnUse"><feFlood flood-opacity="0" result="BackgroundImageFix"/><feColorMatrix in="SourceAlpha" result="hardAlpha" values="0 0 0 0 0 0 0 0 0 0 0 0 0 0 0 0 0 0 127 0"/><feOffset/><feGaussianBlur stdDeviation="2.857"/><feComposite in2="hardAlpha" operator="out"/><feColorMatrix values="0 0 0 0 0 0 0 0 0 0 0 0 0 0 0 0 0 0 0.25 0"/><feBlend in2="BackgroundImageFix" result="effect1_dropShadow_16_64"/><feBlend in="SourceGraphic" in2="effect1_dropShadow_16_64" result="shape"/></filter></defs></svg>