<svg xmlns="http://www.w3.org/2000/svg" width="56" height="56" fill="none" viewBox="0 0 56 56"><rect width="56" height="56" fill="url(#a)" rx="8.4"/><rect width="53.9" height="53.9" x="1.05" y="1.05" stroke="#fff" stroke-opacity=".15" stroke-width="2.1" rx="7.35"/><g stroke="#f1f1f1" stroke-linecap="round" stroke-linejoin="round" stroke-width="2.857" filter="url(#b)"><path d="M28.001 46.571c10.257 0 18.571-8.314 18.571-18.571S38.259 9.429 28.002 9.429C17.743 9.429 9.43 17.743 9.43 28S17.744 46.571 28 46.571M9.43 28h37.143"/><path d="M28 9.429A28.4 28.4 0 0 1 35.43 28 28.4 28.4 0 0 1 28 46.571 28.4 28.4 0 0 1 20.572 28 28.4 28.4 0 0 1 28 9.429"/></g><defs><linearGradient id="a" x1="28" x2="28" y1="0" y2="56" gradientUnits="userSpaceOnUse"><stop stop-color="#303030"/><stop offset="1" stop-color="#1d1d1d"/></linearGradient><filter id="b" width="51.429" height="51.429" x="2.286" y="2.286" color-interpolation-filters="sRGB" filterUnits="userSpaceOnUse"><feFlood flood-opacity="0" result="BackgroundImageFix"/><feColorMatrix in="SourceAlpha" result="hardAlpha" values="0 0 0 0 0 0 0 0 0 0 0 0 0 0 0 0 0 0 127 0"/><feOffset/><feGaussianBlur stdDeviation="2.857"/><feComposite in2="hardAlpha" operator="out"/><feColorMatrix values="0 0 0 0 0 0 0 0 0 0 0 0 0 0 0 0 0 0 0.25 0"/><feBlend in2="BackgroundImageFix" result="effect1_dropShadow_16_37"/><feBlend in="SourceGraphic" in2="effect1_dropShadow_16_37" result="shape"/></filter></defs></svg>