<svg xmlns="http://www.w3.org/2000/svg" width="56" height="56" fill="none" viewBox="0 0 56 56"><rect width="56" height="56" fill="url(#a)" rx="8.4"/><rect width="53.9" height="53.9" x="1.05" y="1.05" stroke="#fff" stroke-opacity=".15" stroke-width="2.1" rx="7.35"/><g filter="url(#b)"><path fill="url(#c)" d="M33.626 35.381a4.5 4.5 0 0 1-1.712-.347c-1.235-.519-2.322-1.499-3.207-2.824q.379-.651.683-1.335c.89-1.996 1.313-4.181 1.345-6.35l-.01-.13-.003-.111a7.2 7.2 0 0 0-.44-2.515c-.35-.925-.907-1.85-1.79-2.211a1.2 1.2 0 0 0-.498-.09c-1.113-2.004-1.148-3.925 0-5.754h.062a7.56 7.56 0 0 1 3.842 1.121c3.125 1.917 4.683 5.65 4.717 9.317l-.001.128h.017c-.004 3.875-.97 7.804-3.005 11.101m-6.928 6.082a11.97 11.97 0 0 1-9.201-.2c-3.328-1.49-5.871-4.385-7.438-7.691-2.679-5.654-2.74-12.413-.2-18.154 1.909.736 3.605-.436 3.605-.436s-.003 1.804 1.808 2.709c-1.859 4.2-1.814 9.189.049 13.281.896 1.97 2.266 3.803 4.165 4.84.677.37 1.422.61 2.188.699l.009.012c1.352 2.036 3.056 3.733 5.015 4.94"/><path fill="url(#d)" fill-rule="evenodd" d="M33.626 35.383a4.5 4.5 0 0 1-1.712-.348c-1.235-.519-2.322-1.499-3.207-2.824q.379-.651.683-1.336.402-.904.68-1.852c.43-1.46 6.137.394 5.266 2.8a19.3 19.3 0 0 1-1.71 3.56m-6.93 6.08a11.97 11.97 0 0 1-9.199-.2c-3.328-1.49.09-6.488 1.99-5.451a6 6 0 0 0 2.186.699l.01.014c1.352 2.035 3.056 3.731 5.014 4.939" clip-rule="evenodd" opacity=".3"/><path fill="url(#e)" d="m19.389 24.28-.002-.128c.035-3.667 1.593-7.4 4.717-9.317a7.56 7.56 0 0 1 3.905-1.12v5.754a1.2 1.2 0 0 0-.498.089c-.884.36-1.441 1.286-1.79 2.21a7.2 7.2 0 0 0-.44 2.516l-.003.111-.011.13c.032 2.169.456 4.354 1.345 6.35.997 2.235 2.581 4.29 4.818 5.23 1.687.71 3.557.542 5.087-.293 1.898-1.037 3.268-2.87 4.164-4.84 1.863-4.092 1.908-9.082.05-13.282 1.81-.904 1.807-2.709 1.807-2.709s1.696 1.173 3.605.437c2.54 5.74 2.479 12.5-.2 18.154-1.566 3.305-4.11 6.201-7.437 7.691-2.963 1.327-6.447 1.36-9.412.114-2.665-1.12-4.832-3.138-6.39-5.484-2.259-3.398-3.328-7.536-3.333-11.612z"/></g><defs><linearGradient id="a" x1="28" x2="28" y1="0" y2="56" gradientUnits="userSpaceOnUse"><stop stop-color="#1a2c32"/><stop offset="1" stop-color="#0e1c0f"/></linearGradient><linearGradient id="c" x1="8.001" x2="27.544" y1="24.588" y2="24.588" gradientUnits="userSpaceOnUse"><stop stop-color="#00d2e6"/><stop offset="1" stop-color="#2eccaa"/></linearGradient><linearGradient id="d" x1="19.439" x2="29.585" y1="36.735" y2="30.03" gradientUnits="userSpaceOnUse"><stop stop-opacity="0"/><stop offset=".514"/><stop offset="1" stop-opacity="0"/></linearGradient><linearGradient id="e" x1="48.001" x2="28.491" y1="25.063" y2="25.063" gradientUnits="userSpaceOnUse"><stop stop-color="#1fa385"/><stop offset="1" stop-color="#2eccaa"/></linearGradient><filter id="b" width="51.43" height="51.429" x="2.286" y="2.286" color-interpolation-filters="sRGB" filterUnits="userSpaceOnUse"><feFlood flood-opacity="0" result="BackgroundImageFix"/><feColorMatrix in="SourceAlpha" result="hardAlpha" values="0 0 0 0 0 0 0 0 0 0 0 0 0 0 0 0 0 0 127 0"/><feOffset/><feGaussianBlur stdDeviation="2.857"/><feComposite in2="hardAlpha" operator="out"/><feColorMatrix values="0 0 0 0 0 0 0 0 0 0 0 0 0 0 0 0 0 0 0.25 0"/><feBlend in2="BackgroundImageFix" result="effect1_dropShadow_16_55"/><feBlend in="SourceGraphic" in2="effect1_dropShadow_16_55" result="shape"/></filter></defs></svg>