<svg xmlns="http://www.w3.org/2000/svg" width="40" height="40" fill="none" viewBox="0 0 40 40"><rect width="40" height="40" fill="url(#a)" rx="8"/><rect width="37.9" height="37.9" x="1.05" y="1.05" stroke="#fff" stroke-opacity=".15" stroke-width="2.1" rx="6.95"/><g filter="url(#b)"><path fill="#f1f1f1" d="M31.385 11.714V32.43a1 1 0 0 1-1 1H9.615a1 1 0 0 1-1-1V7.572a1 1 0 0 1 1-1h20.769a1 1 0 0 1 1 1z"/><path fill="#231f20" d="M26.223 15.143h-14.6a.7.7 0 1 0 0 1.4h14.6a.7.7 0 1 0 0-1.4m2 3.429H11.777a.7.7 0 1 0 0 1.4h16.446a.7.7 0 1 0 0-1.4m0 3.428H11.777a.7.7 0 1 0 0 1.4h16.446a.7.7 0 1 0 0-1.4m0 3.429H11.777a.7.7 0 1 0 0 1.4h16.446a.7.7 0 1 0 0-1.4m-3.692 3.428H11.777a.7.7 0 1 0 0 1.4h12.754a.7.7 0 1 0 0-1.4m3.692 0h-.754a.7.7 0 1 0 0 1.4h.754a.7.7 0 1 0 0-1.4M14.07 8.572h-2.293a.7.7 0 1 0 0 1.4h2.293a.7.7 0 1 0 0-1.4m3.692 2h-5.985a.7.7 0 1 0 0 1.4h5.985a.7.7 0 1 0 0-1.4"/></g><defs><linearGradient id="a" x1="20" x2="20" y1="0" y2="40" gradientUnits="userSpaceOnUse"><stop stop-color="#303030"/><stop offset="1" stop-color="#1d1d1d"/></linearGradient><filter id="b" width="36" height="36" x="2" y="2" color-interpolation-filters="sRGB" filterUnits="userSpaceOnUse"><feFlood flood-opacity="0" result="BackgroundImageFix"/><feColorMatrix in="SourceAlpha" result="hardAlpha" values="0 0 0 0 0 0 0 0 0 0 0 0 0 0 0 0 0 0 127 0"/><feOffset/><feGaussianBlur stdDeviation="2"/><feComposite in2="hardAlpha" operator="out"/><feColorMatrix values="0 0 0 0 0 0 0 0 0 0 0 0 0 0 0 0 0 0 0.25 0"/><feBlend in2="BackgroundImageFix" result="effect1_dropShadow_2_2048"/><feBlend in="SourceGraphic" in2="effect1_dropShadow_2_2048" result="shape"/></filter></defs></svg>