<svg xmlns="http://www.w3.org/2000/svg" width="40" height="40" fill="none" viewBox="0 0 40 40"><rect width="40" height="40" fill="url(#a)" rx="8"/><rect width="37.9" height="37.9" x="1.05" y="1.05" stroke="#fff" stroke-opacity=".15" stroke-width="2.1" rx="6.95"/><g filter="url(#b)"><path fill="#e8e8e8" fill-rule="evenodd" d="M7 10.222A1.224 1.224 0 0 1 8.22 9h6.91c1.994 0 3.765.962 4.874 2.446A6.09 6.09 0 0 1 24.885 9h6.898A1.217 1.217 0 0 1 33 10.222v17.112a1.224 1.224 0 0 1-1.22 1.223h-7.323a3.65 3.65 0 0 0-2.585 1.074l-1.01 1.012a1.217 1.217 0 0 1-1.723 0l-1.01-1.012a3.66 3.66 0 0 0-2.586-1.075H8.22A1.217 1.217 0 0 1 7 27.335zm14.227 4.89c0-.973.385-1.906 1.07-2.593a3.65 3.65 0 0 1 2.585-1.074h5.68v14.667h-6.105a6.1 6.1 0 0 0-3.237.932zm-2.444 11.935.006-8.267-.003-3.672a3.67 3.67 0 0 0-1.072-2.59 3.65 3.65 0 0 0-2.584-1.073H9.438v14.667h6.105a6.1 6.1 0 0 1 3.24.935" clip-rule="evenodd"/></g><defs><linearGradient id="a" x1="20" x2="20" y1="0" y2="40" gradientUnits="userSpaceOnUse"><stop stop-color="#1b2330"/><stop offset="1" stop-color="#10151d"/></linearGradient><filter id="b" width="36" height="36" x="2" y="2" color-interpolation-filters="sRGB" filterUnits="userSpaceOnUse"><feFlood flood-opacity="0" result="BackgroundImageFix"/><feColorMatrix in="SourceAlpha" result="hardAlpha" values="0 0 0 0 0 0 0 0 0 0 0 0 0 0 0 0 0 0 127 0"/><feOffset/><feGaussianBlur stdDeviation="2"/><feComposite in2="hardAlpha" operator="out"/><feColorMatrix values="0 0 0 0 0 0 0 0 0 0 0 0 0 0 0 0 0 0 0.25 0"/><feBlend in2="BackgroundImageFix" result="effect1_dropShadow_2_2070"/><feBlend in="SourceGraphic" in2="effect1_dropShadow_2_2070" result="shape"/></filter></defs></svg>