<svg xmlns="http://www.w3.org/2000/svg" width="40" height="40" fill="none" viewBox="0 0 40 40"><rect width="40" height="40" fill="url(#a)" rx="8"/><rect width="37.9" height="37.9" x="1.05" y="1.05" stroke="#fff" stroke-opacity=".15" stroke-width="2.1" rx="6.95"/><g filter="url(#b)"><path fill="#4285fd" d="M18.603 26.669c.438 0 .831.346.831.822 0 .432-.35.822-.83.822a.826.826 0 0 1-.832-.822c0-.476.394-.822.831-.822m12.86-5.02a.826.826 0 0 1-.831-.822c0-.432.35-.822.831-.822.437 0 .831.347.831.822 0 .433-.394.822-.831.822m0-3.331c-1.4 0-2.537 1.125-2.537 2.51q0 .389.131.778l-8.354 4.413a2.54 2.54 0 0 0-2.1-1.081c-.962 0-1.837.562-2.274 1.384l-7.524-3.894c-.787-.432-1.4-1.687-1.312-2.899.044-.605.262-1.081.569-1.254.218-.13.437-.087.743.043l.044.043c2.012 1.039 8.53 4.413 8.792 4.543.437.173.656.26 1.4-.086l13.472-6.923c.218-.086.437-.26.437-.562 0-.39-.394-.563-.394-.563-.787-.346-1.968-.909-3.105-1.428-2.45-1.125-5.249-2.423-6.474-3.072-1.05-.562-1.924-.086-2.056 0l-.306.13c-5.555 2.77-12.903 6.36-13.34 6.62-.744.433-1.226 1.341-1.27 2.466-.087 1.774.832 3.635 2.144 4.284l7.96 4.067C16.286 29.048 17.38 30 18.604 30c1.4 0 2.493-1.082 2.537-2.466l8.748-4.673c.438.346 1.006.52 1.575.52 1.4 0 2.537-1.126 2.537-2.51a2.534 2.534 0 0 0-2.537-2.553"/></g><defs><linearGradient id="a" x1="20" x2="20" y1="0" y2="40" gradientUnits="userSpaceOnUse"><stop stop-color="#121e34"/><stop offset="1" stop-color="#0a121f"/></linearGradient><filter id="b" width="36" height="36" x="2" y="2" color-interpolation-filters="sRGB" filterUnits="userSpaceOnUse"><feFlood flood-opacity="0" result="BackgroundImageFix"/><feColorMatrix in="SourceAlpha" result="hardAlpha" values="0 0 0 0 0 0 0 0 0 0 0 0 0 0 0 0 0 0 127 0"/><feOffset/><feGaussianBlur stdDeviation="2"/><feComposite in2="hardAlpha" operator="out"/><feColorMatrix values="0 0 0 0 0 0 0 0 0 0 0 0 0 0 0 0 0 0 0.25 0"/><feBlend in2="BackgroundImageFix" result="effect1_dropShadow_2_2063"/><feBlend in="SourceGraphic" in2="effect1_dropShadow_2_2063" result="shape"/></filter></defs></svg>