<svg xmlns="http://www.w3.org/2000/svg" width="40" height="40" fill="none" viewBox="0 0 40 40"><g clip-path="url(#a)"><rect width="40" height="40" fill="url(#b)" rx="8"/><g filter="url(#c)"><g stroke="#3fb950" stroke-linecap="round" stroke-linejoin="round" stroke-width="2.86" clip-path="url(#d)"><path d="M20 31.667c6.444 0 11.667-5.224 11.667-11.667S26.443 8.333 20 8.333 8.334 13.557 8.334 20 13.557 31.667 20 31.667"/><path fill="#3fb950" d="M20 21.167a1.167 1.167 0 1 0 0-2.333 1.167 1.167 0 0 0 0 2.333"/></g></g></g><rect width="37.9" height="37.9" x="1.05" y="1.05" stroke="#fff" stroke-opacity=".15" stroke-width="2.1" rx="6.95"/><defs><clipPath id="a"><rect width="40" height="40" fill="#fff" rx="8"/></clipPath><clipPath id="d"><path fill="#fff" d="M6 6h28v28H6z"/></clipPath><linearGradient id="b" x1="20" x2="20" y1="0" y2="40" gradientUnits="userSpaceOnUse"><stop stop-color="#181f29"/><stop offset="1" stop-color="#0f131a"/></linearGradient><filter id="c" width="39.429" height="39.429" x=".286" y=".286" color-interpolation-filters="sRGB" filterUnits="userSpaceOnUse"><feFlood flood-opacity="0" result="BackgroundImageFix"/><feColorMatrix in="SourceAlpha" result="hardAlpha" values="0 0 0 0 0 0 0 0 0 0 0 0 0 0 0 0 0 0 127 0"/><feOffset/><feGaussianBlur stdDeviation="2.857"/><feComposite in2="hardAlpha" operator="out"/><feColorMatrix values="0 0 0 0 0 0 0 0 0 0 0 0 0 0 0 0 0 0 0.25 0"/><feBlend in2="BackgroundImageFix" result="effect1_dropShadow_8_77"/><feBlend in="SourceGraphic" in2="effect1_dropShadow_8_77" result="shape"/></filter></defs></svg>