<svg xmlns="http://www.w3.org/2000/svg" width="40" height="40" fill="none" viewBox="0 0 40 40"><g clip-path="url(#a)"><rect width="40" height="40" fill="url(#b)" rx="8"/><g filter="url(#c)"><g stroke="#3fb950" stroke-linecap="round" stroke-linejoin="round" stroke-width="2.86" clip-path="url(#d)"><path d="M11.834 16.5a3.5 3.5 0 1 0 0-7 3.5 3.5 0 0 0 0 7m0 0v14m16.333 0a3.5 3.5 0 1 0 0-7 3.5 3.5 0 0 0 0 7m-4.667-14L20 13l3.5-3.5"/><path d="M20 13h5.833a2.333 2.333 0 0 1 2.334 2.333V23.5"/></g></g></g><rect width="37.9" height="37.9" x="1.05" y="1.05" stroke="#fff" stroke-opacity=".15" stroke-width="2.1" rx="6.95"/><defs><clipPath id="a"><rect width="40" height="40" fill="#fff" rx="8"/></clipPath><clipPath id="d"><path fill="#fff" d="M6 6h28v28H6z"/></clipPath><linearGradient id="b" x1="20" x2="20" y1="0" y2="40" gradientUnits="userSpaceOnUse"><stop stop-color="#181f29"/><stop offset="1" stop-color="#0f131a"/></linearGradient><filter id="c" width="39.429" height="39.429" x=".286" y=".286" color-interpolation-filters="sRGB" filterUnits="userSpaceOnUse"><feFlood flood-opacity="0" result="BackgroundImageFix"/><feColorMatrix in="SourceAlpha" result="hardAlpha" values="0 0 0 0 0 0 0 0 0 0 0 0 0 0 0 0 0 0 127 0"/><feOffset/><feGaussianBlur stdDeviation="2.857"/><feComposite in2="hardAlpha" operator="out"/><feColorMatrix values="0 0 0 0 0 0 0 0 0 0 0 0 0 0 0 0 0 0 0.25 0"/><feBlend in2="BackgroundImageFix" result="effect1_dropShadow_8_85"/><feBlend in="SourceGraphic" in2="effect1_dropShadow_8_85" result="shape"/></filter></defs></svg>