<svg xmlns="http://www.w3.org/2000/svg" width="40" height="40" fill="none" viewBox="0 0 40 40"><rect width="40" height="40" fill="url(#a)" rx="8"/><rect width="37.9" height="37.9" x="1.05" y="1.05" stroke="#fff" stroke-opacity=".15" stroke-width="2.1" rx="6.95"/><g filter="url(#b)"><path fill="#fff" d="M18.586 19.495a.675.675 0 0 0-.605.621.67.67 0 0 0 .513.698s1.656.547 4.477.771c2.265.182 4.833-.154 4.833-.154a.68.68 0 0 0 .624-.384.67.67 0 0 0-.093-.719.69.69 0 0 0-.701-.216s-2.513.309-4.557.14c-2.692-.21-4.161-.701-4.161-.701a.7.7 0 0 0-.33 0zm0-3.325a.675.675 0 0 0-.571.616.67.67 0 0 0 .479.688s1.656.547 4.477.771c2.265.183 4.833-.154 4.833-.154a.69.69 0 0 0 .543-.406.65.65 0 0 0-.086-.666.69.69 0 0 0-.628-.26s-2.512.308-4.556.14c-2.692-.21-4.162-.701-4.162-.701a.7.7 0 0 0-.329 0zm0-3.327a.675.675 0 0 0-.605.621.67.67 0 0 0 .513.698s1.656.533 4.477.771c2.265.183 4.833-.154 4.833-.154a.69.69 0 0 0 .543-.406.65.65 0 0 0-.086-.667.69.69 0 0 0-.628-.26s-2.512.309-4.556.14c-2.692-.21-4.162-.7-4.162-.7a.7.7 0 0 0-.329 0zm0-3.327a.675.675 0 0 0-.605.622.67.67 0 0 0 .513.697s1.656.547 4.477.771c2.265.183 4.833-.154 4.833-.154a.68.68 0 0 0 .624-.383.67.67 0 0 0-.093-.72.69.69 0 0 0-.701-.215s-2.513.308-4.557.14c-2.692-.21-4.161-.702-4.161-.702a.7.7 0 0 0-.33 0zm-4.722-3.508C10.316 6.008 9 7.102 9 7.102v26.105s1.289-1.094 5.439-.926 5.005 1.603 10.105 1.704c5.1.14 6.382-.771 6.382-.771L31 6.601s-2.296.646-6.762.674c-4.466 0-5.54-1.122-9.64-1.262q-.367-.014-.734-.013zm2.964 1.704s2.146.702 6.112.898c3.351.169 6.712-.322 6.712-.322V31.94s-1.7.883-5.953.574c-3.295-.238-6.92-1.463-6.92-1.463zm-2.07.613c.381 0 .69.304.69.68s-.31.68-.69.68c0 0-1.11.006-1.788.14-1.139.14-1.912.52-1.912.52a.7.7 0 0 1-.713.008.672.672 0 0 1 .078-1.2s1.008-.519 2.413-.66c.811-.14 1.923-.14 1.923-.14zm-.662 3.335q.33-.009.662 0a.68.68 0 0 1 .627.674.68.68 0 0 1-.627.674s-1.11.005-1.788.14c-1.139.14-1.912.518-1.912.518a.69.69 0 0 1-.878-.304.67.67 0 0 1 .242-.888s1.008-.533 2.413-.66c.406 0 .887 0 1.261-.14zm.662 3.324c.381 0 .69.304.69.68s-.31.68-.69.68c0 0-1.11-.007-1.788 0-1.139.14-1.912.52-1.912.52a.69.69 0 0 1-.878-.305.67.67 0 0 1 .242-.888s1.008-.52 2.413-.66c.811-.14 1.923-.14 1.923-.14z"/></g><defs><linearGradient id="a" x1="20" x2="20" y1="0" y2="40" gradientUnits="userSpaceOnUse"><stop stop-color="#24292c"/><stop offset="1" stop-color="#171a1c"/></linearGradient><filter id="b" width="36" height="36" x="2" y="2" color-interpolation-filters="sRGB" filterUnits="userSpaceOnUse"><feFlood flood-opacity="0" result="BackgroundImageFix"/><feColorMatrix in="SourceAlpha" result="hardAlpha" values="0 0 0 0 0 0 0 0 0 0 0 0 0 0 0 0 0 0 127 0"/><feOffset/><feGaussianBlur stdDeviation="2"/><feComposite in2="hardAlpha" operator="out"/><feColorMatrix values="0 0 0 0 0 0 0 0 0 0 0 0 0 0 0 0 0 0 0.25 0"/><feBlend in2="BackgroundImageFix" result="effect1_dropShadow_2_2077"/><feBlend in="SourceGraphic" in2="effect1_dropShadow_2_2077" result="shape"/></filter></defs></svg>