<svg xmlns="http://www.w3.org/2000/svg" width="40" height="40" fill="none" viewBox="0 0 40 40"><rect width="40" height="40" fill="url(#a)" rx="8"/><rect width="37.9" height="37.9" x="1.05" y="1.05" stroke="#fff" stroke-opacity=".15" stroke-width="2.1" rx="6.95"/><g filter="url(#b)"><g stroke="#fff" stroke-linecap="round" stroke-linejoin="round" stroke-width="2.86" clip-path="url(#c)"><path d="M17.656 21.167a5.83 5.83 0 0 0 8.796.63l3.5-3.5a5.833 5.833 0 0 0-8.248-8.249l-2.007 1.995"/><path d="M22.323 18.833a5.833 5.833 0 0 0-8.797-.63l-3.5 3.5a5.833 5.833 0 0 0 8.249 8.249l1.995-1.995"/></g></g><defs><linearGradient id="a" x1="20" x2="20" y1="0" y2="40" gradientUnits="userSpaceOnUse"><stop stop-color="#2c2935"/><stop offset="1" stop-color="#262022"/></linearGradient><clipPath id="c"><path fill="#fff" d="M5.99 6h28v28h-28z"/></clipPath><filter id="b" width="36.011" height="36" x="1.989" y="2" color-interpolation-filters="sRGB" filterUnits="userSpaceOnUse"><feFlood flood-opacity="0" result="BackgroundImageFix"/><feColorMatrix in="SourceAlpha" result="hardAlpha" values="0 0 0 0 0 0 0 0 0 0 0 0 0 0 0 0 0 0 127 0"/><feOffset/><feGaussianBlur stdDeviation="2"/><feComposite in2="hardAlpha" operator="out"/><feColorMatrix values="0 0 0 0 0 0 0 0 0 0 0 0 0 0 0 0 0 0 0.25 0"/><feBlend in2="BackgroundImageFix" result="effect1_dropShadow_2_2084"/><feBlend in="SourceGraphic" in2="effect1_dropShadow_2_2084" result="shape"/></filter></defs></svg>