<svg xmlns="http://www.w3.org/2000/svg" width="187" height="40" fill="none" viewBox="0 0 187 40"><g clip-path="url(#a)"><rect width="187.001" height="40.001" fill="url(#b)" rx="8"/><g filter="url(#c)"><path fill="#0d0c22" d="m29.73 11.979-.02-.012-.048-.015a.1.1 0 0 0 .068.027m.293 2.143-.022.005zm-.285-2.147-.009-.002v.005z"/><path fill="#0d0c22" d="M29.73 11.979h.001v-.002zm.275 2.139.035-.02.013-.007.011-.012a.2.2 0 0 0-.059.04m-.216-2.093-.034-.033-.023-.012a.1.1 0 0 0 .057.045M21.41 32.824a.2.2 0 0 0-.07.053l.022-.013zm4.865-.974c0-.031-.015-.025-.011.083q.001-.012.005-.026zm-.505.974a.2.2 0 0 0-.068.053l.021-.013zm-7.789.232a.15.15 0 0 0-.072-.034l.058.029zm-.771-.752a.2.2 0 0 0-.028-.09 1 1 0 0 1 .027.088z"/><path fill="#fd0" d="M22.39 18.86c-1.058.46-2.26.984-3.816.984a7 7 0 0 1-1.927-.27l1.077 11.254c.038.47.248.909.59 1.229.34.32.787.497 1.25.497 0 0 1.528.08 2.037.08.548 0 2.193-.08 2.193-.08.463 0 .91-.178 1.25-.498.342-.32.552-.758.59-1.228l1.154-12.437c-.516-.18-1.036-.298-1.622-.298-1.014 0-1.832.355-2.776.766"/><path fill="#0d0c22" d="m13.313 14.057.019.018.012.008a.2.2 0 0 0-.031-.026"/><path fill="#e8e8e8" d="m31.767 13.019-.162-.833c-.145-.747-.476-1.453-1.229-1.723-.241-.086-.515-.123-.7-.302-.186-.18-.24-.457-.283-.714-.08-.473-.154-.946-.235-1.418-.07-.405-.126-.861-.309-1.233-.238-.5-.731-.792-1.222-.985a7 7 0 0 0-.769-.243c-1.226-.329-2.515-.45-3.777-.519a31 31 0 0 0-4.543.077c-1.125.104-2.309.23-3.377.626-.391.145-.793.319-1.09.626-.365.377-.484.96-.218 1.431.19.334.51.57.85.727.442.201.904.354 1.378.457 1.32.297 2.688.413 4.037.463 1.495.061 2.992.012 4.48-.149q.552-.061 1.102-.148c.432-.067.709-.642.582-1.043-.153-.478-.562-.664-1.024-.592l-.205.031-.049.008q-.235.03-.47.056-.486.054-.974.087-1.094.077-2.19.077c-.717 0-1.435-.02-2.151-.069a27 27 0 0 1-1.42-.134l-.141-.018-.03-.004-.146-.022a15 15 0 0 1-.89-.161.137.137 0 0 1 0-.266h.006a14 14 0 0 1 1.029-.184h.002c.161-.01.323-.04.484-.06a30 30 0 0 1 4.206-.15 28 28 0 0 1 2.477.18l.168.022.112.017q.493.075.98.181c.481.107 1.1.141 1.314.678.068.17.099.36.136.539l.048.228.003.012.34 1.615a.3.3 0 0 1-.045.231.3.3 0 0 1-.198.123h-.004l-.07.01-.068.01q-.325.042-.652.08-.644.075-1.29.13a45 45 0 0 1-3.881.158 45 45 0 0 1-5.77-.38l-.155-.021-.357-.053c-.4-.061-.796-.136-1.195-.202-.482-.08-.942-.04-1.378.202a2.03 2.03 0 0 0-.83.876c-.188.395-.244.826-.328 1.25-.084.426-.215.883-.165 1.32.107.941.753 1.706 1.683 1.877a47.9 47.9 0 0 0 13.928.47.58.58 0 0 1 .484.172.6.6 0 0 1 .172.492l-.088.87-.532 5.28-.558 5.544-.159 1.56c-.05.513-.058 1.041-.153 1.547-.151.796-.68 1.285-1.453 1.464-.707.164-1.43.25-2.156.256-.804.005-1.608-.031-2.413-.027-.858.005-1.91-.076-2.573-.726-.583-.572-.663-1.467-.742-2.24l-.315-3.073-.583-5.695-.377-3.684-.018-.183c-.046-.44-.351-.87-.833-.847-.412.018-.88.375-.833.847l.28 2.732.578 5.65.493 4.816c.032.308.061.616.095.924.18 1.68 1.442 2.586 3.003 2.841.912.15 1.846.18 2.771.196 1.187.019 2.385.066 3.552-.153 1.729-.323 3.026-1.499 3.211-3.322l.159-1.579.526-5.225.573-5.69.263-2.609a.6.6 0 0 1 .153-.347.6.6 0 0 1 .326-.185c.495-.098.967-.266 1.319-.649.56-.61.671-1.405.473-2.206m-18.598.562c.008-.003-.006.063-.012.093-.002-.046 0-.087.012-.093m.048.378c.004-.003.016.013.028.033q-.029-.028-.028-.033m.047.064c.017.029.026.047 0 0m.095.078h.002c0 .003.005.005.006.008zm16.593-.117c-.177.172-.445.252-.71.291-2.965.448-5.974.675-8.972.575-2.146-.074-4.269-.317-6.393-.623-.209-.03-.434-.068-.577-.224-.27-.295-.137-.888-.067-1.244.064-.326.187-.761.568-.808.595-.07 1.285.185 1.874.276q1.063.165 2.133.264c3.046.283 6.142.239 9.175-.175a38 38 0 0 0 1.652-.263c.489-.09 1.03-.257 1.326.259.203.35.23.82.198 1.217a.68.68 0 0 1-.207.455"/></g><g filter="url(#d)"><path fill="#fd0" d="M42.937 26.5V14.138h5.156q1.388 0 2.324.393.942.391 1.413 1.098.477.706.477 1.636-.001.707-.296 1.262-.297.549-.815.912-.52.361-1.202.507v.12q.75.037 1.383.405a2.8 2.8 0 0 1 1.026 1.026q.387.652.386 1.546a3.2 3.2 0 0 1-.507 1.78q-.507.78-1.467 1.232-.96.447-2.33.447zm2.989-2.408h1.847q.972 0 1.43-.368.465-.369.465-1.027 0-.476-.223-.82a1.44 1.44 0 0 0-.634-.538q-.411-.193-.984-.193h-1.901zm0-4.872h1.654q.489 0 .869-.163.38-.162.592-.47.216-.309.217-.743 0-.622-.44-.978-.442-.357-1.19-.356h-1.703zm14.283 3.278v-5.27h2.946v9.273h-2.813v-1.727h-.097a2.7 2.7 0 0 1-1.05 1.352q-.737.495-1.781.495-.948 0-1.666-.434a2.96 2.96 0 0 1-1.117-1.214q-.398-.785-.405-1.835v-5.91h2.952v5.33q.006.756.399 1.19.391.434 1.068.434.441 0 .791-.193.357-.2.562-.573.21-.381.21-.918m6.63 7.48q-.531 0-1.002-.085a4 4 0 0 1-.81-.21l.653-2.144q.435.145.785.17.355.023.61-.116.258-.132.398-.477l.115-.277-3.297-9.611h3.091l1.709 6.616h.096l1.733-6.616h3.109l-3.495 10.16a4.3 4.3 0 0 1-.719 1.34 3.1 3.1 0 0 1-1.19.918q-.724.332-1.786.332m11.974-15.84h3.7l3.14 7.654h.145l3.14-7.655h3.7v12.364h-2.91v-7.595h-.103l-2.97 7.516h-1.86l-2.97-7.558h-.102v7.637h-2.91zm20.023 12.538q-1.455 0-2.511-.574a3.97 3.97 0 0 1-1.618-1.648q-.561-1.074-.562-2.553 0-1.437.568-2.512.567-1.08 1.6-1.678 1.032-.603 2.433-.604.99 0 1.811.308a3.9 3.9 0 0 1 1.418.912q.599.604.93 1.49.332.882.332 2.023v.737h-8.06v-1.715h5.313a1.66 1.66 0 0 0-.223-.839 1.5 1.5 0 0 0-.598-.573 1.7 1.7 0 0 0-.863-.212q-.495 0-.888.224a1.68 1.68 0 0 0-.863 1.449v1.744q0 .567.224.996.223.423.633.658t.978.236q.393 0 .713-.109a1.5 1.5 0 0 0 .549-.32q.23-.21.344-.52l2.711.08a3.35 3.35 0 0 1-.743 1.587q-.567.67-1.491 1.044-.924.369-2.137.369m12.175-.018q-.887 0-1.576-.296a2.45 2.45 0 0 1-1.08-.906q-.393-.609-.393-1.527 0-.773.272-1.304t.749-.863a3.5 3.5 0 0 1 1.098-.501 7 7 0 0 1 1.329-.236q.79-.072 1.273-.15.483-.086.701-.236a.51.51 0 0 0 .223-.44v-.031q0-.465-.32-.718-.32-.255-.863-.254-.587 0-.942.254a1.12 1.12 0 0 0-.453.7l-2.722-.097q.12-.844.621-1.509.507-.67 1.389-1.05.887-.387 2.131-.387.888 0 1.636.212.749.205 1.304.603.555.393.857.966.308.574.308 1.31v6.303h-2.777v-1.292h-.072q-.248.471-.634.797-.381.325-.9.489a3.8 3.8 0 0 1-1.159.163m.912-1.932q.476 0 .857-.193.387-.194.616-.532.23-.344.229-.797v-.88a1.7 1.7 0 0 1-.308.12 5 5 0 0 1-.386.103q-.211.048-.435.084l-.428.066a2.7 2.7 0 0 0-.713.206 1.13 1.13 0 0 0-.447.362.9.9 0 0 0-.15.52q0 .457.326.7.332.24.839.24m21.31-6.11h-3.018a2.6 2.6 0 0 0-.248-.839 2.1 2.1 0 0 0-.495-.64 2.1 2.1 0 0 0-.73-.404 2.8 2.8 0 0 0-.924-.145q-.9 0-1.552.44-.645.443-.996 1.274-.344.834-.344 2.017 0 1.231.35 2.065.357.825.996 1.25.646.416 1.528.416.495 0 .899-.127.41-.127.719-.368.313-.248.513-.598.205-.356.284-.803l3.018.018a4.6 4.6 0 0 1-.477 1.618 5.2 5.2 0 0 1-1.08 1.455 5.1 5.1 0 0 1-1.679 1.038q-.983.387-2.258.387-1.678 0-3.006-.737-1.322-.742-2.089-2.161t-.766-3.453q0-2.04.778-3.46.78-1.418 2.107-2.155 1.329-.736 2.976-.736 1.123 0 2.077.314a5 5 0 0 1 1.678.906q.725.591 1.178 1.454.452.864.561 1.974m6.038 8.06q-1.46 0-2.511-.598a4.13 4.13 0 0 1-1.612-1.678q-.561-1.08-.561-2.505 0-1.431.561-2.506.568-1.08 1.612-1.678 1.05-.603 2.511-.604 1.461 0 2.506.604 1.05.598 1.612 1.678.567 1.075.567 2.506 0 1.424-.567 2.505a4.1 4.1 0 0 1-1.612 1.678q-1.045.598-2.506.598m.019-2.228q.531 0 .899-.326.369-.326.562-.905.198-.58.199-1.34 0-.773-.199-1.353-.193-.58-.562-.905a1.3 1.3 0 0 0-.899-.326q-.55 0-.93.326-.375.326-.574.905a4.3 4.3 0 0 0-.193 1.352q0 .762.193 1.34.2.58.574.906.38.326.93.326m11.449-7.22V19.4h-5.965v-2.173zm-4.721 9.273v-9.744q0-1.075.404-1.78.405-.714 1.123-1.063.718-.357 1.66-.357.616 0 1.159.097.55.09.815.163l-.471 2.161a2.4 2.4 0 0 0-.398-.09 3 3 0 0 0-.435-.036q-.519 0-.712.229-.193.23-.193.628V26.5zm11.411-9.273V19.4h-5.964v-2.173zm-4.721 9.273v-9.744q0-1.075.405-1.78.404-.714 1.123-1.063.718-.357 1.66-.357.615 0 1.159.097.55.09.815.163l-.471 2.161a2.5 2.5 0 0 0-.399-.09 3 3 0 0 0-.434-.036q-.52 0-.713.229-.192.23-.193.628V26.5zm10.177.175q-1.455 0-2.511-.574a3.96 3.96 0 0 1-1.618-1.648q-.562-1.074-.562-2.553 0-1.437.568-2.512.567-1.08 1.6-1.678 1.032-.603 2.432-.604.99 0 1.811.308.822.308 1.419.912t.93 1.49q.332.882.332 2.023v.737h-8.059v-1.715h5.312a1.66 1.66 0 0 0-.223-.839 1.5 1.5 0 0 0-.598-.573 1.7 1.7 0 0 0-.863-.212q-.495 0-.888.224a1.68 1.68 0 0 0-.863 1.449v1.744q0 .567.223.996.224.423.634.658t.978.236q.393 0 .713-.109.32-.108.549-.32.23-.21.344-.52l2.711.08a3.36 3.36 0 0 1-.743 1.587q-.567.67-1.491 1.044-.924.369-2.137.369m10.243 0q-1.455 0-2.511-.574a3.96 3.96 0 0 1-1.618-1.648q-.562-1.074-.562-2.553 0-1.437.568-2.512.567-1.08 1.6-1.678 1.032-.603 2.433-.604.99 0 1.811.308a3.9 3.9 0 0 1 1.418.912q.599.604.93 1.49.332.882.332 2.023v.737h-8.059v-1.715h5.312a1.66 1.66 0 0 0-.223-.839 1.5 1.5 0 0 0-.598-.573 1.7 1.7 0 0 0-.863-.212q-.495 0-.888.224a1.68 1.68 0 0 0-.863 1.449v1.744q0 .567.224.996.223.423.633.658t.978.236q.392 0 .713-.109.32-.108.549-.32.23-.21.344-.52l2.711.08a3.35 3.35 0 0 1-.743 1.587q-.567.67-1.491 1.044-.924.369-2.137.369"/></g></g><rect width="184.858" height="37.858" x="1.071" y="1.071" stroke="#fff" stroke-opacity=".15" stroke-width="2.143" rx="6.929"/><defs><filter id="c" width="39.202" height="41.202" x="2.4" y="-.6" color-interpolation-filters="sRGB" filterUnits="userSpaceOnUse"><feFlood flood-opacity="0" result="BackgroundImageFix"/><feColorMatrix in="SourceAlpha" result="hardAlpha" values="0 0 0 0 0 0 0 0 0 0 0 0 0 0 0 0 0 0 127 0"/><feOffset/><feGaussianBlur stdDeviation="2.8"/><feComposite in2="hardAlpha" operator="out"/><feColorMatrix values="0 0 0 0 0 0 0 0 0 0 0 0 0 0 0 0 0 0 0.25 0"/><feBlend in2="BackgroundImageFix" result="effect1_dropShadow_28_2424"/><feBlend in="SourceGraphic" in2="effect1_dropShadow_28_2424" result="shape"/></filter><filter id="d" width="148.429" height="32.429" x="36.287" y="3.786" color-interpolation-filters="sRGB" filterUnits="userSpaceOnUse"><feFlood flood-opacity="0" result="BackgroundImageFix"/><feColorMatrix in="SourceAlpha" result="hardAlpha" values="0 0 0 0 0 0 0 0 0 0 0 0 0 0 0 0 0 0 127 0"/><feOffset/><feGaussianBlur stdDeviation="2.857"/><feComposite in2="hardAlpha" operator="out"/><feColorMatrix values="0 0 0 0 0 0 0 0 0 0 0 0 0 0 0 0 0 0 0.25 0"/><feBlend in2="BackgroundImageFix" result="effect1_dropShadow_28_2424"/><feBlend in="SourceGraphic" in2="effect1_dropShadow_28_2424" result="shape"/></filter><linearGradient id="b" x1="93.501" x2="93.501" y1="0" y2="40.001" gradientUnits="userSpaceOnUse"><stop stop-color="#372e00"/><stop offset="1" stop-color="#1e1900"/></linearGradient><clipPath id="a"><rect width="187.001" height="40.001" fill="#fff" rx="8"/></clipPath></defs></svg>