<svg xmlns="http://www.w3.org/2000/svg" width="183" height="40" fill="none" viewBox="0 0 183 40"><g clip-path="url(#a)"><rect width="183.001" height="40.001" fill="url(#b)" rx="8"/><g filter="url(#c)"><path fill="#0d0c22" d="m29.73 11.979-.02-.012-.048-.015a.1.1 0 0 0 .068.027m.293 2.143-.022.005zm-.285-2.147-.009-.002v.005z"/><path fill="#0d0c22" d="M29.73 11.979h.001v-.002zm.275 2.139.035-.02.013-.007.011-.012a.2.2 0 0 0-.059.04m-.216-2.093-.034-.033-.023-.012a.1.1 0 0 0 .057.045M21.41 32.824a.2.2 0 0 0-.07.053l.022-.013zm4.865-.974c0-.031-.015-.025-.011.083q.001-.012.005-.026zm-.505.974a.2.2 0 0 0-.068.053l.021-.013zm-7.789.232a.15.15 0 0 0-.072-.034l.058.029zm-.771-.752a.2.2 0 0 0-.028-.09 1 1 0 0 1 .027.088z"/><path fill="#fd0" d="M22.39 18.86c-1.058.46-2.26.984-3.816.984a7 7 0 0 1-1.927-.27l1.077 11.254c.038.47.248.909.59 1.229.34.32.787.497 1.25.497 0 0 1.528.08 2.037.08.548 0 2.193-.08 2.193-.08.463 0 .91-.178 1.25-.498.342-.32.552-.758.59-1.228l1.154-12.437c-.516-.18-1.036-.298-1.622-.298-1.014 0-1.832.355-2.776.766"/><path fill="#0d0c22" d="m13.313 14.057.019.018.012.008a.2.2 0 0 0-.031-.026"/><path fill="#e8e8e8" d="m31.767 13.019-.162-.833c-.145-.747-.476-1.453-1.229-1.723-.241-.086-.515-.123-.7-.302-.186-.18-.24-.457-.283-.714-.08-.473-.154-.946-.235-1.418-.07-.405-.126-.861-.309-1.233-.238-.5-.731-.792-1.222-.985a7 7 0 0 0-.769-.243c-1.226-.329-2.515-.45-3.777-.519a31 31 0 0 0-4.543.077c-1.125.104-2.309.23-3.377.626-.391.145-.793.319-1.09.626-.365.377-.484.96-.218 1.431.19.334.51.57.85.727.442.201.904.354 1.378.457 1.32.297 2.688.413 4.037.463 1.495.061 2.992.012 4.48-.149q.552-.061 1.102-.148c.432-.067.709-.642.582-1.043-.153-.478-.562-.664-1.024-.592l-.205.031-.049.008q-.235.03-.47.056a25 25 0 0 1-.974.087q-1.094.077-2.19.077c-.717 0-1.435-.02-2.151-.069a27 27 0 0 1-1.42-.134l-.141-.018-.03-.004-.146-.022a15 15 0 0 1-.89-.161.13.13 0 0 1-.074-.048.137.137 0 0 1 .075-.218h.006a14 14 0 0 1 1.028-.184h.002c.161-.01.323-.04.484-.06a30 30 0 0 1 4.206-.15 28 28 0 0 1 2.477.18l.168.022.112.017q.493.075.98.181c.481.107 1.1.141 1.314.678.068.17.099.36.136.539l.048.228.003.012.34 1.615a.3.3 0 0 1-.045.231.3.3 0 0 1-.198.123h-.004l-.07.01-.068.01q-.325.042-.652.08-.644.075-1.29.13a45 45 0 0 1-3.881.158 45 45 0 0 1-5.77-.38l-.155-.021-.357-.053c-.4-.061-.796-.136-1.195-.202-.482-.08-.942-.04-1.378.202a2.03 2.03 0 0 0-.83.876c-.188.395-.244.826-.328 1.25-.084.426-.215.883-.165 1.32.107.941.753 1.706 1.683 1.877a47.9 47.9 0 0 0 13.928.47.58.58 0 0 1 .484.172.6.6 0 0 1 .172.492l-.088.87-.532 5.28-.558 5.544-.159 1.56c-.05.513-.058 1.041-.153 1.547-.151.796-.68 1.285-1.453 1.464-.707.164-1.43.25-2.156.256-.804.005-1.608-.031-2.413-.027-.858.005-1.91-.076-2.573-.726-.583-.572-.663-1.467-.742-2.24l-.315-3.073-.583-5.695-.377-3.684-.018-.183c-.046-.44-.351-.87-.833-.847-.412.018-.88.375-.833.847l.28 2.732.578 5.65.493 4.816c.032.308.061.616.095.924.18 1.68 1.442 2.586 3.003 2.841.912.15 1.846.18 2.771.196 1.187.019 2.385.066 3.552-.153 1.729-.323 3.026-1.499 3.211-3.322l.159-1.579.526-5.225.573-5.69.263-2.609a.6.6 0 0 1 .153-.347c.087-.096.2-.16.326-.185.495-.098.967-.266 1.319-.649.56-.61.671-1.405.473-2.206m-18.598.562c.008-.003-.006.063-.012.093-.002-.046 0-.087.012-.093m.048.378c.004-.003.016.013.028.033q-.029-.028-.028-.033m.047.064c.017.029.026.047 0 0m.095.078h.002c0 .003.005.005.006.008zm16.593-.117c-.177.172-.445.252-.71.291-2.965.448-5.974.675-8.972.575-2.146-.074-4.269-.317-6.393-.623-.209-.03-.434-.068-.577-.224-.27-.295-.137-.888-.067-1.244.064-.326.187-.761.568-.808.595-.07 1.285.185 1.874.276q1.063.165 2.133.264c3.046.283 6.142.239 9.175-.175a38 38 0 0 0 1.652-.263c.489-.09 1.03-.257 1.326.259.203.35.23.82.198 1.217a.68.68 0 0 1-.207.455"/></g><g filter="url(#d)"><path fill="#fd0" d="M42.937 26.5V14.138h5.156q1.388 0 2.324.393.942.391 1.413 1.098.477.706.477 1.636-.001.707-.296 1.262-.297.549-.815.912-.52.361-1.202.507v.12q.75.037 1.383.405a2.8 2.8 0 0 1 1.026 1.026q.387.652.386 1.546a3.2 3.2 0 0 1-.507 1.78q-.507.78-1.467 1.232-.96.447-2.33.447zm2.989-2.408h1.847q.972 0 1.43-.368.465-.369.465-1.027 0-.476-.223-.82a1.44 1.44 0 0 0-.634-.538q-.411-.193-.984-.193h-1.901zm0-4.872h1.654q.489 0 .869-.163.38-.162.592-.47.216-.309.217-.743 0-.622-.44-.978-.442-.357-1.19-.356h-1.703zm14.283 3.278v-5.27h2.946v9.273h-2.813v-1.727h-.097a2.7 2.7 0 0 1-1.05 1.352q-.737.495-1.781.495-.948 0-1.666-.434a2.96 2.96 0 0 1-1.117-1.214q-.398-.785-.405-1.835v-5.91h2.952v5.33q.006.756.399 1.19.391.434 1.068.434.441 0 .791-.193.357-.2.562-.573.21-.381.21-.918m6.63 7.48q-.531 0-1.002-.085a4 4 0 0 1-.81-.21l.653-2.144q.435.145.785.17.355.023.61-.116.258-.132.398-.477l.115-.277-3.297-9.611h3.091l1.709 6.616h.096l1.733-6.616h3.109l-3.495 10.16a4.3 4.3 0 0 1-.719 1.34 3.1 3.1 0 0 1-1.19.918q-.724.332-1.786.332m19.454-15.84h2.982v7.974q0 1.382-.658 2.409-.658 1.02-1.835 1.581-1.178.556-2.735.556-1.575 0-2.753-.556-1.176-.561-1.829-1.581-.651-1.027-.652-2.41v-7.974H81.8v7.715q0 .64.278 1.141.285.501.791.785.507.285 1.177.284.67 0 1.171-.284.507-.284.791-.785t.284-1.14zm12.95 5.921-2.71.073a1 1 0 0 0-.23-.513 1.24 1.24 0 0 0-.488-.357 1.7 1.7 0 0 0-.689-.132q-.512 0-.875.205-.356.205-.35.555a.6.6 0 0 0 .217.471q.23.2.815.32l1.787.338q1.389.265 2.065.882.682.615.688 1.63-.006.953-.567 1.66-.555.706-1.522 1.098-.966.387-2.21.387-1.985 0-3.132-.815-1.142-.822-1.304-2.198l2.915-.072q.097.506.501.773.405.265 1.033.265.567 0 .924-.211.356-.21.362-.561a.6.6 0 0 0-.278-.502q-.272-.192-.851-.301l-1.618-.308q-1.395-.254-2.077-.936-.682-.688-.676-1.75-.006-.93.495-1.588.501-.664 1.425-1.015.923-.35 2.18-.35 1.883 0 2.97.791 1.086.785 1.2 2.161m7.95 6.599q-.888 0-1.576-.296a2.45 2.45 0 0 1-1.08-.906q-.393-.609-.393-1.527 0-.773.272-1.304.271-.531.748-.863a3.5 3.5 0 0 1 1.099-.501 7 7 0 0 1 1.328-.236q.79-.072 1.274-.15.483-.086.7-.236a.51.51 0 0 0 .224-.44v-.031q0-.465-.32-.718-.32-.255-.864-.254-.585 0-.941.254a1.1 1.1 0 0 0-.453.7l-2.723-.097a3.2 3.2 0 0 1 .622-1.509q.507-.67 1.389-1.05.886-.387 2.131-.387.887 0 1.636.212.748.205 1.304.603.555.393.857.966.308.574.308 1.31v6.303h-2.777v-1.292h-.073q-.247.471-.634.797-.38.325-.899.489a3.8 3.8 0 0 1-1.159.163m.911-1.932q.477 0 .858-.193.386-.194.615-.532.23-.344.23-.797v-.88a2 2 0 0 1-.308.12q-.176.054-.386.103-.212.048-.435.084l-.429.066a2.7 2.7 0 0 0-.712.206 1.13 1.13 0 0 0-.447.362.9.9 0 0 0-.151.52q0 .457.326.7.333.24.839.24m21.311-6.11h-3.019a2.6 2.6 0 0 0-.247-.839 2.1 2.1 0 0 0-.495-.64 2.1 2.1 0 0 0-.731-.404 2.8 2.8 0 0 0-.923-.145q-.9 0-1.552.44-.647.443-.996 1.274-.344.834-.344 2.017 0 1.231.35 2.065.356.825.996 1.25.646.416 1.527.416.495 0 .9-.127.41-.127.718-.368a2 2 0 0 0 .514-.598 2.5 2.5 0 0 0 .283-.803l3.019.018a4.6 4.6 0 0 1-.477 1.618 5.2 5.2 0 0 1-1.081 1.455 5.1 5.1 0 0 1-1.678 1.038q-.984.387-2.258.387-1.678 0-3.006-.737-1.323-.742-2.089-2.161-.767-1.419-.767-3.453 0-2.04.779-3.46.778-1.418 2.107-2.155 1.328-.736 2.976-.736 1.123 0 2.077.314a5 5 0 0 1 1.678.906q.724.591 1.177 1.454.453.864.562 1.974m6.038 8.06q-1.461 0-2.511-.598a4.1 4.1 0 0 1-1.612-1.678q-.562-1.08-.562-2.505 0-1.431.562-2.506.567-1.08 1.612-1.678 1.05-.603 2.511-.604 1.461 0 2.505.604a4 4 0 0 1 1.612 1.678q.568 1.075.568 2.506 0 1.424-.568 2.505a4.07 4.07 0 0 1-1.612 1.678q-1.044.598-2.505.598m.018-2.228q.531 0 .9-.326.368-.326.561-.905.2-.58.199-1.34 0-.773-.199-1.353-.194-.58-.561-.905a1.3 1.3 0 0 0-.9-.326q-.55 0-.929.326-.375.326-.574.905-.193.58-.193 1.352 0 .762.193 1.34.2.58.574.906.38.326.929.326m11.449-7.22V19.4h-5.964v-2.173zm-4.721 9.273v-9.744q0-1.075.405-1.78.405-.714 1.123-1.063.718-.357 1.66-.357.615 0 1.159.097.55.09.815.163l-.471 2.161a2.5 2.5 0 0 0-.398-.09 3 3 0 0 0-.435-.036q-.52 0-.712.229-.194.23-.194.628V26.5zm11.412-9.273V19.4h-5.965v-2.173zm-4.721 9.273v-9.744q0-1.075.404-1.78.405-.714 1.123-1.063.718-.357 1.66-.357.616 0 1.159.097.55.09.815.163l-.47 2.161a2.5 2.5 0 0 0-.399-.09 3 3 0 0 0-.435-.036q-.519 0-.712.229-.193.23-.193.628V26.5zm10.177.175q-1.455 0-2.512-.574a3.97 3.97 0 0 1-1.618-1.648q-.561-1.074-.561-2.553 0-1.437.567-2.512.568-1.08 1.6-1.678 1.032-.603 2.433-.604.99 0 1.811.308.82.308 1.419.912.597.604.929 1.49.333.882.333 2.023v.737h-8.06v-1.715h5.313a1.66 1.66 0 0 0-.224-.839 1.5 1.5 0 0 0-.597-.573 1.73 1.73 0 0 0-.864-.212q-.495 0-.887.224a1.68 1.68 0 0 0-.863 1.449v1.744q0 .567.223.996.223.423.634.658t.978.236q.393 0 .712-.109a1.5 1.5 0 0 0 .55-.32q.229-.21.344-.52l2.71.08a3.35 3.35 0 0 1-.742 1.587q-.568.67-1.491 1.044-.924.369-2.137.369m10.243 0q-1.455 0-2.512-.574a3.97 3.97 0 0 1-1.618-1.648q-.561-1.074-.561-2.553 0-1.437.568-2.512.567-1.08 1.599-1.678 1.033-.603 2.433-.604.99 0 1.811.308.822.308 1.419.912t.93 1.49q.332.882.332 2.023v.737h-8.06v-1.715h5.313a1.67 1.67 0 0 0-.223-.839 1.5 1.5 0 0 0-.598-.573 1.7 1.7 0 0 0-.863-.212q-.495 0-.888.224a1.68 1.68 0 0 0-.863 1.449v1.744q0 .567.223.996.223.423.634.658t.978.236q.393 0 .712-.109a1.5 1.5 0 0 0 .55-.32q.229-.21.344-.52l2.71.08a3.35 3.35 0 0 1-.742 1.587q-.567.67-1.491 1.044-.924.369-2.137.369"/></g></g><rect width="180.858" height="37.858" x="1.071" y="1.071" stroke="#fff" stroke-opacity=".15" stroke-width="2.143" rx="6.929"/><defs><filter id="c" width="39.202" height="41.202" x="2.4" y="-.6" color-interpolation-filters="sRGB" filterUnits="userSpaceOnUse"><feFlood flood-opacity="0" result="BackgroundImageFix"/><feColorMatrix in="SourceAlpha" result="hardAlpha" values="0 0 0 0 0 0 0 0 0 0 0 0 0 0 0 0 0 0 127 0"/><feOffset/><feGaussianBlur stdDeviation="2.8"/><feComposite in2="hardAlpha" operator="out"/><feColorMatrix values="0 0 0 0 0 0 0 0 0 0 0 0 0 0 0 0 0 0 0.25 0"/><feBlend in2="BackgroundImageFix" result="effect1_dropShadow_28_2444"/><feBlend in="SourceGraphic" in2="effect1_dropShadow_28_2444" result="shape"/></filter><filter id="d" width="144.429" height="32.429" x="36.287" y="3.786" color-interpolation-filters="sRGB" filterUnits="userSpaceOnUse"><feFlood flood-opacity="0" result="BackgroundImageFix"/><feColorMatrix in="SourceAlpha" result="hardAlpha" values="0 0 0 0 0 0 0 0 0 0 0 0 0 0 0 0 0 0 127 0"/><feOffset/><feGaussianBlur stdDeviation="2.857"/><feComposite in2="hardAlpha" operator="out"/><feColorMatrix values="0 0 0 0 0 0 0 0 0 0 0 0 0 0 0 0 0 0 0.25 0"/><feBlend in2="BackgroundImageFix" result="effect1_dropShadow_28_2444"/><feBlend in="SourceGraphic" in2="effect1_dropShadow_28_2444" result="shape"/></filter><linearGradient id="b" x1="91.501" x2="91.501" y1="0" y2="40.001" gradientUnits="userSpaceOnUse"><stop stop-color="#372e00"/><stop offset="1" stop-color="#1e1900"/></linearGradient><clipPath id="a"><rect width="183.001" height="40.001" fill="#fff" rx="8"/></clipPath></defs></svg>