<svg xmlns="http://www.w3.org/2000/svg" width="250" height="40" fill="none" viewBox="0 0 250 40"><g clip-path="url(#a)"><rect width="250" height="40" fill="url(#b)" rx="8"/><g filter="url(#c)"><path fill="#00d632" d="M26.244 6c2.8 0 4.2 0 5.731.481a5.95 5.95 0 0 1 3.544 3.544C36 11.556 36 12.956 36 15.761v8.474c0 2.809 0 4.218-.481 5.731a5.95 5.95 0 0 1-3.544 3.544c-1.531.49-2.931.49-5.731.49h-8.488c-2.809 0-4.217 0-5.731-.481a5.95 5.95 0 0 1-3.544-3.544C8 28.444 8 27.044 8 24.239v-8.483c0-2.809 0-4.217.481-5.731a5.95 5.95 0 0 1 3.544-3.544C13.556 6 14.956 6 17.756 6z"/><path fill="#fff" d="M26.58 16.413a.554.554 0 0 0 .788 0l1.094-1.138c.232-.219.219-.613-.026-.849a8.6 8.6 0 0 0-2.94-1.68l.345-1.662a.58.58 0 0 0-.56-.705h-2.117a.58.58 0 0 0-.56.464l-.307 1.479c-2.817.144-5.206 1.575-5.206 4.506 0 2.538 1.973 3.627 4.06 4.375 1.973.753 3.019 1.033 3.019 2.091 0 1.09-1.041 1.729-2.581 1.729-1.4 0-2.87-.469-4.008-1.61a.57.57 0 0 0-.805 0l-1.181 1.18a.595.595 0 0 0 0 .84c.919.906 2.082 1.563 3.409 1.926l-.324 1.562a.58.58 0 0 0 .556.704l2.122.017a.58.58 0 0 0 .568-.463l.307-1.483c3.39-.228 5.454-2.096 5.454-4.822 0-2.51-2.056-3.57-4.55-4.431-1.426-.53-2.66-.893-2.66-1.982 0-1.06 1.151-1.48 2.306-1.48 1.47 0 2.883.609 3.806 1.44z"/></g><g filter="url(#d)"><path fill="#e8e8e8" d="M49.625 16.92a1.66 1.66 0 0 0-.75-1.25q-.659-.448-1.66-.448-.715 0-1.238.227-.522.222-.812.614-.284.385-.284.88 0 .415.193.716.199.301.517.506.324.198.693.335.37.131.71.216l1.137.295q.556.136 1.142.37t1.085.613.807.944q.312.562.312 1.346 0 .989-.511 1.756-.506.767-1.472 1.21-.96.444-2.324.443-1.306 0-2.26-.415-.955-.414-1.495-1.176-.54-.767-.597-1.818h1.762q.05.63.409 1.051.362.415.926.62.568.198 1.244.198.745 0 1.324-.232.585-.24.92-.66.336-.426.336-.994 0-.517-.296-.846a2.2 2.2 0 0 0-.79-.546 8 8 0 0 0-1.119-.38l-1.375-.376q-1.398-.38-2.216-1.119-.812-.738-.812-1.954 0-1.006.545-1.756.546-.75 1.477-1.165.932-.42 2.103-.42 1.182 0 2.085.414.909.416 1.432 1.142.522.722.545 1.66zm9.342 4.96v-5.107h1.705V25.5h-1.67v-1.511h-.092q-.3.698-.965 1.164-.66.46-1.642.46-.841 0-1.49-.369-.64-.375-1.01-1.108-.364-.732-.364-1.812v-5.551h1.699v5.346q0 .893.494 1.42.495.53 1.284.53.477 0 .95-.24.475-.239.789-.721.318-.483.312-1.227m3.988 6.893v-12h1.659v1.415h.142q.147-.273.426-.631.278-.358.772-.625.495-.273 1.307-.273 1.058 0 1.887.534.83.535 1.3 1.54.478 1.005.478 2.42t-.472 2.427q-.471 1.005-1.295 1.55-.825.54-1.88.54-.796 0-1.302-.267a2.5 2.5 0 0 1-.784-.625 5 5 0 0 1-.437-.636h-.103v4.63zm1.664-7.637q0 .921.267 1.614t.773 1.085q.505.387 1.239.387.76 0 1.272-.404.512-.41.773-1.108.267-.699.267-1.574a4.3 4.3 0 0 0-.261-1.55q-.255-.689-.773-1.086-.51-.398-1.278-.398-.74 0-1.25.381-.506.38-.767 1.063-.262.681-.262 1.59m8.21 7.637v-12h1.66v1.415h.142q.147-.273.426-.631.278-.358.772-.625.495-.273 1.307-.273 1.058 0 1.887.534.83.535 1.3 1.54.478 1.005.478 2.42t-.472 2.427q-.471 1.005-1.295 1.55-.825.54-1.88.54-.796 0-1.302-.267a2.5 2.5 0 0 1-.784-.625 5 5 0 0 1-.437-.636h-.103v4.63zm1.665-7.637q0 .921.267 1.614t.773 1.085q.505.387 1.239.387.76 0 1.272-.404.512-.41.773-1.108.267-.699.267-1.574a4.3 4.3 0 0 0-.261-1.55q-.255-.689-.773-1.086-.51-.398-1.278-.398-.74 0-1.25.381-.506.38-.767 1.063-.262.681-.262 1.59m11.887 4.54q-1.228 0-2.142-.562a3.8 3.8 0 0 1-1.42-1.574q-.507-1.011-.507-2.364 0-1.358.506-2.375a3.8 3.8 0 0 1 1.42-1.58q.916-.561 2.143-.562 1.227 0 2.142.563t1.42 1.58q.506 1.016.506 2.374 0 1.353-.506 2.364a3.8 3.8 0 0 1-1.42 1.574q-.915.562-2.142.562m.005-1.426q.795 0 1.319-.42.522-.42.772-1.12.256-.699.256-1.54 0-.835-.256-1.534a2.5 2.5 0 0 0-.773-1.13q-.522-.426-1.318-.427-.8 0-1.33.427a2.54 2.54 0 0 0-.778 1.13q-.25.7-.25 1.535 0 .84.25 1.54.255.697.779 1.119.528.42 1.33.42m5.96 1.25v-8.727h1.641v1.386h.091q.24-.705.841-1.108.608-.41 1.375-.409a7 7 0 0 1 .722.04v1.625a3 3 0 0 0-.364-.063 3.5 3.5 0 0 0-.523-.04q-.602 0-1.074.256a1.9 1.9 0 0 0-1.011 1.71v5.33zm10.729-8.727v1.363h-4.767v-1.363zm-3.488-2.091h1.698v8.256q0 .493.148.744a.78.78 0 0 0 .381.335q.238.085.517.085.204 0 .358-.028l.239-.046.306 1.404a3 3 0 0 1-.42.114 3.3 3.3 0 0 1-.682.068 3 3 0 0 1-1.25-.239 2.15 2.15 0 0 1-.937-.773q-.359-.523-.358-1.312zm9.602 10.818v-8.727h1.631v1.42h.108a2.25 2.25 0 0 1 .892-1.125q.619-.41 1.483-.409.875 0 1.465.41.597.408.881 1.124h.091q.313-.699.994-1.114.683-.42 1.625-.42 1.188 0 1.938.744.756.745.756 2.245V25.5h-1.699v-5.693q0-.887-.483-1.284a1.76 1.76 0 0 0-1.154-.398q-.83 0-1.289.511-.46.506-.461 1.302V25.5h-1.693v-5.801q0-.71-.443-1.142-.444-.432-1.153-.432-.483 0-.893.256-.402.25-.653.698a2.14 2.14 0 0 0-.244 1.04V25.5zm17.902.176q-1.29 0-2.222-.551a3.75 3.75 0 0 1-1.432-1.562q-.5-1.012-.5-2.37 0-1.341.5-2.364.506-1.021 1.41-1.596.909-.574 2.125-.574.738 0 1.431.244t1.245.768q.55.522.869 1.357.318.83.318 2.018v.602h-6.937v-1.273h5.272q0-.67-.272-1.187a2.07 2.07 0 0 0-.767-.824q-.49-.302-1.148-.302-.716 0-1.25.353a2.36 2.36 0 0 0-.818.909q-.284.556-.284 1.21v.994q0 .876.306 1.489.313.615.87.938.557.318 1.301.318.482 0 .881-.137a1.83 1.83 0 0 0 1.13-1.108l1.608.29q-.194.71-.693 1.244a3.35 3.35 0 0 1-1.244.824q-.744.29-1.699.29m13.54 0q-1.228 0-2.142-.562a3.8 3.8 0 0 1-1.421-1.574q-.506-1.011-.506-2.364 0-1.358.506-2.375a3.8 3.8 0 0 1 1.421-1.58q.914-.561 2.142-.562 1.227 0 2.142.563t1.42 1.58q.506 1.016.506 2.374 0 1.353-.506 2.364a3.8 3.8 0 0 1-1.42 1.574q-.915.562-2.142.562m.005-1.426q.796 0 1.319-.42t.772-1.12q.256-.699.256-1.54 0-.835-.256-1.534a2.5 2.5 0 0 0-.772-1.13q-.523-.426-1.319-.427-.801 0-1.329.427a2.54 2.54 0 0 0-.779 1.13q-.25.7-.25 1.535 0 .84.25 1.54.256.697.779 1.119.528.42 1.329.42m7.658-3.932V25.5h-1.699v-8.727h1.631v1.42h.108q.301-.693.943-1.114.647-.42 1.631-.42.891 0 1.562.375.67.37 1.04 1.102.369.733.369 1.813V25.5h-1.699v-5.347q0-.948-.494-1.482-.494-.54-1.358-.54-.59 0-1.051.255-.455.255-.722.75-.261.489-.261 1.182"/><path fill="#00d632" d="M172.158 18.116h-3.018q-.06-.465-.248-.84a2 2 0 0 0-.495-.64 2.1 2.1 0 0 0-.73-.404 2.8 2.8 0 0 0-.924-.145q-.9 0-1.551.441-.647.44-.996 1.274-.344.832-.344 2.016 0 1.232.35 2.065.356.827.996 1.25.646.416 1.527.416.495 0 .9-.127.41-.126.718-.368.314-.247.513-.598.206-.356.284-.803l3.018.019a4.6 4.6 0 0 1-.477 1.617 5.2 5.2 0 0 1-1.08 1.455 5.1 5.1 0 0 1-1.678 1.039q-.984.386-2.258.386-1.678 0-3.007-.736-1.321-.743-2.088-2.162-.767-1.418-.767-3.453 0-2.04.779-3.459.778-1.419 2.107-2.155 1.328-.737 2.976-.737 1.123 0 2.076.314a5 5 0 0 1 1.679.906q.724.592 1.177 1.455.453.862.561 1.974m4.324 8.041q-.887 0-1.575-.296a2.46 2.46 0 0 1-1.081-.905q-.392-.61-.392-1.528 0-.773.271-1.304.272-.531.749-.863a3.5 3.5 0 0 1 1.099-.501 7 7 0 0 1 1.328-.236q.79-.072 1.274-.15.483-.085.7-.236a.51.51 0 0 0 .223-.44v-.03q0-.465-.32-.72-.32-.252-.863-.253-.585 0-.942.254a1.12 1.12 0 0 0-.453.7l-2.722-.096q.12-.846.622-1.51.506-.67 1.388-1.05.888-.386 2.131-.386.888 0 1.636.21.749.206 1.304.605.555.392.857.965.308.575.308 1.31V26h-2.777v-1.292h-.072q-.248.471-.634.797-.38.326-.9.489a3.8 3.8 0 0 1-1.159.163m.912-1.932q.477 0 .857-.193.387-.194.616-.531.23-.344.229-.797v-.882a1.7 1.7 0 0 1-.308.121 5 5 0 0 1-.386.103q-.212.048-.435.084-.222.036-.428.067a2.7 2.7 0 0 0-.713.205 1.1 1.1 0 0 0-.446.362.9.9 0 0 0-.151.52q0 .458.326.7.332.24.839.241m14.531-4.666-2.711.072a1 1 0 0 0-.229-.513 1.24 1.24 0 0 0-.489-.356 1.7 1.7 0 0 0-.688-.133q-.513 0-.876.205-.356.205-.35.556a.6.6 0 0 0 .217.47q.23.2.815.32l1.787.338q1.389.265 2.065.882.682.616.688 1.63-.006.954-.567 1.66-.556.706-1.522 1.099-.966.386-2.209.386-1.986 0-3.133-.815-1.142-.821-1.304-2.197l2.916-.073q.096.507.501.773.403.265 1.032.265.567 0 .924-.21.356-.213.362-.562a.6.6 0 0 0-.278-.501q-.272-.194-.851-.302l-1.618-.308q-1.395-.253-2.077-.936-.681-.688-.676-1.75-.006-.93.495-1.588.501-.664 1.425-1.014t2.179-.35q1.884 0 2.97.79 1.087.785 1.202 2.162m4.635 1.153V26h-2.952V13.636h2.855v4.794h.103a2.7 2.7 0 0 1 1.026-1.34q.718-.484 1.757-.483.978 0 1.702.434.724.428 1.123 1.214.405.785.398 1.835V26h-2.952v-5.33q.006-.774-.386-1.208-.393-.435-1.105-.435-.465 0-.821.206a1.4 1.4 0 0 0-.549.573q-.193.375-.199.906M210.742 26h-3.212l4.172-12.364h3.978L219.852 26h-3.212l-2.904-9.249h-.096zm-.429-4.866h6.713v2.27h-6.713zm10.87 8.343v-12.75h2.922v1.588h.09q.182-.422.513-.815.338-.393.858-.64.525-.253 1.255-.253.966 0 1.805.507.846.507 1.365 1.563t.519 2.693q0 1.575-.501 2.638-.495 1.062-1.34 1.594a3.4 3.4 0 0 1-1.866.53q-.7 0-1.213-.229a2.7 2.7 0 0 1-.864-.603 2.9 2.9 0 0 1-.531-.803h-.06v4.98zm2.891-8.113q0 .748.2 1.304.205.555.585.863.387.302.924.302.543 0 .924-.302.38-.308.573-.863.2-.555.199-1.304 0-.75-.199-1.298-.194-.55-.573-.851-.375-.303-.924-.302-.543 0-.924.295-.38.297-.585.846-.2.55-.2 1.31m7.983 8.113v-12.75h2.922v1.588h.09q.181-.422.513-.815.338-.393.858-.64.525-.253 1.255-.253.966 0 1.805.507.846.507 1.365 1.563t.519 2.693q0 1.575-.501 2.638-.495 1.062-1.34 1.594a3.4 3.4 0 0 1-1.866.53q-.7 0-1.213-.229a2.7 2.7 0 0 1-.864-.603 2.9 2.9 0 0 1-.531-.803h-.06v4.98zm2.891-8.113q0 .748.2 1.304.206.555.585.863.387.302.924.302.543 0 .924-.302.38-.308.573-.863.2-.555.199-1.304 0-.75-.199-1.298-.194-.55-.573-.851-.375-.303-.924-.302-.543 0-.924.295-.38.297-.585.846-.2.55-.2 1.31"/></g></g><rect width="247.9" height="37.9" x="1.05" y="1.05" stroke="#fff" stroke-opacity=".15" stroke-width="2.1" rx="6.95"/><defs><filter id="c" width="39.429" height="39.429" x="2.286" y=".286" color-interpolation-filters="sRGB" filterUnits="userSpaceOnUse"><feFlood flood-opacity="0" result="BackgroundImageFix"/><feColorMatrix in="SourceAlpha" result="hardAlpha" values="0 0 0 0 0 0 0 0 0 0 0 0 0 0 0 0 0 0 127 0"/><feOffset/><feGaussianBlur stdDeviation="2.857"/><feComposite in2="hardAlpha" operator="out"/><feColorMatrix values="0 0 0 0 0 0 0 0 0 0 0 0 0 0 0 0 0 0 0.25 0"/><feBlend in2="BackgroundImageFix" result="effect1_dropShadow_59_31"/><feBlend in="SourceGraphic" in2="effect1_dropShadow_59_31" result="shape"/></filter><filter id="d" width="211.2" height="30.2" x="36.4" y="4.9" color-interpolation-filters="sRGB" filterUnits="userSpaceOnUse"><feFlood flood-opacity="0" result="BackgroundImageFix"/><feColorMatrix in="SourceAlpha" result="hardAlpha" values="0 0 0 0 0 0 0 0 0 0 0 0 0 0 0 0 0 0 127 0"/><feOffset/><feGaussianBlur stdDeviation="2.8"/><feComposite in2="hardAlpha" operator="out"/><feColorMatrix values="0 0 0 0 0 0 0 0 0 0 0 0 0 0 0 0 0 0 0.25 0"/><feBlend in2="BackgroundImageFix" result="effect1_dropShadow_59_31"/><feBlend in="SourceGraphic" in2="effect1_dropShadow_59_31" result="shape"/></filter><linearGradient id="b" x1="125" x2="125" y1="0" y2="40" gradientUnits="userSpaceOnUse"><stop stop-color="#003401"/><stop offset="1" stop-color="#001f03"/></linearGradient><clipPath id="a"><rect width="250" height="40" fill="#fff" rx="8"/></clipPath></defs></svg>