<svg xmlns="http://www.w3.org/2000/svg" width="251" height="40" fill="none" viewBox="0 0 251 40"><rect width="251.001" height="40.001" fill="url(#a)" rx="8"/><rect width="248.858" height="37.858" x="1.071" y="1.071" stroke="#fff" stroke-opacity=".15" stroke-width="2.143" rx="6.929"/><g filter="url(#b)"><path fill="#fff" stroke="#fff" stroke-width=".7" d="M26.91 7.65a4.44 4.44 0 0 1 4.423 4.84c-.054.6-.23 1.18-.514 1.705h1.273a2.26 2.26 0 0 1 2.26 2.26v2.728c0 .82-.439 1.536-1.091 1.931v8.978a2.26 2.26 0 0 1-2.26 2.26H13a2.26 2.26 0 0 1-2.259-2.26v-8.977a2.26 2.26 0 0 1-1.09-1.932v-2.728a2.26 2.26 0 0 1 2.258-2.26h1.272a4.44 4.44 0 0 1 3.91-6.545c1.58 0 3.639.894 4.909 3.007 1.27-2.114 3.33-3.006 4.91-3.006Zm-3.74 22.366h7.755v-8.573H23.17zm-10.092 0h7.755v-8.573h-7.755zm10.092-10.91h8.846v-2.573H23.17zm-11.183 0h8.846v-2.573h-8.846zM26.91 9.987c-1.035 0-3.245.893-3.669 4.21h3.67a2.104 2.104 0 1 0 0-4.21Zm-9.82 0a2.105 2.105 0 0 0 0 4.21h3.67c-.424-3.317-2.634-4.21-3.67-4.21Z"/></g><g filter="url(#c)"><path fill="#e8e8e8" d="M50.103 17.385q-.096-.857-.797-1.328-.7-.477-1.763-.477-.76 0-1.316.241-.555.236-.863.652a1.54 1.54 0 0 0-.302.936q0 .44.205.76.211.32.55.538.345.211.736.356.392.14.755.23l1.207.314a9 9 0 0 1 1.214.392q.622.247 1.153.652t.857 1.002q.332.597.332 1.43 0 1.052-.543 1.866-.538.815-1.564 1.286-1.02.47-2.469.47-1.388 0-2.403-.44-1.014-.44-1.587-1.25-.574-.815-.634-1.931h1.871q.055.67.435 1.117.387.44.984.658.603.21 1.322.21.79 0 1.407-.247.621-.253.978-.7a1.66 1.66 0 0 0 .356-1.056q0-.55-.314-.9-.307-.35-.84-.58a8 8 0 0 0-1.189-.404l-1.46-.398q-1.485-.404-2.355-1.19-.863-.785-.863-2.076 0-1.069.58-1.866.579-.796 1.569-1.237.99-.447 2.234-.447 1.255 0 2.215.44.966.442 1.521 1.214.555.767.58 1.763zm9.926 5.27v-5.427h1.811V26.5h-1.775v-1.606h-.096a2.9 2.9 0 0 1-1.026 1.237q-.7.49-1.745.49-.894 0-1.582-.393-.683-.399-1.074-1.177-.387-.78-.387-1.926v-5.898h1.805v5.68q0 .95.526 1.51.525.561 1.364.561.507 0 1.008-.253.507-.255.84-.767.337-.513.331-1.304m4.237 7.323v-12.75h1.762v1.503h.151q.157-.29.453-.67a2.6 2.6 0 0 1 .821-.664q.525-.29 1.389-.29 1.122 0 2.004.568.88.567 1.382 1.636.507 1.069.508 2.571 0 1.503-.502 2.578-.5 1.069-1.376 1.648-.876.574-1.998.574-.846 0-1.383-.284a2.6 2.6 0 0 1-.833-.664 5 5 0 0 1-.465-.676h-.108v4.92zm1.768-8.114q0 .978.284 1.715.284.736.821 1.153.537.41 1.316.41.81 0 1.353-.428.543-.435.82-1.177.285-.743.284-1.673 0-.916-.277-1.648-.272-.73-.821-1.153-.544-.422-1.359-.422-.785 0-1.328.404-.537.405-.815 1.129t-.278 1.69m8.724 8.114v-12.75h1.763v1.503h.15q.158-.29.453-.67.297-.38.821-.664.525-.29 1.389-.29 1.122 0 2.004.568.882.567 1.383 1.636.507 1.069.507 2.571t-.501 2.578q-.501 1.069-1.377 1.648-.875.574-1.998.574-.845 0-1.383-.284a2.6 2.6 0 0 1-.833-.664 5 5 0 0 1-.464-.676h-.11v4.92zm1.769-8.114q0 .978.283 1.715.284.736.821 1.153.538.41 1.317.41.809 0 1.352-.428.543-.435.82-1.177.284-.743.284-1.673 0-.916-.277-1.648-.272-.73-.821-1.153-.543-.422-1.358-.422-.785 0-1.329.404-.537.405-.815 1.129t-.277 1.69m12.629 4.824q-1.304 0-2.276-.598a4.03 4.03 0 0 1-1.51-1.672q-.536-1.075-.537-2.511 0-1.443.538-2.524.537-1.08 1.509-1.678t2.276-.598q1.305 0 2.276.598a4 4 0 0 1 1.51 1.678q.536 1.08.536 2.524 0 1.436-.537 2.51a4.03 4.03 0 0 1-1.51 1.673q-.971.598-2.275.598m.006-1.515q.845 0 1.4-.447.556-.447.822-1.19a4.7 4.7 0 0 0 .271-1.636q0-.886-.271-1.63-.265-.748-.822-1.2-.555-.454-1.4-.454-.851 0-1.413.453-.555.453-.827 1.202a4.8 4.8 0 0 0-.265 1.63q0 .892.265 1.636.272.742.827 1.189.563.447 1.413.447m6.331 1.328v-9.273h1.745V18.7h.097q.253-.75.893-1.177.646-.435 1.46-.435a8 8 0 0 1 .768.042v1.727a3 3 0 0 0-.387-.067 4 4 0 0 0-.555-.042q-.64 0-1.141.272a2.02 2.02 0 0 0-1.075 1.817V26.5zm11.401-9.273v1.449h-5.065v-1.45zm-3.707-2.222h1.805v8.772q0 .526.157.79.157.261.405.357.254.09.549.09.218 0 .38-.03l.254-.048.326 1.491q-.157.06-.447.121a3.5 3.5 0 0 1-.724.072 3.2 3.2 0 0 1-1.328-.253 2.27 2.27 0 0 1-.996-.821q-.381-.555-.381-1.395zM113.39 26.5v-9.273h1.732v1.51h.115q.29-.768.948-1.196.658-.435 1.575-.435.93 0 1.558.435.634.435.936 1.195h.096q.333-.743 1.057-1.183.724-.447 1.726-.447 1.262 0 2.059.791.803.79.803 2.385V26.5h-1.805v-6.05q0-.94-.513-1.364a1.87 1.87 0 0 0-1.226-.422q-.88 0-1.37.543-.489.538-.489 1.383v5.91h-1.799v-6.164q0-.755-.471-1.213-.471-.46-1.226-.46-.513 0-.947.272a2 2 0 0 0-.695.743 2.3 2.3 0 0 0-.259 1.105V26.5zm19.021.187q-1.371 0-2.361-.586a3.97 3.97 0 0 1-1.521-1.66q-.531-1.074-.531-2.517 0-1.425.531-2.512.537-1.087 1.497-1.696.965-.61 2.258-.61.785 0 1.521.26a3.7 3.7 0 0 1 1.322.815q.586.555.924 1.443.338.881.338 2.143v.64h-7.371v-1.353h5.602q0-.712-.29-1.261a2.2 2.2 0 0 0-.815-.876q-.519-.32-1.219-.32-.76 0-1.328.375a2.5 2.5 0 0 0-.87.966 2.8 2.8 0 0 0-.301 1.285v1.057q0 .93.326 1.582.332.651.923.996.592.338 1.383.338.513 0 .935-.145.423-.15.731-.447.308-.295.471-.73l1.708.308a3.1 3.1 0 0 1-.736 1.322 3.6 3.6 0 0 1-1.322.875q-.791.308-1.805.308m10.625-.187V14.137h1.805v4.594h.108q.157-.29.453-.67a2.6 2.6 0 0 1 .821-.664q.525-.29 1.389-.29 1.122 0 2.004.568.88.567 1.382 1.636.507 1.069.507 2.571t-.501 2.578q-.501 1.069-1.376 1.648-.876.574-1.998.574-.846 0-1.383-.284a2.6 2.6 0 0 1-.833-.664 5 5 0 0 1-.465-.676h-.151V26.5zm1.768-4.637q0 .978.284 1.715.284.736.821 1.153.537.41 1.316.41.809 0 1.352-.428.544-.435.821-1.177.284-.743.284-1.673 0-.916-.278-1.648-.271-.73-.821-1.153-.543-.422-1.358-.422-.785 0-1.328.404-.537.405-.815 1.129t-.278 1.69m9.554 8.114a4 4 0 0 1-.737-.067 2.3 2.3 0 0 1-.495-.132l.435-1.48q.495.134.881.115.387-.017.682-.29.303-.27.532-.887l.223-.616-3.393-9.393h1.932l2.349 7.196h.096l2.348-7.196h1.938l-3.821 10.51a4.2 4.2 0 0 1-.676 1.226 2.6 2.6 0 0 1-.978.76q-.567.255-1.316.254"/><path fill="#fff" d="M171.507 26.5h-4.57V14.138h4.564q1.89 0 3.254.743a5.07 5.07 0 0 1 2.113 2.125q.742 1.382.742 3.308 0 1.932-.742 3.32a5.07 5.07 0 0 1-2.107 2.131q-1.37.737-3.254.737m-1.582-2.547h1.467q1.039 0 1.757-.35.724-.357 1.093-1.153.374-.803.374-2.137t-.374-2.125q-.375-.797-1.105-1.147-.724-.357-1.787-.356h-1.425zm13.759 2.723q-1.46 0-2.512-.598a4.13 4.13 0 0 1-1.612-1.678q-.561-1.08-.561-2.505 0-1.431.561-2.506.568-1.08 1.612-1.678 1.051-.604 2.512-.604t2.505.604q1.05.598 1.612 1.678.567 1.075.567 2.506 0 1.424-.567 2.505a4.07 4.07 0 0 1-1.612 1.678q-1.044.598-2.505.598m.018-2.228q.531 0 .899-.326.369-.327.562-.905.198-.58.199-1.34 0-.773-.199-1.353-.193-.58-.562-.905a1.3 1.3 0 0 0-.899-.326q-.549 0-.93.326-.374.326-.573.905-.194.58-.194 1.352 0 .762.194 1.34.199.58.573.906.381.326.93.326m9.131-3.236v5.289h-2.952V17.23h2.807v1.702h.102a2.6 2.6 0 0 1 1.051-1.334q.742-.489 1.769-.489.978 0 1.696.44.724.435 1.123 1.22.404.78.398 1.823v5.91h-2.952v-5.33q.006-.773-.392-1.207-.393-.435-1.093-.435-.464 0-.821.205a1.36 1.36 0 0 0-.543.574q-.187.375-.193.905m10.436 5.446q-.888 0-1.576-.296a2.45 2.45 0 0 1-1.08-.906q-.393-.609-.393-1.527 0-.773.272-1.304a2.3 2.3 0 0 1 .749-.863 3.5 3.5 0 0 1 1.098-.501 7 7 0 0 1 1.328-.236q.791-.072 1.274-.15.483-.086.7-.236a.51.51 0 0 0 .224-.44v-.031q0-.466-.32-.718-.32-.255-.863-.254-.587 0-.942.253-.357.255-.453.7l-2.723-.096a3.2 3.2 0 0 1 .622-1.509q.507-.67 1.389-1.05.887-.387 2.131-.387.887 0 1.636.212.748.205 1.304.603.555.393.857.966.308.574.308 1.31v6.303h-2.777v-1.292h-.073q-.248.471-.633.797-.381.325-.9.489a3.8 3.8 0 0 1-1.159.163m.912-1.932q.476 0 .857-.193a1.6 1.6 0 0 0 .616-.532 1.4 1.4 0 0 0 .229-.797v-.88a2 2 0 0 1-.308.12q-.175.054-.386.103a7 7 0 0 1-.435.084q-.224.036-.429.066a2.7 2.7 0 0 0-.712.206 1.13 1.13 0 0 0-.447.362.9.9 0 0 0-.151.519q0 .46.326.7.332.242.84.242m11.669-7.498v2.17H210v-2.173zm-4.624-2.222h2.952v8.579q0 .271.084.44a.53.53 0 0 0 .26.236q.168.066.404.066.17 0 .356-.03.194-.036.29-.06l.447 2.13q-.211.061-.598.152-.38.09-.911.115-1.039.048-1.781-.242a2.3 2.3 0 0 1-1.129-.918q-.387-.621-.374-1.563zm6.13 11.495V17.23h2.952v9.27zm1.479-10.354q-.622 0-1.068-.41a1.32 1.32 0 0 1-.447-1.002q0-.58.447-.99a1.5 1.5 0 0 1 1.068-.417 1.5 1.5 0 0 1 1.069.417q.446.41.446.99 0 .585-.446 1.002-.44.41-1.069.41m6.304 5.065v5.289h-2.952V17.23h2.807v1.702h.103a2.6 2.6 0 0 1 1.05-1.334q.743-.489 1.769-.489.978 0 1.697.44.724.435 1.122 1.22.405.78.399 1.823v5.91h-2.952v-5.33q.006-.773-.393-1.207-.392-.435-1.092-.435-.465 0-.821.205a1.36 1.36 0 0 0-.544.574q-.186.375-.193.905m12.145 8.96q-1.322 0-2.264-.37-.942-.367-1.479-1.007a2.8 2.8 0 0 1-.646-1.45l2.795-.156q.079.284.29.495.218.211.561.326.351.114.822.115.742 0 1.225-.363.489-.356.489-1.25v-1.63h-.103a2.2 2.2 0 0 1-.531.767 2.5 2.5 0 0 1-.887.532q-.525.193-1.208.193a3.75 3.75 0 0 1-1.859-.471q-.839-.477-1.346-1.473-.501-1.002-.501-2.578 0-1.623.519-2.674.52-1.056 1.358-1.564a3.47 3.47 0 0 1 1.817-.507q.73 0 1.25.254.525.247.863.64.339.392.513.815h.085V17.23h2.94v9.309q0 1.177-.592 1.986-.591.81-1.654 1.226-1.062.422-2.457.422m.091-5.947q.537 0 .917-.284t.586-.815.205-1.274q0-.755-.205-1.298-.2-.55-.586-.845a1.45 1.45 0 0 0-.917-.296q-.55 0-.93.302t-.58.851q-.193.544-.193 1.286 0 .743.199 1.274.2.531.574.815.38.285.93.284"/></g><defs><filter id="b" width="39.202" height="39.202" x="2.4" y=".4" color-interpolation-filters="sRGB" filterUnits="userSpaceOnUse"><feFlood flood-opacity="0" result="BackgroundImageFix"/><feColorMatrix in="SourceAlpha" result="hardAlpha" values="0 0 0 0 0 0 0 0 0 0 0 0 0 0 0 0 0 0 127 0"/><feOffset/><feGaussianBlur stdDeviation="2.8"/><feComposite in2="hardAlpha" operator="out"/><feColorMatrix values="0 0 0 0 0 0 0 0 0 0 0 0 0 0 0 0 0 0 0.25 0"/><feBlend in2="BackgroundImageFix" result="effect1_dropShadow_28_2542"/><feBlend in="SourceGraphic" in2="effect1_dropShadow_28_2542" result="shape"/></filter><filter id="c" width="212.429" height="32.429" x="36.287" y="3.786" color-interpolation-filters="sRGB" filterUnits="userSpaceOnUse"><feFlood flood-opacity="0" result="BackgroundImageFix"/><feColorMatrix in="SourceAlpha" result="hardAlpha" values="0 0 0 0 0 0 0 0 0 0 0 0 0 0 0 0 0 0 127 0"/><feOffset/><feGaussianBlur stdDeviation="2.857"/><feComposite in2="hardAlpha" operator="out"/><feColorMatrix values="0 0 0 0 0 0 0 0 0 0 0 0 0 0 0 0 0 0 0.25 0"/><feBlend in2="BackgroundImageFix" result="effect1_dropShadow_28_2542"/><feBlend in="SourceGraphic" in2="effect1_dropShadow_28_2542" result="shape"/></filter><linearGradient id="a" x1="125.501" x2="125.501" y1="0" y2="40.001" gradientUnits="userSpaceOnUse"><stop stop-color="#2d2d2d"/><stop offset="1" stop-color="#222"/></linearGradient></defs></svg>