<svg xmlns="http://www.w3.org/2000/svg" width="217" height="40" fill="none" viewBox="0 0 217 40"><rect width="217.001" height="40.001" fill="url(#a)" rx="8"/><rect width="214.858" height="37.858" x="1.071" y="1.071" stroke="#fff" stroke-opacity=".15" stroke-width="2.143" rx="6.929"/><g filter="url(#b)"><path fill="#ff5e5b" d="M10.801 13h15.401v14.001H10.801z"/><path fill="#fff" d="M38.402 16.008C37.4 10.665 32.103 10 32.103 10H8.381c-.783 0-.88 1.044-.88 1.044s-.106 9.58-.028 15.462c.212 3.17 3.352 3.495 3.352 3.495s10.717-.03 15.512-.064c3.16-.557 3.478-3.356 3.446-4.884 5.641.314 9.621-3.703 8.619-9.045M24.062 20.6c-1.615 1.9-5.2 5.2-5.2 5.2s-.157.156-.402.03a1 1 0 0 1-.14-.117c-.574-.577-4.366-3.988-5.23-5.172-.918-1.262-1.349-3.532-.117-4.853 1.233-1.32 3.896-1.42 5.656.533 0 0 2.029-2.331 4.496-1.26 2.468 1.073 2.375 3.938.937 5.639m8.002.625c-1.203.152-2.18.037-2.18.037v-7.43h2.294s2.555.72 2.555 3.45c0 2.502-1.276 3.488-2.669 3.943"/></g><g filter="url(#c)"><path fill="#e8e8e8" d="M50.103 17.385q-.096-.857-.797-1.328-.7-.477-1.763-.477-.76 0-1.316.241-.555.236-.863.652a1.54 1.54 0 0 0-.302.936q0 .44.205.76.211.32.55.538.345.211.736.356.392.14.755.23l1.207.314a9 9 0 0 1 1.214.392q.622.247 1.153.652t.857 1.002q.332.598.332 1.43 0 1.052-.543 1.866-.538.815-1.564 1.286-1.02.471-2.469.471-1.388 0-2.403-.44-1.014-.441-1.587-1.25-.574-.816-.634-1.932h1.871q.055.67.435 1.117.387.44.984.658.603.21 1.322.21.79 0 1.407-.247.621-.253.978-.7a1.66 1.66 0 0 0 .356-1.056q0-.55-.314-.9-.307-.35-.84-.58a8 8 0 0 0-1.189-.404l-1.46-.398q-1.485-.404-2.355-1.19-.863-.785-.863-2.076 0-1.069.58-1.866.579-.796 1.569-1.237.99-.447 2.234-.447 1.255 0 2.215.44.966.442 1.521 1.214.555.767.58 1.763zm9.926 5.27v-5.427h1.811v9.273h-1.775v-1.606h-.096a2.9 2.9 0 0 1-1.026 1.237q-.7.49-1.745.49-.894 0-1.582-.393-.683-.399-1.074-1.177-.387-.78-.387-1.926v-5.898h1.805v5.68q0 .95.526 1.51.525.561 1.364.561.507 0 1.008-.253.507-.255.84-.767.337-.513.331-1.304m4.237 7.323v-12.75h1.762v1.503h.151q.157-.29.453-.67a2.6 2.6 0 0 1 .821-.664q.525-.29 1.389-.29 1.122 0 2.004.568.88.567 1.382 1.636.507 1.069.508 2.571 0 1.504-.502 2.578-.5 1.07-1.376 1.648-.876.574-1.998.574-.846 0-1.383-.284a2.6 2.6 0 0 1-.833-.664 5 5 0 0 1-.465-.676h-.108v4.92zm1.768-8.114q0 .978.284 1.715.284.736.821 1.153.537.41 1.316.41.81 0 1.353-.428.543-.435.82-1.177.285-.743.284-1.673 0-.916-.277-1.648-.272-.73-.821-1.153-.544-.422-1.359-.422-.785 0-1.328.404-.537.405-.815 1.129t-.278 1.69m8.724 8.114v-12.75h1.763v1.503h.15q.158-.29.453-.67.297-.38.821-.664.525-.29 1.389-.29 1.122 0 2.004.568.882.567 1.383 1.636.507 1.069.507 2.571 0 1.504-.501 2.578-.501 1.07-1.377 1.648-.875.574-1.998.574-.845 0-1.383-.284a2.6 2.6 0 0 1-.833-.664 5 5 0 0 1-.464-.676h-.11v4.92zm1.769-8.114q0 .978.283 1.715.284.736.821 1.153.538.41 1.317.41.809 0 1.352-.428.543-.435.82-1.177.284-.743.284-1.673a4.6 4.6 0 0 0-.277-1.648q-.272-.73-.821-1.153-.543-.422-1.358-.422-.785 0-1.329.404-.537.405-.815 1.129t-.277 1.69m12.629 4.824q-1.304 0-2.276-.598a4.03 4.03 0 0 1-1.51-1.672q-.536-1.074-.537-2.511 0-1.443.538-2.524.537-1.08 1.509-1.678t2.276-.598q1.305 0 2.276.598a4 4 0 0 1 1.51 1.678q.536 1.08.536 2.524 0 1.436-.537 2.511a4.03 4.03 0 0 1-1.51 1.672q-.971.598-2.275.598m.006-1.515q.845 0 1.4-.447.556-.447.822-1.19a4.7 4.7 0 0 0 .271-1.635q0-.888-.271-1.63-.265-.75-.822-1.202-.555-.453-1.4-.453-.851 0-1.413.453-.555.453-.827 1.202a4.8 4.8 0 0 0-.265 1.63q0 .892.265 1.636.272.742.827 1.189.563.447 1.413.447m6.331 1.328v-9.273h1.745v1.473h.097q.253-.75.893-1.177.646-.435 1.46-.435a8 8 0 0 1 .768.042v1.727a3 3 0 0 0-.387-.067 4 4 0 0 0-.555-.042q-.64 0-1.141.272a2.02 2.02 0 0 0-1.075 1.817v5.663zm11.401-9.273v1.449h-5.065v-1.449zm-3.707-2.222h1.805v8.772q0 .526.157.79.157.261.405.357.254.09.549.09.218 0 .38-.03l.254-.048.326 1.491q-.157.06-.447.121a3.5 3.5 0 0 1-.724.072 3.2 3.2 0 0 1-1.328-.253 2.27 2.27 0 0 1-.996-.821q-.381-.555-.381-1.395zm10.203 11.495v-9.273h1.732v1.51h.115q.29-.768.948-1.196.658-.435 1.575-.435.93 0 1.558.435.634.435.936 1.195h.096q.333-.743 1.057-1.183.724-.447 1.726-.447 1.262 0 2.059.791.803.79.803 2.385V26.5h-1.805v-6.05q0-.94-.513-1.364a1.87 1.87 0 0 0-1.226-.422q-.88 0-1.37.543-.489.538-.489 1.383v5.91h-1.799v-6.164q0-.755-.471-1.213-.471-.46-1.226-.46-.513 0-.947.272a2 2 0 0 0-.695.743 2.3 2.3 0 0 0-.259 1.105V26.5zm19.021.187q-1.371 0-2.361-.586a3.97 3.97 0 0 1-1.521-1.66q-.531-1.074-.531-2.517 0-1.425.531-2.512.537-1.087 1.497-1.696.965-.61 2.258-.61.785 0 1.521.26.737.259 1.322.815t.924 1.443q.338.881.338 2.143v.64h-7.371v-1.353h5.602q0-.712-.29-1.261a2.2 2.2 0 0 0-.815-.876q-.519-.32-1.219-.32-.76 0-1.328.375a2.5 2.5 0 0 0-.87.966 2.8 2.8 0 0 0-.301 1.285v1.057q0 .93.326 1.582.332.651.923.996.592.338 1.383.338.513 0 .935-.145.423-.15.731-.447.308-.295.471-.73l1.708.308a3.1 3.1 0 0 1-.736 1.322 3.6 3.6 0 0 1-1.322.875q-.791.308-1.805.308m14.386 0q-1.304 0-2.276-.598a4.04 4.04 0 0 1-1.51-1.672q-.537-1.074-.537-2.511 0-1.443.537-2.524.538-1.08 1.51-1.678.971-.597 2.276-.598 1.303 0 2.275.598a4.03 4.03 0 0 1 1.51 1.678q.537 1.08.537 2.524 0 1.436-.537 2.511a4.04 4.04 0 0 1-1.51 1.672q-.972.598-2.275.598m.006-1.515q.845 0 1.4-.447t.821-1.19q.272-.742.272-1.635 0-.888-.272-1.63-.266-.75-.821-1.202-.555-.453-1.4-.453-.852 0-1.413.453-.555.453-.827 1.202a4.8 4.8 0 0 0-.266 1.63q0 .892.266 1.636.272.742.827 1.189.561.447 1.413.447m8.136-4.178v5.506h-1.805v-9.273h1.732v1.51h.115a2.65 2.65 0 0 1 1.002-1.184q.689-.447 1.733-.447.948 0 1.66.399.712.392 1.105 1.17.392.78.392 1.927V26.5h-1.805v-5.68q0-1.008-.525-1.576-.525-.573-1.443-.573-.628 0-1.117.271a1.95 1.95 0 0 0-.766.797q-.279.52-.278 1.256"/><path fill="#ff5e5b" d="M167.937 26.5V14.138h2.988v5.228h.163l4.087-5.228h3.52l-4.383 5.518 4.461 6.846H175.2l-3.079-4.86-1.196 1.51v3.35zm15.585.176q-1.462 0-2.512-.598a4.13 4.13 0 0 1-1.612-1.678q-.561-1.08-.561-2.505 0-1.431.561-2.506.568-1.08 1.612-1.678 1.05-.603 2.512-.604 1.46 0 2.505.604 1.05.598 1.612 1.678.567 1.075.567 2.506 0 1.424-.567 2.505a4.1 4.1 0 0 1-1.612 1.678q-1.045.598-2.505.598m.018-2.228q.531 0 .899-.326.369-.326.562-.905.198-.58.199-1.34 0-.773-.199-1.353-.193-.58-.562-.905a1.3 1.3 0 0 0-.899-.326q-.55 0-.93.326-.375.326-.574.905a4.3 4.3 0 0 0-.193 1.352q0 .762.193 1.34.2.58.574.906.38.326.93.326m12.113-4.087v2.276h-5.723v-2.276zm7.354-3.133v2.173h-5.964v-2.173zm-4.721 9.273v-9.744q0-1.075.405-1.78.404-.714 1.123-1.063.718-.357 1.66-.357.615 0 1.159.097.55.09.815.163l-.471 2.161a2.5 2.5 0 0 0-.398-.09 3 3 0 0 0-.435-.036q-.52 0-.712.229-.194.23-.194.628V26.5zm6.141 0v-9.273h2.952v9.273zm1.479-10.354q-.621 0-1.068-.41a1.32 1.32 0 0 1-.447-1.002q0-.58.447-.99a1.5 1.5 0 0 1 1.068-.417 1.5 1.5 0 0 1 1.069.417q.447.41.447.99 0 .585-.447 1.002-.44.41-1.069.41"/></g><defs><filter id="b" width="42.313" height="39.202" x="1.844" y=".4" color-interpolation-filters="sRGB" filterUnits="userSpaceOnUse"><feFlood flood-opacity="0" result="BackgroundImageFix"/><feColorMatrix in="SourceAlpha" result="hardAlpha" values="0 0 0 0 0 0 0 0 0 0 0 0 0 0 0 0 0 0 127 0"/><feOffset/><feGaussianBlur stdDeviation="2.8"/><feComposite in2="hardAlpha" operator="out"/><feColorMatrix values="0 0 0 0 0 0 0 0 0 0 0 0 0 0 0 0 0 0 0.25 0"/><feBlend in2="BackgroundImageFix" result="effect1_dropShadow_28_2464"/><feBlend in="SourceGraphic" in2="effect1_dropShadow_28_2464" result="shape"/></filter><filter id="c" width="178.429" height="32.429" x="36.287" y="3.786" color-interpolation-filters="sRGB" filterUnits="userSpaceOnUse"><feFlood flood-opacity="0" result="BackgroundImageFix"/><feColorMatrix in="SourceAlpha" result="hardAlpha" values="0 0 0 0 0 0 0 0 0 0 0 0 0 0 0 0 0 0 127 0"/><feOffset/><feGaussianBlur stdDeviation="2.857"/><feComposite in2="hardAlpha" operator="out"/><feColorMatrix values="0 0 0 0 0 0 0 0 0 0 0 0 0 0 0 0 0 0 0.25 0"/><feBlend in2="BackgroundImageFix" result="effect1_dropShadow_28_2464"/><feBlend in="SourceGraphic" in2="effect1_dropShadow_28_2464" result="shape"/></filter><linearGradient id="a" x1="108.501" x2="108.501" y1="0" y2="40.001" gradientUnits="userSpaceOnUse"><stop stop-color="#002634"/><stop offset="1" stop-color="#00161f"/></linearGradient></defs></svg>