<svg xmlns="http://www.w3.org/2000/svg" width="241" height="40" fill="none" viewBox="0 0 241 40"><g clip-path="url(#a)"><rect width="241.001" height="40.001" fill="url(#b)" rx="8"/><g filter="url(#c)"><path fill="#fff" d="M34.5 14.4c-.005-3.576-2.728-6.506-5.922-7.563-3.967-1.313-9.2-1.123-12.988.705C11 9.757 9.557 14.61 9.503 19.452c-.044 3.979.344 14.46 6.126 14.535 4.295.056 4.935-5.605 6.923-8.33 1.414-1.94 3.234-2.488 5.476-3.055 3.852-.975 6.478-4.085 6.472-8.203"/></g><g filter="url(#d)"><path fill="#e8e8e8" d="M50.103 17.385q-.096-.857-.797-1.328-.7-.477-1.763-.477-.76 0-1.316.241-.555.236-.863.652a1.54 1.54 0 0 0-.302.936q0 .44.205.76.211.32.55.538.345.211.736.356.392.14.755.23l1.207.314a9 9 0 0 1 1.214.392q.622.247 1.153.652t.857 1.002q.332.598.332 1.43 0 1.052-.543 1.866-.538.815-1.564 1.286-1.02.471-2.469.471-1.388 0-2.403-.44-1.014-.441-1.587-1.25-.574-.816-.634-1.932h1.871q.055.67.435 1.117.387.44.984.658.603.21 1.322.21.79 0 1.407-.247.621-.253.978-.7a1.66 1.66 0 0 0 .356-1.056q0-.55-.314-.9-.307-.35-.84-.58a8 8 0 0 0-1.189-.404l-1.46-.398q-1.485-.404-2.355-1.19-.863-.785-.863-2.076 0-1.069.58-1.866.579-.796 1.569-1.237.99-.447 2.234-.447 1.255 0 2.215.44.966.442 1.521 1.214.555.767.58 1.763zm9.926 5.27v-5.427h1.811v9.273h-1.775v-1.606h-.096a2.9 2.9 0 0 1-1.026 1.237q-.7.49-1.745.49-.894 0-1.582-.393-.683-.399-1.074-1.177-.387-.78-.387-1.926v-5.898h1.805v5.68q0 .95.526 1.51.525.561 1.364.561.507 0 1.008-.253.507-.255.84-.767.337-.513.331-1.304m4.237 7.323v-12.75h1.762v1.503h.151q.157-.29.453-.67a2.6 2.6 0 0 1 .821-.664q.525-.29 1.389-.29 1.122 0 2.004.568.88.567 1.382 1.636.507 1.069.508 2.571 0 1.504-.502 2.578-.5 1.07-1.376 1.648-.876.574-1.998.574-.846 0-1.383-.284a2.6 2.6 0 0 1-.833-.664 5 5 0 0 1-.465-.676h-.108v4.92zm1.768-8.114q0 .978.284 1.715.284.736.821 1.153.537.41 1.316.41.81 0 1.353-.428.543-.435.82-1.177.285-.743.284-1.673 0-.916-.277-1.648-.272-.73-.821-1.153-.544-.422-1.359-.422-.785 0-1.328.404-.537.405-.815 1.129t-.278 1.69m8.724 8.114v-12.75h1.763v1.503h.15q.158-.29.453-.67.297-.38.821-.664.525-.29 1.389-.29 1.122 0 2.004.568.882.567 1.383 1.636.507 1.069.507 2.571 0 1.504-.501 2.578-.501 1.07-1.377 1.648-.875.574-1.998.574-.845 0-1.383-.284a2.6 2.6 0 0 1-.833-.664 5 5 0 0 1-.464-.676h-.11v4.92zm1.769-8.114q0 .978.283 1.715.284.736.821 1.153.538.41 1.317.41.809 0 1.352-.428.543-.435.82-1.177.284-.743.284-1.673a4.6 4.6 0 0 0-.277-1.648q-.272-.73-.821-1.153-.543-.422-1.358-.422-.785 0-1.329.404-.537.405-.815 1.129t-.277 1.69m12.629 4.824q-1.304 0-2.276-.598a4.03 4.03 0 0 1-1.51-1.672q-.536-1.074-.537-2.511 0-1.443.538-2.524.537-1.08 1.509-1.678t2.276-.598q1.305 0 2.276.598a4 4 0 0 1 1.51 1.678q.536 1.08.536 2.524 0 1.436-.537 2.511a4.03 4.03 0 0 1-1.51 1.672q-.971.598-2.275.598m.006-1.515q.845 0 1.4-.447.556-.447.822-1.19a4.7 4.7 0 0 0 .271-1.635q0-.888-.271-1.63-.265-.75-.822-1.202-.555-.453-1.4-.453-.851 0-1.413.453-.555.453-.827 1.202a4.8 4.8 0 0 0-.265 1.63q0 .892.265 1.636.272.742.827 1.189.563.447 1.413.447m6.331 1.328v-9.273h1.745v1.473h.097q.253-.75.893-1.177.646-.435 1.46-.435a8 8 0 0 1 .768.042v1.727a3 3 0 0 0-.387-.067 4 4 0 0 0-.555-.042q-.64 0-1.141.272a2.02 2.02 0 0 0-1.075 1.817v5.663zm11.401-9.273v1.449h-5.065v-1.449zm-3.707-2.222h1.805v8.772q0 .526.157.79.157.261.405.357.254.09.549.09.218 0 .38-.03l.254-.048.326 1.491q-.157.06-.447.121a3.5 3.5 0 0 1-.724.072 3.2 3.2 0 0 1-1.328-.253 2.27 2.27 0 0 1-.996-.821q-.381-.555-.381-1.395zm10.203 11.495v-9.273h1.732v1.51h.115q.29-.768.948-1.196.658-.435 1.575-.435.93 0 1.558.435.634.435.936 1.195h.096q.333-.743 1.057-1.183.724-.447 1.726-.447 1.262 0 2.059.791.803.79.803 2.385V26.5h-1.805v-6.05q0-.94-.513-1.364a1.87 1.87 0 0 0-1.226-.422q-.88 0-1.37.543-.489.538-.489 1.383v5.91h-1.799v-6.164q0-.755-.471-1.213-.471-.46-1.226-.46-.513 0-.947.272a2 2 0 0 0-.695.743 2.3 2.3 0 0 0-.259 1.105V26.5zm19.021.187q-1.371 0-2.361-.586a3.97 3.97 0 0 1-1.521-1.66q-.531-1.074-.531-2.517 0-1.425.531-2.512.537-1.087 1.497-1.696.965-.61 2.258-.61.785 0 1.521.26.737.259 1.322.815t.924 1.443q.338.881.338 2.143v.64h-7.371v-1.353h5.602q0-.712-.29-1.261a2.2 2.2 0 0 0-.815-.876q-.519-.32-1.219-.32-.76 0-1.328.375a2.5 2.5 0 0 0-.87.966 2.8 2.8 0 0 0-.301 1.285v1.057q0 .93.326 1.582.332.651.923.996.592.338 1.383.338.513 0 .935-.145.423-.15.731-.447.308-.295.471-.73l1.708.308a3.1 3.1 0 0 1-.736 1.322 3.6 3.6 0 0 1-1.322.875q-.791.308-1.805.308m14.386 0q-1.304 0-2.276-.598a4.04 4.04 0 0 1-1.51-1.672q-.537-1.074-.537-2.511 0-1.443.537-2.524.538-1.08 1.51-1.678.971-.597 2.276-.598 1.303 0 2.275.598a4.03 4.03 0 0 1 1.51 1.678q.537 1.08.537 2.524 0 1.436-.537 2.511a4.04 4.04 0 0 1-1.51 1.672q-.972.598-2.275.598m.006-1.515q.845 0 1.4-.447t.821-1.19q.272-.742.272-1.635 0-.888-.272-1.63-.266-.75-.821-1.202-.555-.453-1.4-.453-.852 0-1.413.453-.555.453-.827 1.202a4.8 4.8 0 0 0-.266 1.63q0 .892.266 1.636.272.742.827 1.189.561.447 1.413.447m8.136-4.178v5.506h-1.805v-9.273h1.732v1.51h.115a2.65 2.65 0 0 1 1.002-1.184q.689-.447 1.733-.447.948 0 1.66.399.712.392 1.105 1.17.392.78.392 1.927V26.5h-1.805v-5.68q0-1.008-.525-1.576-.525-.573-1.443-.573-.628 0-1.117.271a1.95 1.95 0 0 0-.766.797q-.279.52-.278 1.256"/><path fill="#fff" d="M167.937 26.5V14.138h5.107q1.389 0 2.397.543 1.014.538 1.564 1.504.549.96.549 2.233 0 1.28-.561 2.24a3.77 3.77 0 0 1-1.588 1.479q-1.032.525-2.451.525h-3.151v-2.354h2.595q.677 0 1.129-.236.46-.235.695-.658.235-.428.235-.996 0-.573-.235-.99a1.6 1.6 0 0 0-.695-.652q-.458-.23-1.129-.23h-1.473v9.956zm13.372.158q-.888 0-1.576-.296a2.45 2.45 0 0 1-1.08-.906q-.393-.609-.393-1.527 0-.773.272-1.304t.749-.863a3.5 3.5 0 0 1 1.098-.501 7 7 0 0 1 1.328-.236q.791-.072 1.274-.15.483-.086.701-.236a.51.51 0 0 0 .223-.44v-.031q0-.465-.32-.718-.32-.255-.863-.254-.587 0-.942.254a1.1 1.1 0 0 0-.453.7l-2.723-.097a3.2 3.2 0 0 1 .622-1.509q.507-.67 1.389-1.05.887-.387 2.131-.387.887 0 1.636.212.748.205 1.304.603.555.393.857.966.308.574.308 1.31v6.303h-2.777v-1.292h-.073q-.247.471-.633.797-.381.325-.9.489a3.8 3.8 0 0 1-1.159.163m.912-1.932q.477 0 .857-.193a1.6 1.6 0 0 0 .616-.532q.23-.344.229-.797v-.88a2 2 0 0 1-.308.12q-.175.054-.386.103t-.435.084l-.429.066a2.7 2.7 0 0 0-.712.206 1.13 1.13 0 0 0-.447.362.9.9 0 0 0-.151.52q0 .457.326.7.332.24.84.24m11.669-7.498V19.4h-5.85v-2.173zm-4.624-2.222h2.952v8.579q0 .272.084.44a.53.53 0 0 0 .26.236q.169.066.404.066.17 0 .356-.03.194-.036.29-.06l.447 2.13q-.211.061-.598.152-.38.09-.911.115-1.038.048-1.781-.242a2.3 2.3 0 0 1-1.129-.918q-.387-.621-.374-1.563zm6.13 11.495v-9.273h2.868v1.69h.096q.254-.917.827-1.364a2.1 2.1 0 0 1 1.335-.453q.204 0 .422.03.218.025.405.079v2.566a3 3 0 0 0-.556-.115 5 5 0 0 0-.604-.042q-.525 0-.947.235a1.7 1.7 0 0 0-.658.646 1.9 1.9 0 0 0-.236.966V26.5zm11.009.175q-1.455 0-2.512-.574a3.97 3.97 0 0 1-1.618-1.648q-.561-1.074-.561-2.553 0-1.437.567-2.512.568-1.08 1.6-1.678 1.032-.603 2.433-.604.99 0 1.811.308.82.308 1.419.912.597.604.929 1.49.332.882.332 2.023v.737h-8.059v-1.715h5.313a1.66 1.66 0 0 0-.224-.839 1.5 1.5 0 0 0-.597-.573 1.73 1.73 0 0 0-.864-.212q-.495 0-.887.224a1.68 1.68 0 0 0-.863 1.449v1.744q0 .567.223.996.223.423.634.658t.978.236q.392 0 .712-.109a1.5 1.5 0 0 0 .55-.32q.228-.21.344-.52l2.71.08a3.35 3.35 0 0 1-.742 1.587q-.569.67-1.491 1.044-.924.369-2.137.369m10.237 0q-1.46 0-2.512-.598a4.13 4.13 0 0 1-1.612-1.678q-.561-1.08-.561-2.505 0-1.431.561-2.506.568-1.08 1.612-1.678 1.051-.603 2.512-.604 1.461 0 2.505.604 1.05.598 1.612 1.678.567 1.075.567 2.506 0 1.424-.567 2.505a4.07 4.07 0 0 1-1.612 1.678q-1.044.598-2.505.598m.018-2.228q.531 0 .899-.326.369-.326.562-.905.198-.58.199-1.34 0-.773-.199-1.353-.193-.58-.562-.905a1.3 1.3 0 0 0-.899-.326q-.549 0-.93.326-.374.326-.573.905-.194.58-.194 1.352 0 .762.194 1.34.199.58.573.906.381.326.93.326m9.131-3.236V26.5h-2.952v-9.273h2.807v1.702h.102a2.6 2.6 0 0 1 1.051-1.334q.742-.489 1.769-.489.978 0 1.696.44.724.435 1.123 1.22.404.78.398 1.823v5.91h-2.952v-5.33q.006-.773-.392-1.207-.393-.435-1.093-.435-.464 0-.821.205a1.36 1.36 0 0 0-.543.574q-.187.375-.193.905"/></g></g><rect width="238.858" height="37.858" x="1.071" y="1.071" stroke="#fff" stroke-opacity=".15" stroke-width="2.143" rx="6.929"/><defs><filter id="c" width="39.202" height="39.215" x="2.4" y=".387" color-interpolation-filters="sRGB" filterUnits="userSpaceOnUse"><feFlood flood-opacity="0" result="BackgroundImageFix"/><feColorMatrix in="SourceAlpha" result="hardAlpha" values="0 0 0 0 0 0 0 0 0 0 0 0 0 0 0 0 0 0 127 0"/><feOffset/><feGaussianBlur stdDeviation="2.8"/><feComposite in2="hardAlpha" operator="out"/><feColorMatrix values="0 0 0 0 0 0 0 0 0 0 0 0 0 0 0 0 0 0 0.25 0"/><feBlend in2="BackgroundImageFix" result="effect1_dropShadow_28_2521"/><feBlend in="SourceGraphic" in2="effect1_dropShadow_28_2521" result="shape"/></filter><filter id="d" width="202.429" height="32.429" x="36.287" y="3.786" color-interpolation-filters="sRGB" filterUnits="userSpaceOnUse"><feFlood flood-opacity="0" result="BackgroundImageFix"/><feColorMatrix in="SourceAlpha" result="hardAlpha" values="0 0 0 0 0 0 0 0 0 0 0 0 0 0 0 0 0 0 127 0"/><feOffset/><feGaussianBlur stdDeviation="2.857"/><feComposite in2="hardAlpha" operator="out"/><feColorMatrix values="0 0 0 0 0 0 0 0 0 0 0 0 0 0 0 0 0 0 0.25 0"/><feBlend in2="BackgroundImageFix" result="effect1_dropShadow_28_2521"/><feBlend in="SourceGraphic" in2="effect1_dropShadow_28_2521" result="shape"/></filter><linearGradient id="b" x1="120.501" x2="120.501" y1="0" y2="40.001" gradientUnits="userSpaceOnUse"><stop stop-color="#242424"/><stop offset="1" stop-color="#1d1d1d"/></linearGradient><clipPath id="a"><rect width="241.001" height="40.001" fill="#fff" rx="8"/></clipPath></defs></svg>