<svg xmlns="http://www.w3.org/2000/svg" width="40" height="40" fill="none" viewBox="0 0 40 40"><rect width="40" height="40" fill="url(#a)" rx="8"/><rect width="37.9" height="37.9" x="1.05" y="1.05" stroke="#fff" stroke-opacity=".15" stroke-width="2.1" rx="6.95"/><g filter="url(#b)"><path fill="#fff9ae" d="M20.06 7.313A12.603 12.603 0 0 0 7.464 19.66a12.6 12.6 0 0 0 1.517 6.258l-2.28 7.335 8.187-1.85a12.598 12.598 0 0 0 17.495-8.839A12.603 12.603 0 0 0 20.07 7.313z"/><path fill="#00aeef" d="M30.057 12.248a12.598 12.598 0 0 1-15.168 19.135l-8.187 1.874 8.335-.985a12.595 12.595 0 0 0 18.917-11.938 12.6 12.6 0 0 0-3.897-8.086"/><path fill="#00a94f" d="M27.737 9.924A12.598 12.598 0 0 1 14.65 30.538l-7.948 2.72 8.187-1.855a12.595 12.595 0 0 0 17.558-13.846 12.6 12.6 0 0 0-4.71-7.633"/><path fill="#f15d22" d="M9.735 26.197A12.603 12.603 0 0 1 22.38 8.807a12.6 12.6 0 0 1 7.686 3.437A12.6 12.6 0 0 0 8.982 25.918l-2.28 7.335z"/><path fill="#e31b23" d="M8.982 25.918A12.603 12.603 0 0 1 19.74 7.32a12.6 12.6 0 0 1 7.997 2.603 12.6 12.6 0 0 0-19.532 15.8l-1.5 7.534z"/></g><defs><linearGradient id="a" x1="20" x2="20" y1="0" y2="40" gradientUnits="userSpaceOnUse"><stop stop-color="#353426"/><stop offset="1" stop-color="#27261c"/></linearGradient><filter id="b" width="36" height="36" x="2" y="2" color-interpolation-filters="sRGB" filterUnits="userSpaceOnUse"><feFlood flood-opacity="0" result="BackgroundImageFix"/><feColorMatrix in="SourceAlpha" result="hardAlpha" values="0 0 0 0 0 0 0 0 0 0 0 0 0 0 0 0 0 0 127 0"/><feOffset/><feGaussianBlur stdDeviation="2"/><feComposite in2="hardAlpha" operator="out"/><feColorMatrix values="0 0 0 0 0 0 0 0 0 0 0 0 0 0 0 0 0 0 0.25 0"/><feBlend in2="BackgroundImageFix" result="effect1_dropShadow_2_2548"/><feBlend in="SourceGraphic" in2="effect1_dropShadow_2_2548" result="shape"/></filter></defs></svg>