<svg xmlns="http://www.w3.org/2000/svg" width="40" height="40" fill="none" viewBox="0 0 40 40"><rect width="40" height="40" fill="url(#a)" rx="8"/><rect width="37.9" height="37.9" x="1.05" y="1.05" stroke="#fff" stroke-opacity=".15" stroke-width="2.1" rx="6.95"/><g filter="url(#b)"><path fill="#5865f2" d="M29.702 11.245A23.6 23.6 0 0 0 24 9.501c-.037 0-.075 0-.09.045-.246.434-.523.993-.71 1.434a21.7 21.7 0 0 0-6.404 0 10 10 0 0 0-.747-1.434c-.023-.03-.053-.052-.09-.045-1.719.339-3.916.957-5.68 1.744-.015 0-.03.015-.037.03-3.662 5.37-4.634 10.52-4.11 15.671 0 .022.014.052.037.074 2.391 1.736 4.708 2.796 6.995 3.48.037 0 .075 0 .097-.03a16.5 16.5 0 0 0 1.435-2.295.084.084 0 0 0-.052-.118 17 17 0 0 1-2.19-1.03.085.085 0 0 1 0-.147c.15-.11.299-.22.433-.331.023-.022.06-.022.09-.015 4.589 2.06 9.566 2.06 14.05 0a.1.1 0 0 1 .09.008q.21.174.433.338c.052.037.045.118 0 .147-.695.405-1.42.736-2.19 1.03-.052.022-.075.074-.045.125.419.81.905 1.568 1.42 2.281.023.03.06.044.098.03a23.5 23.5 0 0 0 7.01-3.48.08.08 0 0 0 .037-.074c.583-5.952-.98-11.11-4.14-15.672 0-.014-.023-.03-.038-.03zM15.353 23.827c-1.42 0-2.54-1.251-2.54-2.796s1.12-2.796 2.54-2.796 2.541 1.25 2.541 2.796-1.12 2.796-2.54 2.796m9.342 0c-1.42 0-2.54-1.251-2.54-2.796s1.12-2.796 2.54-2.796 2.541 1.25 2.541 2.796-1.121 2.796-2.54 2.796"/></g><defs><linearGradient id="a" x1="20" x2="20" y1="0" y2="40" gradientUnits="userSpaceOnUse"><stop stop-color="#1b1d31"/><stop offset="1" stop-color="#11121f"/></linearGradient><filter id="b" width="36" height="36" x="2" y="2" color-interpolation-filters="sRGB" filterUnits="userSpaceOnUse"><feFlood flood-opacity="0" result="BackgroundImageFix"/><feColorMatrix in="SourceAlpha" result="hardAlpha" values="0 0 0 0 0 0 0 0 0 0 0 0 0 0 0 0 0 0 127 0"/><feOffset/><feGaussianBlur stdDeviation="2"/><feComposite in2="hardAlpha" operator="out"/><feColorMatrix values="0 0 0 0 0 0 0 0 0 0 0 0 0 0 0 0 0 0 0.25 0"/><feBlend in2="BackgroundImageFix" result="effect1_dropShadow_2_2393"/><feBlend in="SourceGraphic" in2="effect1_dropShadow_2_2393" result="shape"/></filter></defs></svg>