<svg xmlns="http://www.w3.org/2000/svg" width="40" height="40" fill="none" viewBox="0 0 40 40"><rect width="40" height="40" fill="url(#a)" rx="8"/><rect width="37.9" height="37.9" x="1.05" y="1.05" stroke="#fff" stroke-opacity=".15" stroke-width="2.1" rx="6.95"/><g filter="url(#b)"><path fill="#2299f8" d="M20.511 33c-3.326 0-6.371-1.161-8.721-3.083l-5.79.75 2.233-5.277A12.5 12.5 0 0 1 7.021 20c0-7.181 6.042-13 13.489-13C27.966 7 34 12.82 34 20s-6.033 13-13.489 13"/><path fill="#fcfcfc" d="M20.597 13.067h-4.972v13.866h4.902c4.638 0 7.348-2.972 7.348-6.97v-.038c0-3.997-2.675-6.858-7.278-6.858m3.608 6.942c0 2.246-1.417 3.513-3.555 3.513h-1.453v-7.054h1.453c2.138 0 3.556 1.286 3.556 3.504z"/></g><defs><linearGradient id="a" x1="20" x2="20" y1="0" y2="40" gradientUnits="userSpaceOnUse"><stop stop-color="#051f30"/><stop offset="1" stop-color="#031420"/></linearGradient><filter id="b" width="36.001" height="36" x="2" y="2" color-interpolation-filters="sRGB" filterUnits="userSpaceOnUse"><feFlood flood-opacity="0" result="BackgroundImageFix"/><feColorMatrix in="SourceAlpha" result="hardAlpha" values="0 0 0 0 0 0 0 0 0 0 0 0 0 0 0 0 0 0 127 0"/><feOffset/><feGaussianBlur stdDeviation="2"/><feComposite in2="hardAlpha" operator="out"/><feColorMatrix values="0 0 0 0 0 0 0 0 0 0 0 0 0 0 0 0 0 0 0.25 0"/><feBlend in2="BackgroundImageFix" result="effect1_dropShadow_2_2559"/><feBlend in="SourceGraphic" in2="effect1_dropShadow_2_2559" result="shape"/></filter></defs></svg>