<svg xmlns="http://www.w3.org/2000/svg" width="40" height="40" fill="none" viewBox="0 0 40 40"><rect width="40" height="40" fill="url(#a)" rx="8"/><rect width="37.9" height="37.9" x="1.05" y="1.05" stroke="#fff" stroke-opacity=".15" stroke-width="2.1" rx="6.95"/><g filter="url(#b)"><path fill="#e24329" d="m20 32.996 5.156-15.993H14.844z"/><path fill="#fc6d26" d="m20 32.996-5.156-15.993H7.62z"/><path fill="#fca326" d="m7.62 17.003-1.568 4.86a1.08 1.08 0 0 0 .388 1.203L20 33z"/><path fill="#e24329" d="M7.62 17.003h7.224L11.74 7.372A.54.54 0 0 0 11.232 7a.53.53 0 0 0-.508.37z"/><path fill="#fc6d26" d="m20 32.996 5.156-15.993h7.225z"/><path fill="#fca326" d="m32.381 17.003 1.567 4.86a1.08 1.08 0 0 1-.388 1.203L20 33z"/><path fill="#e24329" d="M32.381 17.004h-7.225l3.105-9.633A.54.54 0 0 1 28.77 7a.53.53 0 0 1 .507.37z"/></g><defs><linearGradient id="a" x1="20" x2="20" y1="0" y2="40" gradientUnits="userSpaceOnUse"><stop stop-color="#2e0e09"/><stop offset="1" stop-color="#1f1506"/></linearGradient><filter id="b" width="36" height="36" x="2" y="2" color-interpolation-filters="sRGB" filterUnits="userSpaceOnUse"><feFlood flood-opacity="0" result="BackgroundImageFix"/><feColorMatrix in="SourceAlpha" result="hardAlpha" values="0 0 0 0 0 0 0 0 0 0 0 0 0 0 0 0 0 0 127 0"/><feOffset/><feGaussianBlur stdDeviation="2"/><feComposite in2="hardAlpha" operator="out"/><feColorMatrix values="0 0 0 0 0 0 0 0 0 0 0 0 0 0 0 0 0 0 0.25 0"/><feBlend in2="BackgroundImageFix" result="effect1_dropShadow_2_2476"/><feBlend in="SourceGraphic" in2="effect1_dropShadow_2_2476" result="shape"/></filter></defs></svg>