<svg xmlns="http://www.w3.org/2000/svg" width="40" height="40" fill="none" viewBox="0 0 40 40"><rect width="40" height="40" fill="url(#a)" rx="8"/><rect width="37.9" height="37.9" x="1.05" y="1.05" stroke="#fff" stroke-opacity=".15" stroke-width="2.1" rx="6.95"/><g filter="url(#b)"><path fill="#f5c400" d="M12.738 14.208s.022 3.117 1.605 6.342c1.627 3.103 3.87 5.097 5.72 5.891 1.912-.903 3.759-2.472 4.767-4.162h-5.25c-1.358-1.137-2.426-3.025-2.672-5.207h15.397c-.759 3.508-2.37 6.698-3.905 8.73A18.55 18.55 0 0 1 20.074 32h-.048c-5.522-2.224-8.493-5.728-10.454-9.682C8.315 19.785 7 15.185 7 9h26a38 38 0 0 1-.347 5.208z"/></g><defs><linearGradient id="a" x1="20" x2="20" y1="0" y2="40" gradientUnits="userSpaceOnUse"><stop stop-color="#322c16"/><stop offset="1" stop-color="#231f0f"/></linearGradient><filter id="b" width="36" height="36" x="2" y="2" color-interpolation-filters="sRGB" filterUnits="userSpaceOnUse"><feFlood flood-opacity="0" result="BackgroundImageFix"/><feColorMatrix in="SourceAlpha" result="hardAlpha" values="0 0 0 0 0 0 0 0 0 0 0 0 0 0 0 0 0 0 127 0"/><feOffset/><feGaussianBlur stdDeviation="2"/><feComposite in2="hardAlpha" operator="out"/><feColorMatrix values="0 0 0 0 0 0 0 0 0 0 0 0 0 0 0 0 0 0 0.25 0"/><feBlend in2="BackgroundImageFix" result="effect1_dropShadow_2_2437"/><feBlend in="SourceGraphic" in2="effect1_dropShadow_2_2437" result="shape"/></filter></defs></svg>