<svg xmlns="http://www.w3.org/2000/svg" width="40" height="40" fill="none" viewBox="0 0 40 40"><rect width="40" height="40" fill="url(#a)" rx="8"/><rect width="37.9" height="37.9" x="1.05" y="1.05" stroke="#fff" stroke-opacity=".15" stroke-width="2.1" rx="6.95"/><g filter="url(#b)"><path fill="url(#c)" d="M32.896 12.199c-.4-3.008-2.995-5.38-6.07-5.839-.52-.077-2.486-.36-7.04-.36h-.034c-4.555 0-5.532.283-6.051.36-2.99.447-5.72 2.577-6.383 5.621-.319 1.5-.353 3.162-.294 4.686.085 2.187.101 4.37.298 6.547.135 1.446.372 2.88.709 4.293.63 2.61 3.178 4.78 5.676 5.666a15.07 15.07 0 0 0 8.305.443q.454-.107.898-.248c.67-.215 1.454-.456 2.031-.878a.07.07 0 0 0 .027-.05v-2.111a.06.06 0 0 0-.024-.048.06.06 0 0 0-.052-.012c-1.765.426-3.574.64-5.39.636-3.123 0-3.963-1.498-4.203-2.121a6.6 6.6 0 0 1-.365-1.672.06.06 0 0 1 .022-.05.06.06 0 0 1 .053-.013c1.736.423 3.515.637 5.301.637.43 0 .858 0 1.287-.012 1.796-.05 3.69-.144 5.456-.492q.068-.013.126-.028c2.787-.541 5.44-2.239 5.709-6.538.01-.17.035-1.773.035-1.948.002-.597.19-4.234-.027-6.469"/><path fill="#fff" d="M28.48 15.58v7.473h-2.93V15.8c0-1.527-.63-2.306-1.911-2.306-1.408 0-2.113.922-2.113 2.742v3.97h-2.913v-3.97c0-1.82-.707-2.742-2.115-2.742-1.273 0-1.91.78-1.91 2.306v7.254H11.66V15.58q0-2.29 1.158-3.64c.796-.897 1.84-1.357 3.136-1.357 1.5 0 2.633.582 3.389 1.747l.729 1.237.73-1.237c.756-1.165 1.89-1.748 3.387-1.748 1.295 0 2.339.461 3.137 1.358q1.157 1.348 1.155 3.64"/></g><defs><linearGradient id="a" x1="20" x2="20" y1="0" y2="40" gradientUnits="userSpaceOnUse"><stop stop-color="#1c1036"/><stop offset="1" stop-color="#0b0920"/></linearGradient><linearGradient id="c" x1="20" x2="20" y1="6" y2="34" gradientUnits="userSpaceOnUse"><stop stop-color="#6364ff"/><stop offset="1" stop-color="#563acc"/></linearGradient><filter id="b" width="36" height="36" x="2" y="2" color-interpolation-filters="sRGB" filterUnits="userSpaceOnUse"><feFlood flood-opacity="0" result="BackgroundImageFix"/><feColorMatrix in="SourceAlpha" result="hardAlpha" values="0 0 0 0 0 0 0 0 0 0 0 0 0 0 0 0 0 0 127 0"/><feOffset/><feGaussianBlur stdDeviation="2"/><feComposite in2="hardAlpha" operator="out"/><feColorMatrix values="0 0 0 0 0 0 0 0 0 0 0 0 0 0 0 0 0 0 0.25 0"/><feBlend in2="BackgroundImageFix" result="effect1_dropShadow_2_2507"/><feBlend in="SourceGraphic" in2="effect1_dropShadow_2_2507" result="shape"/></filter></defs></svg>