<svg xmlns="http://www.w3.org/2000/svg" width="40" height="40" fill="none" viewBox="0 0 40 40"><g clip-path="url(#a)"><rect width="40" height="40" fill="url(#b)" rx="8"/><g filter="url(#c)"><g fill="#fff" clip-path="url(#d)"><path d="M31.464 33.304V6.617h-1.923v-.64h2.67v28h-2.67v-.641zm-16.57-18.2v1.348h.038a3.9 3.9 0 0 1 1.309-1.199c.51-.283 1.098-.424 1.747-.424q.951 0 1.73.367.785.366 1.195 1.295a4.2 4.2 0 0 1 1.212-1.155c.509-.335 1.115-.502 1.808-.502q.796 0 1.467.193.677.194 1.16.618t.753 1.111q.27.684.27 1.654v6.676h-2.748v-5.652q0-.502-.038-.945a2 2 0 0 0-.213-.772c-.117-.22-.295-.4-.513-.521q-.337-.193-.922-.193-.579.001-.94.221a1.6 1.6 0 0 0-.56.58c-.14.25-.232.527-.27.81q-.07.456-.07.92v5.556h-2.748v-5.6q0-.445-.018-.875a2.5 2.5 0 0 0-.165-.802 1.23 1.23 0 0 0-.483-.588q-.339-.222-1.002-.222a2 2 0 0 0-.512.088 1.7 1.7 0 0 0-.62.327q-.3.241-.512.695t-.213 1.19v5.792h-2.748V15.12zM8.489 6.645v26.687h1.923v.64h-2.67v-28h2.66v.641z"/></g></g></g><rect width="37.9" height="37.9" x="1.05" y="1.05" stroke="#fff" stroke-opacity=".15" stroke-width="2.1" rx="6.95"/><defs><clipPath id="a"><rect width="40" height="40" fill="#fff" rx="8"/></clipPath><clipPath id="d"><path fill="#fff" d="M7.75 6h24.5v28H7.75z"/></clipPath><linearGradient id="b" x1="20" x2="20" y1="0" y2="40" gradientUnits="userSpaceOnUse"><stop stop-color="#373737"/><stop offset="1" stop-color="#202020"/></linearGradient><filter id="c" width="39.429" height="39.429" x=".286" y=".286" color-interpolation-filters="sRGB" filterUnits="userSpaceOnUse"><feFlood flood-opacity="0" result="BackgroundImageFix"/><feColorMatrix in="SourceAlpha" result="hardAlpha" values="0 0 0 0 0 0 0 0 0 0 0 0 0 0 0 0 0 0 127 0"/><feOffset/><feGaussianBlur stdDeviation="2.857"/><feComposite in2="hardAlpha" operator="out"/><feColorMatrix values="0 0 0 0 0 0 0 0 0 0 0 0 0 0 0 0 0 0 0.25 0"/><feBlend in2="BackgroundImageFix" result="effect1_dropShadow_2_3315"/><feBlend in="SourceGraphic" in2="effect1_dropShadow_2_3315" result="shape"/></filter></defs></svg>