<svg xmlns="http://www.w3.org/2000/svg" width="40" height="40" fill="none" viewBox="0 0 40 40"><rect width="40" height="40" fill="url(#a)" rx="8"/><rect width="37.9" height="37.9" x="1.05" y="1.05" stroke="#fff" stroke-opacity=".15" stroke-width="2.1" rx="6.95"/><g filter="url(#b)"><path fill="#ff4654" d="M24.44 15.795c0 1.88-1.01 3.009-3.164 3.009h-3.567v-5.95h3.567c2.154 0 3.164 1.163 3.164 2.941M8.5 8l3.454 4.866v19.132h5.755V22.94h1.38L24.004 32H30.5l-5.453-9.505a6.87 6.87 0 0 0 3.828-2.53 7.06 7.06 0 0 0 1.422-4.41c0-4.17-2.895-7.555-8.684-7.555z"/></g><defs><linearGradient id="a" x1="20" x2="20" y1="0" y2="40" gradientUnits="userSpaceOnUse"><stop stop-color="#301515"/><stop offset="1" stop-color="#1e0d0d"/></linearGradient><filter id="b" width="36" height="36" x="2" y="2" color-interpolation-filters="sRGB" filterUnits="userSpaceOnUse"><feFlood flood-opacity="0" result="BackgroundImageFix"/><feColorMatrix in="SourceAlpha" result="hardAlpha" values="0 0 0 0 0 0 0 0 0 0 0 0 0 0 0 0 0 0 127 0"/><feOffset/><feGaussianBlur stdDeviation="2"/><feComposite in2="hardAlpha" operator="out"/><feColorMatrix values="0 0 0 0 0 0 0 0 0 0 0 0 0 0 0 0 0 0 0.25 0"/><feBlend in2="BackgroundImageFix" result="effect1_dropShadow_2_2405"/><feBlend in="SourceGraphic" in2="effect1_dropShadow_2_2405" result="shape"/></filter></defs></svg>