<svg xmlns="http://www.w3.org/2000/svg" width="40" height="40" fill="none" viewBox="0 0 40 40"><rect width="40" height="40" fill="url(#a)" rx="8"/><rect width="37.9" height="37.9" x="1.05" y="1.05" stroke="#fff" stroke-opacity=".15" stroke-width="2.1" rx="6.95"/><g filter="url(#b)"><path fill="#e01e5a" d="M11.903 23.7a2.94 2.94 0 0 1-2.94 2.943 2.94 2.94 0 0 1-2.941-2.942 2.94 2.94 0 0 1 2.94-2.943h2.94zm1.47 0a2.94 2.94 0 0 1 2.94-2.942 2.94 2.94 0 0 1 2.94 2.943v7.356A2.94 2.94 0 0 1 16.313 34a2.94 2.94 0 0 1-2.94-2.943z"/><path fill="#36c5f0" d="M16.313 11.885a2.94 2.94 0 0 1-2.94-2.942A2.94 2.94 0 0 1 16.313 6a2.94 2.94 0 0 1 2.94 2.943v2.942zm0 1.494a2.94 2.94 0 0 1 2.94 2.943 2.94 2.94 0 0 1-2.94 2.942H8.94A2.94 2.94 0 0 1 6 16.322a2.94 2.94 0 0 1 2.94-2.943z"/><path fill="#2eb67d" d="M28.097 16.322a2.94 2.94 0 0 1 2.94-2.943 2.94 2.94 0 0 1 2.94 2.943 2.94 2.94 0 0 1-2.94 2.942h-2.94zm-1.47 0a2.94 2.94 0 0 1-2.94 2.942 2.94 2.94 0 0 1-2.94-2.942v-7.38A2.94 2.94 0 0 1 23.686 6a2.94 2.94 0 0 1 2.94 2.943z"/><path fill="#ecb22e" d="M23.686 28.115a2.94 2.94 0 0 1 2.94 2.942A2.94 2.94 0 0 1 23.687 34a2.94 2.94 0 0 1-2.94-2.943v-2.942zm0-1.472a2.94 2.94 0 0 1-2.94-2.942 2.94 2.94 0 0 1 2.94-2.943h7.374A2.94 2.94 0 0 1 34 23.701a2.94 2.94 0 0 1-2.94 2.942z"/></g><defs><linearGradient id="a" x1="19.856" x2="19.856" y1="0" y2="40" gradientUnits="userSpaceOnUse"><stop stop-color="#2c0c2c"/><stop offset="1" stop-color="#1c081c"/></linearGradient><filter id="b" width="36" height="36" x="2" y="2" color-interpolation-filters="sRGB" filterUnits="userSpaceOnUse"><feFlood flood-opacity="0" result="BackgroundImageFix"/><feColorMatrix in="SourceAlpha" result="hardAlpha" values="0 0 0 0 0 0 0 0 0 0 0 0 0 0 0 0 0 0 127 0"/><feOffset/><feGaussianBlur stdDeviation="2"/><feComposite in2="hardAlpha" operator="out"/><feColorMatrix values="0 0 0 0 0 0 0 0 0 0 0 0 0 0 0 0 0 0 0.25 0"/><feBlend in2="BackgroundImageFix" result="effect1_dropShadow_2_2427"/><feBlend in="SourceGraphic" in2="effect1_dropShadow_2_2427" result="shape"/></filter></defs></svg>