<svg xmlns="http://www.w3.org/2000/svg" width="40" height="40" fill="none" viewBox="0 0 40 40"><rect width="40" height="40" fill="url(#a)" rx="8"/><rect width="37.9" height="37.9" x="1.05" y="1.05" stroke="#fff" stroke-opacity=".15" stroke-width="2.1" rx="6.95"/><g filter="url(#b)"><path fill="#1d9bf0" d="M31.134 14.226c.017.25.017.499.017.75 0 7.674-5.78 16.524-16.345 16.524v-.005A16.13 16.13 0 0 1 6 28.892q.681.082 1.367.084c2.587.002 5.1-.875 7.135-2.49-2.458-.048-4.614-1.668-5.367-4.034a5.7 5.7 0 0 0 2.594-.1c-2.68-.547-4.609-2.927-4.609-5.692v-.073c.799.45 1.693.699 2.608.726-2.525-1.705-3.303-5.1-1.778-7.754a16.25 16.25 0 0 0 11.839 6.067 5.85 5.85 0 0 1 1.662-5.548 5.707 5.707 0 0 1 8.127.252 11.5 11.5 0 0 0 3.649-1.41 5.82 5.82 0 0 1-2.526 3.212A11.3 11.3 0 0 0 34 11.218a11.7 11.7 0 0 1-2.866 3.008"/></g><defs><linearGradient id="a" x1="20" x2="20" y1="0" y2="40" gradientUnits="userSpaceOnUse"><stop stop-color="#051f30"/><stop offset="1" stop-color="#031420"/></linearGradient><filter id="b" width="36" height="36" x="2" y="2" color-interpolation-filters="sRGB" filterUnits="userSpaceOnUse"><feFlood flood-opacity="0" result="BackgroundImageFix"/><feColorMatrix in="SourceAlpha" result="hardAlpha" values="0 0 0 0 0 0 0 0 0 0 0 0 0 0 0 0 0 0 127 0"/><feOffset/><feGaussianBlur stdDeviation="2"/><feComposite in2="hardAlpha" operator="out"/><feColorMatrix values="0 0 0 0 0 0 0 0 0 0 0 0 0 0 0 0 0 0 0.25 0"/><feBlend in2="BackgroundImageFix" result="effect1_dropShadow_2_2530"/><feBlend in="SourceGraphic" in2="effect1_dropShadow_2_2530" result="shape"/></filter></defs></svg>