<svg xmlns="http://www.w3.org/2000/svg" width="40" height="40" fill="none" viewBox="0 0 40 40"><rect width="40" height="40" fill="url(#a)" rx="8"/><rect width="37.9" height="37.9" x="1.05" y="1.05" stroke="#fff" stroke-opacity=".15" stroke-width="2.1" rx="6.95"/><g filter="url(#b)"><path fill="#f22f21" d="M28.185 10h-16.37C8.604 10 6 12.628 6 15.87v8.26C6 27.372 8.604 30 11.815 30h16.37C31.396 30 34 27.372 34 24.13v-8.26c0-3.242-2.604-5.87-5.815-5.87m-3.933 10.402-7.657 3.686a.308.308 0 0 1-.44-.28v-7.603c0-.231.243-.38.447-.276l7.657 3.916a.312.312 0 0 1-.007.557"/></g><defs><linearGradient id="a" x1="20" x2="20" y1="0" y2="40" gradientUnits="userSpaceOnUse"><stop stop-color="#300e0c"/><stop offset="1" stop-color="#200908"/></linearGradient><filter id="b" width="36" height="36" x="2" y="2" color-interpolation-filters="sRGB" filterUnits="userSpaceOnUse"><feFlood flood-opacity="0" result="BackgroundImageFix"/><feColorMatrix in="SourceAlpha" result="hardAlpha" values="0 0 0 0 0 0 0 0 0 0 0 0 0 0 0 0 0 0 127 0"/><feOffset/><feGaussianBlur stdDeviation="2"/><feComposite in2="hardAlpha" operator="out"/><feColorMatrix values="0 0 0 0 0 0 0 0 0 0 0 0 0 0 0 0 0 0 0.25 0"/><feBlend in2="BackgroundImageFix" result="effect1_dropShadow_2_2367"/><feBlend in="SourceGraphic" in2="effect1_dropShadow_2_2367" result="shape"/></filter></defs></svg>