<svg xmlns="http://www.w3.org/2000/svg" width="40" height="40" fill="none" viewBox="0 0 40 40"><rect width="40" height="40" fill="url(#a)" rx="8"/><rect width="37.9" height="37.9" x="1.05" y="1.05" stroke="#fff" stroke-opacity=".15" stroke-width="2.1" rx="6.95"/><g filter="url(#b)"><path fill="#f1f1f1" d="M24.797 27.012a3.07 3.07 0 0 1-1.905-.652c-.635-.52-1.143-1.301-1.143-2.213 0-.52.508-.52.508-.52H23.4c.38 0 .508.52.508.65.127 1.302.889 1.823 1.397 2.083.254.13.127.652-.508.652m-6.603-6.38-2.286-.26c-1.016-.39-1.016-1.302-.89-1.562.128-.912.509-1.823.89-2.604.635-.911 1.524-1.823 2.667-2.473 2.158-1.302 5.206-2.084 8.508-2.084 2.412 0 4.952.391 4.952.391.254 0 .38.26.38.52 0 .261-.126.522-.38.522h-1.016c-3.429 0-5.841.52-7.62 1.562-1.777 1.041-3.047 2.603-3.809 4.817-.127.13-.38 1.302-1.396 1.171m2.92 9.504c-1.65 0-3.301-.781-4.444-2.083-1.016-1.172-1.651-2.343-1.778-3.775-.127-1.042.38-1.302.889-1.302l2.286.26c.508.13.888.39 1.015 1.042.508 3.254 2.413 4.556 3.683 4.947q.38 0 .38.39c0 .26-.126.39-.38.52zM16.29 33c-.89 0-1.778-.13-2.667-.26-1.397-.26-2.54-.651-3.556-1.432-2.412-1.563-3.81-4.427-4.063-7.681 0-.781-.127-2.344 1.65-2.213.763 0 1.906.39 2.794.65 1.016.26 1.524 1.172 1.524 1.953 0 4.687 4.064 7.811 5.842 7.811.762 0 .508.912.127.912-.508.26-1.27.26-1.651.26m-6.223-13.67c-.761-.13-1.396-.39-2.031-.65-2.032-.521-1.651-2.734-1.524-3.255 1.905-5.728 7.873-7.681 12.698-8.202 4.572-.52 9.27-.13 13.715 1.172.38.13 1.524.39.889 1.041-.381.39-2.032 0-2.413 0-2.54-.26-5.206-.26-7.746.13-2.794.391-5.587 1.302-7.746 3.255-1.27.912-3.175 4.166-3.175 4.557-.127.39-.635 2.213-2.667 1.953m11.556 1.042c.381-1.823 2.159-4.687 7.492-4.426 1.27 0 .635.911 0 .911-3.047-.13-4.444 1.953-5.206 3.906-.254.65-.762.78-1.524.65-.38-.13-.889-.13-.762-1.041"/></g><defs><linearGradient id="a" x1="20" x2="20" y1="0" y2="40" gradientUnits="userSpaceOnUse"><stop stop-color="#273227"/><stop offset="1" stop-color="#181f18"/></linearGradient><filter id="b" width="36.001" height="36" x="2" y="2" color-interpolation-filters="sRGB" filterUnits="userSpaceOnUse"><feFlood flood-opacity="0" result="BackgroundImageFix"/><feColorMatrix in="SourceAlpha" result="hardAlpha" values="0 0 0 0 0 0 0 0 0 0 0 0 0 0 0 0 0 0 127 0"/><feOffset/><feGaussianBlur stdDeviation="2"/><feComposite in2="hardAlpha" operator="out"/><feColorMatrix values="0 0 0 0 0 0 0 0 0 0 0 0 0 0 0 0 0 0 0.25 0"/><feBlend in2="BackgroundImageFix" result="effect1_dropShadow_2_3104"/><feBlend in="SourceGraphic" in2="effect1_dropShadow_2_3104" result="shape"/></filter></defs></svg>