<svg xmlns="http://www.w3.org/2000/svg" width="40" height="40" fill="none" viewBox="0 0 40 40"><rect width="40" height="40" fill="url(#a)" rx="8"/><rect width="37.9" height="37.9" x="1.05" y="1.05" stroke="#fff" stroke-opacity=".15" stroke-width="2.1" rx="6.95"/><g filter="url(#b)"><path fill="url(#c)" d="M23.939 25.167a3.1 3.1 0 0 1-1.2-.243c-.864-.363-1.625-1.05-2.244-1.977q.265-.456.478-.935c.623-1.397.92-2.926.942-4.445l-.008-.09-.002-.078a5 5 0 0 0-.307-1.76c-.245-.648-.635-1.296-1.254-1.548a.9.9 0 0 0-.348-.063c-.779-1.403-.803-2.748 0-4.028h.043a5.3 5.3 0 0 1 2.69.785c2.187 1.341 3.278 3.955 3.302 6.521l-.001.09h.012c-.003 2.712-.68 5.463-2.103 7.771m-4.85 4.257a8.38 8.38 0 0 1-6.441-.14c-2.33-1.043-4.11-3.07-5.206-5.384-1.875-3.958-1.918-8.689-.14-12.707 1.336.515 2.523-.306 2.523-.306s-.002 1.263 1.266 1.896c-1.301 2.94-1.27 6.433.034 9.298.627 1.378 1.586 2.662 2.915 3.387.475.26.996.427 1.532.49l.006.009c.947 1.425 2.14 2.612 3.51 3.457"/><path fill="url(#d)" fill-rule="evenodd" d="M23.938 25.168a3.1 3.1 0 0 1-1.198-.243c-.865-.364-1.626-1.05-2.245-1.978q.265-.455.478-.935.281-.632.476-1.296c.3-1.022 4.296.276 3.686 1.96-.314.87-.712 1.706-1.197 2.492m-4.85 4.256a8.38 8.38 0 0 1-6.44-.14c-2.33-1.043.063-4.541 1.392-3.816.474.26.995.427 1.531.49l.007.01c.947 1.424 2.14 2.611 3.51 3.456" clip-rule="evenodd" opacity=".3"/><path fill="url(#e)" d="M13.972 17.396v-.09c.023-2.566 1.114-5.18 3.301-6.521A5.3 5.3 0 0 1 20.006 10v4.028a.9.9 0 0 0-.348.063c-.619.252-1.009.9-1.254 1.547a5 5 0 0 0-.307 1.76l-.002.079-.008.09c.023 1.519.319 3.048.942 4.445.698 1.565 1.806 3.004 3.372 3.662 1.181.496 2.49.379 3.56-.206 1.33-.726 2.289-2.009 2.916-3.387 1.304-2.865 1.335-6.358.034-9.298 1.268-.633 1.266-1.896 1.266-1.896s1.187.82 2.523.306c1.778 4.018 1.735 8.75-.14 12.707-1.096 2.314-2.876 4.341-5.206 5.384a8.37 8.37 0 0 1-6.588.08c-1.865-.784-3.382-2.197-4.473-3.84-1.581-2.378-2.33-5.274-2.333-8.128z"/></g><defs><linearGradient id="a" x1="20" x2="20" y1="0" y2="40" gradientUnits="userSpaceOnUse"><stop stop-color="#1a2c32"/><stop offset="1" stop-color="#0e1c0f"/></linearGradient><linearGradient id="c" x1="6.001" x2="19.681" y1="17.611" y2="17.611" gradientUnits="userSpaceOnUse"><stop stop-color="#00d2e6"/><stop offset="1" stop-color="#2eccaa"/></linearGradient><linearGradient id="d" x1="14.007" x2="21.11" y1="26.115" y2="21.421" gradientUnits="userSpaceOnUse"><stop stop-opacity="0"/><stop offset=".514"/><stop offset="1" stop-opacity="0"/></linearGradient><linearGradient id="e" x1="34.001" x2="20.344" y1="17.944" y2="17.944" gradientUnits="userSpaceOnUse"><stop stop-color="#1fa385"/><stop offset="1" stop-color="#2eccaa"/></linearGradient><filter id="b" width="36.001" height="36" x="2" y="2" color-interpolation-filters="sRGB" filterUnits="userSpaceOnUse"><feFlood flood-opacity="0" result="BackgroundImageFix"/><feColorMatrix in="SourceAlpha" result="hardAlpha" values="0 0 0 0 0 0 0 0 0 0 0 0 0 0 0 0 0 0 127 0"/><feOffset/><feGaussianBlur stdDeviation="2"/><feComposite in2="hardAlpha" operator="out"/><feColorMatrix values="0 0 0 0 0 0 0 0 0 0 0 0 0 0 0 0 0 0 0.25 0"/><feBlend in2="BackgroundImageFix" result="effect1_dropShadow_2_3095"/><feBlend in="SourceGraphic" in2="effect1_dropShadow_2_3095" result="shape"/></filter></defs></svg>