<svg xmlns="http://www.w3.org/2000/svg" width="40" height="40" fill="none" viewBox="0 0 40 40"><g clip-path="url(#a)"><rect width="40" height="40" fill="url(#b)" rx="8"/><g filter="url(#c)"><path fill="#353535" d="M13.366 6v2.29H9.168v2.019H7.001v2.288h2.167v2.02h2.167v2.153h4.333v2.154h8.667V16.77h4.333v-2.154H30.7v6.597h-2.03v6.326h-2.303v4.308h-13V34h13v-2.154h2.302v-4.308H30.7v-6.326h2.302V10.308H30.7v2.288h-2.03v2.02h-4.334v2.153h-8.667v-2.154h-4.333v-2.019H9.168v-2.288h4.198v-2.02h6.636V6z"/><path fill="#515151" d="M20.001 6v2.29h6.365v2.019h4.333v-2.02h-4.333V6z"/><path fill="#a37b63" d="M13.366 8.289v2.019h2.302v-2.02z"/><path fill="#ab826b" d="M15.668 8.289v2.019h2.166v-2.02z"/><path fill="#aba26b" d="M17.835 8.289v2.019h4.198v-2.02z"/><path fill="#ab826b" d="M22.032 8.289v2.019h2.302v-2.02z"/><path fill="#bf967e" d="M24.335 8.289v2.019h2.03v2.288h2.303v-2.288h-2.302v-2.02z"/><path fill="#958c55" d="M9.168 10.308v2.288h2.167v-2.288z"/><path fill="#956c55" d="M11.335 10.308v2.288h2.03v-2.288z"/><path fill="#c33e1f" d="M13.366 10.308v2.288h2.302v-2.288z"/><path fill="#e38c3f" d="M15.668 10.308v2.288h2.166v2.02h2.167v2.153h4.333v-2.153h-4.333v-2.02h-2.167v-2.288z"/><path fill="#e4d25c" d="M17.835 10.308v2.288h2.167v2.02h4.333v-2.02h-2.302v-2.288z"/><path fill="#e38c3f" d="M22.032 10.308v2.288h2.302v-2.288z"/><path fill="#cc4628" d="M24.335 10.308v2.288h2.03v2.02h2.303v-2.02h-2.302v-2.288z"/><path fill="#bfb67e" d="M28.668 10.308v2.288h2.031v-2.288z"/><path fill="#515151" d="M7.001 12.596v8.616h2.167v6.326h2.167v4.308h2.031v-4.308h-2.031v-6.326H9.168v-8.616z"/><path fill="#dc8638" d="M11.335 12.596v2.02h2.03v-2.02z"/><path fill="#e2cf5a" d="M13.366 12.596v2.02h2.302v2.153h2.166v-4.173z"/><path fill="#ea9346" d="M24.335 12.596v2.02h2.03v-2.02z"/><path fill="#e7e7e7" d="M9.168 14.615v2.154h2.167v2.154h4.333V16.77h-4.333v-2.154z"/><path fill="#c54021" d="M17.835 14.615v2.154h2.167v-2.154z"/><path fill="#a9a9a9" d="M28.668 14.615v2.154h2.031v-2.154z"/><path fill="#d8d8d8" d="M9.168 16.77v4.442h2.167v6.326h2.03v2.289h2.303v2.02h4.333V23.23h-2.166v-2.02h-2.167v2.02h-2.302v-4.308h-2.031V16.77z"/><path fill="#ead762" d="M24.335 16.77v2.153h2.03V16.77z"/><path fill="#cb4627" d="M26.366 16.77v2.153h2.302V16.77z"/><path fill="#727272" d="M28.668 16.77v4.442h-2.302v6.327h2.302v-6.327h2.031v-4.443z"/><path fill="#fff" d="M13.366 18.923v4.308h2.302v-4.308z"/><path fill="#d85334" d="M15.668 18.923v2.289h2.166v-2.289z"/><path fill="#cacaca" d="M17.835 18.923v2.289h6.5v-2.289z"/><path fill="#e99245" d="M24.335 18.923v2.289h2.03v-2.289z"/><path fill="#969696" d="M26.366 18.923v2.289h2.302v-2.289z"/><path fill="#a8a8a8" d="M17.835 21.212v2.019h2.167v6.596h2.03v-6.596h2.303v-2.02z"/><path fill="#cb4627" d="M24.335 21.212v2.019h2.03v-2.02z"/><path fill="#fff" d="M15.668 23.23v4.308h2.166v-4.307z"/><path fill="#969696" d="M22.032 23.23v6.597h-2.031v2.02h6.365v-4.309h-2.032V25.52h2.032v-2.288z"/><path fill="#cb4627" d="M24.335 25.52v2.019h2.03v-2.02z"/><path fill="#969696" d="M13.366 29.827v2.02h2.302v-2.02z"/><g opacity=".7"><mask id="e" width="20" height="20" x="16.001" y="16" fill="#000" maskUnits="userSpaceOnUse"><path fill="#fff" d="M16.001 16h20v20h-20z"/><path fill-rule="evenodd" d="M19.972 18.147a.5.5 0 0 0-.707 0l-1.117 1.116a.5.5 0 0 0 0 .707l6.03 6.03-6.03 6.03a.5.5 0 0 0 0 .707l1.116 1.116a.5.5 0 0 0 .707 0l6.03-6.028 6.027 6.028a.5.5 0 0 0 .707 0l1.116-1.116a.5.5 0 0 0 0-.707L27.824 26l6.03-6.028a.5.5 0 0 0 0-.707l-1.117-1.116a.5.5 0 0 0-.707 0L26 24.178z" clip-rule="evenodd"/></mask><path fill="url(#d)" fill-rule="evenodd" d="M19.972 18.147a.5.5 0 0 0-.707 0l-1.117 1.116a.5.5 0 0 0 0 .707l6.03 6.03-6.03 6.03a.5.5 0 0 0 0 .707l1.116 1.116a.5.5 0 0 0 .707 0l6.03-6.028 6.027 6.028a.5.5 0 0 0 .707 0l1.116-1.116a.5.5 0 0 0 0-.707L27.824 26l6.03-6.028a.5.5 0 0 0 0-.707l-1.117-1.116a.5.5 0 0 0-.707 0L26 24.178z" clip-rule="evenodd"/><path fill="#000" d="m19.265 18.147-1.061-1.06zm.707 0 1.06-1.06zm-1.824 1.116-1.06-1.06zm0 .707-1.06 1.061zm6.03 6.03 1.06 1.062 1.06-1.06-1.06-1.062zm-6.03 6.03-1.061-1.061zm0 .707-1.061 1.06zm1.116 1.116 1.06-1.06zm.707 0-1.06-1.06zm6.03-6.028 1.06-1.06-1.06-1.062-1.061 1.061zm6.027 6.028-1.061 1.06zm.707 0-1.061-1.06zm1.116-1.116 1.06 1.06zm0-.707-1.06 1.06zM27.824 26l-1.06-1.06L25.703 26l1.06 1.06zm6.03-6.028-1.061-1.06zm0-.707 1.06-1.06zm-1.117-1.116 1.06-1.061zm-.707 0-1.06-1.061zM26 24.178l-1.06 1.06 1.06 1.06 1.061-1.06zm-5.675-4.97a1 1 0 0 1-1.414 0l2.121-2.122a2 2 0 0 0-2.828 0zm-1.116 1.116 1.116-1.117-2.121-2.12-1.117 1.116zm0-1.414a1 1 0 0 1 0 1.414l-2.122-2.121a2 2 0 0 0 0 2.828zm6.029 6.03-6.029-6.03-2.122 2.121 6.03 6.03zm-6.03 8.15 6.03-6.028-2.121-2.122-6.03 6.029zm0-1.414a1 1 0 0 1 0 1.415l-2.121-2.122a2 2 0 0 0 0 2.828zm1.117 1.116-1.117-1.116-2.121 2.122 1.116 1.116zm-1.415 0a1 1 0 0 1 1.415 0l-2.122 2.122a2 2 0 0 0 2.829 0zm6.03-6.028-6.03 6.028 2.122 2.122 6.03-6.029zm8.148 6.029-6.027-6.029-2.121 2.121 6.027 6.029zm-1.414 0a1 1 0 0 1 1.414 0l-2.121 2.12a2 2 0 0 0 2.828 0zm1.116-1.117-1.116 1.117 2.121 2.12 1.117-1.116zm0 1.414a1 1 0 0 1 0-1.414l2.122 2.121a2 2 0 0 0 0-2.828zm-6.027-6.028 6.027 6.028 2.122-2.12-6.027-6.03zm6.03-8.15-6.03 6.029 2.122 2.121 6.029-6.028zm0 1.415a1 1 0 0 1 0-1.415l2.121 2.122a2 2 0 0 0 0-2.829zm-1.117-1.117 1.117 1.117 2.121-2.122-1.117-1.116zm1.414 0a1 1 0 0 1-1.414 0l2.122-2.121a2 2 0 0 0-2.829 0zm-6.029 6.028 6.03-6.027-2.122-2.122-6.029 6.028zm-8.15-6.03 6.03 6.03 2.12-2.12-6.029-6.032z" mask="url(#e)"/></g></g></g><rect width="37.9" height="37.9" x="1.05" y="1.05" stroke="#fff" stroke-opacity=".15" stroke-width="2.1" rx="6.95"/><defs><linearGradient id="b" x1="20" x2="20" y1="0" y2="40" gradientUnits="userSpaceOnUse"><stop stop-color="#2c1b1b"/><stop offset="1" stop-color="#1f1414"/></linearGradient><linearGradient id="d" x1="26" x2="26" y1="18" y2="34" gradientUnits="userSpaceOnUse"><stop stop-color="red"/><stop offset="1" stop-color="#c00"/></linearGradient><clipPath id="a"><rect width="40" height="40" fill="#fff" rx="8"/></clipPath><filter id="c" width="37.5" height="37.5" x="2" y="2" color-interpolation-filters="sRGB" filterUnits="userSpaceOnUse"><feFlood flood-opacity="0" result="BackgroundImageFix"/><feColorMatrix in="SourceAlpha" result="hardAlpha" values="0 0 0 0 0 0 0 0 0 0 0 0 0 0 0 0 0 0 127 0"/><feOffset/><feGaussianBlur stdDeviation="2"/><feComposite in2="hardAlpha" operator="out"/><feColorMatrix values="0 0 0 0 0 0 0 0 0 0 0 0 0 0 0 0 0 0 0.25 0"/><feBlend in2="BackgroundImageFix" result="effect1_dropShadow_2_2938"/><feBlend in="SourceGraphic" in2="effect1_dropShadow_2_2938" result="shape"/></filter></defs></svg>