<svg xmlns="http://www.w3.org/2000/svg" width="40" height="40" fill="none" viewBox="0 0 40 40"><g clip-path="url(#a)"><rect width="40" height="40" fill="url(#b)" rx="8"/><g filter="url(#c)"><path fill="#4e84c4" d="M8.5 16.26v-3.467c.046-.003.09-.063.133-.078.748-.38 1.488-.778 2.245-1.136.227-.108.31-.214.305-.469-.017-.926-.007-1.853-.006-2.78 0-.286 0-.288.235-.407.977-.496 1.956-.988 2.932-1.485.274-.14.57-.235.81-.438h.217c.01.02.012.053.027.06 1.24.624 2.48 1.243 3.717 1.871.075.039.103.042.18 0 .415-.217.844-.41 1.258-.632.113-.061.17-.052.278.009.321.18.657.332.988.498.214.108.214.112.396.016.308-.163.613-.33.92-.491.218-.115.24-.115.441-.012l3.65 1.86c1.346.683 2.696 1.361 4.04 2.051.084.043.156.036.235.046v10.262c-.08.01-.151.003-.235.046a372 372 0 0 1-4.763 2.407c-.266.13-.365.272-.362.577.014 2.124.004 4.249.013 6.373 0 .211-.06.324-.244.41-.355.164-.702.347-1.052.522q-.04.02-.077.044a1 1 0 0 1 .096.03c.378.195.754.394 1.136.584.068.034.064.048.016.085a1 1 0 0 1-.117.065c-.58.292-1.164.575-1.735.885-.26.141-.552.228-.777.434h-.072a2 2 0 0 0-.21-.146l-7.812-3.96-.069-.049q.031-.011.062-.026c.818-.415 1.637-.826 2.452-1.248a.44.44 0 0 1 .449 0c.372.199.75.384 1.127.575q.57-.285 1.138-.574c.03-.016.055-.07.079-.068.113.011.108-.058.108-.136 0-.452-.003-.904 0-1.355 0-.09-.037-.098-.112-.136-.623-.305-1.237-.628-1.856-.942q-2.992-1.52-5.986-3.035c-.102-.052-.155-.095-.153-.227.01-.756.002-1.513.006-2.27 0-.133-.032-.204-.168-.266-.336-.15-.654-.343-.987-.502-.144-.07-.233-.128-.227-.32.017-.548 0-1.098.012-1.647.003-.13-.058-.151-.144-.195-.768-.385-1.54-.77-2.303-1.166-.082-.044-.152-.035-.234-.046m16.202 11.473v-2.708c0-.084.018-.12-.102-.058-.744.383-1.5.747-2.251 1.118-.1.049-.244.079-.288.161-.055.106-.03.255-.035.386-.005.11 0 .22 0 .33l.002 2.122c0 .098-.032.126-.12.169-.375.177-.738.376-1.104.568l-.069.048.062.026c.83.416 1.66.827 2.486 1.25.07.036.09.04.162 0q.549-.289 1.111-.548c.108-.049.152-.1.15-.228-.007-.879-.004-1.757-.004-2.636"/><g opacity=".7"><mask id="e" width="20" height="20" x="16.001" y="16" fill="#000" maskUnits="userSpaceOnUse"><path fill="#fff" d="M16.001 16h20v20h-20z"/><path fill-rule="evenodd" d="M19.972 18.147a.5.5 0 0 0-.707 0l-1.117 1.116a.5.5 0 0 0 0 .707l6.03 6.03-6.03 6.03a.5.5 0 0 0 0 .707l1.116 1.116a.5.5 0 0 0 .707 0l6.03-6.028 6.027 6.028a.5.5 0 0 0 .707 0l1.116-1.116a.5.5 0 0 0 0-.707L27.824 26l6.03-6.028a.5.5 0 0 0 0-.707l-1.117-1.116a.5.5 0 0 0-.707 0L26 24.178z" clip-rule="evenodd"/></mask><path fill="url(#d)" fill-rule="evenodd" d="M19.972 18.147a.5.5 0 0 0-.707 0l-1.117 1.116a.5.5 0 0 0 0 .707l6.03 6.03-6.03 6.03a.5.5 0 0 0 0 .707l1.116 1.116a.5.5 0 0 0 .707 0l6.03-6.028 6.027 6.028a.5.5 0 0 0 .707 0l1.116-1.116a.5.5 0 0 0 0-.707L27.824 26l6.03-6.028a.5.5 0 0 0 0-.707l-1.117-1.116a.5.5 0 0 0-.707 0L26 24.178z" clip-rule="evenodd"/><path fill="#000" d="m19.265 18.147-1.061-1.06zm.707 0 1.06-1.06zm-1.824 1.116-1.06-1.06zm0 .707-1.06 1.061zm6.03 6.03 1.06 1.062 1.06-1.06-1.06-1.062zm-6.03 6.03-1.061-1.061zm0 .707-1.061 1.06zm1.116 1.116 1.06-1.06zm.707 0-1.06-1.06zm6.03-6.028 1.06-1.06-1.06-1.062-1.061 1.06zm6.027 6.028-1.061 1.06zm.707 0-1.061-1.06zm1.116-1.116 1.06 1.06zm0-.707-1.06 1.06zM27.824 26l-1.06-1.06L25.703 26l1.06 1.06zm6.03-6.028-1.061-1.06zm0-.707 1.06-1.06zm-1.117-1.116 1.06-1.061zm-.707 0-1.06-1.061zM26 24.178l-1.06 1.06 1.06 1.06 1.061-1.06zm-5.675-4.97a1 1 0 0 1-1.414 0l2.121-2.122a2 2 0 0 0-2.828 0zm-1.116 1.116 1.116-1.117-2.121-2.12-1.117 1.116zm0-1.414a1 1 0 0 1 0 1.414l-2.122-2.121a2 2 0 0 0 0 2.828zm6.029 6.03-6.029-6.03-2.122 2.121 6.03 6.03zm-6.03 8.15 6.03-6.028-2.121-2.122-6.03 6.029zm0-1.414a1 1 0 0 1 0 1.414l-2.121-2.121a2 2 0 0 0 0 2.828zm1.117 1.116-1.117-1.116-2.121 2.122 1.116 1.116zm-1.415 0a1 1 0 0 1 1.415 0l-2.122 2.122a2 2 0 0 0 2.829 0zm6.03-6.028-6.03 6.028 2.122 2.122 6.03-6.029zm8.148 6.029-6.027-6.029-2.121 2.121 6.027 6.029zm-1.414 0a1 1 0 0 1 1.414 0l-2.121 2.12a2 2 0 0 0 2.828 0zm1.116-1.117-1.116 1.117 2.121 2.12 1.117-1.116zm0 1.414a1 1 0 0 1 0-1.414l2.122 2.121a2 2 0 0 0 0-2.828zm-6.027-6.028 6.027 6.028 2.122-2.12-6.027-6.03zm6.03-8.15-6.03 6.029 2.122 2.121 6.029-6.028zm0 1.415a1 1 0 0 1 0-1.415l2.121 2.122a2 2 0 0 0 0-2.829zm-1.117-1.117 1.117 1.117 2.121-2.122-1.117-1.116zm1.414 0a1 1 0 0 1-1.414 0l2.122-2.121a2 2 0 0 0-2.829 0zm-6.029 6.028 6.03-6.027-2.122-2.122-6.029 6.028zm-8.15-6.03 6.03 6.03 2.12-2.121-6.029-6.03z" mask="url(#e)"/></g></g></g><rect width="37.9" height="37.9" x="1.05" y="1.05" stroke="#fff" stroke-opacity=".15" stroke-width="2.1" rx="6.95"/><defs><linearGradient id="b" x1="20" x2="20" y1="0" y2="40" gradientUnits="userSpaceOnUse"><stop stop-color="#2c1b1b"/><stop offset="1" stop-color="#1f1414"/></linearGradient><linearGradient id="d" x1="26" x2="26" y1="18" y2="34" gradientUnits="userSpaceOnUse"><stop stop-color="red"/><stop offset="1" stop-color="#c00"/></linearGradient><clipPath id="a"><rect width="40" height="40" fill="#fff" rx="8"/></clipPath><filter id="c" width="37.5" height="37.5" x="2" y="2" color-interpolation-filters="sRGB" filterUnits="userSpaceOnUse"><feFlood flood-opacity="0" result="BackgroundImageFix"/><feColorMatrix in="SourceAlpha" result="hardAlpha" values="0 0 0 0 0 0 0 0 0 0 0 0 0 0 0 0 0 0 127 0"/><feOffset/><feGaussianBlur stdDeviation="2"/><feComposite in2="hardAlpha" operator="out"/><feColorMatrix values="0 0 0 0 0 0 0 0 0 0 0 0 0 0 0 0 0 0 0.25 0"/><feBlend in2="BackgroundImageFix" result="effect1_dropShadow_2_2889"/><feBlend in="SourceGraphic" in2="effect1_dropShadow_2_2889" result="shape"/></filter></defs></svg>