<svg xmlns="http://www.w3.org/2000/svg" width="40" height="40" fill="none" viewBox="0 0 40 40"><g clip-path="url(#a)"><rect width="40" height="40" fill="url(#b)" rx="8"/><g filter="url(#c)"><path stroke="url(#d)" stroke-linejoin="round" stroke-width=".6" d="m26.48 9.666-5.523 3.13 5.53 3.125 5.523-3.13z"/><path stroke="url(#e)" stroke-linejoin="round" stroke-width=".6" d="m19.99 6-5.526 3.13 5.53 3.122 5.526-3.127z"/><path stroke="url(#f)" stroke-linejoin="round" stroke-width=".6" d="M13.505 9.674 7.98 12.802l5.53 3.125 5.523-3.128z"/><path stroke="url(#g)" stroke-linejoin="round" stroke-width=".6" d="m19.996 13.34-5.526 3.13 5.529 3.122 5.526-3.127z"/><path stroke="url(#h)" stroke-linejoin="round" stroke-width=".6" d="m7.5 13.617.003 6.256 5.53 3.122-.003-6.253z"/><path stroke="url(#i)" stroke-linejoin="round" stroke-width=".6" d="m13.99 17.286.003 6.252 5.53 3.125-.003-6.252z"/><path stroke="url(#j)" stroke-linejoin="round" stroke-width=".6" d="m7.503 20.957.003 6.253 5.53 3.122-.004-6.253z"/><path stroke="url(#k)" stroke-linejoin="round" stroke-width=".6" d="m13.994 24.626.003 6.252L19.526 34l-.003-6.253z"/><path stroke="url(#l)" stroke-linejoin="round" stroke-width=".6" d="m20.487 34 5.526-3.128-.003-6.252-5.526 3.127z"/><path stroke="url(#m)" stroke-linejoin="round" stroke-width=".6" d="m26.974 30.326 5.526-3.128-.006-6.252-5.523 3.127z"/><path stroke="url(#n)" stroke-linejoin="round" stroke-width=".6" d="m26.968 22.986 5.526-3.128-.003-6.252-5.526 3.128z"/><path stroke="url(#o)" stroke-linejoin="round" stroke-width=".6" d="m20.481 20.408.003 6.252 5.523-3.127-.003-6.253z"/><g opacity=".7"><mask id="q" width="20" height="20" x="16.001" y="16" fill="#000" maskUnits="userSpaceOnUse"><path fill="#fff" d="M16.001 16h20v20h-20z"/><path fill-rule="evenodd" d="M19.972 18.147a.5.5 0 0 0-.707 0l-1.117 1.116a.5.5 0 0 0 0 .707l6.03 6.031-6.03 6.029a.5.5 0 0 0 0 .707l1.116 1.116a.5.5 0 0 0 .707 0l6.03-6.028 6.027 6.028a.5.5 0 0 0 .707 0l1.116-1.116a.5.5 0 0 0 0-.707L27.824 26l6.03-6.028a.5.5 0 0 0 0-.707l-1.117-1.116a.5.5 0 0 0-.707 0L26 24.178z" clip-rule="evenodd"/></mask><path fill="url(#p)" fill-rule="evenodd" d="M19.972 18.147a.5.5 0 0 0-.707 0l-1.117 1.116a.5.5 0 0 0 0 .707l6.03 6.031-6.03 6.029a.5.5 0 0 0 0 .707l1.116 1.116a.5.5 0 0 0 .707 0l6.03-6.028 6.027 6.028a.5.5 0 0 0 .707 0l1.116-1.116a.5.5 0 0 0 0-.707L27.824 26l6.03-6.028a.5.5 0 0 0 0-.707l-1.117-1.116a.5.5 0 0 0-.707 0L26 24.178z" clip-rule="evenodd"/><path fill="#000" d="m19.265 18.147-1.061-1.06zm.707 0 1.06-1.06zm-1.824 1.116-1.06-1.06zm0 .707-1.06 1.061zm6.03 6.031 1.06 1.06 1.06-1.06-1.06-1.06zm-6.03 6.029-1.061-1.061zm0 .707-1.061 1.06zm1.116 1.116 1.06-1.06zm.707 0-1.06-1.06zm6.03-6.028 1.06-1.06-1.06-1.062-1.061 1.061zm6.027 6.028-1.061 1.061zm.707 0-1.061-1.06zm1.116-1.116 1.06 1.06zm0-.707-1.06 1.06zM27.824 26l-1.06-1.06L25.703 26l1.06 1.06zm6.03-6.028-1.061-1.06zm0-.707 1.06-1.06zm-1.117-1.116 1.06-1.061zm-.707 0-1.06-1.061zM26 24.178l-1.06 1.06L26 26.3l1.061-1.06zm-5.675-4.97a1 1 0 0 1-1.414 0l2.121-2.122a2 2 0 0 0-2.828 0zm-1.116 1.116 1.116-1.117-2.121-2.12-1.117 1.116zm0-1.414a1 1 0 0 1 0 1.414l-2.122-2.121a2 2 0 0 0 0 2.828zm6.029 6.03-6.029-6.03-2.122 2.121 6.03 6.03zm-6.03 8.15 6.03-6.028-2.121-2.122-6.03 6.029zm0-1.414a1 1 0 0 1 0 1.415l-2.121-2.122a2 2 0 0 0 0 2.828zm1.117 1.116-1.117-1.116-2.121 2.122 1.116 1.116zm-1.415 0a1 1 0 0 1 1.415 0l-2.122 2.122a2 2 0 0 0 2.829 0zm6.03-6.028-6.03 6.028 2.122 2.122 6.03-6.029zm8.148 6.029-6.027-6.029-2.121 2.121 6.027 6.029zm-1.414 0a1 1 0 0 1 1.414 0l-2.121 2.121a2 2 0 0 0 2.828 0zm1.116-1.117-1.116 1.117 2.121 2.121 1.117-1.117zm0 1.414a1 1 0 0 1 0-1.414l2.122 2.121a2 2 0 0 0 0-2.828zm-6.027-6.028 6.027 6.028 2.122-2.12-6.027-6.03zm6.03-8.15-6.03 6.029 2.122 2.121 6.029-6.028zm0 1.415a1 1 0 0 1 0-1.415l2.121 2.122a2 2 0 0 0 0-2.829zm-1.117-1.117 1.117 1.117 2.121-2.122-1.117-1.116zm1.414 0a1 1 0 0 1-1.414 0l2.122-2.121a2 2 0 0 0-2.829 0zm-6.029 6.028 6.03-6.027-2.122-2.122-6.029 6.028zm-8.15-6.03 6.03 6.03 2.12-2.12-6.029-6.032z" mask="url(#q)"/></g></g></g><rect width="37.9" height="37.9" x="1.05" y="1.05" stroke="#fff" stroke-opacity=".15" stroke-width="2.1" rx="6.95"/><defs><linearGradient id="b" x1="20" x2="20" y1="0" y2="40" gradientUnits="userSpaceOnUse"><stop stop-color="#2c1b1b"/><stop offset="1" stop-color="#1f1414"/></linearGradient><linearGradient id="d" x1="5.424" x2="34.033" y1="5.7" y2="34.902" gradientUnits="userSpaceOnUse"><stop offset=".15" stop-color="#25b8ff"/><stop offset=".85" stop-color="#fa02ff"/></linearGradient><linearGradient id="e" x1="5.424" x2="34.033" y1="5.7" y2="34.902" gradientUnits="userSpaceOnUse"><stop offset=".15" stop-color="#25b8ff"/><stop offset=".85" stop-color="#fa02ff"/></linearGradient><linearGradient id="f" x1="5.423" x2="34.032" y1="5.7" y2="34.902" gradientUnits="userSpaceOnUse"><stop offset=".15" stop-color="#25b8ff"/><stop offset=".85" stop-color="#fa02ff"/></linearGradient><linearGradient id="g" x1="5.424" x2="34.033" y1="5.7" y2="34.902" gradientUnits="userSpaceOnUse"><stop offset=".15" stop-color="#25b8ff"/><stop offset=".85" stop-color="#fa02ff"/></linearGradient><linearGradient id="h" x1="5.424" x2="34.033" y1="5.7" y2="34.902" gradientUnits="userSpaceOnUse"><stop offset=".15" stop-color="#25b8ff"/><stop offset=".85" stop-color="#fa02ff"/></linearGradient><linearGradient id="i" x1="5.423" x2="34.032" y1="5.7" y2="34.902" gradientUnits="userSpaceOnUse"><stop offset=".15" stop-color="#25b8ff"/><stop offset=".85" stop-color="#fa02ff"/></linearGradient><linearGradient id="j" x1="5.423" x2="34.032" y1="5.7" y2="34.902" gradientUnits="userSpaceOnUse"><stop offset=".15" stop-color="#25b8ff"/><stop offset=".85" stop-color="#fa02ff"/></linearGradient><linearGradient id="k" x1="5.424" x2="34.033" y1="5.699" y2="34.902" gradientUnits="userSpaceOnUse"><stop offset=".15" stop-color="#25b8ff"/><stop offset=".85" stop-color="#fa02ff"/></linearGradient><linearGradient id="l" x1="5.424" x2="34.033" y1="5.699" y2="34.902" gradientUnits="userSpaceOnUse"><stop offset=".15" stop-color="#25b8ff"/><stop offset=".85" stop-color="#fa02ff"/></linearGradient><linearGradient id="m" x1="5.423" x2="34.032" y1="5.699" y2="34.902" gradientUnits="userSpaceOnUse"><stop offset=".15" stop-color="#25b8ff"/><stop offset=".85" stop-color="#fa02ff"/></linearGradient><linearGradient id="n" x1="5.423" x2="34.032" y1="5.7" y2="34.902" gradientUnits="userSpaceOnUse"><stop offset=".15" stop-color="#25b8ff"/><stop offset=".85" stop-color="#fa02ff"/></linearGradient><linearGradient id="o" x1="5.424" x2="34.033" y1="5.7" y2="34.902" gradientUnits="userSpaceOnUse"><stop offset=".15" stop-color="#25b8ff"/><stop offset=".85" stop-color="#fa02ff"/></linearGradient><linearGradient id="p" x1="26" x2="26" y1="18" y2="34" gradientUnits="userSpaceOnUse"><stop stop-color="red"/><stop offset="1" stop-color="#c00"/></linearGradient><clipPath id="a"><rect width="40" height="40" fill="#fff" rx="8"/></clipPath><filter id="c" width="37.5" height="37.8" x="2" y="1.7" color-interpolation-filters="sRGB" filterUnits="userSpaceOnUse"><feFlood flood-opacity="0" result="BackgroundImageFix"/><feColorMatrix in="SourceAlpha" result="hardAlpha" values="0 0 0 0 0 0 0 0 0 0 0 0 0 0 0 0 0 0 127 0"/><feOffset/><feGaussianBlur stdDeviation="2"/><feComposite in2="hardAlpha" operator="out"/><feColorMatrix values="0 0 0 0 0 0 0 0 0 0 0 0 0 0 0 0 0 0 0.25 0"/><feBlend in2="BackgroundImageFix" result="effect1_dropShadow_2_3042"/><feBlend in="SourceGraphic" in2="effect1_dropShadow_2_3042" result="shape"/></filter></defs></svg>