<svg xmlns="http://www.w3.org/2000/svg" width="40" height="40" fill="none" viewBox="0 0 40 40"><g clip-path="url(#a)"><rect width="40" height="40" fill="url(#b)" rx="8"/><g filter="url(#c)"><path fill="#9722ff" d="M13.786 9.876a.495.495 0 0 0 .494.494h.842v1.881h-.842a.495.495 0 1 0 0 .99h.842v1.442a.44.44 0 0 1-.439.438h-1.442v-.841a.495.495 0 1 0-.99 0v.841h-1.88v-.841a.495.495 0 1 0-.99 0v.841H7.94a.44.44 0 0 1-.439-.438V7.938A.44.44 0 0 1 7.94 7.5h6.744a.44.44 0 0 1 .439.438V9.38h-.842a.495.495 0 0 0-.494.496"/><path fill="#dc29dd" d="M22.395 9.876a.495.495 0 0 0 .495.494h.844v1.881h-.841a.495.495 0 1 0 0 .99h.841v1.442a.44.44 0 0 1-.438.438H16.55a.44.44 0 0 1-.438-.438V13.24h.84a.495.495 0 1 0 0-.99h-.84v-1.88h.84a.493.493 0 0 0 .472-.689.495.495 0 0 0-.471-.302h-.841V7.938a.437.437 0 0 1 .438-.438h6.745a.44.44 0 0 1 .438.438V9.38h-.841a.495.495 0 0 0-.497.496"/><path fill="#27a2fd" d="M32.344 7.938v6.745a.44.44 0 0 1-.439.438h-1.442v-.841a.495.495 0 0 0-.99 0v.841h-1.88v-.841a.495.495 0 1 0-.99 0v.841h-1.442a.44.44 0 0 1-.438-.438V13.24h.841a.495.495 0 1 0 0-.99h-.841v-1.88h.841a.495.495 0 0 0 0-.99h-.841V7.937a.44.44 0 0 1 .438-.438h6.744a.44.44 0 0 1 .439.438"/><path fill="#dc29dd" d="M15.122 16.55v6.744a.437.437 0 0 1-.439.438h-1.442v-.841a.495.495 0 1 0-.99 0v.842h-1.88v-.841a.495.495 0 1 0-.99 0v.841H7.94a.44.44 0 0 1-.439-.438v-6.746a.44.44 0 0 1 .439-.438h1.44v.841a.495.495 0 0 0 .99 0v-.841h1.88v.841a.495.495 0 0 0 .99 0v-.841h1.442a.437.437 0 0 1 .439.438"/><path fill="#27a2fd" d="M22.395 18.486a.495.495 0 0 0 .495.495h.844v1.88h-.841a.495.495 0 1 0 0 .99h.841v1.443a.44.44 0 0 1-.438.438h-1.444v-.841a.495.495 0 1 0-.99 0v.842h-1.88v-.841a.495.495 0 0 0-.99 0v.841H16.55a.437.437 0 0 1-.438-.438v-6.746a.44.44 0 0 1 .438-.438h6.745a.44.44 0 0 1 .438.438v1.443h-.841a.494.494 0 0 0-.497.494"/><path fill="#34f" d="M32.344 16.55v6.744a.44.44 0 0 1-.439.438h-6.744a.44.44 0 0 1-.438-.438v-1.442h.841a.495.495 0 0 0 0-.99h-.841v-1.88h.841a.495.495 0 1 0 0-.99h-.841v-1.443a.44.44 0 0 1 .438-.438h1.441v.841a.495.495 0 1 0 .99 0v-.841h1.88v.841a.495.495 0 0 0 .99 0v-.841h1.442a.44.44 0 0 1 .44.438"/><path fill="#9722ff" d="M13.786 27.098a.495.495 0 0 0 .494.495h.842v1.88h-.842a.495.495 0 0 0 0 .99h.842v1.442a.44.44 0 0 1-.439.438H7.94a.44.44 0 0 1-.439-.438v-6.744a.44.44 0 0 1 .439-.439h1.44v.841a.495.495 0 1 0 .99 0v-.84h1.88v.84a.495.495 0 0 0 .99 0v-.84h1.442a.44.44 0 0 1 .439.438v1.44h-.842a.495.495 0 0 0-.494.497"/><path fill="#34f" d="M23.734 25.16v6.745a.44.44 0 0 1-.438.438H16.55a.44.44 0 0 1-.438-.438v-1.442h.84a.495.495 0 1 0 0-.99h-.84v-1.88h.84a.495.495 0 1 0 0-.99h-.84V25.16a.44.44 0 0 1 .438-.439h1.442v.841a.496.496 0 1 0 .99 0v-.84h1.88v.84a.496.496 0 0 0 .99 0v-.84h1.443a.437.437 0 0 1 .439.438"/><path fill="#9722ff" d="m29.802 25.032-4.77 4.769a.44.44 0 0 0 0 .62l4.77 4.769a.44.44 0 0 0 .62 0l4.769-4.77a.44.44 0 0 0 0-.619l-4.77-4.77a.44.44 0 0 0-.62 0"/><g opacity=".7"><mask id="e" width="20" height="20" x="16.001" y="16" fill="#000" maskUnits="userSpaceOnUse"><path fill="#fff" d="M16.001 16h20v20h-20z"/><path fill-rule="evenodd" d="M19.972 18.147a.5.5 0 0 0-.707 0l-1.117 1.116a.5.5 0 0 0 0 .707l6.03 6.03-6.03 6.03a.5.5 0 0 0 0 .707l1.116 1.116a.5.5 0 0 0 .707 0l6.03-6.028 6.027 6.028a.5.5 0 0 0 .707 0l1.116-1.116a.5.5 0 0 0 0-.707L27.824 26l6.03-6.028a.5.5 0 0 0 0-.707l-1.117-1.116a.5.5 0 0 0-.707 0L26 24.178z" clip-rule="evenodd"/></mask><path fill="url(#d)" fill-rule="evenodd" d="M19.972 18.147a.5.5 0 0 0-.707 0l-1.117 1.116a.5.5 0 0 0 0 .707l6.03 6.03-6.03 6.03a.5.5 0 0 0 0 .707l1.116 1.116a.5.5 0 0 0 .707 0l6.03-6.028 6.027 6.028a.5.5 0 0 0 .707 0l1.116-1.116a.5.5 0 0 0 0-.707L27.824 26l6.03-6.028a.5.5 0 0 0 0-.707l-1.117-1.116a.5.5 0 0 0-.707 0L26 24.178z" clip-rule="evenodd"/><path fill="#000" d="m19.265 18.147-1.061-1.06zm.707 0 1.06-1.06zm-1.824 1.116-1.06-1.06zm0 .707-1.06 1.061zm6.03 6.03 1.06 1.062 1.06-1.06-1.06-1.062zm-6.03 6.03-1.061-1.061zm0 .707-1.061 1.06zm1.116 1.116 1.06-1.06zm.707 0-1.06-1.06zm6.03-6.028 1.06-1.06-1.06-1.062-1.061 1.06zm6.027 6.028-1.061 1.06zm.707 0-1.061-1.06zm1.116-1.116 1.06 1.06zm0-.707-1.06 1.06zM27.824 26l-1.06-1.06L25.703 26l1.06 1.06zm6.03-6.028-1.061-1.06zm0-.707 1.06-1.06zm-1.117-1.116 1.06-1.061zm-.707 0-1.06-1.061zM26 24.178l-1.06 1.06 1.06 1.06 1.061-1.06zm-5.675-4.97a1 1 0 0 1-1.414 0l2.121-2.122a2 2 0 0 0-2.828 0zm-1.116 1.116 1.116-1.117-2.121-2.12-1.117 1.116zm0-1.414a1 1 0 0 1 0 1.414l-2.122-2.121a2 2 0 0 0 0 2.828zm6.029 6.03-6.029-6.03-2.122 2.121 6.03 6.03zm-6.03 8.15 6.03-6.028-2.121-2.122-6.03 6.029zm0-1.414a1 1 0 0 1 0 1.414l-2.121-2.121a2 2 0 0 0 0 2.828zm1.117 1.116-1.117-1.116-2.121 2.122 1.116 1.116zm-1.415 0a1 1 0 0 1 1.415 0l-2.122 2.122a2 2 0 0 0 2.829 0zm6.03-6.028-6.03 6.028 2.122 2.122 6.03-6.029zm8.148 6.029-6.027-6.029-2.121 2.121 6.027 6.029zm-1.414 0a1 1 0 0 1 1.414 0l-2.121 2.12a2 2 0 0 0 2.828 0zm1.116-1.117-1.116 1.117 2.121 2.12 1.117-1.116zm0 1.414a1 1 0 0 1 0-1.414l2.122 2.121a2 2 0 0 0 0-2.828zm-6.027-6.028 6.027 6.028 2.122-2.12-6.027-6.03zm6.03-8.15-6.03 6.029 2.122 2.121 6.029-6.028zm0 1.415a1 1 0 0 1 0-1.415l2.121 2.122a2 2 0 0 0 0-2.829zm-1.117-1.117 1.117 1.117 2.121-2.122-1.117-1.116zm1.414 0a1 1 0 0 1-1.414 0l2.122-2.121a2 2 0 0 0-2.829 0zm-6.029 6.028 6.03-6.027-2.122-2.122-6.029 6.028zm-8.15-6.03 6.03 6.03 2.12-2.121-6.029-6.03z" mask="url(#e)"/></g></g></g><rect width="37.9" height="37.9" x="1.05" y="1.05" stroke="#fff" stroke-opacity=".15" stroke-width="2.1" rx="6.95"/><defs><linearGradient id="b" x1="20" x2="20" y1="0" y2="40" gradientUnits="userSpaceOnUse"><stop stop-color="#2c1b1b"/><stop offset="1" stop-color="#1f1414"/></linearGradient><linearGradient id="d" x1="26" x2="26" y1="18" y2="34" gradientUnits="userSpaceOnUse"><stop stop-color="red"/><stop offset="1" stop-color="#c00"/></linearGradient><clipPath id="a"><rect width="40" height="40" fill="#fff" rx="8"/></clipPath><filter id="c" width="37.5" height="37.5" x="2" y="2" color-interpolation-filters="sRGB" filterUnits="userSpaceOnUse"><feFlood flood-opacity="0" result="BackgroundImageFix"/><feColorMatrix in="SourceAlpha" result="hardAlpha" values="0 0 0 0 0 0 0 0 0 0 0 0 0 0 0 0 0 0 127 0"/><feOffset/><feGaussianBlur stdDeviation="2"/><feComposite in2="hardAlpha" operator="out"/><feColorMatrix values="0 0 0 0 0 0 0 0 0 0 0 0 0 0 0 0 0 0 0.25 0"/><feBlend in2="BackgroundImageFix" result="effect1_dropShadow_2_2909"/><feBlend in="SourceGraphic" in2="effect1_dropShadow_2_2909" result="shape"/></filter></defs></svg>