<svg xmlns="http://www.w3.org/2000/svg" width="40" height="40" fill="none" viewBox="0 0 40 40"><g clip-path="url(#a)"><rect width="40" height="40" fill="url(#b)" rx="8"/><g filter="url(#c)"><g fill="#f7cf0d" clip-path="url(#d)"><path d="M32.6 6H7.4C6.63 6 6 6.63 6 7.4v25.2c0 .77.63 1.4 1.4 1.4h2.254c-.238-6.398-.014-7.35.434-7.98.546-.784.77-.882 1.596-1.54.7-.56.448-1.47-.056-2.128-.308-.406-.742-.882-1.078-1.344-.21-.308.308-2.114.504-2.772s.532-2.8 3.472-3.374c1.106-.224 4.144-.378 6.23-.252-.014-.084-.042-.182-.056-.28-.042-.168-.07-.35-.112-.546-.042-.182-.084-.378-.126-.574s-.098-.392-.14-.602c-.056-.21-.098-.406-.168-.616a9 9 0 0 0-.42-1.218 5 5 0 0 0-.266-.546c-.098-.154-.196-.294-.28-.35-.014-.014-.028-.028-.042-.028h-.014.028s.014 0 0 0l-.042-.014h-.028l-.056-.014h-.07a4 4 0 0 0-.588 0 8 8 0 0 0-1.26.21c-.42.098-.826.224-1.218.336-.168.056-.322.112-.476.154.014.126.028.238.028.364 0 1.82-1.47 3.29-3.29 3.29a3.274 3.274 0 0 1-3.276-3.29c0-1.82 1.47-3.29 3.29-3.29 1.218 0 2.282.658 2.856 1.652.14-.056.294-.112.448-.168.392-.154.826-.308 1.274-.448.462-.14.938-.28 1.47-.35.266-.042.546-.056.854-.042h.112c.042 0 .084.014.112.014h.098l.042.014h.014l.042.014s.028 0 .042.014l.056.014c.084.028.126.042.182.07s.098.042.154.07c.098.056.182.112.266.168q.231.189.378.378c.112.126.196.252.28.378.168.252.294.49.406.728.224.476.406.952.546 1.4l.21.672c.07.224.112.434.168.644.028.098.056.21.07.308.028.098.042.196.07.294.042.196.084.392.126.574.056.28.098.546.14.784 3.136.308 5.53.714 6.608 1.792 1.582 1.54 2.8 8.54 2.002 17.43h1.4c.77 0 1.4-.63 1.4-1.4V7.4c0-.77-.63-1.4-1.4-1.4"/><path d="M18.796 25.712c-.182.504-.336 6.398 1.4 6.398s1.75-6.048 1.694-6.398c-.056-.336-2.912-.49-3.094 0M16.5 20c-1.19-.168-1.904 5.628-.238 5.964 1.568.308 1.414-5.796.238-5.964m7.812 0c-1.19-.168-1.904 5.628-.238 5.964 1.568.308 1.428-5.796.238-5.964"/></g><g opacity=".7"><mask id="f" width="20" height="20" x="16.001" y="16" fill="#000" maskUnits="userSpaceOnUse"><path fill="#fff" d="M16.001 16h20v20h-20z"/><path fill-rule="evenodd" d="M19.972 18.147a.5.5 0 0 0-.707 0l-1.117 1.116a.5.5 0 0 0 0 .707l6.03 6.031-6.03 6.029a.5.5 0 0 0 0 .707l1.116 1.116a.5.5 0 0 0 .707 0l6.03-6.028 6.027 6.028a.5.5 0 0 0 .707 0l1.116-1.116a.5.5 0 0 0 0-.707L27.824 26l6.03-6.028a.5.5 0 0 0 0-.707l-1.117-1.116a.5.5 0 0 0-.707 0L26 24.178z" clip-rule="evenodd"/></mask><path fill="url(#e)" fill-rule="evenodd" d="M19.972 18.147a.5.5 0 0 0-.707 0l-1.117 1.116a.5.5 0 0 0 0 .707l6.03 6.031-6.03 6.029a.5.5 0 0 0 0 .707l1.116 1.116a.5.5 0 0 0 .707 0l6.03-6.028 6.027 6.028a.5.5 0 0 0 .707 0l1.116-1.116a.5.5 0 0 0 0-.707L27.824 26l6.03-6.028a.5.5 0 0 0 0-.707l-1.117-1.116a.5.5 0 0 0-.707 0L26 24.178z" clip-rule="evenodd"/><path fill="#000" d="m19.265 18.147-1.061-1.06zm.707 0 1.06-1.06zm-1.824 1.116-1.06-1.06zm0 .707-1.06 1.061zm6.03 6.031 1.06 1.06 1.06-1.06-1.06-1.06zm-6.03 6.029-1.061-1.061zm0 .707-1.061 1.06zm1.116 1.116 1.06-1.06zm.707 0-1.06-1.06zm6.03-6.028 1.06-1.06-1.06-1.062-1.061 1.061zm6.027 6.028-1.061 1.061zm.707 0-1.061-1.06zm1.116-1.116 1.06 1.06zm0-.707-1.06 1.06zM27.824 26l-1.06-1.06L25.703 26l1.06 1.06zm6.03-6.028-1.061-1.06zm0-.707 1.06-1.06zm-1.117-1.116 1.06-1.061zm-.707 0-1.06-1.061zM26 24.178l-1.06 1.06L26 26.3l1.061-1.06zm-5.675-4.97a1 1 0 0 1-1.414 0l2.121-2.122a2 2 0 0 0-2.828 0zm-1.116 1.116 1.116-1.117-2.121-2.12-1.117 1.116zm0-1.414a1 1 0 0 1 0 1.414l-2.122-2.121a2 2 0 0 0 0 2.828zm6.029 6.03-6.029-6.03-2.122 2.121 6.03 6.03zm-6.03 8.15 6.03-6.028-2.121-2.122-6.03 6.029zm0-1.414a1 1 0 0 1 0 1.415l-2.121-2.122a2 2 0 0 0 0 2.828zm1.117 1.116-1.117-1.116-2.121 2.122 1.116 1.116zm-1.415 0a1 1 0 0 1 1.415 0l-2.122 2.122a2 2 0 0 0 2.829 0zm6.03-6.028-6.03 6.028 2.122 2.122 6.03-6.029zm8.148 6.029-6.027-6.029-2.121 2.121 6.027 6.029zm-1.414 0a1 1 0 0 1 1.414 0l-2.121 2.121a2 2 0 0 0 2.828 0zm1.116-1.117-1.116 1.117 2.121 2.121 1.117-1.117zm0 1.414a1 1 0 0 1 0-1.414l2.122 2.121a2 2 0 0 0 0-2.828zm-6.027-6.028 6.027 6.028 2.122-2.12-6.027-6.03zm6.03-8.15-6.03 6.029 2.122 2.121 6.029-6.028zm0 1.415a1 1 0 0 1 0-1.415l2.121 2.122a2 2 0 0 0 0-2.829zm-1.117-1.117 1.117 1.117 2.121-2.122-1.117-1.116zm1.414 0a1 1 0 0 1-1.414 0l2.122-2.121a2 2 0 0 0-2.829 0zm-6.029 6.028 6.03-6.027-2.122-2.122-6.029 6.028zm-8.15-6.03 6.03 6.03 2.12-2.12-6.029-6.032z" mask="url(#f)"/></g></g></g><rect width="37.9" height="37.9" x="1.05" y="1.05" stroke="#fff" stroke-opacity=".15" stroke-width="2.1" rx="6.95"/><defs><linearGradient id="b" x1="20" x2="20" y1="0" y2="40" gradientUnits="userSpaceOnUse"><stop stop-color="#2c1b1b"/><stop offset="1" stop-color="#1f1414"/></linearGradient><linearGradient id="e" x1="26" x2="26" y1="18" y2="34" gradientUnits="userSpaceOnUse"><stop stop-color="red"/><stop offset="1" stop-color="#c00"/></linearGradient><clipPath id="a"><rect width="40" height="40" fill="#fff" rx="8"/></clipPath><clipPath id="d"><path fill="#fff" d="M6 6h28v28H6z"/></clipPath><filter id="c" width="37.5" height="37.5" x="2" y="2" color-interpolation-filters="sRGB" filterUnits="userSpaceOnUse"><feFlood flood-opacity="0" result="BackgroundImageFix"/><feColorMatrix in="SourceAlpha" result="hardAlpha" values="0 0 0 0 0 0 0 0 0 0 0 0 0 0 0 0 0 0 127 0"/><feOffset/><feGaussianBlur stdDeviation="2"/><feComposite in2="hardAlpha" operator="out"/><feColorMatrix values="0 0 0 0 0 0 0 0 0 0 0 0 0 0 0 0 0 0 0.25 0"/><feBlend in2="BackgroundImageFix" result="effect1_dropShadow_2_3064"/><feBlend in="SourceGraphic" in2="effect1_dropShadow_2_3064" result="shape"/></filter></defs></svg>