<svg xmlns="http://www.w3.org/2000/svg" width="40" height="40" fill="none" viewBox="0 0 40 40"><g clip-path="url(#a)"><rect width="40" height="40" fill="url(#b)" rx="8"/><g filter="url(#c)"><path fill="#fff" d="M9.685 26.855c-.201.068-.394.146-.606.144a1.37 1.37 0 0 1-1.033-.498 21 21 0 0 1-.72-.89c-.574-.765-1.118-1.552-1.684-2.324-.252-.344-.534-.668-.789-1.012-.264-.357-.511-.727-.77-1.088-.027-.04-.083-.044-.083-.092q-.001-.265.006-.535c.004-.173.098-.32.215-.45a.4.4 0 0 0 .048-.064c.162-.284.297-.581.455-.867.732-1.32 1.458-2.644 2.211-3.952.172-.298.243-.696.614-.842.234-.093.488-.143.736-.196q1.278-.27 2.557-.53c.923-.186 1.848-.366 2.77-.554.084-.017.132-.105.217-.105q.205 0 .411.003a1.07 1.07 0 0 1 .846.432c.41.548.805 1.106 1.195 1.666.153.22.315.325.611.324 5.25-.013 10.499-.01 15.748-.01.438 0 .715.263.716.678.001.442-.263.695-.726.695h-7.323c-.129 0-.258-.004-.386.001-.347.014-.704.277-.762.557a.75.75 0 0 0 .774.923q2.505.004 5.01 0c.6 0 .913.517.7 1.022-.137.325-.436.401-.75.404-.935.008-1.871.003-2.807.003H22.24c-.427 0-.693.303-.735.72-.04.401.423.768.872.767 4.157-.008 8.314-.005 12.472-.005.404 0 .832-.075 1.101.341a.02.02 0 0 0 .024.006.017.017 0 0 1 .026.014c0 .169 0 .338-.01.52a.3.3 0 0 1-.12.22c-.2.151-.374.287-.664.284-2.55-.023-5.102-.012-7.652-.012-.482 0-.854.321-.863.732-.008.379.31.765.841.757 1.266-.02 2.533-.004 3.799-.008.605-.001.871.55.706.954-.13.32-.38.475-.832.475H16.01c-.09 0-.22-.023-.263.025-.243.28-.596.285-.905.349-1.698.35-3.402.667-5.103 1.003zm4.277-12.545c-.28-.13-.631.045-.813.294-.161.22-.289.466-.42.705-.526.951-1.036 1.91-1.576 2.852-.15.261-.35.521-.591.695-.202.145-.492.181-.75.235-1.27.263-2.541.514-3.812.773a.61.61 0 0 0-.507.483c-.065.303-.006.581.278.782.28.198.558.116.852.055 1.174-.244 2.35-.483 3.528-.706.44-.083.866.013 1.146.381.786 1.034 1.55 2.085 2.321 3.13.257.346.66.425 1 .194.302-.205.395-.689.166-1.005a244 244 0 0 0-2.118-2.88c-.26-.35-.472-.711-.344-1.161.057-.2.168-.386.269-.57.36-.657.733-1.31 1.09-1.969.26-.48.522-.96.747-1.457.115-.253-.022-.491-.221-.662a1 1 0 0 0-.245-.17"/><path fill="#fff" d="M31.588 18.675c.299-.38.527-.467.874-.349.3.102.512.462.453.764-.07.352-.443.651-.759.607a.7.7 0 0 1-.615-.687c.001-.105.026-.209.047-.335"/><g opacity=".7"><mask id="e" width="20" height="20" x="16.001" y="16" fill="#000" maskUnits="userSpaceOnUse"><path fill="#fff" d="M16.001 16h20v20h-20z"/><path fill-rule="evenodd" d="M19.972 18.147a.5.5 0 0 0-.707 0l-1.117 1.116a.5.5 0 0 0 0 .707l6.03 6.031-6.03 6.029a.5.5 0 0 0 0 .707l1.116 1.116a.5.5 0 0 0 .707 0l6.03-6.028 6.027 6.028a.5.5 0 0 0 .707 0l1.116-1.116a.5.5 0 0 0 0-.707L27.824 26l6.03-6.028a.5.5 0 0 0 0-.707l-1.117-1.116a.5.5 0 0 0-.707 0L26 24.178z" clip-rule="evenodd"/></mask><path fill="url(#d)" fill-rule="evenodd" d="M19.972 18.147a.5.5 0 0 0-.707 0l-1.117 1.116a.5.5 0 0 0 0 .707l6.03 6.031-6.03 6.029a.5.5 0 0 0 0 .707l1.116 1.116a.5.5 0 0 0 .707 0l6.03-6.028 6.027 6.028a.5.5 0 0 0 .707 0l1.116-1.116a.5.5 0 0 0 0-.707L27.824 26l6.03-6.028a.5.5 0 0 0 0-.707l-1.117-1.116a.5.5 0 0 0-.707 0L26 24.178z" clip-rule="evenodd"/><path fill="#000" d="m19.265 18.147-1.061-1.06zm.707 0 1.06-1.06zm-1.824 1.116-1.06-1.06zm0 .707-1.06 1.061zm6.03 6.031 1.06 1.06 1.06-1.06-1.06-1.06zm-6.03 6.029-1.061-1.061zm0 .707-1.061 1.06zm1.116 1.116 1.06-1.06zm.707 0-1.06-1.06zm6.03-6.028 1.06-1.06-1.06-1.062-1.061 1.061zm6.027 6.028-1.061 1.061zm.707 0-1.061-1.06zm1.116-1.116 1.06 1.06zm0-.707-1.06 1.06zM27.824 26l-1.06-1.06L25.703 26l1.06 1.06zm6.03-6.028-1.061-1.06zm0-.707 1.06-1.06zm-1.117-1.116 1.06-1.061zm-.707 0-1.06-1.061zM26 24.178l-1.06 1.06 1.06 1.06 1.061-1.06zm-5.675-4.97a1 1 0 0 1-1.414 0l2.121-2.122a2 2 0 0 0-2.828 0zm-1.116 1.116 1.116-1.117-2.121-2.12-1.117 1.116zm0-1.414a1 1 0 0 1 0 1.414l-2.122-2.121a2 2 0 0 0 0 2.828zm6.029 6.03-6.029-6.03-2.122 2.121 6.03 6.03zm-6.03 8.15 6.03-6.028-2.121-2.122-6.03 6.029zm0-1.414a1 1 0 0 1 0 1.415l-2.121-2.122a2 2 0 0 0 0 2.828zm1.117 1.116-1.117-1.116-2.121 2.122 1.116 1.116zm-1.415 0a1 1 0 0 1 1.415 0l-2.122 2.122a2 2 0 0 0 2.829 0zm6.03-6.028-6.03 6.028 2.122 2.122 6.03-6.029zm8.148 6.029-6.027-6.029-2.121 2.121 6.027 6.029zm-1.414 0a1 1 0 0 1 1.414 0l-2.121 2.121a2 2 0 0 0 2.828 0zm1.116-1.117-1.116 1.117 2.121 2.121 1.117-1.117zm0 1.414a1 1 0 0 1 0-1.414l2.122 2.121a2 2 0 0 0 0-2.828zm-6.027-6.028 6.027 6.028 2.122-2.12-6.027-6.03zm6.03-8.15-6.03 6.029 2.122 2.121 6.029-6.028zm0 1.415a1 1 0 0 1 0-1.415l2.121 2.122a2 2 0 0 0 0-2.829zm-1.117-1.117 1.117 1.117 2.121-2.122-1.117-1.116zm1.414 0a1 1 0 0 1-1.414 0l2.122-2.121a2 2 0 0 0-2.829 0zm-6.029 6.028 6.03-6.027-2.122-2.122-6.029 6.028zm-8.15-6.03 6.03 6.03 2.12-2.12-6.029-6.032z" mask="url(#e)"/></g></g></g><rect width="37.9" height="37.9" x="1.05" y="1.05" stroke="#fff" stroke-opacity=".15" stroke-width="2.1" rx="6.95"/><defs><linearGradient id="b" x1="20" x2="20" y1="0" y2="40" gradientUnits="userSpaceOnUse"><stop stop-color="#2c1b1b"/><stop offset="1" stop-color="#1f1414"/></linearGradient><linearGradient id="d" x1="26" x2="26" y1="18" y2="34" gradientUnits="userSpaceOnUse"><stop stop-color="red"/><stop offset="1" stop-color="#c00"/></linearGradient><clipPath id="a"><rect width="40" height="40" fill="#fff" rx="8"/></clipPath><filter id="c" width="40" height="37.5" x="0" y="2" color-interpolation-filters="sRGB" filterUnits="userSpaceOnUse"><feFlood flood-opacity="0" result="BackgroundImageFix"/><feColorMatrix in="SourceAlpha" result="hardAlpha" values="0 0 0 0 0 0 0 0 0 0 0 0 0 0 0 0 0 0 127 0"/><feOffset/><feGaussianBlur stdDeviation="2"/><feComposite in2="hardAlpha" operator="out"/><feColorMatrix values="0 0 0 0 0 0 0 0 0 0 0 0 0 0 0 0 0 0 0.25 0"/><feBlend in2="BackgroundImageFix" result="effect1_dropShadow_2_3017"/><feBlend in="SourceGraphic" in2="effect1_dropShadow_2_3017" result="shape"/></filter></defs></svg>