<svg xmlns="http://www.w3.org/2000/svg" width="40" height="40" fill="none" viewBox="0 0 40 40"><rect width="40" height="40" fill="url(#a)" rx="8"/><rect width="37.9" height="37.9" x="1.05" y="1.05" stroke="#fff" stroke-opacity=".15" stroke-width="2.1" rx="6.95"/><g filter="url(#b)"><path fill="url(#c)" fill-rule="evenodd" d="M10.675 6.11c-.264.202-.308.561-.308 2.483 0 1.408-.026 1.925-.1 1.971-.055.034-.807.178-1.67.318l-1.57.256-.021 2.095c-.017 1.613.002 2.114.082 2.178.07.056.585.006 1.589-.154.816-.13 1.53-.22 1.587-.2.083.03.1 1.455.083 6.904l-.021 6.866-1.65.041-1.648.042V34h14.346v-5.09l-1.69-.042-1.69-.041-.021-7.492c-.017-5.95 0-7.499.082-7.529.107-.038 9.587-1.528 9.957-1.564.195-.02.207.005.229.439l.022.459-1.614 1.502-1.613 1.502-.47.041-.47.042v3.338H33v-3.338l-.43-.025-.43-.025-1.364-1.51-1.363-1.511v-.52c0-.617.046-.666.694-.745.613-.075.707-.113.71-.283.004-.265-.602-4.06-.659-4.124-.031-.036-2.756.369-6.054.898-3.299.53-6.032.942-6.075.916-.042-.027-.076-.622-.076-1.324 0-1.326-.075-1.747-.334-1.887-.239-.13-6.774-.108-6.944.023m5.94 2.267c.027 1.22.04 1.185-.544 1.297l-.434.083-1.48-1.179c-.815-.648-1.481-1.212-1.481-1.252s.88-.062 1.958-.05l1.958.023zm-3.28 1.12c.619.502.598.531-.488.704-1.234.197-1.16.253-1.16-.883 0-1.267-.153-1.283 1.648.18m3.282 5.041c.028.553-.01.572-.446.22a14 14 0 0 0-.48-.373c-.203-.145-.157-.19.292-.28.584-.117.606-.102.634.433m12.976.648c.423.46.78.874.796.918.017.051-.622.081-1.71.081-.957 0-1.74-.028-1.741-.062-.003-.073 1.747-1.765 1.83-1.77.031-.002.402.373.825.833m-15.124-.203c.907.732.943.708-1.03.682l-1.712-.022-.026-.366c-.034-.487-.018-.496 1.066-.673.517-.084.958-.157.98-.162.023-.004.348.239.722.54m2.146 3.31c.012.722-.006 1.313-.041 1.312-.093-.002-3.192-2.489-3.226-2.588-.018-.055.536-.076 1.608-.062l1.636.023zm-3.068.524c.922.732 1.648 1.36 1.613 1.396s-.822.054-1.748.042l-1.685-.023-.022-1.405c-.017-1.028.002-1.397.072-1.374.052.018.848.632 1.77 1.364m3.068 3.995c.013.685-.006 1.272-.041 1.305-.063.058-3.17-2.368-3.226-2.518-.016-.046.636-.068 1.608-.055l1.636.023zm-3.073.564c.932.742 1.662 1.381 1.624 1.42s-.828.06-1.754.048l-1.685-.023-.022-1.397c-.015-.896.007-1.398.06-1.398.046 0 .845.607 1.777 1.35m3.073 4.011c.018 1.024 0 1.313-.083 1.31-.136-.008-3.133-2.424-3.178-2.563-.027-.084.308-.102 1.602-.084l1.636.023zm-2.047 1.42c.002.036-.636.055-1.418.042l-1.423-.022-.023-1.039c-.013-.57-.004-1.087.018-1.148.04-.106 2.837 2.023 2.846 2.168" clip-rule="evenodd"/></g><defs><linearGradient id="a" x1="20" x2="20" y1="0" y2="40" gradientUnits="userSpaceOnUse"><stop stop-color="#311d14"/><stop offset="1" stop-color="#1c0b0b"/></linearGradient><linearGradient id="c" x1="20" x2="20" y1="6" y2="34" gradientUnits="userSpaceOnUse"><stop stop-color="#e05718"/><stop offset="1" stop-color="#d63833"/></linearGradient><filter id="b" width="36" height="36" x="2" y="2" color-interpolation-filters="sRGB" filterUnits="userSpaceOnUse"><feFlood flood-opacity="0" result="BackgroundImageFix"/><feColorMatrix in="SourceAlpha" result="hardAlpha" values="0 0 0 0 0 0 0 0 0 0 0 0 0 0 0 0 0 0 127 0"/><feOffset/><feGaussianBlur stdDeviation="2"/><feComposite in2="hardAlpha" operator="out"/><feColorMatrix values="0 0 0 0 0 0 0 0 0 0 0 0 0 0 0 0 0 0 0.25 0"/><feBlend in2="BackgroundImageFix" result="effect1_dropShadow_2_2317"/><feBlend in="SourceGraphic" in2="effect1_dropShadow_2_2317" result="shape"/></filter></defs></svg>