<svg xmlns="http://www.w3.org/2000/svg" width="40" height="40" fill="none" viewBox="0 0 40 40"><rect width="40" height="40" fill="url(#a)" rx="8"/><rect width="37.9" height="37.9" x="1.05" y="1.05" stroke="#fff" stroke-opacity=".15" stroke-width="2.1" rx="6.95"/><g filter="url(#b)"><path fill="#115110" d="M21.084 6v2.011h-2.012v4.022H17.06v2.011h-2.012v1.857h-2.012v2.01h-2.012v2.012H9.012v2.01H7v4.023h2.012v2.01h2.012v2.012h2.012v2.011h2.012V34h2.012v-2.011h2.012v-2.011h2.012v-2.011h2.012v-2.011h2.012v-2.011h1.857v-2.011h4.024v-2.011H33V15.9h-2.012v-1.857h-2.012v-2.01h-2.012v-2.012h-1.857v-2.01h-2.012V6z"/><path fill="#9cff55" d="M21.084 8.011v2.011h2.012v2.011h2.012v2.011h1.857v1.857h2.012v-1.857h-2.012v-2.01h-1.857v-2.012h-2.012v-2.01z"/><path fill="#90eb4b" d="M21.084 10.022v2.011h2.011v-2.01z"/><path fill="#9cff55" d="M19.072 12.033v3.868h-4.024v2.01h-2.012v2.012h-2.012v4.022h2.012v2.01h2.012v2.012h4.024v-4.022H17.06v-2.011h4.024v2.01h2.012v-4.021h-2.012v-2.011h4.024V15.9h-2.012v-1.857h-2.012v-2.01z"/><path fill="#115110" d="M21.084 12.033v2.011h2.012v1.857h2.012v2.01h1.857v-2.01h-1.857v-1.857h-2.012v-2.01z"/><path fill="#89dc42" d="M23.096 12.033v2.011h2.01v-2.01z"/><path fill="#90eb4b" d="M17.06 14.044v1.857h2.011v-1.857z"/><path fill="#89dc42" d="M25.108 14.044v1.857h1.856v-1.857z"/><path fill="#90eb4b" d="M19.072 15.9v2.012h2.01V15.9z"/><path fill="#89dc42" d="M26.965 15.9v2.012h2.01V15.9z"/><path fill="#90eb4b" d="M21.084 17.912v2.01h4.024v-2.01z"/><path fill="#89dc42" d="M25.108 17.912v2.01h-2.012v4.023h2.012v-2.011h1.857v-4.022z"/><path fill="#5e8d2f" d="M28.977 17.912v2.01h2.01v-2.01z"/><path fill="#90eb4b" d="M15.048 19.923v2.01h2.011v-2.01z"/><path fill="#80cc3d" d="M9.012 21.934v2.01h2.012v2.012h2.012v2.01h2.012v2.012h2.012v-2.011h-2.012v-2.011h-2.012v-2.011h-2.012v-2.011z"/><path fill="#90eb4b" d="M17.06 21.934v2.01h4.024v-2.01z"/><path fill="#6eaa33" d="M9.012 23.945v2.01h2.011v-2.01z"/><path fill="#89dc42" d="M19.072 23.945v4.022h2.012v-2.011h2.012v-2.011z"/><path fill="#6eaa33" d="M11.024 25.956v2.01h2.012v-2.01zm2.012 2.01v2.012h2.012v-2.011z"/><path fill="#89dc42" d="M17.06 27.967v2.01h2.011v-2.01z"/><path fill="#6eaa33" d="M15.048 29.978v2.011h2.011v-2.011z"/></g><defs><linearGradient id="a" x1="20" x2="20" y1="0" y2="40" gradientUnits="userSpaceOnUse"><stop stop-color="#213116"/><stop offset="1" stop-color="#151e0d"/></linearGradient><filter id="b" width="36" height="36" x="2" y="2" color-interpolation-filters="sRGB" filterUnits="userSpaceOnUse"><feFlood flood-opacity="0" result="BackgroundImageFix"/><feColorMatrix in="SourceAlpha" result="hardAlpha" values="0 0 0 0 0 0 0 0 0 0 0 0 0 0 0 0 0 0 127 0"/><feOffset/><feGaussianBlur stdDeviation="2"/><feComposite in2="hardAlpha" operator="out"/><feColorMatrix values="0 0 0 0 0 0 0 0 0 0 0 0 0 0 0 0 0 0 0.25 0"/><feBlend in2="BackgroundImageFix" result="effect1_dropShadow_2_2290"/><feBlend in="SourceGraphic" in2="effect1_dropShadow_2_2290" result="shape"/></filter></defs></svg>