<svg xmlns="http://www.w3.org/2000/svg" width="40" height="40" fill="none" viewBox="0 0 40 40"><rect width="40" height="40" fill="url(#a)" rx="8"/><rect width="37.9" height="37.9" x="1.05" y="1.05" stroke="#fff" stroke-opacity=".15" stroke-width="2.1" rx="6.95"/><g filter="url(#b)"><g clip-path="url(#c)"><path fill="#ffc4c4" d="M6 6h28v28H6z"/><mask id="d" width="28" height="25" x="7" y="9" maskUnits="userSpaceOnUse" style="mask-type:alpha"><path fill="#d9d9d9" d="m7.864 13.472 22.848-3.938 3.508 20.35-22.848 3.938z"/></mask><g mask="url(#d)"><rect width="5.125" height="19.66" x="15.443" y="9.158" fill="#fff" fill-opacity=".3" stroke="#000" stroke-width="1.75" rx="2.562" transform="rotate(-9.777 15.443 9.158)"/></g><mask id="e" width="7" height="19" x="16" y="9" maskUnits="userSpaceOnUse" style="mask-type:alpha"><rect width="3.375" height="18.164" x="16.41" y="9.621" fill="#fff" rx="1.687" transform="rotate(-9.777 16.41 9.621)"/></mask><g mask="url(#e)"><path fill="url(#f)" d="M10.685 14.278h20.689v15.047H10.685z"/></g><path fill="#ff5e5e" d="m27.177 7.491 11.077 7.959-12.431 5.614z"/><path fill="#ffa337" d="m32.157 24.084 1.469 10.63-9.94-4.043z"/><path fill="#ffee57" d="m7.93 13.192 6.649 8.423-10.62 1.547z"/></g></g><defs><linearGradient id="a" x1="20" x2="20" y1="0" y2="40" gradientUnits="userSpaceOnUse"><stop stop-color="#363313"/><stop offset="1" stop-color="#2d0f0f"/></linearGradient><linearGradient id="f" x1="21.03" x2="21.03" y1="14.278" y2="29.325" gradientUnits="userSpaceOnUse"><stop stop-color="#ff4d00"/><stop offset=".089" stop-color="#ff4d00"/><stop offset="1" stop-color="red"/></linearGradient><clipPath id="c"><rect width="28" height="28" x="6" y="6" fill="#fff" rx="14"/></clipPath><filter id="b" width="36" height="36" x="2" y="2" color-interpolation-filters="sRGB" filterUnits="userSpaceOnUse"><feFlood flood-opacity="0" result="BackgroundImageFix"/><feColorMatrix in="SourceAlpha" result="hardAlpha" values="0 0 0 0 0 0 0 0 0 0 0 0 0 0 0 0 0 0 127 0"/><feOffset/><feGaussianBlur stdDeviation="2"/><feComposite in2="hardAlpha" operator="out"/><feColorMatrix values="0 0 0 0 0 0 0 0 0 0 0 0 0 0 0 0 0 0 0.25 0"/><feBlend in2="BackgroundImageFix" result="effect1_dropShadow_2_1702"/><feBlend in="SourceGraphic" in2="effect1_dropShadow_2_1702" result="shape"/></filter></defs></svg>