<svg xmlns="http://www.w3.org/2000/svg" width="40" height="40" fill="none" viewBox="0 0 40 40"><rect width="40" height="40" fill="url(#a)" rx="8"/><rect width="37.9" height="37.9" x="1.05" y="1.05" stroke="#fff" stroke-opacity=".15" stroke-width="2.1" rx="6.95"/><g filter="url(#b)"><g clip-path="url(#c)"><mask id="d" width="28" height="28" x="6" y="6" maskUnits="userSpaceOnUse" style="mask-type:luminance"><path fill="#fff" d="M34 6H6v28h28z"/></mask><g mask="url(#d)"><path fill="#cbfff6" d="M34 6H6v28h28z"/><path fill="#e5ff45" d="M29.625 32.25a4.375 4.375 0 1 0 0-8.75 4.375 4.375 0 0 0 0 8.75"/><path fill="#45ff79" d="M31.375 20a6.125 6.125 0 1 0 0-12.25 6.125 6.125 0 0 0 0 12.25"/><path fill="#ffd18b" d="M9.5 23.5a5.25 5.25 0 1 0 0-10.5 5.25 5.25 0 0 0 0 10.5"/><path fill="#fff" fill-opacity=".3" stroke="#000" stroke-width="1.75" d="M23.333 16.944a2.625 2.625 0 0 0-5.071-1.359l-1.812 6.762a2.625 2.625 0 0 0 5.071 1.358z"/><path fill="#000" d="m18.925 26.633.226-.845-1.69-.453-.227.845zm-2.597 2.928a.875.875 0 0 0 1.69.453zm.906-3.38-.906 3.38 1.69.453.907-3.38z"/><path stroke="#000" stroke-linecap="square" stroke-width="1.75" d="m22.156 11.193-.453 1.69"/><path stroke="#000" stroke-linecap="round" stroke-width="1.75" d="m25.537 12.1-6.762-1.812"/><mask id="e" width="6" height="11" x="17" y="14" maskUnits="userSpaceOnUse" style="mask-type:alpha"><path fill="#fff" d="M22.487 16.717a1.75 1.75 0 0 0-3.38-.905l-1.812 6.761a1.75 1.75 0 0 0 3.38.906z"/></mask><g mask="url(#e)"><path fill="url(#f)" d="M28.415 17.865h-17.5v7h17.5z"/></g></g></g></g><defs><linearGradient id="a" x1="20" x2="20" y1="0" y2="40" gradientUnits="userSpaceOnUse"><stop stop-color="#2a2e11"/><stop offset="1" stop-color="#102b17"/></linearGradient><linearGradient id="f" x1="19.665" x2="19.665" y1="17.865" y2="24.865" gradientUnits="userSpaceOnUse"><stop stop-color="#00ff19"/><stop offset="0" stop-color="#42ff00"/><stop offset="1" stop-color="#cf0"/></linearGradient><clipPath id="c"><rect width="28" height="28" x="6" y="6" fill="#fff" rx="14"/></clipPath><filter id="b" width="36" height="36" x="2" y="2" color-interpolation-filters="sRGB" filterUnits="userSpaceOnUse"><feFlood flood-opacity="0" result="BackgroundImageFix"/><feColorMatrix in="SourceAlpha" result="hardAlpha" values="0 0 0 0 0 0 0 0 0 0 0 0 0 0 0 0 0 0 127 0"/><feOffset/><feGaussianBlur stdDeviation="2"/><feComposite in2="hardAlpha" operator="out"/><feColorMatrix values="0 0 0 0 0 0 0 0 0 0 0 0 0 0 0 0 0 0 0.25 0"/><feBlend in2="BackgroundImageFix" result="effect1_dropShadow_2_1681"/><feBlend in="SourceGraphic" in2="effect1_dropShadow_2_1681" result="shape"/></filter></defs></svg>