<svg xmlns="http://www.w3.org/2000/svg" width="40" height="40" fill="none" viewBox="0 0 40 40"><g clip-path="url(#a)"><rect width="40" height="40" fill="url(#b)" rx="8"/><g filter="url(#c)"><g clip-path="url(#d)"><path fill="#fff" d="M16.14 29.814c-1.25-1.156-1.616-3.586-1.095-5.346.904 1.11 2.156 1.461 3.454 1.66 2.002.306 3.969.192 5.829-.734.213-.106.41-.247.642-.39a3.5 3.5 0 0 1 .159 1.556c-.148 1.28-.779 2.27-1.782 3.02-.401.3-.826.57-1.24.852-1.272.87-1.617 1.89-1.139 3.373.012.036.022.072.048.16a3.36 3.36 0 0 1-1.486-1.285 3.64 3.64 0 0 1-.574-1.962c-.004-.346-.004-.695-.05-1.036-.113-.832-.499-1.204-1.226-1.226-.747-.022-1.337.445-1.494 1.18-.012.056-.03.112-.047.178z"/><path fill="url(#e)" d="M16.14 29.814c-1.25-1.156-1.616-3.586-1.095-5.346.904 1.11 2.156 1.461 3.454 1.66 2.002.306 3.969.192 5.829-.734.213-.106.41-.247.642-.39a3.5 3.5 0 0 1 .159 1.556c-.148 1.28-.779 2.27-1.782 3.02-.401.3-.826.57-1.24.852-1.272.87-1.617 1.89-1.139 3.373.012.036.022.072.048.16a3.36 3.36 0 0 1-1.486-1.285 3.64 3.64 0 0 1-.574-1.962c-.004-.346-.004-.695-.05-1.036-.113-.832-.499-1.204-1.226-1.226-.747-.022-1.337.445-1.494 1.18-.012.056-.03.112-.047.178z"/><path fill="#fff" d="M9 24.175s3.704-1.825 7.42-1.825l2.8-8.764c.105-.424.412-.712.757-.712s.652.288.757.712l2.801 8.764c4.4 0 7.42 1.825 7.42 1.825L24.65 6.808c-.18-.513-.486-.843-.897-.843h-7.551c-.411 0-.704.33-.897.843z"/></g></g></g><rect width="37.9" height="37.9" x="1.05" y="1.05" stroke="#fff" stroke-opacity=".15" stroke-width="2.1" rx="6.95"/><defs><linearGradient id="b" x1="15.972" x2="22.372" y1="45" y2="-2.2" gradientUnits="userSpaceOnUse"><stop stop-color="#321818"/><stop offset="1" stop-color="#4b244e"/></linearGradient><linearGradient id="e" x1="14.816" x2="26.944" y1="33.965" y2="28.297" gradientUnits="userSpaceOnUse"><stop stop-color="#d83333"/><stop offset="1" stop-color="#f041ff"/></linearGradient><clipPath id="a"><rect width="40" height="40" fill="#fff" rx="8"/></clipPath><clipPath id="d"><path fill="#fff" d="M9 5.965h22v28H9z"/></clipPath><filter id="c" width="39.429" height="39.463" x=".286" y=".251" color-interpolation-filters="sRGB" filterUnits="userSpaceOnUse"><feFlood flood-opacity="0" result="BackgroundImageFix"/><feColorMatrix in="SourceAlpha" result="hardAlpha" values="0 0 0 0 0 0 0 0 0 0 0 0 0 0 0 0 0 0 127 0"/><feOffset/><feGaussianBlur stdDeviation="2.857"/><feComposite in2="hardAlpha" operator="out"/><feColorMatrix values="0 0 0 0 0 0 0 0 0 0 0 0 0 0 0 0 0 0 0.25 0"/><feBlend in2="BackgroundImageFix" result="effect1_dropShadow_62_122"/><feBlend in="SourceGraphic" in2="effect1_dropShadow_62_122" result="shape"/></filter></defs></svg>