<svg xmlns="http://www.w3.org/2000/svg" width="40" height="40" fill="none" viewBox="0 0 40 40"><g clip-path="url(#a)"><rect width="40" height="40" fill="url(#b)" rx="8"/><g filter="url(#c)"><mask id="e" width="32" height="24" x="4" y="8" fill="#000" maskUnits="userSpaceOnUse"><path fill="#fff" d="M4 8h32v24H4z"/><path fill-rule="evenodd" d="M22.5 29v-8.3c-.257-.096-.74-.175-1.5-.175h-2c-.76 0-1.243.079-1.5.175V29a2 2 0 0 1-2 2H7a2 2 0 0 1-2-2v-4.666a2 2 0 0 1 2-2h4v-3.715H7a2 2 0 0 1-2-2v-4.666a2 2 0 0 1 2-2h5a1 1 0 1 1 0 2H7v4.666h4a2 2 0 0 1 2 2v3.715a2 2 0 0 1-2 2H7V29h8.5V11.905c0-.719.245-1.323.675-1.784.408-.437.927-.687 1.397-.836C18.472 9 19.474 9 19.966 9h.068c.492 0 1.494 0 2.394.285.47.15.989.4 1.397.836.43.461.675 1.065.675 1.784V29H33v-4.666h-4a2 2 0 0 1-2-2v-3.715a2 2 0 0 1 2-2h4v-4.666h-5a1 1 0 1 1 0-2h5a2 2 0 0 1 2 2v4.666a2 2 0 0 1-2 2h-4v3.715h4a2 2 0 0 1 2 2V29a2 2 0 0 1-2 2h-8.5a2 2 0 0 1-2-2" clip-rule="evenodd"/></mask><path fill="url(#d)" fill-rule="evenodd" d="M22.5 29v-8.3c-.257-.096-.74-.175-1.5-.175h-2c-.76 0-1.243.079-1.5.175V29a2 2 0 0 1-2 2H7a2 2 0 0 1-2-2v-4.666a2 2 0 0 1 2-2h4v-3.715H7a2 2 0 0 1-2-2v-4.666a2 2 0 0 1 2-2h5a1 1 0 1 1 0 2H7v4.666h4a2 2 0 0 1 2 2v3.715a2 2 0 0 1-2 2H7V29h8.5V11.905c0-.719.245-1.323.675-1.784.408-.437.927-.687 1.397-.836C18.472 9 19.474 9 19.966 9h.068c.492 0 1.494 0 2.394.285.47.15.989.4 1.397.836.43.461.675 1.065.675 1.784V29H33v-4.666h-4a2 2 0 0 1-2-2v-3.715a2 2 0 0 1 2-2h4v-4.666h-5a1 1 0 1 1 0-2h5a2 2 0 0 1 2 2v4.666a2 2 0 0 1-2 2h-4v3.715h4a2 2 0 0 1 2 2V29a2 2 0 0 1-2 2h-8.5a2 2 0 0 1-2-2" clip-rule="evenodd"/><path fill="#544125" d="M22.5 20.699h.4v-.278l-.26-.097zm-5 0-.14-.375-.26.097v.278zM7 22.333v.4zm4 0v.4h.4v-.4zm0-3.714h.4v-.4H11zm-4-6.666v-.4h-.4v.4zm0 4.666h-.4v.4H7zm4 0v-.4zm-4 7.715v-.4h-.4v.4zM7 29h-.4v.4H7zm8.5 0v.4h.4V29zm.675-18.879.293.273zm1.397-.836-.12-.381zM19.966 9v.4zM20 9v.4zm.034 0v.4zm2.394.285.12-.381zm1.397.836-.293.273zm.675 18.88h-.4v.4h.4zm8.5 0v.4h.4V29zm0-4.667h.4v-.4H33zm0-7.715v.4h.4v-.4zm0-4.666h.4v-.4H33zm0 6.666v-.4zm-4 0v-.4h-.4v.4zm0 3.715h-.4v.4h.4zm-6.9-1.635V29h.8v-8.3zm-1.1.225c.744 0 1.17.079 1.36.15l.28-.75c-.325-.121-.865-.2-1.64-.2zm-.012 0H21v-.8h-.012zm-.011 0h.011v-.8h-.011zm-.012 0h.012v-.8h-.012zm-.011 0h.011v-.8h-.011zm-.012 0h.012v-.8h-.012zm-.01 0h.01v-.8h-.01zm-.012 0h.011v-.8h-.01zm-.01 0h.01v-.8h-.01zm-.012 0h.011v-.8h-.01zm-.01 0h.01v-.8h-.01zm-.011 0h.01v-.8h-.01zm-.011 0h.01v-.8h-.01zm-.01 0h.01v-.8h-.01zm-.011 0h.01v-.8h-.01zm-.01 0h.01v-.8h-.01zm-.011 0h.01v-.8h-.01zm-.01 0h.01v-.8h-.01zm-.01 0h.01v-.8h-.01zm-.01 0h.01v-.8h-.01zm-.01 0h.01v-.8h-.01zm-.01 0h.01v-.8h-.01zm-.01 0h.01v-.8h-.01zm-.01 0h.01v-.8h-.01zm-.01 0h.01v-.8h-.01zm-.01 0h.01v-.8h-.01zm-.009 0h.01v-.8h-.01zm-.01 0h.01v-.8h-.01zm-.009 0h.01v-.8h-.01zm-.009 0h.01v-.8h-.01zm-.009 0h.01v-.8h-.01zm-.01 0h.01v-.8h-.01zm-.008 0h.009v-.8h-.01zm-.009 0h.009v-.8h-.009zm-.009 0h.009v-.8h-.009zm-.009 0h.01v-.8h-.01zm-.008 0h.008v-.8h-.008zm-.009 0h.009v-.8h-.009zm-.009 0h.01v-.8h-.01zm-.008 0h.008v-.8h-.008zm-.008 0h.008v-.8h-.008zm-.009 0h.009v-.8h-.009zm-.008 0h.008v-.8h-.008zm-.008 0h.008v-.8h-.008zm-.008 0h.008v-.8h-.008zm-.008 0h.008v-.8h-.008zm-.008 0h.008v-.8h-.008zm-.008 0h.008v-.8h-.008zm-.008 0h.008v-.8h-.008zm-.007 0h.007v-.8h-.007zm-.008 0h.008v-.8h-.008zm-.008 0h.008v-.8h-.008zm-.007 0h.008v-.8h-.008zm-.007 0h.007v-.8h-.007zm-.008 0h.008v-.8h-.008zm-.007 0h.007v-.8h-.007zm-.007 0h.007v-.8h-.007zm-.007 0h.007v-.8h-.007zm-.007 0h.007v-.8h-.007zm-.007 0h.007v-.8h-.007zm-.007 0h.007v-.8h-.007zm-.007 0h.007v-.8h-.007zm-.007 0h.007v-.8h-.007zm-.006 0h.006v-.8h-.006zm-.007 0h.006v-.8h-.006zm-.007 0h.007v-.8h-.007zm-.006 0h.006v-.8h-.006zm-.007 0h.007v-.8h-.007zm-.006 0h.006v-.8h-.006zm-.006 0h.006v-.8h-.006zm-.006 0h.006v-.8h-.006zm-.007 0h.007v-.8h-.007zm-.006 0h.006v-.8h-.006zm-.006 0h.006v-.8h-.006zm-.006 0h.006v-.8h-.006zm-.006 0h.006v-.8h-.006zm-.005 0h.005v-.8h-.005zm-.006 0h.006v-.8h-.006zm-.006 0h.006v-.8h-.006zm-.005 0h.005v-.8h-.005zm-.006 0h.006v-.8h-.006zm-.006 0h.006v-.8h-.006zm-.005 0h.005v-.8h-.005zm-.005 0h.005v-.8h-.005zm-.006 0h.006v-.8h-.006zm-.005 0h.005v-.8h-.005zm-.005 0h.005v-.8h-.005zm-.005 0h.005v-.8h-.005zm-.005 0h.005v-.8h-.005zm-.005 0h.005v-.8h-.005zm-.005 0h.005v-.8h-.005zm-.005 0h.005v-.8h-.005zm-.005 0h.005v-.8h-.005zm-.005 0h.005v-.8h-.005zm-.005 0h.005v-.8h-.005zm-.004 0h.004v-.8h-.004zm-.005 0h.005v-.8h-.005zm-.004 0h.004v-.8h-.004zm-.005 0h.005v-.8h-.005zm-.004 0h.004v-.8h-.004zm-.005 0h.005v-.8h-.005zm-.004 0h.004v-.8h-.004zm-.004 0h.004v-.8h-.004zm-.005 0h.005v-.8h-.005zm-.004 0h.005v-.8h-.005zm-.004 0h.004v-.8h-.004zm-.004 0h.004v-.8h-.004zm-.004 0h.004v-.8h-.004zm-.004 0h.004v-.8h-.004zm-.004 0h.004v-.8h-.004zm-.003 0h.003v-.8h-.003zm-.004 0h.004v-.8h-.004zm-.004 0h.004v-.8h-.004zm-.004 0h.004v-.8h-.004zm-.003 0h.003v-.8h-.003zm-.004 0h.004v-.8h-.004zm-.003 0h.003v-.8h-.003zm-.004 0h.004v-.8h-.004zm-.003 0h.003v-.8h-.003zm-.004 0h.004v-.8h-.004zm-.003 0h.003v-.8h-.003zm-.003 0h.003v-.8h-.003zm-.004 0h.004v-.8h-.004zm-.003 0h.003v-.8h-.003zm-.003 0h.003v-.8h-.003zm-.003 0h.003v-.8h-.003zm-.003 0h.003v-.8h-.003zm-.003 0h.003v-.8h-.003zm-.003 0h.003v-.8h-.003zm-.003 0h.003v-.8h-.003zm-.003 0h.003v-.8h-.003zm-.003 0h.003v-.8h-.003zm-.002 0h.002v-.8h-.002zm-.003 0h.003v-.8h-.003zm-.003 0h.003v-.8h-.003zm-.002 0h.002v-.8h-.002zm-.003 0h.003v-.8h-.003zm-.003 0h.003v-.8H20.1zm-.002 0h.002v-.8h-.002zm-.002 0h.002v-.8h-.002zm-.003 0h.003v-.8h-.003zm-.002 0h.002v-.8h-.002zm-.003 0h.003v-.8h-.003zm-.002 0h.002v-.8h-.002zm-.002 0h.002v-.8h-.002zm-.003 0h.003v-.8h-.003zm-.002 0h.002v-.8h-.002zm-.002 0h.002v-.8h-.002zm-.002 0h.002v-.8h-.002zm-.002 0h.002v-.8h-.002zm-.002 0h.002v-.8h-.002zm-.002 0h.002v-.8h-.002zm-.002 0h.002v-.8h-.002zm-.002 0h.002v-.8h-.002zm-.002 0h.002v-.8h-.002zm-.002 0h.002v-.8h-.002zm-.001 0v-.8h-.001zm-.002 0h.002v-.8h-.002zm-.002 0h.002v-.8h-.002zm-.002 0h.002v-.8h-.002zm-.001 0v-.8h-.001zm-.002 0h.002v-.8h-.002zm-.002 0h.002v-.8h-.002zm-.001 0h.002v-.8h-.002zm-.002 0h.002v-.8h-.002zm-.001 0v-.8h-.001zm-.002 0h.002v-.8h-.002zm-.001 0h.002v-.8h-.002zm-.001 0v-.8h-.001zm-.002 0h.002v-.8h-.002zm-.001 0v-.8h-.001zm-.001 0v-.8zm-.002 0h.002v-.8h-.002zm0 0v-.8zm-.002 0v-.8h-.001zm-.001 0v-.8zm-.002 0h.002v-.8h-.002zm0 0v-.8zm-.002 0v-.8zm0 0v-.8zm-.002 0v-.8zm0 0v-.8zm-.002 0v-.8zm0 0v-.8zm-.002 0v-.8zm0 0v-.8zm-.002 0v-.8zm0 0v-.8zm-.001 0v-.8zm-.001 0v-.8zm0 0v-.8zm-.002 0v-.8zm0 0v-.8zm-.001 0v-.8zm0 0v-.8zm-.002 0v-.8zm0 0v-.8zm0 0v-.8zm-.001 0v-.8zm-.001 0v-.8zm0 0v-.8zm-.001 0v-.8zm0 0v-.8zm-.001 0v-.8zm0 0v-.8zm-.001 0v-.8zm0 0v-.8zm-.001 0v-.8zm0 0v-.8zm0 0v-.8zm-.001 0v-.8zm0 0v-.8zm0 0v-.8zm-.001 0v-.8zm0 0v-.8zm0 0v-.8zm-.001 0v-.8zm0 0v-.8zm0 0v-.8zm-.001 0v-.8zm0 0v-.8zm0 0v-.8zm0 0v-.8zm0 0v-.8zm-.001 0v-.8zm0 0v-.8zm0 0v-.8zm0 0v-.8zm0 0v-.8zm0 0v-.8zm-.001 0v-.8zm0 0v-.8zm0 0v-.8zm0 0v-.8zm0 0v-.8zm0 0v-.8zm0 0v-.8zm0 0v-.8zm0 0v-.8zm0 0v-.8zm0 0v-.8zm0 0v-.8zm0 0v-.8zm0 0v-.8zm0 0v-.8zm0 0v-.8zm0 0v-.8zm-.001 0v-.8zm0 0v-.8zm0 0v-.8zm0 0v-.8zm0 0v-.8zm0 0v-.8zm0 0v-.8zm0 0v-.8zm0 0v-.8zm0 0v-.8zm0 0v-.8zm0 0v-.8zm0 0v-.8zm0 0v-.8zm0 0v-.8zm0 0v-.8zm0 0v-.8zm0 0v-.8zm0 0v-.8zm0 0v-.8zm0 0v-.8zm0 0v-.8zm0 0v-.8zm0 0v-.8zm0 0v-.8zm-.001 0v-.8zm0 0v-.8zm0 0v-.8zm0 0v-.8zm0 0v-.8zm0 0v-.8zm-.001 0v-.8zm0 0v-.8zm0 0v-.8zm0 0v-.8zm0 0v-.8zm-.001 0v-.8zm0 0v-.8zm0 0v-.8zm0 0v-.8zm-.001 0v-.8zm0 0v-.8zm0 0v-.8zm-.001 0v-.8zm0 0v-.8zm0 0v-.8zm-.001 0v-.8zm0 0v-.8zm-.001 0v-.8zm0 0v-.8zm0 0v-.8zm-.001 0v-.8zm0 0v-.8zm-.001 0v-.8zm0 0v-.8zm-.002 0v-.8zm0 0v-.8zm0 0v-.8zm-.001 0v-.8zm0 0v-.8zm-.002 0v-.8zm0 0v-.8zm0 0v-.8zm-.002 0v-.8zm0 0v-.8zm-.001 0v-.8zm0 0v-.8zm-.002 0v-.8zm0 0v-.8zm-.001 0v-.8zm-.001 0v-.8zm-.001 0v-.8zm-.001 0v-.8zm-.001 0v-.8zm-.001 0v-.8zm-.001 0v-.8zm-.001 0v-.8zm-.001 0v-.8zm-.001 0v-.8zm-.002 0h.002v-.8h-.002zm0 0v-.8zm-.002 0v-.8zm-.001 0v-.8h-.001zm-.001 0v-.8zm-.002 0h.002v-.8h-.002zm0 0v-.8zm-.002 0v-.8h-.001zm-.002 0h.002v-.8h-.002zm-.001 0v-.8h-.001zm-.002 0h.002v-.8h-.002zm0 0v-.8zm-.002 0v-.8h-.001zm-.002 0h.002v-.8h-.002zm-.002 0h.002v-.8h-.002zm-.001 0h.002v-.8h-.002zm-.002 0h.002v-.8h-.002zm-.001 0v-.8h-.001zm-.002 0h.002v-.8h-.002zm-.002 0h.002v-.8h-.002zm-.002 0h.002v-.8h-.002zm-.001 0v-.8h-.001zm-.002 0h.002v-.8h-.002zm-.002 0h.002v-.8h-.002zm-.002 0h.002v-.8h-.002zm-.002 0h.002v-.8h-.002zm-.002 0h.002v-.8h-.002zm-.002 0h.002v-.8h-.002zm-.002 0h.002v-.8h-.002zm-.002 0h.002v-.8h-.002zm-.002 0h.002v-.8h-.002zm-.002 0h.002v-.8h-.002zm-.003 0h.003v-.8h-.003zm-.002 0h.002v-.8h-.002zm-.002 0h.002v-.8h-.002zm-.003 0h.003v-.8h-.003zm-.002 0h.002v-.8h-.002zm-.003 0h.003v-.8h-.003zm-.002 0h.002v-.8h-.002zm-.002 0h.002v-.8H19.9zm-.003 0h.003v-.8h-.003zm-.003 0h.003v-.8h-.003zm-.002 0h.002v-.8h-.002zm-.003 0h.003v-.8h-.003zm-.003 0h.003v-.8h-.003zm-.002 0h.002v-.8h-.002zm-.003 0h.003v-.8h-.003zm-.003 0h.003v-.8h-.003zm-.003 0h.003v-.8h-.003zm-.003 0h.003v-.8h-.003zm-.003 0h.003v-.8h-.003zm-.003 0h.003v-.8h-.003zm-.003 0h.003v-.8h-.003zm-.003 0h.003v-.8h-.003zm-.003 0h.003v-.8h-.003zm-.004 0h.004v-.8h-.004zm-.003 0h.003v-.8h-.003zm-.003 0h.003v-.8h-.003zm-.004 0h.004v-.8h-.004zm-.003 0h.003v-.8h-.003zm-.004 0h.004v-.8h-.004zm-.003 0h.003v-.8h-.003zm-.004 0h.004v-.8h-.004zm-.003 0h.003v-.8h-.003zm-.004 0h.004v-.8h-.004zm-.004 0h.004v-.8h-.004zm-.004 0h.004v-.8h-.004zm-.003 0h.003v-.8h-.003zm-.004 0h.004v-.8h-.004zm-.004 0h.004v-.8h-.004zm-.004 0h.004v-.8h-.004zm-.004 0h.004v-.8h-.004zm-.004 0h.004v-.8h-.004zm-.005 0h.005v-.8h-.005zm-.004 0h.005v-.8h-.005zm-.004 0h.004v-.8h-.004zm-.004 0h.004v-.8h-.004zm-.005 0h.005v-.8h-.005zm-.004 0h.004v-.8h-.004zm-.005 0h.005v-.8h-.005zm-.004 0h.004v-.8h-.004zm-.005 0h.005v-.8h-.005zm-.004 0h.004v-.8h-.004zm-.005 0h.005v-.8h-.005zm-.005 0h.005v-.8h-.005zm-.005 0h.005v-.8h-.005zm-.005 0h.005v-.8h-.005zm-.005 0h.005v-.8h-.005zm-.005 0h.005v-.8h-.005zm-.005 0h.005v-.8h-.005zm-.005 0h.005v-.8h-.005zm-.005 0h.005v-.8h-.005zm-.005 0h.005v-.8h-.005zm-.006 0h.006v-.8h-.006zm-.005 0h.005v-.8h-.005zm-.005 0h.005v-.8h-.005zm-.006 0h.006v-.8h-.006zm-.006 0h.006v-.8h-.006zm-.005 0h.005v-.8h-.005zm-.006 0h.006v-.8h-.006zm-.006 0h.006v-.8h-.006zm-.005 0h.005v-.8h-.005zm-.006 0h.006v-.8h-.006zm-.006 0h.006v-.8h-.006zm-.006 0h.006v-.8h-.006zm-.006 0h.006v-.8h-.006zm-.007 0h.007v-.8h-.007zm-.006 0h.006v-.8h-.006zm-.006 0h.006v-.8h-.006zm-.006 0h.006v-.8h-.006zm-.007 0h.007v-.8h-.007zm-.006 0h.006v-.8h-.006zm-.007 0h.007v-.8h-.007zm-.006 0h.006v-.8h-.006zm-.007 0h.006v-.8h-.006zm-.007 0h.007v-.8h-.007zm-.007 0h.007v-.8h-.007zm-.007 0h.007v-.8h-.007zm-.007 0h.007v-.8h-.007zm-.007 0h.007v-.8h-.007zm-.007 0h.007v-.8h-.007zm-.007 0h.007v-.8h-.007zm-.007 0h.007v-.8h-.007zm-.008 0h.008v-.8H19.5zm-.007 0h.007v-.8h-.007zm-.008 0h.008v-.8h-.008zm-.007 0h.008v-.8h-.008zm-.008 0h.008v-.8h-.008zm-.007 0h.007v-.8h-.007zm-.008 0h.008v-.8h-.008zm-.008 0h.008v-.8h-.008zm-.008 0h.008v-.8h-.008zm-.008 0h.008v-.8h-.008zm-.008 0h.008v-.8h-.008zm-.008 0h.008v-.8h-.008zm-.008 0h.008v-.8h-.008zm-.009 0h.009v-.8h-.009zm-.008 0h.008v-.8h-.008zm-.008 0h.008v-.8h-.008zm-.01 0h.01v-.8h-.01zm-.008 0h.009v-.8h-.009zm-.008 0h.008v-.8h-.008zm-.01 0h.01v-.8h-.01zm-.008 0h.009v-.8h-.009zm-.009 0h.009v-.8h-.009zm-.009 0h.01v-.8h-.01zm-.009 0h.01v-.8h-.01zm-.01 0h.01v-.8h-.01zm-.008 0h.009v-.8h-.01zm-.01 0h.01v-.8h-.01zm-.01 0h.01v-.8h-.01zm-.009 0h.01v-.8h-.01zm-.01 0h.01v-.8h-.01zm-.009 0h.01v-.8h-.01zm-.01 0h.01v-.8h-.01zm-.01 0h.01v-.8h-.01zm-.01 0h.01v-.8h-.01zm-.01 0h.01v-.8h-.01zm-.01 0h.01v-.8h-.01zm-.01 0h.01v-.8h-.01zm-.01 0h.01v-.8h-.01zm-.01 0h.01v-.8h-.01zm-.01 0h.01v-.8h-.01zm-.011 0h.01v-.8h-.01zm-.01 0h.01v-.8h-.01zm-.012 0h.011v-.8h-.01zm-.01 0h.01v-.8h-.01zm-.011 0h.01v-.8h-.01zm-.011 0h.01v-.8h-.01zm-.011 0h.01v-.8h-.01zm-.011 0h.01v-.8h-.01zm-.011 0h.01v-.8h-.01zm-.012 0h.012v-.8h-.012zm-.011 0h.011v-.8h-.011zm-.012 0h.012v-.8h-.012zm-.011 0h.011v-.8h-.011zm-.012 0h.012v-.8H19zm-1.36.15c.19-.072.616-.15 1.36-.15v-.8c-.775 0-1.315.079-1.64.2zM17.9 29v-8.3h-.8V29zm-2.4 2.4a2.4 2.4 0 0 0 2.4-2.4h-.8a1.6 1.6 0 0 1-1.6 1.6zm-8.5 0h8.5v-.8H7zM4.6 29A2.4 2.4 0 0 0 7 31.4v-.8A1.6 1.6 0 0 1 5.4 29zm0-4.666V29h.8v-4.666zm2.4-2.4a2.4 2.4 0 0 0-2.4 2.4h.8a1.6 1.6 0 0 1 1.6-1.6zm4 0H7v.8h4zm-.4-3.315v3.715h.8v-3.715zm-3.6.4h4v-.8H7zm-2.4-2.4a2.4 2.4 0 0 0 2.4 2.4v-.8a1.6 1.6 0 0 1-1.6-1.6zm0-4.666v4.666h.8v-4.666zm2.4-2.4a2.4 2.4 0 0 0-2.4 2.4h.8a1.6 1.6 0 0 1 1.6-1.6zm5 0H7v.8h5zm1.4 1.4a1.4 1.4 0 0 0-1.4-1.4v.8a.6.6 0 0 1 .6.6zm-1.4 1.4a1.4 1.4 0 0 0 1.4-1.4h-.8a.6.6 0 0 1-.6.6zm-5 0h5v-.8H7zm.4 4.266v-4.666h-.8v4.666zm3.6-.4H7v.8h4zm2.4 2.4a2.4 2.4 0 0 0-2.4-2.4v.8a1.6 1.6 0 0 1 1.6 1.6zm0 3.715v-3.715h-.8v3.715zm-2.4 2.4a2.4 2.4 0 0 0 2.4-2.4h-.8a1.6 1.6 0 0 1-1.6 1.6zm-4 0h4v-.8H7zM7.4 29v-4.666h-.8V29zm8.1-.4H7v.8h8.5zm-.4-8.124V29h.8v-8.524zm0-1.904v1.904h.8v-1.904zm0-.01v.01h.8v-.01zm0-.01v.01h.8v-.01zm0-.008v.009h.8v-.01zm0-.01v.01h.8v-.01zm0-.01v.01h.8v-.01zm0-.009v.01h.8v-.01zm0-.01v.01h.8v-.01zm0-.01v.01h.8v-.01zm0-.009v.01h.8v-.01zm0-.01v.01h.8v-.01zm0-.01v.01h.8v-.01zm0-.01v.01h.8v-.01zm0-.01v.01h.8v-.01zm0-.009v.01h.8v-.01zm0-.01v.01h.8v-.01zm0-.01v.01h.8v-.01zm0-.01v.01h.8v-.01zm0-.01v.01h.8v-.01zm0-.01v.01h.8v-.01zm0-.01v.01h.8v-.01zm0-.01v.01h.8v-.01zm0-.01v.01h.8v-.01zm0-.01v.01h.8v-.01zm0-.011v.01h.8v-.01zm0-.01v.01h.8v-.01zm0-.011v.01h.8v-.01zm0-.01v.01h.8v-.01zm0-.01v.01h.8v-.01zm0-.011v.01h.8v-.01zm0-.01v.01h.8v-.01zm0-.012v.011h.8v-.01zm0-.01v.01h.8v-.01zm0-.01v.01h.8v-.01zm0-.012v.011h.8v-.01zm0-.01v.01h.8v-.01zm0-.011v.01h.8v-.01zm0-.01v.01h.8v-.01zm0-.012v.011h.8v-.01zm0-.01v.01h.8v-.01zm0-.012v.011h.8v-.01zm0-.01v.01h.8v-.01zm0-.012v.011h.8v-.01zm0-.01v.01h.8v-.01zm0-.012v.011h.8v-.01zm0-.01v.01h.8v-.01zm0-.012v.011h.8v-.01zm0-.011v.011h.8v-.011zm0-.012v.012h.8v-.012zm0-.01v.01h.8v-.01zm0-.012v.011h.8v-.011zm0-.011v.011h.8v-.011zm0-.012v.012h.8v-.012zm0-.011v.011h.8v-.011zm0-.012v.012h.8v-.012zm0-.011v.011h.8v-.011zm0-.012v.012h.8v-.012zm0-.011v.011h.8v-.011zm0-.012v.012h.8v-.012zm0-.011v.011h.8v-.011zm0-.012v.012h.8v-.012zm0-.012v.012h.8v-.012zm0-.012v.012h.8v-.012zm0-.011v.011h.8v-.011zm0-.012v.012h.8v-.012zm0-.012v.012h.8v-.012zm0-.012v.012h.8v-.012zm0-.012v.012h.8v-.012zm0-.012v.012h.8v-.012zm0-.012v.012h.8v-.012zm0-.012v.012h.8v-.012zm0-.012v.012h.8v-.012zm0-.012v.012h.8v-.012zm0-.012v.012h.8v-.012zm0-.012v.012h.8v-.012zm0-.012v.012h.8v-.012zm0-.012v.012h.8v-.012zm0-.013v.013h.8v-.013zm0-.012v.012h.8v-.012zm0-.012v.012h.8v-.012zm0-.012v.012h.8v-.012zm0-.013v.013h.8v-.013zm0-.012v.012h.8v-.012zm0-.012v.012h.8v-.012zm0-.013v.012h.8v-.012zm0-.012v.012h.8v-.012zm0-.013v.013h.8v-.013zm0-.012v.012h.8v-.012zm0-.013v.012h.8V17.6zm0-.013v.013h.8v-.013zm0-.012v.012h.8v-.012zm0-.013v.013h.8v-.013zm0-.012v.012h.8v-.012zm0-.013v.012h.8v-.012zm0-.013v.013h.8v-.013zm0-.013v.013h.8v-.013zm0-.013v.013h.8v-.013zm0-.012v.012h.8v-.012zm0-.013v.013h.8v-.013zm0-.013v.013h.8v-.013zm0-.013v.013h.8v-.013zm0-.013v.013h.8v-.013zm0-.013v.013h.8v-.013zm0-.013v.013h.8v-.013zm0-.013v.013h.8v-.013zm0-.013v.013h.8v-.013zm0-.013v.013h.8v-.013zm0-.013v.013h.8v-.013zm0-.013v.013h.8v-.013zm0-.013v.013h.8v-.013zm0-.013v.013h.8v-.013zm0-.014v.014h.8v-.014zm0-.013v.013h.8v-.013zm0-.013v.013h.8v-.013zm0-.013v.013h.8v-.013zm0-.014v.014h.8v-.014zm0-.013v.013h.8v-.013zm0-.013v.013h.8v-.013zm0-.014v.014h.8v-.014zm0-.013v.013h.8v-.013zm0-.013v.013h.8v-.013zm0-.014v.014h.8v-.014zm0-.013v.013h.8v-.013zm0-.014v.014h.8v-.014zm0-.013v.013h.8v-.013zm0-.014v.014h.8v-.014zm0-.013v.013h.8v-.013zm0-.014v.014h.8v-.014zm0-.014v.014h.8v-.014zm0-.013v.014h.8v-.014zm0-.014v.014h.8v-.014zm0-.013v.013h.8v-.013zm0-.014v.014h.8v-.014zm0-.014v.014h.8v-.014zm0-.014v.014h.8v-.014zm0-.013v.014h.8v-.014zm0-.014v.014h.8v-.014zm0-.014v.014h.8v-.014zm0-.014v.014h.8v-.014zm0-.013v.013h.8v-.013zm0-.014v.014h.8v-.014zm0-.014v.014h.8v-.014zm0-.014v.014h.8v-.014zm0-.014v.014h.8v-.014zm0-.014v.014h.8v-.014zm0-.014v.014h.8v-.014zm0-.014v.014h.8v-.014zm0-.014v.014h.8v-.014zm0-.014v.014h.8v-.014zm0-.014v.014h.8v-.014zm0-.014v.014h.8v-.014zm0-.014v.014h.8v-.014zm0-.014v.014h.8v-.014zm0-.014v.014h.8v-.014zm0-.014v.014h.8v-.014zm0-.014v.014h.8V16.7zm0-.014v.014h.8v-.014zm0-.014v.014h.8v-.014zm0-.015v.015h.8v-.015zm0-.014v.014h.8v-.014zm0-.014v.014h.8v-.014zm0-.014v.014h.8v-.014zm0-.015v.015h.8V16.6zm0-.014v.014h.8v-.014zm0-.014v.014h.8v-.014zm0-.014v.014h.8v-.014zm0-.015v.015h.8v-.015zm0-.014v.014h.8v-.014zm0-.014v.014h.8v-.014zm0-.015v.015h.8V16.5zm0-.014v.014h.8v-.014zm0-.015v.015h.8v-.015zm0-.014v.014h.8v-.014zm0-.014v.014h.8v-.014zm0-.015v.015h.8v-.015zm0-.014v.014h.8v-.014zm0-.015v.015h.8v-.015zm0-.014v.014h.8v-.014zm0-.015v.015h.8v-.015zm0-.014v.014h.8v-.014zm0-.015v.015h.8v-.015zm0-.014v.014h.8v-.014zm0-.015v.015h.8v-.015zm0-.014v.014h.8v-.014zm0-.015v.015h.8v-.015zm0-.014v.014h.8v-.014zm0-.015v.015h.8v-.015zm0-.014v.014h.8v-.014zm0-.015v.015h.8v-.015zm0-.015v.015h.8v-.015zm0-.014v.014h.8v-.014zm0-.015v.015h.8v-.015zm0-.015v.015h.8v-.015zm0-.014v.014h.8v-.014zm0-.015v.015h.8v-.015zm0-.015v.015h.8v-.015zm0-.014v.014h.8v-.014zm0-.015v.015h.8v-.015zm0-.015v.015h.8v-.015zm0-.014v.014h.8v-.014zm0-.015v.015h.8v-.015zm0-.015v.015h.8v-.015zm0-.015v.015h.8v-.015zm0-.014v.014h.8v-.014zm0-.015v.015h.8v-.015zm0-.015v.015h.8v-.015zm0-.015v.015h.8v-.015zm0-.015v.015h.8v-.015zm0-.014v.014h.8v-.014zm0-.015v.015h.8v-.015zm0-.015v.015h.8V15.9zm0-.015v.015h.8v-.015zm0-.015v.015h.8v-.015zm0-.014v.014h.8v-.014zm0-.015v.015h.8v-.015zm0-.015v.015h.8v-.015zm0-.015v.015h.8v-.015zm0-.015v.015h.8v-.015zm0-.015v.015h.8v-.015zm0-.015v.015h.8v-.015zm0-.014v.014h.8v-.014zm0-.015v.015h.8v-.015zm0-.015v.015h.8v-.015zm0-.015v.015h.8v-.015zm0-.015v.015h.8v-.015zm0-.015v.015h.8v-.015zm0-.015v.015h.8v-.015zm0-.015v.015h.8v-.015zm0-.015v.015h.8v-.015zm0-.015v.015h.8v-.015zm0-.014v.014h.8v-.014zm0-.015v.014h.8v-.014zm0-.015v.014h.8v-.014zm0-.015v.015h.8v-.015zm0-.015v.015h.8v-.015zm0-.015v.015h.8v-.015zm0-.015v.015h.8v-.015zm0-.015v.015h.8v-.015zm0-.015v.015h.8v-.015zm0-.015v.015h.8v-.015zm0-.015v.015h.8v-.015zm0-.015v.015h.8v-.015zm0-.015v.015h.8v-.015zm0-.015v.015h.8v-.015zm0-.015v.015h.8v-.015zm0-.015v.015h.8v-.015zm0-.015v.015h.8v-.015zm0-.015v.015h.8v-.015zm0-.015v.015h.8v-.015zm0-.015v.015h.8v-.015zm0-.015v.015h.8v-.015zm0-.015v.015h.8v-.015zm0-.015v.015h.8v-.015zm0-.015v.015h.8v-.015zm0-.015v.015h.8v-.015zm0-.015v.015h.8v-.015zm0-.015v.015h.8v-.015zm0-.014v.014h.8V15.2zm0-.015v.014h.8v-.014zm0-.016v.015h.8v-.014zm0-.014v.014h.8v-.014zm0-.015v.014h.8v-.014zm0-.015v.015h.8v-.015zm0-.015v.015h.8v-.015zm0-.015v.015h.8v-.015zm0-.015v.015h.8v-.015zm0-.015v.015h.8v-.015zm0-.015v.015h.8v-.015zm0-.015v.015h.8v-.015zm0-.015v.015h.8v-.015zm0-.015v.015h.8v-.015zm0-.015v.015h.8v-.015zm0-.015v.015h.8v-.015zm0-.015v.015h.8v-.015zm0-.015v.015h.8v-.015zm0-.015v.015h.8v-.015zm0-.015v.015h.8v-.015zm0-.015v.015h.8V14.9zm0-.014v.014h.8v-.014zm0-.015v.014h.8v-.014zm0-.015v.015h.8v-.015zm0-.015v.015h.8v-.015zm0-.015v.015h.8v-.015zm0-.015v.015h.8v-.015zm0-.015v.015h.8v-.015zm0-.015v.015h.8v-.015zm0-.015v.015h.8v-.015zm0-.014v.014h.8v-.014zm0-.015v.014h.8v-.014zm0-.015v.015h.8v-.015zm0-.015v.015h.8v-.015zm0-.015v.015h.8v-.015zm0-.015v.015h.8v-.015zm0-.015v.015h.8v-.015zm0-.014v.014h.8v-.014zm0-.015v.015h.8v-.015zm0-.015v.015h.8v-.015zm0-.015v.015h.8v-.015zm0-.015v.015h.8v-.015zm0-.014v.014h.8v-.014zm0-.015v.015h.8v-.015zm0-.015v.015h.8v-.015zm0-.015v.015h.8v-.015zm0-.014v.014h.8v-.014zm0-.015v.014h.8V14.5zm0-.015v.015h.8v-.015zm0-.015v.015h.8v-.015zm0-.014v.014h.8v-.014zm0-.015v.015h.8v-.015zm0-.015v.015h.8v-.015zm0-.014v.014h.8v-.014zm0-.015v.015h.8v-.015zm0-.015v.015h.8v-.015zm0-.014v.014h.8v-.014zm0-.015v.015h.8v-.015zm0-.015v.015h.8v-.015zm0-.014v.014h.8v-.014zm0-.015v.015h.8v-.015zm0-.014v.014h.8v-.014zm0-.015v.014h.8v-.014zm0-.015v.015h.8v-.015zm0-.014v.014h.8v-.014zm0-.015v.015h.8v-.015zm0-.014v.014h.8v-.014zm0-.015v.015h.8v-.015zm0-.014v.014h.8v-.014zm0-.015v.015h.8v-.015zm0-.014v.014h.8v-.014zm0-.015v.015h.8v-.015zm0-.014v.014h.8v-.014zm0-.015v.015h.8v-.015zm0-.014v.014h.8v-.014zm0-.014v.014h.8v-.014zm0-.015v.015h.8v-.015zm0-.014v.014h.8v-.014zm0-.015v.015h.8v-.015zm0-.014v.014h.8v-.014zm0-.014v.014h.8v-.014zm0-.015v.015h.8v-.015zm0-.014v.014h.8v-.014zm0-.014v.014h.8v-.014zm0-.014v.014h.8v-.014zm0-.015v.015h.8v-.015zm0-.014v.014h.8v-.014zm0-.014v.014h.8v-.014zm0-.014v.014h.8v-.014zm0-.015v.015h.8v-.015zm0-.014v.014h.8v-.014zm0-.014v.014h.8v-.014zm0-.014v.014h.8v-.014zm0-.014v.014h.8v-.014zm0-.014v.014h.8v-.014zm0-.014v.014h.8v-.014zm0-.014v.014h.8v-.014zm0-.014v.014h.8v-.014zm0-.014v.013h.8v-.014zm0-.014v.014h.8v-.014zm0-.014v.014h.8v-.014zm0-.014v.013h.8v-.014zm0-.014v.014h.8v-.014zm0-.014v.014h.8v-.014zm0-.014v.014h.8v-.014zm0-.014v.014h.8v-.014zm0-.014v.014h.8v-.014zm0-.014v.014h.8v-.014zm0-.014v.014h.8v-.014zm0-.014v.014h.8v-.014zm0-.014v.014h.8v-.014zm0-.013v.014h.8v-.014zm0-.014v.014h.8v-.014zm0-.014v.014h.8v-.014zm0-.013v.013h.8v-.013zm0-.014v.014h.8v-.014zm0-.014v.014h.8v-.014zm0-.014v.014h.8v-.014zm0-.013v.014h.8v-.014zm0-.014v.014h.8v-.014zm0-.013v.013h.8v-.013zm0-.014v.014h.8v-.014zm0-.013v.013h.8v-.013zm0-.014v.014h.8v-.014zm0-.013v.013h.8v-.013zm0-.014v.014h.8v-.014zm0-.013v.013h.8v-.013zm0-.014v.014h.8v-.014zm0-.013v.013h.8v-.013zm0-.014v.014h.8v-.014zm0-.013v.013h.8v-.013zm0-.013v.013h.8v-.013zm0-.014v.014h.8v-.014zm0-.013v.013h.8v-.013zm0-.013v.013h.8v-.013zm0-.013v.013h.8v-.013zm0-.014v.014h.8v-.014zm0-.013v.013h.8v-.013zm0-.013v.013h.8v-.013zm0-.013v.013h.8v-.013zm0-.013v.013h.8v-.013zm0-.013v.013h.8v-.013zm0-.013v.013h.8v-.013zm0-.013v.013h.8v-.013zm0-.013v.013h.8v-.013zm0-.013v.013h.8v-.013zm0-.013v.013h.8v-.013zm0-.013v.013h.8v-.013zm0-.013v.013h.8v-.013zm0-.013v.013h.8v-.013zm0-.013v.013h.8v-.013zm0-.013v.013h.8v-.013zm0-.012v.012h.8v-.012zm0-.013v.013h.8v-.013zm0-.013v.013h.8v-.013zm0-.012v.012h.8v-.012zm0-.013V13h.8v-.013zm0-.013v.013h.8v-.013zm0-.012v.012h.8v-.012zm0-.013v.013h.8v-.013zm0-.013v.013h.8v-.013zm0-.012v.012h.8v-.012zm0-.013v.013h.8v-.013zm0-.012v.012h.8V12.9zm0-.013v.013h.8v-.013zm0-.012v.012h.8v-.012zm0-.012v.012h.8v-.012zm0-.013v.013h.8v-.013zm0-.012v.012h.8v-.012zm0-.012v.012h.8v-.012zm0-.013v.013h.8v-.013zm0-.012v.012h.8v-.012zm0-.012v.012h.8v-.012zm0-.012v.012h.8v-.012zm0-.012v.012h.8v-.012zm0-.012v.012h.8v-.012zm0-.012v.012h.8v-.012zm0-.012v.012h.8v-.012zm0-.012v.012h.8v-.012zm0-.012v.012h.8v-.012zm0-.012v.012h.8v-.012zm0-.012v.012h.8v-.012zm0-.012v.012h.8v-.012zm0-.012v.012h.8v-.012zm0-.012v.012h.8v-.012zm0-.011v.011h.8v-.011zm0-.012v.012h.8v-.012zm0-.012v.012h.8v-.012zm0-.011v.011h.8v-.01zm0-.012v.011h.8v-.011zm0-.012v.012h.8v-.012zm0-.011v.011h.8v-.011zm0-.012v.012h.8v-.012zm0-.011v.011h.8v-.011zm0-.012v.012h.8v-.012zm0-.011v.011h.8v-.011zm0-.011v.01h.8v-.01zm0-.012v.012h.8v-.012zm0-.011v.011h.8v-.011zm0-.011v.01h.8v-.01zm0-.012v.012h.8v-.012zm0-.01v.01h.8v-.01zm0-.012v.011h.8v-.011zm0-.011v.011h.8v-.011zm0-.011v.01h.8v-.01zm0-.011v.01h.8v-.01zm0-.011v.01h.8v-.01zm0-.011v.01h.8v-.01zm0-.011v.01h.8v-.01zm0-.011v.01h.8v-.01zm0-.01v.01h.8v-.01zm0-.012v.011h.8v-.01zm0-.01v.01h.8v-.01zm0-.011v.01h.8v-.01zm0-.011v.01h.8v-.01zm0-.01v.01h.8v-.01zm0-.011v.01h.8v-.01zm0-.01v.01h.8v-.01zm0-.011v.01h.8v-.01zm0-.01v.01h.8v-.01zm0-.011v.01h.8v-.01zm0-.01v.01h.8v-.01zm0-.011v.01h.8v-.01zm0-.01v.01h.8v-.01zm0-.01v.01h.8v-.01zm0-.011v.01h.8v-.01zm0-.01v.01h.8v-.01zm0-.01v.01h.8v-.01zm0-.01v.01h.8v-.01zm0-.01v.01h.8v-.01zm0-.01v.01h.8v-.01zm0-.01v.01h.8v-.01zm0-.01v.01h.8v-.01zm0-.01v.01h.8v-.01zm0-.01v.01h.8v-.01zm0-.01v.01h.8v-.01zm0-.01v.01h.8v-.01zm0-.01v.01h.8v-.01zm0-.01v.01h.8v-.01zm0-.01v.01h.8v-.01zm0-.009v.01h.8v-.01zm0-.01v.01h.8v-.01zm0-.01v.01h.8v-.01zm0-.009v.01h.8v-.01zm0-.01v.01h.8v-.01zm0-.009v.01h.8v-.01zm0-.009v.01h.8v-.01zm0-.01v.01h.8v-.01zm0-.008v.009h.8v-.01zm0-.01v.01h.8v-.01zm0-.009v.01h.8v-.01zm0-.009v.01h.8v-.01zm0-.01v.01h.8v-.01zm0-.008v.009h.8v-.01zm0-.01v.01h.8v-.01zm0-.008v.009h.8v-.01zm.783-2.057c-.502.538-.783 1.241-.783 2.057h.8c0-.622.21-1.127.568-1.51zm1.568-.944c-.508.161-1.097.44-1.568.944l.585.546c.345-.37.793-.59 1.226-.728zm2.515-.304c-.486 0-1.548-.003-2.515.304l.242.762c.833-.264 1.776-.266 2.273-.266zm.034 0h-.034v.8H20zm.034 0H20v.8h.034zm2.515.304c-.967-.307-2.029-.304-2.515-.304v.8c.497 0 1.44.002 2.273.266zm1.568.944c-.471-.505-1.06-.783-1.568-.944l-.242.762c.432.138.88.359 1.225.728zm.783 2.057c0-.816-.28-1.519-.783-2.057l-.585.546c.358.384.568.889.568 1.51zm0 .009v-.01h-.8v.01zm0 .009v-.01h-.8v.01zm0 .009v-.01h-.8v.01zm0 .009v-.01h-.8v.01zm0 .01v-.01h-.8v.01zm0 .008v-.009h-.8v.01zm0 .01v-.01h-.8v.01zm0 .009v-.01h-.8v.01zm0 .01v-.01h-.8v.01zm0 .008v-.009h-.8v.01zm0 .01v-.01h-.8v.01zm0 .01v-.01h-.8v.01zm0 .009v-.01h-.8v.01zm0 .01v-.01h-.8v.01zm0 .009v-.01h-.8v.01zm0 .01v-.01h-.8v.01zm0 .01v-.01h-.8v.01zm0 .009v-.01h-.8v.01zm0 .01v-.01h-.8v.01zm0 .01v-.01h-.8v.01zm0 .01v-.01h-.8v.01zm0 .01v-.01h-.8v.01zm0 .01v-.01h-.8v.01zm0 .01v-.01h-.8v.01zm0 .01v-.01h-.8v.01zm0 .01v-.01h-.8v.01zm0 .01v-.01h-.8v.01zm0 .01v-.01h-.8v.01zm0 .01v-.01h-.8v.01zm0 .01v-.01h-.8v.01zm0 .01v-.01h-.8v.01zm0 .01v-.01h-.8v.01zm0 .01v-.01h-.8v.01zm0 .011v-.01h-.8v.01zm0 .01v-.01h-.8v.01zm0 .011v-.01h-.8v.01zm0 .01v-.01h-.8v.01zm0 .011v-.01h-.8v.01zm0 .01v-.01h-.8v.01zm0 .011v-.01h-.8v.01zm0 .011v-.01h-.8v.01zm0 .01v-.01h-.8v.01zm0 .011v-.01h-.8v.01zm0 .011v-.01h-.8v.01zm0 .011v-.01h-.8v.01zm0 .01v-.01h-.8v.01zm0 .012v-.011h-.8v.01zm0 .01v-.01h-.8v.01zm0 .012v-.011h-.8v.01zm0 .01v-.01h-.8v.01zm0 .012v-.011h-.8v.01zm0 .01v-.01h-.8v.01zm0 .012v-.011h-.8v.011zm0 .011v-.011h-.8v.011zm0 .011v-.01h-.8v.01zm0 .012v-.012h-.8v.012zm0 .01v-.01h-.8v.01zm0 .012v-.011h-.8v.011zm0 .012v-.012h-.8v.012zm0 .01v-.01h-.8v.01zm0 .012v-.011h-.8v.011zm0 .012v-.012h-.8v.012zm0 .011v-.011h-.8v.011zm0 .012v-.012h-.8v.012zm0 .011v-.011h-.8v.011zm0 .012v-.012h-.8v.012zm0 .011v-.011h-.8v.011zm0 .012v-.01h-.8v.011zm0 .012v-.012h-.8v.012zm0 .012v-.012h-.8v.012zm0 .011v-.011h-.8v.011zm0 .012v-.012h-.8v.012zm0 .012v-.012h-.8v.012zm0 .012v-.012h-.8v.012zm0 .012v-.012h-.8v.012zm0 .012v-.012h-.8v.012zm0 .012v-.012h-.8v.012zm0 .012v-.012h-.8v.012zm0 .012v-.012h-.8v.012zm0 .012v-.012h-.8v.012zm0 .012v-.012h-.8v.012zm0 .012v-.012h-.8v.012zm0 .012v-.012h-.8v.012zm0 .012v-.012h-.8v.012zm0 .012v-.012h-.8v.012zm0 .013v-.013h-.8v.013zm0 .012v-.012h-.8v.012zm0 .012v-.012h-.8v.012zm0 .013v-.013h-.8v.013zm0 .012v-.012h-.8v.012zm0 .012v-.012h-.8v.012zm0 .013v-.013h-.8v.013zm0 .012V12.9h-.8v.012zm0 .013v-.013h-.8v.013zm0 .012v-.012h-.8v.012zm0 .013v-.013h-.8v.013zm0 .013v-.013h-.8v.013zm0 .012v-.012h-.8v.012zm0 .013v-.013h-.8v.013zm0 .013v-.013h-.8V13zm0 .012v-.012h-.8v.012zm0 .013v-.013h-.8v.013zm0 .013v-.013h-.8v.013zm0 .012v-.012h-.8v.012zm0 .013v-.013h-.8v.013zm0 .013v-.013h-.8v.013zm0 .013v-.013h-.8v.013zm0 .013v-.013h-.8v.013zm0 .013v-.013h-.8v.013zm0 .013v-.013h-.8v.013zm0 .013v-.013h-.8v.013zm0 .013v-.013h-.8v.013zm0 .013v-.013h-.8v.013zm0 .013v-.013h-.8v.013zm0 .013v-.013h-.8v.013zm0 .013v-.013h-.8v.013zm0 .013v-.013h-.8v.013zm0 .013v-.013h-.8v.013zm0 .013v-.013h-.8v.013zm0 .014v-.014h-.8v.014zm0 .013v-.013h-.8v.013zm0 .013v-.013h-.8v.013zm0 .013v-.013h-.8v.013zm0 .014v-.014h-.8v.014zm0 .013v-.013h-.8v.013zm0 .013v-.013h-.8v.013zm0 .014v-.014h-.8v.014zm0 .013v-.013h-.8v.013zm0 .014v-.014h-.8v.014zm0 .013v-.013h-.8v.013zm0 .014v-.014h-.8v.014zm0 .013v-.013h-.8v.013zm0 .014v-.014h-.8v.014zm0 .013v-.013h-.8v.013zm0 .014v-.014h-.8v.014zm0 .013v-.013h-.8v.013zm0 .014v-.014h-.8v.014zm0 .014v-.014h-.8v.014zm0 .013v-.014h-.8v.014zm0 .014v-.014h-.8v.014zm0 .014v-.014h-.8v.014zm0 .013v-.013h-.8v.013zm0 .014v-.014h-.8v.014zm0 .014v-.014h-.8v.014zm0 .014v-.014h-.8v.014zm0 .013v-.014h-.8v.014zm0 .014v-.014h-.8v.014zm0 .014v-.014h-.8v.014zm0 .014v-.014h-.8v.014zm0 .014v-.014h-.8v.014zm0 .014v-.014h-.8v.014zm0 .014v-.014h-.8v.014zm0 .014v-.014h-.8v.014zm0 .014v-.014h-.8v.014zm0 .013v-.014h-.8v.014zm0 .014v-.014h-.8v.014zm0 .014v-.013h-.8v.014zm0 .014v-.014h-.8v.014zm0 .015v-.014h-.8v.014zm0 .014v-.014h-.8v.014zm0 .014v-.014h-.8v.014zm0 .014v-.014h-.8v.014zm0 .014v-.014h-.8v.014zm0 .014v-.014h-.8v.014zm0 .014v-.014h-.8v.014zm0 .014v-.014h-.8v.014zm0 .015v-.015h-.8v.015zm0 .014v-.014h-.8v.014zm0 .014v-.014h-.8v.014zm0 .014v-.014h-.8v.014zm0 .015v-.015h-.8v.015zm0 .014v-.014h-.8v.014zm0 .014v-.014h-.8v.014zm0 .014v-.014h-.8v.014zm0 .015v-.015h-.8v.015zm0 .014v-.014h-.8v.014zm0 .014v-.014h-.8v.014zm0 .015v-.015h-.8v.015zm0 .014v-.014h-.8v.014zm0 .015v-.015h-.8v.015zm0 .014v-.014h-.8v.014zm0 .014v-.014h-.8v.014zm0 .015v-.015h-.8v.015zm0 .014v-.014h-.8v.014zm0 .015v-.015h-.8v.015zm0 .014v-.014h-.8v.014zm0 .015v-.015h-.8v.015zm0 .014v-.014h-.8v.014zm0 .015v-.015h-.8v.015zm0 .014v-.014h-.8v.014zm0 .015v-.015h-.8v.015zm0 .014v-.014h-.8v.014zm0 .015v-.015h-.8v.015zm0 .014v-.014h-.8v.014zm0 .015v-.014h-.8v.014zm0 .015v-.015h-.8v.015zm0 .014v-.014h-.8v.014zm0 .015v-.015h-.8v.015zm0 .015v-.015h-.8v.015zm0 .014v-.014h-.8v.014zm0 .015v-.015h-.8v.015zm0 .015v-.015h-.8v.015zm0 .014v-.014h-.8v.014zm0 .015v-.015h-.8v.015zm0 .015v-.015h-.8v.015zm0 .014v-.014h-.8v.014zm0 .015v-.015h-.8v.015zm0 .015v-.015h-.8v.015zm0 .014V14.5h-.8v.014zm0 .015v-.014h-.8v.014zm0 .015v-.015h-.8v.015zm0 .015v-.015h-.8v.015zm0 .015v-.015h-.8v.015zm0 .014v-.014h-.8v.014zm0 .015v-.015h-.8v.015zm0 .015v-.015h-.8v.015zm0 .015v-.015h-.8v.015zm0 .015v-.015h-.8v.015zm0 .014v-.014h-.8v.014zm0 .015v-.015h-.8v.015zm0 .015v-.015h-.8v.015zm0 .015v-.015h-.8v.015zm0 .015v-.015h-.8v.015zm0 .015v-.015h-.8v.015zm0 .014v-.014h-.8v.014zm0 .015v-.014h-.8v.014zm0 .015v-.015h-.8v.015zm0 .015v-.015h-.8v.015zm0 .015v-.015h-.8v.015zm0 .015v-.015h-.8v.015zm0 .015v-.015h-.8v.015zm0 .015v-.015h-.8v.015zm0 .015v-.015h-.8v.015zm0 .014v-.014h-.8v.014zm0 .015v-.014h-.8v.014zm0 .015V14.9h-.8v.015zm0 .015v-.015h-.8v.015zm0 .015v-.015h-.8v.015zm0 .015v-.015h-.8v.015zm0 .015v-.015h-.8v.015zm0 .015v-.015h-.8v.015zm0 .015v-.015h-.8v.015zm0 .015v-.015h-.8v.015zm0 .015v-.015h-.8v.015zm0 .015v-.015h-.8v.015zm0 .015v-.015h-.8v.015zm0 .015v-.015h-.8v.015zm0 .015v-.015h-.8v.015zm0 .015v-.015h-.8v.015zm0 .015v-.015h-.8v.015zm0 .015v-.015h-.8v.015zm0 .014v-.014h-.8v.014zm0 .015v-.014h-.8v.014zm0 .015v-.014h-.8v.014zm0 .016v-.015h-.8v.014zm0 .014V15.2h-.8v.014zm0 .015v-.015h-.8v.015zm0 .015v-.015h-.8v.015zm0 .015v-.015h-.8v.015zm0 .015v-.015h-.8v.015zm0 .015v-.015h-.8v.015zm0 .015v-.015h-.8v.015zm0 .015v-.015h-.8v.015zm0 .015v-.015h-.8v.015zm0 .015v-.015h-.8v.015zm0 .015v-.015h-.8v.015zm0 .015v-.015h-.8v.015zm0 .015v-.015h-.8v.015zm0 .015v-.015h-.8v.015zm0 .015v-.015h-.8v.015zm0 .015v-.015h-.8v.015zm0 .015v-.015h-.8v.015zm0 .015v-.015h-.8v.015zm0 .015v-.015h-.8v.015zm0 .015v-.015h-.8v.015zm0 .015v-.015h-.8v.015zm0 .015v-.015h-.8v.015zm0 .015v-.015h-.8v.015zm0 .015v-.015h-.8v.015zm0 .015v-.015h-.8v.015zm0 .014v-.014h-.8v.014zm0 .016v-.015h-.8v.014zm0 .014v-.014h-.8v.014zm0 .015v-.015h-.8v.015zm0 .015v-.015h-.8v.015zm0 .015v-.015h-.8v.015zm0 .015v-.015h-.8v.015zm0 .015v-.015h-.8v.015zm0 .015v-.015h-.8v.015zm0 .015v-.015h-.8v.015zm0 .015v-.015h-.8v.015zm0 .015v-.015h-.8v.015zm0 .014v-.014h-.8v.014zm0 .015v-.015h-.8v.015zm0 .015v-.015h-.8v.015zm0 .015v-.015h-.8v.015zm0 .015v-.015h-.8v.015zm0 .015v-.015h-.8v.015zm0 .015v-.015h-.8v.015zm0 .014v-.014h-.8v.014zm0 .015v-.015h-.8v.015zm0 .015v-.015h-.8v.015zm0 .015V15.9h-.8v.015zm0 .015v-.015h-.8v.015zm0 .014v-.014h-.8v.014zm0 .015v-.015h-.8v.015zm0 .015v-.015h-.8v.015zm0 .015v-.015h-.8v.015zm0 .015v-.015h-.8v.015zm0 .014v-.014h-.8v.014zm0 .015v-.015h-.8v.015zm0 .015v-.015h-.8v.015zm0 .015v-.015h-.8v.015zm0 .014v-.014h-.8v.014zm0 .015v-.015h-.8v.015zm0 .015v-.015h-.8v.015zm0 .014v-.014h-.8v.014zm0 .015v-.015h-.8v.015zm0 .015v-.015h-.8v.015zm0 .014v-.014h-.8v.014zm0 .015v-.015h-.8v.015zm0 .015v-.015h-.8v.015zm0 .014v-.014h-.8v.014zm0 .015v-.015h-.8v.015zm0 .015v-.015h-.8v.015zm0 .014v-.014h-.8v.014zm0 .015v-.015h-.8v.015zm0 .014v-.014h-.8v.014zm0 .015v-.015h-.8v.015zm0 .014v-.014h-.8v.014zm0 .015v-.015h-.8v.015zm0 .014v-.014h-.8v.014zm0 .015v-.015h-.8v.015zm0 .014v-.014h-.8v.014zm0 .015v-.015h-.8v.015zm0 .014v-.014h-.8v.014zm0 .015v-.015h-.8v.015zm0 .014v-.014h-.8v.014zm0 .015v-.015h-.8v.015zm0 .014v-.014h-.8v.014zm0 .014v-.014h-.8v.014zm0 .015v-.015h-.8v.015zm0 .014v-.014h-.8v.014zm0 .015V16.5h-.8v.015zm0 .014v-.014h-.8v.014zm0 .014v-.014h-.8v.014zm0 .015v-.015h-.8v.015zm0 .014v-.014h-.8v.014zm0 .014v-.014h-.8v.014zm0 .014v-.014h-.8v.014zm0 .015V16.6h-.8v.015zm0 .014v-.014h-.8v.014zm0 .014v-.014h-.8v.014zm0 .014v-.014h-.8v.014zm0 .015v-.015h-.8v.015zm0 .014v-.014h-.8v.014zm0 .014v-.014h-.8v.014zm0 .014V16.7h-.8v.014zm0 .014v-.014h-.8v.014zm0 .014v-.014h-.8v.014zm0 .014v-.014h-.8v.014zm0 .014v-.014h-.8v.014zm0 .014v-.014h-.8v.014zm0 .014v-.014h-.8v.014zm0 .014v-.014h-.8v.014zm0 .014v-.014h-.8v.014zm0 .014v-.014h-.8v.014zm0 .014v-.014h-.8v.014zm0 .014v-.014h-.8v.014zm0 .014v-.014h-.8v.014zm0 .014v-.014h-.8v.014zm0 .014v-.014h-.8v.014zm0 .014v-.014h-.8v.014zm0 .013v-.013h-.8v.013zm0 .014v-.014h-.8v.014zm0 .014v-.014h-.8v.014zm0 .014v-.014h-.8v.014zm0 .014v-.014h-.8v.014zm0 .013v-.014h-.8v.014zm0 .014v-.014h-.8v.014zm0 .014v-.014h-.8v.014zm0 .013v-.013h-.8v.013zm0 .014v-.014h-.8v.014zm0 .014v-.014h-.8v.014zm0 .013v-.014h-.8v.014zm0 .014v-.014h-.8v.014zm0 .013v-.013h-.8v.013zm0 .014v-.014h-.8v.014zm0 .013v-.013h-.8v.013zm0 .014v-.014h-.8v.014zm0 .013v-.013h-.8v.013zm0 .014v-.014h-.8v.014zm0 .013v-.013h-.8v.013zm0 .013v-.013h-.8v.013zm0 .014v-.014h-.8v.014zm0 .013v-.013h-.8v.013zm0 .013v-.013h-.8v.013zm0 .014v-.014h-.8v.014zm0 .013v-.013h-.8v.013zm0 .013v-.013h-.8v.013zm0 .013v-.013h-.8v.013zm0 .014v-.014h-.8v.014zm0 .013v-.013h-.8v.013zm0 .013v-.013h-.8v.013zm0 .013v-.013h-.8v.013zm0 .013v-.013h-.8v.013zm0 .013v-.013h-.8v.013zm0 .013v-.013h-.8v.013zm0 .013v-.013h-.8v.013zm0 .013v-.013h-.8v.013zm0 .013v-.013h-.8v.013zm0 .013v-.013h-.8v.013zm0 .013v-.013h-.8v.013zm0 .013v-.013h-.8v.013zm0 .013v-.013h-.8v.013zm0 .012v-.012h-.8v.012zm0 .013v-.013h-.8v.013zm0 .013v-.013h-.8v.013zm0 .013v-.013h-.8v.013zm0 .012v-.012h-.8v.012zm0 .013v-.012h-.8v.012zm0 .013v-.013h-.8v.013zm0 .012v-.012h-.8v.012zm0 .013v-.013h-.8v.013zm0 .012V17.6h-.8v.012zm0 .013v-.012h-.8v.012zm0 .013v-.013h-.8v.013zm0 .012v-.012h-.8v.012zm0 .012v-.012h-.8v.012zm0 .013v-.012h-.8v.012zm0 .012v-.012h-.8v.012zm0 .013v-.013h-.8v.013zm0 .012v-.012h-.8v.012zm0 .012v-.012h-.8v.012zm0 .012v-.012h-.8v.012zm0 .013v-.013h-.8v.013zm0 .012v-.012h-.8v.012zm0 .012v-.012h-.8v.012zm0 .012v-.012h-.8v.012zm0 .012v-.012h-.8v.012zm0 .012v-.012h-.8v.012zm0 .012v-.012h-.8v.012zm0 .012v-.012h-.8v.012zm0 .012v-.012h-.8v.012zm0 .012v-.012h-.8v.012zm0 .012v-.012h-.8v.012zm0 .012v-.012h-.8v.012zm0 .012v-.012h-.8v.012zm0 .012v-.012h-.8v.012zm0 .011v-.011h-.8v.011zm0 .012v-.012h-.8v.012zm0 .012v-.012h-.8v.012zm0 .012v-.012h-.8v.012zm0 .011v-.011h-.8v.011zm0 .012v-.012h-.8v.012zm0 .011v-.011h-.8v.011zm0 .012v-.012h-.8v.012zm0 .011v-.011h-.8v.011zm0 .012v-.012h-.8v.012zm0 .011v-.011h-.8v.011zm0 .012v-.012h-.8v.012zm0 .011v-.011h-.8v.011zm0 .011v-.011h-.8v.011zm0 .011v-.01h-.8v.01zm0 .012v-.012h-.8v.012zm0 .011v-.011h-.8v.011zm0 .011v-.01h-.8v.011zm0 .011v-.01h-.8v.01zm0 .011v-.01h-.8v.01zm0 .011v-.01h-.8v.01zm0 .011v-.01h-.8v.01zm0 .011v-.01h-.8v.01zm0 .011v-.01h-.8v.01zm0 .011v-.01h-.8v.01zm0 .011v-.01h-.8v.01zm0 .01v-.01h-.8v.01zm0 .012v-.011h-.8v.01zm0 .01v-.01h-.8v.01zm0 .011v-.01h-.8v.01zm0 .01v-.01h-.8v.01zm0 .011v-.01h-.8v.01zm0 .011v-.01h-.8v.01zm0 .01v-.01h-.8v.01zm0 .011v-.01h-.8v.01zm0 .01v-.01h-.8v.01zm0 .011v-.01h-.8v.01zm0 .01v-.01h-.8v.01zm0 .01v-.01h-.8v.01zm0 .011v-.01h-.8v.01zm0 .01v-.01h-.8v.01zm0 .01v-.01h-.8v.01zm0 .01v-.01h-.8v.01zm0 .01v-.01h-.8v.01zm0 .011v-.01h-.8v.01zm0 .01v-.01h-.8v.01zm0 .01v-.01h-.8v.01zm0 .01v-.01h-.8v.01zm0 .01v-.01h-.8v.01zm0 .01v-.01h-.8v.01zm0 .01v-.01h-.8v.01zm0 .01v-.01h-.8v.01zm0 .01v-.01h-.8v.01zm0 .01v-.01h-.8v.01zm0 .009v-.01h-.8v.01zm0 .01v-.01h-.8v.01zm0 .009v-.01h-.8v.01zm0 .01v-.01h-.8v.01zm0 .009v-.01h-.8v.01zm0 .01v-.01h-.8v.01zm0 .009v-.01h-.8v.01zm0 .01v-.01h-.8v.01zm0 .009v-.01h-.8v.01zm0 1.904v-1.904h-.8v1.904zm0 8.524v-8.524h-.8V29zm8.1-.4h-8.5v.8H33zm-.4-4.267V29h.8v-4.666zm-3.6.4h4v-.8h-4zm-2.4-2.4a2.4 2.4 0 0 0 2.4 2.4v-.8a1.6 1.6 0 0 1-1.6-1.6zm0-3.714v3.715h.8v-3.715zm2.4-2.4a2.4 2.4 0 0 0-2.4 2.4h.8a1.6 1.6 0 0 1 1.6-1.6zm4 0h-4v.8h4zm-.4-4.267v4.667h.8v-4.666zm-4.6.4h5v-.8h-5zm-1.4-1.4a1.4 1.4 0 0 0 1.4 1.4v-.8a.6.6 0 0 1-.6-.6zm1.4-1.4a1.4 1.4 0 0 0-1.4 1.4h.8a.6.6 0 0 1 .6-.6zm5 0h-5v.8h5zm2.4 2.4a2.4 2.4 0 0 0-2.4-2.4v.8a1.6 1.6 0 0 1 1.6 1.6zm0 4.667v-4.666h-.8v4.666zm-2.4 2.4a2.4 2.4 0 0 0 2.4-2.4h-.8a1.6 1.6 0 0 1-1.6 1.6zm-4 0h4v-.8h-4zm.4 3.315v-3.715h-.8v3.715zm3.6-.4h-4v.8h4zm2.4 2.4a2.4 2.4 0 0 0-2.4-2.4v.8a1.6 1.6 0 0 1 1.6 1.6zm0 4.666v-4.666h-.8V29zM33 31.4a2.4 2.4 0 0 0 2.4-2.4h-.8a1.6 1.6 0 0 1-1.6 1.6zm-8.5 0H33v-.8h-8.5zM22.1 29a2.4 2.4 0 0 0 2.4 2.4v-.8a1.6 1.6 0 0 1-1.6-1.6z" mask="url(#e)"/><circle cx="17.875" cy="15.125" r="1.125" fill="#000"/><circle cx="22.125" cy="15.125" r="1.125" fill="#000"/></g></g><rect width="37.9" height="37.9" x="1.05" y="1.05" stroke="#fff" stroke-opacity=".15" stroke-width="2.1" rx="6.95"/><defs><linearGradient id="b" x1="20" x2="20" y1="0" y2="40" gradientUnits="userSpaceOnUse"><stop stop-color="#2c2a07"/><stop offset="1" stop-color="#1c1604"/></linearGradient><linearGradient id="d" x1="20" x2="20" y1="8.957" y2="31.044" gradientUnits="userSpaceOnUse"><stop stop-color="#e4d652"/><stop offset="1" stop-color="#cbba24"/></linearGradient><clipPath id="a"><rect width="40" height="40" fill="#fff" rx="8"/></clipPath><filter id="c" width="38.8" height="36" x=".6" y="2" color-interpolation-filters="sRGB" filterUnits="userSpaceOnUse"><feFlood flood-opacity="0" result="BackgroundImageFix"/><feColorMatrix in="SourceAlpha" result="hardAlpha" values="0 0 0 0 0 0 0 0 0 0 0 0 0 0 0 0 0 0 127 0"/><feOffset/><feGaussianBlur stdDeviation="2"/><feComposite in2="hardAlpha" operator="out"/><feColorMatrix values="0 0 0 0 0 0 0 0 0 0 0 0 0 0 0 0 0 0 0.25 0"/><feBlend in2="BackgroundImageFix" result="effect1_dropShadow_2_1947"/><feBlend in="SourceGraphic" in2="effect1_dropShadow_2_1947" result="shape"/></filter></defs></svg>