<svg xmlns="http://www.w3.org/2000/svg" width="40" height="40" fill="none" viewBox="0 0 40 40"><rect width="40" height="40" fill="url(#a)" rx="8"/><rect width="37.9" height="37.9" x="1.05" y="1.05" stroke="#fff" stroke-opacity=".15" stroke-width="2.1" rx="6.95"/><g filter="url(#b)"><path fill="#fff" fill-rule="evenodd" d="M19.785 13.034h12.061v4.923H19.785z" clip-rule="evenodd"/><path fill="#3ecc5f" fill-rule="evenodd" d="M8.872 29.104a2.86 2.86 0 0 1-2.485-1.447c-.253.44-.387.939-.387 1.447C6 30.704 7.286 32 8.872 32h2.872v-2.896z" clip-rule="evenodd"/><path fill="#3ecc5f" fill-rule="evenodd" d="m21.792 13.813 10.054-.634v-1.448c0-1.599-1.285-2.895-2.871-2.895H16.052l-.36-.627a.413.413 0 0 0-.717 0l-.36.627-.358-.627a.413.413 0 0 0-.718 0l-.36.627-.358-.627a.413.413 0 0 0-.718 0l-.36.627h-.008l-.595-.6a.413.413 0 0 0-.694.188l-.196.74-.746-.202a.416.416 0 0 0-.507.511l.2.752-.733.198a.42.42 0 0 0-.186.7l.594.6v.008l-.622.362a.42.42 0 0 0 0 .724l.622.362-.622.362a.42.42 0 0 0 0 .724l.622.362-.622.362a.42.42 0 0 0 0 .724l.622.362-.622.362a.42.42 0 0 0 0 .723l.622.362-.622.362a.42.42 0 0 0 0 .724l.622.362-.622.362a.42.42 0 0 0 0 .724l.622.362-.622.362a.42.42 0 0 0 0 .724l.622.362-.622.362a.42.42 0 0 0 0 .723l.622.363-.622.361a.42.42 0 0 0 0 .724l.622.362-.622.362a.42.42 0 0 0 0 .724l.622.362-.622.362a.42.42 0 0 0 0 .724l.622.362-.622.362a.42.42 0 0 0 0 .724l.622.362c0 1.599 1.286 2.895 2.872 2.895h17.23c1.587 0 2.872-1.296 2.872-2.895V17.522l-10.054-.633a1.52 1.52 0 0 1-1.018-.483 1.55 1.55 0 0 1-.415-1.055c0-.814.628-1.488 1.433-1.538" clip-rule="evenodd"/><path fill="#3ecc5f" fill-rule="evenodd" d="M26.103 32h4.307v-5.791h-4.308z" clip-rule="evenodd"/><path fill="#44d860" fill-rule="evenodd" d="M33.283 28.38q-.047.002-.092.01l-.017-.066a.73.73 0 0 0 .178-1.227.71.71 0 0 0-.888-.014l-.047-.049a.721.721 0 0 0-.907-1.073.72.72 0 0 0-.327.357l-.063-.017c.003-.03.009-.06.009-.092a.73.73 0 0 0-.21-.512.715.715 0 0 0-1.016 0 .73.73 0 0 0-.21.512q.001.048.01.092l-.065.017a.72.72 0 0 0-.804-.426.72.72 0 0 0-.574.71.72.72 0 0 0 .145.432 2.9 2.9 0 0 0-.866 2.07c0 1.6 1.286 2.896 2.872 2.896 1.34 0 2.464-.928 2.78-2.18q.044.006.092.008c.19 0 .373-.076.507-.212a.727.727 0 0 0-.507-1.235" clip-rule="evenodd"/><path fill="#3ecc5f" fill-rule="evenodd" d="M27.54 23.313h4.307v-2.895h-4.308z" clip-rule="evenodd"/><path fill="#44d860" fill-rule="evenodd" d="M33.282 22.228a.363.363 0 0 0 0-.724q-.023 0-.046.004l-.008-.032a.36.36 0 0 0 .213-.405.36.36 0 0 0-.352-.291.35.35 0 0 0-.216.075l-.024-.024a.36.36 0 1 0-.617-.358 1.4 1.4 0 0 0-.386-.055c-.793 0-1.436.648-1.436 1.448s.643 1.447 1.436 1.447q.201-.002.386-.054a.36.36 0 0 0 .402.213.36.36 0 0 0 .288-.355.36.36 0 0 0-.073-.216l.024-.024a.35.35 0 0 0 .444-.008.363.363 0 0 0-.09-.613l.01-.033q.022.004.045.005" clip-rule="evenodd"/><path fill="#000" fill-rule="evenodd" d="M14.616 13.541a.36.36 0 0 1-.359-.362c0-.599-.483-1.086-1.077-1.086s-1.077.487-1.077 1.086a.358.358 0 1 1-.718 0c0-.998.805-1.81 1.795-1.81s1.795.812 1.795 1.81a.36.36 0 0 1-.359.362" clip-rule="evenodd"/><path fill="#ffff50" fill-rule="evenodd" d="M20.359 32h8.615c1.586 0 2.872-1.296 2.872-2.895V18.97h-8.615c-1.586 0-2.872 1.297-2.872 2.896z" clip-rule="evenodd"/><path fill="#000" fill-rule="evenodd" d="M29.695 23.458H22.51a.145.145 0 0 1 0-.29h7.185a.145.145 0 0 1 0 .29m0 2.896H22.51a.145.145 0 0 1 0-.29h7.185a.145.145 0 0 1 0 .29m0 2.895H22.51a.143.143 0 0 1-.144-.144q.001-.06.043-.103a.14.14 0 0 1 .101-.042h7.185a.143.143 0 0 1 .144.145.143.143 0 0 1-.143.145m0-7.212H22.51a.143.143 0 0 1-.144-.144.145.145 0 0 1 .144-.145h7.185c.038 0 .075.015.102.042a.145.145 0 0 1-.102.247m0 2.869H22.51a.143.143 0 0 1-.144-.145c0-.038.016-.075.043-.102a.14.14 0 0 1 .101-.043h7.185a.143.143 0 0 1 .144.145.143.143 0 0 1-.143.145m0 2.896H22.51a.143.143 0 0 1-.144-.145q.001-.06.043-.103a.14.14 0 0 1 .101-.042h7.185a.143.143 0 0 1 .144.145.143.143 0 0 1-.143.145m2.151-13.376h-.005c-.443.014-.653.462-.838.857-.194.412-.343.68-.588.672-.271-.01-.426-.318-.59-.645-.19-.376-.405-.802-.857-.786-.437.015-.648.405-.834.748-.198.366-.332.589-.591.578-.277-.01-.424-.26-.594-.552-.19-.323-.41-.687-.853-.675-.43.015-.64.345-.827.637-.197.309-.335.497-.598.485-.284-.01-.43-.218-.6-.46-.19-.27-.404-.578-.846-.563-.42.015-.631.285-.818.524-.176.226-.315.406-.607.394a.143.143 0 0 0-.149.14.145.145 0 0 0 .139.15c.433.014.652-.26.843-.505.169-.216.315-.403.602-.413.277-.012.406.161.602.44.187.266.398.567.823.583.446.015.66-.321.85-.618.17-.266.316-.495.596-.504.257-.01.398.195.595.532.186.319.397.679.831.695.449.015.666-.38.854-.73.164-.301.318-.587.592-.597.257-.006.392.231.59.627.186.37.396.789.836.805h.025c.44 0 .649-.445.833-.839.164-.349.319-.677.584-.69z" clip-rule="evenodd"/><path fill="#3ecc5f" fill-rule="evenodd" d="M17.488 32h5.743v-5.791h-5.743z" clip-rule="evenodd"/><path fill="#d8d8d8" d="m31.811 16.976-11.168 3.017a.29.29 0 0 0-.203.354l1.091 4.107a.287.287 0 0 0 .352.205l11.168-3.017a.29.29 0 0 0 .203-.355l-1.091-4.107a.287.287 0 0 0-.352-.204"/><path fill="#4a4a4a" d="m24.014 22.24-.4.109a.145.145 0 0 0-.102.177l.107.403c.02.078.1.123.176.103l.4-.108a.146.146 0 0 0 .102-.178l-.108-.403a.143.143 0 0 0-.175-.102m.802-.217-.4.108a.145.145 0 0 0-.101.177l.107.403c.02.078.1.124.176.103l.4-.108c.076-.02.122-.1.101-.178l-.107-.403a.144.144 0 0 0-.176-.102m.803-.217-.4.108a.145.145 0 0 0-.102.178l.107.403c.02.077.1.123.176.102l.4-.108c.077-.02.122-.1.102-.177l-.108-.403a.143.143 0 0 0-.175-.103m.803-.217-.4.108a.145.145 0 0 0-.101.178l.107.403c.02.077.099.123.175.102l.4-.108c.077-.02.122-.1.102-.177l-.107-.403a.143.143 0 0 0-.176-.103m.802-.216-.4.108a.145.145 0 0 0-.102.177l.107.403c.02.077.1.123.176.102l.4-.108c.077-.02.122-.1.102-.177l-.108-.403a.143.143 0 0 0-.175-.102m.802-.217-.4.108a.145.145 0 0 0-.102.177l.108.403c.02.077.099.123.175.103l.4-.108a.146.146 0 0 0 .102-.178l-.107-.403a.143.143 0 0 0-.176-.102m.804-.217-.4.108a.145.145 0 0 0-.102.177l.107.403c.02.078.1.123.176.103l.4-.108a.145.145 0 0 0 .101-.178l-.107-.403a.143.143 0 0 0-.176-.102m.803-.217-.4.108a.145.145 0 0 0-.101.177l.107.403c.02.078.1.123.176.103l.4-.108c.076-.02.122-.1.101-.178l-.107-.403a.144.144 0 0 0-.176-.102m.803-.217-.4.108a.145.145 0 0 0-.102.177l.107.404c.02.077.1.123.176.102l.4-.108c.077-.02.122-.1.102-.177l-.108-.404a.143.143 0 0 0-.175-.102"/><path fill="#4a4a4a" fill-rule="evenodd" d="m21.482 22.925 1.704-.46a.14.14 0 0 1 .176.102l.107.403a.145.145 0 0 1-.102.177l-1.704.46a.143.143 0 0 1-.175-.102l-.108-.403a.146.146 0 0 1 .102-.177m9.38-2.534 1.705-.46a.143.143 0 0 1 .176.102l.107.403a.146.146 0 0 1-.102.177l-1.704.46a.143.143 0 0 1-.176-.102l-.107-.403a.146.146 0 0 1 .102-.177m-9.815.899.65-.175a.144.144 0 0 1 .176.102l.107.404a.146.146 0 0 1-.101.177l-.65.176a.143.143 0 0 1-.177-.103l-.107-.403a.146.146 0 0 1 .102-.177" clip-rule="evenodd"/><path fill="#4a4a4a" d="m22.502 20.898-.4.108a.145.145 0 0 0-.102.178l.107.403c.02.077.1.123.176.102l.4-.108c.076-.02.122-.1.102-.177L22.677 21a.143.143 0 0 0-.175-.103m.802-.216-.4.108a.145.145 0 0 0-.102.178l.107.403c.021.077.1.123.176.102l.4-.108c.077-.02.122-.1.102-.177l-.107-.403a.144.144 0 0 0-.176-.103m.802-.216-.4.108a.145.145 0 0 0-.101.177l.107.403c.02.077.1.123.176.102l.4-.108c.076-.02.122-.1.101-.177l-.107-.403a.144.144 0 0 0-.176-.102m.804-.217-.4.108a.145.145 0 0 0-.102.177l.107.403c.02.077.1.123.176.103l.4-.109c.076-.02.122-.1.101-.177l-.107-.403a.143.143 0 0 0-.176-.102m.803-.218-.4.109a.145.145 0 0 0-.102.177l.108.403c.02.078.099.123.175.103l.4-.108a.146.146 0 0 0 .102-.178l-.107-.403a.144.144 0 0 0-.176-.102m.802-.217-.4.108a.145.145 0 0 0-.101.177l.107.404c.02.077.1.122.176.102l.4-.108c.076-.02.122-.1.101-.177l-.107-.404a.143.143 0 0 0-.176-.102m.803-.217-.4.108a.145.145 0 0 0-.102.178l.108.403c.02.077.099.123.176.102l.4-.108c.076-.02.121-.1.1-.177l-.106-.404a.144.144 0 0 0-.176-.102m.803-.217-.4.108a.145.145 0 0 0-.102.178l.107.403c.02.077.1.123.176.102l.4-.108c.077-.02.122-.1.102-.177l-.107-.403a.144.144 0 0 0-.176-.103m.802-.216-.4.107a.145.145 0 0 0-.101.178l.107.403c.02.077.099.123.175.102l.4-.108c.077-.02.122-.1.102-.177l-.107-.403a.143.143 0 0 0-.176-.102m.803-.217-.4.108a.145.145 0 0 0-.102.177l.107.403c.02.077.1.123.176.102l.4-.107a.146.146 0 0 0 .102-.178l-.107-.403a.144.144 0 0 0-.176-.102m.802-.217-.4.108a.145.145 0 0 0-.101.177l.107.403c.02.078.1.123.176.103l.4-.108a.145.145 0 0 0 .101-.178l-.107-.403a.144.144 0 0 0-.176-.102m.803-.217-.4.108a.145.145 0 0 0-.101.177l.107.404c.02.077.1.123.176.102l.4-.108c.076-.02.122-.1.101-.178l-.107-.403a.143.143 0 0 0-.176-.102m.803-.217-.4.108a.145.145 0 0 0-.102.177l.107.404c.021.077.1.123.176.102l.4-.108c.077-.02.122-.1.102-.177l-.107-.404a.144.144 0 0 0-.176-.102"/><path fill="#4a4a4a" fill-rule="evenodd" d="m32.108 18.205-.65.176a.143.143 0 0 1-.176-.103l-.107-.403a.146.146 0 0 1 .101-.177l.65-.176a.143.143 0 0 1 .177.102l.107.403a.146.146 0 0 1-.102.178" clip-rule="evenodd"/><path fill="#4a4a4a" d="m30.655 18.597.4-.108c.077-.02.122-.1.102-.177l-.108-.403a.143.143 0 0 0-.175-.103l-.4.108a.145.145 0 0 0-.102.178l.107.403c.021.077.1.123.176.102m-.802.217.4-.108c.076-.02.122-.1.101-.177l-.107-.403a.144.144 0 0 0-.176-.103l-.4.108a.145.145 0 0 0-.101.178l.107.403c.02.077.1.123.176.102m-.803.216.4-.107c.076-.02.122-.1.101-.177l-.107-.404a.144.144 0 0 0-.176-.102l-.4.108a.145.145 0 0 0-.101.177l.107.404c.02.077.1.123.176.102m-.803.217.4-.108a.146.146 0 0 0 .102-.178l-.108-.403a.143.143 0 0 0-.175-.102l-.4.108a.145.145 0 0 0-.102.177l.107.403c.02.078.1.123.176.103m-.802.217.4-.108a.145.145 0 0 0 .101-.178l-.107-.403a.143.143 0 0 0-.176-.102l-.4.108a.145.145 0 0 0-.101.177l.107.403c.02.078.1.123.176.103m-.802.217.4-.108a.145.145 0 0 0 .101-.178l-.107-.403a.143.143 0 0 0-.176-.102l-.4.108a.145.145 0 0 0-.101.177l.107.403c.02.077.099.123.176.102m-.803.217.4-.108c.076-.02.121-.1.1-.177l-.106-.403a.143.143 0 0 0-.176-.102l-.4.107a.145.145 0 0 0-.102.178l.107.403c.021.077.1.123.176.102m-.802.217.4-.108c.076-.02.122-.1.101-.177l-.107-.403a.144.144 0 0 0-.176-.103l-.4.108a.145.145 0 0 0-.101.178l.107.403c.02.077.099.123.176.102m-.803.217.4-.108c.076-.02.122-.1.101-.177l-.107-.404a.144.144 0 0 0-.176-.102l-.4.108a.145.145 0 0 0-.101.177l.107.404c.02.077.1.123.176.102m-.803.217.4-.108c.077-.02.122-.1.102-.177l-.108-.404a.143.143 0 0 0-.175-.102l-.4.108a.145.145 0 0 0-.102.177l.107.404c.02.077.1.123.176.102m-.802.217.4-.108a.145.145 0 0 0 .101-.178l-.107-.403a.144.144 0 0 0-.176-.102l-.4.108a.145.145 0 0 0-.101.177l.107.403c.02.078.1.123.176.103m-.803.217.4-.108a.146.146 0 0 0 .102-.178l-.108-.403a.143.143 0 0 0-.175-.102l-.4.108a.145.145 0 0 0-.102.177l.107.403c.02.077.1.123.176.103m-.802.217.4-.109c.076-.02.121-.1.1-.177l-.106-.403a.143.143 0 0 0-.176-.102l-.4.108a.145.145 0 0 0-.102.177l.108.403c.02.077.099.123.175.102"/><path fill="#4a4a4a" d="m30.655 18.597.4-.108c.077-.02.122-.1.102-.177l-.108-.403a.143.143 0 0 0-.175-.103l-.4.108a.145.145 0 0 0-.102.178l.107.403c.021.077.1.123.176.102m-.802.217.4-.108c.076-.02.122-.1.101-.177l-.107-.403a.144.144 0 0 0-.176-.103l-.4.108a.145.145 0 0 0-.101.178l.107.403c.02.077.1.123.176.102m-.803.216.4-.107c.076-.02.122-.1.101-.177l-.107-.404a.144.144 0 0 0-.176-.102l-.4.108a.145.145 0 0 0-.101.177l.107.404c.02.077.1.123.176.102m-.803.217.4-.108a.146.146 0 0 0 .102-.178l-.108-.403a.143.143 0 0 0-.175-.102l-.4.108a.145.145 0 0 0-.102.177l.107.403c.02.078.1.123.176.103m-.802.217.4-.108a.145.145 0 0 0 .101-.178l-.107-.403a.143.143 0 0 0-.176-.102l-.4.108a.145.145 0 0 0-.101.177l.107.403c.02.078.1.123.176.103m-.802.217.4-.108a.145.145 0 0 0 .101-.178l-.107-.403a.143.143 0 0 0-.176-.102l-.4.108a.145.145 0 0 0-.101.177l.107.403c.02.077.099.123.176.102m-.803.217.4-.108c.076-.02.121-.1.1-.177l-.106-.403a.143.143 0 0 0-.176-.102l-.4.107a.145.145 0 0 0-.102.178l.107.403c.021.077.1.123.176.102m-.802.217.4-.108c.076-.02.122-.1.101-.177l-.107-.403a.144.144 0 0 0-.176-.103l-.4.108a.145.145 0 0 0-.101.178l.107.403c.02.077.099.123.176.102m-.803.217.4-.108c.076-.02.122-.1.101-.177l-.107-.404a.144.144 0 0 0-.176-.102l-.4.108a.145.145 0 0 0-.101.177l.107.404c.02.077.1.123.176.102m-.803.217.4-.108c.077-.02.122-.1.102-.177l-.108-.404a.143.143 0 0 0-.175-.102l-.4.108a.145.145 0 0 0-.102.177l.107.404c.02.077.1.123.176.102m-.802.217.4-.108a.145.145 0 0 0 .101-.178l-.107-.403a.144.144 0 0 0-.176-.102l-.4.108a.145.145 0 0 0-.101.177l.107.403c.02.078.1.123.176.103m-.803.217.4-.108a.146.146 0 0 0 .102-.178l-.108-.403a.143.143 0 0 0-.175-.102l-.4.108a.145.145 0 0 0-.102.177l.107.403c.02.077.1.123.176.103m-.802.217.4-.109c.076-.02.121-.1.1-.177l-.106-.403a.143.143 0 0 0-.176-.102l-.4.108a.145.145 0 0 0-.102.177l.108.403c.02.077.099.123.175.102"/><path fill="#4a4a4a" fill-rule="evenodd" d="m21.263 22.1.926-.25a.143.143 0 0 1 .176.102l.107.403a.146.146 0 0 1-.101.177l-.927.25a.143.143 0 0 1-.176-.102l-.107-.403a.146.146 0 0 1 .102-.177" clip-rule="evenodd"/><path fill="#4a4a4a" d="m23.018 21.626-.4.108a.145.145 0 0 0-.102.177l.107.403c.02.078.1.124.176.103l.4-.108c.077-.02.122-.1.102-.178l-.108-.403a.143.143 0 0 0-.175-.102m.802-.216-.4.107a.145.145 0 0 0-.102.178l.108.403c.02.077.099.123.175.102l.4-.108c.077-.02.122-.1.102-.177l-.107-.403a.144.144 0 0 0-.176-.103m.803-.217-.4.108a.145.145 0 0 0-.101.178l.107.403c.02.077.099.123.176.102l.4-.108c.076-.02.122-.1.101-.177l-.107-.403a.144.144 0 0 0-.176-.103m.802-.216-.4.108a.145.145 0 0 0-.102.177l.108.403c.02.077.099.123.175.102l.4-.108c.077-.02.122-.1.102-.177l-.107-.403a.144.144 0 0 0-.176-.102m.803-.217-.4.108a.145.145 0 0 0-.101.177l.107.403c.02.077.099.123.176.102l.4-.107a.145.145 0 0 0 .101-.178l-.107-.403a.144.144 0 0 0-.176-.102m.802-.217-.4.108a.145.145 0 0 0-.101.177l.107.403c.02.078.1.123.176.103l.4-.108a.145.145 0 0 0 .101-.178l-.107-.403a.143.143 0 0 0-.176-.102m.804-.217-.4.108a.145.145 0 0 0-.102.177l.107.403c.02.078.1.123.176.103l.4-.108c.077-.02.122-.1.101-.177l-.107-.404a.143.143 0 0 0-.175-.102m.801-.217-.4.108a.145.145 0 0 0-.101.177l.107.404c.02.077.1.123.176.102l.4-.108c.076-.02.122-.1.101-.177l-.107-.404a.143.143 0 0 0-.176-.102m.803-.217-.4.108a.145.145 0 0 0-.101.178l.107.403c.02.077.099.123.176.102l.4-.108c.076-.02.121-.1.101-.177l-.107-.403a.143.143 0 0 0-.176-.103m.802-.217-.4.108a.145.145 0 0 0-.1.178l.107.403c.02.077.099.123.175.102l.4-.108c.077-.02.122-.1.102-.177l-.107-.403a.144.144 0 0 0-.176-.103m.802-.216-.4.108a.145.145 0 0 0-.101.177l.107.403c.02.077.1.123.176.102l.4-.108c.076-.02.122-.1.101-.177l-.107-.403a.144.144 0 0 0-.176-.102"/><path fill="#4a4a4a" fill-rule="evenodd" d="m31.471 19.342.877-.237a.143.143 0 0 1 .175.103l.108.403a.146.146 0 0 1-.102.177l-.876.237a.143.143 0 0 1-.176-.102l-.107-.403a.146.146 0 0 1 .101-.178" clip-rule="evenodd"/><path fill="#4a4a4a" d="m22.106 23.661-.4.108a.145.145 0 0 0-.101.177l.107.404c.02.077.099.123.176.102l.4-.108c.076-.02.122-.1.1-.177l-.106-.404a.143.143 0 0 0-.176-.102m.803-.217-.4.108a.145.145 0 0 0-.102.178l.107.403c.02.077.1.123.176.102l.4-.108c.077-.02.122-.1.102-.177l-.108-.403a.143.143 0 0 0-.175-.103m.802-.217-.4.108a.145.145 0 0 0-.101.178l.107.403c.02.077.1.123.176.102l.4-.108c.076-.02.122-.1.101-.177l-.107-.403a.144.144 0 0 0-.176-.103m.803-.217-.4.108a.145.145 0 0 0-.101.178l.107.403c.02.077.1.123.176.102l.4-.108c.076-.02.122-.1.101-.177l-.107-.403a.143.143 0 0 0-.176-.102"/><path fill="#4a4a4a" fill-rule="evenodd" d="m24.917 22.902 3.86-1.043a.14.14 0 0 1 .177.102l.107.403a.146.146 0 0 1-.102.177l-3.861 1.044a.14.14 0 0 1-.176-.103l-.107-.403a.146.146 0 0 1 .101-.177m4.263-1.152.5-.135a.143.143 0 0 1 .177.102l.107.403a.146.146 0 0 1-.102.178l-.5.135a.143.143 0 0 1-.176-.103l-.107-.403a.146.146 0 0 1 .101-.177" clip-rule="evenodd"/><path fill="#4a4a4a" d="m30.484 21.398-.4.108a.145.145 0 0 0-.101.177l.107.403c.02.078.099.123.175.103l.4-.108a.146.146 0 0 0 .102-.178l-.107-.403a.143.143 0 0 0-.176-.102m.803-.218-.4.109a.145.145 0 0 0-.102.177l.107.403c.02.078.1.123.176.103l.4-.108c.077-.02.122-.1.102-.178l-.108-.403a.144.144 0 0 0-.175-.102m1.504-.407-.4.108a.145.145 0 0 0-.101.178l.107.403c.02.077.099.123.176.102l.4-.108c.076-.02.121-.1.101-.177l-.107-.403a.144.144 0 0 0-.176-.103m-1.214.64-.04-.151a.146.146 0 0 1 .102-.177l.4-.108a.143.143 0 0 1 .175.102l.04.151zm.704-.082.04.151a.146.146 0 0 1-.101.177l-.4.108a.143.143 0 0 1-.176-.102l-.04-.15zm-.494-4.189L20.8 20.11a.157.157 0 0 0 .08.303l10.987-2.968a.157.157 0 0 0-.081-.303"/><path fill="#d8d8d8" d="m21.473 19.984-.433.116a.105.105 0 0 0-.073.129.104.104 0 0 0 .127.074l.432-.117a.105.105 0 0 0 .074-.128.104.104 0 0 0-.128-.074m.866-.234-.433.116a.105.105 0 0 0-.073.129.104.104 0 0 0 .127.074l.433-.117a.105.105 0 0 0 .073-.128.104.104 0 0 0-.127-.074m.666-.18-.432.116a.105.105 0 0 0-.073.129.104.104 0 0 0 .127.074l.432-.117a.105.105 0 0 0 .073-.128.104.104 0 0 0-.127-.074m.666-.18-.432.116a.105.105 0 0 0-.073.129.104.104 0 0 0 .127.074l.432-.117a.105.105 0 0 0 .073-.128.104.104 0 0 0-.127-.074m.667-.18-.433.116a.105.105 0 0 0-.073.129.104.104 0 0 0 .127.074l.433-.117a.105.105 0 0 0 .073-.128.104.104 0 0 0-.127-.074m.832-.225-.433.116a.105.105 0 0 0-.073.129.104.104 0 0 0 .127.074l.433-.117a.105.105 0 0 0 .073-.128.104.104 0 0 0-.127-.074m.667-.18-.432.117a.105.105 0 0 0-.074.128.104.104 0 0 0 .127.074l.433-.117a.105.105 0 0 0 .073-.128.104.104 0 0 0-.127-.074m.665-.18-.432.116a.105.105 0 0 0-.073.129.104.104 0 0 0 .127.074l.432-.117a.105.105 0 0 0 .073-.128.104.104 0 0 0-.127-.074m.667-.18-.433.116a.105.105 0 0 0-.073.129.104.104 0 0 0 .127.074l.433-.117a.105.105 0 0 0 .073-.128.104.104 0 0 0-.127-.074M28 18.22l-.431.117a.105.105 0 0 0-.074.128.104.104 0 0 0 .127.074l.433-.117a.105.105 0 0 0 .073-.128.104.104 0 0 0-.127-.074m.666-.18-.432.117a.105.105 0 0 0-.073.128.104.104 0 0 0 .127.074l.432-.117a.105.105 0 0 0 .073-.128.104.104 0 0 0-.127-.074m.667-.18-.433.117a.105.105 0 0 0-.073.128.104.104 0 0 0 .127.074l.433-.117a.105.105 0 0 0 .073-.128.104.104 0 0 0-.127-.074m.831-.225-.432.116a.105.105 0 0 0-.073.129.104.104 0 0 0 .127.074l.432-.117a.105.105 0 0 0 .074-.128.104.104 0 0 0-.128-.074m.667-.18-.432.117a.105.105 0 0 0-.073.128.104.104 0 0 0 .127.074l.432-.117a.105.105 0 0 0 .074-.128.104.104 0 0 0-.128-.074m.666-.18-.432.117a.105.105 0 0 0-.074.128.104.104 0 0 0 .127.074l.433-.117a.105.105 0 0 0 .073-.128.104.104 0 0 0-.127-.074" opacity=".136"/><path fill="#44d860" fill-rule="evenodd" d="M26.103 28.38q-.047.002-.092.01l-.017-.066a.72.72 0 0 0 .427-.81.725.725 0 0 0-.703-.581.7.7 0 0 0-.433.15l-.049-.049a.721.721 0 0 0-.906-1.073.72.72 0 0 0-.327.357l-.064-.017c.004-.03.01-.06.01-.092a.73.73 0 0 0-.21-.512.715.715 0 0 0-1.016 0 .73.73 0 0 0-.21.512q.002.048.009.092l-.064.017a.72.72 0 0 0-.804-.426.727.727 0 0 0-.429 1.142 2.9 2.9 0 0 0-.866 2.07c0 1.6 1.286 2.896 2.872 2.896a2.875 2.875 0 0 0 2.78-2.18q.045.006.091.008c.19 0 .373-.076.508-.212a.727.727 0 0 0-.508-1.235" clip-rule="evenodd"/><path fill="#3ecc5f" fill-rule="evenodd" d="M17.488 23.313h5.743v-2.895h-5.743z" clip-rule="evenodd"/><path fill="#44d860" fill-rule="evenodd" d="M24.667 22.228a.363.363 0 0 0 0-.724q-.022 0-.046.004l-.008-.032a.36.36 0 0 0 .213-.405.36.36 0 0 0-.351-.291.35.35 0 0 0-.217.075l-.024-.024a.36.36 0 1 0-.616-.358 1.4 1.4 0 0 0-.387-.055c-.793 0-1.436.648-1.436 1.448s.643 1.447 1.436 1.447q.201-.002.387-.054a.36.36 0 0 0 .402.213.36.36 0 0 0 .287-.355.36.36 0 0 0-.073-.216l.024-.024a.35.35 0 0 0 .444-.008.36.36 0 0 0 .09-.45.36.36 0 0 0-.179-.163l.008-.033q.023.004.046.005" clip-rule="evenodd"/><path fill="#000" fill-rule="evenodd" d="M26.103 11.55a.4.4 0 0 1-.138-.027.4.4 0 0 1-.117-.078q-.023-.026-.044-.055a.37.37 0 0 1-.06-.202.4.4 0 0 1 .027-.139.37.37 0 0 1 .132-.162.4.4 0 0 1 .13-.053.37.37 0 0 1 .27.053l.054.045a.37.37 0 0 1 .105.256.37.37 0 0 1-.16.302.37.37 0 0 1-.2.06m2.871-.18a.37.37 0 0 1-.331-.223.37.37 0 0 1 .132-.44.36.36 0 0 1 .27-.054.36.36 0 0 1 .184.098.37.37 0 0 1 .077.396l-.033.062-.044.055a.37.37 0 0 1-.254.106" clip-rule="evenodd"/></g><defs><linearGradient id="a" x1="20" x2="20" y1="0" y2="40" gradientUnits="userSpaceOnUse"><stop stop-color="#103519"/><stop offset="1" stop-color="#22220a"/></linearGradient><filter id="b" width="36.001" height="36" x="2" y="2" color-interpolation-filters="sRGB" filterUnits="userSpaceOnUse"><feFlood flood-opacity="0" result="BackgroundImageFix"/><feColorMatrix in="SourceAlpha" result="hardAlpha" values="0 0 0 0 0 0 0 0 0 0 0 0 0 0 0 0 0 0 127 0"/><feOffset/><feGaussianBlur stdDeviation="2"/><feComposite in2="hardAlpha" operator="out"/><feColorMatrix values="0 0 0 0 0 0 0 0 0 0 0 0 0 0 0 0 0 0 0.25 0"/><feBlend in2="BackgroundImageFix" result="effect1_dropShadow_2_1738"/><feBlend in="SourceGraphic" in2="effect1_dropShadow_2_1738" result="shape"/></filter></defs></svg>