<svg xmlns="http://www.w3.org/2000/svg" width="40" height="40" fill="none" viewBox="0 0 40 40"><g clip-path="url(#a)"><rect width="40" height="40" fill="url(#b)" rx="8"/><g filter="url(#c)"><path fill="#fff" d="M14.367 29.84c-1.066-.847-2.204-1.659-2.982-2.801-1.636-2.016-2.895-4.349-3.757-6.8-.52-1.595-.698-3.304-1.37-4.837-.701-1.113.12-2.33 1.33-2.684.538-.104 1.484-.616.342-.25-1.024.758-1.123-.688-.073-.78.716-.096.98-.687.735-1.22-.77-.506 1.865-1.062.54-1.817-1.381-1.503 1.931-1.793 1.114-.086-.196 1.313 2.314-.24 1.732 1.275.592.728 2.217.166 2.176 1.187.863.06 1.159.792 1.968.848.839.382 2.36.684 2.645 1.637-.832.665-2.76-1.373-2.852.467.251 2.719.187 5.52 1.173 8.108.466 1.568 1.597 2.802 2.618 4.023.977 1.195 2.3 2.037 3.648 2.746 1.183.563 2.459.936 3.748 1.17.523-.403 1.446-1.904 2.262-1.271.039.71-1.62 1.486-.078 1.407.905-.275 1.533.706 2.278-.179.686.82 2.853-.524 2.365 1.153-.66.43-1.624.17-2.286.762-1.09-.55-1.959.491-3.167.36-1.34.242-2.705.34-4.065.342-2.23-.178-4.509-.253-6.63-1.036-1.196-.35-2.363-1.038-3.414-1.725m1.884.823c1.168.51 2.309 1.046 3.588 1.208 2.03.285 4.126.723 6.163.323-.922-.42-1.875.164-2.793-.3-1.102.239-2.284-.061-3.404-.209-1.273-.572-2.648-.965-3.84-1.708-1.49-.55.77.704 1.173.805.931.534-1.024-.273-1.3-.495-.78-.441-.88-.35-.077.1.161.095.32.195.49.276m-2.221-1.584c1.131.423-.005-.802-.523-.731-.23-.402-.878-.656-.42-.872-.823.288-.862-1.095-1.248-.897-.87-.277-.339-1.259-1.375-1.861-.094-.635-1.029-1.186-1.327-2.144-.131-.49-1.055-1.898-.488-.588.484 1.262 1.334 2.342 2.042 3.422.55 1.027 1.198 2.101 2.2 2.742.337.327.662.827 1.139.93m-3.259-3.61c.04-.172.207.374 0 0m4.614 4.117c-.36-.143.25-.113 0 0m.614.226c-.28.174-.064-.312 0 0m.768.323c-.564-.221.366-.351 0 0m1.318.741c-.712-.125.222-.331 0 0m-2.53-1.779c-.734-.005.568-.37 0 0m.577.29c-.206.088-.017-.196 0 0m2.881 1.815c.464.295 2.706.646 1.302.12-.235.05-2.603-.675-1.302-.12m-4.575-3.595c-.719-.217-.045-.197 0 0m1.342.789c-.725-.19.35-.246 0 0m1.129.698c-.813-.192.5-.19 0 0m-3.016-2.087c.543.42 2.192.054.832-.25-.619-.334-2.014-.562-1.063.2zm3.78 2.328c-.95-.222.226-.39 0 0m-1.149-.921c1.33.38-1.118-.848-.328-.14l.175.08zm2.303 1.343c-1.137-.175 1.26.012 0 0m-5.419-3.485c-.31.02-.049-.236 0 0m7.549 4.69c-.411.318.033-.427 0 0m-5.4-3.362c-.394-.01-.077-.225 0 0m-2.03-1.476c-.989-.321.723-.044 0 0m-2.403-1.568c-.787-.628-.09-.35 0 0m6.31 4.04c-.132-.152-.062.034 0 0m3.928 2.432c-.214.088-.013-.233 0 0m-4.276-2.794c-.616-.09.071-.3 0 0m-2.926-1.87c-.861-.367.538-.059 0 0m4.95 3.102c-.817-.163.838-.335 0 0m-2.575-1.763c.966.126-1.149-.662-.212-.07zm3.357 2.082c.901-.544.604 1.274 1.53.154.912-.673-.789.83.336.12.813-.55 2.015.26 2.774.524.546-.027 1.076.476 1.636.17 1.077-.293-2.107-.434-1.272-.954-.986.29-1.714-.345-2.199-.982-1.105-.257-2.384-.828-2.936-1.815-.225-.37.325.053-.194-.553-.666-.598-.999-1.277-1.446-2.003-.534-.288-.596-1.134-.65-.029.004-.698-.646-1.167-.804-.972-.003-.672.695-.335.206-.832-.105-.697-.45-1.422-.555-2.209-.162-.379-.023-1.19-.552-.333-.192.907-.064-1.114.236-.448.393-.68-.141-.6-.163-.505.256-.574.162-1.388-.067-1.077.137-.609.216-2.239-.204-1.95.254-.636.483-2.91-.623-2.043-.448.006-1.223.164-1.59.348 1.15.64-.116.23-.584.13-.06.59-.524.335-1.104.34.926.116-.45.955-.98.63-.69.332.594 1.161.013 1.417.072.387-1.056-.14-.967.754-.67-.284-.092 1.06.243.605 1.137.31.8 1.019.83 1.692-.186.392-.916-.922-.163-.861-.594-.973-.657-.352-1.15.1-.115.033 1.258.644.396.946.759.118.78.787.935 1.211.456.479.362-.529.908.047-.345-.513-1.829-1.445-.634-1.146-.007-.517-.216-.933.15-.923.362-.662-.38 1.632.437.791.226-.1.282-.663.688.053.59.586.213 1.01-.62.474.15.51 1.114.692.933 1.49.192.7.461.442.696.402.183.68.288.18.297-.144.841.181.644.684.908 1.034.58.265-.83-1.79.165-.617 1.048.954.393 1.352-.547 1.2.595-.05.787.811 1.531.781.68.326 1.139 1.577-.031 1.056-.406-.369-1.842-.824-.67-.122 1.084.506 1.945.809 2.99 1.444.747.539 1.07 1.156 1.354 1.278-.629.303-1.894-.242-.955-.409-.586-.108-1.245-.407-.683.33.477.402 1.69.36 1.909.405-.185.41-.502.443.007.475-.567.305.182.352.235.526m-1.16-3.305c-.346-.365-.435-1.047-.062-.453.191.077.613 1.114.061.453m3.779 2.42c.006.165.215-.014 0 0m-4.324-3.315c-.013-.55.125.425 0 0m-.375-.51c-.435-.846.547.24 0 0m-4.551-3.168c.125.44.255-.07 0 0m3.622 1.98c.156-.593.184.498 0 0m-2.56-1.795c-.18-.327.378.307 0 0m2.197.71c-.412-.93.291-.508.09.153zm-3.787-2.548c-.184-.305-.489-1.2-.39-1.473.088.445.938 1.915.416.609-.576-1.095.689.355.819.628.06.272-.355-.074-.074.563-.514-.725-.303.4-.771-.327m-1.17-.813c.047-.71.267.486 0 0m.526.183c.251-.536.426.746 0 0m-1.267-.989c-.435-.437-.75-.84.02-.271.298.012-.66-.916.072-.294.77.141.38 1.273-.092.565m.665-.017c.135.249.254-.253 0 0m.41.132c-.384-.726.465.304 0 0m-.814-.785c-1.267-1.137 1.592.595.207.211zm3.63 2.128c-.548-.332-.146-2.335.041-.965.533-.174-.03.708.368.7-.062.556-.24.756-.41.265m1.342.8c.054-.603.113.413 0 0m-.233-.232c.006.304.06-.258 0 0m-4.49-3.07c-.814-1.132 2.365 1.146.52.288-.192-.05-.424-.069-.52-.287m2.585 1.384c-.077-.954.172.158 0 0m1.963 1.27c.01.36.151-.544 0 0m-4.424-3.086c.484-.104 2.005.857.608.275-.155-.173-.486-.095-.608-.275m4.154 2.089c.052-.976.289-.583.002.14zm-3.794-2.428c.197-.292-.523-1.319.104-.368.271.217.785.363.331.455.713.634-.174.172-.435-.087m3.588 2.123c.12.651.137-1.11 0 0m-4-3.15c.08.203.151-.064 0 0m.937.563c.24-.51.444.569 0 0m2.64 1.481c-.003-.195.05.285 0 0m-.153-.341c-.367-.912.34.483 0 0m-.225-.598c-.062-.377.209.473 0 0m.366-.6c-.252-.448.317-1.97.38-1.026-.264.736-.076 1.148.11.16.341-.776-.074 1.534-.49.865m.376-2.265c.024.163.11-.136 0 0m-.628 12.492c-.15-.132.019.083 0 0m1.294.66c.72.187.717-.113.066-.202-.35-.328-1.455-.677-.466-.04.065.167.272.163.4.242m-2.556-1.713c.396.299 1.494.846.565.114.313-.367-.6-.563-.297-.808-.77-.476-.607-.434-.068-.419-.925-.417.134-.386.084-.6-.357-.07-1.773-.635-.94.046-.847-.435-.202.163-.458.1-.866-.239.771.665-.137.44.497.398 1.337 1.018.21.42-.149.217.806.543 1.04.707m1.354.785c-.807-.654 1.646.535 0 0m6.93 4.236c-.225.28.021-.33 0 0m.713.302c.38-.371.015.592.629-.09.007-.49-.019-.778-.705-.184-.19.106-.274.556.076.274m-11.308-7.164c-.818-.46-.117-.463 0 0m.76.503c-1.007-.428-.282-.473 0 0m4.328 2.632c.422.38 1.94.278.513.047-.211-.315-1.342-.24-.513-.047m5.949 3.707c-.63.245.65-.55 0 0m1.352.938c-.28.077.004-.177 0 0m.002-.248c-.698.046.72-.77 0 0m-14.26-9.111c-.614-.884-.381-1.281-.973-2.002-.112-.552-1.016-1.804-.467-.478.502.776.65 1.977 1.44 2.48m14.036 8.868c-.543-.377 1.325-.864 0 0m1.012.4c-.42-.121.663-.575 0 0m-13.402-8.665c-.49-.036.19-.285 0 0m13.19 8.391c.643-.418-.148-.353-.116.039zm-8.717-5.543c-.34.024-.022-.282 0 0m.539.313c-.263.055-.171-.35 0 0m9.21 5.513c.822-.6-.5-.115-.174.113zm-.316-.154c-.708.251.67-.567 0 0m1.61 1.082c-.547-.099.45-.304 0 0M11.33 22.45c.604.136 2.411 1.499 1.345.094-.546-.163-.219-1.51-.776-1.272.374.63.308.899-.477.501-.987-.486-.555.241-.362.442-.263.06.348.23.27.235m-2.748-2.19c.108-.451-.995-2.48-.521-1.017.171.306.154.887.52 1.017m5.045 3.138c-.311-.262-.015-.037 0 0m.765.18c-.846-.195 0-.478 0 0m6.63 4.216c-.5-.008-.127-.326 0 0m.318.234c-.184.036-.047-.182 0 0m2.628 1.67c-.316-.024.252-.188 0 0M9.955 20.613c-.775-.201.723-.282 0 0m10.483 6.663c-.461.117-.008-.472 0 0M9.669 19.942c-.43-.104.464-.159 0 0m1.348.659c-.143.058-.009-.156 0 0m16.439 10.17c.597-.123 1.958.306 2.178-.16-.726-.018-2.51-.516-2.594.119l.16.025zm-16.01-10.062c-.37-.017.01-.478 0 0M7.9 18.23c-.612-.138-.16-.911 0 0m.845.215c-.773-.264.01-.293 0 0m.483.239c-.14-.114-.109.144 0 0m3.039 1.967c-.339-.099.143-.133 0 0m-3.36-2.507c-.979-.103-.082-.688 0 0M7.175 17.01c-.169.12-.024-.318 0 0m.258-.196c-.221.048-.042-.377 0 0m1.424.857c.602-.238-1.097-.493-.123-.045zm19.056 11.875c-.49-.11.385-.356 0 0m2.302 1.204c-.389.061.154-.46 0 0M9.002 16.917c-.477.089.064-.446 0 0m-2.025-1.369c-.11-.63-.094-1.734.947-1.36-1.39.277.961 1.742.664.586.585.029 1.143-.349.837.224 1.15-.128 1.949-1.136 3.06-.994.867-.116 1.814-.204 2.747-.556.768-.055 1.506-.889 1.085-1.383-1.046-.09-2.141.043-3.298.275-1.282.269-2.446.78-3.74.999-1.26.17.254.47-.107.537-.658.23.785.386-.085.628-.537-.103-1.096-.289-.867-.86-1.207.158-2.268.664-1.314 1.903zm2.91-1.495c.282-1.052 1.516.866.463.14-.125-.095-.332-.173-.464-.14m.054-.51c.217.172.409-.307 0 0m.52.008c.036-.484 1.187.256.189.175zm.709-.288c.074.272.259-.305 0 0m.181-.122c.432-.524 2.444-.334.971-.051-.394-.3-.697.176-.97.05m2.627-.409c-.066-1.429 1.304.508 0 0m.745-.004c.272-.72 1.057-.289.126-.145.02.077-.027.372-.126.145m-6.015 3.82c-.864-.437.815-.503 0 0m.602.168c-.62-.124.286-.306 0 0m-1.773-1.27c-.55-.136.465-.36 0 0m24.037 15.172c-.356.188.013-.419 0 0m-2.443-1.682c-.314.042.07-.482 0 0m3.114 1.844c.65.002 1.97-.204.556-.203-.222.035-1.294.027-.556.203M9.84 16.42c.526-.036.823-.585-.102-.554-1.434-.15 1.265.495-.184.311-.195.13.274.28.286.243m.463.237c-.162.181-.055-.341 0 0m.55-1.48c-.316-.076.229-.285 0 0m-1.75-2.951c.94-.322 2.224-.685 2.667.159-.451-.548-.182-1.088.244-.287.603.811.905-.369.513-.64.447.56.955.824.299.035.713-.865-1.427.113-1.913.103-.234.106-2.416.562-1.81.63m.55-1.064c.536-.408 1.853.243 1.008-.405-.083-.074-1.85.491-1.008.405m1.953.082c.627.016-.27-.85.477-.458-.123-.404-.87-.48-1.235-.642-.207.37.42 1.104.758 1.1m-1.61-1.79c-.38.151.217-.296 0 0m.798.194c1.01-.136-.258-.44-.204-.011zm-1.49-1.177c-.712-.937 1.337.158.615-.823-.609-.49-1.193.55-.615.823m9.13 4.961c.326-.583-1.348-.786-.22-.207.103.035.08.248.22.207"/></g></g><rect width="37.9" height="37.9" x="1.05" y="1.05" stroke="#fff" stroke-opacity=".15" stroke-width="2.1" rx="6.95"/><defs><linearGradient id="b" x1="20" x2="20" y1="0" y2="40" gradientUnits="userSpaceOnUse"><stop stop-color="#0a2135"/><stop offset="1" stop-color="#041823"/></linearGradient><clipPath id="a"><rect width="40" height="40" fill="#fff" rx="8"/></clipPath><filter id="c" width="39.429" height="39.429" x=".286" y=".286" color-interpolation-filters="sRGB" filterUnits="userSpaceOnUse"><feFlood flood-opacity="0" result="BackgroundImageFix"/><feColorMatrix in="SourceAlpha" result="hardAlpha" values="0 0 0 0 0 0 0 0 0 0 0 0 0 0 0 0 0 0 127 0"/><feOffset/><feGaussianBlur stdDeviation="2.857"/><feComposite in2="hardAlpha" operator="out"/><feColorMatrix values="0 0 0 0 0 0 0 0 0 0 0 0 0 0 0 0 0 0 0.25 0"/><feBlend in2="BackgroundImageFix" result="effect1_dropShadow_2_3769"/><feBlend in="SourceGraphic" in2="effect1_dropShadow_2_3769" result="shape"/></filter></defs></svg>