<svg xmlns="http://www.w3.org/2000/svg" width="40" height="40" fill="none" viewBox="0 0 40 40"><g clip-path="url(#a)"><rect width="40" height="40" fill="url(#b)" rx="8"/><g filter="url(#c)"><path fill="#f6d2a2" fill-rule="evenodd" stroke="#000" stroke-linecap="round" stroke-width=".35" d="M9.53 21.143c.042.867.908.466 1.3.195.372-.258.48-.044.513-.552.022-.334.06-.667.041-1.003-.563-.05-1.175.083-1.636.419-.238.173-.683.724-.218.94Z" clip-rule="evenodd"/><path fill="#c6b198" fill-rule="evenodd" d="M9.53 21.143c.126-.047.26-.08.345-.195z" clip-rule="evenodd"/><path stroke="#000" stroke-linecap="round" stroke-width=".35" d="M9.53 21.143c.126-.047.26-.08.345-.195"/><path fill="#6ad7e5" fill-rule="evenodd" stroke="#000" stroke-linecap="round" stroke-width=".35" d="M11.53 10.813c-3.316-.934-.85-5.157 1.813-3.42zm14.736-3.737c2.625-1.845 4.997 2.319 1.946 3.366z" clip-rule="evenodd"/><path fill="#f6d2a2" fill-rule="evenodd" stroke="#000" stroke-linecap="round" stroke-width=".35" d="M26.83 31.815c.667.412 1.886 1.661.886 2.267-.961.88-1.5-.967-2.343-1.223.363-.494.824-.944 1.457-1.044Z" clip-rule="evenodd"/><path stroke="#000" stroke-linecap="round" stroke-width=".35" d="M27.716 34.082c-.149-.296-.198-.64-.446-.878"/><path fill="#f6d2a2" fill-rule="evenodd" stroke="#000" stroke-linecap="round" stroke-width=".35" d="M14.917 33.226c-.782.12-1.223.828-1.875 1.187-.615.366-.85-.118-.906-.216-.096-.044-.088.04-.237-.11-.57-.9.594-1.558 1.2-2.005.844-.17 1.373.562 1.818 1.144Z" clip-rule="evenodd"/><path stroke="#000" stroke-linecap="round" stroke-width=".35" d="M12.137 34.197c.03-.344.301-.573.43-.863"/><path fill="#000" fill-rule="evenodd" d="M11.669 9.646c-.438-.231-.759-.546-.491-1.052.248-.47.708-.418 1.145-.187zm15.851-.44c.438-.232.76-.546.491-1.053-.247-.469-.708-.418-1.145-.186z" clip-rule="evenodd"/><path fill="#f6d2a2" fill-rule="evenodd" stroke="#000" stroke-linecap="round" stroke-width=".35" d="M30.532 21.033c-.042.867-.907.466-1.3.194-.371-.257-.48-.043-.513-.55-.021-.335-.06-.668-.04-1.004.562-.05 1.174.083 1.635.419.238.173.684.724.218.94Z" clip-rule="evenodd"/><path fill="#c6b198" fill-rule="evenodd" d="M30.532 21.033c-.125-.047-.259-.08-.344-.195z" clip-rule="evenodd"/><path stroke="#000" stroke-linecap="round" stroke-width=".35" d="M30.532 21.033c-.125-.047-.259-.08-.344-.195"/><path fill="#6ad7e5" fill-rule="evenodd" stroke="#000" stroke-linecap="round" stroke-width=".35" d="M19.699 5.323c3.32 0 6.433.475 8.055 3.668 1.456 3.578.939 7.437 1.16 11.22.191 3.247.614 7-.89 10.009-1.584 3.166-5.541 3.962-8.801 3.846-2.561-.092-5.654-.928-7.1-3.27-1.695-2.747-.892-6.832-.77-9.888.147-3.621-.979-7.253.21-10.796 1.232-3.675 4.557-4.506 8.136-4.79Z" clip-rule="evenodd"/><path fill="#fff" fill-rule="evenodd" stroke="#000" stroke-linecap="round" stroke-width=".35" d="M20.285 9.784c.596 3.468 6.26 2.551 5.447-.947-.73-3.137-5.645-2.269-5.447.947Zm-6.769.561c.773 3.02 5.603 2.246 5.42-.783-.217-3.627-6.158-2.927-5.42.783Zm7.453 3.601c.002.45.102.957.017 1.437-.115.217-.34.24-.535.328a.79.79 0 0 1-.603-.47c-.07-.548.025-1.078.043-1.626z" clip-rule="evenodd"/><path fill="#000" d="M14.848 10.736c.45 0 .816-.395.816-.884 0-.488-.365-.884-.816-.884s-.815.396-.815.884c0 .489.365.884.815.884"/><path fill="#fff" d="M15.22 10.277c.105 0 .191-.101.191-.225s-.086-.225-.192-.225-.192.1-.192.225c0 .124.086.225.192.225"/><path fill="#000" d="M21.682 10.516c.443 0 .803-.396.803-.884s-.36-.884-.803-.884c-.442 0-.802.396-.802.884s.36.884.802.884"/><path fill="#fff" d="M22.047 10.056c.104 0 .19-.1.19-.224 0-.125-.086-.225-.19-.225s-.19.1-.19.225c0 .124.086.224.19.224"/><path fill="#fff" fill-rule="evenodd" stroke="#000" stroke-linecap="round" stroke-width=".35" d="M18.638 13.897c-.356.863.198 2.59 1.164 1.316-.07-.548.026-1.078.043-1.626z" clip-rule="evenodd"/><path fill="#f6d2a2" fill-rule="evenodd" stroke="#231f20" stroke-linecap="round" stroke-width=".35" d="M18.76 12.234c-.664.057-1.206.846-.861 1.47.457.828 1.476-.072 2.111.012.73.015 1.33.773 1.916.137.653-.708-.28-1.397-1.01-1.705z" clip-rule="evenodd"/><path fill="#000" fill-rule="evenodd" d="M18.676 12.2c-.05-1.15 2.142-1.294 2.4-.332.258.96-2.292 1.184-2.4.332" clip-rule="evenodd"/></g></g><rect width="37.9" height="37.9" x="1.05" y="1.05" stroke="#fff" stroke-opacity=".15" stroke-width="2.1" rx="6.95"/><defs><linearGradient id="b" x1="20" x2="20" y1="0" y2="40" gradientUnits="userSpaceOnUse"><stop stop-color="#152a2d"/><stop offset="1" stop-color="#102022"/></linearGradient><clipPath id="a"><rect width="40" height="40" fill="#fff" rx="8"/></clipPath><filter id="c" width="38.8" height="38.8" x=".6" y=".6" color-interpolation-filters="sRGB" filterUnits="userSpaceOnUse"><feFlood flood-opacity="0" result="BackgroundImageFix"/><feColorMatrix in="SourceAlpha" result="hardAlpha" values="0 0 0 0 0 0 0 0 0 0 0 0 0 0 0 0 0 0 127 0"/><feOffset/><feGaussianBlur stdDeviation="2"/><feComposite in2="hardAlpha" operator="out"/><feColorMatrix values="0 0 0 0 0 0 0 0 0 0 0 0 0 0 0 0 0 0 0.25 0"/><feBlend in2="BackgroundImageFix" result="effect1_dropShadow_2_3208"/><feBlend in="SourceGraphic" in2="effect1_dropShadow_2_3208" result="shape"/></filter></defs></svg>