<svg xmlns="http://www.w3.org/2000/svg" width="40" height="40" fill="none" viewBox="0 0 40 40"><g clip-path="url(#a)"><rect width="40" height="40" fill="url(#b)" rx="8"/><g filter="url(#c)"><path fill="#4e7896" stroke="#4e7896" stroke-width=".25" d="m30.384 32.102.241.056c-.055.712-.666 1.253-1.557 1.662-.898.413-2.126.713-3.507.92-2.763.415-6.172.465-8.869.29l-.116-.008v-.002c-1.704-.103-2.74-.298-3.353-.472a4 4 0 0 1-.648-.236 1.4 1.4 0 0 1-.175-.103l-.01-.008-.003-.002-.002-.002-.338-.29.44.072c3.324.547 8.989.648 13.557-.2 2.01-.374 3.103-.81 3.69-1.144a2.4 2.4 0 0 0 .55-.405 1 1 0 0 0 .1-.127zm-17.765-1.837c.285.008.543.058.717.18l.325.227h-.41l-.045.003q-.06.002-.183.015a6 6 0 0 0-.728.13l-.009.001a5.5 5.5 0 0 0-1.387.457 1.6 1.6 0 0 0-.265.167.4.4 0 0 0-.12.136c-.009.024-.008.042.01.067a.5.5 0 0 0 .207.136c.728.317 1.938.543 3.409.682 1.466.139 3.178.191 4.903.173 3.455-.038 6.939-.364 8.59-.86l.299-.101c.267-.103.446-.207.562-.303.152-.126.192-.236.196-.316a.37.37 0 0 0-.073-.223 1 1 0 0 0-.058-.071l-.019-.018-.005-.005.033-.04.04-.18h.053l.032.028c.371.175.61.395.615.674a.62.62 0 0 1-.155.397 1.7 1.7 0 0 1-.41.35c-.694.443-2.025.868-3.805 1.184-3.57.635-9.015.847-14.982-.132-.547-.088-.937-.206-1.191-.35-.255-.143-.4-.329-.389-.555.01-.21.157-.406.352-.575a3.7 3.7 0 0 1 .782-.494 8.6 8.6 0 0 1 2.125-.694 4.8 4.8 0 0 1 .984-.09Zm3.437-2.197-.38.232-.008.006-.03.02a1 1 0 0 0-.092.073.44.44 0 0 0-.143.197.1.1 0 0 0 .01.066c.012.024.044.06.113.099.143.08.415.16.896.21h.003c2.325.298 3.559.249 6.137-.25l.048-.008.041.025a9 9 0 0 0 1.622.791l.293.109-.287.123c-2.942 1.265-6.271 1.227-8.294.708-.506-.13-.936-.292-1.26-.474-.317-.18-.554-.391-.638-.632a.55.55 0 0 1 0-.38.84.84 0 0 1 .259-.345c.246-.21.652-.4 1.231-.565l.017-.005zm-1.065-3.04-.066.022a2 2 0 0 0-.132.125.76.76 0 0 0-.186.295.22.22 0 0 0 0 .128.27.27 0 0 0 .103.128c.128.096.387.19.866.24l.927.083c2.121.167 4.011.128 7.007-.482l.067-.013.047.049c.32.326.714.573 1.146.72l.372.125-.375.113c-3.531 1.057-7.276 1.109-9.513.68-.56-.108-1.031-.247-1.383-.411-.344-.16-.603-.357-.691-.6-.097-.264.027-.521.297-.748.268-.223.704-.443 1.326-.655l.188-.143zm11.886-3.717c1.821-.641 3.494.32 3.714 1.753.11.718-.153 1.526-.91 2.273-.754.745-2.004 1.433-3.885 1.925l-.444.115.324-.325.003-.003.016-.02a1 1 0 0 0 .058-.095l.034-.069h.048c2.76-1.444 3.43-2.825 3.27-3.755-.16-.94-1.18-1.52-2.017-1.358a4 4 0 0 0-.587.177l-.025.011-.006.002h-.001l-.334.168.167-.335v-.002l.003-.003.006-.013a1 1 0 0 1 .128-.173 1 1 0 0 1 .297-.22zm-10.614.164.098.197-.208-.015-.032.009a18 18 0 0 0-.73.195c-.453.13-1.017.304-1.471.492a3.4 3.4 0 0 0-.56.282.8.8 0 0 0-.153.126c-.034.038-.04.06-.042.071 0 .004-.002.015.019.037a.5.5 0 0 0 .155.095c.169.072.452.14.885.195 1.48.199 4.407.15 7.146-.05l.834-.083a64 64 0 0 0 3.54-.498l.074-.013.02-.003.005-.001.073.237-.008.004-.026.012-.097.044a15 15 0 0 0-.33.157c-.267.13-.599.304-.867.475l-.017.011-.018.005c-2.782.731-6.831.931-9.803.762-1.483-.085-2.715-.262-3.389-.52a1.6 1.6 0 0 1-.414-.22c-.102-.082-.18-.186-.19-.315-.007-.13.059-.247.16-.347q.152-.15.446-.294h.001a11.4 11.4 0 0 1 3.375-1.033 9 9 0 0 1 1.034-.086q.186-.002.285 0l.075.003.086-.02z"/><path fill="#f58219" stroke="#f58219" stroke-width=".25" d="m26.202 11.04.093.23c-1.616.937-2.748 1.706-3.514 2.366-.767.66-1.156 1.202-1.305 1.683-.146.474-.064.907.155 1.368.223.467.578.946.97 1.516h-.002c.442.616.538 1.21.423 1.756-.114.54-.431 1.018-.794 1.412-.364.395-.78.713-1.105.93a7 7 0 0 1-.518.32l-.031.017-.01.004h-.001l-.001.002-.137-.208.001-.001.003-.002.014-.012.053-.048a2.9 2.9 0 0 0 .637-.852 1.83 1.83 0 0 0 .193-.944c-.028-.344-.172-.723-.518-1.118-1.238-1.436-1.537-2.699-1.253-3.786.282-1.078 1.13-1.95 2.11-2.629.984-.681 2.119-1.182 3.004-1.512a18 18 0 0 1 1.417-.462l.086-.022.023-.006h.006zm-3.625-6.128v.002l.004.002.006.008.028.03q.034.04.093.115c.076.1.178.248.279.44.203.384.407.947.417 1.662.02 1.436-.746 3.448-3.777 5.842l-.002-.001c-1.198.957-1.852 1.802-2.153 2.562-.299.756-.254 1.44-.028 2.09.227.654.636 1.273 1.065 1.893.426.614.875 1.234 1.155 1.874l-.199.142c-1.419-1.276-2.653-2.49-3.355-3.653-.352-.583-.575-1.162-.616-1.734a2.6 2.6 0 0 1 .338-1.48l.125-.207c.522-.793 1.269-1.479 2.066-2.135.803-.66 1.649-1.286 2.4-1.974.747-.686 1.384-1.422 1.758-2.285.373-.861.49-1.858.185-3.075l-.112-.447z"/><mask id="d" fill="#fff"><path d="M26.878 32.445q-1.358 0-2.426-.432-1.063-.437-1.67-1.182a2.63 2.63 0 0 1-.603-1.693q0-.721.347-1.324.345-.602.937-1a3.2 3.2 0 0 1 1.33-.517v-.09a2.64 2.64 0 0 1-1.574-.893 2.5 2.5 0 0 1-.608-1.676q0-.909.551-1.62.557-.71 1.517-1.119.966-.408 2.199-.409 1.233 0 2.193.41.966.408 1.517 1.119.557.71.557 1.62a2.5 2.5 0 0 1-.62 1.68 2.64 2.64 0 0 1-1.562.887v.091q.727.114 1.318.517.597.398.944 1 .352.603.352 1.324 0 .943-.608 1.693-.608.745-1.67 1.182-1.058.432-2.421.432m0-1.994q.517 0 .91-.194a1.5 1.5 0 0 0 .613-.55q.227-.353.227-.796 0-.454-.227-.807a1.55 1.55 0 0 0-.625-.551 1.9 1.9 0 0 0-.898-.205q-.5 0-.898.205a1.55 1.55 0 0 0-.625.551 1.46 1.46 0 0 0-.227.807q0 .443.222.795.227.347.619.546.398.199.909.199m0-5.086q.444 0 .784-.181.347-.182.54-.506.198-.324.199-.733 0-.409-.2-.722a1.33 1.33 0 0 0-.533-.488 1.65 1.65 0 0 0-.79-.182q-.443 0-.79.182-.345.176-.54.488a1.34 1.34 0 0 0-.193.722q0 .41.194.733.198.317.545.506.346.18.784.181"/></mask><path fill="#f58219" d="M26.878 32.445q-1.358 0-2.426-.432-1.063-.437-1.67-1.182a2.63 2.63 0 0 1-.603-1.693q0-.721.347-1.324.345-.602.937-1a3.2 3.2 0 0 1 1.33-.517v-.09a2.64 2.64 0 0 1-1.574-.893 2.5 2.5 0 0 1-.608-1.676q0-.909.551-1.62.557-.71 1.517-1.119.966-.408 2.199-.409 1.233 0 2.193.41.966.408 1.517 1.119.557.71.557 1.62a2.5 2.5 0 0 1-.62 1.68 2.64 2.64 0 0 1-1.562.887v.091q.727.114 1.318.517.597.398.944 1 .352.603.352 1.324 0 .943-.608 1.693-.608.745-1.67 1.182-1.058.432-2.421.432m0-1.994q.517 0 .91-.194a1.5 1.5 0 0 0 .613-.55q.227-.353.227-.796 0-.454-.227-.807a1.55 1.55 0 0 0-.625-.551 1.9 1.9 0 0 0-.898-.205q-.5 0-.898.205a1.55 1.55 0 0 0-.625.551 1.46 1.46 0 0 0-.227.807q0 .443.222.795.227.347.619.546.398.199.909.199m0-5.086q.444 0 .784-.181.347-.182.54-.506.198-.324.199-.733 0-.409-.2-.722a1.33 1.33 0 0 0-.533-.488 1.65 1.65 0 0 0-.79-.182q-.443 0-.79.182-.345.176-.54.488a1.34 1.34 0 0 0-.193.722q0 .41.194.733.198.317.545.506.346.18.784.181"/><path fill="#fff" fill-opacity=".25" d="m24.452 32.013-.19.462.003.002zm-1.67-1.182-.39.313.002.004zm-.256-3.017.433.25zm.937-1 .28.415zm1.33-.517.076.494.424-.065v-.429zm0-.09h.5v-.417l-.41-.075zm-1.574-.893-.381.324.001.002zm-.057-3.295-.393-.309-.002.002zm1.517-1.12-.195-.46zm4.392 0-.196.46h.001zm1.517 1.12-.395.306.002.002zm-.062 3.3-.378-.326zm-1.563.887-.091-.491-.409.076v.415zm0 .091h-.5v.428l.423.066zm1.318.517-.281.413.004.003zm.944 1-.434.25.002.003zm-.256 3.017.387.317.001-.002zm-1.67 1.182.189.463zm-1.512-1.756.221.449.005-.003zm.614-.55-.42-.272-.004.005zm0-1.603-.42.271zm-.625-.551-.232.443.008.004zm-1.796 0 .224.447.005-.003zm-.625.551-.42-.271zm-.005 1.602-.424.267.006.008zm.619.546-.226.446h.002zm1.693-5.068-.232-.443-.003.001zm.54-.506-.426-.262-.003.006zm0-1.455-.426.263.004.006zm-.534-.488-.235.44.005.004zm-1.58 0 .227.445.005-.003zm-.54.488.426.263zm0 1.455-.429.256.006.009zm.546.506-.238.44.006.002zm.784 6.76q-1.276-.002-2.239-.395l-.374.928c.78.316 1.655.468 2.613.468zm-2.236-.393c-.646-.266-1.13-.615-1.473-1.036l-.775.633c.467.572 1.097 1.01 1.868 1.327zm-1.47-1.033a2.13 2.13 0 0 1-.493-1.38h-1c0 .745.241 1.42.713 2.006zm-.493-1.38c0-.397.094-.752.28-1.074l-.867-.5a3.1 3.1 0 0 0-.413 1.574zm.28-1.074q.287-.5.783-.835l-.558-.83a3.5 3.5 0 0 0-1.092 1.166zm.784-.836a2.7 2.7 0 0 1 1.126-.437l-.153-.988a3.7 3.7 0 0 0-1.533.597zm1.55-.93v-.092h-1v.091zm-.41-.583a2.13 2.13 0 0 1-1.284-.726l-.76.65a3.13 3.13 0 0 0 1.864 1.06zM23.6 24.99a2 2 0 0 1-.489-1.353h-1c0 .756.243 1.43.727 2zm-.489-1.353c0-.496.148-.928.446-1.313l-.79-.613a3.07 3.07 0 0 0-.656 1.926zm.445-1.31c.311-.398.744-.724 1.32-.968l-.393-.92c-.705.3-1.283.72-1.714 1.27zm1.318-.968c.573-.243 1.238-.37 2.004-.37v-1c-.877 0-1.678.146-2.394.45zm2.004-.37c.767 0 1.43.128 1.997.37l.392-.92c-.712-.304-1.512-.45-2.389-.45zm1.998.37c.579.245 1.01.57 1.317.965l.79-.613c-.428-.551-1.007-.973-1.717-1.273zm1.319.967c.301.385.45.816.45 1.311h1c0-.717-.223-1.366-.663-1.928zm.45 1.311c0 .527-.165.97-.497 1.355l.756.654c.493-.57.741-1.247.741-2.009zm-.498 1.355a2.14 2.14 0 0 1-1.275.722l.183.983a3.14 3.14 0 0 0 1.85-1.051zm-1.684 1.213v.091h1v-.09zm.423.585q.62.097 1.114.436l.563-.826a3.7 3.7 0 0 0-1.523-.598zm1.118.44q.502.334.787.833l.867-.5c-.27-.47-.64-.86-1.1-1.166zm.789.836c.189.322.284.676.284 1.071h1c0-.567-.14-1.095-.42-1.576zm.284 1.071c0 .511-.162.965-.497 1.378l.777.63c.476-.587.72-1.262.72-2.008zm-.495 1.377c-.344.42-.827.77-1.474 1.036l.38.924c.77-.317 1.401-.756 1.868-1.327zm-1.473 1.035c-.634.26-1.374.395-2.231.395v1c.962 0 1.835-.152 2.61-.469zm-2.231-.6a2.5 2.5 0 0 0 1.13-.244l-.442-.897c-.181.09-.406.142-.688.142zm1.135-.247c.338-.17.612-.415.811-.73l-.847-.533a1 1 0 0 1-.416.371zm.808-.726c.207-.32.307-.68.307-1.066h-1a.94.94 0 0 1-.147.524zm.307-1.066c0-.39-.1-.756-.307-1.078l-.84.542c.095.147.147.32.147.536zm-.307-1.078a2.05 2.05 0 0 0-.822-.727l-.447.894c.19.095.329.22.429.375zm-.814-.723a2.4 2.4 0 0 0-1.129-.262v1c.268 0 .486.054.666.148zm-1.129-.262c-.403 0-.782.083-1.126.26l.457.89c.186-.096.406-.15.669-.15zm-1.121.258a2.05 2.05 0 0 0-.822.727l.84.542c.1-.155.239-.28.429-.375zm-.822.727a1.96 1.96 0 0 0-.307 1.078h1c0-.216.052-.389.147-.536zm-.307 1.078c0 .383.097.742.298 1.061l.847-.532a.96.96 0 0 1-.145-.53zm.303 1.07c.203.308.477.547.812.717l.452-.892a1.1 1.1 0 0 1-.427-.374zm.814.718a2.5 2.5 0 0 0 1.133.252v-1c-.275 0-.5-.053-.686-.146zm1.133-4.834c.365 0 .71-.075 1.02-.24l-.471-.883a1.14 1.14 0 0 1-.549.123zm1.016-.239c.31-.162.56-.394.737-.692l-.858-.512a.84.84 0 0 1-.343.319zm.734-.687c.185-.3.273-.636.273-.994h-1c0 .188-.045.34-.125.471zm.273-.994c0-.358-.088-.693-.277-.99l-.844.537c.076.12.12.265.12.453zm-.274-.985a1.83 1.83 0 0 0-.73-.67l-.459.889c.15.078.26.18.339.307zm-.724-.666a2.15 2.15 0 0 0-1.025-.241v1c.23 0 .41.046.555.123zm-1.025-.241c-.366 0-.71.075-1.022.239l.464.885a1.2 1.2 0 0 1 .558-.124zm-1.016.236a1.8 1.8 0 0 0-.739.671l.85.526a.83.83 0 0 1 .342-.306zm-.739.671c-.183.296-.268.63-.268.985h1c0-.19.044-.338.119-.459zm-.268.985c0 .355.085.69.264.989l.859-.512a.9.9 0 0 1-.123-.477zm.27.998c.18.29.428.516.731.68l.476-.88a.94.94 0 0 1-.36-.33zm.737.683c.31.163.653.24 1.016.24v-1c-.22 0-.4-.046-.552-.125z" mask="url(#d)"/></g></g><rect width="37.9" height="37.9" x="1.05" y="1.05" stroke="#fff" stroke-opacity=".15" stroke-width="2.1" rx="6.95"/><defs><linearGradient id="b" x1="20" x2="20" y1="0" y2="40" gradientUnits="userSpaceOnUse"><stop stop-color="#2f1a07"/><stop offset="1" stop-color="#111a21"/></linearGradient><clipPath id="a"><rect width="40" height="40" fill="#fff" rx="8"/></clipPath><filter id="c" width="36" height="39.084" x="2" y=".166" color-interpolation-filters="sRGB" filterUnits="userSpaceOnUse"><feFlood flood-opacity="0" result="BackgroundImageFix"/><feColorMatrix in="SourceAlpha" result="hardAlpha" values="0 0 0 0 0 0 0 0 0 0 0 0 0 0 0 0 0 0 127 0"/><feOffset/><feGaussianBlur stdDeviation="2"/><feComposite in2="hardAlpha" operator="out"/><feColorMatrix values="0 0 0 0 0 0 0 0 0 0 0 0 0 0 0 0 0 0 0.25 0"/><feBlend in2="BackgroundImageFix" result="effect1_dropShadow_2_1865"/><feBlend in="SourceGraphic" in2="effect1_dropShadow_2_1865" result="shape"/></filter></defs></svg>