<svg xmlns="http://www.w3.org/2000/svg" width="40" height="40" fill="none" viewBox="0 0 40 40"><rect width="40" height="40" fill="url(#a)" rx="8"/><rect width="37.9" height="37.9" x="1.05" y="1.05" stroke="#fff" stroke-opacity=".15" stroke-width="2.1" rx="6.95"/><g filter="url(#b)"><path fill="#f7df1e" d="M6 6h28v28H6zm25.706 21.322c-.204-1.277-1.036-2.35-3.503-3.352-.859-.402-1.813-.682-2.097-1.33-.106-.385-.122-.595-.053-.822.175-.754 1.067-.98 1.767-.77.455.14.875.49 1.139 1.05 1.206-.789 1.206-.789 2.047-1.313-.315-.49-.471-.7-.683-.91-.735-.822-1.714-1.242-3.307-1.206l-.822.104c-.789.192-1.54.612-1.995 1.172-1.33 1.506-.946 4.131.664 5.216 1.592 1.19 3.92 1.452 4.218 2.573.28 1.365-1.015 1.802-2.293 1.645-.947-.21-1.47-.684-2.048-1.559l-2.135 1.226c.245.56.525.804.945 1.294 2.03 2.049 7.105 1.944 8.016-1.171.034-.105.28-.823.087-1.925zm-10.48-8.452h-2.622c0 2.26-.011 4.508-.011 6.772 0 1.437.073 2.757-.161 3.163-.385.804-1.377.701-1.827.56-.462-.229-.697-.544-.968-.998-.074-.122-.129-.228-.149-.228L13.36 29.45c.356.735.875 1.368 1.545 1.77.998.595 2.338.788 3.741.473.914-.264 1.701-.807 2.113-1.647.595-1.085.47-2.415.463-3.903.014-2.397 0-4.794 0-7.21z"/></g><defs><linearGradient id="a" x1="20" x2="20" y1="0" y2="40" gradientUnits="userSpaceOnUse"><stop stop-color="#35300a"/><stop offset="1" stop-color="#232004"/></linearGradient><filter id="b" width="36" height="36" x="2" y="2" color-interpolation-filters="sRGB" filterUnits="userSpaceOnUse"><feFlood flood-opacity="0" result="BackgroundImageFix"/><feColorMatrix in="SourceAlpha" result="hardAlpha" values="0 0 0 0 0 0 0 0 0 0 0 0 0 0 0 0 0 0 127 0"/><feOffset/><feGaussianBlur stdDeviation="2"/><feComposite in2="hardAlpha" operator="out"/><feColorMatrix values="0 0 0 0 0 0 0 0 0 0 0 0 0 0 0 0 0 0 0.25 0"/><feBlend in2="BackgroundImageFix" result="effect1_dropShadow_2_1958"/><feBlend in="SourceGraphic" in2="effect1_dropShadow_2_1958" result="shape"/></filter></defs></svg>