<svg xmlns="http://www.w3.org/2000/svg" width="40" height="40" fill="none" viewBox="0 0 40 40"><g clip-path="url(#a)"><rect width="40" height="40" fill="url(#b)" rx="8"/><g stroke-width=".25" filter="url(#c)"><path fill="#4e7896" stroke="#4e7896" d="m30.384 32.101.241.057c-.055.712-.666 1.253-1.557 1.662-.898.413-2.126.713-3.507.92-2.763.415-6.172.465-8.869.29l-.116-.009c-1.704-.104-2.74-.299-3.353-.473a4 4 0 0 1-.648-.237 1.4 1.4 0 0 1-.175-.102l-.01-.008-.003-.002-.002-.002-.338-.29.44.071c3.324.548 8.989.649 13.557-.2 2.01-.373 3.103-.808 3.69-1.143a2.4 2.4 0 0 0 .55-.405 1 1 0 0 0 .1-.128Zm-17.765-1.836c.285.008.543.058.717.18l.325.227h-.41l-.045.003q-.06.002-.183.015a6 6 0 0 0-.728.13l-.009.001a5.5 5.5 0 0 0-1.387.457 1.6 1.6 0 0 0-.265.167.4.4 0 0 0-.12.136c-.009.024-.008.042.01.067a.5.5 0 0 0 .207.136c.728.317 1.938.542 3.409.682 1.466.139 3.178.191 4.903.172 3.455-.037 6.939-.363 8.59-.859l.299-.101c.267-.103.446-.207.562-.303.152-.126.192-.236.196-.316a.37.37 0 0 0-.073-.223 1 1 0 0 0-.058-.071l-.019-.018-.005-.005.033-.04.04-.18h.053l.032.028c.371.175.61.395.615.674a.62.62 0 0 1-.155.397 1.7 1.7 0 0 1-.41.35c-.694.443-2.025.868-3.805 1.184-3.57.635-9.015.847-14.982-.132-.547-.088-.937-.206-1.191-.35-.255-.143-.4-.329-.389-.555.01-.21.157-.406.352-.575a3.7 3.7 0 0 1 .782-.494 8.6 8.6 0 0 1 2.125-.694 4.8 4.8 0 0 1 .984-.09Zm3.437-2.197-.38.232-.008.005-.03.02a1 1 0 0 0-.092.074.44.44 0 0 0-.143.197.1.1 0 0 0 .01.066c.012.024.044.06.113.099.143.08.415.16.896.21h.003c2.325.298 3.559.249 6.137-.25l.048-.008.041.025a9 9 0 0 0 1.622.791l.293.109-.287.123c-2.942 1.264-6.271 1.227-8.294.708-.506-.13-.936-.292-1.26-.474-.317-.18-.554-.391-.638-.632a.55.55 0 0 1 0-.38.84.84 0 0 1 .259-.345c.246-.21.652-.4 1.231-.565l.017-.005zm-1.065-3.04-.066.022a2 2 0 0 0-.132.125.76.76 0 0 0-.186.295.22.22 0 0 0 0 .128.27.27 0 0 0 .103.128c.128.096.387.19.866.24l.927.083c2.121.167 4.011.128 7.007-.482l.067-.013.047.048c.32.327.714.574 1.146.72l.372.126-.375.112c-3.531 1.058-7.276 1.11-9.513.68-.56-.107-1.031-.246-1.383-.41-.344-.16-.603-.357-.691-.6-.097-.264.027-.521.297-.748.268-.223.704-.443 1.326-.655l.188-.143zm11.886-3.718c1.821-.64 3.494.321 3.714 1.754.11.718-.153 1.526-.91 2.273-.754.745-2.004 1.433-3.885 1.925l-.444.115.324-.325.003-.003.016-.02a1 1 0 0 0 .058-.095l.034-.069h.048c2.76-1.444 3.43-2.825 3.27-3.755-.16-.94-1.18-1.52-2.017-1.358a4 4 0 0 0-.587.177l-.025.011-.006.002h-.001l-.334.168.167-.335v-.002l.003-.004.006-.012a1 1 0 0 1 .128-.173 1 1 0 0 1 .297-.22zm-10.614.165.098.197-.208-.015-.032.009a18 18 0 0 0-.73.195c-.453.129-1.017.304-1.471.492a3.4 3.4 0 0 0-.56.282.8.8 0 0 0-.153.126c-.034.037-.04.06-.042.07 0 .005-.002.016.019.038a.5.5 0 0 0 .155.095c.169.072.452.14.885.195 1.48.199 4.407.15 7.146-.05l.834-.083a59 59 0 0 0 3.256-.45l.284-.048.074-.013.02-.003.005-.001.073.237-.008.004-.026.012-.097.044a15 15 0 0 0-.33.157c-.267.13-.599.304-.867.475l-.017.011-.018.005c-2.782.731-6.831.931-9.803.762-1.483-.085-2.715-.263-3.389-.52a1.6 1.6 0 0 1-.414-.22c-.102-.082-.18-.186-.19-.315-.007-.13.059-.247.16-.347q.152-.15.446-.295h.001a11.4 11.4 0 0 1 3.375-1.032 9 9 0 0 1 1.034-.086q.186-.004.285 0l.075.003.086-.02z"/><path fill="#f58219" stroke="#f58219" d="m26.202 11.04.093.23c-1.616.937-2.748 1.706-3.514 2.366-.767.66-1.156 1.202-1.305 1.682-.146.475-.064.908.155 1.368.223.468.578.947.97 1.517h-.002c.442.615.538 1.21.423 1.756-.114.54-.431 1.018-.794 1.412a6.3 6.3 0 0 1-1.105.93 7 7 0 0 1-.518.32l-.031.017-.01.004h-.001l-.001.002-.137-.208.001-.002.003-.001.014-.012.053-.048a2.9 2.9 0 0 0 .637-.853 1.83 1.83 0 0 0 .193-.943c-.028-.344-.172-.723-.518-1.118v-.001c-1.238-1.436-1.537-2.698-1.253-3.785.282-1.078 1.13-1.95 2.11-2.63.984-.68 2.119-1.181 3.004-1.51a18 18 0 0 1 1.417-.463l.086-.022.023-.006.006-.001zm-3.625-6.128v.002l.004.002.006.008.028.03q.034.04.093.115c.076.1.178.248.279.44.203.384.407.947.417 1.662.02 1.436-.746 3.448-3.777 5.842l-.002-.001c-1.198.956-1.852 1.802-2.153 2.562-.299.756-.254 1.44-.028 2.09.227.654.636 1.272 1.065 1.893.426.614.875 1.234 1.155 1.874l-.199.142c-1.419-1.276-2.653-2.49-3.355-3.653-.352-.583-.575-1.162-.616-1.735a2.6 2.6 0 0 1 .338-1.48l.125-.206c.522-.793 1.269-1.479 2.066-2.135.803-.66 1.649-1.286 2.4-1.974.747-.686 1.384-1.422 1.758-2.286.373-.86.49-1.857.185-3.074l-.112-.447z"/></g></g><rect width="37.9" height="37.9" x="1.05" y="1.05" stroke="#fff" stroke-opacity=".15" stroke-width="2.1" rx="6.95"/><defs><linearGradient id="b" x1="20" x2="20" y1="0" y2="40" gradientUnits="userSpaceOnUse"><stop stop-color="#2f1a07"/><stop offset="1" stop-color="#111a21"/></linearGradient><clipPath id="a"><rect width="40" height="40" fill="#fff" rx="8"/></clipPath><filter id="c" width="36" height="39.084" x="2" y=".166" color-interpolation-filters="sRGB" filterUnits="userSpaceOnUse"><feFlood flood-opacity="0" result="BackgroundImageFix"/><feColorMatrix in="SourceAlpha" result="hardAlpha" values="0 0 0 0 0 0 0 0 0 0 0 0 0 0 0 0 0 0 127 0"/><feOffset/><feGaussianBlur stdDeviation="2"/><feComposite in2="hardAlpha" operator="out"/><feColorMatrix values="0 0 0 0 0 0 0 0 0 0 0 0 0 0 0 0 0 0 0.25 0"/><feBlend in2="BackgroundImageFix" result="effect1_dropShadow_2_1857"/><feBlend in="SourceGraphic" in2="effect1_dropShadow_2_1857" result="shape"/></filter></defs></svg>