<svg xmlns="http://www.w3.org/2000/svg" width="40" height="40" fill="none" viewBox="0 0 40 40"><rect width="40" height="40" fill="url(#a)" rx="8"/><rect width="37.9" height="37.9" x="1.05" y="1.05" stroke="#fff" stroke-opacity=".15" stroke-width="2.1" rx="6.95"/><g filter="url(#b)"><path fill="red" d="M9.292 31.73a4 4 0 0 1-1.153-.752c-1.42-1.323-1.575-3.423-.432-4.812l-.015-.015.22-.213L25.41 8.732c.261-.255.518-1.015.631-1.452a.57.57 0 0 1 .128-.272l.021-.022.015-.014.004-.008.02-.017c.276-.28.766-.269 1.447.023.822.353 1.854 1.08 2.834 1.995.822.77 1.521 1.59 1.954 2.3.514.832.608 1.422.272 1.749l-.06.035-.027.009a1 1 0 0 1-.264.11c-.517.148-1.296.445-1.492.647L13.19 31.278l-.016-.015c-1.07.83-2.547 1.025-3.875.461l-.008-.003zm-.84-5.417-.049.046c-1.137 1.146-1.062 3.023.18 4.182q.42.393.946.615c1.186.509 2.524.287 3.412-.577l.063-.056 17.411-17.137c.37-.372 1.529-.732 1.758-.797l.027-.01c.022-.011.032-.007.04-.024.029-.07.058-.342-.363-1.033-.408-.664-1.055-1.432-1.83-2.152-.9-.831-1.895-1.545-2.628-1.86-.476-.204-.68-.18-.727-.14l-.02.046c-.032.128-.33 1.266-.788 1.723l-17.43 17.17zm16.601-8.532s-1.724.769-2.995.768c-1.27-.004-2.011-.464-3.206-.347-1.19.117-1.994.645-1.994.645L8.81 26.77c-.89.902-.804 2.443.182 3.37.991.926 2.551.93 3.467.05zm-10.942 8.888c.147.007.275.118.273.26 0 .141-.11.255-.258.248-.148-.005-.275-.118-.274-.259-.003-.133.107-.248.26-.249m-.35-2.601c-.22-.002-.409-.175-.41-.386a.36.36 0 0 1 .384-.376c.223 0 .41.176.411.384.017.212-.145.365-.381.367zm.889-1.11c-.009-.395.306-.715.723-.72.41.007.752.322.776.72a.71.71 0 0 1-.72.72c-.43-.012-.77-.329-.795-.728zm4.075-1.323a.4.4 0 0 1 .412.38.364.364 0 0 1-.383.379c-.224 0-.412-.176-.411-.387-.016-.213.165-.384.384-.376zm-.9-2.262c.149.007.276.119.273.26a.244.244 0 0 1-.258.252c-.148-.007-.276-.119-.272-.259a.25.25 0 0 1 .257-.253m9.578-10.969c.251-.247 1.293.334 2.326 1.305 1.03.964 1.664 1.95 1.415 2.198-.258.248-1.3-.334-2.33-1.3-1.038-.968-1.67-1.953-1.414-2.205z"/></g><defs><linearGradient id="a" x1="20" x2="20" y1="0" y2="40" gradientUnits="userSpaceOnUse"><stop stop-color="#360a0a"/><stop offset="1" stop-color="#1e0505"/></linearGradient><filter id="b" width="36" height="36" x="2" y="2" color-interpolation-filters="sRGB" filterUnits="userSpaceOnUse"><feFlood flood-opacity="0" result="BackgroundImageFix"/><feColorMatrix in="SourceAlpha" result="hardAlpha" values="0 0 0 0 0 0 0 0 0 0 0 0 0 0 0 0 0 0 127 0"/><feOffset/><feGaussianBlur stdDeviation="2"/><feComposite in2="hardAlpha" operator="out"/><feColorMatrix values="0 0 0 0 0 0 0 0 0 0 0 0 0 0 0 0 0 0 0.25 0"/><feBlend in2="BackgroundImageFix" result="effect1_dropShadow_2_1724"/><feBlend in="SourceGraphic" in2="effect1_dropShadow_2_1724" result="shape"/></filter></defs></svg>