<svg xmlns="http://www.w3.org/2000/svg" width="40" height="40" fill="none" viewBox="0 0 40 40"><rect width="40" height="40" fill="url(#a)" rx="8"/><rect width="37.9" height="37.9" x="1.05" y="1.05" stroke="#fff" stroke-opacity=".15" stroke-width="2.1" rx="6.95"/><g filter="url(#b)"><path fill="url(#c)" d="M30.754 6.926c-.513.209-1.413.87-2.51 1.857l.628 1.712a21 21 0 0 1 2.17-2c.052-.044.084-.067.084-.067-.027.024-.058.042-.085.067-.233.186-.943.795-2.062 2.049.89.08 2.271.093 3.407.061.596-1.76.065-2.677.065-2.677s-.64-1.433-1.697-1.002"/><path fill="#be202e" d="M25.902 19.88q-.173.009-.346.009c.057.002.121 0 .179-.003q.087.002.167-.005"/><path fill="#be202e" d="M25.902 19.88q-.173.009-.346.009c.057.002.121 0 .179-.003q.087.002.167-.005" opacity=".35"/><path fill="#be202e" d="M26.398 18.529q-.009-.002 0 0c.017.002.035-.001.052.001.074 0 .15-.001.219-.008-.087.004-.178.003-.27.007"/><path fill="#be202e" d="M26.398 18.529q-.009-.002 0 0c.017.002.035-.001.052.001.074 0 .15-.001.219-.008-.087.004-.178.003-.27.007" opacity=".35"/><path fill="url(#d)" d="M25.727 14.248q.501-.663.999-1.294a37 37 0 0 1 2.14-2.465l-.629-1.707c-.073.069-.152.136-.231.21q-.439.402-.914.866-.532.525-1.098 1.111a53 53 0 0 0-1.966 2.18c-.014.016-.021.026-.035.04l.803 2.322c.314-.422.623-.846.931-1.263"/><path fill="url(#e)" d="M18.839 25.743c-.205.376-.416.762-.624 1.16 0 .006-.007.01-.008.016-.031.057-.062.11-.087.168-.143.266-.264.508-.55 1.052.31.195.518.618.7 1.093a1.77 1.77 0 0 0-.406-1.299c1.615.3 3.08.094 3.971-.973q.117-.144.229-.305c-.392.361-.823.48-1.587.329h-.006.006c1.203-.338 1.842-.737 2.457-1.455q.219-.253.445-.567c-1.136.858-2.325.979-3.503.595l-.92-.028c-.04.073-.078.14-.117.214"/><path fill="url(#f)" d="m19.552 23.814.822-1.42q.401-.683.82-1.374.422-.69.852-1.381.438-.704.893-1.398c.297-.459.605-.916.906-1.368.11-.165.22-.323.335-.487q.287-.415.581-.83c.008-.015.022-.03.03-.046l-.793-2.314c-.02.026-.042.056-.069.08-.32.383-.646.77-.963 1.17q-.485.605-.956 1.237a78 78 0 0 0-.783 1.076c-.05.072-.102.149-.153.22a31 31 0 0 0-1.686 2.732q-.237.439-.445.848c-.114.231-.224.469-.332.701q-.378.824-.68 1.659l.808 2.332c.203-.37.418-.74.629-1.12z"/><path fill="url(#g)" d="M17.904 22.993a17 17 0 0 0-.598 2.04c-.003.023-.012.05-.016.072-.268-.6-1.134-1.272-1.13-1.266.536 1.053.91 2.072.846 3.013-.37.021-.85-.153-1.389-.436.519.618.941.828 1.11.891-.55-.043-1.173.247-1.809.59.888-.218 1.588-.255 2.056-.077a158 158 0 0 0-3.335 6.665.68.68 0 0 0 .52-.371c.2-.433 1.552-3.279 3.553-6.983.055-.105.116-.209.172-.32.017-.03.032-.056.048-.088q.318-.58.656-1.19c.054-.093.102-.182.155-.276l.001-.005-.807-2.333a.4.4 0 0 0-.033.074"/><path fill="url(#h)" d="M24.948 15.724c-.043.061-.08.118-.123.18-.125.184-.255.368-.38.558l-.426.632q-.11.16-.22.329c-.222.334-.444.68-.674 1.035a115 115 0 0 0-1.715 2.772c-.274.462-.556.934-.84 1.429-.254.436-.51.89-.772 1.353-.015.02-.024.047-.039.067a187 187 0 0 0-.803 1.45l.92.028c-.016-.008-.033-.01-.055-.019 1.105.02 2.662-.572 3.733-1.422.494-.392.96-.866 1.41-1.438.338-.425.66-.902.986-1.441q.422-.7.839-1.535a3.5 3.5 0 0 1-.891.167l-.174.01c-.058.003-.115 0-.178.003 1.068-.238 1.81-.882 2.404-1.72-.29.139-.757.31-1.292.353q-.106.01-.219.008c-.017-.002-.035.001-.057-.002a4.2 4.2 0 0 0 .978-.369c.062-.03.12-.068.176-.105q.132-.084.256-.177c.052-.044.104-.081.156-.125q.178-.151.337-.34c.034-.04.068-.075.097-.116q.066-.09.123-.174a10 10 0 0 0 .614-.982c.017-.037.039-.067.056-.104.049-.1.096-.189.131-.268q.078-.177.11-.283a.6.6 0 0 1-.13.06c-.329.134-.876.226-1.31.244l.846.029-.845-.029q-.009-.002-.018.004-.061-.001-.133.003c.007-.004.018-.003.024-.007l-2.89-.096c.002.023-.005.033-.012.038"/><path fill="url(#i)" d="M28.98 10.544q-.465.518-1.018 1.184c-.02.025-.041.045-.056.071a62 62 0 0 0-2.005 2.597c-.3.407-.605.842-.931 1.303l2.89.095c.883-.258 1.303-.543 1.735-.982q.172-.18.349-.384c.358-.405.716-.855 1.041-1.31.317-.439.605-.876.83-1.272q.218-.384.36-.703.117-.277.205-.533c-1.13.027-2.511.014-3.4-.066"/><path fill="#be202e" d="M25.734 19.892c-.058.003-.115 0-.179.003.058-.003.116-.007.179-.003"/><path fill="#be202e" d="M25.734 19.892c-.058.003-.115 0-.179.003.058-.003.116-.007.179-.003" opacity=".35"/><path fill="url(#j)" d="M25.734 19.892c-.058.003-.115 0-.179.003.058-.003.116-.007.179-.003"/><path fill="#be202e" d="m26.393 18.528.058.002c-.017-.002-.035.001-.058-.002"/><path fill="#be202e" d="m26.393 18.528.058.002c-.017-.002-.035.001-.058-.002" opacity=".35"/><path fill="url(#k)" d="m26.393 18.528.058.002c-.017-.002-.035.001-.058-.002"/><path fill="url(#l)" d="M10.555 6.31c-.178.451-.296 1.424-.32 2.72l1.51.653a18 18 0 0 1 .017-2.594c.003-.059.007-.094.007-.094 0 .032-.007.063-.008.094-.02.262-.055 1.082.082 2.556.598-.513 1.454-1.375 2.13-2.111-.79-1.454-1.72-1.68-1.72-1.68s-1.334-.474-1.698.456"/><path fill="#be202e" d="M16.09 17.302q-.1.114-.206.223a2 2 0 0 0 .107-.114c.037-.035.07-.074.1-.109"/><path fill="#be202e" d="M16.09 17.302q-.1.114-.206.223a2 2 0 0 0 .107-.114c.037-.035.07-.074.1-.109" opacity=".35"/><path fill="#be202e" d="M15.506 16.161q-.006.004 0 0c.012-.01.02-.022.033-.031q.069-.071.129-.144c-.05.058-.108.114-.162.175"/><path fill="#be202e" d="M15.506 16.161q-.006.004 0 0c.012-.01.02-.022.033-.031q.069-.071.129-.144c-.05.058-.108.114-.162.175" opacity=".35"/><path fill="url(#m)" d="M12.282 13.963a72 72 0 0 1-.238-1.422 32 32 0 0 1-.185-1.43q-.007-.044-.008-.081-.074-.689-.114-1.348l-1.507-.648-.004.274q-.005.523.01 1.106.016.657.055 1.373c.026.44.06.898.1 1.364q.058.597.127 1.211l.005.047 2.018.915q-.13-.686-.26-1.36"/><path fill="url(#n)" d="M15.609 25.345q.181.542.38 1.104l.005.015c.019.055.034.106.057.158.088.253.172.477.354.99.318-.075.724.052 1.148.228a1.64 1.64 0 0 0-1.103-.539c1.188-.835 1.951-1.885 1.797-3.1a4 4 0 0 0-.06-.33c-.003.468-.19.812-.758 1.201l-.004.003.004-.003c.517-.965.646-1.612.552-2.44a8 8 0 0 0-.1-.628c-.133 1.242-.783 2.065-1.758 2.573l-.583.563z"/><path fill="url(#o)" d="M14.78 23.715q-.214-.685-.43-1.387-.202-.672-.399-1.36-.195-.688-.385-1.382-.194-.708-.37-1.42c-.12-.467-.232-.941-.344-1.408-.04-.17-.078-.337-.114-.51q-.098-.435-.189-.874l-.012-.047-2.007-.917q.008.043.01.092c.056.436.11.88.178 1.324q.1.675.226 1.36.108.576.227 1.153l.051.231a27 27 0 0 0 .761 2.735q.143.42.284.8.125.322.257.64.31.742.673 1.443l2.028.92c-.119-.355-.23-.717-.35-1.083q-.046-.152-.096-.31"/><path fill="url(#p)" d="M13.229 24.251q.439.85.974 1.626c.013.016.024.038.037.054-.559-.198-1.532-.064-1.524-.063 1.02.308 1.918.696 2.498 1.312-.214.247-.622.443-1.139.608.724.052 1.122-.085 1.267-.153-.367.32-.558.89-.722 1.501.4-.693.806-1.157 1.21-1.343a140 140 0 0 0 2.333 6.184.58.58 0 0 0 .075-.555 132 132 0 0 1-2.409-6.516c-.034-.1-.065-.201-.103-.304-.01-.03-.018-.055-.03-.085q-.185-.555-.378-1.142c-.029-.091-.058-.176-.086-.267l-.003-.004-2.028-.92a.4.4 0 0 0 .027.067"/><path fill="url(#q)" d="m12.774 15.357.042.188c.045.192.086.387.134.582l.154.656q.038.167.081.34.127.515.267 1.059.173.668.372 1.38a100 100 0 0 0 .821 2.802q.199.64.415 1.316c.005.021.016.044.02.066.145.442.294.9.45 1.364q.002.017.01.03l.583-.563c-.015.005-.027.014-.046.023.691-.685 1.257-2.028 1.356-3.225a7.5 7.5 0 0 0-.08-1.77 12 12 0 0 0-.342-1.504 19 19 0 0 0-.494-1.468 3 3 0 0 1-.437.664l-.1.115c-.034.039-.07.073-.107.115.498-.82.531-1.682.344-2.57-.086.268-.26.667-.56 1.03a2 2 0 0 1-.13.145c-.011.009-.02.022-.036.034.165-.29.285-.566.358-.843q.025-.086.04-.175.024-.135.04-.27c.003-.06.01-.115.013-.174a2.5 2.5 0 0 0-.017-.421c-.005-.046-.007-.089-.016-.132-.014-.065-.024-.126-.039-.184a9 9 0 0 0-.268-.989c-.014-.033-.021-.066-.035-.099q-.051-.14-.096-.247a3 3 0 0 0-.118-.242.5.5 0 0 1-.04.118c-.114.29-.389.692-.643.976l.537-.516-.537.516q-.007.004-.009.013c-.024.025-.053.053-.078.086 0-.007.008-.013.01-.02l-1.837 1.764c.017.012.019.023.018.03"/><path fill="url(#r)" d="M11.843 9.645q.056.61.153 1.366c.004.029.005.054.012.079a53 53 0 0 0 .477 2.854c.083.44.182.898.285 1.385l1.836-1.764c.371-.715.442-1.154.418-1.695a14 14 0 0 0-.26-1.914 13 13 0 0 0-.327-1.302 7 7 0 0 0-.24-.657 8 8 0 0 0-.225-.456c-.675.729-1.531 1.592-2.13 2.104"/><path fill="#be202e" d="M15.994 17.414c-.034.039-.07.073-.108.115.034-.039.067-.077.108-.115"/><path fill="#be202e" d="M15.994 17.414c-.034.039-.07.073-.108.115.034-.039.067-.077.108-.115" opacity=".35"/><path fill="url(#s)" d="M15.994 17.414c-.034.039-.07.073-.108.115.034-.039.067-.077.108-.115"/><path fill="#be202e" d="M15.502 16.164c.012-.01.02-.022.036-.034-.012.009-.02.022-.036.034"/><path fill="#be202e" d="M15.502 16.164c.012-.01.02-.022.036-.034-.012.009-.02.022-.036.034" opacity=".35"/><path fill="url(#t)" d="M15.502 16.164c.012-.01.02-.022.036-.034-.012.009-.02.022-.036.034"/></g><defs><linearGradient id="a" x1="20" x2="20" y1="0" y2="40" gradientUnits="userSpaceOnUse"><stop stop-color="#352008"/><stop offset=".5" stop-color="#30080d"/><stop offset="1" stop-color="#12112e"/></linearGradient><linearGradient id="c" x1="28.95" x2="35.505" y1="9.078" y2="8.21" gradientUnits="userSpaceOnUse"><stop stop-color="#f69923"/><stop offset=".312" stop-color="#f79a23"/><stop offset=".838" stop-color="#e97826"/></linearGradient><linearGradient id="d" x1="11.087" x2="27.36" y1="34.861" y2="9.402" gradientUnits="userSpaceOnUse"><stop offset=".323" stop-color="#9e2064"/><stop offset=".63" stop-color="#c92037"/><stop offset=".751" stop-color="#cd2335"/><stop offset="1" stop-color="#e97826"/></linearGradient><linearGradient id="e" x1="15.687" x2="25.384" y1="33.472" y2="18.301" gradientUnits="userSpaceOnUse"><stop stop-color="#282662"/><stop offset=".095" stop-color="#662e8d"/><stop offset=".788" stop-color="#9f2064"/><stop offset=".949" stop-color="#cd2032"/></linearGradient><linearGradient id="f" x1="11.79" x2="28.063" y1="33.296" y2="7.837" gradientUnits="userSpaceOnUse"><stop offset=".323" stop-color="#9e2064"/><stop offset=".63" stop-color="#c92037"/><stop offset=".751" stop-color="#cd2335"/><stop offset="1" stop-color="#e97826"/></linearGradient><linearGradient id="g" x1="13.361" x2="21.913" y1="31.684" y2="18.305" gradientUnits="userSpaceOnUse"><stop stop-color="#282662"/><stop offset=".095" stop-color="#662e8d"/><stop offset=".788" stop-color="#9f2064"/><stop offset=".949" stop-color="#cd2032"/></linearGradient><linearGradient id="h" x1="14.447" x2="30.72" y1="34.995" y2="9.536" gradientUnits="userSpaceOnUse"><stop offset=".323" stop-color="#9e2064"/><stop offset=".63" stop-color="#c92037"/><stop offset=".751" stop-color="#cd2335"/><stop offset="1" stop-color="#e97826"/></linearGradient><linearGradient id="i" x1="13.276" x2="29.548" y1="36.47" y2="11.011" gradientUnits="userSpaceOnUse"><stop offset=".323" stop-color="#9e2064"/><stop offset=".63" stop-color="#c92037"/><stop offset=".751" stop-color="#cd2335"/><stop offset="1" stop-color="#e97826"/></linearGradient><linearGradient id="j" x1="15.238" x2="31.511" y1="35.5" y2="10.041" gradientUnits="userSpaceOnUse"><stop offset=".323" stop-color="#9e2064"/><stop offset=".63" stop-color="#c92037"/><stop offset=".751" stop-color="#cd2335"/><stop offset="1" stop-color="#e97826"/></linearGradient><linearGradient id="k" x1="15.089" x2="31.315" y1="35.435" y2="9.903" gradientUnits="userSpaceOnUse"><stop offset=".323" stop-color="#9e2064"/><stop offset=".63" stop-color="#c92037"/><stop offset=".751" stop-color="#cd2335"/><stop offset="1" stop-color="#e97826"/></linearGradient><linearGradient id="l" x1="10.862" x2="14.24" y1="8.765" y2="4.049" gradientUnits="userSpaceOnUse"><stop stop-color="#f69923"/><stop offset=".312" stop-color="#f79a23"/><stop offset=".838" stop-color="#e97826"/></linearGradient><linearGradient id="m" x1="16.845" x2="10.825" y1="35.816" y2="9.798" gradientUnits="userSpaceOnUse"><stop offset=".323" stop-color="#9e2064"/><stop offset=".63" stop-color="#c92037"/><stop offset=".751" stop-color="#cd2335"/><stop offset="1" stop-color="#e97826"/></linearGradient><linearGradient id="n" x1="18.755" x2="15.167" y1="32.065" y2="16.561" gradientUnits="userSpaceOnUse"><stop stop-color="#282662"/><stop offset=".095" stop-color="#662e8d"/><stop offset=".788" stop-color="#9f2064"/><stop offset=".949" stop-color="#cd2032"/></linearGradient><linearGradient id="o" x1="16.248" x2="10.228" y1="34.415" y2="8.397" gradientUnits="userSpaceOnUse"><stop offset=".323" stop-color="#9e2064"/><stop offset=".63" stop-color="#c92037"/><stop offset=".751" stop-color="#cd2335"/><stop offset="1" stop-color="#e97826"/></linearGradient><linearGradient id="p" x1="16.153" x2="12.989" y1="32.437" y2="18.764" gradientUnits="userSpaceOnUse"><stop stop-color="#282662"/><stop offset=".095" stop-color="#662e8d"/><stop offset=".788" stop-color="#9f2064"/><stop offset=".949" stop-color="#cd2032"/></linearGradient><linearGradient id="q" x1="18.995" x2="12.974" y1="33.779" y2="7.761" gradientUnits="userSpaceOnUse"><stop offset=".323" stop-color="#9e2064"/><stop offset=".63" stop-color="#c92037"/><stop offset=".751" stop-color="#cd2335"/><stop offset="1" stop-color="#e97826"/></linearGradient><linearGradient id="r" x1="19.245" x2="13.224" y1="35.422" y2="9.404" gradientUnits="userSpaceOnUse"><stop offset=".323" stop-color="#9e2064"/><stop offset=".63" stop-color="#c92037"/><stop offset=".751" stop-color="#cd2335"/><stop offset="1" stop-color="#e97826"/></linearGradient><linearGradient id="s" x1="19.811" x2="13.79" y1="33.59" y2="7.572" gradientUnits="userSpaceOnUse"><stop offset=".323" stop-color="#9e2064"/><stop offset=".63" stop-color="#c92037"/><stop offset=".751" stop-color="#cd2335"/><stop offset="1" stop-color="#e97826"/></linearGradient><linearGradient id="t" x1="19.723" x2="13.815" y1="33.449" y2="7.646" gradientUnits="userSpaceOnUse"><stop offset=".323" stop-color="#9e2064"/><stop offset=".63" stop-color="#c92037"/><stop offset=".751" stop-color="#cd2335"/><stop offset="1" stop-color="#e97826"/></linearGradient><filter id="b" width="36" height="36.752" x="2" y="1.733" color-interpolation-filters="sRGB" filterUnits="userSpaceOnUse"><feFlood flood-opacity="0" result="BackgroundImageFix"/><feColorMatrix in="SourceAlpha" result="hardAlpha" values="0 0 0 0 0 0 0 0 0 0 0 0 0 0 0 0 0 0 127 0"/><feOffset/><feGaussianBlur stdDeviation="2"/><feComposite in2="hardAlpha" operator="out"/><feColorMatrix values="0 0 0 0 0 0 0 0 0 0 0 0 0 0 0 0 0 0 0.25 0"/><feBlend in2="BackgroundImageFix" result="effect1_dropShadow_2_1899"/><feBlend in="SourceGraphic" in2="effect1_dropShadow_2_1899" result="shape"/></filter></defs></svg>