<svg xmlns="http://www.w3.org/2000/svg" width="40" height="40" fill="none" viewBox="0 0 40 40"><rect width="40" height="40" fill="url(#a)" rx="8"/><rect width="37.9" height="37.9" x="1.05" y="1.05" stroke="#fff" stroke-opacity=".15" stroke-width="2.1" rx="6.95"/><g filter="url(#b)"><path fill="#31a4e7" fill-rule="evenodd" d="M19.225 7.027a1.6 1.6 0 0 0-.394.122c-.117.061-9.736 10.76-11.44 12.725-.236.273-.6.948-.804 1.493-1.133 3.025-.613 5.592 1.456 7.192.62.479.52.445 7.366 2.489 7.379 2.202 7 2.112 7.433 1.762.248-.201 10.814-12.969 10.931-13.21.14-.288.147-.6.02-.949-.188-.513-.202-1.296-.033-1.84.313-1.01-.094-1.73-.975-1.726-.918.004-1.556 1.428-1.347 3.01.036.278.07.568.073.646.008.152-9.577 11.834-9.714 11.84-.125.005-12.2-3.601-12.397-3.702-1.34-.687-1.683-3.794-.487-4.407.557-.285-.397-.522 9.831 2.438 2.966.858 2.994.86 3.577.228.8-.867 11.466-13.276 11.565-13.456.175-.319.145-.857-.065-1.161-.281-.408-.045-.344-7.31-1.973-7.627-1.71-6.977-1.575-7.286-1.521m4.339 5.4c4.993 1.23 4.642 1.036 3.762 2.093-.923 1.11-.506 1.119-5.567-.124-5.29-1.3-4.92-1.1-4.037-2.183.882-1.08.534-1.094 5.842.214" clip-rule="evenodd"/></g><defs><linearGradient id="a" x1="20" x2="20" y1="0" y2="40" gradientUnits="userSpaceOnUse"><stop stop-color="#142e3d"/><stop offset="0" stop-color="#112734"/><stop offset="1" stop-color="#04111a"/></linearGradient><filter id="b" width="36" height="36" x="2" y="2" color-interpolation-filters="sRGB" filterUnits="userSpaceOnUse"><feFlood flood-opacity="0" result="BackgroundImageFix"/><feColorMatrix in="SourceAlpha" result="hardAlpha" values="0 0 0 0 0 0 0 0 0 0 0 0 0 0 0 0 0 0 127 0"/><feOffset/><feGaussianBlur stdDeviation="2"/><feComposite in2="hardAlpha" operator="out"/><feColorMatrix values="0 0 0 0 0 0 0 0 0 0 0 0 0 0 0 0 0 0 0.25 0"/><feBlend in2="BackgroundImageFix" result="effect1_dropShadow_2_1731"/><feBlend in="SourceGraphic" in2="effect1_dropShadow_2_1731" result="shape"/></filter></defs></svg>