<svg xmlns="http://www.w3.org/2000/svg" width="40" height="40" fill="none" viewBox="0 0 40 40"><rect width="40" height="40" fill="url(#a)" rx="8"/><rect width="37.9" height="37.9" x="1.05" y="1.05" stroke="#fff" stroke-opacity=".15" stroke-width="2.1" rx="6.95"/><g filter="url(#b)"><path fill="#3655ff" d="M8.918 8.907A6.15 6.15 0 0 1 13.284 7h13.65c1.484 0 2.87.65 4.148 1.907A5.88 5.88 0 0 1 33 13.175v13.834c0 1.452-.607 2.795-1.82 4.041A6.25 6.25 0 0 1 26.77 33H13.36a6.83 6.83 0 0 1-4.442-1.7c-1.17-1.062-1.81-2.6-1.918-4.66V13.208a5.64 5.64 0 0 1 1.918-4.3m6.77 8.991 8.591 10.899h2.297c.53-.065.953-.217 1.267-.466.325-.25.542-.607.694-1.084v-5.351c.086-1.03.726-1.669 1.917-1.896q-1.786-.65-1.917-2.015v-5.113c-.13-.477-.358-.867-.694-1.16a2 2 0 0 0-1.18-.509h-2.33v11.05l-8.644-11.06h-2.416c-.607.108-1.051.325-1.354.65s-.499.845-.585 1.549v5.254c-.38.747-.975 1.191-1.788 1.354.921.173 1.517.66 1.788 1.473v5.168c.021.596.216 1.083.585 1.484.357.39.758.574 1.191.542h2.557z"/></g><defs><linearGradient id="a" x1="20" x2="20" y1="0" y2="40" gradientUnits="userSpaceOnUse"><stop stop-color="#0d1439"/><stop offset="1" stop-color="#060b24"/></linearGradient><filter id="b" width="36" height="36" x="2" y="2" color-interpolation-filters="sRGB" filterUnits="userSpaceOnUse"><feFlood flood-opacity="0" result="BackgroundImageFix"/><feColorMatrix in="SourceAlpha" result="hardAlpha" values="0 0 0 0 0 0 0 0 0 0 0 0 0 0 0 0 0 0 127 0"/><feOffset/><feGaussianBlur stdDeviation="2"/><feComposite in2="hardAlpha" operator="out"/><feColorMatrix values="0 0 0 0 0 0 0 0 0 0 0 0 0 0 0 0 0 0 0.25 0"/><feBlend in2="BackgroundImageFix" result="effect1_dropShadow_2_1972"/><feBlend in="SourceGraphic" in2="effect1_dropShadow_2_1972" result="shape"/></filter></defs></svg>