<svg xmlns="http://www.w3.org/2000/svg" width="40" height="40" fill="none" viewBox="0 0 40 40"><rect width="40" height="40" fill="url(#a)" rx="8"/><rect width="37.9" height="37.9" x="1.05" y="1.05" stroke="#fff" stroke-opacity=".15" stroke-width="2.1" rx="6.95"/><g filter="url(#b)"><path fill="#fff" d="M19.501 6a6 6 0 0 0-.418.008c-.06.006-.252.024-.424.038-3.977.359-7.702 2.504-10.062 5.802a13.85 13.85 0 0 0-2.471 6.116c-.112.769-.126.996-.126 2.039s.014 1.27.126 2.039c.76 5.257 4.502 9.673 9.577 11.31a14.8 14.8 0 0 0 2.956.613c.424.047 2.258.047 2.682 0 1.88-.208 3.473-.673 5.044-1.475.241-.123.288-.156.255-.184a261 261 0 0 1-2.28-3.056l-2.239-3.024-2.805-4.152c-1.544-2.282-2.814-4.148-2.825-4.148-.01-.003-.022 1.842-.027 4.094-.008 3.943-.011 4.102-.06 4.195a.5.5 0 0 1-.241.249c-.088.044-.165.052-.578.052h-.474l-.125-.08a.5.5 0 0 1-.184-.2l-.057-.122.006-5.487.008-5.49.085-.107a.8.8 0 0 1 .202-.166c.112-.055.156-.06.63-.06.558 0 .651.021.796.18.041.044 1.56 2.332 3.378 5.087q2.76 4.185 5.523 8.366l2.217 3.358.112-.074a14.4 14.4 0 0 0 2.877-2.523 13.93 13.93 0 0 0 3.295-7.157c.112-.768.126-.996.126-2.038 0-1.043-.014-1.27-.126-2.04-.76-5.256-4.502-9.673-9.577-11.31a14.7 14.7 0 0 0-2.915-.61c-.197-.02-1.264-.042-1.88-.043m4.747 8.42c.405 0 .476.006.566.055a.55.55 0 0 1 .277.322c.022.072.027 1.593.022 5.022l-.008 4.92-.868-1.33-.87-1.33v-3.576c0-2.313.01-3.613.027-3.675a.56.56 0 0 1 .271-.345c.112-.058.153-.063.583-.063"/></g><defs><linearGradient id="a" x1="20" x2="20" y1="0" y2="40" gradientUnits="userSpaceOnUse"><stop stop-color="#1e1e1e"/><stop offset="1" stop-color="#0d0d0d"/></linearGradient><filter id="b" width="36" height="36" x="2" y="2" color-interpolation-filters="sRGB" filterUnits="userSpaceOnUse"><feFlood flood-opacity="0" result="BackgroundImageFix"/><feColorMatrix in="SourceAlpha" result="hardAlpha" values="0 0 0 0 0 0 0 0 0 0 0 0 0 0 0 0 0 0 127 0"/><feOffset/><feGaussianBlur stdDeviation="2"/><feComposite in2="hardAlpha" operator="out"/><feColorMatrix values="0 0 0 0 0 0 0 0 0 0 0 0 0 0 0 0 0 0 0.25 0"/><feBlend in2="BackgroundImageFix" result="effect1_dropShadow_2_2032"/><feBlend in="SourceGraphic" in2="effect1_dropShadow_2_2032" result="shape"/></filter></defs></svg>