<svg xmlns="http://www.w3.org/2000/svg" width="40" height="40" fill="none" viewBox="0 0 40 40"><rect width="40" height="40" fill="url(#a)" rx="8"/><rect width="37.9" height="37.9" x="1.05" y="1.05" stroke="#fff" stroke-opacity=".15" stroke-width="2.1" rx="6.95"/><g filter="url(#b)"><path fill="#80eec0" fill-rule="evenodd" d="M18.798 11.226c-.813-1.397-2.844-1.397-3.657 0L6.286 26.453c-.813 1.397.203 3.143 1.828 3.143h6.913c-.694-.607-.951-1.657-.426-2.558l6.707-11.496z" clip-rule="evenodd"/><path fill="#00dc82" d="M24.409 14.566c.672-1.143 2.354-1.143 3.026 0l7.329 12.458c.672 1.143-.168 2.572-1.513 2.572H18.593c-1.344 0-2.185-1.429-1.513-2.572z"/></g><defs><linearGradient id="a" x1="20" x2="20" y1="0" y2="40" gradientUnits="userSpaceOnUse"><stop stop-color="#0c3826"/><stop offset="1" stop-color="#052115"/></linearGradient><filter id="b" width="37.001" height="36" x="2" y="2" color-interpolation-filters="sRGB" filterUnits="userSpaceOnUse"><feFlood flood-opacity="0" result="BackgroundImageFix"/><feColorMatrix in="SourceAlpha" result="hardAlpha" values="0 0 0 0 0 0 0 0 0 0 0 0 0 0 0 0 0 0 127 0"/><feOffset/><feGaussianBlur stdDeviation="2"/><feComposite in2="hardAlpha" operator="out"/><feColorMatrix values="0 0 0 0 0 0 0 0 0 0 0 0 0 0 0 0 0 0 0.25 0"/><feBlend in2="BackgroundImageFix" result="effect1_dropShadow_2_2002"/><feBlend in="SourceGraphic" in2="effect1_dropShadow_2_2002" result="shape"/></filter></defs></svg>