<svg xmlns="http://www.w3.org/2000/svg" width="40" height="40" fill="none" viewBox="0 0 40 40"><g clip-path="url(#a)"><rect width="40" height="40" fill="url(#b)" rx="8"/><g filter="url(#c)"><path fill="url(#d)" d="M19.833 6a19.5 19.5 0 0 0-3.227.273c-2.858.5-3.377 1.544-3.377 3.472v2.546h6.754v.848h-9.288c-1.963 0-3.682 1.167-4.22 3.387-.62 2.545-.647 4.132 0 6.79.48 1.977 1.627 3.386 3.59 3.386h2.322V23.65c0-2.205 1.929-4.15 4.219-4.15h6.746a3.383 3.383 0 0 0 3.377-3.394V9.745c0-1.81-1.544-3.17-3.377-3.472A21.3 21.3 0 0 0 19.833 6m-3.652 2.048c.697 0 1.267.572 1.267 1.277a1.267 1.267 0 1 1-2.535 0c0-.705.568-1.277 1.268-1.277"/><path fill="url(#e)" d="M27.57 13.14v2.966c0 2.3-1.97 4.235-4.218 4.235h-6.746c-1.848 0-3.377 1.564-3.377 3.394v6.361c0 1.81 1.592 2.875 3.377 3.395 2.138.621 4.188.734 6.746 0 1.7-.487 3.377-1.467 3.377-3.395V27.55h-6.746v-.848h10.122c1.963 0 2.695-1.354 3.377-3.387.705-2.092.675-4.105 0-6.789-.485-1.932-1.411-3.386-3.377-3.386zm-3.793 16.108c.7 0 1.267.567 1.267 1.269 0 .704-.567 1.277-1.267 1.277a1.274 1.274 0 0 1-1.268-1.277c0-.702.57-1.27 1.268-1.27"/></g></g><rect width="37.9" height="37.9" x="1.05" y="1.05" stroke="#fff" stroke-opacity=".15" stroke-width="2.1" rx="6.95"/><defs><linearGradient id="b" x1="6.389" x2="40.59" y1="0" y2="7.679" gradientUnits="userSpaceOnUse"><stop stop-color="#152b3e"/><stop offset="1" stop-color="#282208"/></linearGradient><linearGradient id="d" x1="6" x2="21.429" y1="6" y2="19.293" gradientUnits="userSpaceOnUse"><stop stop-color="#5a9fd4"/><stop offset="1" stop-color="#306998"/></linearGradient><linearGradient id="e" x1="23.614" x2="18.108" y1="30.303" y2="22.502" gradientUnits="userSpaceOnUse"><stop stop-color="#ffd43b"/><stop offset="1" stop-color="#ffe873"/></linearGradient><clipPath id="a"><rect width="40" height="40" fill="#fff" rx="8"/></clipPath><filter id="c" width="39.429" height="39.429" x=".286" y=".286" color-interpolation-filters="sRGB" filterUnits="userSpaceOnUse"><feFlood flood-opacity="0" result="BackgroundImageFix"/><feColorMatrix in="SourceAlpha" result="hardAlpha" values="0 0 0 0 0 0 0 0 0 0 0 0 0 0 0 0 0 0 127 0"/><feOffset/><feGaussianBlur stdDeviation="2.857"/><feComposite in2="hardAlpha" operator="out"/><feColorMatrix values="0 0 0 0 0 0 0 0 0 0 0 0 0 0 0 0 0 0 0.25 0"/><feBlend in2="BackgroundImageFix" result="effect1_dropShadow_2_3751"/><feBlend in="SourceGraphic" in2="effect1_dropShadow_2_3751" result="shape"/></filter></defs></svg>