<svg xmlns="http://www.w3.org/2000/svg" width="40" height="40" fill="none" viewBox="0 0 40 40"><rect width="40" height="40" fill="url(#a)" rx="8"/><rect width="37.9" height="37.9" x="1.05" y="1.05" stroke="#fff" stroke-opacity=".15" stroke-width="2.1" rx="6.95"/><g filter="url(#b)"><path fill="#61dafb" d="M22.602 20.003a2.78 2.78 0 0 1-.764 1.923 2.56 2.56 0 0 1-1.844.797 2.56 2.56 0 0 1-1.844-.797 2.78 2.78 0 0 1-.764-1.923c0-.721.274-1.413.763-1.923a2.56 2.56 0 0 1 1.844-.797c.692 0 1.355.287 1.845.797a2.78 2.78 0 0 1 .764 1.923M25.69 7c-1.57 0-3.625 1.168-5.703 3.19-2.076-2.011-4.132-3.166-5.701-3.166a2.5 2.5 0 0 0-1.29.339c-1.605.964-1.964 3.97-1.136 7.742C8.31 16.248 6 18.076 6 20.003c0 1.934 2.322 3.767 5.884 4.902-.822 3.787-.456 6.797 1.152 7.76.373.228.805.335 1.286.335 1.569 0 3.625-1.168 5.703-3.192 2.076 2.012 4.132 3.167 5.701 3.167.478 0 .914-.11 1.29-.335 1.603-.963 1.964-3.969 1.136-7.742C31.69 23.764 34 21.932 34 20.003c0-1.934-2.322-3.767-5.884-4.904.822-3.783.456-6.796-1.152-7.76A2.45 2.45 0 0 0 25.69 7m-.006 1.326v.007c.263 0 .474.054.651.155.777.464 1.114 2.232.852 4.505a19 19 0 0 1-.292 1.752 26 26 0 0 0-3.625-.65c-.77-1.1-1.569-2.1-2.374-2.976 1.858-1.8 3.602-2.788 4.79-2.792zm-11.398.024c1.18 0 2.933.983 4.795 2.774a28 28 0 0 0-2.357 2.97 25.5 25.5 0 0 0-3.632.654 19 19 0 0 1-.296-1.727c-.268-2.272.063-4.038.833-4.509.222-.11.467-.154.657-.16zm5.696 3.71q.797.857 1.586 1.903A33 33 0 0 0 20 13.92q-.806 0-1.587.042a23 23 0 0 1 1.57-1.904zM20 15.254c.863 0 1.723.042 2.569.114a32.3 32.3 0 0 1 2.568 4.63c-.36.796-.754 1.592-1.182 2.371a31 31 0 0 1-1.377 2.275c-.849.076-1.71.119-2.578.119-.863 0-1.723-.043-2.569-.113a33 33 0 0 1-1.38-2.263 31 31 0 0 1-1.188-2.367c.354-.799.754-1.597 1.182-2.377.443-.802.902-1.564 1.377-2.272q1.275-.118 2.578-.119zm-4.24.31a32 32 0 0 0-1.562 2.839 26 26 0 0 1-.79-2.369 28 28 0 0 1 2.351-.47m8.47 0q1.216.186 2.34.47a27 27 0 0 1-.77 2.351 32 32 0 0 0-1.57-2.822m3.573.82q.848.275 1.604.606c2.02.9 3.327 2.078 3.327 3.012-.006.934-1.312 2.116-3.333 3.01a17 17 0 0 1-1.58.6 30 30 0 0 0-1.284-3.625 29 29 0 0 0 1.266-3.605zm-15.628.005c.324 1.168.753 2.38 1.284 3.625a29 29 0 0 0-1.267 3.605 16 16 0 0 1-1.599-.608c-2.02-.896-3.327-2.075-3.327-3.01 0-.933 1.306-2.118 3.327-3.01a17 17 0 0 1 1.582-.602M25.8 21.595c.31.8.572 1.596.79 2.37-.747.19-1.536.353-2.353.474a32 32 0 0 0 1.565-2.844zm-11.602.025c.233.476.478.952.747 1.429q.402.712.822 1.39-1.216-.186-2.34-.47c.21-.766.473-1.559.77-2.35zm12.71 3.633c.13.6.233 1.177.296 1.73.268 2.273-.063 4.04-.833 4.511-.172.11-.394.156-.657.156-1.18 0-2.933-.982-4.795-2.773.8-.876 1.599-1.869 2.357-2.968a26 26 0 0 0 3.632-.657zm-13.802.012c1.12.285 2.34.505 3.625.647a29 29 0 0 0 2.374 2.976c-1.86 1.803-3.607 2.791-4.795 2.791a1.34 1.34 0 0 1-.645-.16c-.777-.463-1.114-2.231-.852-4.505.063-.56.166-1.148.292-1.749zm5.32.779c.513.024 1.038.041 1.57.041q.806.001 1.586-.041a23 23 0 0 1-1.57 1.903 24 24 0 0 1-1.586-1.903"/></g><defs><linearGradient id="a" x1="20" x2="20" y1="0" y2="40" gradientUnits="userSpaceOnUse"><stop stop-color="#0f343e"/><stop offset="1" stop-color="#072027"/></linearGradient><filter id="b" width="36" height="36" x="2" y="2" color-interpolation-filters="sRGB" filterUnits="userSpaceOnUse"><feFlood flood-opacity="0" result="BackgroundImageFix"/><feColorMatrix in="SourceAlpha" result="hardAlpha" values="0 0 0 0 0 0 0 0 0 0 0 0 0 0 0 0 0 0 127 0"/><feOffset/><feGaussianBlur stdDeviation="2"/><feComposite in2="hardAlpha" operator="out"/><feColorMatrix values="0 0 0 0 0 0 0 0 0 0 0 0 0 0 0 0 0 0 0.25 0"/><feBlend in2="BackgroundImageFix" result="effect1_dropShadow_2_2018"/><feBlend in="SourceGraphic" in2="effect1_dropShadow_2_2018" result="shape"/></filter></defs></svg>