<svg xmlns="http://www.w3.org/2000/svg" width="40" height="40" fill="none" viewBox="0 0 40 40"><g clip-path="url(#a)"><rect width="40" height="40" fill="url(#b)" rx="8"/><g filter="url(#c)"><g clip-path="url(#d)"><path fill="#cd6699" fill-rule="evenodd" d="M20 6c7.732 0 14 6.268 14 14s-6.268 14-14 14S6 27.732 6 20 12.268 6 20 6" clip-rule="evenodd"/><path fill="#fff" d="M17.218 24.663c.204.754.181 1.456-.03 2.093a4 4 0 0 1-.167.414q-.245.506-.647.943c-.813.887-1.95 1.223-2.437.94-.526-.305-.262-1.556.68-2.553 1.015-1.073 2.475-1.762 2.475-1.762l-.002-.005zm11.564-12.67c-.634-2.487-4.757-3.305-8.659-1.918-2.322.825-4.836 2.12-6.644 3.81-2.149 2.01-2.491 3.76-2.35 4.491.498 2.58 4.033 4.266 5.486 5.517v.008c-.429.21-3.565 1.797-4.298 3.42-.775 1.712.123 2.94.717 3.105 1.841.513 3.73-.409 4.746-1.923.98-1.462.898-3.35.473-4.288.587-.155 1.272-.225 2.142-.123 2.456.287 2.938 1.82 2.846 2.462s-.607.994-.78 1.1c-.172.108-.224.144-.21.224.02.115.1.11.247.086.203-.034 1.29-.522 1.337-1.707.059-1.504-1.383-3.187-3.935-3.143-1.05.018-1.712.119-2.189.296l-.108-.12c-1.578-1.683-4.495-2.874-4.371-5.137.045-.822.33-2.989 5.604-5.616 4.32-2.153 7.779-1.56 8.376-.248.854 1.876-1.848 5.362-6.334 5.864-1.71.192-2.61-.47-2.833-.717-.236-.26-.271-.272-.36-.223-.142.08-.052.309 0 .445.135.35.684.967 1.622 1.275.824.27 2.83.419 5.258-.52 2.718-1.051 4.84-3.976 4.217-6.42"/></g></g></g><rect width="37.9" height="37.9" x="1.05" y="1.05" stroke="#fff" stroke-opacity=".15" stroke-width="2.1" rx="6.95"/><defs><clipPath id="a"><rect width="40" height="40" fill="#fff" rx="8"/></clipPath><clipPath id="d"><path fill="#fff" d="M6 6h28v28H6z"/></clipPath><linearGradient id="b" x1="20" x2="20" y1="0" y2="40" gradientUnits="userSpaceOnUse"><stop stop-color="#442132"/><stop offset="1" stop-color="#26121c"/></linearGradient><filter id="c" width="39.429" height="39.429" x=".286" y=".286" color-interpolation-filters="sRGB" filterUnits="userSpaceOnUse"><feFlood flood-opacity="0" result="BackgroundImageFix"/><feColorMatrix in="SourceAlpha" result="hardAlpha" values="0 0 0 0 0 0 0 0 0 0 0 0 0 0 0 0 0 0 127 0"/><feOffset/><feGaussianBlur stdDeviation="2.857"/><feComposite in2="hardAlpha" operator="out"/><feColorMatrix values="0 0 0 0 0 0 0 0 0 0 0 0 0 0 0 0 0 0 0.25 0"/><feBlend in2="BackgroundImageFix" result="effect1_dropShadow_2_3759"/><feBlend in="SourceGraphic" in2="effect1_dropShadow_2_3759" result="shape"/></filter></defs></svg>