<svg xmlns="http://www.w3.org/2000/svg" width="40" height="40" fill="none" viewBox="0 0 40 40"><rect width="40" height="40" fill="url(#a)" rx="8"/><rect width="37.9" height="37.9" x="1.05" y="1.05" stroke="#fff" stroke-opacity=".15" stroke-width="2.1" rx="6.95"/><g filter="url(#b)"><g filter="url(#c)"><path fill="#fff" fill-opacity=".25" d="M9.036 27.75V25.5h6.75v2.25zm-2.25-2.25v-2.25h2.25v2.25zm9 0v-6.75h2.25v6.75zm-6.75-6.75V16.5h6.75v2.25zm-2.25-2.25v-2.25h2.25v2.25zm2.25-2.25V12h9v2.25zm13.5 13.5V25.5h6.75v2.25zm-2.25-2.25V14.25h2.25V25.5zm9 0V14.25h2.25V25.5zm-6.75-11.25V12h6.75v2.25z"/></g><path fill="#fff" d="M10.036 27.75V25.5h6.75v2.25zm-2.25-2.25v-2.25h2.25v2.25zm9 0v-6.75h2.25v6.75zm-6.75-6.75V16.5h6.75v2.25zm-2.25-2.25v-2.25h2.25v2.25zm2.25-2.25V12h9v2.25zm13.5 13.5V25.5h6.75v2.25zm-2.25-2.25V14.25h2.25V25.5zm9 0V14.25h2.25V25.5zm-6.75-11.25V12h6.75v2.25z"/></g><defs><filter id="b" width="36" height="36" x="2" y="2" color-interpolation-filters="sRGB" filterUnits="userSpaceOnUse"><feFlood flood-opacity="0" result="BackgroundImageFix"/><feColorMatrix in="SourceAlpha" result="hardAlpha" values="0 0 0 0 0 0 0 0 0 0 0 0 0 0 0 0 0 0 127 0"/><feOffset/><feGaussianBlur stdDeviation="2"/><feComposite in2="hardAlpha" operator="out"/><feColorMatrix values="0 0 0 0 0 0 0 0 0 0 0 0 0 0 0 0 0 0 0.25 0"/><feBlend in2="BackgroundImageFix" result="effect1_dropShadow_2_1666"/><feBlend in="SourceGraphic" in2="effect1_dropShadow_2_1666" result="shape"/></filter><filter id="c" width="32.75" height="23.75" x="2.786" y="8" color-interpolation-filters="sRGB" filterUnits="userSpaceOnUse"><feFlood flood-opacity="0" result="BackgroundImageFix"/><feBlend in="SourceGraphic" in2="BackgroundImageFix" result="shape"/><feGaussianBlur result="effect1_foregroundBlur_2_1666" stdDeviation="2"/></filter><linearGradient id="a" x1="20" x2="20" y1="0" y2="40" gradientUnits="userSpaceOnUse"><stop stop-color="#021f1d"/><stop offset="1" stop-color="#000606"/></linearGradient></defs></svg>