<svg xmlns="http://www.w3.org/2000/svg" width="40" height="40" fill="none" viewBox="0 0 40 40"><g clip-path="url(#a)"><rect width="40" height="40" fill="url(#b)" rx="8"/><g filter="url(#c)"><g clip-path="url(#d)"><path fill="#ff3e00" d="M30.283 9.667C27.697 5.942 22.548 4.85 18.846 7.2l-6.526 4.177a7.42 7.42 0 0 0-3.369 5.006c-.309 1.732-.048 3.512.783 5.055a7.2 7.2 0 0 0-1.115 2.8 7.98 7.98 0 0 0 1.352 6.027c2.61 3.725 7.736 4.817 11.438 2.467l6.525-4.152a7.42 7.42 0 0 0 3.37-5.007c.308-1.732.047-3.512-.784-5.054.57-.854.95-1.803 1.116-2.8a7.82 7.82 0 0 0-1.353-6.05"/><path fill="#fff" d="M18.205 30.62a5.17 5.17 0 0 1-5.553-2.065c-.759-1.044-1.044-2.349-.83-3.63.047-.214.095-.404.142-.617l.119-.38.332.237q1.174.855 2.563 1.282l.237.07-.024.238c-.023.332.071.688.261.973a1.57 1.57 0 0 0 1.685.64c.142-.047.285-.094.404-.165l6.501-4.153c.332-.213.546-.522.617-.902a1.47 1.47 0 0 0-.237-1.091 1.56 1.56 0 0 0-1.685-.617 2 2 0 0 0-.403.166l-2.492 1.59c-.403.26-.854.45-1.329.57a5.17 5.17 0 0 1-5.552-2.065 4.8 4.8 0 0 1-.807-3.63 4.5 4.5 0 0 1 2.04-3.014l6.526-4.153c.404-.26.854-.45 1.329-.593a5.17 5.17 0 0 1 5.553 2.065c.759 1.043 1.043 2.349.83 3.63a6 6 0 0 1-.166.617l-.119.38-.332-.238a8.7 8.7 0 0 0-2.563-1.281l-.237-.071.024-.238a1.6 1.6 0 0 0-.261-.972 1.56 1.56 0 0 0-1.685-.617 2 2 0 0 0-.403.166l-6.502 4.152a1.34 1.34 0 0 0-.617.902c-.071.38.024.783.237 1.092a1.56 1.56 0 0 0 1.685.617c.142-.048.285-.096.403-.167l2.492-1.59c.403-.26.854-.45 1.329-.593a5.17 5.17 0 0 1 5.552 2.065c.76 1.044 1.044 2.349.83 3.63a4.5 4.5 0 0 1-2.04 3.014l-6.525 4.152a5.2 5.2 0 0 1-1.33.593"/></g></g></g><rect width="37.9" height="37.9" x="1.05" y="1.05" stroke="#fff" stroke-opacity=".15" stroke-width="2.1" rx="6.95"/><defs><clipPath id="a"><rect width="40" height="40" fill="#fff" rx="8"/></clipPath><clipPath id="d"><path fill="#fff" d="M8.5 5.965h23.278v28H8.5z"/></clipPath><linearGradient id="b" x1="20" x2="20" y1="0" y2="40" gradientUnits="userSpaceOnUse"><stop stop-color="#381f0c"/><stop offset="1" stop-color="#211205"/></linearGradient><filter id="c" width="39.429" height="39.463" x=".286" y=".251" color-interpolation-filters="sRGB" filterUnits="userSpaceOnUse"><feFlood flood-opacity="0" result="BackgroundImageFix"/><feColorMatrix in="SourceAlpha" result="hardAlpha" values="0 0 0 0 0 0 0 0 0 0 0 0 0 0 0 0 0 0 127 0"/><feOffset/><feGaussianBlur stdDeviation="2.857"/><feComposite in2="hardAlpha" operator="out"/><feColorMatrix values="0 0 0 0 0 0 0 0 0 0 0 0 0 0 0 0 0 0 0.25 0"/><feBlend in2="BackgroundImageFix" result="effect1_dropShadow_62_106"/><feBlend in="SourceGraphic" in2="effect1_dropShadow_62_106" result="shape"/></filter></defs></svg>