<svg xmlns="http://www.w3.org/2000/svg" width="40" height="40" fill="none" viewBox="0 0 40 40"><rect width="40" height="40" fill="url(#a)" rx="8"/><rect width="37.9" height="37.9" x="1.05" y="1.05" stroke="#fff" stroke-opacity=".15" stroke-width="2.1" rx="6.95"/><g filter="url(#b)"><path fill="#3178c6" d="M7.313 6A1.31 1.31 0 0 0 6 7.313v25.375A1.31 1.31 0 0 0 7.313 34h25.375A1.31 1.31 0 0 0 34 32.688V7.311A1.31 1.31 0 0 0 32.688 6zm20.256 11.375q1.071 0 1.899.13a7.4 7.4 0 0 1 1.523.396v2.868a4.6 4.6 0 0 0-.75-.421 6 6 0 0 0-.837-.304 6.4 6.4 0 0 0-1.663-.233q-.525 0-.956.1a2.5 2.5 0 0 0-.727.283q-.297.182-.458.436c-.11.17-.166.37-.163.572q0 .343.182.617t.517.518q.333.244.812.478.477.237 1.08.485.822.346 1.477.733.654.39 1.123.879a3.4 3.4 0 0 1 .717 1.116q.249.628.25 1.462 0 1.151-.436 1.932a3.54 3.54 0 0 1-1.18 1.266 5.1 5.1 0 0 1-1.735.695q-.99.21-2.089.21-1.082.005-2.146-.191a6.5 6.5 0 0 1-1.764-.575v-3.069a5.87 5.87 0 0 0 3.776 1.4q.584 0 1.017-.105a2.4 2.4 0 0 0 .727-.291 1.3 1.3 0 0 0 .436-.444 1.19 1.19 0 0 0-.087-1.27 2.5 2.5 0 0 0-.626-.583 6.5 6.5 0 0 0-.942-.518 32 32 0 0 0-1.175-.51q-1.606-.67-2.395-1.638t-.788-2.34q0-1.073.43-1.845a3.66 3.66 0 0 1 1.171-1.27 5.2 5.2 0 0 1 1.715-.735 8.8 8.8 0 0 1 2.065-.234m-17.631.22h11.156v2.526H17.09v11.254h-3.17V20.121H9.939z"/></g><defs><linearGradient id="a" x1="20" x2="20" y1="0" y2="40" gradientUnits="userSpaceOnUse"><stop stop-color="#0c1f34"/><stop offset="1" stop-color="#051220"/></linearGradient><filter id="b" width="36" height="36" x="2" y="2" color-interpolation-filters="sRGB" filterUnits="userSpaceOnUse"><feFlood flood-opacity="0" result="BackgroundImageFix"/><feColorMatrix in="SourceAlpha" result="hardAlpha" values="0 0 0 0 0 0 0 0 0 0 0 0 0 0 0 0 0 0 127 0"/><feOffset/><feGaussianBlur stdDeviation="2"/><feComposite in2="hardAlpha" operator="out"/><feColorMatrix values="0 0 0 0 0 0 0 0 0 0 0 0 0 0 0 0 0 0 0.25 0"/><feBlend in2="BackgroundImageFix" result="effect1_dropShadow_2_1965"/><feBlend in="SourceGraphic" in2="effect1_dropShadow_2_1965" result="shape"/></filter></defs></svg>