<svg xmlns="http://www.w3.org/2000/svg" width="40" height="40" fill="none" viewBox="0 0 40 40"><rect width="40" height="40" fill="url(#a)" rx="8"/><rect width="37.9" height="37.9" x="1.05" y="1.05" stroke="#fff" stroke-opacity=".15" stroke-width="2.1" rx="6.95"/><g filter="url(#b)"><path fill="#654ff0" d="M23.203 6v.15a3.21 3.21 0 1 1-6.422 0V6H6v28h28V6zm-3.84 25.003-1.364-6.747h-.023L16.5 31.003h-1.88l-2.127-9.913h1.855l1.269 6.747h.023l1.53-6.747h1.735l1.373 6.83h.023l1.45-6.83h1.82l-2.364 9.913zm10.214 0-.632-2.206h-3.338l-.486 2.206h-1.855l2.398-9.913h2.927l2.917 9.913zm-2.796-7.47-.81 3.637h2.519l-.929-3.637z"/></g><defs><linearGradient id="a" x1="20" x2="20" y1="0" y2="40" gradientUnits="userSpaceOnUse"><stop stop-color="#140e3a"/><stop offset="1" stop-color="#0a0622"/></linearGradient><filter id="b" width="36" height="36" x="2" y="2" color-interpolation-filters="sRGB" filterUnits="userSpaceOnUse"><feFlood flood-opacity="0" result="BackgroundImageFix"/><feColorMatrix in="SourceAlpha" result="hardAlpha" values="0 0 0 0 0 0 0 0 0 0 0 0 0 0 0 0 0 0 127 0"/><feOffset/><feGaussianBlur stdDeviation="2"/><feComposite in2="hardAlpha" operator="out"/><feColorMatrix values="0 0 0 0 0 0 0 0 0 0 0 0 0 0 0 0 0 0 0.25 0"/><feBlend in2="BackgroundImageFix" result="effect1_dropShadow_2_1979"/><feBlend in="SourceGraphic" in2="effect1_dropShadow_2_1979" result="shape"/></filter></defs></svg>