<svg xmlns="http://www.w3.org/2000/svg" width="56" height="56" fill="none" viewBox="0 0 56 56"><rect width="56" height="56" fill="url(#a)" rx="8.4"/><rect width="53.9" height="53.9" x="1.05" y="1.05" stroke="#fff" stroke-opacity=".15" stroke-width="2.1" rx="7.35"/><g filter="url(#b)"><g clip-path="url(#c)"><path fill="#ffc4c4" d="M8 8h40v40H8z"/><mask id="d" width="39" height="35" x="10" y="13" maskUnits="userSpaceOnUse" style="mask-type:alpha"><path fill="#d9d9d9" d="m10.663 18.675 32.64-5.626 5.01 29.071-32.639 5.626z"/></mask><g mask="url(#d)"><rect width="7.321" height="28.086" x="21.489" y="12.511" fill="#fff" fill-opacity=".3" stroke="#000" stroke-width="2.5" rx="3.661" transform="rotate(-9.777 21.49 12.511)"/></g><mask id="e" width="9" height="27" x="23" y="12" maskUnits="userSpaceOnUse" style="mask-type:alpha"><rect width="4.821" height="25.949" x="22.872" y="13.173" fill="#fff" rx="2.411" transform="rotate(-9.777 22.872 13.173)"/></mask><g mask="url(#e)"><path fill="url(#f)" d="M14.693 19.825h29.556V41.32H14.693z"/></g><path fill="#ff5e5e" d="M38.254 10.13 54.078 21.5l-17.759 8.02z"/><path fill="#ffa337" d="m45.367 33.834 2.099 15.186-14.2-5.776z"/><path fill="#ffee57" d="m10.758 18.275 9.498 12.032-15.17 2.21z"/></g></g><defs><linearGradient id="a" x1="28" x2="28" y1="0" y2="56" gradientUnits="userSpaceOnUse"><stop stop-color="#363313"/><stop offset="1" stop-color="#2d0f0f"/></linearGradient><linearGradient id="f" x1="29.471" x2="29.471" y1="19.825" y2="41.321" gradientUnits="userSpaceOnUse"><stop stop-color="#ff4d00"/><stop offset=".089" stop-color="#ff4d00"/><stop offset="1" stop-color="red"/></linearGradient><clipPath id="c"><rect width="40" height="40" x="8" y="8" fill="#fff" rx="20"/></clipPath><filter id="b" width="51.429" height="51.429" x="2.286" y="2.286" color-interpolation-filters="sRGB" filterUnits="userSpaceOnUse"><feFlood flood-opacity="0" result="BackgroundImageFix"/><feColorMatrix in="SourceAlpha" result="hardAlpha" values="0 0 0 0 0 0 0 0 0 0 0 0 0 0 0 0 0 0 127 0"/><feOffset/><feGaussianBlur stdDeviation="2.857"/><feComposite in2="hardAlpha" operator="out"/><feColorMatrix values="0 0 0 0 0 0 0 0 0 0 0 0 0 0 0 0 0 0 0.25 0"/><feBlend in2="BackgroundImageFix" result="effect1_dropShadow_1_583"/><feBlend in="SourceGraphic" in2="effect1_dropShadow_1_583" result="shape"/></filter></defs></svg>