<svg xmlns="http://www.w3.org/2000/svg" width="56" height="56" fill="none" viewBox="0 0 56 56"><rect width="56" height="56" fill="url(#a)" rx="8.4"/><rect width="53.9" height="53.9" x="1.05" y="1.05" stroke="#fff" stroke-opacity=".15" stroke-width="2.1" rx="7.35"/><g filter="url(#b)"><g clip-path="url(#c)"><mask id="d" width="40" height="40" x="8" y="8" maskUnits="userSpaceOnUse" style="mask-type:luminance"><path fill="#fff" d="M48 8H8v40h40z"/></mask><g mask="url(#d)"><path fill="#cbfff6" d="M48 8H8v40h40z"/><path fill="#e5ff45" d="M41.75 45.5a6.25 6.25 0 1 0 0-12.5 6.25 6.25 0 0 0 0 12.5"/><path fill="#45ff79" d="M44.25 28a8.75 8.75 0 1 0 0-17.5 8.75 8.75 0 0 0 0 17.5"/><path fill="#ffd18b" d="M13 33a7.5 7.5 0 1 0 0-15 7.5 7.5 0 0 0 0 15"/><path fill="#fff" fill-opacity=".3" stroke="#000" stroke-width="2.5" d="M32.762 23.634a3.75 3.75 0 0 0-7.245-1.941l-2.588 9.66a3.75 3.75 0 0 0 7.245 1.94z"/><path fill="#000" d="m26.464 37.476.324-1.207-2.415-.648-.324 1.208zm-3.709 4.182a1.25 1.25 0 0 0 2.415.648zm1.294-4.829-1.294 4.83 2.415.647 1.294-4.83z"/><path stroke="#000" stroke-linecap="square" stroke-width="2.5" d="m31.08 15.42-.647 2.414"/><path stroke="#000" stroke-linecap="round" stroke-width="2.5" d="m35.91 16.713-9.66-2.588"/><mask id="e" width="8" height="15" x="24" y="20" maskUnits="userSpaceOnUse" style="mask-type:alpha"><path fill="#fff" d="M31.554 23.31a2.5 2.5 0 0 0-4.83-1.293l-2.588 9.659a2.5 2.5 0 1 0 4.83 1.294z"/></mask><g mask="url(#e)"><path fill="url(#f)" d="M40.021 24.95h-25v10h25z"/></g></g></g></g><defs><linearGradient id="a" x1="28" x2="28" y1="0" y2="56" gradientUnits="userSpaceOnUse"><stop stop-color="#2a2e11"/><stop offset="1" stop-color="#102b17"/></linearGradient><linearGradient id="f" x1="27.521" x2="27.521" y1="24.951" y2="34.95" gradientUnits="userSpaceOnUse"><stop stop-color="#00ff19"/><stop offset="0" stop-color="#42ff00"/><stop offset="1" stop-color="#cf0"/></linearGradient><clipPath id="c"><rect width="40" height="40" x="8" y="8" fill="#fff" rx="20"/></clipPath><filter id="b" width="51.429" height="51.429" x="2.286" y="2.286" color-interpolation-filters="sRGB" filterUnits="userSpaceOnUse"><feFlood flood-opacity="0" result="BackgroundImageFix"/><feColorMatrix in="SourceAlpha" result="hardAlpha" values="0 0 0 0 0 0 0 0 0 0 0 0 0 0 0 0 0 0 127 0"/><feOffset/><feGaussianBlur stdDeviation="2.857"/><feComposite in2="hardAlpha" operator="out"/><feColorMatrix values="0 0 0 0 0 0 0 0 0 0 0 0 0 0 0 0 0 0 0.25 0"/><feBlend in2="BackgroundImageFix" result="effect1_dropShadow_1_562"/><feBlend in="SourceGraphic" in2="effect1_dropShadow_1_562" result="shape"/></filter></defs></svg>