<svg xmlns="http://www.w3.org/2000/svg" width="56" height="56" fill="none" viewBox="0 0 56 56"><rect width="56" height="56" fill="url(#a)" rx="8"/><rect width="53.9" height="53.9" x="1.05" y="1.05" stroke="#fff" stroke-opacity=".15" stroke-width="2.1" rx="6.95"/><g filter="url(#b)"><g clip-path="url(#c)"><path fill="#fff" d="M22.387 42.07c-1.82-1.652-2.351-5.123-1.593-7.637 1.314 1.585 3.136 2.087 5.023 2.37 2.913.438 5.773.275 8.479-1.047.31-.152.596-.353.934-.557.254.732.32 1.47.231 2.222-.216 1.83-1.133 3.244-2.592 4.316-.583.428-1.2.811-1.803 1.216-1.851 1.242-2.352 2.699-1.656 4.818l.068.23a4.86 4.86 0 0 1-2.161-1.837c-.556-.848-.82-1.787-.834-2.803-.007-.494-.007-.993-.074-1.48-.164-1.188-.725-1.72-1.783-1.75-1.086-.032-1.945.634-2.173 1.684-.018.08-.043.16-.068.254z"/><path fill="url(#d)" d="M22.387 42.07c-1.82-1.652-2.351-5.123-1.593-7.637 1.314 1.585 3.136 2.087 5.023 2.37 2.913.438 5.773.275 8.479-1.047.31-.152.596-.353.934-.557.254.732.32 1.47.231 2.222-.216 1.83-1.133 3.244-2.592 4.316-.583.428-1.2.811-1.803 1.216-1.851 1.242-2.352 2.699-1.656 4.818l.068.23a4.86 4.86 0 0 1-2.161-1.837c-.556-.848-.82-1.787-.834-2.803-.007-.494-.007-.993-.074-1.48-.164-1.188-.725-1.72-1.783-1.75-1.086-.032-1.945.634-2.173 1.684-.018.08-.043.16-.068.254z"/><path fill="#fff" d="M12 34.014s5.389-2.607 10.793-2.607l4.074-12.52c.152-.606.598-1.018 1.1-1.018s.949.412 1.101 1.017l4.075 12.521c6.4 0 10.792 2.607 10.792 2.607l-9.171-24.81C34.501 8.472 34.058 8 33.46 8H22.476c-.598 0-1.023.472-1.304 1.204-.02.048-9.172 24.81-9.172 24.81"/></g></g><defs><linearGradient id="a" x1="22.361" x2="31.322" y1="63" y2="-3.08" gradientUnits="userSpaceOnUse"><stop stop-color="#321818"/><stop offset="1" stop-color="#4b244e"/></linearGradient><linearGradient id="d" x1="20.459" x2="37.986" y1="48" y2="39.661" gradientUnits="userSpaceOnUse"><stop stop-color="#d83333"/><stop offset="1" stop-color="#f041ff"/></linearGradient><clipPath id="c"><path fill="#fff" d="M12 8h32v40H12z"/></clipPath><filter id="b" width="51.429" height="51.429" x="2.286" y="2.286" color-interpolation-filters="sRGB" filterUnits="userSpaceOnUse"><feFlood flood-opacity="0" result="BackgroundImageFix"/><feColorMatrix in="SourceAlpha" result="hardAlpha" values="0 0 0 0 0 0 0 0 0 0 0 0 0 0 0 0 0 0 127 0"/><feOffset/><feGaussianBlur stdDeviation="2.857"/><feComposite in2="hardAlpha" operator="out"/><feColorMatrix values="0 0 0 0 0 0 0 0 0 0 0 0 0 0 0 0 0 0 0.25 0"/><feBlend in2="BackgroundImageFix" result="effect1_dropShadow_62_96"/><feBlend in="SourceGraphic" in2="effect1_dropShadow_62_96" result="shape"/></filter></defs></svg>