<svg xmlns="http://www.w3.org/2000/svg" width="56" height="56" fill="none" viewBox="0 0 56 56"><g clip-path="url(#a)"><rect width="56" height="56" fill="url(#b)" rx="8.4"/><g filter="url(#c)"><mask id="e" width="45" height="33" x="5.572" y="11.286" fill="#000" maskUnits="userSpaceOnUse"><path fill="#fff" d="M5.572 11.286h45v33h-45z"/><path fill-rule="evenodd" d="M31.572 40.857V28.998c-.368-.137-1.058-.25-2.143-.25h-2.857c-1.085 0-1.775.113-2.143.25v11.86a2.857 2.857 0 0 1-2.857 2.857H9.429a2.857 2.857 0 0 1-2.857-2.858v-6.666a2.857 2.857 0 0 1 2.857-2.858h5.714v-5.306H9.43a2.857 2.857 0 0 1-2.857-2.857v-6.666a2.857 2.857 0 0 1 2.857-2.858h7.143a1.428 1.428 0 1 1 0 2.858H9.429v6.666h5.714A2.857 2.857 0 0 1 18 26.027v5.307a2.857 2.857 0 0 1-2.857 2.857H9.43v6.666h12.143V16.436c0-1.027.35-1.89.964-2.548.583-.625 1.325-.982 1.996-1.195 1.285-.408 2.718-.407 3.42-.407h.097c.702 0 2.135 0 3.42.407.67.213 1.412.57 1.995 1.195.614.658.965 1.52.965 2.548v24.421h12.143v-6.666h-5.715A2.857 2.857 0 0 1 38 31.333v-5.306a2.857 2.857 0 0 1 2.858-2.857h5.714v-6.666h-7.143a1.429 1.429 0 1 1 0-2.858h7.143a2.857 2.857 0 0 1 2.857 2.858v6.666a2.857 2.857 0 0 1-2.857 2.857h-5.715v5.307h5.715a2.857 2.857 0 0 1 2.857 2.857v6.666a2.857 2.857 0 0 1-2.857 2.858H34.429a2.857 2.857 0 0 1-2.857-2.858" clip-rule="evenodd"/></mask><path fill="url(#d)" fill-rule="evenodd" d="M31.572 40.857V28.998c-.368-.137-1.058-.25-2.143-.25h-2.857c-1.085 0-1.775.113-2.143.25v11.86a2.857 2.857 0 0 1-2.857 2.857H9.429a2.857 2.857 0 0 1-2.857-2.858v-6.666a2.857 2.857 0 0 1 2.857-2.858h5.714v-5.306H9.43a2.857 2.857 0 0 1-2.857-2.857v-6.666a2.857 2.857 0 0 1 2.857-2.858h7.143a1.428 1.428 0 1 1 0 2.858H9.429v6.666h5.714A2.857 2.857 0 0 1 18 26.027v5.307a2.857 2.857 0 0 1-2.857 2.857H9.43v6.666h12.143V16.436c0-1.027.35-1.89.964-2.548.583-.625 1.325-.982 1.996-1.195 1.285-.408 2.718-.407 3.42-.407h.097c.702 0 2.135 0 3.42.407.67.213 1.412.57 1.995 1.195.614.658.965 1.52.965 2.548v24.421h12.143v-6.666h-5.715A2.857 2.857 0 0 1 38 31.333v-5.306a2.857 2.857 0 0 1 2.858-2.857h5.714v-6.666h-7.143a1.429 1.429 0 1 1 0-2.858h7.143a2.857 2.857 0 0 1 2.857 2.858v6.666a2.857 2.857 0 0 1-2.857 2.857h-5.715v5.307h5.715a2.857 2.857 0 0 1 2.857 2.857v6.666a2.857 2.857 0 0 1-2.857 2.858H34.429a2.857 2.857 0 0 1-2.857-2.858" clip-rule="evenodd"/><path fill="#544125" d="M31.572 28.998h.571v-.396l-.371-.14zm-7.143 0-.2-.535-.371.139v.396zm-15 2.335v-.57zm5.714 0v.572h.572v-.572zm0-5.306h.572v-.571h-.572zM9.43 16.504v-.572h-.572v.572zm0 6.666h-.572v.572h.572zm5.714 0v.572zM9.43 34.19v-.57h-.572v.57zm0 6.667h-.572v.572h.572zm12.143 0v.572h.571v-.572zm.964-26.97.418.39zm1.996-1.194-.172-.545zm3.42-.407v.571zm.048 0v.571zm.049 0v.571zm3.42.407-.174.545zm1.995 1.195-.417.39zm.965 26.97h-.572v.57h.572zm12.143 0v.57h.571v-.57zm0-6.667h.571v-.572h-.571zm0-11.02v.57h.571v-.57zm0-6.667h.571v-.572h-.571zm0 9.523v.572zm-5.715 0v-.571h-.57v.571zm0 5.307h-.57v.571h.57zM31 28.998v11.86h1.143v-11.86zm-1.571.322c1.062 0 1.671.112 1.943.214l.4-1.071c-.464-.173-1.235-.286-2.343-.286zm-.017 0h.017v-1.143h-.017zm-.016 0h.016v-1.143h-.016zm-.017 0h.017v-1.143h-.017zm-.016 0h.016v-1.143h-.016zm-.016 0h.016v-1.143h-.016zm-.016 0h.016v-1.143h-.016zm-.016 0h.016v-1.143h-.016zm-.016 0h.016v-1.143h-.016zm-.015 0h.015v-1.143h-.015zm-.016 0h.015v-1.143h-.015zm-.015 0h.015v-1.143h-.015zm-.016 0h.016v-1.143h-.016zm-.015 0h.015v-1.143h-.015zm-.015 0h.015v-1.143h-.015zm-.015 0h.015v-1.143h-.015zm-.015 0h.015v-1.143h-.015zm-.014 0h.014v-1.143h-.014zm-.015 0h.015v-1.143h-.015zm-.014 0h.014v-1.143h-.014zm-.014 0h.014v-1.143h-.014zm-.015 0h.015v-1.143h-.015zm-.014 0h.014v-1.143h-.014zm-.014 0h.014v-1.143h-.014zm-.013 0h.013v-1.143h-.013zm-.014 0h.014v-1.143h-.014zm-.014 0h.014v-1.143h-.014zm-.013 0h.013v-1.143h-.013zm-.013 0h.013v-1.143h-.013zm-.014 0h.014v-1.143h-.014zm-.013 0h.013v-1.143h-.013zm-.013 0h.013v-1.143h-.013zm-.013 0h.013v-1.143h-.013zm-.012 0h.012v-1.143h-.012zm-.013 0h.013v-1.143h-.013zm-.013 0h.013v-1.143h-.013zm-.012 0h.012v-1.143h-.012zm-.012 0h.012v-1.143h-.012zm-.012 0h.012v-1.143h-.012zm-.013 0h.012v-1.143h-.012zm-.012 0h.012v-1.143h-.012zm-.011 0h.011v-1.143h-.011zm-.012 0h.012v-1.143h-.012zm-.012 0h.012v-1.143h-.012zm-.011 0h.011v-1.143h-.011zm-.012 0h.012v-1.143H28.8zm-.011 0h.011v-1.143h-.011zm-.011 0h.01v-1.143h-.01zm-.011 0h.01v-1.143h-.01zm-.011 0h.01v-1.143h-.01zm-.011 0h.01v-1.143h-.01zm-.011 0h.01v-1.143h-.01zm-.01 0h.01v-1.143h-.01zm-.011 0h.01v-1.143h-.01zm-.01 0h.01v-1.143h-.01zm-.011 0h.01v-1.143h-.01zm-.01 0h.01v-1.143h-.01zm-.01 0h.01v-1.143h-.01zm-.01 0h.01v-1.143h-.01zm-.01 0h.01v-1.143h-.01zm-.01 0h.01v-1.143h-.01zm-.01 0h.01v-1.143h-.01zm-.01 0h.01v-1.143h-.01zm-.01 0h.01v-1.143h-.01zm-.009 0h.01v-1.143h-.01zm-.01 0h.01v-1.143h-.01zm-.009 0h.01v-1.143h-.01zm-.009 0h.01v-1.143h-.01zm-.009 0h.01v-1.143h-.01zm-.009 0h.01v-1.143h-.01zm-.009 0h.01v-1.143h-.01zm-.008 0h.008v-1.143h-.008zm-.01 0h.01v-1.143h-.01zm-.008 0h.009v-1.143h-.009zm-.008 0h.008v-1.143h-.008zm-.009 0h.009v-1.143h-.009zm-.008 0h.008v-1.143h-.008zm-.008 0h.008v-1.143h-.008zm-.008 0h.008v-1.143h-.008zm-.009 0h.009v-1.143h-.009zm-.007 0h.008v-1.143h-.008zm-.008 0h.008v-1.143h-.008zm-.008 0h.008v-1.143h-.008zm-.008 0h.008v-1.143h-.008zm-.007 0h.007v-1.143h-.007zm-.008 0h.008v-1.143h-.008zm-.007 0h.007v-1.143h-.007zm-.008 0h.008v-1.143h-.008zm-.007 0h.007v-1.143h-.007zm-.007 0h.007v-1.143h-.007zm-.007 0h.007v-1.143h-.007zm-.007 0h.007v-1.143h-.007zm-.007 0h.007v-1.143h-.007zm-.007 0h.007v-1.143h-.007zm-.007 0h.007v-1.143h-.007zm-.006 0h.006v-1.143h-.006zm-.007 0h.007v-1.143h-.007zm-.006 0h.006v-1.143h-.006zm-.007 0h.007v-1.143h-.007zm-.006 0h.006v-1.143h-.006zm-.006 0h.006v-1.143h-.006zm-.007 0h.007v-1.143h-.007zm-.006 0h.006v-1.143h-.006zm-.006 0h.006v-1.143h-.006zm-.006 0h.006v-1.143H28.3zm-.005 0h.005v-1.143h-.005zm-.006 0h.006v-1.143h-.006zm-.006 0h.006v-1.143h-.006zm-.006 0h.006v-1.143h-.006zm-.005 0h.005v-1.143h-.005zm-.006 0h.006v-1.143h-.006zm-.005 0h.005v-1.143h-.005zm-.005 0h.005v-1.143h-.005zm-.006 0h.006v-1.143h-.006zm-.005 0h.005v-1.143h-.005zm-.005 0h.005v-1.143h-.005zm-.005 0h.005v-1.143h-.005zm-.005 0h.005v-1.143h-.005zm-.005 0h.005v-1.143h-.005zm-.005 0h.005v-1.143h-.005zm-.005 0h.005v-1.143h-.005zm-.004 0h.005v-1.143h-.005zm-.005 0h.005v-1.143h-.005zm-.004 0h.004v-1.143h-.004zm-.005 0h.005v-1.143h-.005zm-.004 0h.004v-1.143h-.004zm-.005 0h.005v-1.143h-.005zm-.004 0h.004v-1.143h-.004zm-.004 0h.004v-1.143h-.004zm-.004 0h.004v-1.143h-.004zm-.004 0h.004v-1.143h-.004zm-.004 0h.004v-1.143h-.004zm-.004 0h.004v-1.143h-.004zm-.004 0h.004v-1.143h-.004zm-.004 0h.004v-1.143h-.004zm-.004 0h.004v-1.143h-.004zm-.003 0h.003v-1.143h-.003zm-.004 0h.004v-1.143h-.004zm-.004 0h.004v-1.143h-.004zm-.003 0h.003v-1.143h-.003zm-.004 0h.004v-1.143h-.004zm-.003 0h.003v-1.143h-.003zm-.003 0h.003v-1.143h-.003zm-.004 0h.003v-1.143h-.003zm-.003 0h.003v-1.143h-.003zm-.003 0h.003v-1.143h-.003zm-.003 0h.003v-1.143h-.003zm-.003 0h.003v-1.143h-.003zm-.003 0h.003v-1.143h-.003zm-.003 0h.003v-1.143h-.003zm-.003 0h.003v-1.143h-.003zm-.003 0h.003v-1.143h-.003zm-.003 0h.003v-1.143h-.003zm-.003 0h.003v-1.143h-.003zm-.002 0h.002v-1.143h-.002zm-.003 0h.003v-1.143h-.003zm-.003 0h.003v-1.143h-.003zm-.002 0h.003v-1.143h-.003zm-.002 0h.002v-1.143h-.002zm-.003 0h.003v-1.143h-.003zm-.002 0h.002v-1.143h-.002zm-.003 0h.003v-1.143h-.003zm-.002 0h.002v-1.143h-.002zm-.002 0h.002v-1.143h-.002zm-.002 0h.002v-1.143h-.002zm-.003 0h.003v-1.143h-.003zm-.002 0h.002v-1.143h-.002zm-.002 0h.002v-1.143h-.002zm-.002 0h.002v-1.143h-.002zm-.002 0h.002v-1.143h-.002zm-.002 0h.002v-1.143h-.002zm-.001 0h.002v-1.143h-.002zm-.002 0h.002v-1.143h-.002zm-.002 0h.002v-1.143h-.002zm-.002 0h.002v-1.143h-.002zm-.001 0v-1.143h-.001zm-.002 0h.002v-1.143h-.002zm-.002 0h.002v-1.143h-.002zm-.001 0v-1.143h-.001zm-.002 0h.002v-1.143h-.002zm-.001 0v-1.143h-.001zm-.002 0h.002v-1.143h-.002zm-.001 0v-1.143h-.001zm-.002 0h.002v-1.143h-.002zm0 0v-1.143zm-.002 0v-1.143h-.001zm-.001 0v-1.143zm-.002 0h.002v-1.143h-.002zm0 0v-1.143zm-.002 0v-1.143h-.001zm-.001 0v-1.143h-.001zm-.001 0v-1.143zm-.001 0v-1.143zm-.001 0v-1.143zm-.001 0v-1.143zm-.001 0v-1.143zm-.001 0v-1.143zm-.001 0v-1.143zm-.001 0v-1.143zm0 0v-1.143zm-.002 0v-1.143zm0 0v-1.143zm-.001 0v-1.143zm-.001 0v-1.143zm0 0v-1.143zm-.001 0v-1.143zm-.001 0v-1.143zm0 0v-1.143zm-.001 0v-1.143zm0 0v-1.143zm-.001 0v-1.143zm0 0v-1.143zm-.001 0v-1.143zm0 0v-1.143zm-.001 0v-1.143zm0 0v-1.143zm-.001 0v-1.143zm0 0v-1.143zm-.001 0v-1.143zm0 0v-1.143zm0 0v-1.143zm-.001 0v-1.143zm0 0v-1.143zm0 0v-1.143zm0 0v-1.143zm-.001 0v-1.143zm0 0v-1.143zm0 0v-1.143zm0 0v-1.143zm-.001 0v-1.143zm0 0v-1.143zm0 0v-1.143zm0 0v-1.143zm0 0v-1.143zm0 0v-1.143zm0 0v-1.143zm-.001 0v-1.143zm0 0v-1.143zm0 0v-1.143zm0 0v-1.143zm0 0v-1.143zm0 0v-1.143zm0 0v-1.143zm0 0v-1.143zm0 0v-1.143zm0 0v-1.143zm0 0v-1.143zm0 0v-1.143zm0 0v-1.143zm0 0v-1.143zm0 0v-1.143zm0 0v-1.143zm0 0v-1.143zm0 0v-1.143zm0 0v-1.143zm0 0v-1.143zm0 0v-1.143zm0 0v-1.143zm0 0v-1.143zm0 0v-1.143zm-.001 0v-1.143zm0 0v-1.143zm0 0v-1.143zm0 0v-1.143zm0 0v-1.143zm0 0v-1.143zm0 0v-1.143zm0 0v-1.143zm0 0v-1.143zm-.001 0v-1.143zm0 0v-1.143zm0 0v-1.143zm0 0v-1.143zm0 0v-1.143zm-.001 0v-1.143zm0 0v-1.143zm0 0v-1.143zm0 0v-1.143zm-.001 0v-1.143zm0 0v-1.143zm0 0v-1.143zm-.001 0v-1.143zm0 0v-1.143zm0 0v-1.143zm-.001 0v-1.143zm0 0v-1.143zm-.001 0v-1.143zm0 0v-1.143zm0 0v-1.143zm-.001 0v-1.143zm0 0v-1.143zm-.002 0v-1.143zm0 0v-1.143zm0 0v-1.143zm-.001 0v-1.143zm0 0v-1.143zm-.002 0v-1.143zm0 0v-1.143zm-.001 0v-1.143zm0 0v-1.143zm-.002 0v-1.143zm0 0v-1.143zm-.001 0v-1.143zm-.001 0v-1.143zm-.001 0v-1.143zm-.001 0v-1.143h-.001zm0 0v-1.143zm-.002 0v-1.143zm-.001 0v-1.143h-.001zm-.001 0v-1.143h-.001zm-.001 0v-1.143h-.001zm-.001 0v-1.143zm-.001 0v-1.143zm-.002 0h.002v-1.143h-.002zm0 0v-1.143zm-.002 0v-1.143h-.001zm-.001 0v-1.143zm-.002 0h.002v-1.143h-.002zm-.001 0v-1.143h-.001zm-.002 0h.002v-1.143h-.002zm-.001 0v-1.143h-.001zm-.002 0h.002v-1.143h-.002zm-.001 0h.002v-1.143h-.002zm-.002 0h.002v-1.143h-.002zm-.001 0v-1.143h-.001zm-.002 0h.002v-1.143h-.002zm-.002 0h.002v-1.143h-.002zm-.001 0v-1.143h-.001zm-.002 0h.002v-1.143h-.002zm-.002 0h.002v-1.143h-.002zm-.002 0h.002v-1.143h-.002zm-.002 0h.002v-1.143h-.002zm-.002 0h.002v-1.143h-.002zm-.002 0h.002v-1.143h-.002zm-.002 0h.002v-1.143h-.002zm-.002 0h.002v-1.143h-.002zm-.002 0h.002v-1.143h-.002zm-.002 0h.002v-1.143h-.002zm-.002 0h.002v-1.143h-.002zm-.003 0h.003v-1.143h-.003zm-.002 0h.002v-1.143h-.002zm-.002 0h.002v-1.143h-.002zm-.003 0h.003v-1.143h-.003zm-.002 0h.002v-1.143h-.002zm-.003 0h.003v-1.143h-.003zm-.002 0h.002v-1.143h-.002zm-.003 0h.003v-1.143h-.003zm-.003 0h.003v-1.143h-.003zm-.002 0h.002v-1.143h-.002zm-.003 0h.003v-1.143h-.003zm-.003 0h.003v-1.143h-.003zm-.003 0h.003v-1.143h-.003zm-.003 0h.003v-1.143h-.003zm-.003 0h.003v-1.143h-.003zm-.003 0h.003v-1.143h-.003zm-.003 0h.003v-1.143h-.003zm-.003 0h.003v-1.143h-.003zm-.003 0h.003v-1.143h-.003zm-.004 0h.004v-1.143h-.004zm-.003 0h.003v-1.143h-.003zm-.004 0h.004v-1.143h-.004zm-.003 0h.003v-1.143h-.003zm-.004 0h.004v-1.143h-.004zm-.003 0h.003v-1.143h-.003zm-.004 0h.004v-1.143h-.004zm-.004 0h.004v-1.143h-.004zm-.003 0h.003v-1.143h-.003zm-.004 0h.004v-1.143h-.004zm-.004 0h.004v-1.143h-.004zm-.004 0h.004v-1.143h-.004zm-.004 0h.004v-1.143h-.004zm-.004 0h.004v-1.143h-.004zm-.004 0h.004v-1.143h-.004zm-.004 0h.004v-1.143h-.004zm-.005 0h.005v-1.143h-.005zm-.004 0h.004v-1.143h-.004zm-.005 0h.005v-1.143h-.005zm-.004 0h.005v-1.143H27.8zm-.005 0h.005v-1.143h-.005zm-.004 0h.005v-1.143h-.005zm-.005 0h.005v-1.143h-.005zm-.005 0h.005v-1.143h-.005zm-.004 0h.004v-1.143h-.004zm-.005 0h.005v-1.143h-.005zm-.005 0h.005v-1.143h-.005zm-.005 0h.005v-1.143h-.005zm-.006 0h.006v-1.143h-.006zm-.005 0h.005v-1.143h-.005zm-.005 0h.005v-1.143h-.005zm-.005 0h.005v-1.143h-.005zm-.006 0h.006v-1.143h-.006zm-.005 0h.005v-1.143h-.005zm-.006 0h.006v-1.143h-.006zm-.005 0h.005v-1.143h-.005zm-.006 0h.006v-1.143h-.006zm-.006 0h.006v-1.143h-.006zm-.006 0h.006v-1.143h-.006zm-.006 0h.006v-1.143h-.006zm-.006 0h.006v-1.143h-.006zm-.006 0h.006v-1.143h-.006zm-.006 0h.006v-1.143h-.006zm-.006 0h.006v-1.143h-.006zm-.006 0h.006v-1.143h-.006zm-.007 0h.006v-1.143h-.006zm-.006 0h.006v-1.143h-.006zm-.007 0h.007v-1.143h-.007zm-.007 0h.007v-1.143h-.007zm-.006 0h.006v-1.143h-.006zm-.007 0h.007v-1.143h-.007zm-.007 0h.007v-1.143h-.007zm-.007 0h.007v-1.143h-.007zm-.007 0h.007v-1.143h-.007zm-.007 0h.007v-1.143h-.007zm-.008 0h.008v-1.143h-.008zm-.007 0h.007v-1.143h-.007zm-.007 0h.007v-1.143h-.007zm-.008 0h.008v-1.143h-.008zm-.008 0h.008v-1.143h-.008zm-.007 0h.008v-1.143h-.008zm-.008 0h.008v-1.143h-.008zm-.008 0h.008v-1.143h-.008zm-.008 0h.008v-1.143h-.008zm-.008 0h.008v-1.143h-.008zm-.008 0h.008v-1.143h-.008zm-.008 0h.008v-1.143h-.008zm-.009 0h.009v-1.143h-.009zm-.008 0h.008v-1.143h-.008zm-.008 0h.008v-1.143h-.008zm-.01 0h.01v-1.143h-.01zm-.008 0h.009v-1.143h-.009zm-.009 0h.01v-1.143h-.01zm-.009 0h.01v-1.143h-.01zm-.008 0h.009v-1.143h-.01zm-.01 0h.01v-1.143h-.01zm-.009 0h.01v-1.143h-.01zm-.009 0h.01v-1.143h-.01zm-.01 0h.01v-1.143h-.01zm-.009 0h.01v-1.143h-.01zm-.01 0h.01v-1.143h-.01zm-.009 0h.01v-1.143h-.01zm-.01 0h.01v-1.143h-.01zm-.01 0h.01v-1.143h-.01zm-.01 0h.01v-1.143h-.01zm-.01 0h.01v-1.143h-.01zm-.01 0h.01v-1.143h-.01zm-.01 0h.01v-1.143h-.01zm-.01 0h.01v-1.143h-.01zm-.011 0h.01v-1.143h-.01zm-.01 0h.01v-1.143h-.01zm-.011 0h.01v-1.143h-.01zm-.011 0h.01v-1.143h-.01zm-.01 0h.01v-1.143h-.01zm-.012 0h.011v-1.143h-.01zm-.011 0h.011v-1.143h-.011zm-.011 0h.011v-1.143h-.011zm-.011 0h.01v-1.143h-.01zm-.012 0h.012v-1.143h-.012zm-.012 0h.012v-1.143h-.012zm-.011 0h.011v-1.143h-.011zm-.012 0h.012v-1.143h-.012zm-.012 0h.012v-1.143h-.012zm-.012 0h.012v-1.143h-.012zm-.012 0h.012v-1.143h-.012zm-.012 0h.012v-1.143h-.012zm-.012 0h.012v-1.143h-.012zm-.013 0h.013v-1.143h-.013zm-.012 0h.012v-1.143h-.012zm-.013 0h.013v-1.143h-.013zm-.013 0h.013v-1.143h-.013zm-.013 0h.013v-1.143h-.013zm-.013 0h.013v-1.143h-.013zm-.013 0h.013v-1.143h-.013zm-.013 0h.013v-1.143h-.013zm-.013 0h.013v-1.143h-.013zm-.014 0h.014v-1.143h-.014zm-.013 0h.013v-1.143h-.013zm-.014 0h.014v-1.143h-.014zm-.014 0h.014v-1.143h-.014zm-.014 0h.014v-1.143h-.014zm-.014 0h.014v-1.143h-.014zm-.014 0h.014v-1.143h-.014zm-.014 0h.014v-1.143h-.014zm-.015 0h.015v-1.143h-.015zm-.014 0h.014v-1.143h-.014zm-.015 0h.015v-1.143h-.015zm-.015 0h.015v-1.143h-.015zm-.014 0h.014v-1.143h-.014zm-.015 0h.015v-1.143h-.015zm-.016 0h.015v-1.143h-.015zm-.015 0h.015v-1.143h-.015zm-.015 0h.015v-1.143h-.015zm-.016 0h.016v-1.143h-.016zm-.015 0h.015v-1.143h-.015zm-.016 0h.016v-1.143h-.016zm-.016 0h.016v-1.143h-.016zm-.016 0h.016v-1.143h-.016zm-.016 0h.016v-1.143h-.016zm-.017 0h.017v-1.143h-.017zm-.016 0h.016v-1.143h-.016zm-.017 0h.017v-1.143h-.017zm-.016 0h.017v-1.143h-.017zm-1.943.214c.272-.102.88-.214 1.943-.214v-1.143c-1.108 0-1.88.113-2.343.286zM25 40.857V28.998h-1.142v11.86zm-3.428 3.429A3.43 3.43 0 0 0 25 40.857h-1.142a2.286 2.286 0 0 1-2.286 2.286zm-12.143 0h12.143v-1.143H9.429zM6 40.857a3.43 3.43 0 0 0 3.429 3.429v-1.143a2.286 2.286 0 0 1-2.286-2.286zm0-6.666v6.666h1.143v-6.666zm3.429-3.429A3.43 3.43 0 0 0 6 34.191h1.143a2.286 2.286 0 0 1 2.286-2.286zm5.714 0H9.43v1.143h5.714zm-.571-4.735v5.307h1.143v-5.307zm-5.143.572h5.714v-1.143H9.43zM6 23.17a3.43 3.43 0 0 0 3.43 3.43v-1.143a2.286 2.286 0 0 1-2.286-2.286zm0-6.666v6.666h1.143v-6.666zm3.429-3.429A3.43 3.43 0 0 0 6 16.504h1.143a2.286 2.286 0 0 1 2.286-2.286zm7.143 0H9.429v1.143h7.143zm2 2a2 2 0 0 0-2-2v1.143c.473 0 .857.384.857.857zm-2 2a2 2 0 0 0 2-2h-1.143a.857.857 0 0 1-.857.857zm-7.143 0h7.143v-1.143H9.429zM10 23.17v-6.666H8.857v6.666zm5.143-.571H9.43v1.143h5.714zm3.429 3.428a3.43 3.43 0 0 0-3.429-3.428v1.143a2.286 2.286 0 0 1 2.286 2.285zm0 5.307v-5.307h-1.143v5.307zm-3.429 3.428a3.43 3.43 0 0 0 3.429-3.428h-1.143a2.286 2.286 0 0 1-2.286 2.285zm-5.714 0h5.714V33.62H9.43zM10 40.857v-6.666H8.857v6.666zm11.572-.571H9.429v1.143h12.143zM21 28.68v12.177h1.143V28.681zm0-2.72v2.72h1.143v-2.72zm0-.014v.013h1.143v-.013zm0-.013v.013h1.143v-.013zm0-.014v.014h1.143v-.014zm0-.013v.013h1.143v-.013zm0-.014v.014h1.143v-.014zm0-.014v.014h1.143v-.014zm0-.013v.014h1.143v-.014zm0-.014v.014h1.143v-.014zm0-.014v.014h1.143v-.014zm0-.014v.014h1.143v-.014zm0-.014v.014h1.143v-.014zm0-.014v.014h1.143v-.014zm0-.014v.014h1.143v-.014zm0-.014v.014h1.143v-.014zm0-.014v.014h1.143v-.014zm0-.014v.014h1.143v-.014zm0-.015v.015h1.143v-.015zm0-.014v.014h1.143v-.014zm0-.014v.014h1.143v-.014zm0-.015v.015h1.143v-.015zm0-.014v.014h1.143v-.014zm0-.015v.015h1.143v-.015zm0-.015v.015h1.143v-.015zm0-.014v.014h1.143v-.014zm0-.015v.015h1.143v-.015zm0-.015v.015h1.143v-.015zm0-.015v.015h1.143v-.015zm0-.015v.015h1.143v-.015zm0-.015v.015h1.143v-.015zm0-.015v.015h1.143v-.015zm0-.015v.015h1.143v-.015zm0-.015v.015h1.143v-.015zm0-.016v.016h1.143v-.016zm0-.015v.015h1.143v-.015zm0-.015v.015h1.143v-.015zm0-.016v.016h1.143v-.016zm0-.015v.015h1.143v-.015zm0-.016v.016h1.143v-.016zm0-.015v.015h1.143v-.015zm0-.016v.016h1.143v-.016zm0-.016v.016h1.143v-.016zm0-.015v.015h1.143v-.015zm0-.016v.016h1.143v-.016zm0-.016v.016h1.143v-.016zm0-.016v.016h1.143V25.3zm0-.016v.016h1.143v-.016zm0-.016v.016h1.143v-.016zm0-.016v.016h1.143v-.016zm0-.016v.016h1.143v-.016zm0-.016v.016h1.143v-.016zm0-.016v.016h1.143v-.016zm0-.017v.017h1.143v-.017zm0-.016v.017h1.143v-.017zm0-.016v.016h1.143v-.016zm0-.017v.017h1.143v-.017zm0-.016v.016h1.143v-.016zm0-.017v.017h1.143v-.017zm0-.016v.016h1.143v-.016zm0-.017v.017h1.143v-.017zm0-.017v.017h1.143v-.017zm0-.016v.016h1.143v-.016zm0-.017v.017h1.143v-.017zm0-.017v.017h1.143v-.017zm0-.017v.017h1.143v-.017zm0-.017v.017h1.143v-.017zm0-.017v.017h1.143v-.017zm0-.017v.017h1.143v-.017zm0-.017v.017h1.143v-.017zm0-.017v.018h1.143v-.018zm0-.017v.017h1.143v-.017zm0-.017v.017h1.143v-.017zm0-.017v.017h1.143v-.017zm0-.018v.018h1.143v-.018zm0-.017v.017h1.143v-.017zm0-.017v.017h1.143V24.8zm0-.018v.018h1.143v-.018zm0-.017v.017h1.143v-.017zm0-.018v.018h1.143v-.018zm0-.017v.017h1.143v-.017zm0-.018v.018h1.143v-.018zm0-.017v.017h1.143v-.017zm0-.018v.018h1.143v-.018zm0-.018v.018h1.143v-.018zm0-.017v.017h1.143v-.017zm0-.018v.018h1.143v-.018zm0-.018v.018h1.143v-.018zm0-.018v.018h1.143v-.018zm0-.018v.018h1.143v-.018zm0-.018v.018h1.143v-.018zm0-.018v.018h1.143v-.018zm0-.018v.018h1.143v-.018zm0-.018v.018h1.143v-.018zm0-.018v.018h1.143v-.018zm0-.018v.018h1.143v-.018zm0-.019v.018h1.143v-.018zm0-.018v.018h1.143v-.018zm0-.018v.018h1.143v-.018zm0-.019v.019h1.143v-.019zm0-.018v.018h1.143v-.018zm0-.018v.018h1.143v-.018zm0-.019v.019h1.143v-.019zm0-.018v.018h1.143v-.018zm0-.019v.018h1.143v-.018zm0-.019v.019h1.143v-.019zm0-.018v.018h1.143v-.018zm0-.019v.019h1.143v-.019zm0-.018v.018h1.143v-.018zm0-.02v.02h1.143v-.02zm0-.018v.019h1.143v-.019zm0-.019v.019h1.143v-.019zm0-.019v.02h1.143v-.02zm0-.018v.018h1.143v-.018zm0-.02v.02h1.143v-.02zm0-.018v.018h1.143v-.018zm0-.02v.02h1.143v-.02zm0-.018v.019h1.143v-.02zm0-.02v.02h1.143v-.02zm0-.018v.019h1.143v-.02zm0-.02v.02h1.143v-.02zm0-.019v.02h1.143v-.02zm0-.019v.02h1.143v-.02zm0-.02v.02h1.143v-.02zm0-.018v.019h1.143v-.02zm0-.02v.02h1.143v-.02zm0-.02v.02h1.143v-.02zm0-.018v.019h1.143v-.02zm0-.02v.02h1.143v-.02zm0-.02v.02h1.143v-.02zm0-.019v.02h1.143v-.02zm0-.02v.02h1.143v-.02zm0-.019v.02h1.143v-.02zm0-.02v.02h1.143v-.02zm0-.019v.02h1.143v-.02zm0-.02v.02h1.143v-.02zm0-.019v.02h1.143v-.02zm0-.02v.02h1.143v-.02zm0-.02v.02h1.143v-.02zm0-.02v.02h1.143v-.02zm0-.019v.02h1.143v-.02zm0-.02v.02h1.143v-.02zm0-.02v.02h1.143v-.02zm0-.02v.02h1.143v-.02zm0-.02v.02h1.143v-.02zm0-.019v.02h1.143v-.02zm0-.02v.02h1.143v-.02zm0-.02v.02h1.143v-.02zm0-.02v.02h1.143v-.02zm0-.02v.02h1.143v-.02zm0-.02v.02h1.143v-.02zm0-.02v.02h1.143v-.02zm0-.02v.02h1.143v-.02zm0-.02v.02h1.143v-.02zm0-.02v.02h1.143v-.02zm0-.02v.02h1.143v-.02zm0-.02v.02h1.143v-.02zm0-.02v.02h1.143v-.02zm0-.021v.02h1.143v-.02zm0-.02v.02h1.143v-.02zm0-.02v.02h1.143v-.02zm0-.02v.02h1.143v-.02zm0-.021v.02h1.143v-.02zm0-.02v.02h1.143v-.02zm0-.02v.02h1.143v-.02zm0-.021v.02h1.143v-.02zm0-.02v.02h1.143v-.02zm0-.021v.02h1.143v-.02zm0-.02v.02h1.143v-.02zm0-.021v.02h1.143v-.02zm0-.02v.02h1.143V23zm0-.021V23h1.143v-.02zm0-.02v.02h1.143v-.02zm0-.021v.02h1.143v-.02zm0-.02v.02h1.143v-.02zm0-.021v.02h1.143v-.02zm0-.021v.02h1.143v-.02zm0-.02v.02h1.143v-.02zm0-.021v.02h1.143v-.02zm0-.021v.02h1.143v-.02zm0-.02v.02h1.143v-.02zm0-.022v.021h1.143v-.02zm0-.02v.02h1.143v-.02zm0-.021v.02h1.143v-.02zm0-.02v.02h1.143v-.02zm0-.022v.021h1.143v-.02zm0-.02v.02h1.143v-.02zm0-.021v.02h1.143v-.02zm0-.021v.02h1.143v-.02zm0-.02v.02h1.143v-.02zm0-.022v.021h1.143v-.02zm0-.02v.02h1.143v-.02zm0-.022v.021h1.143v-.02zm0-.02v.02h1.143v-.02zm0-.021v.02h1.143v-.02zm0-.021v.02h1.143v-.02zm0-.021v.02h1.143v-.02zm0-.021v.02h1.143v-.02zm0-.021v.02h1.143v-.02zm0-.021v.02h1.143v-.02zm0-.021v.02h1.143v-.02zm0-.021v.02h1.143v-.02zm0-.022v.021h1.143v-.02zm0-.02v.02h1.143v-.02zm0-.022v.021h1.143v-.02zm0-.02v.02h1.143v-.02zm0-.022v.021h1.143v-.02zm0-.021v.021h1.143v-.021zm0-.021v.021h1.143v-.021zm0-.021v.02h1.143v-.02zm0-.021v.02h1.143v-.02zm0-.022v.022h1.143v-.022zm0-.02v.02h1.143v-.02zm0-.022v.021h1.143v-.02zm0-.021v.021h1.143v-.021zm0-.021v.02h1.143v-.02zm0-.022v.022h1.143v-.022zm0-.02v.02h1.143v-.02zm0-.022v.021h1.143v-.021zm0-.021v.021h1.143v-.021zm0-.022v.022h1.143v-.022zm0-.02v.02h1.143v-.02zm0-.022v.021h1.143v-.021zm0-.021v.021h1.143v-.021zm0-.022v.022h1.143v-.022zm0-.02v.02h1.143v-.02zm0-.022v.021h1.143v-.021zm0-.021v.02h1.143v-.02zm0-.022v.021h1.143v-.02zm0-.021v.021h1.143v-.021zm0-.021v.02h1.143v-.02zm0-.022v.022h1.143v-.022zm0-.021v.021h1.143v-.021zm0-.021v.02h1.143v-.02zm0-.022v.022h1.143v-.022zm0-.021v.021h1.143v-.021zm0-.021v.02h1.143v-.02zm0-.022v.021h1.143v-.02zm0-.021v.021h1.143v-.021zm0-.022v.022h1.143v-.022zm0-.02v.02h1.143v-.02zm0-.022v.021h1.143v-.021zm0-.022v.022h1.143v-.022zm0-.021v.021h1.143v-.021zm0-.021v.02h1.143v-.02zm0-.022v.021h1.143v-.02zm0-.021v.021h1.143v-.02zm0-.022v.022h1.143v-.022zm0-.021v.021h1.143v-.021zm0-.021v.021h1.143v-.021zm0-.022v.022h1.143v-.022zm0-.021v.021h1.143v-.021zm0-.022v.022h1.143v-.022zm0-.021v.021h1.143v-.021zm0-.021v.021h1.143v-.021zm0-.022v.022h1.143v-.022zm0-.021v.021h1.143v-.021zm0-.021v.02h1.143v-.02zm0-.022v.021h1.143v-.02zm0-.021v.021h1.143v-.021zm0-.022v.022h1.143v-.022zm0-.021v.021h1.143v-.021zm0-.021v.02h1.143v-.02zm0-.022v.021h1.143v-.02zm0-.021v.021h1.143v-.021zm0-.022v.022h1.143v-.022zm0-.021v.021h1.143v-.021zm0-.021v.021h1.143v-.021zm0-.022v.022h1.143v-.022zm0-.021v.021h1.143v-.021zm0-.021v.02h1.143v-.02zm0-.022v.022h1.143v-.022zm0-.021v.021h1.143v-.021zm0-.021v.02h1.143v-.02zm0-.022v.021h1.143v-.02zm0-.021v.021h1.143v-.021zm0-.021v.02h1.143v-.02zm0-.022v.021h1.143v-.02zm0-.021v.021h1.143v-.021zm0-.021v.02h1.143v-.02zm0-.022v.022h1.143v-.022zm0-.021v.021h1.143v-.021zm0-.021v.021h1.143v-.021zm0-.022v.022h1.143v-.022zm0-.02v.02h1.143v-.02zm0-.022v.021h1.143v-.021zm0-.021v.02h1.143v-.02zm0-.022v.022h1.143v-.022zm0-.02v.02h1.143v-.02zm0-.022v.021h1.143v-.021zm0-.021v.02h1.143v-.02zm0-.022v.022h1.143v-.022zm0-.02v.02h1.143v-.02zm0-.022v.021h1.143v-.021zm0-.021v.021h1.143v-.021zm0-.021v.02h1.143v-.02zm0-.021v.02h1.143v-.02zm0-.022v.021h1.143v-.02zm0-.02v.02h1.143v-.02zm0-.022v.021h1.143v-.02zm0-.021v.021h1.143v-.021zm0-.021v.021h1.143v-.021zm0-.021v.02h1.143v-.02zm0-.021v.02h1.143v-.02zm0-.021v.02h1.143v-.02zm0-.021v.02h1.143v-.02zm0-.021v.02h1.143v-.02zm0-.021v.02h1.143v-.02zm0-.021v.02h1.143v-.02zm0-.021v.02h1.143v-.02zm0-.021v.02h1.143v-.02zm0-.021v.02h1.143v-.02zm0-.021v.02h1.143v-.02zm0-.021v.02h1.143v-.02zm0-.021v.02h1.143v-.02zm0-.021v.02h1.143v-.02zm0-.021v.02h1.143v-.02zm0-.021v.02h1.143v-.02zm0-.02v.02h1.143v-.02zm0-.022v.021h1.143v-.02zm0-.02v.02h1.143v-.02zm0-.021v.02h1.143v-.02zm0-.021v.02h1.143v-.02zm0-.02v.02h1.143v-.02zm0-.022v.021h1.143v-.02zm0-.02v.02h1.143v-.02zm0-.021v.02h1.143v-.02zm0-.02v.02h1.143v-.02zm0-.021v.02h1.143v-.02zm0-.021v.02h1.143v-.02zm0-.02v.02h1.143v-.02zm0-.021v.02h1.143v-.02zm0-.021v.02h1.143v-.02zm0-.02v.02h1.143v-.02zm0-.021v.02h1.143v-.02zm0-.02v.02h1.143v-.02zm0-.021v.02h1.143v-.02zm0-.02v.02h1.143v-.02zm0-.021v.02h1.143v-.02zm0-.02v.02h1.143v-.02zm0-.021v.02h1.143v-.02zm0-.02v.02h1.143v-.02zm0-.02v.02h1.143v-.02zm0-.021v.02h1.143v-.02zm0-.02v.02h1.143v-.02zm0-.02v.02h1.143v-.02zm0-.021v.02h1.143v-.02zm0-.02v.02h1.143v-.02zm0-.02v.02h1.143v-.02zm0-.021v.02h1.143v-.02zm0-.02v.02h1.143v-.02zm0-.02v.02h1.143v-.02zm0-.02v.02h1.143v-.02zm0-.02v.02h1.143v-.02zm0-.02v.02h1.143v-.02zm0-.02v.02h1.143v-.02zm0-.02v.02h1.143v-.02zm0-.02v.02h1.143v-.02zm0-.02v.02h1.143v-.02zm0-.02v.02h1.143v-.02zm0-.02v.02h1.143v-.02zm0-.02v.02h1.143v-.02zm0-.02v.02h1.143v-.02zm0-.02v.02h1.143v-.02zm0-.02v.02h1.143v-.02zm0-.02v.02h1.143v-.02zm0-.02v.02h1.143v-.02zm0-.02v.02h1.143v-.02zm0-.02v.02h1.143v-.02zm0-.019v.02h1.143v-.02zm0-.02v.02h1.143v-.02zm0-.02v.02h1.143v-.02zm0-.019v.02h1.143v-.02zm0-.02v.02h1.143v-.02zm0-.019v.02h1.143v-.02zm0-.02v.02h1.143v-.02zm0-.019v.02h1.143v-.02zm0-.02v.02h1.143v-.02zm0-.019v.02h1.143v-.02zm0-.02v.02h1.143v-.02zm0-.019v.02h1.143v-.02zm0-.019v.02h1.143v-.02zm0-.02v.02h1.143v-.02zm0-.018v.019h1.143v-.02zm0-.02v.02h1.143v-.02zm0-.019v.02h1.143v-.02zm0-.019v.02h1.143v-.02zm0-.02v.02h1.143v-.02zm0-.018v.019h1.143v-.02zm0-.02v.02h1.143v-.02zm0-.018v.019h1.143v-.02zm0-.02v.02h1.143v-.02zm0-.018v.019h1.143v-.02zm0-.02v.02h1.143v-.02zm0-.018v.019h1.143v-.019zm0-.019v.02h1.143v-.02zm0-.019v.02h1.143v-.02zm0-.018v.018h1.143v-.018zm0-.02v.02h1.143v-.02zm0-.018v.019h1.143v-.019zm0-.018v.018h1.143v-.018zm0-.019v.019h1.143v-.019zm0-.019v.019h1.143v-.019zm0-.018v.018h1.143v-.018zm0-.019v.019h1.143v-.019zm0-.018v.018h1.143v-.018zm0-.018v.018h1.143v-.018zm0-.019v.018h1.143v-.018zm0-.018v.018h1.143v-.018zm0-.018v.018h1.143v-.018zm0-.019v.018h1.143v-.018zm0-.018v.018h1.143v-.018zm0-.018v.018h1.143v-.018zM21 18v.018h1.143V18zm0-.018V18h1.143v-.018zm0-.018v.018h1.143v-.018zm0-.018v.018h1.143v-.018zm0-.018v.018h1.143v-.018zm0-.018v.017h1.143v-.017zm0-.018v.018h1.143v-.018zm0-.018v.018h1.143v-.018zm0-.018v.018h1.143v-.018zm0-.018v.018h1.143v-.018zm0-.017v.017h1.143v-.017zm0-.018v.018h1.143v-.018zm0-.018v.018h1.143v-.018zm0-.017v.017h1.143v-.017zm0-.018v.018h1.143v-.018zm0-.017v.017h1.143v-.017zm0-.018v.018h1.143v-.018zm0-.017v.017h1.143V17.7zm0-.018v.018h1.143v-.018zm0-.017v.017h1.143v-.017zm0-.017v.017h1.143v-.017zm0-.017v.017h1.143v-.017zm0-.018v.018h1.143v-.018zm0-.017v.017h1.143v-.017zm0-.017v.017h1.143v-.017zm0-.017v.017h1.143v-.017zm0-.017v.017h1.143v-.017zm0-.017v.017h1.143v-.017zm0-.017v.017h1.143v-.017zm0-.017v.017h1.143v-.017zm0-.016v.016h1.143v-.016zm0-.017v.017h1.143v-.017zm0-.017v.017h1.143v-.017zm0-.017v.017h1.143v-.017zm0-.016v.017h1.143v-.017zm0-.017v.017h1.143v-.017zm0-.016v.016h1.143v-.016zm0-.017v.017h1.143v-.017zm0-.016v.016h1.143v-.016zm0-.016v.016h1.143v-.016zm0-.017v.017h1.143v-.017zm0-.016v.016h1.143v-.016zm0-.016v.016h1.143v-.016zm0-.016v.016h1.143v-.016zm0-.017v.017h1.143v-.017zm0-.015v.015h1.143v-.015zm0-.017v.017h1.143v-.017zm0-.015v.015h1.143V17.2zm0-.016v.016h1.143v-.016zm0-.016v.016h1.143v-.016zm0-.016v.016h1.143v-.016zm0-.016v.016h1.143v-.016zm0-.015v.015h1.143v-.015zm0-.016v.016h1.143v-.016zm0-.016v.016h1.143v-.016zm0-.015v.015h1.143v-.015zm0-.015v.015h1.143v-.015zm0-.016v.015h1.143v-.015zm0-.015v.015h1.143v-.015zm0-.016v.016h1.143v-.016zm0-.015v.015h1.143v-.015zm0-.015v.015h1.143v-.015zm0-.015v.015h1.143v-.015zm0-.015v.015h1.143v-.015zm0-.015v.015h1.143v-.015zm0-.015v.015h1.143v-.015zm0-.015v.015h1.143v-.015zm0-.015v.015h1.143v-.015zm0-.015v.015h1.143v-.015zm0-.014v.014h1.143v-.014zm0-.015v.015h1.143v-.015zm0-.015v.015h1.143v-.015zm0-.014v.014h1.143v-.014zm0-.015v.015h1.143v-.015zm0-.014v.014h1.143v-.014zm0-.015v.015h1.143v-.015zm0-.014v.014h1.143v-.014zm0-.014v.014h1.143v-.014zm0-.014v.014h1.143v-.014zm0-.014v.014h1.143v-.014zm0-.014v.014h1.143v-.014zm0-.014v.014h1.143v-.014zm0-.014v.014h1.143v-.014zm0-.014v.014h1.143v-.014zm0-.014v.014h1.143v-.014zm0-.014v.014h1.143v-.014zm0-.014v.014h1.143v-.014zm0-.013v.014h1.143v-.014zm0-.014v.014h1.143v-.014zm0-.013v.013h1.143v-.013zm0-.014v.014h1.143v-.014zm0-.013v.013h1.143v-.013zm0-.013v.013h1.143v-.013zm0-.014v.014h1.143v-.014zm0-.013v.013h1.143v-.013zm0-.013v.013h1.143V16.5zm0-.013v.013h1.143v-.013zm0-.013v.013h1.143v-.013zm0-.013v.013h1.143v-.013zm0-.013v.013h1.143v-.013zm0-.012v.012h1.143v-.012zm1.119-2.938C21.4 14.266 21 15.27 21 16.436h1.143c0-.889.3-1.61.811-2.158zm2.24-1.35c-.725.23-1.567.628-2.24 1.35l.835.78c.493-.528 1.134-.844 1.751-1.04zm3.593-.434c-.695 0-2.212-.004-3.593.434l.346 1.09c1.19-.378 2.537-.38 3.247-.38zm.048 0h-.048v1.143H28zm.049 0H28v1.143h.049zm3.592.434c-1.38-.438-2.897-.434-3.592-.434v1.143c.71 0 2.058.003 3.246.38zm2.241 1.35c-.673-.722-1.515-1.12-2.24-1.35l-.347 1.09c.618.196 1.259.512 1.752 1.04zM35 16.436c0-1.166-.4-2.17-1.118-2.938l-.835.78c.51.547.81 1.27.81 2.158zm0 .012v-.012h-1.142v.012zm0 .013v-.013h-1.142v.013zm0 .013v-.013h-1.142v.013zm0 .013v-.013h-1.142v.013zm0 .013v-.013h-1.142v.013zm0 .013V16.5h-1.142v.013zm0 .013v-.013h-1.142v.013zm0 .014v-.014h-1.142v.014zm0 .013v-.013h-1.142v.013zm0 .013v-.013h-1.142v.013zm0 .014v-.014h-1.142v.014zm0 .013v-.013h-1.142v.013zm0 .014v-.014h-1.142v.014zm0 .014v-.014h-1.142v.014zm0 .013v-.014h-1.142v.014zm0 .014v-.014h-1.142v.014zm0 .014v-.014h-1.142v.014zm0 .014v-.014h-1.142v.014zm0 .014v-.014h-1.142v.014zm0 .014v-.014h-1.142v.014zm0 .014v-.014h-1.142v.014zm0 .014v-.014h-1.142v.014zm0 .014v-.014h-1.142v.014zm0 .014v-.014h-1.142v.014zm0 .014v-.014h-1.142v.014zm0 .015v-.015h-1.142v.015zm0 .014v-.014h-1.142v.014zm0 .015v-.015h-1.142v.015zm0 .014v-.014h-1.142v.014zm0 .015v-.015h-1.142v.015zm0 .015v-.015h-1.142v.015zm0 .014v-.014h-1.142v.014zm0 .015v-.015h-1.142v.015zm0 .015v-.015h-1.142v.015zm0 .015v-.015h-1.142v.015zm0 .015v-.015h-1.142v.015zm0 .015v-.015h-1.142v.015zm0 .015v-.015h-1.142v.015zm0 .015v-.015h-1.142v.015zm0 .015v-.015h-1.142v.015zm0 .015v-.015h-1.142v.015zm0 .016v-.016h-1.142v.016zm0 .015v-.015h-1.142v.015zm0 .015v-.015h-1.142v.015zm0 .016v-.015h-1.142v.015zm0 .015v-.015h-1.142v.015zm0 .016v-.016h-1.142v.016zm0 .016v-.016h-1.142v.016zm0 .015v-.015h-1.142v.015zm0 .016v-.016h-1.142v.016zm0 .016v-.016h-1.142v.016zm0 .016v-.016h-1.142v.016zm0 .016v-.016h-1.142v.016zm0 .015V17.2h-1.142v.015zm0 .017v-.017h-1.142v.017zm0 .015v-.015h-1.142v.015zm0 .017v-.017h-1.142v.017zm0 .016v-.016h-1.142v.016zm0 .016v-.016h-1.142v.016zm0 .016v-.016h-1.142v.016zm0 .017v-.017h-1.142v.017zm0 .016v-.016h-1.142v.016zm0 .016v-.016h-1.142v.016zm0 .017v-.017h-1.142v.017zm0 .016v-.016h-1.142v.016zm0 .017v-.017h-1.142v.017zm0 .017v-.017h-1.142v.017zm0 .016v-.017h-1.142v.017zm0 .017v-.017h-1.142v.017zm0 .017v-.017h-1.142v.017zm0 .016v-.016h-1.142v.016zm0 .017v-.017h-1.142v.017zm0 .017v-.017h-1.142v.017zm0 .017v-.017h-1.142v.017zm0 .017v-.017h-1.142v.017zm0 .017v-.017h-1.142v.017zm0 .017v-.017h-1.142v.017zm0 .017v-.017h-1.142v.017zm0 .018v-.018h-1.142v.018zm0 .017v-.017h-1.142v.017zm0 .017v-.017h-1.142v.017zm0 .017v-.017h-1.142v.017zm0 .018v-.018h-1.142v.018zm0 .017V17.7h-1.142v.017zm0 .018v-.018h-1.142v.018zm0 .017v-.017h-1.142v.017zm0 .018v-.018h-1.142v.018zm0 .017v-.017h-1.142v.017zm0 .018v-.018h-1.142v.018zm0 .018v-.018h-1.142v.018zm0 .017v-.017h-1.142v.017zm0 .018v-.018h-1.142v.018zm0 .018v-.018h-1.142v.018zm0 .018v-.018h-1.142v.018zm0 .018v-.018h-1.142v.018zm0 .017v-.017h-1.142v.017zm0 .018v-.018h-1.142v.018zm0 .018v-.017h-1.142v.018zm0 .019v-.018h-1.142v.018zM35 18v-.018h-1.142V18zm0 .018V18h-1.142v.018zm0 .018v-.018h-1.142v.018zm0 .018v-.018h-1.142v.018zm0 .018v-.018h-1.142v.018zm0 .019v-.018h-1.142v.018zm0 .018v-.018h-1.142v.018zm0 .018v-.018h-1.142v.018zm0 .019v-.018h-1.142v.018zm0 .018v-.018h-1.142v.018zm0 .019v-.019h-1.142v.019zm0 .018v-.018h-1.142v.018zm0 .019v-.019h-1.142v.019zm0 .019v-.019h-1.142v.019zm0 .018v-.018h-1.142v.018zm0 .019v-.019h-1.142v.019zm0 .019v-.02h-1.142v.02zm0 .018v-.018h-1.142v.018zm0 .02v-.02h-1.142v.02zm0 .018v-.019h-1.142v.02zm0 .019v-.019h-1.142v.019zm0 .019v-.02h-1.142v.02zm0 .019v-.02h-1.142v.02zm0 .019v-.02h-1.142v.02zm0 .019v-.02h-1.142v.02zm0 .019v-.02h-1.142v.02zm0 .019v-.02h-1.142v.02zm0 .019v-.02h-1.142v.02zm0 .02v-.02h-1.142v.02zm0 .018v-.019h-1.142v.02zm0 .02v-.02h-1.142v.02zm0 .019v-.02h-1.142v.02zm0 .02v-.02h-1.142v.02zm0 .018V18.6h-1.142v.02zm0 .02v-.02h-1.142v.02zm0 .02v-.02h-1.142v.02zm0 .018v-.019h-1.142v.02zm0 .02v-.02h-1.142v.02zm0 .02v-.02h-1.142v.02zm0 .019v-.02h-1.142v.02zm0 .02v-.02h-1.142v.02zm0 .02v-.02h-1.142v.02zm0 .019v-.02h-1.142v.02zm0 .02v-.02h-1.142v.02zm0 .019v-.02h-1.142v.02zm0 .02v-.02h-1.142v.02zm0 .02v-.02h-1.142v.02zm0 .02v-.02h-1.142v.02zm0 .019v-.02h-1.142v.02zm0 .02v-.02h-1.142v.02zm0 .02v-.02h-1.142v.02zm0 .02v-.02h-1.142v.02zm0 .02v-.02h-1.142v.02zm0 .02v-.02h-1.142v.02zm0 .02v-.02h-1.142v.02zm0 .02v-.02h-1.142v.02zm0 .02v-.02h-1.142v.02zm0 .02v-.02h-1.142v.02zm0 .02v-.02h-1.142v.02zm0 .02v-.02h-1.142v.02zm0 .02v-.02h-1.142v.02zm0 .02v-.02h-1.142v.02zm0 .02v-.02h-1.142v.02zm0 .02v-.02h-1.142v.02zm0 .02v-.02h-1.142v.02zm0 .02v-.02h-1.142v.02zm0 .02v-.02h-1.142v.02zm0 .02v-.02h-1.142v.02zm0 .021v-.02h-1.142v.02zm0 .02v-.02h-1.142v.02zm0 .02v-.02h-1.142v.02zm0 .021v-.02h-1.142v.02zm0 .02v-.02h-1.142v.02zm0 .02v-.02h-1.142v.02zm0 .021v-.02h-1.142v.02zm0 .02v-.02h-1.142v.02zm0 .021v-.02h-1.142v.02zm0 .02v-.02h-1.142v.02zm0 .021v-.02h-1.142v.02zm0 .02v-.02h-1.142v.02zm0 .021v-.02h-1.142v.02zm0 .021v-.02h-1.142v.02zm0 .02v-.02h-1.142v.02zm0 .021v-.02h-1.142v.02zm0 .02v-.02h-1.142v.02zm0 .022v-.021h-1.142v.02zm0 .02v-.02h-1.142v.02zm0 .02v-.02h-1.142v.02zm0 .022v-.021h-1.142v.02zm0 .02v-.02h-1.142v.02zm0 .021v-.02h-1.142v.02zm0 .02v-.02h-1.142v.02zm0 .022v-.021h-1.142v.02zm0 .02v-.02h-1.142v.02zm0 .021v-.02h-1.142v.02zm0 .021v-.02h-1.142v.02zm0 .021v-.02h-1.142v.02zm0 .02v-.02h-1.142v.02zm0 .022v-.021h-1.142v.02zm0 .02v-.02h-1.142v.02zm0 .022v-.021h-1.142v.02zm0 .02v-.02h-1.142v.02zm0 .021v-.02h-1.142v.02zm0 .022v-.021h-1.142v.02zm0 .02v-.02h-1.142v.02zm0 .021v-.02h-1.142v.02zm0 .021v-.02h-1.142v.02zm0 .021v-.02h-1.142v.02zm0 .022v-.021h-1.142v.02zm0 .02v-.02h-1.142v.02zm0 .022v-.021h-1.142v.02zm0 .02v-.02h-1.142v.02zm0 .022v-.021h-1.142v.02zm0 .021v-.021h-1.142v.021zm0 .021v-.021h-1.142v.021zm0 .021v-.02h-1.142v.02zm0 .021v-.02h-1.142v.02zm0 .021v-.02h-1.142v.02zm0 .022v-.021h-1.142v.02zm0 .02v-.02h-1.142v.02zm0 .022v-.021h-1.142v.021zm0 .021v-.021h-1.142v.021zm0 .021v-.02h-1.142v.02zm0 .022v-.022h-1.142v.022zm0 .02v-.02h-1.142v.02zm0 .022v-.021h-1.142v.021zm0 .021v-.02h-1.142v.02zm0 .022v-.022h-1.142v.022zm0 .02v-.02h-1.142v.02zm0 .022v-.021h-1.142v.021zm0 .021v-.02h-1.142v.02zm0 .022v-.022h-1.142v.022zm0 .021v-.021h-1.142v.021zm0 .021v-.021h-1.142v.021zm0 .022v-.022h-1.142v.022zm0 .02v-.02h-1.142v.02zm0 .022v-.021h-1.142v.021zm0 .021v-.02h-1.142v.02zm0 .022v-.021h-1.142v.02zm0 .021v-.021h-1.142v.021zm0 .021v-.02h-1.142v.02zm0 .022v-.021h-1.142v.02zm0 .021v-.021h-1.142v.021zm0 .022v-.022h-1.142v.022zm0 .02v-.02h-1.142v.02zm0 .022v-.021h-1.142v.021zm0 .022v-.022h-1.142v.022zm0 .021v-.021h-1.142v.021zm0 .021v-.021h-1.142v.021zm0 .022v-.022h-1.142v.022zm0 .021v-.021h-1.142v.021zm0 .021v-.02h-1.142v.02zm0 .022v-.021h-1.142v.02zm0 .021v-.021h-1.142v.021zm0 .022v-.022h-1.142v.022zm0 .021v-.021h-1.142v.021zm0 .021v-.02h-1.142v.02zm0 .022v-.021h-1.142v.02zm0 .021v-.021h-1.142v.021zm0 .022v-.022h-1.142v.022zm0 .021v-.021h-1.142v.021zm0 .021v-.021h-1.142v.021zm0 .022v-.022h-1.142v.022zm0 .021v-.021h-1.142v.021zm0 .022v-.022h-1.142v.022zm0 .021v-.021h-1.142v.021zm0 .021v-.021h-1.142v.021zm0 .022v-.022h-1.142v.022zm0 .021V21.4h-1.142v.021zm0 .021v-.02h-1.142v.02zm0 .022v-.021h-1.142v.02zm0 .021v-.021h-1.142v.021zm0 .022v-.022h-1.142v.022zm0 .021v-.021h-1.142v.021zm0 .021v-.02h-1.142v.02zm0 .022v-.022h-1.142v.022zm0 .021v-.021h-1.142v.021zm0 .021v-.02h-1.142v.02zm0 .022v-.021h-1.142v.02zm0 .021v-.021h-1.142v.021zm0 .022v-.022h-1.142v.022zm0 .02v-.02h-1.142v.02zm0 .022v-.021h-1.142v.021zm0 .022v-.022h-1.142v.022zm0 .02v-.02h-1.142v.02zm0 .022v-.021h-1.142v.021zm0 .021v-.02h-1.142v.02zm0 .022v-.021h-1.142v.02zm0 .021v-.021h-1.142v.021zm0 .021v-.02h-1.142v.02zm0 .022v-.022h-1.142v.022zm0 .021v-.021h-1.142v.021zm0 .021v-.021h-1.142v.021zm0 .021v-.02h-1.142v.02zm0 .022v-.022h-1.142v.022zm0 .021v-.021h-1.142v.021zm0 .021v-.021h-1.142v.021zm0 .021v-.02h-1.142v.02zm0 .022v-.022h-1.142v.022zm0 .02v-.02h-1.142v.02zm0 .022v-.021h-1.142v.021zm0 .021v-.02h-1.142v.02zm0 .021v-.02h-1.142v.02zm0 .022v-.022h-1.142v.022zm0 .02v-.02h-1.142v.02zm0 .022v-.021h-1.142v.02zm0 .021v-.021h-1.142v.021zm0 .021v-.021h-1.142v.021zm0 .021v-.02h-1.142v.02zm0 .021v-.02h-1.142v.02zm0 .021v-.02h-1.142v.02zm0 .021v-.02h-1.142v.02zm0 .021v-.02h-1.142v.02zm0 .022v-.021h-1.142v.02zm0 .02v-.02h-1.142v.02zm0 .022v-.021h-1.142v.02zm0 .02v-.02h-1.142v.02zm0 .022v-.021h-1.142v.02zm0 .02v-.02h-1.142v.02zm0 .021v-.02h-1.142v.02zm0 .021v-.02h-1.142v.02zm0 .021v-.02h-1.142v.02zm0 .021v-.02h-1.142v.02zm0 .021v-.02h-1.142v.02zm0 .021v-.02h-1.142v.02zm0 .021v-.02h-1.142v.02zm0 .02v-.02h-1.142v.02zm0 .022v-.021h-1.142v.02zm0 .02v-.02h-1.142v.02zm0 .021v-.02h-1.142v.02zm0 .021v-.02h-1.142v.02zm0 .02v-.02h-1.142v.02zm0 .021v-.02h-1.142v.02zm0 .021v-.02h-1.142v.02zm0 .02v-.02h-1.142v.02zm0 .022v-.021h-1.142v.02zm0 .02v-.02h-1.142v.02zm0 .02v-.02h-1.142v.02zm0 .022v-.021h-1.142v.02zm0 .02v-.02h-1.142v.02zm0 .02v-.02h-1.142v.02zm0 .021v-.02h-1.142v.02zm0 .02v-.02h-1.142v.02zM35 23v-.02h-1.142V23zm0 .02V23h-1.142v.02zm0 .021v-.02h-1.142v.02zm0 .02v-.02h-1.142v.02zm0 .021v-.02h-1.142v.02zm0 .02v-.02h-1.142v.02zm0 .021v-.02h-1.142v.02zm0 .02v-.02h-1.142v.02zm0 .02v-.02h-1.142v.02zm0 .021v-.02h-1.142v.02zm0 .02v-.02h-1.142v.02zm0 .02v-.02h-1.142v.02zm0 .021v-.02h-1.142v.02zm0 .02v-.02h-1.142v.02zm0 .02v-.02h-1.142v.02zm0 .02v-.02h-1.142v.02zm0 .02v-.02h-1.142v.02zm0 .02v-.02h-1.142v.02zm0 .021v-.02h-1.142v.02zm0 .02v-.02h-1.142v.02zm0 .02v-.02h-1.142v.02zm0 .02v-.02h-1.142v.02zm0 .02v-.02h-1.142v.02zm0 .02v-.02h-1.142v.02zm0 .02v-.02h-1.142v.02zm0 .02v-.02h-1.142v.02zm0 .02v-.02h-1.142v.02zm0 .02v-.02h-1.142v.02zm0 .02v-.02h-1.142v.02zm0 .02v-.02h-1.142v.02zm0 .02v-.02h-1.142v.02zm0 .019v-.02h-1.142v.02zm0 .02v-.02h-1.142v.02zm0 .02v-.02h-1.142v.02zm0 .019v-.02h-1.142v.02zm0 .02v-.02h-1.142v.02zm0 .02v-.02h-1.142v.02zm0 .019v-.02h-1.142v.02zm0 .02v-.02h-1.142v.02zm0 .019v-.02h-1.142v.02zm0 .02v-.02h-1.142v.02zm0 .019v-.02h-1.142v.02zm0 .02v-.02h-1.142v.02zm0 .019v-.02h-1.142v.02zm0 .019v-.02h-1.142v.02zm0 .02v-.02h-1.142v.02zm0 .018v-.019h-1.142v.02zm0 .02v-.02h-1.142v.02zm0 .019v-.02h-1.142v.02zm0 .02v-.02h-1.142v.02zm0 .018v-.019h-1.142v.02zm0 .02v-.02h-1.142v.02zm0 .019v-.02h-1.142v.02zm0 .019v-.02h-1.142v.02zm0 .019v-.02h-1.142v.02zm0 .019v-.02h-1.142v.02zm0 .018v-.018h-1.142v.018zm0 .02v-.02h-1.142v.02zm0 .018v-.018h-1.142v.018zm0 .02v-.02h-1.142v.02zm0 .018v-.019h-1.142v.019zm0 .019v-.019h-1.142v.019zm0 .018v-.018h-1.142v.018zm0 .02v-.02h-1.142v.02zm0 .018v-.019h-1.142v.019zm0 .018v-.018h-1.142v.018zm0 .019v-.019h-1.142v.019zm0 .018v-.018h-1.142v.018zm0 .02v-.02h-1.142v.02zm0 .018v-.019h-1.142v.019zm0 .018v-.018h-1.142v.018zm0 .018v-.018h-1.142v.018zm0 .019v-.019h-1.142v.019zm0 .018v-.018h-1.142v.018zm0 .018v-.018h-1.142v.018zm0 .018v-.018h-1.142v.018zm0 .019v-.018h-1.142v.018zm0 .018v-.018h-1.142v.018zm0 .018v-.018h-1.142v.018zm0 .018v-.018h-1.142v.018zm0 .018v-.018h-1.142v.018zm0 .018v-.018h-1.142v.018zm0 .018v-.018h-1.142v.018zm0 .018v-.018h-1.142v.018zm0 .018v-.018h-1.142v.018zm0 .018v-.018h-1.142v.018zm0 .017v-.017h-1.142v.017zm0 .018v-.018h-1.142v.018zm0 .018v-.018h-1.142v.018zm0 .017v-.017h-1.142v.017zm0 .018v-.018h-1.142v.018zm0 .017v-.017h-1.142v.017zm0 .018v-.018h-1.142v.018zm0 .017v-.017h-1.142v.017zm0 .018v-.018h-1.142v.018zm0 .017V24.8h-1.142v.017zm0 .017v-.017h-1.142v.017zm0 .018v-.018h-1.142v.018zm0 .017v-.017h-1.142v.017zm0 .017v-.017h-1.142v.017zm0 .017v-.017h-1.142v.017zm0 .018v-.018h-1.142v.018zm0 .017v-.017h-1.142v.017zm0 .017v-.017h-1.142v.017zm0 .017v-.018h-1.142v.017zm0 .016v-.017h-1.142v.017zm0 .017v-.017h-1.142v.017zm0 .017v-.017h-1.142v.017zm0 .017v-.017h-1.142v.017zm0 .016v-.016h-1.142v.016zm0 .017v-.017h-1.142v.017zm0 .017v-.017h-1.142v.017zm0 .016v-.016h-1.142v.016zm0 .017v-.017h-1.142v.017zm0 .016v-.016h-1.142v.016zm0 .017v-.017h-1.142v.017zm0 .016v-.016h-1.142v.016zm0 .017v-.017h-1.142v.017zm0 .016v-.017h-1.142v.017zm0 .016v-.016h-1.142v.016zm0 .016v-.016h-1.142v.016zm0 .016v-.016h-1.142v.016zm0 .016v-.016h-1.142v.016zm0 .016v-.016h-1.142v.016zm0 .016v-.016h-1.142v.016zm0 .016V25.3h-1.142v.016zm0 .016v-.016h-1.142v.016zm0 .016v-.016h-1.142v.016zm0 .015v-.015h-1.142v.015zm0 .016v-.016h-1.142v.016zm0 .016v-.016h-1.142v.016zm0 .015v-.015h-1.142v.015zm0 .016v-.016h-1.142v.016zm0 .015v-.015h-1.142v.015zm0 .016v-.016h-1.142v.016zm0 .015v-.015h-1.142v.015zm0 .015v-.015h-1.142v.015zm0 .016v-.016h-1.142v.016zm0 .015v-.015h-1.142v.015zm0 .015v-.015h-1.142v.015zm0 .015v-.015h-1.142v.015zm0 .015v-.015h-1.142v.015zm0 .015v-.015h-1.142v.015zm0 .015v-.015h-1.142v.015zm0 .015v-.015h-1.142v.015zm0 .015v-.015h-1.142v.015zm0 .014v-.014h-1.142v.014zm0 .015v-.015h-1.142v.015zm0 .015v-.015h-1.142v.015zm0 .014v-.014h-1.142v.014zm0 .015v-.015h-1.142v.015zm0 .014v-.014h-1.142v.014zm0 .014v-.014h-1.142v.014zm0 .015v-.015h-1.142v.015zm0 .014v-.014h-1.142v.014zm0 .014v-.014h-1.142v.014zm0 .014v-.014h-1.142v.014zm0 .014v-.014h-1.142v.014zm0 .014v-.014h-1.142v.014zm0 .014v-.014h-1.142v.014zm0 .014v-.014h-1.142v.014zm0 .014v-.014h-1.142v.014zm0 .014v-.014h-1.142v.014zm0 .014v-.014h-1.142v.014zm0 .013v-.014h-1.142v.014zm0 .014v-.014h-1.142v.014zm0 .013v-.013h-1.142v.013zm0 .014v-.014h-1.142v.014zm0 .013v-.013h-1.142v.013zm0 .013v-.013h-1.142v.013zm0 2.721v-2.72h-1.142v2.72zm0 12.177V28.681h-1.142v12.176zm11.572-.571H34.429v1.143h12.143zM46 34.19v6.666h1.143V34.19zm-5.142.571h5.714V33.62h-5.715zm-3.43-3.428a3.43 3.43 0 0 0 3.43 3.428V33.62a2.286 2.286 0 0 1-2.286-2.285zm0-5.307v5.307h1.144v-5.307zm3.43-3.428a3.43 3.43 0 0 0-3.43 3.428h1.144a2.286 2.286 0 0 1 2.285-2.285zm5.714 0h-5.715v1.143h5.715zM46 16.504v6.666h1.143v-6.666zm-6.571.571h7.143v-1.143h-7.143zm-2-2a2 2 0 0 0 2 2v-1.143a.857.857 0 0 1-.857-.857zm2-2a2 2 0 0 0-2 2h1.143c0-.473.383-.857.857-.857zm7.143 0h-7.143v1.143h7.143zM50 16.504a3.43 3.43 0 0 0-3.428-3.429v1.143a2.286 2.286 0 0 1 2.285 2.286zm0 6.666v-6.666h-1.142v6.666zm-3.428 3.43A3.43 3.43 0 0 0 50 23.17h-1.142a2.286 2.286 0 0 1-2.286 2.286zm-5.715 0h5.715v-1.143h-5.715zm.572 4.735v-5.307h-1.143v5.307zm5.143-.572h-5.715v1.143h5.715zM50 34.191a3.43 3.43 0 0 0-3.428-3.429v1.143a2.286 2.286 0 0 1 2.285 2.286zm0 6.666v-6.666h-1.142v6.666zm-3.428 3.429A3.43 3.43 0 0 0 50 40.857h-1.142a2.286 2.286 0 0 1-2.286 2.286zm-12.143 0h12.143v-1.143H34.429zM31 40.857a3.43 3.43 0 0 0 3.429 3.429v-1.143a2.286 2.286 0 0 1-2.286-2.286z" mask="url(#e)"/><circle cx="24.965" cy="21.036" r="1.607" fill="#000"/><circle cx="31.036" cy="21.036" r="1.607" fill="#000"/></g></g><rect width="53.9" height="53.9" x="1.05" y="1.05" stroke="#fff" stroke-opacity=".15" stroke-width="2.1" rx="7.35"/><defs><linearGradient id="b" x1="28" x2="28" y1="0" y2="56" gradientUnits="userSpaceOnUse"><stop stop-color="#2c2a07"/><stop offset="1" stop-color="#1c1604"/></linearGradient><linearGradient id="d" x1="28" x2="28" y1="12.224" y2="43.777" gradientUnits="userSpaceOnUse"><stop stop-color="#e4d652"/><stop offset="1" stop-color="#cbba24"/></linearGradient><clipPath id="a"><rect width="56" height="56" fill="#fff" rx="8.4"/></clipPath><filter id="c" width="55.429" height="51.429" x=".286" y="2.286" color-interpolation-filters="sRGB" filterUnits="userSpaceOnUse"><feFlood flood-opacity="0" result="BackgroundImageFix"/><feColorMatrix in="SourceAlpha" result="hardAlpha" values="0 0 0 0 0 0 0 0 0 0 0 0 0 0 0 0 0 0 127 0"/><feOffset/><feGaussianBlur stdDeviation="2.857"/><feComposite in2="hardAlpha" operator="out"/><feColorMatrix values="0 0 0 0 0 0 0 0 0 0 0 0 0 0 0 0 0 0 0.25 0"/><feBlend in2="BackgroundImageFix" result="effect1_dropShadow_4_96"/><feBlend in="SourceGraphic" in2="effect1_dropShadow_4_96" result="shape"/></filter></defs></svg>