<svg xmlns="http://www.w3.org/2000/svg" width="56" height="56" fill="none" viewBox="0 0 56 56"><rect width="56" height="56" fill="url(#a)" rx="8.4"/><rect width="53.9" height="53.9" x="1.05" y="1.05" stroke="#fff" stroke-opacity=".15" stroke-width="2.1" rx="7.35"/><g filter="url(#b)"><path fill="#fff" fill-rule="evenodd" d="M27.693 18.05h17.23v7.031h-17.23z" clip-rule="evenodd"/><path fill="#3ecc5f" fill-rule="evenodd" d="M12.103 41.006a4.09 4.09 0 0 1-3.55-2.068A4.14 4.14 0 0 0 8 41.006c0 2.285 1.837 4.137 4.103 4.137h4.102v-4.137z" clip-rule="evenodd"/><path fill="#3ecc5f" fill-rule="evenodd" d="m30.56 19.161 14.364-.905v-2.068c0-2.285-1.837-4.137-4.103-4.137H22.36l-.513-.895a.59.59 0 0 0-1.026 0l-.513.895-.512-.895a.59.59 0 0 0-1.026 0l-.513.895-.513-.895a.59.59 0 0 0-1.025 0l-.513.895h-.014l-.85-.856a.59.59 0 0 0-.99.268l-.28 1.056-1.065-.288a.594.594 0 0 0-.725.731l.285 1.074-1.047.283a.6.6 0 0 0-.266.999l.85.856v.014l-.889.517a.6.6 0 0 0 0 1.034l.888.517-.888.517a.6.6 0 0 0 0 1.034l.888.517-.888.517a.6.6 0 0 0 0 1.034l.888.517-.888.517a.6.6 0 0 0 0 1.035l.888.517-.888.517a.6.6 0 0 0 0 1.034l.888.517-.888.517a.6.6 0 0 0 0 1.034l.888.517-.888.517a.6.6 0 0 0 0 1.034l.888.517-.888.517a.6.6 0 0 0 0 1.034l.888.517-.888.518a.6.6 0 0 0 0 1.034l.888.517-.888.517a.6.6 0 0 0 0 1.034l.888.517-.888.517a.6.6 0 0 0 0 1.034l.888.517-.888.517a.6.6 0 0 0 0 1.034l.888.517c0 2.285 1.837 4.137 4.103 4.137H40.82c2.266 0 4.103-1.852 4.103-4.137V24.461l-14.363-.905a2.18 2.18 0 0 1-1.455-.69 2.2 2.2 0 0 1-.592-1.508c0-1.162.896-2.124 2.047-2.197" clip-rule="evenodd"/><path fill="#3ecc5f" fill-rule="evenodd" d="M36.718 45.143h6.154V36.87h-6.154z" clip-rule="evenodd"/><path fill="#44d860" fill-rule="evenodd" d="M46.975 39.972c-.045 0-.088.008-.13.014l-.025-.094a1.03 1.03 0 0 0 .51-.469 1.04 1.04 0 0 0-.255-1.284 1.01 1.01 0 0 0-1.268-.02l-.069-.07a1.03 1.03 0 0 0-.613-1.63 1.02 1.02 0 0 0-.682.097c-.209.11-.374.29-.467.51l-.09-.024c.005-.044.012-.087.012-.132a1.04 1.04 0 0 0-.3-.731 1.02 1.02 0 0 0-1.45 0 1.04 1.04 0 0 0-.301.73c0 .046.008.09.013.133l-.091.024a1.03 1.03 0 0 0-.467-.511 1.02 1.02 0 0 0-1.272.261 1.04 1.04 0 0 0-.023 1.273 4.14 4.14 0 0 0-1.237 2.957c0 2.285 1.837 4.137 4.103 4.137 1.915 0 3.52-1.326 3.971-3.116.043.006.086.014.131.014.272 0 .533-.11.725-.303a1.04 1.04 0 0 0 0-1.463 1.02 1.02 0 0 0-.725-.303" clip-rule="evenodd"/><path fill="#3ecc5f" fill-rule="evenodd" d="M38.77 32.734h6.154v-4.137H38.77z" clip-rule="evenodd"/><path fill="#44d860" fill-rule="evenodd" d="M46.975 31.182a.51.51 0 0 0 .512-.517.51.51 0 0 0-.513-.517q-.033.001-.065.007l-.012-.047a.515.515 0 0 0 .305-.578.52.52 0 0 0-.502-.416.5.5 0 0 0-.31.107l-.034-.035a.514.514 0 1 0-.88-.511 2 2 0 0 0-.553-.078 2.06 2.06 0 0 0-2.05 2.068 2.06 2.06 0 0 0 2.05 2.069c.192 0 .376-.03.552-.078a.516.516 0 0 0 .574.303.51.51 0 0 0 .41-.506.5.5 0 0 0-.103-.309l.034-.035a.505.505 0 0 0 .635-.01.517.517 0 0 0-.128-.877q.007-.022.012-.046.032.004.066.006" clip-rule="evenodd"/><path fill="#000" fill-rule="evenodd" d="M20.309 18.773a.5.5 0 0 1-.363-.151.52.52 0 0 1-.15-.366c0-.855-.69-1.551-1.538-1.551s-1.539.696-1.539 1.55a.52.52 0 0 1-.513.518.52.52 0 0 1-.513-.517 2.577 2.577 0 0 1 2.565-2.585c1.413 0 2.564 1.16 2.564 2.585a.52.52 0 0 1-.15.366.5.5 0 0 1-.363.151" clip-rule="evenodd"/><path fill="#ffff50" fill-rule="evenodd" d="M28.513 45.143h12.308c2.266 0 4.102-1.852 4.102-4.137V26.53H32.616c-2.266 0-4.103 1.852-4.103 4.136z" clip-rule="evenodd"/><path fill="#000" fill-rule="evenodd" d="M41.85 32.94H31.587a.204.204 0 0 1-.205-.206.204.204 0 0 1 .205-.207h10.265c.054 0 .106.021.145.06a.208.208 0 0 1-.145.353m0 4.137H31.587a.204.204 0 0 1-.205-.207.204.204 0 0 1 .205-.207h10.265c.054 0 .106.022.145.06a.208.208 0 0 1-.145.354m0 4.136H31.587a.204.204 0 0 1-.205-.207.204.204 0 0 1 .205-.207h10.265a.208.208 0 0 1 0 .414m0-10.302H31.587a.204.204 0 0 1-.205-.207.204.204 0 0 1 .205-.207h10.265c.054 0 .106.022.145.06a.208.208 0 0 1-.145.354m0 4.098H31.587a.204.204 0 0 1-.205-.207.204.204 0 0 1 .205-.207h10.265c.054 0 .106.022.145.06a.208.208 0 0 1-.145.354m0 4.136H31.587a.204.204 0 0 1-.205-.207.21.21 0 0 1 .205-.207h10.265a.207.207 0 0 1 0 .414m3.074-19.108-.007-.001c-.634.022-.934.66-1.199 1.225-.276.59-.49.973-.84.961-.387-.014-.608-.455-.843-.922-.27-.537-.577-1.145-1.223-1.123-.625.022-.926.578-1.191 1.069-.283.523-.475.84-.846.826-.395-.014-.605-.373-.848-.789-.271-.462-.584-.982-1.218-.964-.614.021-.916.493-1.182.91-.282.44-.479.709-.854.693-.405-.015-.614-.312-.856-.657-.271-.388-.578-.826-1.21-.805-.6.021-.901.408-1.168.749-.252.323-.45.58-.867.563a.205.205 0 0 0-.212.2.21.21 0 0 0 .197.214c.62.02.933-.373 1.205-.722.241-.309.45-.576.86-.59.395-.017.58.23.86.63.266.379.568.81 1.176.831.636.022.943-.458 1.214-.882.242-.38.452-.707.851-.72.368-.015.568.279.85.76.267.455.568.97 1.188.992.64.023.95-.541 1.22-1.04.233-.433.454-.84.845-.854.368-.009.56.33.843.895.265.528.566 1.127 1.195 1.15h.035c.628 0 .926-.636 1.19-1.198.234-.499.455-.968.835-.987z" clip-rule="evenodd"/><path fill="#3ecc5f" fill-rule="evenodd" d="M24.411 45.143h8.205V36.87h-8.205z" clip-rule="evenodd"/><path fill="#d8d8d8" d="m44.874 23.68-15.955 4.31a.414.414 0 0 0-.29.506l1.56 5.867a.41.41 0 0 0 .502.293l15.954-4.31a.414.414 0 0 0 .29-.507l-1.559-5.867a.41.41 0 0 0-.502-.293"/><path fill="#4a4a4a" d="m33.734 31.201-.572.155a.207.207 0 0 0-.145.253l.153.576c.03.11.142.176.252.146l.571-.154a.207.207 0 0 0 .145-.254l-.153-.575a.205.205 0 0 0-.251-.147m1.146-.31-.57.155a.207.207 0 0 0-.146.253l.154.576c.029.11.141.176.25.146l.572-.154a.207.207 0 0 0 .145-.253l-.153-.576a.205.205 0 0 0-.251-.147m1.146-.309-.571.154a.207.207 0 0 0-.145.253l.153.576c.03.11.142.176.251.146l.571-.154a.207.207 0 0 0 .145-.253l-.153-.576a.205.205 0 0 0-.25-.146m1.146-.31-.571.154a.207.207 0 0 0-.145.254l.153.576c.03.11.142.175.251.146l.571-.155a.207.207 0 0 0 .145-.253l-.153-.576a.205.205 0 0 0-.25-.146m1.145-.31-.572.154a.207.207 0 0 0-.145.254l.153.576c.03.11.142.175.252.146l.57-.154a.207.207 0 0 0 .146-.254l-.153-.576a.205.205 0 0 0-.251-.146m1.146-.31-.571.155a.207.207 0 0 0-.145.253l.153.576c.03.11.142.176.251.146l.571-.154a.207.207 0 0 0 .145-.253l-.153-.576a.205.205 0 0 0-.25-.147m1.147-.309-.572.154a.207.207 0 0 0-.145.253l.153.576c.03.11.142.176.252.146l.57-.154a.207.207 0 0 0 .146-.253l-.153-.576a.205.205 0 0 0-.251-.146m1.146-.31-.57.154a.207.207 0 0 0-.146.253l.153.576c.03.11.142.176.252.147l.57-.155a.207.207 0 0 0 .146-.253l-.153-.576a.205.205 0 0 0-.251-.146m1.146-.31-.572.154a.207.207 0 0 0-.145.254l.153.576c.03.11.142.175.252.146l.57-.155a.207.207 0 0 0 .146-.253l-.153-.576a.205.205 0 0 0-.251-.146"/><path fill="#4a4a4a" fill-rule="evenodd" d="m30.117 32.179 2.434-.658a.204.204 0 0 1 .252.146l.153.576a.21.21 0 0 1-.145.253l-2.435.658a.204.204 0 0 1-.25-.146l-.154-.576a.21.21 0 0 1 .145-.254m13.401-3.62 2.435-.659a.207.207 0 0 1 .251.146l.153.576a.21.21 0 0 1-.145.254l-2.435.657a.204.204 0 0 1-.251-.146l-.153-.576a.205.205 0 0 1 .145-.253m-14.02 1.287.929-.251a.207.207 0 0 1 .251.146l.153.576a.21.21 0 0 1-.145.253l-.93.251a.204.204 0 0 1-.25-.146l-.154-.576a.21.21 0 0 1 .145-.253" clip-rule="evenodd"/><path fill="#4a4a4a" d="m31.574 29.283-.572.154a.207.207 0 0 0-.145.254l.153.576c.03.11.142.176.252.146l.57-.154a.207.207 0 0 0 .146-.254l-.153-.576a.205.205 0 0 0-.251-.146m1.146-.31-.572.155a.207.207 0 0 0-.145.253l.153.576c.03.11.142.176.252.146l.57-.154a.207.207 0 0 0 .146-.254l-.153-.575a.205.205 0 0 0-.251-.147m1.147-.309-.572.154a.207.207 0 0 0-.145.253l.153.576c.03.11.142.176.252.146l.57-.154a.207.207 0 0 0 .146-.253l-.153-.576a.205.205 0 0 0-.252-.146m1.148-.31-.572.154a.207.207 0 0 0-.145.254l.153.575c.03.11.142.176.252.147l.57-.155a.207.207 0 0 0 .146-.253l-.153-.576a.205.205 0 0 0-.252-.146m1.147-.31-.571.154a.207.207 0 0 0-.145.254l.153.576c.03.11.142.175.251.146l.571-.154a.207.207 0 0 0 .145-.254l-.153-.576a.205.205 0 0 0-.251-.146m1.146-.31-.571.155a.207.207 0 0 0-.145.253l.153.576c.03.11.142.176.251.146l.571-.154a.207.207 0 0 0 .145-.254l-.153-.575a.205.205 0 0 0-.251-.147m1.147-.309-.571.154a.207.207 0 0 0-.145.253l.153.576c.03.11.142.176.251.146l.571-.154a.207.207 0 0 0 .145-.253l-.153-.576a.205.205 0 0 0-.251-.147m1.147-.309-.571.154a.207.207 0 0 0-.145.253l.153.576c.029.11.142.176.25.147l.572-.155a.207.207 0 0 0 .145-.253l-.153-.576a.205.205 0 0 0-.251-.146m1.146-.31-.571.154a.207.207 0 0 0-.145.254l.153.575c.029.11.142.176.25.147l.572-.154a.207.207 0 0 0 .145-.254l-.153-.576a.205.205 0 0 0-.251-.146m1.146-.31-.57.154a.207.207 0 0 0-.146.254l.153.576c.03.11.142.176.251.146l.572-.154a.207.207 0 0 0 .145-.254l-.153-.576a.205.205 0 0 0-.252-.146m1.148-.309-.572.154a.207.207 0 0 0-.145.253l.153.576c.03.11.142.176.251.146l.572-.154a.207.207 0 0 0 .145-.253l-.153-.576a.205.205 0 0 0-.252-.146m1.147-.31-.57.154a.207.207 0 0 0-.146.253l.153.576c.03.11.142.176.251.146l.572-.154a.207.207 0 0 0 .145-.253l-.153-.576a.205.205 0 0 0-.252-.146m1.147-.31-.571.154a.207.207 0 0 0-.145.254l.153.575c.029.11.141.176.25.147l.572-.155a.207.207 0 0 0 .145-.253l-.153-.576a.205.205 0 0 0-.251-.146"/><path fill="#4a4a4a" fill-rule="evenodd" d="m45.298 25.435-.93.251a.204.204 0 0 1-.25-.146l-.154-.576a.21.21 0 0 1 .145-.253l.93-.251a.204.204 0 0 1 .25.146l.154.576a.21.21 0 0 1-.145.253" clip-rule="evenodd"/><path fill="#4a4a4a" d="m43.222 25.996.572-.154a.207.207 0 0 0 .145-.253l-.154-.576a.205.205 0 0 0-.25-.147l-.572.155a.207.207 0 0 0-.145.253l.153.576c.03.11.142.176.251.146m-1.146.31.571-.154a.207.207 0 0 0 .145-.254l-.153-.576a.205.205 0 0 0-.251-.146l-.571.154a.207.207 0 0 0-.145.254l.153.576c.029.11.141.175.25.146m-1.146.31.571-.155a.207.207 0 0 0 .145-.253l-.153-.576a.205.205 0 0 0-.251-.146l-.571.154a.207.207 0 0 0-.145.253l.153.576c.029.11.141.176.25.147m-1.146.309.571-.154a.207.207 0 0 0 .145-.253l-.153-.576a.205.205 0 0 0-.251-.146l-.571.154a.207.207 0 0 0-.145.253l.153.576c.029.11.142.176.25.146m-1.146.31.572-.154a.207.207 0 0 0 .145-.253l-.153-.576a.205.205 0 0 0-.252-.147l-.57.155a.207.207 0 0 0-.146.253l.153.576c.03.11.142.176.251.146m-1.145.31.57-.154a.207.207 0 0 0 .146-.254l-.153-.576a.205.205 0 0 0-.252-.146l-.57.155a.207.207 0 0 0-.146.253l.153.576c.03.11.142.176.251.146m-1.147.31.572-.154a.207.207 0 0 0 .145-.254l-.153-.576a.205.205 0 0 0-.252-.146l-.57.154a.207.207 0 0 0-.146.254l.153.576c.03.11.142.175.251.146m-1.146.31.57-.155a.207.207 0 0 0 .146-.253l-.153-.576a.205.205 0 0 0-.252-.146l-.57.154a.207.207 0 0 0-.146.253l.153.576c.03.11.142.176.252.147m-1.147.309.571-.154a.207.207 0 0 0 .145-.253l-.153-.576a.205.205 0 0 0-.251-.146l-.571.154a.207.207 0 0 0-.145.253l.153.576c.03.11.142.176.251.146m-1.147.31.571-.154a.207.207 0 0 0 .145-.253l-.153-.576a.205.205 0 0 0-.251-.147l-.571.155a.207.207 0 0 0-.145.253l.153.576c.03.11.142.176.251.146m-1.146.31.571-.154a.207.207 0 0 0 .145-.254l-.153-.576a.205.205 0 0 0-.251-.146l-.571.154a.207.207 0 0 0-.145.254l.153.576c.03.11.142.175.251.146m-1.147.31.571-.155a.207.207 0 0 0 .145-.253l-.153-.576a.205.205 0 0 0-.251-.146l-.571.154a.207.207 0 0 0-.145.253l.153.576c.03.11.142.176.251.147m-1.146.309.57-.154a.207.207 0 0 0 .146-.253l-.153-.576a.205.205 0 0 0-.251-.146l-.572.154a.207.207 0 0 0-.145.253l.153.576c.03.11.142.176.252.146"/><path fill="#4a4a4a" d="m43.222 25.996.572-.154a.207.207 0 0 0 .145-.253l-.154-.576a.205.205 0 0 0-.25-.147l-.572.155a.207.207 0 0 0-.145.253l.153.576c.03.11.142.176.251.146m-1.146.31.571-.154a.207.207 0 0 0 .145-.254l-.153-.576a.205.205 0 0 0-.251-.146l-.571.154a.207.207 0 0 0-.145.254l.153.576c.029.11.141.175.25.146m-1.146.31.571-.155a.207.207 0 0 0 .145-.253l-.153-.576a.205.205 0 0 0-.251-.146l-.571.154a.207.207 0 0 0-.145.253l.153.576c.029.11.141.176.25.147m-1.146.309.571-.154a.207.207 0 0 0 .145-.253l-.153-.576a.205.205 0 0 0-.251-.146l-.571.154a.207.207 0 0 0-.145.253l.153.576c.029.11.142.176.25.146m-1.146.31.572-.154a.207.207 0 0 0 .145-.253l-.153-.576a.205.205 0 0 0-.252-.147l-.57.155a.207.207 0 0 0-.146.253l.153.576c.03.11.142.176.251.146m-1.145.31.57-.154a.207.207 0 0 0 .146-.254l-.153-.576a.205.205 0 0 0-.252-.146l-.57.155a.207.207 0 0 0-.146.253l.153.576c.03.11.142.176.251.146m-1.147.31.572-.154a.207.207 0 0 0 .145-.254l-.153-.576a.205.205 0 0 0-.252-.146l-.57.154a.207.207 0 0 0-.146.254l.153.576c.03.11.142.175.251.146m-1.146.31.57-.155a.207.207 0 0 0 .146-.253l-.153-.576a.205.205 0 0 0-.252-.146l-.57.154a.207.207 0 0 0-.146.253l.153.576c.03.11.142.176.252.147m-1.147.309.571-.154a.207.207 0 0 0 .145-.253l-.153-.576a.205.205 0 0 0-.251-.146l-.571.154a.207.207 0 0 0-.145.253l.153.576c.03.11.142.176.251.146m-1.147.31.571-.154a.207.207 0 0 0 .145-.253l-.153-.576a.205.205 0 0 0-.251-.147l-.571.155a.207.207 0 0 0-.145.253l.153.576c.03.11.142.176.251.146m-1.146.31.571-.154a.207.207 0 0 0 .145-.254l-.153-.576a.205.205 0 0 0-.251-.146l-.571.154a.207.207 0 0 0-.145.254l.153.576c.03.11.142.175.251.146m-1.147.31.571-.155a.207.207 0 0 0 .145-.253l-.153-.576a.205.205 0 0 0-.251-.146l-.571.154a.207.207 0 0 0-.145.253l.153.576c.03.11.142.176.251.147m-1.146.309.57-.154a.207.207 0 0 0 .146-.253l-.153-.576a.205.205 0 0 0-.251-.146l-.572.154a.207.207 0 0 0-.145.253l.153.576c.03.11.142.176.252.146"/><path fill="#4a4a4a" fill-rule="evenodd" d="m29.804 31 1.324-.358a.204.204 0 0 1 .25.147l.154.576a.21.21 0 0 1-.145.253l-1.324.357a.204.204 0 0 1-.25-.146l-.154-.576a.21.21 0 0 1 .145-.253" clip-rule="evenodd"/><path fill="#4a4a4a" d="m32.31 30.323-.57.154a.207.207 0 0 0-.145.253l.153.576c.029.11.142.176.25.147l.572-.155a.207.207 0 0 0 .145-.253l-.153-.576a.205.205 0 0 0-.251-.146m1.146-.31-.57.154a.207.207 0 0 0-.146.254l.153.576c.03.11.142.175.251.146l.572-.154a.207.207 0 0 0 .145-.254l-.153-.576a.205.205 0 0 0-.252-.146m1.147-.31-.57.155a.207.207 0 0 0-.146.253l.153.576c.03.11.142.176.251.146l.572-.154a.207.207 0 0 0 .145-.253l-.153-.576a.205.205 0 0 0-.252-.147m1.146-.309-.57.154a.207.207 0 0 0-.146.253l.153.576c.03.11.142.176.251.146l.572-.154a.207.207 0 0 0 .145-.253l-.153-.576a.205.205 0 0 0-.252-.146m1.147-.31-.57.154a.207.207 0 0 0-.146.253l.153.576c.03.11.142.176.251.147l.572-.155a.207.207 0 0 0 .145-.253l-.154-.576a.205.205 0 0 0-.25-.146m1.146-.31-.571.154a.207.207 0 0 0-.145.254l.153.576c.029.11.141.175.25.146l.572-.154a.207.207 0 0 0 .145-.254l-.153-.576a.205.205 0 0 0-.251-.146m1.146-.31-.57.155a.207.207 0 0 0-.145.253l.152.576c.03.11.142.176.252.146l.571-.154a.207.207 0 0 0 .145-.254l-.153-.576a.205.205 0 0 0-.251-.146m1.145-.309-.571.154a.207.207 0 0 0-.145.253l.153.576c.03.11.142.176.251.146l.572-.154a.207.207 0 0 0 .145-.253l-.154-.576a.205.205 0 0 0-.25-.146m1.146-.31-.571.154a.207.207 0 0 0-.145.253l.153.576c.03.11.142.176.251.147l.572-.155a.207.207 0 0 0 .145-.253l-.154-.576a.205.205 0 0 0-.25-.146m1.146-.31-.572.154a.207.207 0 0 0-.145.254l.154.576c.029.11.141.175.25.146l.572-.154a.207.207 0 0 0 .145-.254l-.153-.576a.205.205 0 0 0-.251-.146m1.147-.31-.572.154a.207.207 0 0 0-.145.254l.154.576c.029.11.141.176.25.146l.572-.154a.207.207 0 0 0 .145-.254l-.153-.576a.205.205 0 0 0-.251-.146"/><path fill="#4a4a4a" fill-rule="evenodd" d="m44.388 27.06 1.252-.338a.203.203 0 0 1 .251.146l.153.576a.21.21 0 0 1-.145.253l-1.252.339a.204.204 0 0 1-.25-.147l-.154-.575a.21.21 0 0 1 .145-.254" clip-rule="evenodd"/><path fill="#4a4a4a" d="m31.009 33.23-.572.154a.207.207 0 0 0-.145.254l.153.576c.03.11.142.175.252.146l.57-.154a.207.207 0 0 0 .146-.254l-.153-.576a.205.205 0 0 0-.251-.146m1.147-.31-.572.155a.207.207 0 0 0-.145.253l.153.576c.03.11.142.176.252.146l.57-.154a.207.207 0 0 0 .146-.254l-.153-.575a.205.205 0 0 0-.251-.147m1.146-.31-.571.155a.207.207 0 0 0-.145.253l.153.576c.03.11.142.176.251.146l.571-.154a.207.207 0 0 0 .145-.253l-.153-.576a.205.205 0 0 0-.25-.146m1.147-.311-.572.155a.207.207 0 0 0-.145.253l.153.576c.03.11.142.176.251.147l.571-.155a.207.207 0 0 0 .145-.253l-.153-.576a.205.205 0 0 0-.25-.146"/><path fill="#4a4a4a" fill-rule="evenodd" d="m35.024 32.145 5.516-1.49a.203.203 0 0 1 .251.146l.153.577a.21.21 0 0 1-.145.253l-5.516 1.49a.204.204 0 0 1-.251-.146l-.153-.576a.21.21 0 0 1 .145-.254m6.091-1.645.715-.193a.206.206 0 0 1 .251.146l.153.576a.21.21 0 0 1-.145.253l-.715.193a.203.203 0 0 1-.25-.146l-.154-.576a.21.21 0 0 1 .145-.253" clip-rule="evenodd"/><path fill="#4a4a4a" d="m42.977 29.997-.571.154a.207.207 0 0 0-.145.253l.153.576c.029.11.142.176.25.147l.572-.155a.207.207 0 0 0 .145-.253l-.153-.576a.205.205 0 0 0-.251-.146m1.147-.31-.571.154a.207.207 0 0 0-.145.254l.153.576c.029.11.141.175.25.146l.572-.154a.207.207 0 0 0 .145-.254l-.153-.576a.205.205 0 0 0-.251-.146m2.149-.581-.571.155a.207.207 0 0 0-.145.253l.153.576c.03.11.142.176.251.146l.572-.154a.207.207 0 0 0 .145-.254l-.153-.575a.205.205 0 0 0-.252-.147m-1.733.914-.058-.216a.21.21 0 0 1 .145-.253l.571-.154a.204.204 0 0 1 .252.146l.057.216zm1.005-.117.057.216a.21.21 0 0 1-.145.253l-.57.154a.204.204 0 0 1-.252-.146l-.057-.215zm-.706-5.985-15.695 4.24a.225.225 0 0 0 .115.434l15.695-4.24a.225.225 0 0 0-.115-.434"/><path fill="#d8d8d8" d="m30.104 27.977-.618.166a.15.15 0 0 0-.105.184c.021.08.103.127.182.105l.617-.166a.15.15 0 0 0 .105-.183.15.15 0 0 0-.181-.106m1.236-.335-.618.167a.15.15 0 0 0-.105.183c.022.08.103.128.182.106l.618-.167a.15.15 0 0 0 .105-.183.15.15 0 0 0-.182-.106m.952-.257-.618.167a.15.15 0 0 0-.104.183c.02.08.102.128.181.106l.618-.167a.15.15 0 0 0 .105-.183.15.15 0 0 0-.182-.106m.952-.257-.618.167a.15.15 0 0 0-.105.183c.021.08.103.127.182.106l.618-.167a.15.15 0 0 0 .105-.183.15.15 0 0 0-.182-.106m.952-.258-.618.168a.15.15 0 0 0-.105.183.15.15 0 0 0 .182.106l.618-.167a.15.15 0 0 0 .105-.183.15.15 0 0 0-.182-.106m1.188-.321-.617.166a.15.15 0 0 0-.105.183c.021.08.102.128.182.106l.617-.166a.15.15 0 0 0 .105-.184.15.15 0 0 0-.182-.106m.954-.256-.618.166a.15.15 0 0 0-.105.183c.021.08.103.128.182.106l.617-.167a.15.15 0 0 0 .105-.183.15.15 0 0 0-.181-.105m.95-.258-.617.167a.15.15 0 0 0-.105.183c.021.08.102.128.181.106l.618-.167a.15.15 0 0 0 .105-.183.15.15 0 0 0-.182-.106m.952-.257-.617.167a.15.15 0 0 0-.105.183c.021.08.102.128.182.106l.617-.167a.15.15 0 0 0 .105-.183.15.15 0 0 0-.182-.106m1.19-.321-.617.167a.15.15 0 0 0-.105.183c.021.08.102.127.181.106l.618-.167a.15.15 0 0 0 .105-.183.15.15 0 0 0-.182-.106m.952-.257-.617.166a.15.15 0 0 0-.105.184c.021.08.103.127.182.105l.617-.166a.15.15 0 0 0 .105-.184.15.15 0 0 0-.182-.105m.952-.258-.617.167a.15.15 0 0 0-.105.183c.02.08.102.128.181.106l.618-.166a.15.15 0 0 0 .105-.184.15.15 0 0 0-.182-.106m1.188-.321-.617.167a.15.15 0 0 0-.105.183c.02.08.102.127.181.106l.618-.167a.15.15 0 0 0 .105-.183.15.15 0 0 0-.182-.106m.953-.257-.617.167a.15.15 0 0 0-.105.183c.021.08.102.127.181.106l.618-.167a.15.15 0 0 0 .105-.183.15.15 0 0 0-.182-.106m.951-.257-.618.167a.15.15 0 0 0-.105.183.15.15 0 0 0 .182.106l.618-.167a.15.15 0 0 0 .105-.183.15.15 0 0 0-.182-.106" opacity=".136"/><path fill="#44d860" fill-rule="evenodd" d="M36.718 39.972c-.045 0-.088.008-.13.013l-.025-.093a1.03 1.03 0 0 0 .51-.469 1.04 1.04 0 0 0-.255-1.285 1.01 1.01 0 0 0-1.268-.02l-.069-.07a1.03 1.03 0 0 0-.613-1.63 1.02 1.02 0 0 0-.681.098c-.21.11-.375.29-.468.51l-.09-.024c.005-.044.012-.087.012-.132a1.04 1.04 0 0 0-.3-.731 1.02 1.02 0 0 0-1.45 0c-.193.194-.3.457-.3.73 0 .046.007.09.012.133l-.091.024a1.03 1.03 0 0 0-.467-.511 1.02 1.02 0 0 0-1.271.261 1.04 1.04 0 0 0-.024 1.273 4.14 4.14 0 0 0-1.237 2.957c0 2.285 1.837 4.137 4.103 4.137 1.915 0 3.52-1.326 3.971-3.116q.064.011.131.013c.272 0 .533-.108.726-.303a1.04 1.04 0 0 0 0-1.462 1.02 1.02 0 0 0-.726-.303" clip-rule="evenodd"/><path fill="#3ecc5f" fill-rule="evenodd" d="M24.411 32.734h8.205v-4.137h-8.205z" clip-rule="evenodd"/><path fill="#44d860" fill-rule="evenodd" d="M34.668 31.182a.51.51 0 0 0 .512-.517.51.51 0 0 0-.513-.517q-.032.001-.065.007l-.012-.047a.515.515 0 0 0 .305-.578.52.52 0 0 0-.502-.416.5.5 0 0 0-.31.107l-.034-.035a.515.515 0 0 0-.648-.766.5.5 0 0 0-.233.255 2 2 0 0 0-.552-.078 2.06 2.06 0 0 0-2.051 2.068 2.06 2.06 0 0 0 2.051 2.069c.192 0 .376-.03.552-.078a.516.516 0 0 0 .574.303.51.51 0 0 0 .41-.506.5.5 0 0 0-.103-.309l.034-.035a.505.505 0 0 0 .635-.01.518.518 0 0 0-.128-.877l.012-.046q.032.004.066.006" clip-rule="evenodd"/><path fill="#000" fill-rule="evenodd" d="M36.718 15.93a.6.6 0 0 1-.197-.04.5.5 0 0 1-.166-.112q-.035-.037-.063-.078a.55.55 0 0 1-.076-.389.55.55 0 0 1 .14-.265.53.53 0 0 1 .263-.14.52.52 0 0 1 .464.14.53.53 0 0 1 .15.366.53.53 0 0 1-.23.43.53.53 0 0 1-.285.087m4.103-.26a.52.52 0 0 1-.474-.318.53.53 0 0 1 .189-.629.5.5 0 0 1 .184-.076.52.52 0 0 1 .386.076.53.53 0 0 1 .189.629 1 1 0 0 1-.047.09 1 1 0 0 1-.064.078.53.53 0 0 1-.363.15" clip-rule="evenodd"/></g><defs><linearGradient id="a" x1="28" x2="28" y1="0" y2="56" gradientUnits="userSpaceOnUse"><stop stop-color="#103519"/><stop offset="1" stop-color="#22220a"/></linearGradient><filter id="b" width="51.429" height="51.428" x="2.286" y="2.286" color-interpolation-filters="sRGB" filterUnits="userSpaceOnUse"><feFlood flood-opacity="0" result="BackgroundImageFix"/><feColorMatrix in="SourceAlpha" result="hardAlpha" values="0 0 0 0 0 0 0 0 0 0 0 0 0 0 0 0 0 0 127 0"/><feOffset/><feGaussianBlur stdDeviation="2.857"/><feComposite in2="hardAlpha" operator="out"/><feColorMatrix values="0 0 0 0 0 0 0 0 0 0 0 0 0 0 0 0 0 0 0.25 0"/><feBlend in2="BackgroundImageFix" result="effect1_dropShadow_40_651"/><feBlend in="SourceGraphic" in2="effect1_dropShadow_40_651" result="shape"/></filter></defs></svg>