<svg xmlns="http://www.w3.org/2000/svg" width="56" height="56" fill="none" viewBox="0 0 56 56"><g clip-path="url(#a)"><rect width="56" height="56" fill="url(#b)" rx="8"/><g filter="url(#c)"><g clip-path="url(#d)"><path fill="#f6d2a2" fill-rule="evenodd" stroke="#000" stroke-linecap="round" stroke-width=".5" d="M13.043 29.633c.06 1.238 1.296.665 1.856.278.532-.368.687-.062.734-.788.03-.477.085-.954.058-1.433-.804-.072-1.678.12-2.337.598-.34.247-.976 1.035-.311 1.345Z" clip-rule="evenodd"/><path fill="#c6b198" fill-rule="evenodd" d="M13.043 29.632c.18-.067.37-.114.492-.277z" clip-rule="evenodd"/><path stroke="#000" stroke-linecap="round" stroke-width=".5" d="M13.043 29.632c.18-.067.37-.114.492-.277"/><path fill="#6ad7e5" fill-rule="evenodd" stroke="#000" stroke-linecap="round" stroke-width=".5" d="M15.9 14.875c-4.738-1.333-1.215-7.366 2.59-4.885zm21.05-5.337c3.75-2.637 7.14 3.312 2.78 4.808z" clip-rule="evenodd"/><path fill="#f6d2a2" fill-rule="evenodd" stroke="#000" stroke-linecap="round" stroke-width=".5" d="M37.757 44.878c.952.59 2.693 2.374 1.264 3.239-1.373 1.258-2.141-1.381-3.346-1.747.519-.706 1.177-1.349 2.082-1.492Z" clip-rule="evenodd"/><path stroke="#000" stroke-linecap="round" stroke-width=".5" d="M39.021 48.116c-.212-.421-.283-.913-.636-1.253"/><path fill="#f6d2a2" fill-rule="evenodd" stroke="#000" stroke-linecap="round" stroke-width=".5" d="M20.739 46.894c-1.118.173-1.748 1.182-2.68 1.695-.878.524-1.214-.168-1.293-.308-.138-.063-.126.058-.339-.156-.814-1.286.849-2.226 1.714-2.865 1.206-.244 1.962.802 2.598 1.634Z" clip-rule="evenodd"/><path stroke="#000" stroke-linecap="round" stroke-width=".5" d="M16.766 48.28c.043-.49.431-.818.616-1.232"/><path fill="#000" fill-rule="evenodd" d="M16.098 13.21c-.625-.332-1.084-.781-.701-1.505.354-.67 1.011-.597 1.636-.266zm22.645-.63c.625-.33 1.084-.78.701-1.504-.354-.67-1.011-.597-1.636-.266z" clip-rule="evenodd"/><path fill="#f6d2a2" fill-rule="evenodd" stroke="#000" stroke-linecap="round" stroke-width=".5" d="M43.046 29.475c-.06 1.239-1.297.666-1.856.278-.532-.367-.687-.062-.734-.787-.03-.477-.086-.954-.059-1.433.804-.073 1.678.119 2.337.598.34.247.976 1.035.312 1.344Z" clip-rule="evenodd"/><path fill="#c6b198" fill-rule="evenodd" d="M43.046 29.475c-.18-.067-.37-.115-.493-.277z" clip-rule="evenodd"/><path stroke="#000" stroke-linecap="round" stroke-width=".5" d="M43.046 29.475c-.18-.067-.37-.115-.493-.277"/><path fill="#6ad7e5" fill-rule="evenodd" stroke="#000" stroke-linecap="round" stroke-width=".5" d="M27.57 7.032c4.743 0 9.19.68 11.507 5.24 2.08 5.113 1.34 10.626 1.658 16.029.273 4.64.877 9.999-1.274 14.298-2.262 4.524-7.915 5.661-12.572 5.495-3.658-.131-8.077-1.326-10.141-4.67-2.423-3.925-1.276-9.76-1.1-14.127.209-5.173-1.4-10.361.298-15.423 1.761-5.25 6.511-6.437 11.624-6.842Z" clip-rule="evenodd"/><path fill="#fff" fill-rule="evenodd" stroke="#000" stroke-linecap="round" stroke-width=".5" d="M28.407 13.405c.851 4.955 8.943 3.645 7.781-1.352-1.042-4.481-8.064-3.241-7.781 1.352Zm-9.67.802c1.104 4.313 8.004 3.209 7.744-1.118-.312-5.182-8.8-4.182-7.744 1.118Zm10.646 5.144c.004.644.146 1.367.024 2.053-.164.31-.486.343-.764.47a1.13 1.13 0 0 1-.861-.673c-.099-.783.036-1.54.061-2.323z" clip-rule="evenodd"/><path fill="#000" d="M20.64 14.766c.644 0 1.165-.565 1.165-1.263s-.521-1.263-1.165-1.263c-.643 0-1.165.565-1.165 1.263s.522 1.263 1.165 1.263"/><path fill="#fff" d="M21.17 14.11c.152 0 .275-.144.275-.322 0-.177-.123-.32-.275-.32s-.275.143-.275.32.123.321.275.321"/><path fill="#000" d="M30.403 14.452c.632 0 1.145-.566 1.145-1.264 0-.697-.513-1.263-1.145-1.263-.633 0-1.146.566-1.146 1.263 0 .698.513 1.264 1.146 1.264"/><path fill="#fff" d="M30.924 13.795c.15 0 .27-.144.27-.321s-.12-.321-.27-.321-.27.143-.27.32.12.322.27.322"/><path fill="#fff" fill-rule="evenodd" stroke="#000" stroke-linecap="round" stroke-width=".5" d="M26.053 19.28c-.508 1.234.284 3.7 1.663 1.881-.098-.782.037-1.54.062-2.322z" clip-rule="evenodd"/><path fill="#f6d2a2" fill-rule="evenodd" stroke="#231f20" stroke-linecap="round" stroke-width=".5" d="M26.228 16.906c-.948.08-1.723 1.209-1.23 2.1.652 1.182 2.109-.104 3.016.017 1.044.02 1.899 1.104 2.737.195.933-1.01-.401-1.995-1.444-2.435z" clip-rule="evenodd"/><path fill="#000" fill-rule="evenodd" d="M26.108 16.857c-.07-1.643 3.06-1.849 3.43-.473.368 1.372-3.276 1.69-3.43.473" clip-rule="evenodd"/></g></g></g><rect width="53.9" height="53.9" x="1.05" y="1.05" stroke="#fff" stroke-opacity=".15" stroke-width="2.1" rx="6.95"/><defs><clipPath id="a"><rect width="56" height="56" fill="#fff" rx="8"/></clipPath><clipPath id="d"><path fill="#fff" d="M12.207 6h31.586v44H12.207z"/></clipPath><linearGradient id="b" x1="28" x2="28" y1="0" y2="56" gradientUnits="userSpaceOnUse"><stop stop-color="#152a2d"/><stop offset="1" stop-color="#102022"/></linearGradient><filter id="c" width="55.429" height="55.429" x=".286" y=".286" color-interpolation-filters="sRGB" filterUnits="userSpaceOnUse"><feFlood flood-opacity="0" result="BackgroundImageFix"/><feColorMatrix in="SourceAlpha" result="hardAlpha" values="0 0 0 0 0 0 0 0 0 0 0 0 0 0 0 0 0 0 127 0"/><feOffset/><feGaussianBlur stdDeviation="2.857"/><feComposite in2="hardAlpha" operator="out"/><feColorMatrix values="0 0 0 0 0 0 0 0 0 0 0 0 0 0 0 0 0 0 0.25 0"/><feBlend in2="BackgroundImageFix" result="effect1_dropShadow_2_3174"/><feBlend in="SourceGraphic" in2="effect1_dropShadow_2_3174" result="shape"/></filter></defs></svg>