<svg xmlns="http://www.w3.org/2000/svg" width="56" height="56" fill="none" viewBox="0 0 56 56"><g clip-path="url(#a)"><rect width="56" height="56" fill="url(#b)" rx="8.4"/><g filter="url(#c)"><path fill="#4e7896" stroke="#4e7896" stroke-width=".357" d="M42.835 45.289v-.002zm0 0 .343.08c-.079 1.017-.95 1.79-2.222 2.374-1.284.59-3.038 1.018-5.01 1.314-3.948.593-8.818.665-12.67.414l-.167-.011v-.002c-2.435-.148-3.913-.427-4.79-.676a5.6 5.6 0 0 1-.926-.337 2 2 0 0 1-.2-.111l-.05-.035-.014-.011-.005-.004h-.001l-.001-.002-.483-.415.628.103c4.75.781 12.841.925 19.367-.286l.524-.101c2.54-.51 3.962-1.084 4.749-1.532.419-.24.656-.442.785-.579a1 1 0 0 0 .142-.183Zm-25.379-2.625c.408.012.776.083 1.024.257l.465.325h-.586l-.064.003a5 5 0 0 0-.263.022 9 9 0 0 0-1.04.185l-.012.003v-.001c-.44.069-1.36.332-1.98.653a2.3 2.3 0 0 0-.38.239.54.54 0 0 0-.17.195c-.014.034-.013.06.013.096a.5.5 0 0 0 .181.138l.115.056c1.04.453 2.769.773 4.87.972 2.094.199 4.54.275 7.004.248 4.935-.053 9.912-.519 12.27-1.227.63-.193 1.01-.395 1.231-.578.218-.18.275-.337.28-.45a.53.53 0 0 0-.104-.32 1 1 0 0 0-.11-.128l-.005-.005.047-.057.055-.259h.076l.048.04c.53.25.869.565.876.963.004.203-.081.394-.22.567a2.4 2.4 0 0 1-.588.5c-.991.633-2.891 1.24-5.435 1.692-4.94.879-12.394 1.191-20.604-.062l-.797-.126c-.781-.126-1.339-.294-1.702-.499-.364-.205-.573-.47-.557-.794.015-.301.225-.58.503-.823.284-.248.674-.488 1.117-.706.888-.437 2.02-.804 3.036-.99a7 7 0 0 1 1.406-.13Zm4.91-3.138-.541.331-.002.001-.011.007-.042.028a2 2 0 0 0-.132.106c-.106.094-.186.196-.204.28a.13.13 0 0 0 .013.095.4.4 0 0 0 .162.142c.204.115.592.228 1.28.3h.004c3.322.425 5.084.356 8.768-.356l.068-.013.06.036c.733.452 1.509.83 2.316 1.13l.418.155-.41.176c-4.202 1.807-8.958 1.754-11.848 1.012-.723-.186-1.337-.418-1.799-.678-.454-.256-.793-.558-.914-.901a.8.8 0 0 1 .002-.544 1.2 1.2 0 0 1 .368-.494c.352-.3.933-.57 1.76-.806l.024-.007zm15.692-9.73c2.51-.756 4.768.596 5.072 2.582.157 1.024-.217 2.18-1.299 3.247-1.078 1.064-2.863 2.046-5.55 2.748l-.634.166.462-.465.004-.004.023-.03a1 1 0 0 0 .082-.134l.05-.099h.068c3.942-2.062 4.9-4.036 4.672-5.364-.23-1.345-1.688-2.17-2.884-1.94a6 6 0 0 0-.68.192 3 3 0 0 0-.157.06l-.036.016-.007.004-.002.001-.477.239.237-.478.16.08-.16-.081.001-.001.004-.008a1 1 0 0 1 .047-.078c.032-.05.08-.116.146-.186.129-.14.33-.303.614-.387zm-15.396.31v.003l.14.28-.294-.021-.05.013q-.084.02-.236.06a34 34 0 0 0-.806.218c-.647.184-1.453.434-2.102.703a5 5 0 0 0-.8.403 1 1 0 0 0-.219.178c-.048.054-.058.088-.06.103 0 .006-.002.021.027.053a.7.7 0 0 0 .223.135c.242.103.645.2 1.264.28 2.115.283 6.296.212 10.209-.073a79 79 0 0 0 4.394-.534 89 89 0 0 0 1.855-.296l.106-.018.027-.005.007-.001h.002l.104.339h-.001l-.002.002-.01.003-.037.017-.138.063c-.118.054-.284.132-.474.225-.38.187-.853.434-1.236.679l-.024.015-.028.007c-3.973 1.045-9.759 1.33-14.003 1.088-2.118-.12-3.878-.374-4.84-.742a2.2 2.2 0 0 1-.592-.313c-.146-.118-.259-.267-.27-.452s.081-.352.226-.495q.219-.215.639-.42l.002-.002a16.3 16.3 0 0 1 4.82-1.473 13 13 0 0 1 1.477-.123q.265-.005.407 0l.106.003.123-.029zm-1.818 5.076-.094.032-.038.033a2 2 0 0 0-.15.145c-.118.126-.228.278-.266.421a.3.3 0 0 0 0 .183.4.4 0 0 0 .147.183c.183.137.552.272 1.236.343 3.616.357 6.445.428 11.336-.568l.095-.02.068.07a4.16 4.16 0 0 0 1.637 1.028l.531.18-.537.16c-5.044 1.51-10.392 1.584-13.589.97-.8-.153-1.472-.35-1.974-.584-.492-.23-.863-.512-.989-.858-.137-.378.038-.745.425-1.068.382-.319 1.006-.633 1.894-.936l.268-.204z"/><path fill="#f58219" stroke="#f58219" stroke-width=".357" d="M36.994 15.528c-2.31 1.34-3.927 2.437-5.021 3.38-1.096.943-1.651 1.717-1.864 2.404-.209.677-.093 1.296.221 1.955.318.667.825 1.35 1.382 2.163.633.88.77 1.732.606 2.512-.162.771-.617 1.455-1.135 2.017a9 9 0 0 1-1.578 1.33 10 10 0 0 1-.74.454l-.046.025-.015.008h-.001l-.196-.296.001-.001.005-.004.02-.017.075-.068c.065-.06.156-.15.259-.264.207-.23.46-.558.651-.954.19-.396.316-.854.276-1.348-.04-.49-.245-1.033-.739-1.597v-.001c-1.77-2.05-2.197-3.853-1.79-5.406.402-1.54 1.614-2.786 3.015-3.757 1.405-.974 3.025-1.69 4.29-2.16a26 26 0 0 1 2.025-.659l.122-.033.033-.008.007-.002h.004zm-5.312-9.081v.001l.005.003.01.012a3 3 0 0 1 .172.207c.11.143.253.355.398.63.29.548.581 1.351.595 2.373.028 2.052-1.065 4.925-5.396 8.344-1.713 1.367-2.647 2.574-3.077 3.66-.428 1.08-.362 2.057-.04 2.985.324.936.908 1.819 1.522 2.704.608.878 1.248 1.763 1.648 2.677l-.283.205c-2.027-1.823-3.79-3.558-4.793-5.22-.502-.834-.821-1.66-.88-2.478a3.7 3.7 0 0 1 .482-2.114l.18-.294c.744-1.133 1.812-2.113 2.95-3.05 1.148-.944 2.357-1.836 3.43-2.82 1.068-.98 1.976-2.032 2.511-3.266.533-1.23.7-2.654.265-4.392l-.161-.638z"/><mask id="d" fill="#fff"><path d="M32.951 32.863v14.545h-3.508V36.144h-.086l-3.252 1.989v-3.04l3.586-2.23zm3.834 14.545 5.866-11.62v-.091h-6.86v-2.834h10.496v2.855L40.4 47.408z"/></mask><path fill="#f58219" d="M32.951 32.863v14.545h-3.508V36.144h-.086l-3.252 1.989v-3.04l3.586-2.23zm3.834 14.545 5.866-11.62v-.091h-6.86v-2.834h10.496v2.855L40.4 47.408z"/><path fill="#fff" fill-opacity=".25" d="M32.951 32.863h.714v-.715h-.714zm0 14.545v.715h.714v-.715zm-3.508 0h-.715v.715h.715zm0-11.264h.714v-.714h-.714zm-.086 0v-.714h-.2l-.172.105zm-3.252 1.989h-.715v1.274l1.087-.665zm0-3.04-.378-.607-.337.21v.397zm3.586-2.23v-.715h-.204l-.173.108zm2.546 0v14.545h1.428V32.863zm.714 13.831h-3.508v1.428h3.508zm-2.794.714V36.144h-1.429v11.264zm-.714-11.978h-.086v1.428h.086zm-.458.105-3.253 1.988.745 1.22 3.253-1.99zm-2.166 2.598v-3.04H25.39v3.04zm-.337-2.434 3.586-2.23-.754-1.213-3.587 2.23zm3.21-2.122h3.26V32.15h-3.26zm7.093 13.831-.638-.322-.523 1.037h1.16zm5.866-11.62.638.323.076-.152v-.17zm0-.091h.714v-.715h-.714zm-6.86 0h-.715v.714h.714zm0-2.834v-.715h-.715v.715zm10.496 0h.715v-.715h-.715zm0 2.855.638.321.077-.151v-.17zM40.4 47.408v.715h.44l.198-.393zm-2.978.322 5.867-11.62-1.276-.643-5.866 11.62zm5.943-11.941v-.092h-1.428v.092zm-.714-.807h-6.86v1.429h6.86zm-6.147.715v-2.834h-1.428v2.834zm-.714-2.12h10.497V32.15H35.79zm9.783-.714v2.855h1.429v-2.855zm.077 2.534-5.888 11.69 1.276.643 5.887-11.69zM40.4 46.694h-3.615v1.428H40.4z" mask="url(#d)"/></g></g><rect width="53.9" height="53.9" x="1.05" y="1.05" stroke="#fff" stroke-opacity=".15" stroke-width="2.1" rx="7.35"/><defs><linearGradient id="b" x1="28" x2="28" y1="0" y2="56" gradientUnits="userSpaceOnUse"><stop stop-color="#2f1a07"/><stop offset="1" stop-color="#111a21"/></linearGradient><clipPath id="a"><rect width="56" height="56" fill="#fff" rx="8.4"/></clipPath><filter id="c" width="51.429" height="55.835" x="2.286" y="-.335" color-interpolation-filters="sRGB" filterUnits="userSpaceOnUse"><feFlood flood-opacity="0" result="BackgroundImageFix"/><feColorMatrix in="SourceAlpha" result="hardAlpha" values="0 0 0 0 0 0 0 0 0 0 0 0 0 0 0 0 0 0 127 0"/><feOffset/><feGaussianBlur stdDeviation="2.857"/><feComposite in2="hardAlpha" operator="out"/><feColorMatrix values="0 0 0 0 0 0 0 0 0 0 0 0 0 0 0 0 0 0 0.25 0"/><feBlend in2="BackgroundImageFix" result="effect1_dropShadow_40_476"/><feBlend in="SourceGraphic" in2="effect1_dropShadow_40_476" result="shape"/></filter></defs></svg>