<svg xmlns="http://www.w3.org/2000/svg" width="56" height="56" fill="none" viewBox="0 0 56 56"><g clip-path="url(#a)"><rect width="56" height="56" fill="url(#b)" rx="8.4"/><g filter="url(#c)"><path fill="#4e7896" stroke="#4e7896" stroke-width=".357" d="M42.835 45.289v-.002zm0 0 .343.08c-.079 1.017-.95 1.79-2.222 2.374-1.284.59-3.038 1.018-5.01 1.314-3.948.593-8.818.665-12.67.414l-.167-.011v-.002c-2.435-.148-3.913-.427-4.79-.676a5.6 5.6 0 0 1-.926-.337 2 2 0 0 1-.2-.111l-.05-.035-.014-.011-.005-.004h-.001l-.001-.002-.483-.415.628.103c4.75.781 12.841.925 19.367-.286l.524-.101c2.54-.51 3.962-1.084 4.749-1.532.419-.24.656-.442.785-.579a1 1 0 0 0 .142-.183Zm-25.379-2.625c.408.012.776.083 1.024.257l.465.325h-.586l-.064.003a5 5 0 0 0-.263.022 9 9 0 0 0-1.04.185l-.012.003v-.001c-.44.069-1.36.332-1.98.653a2.3 2.3 0 0 0-.38.239.54.54 0 0 0-.17.195c-.014.034-.013.06.013.096a.5.5 0 0 0 .181.138l.115.056c1.04.453 2.769.773 4.87.972 2.094.199 4.54.275 7.004.248 4.935-.053 9.912-.519 12.27-1.227.63-.193 1.01-.395 1.231-.578.218-.18.275-.337.28-.45a.53.53 0 0 0-.104-.32 1 1 0 0 0-.11-.128l-.005-.005.047-.057.055-.259h.076l.048.04c.53.25.869.565.876.963.004.203-.081.394-.22.567a2.4 2.4 0 0 1-.588.5c-.991.633-2.891 1.24-5.435 1.692-4.94.879-12.394 1.191-20.604-.062l-.797-.126c-.781-.126-1.339-.294-1.702-.499-.364-.205-.573-.47-.557-.794.015-.301.225-.58.503-.823.284-.248.674-.488 1.117-.706.888-.437 2.02-.804 3.036-.99a7 7 0 0 1 1.406-.13Zm4.91-3.138-.541.331-.002.001-.011.007-.042.028a2 2 0 0 0-.132.106c-.106.094-.186.196-.204.28a.13.13 0 0 0 .013.095.4.4 0 0 0 .162.142c.204.115.592.228 1.28.3h.004c3.322.425 5.084.356 8.768-.356l.068-.013.06.036c.733.452 1.509.83 2.316 1.13l.418.155-.41.176c-4.202 1.807-8.958 1.754-11.848 1.012-.723-.186-1.337-.418-1.799-.678-.454-.256-.793-.558-.914-.901a.8.8 0 0 1 .002-.544 1.2 1.2 0 0 1 .368-.494c.352-.3.933-.57 1.76-.806l.024-.007zm15.692-9.73c2.51-.756 4.768.596 5.072 2.582.157 1.024-.217 2.18-1.299 3.247-1.078 1.064-2.863 2.046-5.55 2.748l-.634.166.462-.465.004-.004.023-.03a1 1 0 0 0 .082-.134l.05-.099h.068c3.942-2.062 4.9-4.036 4.672-5.364-.23-1.345-1.688-2.17-2.884-1.94a6 6 0 0 0-.68.192 3 3 0 0 0-.157.06l-.036.016-.007.004-.002.001-.477.239.237-.478.16.08-.16-.081.001-.001.004-.008a1 1 0 0 1 .047-.078c.032-.05.08-.116.146-.186.129-.14.33-.303.614-.387zm-15.396.31v.003l.14.28-.294-.021-.05.013q-.084.02-.236.06a34 34 0 0 0-.806.218c-.647.184-1.453.434-2.102.703a5 5 0 0 0-.8.403 1 1 0 0 0-.219.178c-.048.054-.058.088-.06.103 0 .006-.002.021.027.053a.7.7 0 0 0 .223.135c.242.103.645.2 1.264.28 2.115.283 6.296.212 10.209-.073a79 79 0 0 0 4.394-.534 89 89 0 0 0 1.855-.296l.106-.018.027-.005.007-.001h.002l.104.339h-.001l-.002.002-.01.003-.037.017-.138.063c-.118.054-.284.132-.474.225-.38.187-.853.434-1.236.679l-.024.015-.028.007c-3.973 1.045-9.759 1.33-14.003 1.088-2.118-.12-3.878-.374-4.84-.742a2.2 2.2 0 0 1-.592-.313c-.146-.118-.259-.267-.27-.452s.081-.352.226-.495q.219-.215.639-.42l.002-.002a16.3 16.3 0 0 1 4.82-1.473 13 13 0 0 1 1.477-.123q.265-.005.407 0l.106.003.123-.029zm-1.818 5.076-.094.032-.038.033a2 2 0 0 0-.15.145c-.118.126-.228.278-.266.421a.3.3 0 0 0 0 .183.4.4 0 0 0 .147.183c.183.137.552.272 1.236.343 3.616.357 6.445.428 11.336-.568l.095-.02.068.07a4.16 4.16 0 0 0 1.637 1.028l.531.18-.537.16c-5.044 1.51-10.392 1.584-13.589.97-.8-.153-1.472-.35-1.974-.584-.492-.23-.863-.512-.989-.858-.137-.378.038-.745.425-1.068.382-.319 1.006-.633 1.894-.936l.268-.204z"/><path fill="#f58219" stroke="#f58219" stroke-width=".357" d="M36.994 15.528c-2.31 1.34-3.927 2.437-5.021 3.38-1.096.943-1.651 1.717-1.864 2.404-.209.677-.093 1.296.221 1.955.318.667.825 1.35 1.382 2.163.633.88.77 1.732.606 2.512-.162.771-.617 1.455-1.135 2.017a9 9 0 0 1-1.578 1.33 10 10 0 0 1-.74.454l-.046.025-.015.008h-.001l-.196-.296.001-.001.005-.004.02-.017.075-.068c.065-.06.156-.15.259-.264.207-.23.46-.558.651-.954.19-.396.316-.854.276-1.348-.04-.49-.245-1.033-.739-1.597v-.001c-1.77-2.05-2.197-3.853-1.79-5.406.402-1.54 1.614-2.786 3.015-3.757 1.405-.974 3.025-1.69 4.29-2.16a26 26 0 0 1 2.025-.659l.122-.033.033-.008.007-.002h.004zm-5.312-9.081v.001l.005.003.01.012a3 3 0 0 1 .172.207c.11.143.253.355.398.63.29.548.581 1.351.595 2.373.028 2.052-1.065 4.925-5.396 8.344-1.713 1.367-2.647 2.574-3.077 3.66-.428 1.08-.362 2.057-.04 2.985.324.936.908 1.819 1.522 2.704.608.878 1.248 1.763 1.648 2.677l-.283.205c-2.027-1.823-3.79-3.558-4.793-5.22-.502-.834-.821-1.66-.88-2.478a3.7 3.7 0 0 1 .482-2.114l.18-.294c.744-1.133 1.812-2.113 2.95-3.05 1.148-.944 2.357-1.836 3.43-2.82 1.068-.98 1.976-2.032 2.511-3.266.533-1.23.7-2.654.265-4.392l-.161-.638z"/><mask id="d" fill="#fff"><path d="M22.319 47.408V44.88l5.305-4.645q.597-.54 1.016-.987a3.8 3.8 0 0 0 .64-.91q.22-.46.22-1 0-.604-.263-1.03a1.76 1.76 0 0 0-.725-.668 2.3 2.3 0 0 0-1.058-.235q-.603 0-1.058.249-.455.241-.71.703-.25.462-.25 1.122h-3.33q0-1.485.668-2.564.668-1.08 1.875-1.662 1.215-.59 2.82-.589 1.653 0 2.876.554 1.221.554 1.889 1.548.674.987.674 2.294 0 .83-.333 1.648-.334.816-1.2 1.804-.86.987-2.444 2.365l-1.74 1.605v.093h5.895v2.833zm18.322.2q-1.59 0-2.827-.576-1.235-.576-1.953-1.584-.71-1.008-.738-2.315h3.409a1.7 1.7 0 0 0 .653 1.292q.611.483 1.456.483.66 0 1.172-.29a2.1 2.1 0 0 0 .802-.818 2.45 2.45 0 0 0 .285-1.221q.006-.704-.292-1.229a2.07 2.07 0 0 0-.81-.817 2.3 2.3 0 0 0-1.178-.298 2.6 2.6 0 0 0-1.2.277q-.562.284-.853.774l-3.103-.582.632-7.841h9.332v2.834h-6.442l-.333 3.43h.085q.362-.604 1.165-.994.81-.399 1.839-.398 1.307 0 2.33.61a4.3 4.3 0 0 1 1.619 1.677q.597 1.072.596 2.457 0 1.5-.71 2.657-.704 1.157-1.974 1.818-1.264.653-2.962.653"/></mask><path fill="#f58219" d="M22.319 47.408V44.88l5.305-4.645q.597-.54 1.016-.987a3.8 3.8 0 0 0 .64-.91q.22-.46.22-1 0-.604-.263-1.03a1.76 1.76 0 0 0-.725-.668 2.3 2.3 0 0 0-1.058-.235q-.603 0-1.058.249-.455.241-.71.703-.25.462-.25 1.122h-3.33q0-1.485.668-2.564.668-1.08 1.875-1.662 1.215-.59 2.82-.589 1.653 0 2.876.554 1.221.554 1.889 1.548.674.987.674 2.294 0 .83-.333 1.648-.334.816-1.2 1.804-.86.987-2.444 2.365l-1.74 1.605v.093h5.895v2.833zm18.322.2q-1.59 0-2.827-.576-1.235-.576-1.953-1.584-.71-1.008-.738-2.315h3.409a1.7 1.7 0 0 0 .653 1.292q.611.483 1.456.483.66 0 1.172-.29a2.1 2.1 0 0 0 .802-.818 2.45 2.45 0 0 0 .285-1.221q.006-.704-.292-1.229a2.07 2.07 0 0 0-.81-.817 2.3 2.3 0 0 0-1.178-.298 2.6 2.6 0 0 0-1.2.277q-.562.284-.853.774l-3.103-.582.632-7.841h9.332v2.834h-6.442l-.333 3.43h.085q.362-.604 1.165-.994.81-.399 1.839-.398 1.307 0 2.33.61a4.3 4.3 0 0 1 1.619 1.677q.597 1.072.596 2.457 0 1.5-.71 2.657-.704 1.157-1.974 1.818-1.264.653-2.962.653"/><path fill="#fff" fill-opacity=".25" d="M22.319 47.408h-.714v.715h.714zm0-2.528-.47-.538-.244.214v.324zm5.305-4.645.471.538.009-.008zm1.016-.987.521.488.004-.004zm.64-.91.642.312.002-.004zm-.043-2.03-.611.37.003.004zm-.725-.668-.323.637zm-2.116.014.335.63.007-.003zm-.71.703-.625-.346-.004.008zm-.25 1.122v.715h.715v-.715zm-3.33 0h-.714v.715h.714zm.668-2.564.607.376zm1.875-1.662.31.644.002-.001zm5.696-.035.295-.65zm1.889 1.548-.593.398.003.005zm.34 3.942-.66-.27zm-1.2 1.804-.536-.471-.002.002zm-2.443 2.365-.469-.539-.007.007-.008.007zm-1.74 1.605-.484-.525-.23.212v.313zm0 .093h-.714v.714h.714zm5.895 0h.714v-.715h-.714zm0 2.833v.715h.714v-.715zm-10.767 0h.714V44.88h-1.428v2.528zm0-2.528.47.537 5.306-4.645-.47-.537-.471-.537-5.305 4.644zm5.305-4.645.48.53q.613-.555 1.057-1.029l-.52-.488-.522-.488q-.394.42-.974.945zm1.016-.987.525.484c.317-.344.574-.704.757-1.082l-.643-.311-.643-.312c-.11.228-.279.474-.521.737zm.64-.91.644.308a3 3 0 0 0 .29-1.309h-1.429c0 .26-.052.488-.15.694zm.22-1h.714c0-.508-.112-.988-.37-1.406l-.607.375-.608.375c.092.15.156.358.156.655zm-.263-1.03.61-.371a2.5 2.5 0 0 0-1.011-.934l-.324.637-.323.637c.192.097.332.228.437.4zm-.725-.668.324-.637a3 3 0 0 0-1.382-.312v1.429c.302 0 .542.059.735.157zm-1.058-.235v-.714c-.502 0-.977.104-1.401.336l.343.627.342.627c.182-.1.413-.161.716-.161zm-1.058.249-.335-.63a2.44 2.44 0 0 0-1 .987l.625.346.624.346c.106-.19.243-.324.42-.418zm-.71.703-.63-.338c-.234.435-.333.932-.333 1.46h1.428c0-.352.067-.603.163-.783zm-.25 1.122v-.714h-3.33v1.429h3.33zm-3.33 0h.714c0-.88.197-1.6.561-2.188l-.607-.376-.608-.375c-.526.85-.774 1.84-.774 2.94zm.668-2.564.607.376c.37-.597.888-1.062 1.578-1.394l-.31-.644-.31-.643c-.921.444-1.652 1.088-2.173 1.93zm1.875-1.662.311.643c.696-.338 1.526-.518 2.508-.518V31.95c-1.158 0-2.208.213-3.131.66zm2.82-.589v.714c1.024 0 1.878.172 2.58.49l.296-.65.295-.65c-.927-.42-1.99-.618-3.172-.618zm2.876.554-.295.65c.708.322 1.228.756 1.59 1.296l.594-.398.593-.398c-.528-.786-1.267-1.383-2.187-1.8zm1.889 1.548-.59.403c.361.529.55 1.15.55 1.891h1.429c0-1-.261-1.909-.8-2.697zm.674 2.294h-.714c0 .456-.09.914-.28 1.378l.66.27.662.27a5 5 0 0 0 .387-1.918zm-.333 1.648-.662-.27c-.181.444-.527.978-1.075 1.603l.536.471.537.471c.607-.691 1.061-1.36 1.325-2.005zm-1.2 1.804-.54-.469c-.542.623-1.329 1.387-2.373 2.295l.47.539.468.539c1.068-.93 1.91-1.742 2.513-2.435zm-2.444 2.365-.484-.525-1.74 1.605.484.525.485.525 1.74-1.605zm-1.74 1.605h-.714v.093h1.429v-.093zm0 .093v.714h5.895V43.86h-5.895zm5.895 0h-.714v2.833H33.8v-2.834zm0 2.833v-.714H22.32v1.429h10.767zm4.728-.376-.301.647zm-1.953-1.584-.584.411.002.003zm-.738-2.315v-.715h-.73l.015.73zm3.409 0 .713-.038-.036-.677h-.677zm.653 1.292-.447.558.004.003zm2.628.192-.354-.62zm.802-.817.625.347.002-.004zm.285-1.221-.715-.008v.015zm-.292-1.229-.624.346.003.007zm-.81-.817-.36.617.011.006zm-1.178-.298-.008.714h.008zm-1.2.277-.32-.639-.003.002zm-.853.774-.132.702.491.092.255-.429zm-3.103-.582-.712-.058-.052.641.632.119zm.632-7.841v-.715h-.66l-.052.657zm9.332 0h.714v-.715h-.714zm0 2.834v.714h.714v-.714zm-6.442 0v-.715h-.648l-.063.645zm-.333 3.43-.711-.07-.077.784h.788zm.085 0v.714h.404l.208-.346zm1.165-.994.312.642.002-.001zm4.169.213-.367.613.005.003zm1.619 1.676-.626.344.002.003zm-.114 5.114-.609-.374-.001.003zm-1.974 1.818.328.634h.001zm-2.962.653v-.714c-.974 0-1.81-.176-2.525-.509l-.302.648-.301.647c.933.435 1.98.642 3.128.642zm-2.827-.575.302-.648c-.724-.336-1.273-.788-1.673-1.35l-.582.414-.582.414c.557.783 1.31 1.387 2.234 1.817zm-1.953-1.584.584-.411c-.386-.55-.592-1.182-.608-1.92l-.714.016-.715.015c.022 1.004.31 1.916.87 2.711zm-.738-2.315v.714h3.409v-1.429h-3.41zm3.409 0-.713.038c.038.732.349 1.354.92 1.811l.446-.557.447-.557a.99.99 0 0 1-.387-.773zm.653 1.292-.443.56c.544.431 1.19.638 1.9.638v-1.429c-.418 0-.744-.116-1.014-.329zm1.456.483v.715c.549 0 1.064-.122 1.525-.385l-.353-.62-.354-.622c-.22.126-.486.198-.818.198zm1.172-.29.353.62c.458-.26.818-.629 1.074-1.091l-.625-.347-.624-.346a1.37 1.37 0 0 1-.532.542zm.802-.818.627.343c.26-.476.378-1.007.372-1.572l-.714.008-.715.007a1.74 1.74 0 0 1-.196.872zm.285-1.221.714.007c.006-.574-.114-1.112-.384-1.588l-.622.352-.62.353c.126.224.201.505.197.868zm-.292-1.229.625-.346a2.8 2.8 0 0 0-1.084-1.093l-.35.622-.35.623c.229.129.404.305.535.54zm-.81-.817.36-.617a3 3 0 0 0-1.538-.395v1.428c.335 0 .6.074.819.201zm-1.178-.298.008-.714a3.3 3.3 0 0 0-1.528.352l.32.639.319.639a1.9 1.9 0 0 1 .873-.202zm-1.2.277-.323-.637a2.74 2.74 0 0 0-1.144 1.046l.614.365.614.365c.118-.198.295-.367.561-.502zm-.853.774.132-.702-3.104-.582-.131.702-.132.702 3.103.582zm-3.103-.582.712.057.632-7.84-.712-.058-.712-.058-.632 7.841zm.632-7.841v.714h9.332v-1.429h-9.332zm9.332 0h-.714v2.834h1.428v-2.834zm0 2.834v-.715h-6.442v1.429h6.442zm-6.442 0-.71-.07-.334 3.43.71.07.711.07.334-3.431zm-.333 3.43v.714h.085v-1.428h-.085zm.085 0 .612.367c.154-.255.421-.503.865-.72l-.312-.641-.313-.643c-.626.305-1.135.72-1.465 1.27zm1.165-.994.314.64c.43-.21.932-.324 1.525-.324v-1.428c-.78 0-1.504.15-2.154.47zm1.839-.398v.714c.755 0 1.403.175 1.963.51l.367-.613.366-.613c-.803-.48-1.709-.712-2.696-.712zm2.33.61-.362.617a3.6 3.6 0 0 1 1.355 1.404l.626-.344.626-.344a5 5 0 0 0-1.884-1.948zm1.619 1.677-.624.347c.331.596.506 1.293.506 2.11h1.429c0-1.029-.223-1.97-.687-2.804zm.596 2.457h-.714c0 .882-.207 1.635-.605 2.283l.61.373.608.374c.55-.895.816-1.913.816-3.03zm-.71 2.657-.61-.371c-.397.653-.955 1.171-1.694 1.555l.33.634.33.634c.956-.497 1.714-1.192 2.255-2.082zm-1.974 1.818-.328-.635c-.724.374-1.594.574-2.634.574v1.428c1.224 0 2.328-.235 3.29-.733z" mask="url(#d)"/></g></g><rect width="53.9" height="53.9" x="1.05" y="1.05" stroke="#fff" stroke-opacity=".15" stroke-width="2.1" rx="7.35"/><defs><linearGradient id="b" x1="28" x2="28" y1="0" y2="56" gradientUnits="userSpaceOnUse"><stop stop-color="#2f1a07"/><stop offset="1" stop-color="#111a21"/></linearGradient><clipPath id="a"><rect width="56" height="56" fill="#fff" rx="8.4"/></clipPath><filter id="c" width="51.429" height="55.835" x="2.286" y="-.335" color-interpolation-filters="sRGB" filterUnits="userSpaceOnUse"><feFlood flood-opacity="0" result="BackgroundImageFix"/><feColorMatrix in="SourceAlpha" result="hardAlpha" values="0 0 0 0 0 0 0 0 0 0 0 0 0 0 0 0 0 0 127 0"/><feOffset/><feGaussianBlur stdDeviation="2.857"/><feComposite in2="hardAlpha" operator="out"/><feColorMatrix values="0 0 0 0 0 0 0 0 0 0 0 0 0 0 0 0 0 0 0.25 0"/><feBlend in2="BackgroundImageFix" result="effect1_dropShadow_56_95"/><feBlend in="SourceGraphic" in2="effect1_dropShadow_56_95" result="shape"/></filter></defs></svg>