<svg xmlns="http://www.w3.org/2000/svg" width="56" height="56" fill="none" viewBox="0 0 56 56"><rect width="56" height="56" fill="url(#a)" rx="8.4"/><rect width="53.9" height="53.9" x="1.05" y="1.05" stroke="#fff" stroke-opacity=".15" stroke-width="2.1" rx="7.35"/><g filter="url(#b)"><path fill="#f7df1e" d="M8 8h40v40H8zm36.723 30.46c-.291-1.825-1.48-3.358-5.005-4.788-1.226-.575-2.59-.975-2.995-1.9-.151-.55-.175-.85-.076-1.175.25-1.077 1.525-1.4 2.525-1.1.65.2 1.25.7 1.626 1.5 1.724-1.127 1.724-1.127 2.925-1.875-.45-.7-.673-1.002-.976-1.3-1.05-1.175-2.449-1.775-4.724-1.723l-1.175.148c-1.126.275-2.2.875-2.85 1.675-1.9 2.151-1.351 5.902.949 7.451 2.275 1.7 5.601 2.074 6.026 3.675.4 1.95-1.45 2.575-3.276 2.35-1.352-.3-2.1-.976-2.925-2.226l-3.05 1.752c.35.8.75 1.148 1.35 1.848 2.9 2.927 10.15 2.776 11.451-1.674.049-.15.4-1.175.124-2.75zM29.752 26.385h-3.747c0 3.23-.015 6.44-.015 9.675 0 2.053.105 3.938-.23 4.518-.55 1.149-1.967 1.002-2.61.8-.66-.326-.995-.776-1.383-1.425-.105-.175-.184-.326-.212-.326l-3.042 1.875c.509 1.05 1.25 1.953 2.207 2.528 1.425.85 3.34 1.125 5.345.675 1.305-.377 2.43-1.151 3.018-2.352.85-1.55.67-3.45.662-5.576.02-3.424 0-6.849 0-10.298z"/></g><defs><linearGradient id="a" x1="28" x2="28" y1="0" y2="56" gradientUnits="userSpaceOnUse"><stop stop-color="#35300a"/><stop offset="1" stop-color="#232004"/></linearGradient><filter id="b" width="51.429" height="51.429" x="2.286" y="2.286" color-interpolation-filters="sRGB" filterUnits="userSpaceOnUse"><feFlood flood-opacity="0" result="BackgroundImageFix"/><feColorMatrix in="SourceAlpha" result="hardAlpha" values="0 0 0 0 0 0 0 0 0 0 0 0 0 0 0 0 0 0 127 0"/><feOffset/><feGaussianBlur stdDeviation="2.857"/><feComposite in2="hardAlpha" operator="out"/><feColorMatrix values="0 0 0 0 0 0 0 0 0 0 0 0 0 0 0 0 0 0 0.25 0"/><feBlend in2="BackgroundImageFix" result="effect1_dropShadow_2_1178"/><feBlend in="SourceGraphic" in2="effect1_dropShadow_2_1178" result="shape"/></filter></defs></svg>