<svg xmlns="http://www.w3.org/2000/svg" width="56" height="56" fill="none" viewBox="0 0 56 56"><g clip-path="url(#a)"><rect width="56" height="56" fill="url(#b)" rx="8.4"/><g filter="url(#c)"><path fill="#4e7896" stroke="#4e7896" stroke-width=".357" d="M42.835 45.289v-.002zm0 0 .343.08c-.079 1.017-.95 1.79-2.222 2.374-1.284.59-3.038 1.018-5.01 1.314-3.948.593-8.818.665-12.67.414l-.167-.011v-.002c-2.435-.148-3.913-.427-4.79-.676a5.6 5.6 0 0 1-.926-.337 2 2 0 0 1-.2-.111l-.05-.035-.014-.011-.005-.004h-.001l-.001-.002-.483-.415.628.103c4.75.781 12.841.925 19.367-.286l.524-.101c2.54-.51 3.962-1.084 4.749-1.532.419-.24.656-.442.785-.579a1 1 0 0 0 .142-.183Zm-25.379-2.625c.408.012.776.083 1.024.257l.465.325h-.586l-.064.003a5 5 0 0 0-.263.022 9 9 0 0 0-1.04.185l-.012.003v-.001c-.44.069-1.36.332-1.98.653a2.3 2.3 0 0 0-.38.239.54.54 0 0 0-.17.195c-.014.034-.013.06.013.096a.5.5 0 0 0 .181.138l.115.056c1.04.453 2.769.773 4.87.972 2.094.199 4.54.275 7.004.248 4.935-.053 9.912-.519 12.27-1.227.63-.193 1.01-.395 1.231-.578.218-.18.275-.337.28-.45a.53.53 0 0 0-.104-.32 1 1 0 0 0-.11-.128l-.005-.005.047-.057.055-.259h.076l.048.04c.53.25.869.565.876.963.004.203-.081.394-.22.567a2.4 2.4 0 0 1-.588.5c-.991.633-2.891 1.24-5.435 1.692-4.94.879-12.394 1.191-20.604-.062l-.797-.126c-.781-.126-1.339-.294-1.702-.499-.364-.205-.573-.47-.557-.794.015-.301.225-.58.503-.823.284-.248.674-.488 1.117-.706.888-.437 2.02-.804 3.036-.99a7 7 0 0 1 1.406-.13Zm4.91-3.138-.541.331-.002.001-.011.007-.042.028a2 2 0 0 0-.132.106c-.106.094-.186.196-.204.28a.13.13 0 0 0 .013.095.4.4 0 0 0 .162.142c.204.115.592.228 1.28.3h.004c3.322.425 5.084.356 8.768-.356l.068-.013.06.036c.733.452 1.509.83 2.316 1.13l.418.155-.41.176c-4.202 1.807-8.958 1.754-11.848 1.012-.723-.186-1.337-.418-1.799-.678-.454-.256-.793-.558-.914-.901a.8.8 0 0 1 .002-.544 1.2 1.2 0 0 1 .368-.494c.352-.3.933-.57 1.76-.806l.024-.007zm15.692-9.73c2.51-.756 4.768.596 5.072 2.582.157 1.024-.217 2.18-1.299 3.247-1.078 1.064-2.863 2.046-5.55 2.748l-.634.166.462-.465.004-.004.023-.03a1 1 0 0 0 .082-.134l.05-.099h.068c3.942-2.062 4.9-4.036 4.672-5.364-.23-1.345-1.688-2.17-2.884-1.94a6 6 0 0 0-.68.192 3 3 0 0 0-.157.06l-.036.016-.007.004-.002.001-.477.239.237-.478.16.08-.16-.081.001-.001.004-.008a1 1 0 0 1 .047-.078c.032-.05.08-.116.146-.186.129-.14.33-.303.614-.387zm-15.396.31v.003l.14.28-.294-.021-.05.013q-.084.02-.236.06a34 34 0 0 0-.806.218c-.647.184-1.453.434-2.102.703a5 5 0 0 0-.8.403 1 1 0 0 0-.219.178c-.048.054-.058.088-.06.103 0 .006-.002.021.027.053a.7.7 0 0 0 .223.135c.242.103.645.2 1.264.28 2.115.283 6.296.212 10.209-.073a79 79 0 0 0 4.394-.534 89 89 0 0 0 1.855-.296l.106-.018.027-.005.007-.001h.002l.104.339h-.001l-.002.002-.01.003-.037.017-.138.063c-.118.054-.284.132-.474.225-.38.187-.853.434-1.236.679l-.024.015-.028.007c-3.973 1.045-9.759 1.33-14.003 1.088-2.118-.12-3.878-.374-4.84-.742a2.2 2.2 0 0 1-.592-.313c-.146-.118-.259-.267-.27-.452s.081-.352.226-.495q.219-.215.639-.42l.002-.002a16.3 16.3 0 0 1 4.82-1.473 13 13 0 0 1 1.477-.123q.265-.005.407 0l.106.003.123-.029zm-1.818 5.076-.094.032-.038.033a2 2 0 0 0-.15.145c-.118.126-.228.278-.266.421a.3.3 0 0 0 0 .183.4.4 0 0 0 .147.183c.183.137.552.272 1.236.343 3.616.357 6.445.428 11.336-.568l.095-.02.068.07a4.16 4.16 0 0 0 1.637 1.028l.531.18-.537.16c-5.044 1.51-10.392 1.584-13.589.97-.8-.153-1.472-.35-1.974-.584-.492-.23-.863-.512-.989-.858-.137-.378.038-.745.425-1.068.382-.319 1.006-.633 1.894-.936l.268-.204z"/><path fill="#f58219" stroke="#f58219" stroke-width=".357" d="M36.994 15.528c-2.31 1.34-3.927 2.437-5.021 3.38-1.096.943-1.651 1.717-1.864 2.404-.209.677-.093 1.296.221 1.955.318.667.825 1.35 1.382 2.163.633.88.77 1.732.606 2.512-.162.771-.617 1.455-1.135 2.017a9 9 0 0 1-1.578 1.33 10 10 0 0 1-.74.454l-.046.025-.015.008h-.001l-.196-.296.001-.001.005-.004.02-.017.075-.068c.065-.06.156-.15.259-.264.207-.23.46-.558.651-.954.19-.396.316-.854.276-1.348-.04-.49-.245-1.033-.739-1.597v-.001c-1.77-2.05-2.197-3.853-1.79-5.406.402-1.54 1.614-2.786 3.015-3.757 1.405-.974 3.025-1.69 4.29-2.16a26 26 0 0 1 2.025-.659l.122-.033.033-.008.007-.002h.004zm-5.312-9.081v.001l.005.003.01.012a3 3 0 0 1 .172.207c.11.143.253.355.398.63.29.548.581 1.351.595 2.373.028 2.052-1.065 4.925-5.396 8.344-1.713 1.367-2.647 2.574-3.077 3.66-.428 1.08-.362 2.057-.04 2.985.324.936.908 1.819 1.522 2.704.608.878 1.248 1.763 1.648 2.677l-.283.205c-2.027-1.823-3.79-3.558-4.793-5.22-.502-.834-.821-1.66-.88-2.478a3.7 3.7 0 0 1 .482-2.114l.18-.294c.744-1.133 1.812-2.113 2.95-3.05 1.148-.944 2.357-1.836 3.43-2.82 1.068-.98 1.976-2.032 2.511-3.266.533-1.23.7-2.654.265-4.392l-.161-.638z"/><mask id="d" fill="#fff"><path d="M39.934 47.607q-1.697 0-3.032-.54-1.329-.546-2.088-1.477a3.3 3.3 0 0 1-.753-2.116q0-.902.433-1.655.434-.753 1.172-1.25a4 4 0 0 1 1.662-.647v-.113q-1.2-.22-1.967-1.115a3.14 3.14 0 0 1-.76-2.095q0-1.137.689-2.024.696-.888 1.896-1.4 1.208-.51 2.748-.511 1.542 0 2.742.511 1.207.512 1.896 1.4.696.887.696 2.024 0 1.207-.774 2.102a3.3 3.3 0 0 1-1.953 1.108v.114q.909.142 1.648.646.745.497 1.179 1.25.44.752.44 1.655 0 1.179-.76 2.116-.76.93-2.088 1.477-1.321.54-3.026.54m0-2.493q.647 0 1.137-.241.49-.248.767-.69.284-.44.284-.993 0-.569-.284-1.009a1.94 1.94 0 0 0-.781-.689q-.49-.255-1.123-.255-.624 0-1.122.255a1.94 1.94 0 0 0-.781.69q-.285.44-.284 1.008 0 .553.277.994.284.433.774.682.497.248 1.136.248m0-6.356q.555 0 .98-.227.434-.228.675-.633.249-.405.249-.916 0-.51-.249-.902a1.67 1.67 0 0 0-.667-.61 2.1 2.1 0 0 0-.988-.228q-.553 0-.987.227-.434.22-.675.611a1.7 1.7 0 0 0-.241.902q0 .512.242.916.248.398.681.633.434.227.98.227"/></mask><path fill="#f58219" d="M39.934 47.607q-1.697 0-3.032-.54-1.329-.546-2.088-1.477a3.3 3.3 0 0 1-.753-2.116q0-.902.433-1.655.434-.753 1.172-1.25a4 4 0 0 1 1.662-.647v-.113q-1.2-.22-1.967-1.115a3.14 3.14 0 0 1-.76-2.095q0-1.137.689-2.024.696-.888 1.896-1.4 1.208-.51 2.748-.511 1.542 0 2.742.511 1.207.512 1.896 1.4.696.887.696 2.024 0 1.207-.774 2.102a3.3 3.3 0 0 1-1.953 1.108v.114q.909.142 1.648.646.745.497 1.179 1.25.44.752.44 1.655 0 1.179-.76 2.116-.76.93-2.088 1.477-1.321.54-3.026.54m0-2.493q.647 0 1.137-.241.49-.248.767-.69.284-.44.284-.993 0-.569-.284-1.009a1.94 1.94 0 0 0-.781-.689q-.49-.255-1.123-.255-.624 0-1.122.255a1.94 1.94 0 0 0-.781.69q-.285.44-.284 1.008 0 .553.277.994.284.433.774.682.497.248 1.136.248m0-6.356q.555 0 .98-.227.434-.228.675-.633.249-.405.249-.916 0-.51-.249-.902a1.67 1.67 0 0 0-.667-.61 2.1 2.1 0 0 0-.988-.228q-.553 0-.987.227-.434.22-.675.611a1.7 1.7 0 0 0-.241.902q0 .512.242.916.248.398.681.633.434.227.98.227"/><path fill="#fff" fill-opacity=".25" d="m36.902 47.067-.272.66.004.003zm-2.088-1.477-.557.447.004.005zm-.32-3.771.62.356zm1.172-1.25.399.592h.001zm1.662-.647.11.706.604-.093v-.612zm0-.113h.714v-.595l-.585-.108zm-1.967-1.115-.545.462.002.003zm-.071-4.12-.563-.44-.002.003zm1.896-1.399-.279-.657h-.001zm5.49 0-.28.658h.001zm1.896 1.4-.564.437.002.003zm-.078 4.126-.54-.467zm-1.953 1.108-.13-.702-.584.108v.594zm0 .114h-.714v.61l.604.095zm1.648.646-.403.59.006.004zm1.179 1.25-.62.356.003.005zm-.32 3.771.553.452.002-.002zm-2.088 1.477.27.662.002-.001zm-1.89-2.194.316.64.008-.003zm.768-.69-.6-.386-.005.007zm0-2.002-.6.387zm-.781-.689-.33.634.01.005zm-2.245 0 .32.64.007-.005zm-.781.69-.6-.388zm-.007 2.002-.605.38.008.012zm.774.682-.323.637.004.002zm2.117-6.335-.332-.633-.005.002zm.674-.633-.608-.373-.005.008zm0-1.818-.607.376.005.008zm-.667-.61-.336.63.008.004zm-1.975 0 .324.636.008-.004zm-.675.61.608.376zm0 1.818-.613.366.004.007.004.006zm.682.633-.34.628.009.004zm.98 8.362c-1.055 0-1.973-.168-2.764-.488l-.536 1.325c.989.4 2.093.592 3.3.592zm-2.76-.486c-.797-.328-1.389-.757-1.807-1.269l-1.106.904c.594.728 1.395 1.285 2.369 1.686zm-1.803-1.264a2.58 2.58 0 0 1-.596-1.67h-1.428c0 .953.308 1.815.91 2.564zm-.596-1.67c0-.48.114-.909.338-1.298l-1.238-.712a4 4 0 0 0-.528 2.01zm.338-1.298c.233-.405.547-.741.952-1.014l-.798-1.185a4.5 4.5 0 0 0-1.392 1.487zm.953-1.014a3.3 3.3 0 0 1 1.371-.533l-.218-1.411a4.74 4.74 0 0 0-1.953.76zm1.976-1.239v-.113h-1.428v.114zm-.585-.816a2.58 2.58 0 0 1-1.554-.877l-1.085.93c.622.725 1.426 1.177 2.381 1.352zm-1.552-.875a2.42 2.42 0 0 1-.59-1.632h-1.429c0 .965.311 1.828.93 2.557zm-.59-1.632a2.5 2.5 0 0 1 .539-1.587l-1.129-.875a3.93 3.93 0 0 0-.839 2.462zm.537-1.584c.379-.483.907-.881 1.614-1.182l-.56-1.315c-.894.38-1.63.915-2.179 1.616zm1.612-1.182c.703-.297 1.522-.455 2.47-.455V31.95c-1.106 0-2.12.183-3.027.568zm2.47-.455c.949 0 1.765.157 2.462.455l.56-1.315c-.903-.385-1.915-.568-3.022-.568zm2.463.455c.712.301 1.238.7 1.61 1.18l1.13-.876c-.546-.704-1.284-1.239-2.182-1.62zm1.613 1.182c.365.465.544.985.544 1.584h1.428c0-.916-.284-1.747-.848-2.465zm.544 1.584c0 .637-.199 1.17-.6 1.635l1.08.934a3.83 3.83 0 0 0 .949-2.57zm-.6 1.635a2.6 2.6 0 0 1-1.543.873l.26 1.404a4 4 0 0 0 2.364-1.343zm-2.127 1.575v.114h1.428v-.114zm.604.82q.754.117 1.355.53l.805-1.18a4.7 4.7 0 0 0-1.94-.762zm1.361.534c.409.273.724.609.957 1.012l1.238-.712a4.4 4.4 0 0 0-1.402-1.489zm.96 1.017c.226.388.342.815.342 1.294h1.428c0-.724-.178-1.4-.538-2.016zm.342 1.294a2.56 2.56 0 0 1-.6 1.666l1.109.9c.607-.749.92-1.612.92-2.566zm-.6 1.664c-.417.512-1.009.94-1.806 1.269l.544 1.32c.974-.4 1.774-.957 2.37-1.685zm-1.804 1.268c-.78.319-1.694.487-2.756.487v1.428c1.212 0 2.315-.191 3.296-.592zm-2.756-.577c.52 0 1.011-.098 1.453-.316l-.632-1.28a1.84 1.84 0 0 1-.82.167zm1.46-.32c.435-.22.791-.535 1.049-.945l-1.21-.76a1.2 1.2 0 0 1-.485.432zm1.044-.938a2.5 2.5 0 0 0 .398-1.381h-1.428c0 .24-.06.435-.17.607zm.398-1.381c0-.505-.128-.977-.398-1.396l-1.2.774c.108.169.17.368.17.622zm-.398-1.396a2.65 2.65 0 0 0-1.062-.94l-.639 1.277c.224.112.385.258.5.437zm-1.051-.935a3.1 3.1 0 0 0-1.453-.337v1.429c.323 0 .581.064.792.174zm-1.453-.337a3.1 3.1 0 0 0-1.448.335l.653 1.27c.219-.112.479-.176.795-.176zm-1.441.331c-.439.22-.8.533-1.062.94l1.2.775c.116-.18.276-.325.5-.437zm-1.062.94c-.27.42-.398.892-.398 1.397h1.428c0-.254.062-.453.17-.622zm-.398 1.397c0 .494.125.96.386 1.374l1.21-.76a1.1 1.1 0 0 1-.168-.614zm.394 1.386c.262.4.617.708 1.048.927l.646-1.274a1.26 1.26 0 0 1-.5-.437zm1.052.929a3.2 3.2 0 0 0 1.455.324V44.4c-.331 0-.598-.064-.816-.173zm1.455-6.033c.47 0 .915-.097 1.317-.311l-.673-1.26a1.34 1.34 0 0 1-.644.142zm1.312-.309c.401-.21.726-.511.957-.899l-1.227-.732a.96.96 0 0 1-.393.366zm.952-.89c.24-.392.354-.828.354-1.29h-1.428c0 .219-.052.393-.143.542zm.354-1.29c0-.463-.114-.9-.36-1.286l-1.205.767a.93.93 0 0 1 .137.518zm-.355-1.278a2.4 2.4 0 0 0-.948-.87l-.655 1.269c.174.09.298.206.388.352zm-.94-.866a2.8 2.8 0 0 0-1.323-.311v1.428c.276 0 .486.056.652.144zm-1.323-.311a2.8 2.8 0 0 0-1.319.309l.664 1.265c.174-.091.386-.146.655-.146zm-1.31.305a2.37 2.37 0 0 0-.96.872l1.216.75a.94.94 0 0 1 .39-.349zm-.96.872c-.238.385-.347.82-.347 1.277h1.428a.97.97 0 0 1 .135-.526zm-.347 1.277c0 .459.11.892.342 1.282l1.227-.732a1.04 1.04 0 0 1-.14-.55zm.35 1.295c.234.375.556.67.947.882l.68-1.257a1.1 1.1 0 0 1-.416-.382zm.956.886a2.8 2.8 0 0 0 1.311.309v-1.428c-.262 0-.473-.054-.648-.146z" mask="url(#d)"/></g></g><rect width="53.9" height="53.9" x="1.05" y="1.05" stroke="#fff" stroke-opacity=".15" stroke-width="2.1" rx="7.35"/><defs><linearGradient id="b" x1="28" x2="28" y1="0" y2="56" gradientUnits="userSpaceOnUse"><stop stop-color="#2f1a07"/><stop offset="1" stop-color="#111a21"/></linearGradient><clipPath id="a"><rect width="56" height="56" fill="#fff" rx="8.4"/></clipPath><filter id="c" width="51.429" height="55.835" x="2.286" y="-.335" color-interpolation-filters="sRGB" filterUnits="userSpaceOnUse"><feFlood flood-opacity="0" result="BackgroundImageFix"/><feColorMatrix in="SourceAlpha" result="hardAlpha" values="0 0 0 0 0 0 0 0 0 0 0 0 0 0 0 0 0 0 127 0"/><feOffset/><feGaussianBlur stdDeviation="2.857"/><feComposite in2="hardAlpha" operator="out"/><feColorMatrix values="0 0 0 0 0 0 0 0 0 0 0 0 0 0 0 0 0 0 0.25 0"/><feBlend in2="BackgroundImageFix" result="effect1_dropShadow_40_460"/><feBlend in="SourceGraphic" in2="effect1_dropShadow_40_460" result="shape"/></filter></defs></svg>