<svg xmlns="http://www.w3.org/2000/svg" width="56" height="56" fill="none" viewBox="0 0 56 56"><rect width="56" height="56" fill="url(#a)" rx="8.4"/><rect width="53.9" height="53.9" x="1.05" y="1.05" stroke="#fff" stroke-opacity=".15" stroke-width="2.1" rx="7.35"/><g filter="url(#b)"><path fill="red" d="M12.703 44.756a5.7 5.7 0 0 1-1.647-1.073c-2.03-1.89-2.25-4.89-.618-6.875l-.022-.021.316-.304 24.995-24.58c.373-.364.74-1.45.902-2.075a.8.8 0 0 1 .183-.388l.03-.031.021-.02.005-.012.029-.024c.394-.399 1.094-.384 2.068.033 1.174.504 2.647 1.544 4.048 2.85 1.175 1.1 2.173 2.27 2.79 3.285.735 1.189.87 2.032.39 2.498l-.086.051-.038.013a1.4 1.4 0 0 1-.378.158c-.739.21-1.85.635-2.13.923L18.27 44.11l-.023-.021c-1.529 1.186-3.638 1.465-5.536.659l-.01-.005zm-1.2-7.738-.07.067c-1.625 1.637-1.517 4.318.256 5.974.4.375.853.665 1.352.879 1.695.726 3.605.409 4.874-.825l.09-.08 24.874-24.482c.53-.53 2.183-1.045 2.51-1.138l.04-.015c.031-.015.045-.01.056-.034.042-.099.083-.489-.518-1.475-.583-.95-1.507-2.045-2.615-3.074-1.284-1.188-2.706-2.208-3.753-2.657-.68-.292-.972-.257-1.04-.2l-.028.065c-.045.183-.472 1.808-1.125 2.46l-24.9 24.53zm23.715-12.189s-2.462 1.1-4.278 1.098c-1.815-.005-2.874-.663-4.58-.495-1.701.166-2.849.921-2.849.921L12.016 37.671c-1.271 1.29-1.15 3.49.26 4.814 1.416 1.324 3.644 1.33 4.952.071zm-15.63 12.698c.21.01.392.169.39.371a.347.347 0 0 1-.37.355c-.211-.007-.392-.168-.39-.37-.006-.19.151-.354.37-.356m-.502-3.716c-.313-.002-.583-.25-.584-.551a.517.517 0 0 1 .548-.537c.318 0 .585.25.587.55.024.3-.207.52-.545.523zm1.27-1.585c-.012-.564.439-1.022 1.034-1.029.585.01 1.074.46 1.109 1.029a1.016 1.016 0 0 1-1.03 1.029c-.613-.018-1.098-.47-1.135-1.04zm5.823-1.89c.319-.007.584.25.588.544a.52.52 0 0 1-.547.54c-.32-.001-.588-.252-.587-.553-.023-.305.235-.548.548-.536zm-1.286-3.231c.213.01.394.17.39.371a.35.35 0 0 1-.369.36c-.21-.01-.394-.17-.389-.37a.357.357 0 0 1 .368-.361m13.683-15.67c.358-.354 1.847.477 3.322 1.863 1.473 1.378 2.377 2.786 2.021 3.14-.367.356-1.855-.477-3.327-1.856-1.483-1.384-2.386-2.791-2.02-3.151l.005.002z"/></g><defs><linearGradient id="a" x1="28" x2="28" y1="0" y2="56" gradientUnits="userSpaceOnUse"><stop stop-color="#360a0a"/><stop offset="1" stop-color="#1e0505"/></linearGradient><filter id="b" width="51.429" height="51.429" x="2.286" y="2.286" color-interpolation-filters="sRGB" filterUnits="userSpaceOnUse"><feFlood flood-opacity="0" result="BackgroundImageFix"/><feColorMatrix in="SourceAlpha" result="hardAlpha" values="0 0 0 0 0 0 0 0 0 0 0 0 0 0 0 0 0 0 127 0"/><feOffset/><feGaussianBlur stdDeviation="2.857"/><feComposite in2="hardAlpha" operator="out"/><feColorMatrix values="0 0 0 0 0 0 0 0 0 0 0 0 0 0 0 0 0 0 0.25 0"/><feBlend in2="BackgroundImageFix" result="effect1_dropShadow_40_637"/><feBlend in="SourceGraphic" in2="effect1_dropShadow_40_637" result="shape"/></filter></defs></svg>