<svg xmlns="http://www.w3.org/2000/svg" width="56" height="56" fill="none" viewBox="0 0 56 56"><rect width="56" height="56" fill="url(#a)" rx="8.4"/><rect width="53.9" height="53.9" x="1.05" y="1.05" stroke="#fff" stroke-opacity=".15" stroke-width="2.1" rx="7.35"/><g filter="url(#b)"><path fill="url(#c)" d="M43.363 9.323c-.733.298-2.019 1.242-3.587 2.653l.897 2.446a30 30 0 0 1 3.1-2.858c.075-.062.12-.096.12-.096-.037.035-.082.061-.12.096-.334.266-1.347 1.136-2.946 2.927 1.271.114 3.245.133 4.867.088.852-2.515.092-3.825.092-3.825s-.914-2.047-2.423-1.431"/><path fill="#be202e" d="M37.14 25.898q-.012-.001 0 0c.024.003.05-.001.074.002q.162.002.313-.012c-.124.007-.255.004-.387.01"/><path fill="#be202e" d="M37.14 25.898q-.012-.001 0 0c.024.003.05-.001.074.002q.162.002.313-.012c-.124.007-.255.004-.387.01" opacity=".35"/><path fill="url(#d)" d="M36.182 19.782q.717-.947 1.426-1.847a53 53 0 0 1 3.058-3.522l-.898-2.438-.33.299q-.628.574-1.306 1.238a91 91 0 0 0-1.569 1.587c-.493.517-1 1.064-1.509 1.627-.432.486-.865.979-1.3 1.488-.02.021-.03.036-.05.057l1.148 3.316c.449-.603.89-1.208 1.33-1.805"/><path fill="url(#e)" d="M26.34 36.204c-.291.537-.593 1.09-.89 1.658-.001.008-.01.014-.011.022-.045.082-.089.157-.126.24-.203.38-.376.726-.785 1.503.443.28.74.883 1.001 1.562a2.52 2.52 0 0 0-.581-1.856c2.308.428 4.4.135 5.673-1.39.11-.137.222-.282.327-.435-.56.515-1.175.686-2.267.469l-.008-.001.008.001c1.719-.482 2.63-1.053 3.51-2.078.209-.244.42-.511.636-.81-1.623 1.226-3.321 1.398-5.004.849l-1.315-.04c-.056.105-.111.202-.167.306"/><path fill="url(#f)" d="M27.36 33.449c.384-.67.778-1.344 1.173-2.028q.575-.978 1.173-1.963.602-.988 1.216-1.974.627-1.006 1.276-1.997c.424-.655.864-1.308 1.295-1.954.157-.235.313-.462.479-.696.27-.395.55-.79.83-1.184.01-.023.03-.044.042-.067l-1.132-3.305c-.03.035-.061.08-.1.114-.456.546-.923 1.1-1.375 1.67a64 64 0 0 0-1.366 1.768c-.378.509-.748 1.02-1.119 1.537-.072.103-.146.213-.218.315a43 43 0 0 0-3.044 5.114c-.164.33-.32.67-.475 1.001q-.538 1.177-.97 2.37l1.153 3.332c.29-.53.597-1.056.898-1.6.087-.149.175-.297.263-.453"/><path fill="url(#g)" d="M25.005 32.276a24 24 0 0 0-.853 2.915c-.004.032-.018.07-.023.101-.383-.856-1.62-1.816-1.614-1.807.765 1.504 1.298 2.96 1.208 4.304-.53.03-1.215-.219-1.984-.623.74.882 1.344 1.183 1.585 1.273-.786-.062-1.675.352-2.583.843 1.267-.312 2.268-.365 2.936-.11-1.547 2.89-3.14 6.103-4.764 9.52.351-.046.586-.246.742-.53.287-.618 2.219-4.683 5.076-9.975.08-.15.166-.298.247-.456.023-.044.045-.081.068-.127q.453-.827.937-1.699c.077-.134.145-.26.222-.394l.001-.008-1.153-3.333a.6.6 0 0 0-.048.106"/><path fill="url(#h)" d="M35.07 21.891c-.063.088-.115.169-.178.256-.178.265-.364.527-.543.8-.199.293-.398.594-.607.902q-.157.229-.315.47c-.316.477-.634.97-.963 1.479a164 164 0 0 0-2.45 3.96c-.391.66-.793 1.334-1.2 2.04-.362.624-.727 1.271-1.103 1.933-.02.03-.034.068-.055.097a277 277 0 0 0-1.125 2.026q-.017.023-.023.045l1.315.04c-.023-.012-.047-.015-.078-.027 1.579.028 3.802-.817 5.333-2.032.705-.56 1.37-1.237 2.014-2.054.483-.607.943-1.29 1.409-2.059.4-.666.803-1.397 1.198-2.193a5 5 0 0 1-1.273.24l-.248.013c-.083.004-.165.001-.255.004 1.526-.34 2.587-1.26 3.435-2.457a5.4 5.4 0 0 1-1.846.504c-.1.01-.206.011-.313.012-.024-.003-.05.002-.082-.003a6 6 0 0 0 1.398-.527q.13-.068.251-.15c.127-.078.246-.166.366-.253.074-.062.148-.116.222-.178q.256-.217.482-.486c.05-.058.097-.107.139-.166.062-.087.123-.167.175-.248a14 14 0 0 0 .878-1.402c.024-.053.055-.097.08-.15.07-.143.137-.27.187-.383q.11-.252.157-.404a1 1 0 0 1-.185.087c-.47.19-1.253.322-1.871.348l1.207.04-1.207-.04q-.012-.003-.026.004-.087-.002-.19.006c.01-.007.026-.005.035-.011l-4.13-.137c.004.033-.006.047-.016.054"/><path fill="url(#i)" d="M40.827 14.492a63 63 0 0 0-1.453 1.691c-.03.036-.058.064-.08.101a87 87 0 0 0-2.864 3.71c-.43.582-.865 1.204-1.33 1.861l4.13.137c1.26-.37 1.86-.775 2.477-1.404q.246-.257.498-.548a24 24 0 0 0 1.488-1.871c.453-.627.864-1.252 1.184-1.818q.315-.547.516-1.003c.113-.265.207-.517.292-.762-1.613.039-3.587.02-4.858-.094"/><path fill="#be202e" d="M36.192 27.845c-.083.005-.164.001-.255.005.083-.005.166-.01.255-.005"/><path fill="#be202e" d="M36.192 27.845c-.083.005-.164.001-.255.005.083-.005.166-.01.255-.005" opacity=".35"/><path fill="url(#j)" d="M36.192 27.845c-.083.005-.164.001-.255.005.083-.005.166-.01.255-.005"/><path fill="#be202e" d="M37.133 25.897c.024.003.05-.001.082.004-.024-.004-.05 0-.082-.004"/><path fill="#be202e" d="M37.133 25.897c.024.003.05-.001.082.004-.024-.004-.05 0-.082-.004" opacity=".35"/><path fill="url(#k)" d="M37.133 25.897c.024.003.05-.001.082.004-.024-.004-.05 0-.082-.004"/><path fill="url(#l)" d="M14.507 8.443c-.253.645-.422 2.034-.457 3.886l2.158.932a25.6 25.6 0 0 1 .035-3.84c0 .046-.011.09-.011.135-.03.374-.08 1.546.116 3.65.854-.731 2.078-1.964 3.043-3.015-1.13-2.076-2.457-2.4-2.457-2.4s-1.906-.677-2.427.652"/><path fill="#be202e" d="M21.581 22.516q-.009.006 0 0c.017-.013.03-.032.047-.045.064-.068.13-.136.184-.205-.072.082-.154.163-.231.25"/><path fill="#be202e" d="M21.581 22.516q-.009.006 0 0c.017-.013.03-.032.047-.045.064-.068.13-.136.184-.205-.072.082-.154.163-.231.25" opacity=".35"/><path fill="url(#m)" d="M16.975 19.376q-.183-1.032-.34-2.031a46 46 0 0 1-.265-2.043q-.009-.061-.011-.117a42 42 0 0 1-.162-1.925l-2.153-.926c0 .126-.005.256-.006.391q-.008.748.013 1.581.027.938.08 1.961c.037.628.086 1.283.144 1.948q.08.854.18 1.731l.007.066 2.883 1.308c-.121-.653-.248-1.301-.37-1.944"/><path fill="url(#n)" d="M21.728 35.636c.174.513.351 1.042.543 1.577.005.005.003.015.008.02.026.08.048.152.08.226.126.362.246.682.506 1.417.455-.11 1.034.073 1.64.324a2.34 2.34 0 0 0-1.575-.77c1.696-1.193 2.788-2.692 2.567-4.428a6 6 0 0 0-.086-.473c-.005.669-.27 1.162-1.082 1.717l-.006.005.006-.005c.738-1.379.922-2.303.788-3.486q-.048-.419-.143-.896c-.19 1.774-1.118 2.95-2.511 3.675l-.833.804z"/><path fill="url(#o)" d="m20.543 33.307-.612-1.982q-.29-.96-.57-1.941-.28-.985-.552-1.975-.276-1.012-.53-2.028c-.17-.668-.329-1.346-.489-2.013-.058-.243-.111-.48-.163-.728q-.14-.62-.27-1.248c-.008-.021-.01-.047-.017-.068l-2.867-1.31c.005.04.015.087.015.132.078.623.155 1.256.253 1.89q.143.966.324 1.944c.103.55.21 1.096.324 1.647.022.108.05.222.072.33a38 38 0 0 0 1.493 5.05c.117.306.244.613.367.914q.442 1.06.962 2.062l2.896 1.314c-.169-.508-.327-1.024-.5-1.547z"/><path fill="url(#p)" d="M18.328 34.073c.42.808.88 1.585 1.392 2.323.018.022.034.054.052.076-.798-.282-2.187-.09-2.177-.089 1.457.44 2.74.994 3.568 1.874-.305.352-.888.632-1.626.87 1.034.073 1.602-.123 1.81-.22-.524.458-.797 1.272-1.032 2.145.573-.99 1.151-1.653 1.728-1.92.95 2.746 2.085 5.718 3.334 8.835.185-.25.197-.52.107-.793-.23-.56-1.716-4.266-3.44-9.309-.05-.141-.094-.287-.148-.434-.016-.042-.027-.079-.042-.12q-.266-.794-.542-1.632c-.04-.13-.082-.251-.123-.382l-.004-.005-2.897-1.314a.5.5 0 0 0 .04.095"/><path fill="url(#q)" d="m17.678 21.368.06.268c.064.274.123.552.192.832.07.305.146.615.22.936q.055.238.115.486.182.736.382 1.512a143 143 0 0 0 1.1 3.97c.193.65.39 1.317.603 2.006.188.61.39 1.237.594 1.879.007.03.023.063.03.094a241 241 0 0 0 .657 1.992l.832-.805c-.021.008-.039.02-.066.033.987-.978 1.796-2.897 1.937-4.606a10.7 10.7 0 0 0-.114-2.529 17 17 0 0 0-.489-2.148 27 27 0 0 0-.706-2.099 4.2 4.2 0 0 1-.624.95l-.143.165c-.048.054-.1.104-.153.163.712-1.17.76-2.403.492-3.67a4.6 4.6 0 0 1-.8 1.471c-.055.07-.12.138-.185.206-.017.013-.03.032-.052.049.236-.416.407-.808.511-1.204.025-.082.04-.166.056-.25.026-.128.042-.257.057-.386.005-.085.015-.164.02-.249a3.5 3.5 0 0 0-.024-.601c-.008-.066-.01-.127-.023-.189-.02-.093-.035-.18-.056-.263a12 12 0 0 0-.383-1.412c-.02-.048-.03-.094-.05-.142-.05-.131-.092-.252-.137-.353a4 4 0 0 0-.168-.346.8.8 0 0 1-.057.17c-.163.414-.556.987-.919 1.393l.768-.737-.768.737q-.01.005-.013.019c-.035.036-.076.076-.112.123.001-.01.012-.02.014-.029l-2.623 2.52c.023.018.026.034.025.043"/><path fill="url(#r)" d="M16.347 13.207q.08.871.22 1.952c.006.04.007.076.018.112a76 76 0 0 0 .68 4.077c.12.628.26 1.283.407 1.979l2.624-2.52c.53-1.02.631-1.648.597-2.421q-.016-.314-.055-.65a21 21 0 0 0-.317-2.084 18 18 0 0 0-.467-1.86 10 10 0 0 0-.343-.94 11 11 0 0 0-.322-.65c-.964 1.04-2.187 2.273-3.042 3.005"/><path fill="#be202e" d="M22.278 24.306c-.048.055-.1.104-.154.164.048-.055.096-.11.154-.164"/><path fill="#be202e" d="M22.278 24.306c-.048.055-.1.104-.154.164.048-.055.096-.11.154-.164" opacity=".35"/><path fill="url(#s)" d="M22.278 24.306c-.048.055-.1.104-.154.164.048-.055.096-.11.154-.164"/><path fill="#be202e" d="M21.575 22.52c.017-.013.03-.031.052-.049-.017.013-.03.032-.052.049"/><path fill="#be202e" d="M21.575 22.52c.017-.013.03-.031.052-.049-.017.013-.03.032-.052.049" opacity=".35"/><path fill="url(#t)" d="M21.575 22.52c.017-.013.03-.031.052-.049-.017.013-.03.032-.052.049"/></g><defs><linearGradient id="a" x1="28" x2="28" y1="0" y2="56" gradientUnits="userSpaceOnUse"><stop stop-color="#352008"/><stop offset=".5" stop-color="#30080d"/><stop offset="1" stop-color="#12112e"/></linearGradient><linearGradient id="c" x1="40.785" x2="50.149" y1="12.397" y2="11.157" gradientUnits="userSpaceOnUse"><stop stop-color="#f69923"/><stop offset=".312" stop-color="#f79a23"/><stop offset=".838" stop-color="#e97826"/></linearGradient><linearGradient id="d" x1="15.268" x2="38.514" y1="49.23" y2="12.86" gradientUnits="userSpaceOnUse"><stop offset=".323" stop-color="#9e2064"/><stop offset=".63" stop-color="#c92037"/><stop offset=".751" stop-color="#cd2335"/><stop offset="1" stop-color="#e97826"/></linearGradient><linearGradient id="e" x1="21.839" x2="35.691" y1="47.246" y2="25.573" gradientUnits="userSpaceOnUse"><stop stop-color="#282662"/><stop offset=".095" stop-color="#662e8d"/><stop offset=".788" stop-color="#9f2064"/><stop offset=".949" stop-color="#cd2032"/></linearGradient><linearGradient id="f" x1="16.272" x2="39.518" y1="46.995" y2="10.624" gradientUnits="userSpaceOnUse"><stop offset=".323" stop-color="#9e2064"/><stop offset=".63" stop-color="#c92037"/><stop offset=".751" stop-color="#cd2335"/><stop offset="1" stop-color="#e97826"/></linearGradient><linearGradient id="g" x1="18.516" x2="30.732" y1="44.692" y2="25.578" gradientUnits="userSpaceOnUse"><stop stop-color="#282662"/><stop offset=".095" stop-color="#662e8d"/><stop offset=".788" stop-color="#9f2064"/><stop offset=".949" stop-color="#cd2032"/></linearGradient><linearGradient id="h" x1="20.068" x2="43.315" y1="49.422" y2="13.051" gradientUnits="userSpaceOnUse"><stop offset=".323" stop-color="#9e2064"/><stop offset=".63" stop-color="#c92037"/><stop offset=".751" stop-color="#cd2335"/><stop offset="1" stop-color="#e97826"/></linearGradient><linearGradient id="i" x1="18.394" x2="41.641" y1="51.529" y2="15.159" gradientUnits="userSpaceOnUse"><stop offset=".323" stop-color="#9e2064"/><stop offset=".63" stop-color="#c92037"/><stop offset=".751" stop-color="#cd2335"/><stop offset="1" stop-color="#e97826"/></linearGradient><linearGradient id="j" x1="21.198" x2="44.444" y1="50.144" y2="13.773" gradientUnits="userSpaceOnUse"><stop offset=".323" stop-color="#9e2064"/><stop offset=".63" stop-color="#c92037"/><stop offset=".751" stop-color="#cd2335"/><stop offset="1" stop-color="#e97826"/></linearGradient><linearGradient id="k" x1="20.984" x2="44.164" y1="50.05" y2="13.575" gradientUnits="userSpaceOnUse"><stop offset=".323" stop-color="#9e2064"/><stop offset=".63" stop-color="#c92037"/><stop offset=".751" stop-color="#cd2335"/><stop offset="1" stop-color="#e97826"/></linearGradient><linearGradient id="l" x1="14.946" x2="19.772" y1="11.951" y2="5.213" gradientUnits="userSpaceOnUse"><stop stop-color="#f69923"/><stop offset=".312" stop-color="#f79a23"/><stop offset=".838" stop-color="#e97826"/></linearGradient><linearGradient id="m" x1="23.494" x2="14.893" y1="50.594" y2="13.426" gradientUnits="userSpaceOnUse"><stop offset=".323" stop-color="#9e2064"/><stop offset=".63" stop-color="#c92037"/><stop offset=".751" stop-color="#cd2335"/><stop offset="1" stop-color="#e97826"/></linearGradient><linearGradient id="n" x1="26.222" x2="21.097" y1="45.236" y2="23.087" gradientUnits="userSpaceOnUse"><stop stop-color="#282662"/><stop offset=".095" stop-color="#662e8d"/><stop offset=".788" stop-color="#9f2064"/><stop offset=".949" stop-color="#cd2032"/></linearGradient><linearGradient id="o" x1="22.642" x2="14.041" y1="48.593" y2="11.425" gradientUnits="userSpaceOnUse"><stop offset=".323" stop-color="#9e2064"/><stop offset=".63" stop-color="#c92037"/><stop offset=".751" stop-color="#cd2335"/><stop offset="1" stop-color="#e97826"/></linearGradient><linearGradient id="p" x1="22.505" x2="17.985" y1="45.768" y2="26.235" gradientUnits="userSpaceOnUse"><stop stop-color="#282662"/><stop offset=".095" stop-color="#662e8d"/><stop offset=".788" stop-color="#9f2064"/><stop offset=".949" stop-color="#cd2032"/></linearGradient><linearGradient id="q" x1="26.565" x2="17.964" y1="47.684" y2="10.516" gradientUnits="userSpaceOnUse"><stop offset=".323" stop-color="#9e2064"/><stop offset=".63" stop-color="#c92037"/><stop offset=".751" stop-color="#cd2335"/><stop offset="1" stop-color="#e97826"/></linearGradient><linearGradient id="r" x1="26.922" x2="18.321" y1="50.031" y2="12.863" gradientUnits="userSpaceOnUse"><stop offset=".323" stop-color="#9e2064"/><stop offset=".63" stop-color="#c92037"/><stop offset=".751" stop-color="#cd2335"/><stop offset="1" stop-color="#e97826"/></linearGradient><linearGradient id="s" x1="27.731" x2="19.13" y1="47.414" y2="10.246" gradientUnits="userSpaceOnUse"><stop offset=".323" stop-color="#9e2064"/><stop offset=".63" stop-color="#c92037"/><stop offset=".751" stop-color="#cd2335"/><stop offset="1" stop-color="#e97826"/></linearGradient><linearGradient id="t" x1="27.604" x2="19.165" y1="47.212" y2="10.352" gradientUnits="userSpaceOnUse"><stop offset=".323" stop-color="#9e2064"/><stop offset=".63" stop-color="#c92037"/><stop offset=".751" stop-color="#cd2335"/><stop offset="1" stop-color="#e97826"/></linearGradient><filter id="b" width="51.429" height="52.503" x="2.286" y="1.904" color-interpolation-filters="sRGB" filterUnits="userSpaceOnUse"><feFlood flood-opacity="0" result="BackgroundImageFix"/><feColorMatrix in="SourceAlpha" result="hardAlpha" values="0 0 0 0 0 0 0 0 0 0 0 0 0 0 0 0 0 0 127 0"/><feOffset/><feGaussianBlur stdDeviation="2.857"/><feComposite in2="hardAlpha" operator="out"/><feColorMatrix values="0 0 0 0 0 0 0 0 0 0 0 0 0 0 0 0 0 0 0.25 0"/><feBlend in2="BackgroundImageFix" result="effect1_dropShadow_3_772"/><feBlend in="SourceGraphic" in2="effect1_dropShadow_3_772" result="shape"/></filter></defs></svg>