<svg xmlns="http://www.w3.org/2000/svg" width="56" height="56" fill="none" viewBox="0 0 56 56"><rect width="56" height="56" fill="url(#a)" rx="8.4"/><rect width="53.9" height="53.9" x="1.05" y="1.05" stroke="#fff" stroke-opacity=".15" stroke-width="2.1" rx="7.35"/><g filter="url(#b)"><path fill="#31a4e7" fill-rule="evenodd" d="M26.893 9.467c-.185.031-.438.11-.563.175-.167.087-13.909 15.372-16.342 18.178-.339.39-.859 1.355-1.15 2.133-1.618 4.321-.876 7.99 2.08 10.274.886.684.744.636 10.524 3.556 10.54 3.146 10 3.017 10.618 2.516.354-.287 15.448-18.526 15.616-18.87.2-.412.21-.857.027-1.356-.268-.733-.287-1.851-.045-2.63.447-1.44-.135-2.47-1.394-2.464-1.312.006-2.222 2.04-1.925 4.3.053.396.1.811.106.922.011.217-13.683 16.907-13.878 16.915-.178.007-17.427-5.145-17.71-5.29-1.913-.98-2.404-5.42-.695-6.295.795-.407-.568-.745 14.044 3.483 4.237 1.226 4.276 1.229 5.11.326 1.144-1.238 16.38-18.966 16.52-19.223.251-.455.208-1.224-.092-1.659-.401-.582-.064-.49-10.442-2.818-10.896-2.443-9.967-2.25-10.41-2.173m6.199 7.715c7.132 1.757 6.631 1.479 5.375 2.989-1.32 1.585-.725 1.598-7.954-.177-7.556-1.856-7.029-1.57-5.767-3.118 1.26-1.544.763-1.563 8.346.306" clip-rule="evenodd"/></g><defs><linearGradient id="a" x1="28" x2="28" y1="0" y2="56" gradientUnits="userSpaceOnUse"><stop stop-color="#142e3d"/><stop offset="0" stop-color="#112734"/><stop offset="1" stop-color="#04111a"/></linearGradient><filter id="b" width="51.429" height="51.429" x="2.286" y="2.286" color-interpolation-filters="sRGB" filterUnits="userSpaceOnUse"><feFlood flood-opacity="0" result="BackgroundImageFix"/><feColorMatrix in="SourceAlpha" result="hardAlpha" values="0 0 0 0 0 0 0 0 0 0 0 0 0 0 0 0 0 0 127 0"/><feOffset/><feGaussianBlur stdDeviation="2.857"/><feComposite in2="hardAlpha" operator="out"/><feColorMatrix values="0 0 0 0 0 0 0 0 0 0 0 0 0 0 0 0 0 0 0.25 0"/><feBlend in2="BackgroundImageFix" result="effect1_dropShadow_40_644"/><feBlend in="SourceGraphic" in2="effect1_dropShadow_40_644" result="shape"/></filter></defs></svg>