<svg xmlns="http://www.w3.org/2000/svg" width="56" height="56" fill="none" viewBox="0 0 56 56"><rect width="56" height="56" fill="url(#a)" rx="8.4"/><rect width="53.9" height="53.9" x="1.05" y="1.05" stroke="#fff" stroke-opacity=".15" stroke-width="2.1" rx="7.35"/><g filter="url(#b)"><path fill="#3655ff" d="M12.169 12.152a8.8 8.8 0 0 1 6.237-2.723h19.5c2.12 0 4.1.928 5.927 2.723a8.4 8.4 0 0 1 2.74 6.098v19.763c0 2.074-.868 3.993-2.6 5.773a8.93 8.93 0 0 1-6.3 2.785H18.514a9.75 9.75 0 0 1-6.345-2.43c-1.671-1.516-2.585-3.714-2.74-6.654v-19.19a8.06 8.06 0 0 1 2.74-6.145m9.672 12.846 12.273 15.569h3.28c.76-.093 1.363-.31 1.812-.666.464-.356.773-.867.99-1.547v-7.646c.124-1.47 1.037-2.383 2.74-2.708q-2.554-.929-2.74-2.879v-7.304c-.186-.681-.51-1.238-.99-1.656a2.83 2.83 0 0 0-1.687-.728H34.19V31.22L21.84 15.419h-3.45c-.867.155-1.502.464-1.935.928-.433.465-.712 1.208-.836 2.214v7.506c-.542 1.067-1.393 1.702-2.553 1.934 1.315.248 2.166.944 2.553 2.105v7.382c.031.851.31 1.547.836 2.12.51.557 1.083.82 1.702.774h3.653z"/></g><defs><linearGradient id="a" x1="28" x2="28" y1="0" y2="56" gradientUnits="userSpaceOnUse"><stop stop-color="#0d1439"/><stop offset="1" stop-color="#060b24"/></linearGradient><filter id="b" width="51.429" height="51.429" x="2.286" y="2.286" color-interpolation-filters="sRGB" filterUnits="userSpaceOnUse"><feFlood flood-opacity="0" result="BackgroundImageFix"/><feColorMatrix in="SourceAlpha" result="hardAlpha" values="0 0 0 0 0 0 0 0 0 0 0 0 0 0 0 0 0 0 127 0"/><feOffset/><feGaussianBlur stdDeviation="2.857"/><feComposite in2="hardAlpha" operator="out"/><feColorMatrix values="0 0 0 0 0 0 0 0 0 0 0 0 0 0 0 0 0 0 0.25 0"/><feBlend in2="BackgroundImageFix" result="effect1_dropShadow_2_1192"/><feBlend in="SourceGraphic" in2="effect1_dropShadow_2_1192" result="shape"/></filter></defs></svg>