<svg xmlns="http://www.w3.org/2000/svg" width="56" height="56" fill="none" viewBox="0 0 56 56"><rect width="56" height="56" fill="url(#a)" rx="8.4"/><rect width="53.9" height="53.9" x="1.05" y="1.05" stroke="#fff" stroke-opacity=".15" stroke-width="2.1" rx="7.35"/><g filter="url(#b)"><path fill="#fff" d="M27.287 8a9 9 0 0 0-.597.011c-.086.009-.36.035-.606.055-5.681.512-11.003 3.577-14.373 8.288a19.8 19.8 0 0 0-3.531 8.738C8.02 26.19 8 26.515 8 28.004c0 1.49.02 1.814.18 2.913 1.087 7.51 6.432 13.82 13.681 16.157 1.299.419 2.667.704 4.223.876.606.067 3.226.067 3.832 0 2.686-.297 4.962-.962 7.206-2.107.344-.176.41-.223.364-.262-.031-.024-1.498-1.99-3.257-4.367l-3.199-4.32-4.008-5.93c-2.205-3.261-4.019-5.927-4.035-5.927-.015-.005-.03 2.631-.039 5.848-.011 5.634-.015 5.86-.086 5.994-.101.191-.18.27-.344.355-.125.063-.235.074-.825.074h-.677l-.18-.113a.73.73 0 0 1-.261-.285l-.082-.176.008-7.839.012-7.842.12-.152c.063-.083.196-.188.29-.239.16-.078.223-.086.9-.086.797 0 .93.031 1.137.258.059.063 2.229 3.331 4.825 7.268q3.944 5.977 7.89 11.95l3.168 4.798.16-.106c1.42-.922 2.92-2.236 4.11-3.604a19.9 19.9 0 0 0 4.707-10.224c.16-1.098.18-1.423.18-2.912 0-1.49-.02-1.814-.18-2.913-1.087-7.51-6.432-13.82-13.68-16.157-1.28-.415-2.64-.7-4.165-.872-.282-.03-1.806-.061-2.687-.062m6.781 12.028c.58 0 .68.01.81.079.188.093.34.273.395.46.03.102.039 2.276.03 7.175l-.01 7.029-1.24-1.9-1.243-1.9v-5.11c0-3.303.015-5.16.039-5.25a.8.8 0 0 1 .387-.493c.16-.082.219-.09.833-.09"/></g><defs><linearGradient id="a" x1="28" x2="28" y1="0" y2="56" gradientUnits="userSpaceOnUse"><stop stop-color="#1e1e1e"/><stop offset="1" stop-color="#0d0d0d"/></linearGradient><filter id="b" width="51.429" height="51.428" x="2.286" y="2.286" color-interpolation-filters="sRGB" filterUnits="userSpaceOnUse"><feFlood flood-opacity="0" result="BackgroundImageFix"/><feColorMatrix in="SourceAlpha" result="hardAlpha" values="0 0 0 0 0 0 0 0 0 0 0 0 0 0 0 0 0 0 127 0"/><feOffset/><feGaussianBlur stdDeviation="2.857"/><feComposite in2="hardAlpha" operator="out"/><feColorMatrix values="0 0 0 0 0 0 0 0 0 0 0 0 0 0 0 0 0 0 0.25 0"/><feBlend in2="BackgroundImageFix" result="effect1_dropShadow_2_1245"/><feBlend in="SourceGraphic" in2="effect1_dropShadow_2_1245" result="shape"/></filter></defs></svg>