<svg xmlns="http://www.w3.org/2000/svg" width="56" height="56" fill="none" viewBox="0 0 56 56"><rect width="56" height="56" fill="url(#a)" rx="8.4"/><rect width="53.9" height="53.9" x="1.05" y="1.05" stroke="#fff" stroke-opacity=".15" stroke-width="2.1" rx="7.35"/><g filter="url(#b)"><path fill="#80eec0" fill-rule="evenodd" d="M26.283 15.466c-1.161-1.996-4.063-1.996-5.224 0L8.41 37.218c-1.161 1.996.29 4.49 2.611 4.49h9.876c-.992-.866-1.36-2.366-.609-3.653l9.581-16.423z" clip-rule="evenodd"/><path fill="#00dc82" d="M34.3 20.238c.96-1.633 3.361-1.633 4.322 0l10.47 17.796c.96 1.633-.24 3.675-2.162 3.675H25.991c-1.921 0-3.122-2.042-2.161-3.675z"/></g><defs><linearGradient id="a" x1="28" x2="28" y1="0" y2="56" gradientUnits="userSpaceOnUse"><stop stop-color="#0c3826"/><stop offset="1" stop-color="#052115"/></linearGradient><filter id="b" width="52.858" height="51.429" x="2.286" y="2.286" color-interpolation-filters="sRGB" filterUnits="userSpaceOnUse"><feFlood flood-opacity="0" result="BackgroundImageFix"/><feColorMatrix in="SourceAlpha" result="hardAlpha" values="0 0 0 0 0 0 0 0 0 0 0 0 0 0 0 0 0 0 127 0"/><feOffset/><feGaussianBlur stdDeviation="2.857"/><feComposite in2="hardAlpha" operator="out"/><feColorMatrix values="0 0 0 0 0 0 0 0 0 0 0 0 0 0 0 0 0 0 0.25 0"/><feBlend in2="BackgroundImageFix" result="effect1_dropShadow_2_1222"/><feBlend in="SourceGraphic" in2="effect1_dropShadow_2_1222" result="shape"/></filter></defs></svg>