<svg xmlns="http://www.w3.org/2000/svg" width="56" height="56" fill="none" viewBox="0 0 56 56"><rect width="56" height="56" fill="url(#a)" rx="8"/><rect width="53.9" height="53.9" x="1.05" y="1.05" stroke="#fff" stroke-opacity=".15" stroke-width="2.1" rx="6.95"/><g filter="url(#b)"><path fill="url(#c)" d="M27.762 8a28 28 0 0 0-4.61.39c-4.083.713-4.825 2.206-4.825 4.96v3.637h9.648v1.212H14.708c-2.805 0-5.26 1.667-6.028 4.838-.886 3.635-.925 5.904 0 9.699.686 2.825 2.324 4.838 5.128 4.838h3.317v-4.36c0-3.15 2.756-5.928 6.027-5.928h9.637c2.683 0 4.824-2.185 4.824-4.85V13.35c0-2.586-2.205-4.529-4.824-4.96A30.4 30.4 0 0 0 27.762 8m-5.218 2.925c.997 0 1.81.818 1.81 1.824a1.81 1.81 0 1 1-3.62 0c0-1.005.81-1.824 1.81-1.824"/><path fill="url(#d)" d="M38.815 18.2v4.237c0 3.285-2.816 6.05-6.027 6.05h-9.637c-2.64 0-4.824 2.235-4.824 4.85v9.086c0 2.586 2.274 4.107 4.824 4.85 3.054.887 5.983 1.048 9.637 0 2.43-.696 4.824-2.096 4.824-4.85v-3.637h-9.637v-1.212h14.461c2.804 0 3.85-1.935 4.824-4.838 1.008-2.99.965-5.864 0-9.699-.693-2.76-2.016-4.838-4.824-4.838zm-5.42 23.01c1 0 1.81.811 1.81 1.814 0 1.006-.81 1.824-1.81 1.824a1.82 1.82 0 0 1-1.81-1.824c0-1.003.814-1.813 1.81-1.813"/></g><defs><linearGradient id="a" x1="8.944" x2="56.826" y1="0" y2="10.75" gradientUnits="userSpaceOnUse"><stop stop-color="#152b3e"/><stop offset="1" stop-color="#282208"/></linearGradient><linearGradient id="c" x1="8" x2="30.042" y1="8" y2="26.99" gradientUnits="userSpaceOnUse"><stop stop-color="#5a9fd4"/><stop offset="1" stop-color="#306998"/></linearGradient><linearGradient id="d" x1="33.163" x2="25.298" y1="42.718" y2="31.574" gradientUnits="userSpaceOnUse"><stop stop-color="#ffd43b"/><stop offset="1" stop-color="#ffe873"/></linearGradient><filter id="b" width="51.429" height="51.429" x="2.286" y="2.286" color-interpolation-filters="sRGB" filterUnits="userSpaceOnUse"><feFlood flood-opacity="0" result="BackgroundImageFix"/><feColorMatrix in="SourceAlpha" result="hardAlpha" values="0 0 0 0 0 0 0 0 0 0 0 0 0 0 0 0 0 0 127 0"/><feOffset/><feGaussianBlur stdDeviation="2.857"/><feComposite in2="hardAlpha" operator="out"/><feColorMatrix values="0 0 0 0 0 0 0 0 0 0 0 0 0 0 0 0 0 0 0.25 0"/><feBlend in2="BackgroundImageFix" result="effect1_dropShadow_2_3726"/><feBlend in="SourceGraphic" in2="effect1_dropShadow_2_3726" result="shape"/></filter></defs></svg>