<svg xmlns="http://www.w3.org/2000/svg" width="56" height="56" fill="none" viewBox="0 0 56 56"><rect width="56" height="56" fill="url(#a)" rx="8.4"/><rect width="53.9" height="53.9" x="1.05" y="1.05" stroke="#fff" stroke-opacity=".15" stroke-width="2.1" rx="7.35"/><g filter="url(#b)"><path fill="#61dafb" d="M31.717 28.005a3.97 3.97 0 0 1-1.091 2.746 3.65 3.65 0 0 1-2.634 1.14c-.989 0-1.937-.41-2.636-1.139a3.97 3.97 0 0 1-1.091-2.747c0-1.03.392-2.019 1.09-2.747a3.65 3.65 0 0 1 2.635-1.139c.988 0 1.936.41 2.635 1.138a3.97 3.97 0 0 1 1.092 2.748M36.13 9.429c-2.243 0-5.178 1.668-8.147 4.556-2.966-2.872-5.903-4.521-8.145-4.521-.683 0-1.305.161-1.843.483-2.292 1.378-2.805 5.671-1.622 11.06C11.3 22.64 8 25.252 8 28.005c0 2.762 3.317 5.381 8.405 7.002-1.173 5.41-.65 9.71 1.647 11.087.533.325 1.15.478 1.836.478 2.242 0 5.179-1.669 8.147-4.56 2.967 2.874 5.903 4.523 8.145 4.523.683 0 1.305-.156 1.843-.478 2.29-1.376 2.805-5.67 1.622-11.06C44.7 33.377 48 30.761 48 28.005c0-2.763-3.317-5.382-8.405-7.007 1.173-5.404.65-9.708-1.647-11.086-.53-.32-1.146-.481-1.82-.483zm-.008 1.894v.01c.375 0 .676.077.93.221 1.11.664 1.591 3.189 1.216 6.436-.09.8-.236 1.643-.416 2.503a38 38 0 0 0-5.179-.928 41 41 0 0 0-3.391-4.252c2.653-2.572 5.145-3.983 6.841-3.988zm-16.284.035c1.687 0 4.19 1.404 6.85 3.962a40 40 0 0 0-3.366 4.243c-1.845.203-3.59.518-5.189.935a27 27 0 0 1-.423-2.468c-.383-3.246.09-5.769 1.19-6.441.317-.157.667-.22.938-.23zm8.137 5.3a34 34 0 0 1 2.267 2.717A47 47 0 0 0 28 19.316q-1.152-.001-2.267.06a33 33 0 0 1 2.242-2.72zM28 21.22c1.233 0 2.462.059 3.67.161a46 46 0 0 1 1.972 3.232 44 44 0 0 1 1.696 3.382 48 48 0 0 1-1.688 3.388 44 44 0 0 1-1.967 3.25 41 41 0 0 1-3.683.17 44 44 0 0 1-3.67-.162 47 47 0 0 1-1.972-3.232 44 44 0 0 1-1.696-3.381 45 45 0 0 1 1.688-3.395 44 44 0 0 1 1.967-3.247 40 40 0 0 1 3.683-.17zm-6.058.441c-.4.655-.8 1.326-1.174 2.016a46 46 0 0 0-1.058 2.04 37 37 0 0 1-1.127-3.383 39 39 0 0 1 3.359-.671zm12.1 0c1.158.18 2.275.4 3.343.673a38 38 0 0 1-1.1 3.358 46 46 0 0 0-2.242-4.031zm5.105 1.173c.806.26 1.573.55 2.291.865 2.887 1.286 4.754 2.968 4.754 4.303-.009 1.334-1.875 3.023-4.762 4.3-.7.313-1.467.595-2.258.857a43 43 0 0 0-1.834-5.178 42 42 0 0 0 1.809-5.15zm-22.325.007a42 42 0 0 0 1.833 5.178 41 41 0 0 0-1.81 5.15 23 23 0 0 1-2.283-.868c-2.887-1.28-4.754-2.965-4.754-4.3s1.867-3.026 4.754-4.302a25 25 0 0 1 2.26-.858m19.463 7.437c.442 1.142.817 2.28 1.127 3.385a34 34 0 0 1-3.36.678 45 45 0 0 0 2.235-4.063zm-16.575.035c.333.681.683 1.36 1.067 2.042q.575 1.017 1.175 1.986a35 35 0 0 1-3.344-.67c.3-1.096.677-2.228 1.1-3.36zm18.157 5.19c.186.857.333 1.683.423 2.473.383 3.246-.09 5.77-1.19 6.444-.245.156-.563.222-.938.222-1.687 0-4.19-1.402-6.85-3.962a40 40 0 0 0 3.366-4.24 37 37 0 0 0 5.189-.938zm-19.717.018c1.6.406 3.343.72 5.178.924a41 41 0 0 0 3.392 4.25c-2.658 2.578-5.153 3.989-6.85 3.989q-.552-.015-.922-.23c-1.11-.66-1.591-3.187-1.216-6.434.09-.8.236-1.64.416-2.5zm7.6 1.112c.733.035 1.483.059 2.242.059.766 0 1.525-.017 2.266-.06a33 33 0 0 1-2.241 2.72 35 35 0 0 1-2.267-2.72"/></g><defs><linearGradient id="a" x1="28" x2="28" y1="0" y2="56" gradientUnits="userSpaceOnUse"><stop stop-color="#0f343e"/><stop offset="1" stop-color="#072027"/></linearGradient><filter id="b" width="51.429" height="51.429" x="2.286" y="2.286" color-interpolation-filters="sRGB" filterUnits="userSpaceOnUse"><feFlood flood-opacity="0" result="BackgroundImageFix"/><feColorMatrix in="SourceAlpha" result="hardAlpha" values="0 0 0 0 0 0 0 0 0 0 0 0 0 0 0 0 0 0 127 0"/><feOffset/><feGaussianBlur stdDeviation="2.857"/><feComposite in2="hardAlpha" operator="out"/><feColorMatrix values="0 0 0 0 0 0 0 0 0 0 0 0 0 0 0 0 0 0 0.25 0"/><feBlend in2="BackgroundImageFix" result="effect1_dropShadow_2_1238"/><feBlend in="SourceGraphic" in2="effect1_dropShadow_2_1238" result="shape"/></filter></defs></svg>