<svg xmlns="http://www.w3.org/2000/svg" width="56" height="56" fill="none" viewBox="0 0 56 56"><rect width="56" height="56" fill="url(#a)" rx="8"/><rect width="53.9" height="53.9" x="1.05" y="1.05" stroke="#fff" stroke-opacity=".15" stroke-width="2.1" rx="6.95"/><g filter="url(#b)"><g clip-path="url(#c)"><path fill="#cd6699" fill-rule="evenodd" d="M28 8c11.046 0 20 8.954 20 20s-8.954 20-20 20S8 39.046 8 28 16.954 8 28 8" clip-rule="evenodd"/><path fill="#fff" d="M24.025 34.662c.291 1.076.26 2.08-.041 2.99a5 5 0 0 1-.24.59 5.6 5.6 0 0 1-.924 1.347c-1.162 1.268-2.785 1.748-3.481 1.344-.752-.436-.375-2.224.972-3.648 1.45-1.532 3.535-2.517 3.535-2.517l-.004-.006zm16.52-18.102c-.905-3.552-6.795-4.72-12.37-2.74-3.317 1.18-6.908 3.029-9.49 5.444-3.07 2.872-3.56 5.372-3.358 6.416.711 3.685 5.761 6.094 7.837 7.881v.011c-.612.301-5.092 2.569-6.14 4.886-1.107 2.446.175 4.2 1.024 4.437 2.63.731 5.33-.585 6.78-2.749 1.4-2.088 1.284-4.784.676-6.125.839-.222 1.817-.32 3.06-.176 3.509.41 4.197 2.6 4.066 3.517s-.868 1.421-1.114 1.574c-.246.152-.321.205-.3.318.03.164.143.158.353.123.289-.05 1.842-.746 1.909-2.439.084-2.148-1.975-4.552-5.62-4.489-1.502.026-2.446.169-3.128.423l-.155-.172c-2.254-2.404-6.42-4.105-6.244-7.338.064-1.175.473-4.27 8.007-8.024 6.17-3.075 11.111-2.229 11.965-.354 1.22 2.68-2.64 7.66-9.05 8.378-2.441.274-3.727-.673-4.047-1.025-.336-.371-.386-.388-.512-.318-.205.113-.075.44 0 .636.191.498.977 1.381 2.315 1.82 1.178.387 4.045.6 7.512-.742 3.883-1.502 6.915-5.68 6.024-9.173"/></g></g><defs><linearGradient id="a" x1="28" x2="28" y1="0" y2="56" gradientUnits="userSpaceOnUse"><stop stop-color="#442132"/><stop offset="1" stop-color="#26121c"/></linearGradient><clipPath id="c"><path fill="#fff" d="M8 8h40v40H8z"/></clipPath><filter id="b" width="51.429" height="51.429" x="2.286" y="2.286" color-interpolation-filters="sRGB" filterUnits="userSpaceOnUse"><feFlood flood-opacity="0" result="BackgroundImageFix"/><feColorMatrix in="SourceAlpha" result="hardAlpha" values="0 0 0 0 0 0 0 0 0 0 0 0 0 0 0 0 0 0 127 0"/><feOffset/><feGaussianBlur stdDeviation="2.857"/><feComposite in2="hardAlpha" operator="out"/><feColorMatrix values="0 0 0 0 0 0 0 0 0 0 0 0 0 0 0 0 0 0 0.25 0"/><feBlend in2="BackgroundImageFix" result="effect1_dropShadow_2_3734"/><feBlend in="SourceGraphic" in2="effect1_dropShadow_2_3734" result="shape"/></filter></defs></svg>