<svg xmlns="http://www.w3.org/2000/svg" width="56" height="56" fill="none" viewBox="0 0 56 56"><rect width="56" height="56" fill="url(#a)" rx="8.4"/><rect width="53.9" height="53.9" x="1.05" y="1.05" stroke="#fff" stroke-opacity=".15" stroke-width="2.1" rx="7.35"/><g filter="url(#b)"><g filter="url(#c)"><path fill="#fff" fill-opacity=".25" d="M12.551 39.072v-3.215h9.643v3.215zm-3.214-3.215v-3.214h3.214v3.214zm12.857 0v-9.643h3.214v9.643zm-9.643-9.643V23h9.643v3.214zM9.337 23v-3.214h3.214V23zm3.214-3.214V16.57h12.857v3.215zm19.286 19.286v-3.215h9.643v3.215zm-3.214-3.215V19.786h3.214v16.071zm12.857 0V19.786h3.214v16.071zm-9.643-16.071V16.57h9.643v3.215z"/></g><path fill="#fff" d="M12.551 39.072v-3.215h9.643v3.215zm-3.214-3.215v-3.214h3.214v3.214zm12.857 0v-9.643h3.214v9.643zm-9.643-9.643V23h9.643v3.214zM9.337 23v-3.214h3.214V23zm3.214-3.214V16.57h12.857v3.215zm19.286 19.286v-3.215h9.643v3.215zm-3.214-3.215V19.786h3.214v16.071zm12.857 0V19.786h3.214v16.071zm-9.643-16.071V16.57h9.643v3.215z"/></g><defs><filter id="b" width="51.429" height="51.429" x="2.286" y="2.286" color-interpolation-filters="sRGB" filterUnits="userSpaceOnUse"><feFlood flood-opacity="0" result="BackgroundImageFix"/><feColorMatrix in="SourceAlpha" result="hardAlpha" values="0 0 0 0 0 0 0 0 0 0 0 0 0 0 0 0 0 0 127 0"/><feOffset/><feGaussianBlur stdDeviation="2.857"/><feComposite in2="hardAlpha" operator="out"/><feColorMatrix values="0 0 0 0 0 0 0 0 0 0 0 0 0 0 0 0 0 0 0.25 0"/><feBlend in2="BackgroundImageFix" result="effect1_dropShadow_28_3197"/><feBlend in="SourceGraphic" in2="effect1_dropShadow_28_3197" result="shape"/></filter><filter id="c" width="46.785" height="33.929" x="3.623" y="10.857" color-interpolation-filters="sRGB" filterUnits="userSpaceOnUse"><feFlood flood-opacity="0" result="BackgroundImageFix"/><feBlend in="SourceGraphic" in2="BackgroundImageFix" result="shape"/><feGaussianBlur result="effect1_foregroundBlur_28_3197" stdDeviation="2.857"/></filter><linearGradient id="a" x1="28" x2="28" y1="0" y2="56" gradientUnits="userSpaceOnUse"><stop stop-color="#021f1d"/><stop offset="1" stop-color="#000606"/></linearGradient></defs></svg>