<svg xmlns="http://www.w3.org/2000/svg" width="56" height="56" fill="none" viewBox="0 0 56 56"><rect width="56" height="56" fill="url(#a)" rx="8"/><rect width="53.9" height="53.9" x="1.05" y="1.05" stroke="#fff" stroke-opacity=".15" stroke-width="2.1" rx="6.95"/><g filter="url(#b)"><g clip-path="url(#c)"><path fill="#ff3e00" d="M42.619 13.288c-3.695-5.322-11.051-6.881-16.34-3.525l-9.321 5.966a10.6 10.6 0 0 0-4.814 7.152c-.44 2.475-.068 5.017 1.119 7.22a10.2 10.2 0 0 0-1.593 4 11.4 11.4 0 0 0 1.932 8.61c3.729 5.323 11.05 6.882 16.339 3.526l9.322-5.932a10.6 10.6 0 0 0 4.814-7.152c.44-2.475.067-5.017-1.12-7.22a10.2 10.2 0 0 0 1.594-4 11.17 11.17 0 0 0-1.932-8.645"/><path fill="#fff" d="M25.365 43.22a7.39 7.39 0 0 1-7.933-2.949c-1.084-1.491-1.491-3.356-1.186-5.186.068-.305.136-.576.203-.881l.17-.543.474.34a12.4 12.4 0 0 0 3.661 1.83l.34.101-.035.34c-.034.474.102.982.373 1.39.543.779 1.492 1.152 2.407.914.204-.067.407-.135.576-.237l9.289-5.932c.474-.305.78-.746.88-1.288a2.1 2.1 0 0 0-.338-1.56 2.225 2.225 0 0 0-2.407-.88 3 3 0 0 0-.576.236l-3.56 2.272a6.3 6.3 0 0 1-1.898.813 7.39 7.39 0 0 1-7.932-2.949 6.85 6.85 0 0 1-1.153-5.186 6.42 6.42 0 0 1 2.916-4.305l9.322-5.933c.576-.373 1.22-.644 1.898-.847a7.39 7.39 0 0 1 7.932 2.949c1.085 1.492 1.492 3.356 1.187 5.186a9 9 0 0 1-.238.882l-.17.542-.474-.339a12.4 12.4 0 0 0-3.66-1.83l-.34-.102.034-.339a2.27 2.27 0 0 0-.373-1.39 2.225 2.225 0 0 0-2.406-.881c-.204.068-.407.135-.577.237l-9.288 5.932a1.92 1.92 0 0 0-.881 1.288 2.1 2.1 0 0 0 .339 1.56 2.225 2.225 0 0 0 2.407.881c.203-.068.406-.136.576-.237l3.56-2.271c.575-.373 1.22-.644 1.897-.848a7.39 7.39 0 0 1 7.933 2.95c1.084 1.49 1.491 3.355 1.186 5.186a6.42 6.42 0 0 1-2.915 4.305l-9.322 5.932c-.577.373-1.22.644-1.899.848"/></g></g><defs><linearGradient id="a" x1="28" x2="28" y1="0" y2="56" gradientUnits="userSpaceOnUse"><stop stop-color="#381f0c"/><stop offset="1" stop-color="#211205"/></linearGradient><clipPath id="c"><path fill="#fff" d="M11.5 8h33.254v40H11.5z"/></clipPath><filter id="b" width="51.429" height="51.429" x="2.286" y="2.286" color-interpolation-filters="sRGB" filterUnits="userSpaceOnUse"><feFlood flood-opacity="0" result="BackgroundImageFix"/><feColorMatrix in="SourceAlpha" result="hardAlpha" values="0 0 0 0 0 0 0 0 0 0 0 0 0 0 0 0 0 0 127 0"/><feOffset/><feGaussianBlur stdDeviation="2.857"/><feComposite in2="hardAlpha" operator="out"/><feColorMatrix values="0 0 0 0 0 0 0 0 0 0 0 0 0 0 0 0 0 0 0.25 0"/><feBlend in2="BackgroundImageFix" result="effect1_dropShadow_62_80"/><feBlend in="SourceGraphic" in2="effect1_dropShadow_62_80" result="shape"/></filter></defs></svg>