<svg xmlns="http://www.w3.org/2000/svg" width="56" height="56" fill="none" viewBox="0 0 56 56"><rect width="56" height="56" fill="url(#a)" rx="8.4"/><rect width="53.9" height="53.9" x="1.05" y="1.05" stroke="#fff" stroke-opacity=".15" stroke-width="2.1" rx="7.35"/><g filter="url(#b)"><path fill="#3178c6" d="M9.875 8A1.87 1.87 0 0 0 8 9.875v36.25C8 47.163 8.837 48 9.875 48h36.25A1.87 1.87 0 0 0 48 46.125V9.875A1.87 1.87 0 0 0 46.125 8zm28.938 16.25q1.53 0 2.712.185c.744.111 1.473.301 2.177.567v4.096a6.6 6.6 0 0 0-1.072-.601 8.5 8.5 0 0 0-1.195-.434 9 9 0 0 0-2.377-.333q-.75 0-1.365.143a3.5 3.5 0 0 0-1.038.404q-.424.26-.655.623a1.5 1.5 0 0 0-.233.817q.001.49.26.881.26.39.738.74.477.35 1.16.684.683.338 1.543.693 1.176.493 2.11 1.047.936.555 1.605 1.255.67.697 1.024 1.595.355.896.356 2.088 0 1.644-.621 2.76a5.06 5.06 0 0 1-1.687 1.808 7.3 7.3 0 0 1-2.478.994q-1.416.3-2.984.3a16.5 16.5 0 0 1-3.066-.274 9.2 9.2 0 0 1-2.52-.821v-4.384a8.4 8.4 0 0 0 5.395 2q.833 0 1.453-.15.622-.151 1.038-.416.415-.269.622-.634a1.7 1.7 0 0 0-.123-1.815 3.5 3.5 0 0 0-.895-.833 9.3 9.3 0 0 0-1.345-.74 46 46 0 0 0-1.679-.727q-2.295-.958-3.421-2.341t-1.127-3.342q0-1.534.615-2.637t1.673-1.815a7.5 7.5 0 0 1 2.45-1.048c.967-.228 1.957-.34 2.95-.335m-25.188.313h15.938v3.61h-5.72V44.25h-4.528V28.173h-5.69z"/></g><defs><linearGradient id="a" x1="28" x2="28" y1="0" y2="56" gradientUnits="userSpaceOnUse"><stop stop-color="#0c1f34"/><stop offset="1" stop-color="#051220"/></linearGradient><filter id="b" width="51.429" height="51.429" x="2.286" y="2.286" color-interpolation-filters="sRGB" filterUnits="userSpaceOnUse"><feFlood flood-opacity="0" result="BackgroundImageFix"/><feColorMatrix in="SourceAlpha" result="hardAlpha" values="0 0 0 0 0 0 0 0 0 0 0 0 0 0 0 0 0 0 127 0"/><feOffset/><feGaussianBlur stdDeviation="2.857"/><feComposite in2="hardAlpha" operator="out"/><feColorMatrix values="0 0 0 0 0 0 0 0 0 0 0 0 0 0 0 0 0 0 0.25 0"/><feBlend in2="BackgroundImageFix" result="effect1_dropShadow_2_1185"/><feBlend in="SourceGraphic" in2="effect1_dropShadow_2_1185" result="shape"/></filter></defs></svg>