<svg xmlns="http://www.w3.org/2000/svg" width="56" height="56" fill="none" viewBox="0 0 56 56"><rect width="56" height="56" fill="url(#a)" rx="8.4"/><rect width="53.9" height="53.9" x="1.05" y="1.05" stroke="#fff" stroke-opacity=".15" stroke-width="2.1" rx="7.35"/><g filter="url(#b)"><path fill="#654ff0" d="M32.575 8v.215a4.586 4.586 0 1 1-9.173 0V8H8v40h40V8zM27.09 43.718l-1.948-9.638h-.034l-2.106 9.638h-2.685l-3.04-14.161h2.65l1.813 9.638h.033l2.185-9.638h2.479l1.961 9.756h.034l2.07-9.756h2.601l-3.378 14.161zm14.592 0-.904-3.151H36.01l-.695 3.151h-2.65l3.427-14.161h4.181l4.167 14.161zm-3.995-10.671-1.157 5.196h3.598l-1.326-5.196z"/></g><defs><linearGradient id="a" x1="28" x2="28" y1="0" y2="56" gradientUnits="userSpaceOnUse"><stop stop-color="#140e3a"/><stop offset="1" stop-color="#0a0622"/></linearGradient><filter id="b" width="51.429" height="51.429" x="2.286" y="2.286" color-interpolation-filters="sRGB" filterUnits="userSpaceOnUse"><feFlood flood-opacity="0" result="BackgroundImageFix"/><feColorMatrix in="SourceAlpha" result="hardAlpha" values="0 0 0 0 0 0 0 0 0 0 0 0 0 0 0 0 0 0 127 0"/><feOffset/><feGaussianBlur stdDeviation="2.857"/><feComposite in2="hardAlpha" operator="out"/><feColorMatrix values="0 0 0 0 0 0 0 0 0 0 0 0 0 0 0 0 0 0 0.25 0"/><feBlend in2="BackgroundImageFix" result="effect1_dropShadow_2_1199"/><feBlend in="SourceGraphic" in2="effect1_dropShadow_2_1199" result="shape"/></filter></defs></svg>