<svg xmlns="http://www.w3.org/2000/svg" width="56" height="56" fill="none" viewBox="0 0 56 56"><rect width="56" height="56" fill="url(#a)" rx="8"/><rect width="53.9" height="53.9" x="1.05" y="1.05" stroke="#fff" stroke-opacity=".15" stroke-width="2.1" rx="6.95"/><g filter="url(#b)"><path fill="#f1f1f1" d="M44.264 16.163v29.592c0 .79-.64 1.429-1.429 1.429h-29.67c-.79 0-1.429-.64-1.429-1.429v-35.51c0-.789.64-1.429 1.429-1.429h29.67c.79 0 1.429.64 1.429 1.429z"/><path fill="#231f20" d="M36.89 21.061H16.033a1 1 0 1 0 0 2H36.89a1 1 0 1 0 0-2m2.857 4.899H16.253a1 1 0 1 0 0 2h23.494a1 1 0 1 0 0-2m0 4.897H16.253a1 1 0 0 0 0 2h23.494a1 1 0 1 0 0-2m0 4.898H16.253a1 1 0 1 0 0 2h23.494a1 1 0 1 0 0-2m-5.274 4.898h-18.22a1 1 0 1 0 0 2h18.22a1 1 0 0 0 0-2m5.274 0H38.67a1 1 0 1 0 0 2h1.077a1 1 0 0 0 0-2M19.528 11.674h-3.275a1 1 0 1 0 0 2h3.275a1 1 0 0 0 0-2m5.274 2.856h-8.55a1 1 0 1 0 0 2h8.55a1 1 0 1 0 0-2"/></g><defs><linearGradient id="a" x1="28" x2="28" y1="0" y2="56" gradientUnits="userSpaceOnUse"><stop stop-color="#303030"/><stop offset="1" stop-color="#1d1d1d"/></linearGradient><filter id="b" width="51.429" height="51.429" x="2.286" y="2.286" color-interpolation-filters="sRGB" filterUnits="userSpaceOnUse"><feFlood flood-opacity="0" result="BackgroundImageFix"/><feColorMatrix in="SourceAlpha" result="hardAlpha" values="0 0 0 0 0 0 0 0 0 0 0 0 0 0 0 0 0 0 127 0"/><feOffset/><feGaussianBlur stdDeviation="2.857"/><feComposite in2="hardAlpha" operator="out"/><feColorMatrix values="0 0 0 0 0 0 0 0 0 0 0 0 0 0 0 0 0 0 0.25 0"/><feBlend in2="BackgroundImageFix" result="effect1_dropShadow_7_218"/><feBlend in="SourceGraphic" in2="effect1_dropShadow_7_218" result="shape"/></filter></defs></svg>