<svg xmlns="http://www.w3.org/2000/svg" width="56" height="56" fill="none" viewBox="0 0 56 56"><rect width="56" height="56" fill="url(#a)" rx="8.4"/><rect width="53.9" height="53.9" x="1.05" y="1.05" stroke="#fff" stroke-opacity=".15" stroke-width="2.1" rx="7.35"/><g filter="url(#b)"><path fill="#e8e8e8" fill-rule="evenodd" d="M9.43 14.032c0-.463.183-.907.51-1.235a1.74 1.74 0 0 1 1.23-.511h9.873a8.68 8.68 0 0 1 6.963 3.494 8.7 8.7 0 0 1 3.073-2.574 8.7 8.7 0 0 1 3.898-.92h9.854c.462 0 .905.184 1.231.511.327.328.51.772.51 1.235v24.446a1.744 1.744 0 0 1-1.74 1.746H34.368a5.2 5.2 0 0 0-3.693 1.534l-1.444 1.446a1.74 1.74 0 0 1-2.46 0l-1.444-1.446a5.22 5.22 0 0 0-3.693-1.534H11.17a1.75 1.75 0 0 1-1.741-1.746zm20.322 6.984c0-1.389.55-2.721 1.53-3.704a5.22 5.22 0 0 1 3.693-1.534h8.113v20.953h-8.721c-1.648 0-3.25.468-4.624 1.332zm-3.491 17.052.01-11.81-.006-5.246a5.25 5.25 0 0 0-1.53-3.701 5.22 5.22 0 0 0-3.692-1.533H12.91v20.953h8.721a8.7 8.7 0 0 1 4.629 1.337" clip-rule="evenodd"/></g><defs><linearGradient id="a" x1="28" x2="28" y1="0" y2="56" gradientUnits="userSpaceOnUse"><stop stop-color="#1b2330"/><stop offset="1" stop-color="#10151d"/></linearGradient><filter id="b" width="51.429" height="51.429" x="2.286" y="2.286" color-interpolation-filters="sRGB" filterUnits="userSpaceOnUse"><feFlood flood-opacity="0" result="BackgroundImageFix"/><feColorMatrix in="SourceAlpha" result="hardAlpha" values="0 0 0 0 0 0 0 0 0 0 0 0 0 0 0 0 0 0 127 0"/><feOffset/><feGaussianBlur stdDeviation="2.857"/><feComposite in2="hardAlpha" operator="out"/><feColorMatrix values="0 0 0 0 0 0 0 0 0 0 0 0 0 0 0 0 0 0 0.25 0"/><feBlend in2="BackgroundImageFix" result="effect1_dropShadow_28_3255"/><feBlend in="SourceGraphic" in2="effect1_dropShadow_28_3255" result="shape"/></filter></defs></svg>