<svg xmlns="http://www.w3.org/2000/svg" width="56" height="56" fill="none" viewBox="0 0 56 56"><rect width="56" height="56" fill="url(#a)" rx="8.4"/><rect width="53.9" height="53.9" x="1.05" y="1.05" stroke="#fff" stroke-opacity=".15" stroke-width="2.1" rx="7.35"/><g filter="url(#b)"><path fill="#4285fd" d="M26.005 37.526a1.18 1.18 0 0 1 1.187 1.175c0 .618-.5 1.174-1.187 1.174a1.18 1.18 0 0 1-1.188-1.174c0-.68.563-1.175 1.188-1.175m18.37-7.17a1.18 1.18 0 0 1-1.187-1.174c0-.618.5-1.174 1.188-1.174a1.18 1.18 0 0 1 1.187 1.174c0 .618-.562 1.174-1.187 1.174m0-4.759c-1.999 0-3.623 1.607-3.623 3.585q0 .556.187 1.113l-11.935 6.304a3.63 3.63 0 0 0-3-1.545c-1.374 0-2.624.803-3.249 1.978l-10.748-5.563c-1.124-.618-2-2.41-1.874-4.141.062-.866.375-1.546.812-1.793.313-.185.625-.123 1.062.062l.063.062c2.874 1.483 12.185 6.305 12.56 6.49.625.247.937.37 2-.124l19.245-9.89c.313-.123.625-.37.625-.803 0-.556-.562-.803-.562-.803-1.125-.495-2.812-1.298-4.437-2.04-3.499-1.607-7.498-3.461-9.248-4.389-1.5-.803-2.75-.123-2.937 0l-.437.186c-7.936 3.956-18.434 9.086-19.059 9.457-1.062.618-1.75 1.916-1.812 3.523-.125 2.534 1.187 5.192 3.062 6.12l11.373 5.81c.25 1.73 1.812 3.09 3.561 3.09 2 0 3.562-1.546 3.625-3.523l12.497-6.676c.625.495 1.437.742 2.25.742 2 0 3.624-1.607 3.624-3.585a3.62 3.62 0 0 0-3.624-3.647"/></g><defs><linearGradient id="a" x1="28" x2="28" y1="0" y2="56" gradientUnits="userSpaceOnUse"><stop stop-color="#121e34"/><stop offset="1" stop-color="#0a121f"/></linearGradient><filter id="b" width="51.429" height="51.429" x="2.286" y="2.286" color-interpolation-filters="sRGB" filterUnits="userSpaceOnUse"><feFlood flood-opacity="0" result="BackgroundImageFix"/><feColorMatrix in="SourceAlpha" result="hardAlpha" values="0 0 0 0 0 0 0 0 0 0 0 0 0 0 0 0 0 0 127 0"/><feOffset/><feGaussianBlur stdDeviation="2.857"/><feComposite in2="hardAlpha" operator="out"/><feColorMatrix values="0 0 0 0 0 0 0 0 0 0 0 0 0 0 0 0 0 0 0.25 0"/><feBlend in2="BackgroundImageFix" result="effect1_dropShadow_28_3248"/><feBlend in="SourceGraphic" in2="effect1_dropShadow_28_3248" result="shape"/></filter></defs></svg>