<svg xmlns="http://www.w3.org/2000/svg" width="56" height="56" fill="none" viewBox="0 0 56 56"><rect width="56" height="56" fill="url(#a)" rx="8"/><rect width="53.9" height="53.9" x="1.05" y="1.05" stroke="#fff" stroke-opacity=".15" stroke-width="2.1" rx="6.95"/><g stroke="#3fb950" stroke-linecap="round" stroke-linejoin="round" stroke-width="2.86" filter="url(#b)"><path d="M16.334 23a5 5 0 1 0 0-10 5 5 0 0 0 0 10m0 0v20m23.333 0a5 5 0 1 0 0-10 5 5 0 0 0 0 10M33 23l-5-5 5-5"/><path d="M28 18h8.333a3.334 3.334 0 0 1 3.334 3.333V33"/></g><defs><linearGradient id="a" x1="28" x2="28" y1="0" y2="56" gradientUnits="userSpaceOnUse"><stop stop-color="#181f29"/><stop offset="1" stop-color="#0f131a"/></linearGradient><filter id="b" width="51.429" height="51.429" x="2.286" y="2.286" color-interpolation-filters="sRGB" filterUnits="userSpaceOnUse"><feFlood flood-opacity="0" result="BackgroundImageFix"/><feColorMatrix in="SourceAlpha" result="hardAlpha" values="0 0 0 0 0 0 0 0 0 0 0 0 0 0 0 0 0 0 127 0"/><feOffset/><feGaussianBlur stdDeviation="2.857"/><feComposite in2="hardAlpha" operator="out"/><feColorMatrix values="0 0 0 0 0 0 0 0 0 0 0 0 0 0 0 0 0 0 0.25 0"/><feBlend in2="BackgroundImageFix" result="effect1_dropShadow_8_66"/><feBlend in="SourceGraphic" in2="effect1_dropShadow_8_66" result="shape"/></filter></defs></svg>