<svg xmlns="http://www.w3.org/2000/svg" width="56" height="56" fill="none" viewBox="0 0 56 56"><rect width="56" height="56" fill="url(#a)" rx="8.4"/><rect width="53.9" height="53.9" x="1.05" y="1.05" stroke="#fff" stroke-opacity=".15" stroke-width="2.1" rx="7.35"/><g filter="url(#b)"><path fill="#fff" d="M25.98 27.279a.964.964 0 0 0-.865.887.96.96 0 0 0 .733.996s2.366.782 6.396 1.102c3.236.261 6.905-.22 6.905-.22a.97.97 0 0 0 .89-.548.95.95 0 0 0-.132-1.027.98.98 0 0 0-1.002-.309s-3.59.441-6.51.2c-3.845-.3-5.945-1.001-5.945-1.001a1 1 0 0 0-.47 0zm0-4.75a.964.964 0 0 0-.816.88.96.96 0 0 0 .684.983s2.366.781 6.396 1.102c3.236.26 6.905-.221 6.905-.221a.98.98 0 0 0 .774-.58.93.93 0 0 0-.122-.952.98.98 0 0 0-.897-.371s-3.59.44-6.51.2c-3.844-.3-5.944-1.002-5.944-1.002a1 1 0 0 0-.47 0zm0-4.753a.964.964 0 0 0-.865.887.96.96 0 0 0 .733.997s2.366.761 6.396 1.102c3.236.26 6.905-.221 6.905-.221a.98.98 0 0 0 .774-.58.93.93 0 0 0-.122-.952.98.98 0 0 0-.897-.371s-3.59.44-6.51.2c-3.844-.3-5.944-1.002-5.944-1.002a1 1 0 0 0-.47 0zm0-4.753a.964.964 0 0 0-.865.888.96.96 0 0 0 .733.996s2.366.781 6.396 1.102c3.236.26 6.905-.22 6.905-.22a.97.97 0 0 0 .89-.548.95.95 0 0 0-.132-1.028.98.98 0 0 0-1.002-.308s-3.59.44-6.51.2c-3.845-.3-5.945-1.002-5.945-1.002a1 1 0 0 0-.47 0zm-6.747-5.011c-5.068 0-6.946 1.562-6.946 1.562v37.293s1.841-1.562 7.769-1.322 7.15 2.29 14.437 2.434c7.284.2 9.116-1.102 9.116-1.102l.106-38.018s-3.28.922-9.66.963c-6.38 0-7.914-1.604-13.77-1.804q-.525-.02-1.05-.018zm4.235 2.434s3.066 1.002 8.732 1.283c4.787.24 9.588-.46 9.588-.46v33.788s-2.43 1.262-8.504.82c-4.707-.34-9.886-2.09-9.886-2.09zm-2.957.875c.545 0 .985.435.985.972s-.441.972-.985.972c0 0-1.586.008-2.555.2-1.626.2-2.73.742-2.73.742a.99.99 0 0 1-1.02.012.96.96 0 0 1 .112-1.714s1.44-.742 3.447-.942c1.159-.2 2.747-.2 2.747-.2zm-.945 4.765q.472-.013.945 0a.97.97 0 0 1 .895.962.97.97 0 0 1-.895.963s-1.586.008-2.555.2c-1.626.2-2.73.741-2.73.741a.984.984 0 0 1-1.256-.435.96.96 0 0 1 .346-1.269s1.44-.76 3.448-.942c.58 0 1.267 0 1.802-.2zm.945 4.748c.545 0 .985.435.985.972s-.441.972-.985.972c0 0-1.586-.01-2.555 0-1.626.2-2.73.741-2.73.741a.984.984 0 0 1-1.256-.435.96.96 0 0 1 .346-1.269s1.44-.74 3.448-.942c1.159-.2 2.747-.2 2.747-.2z"/></g><defs><linearGradient id="a" x1="28" x2="28" y1="0" y2="56" gradientUnits="userSpaceOnUse"><stop stop-color="#24292c"/><stop offset="1" stop-color="#171a1c"/></linearGradient><filter id="b" width="51.429" height="51.429" x="2.286" y="2.286" color-interpolation-filters="sRGB" filterUnits="userSpaceOnUse"><feFlood flood-opacity="0" result="BackgroundImageFix"/><feColorMatrix in="SourceAlpha" result="hardAlpha" values="0 0 0 0 0 0 0 0 0 0 0 0 0 0 0 0 0 0 127 0"/><feOffset/><feGaussianBlur stdDeviation="2.857"/><feComposite in2="hardAlpha" operator="out"/><feColorMatrix values="0 0 0 0 0 0 0 0 0 0 0 0 0 0 0 0 0 0 0.25 0"/><feBlend in2="BackgroundImageFix" result="effect1_dropShadow_28_3262"/><feBlend in="SourceGraphic" in2="effect1_dropShadow_28_3262" result="shape"/></filter></defs></svg>