<svg xmlns="http://www.w3.org/2000/svg" width="213" height="56" fill="none" viewBox="0 0 213 56"><rect width="213" height="56" fill="url(#a)" rx="8"/><rect width="210.9" height="53.9" x="1.05" y="1.05" stroke="#fff" stroke-opacity=".15" stroke-width="2.1" rx="6.95"/><g filter="url(#b)"><path fill="url(#c)" fill-rule="evenodd" d="M18.679 8.157c-.377.29-.44.802-.44 3.547 0 2.011-.038 2.75-.144 2.816-.078.05-1.152.254-2.385.455l-2.242.365-.031 2.993c-.024 2.305.003 3.02.118 3.11.1.08.836.01 2.269-.22 1.166-.185 2.187-.313 2.268-.283.117.043.142 2.077.118 9.862l-.03 9.807-2.356.06-2.356.06V48h20.495v-7.271l-2.414-.06-2.415-.06-.03-10.701c-.024-8.5 0-10.713.118-10.756.152-.055 13.695-2.183 14.223-2.235.279-.027.297.007.327.627l.033.656-2.306 2.145-2.305 2.146-.672.06-.672.059v4.768h12.721V22.61l-.614-.036-.615-.036-1.947-2.158-1.947-2.158v-.742c0-.881.065-.951.99-1.065.876-.107 1.011-.161 1.015-.404.005-.378-.86-5.8-.941-5.891-.045-.051-3.937.526-8.65 1.284-4.712.756-8.617 1.345-8.677 1.307s-.11-.889-.11-1.891c0-1.894-.106-2.495-.476-2.696-.341-.185-9.677-.154-9.92.033m8.486 3.238c.037 1.742.058 1.693-.778 1.854l-.62.118-2.115-1.684c-1.163-.926-2.115-1.731-2.115-1.788s1.259-.09 2.797-.072l2.798.032zm-4.686 1.6c.883.718.854.76-.697 1.007-1.763.281-1.659.36-1.659-1.262 0-1.81-.218-1.833 2.356.256m4.688 7.202c.04.79-.015.817-.638.315-.252-.204-.56-.444-.686-.534-.289-.207-.223-.27.418-.4.835-.167.867-.145.906.62m18.538.926c.603.658 1.115 1.248 1.137 1.311.024.073-.889.116-2.445.116-1.365 0-2.484-.04-2.486-.09-.004-.103 2.497-2.52 2.616-2.527.044-.003.574.533 1.178 1.19m-21.606-.29c1.295 1.046 1.346 1.012-1.473.975l-2.444-.032-.037-.523c-.05-.695-.027-.71 1.522-.962.738-.12 1.368-.224 1.4-.23.033-.007.497.34 1.032.772m3.065 4.727c.018 1.033-.009 1.877-.059 1.876-.133-.002-4.56-3.555-4.607-3.698-.027-.079.765-.109 2.297-.088l2.337.033zm-4.382.75c1.316 1.046 2.353 1.944 2.303 1.994s-1.173.078-2.497.06l-2.406-.032-.032-2.008c-.024-1.468.004-1.995.102-1.962.075.025 1.213.902 2.53 1.948m4.382 5.708c.018.978-.008 1.817-.059 1.863-.09.083-4.529-3.382-4.607-3.597-.024-.065.909-.097 2.297-.078l2.337.033zm-4.39.804c1.331 1.06 2.375 1.974 2.32 2.03-.054.055-1.182.086-2.506.068l-2.406-.032-.032-1.997c-.02-1.28.01-1.996.086-1.996.065 0 1.207.867 2.538 1.927m4.39 5.731c.025 1.463 0 1.876-.118 1.87-.195-.01-4.476-3.461-4.54-3.66-.038-.12.44-.145 2.289-.12l2.337.033zm-2.924 2.03c.003.05-.909.077-2.026.06l-2.032-.034-.033-1.483c-.018-.816-.007-1.554.026-1.64.058-.152 4.052 2.89 4.065 3.097" clip-rule="evenodd"/></g><g filter="url(#d)"><path fill="#e8e8e8" d="M61.278 24.5V12.864h4.148q1.353 0 2.245.465.897.466 1.34 1.29.444.82.444 1.892 0 1.07-.45 1.881-.443.807-1.34 1.256-.892.449-2.245.449h-3.142v-1.512h2.983q.853 0 1.387-.244.54-.245.79-.71.25-.466.25-1.12 0-.659-.256-1.142a1.65 1.65 0 0 0-.79-.738q-.534-.262-1.403-.262h-2.205V24.5zm5.745-5.25 2.875 5.25h-2l-2.818-5.25zm8.084 5.426q-1.29 0-2.222-.551a3.74 3.74 0 0 1-1.432-1.562q-.5-1.012-.5-2.37 0-1.341.5-2.364a3.9 3.9 0 0 1 1.41-1.596q.908-.574 2.124-.574.74 0 1.432.244.693.244 1.244.768.551.522.87 1.357.318.83.318 2.018v.602h-6.938v-1.273h5.273q0-.67-.273-1.187a2.06 2.06 0 0 0-.767-.824q-.489-.302-1.147-.302-.717 0-1.25.353a2.36 2.36 0 0 0-.819.909q-.284.556-.284 1.21v.994q0 .876.307 1.489.313.615.87.938.556.318 1.3.318.483 0 .881-.137.398-.142.688-.42.289-.279.443-.688l1.608.29q-.194.71-.693 1.244a3.36 3.36 0 0 1-1.245.824q-.744.29-1.699.29m11.52 3.097v-4.631h-.101q-.154.279-.444.636-.283.358-.784.625-.5.267-1.295.268-1.058 0-1.886-.54-.825-.546-1.296-1.552-.466-1.01-.466-2.426 0-1.415.472-2.42.478-1.006 1.306-1.54a3.4 3.4 0 0 1 1.881-.534q.813 0 1.307.273.499.267.773.625.278.359.432.63h.142v-1.414h1.659v12zm-2.25-4.551q.734 0 1.24-.387.51-.392.772-1.085.267-.693.267-1.614 0-.909-.261-1.59-.261-.683-.767-1.063t-1.25-.38q-.767 0-1.279.397-.51.398-.772 1.085-.255.688-.256 1.551 0 .875.261 1.574.262.699.773 1.108.517.404 1.273.404M96.14 20.88v-5.108h1.705V24.5h-1.67v-1.511h-.092q-.3.698-.965 1.164-.66.46-1.643.46-.84 0-1.488-.369-.642-.375-1.012-1.108-.363-.732-.363-1.812v-5.551h1.699v5.346q0 .893.494 1.42.494.53 1.284.53.478 0 .949-.24.477-.239.79-.721.318-.483.312-1.227m3.987 3.619v-8.727h1.699V24.5zm.858-10.074a1.08 1.08 0 0 1-.761-.295.96.96 0 0 1-.312-.716.95.95 0 0 1 .312-.716q.318-.3.761-.301.444 0 .756.3a.94.94 0 0 1 .318.717.95.95 0 0 1-.318.716 1.06 1.06 0 0 1-.756.295m3.127 10.074v-8.727h1.642v1.386h.091q.238-.705.841-1.108.607-.41 1.375-.409a7 7 0 0 1 .721.04v1.625a3 3 0 0 0-.363-.063 3.5 3.5 0 0 0-.523-.04q-.603 0-1.074.256a1.9 1.9 0 0 0-1.011 1.71v5.33zm9.589.176q-1.29 0-2.221-.551a3.73 3.73 0 0 1-1.432-1.562q-.5-1.012-.5-2.37 0-1.341.5-2.364a3.9 3.9 0 0 1 1.409-1.596q.909-.574 2.125-.574.739 0 1.432.244t1.244.768q.552.522.869 1.357.32.83.319 2.018v.602h-6.938v-1.273h5.273q0-.67-.273-1.187a2.06 2.06 0 0 0-.767-.824q-.488-.302-1.148-.302-.716 0-1.25.353a2.36 2.36 0 0 0-.818.909 2.6 2.6 0 0 0-.284 1.21v.994q0 .876.307 1.489.312.615.869.938.557.318 1.301.318.483 0 .881-.137a1.83 1.83 0 0 0 1.131-1.108l1.608.29q-.193.71-.694 1.244a3.35 3.35 0 0 1-1.244.824q-.744.29-1.699.29m12.169-6.773-1.539.273a1.8 1.8 0 0 0-.307-.562 1.5 1.5 0 0 0-.557-.438q-.353-.17-.881-.17-.721 0-1.204.323-.483.319-.483.824 0 .438.324.705.323.267 1.045.438l1.386.318q1.205.277 1.796.858.591.58.591 1.505 0 .785-.455 1.398-.449.608-1.255.954-.802.348-1.858.347-1.467 0-2.392-.625-.927-.63-1.137-1.79l1.642-.25q.153.642.631.972.477.324 1.244.324.836 0 1.335-.347.5-.352.5-.858a.9.9 0 0 0-.306-.687q-.302-.279-.927-.42l-1.477-.325q-1.22-.277-1.807-.886-.579-.607-.579-1.54a2.2 2.2 0 0 1 .432-1.352q.431-.579 1.193-.903.761-.33 1.744-.33 1.415 0 2.227.614.813.608 1.074 1.63"/><path fill="url(#e)" d="M63.61 43.5h-3.212l4.172-12.364h3.978L72.72 43.5h-3.212l-2.904-9.249h-.096zm-.428-4.866h6.712v2.27h-6.713zM74.05 43.5v-9.273h2.867v1.69h.097q.254-.917.827-1.364a2.1 2.1 0 0 1 1.334-.453q.206 0 .423.03.218.025.404.08v2.565a3 3 0 0 0-.555-.115 5 5 0 0 0-.604-.042q-.525 0-.947.235a1.7 1.7 0 0 0-.659.646 1.9 1.9 0 0 0-.235.966V43.5zm11.002.175q-1.467 0-2.517-.604a4.1 4.1 0 0 1-1.606-1.678q-.561-1.08-.561-2.5 0-1.424.561-2.498a4.1 4.1 0 0 1 1.612-1.685q1.05-.603 2.505-.604 1.286 0 2.24.465.96.465 1.497 1.316.543.846.574 1.987h-2.76q-.084-.713-.482-1.117-.393-.405-1.026-.405-.514 0-.9.29-.387.284-.604.845-.21.556-.211 1.377 0 .82.211 1.388.217.561.604.851.386.285.9.284.41 0 .724-.175.32-.175.525-.513a2.05 2.05 0 0 0 .26-.833h2.759q-.043 1.146-.574 2.004a3.56 3.56 0 0 1-1.479 1.334q-.948.471-2.252.471m8.767-5.463V43.5h-2.952V31.136h2.856v4.794h.102a2.7 2.7 0 0 1 1.027-1.34q.718-.484 1.757-.484.977 0 1.702.435a2.9 2.9 0 0 1 1.123 1.214q.404.785.398 1.835v5.91H96.88v-5.33q.006-.773-.386-1.208-.393-.435-1.105-.435-.465 0-.821.206a1.4 1.4 0 0 0-.55.573q-.192.375-.199.906m7.856 5.288v-9.273h2.952V43.5zm1.479-10.353q-.622 0-1.069-.41a1.32 1.32 0 0 1-.446-1.003q0-.579.446-.99a1.5 1.5 0 0 1 1.069-.417 1.5 1.5 0 0 1 1.069.417q.446.411.446.99 0 .585-.446 1.002-.44.41-1.069.41m8.586 1.08V36.4h-5.85v-2.174zm-4.624-2.221h2.952v8.578q0 .272.084.44a.53.53 0 0 0 .26.236q.169.067.404.067.17 0 .357-.03.192-.038.289-.06l.447 2.13q-.211.06-.598.151-.38.09-.911.115-1.038.048-1.781-.242a2.3 2.3 0 0 1-1.129-.917q-.386-.622-.374-1.564zm10.365 11.67q-1.455 0-2.511-.574a3.96 3.96 0 0 1-1.618-1.648q-.561-1.075-.562-2.554 0-1.437.568-2.511.567-1.08 1.6-1.679 1.032-.603 2.433-.604.99 0 1.811.308a3.9 3.9 0 0 1 1.418.912q.599.604.93 1.491.332.882.332 2.023v.736h-8.059V37.86h5.312a1.66 1.66 0 0 0-.223-.839 1.5 1.5 0 0 0-.598-.573 1.7 1.7 0 0 0-.863-.211q-.495 0-.887.223a1.68 1.68 0 0 0-.864 1.449v1.745q0 .567.224.996.224.421.633.658.411.235.978.235.393 0 .713-.109.32-.108.549-.32.23-.21.344-.519l2.711.079a3.35 3.35 0 0 1-.743 1.587q-.567.67-1.491 1.045-.924.368-2.137.368m10.237 0q-1.467 0-2.517-.605a4.1 4.1 0 0 1-1.606-1.678q-.561-1.08-.561-2.5 0-1.424.561-2.498a4.1 4.1 0 0 1 1.612-1.685q1.05-.603 2.505-.604 1.286 0 2.24.465a3.56 3.56 0 0 1 1.497 1.316q.543.846.574 1.987h-2.759q-.085-.713-.483-1.117-.393-.405-1.027-.405-.513 0-.899.29-.387.284-.604.845-.211.556-.211 1.377 0 .82.211 1.388.217.561.604.851.386.285.899.284.411 0 .725-.175.32-.175.525-.513.205-.344.26-.833h2.759q-.043 1.146-.574 2.004a3.55 3.55 0 0 1-1.479 1.334q-.947.471-2.252.471m11.049-9.449v2.174h-5.849v-2.174zm-4.624-2.221h2.952v8.578q0 .272.085.44.09.165.259.236.17.067.405.067.168 0 .356-.03.193-.038.29-.06l.446 2.13q-.21.06-.597.151-.381.09-.912.115-1.038.048-1.781-.242a2.3 2.3 0 0 1-1.129-.917q-.386-.622-.374-1.564zm12.113 7.492v-5.27h2.946V43.5h-2.813v-1.727h-.097a2.7 2.7 0 0 1-1.05 1.353q-.737.495-1.781.495-.948 0-1.666-.435a2.96 2.96 0 0 1-1.117-1.213q-.398-.785-.404-1.836v-5.91h2.952v5.33q.006.755.398 1.19.393.435 1.069.435.44 0 .79-.193.357-.2.562-.574.211-.38.211-.917m4.825 4.002v-9.273h2.868v1.69h.096q.254-.917.827-1.364a2.1 2.1 0 0 1 1.335-.453q.204 0 .422.03.218.025.405.08v2.565a3 3 0 0 0-.556-.115 5 5 0 0 0-.603-.042q-.526 0-.948.235a1.7 1.7 0 0 0-.658.646 1.9 1.9 0 0 0-.236.966V43.5zm9.243 3.477q-.531 0-1.002-.084a4 4 0 0 1-.809-.212l.652-2.143q.434.145.784.17.357.023.61-.115.26-.133.399-.477l.114-.278-3.296-9.61h3.091l1.708 6.616h.097l1.733-6.617h3.109l-3.496 10.16a4.3 4.3 0 0 1-.718 1.34 3.1 3.1 0 0 1-1.189.918q-.725.332-1.787.332m14.648-3.477h-3.211l4.171-12.364h3.979l4.171 12.364h-3.212l-2.903-9.249h-.097zm-.428-4.866h6.713v2.27h-6.713zm10.869 4.866V31.136h5.107q1.389 0 2.397.544 1.014.537 1.564 1.503.549.96.549 2.233 0 1.28-.561 2.24a3.77 3.77 0 0 1-1.588 1.48q-1.032.525-2.451.524h-3.151v-2.354h2.595q.677 0 1.129-.235.46-.236.695-.658.235-.429.235-.996 0-.575-.235-.99a1.6 1.6 0 0 0-.695-.652q-.458-.23-1.129-.23h-1.473V43.5zm14.078-12.364V43.5h-2.988V31.136z"/></g><defs><linearGradient id="a" x1="106.5" x2="106.5" y1="0" y2="56" gradientUnits="userSpaceOnUse"><stop stop-color="#311d14"/><stop offset="1" stop-color="#1c0b0b"/></linearGradient><linearGradient id="c" x1="32" x2="32" y1="8" y2="48" gradientUnits="userSpaceOnUse"><stop stop-color="#e05718"/><stop offset="1" stop-color="#d63833"/></linearGradient><linearGradient id="e" x1="136.066" x2="136.066" y1="28.5" y2="43.731" gradientUnits="userSpaceOnUse"><stop stop-color="#e05718"/><stop offset="1" stop-color="#d63833"/></linearGradient><filter id="b" width="51.429" height="51.429" x="6.286" y="2.286" color-interpolation-filters="sRGB" filterUnits="userSpaceOnUse"><feFlood flood-opacity="0" result="BackgroundImageFix"/><feColorMatrix in="SourceAlpha" result="hardAlpha" values="0 0 0 0 0 0 0 0 0 0 0 0 0 0 0 0 0 0 127 0"/><feOffset/><feGaussianBlur stdDeviation="2.857"/><feComposite in2="hardAlpha" operator="out"/><feColorMatrix values="0 0 0 0 0 0 0 0 0 0 0 0 0 0 0 0 0 0 0.25 0"/><feBlend in2="BackgroundImageFix" result="effect1_dropShadow_28_720"/><feBlend in="SourceGraphic" in2="effect1_dropShadow_28_720" result="shape"/></filter><filter id="d" width="152.2" height="48.677" x="54.4" y="3.9" color-interpolation-filters="sRGB" filterUnits="userSpaceOnUse"><feFlood flood-opacity="0" result="BackgroundImageFix"/><feColorMatrix in="SourceAlpha" result="hardAlpha" values="0 0 0 0 0 0 0 0 0 0 0 0 0 0 0 0 0 0 127 0"/><feOffset/><feGaussianBlur stdDeviation="2.8"/><feComposite in2="hardAlpha" operator="out"/><feColorMatrix values="0 0 0 0 0 0 0 0 0 0 0 0 0 0 0 0 0 0 0.25 0"/><feBlend in2="BackgroundImageFix" result="effect1_dropShadow_28_720"/><feBlend in="SourceGraphic" in2="effect1_dropShadow_28_720" result="shape"/></filter></defs></svg>