<svg xmlns="http://www.w3.org/2000/svg" width="212" height="56" fill="none" viewBox="0 0 212 56"><rect width="212" height="56" fill="url(#a)" rx="8"/><rect width="209.9" height="53.9" x="1.05" y="1.05" stroke="#fff" stroke-opacity=".15" stroke-width="2.1" rx="6.95"/><g filter="url(#b)"><path fill="#115110" d="M33.548 8v2.873h-2.874v5.746H27.8v2.873h-2.875v2.652h-2.874v2.873h-2.874v2.873h-2.874v2.872h-2.874v5.746h2.874v2.873h2.874v2.873h2.874v2.873h2.874V48H27.8v-2.873h2.874v-2.873h2.874v-2.873h2.874v-2.873h2.874v-2.873h2.653v-2.873h5.749V27.89h2.874v-5.746h-2.875v-2.652h-2.874v-2.873H41.95v-2.873h-2.653v-2.873h-2.874V8z"/><path fill="#9cff55" d="M33.548 10.873v2.873h2.874v2.873h2.874v2.873h2.653v2.652h2.875v-2.652h-2.875v-2.873h-2.653v-2.873h-2.874v-2.873z"/><path fill="#90eb4b" d="M33.548 13.746v2.873h2.873v-2.873z"/><path fill="#9cff55" d="M30.674 16.619v5.525h-5.748v2.873H22.05v2.873h-2.874v5.745h2.874v2.873h2.875v2.873h5.748v-5.746H27.8v-2.873h5.748v2.873h2.874V27.89h-2.874v-2.873h5.748v-2.873h-2.874v-2.652h-2.874v-2.873z"/><path fill="#115110" d="M33.548 16.619v2.873h2.874v2.652h2.874v2.873h2.653v-2.873h-2.653v-2.652h-2.874v-2.873z"/><path fill="#89dc42" d="M36.422 16.619v2.873h2.873v-2.873z"/><path fill="#90eb4b" d="M27.8 19.492v2.652h2.873v-2.652z"/><path fill="#89dc42" d="M39.296 19.492v2.652h2.652v-2.652z"/><path fill="#90eb4b" d="M30.674 22.144v2.873h2.873v-2.873z"/><path fill="#89dc42" d="M41.95 22.144v2.873h2.872v-2.873z"/><path fill="#90eb4b" d="M33.548 25.017v2.873h5.748v-2.873z"/><path fill="#89dc42" d="M39.296 25.017v2.873h-2.874v5.745h2.874v-2.873h2.653v-5.745z"/><path fill="#5e8d2f" d="M44.824 25.017v2.873h2.872v-2.873z"/><path fill="#90eb4b" d="M24.926 27.89v2.872h2.873V27.89z"/><path fill="#80cc3d" d="M16.303 30.762v2.873h2.874v2.873h2.874v2.873h2.875v2.873H27.8v-2.873h-2.875v-2.873h-2.874v-2.873h-2.874v-2.873z"/><path fill="#90eb4b" d="M27.8 30.762v2.873h5.748v-2.873z"/><path fill="#6eaa33" d="M16.303 33.635v2.873h2.873v-2.873z"/><path fill="#89dc42" d="M30.674 33.635v5.746h2.874v-2.873h2.874v-2.873z"/><path fill="#6eaa33" d="M19.177 36.508v2.873h2.874v-2.873zm2.874 2.873v2.873h2.875v-2.873z"/><path fill="#89dc42" d="M27.8 39.381v2.873h2.873v-2.873z"/><path fill="#6eaa33" d="M24.926 42.254v2.873h2.873v-2.873z"/></g><g filter="url(#c)"><path fill="#e8e8e8" d="M61.278 24.5V12.864h4.148q1.353 0 2.245.465.897.466 1.34 1.29.444.82.444 1.892 0 1.07-.45 1.881-.443.807-1.34 1.256-.892.449-2.245.449h-3.142v-1.512h2.983q.853 0 1.387-.244.54-.245.79-.71.25-.466.25-1.12 0-.659-.256-1.142a1.65 1.65 0 0 0-.79-.738q-.534-.262-1.403-.262h-2.205V24.5zm5.745-5.25 2.875 5.25h-2l-2.818-5.25zm8.084 5.426q-1.29 0-2.222-.551a3.74 3.74 0 0 1-1.432-1.562q-.5-1.012-.5-2.37 0-1.341.5-2.364a3.9 3.9 0 0 1 1.41-1.596q.908-.574 2.124-.574.74 0 1.432.244.693.244 1.244.768.551.522.87 1.357.318.83.318 2.018v.602h-6.938v-1.273h5.273q0-.67-.273-1.187a2.06 2.06 0 0 0-.767-.824q-.489-.302-1.147-.302-.717 0-1.25.353a2.36 2.36 0 0 0-.819.909q-.284.556-.284 1.21v.994q0 .876.307 1.489.313.615.87.938.556.318 1.3.318.483 0 .881-.137.398-.142.688-.42.289-.279.443-.688l1.608.29q-.194.71-.693 1.244a3.36 3.36 0 0 1-1.245.824q-.744.29-1.699.29m11.52 3.097v-4.631h-.101q-.154.279-.444.636-.283.358-.784.625-.5.267-1.295.268-1.058 0-1.886-.54-.825-.546-1.296-1.552-.466-1.01-.466-2.426 0-1.415.472-2.42.478-1.006 1.306-1.54a3.4 3.4 0 0 1 1.881-.534q.813 0 1.307.273.499.267.773.625.278.359.432.63h.142v-1.414h1.659v12zm-2.25-4.551q.734 0 1.24-.387.51-.392.772-1.085.267-.693.267-1.614 0-.909-.261-1.59-.261-.683-.767-1.063t-1.25-.38q-.767 0-1.279.397-.51.398-.772 1.085-.255.688-.256 1.551 0 .875.261 1.574.262.699.773 1.108.517.404 1.273.404M96.14 20.88v-5.108h1.705V24.5h-1.67v-1.511h-.092q-.3.698-.965 1.164-.66.46-1.643.46-.84 0-1.488-.369-.642-.375-1.012-1.108-.363-.732-.363-1.812v-5.551h1.699v5.346q0 .893.494 1.42.494.53 1.284.53.478 0 .949-.24.477-.239.79-.721.318-.483.312-1.227m3.987 3.619v-8.727h1.699V24.5zm.858-10.074a1.08 1.08 0 0 1-.761-.295.96.96 0 0 1-.312-.716.95.95 0 0 1 .312-.716q.318-.3.761-.301.444 0 .756.3a.94.94 0 0 1 .318.717.95.95 0 0 1-.318.716 1.06 1.06 0 0 1-.756.295m3.127 10.074v-8.727h1.642v1.386h.091q.238-.705.841-1.108.607-.41 1.375-.409a7 7 0 0 1 .721.04v1.625a3 3 0 0 0-.363-.063 3.5 3.5 0 0 0-.523-.04q-.603 0-1.074.256a1.9 1.9 0 0 0-1.011 1.71v5.33zm9.589.176q-1.29 0-2.221-.551a3.73 3.73 0 0 1-1.432-1.562q-.5-1.012-.5-2.37 0-1.341.5-2.364a3.9 3.9 0 0 1 1.409-1.596q.909-.574 2.125-.574.739 0 1.432.244t1.244.768q.552.522.869 1.357.32.83.319 2.018v.602h-6.938v-1.273h5.273q0-.67-.273-1.187a2.06 2.06 0 0 0-.767-.824q-.488-.302-1.148-.302-.716 0-1.25.353a2.36 2.36 0 0 0-.818.909 2.6 2.6 0 0 0-.284 1.21v.994q0 .876.307 1.489.312.615.869.938.557.318 1.301.318.483 0 .881-.137a1.83 1.83 0 0 0 1.131-1.108l1.608.29q-.193.71-.694 1.244a3.35 3.35 0 0 1-1.244.824q-.744.29-1.699.29m12.169-6.773-1.539.273a1.8 1.8 0 0 0-.307-.562 1.5 1.5 0 0 0-.557-.438q-.353-.17-.881-.17-.721 0-1.204.323-.483.319-.483.824 0 .438.324.705.323.267 1.045.438l1.386.318q1.205.277 1.796.858.591.58.591 1.505 0 .785-.455 1.398-.449.608-1.255.954-.802.348-1.858.347-1.467 0-2.392-.625-.927-.63-1.137-1.79l1.642-.25q.153.642.631.972.477.324 1.244.324.836 0 1.335-.347.5-.352.5-.858a.9.9 0 0 0-.306-.687q-.302-.279-.927-.42l-1.477-.325q-1.22-.277-1.807-.886-.579-.607-.579-1.54a2.2 2.2 0 0 1 .432-1.352q.431-.579 1.193-.903.761-.33 1.744-.33 1.415 0 2.227.614.813.608 1.074 1.63"/><path fill="url(#d)" d="M72.158 35.616H69.14q-.06-.465-.248-.84a2 2 0 0 0-.495-.64 2.1 2.1 0 0 0-.73-.404 2.8 2.8 0 0 0-.924-.145q-.9 0-1.551.441-.646.44-.996 1.274-.344.832-.344 2.016 0 1.232.35 2.065.356.827.996 1.25.646.416 1.527.416.495 0 .9-.127.41-.126.718-.368.314-.247.513-.598a2.4 2.4 0 0 0 .284-.803l3.018.019a4.6 4.6 0 0 1-.477 1.617 5.2 5.2 0 0 1-1.08 1.455 5.1 5.1 0 0 1-1.678 1.039q-.984.386-2.258.386-1.679 0-3.007-.736-1.322-.743-2.088-2.162-.767-1.418-.767-3.453 0-2.04.779-3.459.778-1.419 2.107-2.155 1.327-.737 2.976-.737 1.122 0 2.076.314a5 5 0 0 1 1.679.906q.724.592 1.177 1.455.453.862.561 1.974m4.662-4.48V43.5h-2.952V31.136zm6.208 12.54q-1.46 0-2.512-.599a4.1 4.1 0 0 1-1.611-1.678q-.562-1.08-.562-2.505 0-1.432.562-2.505.567-1.08 1.611-1.679 1.05-.603 2.512-.604 1.461 0 2.505.604 1.05.598 1.612 1.678.567 1.075.568 2.506 0 1.425-.568 2.505a4.07 4.07 0 0 1-1.612 1.678q-1.044.598-2.505.598m.018-2.229q.531 0 .9-.326.368-.326.56-.905.2-.58.2-1.34 0-.773-.2-1.353-.192-.58-.56-.905a1.3 1.3 0 0 0-.9-.326 1.38 1.38 0 0 0-.93.326q-.374.327-.573.905-.193.58-.193 1.353 0 .76.193 1.34.2.58.573.905.381.327.93.326m11.413-7.22V36.4h-5.85v-2.174zm-4.624-2.221h2.952v8.578q0 .272.084.44.09.165.26.236.168.067.404.067.17 0 .356-.03.194-.038.29-.06l.447 2.13q-.211.06-.598.151a5 5 0 0 1-.911.115q-1.039.048-1.781-.242a2.3 2.3 0 0 1-1.13-.917q-.386-.622-.373-1.564zm9.281 6.206V43.5h-2.952V31.136h2.856v4.794h.102a2.7 2.7 0 0 1 1.027-1.34q.718-.484 1.756-.484.978 0 1.703.435.724.428 1.123 1.214.404.785.398 1.835v5.91h-2.952v-5.33q.006-.773-.386-1.208-.393-.435-1.105-.435-.465 0-.821.206a1.4 1.4 0 0 0-.55.573q-.192.375-.199.906m22.731-2.596h-3.019q-.06-.465-.247-.84a2.1 2.1 0 0 0-.495-.64 2.1 2.1 0 0 0-.731-.404 2.8 2.8 0 0 0-.923-.145q-.9 0-1.552.441-.645.44-.996 1.274-.344.832-.344 2.016 0 1.232.35 2.065.357.827.996 1.25.646.416 1.528.416.495 0 .899-.127.41-.126.718-.368a2 2 0 0 0 .514-.598 2.5 2.5 0 0 0 .283-.803l3.019.019a4.6 4.6 0 0 1-.477 1.617 5.2 5.2 0 0 1-1.081 1.455 5.1 5.1 0 0 1-1.678 1.039q-.984.386-2.258.386-1.678 0-3.006-.736-1.323-.743-2.089-2.162-.767-1.418-.767-3.453 0-2.04.779-3.459t2.107-2.155 2.976-.737a6.6 6.6 0 0 1 2.077.314 5 5 0 0 1 1.678.906q.725.592 1.177 1.455.453.862.562 1.974m6.038 8.06q-1.461 0-2.511-.599a4.1 4.1 0 0 1-1.612-1.678q-.561-1.08-.561-2.505 0-1.432.561-2.505.567-1.08 1.612-1.679 1.05-.603 2.511-.604 1.46 0 2.506.604 1.05.598 1.611 1.678.568 1.075.568 2.506 0 1.425-.568 2.505a4.07 4.07 0 0 1-1.611 1.678q-1.045.598-2.506.598m.018-2.229q.532 0 .9-.326t.561-.905q.2-.58.2-1.34 0-.773-.2-1.353-.193-.58-.561-.905a1.3 1.3 0 0 0-.9-.326q-.55 0-.929.326-.375.327-.574.905-.193.58-.193 1.353 0 .76.193 1.34.2.58.574.905.38.327.929.326m9.131-3.235V43.5h-2.952v-9.273h2.807v1.703h.103a2.6 2.6 0 0 1 1.05-1.334q.743-.49 1.769-.49.978 0 1.697.441.725.435 1.122 1.22.405.779.399 1.823v5.91h-2.952v-5.33q.006-.773-.393-1.208-.391-.435-1.092-.435-.465 0-.821.206a1.36 1.36 0 0 0-.544.573q-.186.375-.193.906m13.093-3.985v2.174h-5.965v-2.174zm-4.721 9.273v-9.744q0-1.075.404-1.78.405-.713 1.123-1.063.719-.357 1.66-.356.616 0 1.16.096.548.09.815.163l-.471 2.162a2.5 2.5 0 0 0-.399-.09 3 3 0 0 0-.434-.037q-.52 0-.713.23-.193.228-.193.627V43.5zm6.141 0v-9.273h2.952V43.5zm1.479-10.353q-.622 0-1.068-.41a1.32 1.32 0 0 1-.447-1.003q0-.579.447-.99a1.5 1.5 0 0 1 1.068-.417 1.5 1.5 0 0 1 1.069.417q.446.411.446.99 0 .585-.446 1.002-.44.41-1.069.41m7.675 14.023q-1.322 0-2.264-.368-.942-.367-1.479-1.008a2.8 2.8 0 0 1-.646-1.449l2.795-.157q.078.284.29.495.217.212.561.326.35.115.821.115.743 0 1.225-.362.489-.356.489-1.25v-1.63h-.102a2.2 2.2 0 0 1-.531.767 2.5 2.5 0 0 1-.888.531q-.525.193-1.207.193a3.76 3.76 0 0 1-1.86-.47q-.839-.478-1.346-1.474-.501-1.002-.501-2.577 0-1.624.519-2.675.519-1.056 1.359-1.563a3.47 3.47 0 0 1 1.817-.508q.73 0 1.249.254.526.247.864.64.338.392.513.815h.084v-1.588h2.94v9.31q0 1.176-.591 1.985-.592.81-1.654 1.226-1.064.422-2.457.422m.09-5.946q.537 0 .918-.284.38-.283.585-.815.206-.53.206-1.273 0-.755-.206-1.298-.2-.55-.585-.846a1.45 1.45 0 0 0-.918-.295q-.549 0-.93.302-.38.3-.579.85-.193.544-.193 1.287t.199 1.273.573.815q.381.284.93.284m12.821 2.276H170.4l4.172-12.364h3.978l4.172 12.364h-3.212l-2.904-9.249h-.096zm-.429-4.866h6.713v2.27h-6.713zm10.87 4.866V31.136h5.107q1.389 0 2.397.544 1.014.537 1.563 1.503.55.96.55 2.233 0 1.28-.562 2.24a3.76 3.76 0 0 1-1.587 1.48q-1.033.525-2.451.524h-3.152v-2.354h2.596q.676 0 1.129-.235.459-.236.694-.658.236-.429.236-.996 0-.575-.236-.99a1.6 1.6 0 0 0-.694-.652q-.459-.23-1.129-.23h-1.473V43.5zm14.078-12.364V43.5h-2.988V31.136z"/></g><defs><linearGradient id="a" x1="106" x2="106" y1="0" y2="56" gradientUnits="userSpaceOnUse"><stop stop-color="#213116"/><stop offset="1" stop-color="#151e0d"/></linearGradient><linearGradient id="d" x1="135.526" x2="135.526" y1="28.5" y2="43.731" gradientUnits="userSpaceOnUse"><stop stop-color="#9cff55"/><stop offset="1" stop-color="#89dc42"/></linearGradient><filter id="b" width="51.429" height="51.429" x="6.286" y="2.286" color-interpolation-filters="sRGB" filterUnits="userSpaceOnUse"><feFlood flood-opacity="0" result="BackgroundImageFix"/><feColorMatrix in="SourceAlpha" result="hardAlpha" values="0 0 0 0 0 0 0 0 0 0 0 0 0 0 0 0 0 0 127 0"/><feOffset/><feGaussianBlur stdDeviation="2.857"/><feComposite in2="hardAlpha" operator="out"/><feColorMatrix values="0 0 0 0 0 0 0 0 0 0 0 0 0 0 0 0 0 0 0.25 0"/><feBlend in2="BackgroundImageFix" result="effect1_dropShadow_28_714"/><feBlend in="SourceGraphic" in2="effect1_dropShadow_28_714" result="shape"/></filter><filter id="c" width="151.2" height="48.87" x="54.4" y="3.9" color-interpolation-filters="sRGB" filterUnits="userSpaceOnUse"><feFlood flood-opacity="0" result="BackgroundImageFix"/><feColorMatrix in="SourceAlpha" result="hardAlpha" values="0 0 0 0 0 0 0 0 0 0 0 0 0 0 0 0 0 0 127 0"/><feOffset/><feGaussianBlur stdDeviation="2.8"/><feComposite in2="hardAlpha" operator="out"/><feColorMatrix values="0 0 0 0 0 0 0 0 0 0 0 0 0 0 0 0 0 0 0.25 0"/><feBlend in2="BackgroundImageFix" result="effect1_dropShadow_28_714"/><feBlend in="SourceGraphic" in2="effect1_dropShadow_28_714" result="shape"/></filter></defs></svg>