<svg xmlns="http://www.w3.org/2000/svg" width="244" height="56" fill="none" viewBox="0 0 244 56"><rect width="244" height="56" fill="url(#a)" rx="8"/><rect width="241.9" height="53.9" x="1.05" y="1.05" stroke="#fff" stroke-opacity=".15" stroke-width="2.1" rx="6.95"/><g filter="url(#b)"><path fill="#fff" d="M19.48 37.714v-2.857h8.571v2.857zm8.571-2.857V32h2.857v2.857zm-11.429 0V20.571h2.858v14.286zM28.051 23.43v-2.86h2.857v2.858zm-8.571-2.86v-2.857h8.571v2.857zm20 17.143V20.571h-5.715v-2.857h14.286v2.857h-5.714v17.143z"/></g><g filter="url(#c)"><path fill="#e8e8e8" d="M61.278 24.5V12.864h4.148q1.353 0 2.245.465.897.466 1.34 1.29.444.82.444 1.892 0 1.07-.45 1.881-.443.807-1.34 1.256-.892.449-2.245.449h-3.142v-1.512h2.983q.853 0 1.387-.244.54-.245.79-.71.25-.466.25-1.12 0-.659-.256-1.142a1.65 1.65 0 0 0-.79-.738q-.534-.262-1.403-.262h-2.205V24.5zm5.745-5.25 2.875 5.25h-2l-2.818-5.25zm8.084 5.426q-1.29 0-2.222-.551a3.74 3.74 0 0 1-1.432-1.562q-.5-1.012-.5-2.37 0-1.341.5-2.364a3.9 3.9 0 0 1 1.41-1.596q.908-.574 2.124-.574.74 0 1.432.244.693.244 1.244.768.551.522.87 1.357.318.83.318 2.018v.602h-6.938v-1.273h5.273q0-.67-.273-1.187a2.06 2.06 0 0 0-.767-.824q-.489-.302-1.147-.302-.717 0-1.25.353a2.36 2.36 0 0 0-.819.909q-.284.556-.284 1.21v.994q0 .876.307 1.489.313.615.87.938.556.318 1.3.318.483 0 .881-.137.398-.142.688-.42.289-.279.443-.688l1.608.29q-.194.71-.693 1.244a3.36 3.36 0 0 1-1.245.824q-.744.29-1.699.29m11.52 3.097v-4.631h-.101q-.154.279-.444.636-.283.358-.784.625-.5.267-1.295.268-1.058 0-1.886-.54-.825-.546-1.296-1.552-.466-1.01-.466-2.426 0-1.415.472-2.42.478-1.006 1.306-1.54a3.4 3.4 0 0 1 1.881-.534q.813 0 1.307.273.499.267.773.625.278.359.432.63h.142v-1.414h1.659v12zm-2.25-4.551q.734 0 1.24-.387.51-.392.772-1.085.267-.693.267-1.614 0-.909-.261-1.59-.261-.683-.767-1.063t-1.25-.38q-.767 0-1.279.397-.51.398-.772 1.085-.255.688-.256 1.551 0 .875.261 1.574.262.699.773 1.108.517.404 1.273.404M96.14 20.88v-5.108h1.705V24.5h-1.67v-1.511h-.092q-.3.698-.965 1.164-.66.46-1.643.46-.84 0-1.488-.369-.642-.375-1.012-1.108-.363-.732-.363-1.812v-5.551h1.699v5.346q0 .893.494 1.42.494.53 1.284.53.478 0 .949-.24.477-.239.79-.721.318-.483.312-1.227m3.987 3.619v-8.727h1.699V24.5zm.858-10.074a1.08 1.08 0 0 1-.761-.295.96.96 0 0 1-.312-.716.95.95 0 0 1 .312-.716q.318-.3.761-.301.444 0 .756.3a.94.94 0 0 1 .318.717.95.95 0 0 1-.318.716 1.06 1.06 0 0 1-.756.295m3.127 10.074v-8.727h1.642v1.386h.091q.238-.705.841-1.108.607-.41 1.375-.409a7 7 0 0 1 .721.04v1.625a3 3 0 0 0-.363-.063 3.5 3.5 0 0 0-.523-.04q-.603 0-1.074.256a1.9 1.9 0 0 0-1.011 1.71v5.33zm9.589.176q-1.29 0-2.221-.551a3.73 3.73 0 0 1-1.432-1.562q-.5-1.012-.5-2.37 0-1.341.5-2.364a3.9 3.9 0 0 1 1.409-1.596q.909-.574 2.125-.574.739 0 1.432.244t1.244.768q.552.522.869 1.357.32.83.319 2.018v.602h-6.938v-1.273h5.273q0-.67-.273-1.187a2.06 2.06 0 0 0-.767-.824q-.488-.302-1.148-.302-.716 0-1.25.353a2.36 2.36 0 0 0-.818.909 2.6 2.6 0 0 0-.284 1.21v.994q0 .876.307 1.489.312.615.869.938.557.318 1.301.318.483 0 .881-.137a1.83 1.83 0 0 0 1.131-1.108l1.608.29q-.193.71-.694 1.244a3.35 3.35 0 0 1-1.244.824q-.744.29-1.699.29m12.169-6.773-1.539.273a1.8 1.8 0 0 0-.307-.562 1.5 1.5 0 0 0-.557-.438q-.353-.17-.881-.17-.721 0-1.204.323-.483.319-.483.824 0 .438.324.705.323.267 1.045.438l1.386.318q1.205.277 1.796.858.591.58.591 1.505 0 .785-.455 1.398-.449.608-1.255.954-.802.348-1.858.347-1.467 0-2.392-.625-.927-.63-1.137-1.79l1.642-.25q.153.642.631.972.477.324 1.244.324.836 0 1.335-.347.5-.352.5-.858a.9.9 0 0 0-.306-.687q-.302-.279-.927-.42l-1.477-.325q-1.22-.277-1.807-.886-.579-.607-.579-1.54a2.2 2.2 0 0 1 .432-1.352q.431-.579 1.193-.903.761-.33 1.744-.33 1.415 0 2.227.614.813.608 1.074 1.63"/><path fill="#fff" d="M72.158 35.616H69.14q-.06-.465-.248-.84a2 2 0 0 0-.495-.64 2.1 2.1 0 0 0-.73-.404 2.8 2.8 0 0 0-.924-.145q-.9 0-1.551.441-.646.44-.996 1.274-.344.832-.344 2.016 0 1.232.35 2.065.356.827.996 1.25.646.416 1.527.416.495 0 .9-.127.41-.126.718-.368.314-.247.513-.598a2.4 2.4 0 0 0 .284-.803l3.018.019a4.6 4.6 0 0 1-.477 1.617 5.2 5.2 0 0 1-1.08 1.455 5.1 5.1 0 0 1-1.678 1.039q-.984.386-2.258.386-1.679 0-3.007-.736-1.322-.743-2.088-2.162-.767-1.418-.767-3.453 0-2.04.779-3.459.778-1.419 2.107-2.155 1.327-.737 2.976-.737 1.122 0 2.076.314a5 5 0 0 1 1.679.906q.724.592 1.177 1.455.453.862.561 1.974m6.039 8.06q-1.461 0-2.511-.599a4.1 4.1 0 0 1-1.612-1.678q-.562-1.08-.562-2.505 0-1.432.562-2.505.567-1.08 1.612-1.679 1.05-.603 2.51-.604 1.462 0 2.506.604 1.05.598 1.612 1.678.567 1.075.568 2.506 0 1.425-.568 2.505a4.07 4.07 0 0 1-1.612 1.678q-1.044.598-2.505.598m.018-2.229q.531 0 .9-.326.368-.326.56-.905.2-.58.2-1.34 0-.773-.2-1.353-.192-.58-.56-.905a1.3 1.3 0 0 0-.9-.326 1.38 1.38 0 0 0-.93.326q-.374.327-.573.905-.195.58-.194 1.353 0 .76.194 1.34.199.58.573.905.381.327.93.326m9.13-3.235V43.5h-2.951v-9.273H87.2v1.703h.103a2.6 2.6 0 0 1 1.05-1.334q.743-.49 1.769-.49.978 0 1.696.441.724.435 1.123 1.22.405.779.399 1.823v5.91h-2.953v-5.33q.007-.773-.392-1.208-.393-.435-1.093-.435-.465 0-.82.206a1.36 1.36 0 0 0-.544.573q-.188.375-.193.906m10.775 0V43.5h-2.952v-9.273h2.807v1.703h.103a2.6 2.6 0 0 1 1.05-1.334q.743-.49 1.769-.49.978 0 1.697.441.724.435 1.122 1.22.405.779.399 1.823v5.91h-2.952v-5.33q.006-.773-.393-1.208-.391-.435-1.092-.435-.465 0-.821.206a1.36 1.36 0 0 0-.544.573q-.186.375-.193.906m12.157 5.463q-1.455 0-2.511-.573a3.96 3.96 0 0 1-1.618-1.648q-.561-1.075-.562-2.554 0-1.437.568-2.511.567-1.08 1.6-1.679 1.032-.603 2.433-.604.99 0 1.811.308a3.9 3.9 0 0 1 1.418.912q.599.604.93 1.491.332.882.332 2.023v.736h-8.059v-1.715h5.312a1.66 1.66 0 0 0-.223-.839 1.5 1.5 0 0 0-.598-.573 1.7 1.7 0 0 0-.863-.211q-.495 0-.888.223a1.68 1.68 0 0 0-.863 1.449v1.745q0 .567.224.996.223.421.633.658.411.235.978.235.392 0 .713-.109.32-.108.549-.32.23-.21.344-.519l2.711.079a3.35 3.35 0 0 1-.743 1.587q-.567.67-1.491 1.045-.924.368-2.137.368m10.237 0q-1.467 0-2.517-.604a4.1 4.1 0 0 1-1.606-1.678q-.561-1.08-.561-2.5 0-1.424.561-2.498a4.1 4.1 0 0 1 1.612-1.685q1.05-.603 2.505-.604 1.286 0 2.24.465a3.56 3.56 0 0 1 1.497 1.316q.543.846.574 1.987h-2.759q-.085-.713-.483-1.117-.393-.405-1.027-.405-.513 0-.899.29-.387.284-.604.845-.211.556-.211 1.377 0 .82.211 1.388.217.561.604.851.386.285.899.284.411 0 .725-.175.32-.175.525-.513.205-.344.26-.833h2.759q-.043 1.146-.574 2.004a3.55 3.55 0 0 1-1.479 1.334q-.948.471-2.252.471m11.049-9.448v2.174h-5.85v-2.174zm-4.624-2.221h2.952v8.578q0 .272.085.44.09.165.259.236.17.067.405.067.168 0 .356-.03.193-.038.29-.06l.446 2.13q-.211.06-.597.151-.381.09-.912.115-1.038.048-1.781-.242a2.3 2.3 0 0 1-1.129-.917q-.386-.622-.374-1.564zm10.365 11.67q-1.455 0-2.511-.574a3.97 3.97 0 0 1-1.618-1.648q-.561-1.075-.561-2.554 0-1.437.567-2.511.567-1.08 1.6-1.679 1.032-.603 2.433-.604.99 0 1.811.308.82.309 1.419.912.597.604.929 1.491.332.882.332 2.023v.736h-8.059v-1.715h5.313a1.7 1.7 0 0 0-.224-.839 1.5 1.5 0 0 0-.598-.573 1.7 1.7 0 0 0-.863-.211q-.495 0-.887.223a1.68 1.68 0 0 0-.863 1.449v1.745q0 .567.223.996.223.421.634.658.41.235.978.235.392 0 .712-.109.32-.108.549-.32.23-.21.345-.519l2.71.079a3.36 3.36 0 0 1-.742 1.587q-.568.67-1.492 1.045-.923.368-2.137.368m9.296-.043a3.4 3.4 0 0 1-1.866-.531q-.839-.532-1.34-1.594t-.501-2.638q0-1.636.519-2.693.519-1.056 1.359-1.563a3.47 3.47 0 0 1 1.817-.508q.73 0 1.249.254.519.247.858.64.337.392.513.815h.06v-4.679h2.952V43.5h-2.922v-1.503h-.09a2.9 2.9 0 0 1-.532.803q-.344.374-.863.603-.513.23-1.213.23m1.026-2.3q.537 0 .918-.302.38-.308.585-.863t.205-1.304q0-.762-.205-1.31-.2-.55-.585-.846a1.45 1.45 0 0 0-.918-.295q-.549 0-.93.302-.38.3-.579.85-.193.55-.193 1.299t.199 1.304.573.863q.381.302.93.302m9.709-7.77v-2.427h10.45v2.427h-3.749V43.5h-2.946v-9.937zm14.899 10.112q-1.455 0-2.511-.573a3.96 3.96 0 0 1-1.618-1.648q-.562-1.075-.562-2.554 0-1.437.568-2.511.567-1.08 1.6-1.679 1.032-.603 2.433-.604.99 0 1.811.308a3.9 3.9 0 0 1 1.418.912q.599.604.93 1.491.332.882.332 2.023v.736h-8.059v-1.715h5.312a1.66 1.66 0 0 0-.223-.839 1.5 1.5 0 0 0-.598-.573 1.7 1.7 0 0 0-.863-.211q-.495 0-.888.223a1.68 1.68 0 0 0-.863 1.449v1.745q0 .567.224.996.223.421.633.658.411.235.978.235.393 0 .713-.109.32-.108.549-.32.23-.21.344-.519l2.711.079a3.35 3.35 0 0 1-.743 1.587q-.567.67-1.491 1.045-.924.368-2.137.368m8.287-9.448 1.528 3.055 1.581-3.055h2.976l-2.589 4.637 2.686 4.636h-2.952l-1.702-3.079-1.661 3.079h-2.994l2.693-4.636-2.56-4.637zm12.667 0v2.174h-5.85v-2.174zm-4.624-2.221h2.952v8.578q0 .272.085.44.09.165.259.236.17.067.405.067.168 0 .356-.03.193-.038.29-.06l.446 2.13q-.212.06-.597.151-.381.09-.912.115-1.038.048-1.781-.242a2.3 2.3 0 0 1-1.129-.917q-.386-.622-.374-1.564zm12.113 7.492v-5.27h2.946V43.5h-2.813v-1.727h-.097a2.7 2.7 0 0 1-1.05 1.353q-.737.495-1.781.495-.948 0-1.666-.435a2.96 2.96 0 0 1-1.117-1.213q-.399-.785-.405-1.836v-5.91h2.953v5.33q.005.755.398 1.19t1.069.435q.44 0 .79-.193.357-.2.562-.574.211-.38.211-.917m4.825 4.002v-9.273h2.868v1.69h.096q.254-.917.827-1.364a2.1 2.1 0 0 1 1.334-.453q.206 0 .423.03.217.025.405.08v2.565a3 3 0 0 0-.556-.115 5 5 0 0 0-.604-.042q-.525 0-.947.235a1.7 1.7 0 0 0-.658.646 1.9 1.9 0 0 0-.236.966V43.5zm11.008.175q-1.455 0-2.511-.573a3.97 3.97 0 0 1-1.618-1.648q-.561-1.075-.561-2.554 0-1.437.567-2.511.568-1.08 1.6-1.679 1.032-.603 2.433-.604.99 0 1.811.308.82.309 1.419.912.597.604.929 1.491.332.882.332 2.023v.736h-8.059v-1.715h5.313a1.66 1.66 0 0 0-.224-.839 1.5 1.5 0 0 0-.597-.573 1.73 1.73 0 0 0-.864-.211q-.495 0-.887.223a1.68 1.68 0 0 0-.863 1.449v1.745q0 .567.223.996.223.421.634.658.41.235.978.235.392 0 .712-.109.32-.108.549-.32.23-.21.345-.519l2.71.079a3.36 3.36 0 0 1-.742 1.587q-.569.67-1.491 1.045-.924.368-2.138.368m14.005-6.616-2.711.072a1 1 0 0 0-.229-.513 1.24 1.24 0 0 0-.489-.356 1.7 1.7 0 0 0-.689-.133q-.513 0-.875.205-.356.205-.35.556a.6.6 0 0 0 .217.47q.23.2.815.32l1.787.339q1.389.265 2.065.88.682.617.688 1.63-.006.955-.567 1.661-.556.706-1.522 1.099-.966.386-2.209.386-1.987 0-3.133-.815-1.142-.821-1.304-2.197l2.915-.073q.097.507.501.773.405.266 1.033.266.567 0 .923-.212.357-.21.363-.561a.6.6 0 0 0-.278-.501q-.272-.194-.851-.302l-1.618-.308q-1.395-.253-2.077-.936-.682-.688-.676-1.75-.006-.93.495-1.588.501-.664 1.425-1.014t2.179-.35q1.884 0 2.97.79 1.087.785 1.202 2.162"/></g><defs><filter id="b" width="51.429" height="51.429" x="6.286" y="2.286" color-interpolation-filters="sRGB" filterUnits="userSpaceOnUse"><feFlood flood-opacity="0" result="BackgroundImageFix"/><feColorMatrix in="SourceAlpha" result="hardAlpha" values="0 0 0 0 0 0 0 0 0 0 0 0 0 0 0 0 0 0 127 0"/><feOffset/><feGaussianBlur stdDeviation="2.857"/><feComposite in2="hardAlpha" operator="out"/><feColorMatrix values="0 0 0 0 0 0 0 0 0 0 0 0 0 0 0 0 0 0 0.25 0"/><feBlend in2="BackgroundImageFix" result="effect1_dropShadow_38_2"/><feBlend in="SourceGraphic" in2="effect1_dropShadow_38_2" result="shape"/></filter><filter id="c" width="183.2" height="48.2" x="54.4" y="3.9" color-interpolation-filters="sRGB" filterUnits="userSpaceOnUse"><feFlood flood-opacity="0" result="BackgroundImageFix"/><feColorMatrix in="SourceAlpha" result="hardAlpha" values="0 0 0 0 0 0 0 0 0 0 0 0 0 0 0 0 0 0 127 0"/><feOffset/><feGaussianBlur stdDeviation="2.8"/><feComposite in2="hardAlpha" operator="out"/><feColorMatrix values="0 0 0 0 0 0 0 0 0 0 0 0 0 0 0 0 0 0 0.25 0"/><feBlend in2="BackgroundImageFix" result="effect1_dropShadow_38_2"/><feBlend in="SourceGraphic" in2="effect1_dropShadow_38_2" result="shape"/></filter><linearGradient id="a" x1="122" x2="122" y1="0" y2="53.2" gradientUnits="userSpaceOnUse"><stop stop-color="#343434"/><stop offset="1" stop-color="#232323"/></linearGradient></defs></svg>