<svg xmlns="http://www.w3.org/2000/svg" width="158" height="56" fill="none" viewBox="0 0 158 56"><rect width="158" height="56" fill="url(#a)" rx="8"/><rect width="155.9" height="53.9" x="1.05" y="1.05" stroke="#fff" stroke-opacity=".15" stroke-width="2.1" rx="6.95"/><g filter="url(#b)"><path fill="#38342a" d="M33.429 8v2.857h-2.857v5.714h-2.857v2.858h-2.858v2.857H22v2.857h-2.857V28h-2.857v2.857h-2.857v5.714h2.857v2.858h2.857v2.857H22v2.857h2.857V48h5.715v-2.857h2.857v-5.714h2.857V36.57h2.857v-2.857H42v-2.857h5.715V28h2.857v-5.714h-2.857v-2.857h-2.858V16.57H42v-2.857h-2.857v-2.857h-2.857V8z"/><path fill="#dbd0b4" d="M33.429 10.857v2.857h2.857v2.857h2.857v2.858H42v2.857h2.858v-2.857H42V16.57h-2.857v-2.857h-2.857v-2.857z"/><path fill="#c6bca5" d="M33.429 13.714v2.857h2.857v-2.857z"/><path fill="#dbd0b4" d="M30.572 16.571v5.715h-5.714v2.857H22V28h-2.857v5.714H22v2.857h2.858v2.858h5.714v-5.715h-2.857v-2.857h5.714v2.857h2.857V28h-2.857v-2.857h5.714v-2.857h-2.857v-2.857h-2.857V16.57z"/><path fill="#38342a" d="M33.429 16.571v2.858h2.857v2.857h2.857v2.857H42v-2.857h-2.857v-2.857h-2.857V16.57z"/><path fill="#bcb29c" d="M36.286 16.571v2.858h2.857V16.57z"/><path fill="#c6bca5" d="M27.715 19.429v2.857h2.857v-2.857z"/><path fill="#bcb29c" d="M39.143 19.429v2.857H42v-2.857z"/><path fill="#c6bca5" d="M30.572 22.286v2.857h2.857v-2.857z"/><path fill="#bcb29c" d="M42 22.286v2.857h2.857v-2.857z"/><path fill="#c6bca5" d="M33.429 25.143V28h5.714v-2.857z"/><path fill="#bcb29c" d="M39.143 25.143V28h-2.857v5.714h2.857v-2.857H42v-5.714z"/><path fill="#807a6d" d="M44.857 25.143V28h2.858v-2.857z"/><path fill="#c6bca5" d="M24.857 28v2.857h2.858V28z"/><path fill="#aea694" d="M16.286 30.857v2.857h2.857v2.857H22v2.858h2.857v2.857h2.858v-2.857h-2.858V36.57H22v-2.857h-2.857v-2.857z"/><path fill="#c6bca5" d="M27.715 30.857v2.857h5.714v-2.857z"/><path fill="#9a927e" d="M16.286 33.714v2.857h2.857v-2.857z"/><path fill="#bcb29c" d="M30.572 33.714v5.715h2.857V36.57h2.857v-2.857z"/><path fill="#9a927e" d="M19.143 36.571v2.858H22V36.57zM22 39.43v2.857h2.858V39.43z"/><path fill="#bcb29c" d="M27.715 39.429v2.857h2.857v-2.857z"/><path fill="#9a927e" d="M24.857 42.286v2.857h2.858v-2.857z"/></g><g filter="url(#c)"><path fill="#e8e8e8" d="M61.278 24.5V12.864h4.148q1.353 0 2.245.465.897.466 1.34 1.29.444.82.444 1.892 0 1.07-.45 1.881-.443.807-1.34 1.256-.892.449-2.245.449h-3.142v-1.512h2.983q.853 0 1.387-.244.54-.245.79-.71.25-.466.25-1.12 0-.659-.256-1.142a1.65 1.65 0 0 0-.79-.738q-.534-.262-1.403-.262h-2.205V24.5zm5.745-5.25 2.875 5.25h-2l-2.818-5.25zm8.084 5.426q-1.29 0-2.222-.551a3.74 3.74 0 0 1-1.432-1.562q-.5-1.012-.5-2.37 0-1.341.5-2.364a3.9 3.9 0 0 1 1.41-1.596q.908-.574 2.124-.574.74 0 1.432.244.693.244 1.244.768.551.522.87 1.357.318.83.318 2.017v.603h-6.938v-1.273h5.273q0-.67-.273-1.187a2.06 2.06 0 0 0-.767-.824q-.489-.302-1.147-.302-.717 0-1.25.353a2.36 2.36 0 0 0-.819.909q-.284.556-.284 1.21v.994q0 .876.307 1.489.313.615.87.938.556.318 1.3.318.483 0 .881-.137.398-.142.688-.42.289-.279.443-.688l1.608.29q-.194.71-.693 1.244a3.36 3.36 0 0 1-1.245.824q-.744.29-1.699.29m11.52 3.097v-4.631h-.101q-.154.279-.444.636-.283.358-.784.625-.5.267-1.295.267-1.058 0-1.886-.54-.825-.545-1.296-1.55-.466-1.012-.466-2.427t.472-2.42q.478-1.006 1.306-1.54a3.4 3.4 0 0 1 1.881-.534q.813 0 1.307.273.499.267.773.625.278.359.432.63h.142v-1.414h1.659v12zm-2.25-4.551q.734 0 1.24-.387.51-.392.772-1.085.267-.693.267-1.614 0-.909-.261-1.59-.261-.683-.767-1.063t-1.25-.38q-.767 0-1.279.397-.51.398-.772 1.085-.255.688-.256 1.551 0 .875.261 1.574.262.699.773 1.108.517.404 1.273.404M96.14 20.88v-5.108h1.705V24.5h-1.67v-1.511h-.092q-.3.698-.965 1.164-.66.46-1.643.46-.84 0-1.488-.369-.642-.375-1.012-1.108-.363-.732-.363-1.812v-5.551h1.699v5.346q0 .893.494 1.42.494.53 1.284.53.478 0 .949-.24.477-.239.79-.721.318-.483.312-1.227m3.987 3.619v-8.727h1.699V24.5zm.858-10.074a1.08 1.08 0 0 1-.761-.295.96.96 0 0 1-.312-.716.95.95 0 0 1 .312-.716q.318-.3.761-.301.444 0 .756.3a.94.94 0 0 1 .318.717.95.95 0 0 1-.318.716 1.06 1.06 0 0 1-.756.295m3.127 10.074v-8.727h1.642v1.386h.091q.238-.705.841-1.108.607-.41 1.375-.409a7 7 0 0 1 .721.04v1.625a3 3 0 0 0-.363-.063 3.5 3.5 0 0 0-.523-.04q-.603 0-1.074.256a1.9 1.9 0 0 0-1.011 1.71v5.33zm9.589.176q-1.29 0-2.221-.551a3.74 3.74 0 0 1-1.432-1.562q-.5-1.012-.5-2.37 0-1.341.5-2.364a3.9 3.9 0 0 1 1.409-1.596q.909-.574 2.125-.574.739 0 1.432.244t1.244.768q.552.522.869 1.357.32.83.319 2.017v.603h-6.938v-1.273h5.273q0-.67-.273-1.187a2.06 2.06 0 0 0-.767-.824q-.488-.302-1.148-.302-.716 0-1.25.353a2.36 2.36 0 0 0-.818.909 2.6 2.6 0 0 0-.284 1.21v.994q0 .876.307 1.489.312.615.869.938.557.318 1.301.318.483 0 .881-.137a1.83 1.83 0 0 0 1.131-1.108l1.608.29q-.193.71-.694 1.244a3.35 3.35 0 0 1-1.244.824q-.744.29-1.699.29m12.169-6.773-1.539.273a1.8 1.8 0 0 0-.307-.562 1.5 1.5 0 0 0-.557-.438q-.353-.17-.881-.17-.721 0-1.204.323-.483.319-.483.824 0 .438.324.705.323.267 1.045.437l1.386.319q1.205.277 1.796.858.591.58.591 1.505 0 .785-.455 1.398-.449.608-1.255.954-.802.348-1.858.347-1.467 0-2.392-.625-.927-.63-1.137-1.79l1.642-.25q.153.642.631.972.477.324 1.244.324.836 0 1.335-.347.5-.352.5-.858a.9.9 0 0 0-.306-.687q-.302-.279-.927-.42l-1.477-.325q-1.22-.277-1.807-.886-.579-.607-.579-1.54a2.2 2.2 0 0 1 .432-1.352q.431-.579 1.193-.903.761-.33 1.744-.33 1.415 0 2.227.614.813.608 1.074 1.63"/><path fill="url(#d)" d="M60.936 43.5V31.136h8.44v2.427h-5.452V36.1h4.914v2.433h-4.914V43.5zm12.409.157q-.888 0-1.576-.296a2.45 2.45 0 0 1-1.08-.905q-.393-.61-.393-1.528 0-.773.272-1.304.27-.531.748-.863a3.5 3.5 0 0 1 1.099-.501 7 7 0 0 1 1.328-.235q.79-.074 1.274-.151.483-.085.7-.236a.51.51 0 0 0 .224-.44v-.03q0-.465-.32-.72-.32-.252-.864-.253-.585 0-.942.254a1.12 1.12 0 0 0-.452.7l-2.723-.096a3.2 3.2 0 0 1 .622-1.51q.506-.67 1.388-1.05.888-.387 2.131-.387.888 0 1.636.212.75.205 1.304.604.555.392.858.965.308.575.308 1.31V43.5h-2.778v-1.292h-.072q-.247.471-.634.797-.38.326-.9.489a3.8 3.8 0 0 1-1.158.163m.911-1.932q.477 0 .858-.193.386-.193.615-.531.23-.344.23-.797v-.882a2 2 0 0 1-.308.121 5 5 0 0 1-.387.103q-.21.048-.434.084t-.429.067a2.7 2.7 0 0 0-.712.205 1.1 1.1 0 0 0-.447.362.9.9 0 0 0-.15.52q0 .458.325.7.332.24.84.241m6.436 1.775V31.136h2.952v4.679h.06q.18-.422.513-.815.338-.393.857-.64.526-.254 1.256-.254.966 0 1.805.508.845.507 1.364 1.563t.52 2.693q0 1.575-.501 2.638-.495 1.063-1.34 1.594a3.4 3.4 0 0 1-1.866.53q-.7 0-1.213-.229a2.6 2.6 0 0 1-.864-.603 2.9 2.9 0 0 1-.531-.803h-.09V43.5zm2.891-4.636q0 .748.2 1.304.205.555.585.863.387.302.924.302.543 0 .923-.302.38-.308.574-.863.2-.555.2-1.304 0-.75-.2-1.298-.193-.55-.574-.852-.374-.3-.923-.301-.543 0-.924.295-.38.297-.585.846-.2.548-.2 1.31m7.983 4.636v-9.273h2.867v1.69h.097q.254-.917.827-1.364a2.1 2.1 0 0 1 1.334-.453q.206 0 .422.03.217.025.405.08v2.565a3 3 0 0 0-.555-.115 5 5 0 0 0-.604-.042q-.525 0-.948.235a1.7 1.7 0 0 0-.658.646 1.9 1.9 0 0 0-.235.966V43.5zm7.155 0v-9.273h2.952V43.5zm1.479-10.353q-.621 0-1.069-.41a1.32 1.32 0 0 1-.446-1.003q0-.579.446-.99a1.5 1.5 0 0 1 1.069-.417q.628 0 1.068.417.447.411.447.99 0 .585-.447 1.002a1.5 1.5 0 0 1-1.068.41m7.68 10.528q-1.467 0-2.517-.604a4.1 4.1 0 0 1-1.606-1.678q-.561-1.08-.561-2.5 0-1.424.561-2.498a4.1 4.1 0 0 1 1.612-1.685q1.05-.603 2.505-.604 1.287 0 2.24.465.96.465 1.497 1.316.543.846.574 1.987h-2.759q-.084-.713-.483-1.117-.393-.405-1.026-.405a1.46 1.46 0 0 0-.9.29q-.386.284-.604.845-.21.556-.211 1.377 0 .82.211 1.388.218.561.604.851.387.285.9.284.41 0 .724-.175.32-.175.525-.513.206-.344.26-.833h2.759q-.043 1.146-.574 2.004a3.55 3.55 0 0 1-1.479 1.334q-.948.471-2.252.471m12.142-.175h-3.211l4.171-12.364h3.978l4.172 12.364h-3.212l-2.904-9.249h-.096zm-.428-4.866h6.713v2.27h-6.713zm10.869 4.866V31.136h5.107q1.389 0 2.397.544 1.014.537 1.564 1.503.549.96.549 2.233 0 1.28-.562 2.24a3.76 3.76 0 0 1-1.587 1.48q-1.032.525-2.451.524h-3.152v-2.354h2.596q.676 0 1.129-.235a1.6 1.6 0 0 0 .694-.658q.236-.429.236-.996 0-.575-.236-.99a1.57 1.57 0 0 0-.694-.652q-.459-.23-1.129-.23h-1.473V43.5zm14.078-12.364V43.5h-2.988V31.136z"/></g><defs><linearGradient id="a" x1="79" x2="79" y1="0" y2="56" gradientUnits="userSpaceOnUse"><stop stop-color="#2d2a24"/><stop offset="1" stop-color="#1e1c18"/></linearGradient><linearGradient id="d" x1="106.395" x2="106.395" y1="28.5" y2="43.731" gradientUnits="userSpaceOnUse"><stop stop-color="#dbd0b4"/><stop offset="1" stop-color="#bcb29c"/></linearGradient><filter id="b" width="51.429" height="51.429" x="6.286" y="2.286" color-interpolation-filters="sRGB" filterUnits="userSpaceOnUse"><feFlood flood-opacity="0" result="BackgroundImageFix"/><feColorMatrix in="SourceAlpha" result="hardAlpha" values="0 0 0 0 0 0 0 0 0 0 0 0 0 0 0 0 0 0 127 0"/><feOffset/><feGaussianBlur stdDeviation="2.857"/><feComposite in2="hardAlpha" operator="out"/><feColorMatrix values="0 0 0 0 0 0 0 0 0 0 0 0 0 0 0 0 0 0 0.25 0"/><feBlend in2="BackgroundImageFix" result="effect1_dropShadow_28_678"/><feBlend in="SourceGraphic" in2="effect1_dropShadow_28_678" result="shape"/></filter><filter id="c" width="97.2" height="48.2" x="54.4" y="3.9" color-interpolation-filters="sRGB" filterUnits="userSpaceOnUse"><feFlood flood-opacity="0" result="BackgroundImageFix"/><feColorMatrix in="SourceAlpha" result="hardAlpha" values="0 0 0 0 0 0 0 0 0 0 0 0 0 0 0 0 0 0 127 0"/><feOffset/><feGaussianBlur stdDeviation="2.8"/><feComposite in2="hardAlpha" operator="out"/><feColorMatrix values="0 0 0 0 0 0 0 0 0 0 0 0 0 0 0 0 0 0 0.25 0"/><feBlend in2="BackgroundImageFix" result="effect1_dropShadow_28_678"/><feBlend in="SourceGraphic" in2="effect1_dropShadow_28_678" result="shape"/></filter></defs></svg>