<svg xmlns="http://www.w3.org/2000/svg" width="223" height="56" fill="none" viewBox="0 0 223 56"><g clip-path="url(#a)"><rect width="223" height="56" fill="url(#b)" rx="8"/><g filter="url(#c)"><path fill="#9722ff" d="M23.121 13.536a.707.707 0 0 0 .707.707h1.202v2.687h-1.202a.707.707 0 1 0 0 1.414h1.202v2.06a.626.626 0 0 1-.626.626h-2.06v-1.202a.707.707 0 0 0-1.414 0v1.202h-2.687v-1.202a.707.707 0 0 0-1.413 0v1.202h-2.06a.627.627 0 0 1-.627-.626V10.77a.626.626 0 0 1 .626-.626h9.635a.626.626 0 0 1 .626.626v2.06h-1.202a.71.71 0 0 0-.707.707"/><path fill="#dc29dd" d="M35.421 13.536a.707.707 0 0 0 .707.707h1.205v2.687h-1.202a.707.707 0 1 0 0 1.414h1.202v2.06a.627.627 0 0 1-.626.626h-9.636a.626.626 0 0 1-.626-.626v-2.06h1.2a.707.707 0 0 0 0-1.414h-1.2v-2.687h1.2a.709.709 0 1 0 0-1.414h-1.2v-2.06a.626.626 0 0 1 .626-.626h9.635a.626.626 0 0 1 .626.626v2.06H36.13a.706.706 0 0 0-.709.707"/><path fill="#27a2fd" d="M49.633 10.77v9.634a.626.626 0 0 1-.626.626h-2.06v-1.202a.707.707 0 0 0-1.414 0v1.202h-2.687v-1.202a.707.707 0 0 0-1.414 0v1.202h-2.06a.627.627 0 0 1-.626-.626v-2.06h1.202a.707.707 0 1 0 0-1.414h-1.202v-2.687h1.202a.707.707 0 0 0 0-1.414h-1.202v-2.06a.626.626 0 0 1 .626-.626h9.635a.626.626 0 0 1 .626.626"/><path fill="#dc29dd" d="M25.03 23.07v9.635a.626.626 0 0 1-.626.627h-2.06V32.13a.707.707 0 0 0-1.414 0v1.203h-2.687v-1.202a.707.707 0 0 0-1.413 0v1.202h-2.06a.627.627 0 0 1-.627-.626V23.07a.627.627 0 0 1 .626-.626h2.06v1.202a.707.707 0 1 0 1.414 0v-1.202h2.687v1.202a.706.706 0 1 0 1.414 0v-1.202h2.06a.626.626 0 0 1 .626.626"/><path fill="#27a2fd" d="M35.421 25.838a.707.707 0 0 0 .707.706h1.205v2.687h-1.202a.707.707 0 1 0 0 1.414h1.202v2.06a.626.626 0 0 1-.626.627h-2.062V32.13a.707.707 0 0 0-1.414 0v1.203h-2.686v-1.202a.708.708 0 0 0-1.415 0v1.202h-2.06a.624.624 0 0 1-.625-.626V23.07a.626.626 0 0 1 .626-.626h9.635a.627.627 0 0 1 .626.626v2.06H36.13a.71.71 0 0 0-.709.708"/><path fill="#34f" d="M49.633 23.07v9.635a.63.63 0 0 1-.626.627h-9.635a.626.626 0 0 1-.626-.627v-2.06h1.202a.706.706 0 1 0 0-1.414h-1.202v-2.687h1.202a.707.707 0 1 0 0-1.413h-1.202v-2.06a.627.627 0 0 1 .626-.627h2.059v1.202a.707.707 0 0 0 1.414 0v-1.202h2.686v1.202a.707.707 0 0 0 1.414 0v-1.202h2.06a.626.626 0 0 1 .628.626"/><path fill="#9722ff" d="M23.121 38.14a.707.707 0 0 0 .707.706h1.202v2.687h-1.202a.708.708 0 0 0 0 1.414h1.202v2.06a.626.626 0 0 1-.626.627h-9.635a.627.627 0 0 1-.626-.627v-9.635a.626.626 0 0 1 .626-.626h2.06v1.201a.707.707 0 1 0 1.414 0v-1.201h2.687v1.201a.706.706 0 1 0 1.414 0v-1.201h2.06a.626.626 0 0 1 .626.626v2.059h-1.202a.71.71 0 0 0-.707.709"/><path fill="#34f" d="M37.333 35.372v9.635a.627.627 0 0 1-.626.627h-9.636a.626.626 0 0 1-.626-.627v-2.06h1.2a.709.709 0 1 0 0-1.415h-1.2v-2.686h1.2a.707.707 0 1 0 0-1.414h-1.2v-2.06a.626.626 0 0 1 .626-.626h2.06v1.201a.707.707 0 1 0 1.414 0v-1.201h2.686v1.201a.707.707 0 1 0 1.414 0v-1.201h2.06a.626.626 0 0 1 .628.626"/><path fill="#9722ff" d="m46.001 35.188-6.813 6.813a.626.626 0 0 0 0 .886l6.813 6.813a.626.626 0 0 0 .886 0l6.813-6.813a.626.626 0 0 0 0-.886l-6.813-6.813a.626.626 0 0 0-.886 0"/></g><g filter="url(#d)"><path fill="#e8e8e8" d="M61.278 24.5V12.864h4.148q1.353 0 2.245.465.897.466 1.34 1.29.444.82.444 1.892 0 1.07-.45 1.881-.443.807-1.34 1.256-.892.449-2.245.449h-3.142v-1.512h2.983q.853 0 1.387-.244.54-.245.79-.71.25-.466.25-1.12 0-.659-.256-1.142a1.65 1.65 0 0 0-.79-.738q-.534-.262-1.403-.262h-2.205V24.5zm5.745-5.25 2.875 5.25h-2l-2.818-5.25zm8.084 5.426q-1.29 0-2.222-.551a3.74 3.74 0 0 1-1.432-1.562q-.5-1.012-.5-2.37 0-1.341.5-2.364a3.9 3.9 0 0 1 1.41-1.596q.908-.574 2.124-.574.74 0 1.432.244.693.244 1.244.768.551.522.87 1.357.318.83.318 2.018v.602h-6.938v-1.273h5.273q0-.67-.273-1.187a2.06 2.06 0 0 0-.767-.824q-.489-.302-1.147-.302-.717 0-1.25.353a2.36 2.36 0 0 0-.819.909q-.284.556-.284 1.21v.994q0 .876.307 1.489.313.615.87.938.556.318 1.3.318.483 0 .881-.137.398-.142.688-.42.289-.279.443-.688l1.608.29q-.194.71-.693 1.244a3.36 3.36 0 0 1-1.245.824q-.744.29-1.699.29m11.52 3.097v-4.631h-.101q-.154.279-.444.636-.283.358-.784.625-.5.267-1.295.268-1.058 0-1.886-.54-.825-.546-1.296-1.552-.466-1.01-.466-2.426 0-1.415.472-2.42.478-1.006 1.306-1.54a3.4 3.4 0 0 1 1.881-.534q.813 0 1.307.273.499.267.773.625.278.359.432.63h.142v-1.414h1.659v12zm-2.25-4.551q.734 0 1.24-.387.51-.392.772-1.085.267-.693.267-1.614 0-.909-.261-1.59-.261-.683-.767-1.063t-1.25-.38q-.767 0-1.279.397-.51.398-.772 1.085-.255.688-.256 1.551 0 .875.261 1.574.262.699.773 1.108.517.404 1.273.404M96.14 20.88v-5.108h1.705V24.5h-1.67v-1.511h-.092q-.3.698-.965 1.164-.66.46-1.643.46-.84 0-1.488-.369-.642-.375-1.012-1.108-.363-.732-.363-1.812v-5.551h1.699v5.346q0 .893.494 1.42.494.53 1.284.53.478 0 .949-.24.477-.239.79-.721.318-.483.312-1.227m3.987 3.619v-8.727h1.699V24.5zm.858-10.074a1.08 1.08 0 0 1-.761-.295.96.96 0 0 1-.312-.716.95.95 0 0 1 .312-.716q.318-.3.761-.301.444 0 .756.3a.94.94 0 0 1 .318.717.95.95 0 0 1-.318.716 1.06 1.06 0 0 1-.756.295m3.127 10.074v-8.727h1.642v1.386h.091q.238-.705.841-1.108.607-.41 1.375-.409a7 7 0 0 1 .721.04v1.625a3 3 0 0 0-.363-.063 3.5 3.5 0 0 0-.523-.04q-.603 0-1.074.256a1.9 1.9 0 0 0-1.011 1.71v5.33zm9.589.176q-1.29 0-2.221-.551a3.73 3.73 0 0 1-1.432-1.562q-.5-1.012-.5-2.37 0-1.341.5-2.364a3.9 3.9 0 0 1 1.409-1.596q.909-.574 2.125-.574.739 0 1.432.244t1.244.768q.552.522.869 1.357.32.83.319 2.018v.602h-6.938v-1.273h5.273q0-.67-.273-1.187a2.06 2.06 0 0 0-.767-.824q-.488-.302-1.148-.302-.716 0-1.25.353a2.36 2.36 0 0 0-.818.909 2.6 2.6 0 0 0-.284 1.21v.994q0 .876.307 1.489.312.615.869.938.557.318 1.301.318.483 0 .881-.137a1.83 1.83 0 0 0 1.131-1.108l1.608.29q-.193.71-.694 1.244a3.35 3.35 0 0 1-1.244.824q-.744.29-1.699.29m12.169-6.773-1.539.273a1.8 1.8 0 0 0-.307-.562 1.5 1.5 0 0 0-.557-.438q-.353-.17-.881-.17-.721 0-1.204.323-.483.319-.483.824 0 .438.324.705.323.267 1.045.438l1.386.318q1.205.277 1.796.858.591.58.591 1.505 0 .785-.455 1.398-.449.608-1.255.954-.802.348-1.858.347-1.467 0-2.392-.625-.927-.63-1.137-1.79l1.642-.25q.153.642.631.972.477.324 1.244.324.836 0 1.335-.347.5-.352.5-.858a.9.9 0 0 0-.306-.687q-.302-.279-.927-.42l-1.477-.325q-1.22-.277-1.807-.886-.579-.607-.579-1.54a2.2 2.2 0 0 1 .432-1.352q.431-.579 1.193-.903.761-.33 1.744-.33 1.415 0 2.227.614.813.608 1.074 1.63"/><path fill="url(#e)" d="M65.663 39.057h2.414l1.027 1.31 1.346 1.545 2.07 2.554h-2.704l-1.449-1.733-.857-1.231zm6.942-1.739q0 2.04-.785 3.46-.784 1.418-2.125 2.154-1.334.737-2.994.737-1.665 0-3-.742-1.334-.743-2.12-2.156-.778-1.418-.778-3.453 0-2.04.779-3.459.785-1.419 2.119-2.155 1.335-.737 3-.737 1.66 0 2.994.737 1.34.736 2.125 2.155t.785 3.46m-3.055 0q0-1.208-.344-2.04-.338-.834-.978-1.262-.633-.429-1.527-.429-.887 0-1.527.429t-.984 1.262q-.338.833-.338 2.04t.338 2.04q.343.834.984 1.262.639.429 1.527.429.894 0 1.527-.429.64-.428.978-1.261.344-.834.344-2.04m10.799 2.18v-5.27h2.946v9.27h-2.813v-1.727h-.097a2.7 2.7 0 0 1-1.05 1.353q-.737.495-1.781.495-.948 0-1.666-.435a2.96 2.96 0 0 1-1.117-1.213q-.398-.785-.405-1.836v-5.91h2.952v5.33q.007.755.399 1.19t1.068.435q.441 0 .791-.193.357-.2.562-.574.21-.38.211-.917m4.825 4.002v-9.273h2.952V43.5zm1.479-10.353q-.622 0-1.069-.41a1.32 1.32 0 0 1-.446-1.003q0-.579.447-.99a1.5 1.5 0 0 1 1.068-.417q.628 0 1.069.417.446.411.446.99 0 .585-.446 1.002-.44.41-1.069.41m6.304-2.01V43.5h-2.952V31.136zm7.113 3.09V36.4h-5.85v-2.174zm-4.624-2.221h2.952v8.578q0 .272.084.44.09.165.26.236.17.067.404.067.17 0 .357-.03a5 5 0 0 0 .29-.06l.446 2.13q-.211.06-.598.151a5 5 0 0 1-.911.115q-1.038.048-1.781-.242a2.3 2.3 0 0 1-1.129-.917q-.386-.622-.374-1.564zm10.365 11.67q-1.455 0-2.511-.574a3.97 3.97 0 0 1-1.618-1.648q-.561-1.075-.561-2.554 0-1.437.567-2.511.567-1.08 1.6-1.679 1.032-.603 2.433-.604.99 0 1.811.308a3.9 3.9 0 0 1 1.418.912q.599.604.93 1.491.332.882.332 2.023v.736h-8.059V37.86h5.312a1.66 1.66 0 0 0-.223-.839 1.5 1.5 0 0 0-.598-.573 1.7 1.7 0 0 0-.863-.211q-.495 0-.887.223a1.68 1.68 0 0 0-.864 1.449v1.745q0 .567.224.996.223.421.634.658.41.235.978.235.392 0 .712-.109.32-.108.549-.32.23-.21.344-.519l2.711.079a3.35 3.35 0 0 1-.743 1.587q-.567.67-1.491 1.045-.923.368-2.137.368m9.296-.043a3.4 3.4 0 0 1-1.866-.531q-.839-.532-1.34-1.594t-.501-2.638q0-1.636.519-2.693.52-1.056 1.358-1.563a3.5 3.5 0 0 1 1.818-.508q.73 0 1.249.254.52.247.857.64.339.392.514.815h.06v-4.679h2.952V43.5h-2.922v-1.503h-.09a2.9 2.9 0 0 1-.532.803q-.344.374-.863.603-.513.23-1.213.23m1.026-2.3q.537 0 .917-.302.38-.308.586-.863t.205-1.304q0-.762-.205-1.31-.2-.55-.586-.846a1.45 1.45 0 0 0-.917-.295q-.549 0-.93.302-.38.3-.579.85-.194.55-.194 1.299t.2 1.304.573.863q.381.302.93.302m10.113 2.167V31.136h8.44v2.427h-5.451V36.1h4.914v2.433h-4.914V43.5zm12.409.157q-.887 0-1.575-.296a2.46 2.46 0 0 1-1.081-.905q-.392-.61-.392-1.528 0-.773.271-1.304.272-.531.749-.863a3.5 3.5 0 0 1 1.098-.501 7 7 0 0 1 1.329-.235q.79-.074 1.273-.151.483-.085.701-.236a.51.51 0 0 0 .223-.44v-.03q0-.465-.32-.72-.32-.252-.863-.253-.587 0-.942.254a1.12 1.12 0 0 0-.453.7l-2.722-.096q.12-.846.621-1.51.507-.67 1.389-1.05.888-.387 2.131-.387.888 0 1.636.212.749.205 1.304.604.555.392.857.965.308.575.308 1.31V43.5h-2.777v-1.292h-.072q-.248.471-.634.797-.381.326-.9.489a3.8 3.8 0 0 1-1.159.163m.912-1.932q.477 0 .857-.193.387-.193.616-.531.23-.344.229-.797v-.882a1.7 1.7 0 0 1-.308.121 5 5 0 0 1-.386.103q-.212.048-.435.084l-.428.067a2.7 2.7 0 0 0-.713.205 1.1 1.1 0 0 0-.446.362.9.9 0 0 0-.151.52q0 .458.326.7.332.24.839.241m6.435 1.775V31.136h2.952v4.679h.061q.18-.422.513-.815.338-.393.857-.64.525-.254 1.256-.254.966 0 1.805.508.845.507 1.364 1.563t.519 2.693q0 1.575-.501 2.638-.495 1.063-1.34 1.594a3.4 3.4 0 0 1-1.866.53q-.7 0-1.213-.229a2.6 2.6 0 0 1-.863-.603 2.9 2.9 0 0 1-.531-.803h-.091V43.5zm2.892-4.636q0 .748.199 1.304.205.555.586.863.386.302.923.302.543 0 .924-.302.38-.308.573-.863.2-.555.2-1.304 0-.75-.2-1.298-.193-.55-.573-.852-.375-.3-.924-.301-.543 0-.923.295-.38.297-.586.846-.2.548-.199 1.31m7.982 4.636v-9.273h2.868v1.69h.096q.254-.917.827-1.364a2.1 2.1 0 0 1 1.334-.453q.206 0 .423.03.218.025.405.08v2.565a3 3 0 0 0-.556-.115 5 5 0 0 0-.604-.042q-.525 0-.947.235a1.7 1.7 0 0 0-.658.646 1.9 1.9 0 0 0-.236.966V43.5zm7.155 0v-9.273h2.952V43.5zm1.479-10.353q-.621 0-1.068-.41a1.32 1.32 0 0 1-.447-1.003q0-.579.447-.99a1.5 1.5 0 0 1 1.068-.417 1.5 1.5 0 0 1 1.069.417q.447.411.447.99 0 .585-.447 1.002-.44.41-1.069.41m7.681 10.528q-1.467 0-2.517-.604a4.1 4.1 0 0 1-1.606-1.678q-.562-1.08-.562-2.5 0-1.424.562-2.498a4.1 4.1 0 0 1 1.612-1.685q1.05-.603 2.505-.604 1.286 0 2.24.465.96.465 1.497 1.316.543.846.573 1.987h-2.759q-.084-.713-.483-1.117-.392-.405-1.026-.405-.513 0-.899.29-.387.284-.604.845-.211.556-.211 1.377 0 .82.211 1.388.217.561.604.851.386.285.899.284.41 0 .725-.175.32-.175.525-.513.205-.344.259-.833h2.759q-.042 1.146-.573 2.004a3.55 3.55 0 0 1-1.479 1.334q-.948.471-2.252.471m12.142-.175h-3.212l4.172-12.364h3.978l4.171 12.364h-3.211l-2.904-9.249h-.097zm-.429-4.866h6.713v2.27h-6.713zm10.87 4.866V31.136h5.107q1.388 0 2.396.544a3.8 3.8 0 0 1 1.564 1.503q.549.96.549 2.233 0 1.28-.561 2.24-.555.954-1.588 1.48-1.032.525-2.451.524h-3.151v-2.354h2.596q.676 0 1.129-.235.459-.236.694-.658.235-.429.235-.996 0-.575-.235-.99a1.6 1.6 0 0 0-.694-.652q-.459-.23-1.129-.23h-1.473V43.5zm14.078-12.364V43.5h-2.989V31.136z"/></g></g><rect width="220.9" height="53.9" x="1.05" y="1.05" stroke="#fff" stroke-opacity=".15" stroke-width="2.1" rx="6.95"/><defs><linearGradient id="b" x1="111.5" x2="111.5" y1="0" y2="56" gradientUnits="userSpaceOnUse"><stop stop-color="#2a0e2b"/><stop offset="1" stop-color="#0c1723"/></linearGradient><linearGradient id="e" x1="60" x2="211" y1="28.5" y2="28.5" gradientUnits="userSpaceOnUse"><stop stop-color="#e17be1"/><stop offset="1" stop-color="#98a1ff"/></linearGradient><filter id="c" width="53.312" height="53.312" x="6.286" y="2.286" color-interpolation-filters="sRGB" filterUnits="userSpaceOnUse"><feFlood flood-opacity="0" result="BackgroundImageFix"/><feColorMatrix in="SourceAlpha" result="hardAlpha" values="0 0 0 0 0 0 0 0 0 0 0 0 0 0 0 0 0 0 127 0"/><feOffset/><feGaussianBlur stdDeviation="2.857"/><feComposite in2="hardAlpha" operator="out"/><feColorMatrix values="0 0 0 0 0 0 0 0 0 0 0 0 0 0 0 0 0 0 0.25 0"/><feBlend in2="BackgroundImageFix" result="effect1_dropShadow_28_684"/><feBlend in="SourceGraphic" in2="effect1_dropShadow_28_684" result="shape"/></filter><filter id="d" width="162.2" height="48.2" x="54.4" y="3.9" color-interpolation-filters="sRGB" filterUnits="userSpaceOnUse"><feFlood flood-opacity="0" result="BackgroundImageFix"/><feColorMatrix in="SourceAlpha" result="hardAlpha" values="0 0 0 0 0 0 0 0 0 0 0 0 0 0 0 0 0 0 127 0"/><feOffset/><feGaussianBlur stdDeviation="2.8"/><feComposite in2="hardAlpha" operator="out"/><feColorMatrix values="0 0 0 0 0 0 0 0 0 0 0 0 0 0 0 0 0 0 0.25 0"/><feBlend in2="BackgroundImageFix" result="effect1_dropShadow_28_684"/><feBlend in="SourceGraphic" in2="effect1_dropShadow_28_684" result="shape"/></filter><clipPath id="a"><rect width="223" height="56" fill="#fff" rx="8"/></clipPath></defs></svg>