<svg xmlns="http://www.w3.org/2000/svg" width="272" height="56" fill="none" viewBox="0 0 272 56"><g clip-path="url(#a)"><rect width="272" height="56" fill="url(#b)" rx="8"/><g filter="url(#c)"><path fill="#9722ff" d="M23.121 13.536a.707.707 0 0 0 .707.707h1.202v2.687h-1.202a.706.706 0 1 0 0 1.414h1.202v2.06a.626.626 0 0 1-.626.626h-2.06v-1.202a.707.707 0 1 0-1.414 0v1.202h-2.687v-1.202a.707.707 0 1 0-1.413 0v1.202h-2.06a.627.627 0 0 1-.627-.626V10.77a.626.626 0 0 1 .626-.626h9.635a.626.626 0 0 1 .626.626v2.06h-1.202a.71.71 0 0 0-.707.707"/><path fill="#dc29dd" d="M35.421 13.536a.707.707 0 0 0 .707.707h1.205v2.687h-1.202a.706.706 0 1 0 0 1.414h1.202v2.06a.627.627 0 0 1-.626.626h-9.636a.626.626 0 0 1-.626-.626v-2.06h1.2a.707.707 0 0 0 0-1.414h-1.2v-2.687h1.2a.709.709 0 1 0 0-1.414h-1.2v-2.06a.626.626 0 0 1 .626-.626h9.635a.626.626 0 0 1 .626.626v2.06H36.13a.706.706 0 0 0-.709.707"/><path fill="#27a2fd" d="M49.633 10.77v9.634a.626.626 0 0 1-.626.626h-2.06v-1.202a.707.707 0 1 0-1.414 0v1.202h-2.687v-1.202a.707.707 0 1 0-1.414 0v1.202h-2.06a.627.627 0 0 1-.626-.626v-2.06h1.202a.707.707 0 1 0 0-1.414h-1.202v-2.687h1.202a.707.707 0 0 0 0-1.414h-1.202v-2.06a.626.626 0 0 1 .626-.626h9.635a.626.626 0 0 1 .626.626"/><path fill="#dc29dd" d="M25.03 23.07v9.635a.626.626 0 0 1-.626.627h-2.06V32.13a.707.707 0 0 0-1.414 0v1.203h-2.687v-1.202a.707.707 0 0 0-1.413 0v1.202h-2.06a.627.627 0 0 1-.627-.626V23.07a.627.627 0 0 1 .626-.626h2.06v1.202a.707.707 0 0 0 1.414 0v-1.202h2.687v1.202a.707.707 0 1 0 1.414 0v-1.202h2.06a.626.626 0 0 1 .626.626"/><path fill="#27a2fd" d="M35.421 25.838a.707.707 0 0 0 .707.706h1.205v2.687h-1.202a.707.707 0 1 0 0 1.414h1.202v2.06a.626.626 0 0 1-.626.627h-2.062V32.13a.707.707 0 0 0-1.414 0v1.203h-2.686v-1.202a.707.707 0 0 0-1.415 0v1.202h-2.06a.626.626 0 0 1-.625-.626V23.07a.626.626 0 0 1 .626-.626h9.635a.627.627 0 0 1 .626.626v2.06H36.13a.706.706 0 0 0-.709.708"/><path fill="#34f" d="M49.633 23.07v9.635a.63.63 0 0 1-.626.627h-9.635a.626.626 0 0 1-.626-.627v-2.06h1.202a.707.707 0 1 0 0-1.414h-1.202v-2.687h1.202a.707.707 0 1 0 0-1.413h-1.202v-2.06a.627.627 0 0 1 .626-.627h2.059v1.202a.707.707 0 0 0 1.414 0v-1.202h2.686v1.202a.707.707 0 0 0 1.414 0v-1.202h2.06a.626.626 0 0 1 .628.626"/><path fill="#9722ff" d="M23.121 38.14a.707.707 0 0 0 .707.706h1.202v2.687h-1.202a.708.708 0 0 0 0 1.414h1.202v2.06a.626.626 0 0 1-.626.627h-9.635a.627.627 0 0 1-.626-.627v-9.635a.627.627 0 0 1 .626-.626h2.06v1.201a.707.707 0 1 0 1.414 0v-1.201h2.687v1.201a.706.706 0 1 0 1.414 0v-1.201h2.06a.626.626 0 0 1 .626.626v2.059h-1.202a.71.71 0 0 0-.707.709"/><path fill="#34f" d="M37.333 35.372v9.635a.627.627 0 0 1-.626.627h-9.636a.626.626 0 0 1-.626-.627v-2.06h1.2a.707.707 0 1 0 0-1.415h-1.2v-2.686h1.2a.705.705 0 0 0 .73-.707.71.71 0 0 0-.73-.707h-1.2v-2.06a.626.626 0 0 1 .626-.626h2.06v1.201a.707.707 0 1 0 1.414 0v-1.201h2.686v1.201a.707.707 0 0 0 1.414 0v-1.201h2.06a.626.626 0 0 1 .628.626"/><path fill="#9722ff" d="m46.001 35.188-6.813 6.813a.626.626 0 0 0 0 .886l6.813 6.813a.626.626 0 0 0 .886 0l6.813-6.813a.626.626 0 0 0 0-.886l-6.813-6.813a.626.626 0 0 0-.886 0"/></g><g filter="url(#d)"><path fill="#e8e8e8" d="M61.278 24.5V12.864h4.148q1.353 0 2.245.465.897.466 1.34 1.29.444.82.444 1.892 0 1.07-.45 1.881-.443.807-1.34 1.256-.892.449-2.245.449h-3.142v-1.512h2.983q.853 0 1.387-.244.54-.245.79-.71.25-.466.25-1.12 0-.659-.256-1.142a1.65 1.65 0 0 0-.79-.738q-.534-.262-1.403-.262h-2.205V24.5zm5.745-5.25 2.875 5.25h-2l-2.818-5.25zm8.084 5.426q-1.29 0-2.222-.551a3.74 3.74 0 0 1-1.432-1.562q-.5-1.012-.5-2.37 0-1.341.5-2.364a3.9 3.9 0 0 1 1.41-1.596q.908-.574 2.124-.574.74 0 1.432.244.693.244 1.244.768.551.522.87 1.357.318.83.318 2.018v.602h-6.938v-1.273h5.273q0-.67-.273-1.187a2.06 2.06 0 0 0-.767-.824q-.489-.302-1.147-.302-.717 0-1.25.353a2.36 2.36 0 0 0-.819.909q-.284.556-.284 1.21v.994q0 .876.307 1.489.313.615.87.938.556.318 1.3.318.483 0 .881-.137.398-.142.688-.42.289-.279.443-.688l1.608.29q-.194.71-.693 1.244a3.36 3.36 0 0 1-1.245.824q-.744.29-1.699.29m11.52 3.097v-4.631h-.101q-.154.279-.444.636-.283.358-.784.625-.5.267-1.295.268-1.058 0-1.886-.54-.825-.546-1.296-1.552-.466-1.01-.466-2.426 0-1.415.472-2.42.478-1.006 1.306-1.54a3.4 3.4 0 0 1 1.881-.534q.813 0 1.307.273.499.267.773.625.278.359.432.63h.142v-1.414h1.659v12zm-2.25-4.551q.734 0 1.24-.387.51-.392.772-1.085.267-.693.267-1.614 0-.909-.261-1.59-.261-.683-.767-1.063t-1.25-.38q-.767 0-1.279.397-.51.398-.772 1.085-.255.688-.256 1.551 0 .875.261 1.574.262.699.773 1.108.517.404 1.273.404M96.14 20.88v-5.108h1.705V24.5h-1.67v-1.511h-.092q-.3.698-.965 1.164-.66.46-1.643.46-.84 0-1.488-.369-.642-.375-1.012-1.108-.363-.732-.363-1.812v-5.551h1.699v5.346q0 .893.494 1.42.494.53 1.284.53.478 0 .949-.24.477-.239.79-.721.318-.483.312-1.227m3.987 3.619v-8.727h1.699V24.5zm.858-10.074a1.08 1.08 0 0 1-.761-.295.96.96 0 0 1-.312-.716.95.95 0 0 1 .312-.716q.318-.3.761-.301.444 0 .756.3a.94.94 0 0 1 .318.717.95.95 0 0 1-.318.716 1.06 1.06 0 0 1-.756.295m3.127 10.074v-8.727h1.642v1.386h.091q.238-.705.841-1.108.607-.41 1.375-.409a7 7 0 0 1 .721.04v1.625a3 3 0 0 0-.363-.063 3.5 3.5 0 0 0-.523-.04q-.603 0-1.074.256a1.9 1.9 0 0 0-1.011 1.71v5.33zm9.589.176q-1.29 0-2.221-.551a3.73 3.73 0 0 1-1.432-1.562q-.5-1.012-.5-2.37 0-1.341.5-2.364a3.9 3.9 0 0 1 1.409-1.596q.909-.574 2.125-.574.739 0 1.432.244t1.244.768q.552.522.869 1.357.32.83.319 2.018v.602h-6.938v-1.273h5.273q0-.67-.273-1.187a2.06 2.06 0 0 0-.767-.824q-.488-.302-1.148-.302-.716 0-1.25.353a2.36 2.36 0 0 0-.818.909 2.6 2.6 0 0 0-.284 1.21v.994q0 .876.307 1.489.312.615.869.938.557.318 1.301.318.483 0 .881-.137a1.83 1.83 0 0 0 1.131-1.108l1.608.29q-.193.71-.694 1.244a3.35 3.35 0 0 1-1.244.824q-.744.29-1.699.29m12.169-6.773-1.539.273a1.8 1.8 0 0 0-.307-.562 1.5 1.5 0 0 0-.557-.438q-.353-.17-.881-.17-.721 0-1.204.323-.483.319-.483.824 0 .438.324.705.323.267 1.045.438l1.386.318q1.205.277 1.796.858.591.58.591 1.505 0 .785-.455 1.398-.449.608-1.255.954-.802.348-1.858.347-1.467 0-2.392-.625-.927-.63-1.137-1.79l1.642-.25q.153.642.631.972.477.324 1.244.324.836 0 1.335-.347.5-.352.5-.858a.9.9 0 0 0-.306-.687q-.302-.279-.927-.42l-1.477-.325q-1.22-.277-1.807-.886-.579-.607-.579-1.54a2.2 2.2 0 0 1 .432-1.352q.431-.579 1.193-.903.761-.33 1.744-.33 1.415 0 2.227.614.813.608 1.074 1.63"/><path fill="url(#e)" d="M65.663 39.057h2.414l1.027 1.31 1.346 1.545 2.07 2.554h-2.704l-1.449-1.733-.857-1.231zm6.942-1.739q0 2.04-.785 3.46-.784 1.418-2.125 2.154-1.334.737-2.994.737-1.665 0-3-.742-1.334-.743-2.12-2.156-.778-1.418-.778-3.453 0-2.04.779-3.459.785-1.419 2.119-2.155 1.335-.737 3-.737 1.66 0 2.994.737 1.34.736 2.125 2.155t.785 3.46m-3.055 0q0-1.208-.344-2.04-.338-.834-.978-1.262-.633-.429-1.527-.429-.887 0-1.527.429t-.984 1.262q-.338.833-.338 2.04t.338 2.04q.343.834.984 1.262.639.429 1.527.429.894 0 1.527-.429.64-.428.978-1.261.344-.834.344-2.04m10.799 2.18v-5.27h2.946v9.27h-2.813v-1.727h-.097a2.7 2.7 0 0 1-1.05 1.353q-.737.495-1.781.495-.948 0-1.666-.435a2.96 2.96 0 0 1-1.117-1.213q-.398-.785-.405-1.836v-5.91h2.952v5.33q.007.755.399 1.19t1.068.435q.441 0 .791-.193.357-.2.562-.574.21-.38.211-.917m4.825 4.002v-9.273h2.952V43.5zm1.479-10.353q-.622 0-1.069-.41a1.32 1.32 0 0 1-.446-1.003q0-.579.447-.99a1.5 1.5 0 0 1 1.068-.417q.628 0 1.069.417.446.411.446.99 0 .585-.446 1.002-.44.41-1.069.41m6.304-2.01V43.5h-2.952V31.136zm7.113 3.09V36.4h-5.85v-2.174zm-4.624-2.221h2.952v8.578q0 .272.084.44.09.165.26.236.17.067.404.067.17 0 .357-.03a5 5 0 0 0 .29-.06l.446 2.13q-.211.06-.598.151a5 5 0 0 1-.911.115q-1.038.048-1.781-.242a2.3 2.3 0 0 1-1.129-.917q-.386-.622-.374-1.564zm16.466 2.837q-.061-.665-.538-1.032-.47-.375-1.346-.375-.579 0-.966.151-.386.151-.579.417a1 1 0 0 0-.2.598.9.9 0 0 0 .109.489q.127.21.362.374.241.157.58.277.338.122.76.212l1.063.241q.918.2 1.618.532.706.331 1.183.79.483.459.731 1.057.247.597.253 1.34-.006 1.17-.592 2.01-.585.84-1.684 1.286-1.093.447-2.638.447-1.551 0-2.705-.465-1.153-.464-1.792-1.413-.64-.947-.658-2.396h2.861q.036.597.32.996t.779.604q.5.204 1.159.205.603 0 1.026-.163.429-.163.658-.453a1.07 1.07 0 0 0 .236-.664.92.92 0 0 0-.218-.598q-.211-.254-.652-.434-.435-.188-1.111-.344l-1.291-.302q-1.606-.369-2.53-1.19-.924-.825-.918-2.233-.006-1.148.616-2.01.622-.864 1.721-1.347 1.098-.483 2.505-.483 1.437 0 2.493.49 1.063.482 1.648 1.358.586.875.598 2.028zm9.773-.616V36.4h-5.849v-2.174zm-4.624-2.221h2.952v8.578q0 .272.085.44.09.165.259.236.17.067.405.067.168 0 .356-.03.193-.038.29-.06l.446 2.13q-.21.06-.597.151-.381.09-.912.115-1.038.048-1.781-.242a2.3 2.3 0 0 1-1.129-.917q-.386-.622-.374-1.564zm8.745 11.651q-.888 0-1.576-.296a2.46 2.46 0 0 1-1.081-.905q-.392-.61-.392-1.528 0-.773.272-1.304.271-.531.748-.863a3.5 3.5 0 0 1 1.099-.501 7 7 0 0 1 1.328-.235q.79-.074 1.274-.151.483-.085.7-.236a.51.51 0 0 0 .223-.44v-.03q0-.465-.32-.72-.32-.252-.863-.253-.585 0-.942.254a1.12 1.12 0 0 0-.452.7l-2.723-.096a3.2 3.2 0 0 1 .622-1.51q.507-.67 1.388-1.05.888-.387 2.131-.387.888 0 1.636.212.749.205 1.304.604.556.392.858.965.307.575.307 1.31V43.5h-2.777v-1.292h-.072q-.247.471-.634.797-.38.326-.899.489a3.8 3.8 0 0 1-1.159.163m.911-1.932q.477 0 .857-.193.387-.194.616-.531.23-.344.23-.797v-.882a2 2 0 0 1-.308.121q-.175.054-.387.103-.211.048-.434.084l-.429.067a2.7 2.7 0 0 0-.712.205 1.1 1.1 0 0 0-.447.362.9.9 0 0 0-.151.52q0 .458.326.7.332.24.839.241m9.388-3.513V43.5h-2.953v-9.273h2.808v1.703h.102a2.6 2.6 0 0 1 1.051-1.334q.742-.49 1.769-.49.978 0 1.696.441.724.435 1.123 1.22.404.779.398 1.823v5.91h-2.952v-5.33q.006-.773-.392-1.208-.393-.435-1.093-.435-.465 0-.821.206a1.36 1.36 0 0 0-.543.573q-.187.375-.193.906m11.209 5.42a3.4 3.4 0 0 1-1.866-.53q-.839-.532-1.34-1.594t-.501-2.638q0-1.636.519-2.693.52-1.056 1.358-1.563a3.5 3.5 0 0 1 1.818-.508q.73 0 1.249.254.52.247.857.64.339.392.514.815h.06v-4.679h2.952V43.5h-2.922v-1.503h-.09a2.9 2.9 0 0 1-.532.803q-.344.374-.863.603-.514.23-1.213.23m1.026-2.3q.537 0 .918-.301.38-.308.585-.863t.205-1.304q0-.762-.205-1.31-.2-.55-.585-.846a1.45 1.45 0 0 0-.918-.295q-.549 0-.93.302-.38.3-.579.85-.194.55-.194 1.299t.2 1.304.573.863q.381.302.93.302m9.075 2.325q-.888 0-1.576-.296a2.45 2.45 0 0 1-1.08-.905q-.393-.61-.393-1.528 0-.773.272-1.304t.749-.863a3.5 3.5 0 0 1 1.098-.501 7 7 0 0 1 1.328-.235q.791-.074 1.274-.151.483-.085.7-.236a.51.51 0 0 0 .224-.44v-.03q0-.465-.32-.72-.32-.252-.863-.253-.587 0-.942.254a1.1 1.1 0 0 0-.453.7l-2.723-.096a3.2 3.2 0 0 1 .622-1.51q.507-.67 1.389-1.05.887-.387 2.131-.387.887 0 1.636.212.748.205 1.304.604.555.392.857.965.308.575.308 1.31V43.5h-2.777v-1.292h-.073q-.247.471-.633.797-.381.326-.9.489a3.8 3.8 0 0 1-1.159.163m.911-1.932q.477 0 .858-.193a1.6 1.6 0 0 0 .616-.531 1.4 1.4 0 0 0 .229-.797v-.882a2 2 0 0 1-.308.121q-.175.054-.386.103t-.435.084l-.429.067a2.7 2.7 0 0 0-.712.205 1.13 1.13 0 0 0-.447.362.9.9 0 0 0-.151.52q0 .458.326.7.333.24.839.241m6.436 1.775v-9.273h2.867v1.69h.097q.254-.917.827-1.364a2.1 2.1 0 0 1 1.334-.453q.206 0 .423.03.218.025.404.08v2.565a3 3 0 0 0-.555-.115 5 5 0 0 0-.604-.042q-.525 0-.948.235a1.7 1.7 0 0 0-.658.646 1.9 1.9 0 0 0-.235.966V43.5zm10.06.133a3.4 3.4 0 0 1-1.865-.531q-.839-.532-1.34-1.594t-.501-2.638q0-1.636.519-2.693.52-1.056 1.358-1.563a3.47 3.47 0 0 1 1.817-.508q.73 0 1.25.254.52.247.857.64.339.392.513.815h.061v-4.679h2.952V43.5h-2.922v-1.503h-.091a2.9 2.9 0 0 1-.531.803q-.344.374-.863.603-.513.23-1.214.23m1.027-2.3q.537 0 .917-.302.38-.308.586-.863t.205-1.304q0-.762-.205-1.31-.2-.55-.586-.846a1.45 1.45 0 0 0-.917-.295q-.55 0-.93.302-.38.3-.58.85-.192.55-.193 1.299 0 .748.199 1.304.2.555.574.863.38.302.93.302m10.113 2.167V31.136h2.988v9.937h5.144V43.5zm9.679 0v-9.273h2.952V43.5zm1.479-10.353q-.622 0-1.069-.41a1.32 1.32 0 0 1-.446-1.003q0-.579.446-.99a1.5 1.5 0 0 1 1.069-.417q.628 0 1.068.417.447.411.447.99 0 .585-.447 1.002a1.5 1.5 0 0 1-1.068.41m3.352 10.353V31.136h2.952v4.679h.06q.181-.422.513-.815.339-.393.858-.64.525-.254 1.255-.254.966 0 1.805.508.846.507 1.365 1.563t.519 2.693q0 1.575-.501 2.638-.495 1.063-1.34 1.594a3.4 3.4 0 0 1-1.866.53q-.7 0-1.213-.229a2.7 2.7 0 0 1-.864-.603 2.9 2.9 0 0 1-.531-.803h-.09V43.5zm2.892-4.636q0 .748.199 1.304.205.555.585.863.387.302.924.302.543 0 .924-.302.38-.308.573-.863.2-.555.199-1.304 0-.75-.199-1.298-.194-.55-.573-.852-.375-.3-.924-.301-.543 0-.924.295-.38.297-.585.846-.2.548-.199 1.31m7.982 4.636v-9.273h2.867v1.69h.097q.254-.917.827-1.364a2.1 2.1 0 0 1 1.334-.453q.206 0 .423.03.217.025.404.08v2.565a3 3 0 0 0-.555-.115 5 5 0 0 0-.604-.042q-.525 0-.948.235a1.7 1.7 0 0 0-.658.646 1.9 1.9 0 0 0-.235.966V43.5zm9.42.157q-.887 0-1.575-.296a2.46 2.46 0 0 1-1.081-.905q-.392-.61-.392-1.528 0-.773.271-1.304a2.3 2.3 0 0 1 .749-.863 3.5 3.5 0 0 1 1.099-.501 7 7 0 0 1 1.328-.235q.79-.074 1.274-.151.483-.085.7-.236a.51.51 0 0 0 .223-.44v-.03q0-.465-.32-.72-.32-.252-.863-.253-.585 0-.942.254a1.12 1.12 0 0 0-.452.7l-2.723-.096q.12-.846.622-1.51.507-.67 1.388-1.05.888-.387 2.131-.387.888 0 1.636.212.749.205 1.304.604.556.392.857.965.308.575.308 1.31V43.5h-2.777v-1.292h-.072q-.247.471-.634.797-.38.326-.899.489a3.8 3.8 0 0 1-1.16.163m.912-1.932q.477 0 .857-.193.387-.194.616-.531.23-.344.229-.797v-.882a2 2 0 0 1-.307.121q-.175.054-.387.103t-.434.084l-.429.067a2.7 2.7 0 0 0-.712.205 1.1 1.1 0 0 0-.447.362.9.9 0 0 0-.151.52q0 .458.326.7.332.24.839.241m6.435 1.775v-9.273h2.868v1.69h.097q.253-.917.827-1.364a2.1 2.1 0 0 1 1.334-.453q.205 0 .422.03.217.025.405.08v2.565a3 3 0 0 0-.556-.115 5 5 0 0 0-.603-.042q-.525 0-.948.235a1.7 1.7 0 0 0-.658.646 1.9 1.9 0 0 0-.236.966V43.5zm7.156 0v-9.273h2.952V43.5zm1.479-10.353q-.622 0-1.069-.41a1.32 1.32 0 0 1-.447-1.003q0-.579.447-.99a1.5 1.5 0 0 1 1.069-.417q.627 0 1.068.417.447.411.447.99 0 .585-.447 1.002a1.5 1.5 0 0 1-1.068.41m7.686 10.528q-1.455 0-2.511-.573a3.97 3.97 0 0 1-1.618-1.648q-.561-1.075-.561-2.554 0-1.437.567-2.511.568-1.08 1.6-1.679 1.032-.603 2.433-.604.99 0 1.811.308a3.9 3.9 0 0 1 1.418.912q.599.604.93 1.491.332.882.332 2.023v.736h-8.059V37.86h5.312a1.66 1.66 0 0 0-.223-.839 1.5 1.5 0 0 0-.598-.573 1.7 1.7 0 0 0-.863-.211q-.495 0-.887.223a1.68 1.68 0 0 0-.864 1.449v1.745q0 .567.224.996.223.421.634.658.41.235.978.235.392 0 .712-.109.32-.108.549-.32.23-.21.344-.519l2.711.079a3.35 3.35 0 0 1-.743 1.587q-.567.67-1.491 1.045-.923.368-2.137.368m14.004-6.616-2.71.072a1 1 0 0 0-.23-.513 1.2 1.2 0 0 0-.489-.356 1.7 1.7 0 0 0-.688-.133q-.513 0-.875.205-.357.205-.35.556a.6.6 0 0 0 .217.47q.23.2.815.32l1.787.339q1.389.265 2.065.88.682.617.688 1.63-.006.955-.568 1.661-.555.706-1.521 1.099-.966.386-2.209.386-1.987 0-3.134-.815-1.14-.821-1.304-2.197l2.916-.073q.097.507.501.773.405.266 1.033.266.567 0 .923-.212.356-.21.362-.561a.6.6 0 0 0-.277-.501q-.272-.194-.851-.302l-1.618-.308q-1.395-.253-2.077-.936-.682-.688-.676-1.75-.006-.93.495-1.588.501-.664 1.425-1.014.923-.35 2.179-.35 1.884 0 2.97.79 1.087.785 1.201 2.162"/></g></g><rect width="269.9" height="53.9" x="1.05" y="1.05" stroke="#fff" stroke-opacity=".15" stroke-width="2.1" rx="6.95"/><defs><linearGradient id="b" x1="136" x2="136" y1="0" y2="56" gradientUnits="userSpaceOnUse"><stop stop-color="#2a0e2b"/><stop offset="1" stop-color="#0c1723"/></linearGradient><linearGradient id="e" x1="60" x2="260" y1="28.5" y2="28.5" gradientUnits="userSpaceOnUse"><stop stop-color="#e17be1"/><stop offset="1" stop-color="#98a1ff"/></linearGradient><filter id="c" width="53.312" height="53.312" x="6.286" y="2.286" color-interpolation-filters="sRGB" filterUnits="userSpaceOnUse"><feFlood flood-opacity="0" result="BackgroundImageFix"/><feColorMatrix in="SourceAlpha" result="hardAlpha" values="0 0 0 0 0 0 0 0 0 0 0 0 0 0 0 0 0 0 127 0"/><feOffset/><feGaussianBlur stdDeviation="2.857"/><feComposite in2="hardAlpha" operator="out"/><feColorMatrix values="0 0 0 0 0 0 0 0 0 0 0 0 0 0 0 0 0 0 0.25 0"/><feBlend in2="BackgroundImageFix" result="effect1_dropShadow_28_699"/><feBlend in="SourceGraphic" in2="effect1_dropShadow_28_699" result="shape"/></filter><filter id="d" width="211.2" height="48.2" x="54.4" y="3.9" color-interpolation-filters="sRGB" filterUnits="userSpaceOnUse"><feFlood flood-opacity="0" result="BackgroundImageFix"/><feColorMatrix in="SourceAlpha" result="hardAlpha" values="0 0 0 0 0 0 0 0 0 0 0 0 0 0 0 0 0 0 127 0"/><feOffset/><feGaussianBlur stdDeviation="2.8"/><feComposite in2="hardAlpha" operator="out"/><feColorMatrix values="0 0 0 0 0 0 0 0 0 0 0 0 0 0 0 0 0 0 0.25 0"/><feBlend in2="BackgroundImageFix" result="effect1_dropShadow_28_699"/><feBlend in="SourceGraphic" in2="effect1_dropShadow_28_699" result="shape"/></filter><clipPath id="a"><rect width="272" height="56" fill="#fff" rx="8"/></clipPath></defs></svg>