<svg xmlns="http://www.w3.org/2000/svg" width="164" height="56" fill="none" viewBox="0 0 164 56"><rect width="164" height="56" fill="url(#a)" rx="8"/><rect width="161.9" height="53.9" x="1.05" y="1.05" stroke="#fff" stroke-opacity=".15" stroke-width="2.1" rx="6.95"/><g filter="url(#b)"><path fill="#f1f1f1" d="M48.264 16.163v29.592c0 .79-.64 1.429-1.429 1.429h-29.67c-.79 0-1.429-.64-1.429-1.429v-35.51c0-.789.64-1.429 1.429-1.429h29.67c.79 0 1.429.64 1.429 1.429z"/><path fill="#231f20" d="M40.89 21.061H20.033a1 1 0 1 0 0 2H40.89a1 1 0 1 0 0-2m2.857 4.899H20.253a1 1 0 1 0 0 2h23.494a1 1 0 1 0 0-2m0 4.897H20.253a1 1 0 0 0 0 2h23.494a1 1 0 1 0 0-2m0 4.898H20.253a1 1 0 1 0 0 2h23.494a1 1 0 1 0 0-2m-5.274 4.898h-18.22a1 1 0 1 0 0 2h18.22a1 1 0 0 0 0-2m5.274 0H42.67a1 1 0 1 0 0 2h1.077a1 1 0 0 0 0-2m-20.22-28.979h-3.274a1 1 0 1 0 0 2h3.274a1 1 0 1 0 0-2m5.275 2.856h-8.55a1 1 0 1 0 0 2h8.55a1 1 0 1 0 0-2"/></g><g filter="url(#c)"><path fill="#e8e8e8" d="M61.278 24.5V12.864h4.148q1.353 0 2.245.465.897.466 1.34 1.29.444.82.444 1.892 0 1.07-.45 1.881-.443.807-1.34 1.256-.892.449-2.245.449h-3.142v-1.512h2.983q.853 0 1.387-.244.54-.245.79-.71.25-.466.25-1.12 0-.659-.256-1.142a1.65 1.65 0 0 0-.79-.738q-.534-.262-1.403-.262h-2.205V24.5zm5.745-5.25 2.875 5.25h-2l-2.818-5.25zm8.084 5.426q-1.29 0-2.222-.551a3.74 3.74 0 0 1-1.432-1.562q-.5-1.012-.5-2.37 0-1.341.5-2.364a3.9 3.9 0 0 1 1.41-1.596q.908-.574 2.124-.574.74 0 1.432.244.693.244 1.244.768.551.522.87 1.357.318.83.318 2.018v.602h-6.938v-1.273h5.273q0-.67-.273-1.187a2.06 2.06 0 0 0-.767-.824q-.489-.302-1.147-.302-.717 0-1.25.353a2.36 2.36 0 0 0-.819.909q-.284.556-.284 1.21v.994q0 .876.307 1.489.313.615.87.938.556.318 1.3.318.483 0 .881-.137.398-.142.688-.42.289-.279.443-.688l1.608.29q-.194.71-.693 1.244a3.36 3.36 0 0 1-1.245.824q-.744.29-1.699.29m8.169.017a3.6 3.6 0 0 1-1.5-.307 2.53 2.53 0 0 1-1.063-.903q-.386-.591-.386-1.449 0-.739.284-1.216.285-.477.767-.756a4 4 0 0 1 1.08-.42q.596-.142 1.215-.216l1.273-.148q.49-.061.71-.198.222-.137.222-.444v-.04q0-.744-.42-1.153-.415-.41-1.24-.409-.857 0-1.352.38-.487.376-.676.836l-1.596-.364q.284-.795.83-1.284.551-.495 1.266-.716.717-.227 1.506-.227.523 0 1.108.125.59.12 1.102.443.517.324.847.926.33.597.33 1.552V24.5h-1.66v-1.193h-.068q-.165.33-.494.648-.33.318-.847.528t-1.238.21m.369-1.364q.705 0 1.204-.278a1.95 1.95 0 0 0 .767-.727q.267-.454.267-.972v-1.125q-.09.091-.352.17-.255.075-.585.131-.33.052-.642.097l-.523.068q-.494.063-.903.21-.404.148-.648.427-.239.272-.239.727 0 .63.466.954.466.32 1.188.319m9.467 1.342q-1.056 0-1.886-.54-.824-.546-1.296-1.552-.466-1.01-.466-2.426 0-1.415.472-2.42.477-1.006 1.307-1.54a3.4 3.4 0 0 1 1.88-.534q.813 0 1.307.273.5.267.773.625.279.359.432.63h.102v-4.323h1.7V24.5h-1.66v-1.358h-.142q-.153.279-.443.636-.285.358-.784.625-.501.267-1.296.268m.375-1.45q.733 0 1.239-.386.51-.392.773-1.085.267-.693.267-1.614 0-.909-.262-1.59-.261-.683-.767-1.063t-1.25-.38q-.767 0-1.278.397-.512.398-.773 1.085-.255.688-.256 1.551 0 .875.262 1.574.261.699.773 1.108.516.404 1.272.404m14.682-7.448v1.363h-4.767v-1.363zm-3.489-2.091h1.699v8.256q0 .493.148.744a.77.77 0 0 0 .381.335q.238.085.517.085a2 2 0 0 0 .358-.028l.238-.046.307 1.404a3 3 0 0 1-.42.114 3.3 3.3 0 0 1-.682.068 3 3 0 0 1-1.25-.239 2.14 2.14 0 0 1-.938-.773q-.358-.523-.358-1.312zm7.255 5.636V24.5h-1.699V12.864h1.676v4.33h.108q.306-.706.937-1.12t1.648-.415q.898 0 1.568.37.677.369 1.046 1.102.375.727.375 1.818V24.5h-1.699v-5.347q0-.96-.494-1.488-.495-.534-1.375-.534a2.25 2.25 0 0 0-1.08.255q-.471.255-.744.75-.267.489-.267 1.182m11.687 5.358q-1.29 0-2.221-.551a3.73 3.73 0 0 1-1.432-1.562q-.5-1.012-.5-2.37 0-1.341.5-2.364a3.9 3.9 0 0 1 1.409-1.596q.909-.574 2.125-.574.739 0 1.432.244t1.244.768q.55.522.869 1.357.318.83.318 2.018v.602h-6.937v-1.273h5.273q0-.67-.273-1.187a2.07 2.07 0 0 0-.767-.824q-.488-.302-1.148-.302-.716 0-1.25.353a2.36 2.36 0 0 0-.818.909 2.6 2.6 0 0 0-.284 1.21v.994q0 .876.307 1.489.312.615.869.938.557.318 1.301.318.483 0 .881-.137a1.83 1.83 0 0 0 1.131-1.108l1.608.29q-.193.71-.694 1.244a3.35 3.35 0 0 1-1.244.824q-.744.29-1.699.29"/><path fill="#f1f1f1" d="M72.158 35.616H69.14q-.06-.465-.248-.84a2 2 0 0 0-.495-.64 2.1 2.1 0 0 0-.73-.404 2.8 2.8 0 0 0-.924-.145q-.9 0-1.551.441-.646.44-.996 1.274-.344.832-.344 2.016 0 1.232.35 2.065.356.827.996 1.25.646.416 1.527.416.495 0 .9-.127.41-.126.718-.368.314-.247.513-.598a2.4 2.4 0 0 0 .284-.803l3.018.019a4.6 4.6 0 0 1-.477 1.617 5.2 5.2 0 0 1-1.08 1.455 5.1 5.1 0 0 1-1.678 1.039q-.984.386-2.258.386-1.679 0-3.007-.736-1.322-.743-2.088-2.162-.767-1.418-.767-3.453 0-2.04.779-3.459.778-1.419 2.107-2.155 1.327-.737 2.976-.737 1.122 0 2.076.314a5 5 0 0 1 1.679.906q.724.592 1.177 1.455.453.862.561 1.974m4.662 2.596V43.5h-2.952V31.136h2.856v4.794h.102a2.7 2.7 0 0 1 1.027-1.34q.718-.484 1.757-.484.977 0 1.702.435a2.9 2.9 0 0 1 1.123 1.214q.404.785.398 1.835v5.91h-2.952v-5.33q.006-.773-.386-1.208-.393-.435-1.105-.435-.465 0-.821.206a1.4 1.4 0 0 0-.55.573q-.192.375-.199.906m10.47 5.445q-.888 0-1.576-.296a2.45 2.45 0 0 1-1.08-.905q-.393-.61-.393-1.528 0-.773.272-1.304.271-.531.748-.863a3.5 3.5 0 0 1 1.1-.501 7 7 0 0 1 1.327-.235q.791-.074 1.274-.151.484-.085.7-.236a.51.51 0 0 0 .224-.44v-.03q0-.465-.32-.72-.32-.252-.863-.253-.586 0-.942.254a1.12 1.12 0 0 0-.453.7l-2.723-.096a3.2 3.2 0 0 1 .622-1.51q.507-.67 1.389-1.05.887-.387 2.13-.387.888 0 1.637.212.748.205 1.304.604.555.392.857.965.308.575.308 1.31V43.5h-2.777v-1.292h-.073q-.248.471-.633.797-.381.326-.9.489a3.8 3.8 0 0 1-1.16.163m.911-1.932q.478 0 .858-.193.386-.194.615-.531.23-.344.23-.797v-.882a2 2 0 0 1-.308.121 5 5 0 0 1-.386.103q-.212.048-.435.084-.224.036-.429.067a2.7 2.7 0 0 0-.712.205 1.1 1.1 0 0 0-.447.362.9.9 0 0 0-.15.52q0 .458.325.7.333.24.84.241m9.388-3.513V43.5h-2.952v-9.273h2.807v1.703h.103a2.6 2.6 0 0 1 1.05-1.334q.743-.49 1.769-.49.978 0 1.696.441.725.435 1.123 1.22.405.779.399 1.823v5.91h-2.952v-5.33q.006-.773-.393-1.208-.392-.435-1.093-.435-.465 0-.82.206a1.36 1.36 0 0 0-.544.573q-.187.375-.193.906m12.145 8.958q-1.323 0-2.264-.368-.942-.367-1.479-1.008a2.8 2.8 0 0 1-.646-1.449l2.795-.157q.078.284.29.495.218.212.561.326.35.115.821.115.743 0 1.226-.362.489-.356.489-1.25v-1.63h-.103a2.2 2.2 0 0 1-.531.767 2.5 2.5 0 0 1-.888.531q-.525.193-1.207.193a3.75 3.75 0 0 1-1.859-.47q-.84-.478-1.347-1.474-.501-1.002-.501-2.577 0-1.624.52-2.675.519-1.056 1.358-1.563a3.47 3.47 0 0 1 1.817-.508q.73 0 1.25.254.525.247.863.64.337.392.513.815h.085v-1.588h2.94v9.31q0 1.176-.592 1.985t-1.654 1.226q-1.064.422-2.457.422m.09-5.946q.537 0 .918-.284.38-.283.585-.815.206-.53.206-1.273 0-.755-.206-1.298-.199-.55-.585-.846a1.45 1.45 0 0 0-.918-.295q-.55 0-.929.302-.38.3-.58.85-.193.544-.193 1.287t.199 1.273q.2.532.574.815.38.284.929.284m10.829 2.451q-1.455 0-2.511-.573a3.96 3.96 0 0 1-1.618-1.648q-.562-1.075-.562-2.554 0-1.437.568-2.511.567-1.08 1.6-1.679 1.032-.603 2.432-.604.99 0 1.812.308a3.9 3.9 0 0 1 1.418.912q.599.604.93 1.491.332.882.332 2.023v.736h-8.059v-1.715h5.312a1.66 1.66 0 0 0-.223-.839 1.5 1.5 0 0 0-.598-.573 1.7 1.7 0 0 0-.863-.211q-.495 0-.888.223a1.68 1.68 0 0 0-.863 1.449v1.745q0 .567.224.996.223.421.633.658.411.235.978.235.392 0 .713-.109.32-.108.549-.32.23-.21.344-.519l2.711.079a3.35 3.35 0 0 1-.743 1.587q-.567.67-1.491 1.045-.924.368-2.137.368m8.861-12.539V43.5h-2.952V31.136zm6.207 12.54q-1.461 0-2.511-.599a4.1 4.1 0 0 1-1.612-1.678q-.561-1.08-.561-2.505 0-1.432.561-2.505.567-1.08 1.612-1.679 1.05-.603 2.511-.604 1.46 0 2.506.604 1.05.598 1.611 1.678.568 1.075.568 2.506 0 1.425-.568 2.505a4.07 4.07 0 0 1-1.611 1.678q-1.045.598-2.506.598m.018-2.229q.531 0 .9-.326.367-.326.561-.905.2-.58.199-1.34 0-.773-.199-1.353-.194-.58-.561-.905a1.3 1.3 0 0 0-.9-.326q-.55 0-.929.326-.375.327-.574.905-.193.58-.193 1.353 0 .76.193 1.34.2.58.574.905.38.327.929.326m10.502 5.723q-1.322 0-2.264-.368-.942-.367-1.479-1.008a2.8 2.8 0 0 1-.646-1.449l2.795-.157q.078.284.29.495.217.212.561.326.35.115.821.115.743 0 1.226-.362.489-.356.489-1.25v-1.63h-.103a2.2 2.2 0 0 1-.531.767 2.5 2.5 0 0 1-.888.531q-.525.193-1.207.193a3.76 3.76 0 0 1-1.86-.47q-.839-.478-1.346-1.474-.501-1.002-.501-2.577 0-1.624.519-2.675.519-1.056 1.359-1.563a3.47 3.47 0 0 1 1.817-.508q.73 0 1.249.254.526.247.864.64.337.392.513.815h.084v-1.588h2.94v9.31q0 1.176-.591 1.985-.592.81-1.654 1.226-1.064.422-2.457.422m.09-5.946q.537 0 .918-.284.38-.283.585-.815.206-.53.206-1.273 0-.755-.206-1.298-.199-.55-.585-.846a1.45 1.45 0 0 0-.918-.295q-.549 0-.93.302-.38.3-.579.85-.193.544-.193 1.287t.199 1.273.573.815q.381.284.93.284"/></g><defs><filter id="b" width="51.429" height="51.429" x="6.286" y="2.286" color-interpolation-filters="sRGB" filterUnits="userSpaceOnUse"><feFlood flood-opacity="0" result="BackgroundImageFix"/><feColorMatrix in="SourceAlpha" result="hardAlpha" values="0 0 0 0 0 0 0 0 0 0 0 0 0 0 0 0 0 0 127 0"/><feOffset/><feGaussianBlur stdDeviation="2.857"/><feComposite in2="hardAlpha" operator="out"/><feColorMatrix values="0 0 0 0 0 0 0 0 0 0 0 0 0 0 0 0 0 0 0.25 0"/><feBlend in2="BackgroundImageFix" result="effect1_dropShadow_7_188"/><feBlend in="SourceGraphic" in2="effect1_dropShadow_7_188" result="shape"/></filter><filter id="c" width="103.2" height="48.87" x="54.4" y="3.9" color-interpolation-filters="sRGB" filterUnits="userSpaceOnUse"><feFlood flood-opacity="0" result="BackgroundImageFix"/><feColorMatrix in="SourceAlpha" result="hardAlpha" values="0 0 0 0 0 0 0 0 0 0 0 0 0 0 0 0 0 0 127 0"/><feOffset/><feGaussianBlur stdDeviation="2.8"/><feComposite in2="hardAlpha" operator="out"/><feColorMatrix values="0 0 0 0 0 0 0 0 0 0 0 0 0 0 0 0 0 0 0.25 0"/><feBlend in2="BackgroundImageFix" result="effect1_dropShadow_7_188"/><feBlend in="SourceGraphic" in2="effect1_dropShadow_7_188" result="shape"/></filter><linearGradient id="a" x1="82" x2="82" y1="0" y2="56" gradientUnits="userSpaceOnUse"><stop stop-color="#303030"/><stop offset="1" stop-color="#1d1d1d"/></linearGradient></defs></svg>