<svg xmlns="http://www.w3.org/2000/svg" width="203" height="56" fill="none" viewBox="0 0 203 56"><rect width="203" height="56" fill="url(#a)" rx="8"/><rect width="200.9" height="53.9" x="1.05" y="1.05" stroke="#fff" stroke-opacity=".15" stroke-width="2.1" rx="6.95"/><g filter="url(#b)"><path fill="#e8e8e8" fill-rule="evenodd" d="M13.429 14.032a1.74 1.74 0 0 1 1.74-1.746h9.873a8.68 8.68 0 0 1 6.964 3.494 8.7 8.7 0 0 1 3.073-2.574 8.7 8.7 0 0 1 3.898-.92h9.854c.461 0 .904.184 1.23.511.327.328.51.772.51 1.235v24.446a1.744 1.744 0 0 1-1.74 1.746H38.369a5.2 5.2 0 0 0-3.693 1.534l-1.444 1.446a1.74 1.74 0 0 1-2.46 0l-1.445-1.446a5.22 5.22 0 0 0-3.693-1.534H15.17c-.462 0-.905-.184-1.231-.512a1.75 1.75 0 0 1-.51-1.235zm20.323 6.984c0-1.389.55-2.721 1.53-3.704a5.22 5.22 0 0 1 3.693-1.534h8.112v20.953h-8.72c-1.649 0-3.25.468-4.625 1.332zM30.26 38.068l.01-11.811-.005-5.245a5.25 5.25 0 0 0-1.531-3.701 5.22 5.22 0 0 0-3.692-1.533h-8.131v20.953h8.72c1.638 0 3.243.463 4.63 1.337" clip-rule="evenodd"/></g><g fill="#e8e8e8" filter="url(#c)"><path d="M61.278 24.5V12.864h4.148q1.353 0 2.245.465.897.466 1.34 1.29.444.82.444 1.892 0 1.07-.45 1.881-.443.807-1.34 1.256-.892.449-2.245.449h-3.142v-1.512h2.983q.853 0 1.387-.244.54-.245.79-.71.25-.466.25-1.12 0-.659-.256-1.142a1.65 1.65 0 0 0-.79-.738q-.534-.262-1.403-.262h-2.205V24.5zm5.745-5.25 2.875 5.25h-2l-2.818-5.25zm8.084 5.426q-1.29 0-2.222-.551a3.74 3.74 0 0 1-1.432-1.562q-.5-1.012-.5-2.37 0-1.341.5-2.364a3.9 3.9 0 0 1 1.41-1.596q.908-.574 2.124-.574.74 0 1.432.244.693.244 1.244.768.551.522.87 1.357.318.83.318 2.018v.602h-6.938v-1.273h5.273q0-.67-.273-1.187a2.06 2.06 0 0 0-.767-.824q-.489-.302-1.147-.302-.717 0-1.25.353a2.36 2.36 0 0 0-.819.909q-.284.556-.284 1.21v.994q0 .876.307 1.489.313.615.87.938.556.318 1.3.318.483 0 .881-.137.398-.142.688-.42.289-.279.443-.688l1.608.29q-.194.71-.693 1.244a3.36 3.36 0 0 1-1.245.824q-.744.29-1.699.29m8.169.017a3.6 3.6 0 0 1-1.5-.307 2.53 2.53 0 0 1-1.063-.903q-.386-.591-.386-1.449 0-.739.284-1.216.285-.477.767-.756a4 4 0 0 1 1.08-.42q.596-.142 1.215-.216l1.273-.148q.49-.061.71-.198.222-.137.222-.444v-.04q0-.744-.42-1.153-.415-.41-1.24-.409-.857 0-1.352.38-.487.376-.676.836l-1.596-.364q.284-.795.83-1.284.551-.495 1.266-.716.717-.227 1.506-.227.523 0 1.108.125.59.12 1.102.443.517.324.847.926.33.597.33 1.552V24.5h-1.66v-1.193h-.068q-.165.33-.494.648-.33.318-.847.528t-1.238.21m.369-1.364q.705 0 1.204-.278a1.95 1.95 0 0 0 .767-.727q.267-.454.267-.972v-1.125q-.09.091-.352.17-.255.075-.585.131-.33.052-.642.097l-.523.068q-.494.063-.903.21-.404.148-.648.427-.239.272-.239.727 0 .63.466.954.466.32 1.188.319m9.467 1.342q-1.056 0-1.886-.54-.824-.546-1.296-1.552-.466-1.01-.466-2.426 0-1.415.472-2.42.477-1.006 1.307-1.54a3.4 3.4 0 0 1 1.88-.534q.813 0 1.307.273.5.267.773.625.279.359.432.63h.102v-4.323h1.7V24.5h-1.66v-1.358h-.142q-.153.279-.443.636-.285.358-.784.625-.501.267-1.296.268m.375-1.45q.733 0 1.239-.386.51-.392.773-1.085.267-.693.267-1.614 0-.909-.262-1.59-.261-.683-.767-1.063t-1.25-.38q-.767 0-1.278.397-.512.398-.773 1.085-.255.688-.256 1.551 0 .875.262 1.574.261.699.773 1.108.516.404 1.272.404m14.682-7.448v1.363h-4.767v-1.363zm-3.489-2.091h1.699v8.256q0 .493.148.744a.77.77 0 0 0 .381.335q.238.085.517.085a2 2 0 0 0 .358-.028l.238-.046.307 1.404a3 3 0 0 1-.42.114 3.3 3.3 0 0 1-.682.068 3 3 0 0 1-1.25-.239 2.14 2.14 0 0 1-.938-.773q-.358-.523-.358-1.312zm7.255 5.636V24.5h-1.699V12.864h1.676v4.33h.108q.306-.706.937-1.12t1.648-.415q.898 0 1.568.37.677.369 1.046 1.102.375.727.375 1.818V24.5h-1.699v-5.347q0-.96-.494-1.488-.495-.534-1.375-.534a2.25 2.25 0 0 0-1.08.255q-.471.255-.744.75-.267.489-.267 1.182m11.687 5.358q-1.29 0-2.221-.551a3.73 3.73 0 0 1-1.432-1.562q-.5-1.012-.5-2.37 0-1.341.5-2.364a3.9 3.9 0 0 1 1.409-1.596q.909-.574 2.125-.574.739 0 1.432.244t1.244.768q.55.522.869 1.357.318.83.318 2.018v.602h-6.937v-1.273h5.273q0-.67-.273-1.187a2.07 2.07 0 0 0-.767-.824q-.488-.302-1.148-.302-.716 0-1.25.353a2.36 2.36 0 0 0-.818.909 2.6 2.6 0 0 0-.284 1.21v.994q0 .876.307 1.489.312.615.869.938.557.318 1.301.318.483 0 .881-.137a1.83 1.83 0 0 0 1.131-1.108l1.608.29q-.193.71-.694 1.244a3.35 3.35 0 0 1-1.244.824q-.744.29-1.699.29M65.506 43.5h-4.57V31.136H65.5q1.89 0 3.254.743a5.1 5.1 0 0 1 2.112 2.125q.743 1.383.743 3.308 0 1.932-.742 3.32a5.1 5.1 0 0 1-2.107 2.132q-1.371.735-3.254.736m-1.582-2.548h1.467q1.038 0 1.757-.35.725-.355 1.092-1.153.375-.802.375-2.137t-.375-2.125q-.374-.796-1.104-1.147-.725-.356-1.787-.356h-1.425zm13.758 2.723q-1.46 0-2.511-.598a4.1 4.1 0 0 1-1.612-1.678q-.561-1.08-.561-2.505 0-1.432.56-2.505.569-1.08 1.613-1.679 1.05-.603 2.511-.604 1.462 0 2.505.604 1.05.598 1.612 1.678.568 1.075.568 2.506 0 1.425-.568 2.505a4.07 4.07 0 0 1-1.612 1.678q-1.043.598-2.505.598m.018-2.228q.531 0 .9-.326.367-.326.561-.905.2-.58.2-1.34 0-.773-.2-1.353-.194-.58-.561-.905a1.3 1.3 0 0 0-.9-.326 1.38 1.38 0 0 0-.93.326q-.374.327-.573.905-.193.58-.193 1.353 0 .76.193 1.34.2.58.574.905.38.327.93.326m10.508 2.228q-1.467 0-2.518-.604a4.1 4.1 0 0 1-1.606-1.678q-.561-1.08-.561-2.5 0-1.424.561-2.498a4.1 4.1 0 0 1 1.612-1.685q1.05-.603 2.505-.604 1.287 0 2.24.465.96.465 1.497 1.316.544.846.574 1.987h-2.759q-.084-.713-.483-1.117-.392-.405-1.026-.405-.513 0-.9.29-.386.284-.603.845-.212.556-.212 1.377 0 .82.212 1.388.217.561.603.851.387.285.9.284.41 0 .724-.175.32-.175.525-.513a2.05 2.05 0 0 0 .26-.833h2.759q-.043 1.146-.574 2.004a3.56 3.56 0 0 1-1.479 1.334q-.948.471-2.251.471m11.797-4.177v-5.27h2.946V43.5h-2.813v-1.727h-.097a2.7 2.7 0 0 1-1.05 1.353q-.737.495-1.78.495-.949 0-1.667-.435a2.96 2.96 0 0 1-1.117-1.213q-.399-.785-.404-1.836v-5.91h2.952v5.33q.006.755.398 1.19.393.435 1.069.435.44 0 .79-.193.357-.2.562-.574.21-.38.211-.917m4.825 4.002v-9.273h2.807v1.703h.103a2.64 2.64 0 0 1 .978-1.334q.688-.49 1.642-.49.966 0 1.654.496.689.494.876 1.328h.096A2.4 2.4 0 0 1 114 34.608q.755-.502 1.781-.502 1.317 0 2.137.846.821.84.821 2.306V43.5h-2.952v-5.566q0-.694-.356-1.056-.355-.369-.924-.369-.61 0-.959.399-.345.392-.345 1.056V43.5h-2.837v-5.596q0-.646-.35-1.02-.35-.375-.924-.375a1.25 1.25 0 0 0-1.147.707 1.8 1.8 0 0 0-.163.796V43.5zm20.073.175q-1.455 0-2.511-.573a3.96 3.96 0 0 1-1.618-1.648q-.562-1.075-.562-2.554 0-1.437.568-2.511.567-1.08 1.6-1.679 1.032-.603 2.432-.604.99 0 1.812.308a3.9 3.9 0 0 1 1.418.912q.599.604.93 1.491.332.882.332 2.023v.736h-8.059v-1.715h5.312a1.66 1.66 0 0 0-.223-.839 1.5 1.5 0 0 0-.598-.573 1.7 1.7 0 0 0-.863-.211q-.495 0-.888.223a1.68 1.68 0 0 0-.863 1.449v1.745q0 .567.224.996.223.421.633.658.411.235.978.235.392 0 .713-.109.32-.108.549-.32.23-.21.344-.519l2.711.079a3.35 3.35 0 0 1-.743 1.587q-.567.67-1.491 1.045-.924.368-2.137.368m8.861-5.463V43.5h-2.952v-9.273h2.807v1.703h.102a2.6 2.6 0 0 1 1.051-1.334q.743-.49 1.769-.49.978 0 1.696.441.724.435 1.123 1.22.405.779.398 1.823v5.91h-2.952v-5.33q.006-.773-.392-1.208-.393-.435-1.093-.435-.465 0-.821.206a1.36 1.36 0 0 0-.543.573q-.187.375-.193.906m13.056-3.985v2.174h-5.85v-2.174zm-4.624-2.221h2.952v8.578q0 .272.084.44a.53.53 0 0 0 .26.236q.169.067.404.067.17 0 .357-.03.192-.038.289-.06l.447 2.13q-.211.06-.598.151-.38.09-.911.115-1.038.048-1.781-.242a2.3 2.3 0 0 1-1.129-.917q-.386-.622-.374-1.564zm8.744 11.651q-.887 0-1.575-.296a2.46 2.46 0 0 1-1.081-.905q-.392-.61-.392-1.528 0-.773.271-1.304.272-.531.749-.863a3.5 3.5 0 0 1 1.099-.501 7 7 0 0 1 1.328-.235q.79-.074 1.274-.151.483-.085.7-.236a.51.51 0 0 0 .223-.44v-.03q0-.465-.32-.72-.32-.252-.863-.253-.585 0-.942.254a1.12 1.12 0 0 0-.453.7l-2.722-.096q.12-.846.622-1.51.507-.67 1.388-1.05.888-.387 2.131-.387.888 0 1.636.212.749.205 1.304.604.555.392.857.965.309.575.308 1.31V43.5h-2.777v-1.292h-.072q-.248.471-.634.797-.38.326-.9.489a3.8 3.8 0 0 1-1.159.163m.912-1.932q.477 0 .857-.193.387-.194.616-.531.23-.344.229-.797v-.882a1.7 1.7 0 0 1-.308.121 5 5 0 0 1-.386.103q-.212.048-.435.084t-.428.067a2.7 2.7 0 0 0-.713.205 1.1 1.1 0 0 0-.446.362.9.9 0 0 0-.151.52q0 .458.326.7.332.24.839.241m11.669-7.498v2.174h-5.85v-2.174zm-4.624-2.221h2.952v8.578q0 .272.085.44.09.165.259.236.17.067.405.067.168 0 .356-.03.193-.038.29-.06l.446 2.13q-.212.06-.597.151-.381.09-.912.115-1.038.048-1.781-.242a2.3 2.3 0 0 1-1.129-.917q-.386-.622-.374-1.564zm6.13 11.494v-9.273h2.953V43.5zm1.48-10.353q-.622 0-1.069-.41a1.32 1.32 0 0 1-.447-1.003q0-.579.447-.99a1.5 1.5 0 0 1 1.069-.417q.627 0 1.068.417.447.411.447.99 0 .585-.447 1.002a1.5 1.5 0 0 1-1.068.41m7.68 10.528q-1.461 0-2.511-.598a4.1 4.1 0 0 1-1.612-1.678q-.561-1.08-.562-2.505 0-1.432.562-2.505a4.07 4.07 0 0 1 1.612-1.679q1.05-.603 2.511-.604 1.461 0 2.505.604a4 4 0 0 1 1.612 1.678q.568 1.075.568 2.506 0 1.425-.568 2.505a4.07 4.07 0 0 1-1.612 1.678q-1.044.598-2.505.598m.018-2.228q.531 0 .9-.326.367-.326.561-.905.2-.58.199-1.34 0-.773-.199-1.353-.194-.58-.561-.905a1.3 1.3 0 0 0-.9-.326q-.549 0-.93.326-.374.327-.573.905-.193.58-.193 1.353 0 .76.193 1.34.2.58.573.905.381.327.93.326m9.131-3.235V43.5h-2.952v-9.273h2.807v1.703h.103a2.6 2.6 0 0 1 1.05-1.334q.743-.49 1.769-.49.978 0 1.696.441.725.435 1.123 1.22.405.779.399 1.823v5.91h-2.952v-5.33q.006-.773-.393-1.208-.392-.435-1.092-.435-.465 0-.822.206a1.36 1.36 0 0 0-.543.573q-.187.375-.193.906"/></g><defs><filter id="b" width="51.429" height="51.429" x="6.286" y="2.286" color-interpolation-filters="sRGB" filterUnits="userSpaceOnUse"><feFlood flood-opacity="0" result="BackgroundImageFix"/><feColorMatrix in="SourceAlpha" result="hardAlpha" values="0 0 0 0 0 0 0 0 0 0 0 0 0 0 0 0 0 0 127 0"/><feOffset/><feGaussianBlur stdDeviation="2.857"/><feComposite in2="hardAlpha" operator="out"/><feColorMatrix values="0 0 0 0 0 0 0 0 0 0 0 0 0 0 0 0 0 0 0.25 0"/><feBlend in2="BackgroundImageFix" result="effect1_dropShadow_28_411"/><feBlend in="SourceGraphic" in2="effect1_dropShadow_28_411" result="shape"/></filter><filter id="c" width="142.2" height="48.2" x="54.4" y="3.9" color-interpolation-filters="sRGB" filterUnits="userSpaceOnUse"><feFlood flood-opacity="0" result="BackgroundImageFix"/><feColorMatrix in="SourceAlpha" result="hardAlpha" values="0 0 0 0 0 0 0 0 0 0 0 0 0 0 0 0 0 0 127 0"/><feOffset/><feGaussianBlur stdDeviation="2.8"/><feComposite in2="hardAlpha" operator="out"/><feColorMatrix values="0 0 0 0 0 0 0 0 0 0 0 0 0 0 0 0 0 0 0.25 0"/><feBlend in2="BackgroundImageFix" result="effect1_dropShadow_28_411"/><feBlend in="SourceGraphic" in2="effect1_dropShadow_28_411" result="shape"/></filter><linearGradient id="a" x1="101.5" x2="101.5" y1="0" y2="56" gradientUnits="userSpaceOnUse"><stop stop-color="#1b2330"/><stop offset="1" stop-color="#10151d"/></linearGradient></defs></svg>