<svg xmlns="http://www.w3.org/2000/svg" width="182" height="56" fill="none" viewBox="0 0 182 56"><rect width="182" height="56" fill="url(#a)" rx="8"/><rect width="179.9" height="53.9" x="1.05" y="1.05" stroke="#fff" stroke-opacity=".15" stroke-width="2.1" rx="6.95"/><g stroke="#3fb950" stroke-linecap="round" stroke-linejoin="round" stroke-width="2.86" filter="url(#b)"><path d="M32 44.667c9.205 0 16.667-7.462 16.667-16.667S41.205 11.333 32 11.333 15.333 18.795 15.333 28 22.795 44.667 32 44.667"/><path fill="#3fb950" d="M32 29.667a1.667 1.667 0 1 0 0-3.334 1.667 1.667 0 0 0 0 3.334"/></g><g filter="url(#c)"><path fill="#e8e8e8" d="M67.625 15.92a1.66 1.66 0 0 0-.75-1.25q-.659-.448-1.66-.448-.715 0-1.238.227-.522.222-.812.614-.284.385-.284.88 0 .415.193.716.199.301.517.506.324.198.693.335.37.131.71.216l1.137.295q.556.136 1.142.37t1.085.613.807.944q.312.562.312 1.346 0 .989-.511 1.756-.506.767-1.472 1.21-.96.444-2.323.443-1.308 0-2.262-.415-.954-.414-1.494-1.176-.54-.767-.597-1.818h1.762q.05.63.409 1.051.362.415.926.62.568.198 1.244.198.744 0 1.324-.232.585-.24.92-.66.336-.426.336-.994 0-.517-.296-.846a2.2 2.2 0 0 0-.79-.546 8 8 0 0 0-1.119-.38l-1.375-.376q-1.398-.38-2.216-1.119-.812-.738-.812-1.954 0-1.006.545-1.756.546-.75 1.477-1.165.932-.42 2.103-.42 1.182 0 2.085.414.909.416 1.432 1.142.522.722.545 1.66zm7.575 8.756q-1.29 0-2.221-.551a3.74 3.74 0 0 1-1.432-1.562q-.5-1.012-.5-2.37 0-1.341.5-2.364a3.9 3.9 0 0 1 1.409-1.596q.909-.574 2.125-.574.739 0 1.432.244t1.244.768q.55.522.87 1.357.318.83.318 2.018v.602h-6.938v-1.273h5.273q0-.67-.273-1.187a2.06 2.06 0 0 0-.767-.824q-.489-.302-1.148-.302-.716 0-1.25.353a2.37 2.37 0 0 0-.818.909q-.284.556-.284 1.21v.994q0 .876.307 1.489.312.615.87.938.556.318 1.3.318.483 0 .881-.137.397-.142.688-.42.289-.279.443-.688l1.608.29q-.194.71-.694 1.244a3.36 3.36 0 0 1-1.244.824q-.744.29-1.699.29m9.39 0q-1.29 0-2.22-.551a3.74 3.74 0 0 1-1.433-1.562q-.5-1.012-.5-2.37 0-1.341.5-2.364a3.9 3.9 0 0 1 1.41-1.596q.909-.574 2.125-.574.739 0 1.431.244t1.245.768q.55.522.869 1.357.318.83.318 2.018v.602h-6.937v-1.273h5.272q0-.67-.272-1.187a2.06 2.06 0 0 0-.767-.824q-.49-.302-1.148-.302-.716 0-1.25.353a2.36 2.36 0 0 0-.818.909q-.285.556-.284 1.21v.994q0 .876.306 1.489.314.615.87.938.557.318 1.3.318.484 0 .882-.137.397-.142.687-.42.29-.279.443-.688l1.608.29q-.194.71-.693 1.244a3.36 3.36 0 0 1-1.244.824q-.744.29-1.7.29m13.938-8.903v1.363h-4.767v-1.363zm-3.488-2.091h1.699v8.256q0 .493.147.744a.77.77 0 0 0 .381.335q.24.085.517.085.204 0 .358-.028l.239-.046.306 1.404a3 3 0 0 1-.42.114q-.273.062-.682.068a3 3 0 0 1-1.25-.239 2.15 2.15 0 0 1-.937-.773q-.358-.523-.358-1.312zm7.254 5.636V24.5h-1.699V12.864h1.676v4.33h.108q.307-.706.938-1.12.63-.415 1.647-.415.898 0 1.569.37a2.5 2.5 0 0 1 1.045 1.102q.375.727.375 1.818V24.5h-1.699v-5.347q0-.96-.494-1.488-.495-.534-1.375-.534-.602 0-1.08.255-.471.255-.744.75-.267.489-.267 1.182m11.688 5.358q-1.29 0-2.222-.551a3.74 3.74 0 0 1-1.432-1.562q-.5-1.012-.5-2.37 0-1.341.5-2.364a3.9 3.9 0 0 1 1.409-1.596q.91-.574 2.125-.574.74 0 1.432.244.693.244 1.244.768.552.522.87 1.357.318.83.318 2.018v.602h-6.938v-1.273h5.273q0-.67-.273-1.187a2.05 2.05 0 0 0-.767-.824q-.488-.302-1.147-.302-.717 0-1.25.353a2.37 2.37 0 0 0-.819.909 2.6 2.6 0 0 0-.284 1.21v.994q0 .876.307 1.489.312.615.869.938.557.318 1.302.318.483 0 .88-.137.398-.142.688-.42.29-.279.443-.688l1.608.29q-.194.71-.693 1.244-.495.529-1.245.824-.744.29-1.698.29"/><path fill="#fff" d="M63.924 31.136V43.5h-2.988V31.136zm9.971 5.923-2.71.072a1 1 0 0 0-.23-.513 1.2 1.2 0 0 0-.489-.356 1.7 1.7 0 0 0-.688-.133q-.513 0-.875.205-.357.205-.35.556a.6.6 0 0 0 .217.47q.23.2.815.32l1.787.339q1.389.265 2.065.88.681.617.688 1.63-.006.955-.568 1.661-.555.706-1.52 1.099-.967.386-2.21.386-1.987 0-3.134-.815-1.14-.821-1.303-2.197l2.915-.073q.097.507.501.773.405.266 1.033.266.567 0 .923-.212.357-.21.363-.561a.6.6 0 0 0-.278-.501q-.272-.194-.851-.302l-1.618-.308q-1.395-.253-2.077-.936-.682-.688-.676-1.75-.007-.93.495-1.588.501-.664 1.425-1.014.923-.35 2.179-.35 1.884 0 2.97.79 1.087.785 1.201 2.162m9.779 0-2.71.072a1 1 0 0 0-.23-.513 1.2 1.2 0 0 0-.49-.356 1.7 1.7 0 0 0-.687-.133q-.514 0-.876.205-.356.205-.35.556a.6.6 0 0 0 .218.47q.228.2.814.32l1.787.339q1.389.265 2.065.88.682.617.688 1.63-.006.955-.567 1.661-.556.706-1.522 1.099-.965.386-2.21.386-1.985 0-3.132-.815-1.14-.821-1.304-2.197l2.916-.073q.096.507.5.773.405.266 1.033.266.567 0 .924-.212.356-.21.362-.561a.6.6 0 0 0-.278-.501q-.271-.194-.851-.302l-1.618-.308q-1.395-.253-2.077-.936-.682-.688-.676-1.75-.006-.93.495-1.588.502-.664 1.425-1.014t2.18-.35q1.883 0 2.97.79 1.086.785 1.2 2.162m7.665 2.439v-5.27h2.946V43.5h-2.813v-1.727h-.097a2.7 2.7 0 0 1-1.05 1.353q-.737.495-1.78.495-.949 0-1.667-.435a2.96 2.96 0 0 1-1.117-1.213q-.398-.785-.404-1.836v-5.91h2.952v5.33q.005.755.398 1.19t1.069.435q.44 0 .79-.193.357-.2.562-.574.21-.38.211-.917m9.16 4.177q-1.455 0-2.512-.573a3.97 3.97 0 0 1-1.617-1.648q-.562-1.075-.562-2.554 0-1.437.567-2.511.568-1.08 1.6-1.679 1.033-.603 2.433-.604.99 0 1.811.308.822.309 1.419.912.597.604.93 1.491.332.882.332 2.023v.736h-8.06v-1.715h5.313a1.66 1.66 0 0 0-.224-.839 1.5 1.5 0 0 0-.597-.573 1.7 1.7 0 0 0-.863-.211q-.495 0-.888.223a1.68 1.68 0 0 0-.863 1.449v1.745q0 .567.223.996.224.421.634.658.411.235.978.235.393 0 .712-.109a1.5 1.5 0 0 0 .55-.32q.229-.21.344-.519l2.71.079a3.35 3.35 0 0 1-.742 1.587q-.567.67-1.491 1.045-.924.368-2.137.368m14.795-9.448v2.174h-5.85v-2.174zm-4.625-2.221h2.953v8.578q0 .272.084.44.09.165.26.236a1.1 1.1 0 0 0 .404.067q.17 0 .356-.03.194-.038.29-.06l.447 2.13q-.211.06-.598.151-.38.09-.911.115-1.039.048-1.781-.242a2.3 2.3 0 0 1-1.129-.917q-.387-.622-.375-1.564zM116.8 43.5v-9.273h2.868v1.69h.096q.254-.917.827-1.364a2.1 2.1 0 0 1 1.334-.453q.206 0 .423.03.218.025.404.08v2.565a3 3 0 0 0-.555-.115 5 5 0 0 0-.604-.042q-.525 0-.948.235a1.7 1.7 0 0 0-.658.646 1.9 1.9 0 0 0-.235.966V43.5zm9.421.157q-.888 0-1.576-.296a2.46 2.46 0 0 1-1.081-.905q-.392-.61-.392-1.528 0-.773.272-1.304.271-.531.748-.863a3.5 3.5 0 0 1 1.099-.501 7 7 0 0 1 1.328-.235q.79-.074 1.274-.151.483-.085.7-.236a.51.51 0 0 0 .223-.44v-.03q0-.465-.319-.72-.321-.252-.864-.253-.585 0-.942.254a1.12 1.12 0 0 0-.452.7l-2.723-.096a3.2 3.2 0 0 1 .622-1.51q.507-.67 1.388-1.05.888-.387 2.131-.387.888 0 1.636.212.749.205 1.304.604.556.392.858.965.307.575.307 1.31V43.5h-2.776v-1.292h-.073q-.247.471-.634.797-.38.326-.899.489a3.8 3.8 0 0 1-1.159.163m.911-1.932q.477 0 .857-.193.387-.194.616-.531.23-.344.23-.797v-.882a2 2 0 0 1-.308.121q-.175.054-.387.103-.211.048-.434.084l-.429.067a2.7 2.7 0 0 0-.712.205 1.13 1.13 0 0 0-.447.362.9.9 0 0 0-.151.52q0 .458.326.7.332.24.839.241m10.764 1.95q-1.467 0-2.517-.604a4.1 4.1 0 0 1-1.606-1.678q-.562-1.08-.562-2.5 0-1.424.562-2.498a4.1 4.1 0 0 1 1.612-1.685q1.05-.603 2.505-.604 1.286 0 2.24.465a3.56 3.56 0 0 1 1.497 1.316q.543.846.573 1.987h-2.759q-.084-.713-.482-1.117-.393-.405-1.027-.405-.513 0-.899.29-.387.284-.604.845-.211.556-.211 1.377 0 .82.211 1.388.217.561.604.851.386.285.899.284.41 0 .725-.175.32-.175.525-.513.205-.344.259-.833h2.759q-.042 1.146-.573 2.004a3.55 3.55 0 0 1-1.479 1.334q-.948.471-2.252.471m8.477-2.608.012-3.52h.411l2.608-3.32h3.344l-3.875 4.757h-.779zm-2.662 2.433V31.136h2.952V43.5zm5.759 0-2.427-3.852 1.944-2.094 3.894 5.946zm8.288.175q-1.456 0-2.512-.573a3.97 3.97 0 0 1-1.618-1.648q-.561-1.075-.561-2.554 0-1.437.567-2.511.568-1.08 1.6-1.679 1.032-.603 2.433-.604.99 0 1.811.308.82.309 1.419.912.597.604.929 1.491.332.882.332 2.023v.736h-8.059v-1.715h5.313a1.66 1.66 0 0 0-.224-.839 1.5 1.5 0 0 0-.597-.573 1.73 1.73 0 0 0-.864-.211q-.495 0-.887.223a1.68 1.68 0 0 0-.863 1.449v1.745q0 .567.223.996.223.421.634.658.411.235.978.235.392 0 .712-.109a1.5 1.5 0 0 0 .55-.32q.229-.21.344-.519l2.71.079a3.35 3.35 0 0 1-.742 1.587q-.569.67-1.491 1.045-.925.368-2.137.368m5.908-.175v-9.273h2.868v1.69h.096q.254-.917.827-1.364a2.1 2.1 0 0 1 1.335-.453q.204 0 .422.03.217.025.405.08v2.565a3 3 0 0 0-.556-.115 5 5 0 0 0-.604-.042q-.525 0-.947.235a1.7 1.7 0 0 0-.658.646 1.9 1.9 0 0 0-.236.966V43.5z"/></g><defs><filter id="b" width="51.429" height="51.429" x="6.286" y="2.286" color-interpolation-filters="sRGB" filterUnits="userSpaceOnUse"><feFlood flood-opacity="0" result="BackgroundImageFix"/><feColorMatrix in="SourceAlpha" result="hardAlpha" values="0 0 0 0 0 0 0 0 0 0 0 0 0 0 0 0 0 0 127 0"/><feOffset/><feGaussianBlur stdDeviation="2.857"/><feComposite in2="hardAlpha" operator="out"/><feColorMatrix values="0 0 0 0 0 0 0 0 0 0 0 0 0 0 0 0 0 0 0.25 0"/><feBlend in2="BackgroundImageFix" result="effect1_dropShadow_8_10"/><feBlend in="SourceGraphic" in2="effect1_dropShadow_8_10" result="shape"/></filter><filter id="c" width="121.2" height="48.2" x="54.4" y="3.9" color-interpolation-filters="sRGB" filterUnits="userSpaceOnUse"><feFlood flood-opacity="0" result="BackgroundImageFix"/><feColorMatrix in="SourceAlpha" result="hardAlpha" values="0 0 0 0 0 0 0 0 0 0 0 0 0 0 0 0 0 0 127 0"/><feOffset/><feGaussianBlur stdDeviation="2.8"/><feComposite in2="hardAlpha" operator="out"/><feColorMatrix values="0 0 0 0 0 0 0 0 0 0 0 0 0 0 0 0 0 0 0.25 0"/><feBlend in2="BackgroundImageFix" result="effect1_dropShadow_8_10"/><feBlend in="SourceGraphic" in2="effect1_dropShadow_8_10" result="shape"/></filter><linearGradient id="a" x1="91" x2="91" y1="0" y2="56" gradientUnits="userSpaceOnUse"><stop stop-color="#181f29"/><stop offset="1" stop-color="#0f131a"/></linearGradient></defs></svg>