<svg xmlns="http://www.w3.org/2000/svg" width="180" height="56" fill="none" viewBox="0 0 180 56"><rect width="180" height="56" fill="url(#a)" rx="8"/><rect width="177.9" height="53.9" x="1.05" y="1.05" stroke="#fff" stroke-opacity=".15" stroke-width="2.1" rx="6.95"/><g fill="#00d845" filter="url(#b)"><path d="M30.011 8.114c-6.901.685-12.893 4.824-15.996 11.056a20 20 0 0 0-1.962 6.721l-.053.517h1.783c.981 0 1.784-.027 1.793-.072.098-1.45.74-3.73 1.515-5.359 2.755-5.768 8.489-9.392 14.837-9.392 2.693 0 4.975.526 7.311 1.683 2.658 1.317 4.789 3.187 6.42 5.617.722 1.077 1.721 3.045 1.596 3.152-.044.044-.758.258-1.578.471l-1.498.401-.392-.766c-1.266-2.528-3.38-4.646-5.876-5.902-.9-.454-1.828-.801-1.97-.748-.063.018-.143.232-.17.472-.036.232-.134.846-.232 1.362-.089.517-.187 1.086-.214 1.264l-.062.33.758.356c2.603 1.21 4.484 3.454 5.278 6.285.232.819.259 1.006.259 2.448s-.027 1.63-.259 2.448c-.472 1.674-1.31 3.151-2.46 4.309-.66.667-1.633 1.389-2.337 1.754-.24.115-.428.267-.428.329.009.151.856 3.267.919 3.32.08.08 1.587-.72 2.47-1.308 1.105-.739 2.639-2.27 3.379-3.374 1.034-1.55 1.676-3.036 2.077-4.816.17-.784.205-1.184.205-2.635 0-1.442.018-1.718.134-1.745 1.088-.312 2.97-.775 3.005-.748.062.071.16 1.558.16 2.466 0 1.228-.116 2.43-.312 3.294-.089.41-.16.756-.151.765.008.018.758.285 1.658.615 1.248.454 1.658.57 1.712.48.143-.24.526-2.59.624-3.845.205-2.805-.285-6.027-1.31-8.564-2.89-7.149-9.202-11.903-16.799-12.641-1.525-.152-2.327-.152-3.834 0"/><path d="M30.457 14.897c-.651.062-2.104.41-2.844.668-3.647 1.282-6.652 4.21-8.007 7.816-1.053 2.786-1.088 6.285-.09 9.018l.223.605-.82.472c-1.64.953-1.935 1.122-1.997 1.122-.08 0-.473-.989-.722-1.825-.286-.997-.589-2.44-.624-3.098-.01-.036-.812-.063-1.793-.063H12l.053.508c.473 4.602 2.595 8.947 5.974 12.232 7.927 7.691 20.58 7.504 28.31-.419 1.016-1.05 2.024-2.341 2.737-3.516.615-1.024 1.088-1.986 1.017-2.057-.036-.035-.464-.204-.955-.383-.49-.177-1.15-.418-1.47-.525-.322-.115-.643-.24-.714-.267-.098-.035-.223.116-.472.597-1.498 2.92-4.298 5.573-7.463 7.086-2.702 1.282-5.448 1.762-8.703 1.504-3.183-.249-6.732-1.816-9.308-4.104-.732-.65-1.793-1.789-2.194-2.359-.134-.195-.205-.142 1.864-1.344l.775-.454 1.097 1.095c1.962 1.967 4.066 3.125 6.759 3.73.793.17 1.177.205 2.639.205.936 0 1.73-.027 1.756-.054.036-.026-.107-.65-.303-1.38l-.455-1.69-.098-.366-1.257-.053c-2.372-.098-4.253-.846-6.018-2.395-.295-.258-.625-.579-.723-.703l-.178-.232 1.97-1.14 1.98-1.13 2.069 2.19 2.38-.49 2.381-.48 3.21-3.205-.285-1.05c-.179-.668-.322-1.042-.393-1.042s-.793.178-1.614.4l-1.498.41-.624.605c-.677.66-.58.633-2.05.766l-.535.053-.643-.632c-.356-.338-.65-.64-.65-.658 0-.027-.098-.401-.214-.846l-.214-.81.58-.775c.32-.436.597-.792.614-.81.01-.018.393-.133.856-.249l.83-.214 1.132-1.13c.633-.623 1.141-1.175 1.141-1.229 0-.053-.339-.427-.749-.837l-.749-.738-2.166.587-2.176.588-.446.462a60 60 0 0 0-1.114 1.229c-.366.41-.83.935-1.026 1.157-.758.855-.73.597-.258 2.217.223.792.401 1.46.383 1.469-.044.035-1.89 1.113-3.031 1.754-.428.24-.812.436-.865.436-.045 0-.179-.374-.294-.828-.188-.703-.215-1.024-.215-2.332.01-1.38.027-1.594.26-2.404.48-1.71 1.31-3.143 2.505-4.335 1.64-1.639 3.798-2.645 5.991-2.796.928-.071.856 0 1.008-.97.053-.347.134-.784.178-.98.045-.195.098-.516.125-.712.036-.195.08-.49.107-.65l.054-.284-.919.017c-.508 0-1.07.027-1.24.045"/></g><g filter="url(#c)"><path fill="#e8e8e8" d="M70.943 16.648h-1.772a2.7 2.7 0 0 0-1.063-1.733q-.403-.301-.904-.455a3.5 3.5 0 0 0-1.05-.153q-1.006 0-1.802.505-.79.506-1.25 1.484-.454.976-.454 2.386 0 1.42.454 2.398.46.977 1.256 1.477.795.5 1.79.5.551 0 1.045-.148.5-.153.904-.449a2.72 2.72 0 0 0 1.074-1.71l1.772.006a4.8 4.8 0 0 1-.551 1.58q-.403.716-1.04 1.238-.63.517-1.443.801a5.3 5.3 0 0 1-1.773.284q-1.51 0-2.693-.716-1.182-.72-1.863-2.062-.677-1.34-.677-3.2 0-1.863.682-3.198.682-1.341 1.864-2.057 1.182-.721 2.687-.722.927 0 1.728.268.806.26 1.448.772.642.505 1.063 1.239.42.727.568 1.665m3.663 2.67V24.5h-1.698V12.864h1.676v4.33h.108q.306-.706.937-1.12.63-.415 1.648-.415.898 0 1.568.37.676.369 1.046 1.102.375.727.375 1.818V24.5h-1.7v-5.347q0-.96-.494-1.488-.494-.534-1.375-.534a2.25 2.25 0 0 0-1.08.255q-.471.255-.743.75-.267.489-.267 1.182m11.688 5.358q-1.29 0-2.222-.551a3.74 3.74 0 0 1-1.431-1.562q-.5-1.012-.5-2.37 0-1.341.5-2.364a3.9 3.9 0 0 1 1.409-1.596q.909-.574 2.125-.574.739 0 1.431.244.694.244 1.245.768.55.522.87 1.357.317.83.317 2.017v.603h-6.937v-1.273h5.273q0-.67-.273-1.187a2.06 2.06 0 0 0-.767-.824q-.49-.302-1.148-.302-.716 0-1.25.353a2.36 2.36 0 0 0-.818.909q-.285.556-.284 1.21v.994q0 .876.307 1.489.312.615.869.938.557.318 1.301.318.483 0 .88-.137.399-.142.688-.42.29-.279.443-.688l1.608.29q-.193.71-.693 1.244a3.36 3.36 0 0 1-1.244.824q-.744.29-1.699.29m9.305 0q-1.267 0-2.181-.574a3.8 3.8 0 0 1-1.398-1.596q-.489-1.017-.489-2.33 0-1.329.5-2.346a3.83 3.83 0 0 1 1.41-1.597q.909-.574 2.141-.574.994 0 1.773.37a3.2 3.2 0 0 1 1.256 1.022q.483.66.574 1.54H97.53a1.98 1.98 0 0 0-.625-1.057q-.483-.443-1.295-.443a2.1 2.1 0 0 0-1.245.375q-.528.369-.823 1.057-.296.681-.296 1.613 0 .955.29 1.648t.818 1.074q.534.38 1.256.38.483 0 .875-.175.397-.183.665-.518.272-.335.38-.806h1.654a3.2 3.2 0 0 1-.552 1.511 3.17 3.17 0 0 1-1.232 1.045q-.767.381-1.802.381m6.965-3.136-.011-2.074h.295l3.477-3.693h2.034l-3.966 4.204h-.267zM101 24.5V12.864h1.699V24.5zm5.512 0-3.125-4.148 1.17-1.187 4.04 5.335zm11.305.176q-1.227 0-2.142-.562a3.8 3.8 0 0 1-1.42-1.574q-.506-1.011-.506-2.364 0-1.358.506-2.375a3.8 3.8 0 0 1 1.42-1.58q.915-.561 2.142-.562 1.227 0 2.142.563t1.421 1.58q.505 1.016.505 2.374 0 1.353-.505 2.364a3.8 3.8 0 0 1-1.421 1.574q-.915.562-2.142.562m.006-1.426q.796 0 1.318-.42.523-.42.773-1.12.255-.699.255-1.54 0-.835-.255-1.534a2.5 2.5 0 0 0-.773-1.13q-.522-.426-1.318-.427-.8 0-1.33.427a2.54 2.54 0 0 0-.778 1.13q-.25.7-.25 1.534 0 .841.25 1.54.255.7.778 1.12.53.42 1.33.42m11.487-2.37v-5.107h1.705V24.5h-1.671v-1.511h-.091a2.7 2.7 0 0 1-.966 1.164q-.658.46-1.642.46-.84 0-1.488-.369-.643-.375-1.012-1.108-.363-.732-.363-1.812v-5.551h1.699v5.346q0 .893.494 1.42.493.53 1.284.53.477 0 .949-.24.477-.239.79-.721.318-.483.312-1.227m8.061-5.107v1.363h-4.767v-1.363zm-3.488-2.091h1.698v8.256q0 .493.148.744a.77.77 0 0 0 .381.335q.238.085.517.085a2 2 0 0 0 .358-.028l.238-.046.307 1.404a3 3 0 0 1-.42.113 3.3 3.3 0 0 1-.682.069 3 3 0 0 1-1.25-.239 2.15 2.15 0 0 1-.938-.773q-.357-.523-.357-1.312zm13.676 2.09v1.364h-4.767v-1.363zm-3.489-2.09h1.699v8.256q0 .493.148.744a.77.77 0 0 0 .38.335q.239.085.517.085.205 0 .358-.028l.239-.046.307 1.404a3 3 0 0 1-.421.113 3.3 3.3 0 0 1-.682.069 3 3 0 0 1-1.25-.239 2.15 2.15 0 0 1-.937-.773q-.358-.523-.358-1.312zm7.254 5.636V24.5h-1.699V12.864h1.677v4.33h.107q.308-.706.938-1.12t1.648-.415q.897 0 1.568.37.676.369 1.045 1.102.375.727.375 1.818V24.5h-1.699v-5.347q0-.96-.494-1.488-.494-.534-1.375-.534-.602 0-1.079.255-.472.255-.745.75-.267.489-.267 1.182m11.688 5.358q-1.29 0-2.222-.551a3.74 3.74 0 0 1-1.432-1.562q-.5-1.012-.5-2.37 0-1.341.5-2.364a3.9 3.9 0 0 1 1.409-1.596q.91-.574 2.125-.574.74 0 1.432.244.693.244 1.245.768.55.522.869 1.357.318.83.318 2.017v.603h-6.937v-1.273h5.272q0-.67-.272-1.187a2.07 2.07 0 0 0-.767-.824q-.49-.302-1.148-.302-.716 0-1.25.353a2.36 2.36 0 0 0-.818.909q-.284.556-.284 1.21v.994q0 .876.306 1.489.313.615.87.938.557.318 1.301.318.483 0 .88-.137.399-.142.688-.42.29-.279.443-.688l1.608.29q-.194.71-.693 1.244-.495.529-1.244.824-.745.29-1.699.29"/><path fill="#00d845" d="M69.05 35.175a2.2 2.2 0 0 0-.302-.67 1.9 1.9 0 0 0-.49-.501 2.1 2.1 0 0 0-.663-.308 3 3 0 0 0-.822-.109q-.9 0-1.557.435-.652.434-1.008 1.268-.356.827-.356 2.01 0 1.19.344 2.029t.996 1.28q.652.44 1.581.44.821 0 1.389-.266.573-.27.87-.766.295-.495.295-1.165l.555.066h-3.006v-2.18h5.33v1.637q0 1.66-.706 2.843a4.7 4.7 0 0 1-1.931 1.817q-1.226.634-2.82.634-1.768 0-3.109-.767-1.34-.766-2.089-2.185-.748-1.425-.748-3.38 0-1.522.453-2.7.452-1.182 1.261-2.004a5.45 5.45 0 0 1 1.884-1.243 6.3 6.3 0 0 1 2.312-.423q1.075 0 1.998.308.93.308 1.642.87.72.561 1.166 1.334.445.772.555 1.696zm7.532 8.482q-.888 0-1.576-.296a2.45 2.45 0 0 1-1.08-.905q-.393-.61-.393-1.528 0-.773.272-1.304.271-.531.748-.863a3.5 3.5 0 0 1 1.1-.501 7 7 0 0 1 1.327-.235q.792-.074 1.274-.151.483-.085.7-.236a.51.51 0 0 0 .224-.44v-.03q0-.465-.32-.72-.32-.252-.863-.253-.586 0-.942.254a1.12 1.12 0 0 0-.453.7l-2.723-.096a3.2 3.2 0 0 1 .622-1.51q.507-.67 1.389-1.05.887-.387 2.13-.387.888 0 1.637.212.748.205 1.304.604.555.392.857.965.308.575.308 1.31V43.5h-2.777v-1.292h-.073q-.248.471-.633.797-.381.326-.9.489a3.8 3.8 0 0 1-1.16.163m.912-1.932q.476 0 .857-.193.386-.193.615-.531.23-.344.23-.797v-.882a2 2 0 0 1-.308.121 5 5 0 0 1-.386.103q-.212.048-.435.084-.224.036-.429.067a2.7 2.7 0 0 0-.712.205 1.1 1.1 0 0 0-.447.362.9.9 0 0 0-.15.52q0 .458.325.7.332.24.84.241m9.387-10.589V43.5h-2.952V31.136zm4.831 0V43.5H88.76V31.136zm6.213 12.54q-1.455 0-2.51-.574a3.97 3.97 0 0 1-1.619-1.648q-.561-1.075-.561-2.554 0-1.437.567-2.511.568-1.08 1.6-1.679 1.033-.603 2.433-.604.99 0 1.811.308.82.309 1.419.912.597.604.929 1.491.332.882.332 2.023v.736h-8.059v-1.715h5.313a1.66 1.66 0 0 0-.224-.839 1.5 1.5 0 0 0-.597-.573 1.7 1.7 0 0 0-.864-.211q-.495 0-.887.223a1.68 1.68 0 0 0-.863 1.449v1.745q0 .567.223.996.223.421.634.658.41.235.978.235.392 0 .712-.109.32-.108.55-.32.228-.21.344-.519l2.71.079a3.35 3.35 0 0 1-.742 1.587q-.569.67-1.491 1.045-.924.368-2.138.368m5.909-.176v-9.273h2.868v1.69h.096q.254-.917.827-1.364a2.1 2.1 0 0 1 1.335-.453q.204 0 .422.03.218.025.405.08v2.565a3 3 0 0 0-.556-.115 5 5 0 0 0-.604-.042q-.525 0-.947.235a1.7 1.7 0 0 0-.658.646 1.9 1.9 0 0 0-.236.966V43.5zm9.243 3.477q-.532 0-1.002-.084a4 4 0 0 1-.809-.212l.652-2.143q.434.145.784.17.357.023.61-.115.26-.133.399-.477l.114-.278-3.296-9.61h3.091l1.708 6.616h.097l1.733-6.617h3.109l-3.496 10.16a4.3 4.3 0 0 1-.718 1.34 3.1 3.1 0 0 1-1.189.918q-.725.332-1.787.332"/></g><defs><filter id="b" width="51.429" height="51.429" x="6.286" y="2.286" color-interpolation-filters="sRGB" filterUnits="userSpaceOnUse"><feFlood flood-opacity="0" result="BackgroundImageFix"/><feColorMatrix in="SourceAlpha" result="hardAlpha" values="0 0 0 0 0 0 0 0 0 0 0 0 0 0 0 0 0 0 127 0"/><feOffset/><feGaussianBlur stdDeviation="2.857"/><feComposite in2="hardAlpha" operator="out"/><feColorMatrix values="0 0 0 0 0 0 0 0 0 0 0 0 0 0 0 0 0 0 0.25 0"/><feBlend in2="BackgroundImageFix" result="effect1_dropShadow_28_381"/><feBlend in="SourceGraphic" in2="effect1_dropShadow_28_381" result="shape"/></filter><filter id="c" width="119.2" height="48.677" x="54.4" y="3.9" color-interpolation-filters="sRGB" filterUnits="userSpaceOnUse"><feFlood flood-opacity="0" result="BackgroundImageFix"/><feColorMatrix in="SourceAlpha" result="hardAlpha" values="0 0 0 0 0 0 0 0 0 0 0 0 0 0 0 0 0 0 127 0"/><feOffset/><feGaussianBlur stdDeviation="2.8"/><feComposite in2="hardAlpha" operator="out"/><feColorMatrix values="0 0 0 0 0 0 0 0 0 0 0 0 0 0 0 0 0 0 0.25 0"/><feBlend in2="BackgroundImageFix" result="effect1_dropShadow_28_381"/><feBlend in="SourceGraphic" in2="effect1_dropShadow_28_381" result="shape"/></filter><linearGradient id="a" x1="90" x2="90" y1="0" y2="56" gradientUnits="userSpaceOnUse"><stop stop-color="#072c13"/><stop offset="1" stop-color="#041c0b"/></linearGradient></defs></svg>