<svg xmlns="http://www.w3.org/2000/svg" width="183" height="56" fill="none" viewBox="0 0 183 56"><rect width="183" height="56" fill="url(#a)" rx="8"/><rect width="180.9" height="53.9" x="1.05" y="1.05" stroke="#fff" stroke-opacity=".15" stroke-width="2.1" rx="6.95"/><g stroke="#3fb950" stroke-linecap="round" stroke-linejoin="round" stroke-width="2.86" filter="url(#b)"><path d="M20.333 23a5 5 0 1 0 0-10 5 5 0 0 0 0 10m0 0v20m23.334 0a5 5 0 1 0 0-10 5 5 0 0 0 0 10M37 23l-5-5 5-5"/><path d="M32 18h8.334a3.333 3.333 0 0 1 3.333 3.333V33"/></g><g filter="url(#c)"><path fill="#e8e8e8" d="M67.625 15.92a1.66 1.66 0 0 0-.75-1.25q-.659-.448-1.66-.448-.715 0-1.238.227-.522.222-.812.614-.284.385-.284.88 0 .415.193.716.199.301.517.506.324.198.693.335.37.131.71.216l1.137.295q.556.136 1.142.37t1.085.613.807.944q.312.562.312 1.346 0 .989-.511 1.756-.506.767-1.472 1.21-.96.444-2.323.443-1.308 0-2.262-.415-.954-.414-1.494-1.176-.54-.767-.597-1.818h1.762q.05.63.409 1.051.362.415.926.62.568.198 1.244.198.744 0 1.324-.232.585-.24.92-.66.336-.426.336-.994 0-.517-.296-.846a2.2 2.2 0 0 0-.79-.546 8 8 0 0 0-1.119-.38l-1.375-.376q-1.398-.38-2.216-1.119-.812-.738-.812-1.954 0-1.006.545-1.756.546-.75 1.477-1.165.932-.42 2.103-.42 1.182 0 2.085.414.909.416 1.432 1.142.522.722.545 1.66zm7.575 8.756q-1.29 0-2.221-.551a3.74 3.74 0 0 1-1.432-1.562q-.5-1.012-.5-2.37 0-1.341.5-2.364a3.9 3.9 0 0 1 1.409-1.596q.909-.574 2.125-.574.739 0 1.432.244t1.244.768q.55.522.87 1.357.318.83.318 2.018v.602h-6.938v-1.273h5.273q0-.67-.273-1.187a2.06 2.06 0 0 0-.767-.824q-.489-.302-1.148-.302-.716 0-1.25.353a2.37 2.37 0 0 0-.818.909q-.284.556-.284 1.21v.994q0 .876.307 1.489.312.615.87.938.556.318 1.3.318.483 0 .881-.137.397-.142.688-.42.289-.279.443-.688l1.608.29q-.194.71-.694 1.244a3.36 3.36 0 0 1-1.244.824q-.744.29-1.699.29m9.39 0q-1.29 0-2.22-.551a3.74 3.74 0 0 1-1.433-1.562q-.5-1.012-.5-2.37 0-1.341.5-2.364a3.9 3.9 0 0 1 1.41-1.596q.909-.574 2.125-.574.739 0 1.431.244t1.245.768q.55.522.869 1.357.318.83.318 2.018v.602h-6.937v-1.273h5.272q0-.67-.272-1.187a2.06 2.06 0 0 0-.767-.824q-.49-.302-1.148-.302-.716 0-1.25.353a2.36 2.36 0 0 0-.818.909q-.285.556-.284 1.21v.994q0 .876.306 1.489.314.615.87.938.557.318 1.3.318.484 0 .882-.137.397-.142.687-.42.29-.279.443-.688l1.608.29q-.194.71-.693 1.244a3.36 3.36 0 0 1-1.244.824q-.744.29-1.7.29m13.938-8.903v1.363h-4.767v-1.363zm-3.488-2.091h1.699v8.256q0 .493.147.744a.77.77 0 0 0 .381.335q.24.085.517.085.204 0 .358-.028l.239-.046.306 1.404a3 3 0 0 1-.42.114q-.273.062-.682.068a3 3 0 0 1-1.25-.239 2.15 2.15 0 0 1-.937-.773q-.358-.523-.358-1.312zm7.254 5.636V24.5h-1.699V12.864h1.676v4.33h.108q.307-.706.938-1.12.63-.415 1.647-.415.898 0 1.569.37a2.5 2.5 0 0 1 1.045 1.102q.375.727.375 1.818V24.5h-1.699v-5.347q0-.96-.494-1.488-.495-.534-1.375-.534-.602 0-1.08.255-.471.255-.744.75-.267.489-.267 1.182m11.688 5.358q-1.29 0-2.222-.551a3.74 3.74 0 0 1-1.432-1.562q-.5-1.012-.5-2.37 0-1.341.5-2.364a3.9 3.9 0 0 1 1.409-1.596q.91-.574 2.125-.574.74 0 1.432.244.693.244 1.244.768.552.522.87 1.357.318.83.318 2.018v.602h-6.938v-1.273h5.273q0-.67-.273-1.187a2.05 2.05 0 0 0-.767-.824q-.488-.302-1.147-.302-.717 0-1.25.353a2.37 2.37 0 0 0-.819.909 2.6 2.6 0 0 0-.284 1.21v.994q0 .876.307 1.489.312.615.869.938.557.318 1.302.318.483 0 .88-.137.398-.142.688-.42.29-.279.443-.688l1.608.29q-.194.71-.693 1.244-.495.529-1.245.824-.744.29-1.698.29"/><path fill="#fff" d="M60.936 43.5V31.136h5.107q1.388 0 2.397.544 1.014.537 1.563 1.503.55.96.55 2.233 0 1.28-.562 2.24-.556.954-1.588 1.48-1.032.525-2.45.524H62.8v-2.354h2.596q.675 0 1.129-.235.459-.236.694-.658.236-.429.236-.996 0-.575-.236-.99a1.6 1.6 0 0 0-.694-.652q-.459-.23-1.129-.23h-1.473V43.5zm17.072-4.002v-5.27h2.946V43.5h-2.813v-1.727h-.097a2.7 2.7 0 0 1-1.05 1.353q-.737.495-1.78.495-.949 0-1.667-.435a2.96 2.96 0 0 1-1.117-1.213q-.399-.785-.404-1.836v-5.91h2.952v5.33q.006.755.398 1.19.393.435 1.069.435.44 0 .79-.193.357-.2.562-.574.21-.38.211-.917m7.777-8.362V43.5h-2.952V31.136zm4.831 0V43.5h-2.952V31.136zM96.148 43.5v-9.273h2.867v1.69h.097q.254-.917.827-1.364a2.1 2.1 0 0 1 1.334-.453q.206 0 .423.03.216.025.404.08v2.565a3 3 0 0 0-.555-.115 5 5 0 0 0-.604-.042q-.525 0-.948.235a1.7 1.7 0 0 0-.658.646 1.9 1.9 0 0 0-.235.966V43.5zm11.008.175q-1.455 0-2.511-.573a3.96 3.96 0 0 1-1.618-1.648q-.562-1.075-.562-2.554 0-1.437.568-2.511.567-1.08 1.6-1.679 1.032-.603 2.432-.604.99 0 1.811.308.822.309 1.419.912.598.604.93 1.491.332.882.332 2.023v.736h-8.059v-1.715h5.312a1.66 1.66 0 0 0-.223-.839 1.5 1.5 0 0 0-.598-.573 1.7 1.7 0 0 0-.863-.211q-.495 0-.888.223a1.68 1.68 0 0 0-.863 1.449v1.745q0 .567.223.996.224.421.634.658.411.235.978.235.392 0 .713-.109.32-.108.549-.32.23-.21.344-.519l2.711.079a3.35 3.35 0 0 1-.743 1.587q-.567.67-1.491 1.045-.924.368-2.137.368m11.964 3.302v-4.98h-.061a2.9 2.9 0 0 1-.531.803q-.344.374-.863.603-.513.23-1.214.23a3.4 3.4 0 0 1-1.865-.531q-.84-.532-1.34-1.594t-.501-2.638q0-1.636.519-2.693.52-1.056 1.358-1.563a3.47 3.47 0 0 1 1.817-.508q.73 0 1.25.254.52.247.857.64.339.392.513.815h.091v-1.588h2.922v12.75zm-1.642-5.644q.537 0 .917-.302.38-.308.586-.863t.205-1.304q0-.762-.205-1.31-.2-.55-.586-.846a1.45 1.45 0 0 0-.917-.295q-.55 0-.93.302-.38.3-.58.85-.193.55-.193 1.299t.199 1.304q.2.555.574.863.38.302.93.302m12.443-1.835v-5.27h2.946V43.5h-2.813v-1.727h-.097a2.7 2.7 0 0 1-1.05 1.353q-.737.495-1.781.495-.948 0-1.666-.435a2.96 2.96 0 0 1-1.117-1.213q-.399-.785-.404-1.836v-5.91h2.952v5.33q.006.755.398 1.19.393.435 1.069.435.44 0 .791-.193a1.43 1.43 0 0 0 .561-.574q.211-.38.211-.917m9.16 4.177q-1.455 0-2.512-.573a3.97 3.97 0 0 1-1.617-1.648q-.562-1.075-.562-2.554 0-1.437.568-2.511.567-1.08 1.599-1.679 1.033-.603 2.433-.604.99 0 1.811.308.822.309 1.419.912.597.604.93 1.491.332.882.332 2.023v.736h-8.06v-1.715h5.313a1.67 1.67 0 0 0-.223-.839 1.5 1.5 0 0 0-.598-.573 1.7 1.7 0 0 0-.863-.211q-.495 0-.888.223a1.68 1.68 0 0 0-.863 1.449v1.745q0 .567.223.996.223.421.634.658.411.235.978.235.393 0 .712-.109a1.5 1.5 0 0 0 .55-.32q.229-.21.344-.519l2.711.079a3.36 3.36 0 0 1-.743 1.587q-.567.67-1.491 1.045-.924.368-2.137.368m14.004-6.616-2.711.072a1 1 0 0 0-.229-.513 1.24 1.24 0 0 0-.489-.356 1.7 1.7 0 0 0-.688-.133q-.513 0-.876.205-.356.205-.35.556a.6.6 0 0 0 .218.47q.229.2.815.32l1.786.339q1.389.265 2.065.88.682.617.688 1.63-.006.955-.567 1.661-.556.706-1.521 1.099-.966.386-2.21.386-1.986 0-3.133-.815-1.141-.821-1.304-2.197l2.916-.073q.096.507.501.773.404.266 1.032.266.567 0 .924-.212.356-.21.362-.561a.6.6 0 0 0-.278-.501q-.272-.194-.851-.302l-1.618-.308q-1.395-.253-2.077-.936-.682-.688-.676-1.75-.006-.93.495-1.588.501-.664 1.425-1.014t2.179-.35q1.884 0 2.971.79 1.086.785 1.201 2.162m6.917-2.832v2.174h-5.85v-2.174zm-4.625-2.221h2.953v8.578q0 .272.084.44.09.165.26.236a1.1 1.1 0 0 0 .404.067q.17 0 .356-.03.194-.038.29-.06l.447 2.13q-.211.06-.598.151-.38.09-.911.115-1.039.048-1.781-.242a2.3 2.3 0 0 1-1.129-.917q-.387-.622-.375-1.564zm14.11 5.053-2.71.072a1 1 0 0 0-.23-.513 1.2 1.2 0 0 0-.489-.356 1.7 1.7 0 0 0-.688-.133q-.513 0-.875.205-.356.205-.35.556a.6.6 0 0 0 .217.47q.23.2.815.32l1.787.339q1.388.265 2.064.88.683.617.689 1.63a2.62 2.62 0 0 1-.568 1.661q-.555.706-1.521 1.099-.966.386-2.21.386-1.986 0-3.133-.815-1.14-.821-1.304-2.197l2.916-.073q.096.507.501.773t1.032.266q.569 0 .924-.212.357-.21.362-.561a.6.6 0 0 0-.277-.501q-.272-.194-.852-.302l-1.617-.308q-1.395-.253-2.077-.936-.682-.688-.676-1.75-.006-.93.495-1.588.501-.664 1.424-1.014.924-.35 2.18-.35 1.882 0 2.97.79 1.087.785 1.201 2.162"/></g><defs><filter id="b" width="51.429" height="51.429" x="6.286" y="2.286" color-interpolation-filters="sRGB" filterUnits="userSpaceOnUse"><feFlood flood-opacity="0" result="BackgroundImageFix"/><feColorMatrix in="SourceAlpha" result="hardAlpha" values="0 0 0 0 0 0 0 0 0 0 0 0 0 0 0 0 0 0 127 0"/><feOffset/><feGaussianBlur stdDeviation="2.857"/><feComposite in2="hardAlpha" operator="out"/><feColorMatrix values="0 0 0 0 0 0 0 0 0 0 0 0 0 0 0 0 0 0 0.25 0"/><feBlend in2="BackgroundImageFix" result="effect1_dropShadow_8_25"/><feBlend in="SourceGraphic" in2="effect1_dropShadow_8_25" result="shape"/></filter><filter id="c" width="122.2" height="48.677" x="54.4" y="3.9" color-interpolation-filters="sRGB" filterUnits="userSpaceOnUse"><feFlood flood-opacity="0" result="BackgroundImageFix"/><feColorMatrix in="SourceAlpha" result="hardAlpha" values="0 0 0 0 0 0 0 0 0 0 0 0 0 0 0 0 0 0 127 0"/><feOffset/><feGaussianBlur stdDeviation="2.8"/><feComposite in2="hardAlpha" operator="out"/><feColorMatrix values="0 0 0 0 0 0 0 0 0 0 0 0 0 0 0 0 0 0 0.25 0"/><feBlend in2="BackgroundImageFix" result="effect1_dropShadow_8_25"/><feBlend in="SourceGraphic" in2="effect1_dropShadow_8_25" result="shape"/></filter><linearGradient id="a" x1="91.5" x2="91.5" y1="0" y2="56" gradientUnits="userSpaceOnUse"><stop stop-color="#181f29"/><stop offset="1" stop-color="#0f131a"/></linearGradient></defs></svg>