<svg xmlns="http://www.w3.org/2000/svg" width="142" height="56" fill="none" viewBox="0 0 142 56"><rect width="142" height="56" fill="url(#a)" rx="8"/><rect width="139.9" height="53.9" x="1.05" y="1.05" stroke="#fff" stroke-opacity=".15" stroke-width="2.1" rx="6.95"/><g stroke="#fff" stroke-linecap="round" stroke-linejoin="round" stroke-width="2.86" filter="url(#b)"><path d="M28.667 29.667a8.334 8.334 0 0 0 12.566.9l5-5A8.333 8.333 0 0 0 34.45 13.783l-2.867 2.85"/><path d="M35.334 26.333a8.334 8.334 0 0 0-12.567-.9l-5 5A8.333 8.333 0 0 0 29.55 42.217l2.85-2.85"/></g><g filter="url(#c)"><path fill="#e8e8e8" d="m62.296 12.864 3.238 9.477h.13l3.24-9.477H70.8L66.614 24.5h-2.029l-4.187-11.636zM72.346 24.5v-8.727h1.698V24.5zm.857-10.074a1.08 1.08 0 0 1-.761-.295.96.96 0 0 1-.313-.716q0-.421.313-.716.318-.3.761-.301.443 0 .756.3a.94.94 0 0 1 .318.717.95.95 0 0 1-.318.716 1.06 1.06 0 0 1-.756.295m9.666 3.477-1.54.273a1.8 1.8 0 0 0-.306-.562 1.5 1.5 0 0 0-.557-.438q-.352-.17-.88-.17-.722 0-1.205.323-.483.319-.483.824 0 .438.324.705t1.045.438l1.386.318q1.205.277 1.796.858.59.58.59 1.505.001.785-.454 1.398-.449.608-1.255.954-.802.348-1.858.347-1.467 0-2.392-.625-.927-.63-1.137-1.79l1.642-.25q.154.642.63.972.48.324 1.245.324.836 0 1.335-.347.5-.352.5-.858a.9.9 0 0 0-.306-.687q-.301-.279-.927-.42l-1.477-.325q-1.22-.277-1.807-.886-.58-.607-.58-1.54 0-.773.433-1.352.432-.579 1.193-.903.761-.33 1.744-.33 1.415 0 2.227.614.813.608 1.074 1.63m2.039 6.597v-8.727h1.698V24.5zm.858-10.074a1.08 1.08 0 0 1-.762-.295.96.96 0 0 1-.312-.716q0-.421.312-.716.318-.3.762-.301.443 0 .755.3a.94.94 0 0 1 .319.717.95.95 0 0 1-.319.716 1.06 1.06 0 0 1-.755.295m7.2 1.347v1.363h-4.767v-1.363zm-3.489-2.091h1.7v8.256q0 .493.147.744a.77.77 0 0 0 .38.335q.24.085.518.085.204 0 .358-.028l.238-.046.307 1.404a3 3 0 0 1-.42.114q-.273.062-.682.068a3 3 0 0 1-1.25-.239 2.15 2.15 0 0 1-.938-.773q-.357-.523-.358-1.312zm13.676 2.09v1.364h-4.767v-1.363zm-3.488-2.09h1.699v8.256q0 .493.147.744a.78.78 0 0 0 .381.335q.238.085.517.085.204 0 .358-.028l.239-.046.306 1.404a3 3 0 0 1-.42.114 3.3 3.3 0 0 1-.682.068 3 3 0 0 1-1.25-.239 2.14 2.14 0 0 1-.937-.773q-.358-.523-.358-1.312zm7.254 5.636V24.5h-1.699V12.864h1.676v4.33h.108q.307-.706.938-1.12.63-.415 1.647-.415.898 0 1.569.37a2.5 2.5 0 0 1 1.045 1.102q.375.727.375 1.818V24.5h-1.699v-5.347q0-.96-.494-1.488-.495-.534-1.375-.534-.602 0-1.08.255-.471.255-.744.75-.267.489-.267 1.182m11.688 5.358q-1.29 0-2.222-.551a3.74 3.74 0 0 1-1.432-1.562q-.5-1.012-.5-2.37 0-1.341.5-2.364a3.9 3.9 0 0 1 1.409-1.596q.91-.574 2.125-.574.74 0 1.432.244.693.244 1.244.768.552.522.87 1.357.318.83.318 2.018v.602h-6.938v-1.273h5.273q0-.67-.273-1.187a2.05 2.05 0 0 0-.767-.824q-.488-.302-1.147-.302-.717 0-1.25.353a2.37 2.37 0 0 0-.819.909 2.6 2.6 0 0 0-.284 1.21v.994q0 .876.307 1.489.312.615.869.938.557.318 1.302.318.483 0 .88-.137.398-.142.688-.42.29-.279.443-.688l1.608.29q-.194.71-.693 1.244-.495.529-1.245.824-.744.29-1.698.29"/><path fill="#f1f1f1" d="m63.9 43.5-3.598-12.364h3.302l1.865 8.102h.103l2.131-8.102h2.693l2.13 8.12h.103l1.872-8.12h3.296L74.205 43.5h-2.88l-2.227-7.498H69L66.773 43.5zm18.437.175q-1.455 0-2.512-.573a3.97 3.97 0 0 1-1.618-1.648q-.561-1.075-.561-2.554 0-1.437.567-2.511.568-1.08 1.6-1.679 1.033-.603 2.433-.604.99 0 1.811.308.82.309 1.419.912.597.604.93 1.491.331.882.332 2.023v.736h-8.06v-1.715h5.313a1.66 1.66 0 0 0-.224-.839 1.5 1.5 0 0 0-.597-.573 1.7 1.7 0 0 0-.864-.211q-.494 0-.887.223a1.68 1.68 0 0 0-.863 1.449v1.745q0 .567.223.996.223.421.634.658.411.235.978.235.393 0 .712-.109.32-.108.55-.32.229-.21.344-.519l2.71.079a3.35 3.35 0 0 1-.742 1.587q-.569.67-1.491 1.045-.924.368-2.137.368m5.908-.175V31.136h2.952v4.679h.06q.181-.422.514-.815.338-.393.857-.64.525-.254 1.256-.254.965 0 1.805.508.845.507 1.364 1.563t.52 2.693q0 1.575-.502 2.638-.495 1.063-1.34 1.594a3.4 3.4 0 0 1-1.865.53q-.7 0-1.214-.229a2.6 2.6 0 0 1-.863-.603 2.9 2.9 0 0 1-.531-.803h-.09V43.5zm2.892-4.636q0 .748.2 1.304.204.555.585.863.386.302.923.302.544 0 .924-.302.38-.308.574-.863.198-.555.199-1.304 0-.75-.2-1.298-.193-.55-.573-.852-.374-.3-.924-.301-.543 0-.923.295-.38.297-.586.846-.2.548-.199 1.31m16.078-1.805-2.711.072a1 1 0 0 0-.229-.513 1.24 1.24 0 0 0-.489-.356 1.7 1.7 0 0 0-.688-.133q-.513 0-.876.205-.356.205-.35.556a.6.6 0 0 0 .217.47q.23.2.815.32l1.787.339q1.389.265 2.065.88.682.617.688 1.63-.006.955-.567 1.661-.556.706-1.522 1.099-.965.386-2.209.386-1.986 0-3.133-.815-1.141-.821-1.304-2.197l2.916-.073q.096.507.501.773.404.266 1.032.266.567 0 .924-.212.356-.21.362-.561a.6.6 0 0 0-.278-.501q-.272-.194-.851-.302l-1.618-.308q-1.395-.253-2.077-.936-.682-.688-.676-1.75-.006-.93.495-1.588.501-.664 1.425-1.014t2.179-.35q1.884 0 2.97.79 1.087.785 1.202 2.162m1.683 6.441v-9.273h2.952V43.5zm1.479-10.353q-.622 0-1.069-.41a1.32 1.32 0 0 1-.447-1.003q0-.579.447-.99a1.5 1.5 0 0 1 1.069-.417q.627 0 1.068.417.447.411.447.99 0 .585-.447 1.002a1.5 1.5 0 0 1-1.068.41m8.586 1.08V36.4h-5.85v-2.174zm-4.625-2.221h2.952v8.578q0 .272.085.44.09.165.26.236a1.1 1.1 0 0 0 .404.067q.169 0 .356-.03.194-.038.29-.06l.447 2.13q-.211.06-.598.151a5 5 0 0 1-.912.115q-1.038.048-1.78-.242a2.3 2.3 0 0 1-1.129-.917q-.387-.622-.375-1.564zm10.366 11.67q-1.455 0-2.512-.574a3.97 3.97 0 0 1-1.617-1.648q-.562-1.075-.562-2.554 0-1.437.568-2.511.567-1.08 1.599-1.679 1.033-.603 2.433-.604.99 0 1.811.308.822.309 1.419.912.597.604.93 1.491.332.882.332 2.023v.736h-8.06V37.86h5.313a1.67 1.67 0 0 0-.223-.839 1.5 1.5 0 0 0-.598-.573 1.7 1.7 0 0 0-.863-.211q-.495 0-.888.223a1.68 1.68 0 0 0-.863 1.449v1.745q0 .567.223.996.223.421.634.658.411.235.978.235.392 0 .713-.109.32-.108.549-.32.23-.21.344-.519l2.711.079a3.36 3.36 0 0 1-.743 1.587q-.567.67-1.491 1.045-.924.368-2.137.368"/></g><defs><filter id="b" width="51.429" height="51.429" x="6.286" y="2.286" color-interpolation-filters="sRGB" filterUnits="userSpaceOnUse"><feFlood flood-opacity="0" result="BackgroundImageFix"/><feColorMatrix in="SourceAlpha" result="hardAlpha" values="0 0 0 0 0 0 0 0 0 0 0 0 0 0 0 0 0 0 127 0"/><feOffset/><feGaussianBlur stdDeviation="2.857"/><feComposite in2="hardAlpha" operator="out"/><feColorMatrix values="0 0 0 0 0 0 0 0 0 0 0 0 0 0 0 0 0 0 0.25 0"/><feBlend in2="BackgroundImageFix" result="effect1_dropShadow_4_107"/><feBlend in="SourceGraphic" in2="effect1_dropShadow_4_107" result="shape"/></filter><filter id="c" width="81.2" height="48.2" x="54.4" y="3.9" color-interpolation-filters="sRGB" filterUnits="userSpaceOnUse"><feFlood flood-opacity="0" result="BackgroundImageFix"/><feColorMatrix in="SourceAlpha" result="hardAlpha" values="0 0 0 0 0 0 0 0 0 0 0 0 0 0 0 0 0 0 127 0"/><feOffset/><feGaussianBlur stdDeviation="2.8"/><feComposite in2="hardAlpha" operator="out"/><feColorMatrix values="0 0 0 0 0 0 0 0 0 0 0 0 0 0 0 0 0 0 0.25 0"/><feBlend in2="BackgroundImageFix" result="effect1_dropShadow_4_107"/><feBlend in="SourceGraphic" in2="effect1_dropShadow_4_107" result="shape"/></filter><linearGradient id="a" x1="71" x2="71" y1="0" y2="56" gradientUnits="userSpaceOnUse"><stop stop-color="#2c2935"/><stop offset="1" stop-color="#262022"/></linearGradient></defs></svg>