<svg xmlns="http://www.w3.org/2000/svg" width="180" height="56" fill="none" viewBox="0 0 180 56"><g clip-path="url(#a)"><rect width="180" height="56" fill="url(#b)" rx="8"/><g filter="url(#c)"><path fill="#353535" d="M22.522 8v3.27h-5.998v2.884H13.43v3.27h3.095v2.884h3.096v3.077h6.19v3.077h12.381v-3.077h6.19v-3.077h2.902v9.423h-2.901v9.038h-3.29v6.154h-18.57V48h18.57v-3.077h3.29V38.77h2.901v-9.038h3.29V14.154h-3.29v3.27h-2.901v2.884h-6.19v3.077H25.81v-3.077h-6.19v-2.885h-3.096v-3.27h5.997V11.27h9.48V8z"/><path fill="#515151" d="M32 8v3.27h9.093v2.884h6.19v-2.885h-6.19V8z"/><path fill="#a37b63" d="M22.522 11.27v2.884h3.288v-2.885z"/><path fill="#ab826b" d="M25.81 11.27v2.884h3.095v-2.885z"/><path fill="#aba26b" d="M28.906 11.27v2.884h5.997v-2.885z"/><path fill="#ab826b" d="M34.902 11.27v2.884h3.289v-2.885z"/><path fill="#bf967e" d="M38.191 11.27v2.884h2.902v3.27h3.289v-3.27h-3.29v-2.885z"/><path fill="#958c55" d="M16.524 14.154v3.27h3.096v-3.27z"/><path fill="#956c55" d="M19.62 14.154v3.27h2.902v-3.27z"/><path fill="#c33e1f" d="M22.522 14.154v3.27h3.288v-3.27z"/><path fill="#e38c3f" d="M25.81 14.154v3.27h3.095v2.884h3.096v3.077h6.19v-3.077h-6.19v-2.885h-3.096v-3.269z"/><path fill="#e4d25c" d="M28.906 14.154v3.27H32v2.884h6.19v-2.885h-3.288v-3.269z"/><path fill="#e38c3f" d="M34.902 14.154v3.27h3.289v-3.27z"/><path fill="#cc4628" d="M38.191 14.154v3.27h2.902v2.884h3.289v-2.885h-3.29v-3.269z"/><path fill="#bfb67e" d="M44.382 14.154v3.27h2.901v-3.27z"/><path fill="#515151" d="M13.43 17.423v12.308h3.094v9.038h3.096v6.154h2.901V38.77H19.62v-9.038h-3.096V17.423z"/><path fill="#dc8638" d="M19.62 17.423v2.885h2.902v-2.885z"/><path fill="#e2cf5a" d="M22.522 17.423v2.885h3.288v3.077h3.095v-5.962z"/><path fill="#ea9346" d="M38.191 17.423v2.885h2.902v-2.885z"/><path fill="#e7e7e7" d="M16.524 20.308v3.077h3.096v3.077h6.19v-3.077h-6.19v-3.077z"/><path fill="#c54021" d="M28.906 20.308v3.077H32v-3.077z"/><path fill="#a9a9a9" d="M44.382 20.308v3.077h2.901v-3.077z"/><path fill="#d8d8d8" d="M16.524 23.385v6.346h3.096v9.038h2.901v3.27h3.29v2.884H32V32.615h-3.096v-2.884H25.81v2.884h-3.289v-6.153H19.62v-3.077z"/><path fill="#ead762" d="M38.191 23.385v3.077h2.902v-3.077z"/><path fill="#cb4627" d="M41.093 23.385v3.077h3.289v-3.077z"/><path fill="#727272" d="M44.382 23.385v6.346h-3.289v9.038h3.289v-9.038h2.901v-6.346z"/><path fill="#fff" d="M22.522 26.462v6.153h3.288v-6.153z"/><path fill="#d85334" d="M25.81 26.462v3.269h3.095v-3.27z"/><path fill="#cacaca" d="M28.906 26.462v3.269h9.285v-3.27z"/><path fill="#e99245" d="M38.191 26.462v3.269h2.902v-3.27z"/><path fill="#969696" d="M41.093 26.462v3.269h3.289v-3.27z"/><path fill="#a8a8a8" d="M28.906 29.73v2.885H32v9.424h2.902v-9.424h3.288v-2.884z"/><path fill="#cb4627" d="M38.191 29.73v2.885h2.902v-2.884z"/><path fill="#fff" d="M25.81 32.615v6.154h3.095v-6.154z"/><path fill="#969696" d="M34.902 32.615v9.423h-2.901v2.885h9.092V38.77H38.19v-2.884h2.902v-3.27z"/><path fill="#cb4627" d="M38.191 35.885v2.884h2.902v-2.884z"/><path fill="#969696" d="M22.522 42.039v2.884h3.288v-2.885z"/><g opacity=".7"><mask id="e" width="28" height="28" x="26.144" y="22.143" fill="#000" maskUnits="userSpaceOnUse"><path fill="#fff" d="M26.144 22.143h28v28h-28z"/><path fill-rule="evenodd" d="M31.958 25.352a.714.714 0 0 0-1.01 0l-1.594 1.596a.715.715 0 0 0 0 1.01l8.613 8.615-8.614 8.612a.714.714 0 0 0 0 1.01l1.595 1.595a.714.714 0 0 0 1.01 0l8.613-8.611 8.61 8.612a.714.714 0 0 0 1.01 0l1.595-1.595a.714.714 0 0 0 0-1.01l-8.61-8.612 8.614-8.612a.714.714 0 0 0 0-1.01l-1.595-1.595a.714.714 0 0 0-1.01 0l-8.613 8.611z" clip-rule="evenodd"/></mask><path fill="url(#d)" fill-rule="evenodd" d="M31.958 25.352a.714.714 0 0 0-1.01 0l-1.594 1.596a.715.715 0 0 0 0 1.01l8.613 8.615-8.614 8.612a.714.714 0 0 0 0 1.01l1.595 1.595a.714.714 0 0 0 1.01 0l8.613-8.611 8.61 8.612a.714.714 0 0 0 1.01 0l1.595-1.595a.714.714 0 0 0 0-1.01l-8.61-8.612 8.614-8.612a.714.714 0 0 0 0-1.01l-1.595-1.595a.714.714 0 0 0-1.01 0l-8.613 8.611z" clip-rule="evenodd"/><path fill="#000" d="m30.948 25.352 1.516 1.515zm1.01 0-1.515 1.515zm-2.604 1.596 1.515 1.515zm0 1.01 1.515-1.515zm8.613 8.615 1.515 1.516 1.515-1.515-1.515-1.516zm-8.614 8.612-1.515-1.515zm0 1.01-1.515 1.516zm1.595 1.595 1.515-1.515zm1.01 0 1.515 1.516zm8.613-8.611 1.516-1.516-1.515-1.515-1.516 1.515zm8.61 8.612 1.516-1.515zm1.01 0-1.515-1.515zm1.595-1.595L50.27 44.68zm0-1.01L53.3 43.67zm-8.61-8.612-1.514-1.516-1.516 1.515 1.515 1.516zm8.614-8.612 1.515 1.515zm0-1.01 1.515-1.516zm-1.595-1.595 1.515-1.515zm-1.01 0-1.515-1.515zm-8.613 8.611-1.516 1.515L40.573 37l1.515-1.515zm-8.108-7.1a1.43 1.43 0 0 1-2.021 0l3.03-3.03a2.857 2.857 0 0 0-4.04 0zm-1.595 1.595 1.595-1.596-3.031-3.03-1.595 1.596zm0-2.02a1.43 1.43 0 0 1 0 2.02l-3.03-3.03a2.857 2.857 0 0 0 0 4.04zm8.613 8.615-8.613-8.615-3.03 3.03 8.612 8.615zm-8.614 11.643 8.614-8.612-3.03-3.031-8.614 8.612zm0-2.02a1.43 1.43 0 0 1 0 2.02l-3.03-3.031a2.857 2.857 0 0 0 0 4.04zm1.595 1.594-1.595-1.595-3.03 3.03 1.595 1.596zm-2.02 0a1.43 1.43 0 0 1 2.02 0l-3.03 3.03a2.857 2.857 0 0 0 4.04 0zm8.613-8.612-8.613 8.612 3.03 3.03 8.614-8.611zm11.64 8.613-8.61-8.613-3.03 3.03 8.61 8.613zm-2.02 0a1.43 1.43 0 0 1 2.02 0l-3.03 3.03a2.857 2.857 0 0 0 4.04 0zm1.594-1.596-1.594 1.596 3.03 3.03 1.595-1.595zm0 2.02a1.43 1.43 0 0 1 0-2.02l3.031 3.03a2.857 2.857 0 0 0 0-4.04zm-8.609-8.611 8.61 8.611 3.03-3.03-8.609-8.611zm8.614-11.643-8.613 8.612 3.03 3.031 8.613-8.612zm0 2.02a1.43 1.43 0 0 1 0-2.02l3.03 3.031a2.857 2.857 0 0 0 0-4.04zm-1.595-1.594 1.595 1.595 3.03-3.03-1.595-1.596zm2.02 0a1.43 1.43 0 0 1-2.02 0l3.03-3.03a2.857 2.857 0 0 0-4.04 0zm-8.613 8.612 8.613-8.612-3.03-3.03-8.613 8.61zm-11.644-8.617 8.613 8.616 3.031-3.03-8.613-8.616z" mask="url(#e)"/></g></g><g filter="url(#f)"><path fill="#e7cdcd" d="M63.557 24.5 60.33 12.864h1.846l2.267 9.011h.108l2.358-9.011h1.83l2.358 9.017h.108l2.26-9.017h1.853L72.085 24.5h-1.767l-2.449-8.716h-.09l-2.45 8.716zm16.042.176q-1.227 0-2.142-.562a3.8 3.8 0 0 1-1.42-1.574q-.506-1.011-.506-2.364 0-1.358.506-2.375a3.8 3.8 0 0 1 1.42-1.58q.915-.561 2.142-.562 1.228 0 2.142.563.916.562 1.42 1.58.507 1.016.507 2.374 0 1.353-.506 2.364a3.8 3.8 0 0 1-1.42 1.574q-.915.562-2.143.562m.006-1.426q.796 0 1.318-.42.523-.42.773-1.12.256-.699.256-1.54 0-.835-.256-1.534a2.5 2.5 0 0 0-.773-1.13q-.522-.426-1.318-.427-.8 0-1.33.427a2.54 2.54 0 0 0-.778 1.13q-.25.7-.25 1.535 0 .84.25 1.54.255.697.779 1.119.528.42 1.33.42m7.658-3.932V24.5h-1.7v-8.727h1.632v1.42h.108q.3-.693.943-1.114.647-.42 1.63-.42.892 0 1.563.375.67.37 1.04 1.102.369.733.369 1.813V24.5H91.15v-5.347q0-.948-.494-1.482-.494-.54-1.358-.54-.592 0-1.051.255-.455.255-.722.75-.261.489-.261 1.182m9.324-6.454v1.09q0 .483-.182 1.018a4.3 4.3 0 0 1-.5 1.017q-.324.488-.761.84l-.842-.602q.336-.488.58-1.04.25-.55.25-1.215v-1.108zm6.051 2.909v1.363h-4.767v-1.363zm-3.489-2.091h1.699v8.256q0 .493.148.744a.77.77 0 0 0 .38.335q.239.085.517.085.205 0 .358-.028l.239-.046.307 1.404a3 3 0 0 1-.421.114 3.3 3.3 0 0 1-.681.068 3 3 0 0 1-1.25-.239 2.14 2.14 0 0 1-.938-.773q-.358-.523-.358-1.312zm16.142 4.221-1.54.273a1.8 1.8 0 0 0-.306-.562 1.5 1.5 0 0 0-.557-.438q-.353-.17-.881-.17-.721 0-1.204.323-.483.319-.483.824a.87.87 0 0 0 .323.705q.324.267 1.046.438l1.386.318q1.205.277 1.796.858.591.58.591 1.505 0 .785-.455 1.398-.449.608-1.256.954-.8.348-1.858.347-1.465 0-2.392-.625-.926-.63-1.136-1.79l1.642-.25q.154.642.631.972.477.324 1.244.324.835 0 1.335-.347.5-.352.5-.858a.89.89 0 0 0-.307-.687q-.3-.279-.926-.42l-1.477-.325q-1.221-.277-1.807-.886-.579-.607-.579-1.54a2.2 2.2 0 0 1 .432-1.352q.43-.579 1.193-.903.761-.33 1.744-.33 1.415 0 2.227.614.813.608 1.074 1.63m7.567 2.978v-5.108h1.704V24.5h-1.67v-1.511h-.091a2.73 2.73 0 0 1-.966 1.164q-.659.46-1.642.46-.84 0-1.488-.369-.643-.375-1.012-1.108-.363-.732-.363-1.812v-5.551h1.698v5.346q0 .893.495 1.42.494.53 1.284.53.477 0 .949-.24.477-.239.789-.721.32-.483.313-1.227m3.987 6.892v-12h1.659v1.415h.142q.149-.273.426-.631.28-.358.773-.625.494-.273 1.307-.273 1.057 0 1.886.534.83.535 1.301 1.54.478 1.005.478 2.42t-.472 2.427q-.471 1.005-1.295 1.55-.824.54-1.881.54-.795 0-1.301-.267a2.5 2.5 0 0 1-.784-.625 5 5 0 0 1-.438-.636h-.102v4.63zm1.665-7.637q0 .921.267 1.614t.773 1.085q.506.387 1.238.387.762 0 1.273-.404.512-.41.773-1.108.267-.699.267-1.574 0-.863-.262-1.55-.255-.689-.772-1.086-.511-.398-1.279-.398-.738 0-1.25.381-.505.38-.767 1.063-.261.681-.261 1.59m8.21 7.637v-12h1.659v1.415h.142q.149-.273.426-.631.28-.358.773-.625.494-.273 1.307-.273 1.057 0 1.886.534.83.535 1.301 1.54.478 1.005.478 2.42t-.472 2.427q-.471 1.005-1.295 1.55-.824.54-1.881.54-.795 0-1.301-.267a2.5 2.5 0 0 1-.784-.625 5 5 0 0 1-.438-.636h-.102v4.63zm1.665-7.637q0 .921.267 1.614t.773 1.085q.506.387 1.238.387.762 0 1.273-.404.512-.41.773-1.108.267-.699.267-1.574 0-.863-.262-1.55-.255-.689-.772-1.086-.511-.398-1.279-.398-.738 0-1.25.381-.505.38-.767 1.063-.261.681-.261 1.59m11.886 4.54q-1.227 0-2.142-.562a3.8 3.8 0 0 1-1.42-1.574q-.506-1.011-.506-2.364 0-1.358.506-2.375a3.8 3.8 0 0 1 1.42-1.58q.915-.561 2.142-.562 1.227 0 2.142.563t1.421 1.58q.505 1.016.505 2.374 0 1.353-.505 2.364a3.8 3.8 0 0 1-1.421 1.574q-.915.562-2.142.562m.006-1.426q.796 0 1.318-.42.523-.42.773-1.12.255-.699.256-1.54 0-.835-.256-1.534a2.5 2.5 0 0 0-.773-1.13q-.523-.426-1.318-.427-.8 0-1.33.427a2.54 2.54 0 0 0-.778 1.13q-.25.7-.25 1.535 0 .84.25 1.54.255.697.778 1.119.53.42 1.33.42m5.959 1.25v-8.727h1.642v1.386h.091q.238-.705.841-1.108.607-.41 1.375-.409a7 7 0 0 1 .721.04v1.625a3 3 0 0 0-.363-.063 3.5 3.5 0 0 0-.523-.04q-.603 0-1.074.256a1.9 1.9 0 0 0-1.011 1.71v5.33zm10.73-8.727v1.363H162.2v-1.363zm-3.489-2.091h1.699v8.256q0 .493.148.744a.77.77 0 0 0 .381.335q.238.085.517.085a2 2 0 0 0 .358-.028l.238-.046.307 1.404a3 3 0 0 1-.42.114q-.273.062-.682.068a3 3 0 0 1-1.25-.239 2.14 2.14 0 0 1-.938-.773q-.357-.523-.358-1.312z"/><path fill="url(#g)" d="M60.936 43.5V31.136h5.155q1.388 0 2.325.393.94.392 1.412 1.098.477.707.477 1.636 0 .707-.296 1.262-.296.55-.815.912-.519.361-1.201.507v.12q.749.037 1.382.405.641.369 1.027 1.026.386.652.386 1.546a3.2 3.2 0 0 1-.507 1.78q-.507.78-1.467 1.232-.96.447-2.33.447zm2.988-2.409h1.847q.972 0 1.431-.368.465-.368.465-1.026 0-.477-.224-.821a1.44 1.44 0 0 0-.633-.538q-.411-.192-.984-.193h-1.902zm0-4.872h1.654q.489 0 .87-.163.38-.162.591-.47.217-.309.217-.743 0-.622-.44-.978t-1.19-.356h-1.702zm14.283 3.279v-5.27h2.946V43.5H78.34v-1.727h-.096a2.7 2.7 0 0 1-1.05 1.353q-.737.495-1.782.495-.948 0-1.666-.435a2.96 2.96 0 0 1-1.117-1.213q-.398-.785-.404-1.836v-5.91h2.952v5.33q.006.755.398 1.19.393.435 1.069.435.44 0 .79-.193.357-.2.562-.574.211-.38.211-.917m7.488 1.57.012-3.52h.41l2.608-3.32h3.345l-3.876 4.756h-.779zM83.032 43.5V31.136h2.953V43.5zm5.76 0-2.427-3.852 1.944-2.094 3.894 5.946zm6.996-2.433.013-3.52h.41l2.608-3.32h3.344l-3.875 4.757h-.779zM93.126 43.5V31.136h2.952V43.5zm5.76 0-2.427-3.852 1.943-2.094 3.894 5.946zm4.334 0v-9.273h2.952V43.5zm1.479-10.353q-.622 0-1.069-.41a1.32 1.32 0 0 1-.446-1.003q0-.579.446-.99a1.5 1.5 0 0 1 1.069-.417q.628 0 1.068.417.447.411.447.99 0 .585-.447 1.002a1.5 1.5 0 0 1-1.068.41m8.586 1.08V36.4h-5.85v-2.174zm-4.624-2.221h2.952v8.578q0 .272.084.44a.53.53 0 0 0 .26.236q.169.067.404.067.17 0 .356-.03.194-.038.29-.06l.447 2.13q-.211.06-.598.151-.38.09-.911.115-1.038.048-1.781-.242a2.3 2.3 0 0 1-1.129-.917q-.387-.622-.374-1.564z"/></g></g><rect width="177.9" height="53.9" x="1.05" y="1.05" stroke="#fff" stroke-opacity=".15" stroke-width="2.1" rx="6.95"/><defs><linearGradient id="b" x1="90" x2="90" y1="0" y2="56" gradientUnits="userSpaceOnUse"><stop stop-color="#2c1b1b"/><stop offset="1" stop-color="#1f1414"/></linearGradient><linearGradient id="d" x1="40.572" x2="40.572" y1="25.143" y2="48" gradientUnits="userSpaceOnUse"><stop stop-color="red"/><stop offset="1" stop-color="#c00"/></linearGradient><linearGradient id="g" x1="87" x2="87" y1="28.5" y2="46.5" gradientUnits="userSpaceOnUse"><stop stop-color="#fff"/><stop offset="1" stop-color="#b9b9b9"/></linearGradient><filter id="c" width="53.571" height="53.571" x="6.286" y="2.286" color-interpolation-filters="sRGB" filterUnits="userSpaceOnUse"><feFlood flood-opacity="0" result="BackgroundImageFix"/><feColorMatrix in="SourceAlpha" result="hardAlpha" values="0 0 0 0 0 0 0 0 0 0 0 0 0 0 0 0 0 0 127 0"/><feOffset/><feGaussianBlur stdDeviation="2.857"/><feComposite in2="hardAlpha" operator="out"/><feColorMatrix values="0 0 0 0 0 0 0 0 0 0 0 0 0 0 0 0 0 0 0.25 0"/><feBlend in2="BackgroundImageFix" result="effect1_dropShadow_28_1130"/><feBlend in="SourceGraphic" in2="effect1_dropShadow_28_1130" result="shape"/></filter><filter id="f" width="119.2" height="48.2" x="54.4" y="3.9" color-interpolation-filters="sRGB" filterUnits="userSpaceOnUse"><feFlood flood-opacity="0" result="BackgroundImageFix"/><feColorMatrix in="SourceAlpha" result="hardAlpha" values="0 0 0 0 0 0 0 0 0 0 0 0 0 0 0 0 0 0 127 0"/><feOffset/><feGaussianBlur stdDeviation="2.8"/><feComposite in2="hardAlpha" operator="out"/><feColorMatrix values="0 0 0 0 0 0 0 0 0 0 0 0 0 0 0 0 0 0 0.25 0"/><feBlend in2="BackgroundImageFix" result="effect1_dropShadow_28_1130"/><feBlend in="SourceGraphic" in2="effect1_dropShadow_28_1130" result="shape"/></filter><clipPath id="a"><rect width="180" height="56" fill="#fff" rx="8"/></clipPath></defs></svg>