<svg xmlns="http://www.w3.org/2000/svg" width="180" height="56" fill="none" viewBox="0 0 180 56"><g clip-path="url(#a)"><rect width="180" height="56" fill="url(#b)" rx="8"/><g filter="url(#c)"><path fill="#fff" d="m47.692 12.32-4.897 29.387a1.19 1.19 0 0 1-.618.856c-.182.1-.386.154-.594.155a1.2 1.2 0 0 1-.452-.095l-8.665-3.567-4.623 5.647a1.19 1.19 0 0 1-.94.44 1 1 0 0 1-.415-.083 1.19 1.19 0 0 1-.808-1.19v-6.62L42.2 17.04 21.758 34.694 14.21 31.59a1.19 1.19 0 0 1-.772-1.046 1.19 1.19 0 0 1 .618-1.189l31.819-18.307a1.19 1.19 0 0 1 1.295 0c.41.283.616.782.523 1.272"/><g opacity=".7"><mask id="e" width="28" height="28" x="26.144" y="22.143" fill="#000" maskUnits="userSpaceOnUse"><path fill="#fff" d="M26.144 22.143h28v28h-28z"/><path fill-rule="evenodd" d="M31.958 25.352a.714.714 0 0 0-1.01 0l-1.594 1.596a.715.715 0 0 0 0 1.01l8.613 8.615-8.614 8.612a.714.714 0 0 0 0 1.01l1.595 1.595a.714.714 0 0 0 1.01 0l8.613-8.611 8.61 8.612a.714.714 0 0 0 1.01 0l1.595-1.595a.714.714 0 0 0 0-1.01l-8.61-8.612 8.614-8.612a.714.714 0 0 0 0-1.01l-1.595-1.595a.714.714 0 0 0-1.01 0l-8.613 8.611z" clip-rule="evenodd"/></mask><path fill="url(#d)" fill-rule="evenodd" d="M31.958 25.352a.714.714 0 0 0-1.01 0l-1.594 1.596a.715.715 0 0 0 0 1.01l8.613 8.615-8.614 8.612a.714.714 0 0 0 0 1.01l1.595 1.595a.714.714 0 0 0 1.01 0l8.613-8.611 8.61 8.612a.714.714 0 0 0 1.01 0l1.595-1.595a.714.714 0 0 0 0-1.01l-8.61-8.612 8.614-8.612a.714.714 0 0 0 0-1.01l-1.595-1.595a.714.714 0 0 0-1.01 0l-8.613 8.611z" clip-rule="evenodd"/><path fill="#000" d="m30.948 25.352 1.516 1.515zm1.01 0-1.515 1.515zm-2.604 1.596-1.516-1.515zm0 1.01 1.515-1.515zm8.613 8.615 1.515 1.516 1.515-1.515-1.515-1.516zm-8.614 8.612-1.515-1.515zm0 1.01-1.515 1.516zm1.595 1.595 1.515-1.515zm1.01 0 1.515 1.516zm8.613-8.611 1.516-1.516-1.515-1.515-1.516 1.515zm8.61 8.612 1.516-1.515zm1.01 0-1.515-1.515zm1.595-1.595L50.27 44.68zm0-1.01L50.27 46.7zm-8.61-8.612-1.514-1.516-1.516 1.515 1.515 1.516zm8.614-8.612 1.515 1.515zm0-1.01 1.515-1.516zm-1.595-1.595 1.515-1.515zm-1.01 0-1.515-1.515zm-8.613 8.611-1.515 1.515L40.572 37l1.515-1.515zm-8.108-7.1a1.43 1.43 0 0 1-2.021 0l3.03-3.03a2.857 2.857 0 0 0-4.04 0zm-1.595 1.595 1.595-1.596-3.031-3.03-1.595 1.596zm0-2.02a1.43 1.43 0 0 1 0 2.02l-3.03-3.03a2.857 2.857 0 0 0 0 4.04zm8.613 8.615-8.613-8.615-3.03 3.03 8.612 8.615zm-8.614 11.643 8.614-8.612-3.03-3.031-8.614 8.612zm0-2.02a1.43 1.43 0 0 1 0 2.02l-3.03-3.031a2.857 2.857 0 0 0 0 4.04zm1.595 1.594-1.595-1.595-3.03 3.03 1.595 1.596zm-2.02 0a1.43 1.43 0 0 1 2.02 0l-3.03 3.03a2.857 2.857 0 0 0 4.04 0zm8.613-8.612-8.613 8.612 3.03 3.03 8.614-8.611zm11.64 8.613-8.61-8.613-3.03 3.03 8.61 8.613zm-2.02 0a1.43 1.43 0 0 1 2.02 0l-3.03 3.03a2.857 2.857 0 0 0 4.04 0zm1.594-1.596-1.594 1.596 3.03 3.03 1.595-1.595zm0 2.02a1.43 1.43 0 0 1 0-2.02l3.031 3.03a2.857 2.857 0 0 0 0-4.04zm-8.609-8.611 8.61 8.611 3.03-3.03-8.609-8.611zm8.614-11.643-8.613 8.612 3.03 3.031 8.613-8.612zm0 2.021a1.43 1.43 0 0 1 0-2.02l3.03 3.03a2.857 2.857 0 0 0 0-4.04zm-1.595-1.595 1.595 1.595 3.03-3.03-1.595-1.596zm2.02 0a1.43 1.43 0 0 1-2.02 0l3.03-3.03a2.857 2.857 0 0 0-4.04 0zm-8.613 8.612 8.613-8.612-3.03-3.03-8.613 8.611zm-11.644-8.617 8.614 8.616 3.03-3.03-8.613-8.616z" mask="url(#e)"/></g></g><g filter="url(#f)"><path fill="#e7cdcd" d="M63.557 24.5 60.33 12.864h1.846l2.267 9.011h.108l2.358-9.011h1.83l2.358 9.017h.108l2.26-9.017h1.853L72.085 24.5h-1.767l-2.449-8.716h-.09l-2.45 8.716zm16.042.176q-1.227 0-2.142-.562a3.8 3.8 0 0 1-1.42-1.574q-.506-1.011-.506-2.364 0-1.358.506-2.375a3.8 3.8 0 0 1 1.42-1.58q.915-.561 2.142-.562 1.228 0 2.142.563.916.562 1.42 1.58.507 1.016.507 2.374 0 1.353-.506 2.364a3.8 3.8 0 0 1-1.42 1.574q-.915.562-2.143.562m.006-1.426q.796 0 1.318-.42.523-.42.773-1.12.256-.699.256-1.54 0-.835-.256-1.534a2.5 2.5 0 0 0-.773-1.13q-.522-.426-1.318-.427-.8 0-1.33.427a2.54 2.54 0 0 0-.778 1.13q-.25.7-.25 1.535 0 .84.25 1.54.255.697.779 1.119.528.42 1.33.42m7.658-3.932V24.5h-1.7v-8.727h1.632v1.42h.108q.3-.693.943-1.114.647-.42 1.63-.42.892 0 1.563.375.67.37 1.04 1.102.369.733.369 1.813V24.5H91.15v-5.347q0-.948-.494-1.482-.494-.54-1.358-.54-.592 0-1.051.255-.455.255-.722.75-.261.489-.261 1.182m9.324-6.454v1.09q0 .483-.182 1.018a4.3 4.3 0 0 1-.5 1.017q-.324.488-.761.84l-.842-.602q.336-.488.58-1.04.25-.55.25-1.215v-1.108zm6.051 2.909v1.363h-4.767v-1.363zm-3.489-2.091h1.699v8.256q0 .493.148.744a.77.77 0 0 0 .38.335q.239.085.517.085.205 0 .358-.028l.239-.046.307 1.404a3 3 0 0 1-.421.114 3.3 3.3 0 0 1-.681.068 3 3 0 0 1-1.25-.239 2.14 2.14 0 0 1-.938-.773q-.358-.523-.358-1.312zm16.142 4.221-1.54.273a1.8 1.8 0 0 0-.306-.562 1.5 1.5 0 0 0-.557-.438q-.353-.17-.881-.17-.721 0-1.204.323-.483.319-.483.824a.87.87 0 0 0 .323.705q.324.267 1.046.438l1.386.318q1.205.277 1.796.858.591.58.591 1.505 0 .785-.455 1.398-.449.608-1.256.954-.8.348-1.858.347-1.465 0-2.392-.625-.926-.63-1.136-1.79l1.642-.25q.154.642.631.972.477.324 1.244.324.835 0 1.335-.347.5-.352.5-.858a.89.89 0 0 0-.307-.687q-.3-.279-.926-.42l-1.477-.325q-1.221-.277-1.807-.886-.579-.607-.579-1.54a2.2 2.2 0 0 1 .432-1.352q.43-.579 1.193-.903.761-.33 1.744-.33 1.415 0 2.227.614.813.608 1.074 1.63m7.567 2.978v-5.108h1.704V24.5h-1.67v-1.511h-.091a2.73 2.73 0 0 1-.966 1.164q-.659.46-1.642.46-.84 0-1.488-.369-.643-.375-1.012-1.108-.363-.732-.363-1.812v-5.551h1.698v5.346q0 .893.495 1.42.494.53 1.284.53.477 0 .949-.24.477-.239.789-.721.32-.483.313-1.227m3.987 6.892v-12h1.659v1.415h.142q.149-.273.426-.631.28-.358.773-.625.494-.273 1.307-.273 1.057 0 1.886.534.83.535 1.301 1.54.478 1.005.478 2.42t-.472 2.427q-.471 1.005-1.295 1.55-.824.54-1.881.54-.795 0-1.301-.267a2.5 2.5 0 0 1-.784-.625 5 5 0 0 1-.438-.636h-.102v4.63zm1.665-7.637q0 .921.267 1.614t.773 1.085q.506.387 1.238.387.762 0 1.273-.404.512-.41.773-1.108.267-.699.267-1.574 0-.863-.262-1.55-.255-.689-.772-1.086-.511-.398-1.279-.398-.738 0-1.25.381-.505.38-.767 1.063-.261.681-.261 1.59m8.21 7.637v-12h1.659v1.415h.142q.149-.273.426-.631.28-.358.773-.625.494-.273 1.307-.273 1.057 0 1.886.534.83.535 1.301 1.54.478 1.005.478 2.42t-.472 2.427q-.471 1.005-1.295 1.55-.824.54-1.881.54-.795 0-1.301-.267a2.5 2.5 0 0 1-.784-.625 5 5 0 0 1-.438-.636h-.102v4.63zm1.665-7.637q0 .921.267 1.614t.773 1.085q.506.387 1.238.387.762 0 1.273-.404.512-.41.773-1.108.267-.699.267-1.574 0-.863-.262-1.55-.255-.689-.772-1.086-.511-.398-1.279-.398-.738 0-1.25.381-.505.38-.767 1.063-.261.681-.261 1.59m11.886 4.54q-1.227 0-2.142-.562a3.8 3.8 0 0 1-1.42-1.574q-.506-1.011-.506-2.364 0-1.358.506-2.375a3.8 3.8 0 0 1 1.42-1.58q.915-.561 2.142-.562 1.227 0 2.142.563t1.421 1.58q.505 1.016.505 2.374 0 1.353-.505 2.364a3.8 3.8 0 0 1-1.421 1.574q-.915.562-2.142.562m.006-1.426q.796 0 1.318-.42.523-.42.773-1.12.255-.699.256-1.54 0-.835-.256-1.534a2.5 2.5 0 0 0-.773-1.13q-.523-.426-1.318-.427-.8 0-1.33.427a2.54 2.54 0 0 0-.778 1.13q-.25.7-.25 1.535 0 .84.25 1.54.255.697.778 1.119.53.42 1.33.42m5.959 1.25v-8.727h1.642v1.386h.091q.238-.705.841-1.108.607-.41 1.375-.409a7 7 0 0 1 .721.04v1.625a3 3 0 0 0-.363-.063 3.5 3.5 0 0 0-.523-.04q-.603 0-1.074.256a1.9 1.9 0 0 0-1.011 1.71v5.33zm10.73-8.727v1.363H162.2v-1.363zm-3.489-2.091h1.699v8.256q0 .493.148.744a.77.77 0 0 0 .381.335q.238.085.517.085a2 2 0 0 0 .358-.028l.238-.046.307 1.404a3 3 0 0 1-.42.114q-.273.062-.682.068a3 3 0 0 1-1.25-.239 2.14 2.14 0 0 1-.938-.773q-.357-.523-.358-1.312z"/><path fill="#fff" d="M60.936 43.5V31.136h5.107q1.388 0 2.397.544 1.014.537 1.563 1.503.55.96.55 2.233 0 1.28-.562 2.24-.556.954-1.588 1.48-1.032.525-2.45.524H62.8v-2.354h2.596q.675 0 1.129-.235.459-.236.694-.658.236-.429.236-.996 0-.575-.236-.99a1.6 1.6 0 0 0-.694-.652q-.459-.23-1.129-.23h-1.473V43.5zm13.372.157q-.888 0-1.576-.296a2.45 2.45 0 0 1-1.08-.905q-.393-.61-.393-1.528 0-.773.272-1.304.27-.531.748-.863a3.5 3.5 0 0 1 1.099-.501 7 7 0 0 1 1.328-.235q.79-.074 1.274-.151.483-.085.7-.236a.51.51 0 0 0 .223-.44v-.03q0-.465-.32-.72-.319-.252-.863-.253-.585 0-.942.254a1.12 1.12 0 0 0-.452.7l-2.723-.096q.12-.846.622-1.51.506-.67 1.388-1.05.888-.387 2.131-.387.888 0 1.636.212.75.205 1.304.604.555.392.858.965.307.575.307 1.31V43.5h-2.777v-1.292H77q-.247.471-.634.797-.38.326-.9.489a3.8 3.8 0 0 1-1.158.163m.911-1.932q.477 0 .857-.193.387-.194.616-.531.23-.344.23-.797v-.882a2 2 0 0 1-.308.121 5 5 0 0 1-.387.103q-.21.048-.434.084t-.429.067a2.7 2.7 0 0 0-.712.205 1.1 1.1 0 0 0-.447.362.9.9 0 0 0-.151.52q0 .458.326.7.332.24.84.241m6.436 5.252v-12.75h2.921v1.588h.09q.183-.422.514-.815.338-.393.857-.64.525-.254 1.256-.254.966 0 1.805.508.845.507 1.364 1.563t.52 2.693q0 1.575-.501 2.638-.495 1.063-1.34 1.594a3.4 3.4 0 0 1-1.866.53q-.7 0-1.214-.229a2.6 2.6 0 0 1-.863-.603 2.9 2.9 0 0 1-.531-.803h-.06v4.98zm2.891-8.113q0 .748.2 1.304.204.555.585.863.385.302.924.302.543 0 .923-.302.38-.308.574-.863.2-.555.199-1.304 0-.75-.2-1.298-.193-.55-.573-.852-.374-.3-.923-.301-.544 0-.924.295-.38.297-.586.846-.199.548-.199 1.31m12.317 4.811q-1.455 0-2.511-.573a3.97 3.97 0 0 1-1.618-1.648q-.561-1.075-.562-2.554 0-1.437.568-2.511.567-1.08 1.6-1.679 1.032-.603 2.432-.604.99 0 1.811.308a3.9 3.9 0 0 1 1.419.912q.598.604.93 1.491.332.882.332 2.023v.736h-8.06v-1.715h5.313a1.66 1.66 0 0 0-.223-.839 1.5 1.5 0 0 0-.598-.573 1.7 1.7 0 0 0-.863-.211q-.495 0-.888.223a1.68 1.68 0 0 0-.863 1.449v1.745q0 .567.224.996.223.421.633.658.411.235.978.235.393 0 .713-.109.32-.108.55-.32.228-.21.343-.519l2.711.079a3.35 3.35 0 0 1-.743 1.587q-.567.67-1.49 1.045-.925.368-2.138.368m5.909-.175v-9.273h2.867v1.69h.097q.254-.917.827-1.364a2.1 2.1 0 0 1 1.334-.453q.206 0 .423.03.216.025.404.08v2.565a3 3 0 0 0-.555-.115 5 5 0 0 0-.604-.042q-.525 0-.948.235a1.7 1.7 0 0 0-.658.646 1.9 1.9 0 0 0-.235.966V43.5z"/></g></g><rect width="177.9" height="53.9" x="1.05" y="1.05" stroke="#fff" stroke-opacity=".15" stroke-width="2.1" rx="6.95"/><defs><linearGradient id="b" x1="90" x2="90" y1="0" y2="56" gradientUnits="userSpaceOnUse"><stop stop-color="#2c1b1b"/><stop offset="1" stop-color="#1f1414"/></linearGradient><linearGradient id="d" x1="40.572" x2="40.572" y1="25.143" y2="48" gradientUnits="userSpaceOnUse"><stop stop-color="red"/><stop offset="1" stop-color="#c00"/></linearGradient><filter id="c" width="53.571" height="53.571" x="6.286" y="2.286" color-interpolation-filters="sRGB" filterUnits="userSpaceOnUse"><feFlood flood-opacity="0" result="BackgroundImageFix"/><feColorMatrix in="SourceAlpha" result="hardAlpha" values="0 0 0 0 0 0 0 0 0 0 0 0 0 0 0 0 0 0 127 0"/><feOffset/><feGaussianBlur stdDeviation="2.857"/><feComposite in2="hardAlpha" operator="out"/><feColorMatrix values="0 0 0 0 0 0 0 0 0 0 0 0 0 0 0 0 0 0 0.25 0"/><feBlend in2="BackgroundImageFix" result="effect1_dropShadow_28_1142"/><feBlend in="SourceGraphic" in2="effect1_dropShadow_28_1142" result="shape"/></filter><filter id="f" width="119.2" height="48.677" x="54.4" y="3.9" color-interpolation-filters="sRGB" filterUnits="userSpaceOnUse"><feFlood flood-opacity="0" result="BackgroundImageFix"/><feColorMatrix in="SourceAlpha" result="hardAlpha" values="0 0 0 0 0 0 0 0 0 0 0 0 0 0 0 0 0 0 127 0"/><feOffset/><feGaussianBlur stdDeviation="2.8"/><feComposite in2="hardAlpha" operator="out"/><feColorMatrix values="0 0 0 0 0 0 0 0 0 0 0 0 0 0 0 0 0 0 0.25 0"/><feBlend in2="BackgroundImageFix" result="effect1_dropShadow_28_1142"/><feBlend in="SourceGraphic" in2="effect1_dropShadow_28_1142" result="shape"/></filter><clipPath id="a"><rect width="180" height="56" fill="#fff" rx="8"/></clipPath></defs></svg>