<svg xmlns="http://www.w3.org/2000/svg" width="180" height="56" fill="none" viewBox="0 0 180 56"><g clip-path="url(#a)"><rect width="180" height="56" fill="url(#b)" rx="8"/><g filter="url(#c)"><path fill="url(#d)" fill-rule="evenodd" d="M32.75 10.941c-.445.142-.786.4-1.173.883-.11.136-.297.184-.54.138-.29-.054-1.388-.125-4.261-.275-.84-.044-1.01-.02-1.16.162-.36.436-.264 1.84.147 2.145.118.087.756.1 1.384.028a83 83 0 0 1 1.45-.149l1.608-.159c.302-.03.744-.095.984-.144l.435-.091.13.087c.38.255.486.44.431.76-.102.6-.112.93-.097 3.05.018 2.618.079 2.387-.645 2.444-.453.035-.63.164-.709.518-.038.169-.029 1.784.012 2.225.027.276-.19.434-.688.499-.49.063-.607.343-.503 1.19.023.185-.089.334-.378.503a.478.478 0 0 0-.111.735c.224.237.236.355.058.613-.185.268-.19.31-.191 1.95-.002 1.648-.023 1.918-.168 2.134-.21.312-1.24 1.26-1.482 1.365-.074.032-.701.05-2.38.066-1.255.013-2.325.035-2.378.05-.216.059-.415-.01-.608-.21-.27-.28-.24-.276-2.088-.257-1.817.019-1.798.021-1.841-.238a2 2 0 0 0-.197-.643c-.225-.49-.423-.585-1.05-.506-.4.05-.49.158-.588.708-.122.69-.25.833-.616.695-.24-.09-.277-.092-1.224-.06a1.4 1.4 0 0 1-.236-.02.6.6 0 0 0-.265.023 1.8 1.8 0 0 1-.4.054c-.653.02-.762.053-.911.28-.33.501-.608 3.302-.46 4.637.166 1.521.377 2.242.691 2.373.433.178 2.3.261 2.789.123l.253-.072.114.081c.148.105.228.293.299.704.085.493.172.603.535.671.247.047.582.029.733-.04.318-.144.495-1.133.303-1.688-.11-.317-.028-.393.117-.107.203.401.411.441 2.29.441 1.7 0 1.577.03 1.815-.438.192-.377.279-.446.547-.436.11.004.996.02 1.968.037 1.94.033 1.756.012 2.37.282 1.605.707 3.364 1.105 5.568 1.261 1.212.086 2.879.05 3.924-.086 1.88-.244 3.12-.557 4.402-1.112.934-.405 1.349-.19 1.54.798.15.772.115.886-.338 1.07-.638.258-1.033.525-1.127.76-.069.169-.037.355.146.862.05.136.094.335.1.441.016.303.047.428.155.62.055.097.11.255.122.352.03.224.115.49.216.669.048.085.088.233.102.375.063.665.35.858 1.435.966.127.013.268.029.314.036 2.203.337 5.247-.583 7.436-2.248 1.02-.776 1.277-1.144 1.077-1.544a.8.8 0 0 1-.059-.305c0-.204-.102-.52-.215-.663a.55.55 0 0 1-.087-.247 1.7 1.7 0 0 0-.212-.598.4.4 0 0 1-.051-.189c0-.13-.087-.37-.185-.512a1.2 1.2 0 0 1-.117-.266c-.145-.486-.968-.78-1.802-.643-.715.117-.764.091-.97-.515-.657-1.928-1.552-3.35-2.587-4.115-.394-.29-.54-.357-2.012-.917-1.442-.549-1.807-.702-2.468-1.038a15 15 0 0 1-.972-.528c-2.136-1.375-1.906-1.015-1.984-3.1-.052-1.402-.063-1.457-.338-1.678-.223-.179-.255-.261-.194-.494.107-.398.051-.575-.245-.776-.232-.158-.264-.225-.228-.48.121-.86-.017-1.17-.55-1.227-.324-.035-.459-.078-.55-.176l-.084-.088-.003-1.261c-.004-1.675.008-1.65-.763-1.687-.55-.027-.678-.058-.793-.195l-.09-.108-.001-2.37c0-1.376-.015-2.5-.036-2.682-.043-.368-.037-.38.29-.688.251-.235.41-.33.507-.304.568.154.476.147 3.588.284 2.388.105 2.368.107 2.563-.283.256-.511.083-1.893-.254-2.036-.116-.048-.572-.046-1 .005-.318.038-.401.047-1.945.216-1.918.21-1.956.216-2.427.298-.462.08-.49.071-.754-.248-.566-.683-1.408-.966-2.16-.727" clip-rule="evenodd"/><g opacity=".7"><mask id="f" width="28" height="28" x="26.144" y="22.143" fill="#000" maskUnits="userSpaceOnUse"><path fill="#fff" d="M26.144 22.143h28v28h-28z"/><path fill-rule="evenodd" d="M31.958 25.352a.714.714 0 0 0-1.01 0l-1.594 1.596a.715.715 0 0 0 0 1.01l8.613 8.615-8.614 8.612a.714.714 0 0 0 0 1.01l1.595 1.595a.714.714 0 0 0 1.01 0l8.613-8.611 8.61 8.612a.714.714 0 0 0 1.01 0l1.595-1.595a.714.714 0 0 0 0-1.01l-8.61-8.612 8.614-8.612a.714.714 0 0 0 0-1.01l-1.595-1.595a.714.714 0 0 0-1.01 0l-8.613 8.611z" clip-rule="evenodd"/></mask><path fill="url(#e)" fill-rule="evenodd" d="M31.958 25.352a.714.714 0 0 0-1.01 0l-1.594 1.596a.715.715 0 0 0 0 1.01l8.613 8.615-8.614 8.612a.714.714 0 0 0 0 1.01l1.595 1.595a.714.714 0 0 0 1.01 0l8.613-8.611 8.61 8.612a.714.714 0 0 0 1.01 0l1.595-1.595a.714.714 0 0 0 0-1.01l-8.61-8.612 8.614-8.612a.714.714 0 0 0 0-1.01l-1.595-1.595a.714.714 0 0 0-1.01 0l-8.613 8.611z" clip-rule="evenodd"/><path fill="#000" d="m30.948 25.352 1.516 1.515zm1.01 0-1.515 1.515zm-2.604 1.596-1.516-1.515zm0 1.01 1.515-1.515zm8.613 8.615 1.515 1.516 1.515-1.515-1.515-1.516zm-8.614 8.612-1.515-1.515zm0 1.01-1.515 1.516zm1.595 1.595 1.515-1.515zm1.01 0 1.515 1.516zm8.613-8.611 1.516-1.516-1.515-1.515-1.516 1.515zm8.61 8.612 1.516-1.515zm1.01 0-1.515-1.515zm1.595-1.595L50.27 44.68zm0-1.01L50.27 46.7zm-8.61-8.612-1.514-1.516-1.516 1.515 1.515 1.516zm8.614-8.612 1.515 1.515zm0-1.01 1.515-1.516zm-1.595-1.595 1.515-1.515zm-1.01 0-1.515-1.515zm-8.613 8.611-1.516 1.515L40.573 37l1.515-1.515zm-8.108-7.1a1.43 1.43 0 0 1-2.021 0l3.03-3.03a2.857 2.857 0 0 0-4.04 0zm-1.595 1.595 1.595-1.596-3.031-3.03-1.595 1.596zm0-2.02a1.43 1.43 0 0 1 0 2.02l-3.03-3.03a2.857 2.857 0 0 0 0 4.04zm8.613 8.615-8.613-8.615-3.03 3.03 8.612 8.615zm-8.614 11.643 8.614-8.612-3.03-3.031-8.614 8.612zm0-2.02a1.43 1.43 0 0 1 0 2.02l-3.03-3.031a2.857 2.857 0 0 0 0 4.04zm1.595 1.594-1.595-1.595-3.03 3.03 1.595 1.596zm-2.02 0a1.43 1.43 0 0 1 2.02 0l-3.03 3.03a2.857 2.857 0 0 0 4.04 0zm8.613-8.612-8.613 8.612 3.03 3.03 8.614-8.611zm11.64 8.613-8.61-8.613-3.03 3.03 8.61 8.613zm-2.02 0a1.43 1.43 0 0 1 2.02 0l-3.03 3.03a2.857 2.857 0 0 0 4.04 0zm1.594-1.596-1.594 1.596 3.03 3.03 1.595-1.595zm0 2.02a1.43 1.43 0 0 1 0-2.02l3.031 3.03a2.857 2.857 0 0 0 0-4.04zm-8.609-8.611 8.61 8.611 3.03-3.03-8.609-8.611zm8.614-11.643-8.613 8.612 3.03 3.031 8.613-8.612zm0 2.02a1.43 1.43 0 0 1 0-2.02l3.03 3.031a2.857 2.857 0 0 0 0-4.04zm-1.595-1.594 1.595 1.595 3.03-3.03-1.595-1.596zm2.02 0a1.43 1.43 0 0 1-2.02 0l3.03-3.03a2.857 2.857 0 0 0-4.04 0zm-8.613 8.612 8.613-8.612-3.03-3.03-8.613 8.61zm-11.644-8.617 8.613 8.616 3.031-3.03-8.613-8.616z" mask="url(#f)"/></g></g><g filter="url(#g)"><path fill="#e7cdcd" d="M63.557 24.5 60.33 12.864h1.846l2.267 9.011h.108l2.358-9.011h1.83l2.358 9.017h.108l2.26-9.017h1.853L72.085 24.5h-1.767l-2.449-8.716h-.09l-2.45 8.716zm16.042.176q-1.227 0-2.142-.562a3.8 3.8 0 0 1-1.42-1.574q-.506-1.011-.506-2.364 0-1.358.506-2.375a3.8 3.8 0 0 1 1.42-1.58q.915-.561 2.142-.562 1.228 0 2.142.563.916.562 1.42 1.58.507 1.016.507 2.374 0 1.353-.506 2.364a3.8 3.8 0 0 1-1.42 1.574q-.915.562-2.143.562m.006-1.426q.796 0 1.318-.42.523-.42.773-1.12.256-.699.256-1.54 0-.835-.256-1.534a2.5 2.5 0 0 0-.773-1.13q-.522-.426-1.318-.427-.8 0-1.33.427a2.54 2.54 0 0 0-.778 1.13q-.25.7-.25 1.535 0 .84.25 1.54.255.697.779 1.119.528.42 1.33.42m7.658-3.932V24.5h-1.7v-8.727h1.632v1.42h.108q.3-.693.943-1.114.647-.42 1.63-.42.892 0 1.563.375.67.37 1.04 1.102.369.733.369 1.813V24.5H91.15v-5.347q0-.948-.494-1.482-.494-.54-1.358-.54-.592 0-1.051.255-.455.255-.722.75-.261.489-.261 1.182m9.324-6.454v1.09q0 .483-.182 1.018a4.3 4.3 0 0 1-.5 1.017q-.324.488-.761.84l-.842-.602q.336-.488.58-1.04.25-.55.25-1.215v-1.108zm6.051 2.909v1.363h-4.767v-1.363zm-3.489-2.091h1.699v8.256q0 .493.148.744a.77.77 0 0 0 .38.335q.239.085.517.085.205 0 .358-.028l.239-.046.307 1.404a3 3 0 0 1-.421.114 3.3 3.3 0 0 1-.681.068 3 3 0 0 1-1.25-.239 2.14 2.14 0 0 1-.938-.773q-.358-.523-.358-1.312zm16.142 4.221-1.54.273a1.8 1.8 0 0 0-.306-.562 1.5 1.5 0 0 0-.557-.438q-.353-.17-.881-.17-.721 0-1.204.323-.483.319-.483.824a.87.87 0 0 0 .323.705q.324.267 1.046.438l1.386.318q1.205.277 1.796.858.591.58.591 1.505 0 .785-.455 1.398-.449.608-1.256.954-.8.348-1.858.347-1.465 0-2.392-.625-.926-.63-1.136-1.79l1.642-.25q.154.642.631.972.477.324 1.244.324.835 0 1.335-.347.5-.352.5-.858a.89.89 0 0 0-.307-.687q-.3-.279-.926-.42l-1.477-.325q-1.221-.277-1.807-.886-.579-.607-.579-1.54a2.2 2.2 0 0 1 .432-1.352q.43-.579 1.193-.903.761-.33 1.744-.33 1.415 0 2.227.614.813.608 1.074 1.63m7.567 2.978v-5.108h1.704V24.5h-1.67v-1.511h-.091a2.73 2.73 0 0 1-.966 1.164q-.659.46-1.642.46-.84 0-1.488-.369-.643-.375-1.012-1.108-.363-.732-.363-1.812v-5.551h1.698v5.346q0 .893.495 1.42.494.53 1.284.53.477 0 .949-.24.477-.239.789-.721.32-.483.313-1.227m3.987 6.892v-12h1.659v1.415h.142q.149-.273.426-.631.28-.358.773-.625.494-.273 1.307-.273 1.057 0 1.886.534.83.535 1.301 1.54.478 1.005.478 2.42t-.472 2.427q-.471 1.005-1.295 1.55-.824.54-1.881.54-.795 0-1.301-.267a2.5 2.5 0 0 1-.784-.625 5 5 0 0 1-.438-.636h-.102v4.63zm1.665-7.637q0 .921.267 1.614t.773 1.085q.506.387 1.238.387.762 0 1.273-.404.512-.41.773-1.108.267-.699.267-1.574 0-.863-.262-1.55-.255-.689-.772-1.086-.511-.398-1.279-.398-.738 0-1.25.381-.505.38-.767 1.063-.261.681-.261 1.59m8.21 7.637v-12h1.659v1.415h.142q.149-.273.426-.631.28-.358.773-.625.494-.273 1.307-.273 1.057 0 1.886.534.83.535 1.301 1.54.478 1.005.478 2.42t-.472 2.427q-.471 1.005-1.295 1.55-.824.54-1.881.54-.795 0-1.301-.267a2.5 2.5 0 0 1-.784-.625 5 5 0 0 1-.438-.636h-.102v4.63zm1.665-7.637q0 .921.267 1.614t.773 1.085q.506.387 1.238.387.762 0 1.273-.404.512-.41.773-1.108.267-.699.267-1.574 0-.863-.262-1.55-.255-.689-.772-1.086-.511-.398-1.279-.398-.738 0-1.25.381-.505.38-.767 1.063-.261.681-.261 1.59m11.886 4.54q-1.227 0-2.142-.562a3.8 3.8 0 0 1-1.42-1.574q-.506-1.011-.506-2.364 0-1.358.506-2.375a3.8 3.8 0 0 1 1.42-1.58q.915-.561 2.142-.562 1.227 0 2.142.563t1.421 1.58q.505 1.016.505 2.374 0 1.353-.505 2.364a3.8 3.8 0 0 1-1.421 1.574q-.915.562-2.142.562m.006-1.426q.796 0 1.318-.42.523-.42.773-1.12.255-.699.256-1.54 0-.835-.256-1.534a2.5 2.5 0 0 0-.773-1.13q-.523-.426-1.318-.427-.8 0-1.33.427a2.54 2.54 0 0 0-.778 1.13q-.25.7-.25 1.535 0 .84.25 1.54.255.697.778 1.119.53.42 1.33.42m5.959 1.25v-8.727h1.642v1.386h.091q.238-.705.841-1.108.607-.41 1.375-.409a7 7 0 0 1 .721.04v1.625a3 3 0 0 0-.363-.063 3.5 3.5 0 0 0-.523-.04q-.603 0-1.074.256a1.9 1.9 0 0 0-1.011 1.71v5.33zm10.73-8.727v1.363H162.2v-1.363zm-3.489-2.091h1.699v8.256q0 .493.148.744a.77.77 0 0 0 .381.335q.238.085.517.085a2 2 0 0 0 .358-.028l.238-.046.307 1.404a3 3 0 0 1-.42.114q-.273.062-.682.068a3 3 0 0 1-1.25-.239 2.14 2.14 0 0 1-.938-.773q-.357-.523-.358-1.312z"/><path fill="url(#h)" d="M67.619 34.843q-.06-.665-.538-1.032-.47-.375-1.346-.375-.579 0-.966.151-.385.151-.58.417a1 1 0 0 0-.199.598.9.9 0 0 0 .11.489q.126.21.361.374.242.157.58.277.338.122.76.212l1.063.241a7.5 7.5 0 0 1 1.618.532q.706.331 1.183.79.484.459.73 1.057.248.597.254 1.34-.006 1.17-.591 2.01t-1.685 1.286q-1.093.447-2.638.447-1.552 0-2.704-.465-1.154-.464-1.793-1.413-.64-.947-.658-2.396h2.861q.035.597.32.996t.779.604q.5.204 1.159.205.603 0 1.026-.163.429-.163.658-.453a1.07 1.07 0 0 0 .236-.664.92.92 0 0 0-.218-.598q-.21-.254-.652-.434-.435-.188-1.11-.344l-1.292-.302q-1.606-.369-2.53-1.19-.924-.825-.917-2.233-.007-1.148.615-2.01.622-.864 1.72-1.347 1.1-.483 2.506-.483 1.438 0 2.493.49 1.063.482 1.648 1.358.586.875.598 2.028zm4.54 12.134v-12.75h2.921v1.588h.09q.182-.422.514-.815.338-.393.857-.64.525-.254 1.256-.254.966 0 1.805.508.845.507 1.364 1.563t.52 2.693q0 1.575-.502 2.638-.494 1.063-1.34 1.594a3.4 3.4 0 0 1-1.865.53q-.7 0-1.214-.229a2.6 2.6 0 0 1-.863-.603 2.9 2.9 0 0 1-.531-.803h-.06v4.98zm2.891-8.113q0 .748.2 1.304.204.555.585.863.386.302.924.302.543 0 .923-.302.38-.308.574-.863.199-.555.199-1.304 0-.75-.2-1.298-.193-.55-.573-.852-.374-.3-.924-.301-.543 0-.923.295-.38.297-.586.846-.198.548-.199 1.31m7.982 4.636v-9.273h2.953V43.5zm1.48-10.353q-.622 0-1.07-.41a1.32 1.32 0 0 1-.446-1.003q0-.579.447-.99a1.5 1.5 0 0 1 1.068-.417q.628 0 1.069.417.447.411.447.99 0 .585-.447 1.002-.44.41-1.069.41m7.674 14.023q-1.322 0-2.264-.368-.941-.367-1.479-1.008a2.8 2.8 0 0 1-.646-1.449l2.795-.157q.079.284.29.495.218.212.561.326.351.115.821.115.743 0 1.226-.362.489-.356.489-1.25v-1.63h-.103a2.2 2.2 0 0 1-.531.767 2.5 2.5 0 0 1-.887.531q-.525.193-1.208.193a3.76 3.76 0 0 1-1.86-.47q-.838-.478-1.345-1.474-.502-1.002-.502-2.577 0-1.624.52-2.675.52-1.056 1.358-1.563a3.47 3.47 0 0 1 1.817-.508q.73 0 1.25.254.525.247.863.64.337.392.513.815h.085v-1.588h2.94v9.31q0 1.176-.592 1.985t-1.654 1.226q-1.062.422-2.457.422m.09-5.946q.538 0 .918-.284.38-.283.586-.815.204-.53.205-1.273 0-.755-.205-1.298-.2-.55-.586-.846a1.45 1.45 0 0 0-.918-.295q-.549 0-.93.302-.38.3-.579.85-.193.544-.193 1.287t.2 1.273q.198.532.573.815.38.284.93.284m10.823 2.451q-1.461 0-2.511-.598a4.1 4.1 0 0 1-1.612-1.678q-.561-1.08-.561-2.505 0-1.432.56-2.505.569-1.08 1.613-1.679 1.05-.603 2.511-.604 1.461 0 2.505.604a4 4 0 0 1 1.612 1.678q.568 1.075.568 2.506 0 1.425-.568 2.505a4.07 4.07 0 0 1-1.612 1.678q-1.044.598-2.505.598m.018-2.228q.531 0 .9-.326.368-.326.561-.905.2-.58.199-1.34 0-.773-.199-1.353-.194-.58-.561-.905a1.3 1.3 0 0 0-.9-.326q-.55 0-.929.326-.375.327-.574.905-.193.58-.193 1.353 0 .76.193 1.34.2.58.574.905.38.327.929.326m11.413-7.22V36.4h-5.85v-2.174zm-4.624-2.221h2.952v8.578q0 .272.084.44a.53.53 0 0 0 .26.236q.169.067.404.067.17 0 .357-.03.192-.038.289-.06l.447 2.13q-.211.06-.598.151-.38.09-.911.115-1.038.048-1.781-.242a2.3 2.3 0 0 1-1.129-.917q-.386-.622-.374-1.564z"/></g></g><rect width="177.9" height="53.9" x="1.05" y="1.05" stroke="#fff" stroke-opacity=".15" stroke-width="2.1" rx="6.95"/><defs><linearGradient id="b" x1="90" x2="90" y1="0" y2="56" gradientUnits="userSpaceOnUse"><stop stop-color="#2c1b1b"/><stop offset="1" stop-color="#1f1414"/></linearGradient><linearGradient id="d" x1="32" x2="32" y1="10.857" y2="45.143" gradientUnits="userSpaceOnUse"><stop stop-color="#cea260"/><stop offset="1" stop-color="#81562e"/></linearGradient><linearGradient id="e" x1="40.572" x2="40.572" y1="25.143" y2="48" gradientUnits="userSpaceOnUse"><stop stop-color="red"/><stop offset="1" stop-color="#c00"/></linearGradient><linearGradient id="h" x1="88" x2="88" y1="28.5" y2="46.5" gradientUnits="userSpaceOnUse"><stop stop-color="#e9c48d"/><stop offset="1" stop-color="#a2825d"/></linearGradient><filter id="c" width="53.571" height="53.571" x="6.286" y="2.286" color-interpolation-filters="sRGB" filterUnits="userSpaceOnUse"><feFlood flood-opacity="0" result="BackgroundImageFix"/><feColorMatrix in="SourceAlpha" result="hardAlpha" values="0 0 0 0 0 0 0 0 0 0 0 0 0 0 0 0 0 0 127 0"/><feOffset/><feGaussianBlur stdDeviation="2.857"/><feComposite in2="hardAlpha" operator="out"/><feColorMatrix values="0 0 0 0 0 0 0 0 0 0 0 0 0 0 0 0 0 0 0.25 0"/><feBlend in2="BackgroundImageFix" result="effect1_dropShadow_28_1136"/><feBlend in="SourceGraphic" in2="effect1_dropShadow_28_1136" result="shape"/></filter><filter id="g" width="119.2" height="48.87" x="54.4" y="3.9" color-interpolation-filters="sRGB" filterUnits="userSpaceOnUse"><feFlood flood-opacity="0" result="BackgroundImageFix"/><feColorMatrix in="SourceAlpha" result="hardAlpha" values="0 0 0 0 0 0 0 0 0 0 0 0 0 0 0 0 0 0 127 0"/><feOffset/><feGaussianBlur stdDeviation="2.8"/><feComposite in2="hardAlpha" operator="out"/><feColorMatrix values="0 0 0 0 0 0 0 0 0 0 0 0 0 0 0 0 0 0 0.25 0"/><feBlend in2="BackgroundImageFix" result="effect1_dropShadow_28_1136"/><feBlend in="SourceGraphic" in2="effect1_dropShadow_28_1136" result="shape"/></filter><clipPath id="a"><rect width="180" height="56" fill="#fff" rx="8"/></clipPath></defs></svg>