<svg xmlns="http://www.w3.org/2000/svg" width="180" height="56" fill="none" viewBox="0 0 180 56"><g clip-path="url(#a)"><rect width="180" height="56" fill="url(#b)" rx="8"/><g filter="url(#c)"><g fill="#f7cf0d" clip-path="url(#d)"><path d="M50 8H14c-1.1 0-2 .9-2 2v36c0 1.1.9 2 2 2h3.22c-.34-9.14-.02-10.5.62-11.4.78-1.12 1.1-1.26 2.28-2.2 1-.8.64-2.1-.08-3.04-.44-.58-1.06-1.26-1.54-1.92-.3-.44.44-3.02.72-3.96s.76-4 4.96-4.82c1.58-.32 5.92-.54 8.9-.36-.02-.12-.06-.26-.08-.4-.06-.24-.1-.5-.16-.78-.06-.26-.12-.54-.18-.82s-.14-.56-.2-.86c-.08-.3-.14-.58-.24-.88q-.24-.9-.6-1.74c-.12-.28-.24-.54-.38-.78-.14-.22-.28-.42-.4-.5-.02-.02-.04-.04-.06-.04h-.02.04s.02 0 0 0l-.06-.02h-.04l-.08-.02h-.1a6 6 0 0 0-.84 0c-.58.04-1.2.16-1.8.3s-1.18.32-1.74.48c-.24.08-.46.16-.68.22.02.18.04.34.04.52 0 2.6-2.1 4.7-4.7 4.7s-4.68-2.1-4.68-4.7 2.1-4.7 4.7-4.7c1.74 0 3.26.94 4.08 2.36.2-.08.42-.16.64-.24.56-.22 1.18-.44 1.82-.64.66-.2 1.34-.4 2.1-.5.38-.06.78-.08 1.22-.06h.16c.06 0 .12.02.16.02h.14l.06.02h.02l.06.02s.04 0 .06.02l.08.02c.12.04.18.06.26.1s.14.06.22.1c.14.08.26.16.38.24q.33.27.54.54c.16.18.28.36.4.54.24.36.42.7.58 1.04.32.68.58 1.36.78 2l.3.96c.1.32.16.62.24.92.04.14.08.3.1.44.04.14.06.28.1.42.06.28.12.56.18.82.08.4.14.78.2 1.12 4.48.44 7.9 1.02 9.44 2.56 2.26 2.2 4 12.2 2.86 24.9h2c1.1 0 2-.9 2-2V10c0-1.1-.9-2-2-2"/><path d="M30.28 36.16c-.26.72-.48 9.14 2 9.14s2.5-8.64 2.42-9.14c-.08-.48-4.16-.7-4.42 0M27 28c-1.7-.24-2.72 8.04-.34 8.52 2.24.44 2.02-8.28.34-8.52m11.16 0c-1.7-.24-2.72 8.04-.34 8.52 2.24.44 2.04-8.28.34-8.52"/></g><g opacity=".7"><mask id="f" width="28" height="28" x="26.144" y="22.143" fill="#000" maskUnits="userSpaceOnUse"><path fill="#fff" d="M26.144 22.143h28v28h-28z"/><path fill-rule="evenodd" d="M31.958 25.352a.714.714 0 0 0-1.01 0l-1.594 1.596a.715.715 0 0 0 0 1.01l8.613 8.615-8.614 8.612a.714.714 0 0 0 0 1.01l1.595 1.595a.714.714 0 0 0 1.01 0l8.613-8.611 8.61 8.612a.714.714 0 0 0 1.01 0l1.595-1.595a.714.714 0 0 0 0-1.01l-8.61-8.612 8.614-8.612a.714.714 0 0 0 0-1.01l-1.595-1.595a.714.714 0 0 0-1.01 0l-8.613 8.611z" clip-rule="evenodd"/></mask><path fill="url(#e)" fill-rule="evenodd" d="M31.958 25.352a.714.714 0 0 0-1.01 0l-1.594 1.596a.715.715 0 0 0 0 1.01l8.613 8.615-8.614 8.612a.714.714 0 0 0 0 1.01l1.595 1.595a.714.714 0 0 0 1.01 0l8.613-8.611 8.61 8.612a.714.714 0 0 0 1.01 0l1.595-1.595a.714.714 0 0 0 0-1.01l-8.61-8.612 8.614-8.612a.714.714 0 0 0 0-1.01l-1.595-1.595a.714.714 0 0 0-1.01 0l-8.613 8.611z" clip-rule="evenodd"/><path fill="#000" d="m30.948 25.352 1.516 1.515zm1.01 0-1.515 1.515zm-2.604 1.596-1.516-1.515zm0 1.01 1.515-1.515zm8.613 8.615 1.515 1.516 1.515-1.516-1.515-1.515zm-8.614 8.612-1.515-1.515zm0 1.01-1.515 1.516zm1.595 1.595 1.515-1.515zm1.01 0 1.515 1.516zm8.613-8.611 1.516-1.516-1.515-1.515-1.516 1.515zm8.61 8.612 1.516-1.515zm1.01 0-1.515-1.515zm1.595-1.595L50.27 44.68zm0-1.01L50.27 46.7zm-8.61-8.612-1.514-1.516-1.516 1.515 1.515 1.516zm8.614-8.612 1.515 1.515zm0-1.01 1.515-1.516zm-1.595-1.595 1.515-1.516zm-1.01 0L47.67 23.84zm-8.613 8.611-1.516 1.515L40.573 37l1.515-1.515zm-8.108-7.1a1.43 1.43 0 0 1-2.021 0l3.03-3.03a2.857 2.857 0 0 0-4.04 0zm-1.595 1.595 1.595-1.596-3.031-3.03-1.595 1.596zm0-2.02a1.43 1.43 0 0 1 0 2.02l-3.03-3.03a2.857 2.857 0 0 0 0 4.04zm8.613 8.615-8.613-8.615-3.03 3.03 8.612 8.615zm-8.614 11.643 8.614-8.612-3.03-3.031-8.614 8.612zm0-2.021a1.43 1.43 0 0 1 0 2.02l-3.03-3.03a2.857 2.857 0 0 0 0 4.04zm1.595 1.595-1.595-1.595-3.03 3.03 1.595 1.596zm-2.02 0a1.43 1.43 0 0 1 2.02 0l-3.03 3.03a2.857 2.857 0 0 0 4.04 0zm8.613-8.612-8.613 8.612 3.03 3.03 8.614-8.611zm11.64 8.613-8.61-8.613-3.03 3.03 8.61 8.613zm-2.02 0a1.43 1.43 0 0 1 2.02 0l-3.03 3.03a2.857 2.857 0 0 0 4.04 0zm1.594-1.596-1.594 1.596 3.03 3.03 1.595-1.595zm0 2.02a1.43 1.43 0 0 1 0-2.02l3.031 3.03a2.857 2.857 0 0 0 0-4.04zm-8.609-8.611 8.61 8.611 3.03-3.03-8.609-8.611zm8.614-11.643-8.613 8.612 3.03 3.031 8.613-8.612zm0 2.02a1.43 1.43 0 0 1 0-2.02l3.03 3.031a2.857 2.857 0 0 0 0-4.04zm-1.595-1.594 1.595 1.595 3.03-3.03-1.595-1.596zm2.02 0a1.43 1.43 0 0 1-2.02 0l3.03-3.03a2.857 2.857 0 0 0-4.04 0zm-8.613 8.612 8.613-8.612-3.03-3.03-8.613 8.61zm-11.644-8.617 8.613 8.616 3.031-3.03-8.613-8.616z" mask="url(#f)"/></g></g><g filter="url(#g)"><path fill="#e7cdcd" d="M63.557 24.5 60.33 12.864h1.846l2.267 9.011h.108l2.358-9.011h1.83l2.358 9.017h.108l2.26-9.017h1.853L72.085 24.5h-1.767l-2.449-8.716h-.09l-2.45 8.716zm16.042.176q-1.227 0-2.142-.562a3.8 3.8 0 0 1-1.42-1.574q-.506-1.011-.506-2.364 0-1.358.506-2.375a3.8 3.8 0 0 1 1.42-1.58q.915-.561 2.142-.562 1.228 0 2.142.563.916.562 1.42 1.58.507 1.016.507 2.374 0 1.353-.506 2.364a3.8 3.8 0 0 1-1.42 1.574q-.915.562-2.143.562m.006-1.426q.796 0 1.318-.42.523-.42.773-1.12.256-.699.256-1.54 0-.835-.256-1.534a2.5 2.5 0 0 0-.773-1.13q-.522-.426-1.318-.427-.8 0-1.33.427a2.54 2.54 0 0 0-.778 1.13q-.25.7-.25 1.535 0 .84.25 1.54.255.697.779 1.119.528.42 1.33.42m7.658-3.932V24.5h-1.7v-8.727h1.632v1.42h.108q.3-.693.943-1.114.647-.42 1.63-.42.892 0 1.563.375.67.37 1.04 1.102.369.733.369 1.813V24.5H91.15v-5.347q0-.948-.494-1.482-.494-.54-1.358-.54-.592 0-1.051.255-.455.255-.722.75-.261.489-.261 1.182m9.324-6.454v1.09q0 .483-.182 1.018a4.3 4.3 0 0 1-.5 1.017q-.324.488-.761.84l-.842-.602q.336-.488.58-1.04.25-.55.25-1.215v-1.108zm6.051 2.909v1.363h-4.767v-1.363zm-3.489-2.091h1.699v8.256q0 .493.148.744a.77.77 0 0 0 .38.335q.239.085.517.085.205 0 .358-.028l.239-.046.307 1.404a3 3 0 0 1-.421.114 3.3 3.3 0 0 1-.681.068 3 3 0 0 1-1.25-.239 2.14 2.14 0 0 1-.938-.773q-.358-.523-.358-1.312zm16.142 4.221-1.54.273a1.8 1.8 0 0 0-.306-.562 1.5 1.5 0 0 0-.557-.438q-.353-.17-.881-.17-.721 0-1.204.323-.483.319-.483.824a.87.87 0 0 0 .323.705q.324.267 1.046.438l1.386.318q1.205.277 1.796.858.591.58.591 1.505 0 .785-.455 1.398-.449.608-1.256.954-.8.348-1.858.347-1.465 0-2.392-.625-.926-.63-1.136-1.79l1.642-.25q.154.642.631.972.477.324 1.244.324.835 0 1.335-.347.5-.352.5-.858a.89.89 0 0 0-.307-.687q-.3-.279-.926-.42l-1.477-.325q-1.221-.277-1.807-.886-.579-.607-.579-1.54a2.2 2.2 0 0 1 .432-1.352q.43-.579 1.193-.903.761-.33 1.744-.33 1.415 0 2.227.614.813.608 1.074 1.63m7.567 2.978v-5.108h1.704V24.5h-1.67v-1.511h-.091a2.73 2.73 0 0 1-.966 1.164q-.659.46-1.642.46-.84 0-1.488-.369-.643-.375-1.012-1.108-.363-.732-.363-1.812v-5.551h1.698v5.346q0 .893.495 1.42.494.53 1.284.53.477 0 .949-.24.477-.239.789-.721.32-.483.313-1.227m3.987 6.892v-12h1.659v1.415h.142q.149-.273.426-.631.28-.358.773-.625.494-.273 1.307-.273 1.057 0 1.886.534.83.535 1.301 1.54.478 1.005.478 2.42t-.472 2.427q-.471 1.005-1.295 1.55-.824.54-1.881.54-.795 0-1.301-.267a2.5 2.5 0 0 1-.784-.625 5 5 0 0 1-.438-.636h-.102v4.63zm1.665-7.637q0 .921.267 1.614t.773 1.085q.506.387 1.238.387.762 0 1.273-.404.512-.41.773-1.108.267-.699.267-1.574 0-.863-.262-1.55-.255-.689-.772-1.086-.511-.398-1.279-.398-.738 0-1.25.381-.505.38-.767 1.063-.261.681-.261 1.59m8.21 7.637v-12h1.659v1.415h.142q.149-.273.426-.631.28-.358.773-.625.494-.273 1.307-.273 1.057 0 1.886.534.83.535 1.301 1.54.478 1.005.478 2.42t-.472 2.427q-.471 1.005-1.295 1.55-.824.54-1.881.54-.795 0-1.301-.267a2.5 2.5 0 0 1-.784-.625 5 5 0 0 1-.438-.636h-.102v4.63zm1.665-7.637q0 .921.267 1.614t.773 1.085q.506.387 1.238.387.762 0 1.273-.404.512-.41.773-1.108.267-.699.267-1.574 0-.863-.262-1.55-.255-.689-.772-1.086-.511-.398-1.279-.398-.738 0-1.25.381-.505.38-.767 1.063-.261.681-.261 1.59m11.886 4.54q-1.227 0-2.142-.562a3.8 3.8 0 0 1-1.42-1.574q-.506-1.011-.506-2.364 0-1.358.506-2.375a3.8 3.8 0 0 1 1.42-1.58q.915-.561 2.142-.562 1.227 0 2.142.563t1.421 1.58q.505 1.016.505 2.374 0 1.353-.505 2.364a3.8 3.8 0 0 1-1.421 1.574q-.915.562-2.142.562m.006-1.426q.796 0 1.318-.42.523-.42.773-1.12.255-.699.256-1.54 0-.835-.256-1.534a2.5 2.5 0 0 0-.773-1.13q-.523-.426-1.318-.427-.8 0-1.33.427a2.54 2.54 0 0 0-.778 1.13q-.25.7-.25 1.535 0 .84.25 1.54.255.697.778 1.119.53.42 1.33.42m5.959 1.25v-8.727h1.642v1.386h.091q.238-.705.841-1.108.607-.41 1.375-.409a7 7 0 0 1 .721.04v1.625a3 3 0 0 0-.363-.063 3.5 3.5 0 0 0-.523-.04q-.603 0-1.074.256a1.9 1.9 0 0 0-1.011 1.71v5.33zm10.73-8.727v1.363H162.2v-1.363zm-3.489-2.091h1.699v8.256q0 .493.148.744a.77.77 0 0 0 .381.335q.238.085.517.085a2 2 0 0 0 .358-.028l.238-.046.307 1.404a3 3 0 0 1-.42.114q-.273.062-.682.068a3 3 0 0 1-1.25-.239 2.14 2.14 0 0 1-.938-.773q-.357-.523-.358-1.312z"/><path fill="#f7cf0d" d="M67.619 34.843q-.06-.665-.538-1.032-.47-.375-1.346-.375-.579 0-.966.151-.385.151-.58.417a1 1 0 0 0-.199.598.9.9 0 0 0 .11.489q.126.21.361.374.242.157.58.277.338.122.76.212l1.063.241a7.5 7.5 0 0 1 1.618.532q.706.331 1.183.79.484.459.73 1.057.248.597.254 1.34-.006 1.17-.591 2.01t-1.685 1.286q-1.093.447-2.638.447-1.552 0-2.704-.465-1.154-.464-1.793-1.413-.64-.947-.658-2.396h2.861q.035.597.32.996t.779.604q.5.204 1.159.205.603 0 1.026-.163.429-.163.658-.453a1.07 1.07 0 0 0 .236-.664.92.92 0 0 0-.218-.598q-.21-.254-.652-.434-.435-.188-1.11-.344l-1.292-.302q-1.606-.369-2.53-1.19-.924-.825-.917-2.233-.007-1.148.615-2.01.622-.864 1.72-1.347 1.1-.483 2.506-.483 1.438 0 2.493.49 1.063.482 1.648 1.358.586.875.598 2.028zm4.54 12.134v-12.75h2.921v1.588h.09q.182-.422.514-.815.338-.393.857-.64.525-.254 1.256-.254.966 0 1.805.508.845.507 1.364 1.563t.52 2.693q0 1.575-.502 2.638-.494 1.063-1.34 1.594a3.4 3.4 0 0 1-1.865.53q-.7 0-1.214-.229a2.6 2.6 0 0 1-.863-.603 2.9 2.9 0 0 1-.531-.803h-.06v4.98zm2.891-8.113q0 .748.2 1.304.204.555.585.863.386.302.924.302.543 0 .923-.302.38-.308.574-.863.199-.555.199-1.304 0-.75-.2-1.298-.193-.55-.573-.852-.374-.3-.924-.301-.543 0-.923.295-.38.297-.586.846-.198.548-.199 1.31m12.31 4.811q-1.46 0-2.51-.598a4.1 4.1 0 0 1-1.612-1.678q-.562-1.08-.562-2.505 0-1.432.562-2.505.567-1.08 1.612-1.679 1.05-.603 2.51-.604 1.462 0 2.506.604 1.05.598 1.612 1.678.568 1.075.568 2.506 0 1.425-.568 2.505a4.07 4.07 0 0 1-1.612 1.678q-1.044.598-2.505.598m.019-2.228q.531 0 .9-.326.368-.326.56-.905.2-.58.2-1.34 0-.773-.2-1.353-.192-.58-.56-.905a1.3 1.3 0 0 0-.9-.326 1.38 1.38 0 0 0-.93.326q-.374.327-.573.905-.193.58-.193 1.353 0 .76.193 1.34.2.58.573.905.381.327.93.326m9.13-3.235V43.5h-2.951v-9.273h2.807v1.703h.103a2.6 2.6 0 0 1 1.05-1.334q.743-.49 1.769-.49.978 0 1.696.441.724.435 1.123 1.22.405.779.399 1.823v5.91h-2.953v-5.33q.006-.773-.392-1.208-.392-.435-1.093-.435-.465 0-.82.206a1.36 1.36 0 0 0-.544.573q-.188.375-.193.906m12.146 8.958q-1.323 0-2.264-.368-.942-.367-1.479-1.008a2.8 2.8 0 0 1-.646-1.449l2.795-.157q.078.284.29.495.218.212.561.326.35.115.821.115.743 0 1.226-.362.489-.356.489-1.25v-1.63h-.103a2.2 2.2 0 0 1-.531.767 2.5 2.5 0 0 1-.888.531q-.525.193-1.207.193a3.75 3.75 0 0 1-1.859-.47q-.84-.478-1.347-1.474-.501-1.002-.501-2.577 0-1.624.519-2.675.52-1.056 1.359-1.563a3.47 3.47 0 0 1 1.817-.508q.73 0 1.249.254.526.247.864.64.338.392.513.815h.084v-1.588h2.94v9.31q0 1.176-.591 1.985-.592.81-1.654 1.226-1.064.422-2.457.422m.09-5.946q.537 0 .918-.284.38-.283.585-.815.206-.53.206-1.273 0-.755-.206-1.298-.199-.55-.585-.846a1.45 1.45 0 0 0-.918-.295q-.55 0-.929.302-.38.3-.58.85-.193.544-.193 1.287t.199 1.273q.2.532.574.815.38.284.929.284m10.829 2.451q-1.455 0-2.511-.573a3.96 3.96 0 0 1-1.618-1.648q-.562-1.075-.562-2.554 0-1.437.568-2.511.567-1.08 1.599-1.679 1.033-.603 2.433-.604.99 0 1.811.308.822.309 1.419.912.598.604.93 1.491.332.882.332 2.023v.736h-8.059v-1.715h5.312a1.66 1.66 0 0 0-.223-.839 1.5 1.5 0 0 0-.598-.573 1.7 1.7 0 0 0-.863-.211q-.495 0-.888.223a1.68 1.68 0 0 0-.863 1.449v1.745q0 .567.223.996.224.421.634.658.411.235.978.235.392 0 .713-.109.32-.108.549-.32.23-.21.344-.519l2.711.079a3.36 3.36 0 0 1-.743 1.587q-.567.67-1.491 1.045-.924.368-2.137.368"/></g></g><rect width="177.9" height="53.9" x="1.05" y="1.05" stroke="#fff" stroke-opacity=".15" stroke-width="2.1" rx="6.95"/><defs><linearGradient id="b" x1="90" x2="90" y1="0" y2="56" gradientUnits="userSpaceOnUse"><stop stop-color="#2c1b1b"/><stop offset="1" stop-color="#1f1414"/></linearGradient><linearGradient id="e" x1="40.572" x2="40.572" y1="25.143" y2="48" gradientUnits="userSpaceOnUse"><stop stop-color="red"/><stop offset="1" stop-color="#c00"/></linearGradient><clipPath id="a"><rect width="180" height="56" fill="#fff" rx="8"/></clipPath><clipPath id="d"><path fill="#fff" d="M12 8h40v40H12z"/></clipPath><filter id="c" width="53.571" height="53.571" x="6.286" y="2.286" color-interpolation-filters="sRGB" filterUnits="userSpaceOnUse"><feFlood flood-opacity="0" result="BackgroundImageFix"/><feColorMatrix in="SourceAlpha" result="hardAlpha" values="0 0 0 0 0 0 0 0 0 0 0 0 0 0 0 0 0 0 127 0"/><feOffset/><feGaussianBlur stdDeviation="2.857"/><feComposite in2="hardAlpha" operator="out"/><feColorMatrix values="0 0 0 0 0 0 0 0 0 0 0 0 0 0 0 0 0 0 0.25 0"/><feBlend in2="BackgroundImageFix" result="effect1_dropShadow_28_1167"/><feBlend in="SourceGraphic" in2="effect1_dropShadow_28_1167" result="shape"/></filter><filter id="g" width="119.2" height="48.87" x="54.4" y="3.9" color-interpolation-filters="sRGB" filterUnits="userSpaceOnUse"><feFlood flood-opacity="0" result="BackgroundImageFix"/><feColorMatrix in="SourceAlpha" result="hardAlpha" values="0 0 0 0 0 0 0 0 0 0 0 0 0 0 0 0 0 0 127 0"/><feOffset/><feGaussianBlur stdDeviation="2.8"/><feComposite in2="hardAlpha" operator="out"/><feColorMatrix values="0 0 0 0 0 0 0 0 0 0 0 0 0 0 0 0 0 0 0.25 0"/><feBlend in2="BackgroundImageFix" result="effect1_dropShadow_28_1167"/><feBlend in="SourceGraphic" in2="effect1_dropShadow_28_1167" result="shape"/></filter></defs></svg>