<svg xmlns="http://www.w3.org/2000/svg" width="40" height="40" fill="none" viewBox="0 0 40 40"><g clip-path="url(#a)"><rect width="40" height="40" fill="url(#b)" rx="8"/><g fill="#0c9ef0" filter="url(#c)"><path d="M30.518 18.74a.7.7 0 0 0-.632.325c-.251-.159-.934-.492-1.2-.628l-.096-.049a.06.06 0 0 0-.048 0v-.016a.4.4 0 0 0 0-.059c.268-5.523-5.31-9.815-10.712-8.153a8.5 8.5 0 0 0-3.426 2.09 8.5 8.5 0 0 0-2.083 3.436 9.8 9.8 0 0 0-.348 2.466l-.204.08-.147.062a16 16 0 0 0-.803.381c-.268.137-.536.269-.78.438a.084.084 0 0 0-.032.105.086.086 0 0 0 .11.04q.402-.184.803-.336c.268-.102.55-.193.828-.268h.016q.2-.059.404-.11l.21-.048h.023l.188-.04c.281-.062.565-.1.849-.135h.032a.293.293 0 1 0-.137-.566 9 9 0 0 0-.779.217l.05-.016a9 9 0 0 1 .32-2.198 7.85 7.85 0 0 1 1.925-3.17 7.8 7.8 0 0 1 3.163-1.93q.321-.096.65-.168c.212-.046 1.059-.167.135.351a7.07 7.07 0 0 0-3.214 4.01c-.268.867-.372 2.576-.185 3.889.059.41-.08.491-.335.598-.535.229-1.473.642-1.955 1.227-.187.225-.267 0-.313-.161a8 8 0 0 1-.171-1.342.132.132 0 0 0-.164-.12c-.13.031-.268.064-.39.107a.13.13 0 0 0-.09.128c.076 1.726.512 3.331 1.557 3.28a.14.14 0 0 0 .126-.17.8.8 0 0 1-.362-.402c-.345-1.036 2.858-2.391 6.963-3.006 3.77-.566 7.009-.308 7.571.553.116.148.13.352.032.513a2.55 2.55 0 0 1-1.02 1.006.156.156 0 0 0-.048.22.15.15 0 0 0 .198.054 3 3 0 0 0 1.259-1.17c.166-.38.257-.788.267-1.202.268.083.975.367 1.246.477h.021a1 1 0 0 0-.021.137.78.78 0 0 0 .701.805.703.703 0 0 0 .737-.679.774.774 0 0 0-.689-.818zm-5.28-1.745a.37.37 0 0 1-.237.358.4.4 0 0 1-.15.023 14.3 14.3 0 0 0-2.704.049.367.367 0 0 1-.396-.379v-.316a.17.17 0 0 1 .133-.167 10.5 10.5 0 0 1 3.214-.037.16.16 0 0 1 .134.163zm1.89-.899a.14.14 0 0 1-.169.054c-2.335-.888-5.98-.386-5.98-.386-1.25.124-2.48.407-3.658.842a.412.412 0 0 1-.56-.397q.015-.482.097-.958a4.9 4.9 0 0 1 1.01-2.37q.047-.056.098-.11a.1.1 0 0 1 .022-.027l.016-.018.04-.044.019-.018c1.588-1.664 4.381-1.855 6.341-.77a6.24 6.24 0 0 1 2.352 2.34c.085.16.626 1.414.372 1.862"/><path d="M25.886 14.014a4.06 4.06 0 0 0-1.926-1.691 5.9 5.9 0 0 0-2.852-.435 3.8 3.8 0 0 0-1.01.223.136.136 0 0 0-.053.233.14.14 0 0 0 .088.035 8.3 8.3 0 0 1 2.199.06c2.678.536 3.535 1.827 3.628 1.878.027.013.06-.013.046-.04a3 3 0 0 0-.118-.269M13.91 18.697a.268.268 0 0 0 .41.032q.136-.137.19-.322a1.5 1.5 0 0 0-.056-.942.9.9 0 0 0-.394-.453.14.14 0 0 0-.11-.02.52.52 0 0 0-.267.207.09.09 0 0 0 .024.132.8.8 0 0 1 .415.566.87.87 0 0 1-.212.685.09.09 0 0 0 0 .115m-5.008.392a.867.867 0 0 0-.937.805.93.93 0 0 0 .878.942.866.866 0 0 0 .927-.79.924.924 0 0 0-.868-.957"/><path d="M33.992 20.028c0-6.56-4.536-12.243-10.922-13.684S10.155 8.09 7.35 14.018a14.045 14.045 0 0 0 4.02 17.054l.268.212c.091.07.185.137.268.204a13.9 13.9 0 0 0 4.77 2.174h.04l.238.056.072.014.225.048.089.016.22.04.085.017q.218.034.434.064l.086.013.163.02.166.018.155.016.18.016h2.21l.152-.013.195-.016.161-.02.188-.02.163-.022.18-.027.165-.027.174-.027.17-.032.17-.032.17-.038.165-.035.169-.04.163-.04.207-.03.155-.043.174-.048.153-.045.171-.057q.076-.02.15-.048l.174-.06.145-.05.174-.064.139-.054.171-.067.134-.054.177-.075.131-.056.177-.081.126-.06.177-.085.12-.062.177-.088.118-.065q.092-.045.176-.094l.116-.064.176-.102.107-.064.18-.108.102-.064.18-.113.096-.064.179-.121.091-.062.182-.129.083-.061.185-.137.075-.057.187-.144.067-.057.19-.153.057-.05.195-.165.046-.04.2-.182.03-.024.212-.202A13.98 13.98 0 0 0 34 20.034m-9.74 4.69q-.027-.234-.062-.469c-.024-.155-.045-.311-.075-.464s-.053-.309-.083-.462a7 7 0 0 0-.104-.448.21.21 0 0 1 .14-.243.21.21 0 0 1 .256.117 11 11 0 0 1 .257.95c.067.32.12.636.172.955.064.42.107.84.142 1.26.268.013.554.031.83.058.748.077 1.486.233 2.201.464a.19.19 0 0 1-.09.368h-.014c-.36-.061-.707-.147-1.071-.188l-.268-.04-.134-.019h-.134l-.536-.05c-.09-.014-.182 0-.268-.02l-.267-.016h-.199v.137l.022.48v1.45c0 .322-.024.641-.035.96-.01.32-.045.642-.075.961a.21.21 0 0 1-.353.119.2.2 0 0 1-.062-.137c0-.317 0-.634.016-.95.016-.317 0-.636 0-.953s0-.634-.016-.948l-.016-.474v-.698h-.895c-.182 0-.364.016-.535.021a9 9 0 0 0-.536.035q-.546.038-1.09.1c-.725.083-1.454.187-2.163.327a.193.193 0 0 1-.226-.15.194.194 0 0 1 .137-.22c.367-.1.726-.178 1.093-.25s.73-.132 1.1-.188c.183-.03.37-.048.555-.073q.278-.035.554-.058c.185-.017.37-.035.557-.044s.372-.026.56-.029c.294-.013.589-.016.886 0a28 28 0 0 0-.117-1.175m-7.15-1.903a44 44 0 0 0-.644 2.359 68 68 0 0 0-1.095 7.412 13.2 13.2 0 0 1-3.372-1.84 30.4 30.4 0 0 1 1.031-4.773c.172-.566.407-1.11.702-1.623.236-.345.562-.618.943-.79l.07-.031.115-.065.147-.075q.151-.074.3-.14l.152-.067.15-.061.306-.119c.268-.099.723-.238 1.007-.322.147-.042.225 0 .187.135m11.927 3.757c-.418-1.56-.983-4.002-2.651-4.562-1.778-.607-3.69-.674-5.538-.556a17.5 17.5 0 0 0-3.88.695c-.56.164-2.355.854-2.711 1.036a2.45 2.45 0 0 0-1.01.845 8.4 8.4 0 0 0-.752 1.74 33 33 0 0 0-1.031 4.562 14 14 0 0 1-.91-.835c-5.199-5.207-5.222-13.645-.053-18.882s13.588-5.304 18.84-.151 5.365 13.59.25 18.88q-.187-1.403-.554-2.77"/></g></g><rect width="37.9" height="37.9" x="1.05" y="1.05" stroke="#fff" stroke-opacity=".15" stroke-width="2.1" rx="6.95"/><defs><linearGradient id="b" x1="20" x2="20" y1="0" y2="40" gradientUnits="userSpaceOnUse"><stop stop-color="#152531"/><stop offset="1" stop-color="#0c161c"/></linearGradient><clipPath id="a"><rect width="40" height="40" fill="#fff" rx="8"/></clipPath><filter id="c" width="39.429" height="39.429" x=".286" y=".286" color-interpolation-filters="sRGB" filterUnits="userSpaceOnUse"><feFlood flood-opacity="0" result="BackgroundImageFix"/><feColorMatrix in="SourceAlpha" result="hardAlpha" values="0 0 0 0 0 0 0 0 0 0 0 0 0 0 0 0 0 0 127 0"/><feOffset/><feGaussianBlur stdDeviation="2.857"/><feComposite in2="hardAlpha" operator="out"/><feColorMatrix values="0 0 0 0 0 0 0 0 0 0 0 0 0 0 0 0 0 0 0.25 0"/><feBlend in2="BackgroundImageFix" result="effect1_dropShadow_8_122"/><feBlend in="SourceGraphic" in2="effect1_dropShadow_8_122" result="shape"/></filter></defs></svg>