<svg xmlns="http://www.w3.org/2000/svg" width="40" height="40" fill="none" viewBox="0 0 40 40"><rect width="40" height="40" fill="url(#a)" rx="8"/><rect width="37.9" height="37.9" x="1.05" y="1.05" stroke="#fff" stroke-opacity=".15" stroke-width="2.1" rx="6.95"/><g filter="url(#b)"><path fill="#fff" d="M30.765 15.046c-.163.126-3.056 1.742-3.056 5.335 0 4.155 3.68 5.625 3.791 5.662-.017.09-.585 2.013-1.94 3.973-1.21 1.725-2.473 3.448-4.394 3.448s-2.416-1.106-4.634-1.106c-2.16 0-2.93 1.142-4.687 1.142s-2.983-1.596-4.393-3.556C9.82 27.642 8.5 24.066 8.5 20.672c0-5.444 3.571-8.33 7.086-8.33 1.867 0 3.424 1.214 4.596 1.214 1.116 0 2.857-1.288 4.981-1.288.805 0 3.698.073 5.602 2.778m-6.61-5.082c.878-1.034 1.5-2.467 1.5-3.901 0-.199-.017-.4-.054-.563-1.43.053-3.13.944-4.156 2.123-.805.907-1.557 2.34-1.557 3.794 0 .218.037.437.054.507.09.017.237.036.384.036 1.283 0 2.896-.851 3.828-1.996"/></g><defs><linearGradient id="a" x1="20" x2="20" y1="0" y2="40" gradientUnits="userSpaceOnUse"><stop stop-color="#1e1e1e"/><stop offset="1" stop-color="#0d0d0d"/></linearGradient><filter id="b" width="36" height="36.5" x="2" y="1.5" color-interpolation-filters="sRGB" filterUnits="userSpaceOnUse"><feFlood flood-opacity="0" result="BackgroundImageFix"/><feColorMatrix in="SourceAlpha" result="hardAlpha" values="0 0 0 0 0 0 0 0 0 0 0 0 0 0 0 0 0 0 127 0"/><feOffset/><feGaussianBlur stdDeviation="2"/><feComposite in2="hardAlpha" operator="out"/><feColorMatrix values="0 0 0 0 0 0 0 0 0 0 0 0 0 0 0 0 0 0 0.25 0"/><feBlend in2="BackgroundImageFix" result="effect1_dropShadow_2_1344"/><feBlend in="SourceGraphic" in2="effect1_dropShadow_2_1344" result="shape"/></filter></defs></svg>