<svg xmlns="http://www.w3.org/2000/svg" width="40" height="40" fill="none" viewBox="0 0 40 40"><rect width="40" height="40" fill="url(#a)" rx="8"/><rect width="37.9" height="37.9" x="1.05" y="1.05" stroke="#fff" stroke-opacity=".15" stroke-width="2.1" rx="6.95"/><g filter="url(#b)"><path fill="#2f87c2" d="M19.927 6.007c-.987.13-2.242 1.166-3.106 1.657-2.207 1.256-4.45 2.447-6.667 3.685-.732.41-1.47.812-2.197 1.232-.224.13-.683.33-.512.667.201.398 1.046.66 1.421.87 1.322.738 2.669 1.452 4.015 2.144.487.25 1.097.796 1.667.564 1.356-.552 2.678-1.516 3.94-2.262.406-.24 1.098-.844 1.59-.784.428.052.918.475 1.288.687.962.551 1.927 1.102 2.88 1.67.42.25 1.077.817 1.59.756.508-.061 1.063-.515 1.516-.745 1.275-.648 2.514-1.37 3.787-2.022.317-.162 1.568-.628 1.459-1.08-.066-.274-.483-.43-.701-.552l-2.045-1.145a849 849 0 0 0-7.198-3.981c-.66-.36-1.959-1.463-2.727-1.361M7.287 15.18c-.414.1-.239 1.199-.239 1.52v9.081c0 .464-.15 1.257.078 1.671.368.669 1.913 1.19 2.574 1.552 2.179 1.194 4.333 2.433 6.515 3.622q.986.536 1.97 1.081c.23.128.541.37.822.267.431-.16.238-1.335.238-1.706v-3.892c0-.506.143-1.275-.046-1.748-.168-.423-.873-.665-1.242-.879-1.041-.601-2.746-1.21-3.536-2.12-.291-.335-.176-.945-.176-1.358 0-.997.228-2.315-.024-3.278-.134-.51-1.002-.754-1.415-.985a127 127 0 0 0-4.016-2.165c-.356-.183-1.096-.762-1.504-.663m25.363-.008c-.478-.02-1.25.564-1.662.798-1.223.694-2.478 1.332-3.712 2.004-.423.23-1.355.503-1.491 1.02-.26.982-.024 2.335-.024 3.354 0 .368.108.958-.133 1.267-.253.326-.803.536-1.155.738q-1.214.697-2.425 1.396c-.375.217-1.055.451-1.231.879-.197.476-.057 1.239-.057 1.748v3.968c0 .37-.195 1.56.312 1.647.31.053.648-.218.9-.36.63-.354 1.265-.695 1.894-1.047 2.144-1.198 4.287-2.4 6.44-3.58.678-.371 2.152-.852 2.574-1.508.194-.3.078-.911.078-1.257v-9.233c0-.36.209-1.814-.308-1.834"/></g><defs><linearGradient id="a" x1="20" x2="20" y1="0" y2="40" gradientUnits="userSpaceOnUse"><stop stop-color="#09202f"/><stop offset="1" stop-color="#05111a"/></linearGradient><filter id="b" width="36" height="36" x="2" y="2" color-interpolation-filters="sRGB" filterUnits="userSpaceOnUse"><feFlood flood-opacity="0" result="BackgroundImageFix"/><feColorMatrix in="SourceAlpha" result="hardAlpha" values="0 0 0 0 0 0 0 0 0 0 0 0 0 0 0 0 0 0 127 0"/><feOffset/><feGaussianBlur stdDeviation="2"/><feComposite in2="hardAlpha" operator="out"/><feColorMatrix values="0 0 0 0 0 0 0 0 0 0 0 0 0 0 0 0 0 0 0.25 0"/><feBlend in2="BackgroundImageFix" result="effect1_dropShadow_2_1590"/><feBlend in="SourceGraphic" in2="effect1_dropShadow_2_1590" result="shape"/></filter></defs></svg>