<svg xmlns="http://www.w3.org/2000/svg" width="40" height="40" fill="none" viewBox="0 0 40 40"><rect width="40" height="40" fill="url(#a)" rx="8"/><rect width="37.9" height="37.9" x="1.05" y="1.05" stroke="#fff" stroke-opacity=".15" stroke-width="2.1" rx="6.95"/><g filter="url(#b)"><ellipse cx="20.001" cy="20.007" fill="#fff" rx="13.999" ry="13.993"/><path fill="url(#c)" d="M20.279 12.53c-.032 0-.08 0-.096.032l-.033.08 5.395 20.207a14 14 0 0 0 6.327-5.425L20.375 12.578a.13.13 0 0 0-.096-.048" opacity=".5"/><path fill="#2185d0" d="M19.95 6a14 14 0 0 0-12.212 7.24 13.99 13.99 0 0 0 .4 14.186l11.674-15.085c.036-.044.11-.073.19-.073s.145.029.189.072l11.665 15.086A14 14 0 0 0 34 19.993C34 12.268 27.73 6 20.001 6z"/></g><defs><linearGradient id="a" x1="20" x2="20" y1="0" y2="40" gradientUnits="userSpaceOnUse"><stop stop-color="#132430"/><stop offset="1" stop-color="#323232"/></linearGradient><linearGradient id="c" x1="20.279" x2="29.264" y1="12.53" y2="30.493" gradientUnits="userSpaceOnUse"><stop stop-color="#fff" stop-opacity="0"/><stop offset=".5" stop-color="#71c2ff"/><stop offset="1" stop-color="#39aaff"/></linearGradient><filter id="b" width="36" height="36" x="2" y="2" color-interpolation-filters="sRGB" filterUnits="userSpaceOnUse"><feFlood flood-opacity="0" result="BackgroundImageFix"/><feColorMatrix in="SourceAlpha" result="hardAlpha" values="0 0 0 0 0 0 0 0 0 0 0 0 0 0 0 0 0 0 127 0"/><feOffset/><feGaussianBlur stdDeviation="2"/><feComposite in2="hardAlpha" operator="out"/><feColorMatrix values="0 0 0 0 0 0 0 0 0 0 0 0 0 0 0 0 0 0 0.25 0"/><feBlend in2="BackgroundImageFix" result="effect1_dropShadow_2_1309"/><feBlend in="SourceGraphic" in2="effect1_dropShadow_2_1309" result="shape"/></filter></defs></svg>