<svg xmlns="http://www.w3.org/2000/svg" width="40" height="40" fill="none" viewBox="0 0 40 40"><rect width="40" height="40" fill="url(#a)" rx="8"/><rect width="37.9" height="37.9" x="1.05" y="1.05" stroke="#fff" stroke-opacity=".15" stroke-width="2.1" rx="6.95"/><g fill="#ff3e3e" filter="url(#b)"><path d="m13.483 16.097 6.668-2.175c.441-.144.724-.581.596-1.043-.12-.43-.608-.735-1.05-.593l-6.668 2.175c-.442.145-.725.582-.597 1.044.12.429.608.735 1.05.592"/><path d="m19.696 13.922 6.662 2.172c.442.145.931-.163 1.05-.592.128-.462-.155-.9-.597-1.043l-6.66-2.173c-.442-.144-.932.163-1.05.593-.128.462.154.899.596 1.043zm-6.871 2.09 6.65 3.013c.422.193.915.125 1.167-.304.218-.368.118-.968-.306-1.16l-6.649-3.014c-.423-.192-.915-.124-1.168.305-.217.368-.117.968.306 1.16"/><path d="m26.152 14.544-6.678 3.018c-.424.192-.524.792-.307 1.16.254.43.746.497 1.17.305l6.677-3.018c.424-.192.524-.792.306-1.16-.252-.43-.744-.496-1.168-.305M12.825 25.387l6.63 3.003c.424.191.916.124 1.169-.304.217-.368.117-.97-.307-1.16l-6.63-3.004c-.423-.192-.915-.125-1.168.304-.217.368-.117.969.306 1.16"/><path d="m20.317 28.39 6.704-3.023c.424-.19.524-.791.307-1.16-.254-.43-.745-.495-1.169-.304l-6.704 3.022c-.424.191-.523.792-.306 1.16.253.43.745.496 1.168.305"/><path d="m25.731 15.277.006 8.414v.944c0 1.094 1.708 1.094 1.708 0l-.006-8.414v-.944c0-1.094-1.708-1.094-1.708 0m-13.329.003v9.374c0 1.094 1.709 1.094 1.709 0V15.28c0-1.095-1.709-1.095-1.709 0m6.648 3.015-.017 8.418v.945c0 1.093 1.708 1.093 1.708 0l.017-8.418v-.945c0-1.094-1.708-1.094-1.708 0M6.313 20.192v-.97q1.307 0 1.823-.547.524-.547.524-1.83v-2.503q0-1.08.203-1.87.212-.79.68-1.306.47-.517 1.252-.766.781-.25 1.932-.25v1.532q-.907 0-1.431.282-.517.282-.736.876-.21.587-.21 1.502v3.128q0 .61-.165 1.11-.156.502-.587.861-.43.36-1.228.556-.79.195-2.057.195m6.414 9.98q-1.15 0-1.932-.25t-1.251-.767-.68-1.306q-.204-.79-.204-1.87v-2.502q0-1.283-.524-1.83-.516-.548-1.823-.548v-.97q1.267 0 2.057.196.799.195 1.228.555.43.36.587.86.164.501.164 1.111v3.129q0 .915.211 1.502.219.585.736.868.524.29 1.43.289zm-6.414-9.073v-1.877H8.16V21.1zm27.373-1.075v-.97q-1.306 0-1.822-.548-.524-.547-.524-1.83v-2.503q0-1.08-.204-1.869-.21-.79-.68-1.306t-1.251-.767q-.783-.25-1.932-.25v1.533q.908 0 1.43.282.517.281.736.876.21.586.211 1.501v3.129q0 .61.165 1.11.157.501.586.86.43.36 1.228.556.79.195 2.057.196m-6.413 9.98q1.15 0 1.931-.25.783-.251 1.252-.767.47-.517.68-1.306.204-.79.204-1.87V23.31q0-1.284.524-1.83.516-.549 1.822-.548v-.97q-1.267 0-2.057.196-.798.195-1.228.555t-.587.86q-.164.501-.164 1.11v3.13q0 .915-.21 1.501a1.58 1.58 0 0 1-.736.868q-.524.29-1.431.29zm6.413-9.073v-1.877H31.84v1.877z"/></g><defs><linearGradient id="a" x1="20" x2="20" y1="0" y2="40" gradientUnits="userSpaceOnUse"><stop stop-color="#310d0d"/><stop offset="1" stop-color="#1d0808"/></linearGradient><filter id="b" width="36" height="36.25" x="2" y="1.75" color-interpolation-filters="sRGB" filterUnits="userSpaceOnUse"><feFlood flood-opacity="0" result="BackgroundImageFix"/><feColorMatrix in="SourceAlpha" result="hardAlpha" values="0 0 0 0 0 0 0 0 0 0 0 0 0 0 0 0 0 0 127 0"/><feOffset/><feGaussianBlur stdDeviation="2"/><feComposite in2="hardAlpha" operator="out"/><feColorMatrix values="0 0 0 0 0 0 0 0 0 0 0 0 0 0 0 0 0 0 0.25 0"/><feBlend in2="BackgroundImageFix" result="effect1_dropShadow_2_1607"/><feBlend in="SourceGraphic" in2="effect1_dropShadow_2_1607" result="shape"/></filter></defs></svg>