<svg xmlns="http://www.w3.org/2000/svg" width="40" height="40" fill="none" viewBox="0 0 40 40"><g clip-path="url(#a)"><rect width="40" height="40" fill="url(#b)" rx="8"/><g filter="url(#c)"><path fill="#f16436" d="M27.38 16.665s5.717-.925 6.62-3.624h-8.758V10.9H6l2.37 2.823v2.892s5.982-.319 8.295 1.482c3.167 3.012-3.562 7.084-3.562 7.084L11.95 29.1c1.805-1.763 5.244-4.044 11.549-3.934-2.4.778-4.812 1.994-6.69 3.934h12.745l-1.2-3.919s-9.238-5.59-.973-8.516"/></g></g><rect width="37.9" height="37.9" x="1.05" y="1.05" stroke="#fff" stroke-opacity=".15" stroke-width="2.1" rx="6.95"/><defs><linearGradient id="b" x1="20" x2="20" y1="0" y2="40" gradientUnits="userSpaceOnUse"><stop stop-color="#2e140b"/><stop offset="1" stop-color="#1e0c07"/></linearGradient><clipPath id="a"><rect width="40" height="40" fill="#fff" rx="8"/></clipPath><filter id="c" width="39.429" height="39.429" x=".286" y=".286" color-interpolation-filters="sRGB" filterUnits="userSpaceOnUse"><feFlood flood-opacity="0" result="BackgroundImageFix"/><feColorMatrix in="SourceAlpha" result="hardAlpha" values="0 0 0 0 0 0 0 0 0 0 0 0 0 0 0 0 0 0 127 0"/><feOffset/><feGaussianBlur stdDeviation="2.857"/><feComposite in2="hardAlpha" operator="out"/><feColorMatrix values="0 0 0 0 0 0 0 0 0 0 0 0 0 0 0 0 0 0 0.25 0"/><feBlend in2="BackgroundImageFix" result="effect1_dropShadow_2_1409"/><feBlend in="SourceGraphic" in2="effect1_dropShadow_2_1409" result="shape"/></filter></defs></svg>