<svg xmlns="http://www.w3.org/2000/svg" width="40" height="40" fill="none" viewBox="0 0 40 40"><rect width="40" height="40" fill="url(#a)" rx="8"/><rect width="37.9" height="37.9" x="1.05" y="1.05" stroke="#fff" stroke-opacity=".15" stroke-width="2.1" rx="6.95"/><g fill="#fff" filter="url(#b)"><path d="M18.898 6.007c-.065.007-.275.031-.465.048-2.692.283-5.344 1.422-7.506 3.234-.4.33-1.309 1.24-1.64 1.639-1.79 2.138-2.837 4.538-3.222 7.378-.087.63-.087 2.759 0 3.389.385 2.84 1.432 5.24 3.223 7.379.33.399 1.24 1.308 1.639 1.639 2.138 1.79 4.538 2.837 7.379 3.222.63.087 2.758.087 3.388 0 2.841-.385 5.241-1.432 7.38-3.222.399-.331 1.308-1.24 1.638-1.64 1.791-2.138 2.838-4.538 3.223-7.378.087-.63.087-2.758 0-3.389-.385-2.84-1.432-5.24-3.223-7.378-.33-.4-1.24-1.309-1.639-1.64-2.131-1.783-4.555-2.844-7.358-3.219-.303-.041-.744-.058-1.56-.065a31 31 0 0 0-1.257.003m.172 1.488c0 .403.028 1.277.066 2.107.02.406.044.988.055 1.291.038 1.074.151 3.894.169 4.146l.017.251-.155-.017a.6.6 0 0 1-.18-.038 4 4 0 0 1-.048-.53 798 798 0 0 1-.285-6.677l-.02-.764.096-.014c.051-.007.137-.017.192-.02l.093-.004zm3.296-.083c.003.003.013 1.043.024 2.31.014 1.271.03 2.41.041 2.535.01.127.007.237-.01.244-.014.01-.1.01-.186 0l-.159-.014-.024-1.002c-.014-.554-.03-1.167-.038-1.367-.027-.609-.051-2.678-.03-2.73.013-.038.051-.041.196-.017.1.02.182.038.186.041M14.4 8.566c.02.03.183 1.928.382 4.41.066.844.131 1.615.141 1.712.018.175.014.182-.096.251a.6.6 0 0 1-.138.069c-.01 0-.03-.09-.041-.2a374 374 0 0 1-.365-4.173c-.076-.92-.145-1.742-.155-1.832-.017-.151-.014-.165.076-.213.11-.059.172-.07.196-.024m9.48.692c.096.034.107.051.127.248.035.344.024 1.99-.014 1.99-.1 0-.306-.117-.323-.183-.01-.041-.021-.53-.021-1.084 0-1.12-.014-1.054.23-.971m-6.36.161c0 .093.024.606.051 1.147.028.54.059 1.226.073 1.522.024.6.03.579-.2.592-.114.004-.114.004-.12-.168-.007-.097-.025-.396-.045-.672-.018-.275-.059-.871-.086-1.326a36 36 0 0 0-.073-1.002c-.02-.172-.017-.179.076-.213a.7.7 0 0 1 .214-.038c.11-.003.11-.003.11.158m9.552.472.117.048.024.462c.01.251.017.795.01 1.205l-.01.75-.145-.072-.144-.069-.01-1.143a24 24 0 0 1 .003-1.188c.014-.051.014-.051.155.007m-6.288.451c.02.02.069 1.69.072 2.538l.004.51-.162-.025a2 2 0 0 1-.172-.024c-.01-.007-.114-2.558-.114-2.806v-.255l.176.02c.1.015.186.032.196.042m7.93.245c.042.048.049.802.059 4.962.01 4.775.01 4.9-.052 4.9a.23.23 0 0 1-.12-.046c-.052-.037-.059-.454-.076-4.534a498 498 0 0 0-.041-4.99l-.021-.495.1.072c.058.041.124.1.151.13m-3.088.706c.017.013.034.21.037.433.018.761.021 5.427.004 5.44-.007.008-.069-.01-.138-.037l-.124-.052V11.22l.097.02a.4.4 0 0 1 .123.053m-9.504.192c.01.093.027.303.038.476.01.168.034.554.055.854.041.606.034.643-.162.643-.103 0-.117-.01-.131-.113-.034-.203-.155-1.898-.138-1.925.018-.024.197-.086.28-.093.02-.003.047.069.058.158m-5.696.878c.038.365.114 1.13.17 1.698.058.568.106 1.05.106 1.07 0 .042-.265.173-.293.145-.017-.017-.361-3.064-.361-3.202 0-.082.265-.43.3-.392.01.007.044.313.078.681m13.502.362.1.059.003.743c.004.407.01.861.01 1.01.007.309-.03.36-.216.295l-.107-.038v-.296c0-.165-.01-.644-.024-1.067l-.02-.764h.078c.042 0 .12.027.176.058m-11.99 1.336c.062.661.162 1.777.227 2.48l.117 1.273-.134.134-.13.135-.025-.272a208 208 0 0 0-.155-1.564c-.072-.709-.175-1.738-.227-2.286l-.097-.992.135-.123c.12-.114.134-.118.158-.056.014.035.072.606.131 1.271m-2.58.417c.077.678.276 2.482.449 4.008a1167 1167 0 0 1 .468 4.2c.048.403.048.43-.007.472-.083.062-.117.055-.117-.017 0-.031-.031-.293-.069-.575-.062-.472-.165-1.27-.396-3.065-.048-.361-.141-1.08-.207-1.6l-.223-1.722c-.056-.427-.148-1.157-.207-1.63-.062-.467-.1-.884-.09-.929.025-.093.228-.416.248-.396.007.01.076.572.152 1.254m-1.053 1.484.214 1.68c.065.51.148 1.147.186 1.412l.065.482-.072.062c-.042.034-.083.048-.097.034s-.041-.151-.062-.303a283 283 0 0 0-.285-1.963L8.01 15.68l.08-.234c.04-.127.085-.23.096-.23.013 0 .065.337.12.747m18.905-.451c.048.048.055.261.055 1.842v1.787h-.097c-.21 0-.206.051-.22-1.904l-.01-1.78h.11c.058 0 .134.024.162.055m-7.538.616a6.7 6.7 0 0 1 2.128.678c.434.224.64.379 1.122.84.717.686 1.157 1.285 1.57 2.132.603 1.232.837 2.324 1.134 5.25.134 1.313.31 3.692.347 4.666.01.283.035.747.055 1.033.038.606.083.524-.45.782-.741.358-1.454.606-2.394.837-1.15.282-1.894.372-3.03.375l-.827.003.007-.396c0-.216.021-.723.042-1.119.103-1.917.082-4.338-.052-5.681-.076-.771-.224-1.708-.306-1.914-.018-.045.062-.083.403-.2.623-.217 1.163-.49 1.246-.623.148-.255-.117-.62-.454-.62-.059 0-.235.062-.396.134-.772.355-2.318.771-3.21.864-.616.066-1.573.028-2.238-.093-.361-.065-1.009-.31-1.55-.588-.623-.324-1.005-.754-1.119-1.264-.062-.275-.044-.826.035-1.136.086-.341.327-.837.547-1.126.982-1.291 3.006-2.41 5.083-2.803.66-.124 1.598-.138 2.307-.031m10.623.107c.124.051.137.065.137.182.007.94-.013 3.089-.03 3.178-.004.031-.183.035-.259.007-.048-.017-.055-.203-.055-1.721 0-1.088.014-1.701.035-1.701.017 0 .096.024.172.055m1.505 1.89.123.052-.024 2.85c-.027 3.633-.03 3.74-.162 4.053-.213.513-.203.617-.182-1.635.007-1.126.024-2.266.031-2.531s.014-1.012.017-1.663q-.001-1.178.035-1.178a1 1 0 0 1 .162.052m-20.71.857c.022.28.015.307-.085.527l-.11.234-.042-.344c-.065-.55-.065-.575.066-.658.058-.041.12-.068.13-.062s.032.145.042.303m-2.127 2.077c.03.282.272 2.155.396 3.075.186 1.422.2 1.625.117 1.539-.01-.01-.09-.49-.172-1.064-.537-3.712-.534-3.688-.49-3.716.094-.062.125-.027.149.166m2.48 1.577c.02.086.12 1.019.12 1.132 0 .097-.124.186-.18.131-.017-.017-.061-.31-.096-.647l-.086-.789-.02-.172.12.138c.069.076.13.169.141.207m2.778 1.298c.038.034.062.172.093.544.052.671.059.62-.083.62-.144 0-.14.01-.19-.596-.047-.616-.047-.61.046-.61a.3.3 0 0 1 .134.042m2.727.051c.007.035.024.241.038.458.01.217.041.706.069 1.085.096 1.391.1 1.567.041 1.567-.065 0-.072-.052-.148-1.033a72 72 0 0 0-.114-1.422c-.03-.376-.051-.689-.04-.696.037-.041.137-.01.154.041m-6.473.661c.02.032.151 1.133.313 2.638.048.455.096.892.107.974l.017.149-.086-.055c-.066-.045-.09-.09-.09-.17 0-.216-.148-1.645-.261-2.52a26 26 0 0 1-.118-.974c0-.073.083-.1.118-.042m19.871 1.44-.024 1.44-.086.127c-.196.289-.186.344-.175-1.268l.006-1.477.128-.13a.7.7 0 0 1 .151-.128c.01 0 .01.647 0 1.436m-3.185 2.283c.018 2 .014 2.155-.041 2.217-.034.038-.066.062-.076.052-.024-.028-.058-4.39-.03-4.414.013-.014.047-.021.078-.018.045.01.055.255.07 2.163m-11.246-1.37c.024.213.11 1.235.145 1.717.02.324.02.334-.055.359-.042.013-.09.01-.104-.007-.024-.024-.1-.789-.192-1.966l-.025-.283h.107c.1 0 .107.007.124.18m-2.706 1.204c.024.024.04.11.04.197 0 .09.042.554.087 1.036.13 1.319.141 1.498.083 1.463-.09-.051-.17-.13-.152-.151a2.4 2.4 0 0 0-.034-.382c-.024-.2-.055-.524-.07-.723a23 23 0 0 0-.072-.81c-.065-.602-.061-.67.014-.67.035 0 .08.016.104.04m1.628 2.318c.01.076.031.358.045.626.024.517.014.555-.127.448-.042-.031-.07-.162-.11-.554-.073-.71-.076-.682.058-.668.1.01.114.024.134.148"/><path d="M13.609 17.776c-.359.155-.386.64-.049.813.245.124.493.065.62-.148a.457.457 0 0 0-.572-.665m2.336.331a.528.528 0 0 0 0 .895c.327.196.75-.062.75-.454 0-.38-.433-.634-.75-.441"/></g><defs><linearGradient id="a" x1="20" x2="20" y1="0" y2="40" gradientUnits="userSpaceOnUse"><stop stop-color="#282828"/><stop offset="1" stop-color="#1a1a1a"/></linearGradient><filter id="b" width="36" height="36" x="2" y="2" color-interpolation-filters="sRGB" filterUnits="userSpaceOnUse"><feFlood flood-opacity="0" result="BackgroundImageFix"/><feColorMatrix in="SourceAlpha" result="hardAlpha" values="0 0 0 0 0 0 0 0 0 0 0 0 0 0 0 0 0 0 127 0"/><feOffset/><feGaussianBlur stdDeviation="2"/><feComposite in2="hardAlpha" operator="out"/><feColorMatrix values="0 0 0 0 0 0 0 0 0 0 0 0 0 0 0 0 0 0 0.25 0"/><feBlend in2="BackgroundImageFix" result="effect1_dropShadow_2_1325"/><feBlend in="SourceGraphic" in2="effect1_dropShadow_2_1325" result="shape"/></filter></defs></svg>