<svg xmlns="http://www.w3.org/2000/svg" width="40" height="40" fill="none" viewBox="0 0 40 40"><rect width="40" height="40" fill="url(#a)" rx="8"/><rect width="37.9" height="37.9" x="1.05" y="1.05" stroke="#fff" stroke-opacity=".15" stroke-width="2.1" rx="6.95"/><g fill="#fff" filter="url(#b)"><path d="m30.602 26.292-.006.055-.005.06-.011.054-.017.055-.01.049-.017.054-.022.049-.022.044-.022.049-.028.043-.027.044-.033.043-.028.044-.033.038-.038.038-.033.033-.044.038-.039.032-.044.033-.044.027-.044.032-.05.028-.049.021-.05.028-.055.021-.055.022-.054.017-.055.016-.05.016-.055.011-.05.011-.049.01-.055.012-.055.005-.05.006-.055.005-.06.006-.055.005h-.231l-.055-.005h-.06l-.055-.006-.056-.005-.06-.006-.055-.01-.055-.006-.055-.011-.055-.01-.055-.012-.055-.01-.055-.017-.05-.01-.055-.017-.055-.017-.05-.021-.054-.017-.05-.016-.055-.022-.05-.022-.049-.021-.05-.027-.049-.022-.05-.027-.043-.027-.05-.028-.044-.027-.044-.027-.044-.033-.044-.032-.044-.033-.044-.033-.039-.032-.044-.038.034-.044.038-.038.033-.044.038-.043.034-.038.033-.044.038-.043.033-.038.039-.044.032-.038.04-.044.032-.043.033-.038.038-.044.034-.043.038-.038.033-.044.044.033.05.032.044.033.05.033.043.027.05.033.044.027.05.021.043.028.05.022.05.021.049.022.05.016.049.022.055.017.055.016.05.016.054.011.055.011.055.01.06.006.056.011h.055l.06.006h.121l.06-.006.056-.01.05-.012.049-.01.044-.017.038-.022.045-.032.032-.038.023-.044.016-.049.006-.054v-.011l-.006-.066-.022-.054-.028-.038-.038-.033-.044-.032-.044-.022-.05-.022-.055-.022-.066-.027-.038-.01-.044-.012-.05-.016-.05-.01-.054-.017-.055-.011-.06-.016-.056-.011-.06-.017-.055-.01-.055-.017-.055-.01-.055-.017-.05-.016-.055-.011-.05-.017-.049-.016-.05-.016-.06-.022-.055-.022-.055-.022-.055-.021-.05-.028-.054-.027-.044-.027-.05-.027-.044-.033-.044-.027-.038-.033-.039-.038-.038-.038-.034-.038-.032-.038-.028-.038-.027-.044-.028-.049-.022-.038-.017-.043-.016-.05-.016-.043-.011-.054-.012-.05-.005-.053-.006-.055-.005-.06v-.125l.005-.054.006-.05.005-.054.012-.049.01-.049.017-.049.011-.049.022-.049.022-.049.022-.049.027-.049.028-.049.033-.043.033-.044.038-.043.04-.038.037-.044.045-.038.038-.027.044-.033.044-.033.044-.027.05-.027.05-.022.049-.027.05-.022.054-.016.055-.022.05-.016.044-.011.05-.011.049-.01.055-.012.05-.01.054-.006.055-.006.055-.005.055-.006H29l.061.006.06.005h.056l.06.006.056.01.06.006.055.011.05.01.055.012.054.01.05.012.055.016.05.016.049.011.055.022.05.016.049.022.05.022.055.022.05.027.043.022.05.027.05.027.043.027.05.033.044.027.044.033.044.032.044.033-.033.044-.028.043-.033.044-.033.043-.033.05-.027.043-.033.043-.033.044-.028.043-.033.044-.033.043-.027.044-.033.049-.034.044-.032.043-.028.044-.033.043-.044-.032-.05-.028-.043-.027-.045-.033-.049-.021-.044-.028-.05-.021-.043-.022-.05-.022-.044-.022-.05-.016-.044-.022-.06-.016-.055-.016-.055-.017-.055-.01-.055-.012-.055-.01-.055-.006-.055-.005-.05-.006h-.121l-.06.011-.055.011-.05.01-.044.023-.038.021-.05.044-.033.05-.022.048-.005.054v.011l.005.071.028.06.022.033.038.038.05.027.044.027.055.022.06.022.066.021.044.011.044.017.05.01.05.017.054.01.061.017.06.016.061.017.06.01.055.017.06.016.056.011.055.017.055.016.05.016.055.017.05.016.049.016.06.022.055.027.055.022.055.027.05.027.05.027.043.027.044.033.044.027.044.039.044.038.039.043.038.038.033.044.033.049.028.043.027.05.022.043.017.049.016.049.011.049.011.054.011.055.006.054.005.06v.13zm-3.858 1.089H23.59v-3.962h3.18v.898h-2.129v.648h1.915v.843h-1.915v.675h2.157v.898zm-4.02 0h-1.006v-2.343l-.028.043-.033.05-.027.043-.033.044-.028.049-.033.044-.027.043-.028.05-.033.043-.027.043-.034.044-.027.05-.033.043-.027.043-.028.05-.033.043-.028.044-.033.049-.027.043-.033.044-.027.05-.028.043-.033.043-.027.05-.034.043-.027.044-.033.043-.028.05-.027.043-.033.043-.027.05-.034.043-.027.044-.033.049-.028.044h-.022l-.033-.05-.027-.043-.033-.05-.028-.043-.033-.049-.027-.044-.033-.049-.028-.043-.033-.05-.027-.043-.033-.05-.028-.043-.033-.049-.027-.043-.033-.05-.028-.043-.033-.05-.033-.043-.027-.049-.033-.043-.028-.05-.033-.043-.027-.05-.033-.043-.028-.049-.033-.043-.027-.05-.034-.043-.027-.05-.033-.043-.028-.049-.032-.043-.028-.05-.033-.043v2.332h-1.045v-3.962h1.128l.027.043.028.05.032.043.028.049.028.043.027.05.028.042.033.05.027.043.028.043.027.05.028.043.033.049.027.043.028.049.027.043.033.044.028.049.027.043.028.05.027.043.033.048.028.044.027.049.028.043.027.044.033.049.028.043.027.05.028.042.027.05.033.043.028.049.027.043.028-.043.027-.05.033-.043.028-.049.027-.043.028-.049.033-.043.027-.05.028-.043.027-.043.033-.05.028-.043.027-.048.028-.044.033-.049.027-.043.028-.05.027-.043.028-.043.033-.049.027-.043.028-.05.027-.043.034-.049.027-.043.027-.044.028-.049.033-.043.028-.049.027-.043.027-.05.034-.043.027-.049.028-.043h1.127v3.962zm-6.383-1.633-.016-.05-.022-.054-.022-.049-.017-.049-.021-.049-.023-.054-.016-.05-.022-.049-.022-.049-.017-.049-.022-.054-.016-.05-.022-.049-.022-.049-.017-.049-.022-.054-.022-.05-.016-.048-.022-.05-.022-.054-.017-.05-.022-.048-.022.049-.016.049-.022.054-.022.05-.017.049-.022.049-.022.054-.022.05-.016.048-.022.05-.022.049-.017.054-.022.05-.022.048-.016.05-.022.049-.022.054-.022.05-.017.048-.022.05-.022.054-.016.05-.022.048h.929zm1.728 1.633H16.99l-.021-.05-.017-.048-.022-.05-.022-.054-.016-.048-.023-.05-.022-.048-.016-.05-.022-.048-.022-.05-.017-.048-.021-.055-.023-.049-.016-.049-.022-.049h-1.579l-.022.05-.016.048-.022.05-.022.054-.017.049-.022.049-.022.049-.017.049-.021.049-.023.049-.016.048-.022.055-.022.049-.017.049-.022.049h-1.111l.022-.05.022-.048.022-.05.022-.054.017-.048.022-.05.022-.048.022-.05.022-.048.022-.055.022-.049.022-.049.016-.049.022-.049.022-.049.022-.054.022-.049.022-.05.022-.048.022-.049.017-.049.022-.054.022-.05.022-.048.022-.05.022-.048.022-.05.022-.054.016-.049.023-.049.022-.049.021-.049.022-.049.023-.054.021-.05.022-.048.017-.05.022-.048.022-.05.022-.053.022-.05.022-.049.022-.049.022-.049.017-.049.021-.048.023-.055.022-.049.021-.049.022-.049.023-.049.021-.048.017-.055.022-.049.022-.049.022-.049.022-.049.022-.049.022-.054.022-.05.017-.048.022-.05.021-.048.023-.05.022-.054.021-.049.023-.049.022-.049.016-.049.022-.049.022-.054.022-.049.022-.049.022-.049.022-.049.022-.049.017-.054.022-.05.022-.048.022-.05h1.017l.022.05.022.049.022.049.022.054.017.049.022.049.022.049.022.049.022.049.022.054.022.05.022.048.016.05.022.048.023.05.022.054.021.049.023.049.022.049.021.049.017.049.022.054.022.05.022.048.022.05.022.048.022.049.022.055.017.049.021.048.022.05.023.049.022.048.021.055.023.049.022.049.016.049.022.049.022.048.022.05.022.054.022.049.022.049.022.049.017.049.022.049.021.054.023.05.022.048.022.05.022.048.022.05.016.054.022.049.022.049.022.049.022.049.022.049.022.054.022.049.017.049.022.049.022.049.022.049.022.054.022.05.022.048.022.05.016.048.022.05.022.054.022.049.022.049.022.049.022.049.022.048.017.055.022.049.022.049.022.049zm-4.82-.506-.044.032-.038.028-.044.032-.044.028-.044.032-.044.027-.044.028-.05.027-.05.027-.049.027-.05.022-.049.027-.055.022-.05.021-.054.022-.05.022-.05.016-.049.017-.05.016-.054.016-.05.017-.055.01-.05.012-.054.01-.056.011-.055.006-.06.005-.055.006-.06.005-.056.005-.06.006h-.237l-.055-.006-.06-.005-.055-.005-.055-.006-.055-.005-.055-.011-.055-.011-.05-.011-.055-.01-.05-.017-.054-.011-.05-.016-.05-.022-.049-.017-.055-.021-.05-.022-.049-.022-.05-.021-.049-.028-.044-.027-.05-.027-.043-.027-.044-.027-.044-.033-.044-.033-.044-.032-.039-.033-.038-.033-.039-.038-.038-.032-.039-.038-.038-.039-.034-.038-.032-.043-.034-.038-.027-.044-.033-.043-.028-.044-.027-.044-.028-.049-.027-.043-.022-.049-.022-.049-.022-.049-.022-.049-.017-.044-.022-.049-.01-.049-.017-.049-.011-.054-.017-.049-.01-.054-.006-.05-.011-.054-.006-.049-.005-.054-.005-.055-.006-.054v-.18l.006-.06v-.054l.005-.054.005-.06.011-.054.006-.055.01-.049.017-.054.012-.055.016-.049.016-.054.017-.049.022-.055.022-.048.022-.05.022-.048.022-.05.027-.048.028-.044.027-.044.028-.043.028-.044.032-.043.034-.044.032-.043.034-.038.038-.038.033-.039.039-.038.038-.038.039-.032.044-.038.038-.033.044-.033.044-.027.044-.033.044-.027.044-.027.05-.027.05-.027.049-.028.05-.022.049-.021.055-.027.044-.017.055-.016.05-.022.049-.01.05-.017.054-.011.05-.016.055-.011.055-.006.055-.01.055-.006.055-.006.055-.005.055-.005h.236l.061.005.06.006h.056l.054.005.06.01.05.006.056.011.055.011.05.01.049.012.049.01.05.017.05.01.043.017.05.017.05.021.049.022.05.022.049.027.05.022.043.027.05.027.044.027.05.028.043.032.044.028.044.032.044.033.044.038.044.033-.033.043-.038.038-.033.044-.039.043-.033.044-.033.038-.038.044-.033.043-.033.038-.039.044-.033.043-.038.044-.034.038-.032.044-.039.043-.033.044-.038.038-.033.043-.045-.032-.043-.038-.045-.028-.043-.032-.044-.028-.044-.027-.044-.027-.05-.027-.044-.022-.044-.022-.044-.016-.05-.016-.049-.017-.05-.01-.055-.012-.054-.01-.056-.006-.06-.005-.06-.006h-.116l-.055.006-.05.005-.055.011-.05.011-.049.016-.05.017-.049.021-.05.022-.043.027-.044.028-.044.027-.039.032-.038.033-.039.033-.033.038-.038.038-.033.043-.028.039-.027.043-.028.05-.027.043-.022.049-.017.049-.022.049-.016.054-.011.054-.011.05-.011.06-.006.053-.005.055v.125l.005.055.005.049.006.054.011.049.011.049.011.049.017.049.016.043.022.055.022.049.028.049.027.043.028.044.033.043.033.039.038.038.033.038.039.032.044.033.044.033.044.027.044.027.05.022.049.022.05.021.054.017.055.016.056.011.054.011.055.005.06.006h.127l.061-.006.06-.005.056-.006.054-.01.056-.011.055-.017.049-.01.05-.022.044-.022.049-.022.039-.022.044-.027v-.495h-.804v-.794h1.816v1.768zm-1.769-12.42h2.384v-1.817H11.48V8.929h2.48V7.113H9.455v13.11h4.541v-1.816H11.48zm17.078.393v2.96c0 .524-.247.767-.757.767h-.379c-.53 0-.776-.243-.776-.768V9.53c0-.525.246-.768.776-.768h.34c.512 0 .758.243.758.768v2.566h1.987v-2.68c0-1.63-.795-2.416-2.441-2.416h-.984c-1.646 0-2.46.805-2.46 2.435v8.466c0 1.63.814 2.435 2.46 2.435h1.003c1.646 0 2.46-.805 2.46-2.435v-3.053zm-7.031 5.375h2.025V7.113h-2.025zm-2.938-7.285c0 .524-.246.768-.757.768H17V8.873h.833c.511 0 .757.244.757.768zm-.435-5.826h-3.18v13.111H17v-4.757h1.155c1.646 0 2.46-.805 2.46-2.435V9.547c0-1.63-.814-2.435-2.46-2.435"/><path fill-rule="evenodd" d="M14.232 32.078h11.59L19.908 34z" clip-rule="evenodd"/></g><defs><linearGradient id="a" x1="20" x2="20" y1="0" y2="40" gradientUnits="userSpaceOnUse"><stop stop-color="#181818"/><stop offset="1" stop-color="#0f0f0f"/></linearGradient><filter id="b" width="36" height="36" x="2" y="2" color-interpolation-filters="sRGB" filterUnits="userSpaceOnUse"><feFlood flood-opacity="0" result="BackgroundImageFix"/><feColorMatrix in="SourceAlpha" result="hardAlpha" values="0 0 0 0 0 0 0 0 0 0 0 0 0 0 0 0 0 0 127 0"/><feOffset/><feGaussianBlur stdDeviation="2"/><feComposite in2="hardAlpha" operator="out"/><feColorMatrix values="0 0 0 0 0 0 0 0 0 0 0 0 0 0 0 0 0 0 0.25 0"/><feBlend in2="BackgroundImageFix" result="effect1_dropShadow_2_1364"/><feBlend in="SourceGraphic" in2="effect1_dropShadow_2_1364" result="shape"/></filter></defs></svg>