<svg xmlns="http://www.w3.org/2000/svg" width="40" height="40" fill="none" viewBox="0 0 40 40"><rect width="40" height="40" fill="url(#a)" rx="8"/><rect width="37.9" height="37.9" x="1.05" y="1.05" stroke="#fff" stroke-opacity=".15" stroke-width="2.1" rx="6.95"/><g filter="url(#b)"><path fill="#dd4c35" d="M33.474 18.754 21.249 6.53a1.8 1.8 0 0 0-2.55 0l-2.54 2.54 3.22 3.22a2.141 2.141 0 0 1 2.713 2.73l3.1 3.1a2.143 2.143 0 1 1-1.285 1.21l-2.895-2.896v7.617a2.141 2.141 0 1 1-1.764-.062v-7.687a2.146 2.146 0 0 1-1.165-2.814l-3.17-3.172-8.383 8.386a1.8 1.8 0 0 0 0 2.551l12.225 12.221a1.8 1.8 0 0 0 2.55 0l12.169-12.172a1.8 1.8 0 0 0 0-2.55"/><path fill="#fff" d="m16.16 9.068 3.22 3.22a2.141 2.141 0 0 1 2.712 2.73l3.1 3.1a2.143 2.143 0 1 1-1.285 1.21l-2.895-2.895v7.617a2.141 2.141 0 1 1-1.764-.062v-7.687a2.146 2.146 0 0 1-1.165-2.814l-3.17-3.172"/></g><defs><linearGradient id="a" x1="20" x2="20" y1="0" y2="40" gradientUnits="userSpaceOnUse"><stop stop-color="#361712"/><stop offset="1" stop-color="#1d0c09"/></linearGradient><filter id="b" width="36.004" height="36.003" x="2" y="2" color-interpolation-filters="sRGB" filterUnits="userSpaceOnUse"><feFlood flood-opacity="0" result="BackgroundImageFix"/><feColorMatrix in="SourceAlpha" result="hardAlpha" values="0 0 0 0 0 0 0 0 0 0 0 0 0 0 0 0 0 0 127 0"/><feOffset/><feGaussianBlur stdDeviation="2"/><feComposite in2="hardAlpha" operator="out"/><feColorMatrix values="0 0 0 0 0 0 0 0 0 0 0 0 0 0 0 0 0 0 0.25 0"/><feBlend in2="BackgroundImageFix" result="effect1_dropShadow_2_1282"/><feBlend in="SourceGraphic" in2="effect1_dropShadow_2_1282" result="shape"/></filter></defs></svg>