<svg xmlns="http://www.w3.org/2000/svg" width="40" height="40" fill="none" viewBox="0 0 40 40"><rect width="40" height="40" fill="url(#a)" rx="8"/><rect width="37.9" height="37.9" x="1.05" y="1.05" stroke="#fff" stroke-opacity=".15" stroke-width="2.1" rx="6.95"/><g filter="url(#b)"><path fill="#609926" d="M10.91 12.001c-.288 0-.612.022-.98.095-.388.076-1.493.306-2.396 1.11-2.004 1.658-1.493 4.29-1.43 4.688.076.482.307 1.824 1.412 2.993 2.04 2.315 6.431 2.262 6.431 2.262s.54 1.193 1.363 2.291c1.114 1.366 2.259 2.431 3.372 2.56 2.807 0 8.414-.004 8.414-.004s.534.004 1.26-.426c.624-.35 1.181-.966 1.181-.966s.575-.57 1.377-1.87c.245-.4.45-.789.628-1.156 0 0 2.458-4.834 2.458-9.54-.049-1.426-.428-1.677-.517-1.76-.182-.169-.427-.165-.427-.165s-5.22.272-7.924.33c-.593.012-1.18.025-1.764.03v4.838l-.74-.326c0-1.503-.004-4.51-.004-4.51-1.292.018-3.973-.09-3.973-.09s-6.298-.292-6.984-.35c-.219-.012-.468-.035-.756-.035zm.414 1.981h.13s.315 2.454.7 3.89c.32 1.206 1.103 3.21 1.103 3.21s-1.162-.13-1.915-.377c-1.155-.35-1.644-.772-1.644-.772s-.851-.552-1.278-1.644c-.735-1.825-.062-2.939-.062-2.939s.373-.929 1.715-1.238c.46-.115 1.007-.13 1.25-.13m9.718 2.762c.303.003.594.137.594.137l1.012.457-.617 1.162a.85.85 0 0 0-.416.102.77.77 0 0 0-.3.287.69.69 0 0 0 .084.817l-1.096 2.08a.85.85 0 0 0-.49.163.74.74 0 0 0-.28.407.7.7 0 0 0 .051.477.77.77 0 0 0 .354.349.86.86 0 0 0 .55.061.8.8 0 0 0 .462-.284.705.705 0 0 0-.08-.954l1.068-2.026q.14.011.276-.022a.8.8 0 0 0 .317-.148q.611.24 1.185.553a.86.86 0 0 1 .333.305c.086.227-.085.616-.085.616-.101.313-.819 1.676-.819 1.676a.85.85 0 0 0-.486.136.76.76 0 0 0-.302.38.7.7 0 0 0-.017.38.7.7 0 0 0 .19.336.8.8 0 0 0 .345.205.86.86 0 0 0 .41.017.8.8 0 0 0 .364-.174.73.73 0 0 0 .222-.319.7.7 0 0 0 .021-.38.7.7 0 0 0-.185-.338c.085-.152.164-.305.25-.466.22-.43.6-1.254.6-1.254.04-.072.254-.427.12-.88-.11-.471-.56-.69-.56-.69-.545-.326-1.302-.628-1.302-.628s0-.168-.049-.292a.7.7 0 0 0-.172-.26l.602-1.149 3.371 1.515s.56.236.68.67c.085.305-.022.577-.08.71-.28.635-2.45 4.668-2.45 4.668s-.27.6-.873.636q-.234.015-.458-.048l-.236-.087-5.028-2.27s-.487-.237-.572-.645c-.097-.336.121-.748.121-.748l2.419-4.62s.213-.4.544-.537a1.1 1.1 0 0 1 .408-.083"/></g><defs><linearGradient id="a" x1="20" x2="20" y1="0" y2="40" gradientUnits="userSpaceOnUse"><stop stop-color="#263813"/><stop offset="1" stop-color="#131f07"/></linearGradient><filter id="b" width="36" height="36" x="2" y="2" color-interpolation-filters="sRGB" filterUnits="userSpaceOnUse"><feFlood flood-opacity="0" result="BackgroundImageFix"/><feColorMatrix in="SourceAlpha" result="hardAlpha" values="0 0 0 0 0 0 0 0 0 0 0 0 0 0 0 0 0 0 127 0"/><feOffset/><feGaussianBlur stdDeviation="2"/><feComposite in2="hardAlpha" operator="out"/><feColorMatrix values="0 0 0 0 0 0 0 0 0 0 0 0 0 0 0 0 0 0 0.25 0"/><feBlend in2="BackgroundImageFix" result="effect1_dropShadow_2_1658"/><feBlend in="SourceGraphic" in2="effect1_dropShadow_2_1658" result="shape"/></filter></defs></svg>