<svg xmlns="http://www.w3.org/2000/svg" width="40" height="40" fill="none" viewBox="0 0 40 40"><rect width="40" height="40" fill="url(#a)" rx="8"/><rect width="37.9" height="37.9" x="1.05" y="1.05" stroke="#fff" stroke-opacity=".15" stroke-width="2.1" rx="6.95"/><g filter="url(#b)"><path fill="#fff" d="M20 6.5c-7.734 0-14 6.2-14 13.842 0 6.118 4.011 11.304 9.57 13.134.703.13.957-.298.957-.668 0-.328-.008-1.198-.013-2.352-3.897.834-4.718-1.86-4.718-1.86-.638-1.596-1.558-2.024-1.558-2.024-1.267-.856.1-.837.1-.837 1.404.094 2.143 1.423 2.143 1.423 1.248 2.117 3.276 1.505 4.078 1.148.123-.892.488-1.505.885-1.847-3.108-.346-6.377-1.536-6.377-6.84 0-1.514.543-2.748 1.44-3.717-.155-.347-.63-1.757.123-3.663 0 0 1.172-.37 3.85 1.42a13.7 13.7 0 0 1 3.5-.469c1.19.008 2.38.162 3.501.468 2.663-1.789 3.834-1.42 3.834-1.42.751 1.907.277 3.317.14 3.664.889.97 1.431 2.204 1.431 3.717 0 5.316-3.273 6.488-6.384 6.827.486.414.942 1.266.942 2.56 0 1.85-.017 3.342-.017 3.793 0 .36.245.792.966.653C29.993 31.642 34 26.45 34 20.34 34 12.7 27.734 6.5 20 6.5"/></g><defs><linearGradient id="a" x1="20" x2="20" y1="0" y2="40" gradientUnits="userSpaceOnUse"><stop stop-color="#181f29"/><stop offset="1" stop-color="#0f131a"/></linearGradient><filter id="b" width="36" height="36" x="2" y="2" color-interpolation-filters="sRGB" filterUnits="userSpaceOnUse"><feFlood flood-opacity="0" result="BackgroundImageFix"/><feColorMatrix in="SourceAlpha" result="hardAlpha" values="0 0 0 0 0 0 0 0 0 0 0 0 0 0 0 0 0 0 127 0"/><feOffset/><feGaussianBlur stdDeviation="2"/><feComposite in2="hardAlpha" operator="out"/><feColorMatrix values="0 0 0 0 0 0 0 0 0 0 0 0 0 0 0 0 0 0 0.25 0"/><feBlend in2="BackgroundImageFix" result="effect1_dropShadow_2_1290"/><feBlend in="SourceGraphic" in2="effect1_dropShadow_2_1290" result="shape"/></filter></defs></svg>