<svg xmlns="http://www.w3.org/2000/svg" width="40" height="40" fill="none" viewBox="0 0 40 40"><rect width="40" height="40" fill="url(#a)" rx="8"/><rect width="37.9" height="37.9" x="1.05" y="1.05" stroke="#fff" stroke-opacity=".15" stroke-width="2.1" rx="6.95"/><g filter="url(#b)"><path fill="#ea4335" d="M19.142 19.374 7.107 31.679c.136.468.378.899.71 1.26.332.362.745.645 1.206.828a3.34 3.34 0 0 0 2.864-.197l13.541-7.527z"/><path fill="#fbbc04" d="m31.311 17.282-5.856-3.274-6.59 5.646 6.617 6.371 5.811-3.238a3.15 3.15 0 0 0 1.247-1.144 3.05 3.05 0 0 0 0-3.217 3.15 3.15 0 0 0-1.247-1.144z"/><path fill="#4285f4" d="M7.107 8.328A3 3 0 0 0 7 9.133v21.741q0 .41.107.805l12.447-11.99z"/><path fill="#34a853" d="m19.232 20.004 6.223-5.996-13.523-7.562A3.4 3.4 0 0 0 10.255 6a3.3 3.3 0 0 0-1.973.643A3.2 3.2 0 0 0 7.107 8.32z"/></g><defs><linearGradient id="a" x1="20" x2="20" y1="0" y2="40" gradientUnits="userSpaceOnUse"><stop stop-color="#00171c"/><stop offset=".333" stop-color="#0a1209"/><stop offset=".667" stop-color="#100f06"/><stop offset="1" stop-color="#1a0000"/></linearGradient><filter id="b" width="36" height="36" x="2" y="2" color-interpolation-filters="sRGB" filterUnits="userSpaceOnUse"><feFlood flood-opacity="0" result="BackgroundImageFix"/><feColorMatrix in="SourceAlpha" result="hardAlpha" values="0 0 0 0 0 0 0 0 0 0 0 0 0 0 0 0 0 0 127 0"/><feOffset/><feGaussianBlur stdDeviation="2"/><feComposite in2="hardAlpha" operator="out"/><feColorMatrix values="0 0 0 0 0 0 0 0 0 0 0 0 0 0 0 0 0 0 0.25 0"/><feBlend in2="BackgroundImageFix" result="effect1_dropShadow_2_1334"/><feBlend in="SourceGraphic" in2="effect1_dropShadow_2_1334" result="shape"/></filter></defs></svg>