<svg xmlns="http://www.w3.org/2000/svg" width="40" height="40" fill="none" viewBox="0 0 40 40"><rect width="40" height="40" fill="url(#a)" rx="8"/><rect width="37.9" height="37.9" x="1.05" y="1.05" stroke="#fff" stroke-opacity=".15" stroke-width="2.1" rx="6.95"/><g filter="url(#b)"><path fill="#7dc1d1" d="M32.471 10.855c-1.75-1.786-4.435-1.786-6.186-.12-.117.12-.117.239-.117.358s0 .238.117.357l.584.595c.116.12.35.12.583 0 .467-.357.934-.476 1.517-.476 1.401 0 2.568 1.19 2.568 2.62q0 1.072-.7 1.785c-3.502 3.572-8.287-6.429-18.909-1.31-.7.358-1.05 1.191-.7 1.906v.119l1.75 3.215c.351.714 1.285.952 1.985.595l.817-.476a21 21 0 0 0 2.568-1.905c.117-.12.467-.12.584 0 .233.119.233.357.116.595l-.116.119a23 23 0 0 1-2.685 2.024l-.817.357c-.35.238-.7.357-1.167.357-.817 0-1.634-.476-1.985-1.19l-1.75-3.096c-3.268 2.381-5.37 7.025-4.202 12.859 0 .238.233.357.467.357h1.984c.233 0 .35-.12.467-.357.233-1.667 1.634-2.739 3.268-2.5 1.284.119 2.334 1.19 2.451 2.5 0 .238.234.357.467.357h1.867c.234 0 .35-.12.467-.357.234-1.667 1.634-2.739 3.268-2.5 1.284.119 2.335 1.19 2.452 2.5 0 .238.233.357.466.357h1.868c.233 0 .467-.238.467-.476 0-2.739.817-5.834 2.801-7.382 6.887-5.477 5.02-10.12 3.385-11.787m-7.237 8.215-1.4-.714c0-.477.35-.834.817-.834s.817.357.817.834c.117.357 0 .595-.234.714"/></g><defs><linearGradient id="a" x1="20" x2="20" y1="0" y2="40" gradientUnits="userSpaceOnUse"><stop stop-color="#19282c"/><stop offset="1" stop-color="#121c1f"/></linearGradient><filter id="b" width="36" height="36" x="2" y="2" color-interpolation-filters="sRGB" filterUnits="userSpaceOnUse"><feFlood flood-opacity="0" result="BackgroundImageFix"/><feColorMatrix in="SourceAlpha" result="hardAlpha" values="0 0 0 0 0 0 0 0 0 0 0 0 0 0 0 0 0 0 127 0"/><feOffset/><feGaussianBlur stdDeviation="2"/><feComposite in2="hardAlpha" operator="out"/><feColorMatrix values="0 0 0 0 0 0 0 0 0 0 0 0 0 0 0 0 0 0 0.25 0"/><feBlend in2="BackgroundImageFix" result="effect1_dropShadow_2_1381"/><feBlend in="SourceGraphic" in2="effect1_dropShadow_2_1381" result="shape"/></filter></defs></svg>