<svg xmlns="http://www.w3.org/2000/svg" width="40" height="40" fill="none" viewBox="0 0 40 40"><rect width="40" height="40" fill="url(#a)" rx="8"/><rect width="37.9" height="37.9" x="1.05" y="1.05" stroke="#fff" stroke-opacity=".15" stroke-width="2.1" rx="6.95"/><g fill="#fff" filter="url(#b)"><path d="M29 18.646c-2.018-.82-4.994 2.327-6.45 7.164a20.9 20.9 0 0 0-.728 8.19l-.937-.434c-1.789-6.09-.79-12.752 2.31-17.566z"/><path d="m30.664 27.99-7.362-2.995c1.353-4.044 3.858-6.47 5.477-6.47q.25.009.488.087l.133.066c.576.262 2.328 1.748 1.264 9.311m-2.639-17.946a16.2 16.2 0 0 0-5.72 5.115c-3.238 4.633-4.347 10.907-2.662 16.765q.3 1.06.732 2.076l-9.868-4.022C6.782 20.973 10.197 10.24 18.157 6z"/></g><defs><linearGradient id="a" x1="20" x2="20" y1="0" y2="40" gradientUnits="userSpaceOnUse"><stop stop-color="#1c252c"/><stop offset="1" stop-color="#13191d"/></linearGradient><filter id="b" width="36" height="36" x="2" y="2" color-interpolation-filters="sRGB" filterUnits="userSpaceOnUse"><feFlood flood-opacity="0" result="BackgroundImageFix"/><feColorMatrix in="SourceAlpha" result="hardAlpha" values="0 0 0 0 0 0 0 0 0 0 0 0 0 0 0 0 0 0 127 0"/><feOffset/><feGaussianBlur stdDeviation="2"/><feComposite in2="hardAlpha" operator="out"/><feColorMatrix values="0 0 0 0 0 0 0 0 0 0 0 0 0 0 0 0 0 0 0.25 0"/><feBlend in2="BackgroundImageFix" result="effect1_dropShadow_4_1066"/><feBlend in="SourceGraphic" in2="effect1_dropShadow_4_1066" result="shape"/></filter></defs></svg>