<svg xmlns="http://www.w3.org/2000/svg" width="40" height="40" fill="none" viewBox="0 0 40 40"><rect width="40" height="40" fill="url(#a)" rx="8"/><rect width="37.9" height="37.9" x="1.05" y="1.05" stroke="#fff" stroke-opacity=".15" stroke-width="2.1" rx="6.95"/><g filter="url(#b)"><path fill="#6e93b7" d="M23.727 6c-2.371.459-4.048 1.4-5.05 2.705l3.365 1.94a3.3 3.3 0 0 1 2.199-.226c.21-1.272.055-2.751-.514-4.419m-5.769 3.57-5.164 8.931 5.53 3.192 1.298-2.246c-.59-.581-.835-1.465-.866-2.386-.037-1.126.236-2.379.746-3.51.378-.841.885-1.62 1.527-2.209zm12.259.175c-1.745.337-3.112.936-4.114 1.75.554.58.85 1.29.908 2.018l3.356 1.935c.635-1.523.623-3.44-.15-5.703m-21.441.478L6.523 14.12l6.056 2.536 3.61-6.247zm14.643 1.184c-.389.007-.748.134-1.103.347-.709.425-1.358 1.265-1.801 2.25-.444.985-.682 2.107-.651 3.02.03.912.316 1.546.76 1.804h.002c.446.256 1.137.187 1.943-.243s1.66-1.197 2.291-2.073c.632-.876 1.036-1.86 1.05-2.686s-.277-1.497-1.217-2.039c-.47-.27-.886-.386-1.274-.38m3.491 3.33c-.19.849-.61 1.677-1.15 2.424-.726 1.007-1.673 1.87-2.668 2.4-.816.436-1.71.665-2.51.442l-1.297 2.243 5.529 3.19 5.16-8.933zm3.22 3.714-3.61 6.25 5.227 3.973 2.253-3.9zm-16.426 1.856c-1.335.584-2.36 1.373-3.077 2.334l5.195 2.997c.478-1.102.657-2.379.505-3.817zm-3.568 3.331L6 30.789v2.216l5.097-8.813zm10.058.413c-1.335.584-2.359 1.373-3.076 2.334l5.195 2.998c.477-1.103.656-2.38.505-3.819zm-8.02.762L6.828 34h1.284l5.023-8.63-.963-.557m2.044 1.18L9.6 34h1.28l4.297-7.454zm2.425 1.399L12.889 34h1.277l3.438-6.054zm2.044 1.18L15.656 34h1.269l2.723-4.875zm2.045 1.18L18.42 34h1.266l2.009-3.694z"/></g><defs><linearGradient id="a" x1="20" x2="20" y1="0" y2="40" gradientUnits="userSpaceOnUse"><stop stop-color="#1e2833"/><stop offset="1" stop-color="#141b22"/></linearGradient><filter id="b" width="36" height="36" x="2" y="2" color-interpolation-filters="sRGB" filterUnits="userSpaceOnUse"><feFlood flood-opacity="0" result="BackgroundImageFix"/><feColorMatrix in="SourceAlpha" result="hardAlpha" values="0 0 0 0 0 0 0 0 0 0 0 0 0 0 0 0 0 0 127 0"/><feOffset/><feGaussianBlur stdDeviation="2"/><feComposite in2="hardAlpha" operator="out"/><feColorMatrix values="0 0 0 0 0 0 0 0 0 0 0 0 0 0 0 0 0 0 0.25 0"/><feBlend in2="BackgroundImageFix" result="effect1_dropShadow_2_1395"/><feBlend in="SourceGraphic" in2="effect1_dropShadow_2_1395" result="shape"/></filter></defs></svg>