<svg xmlns="http://www.w3.org/2000/svg" width="40" height="40" fill="none" viewBox="0 0 40 40"><rect width="40" height="40" fill="url(#a)" rx="8"/><rect width="37.9" height="37.9" x="1.05" y="1.05" stroke="#fff" stroke-opacity=".15" stroke-width="2.1" rx="6.95"/><g filter="url(#b)"><path fill="#fff" d="M6.967 11v.505c3.526 2.64 2.758 14.324.984 18.168h-.492l-1.967-1.01L5 30.684c2.622 1.133 4.73-.933 5.574-3.533 1.655-5.096.21-11.08 1.803-16.15zm6.885 0v.505c3.15 2.359 3.974 6.876 5.082 10.598.52 1.745.5 3.866 2.296 4.542l2.95-9.084h.492l2.951 9.084h.492c2.082-4.776 2.527-11.877 6.885-15.14V11h-5.41l1.476 1.01-2.46 9.588C26.757 17.8 25.86 14.678 27.132 11h-5.41l2.131 4.374-2.13 6.729h-.492L19.754 11z"/></g><defs><linearGradient id="a" x1="20" x2="20" y1="0" y2="40" gradientUnits="userSpaceOnUse"><stop stop-color="#3a0809"/><stop offset="1" stop-color="#230506"/></linearGradient><filter id="b" width="38" height="36" x="1" y="2" color-interpolation-filters="sRGB" filterUnits="userSpaceOnUse"><feFlood flood-opacity="0" result="BackgroundImageFix"/><feColorMatrix in="SourceAlpha" result="hardAlpha" values="0 0 0 0 0 0 0 0 0 0 0 0 0 0 0 0 0 0 127 0"/><feOffset/><feGaussianBlur stdDeviation="2"/><feComposite in2="hardAlpha" operator="out"/><feColorMatrix values="0 0 0 0 0 0 0 0 0 0 0 0 0 0 0 0 0 0 0.25 0"/><feBlend in2="BackgroundImageFix" result="effect1_dropShadow_2_1651"/><feBlend in="SourceGraphic" in2="effect1_dropShadow_2_1651" result="shape"/></filter></defs></svg>