<svg xmlns="http://www.w3.org/2000/svg" width="40" height="40" fill="none" viewBox="0 0 40 40"><rect width="40" height="40" fill="url(#a)" rx="8"/><rect width="37.9" height="37.9" x="1.05" y="1.05" stroke="#fff" stroke-opacity=".15" stroke-width="2.1" rx="6.95"/><g fill="#00d845" filter="url(#b)"><path d="M18.608 6.08c-4.831.48-9.025 3.377-11.197 7.74a14 14 0 0 0-1.374 4.704L6 18.885h1.248c.687 0 1.249-.018 1.255-.05.068-1.015.518-2.61 1.06-3.75 1.93-4.039 5.943-6.575 10.387-6.575 1.884 0 3.482.367 5.118 1.178a11.4 11.4 0 0 1 4.493 3.932c.506.754 1.205 2.13 1.118 2.206-.032.03-.53.18-1.105.33l-1.049.28-.274-.536a9.38 9.38 0 0 0-4.113-4.131c-.63-.318-1.28-.56-1.38-.524-.043.013-.1.163-.118.33a30 30 0 0 1-.163.954c-.062.362-.13.76-.15.885l-.043.23.53.25c1.823.847 3.14 2.418 3.695 4.4.163.573.181.704.181 1.713s-.018 1.14-.18 1.714c-.331 1.171-.918 2.206-1.723 3.016-.462.467-1.142.972-1.636 1.228-.168.08-.3.186-.3.23.007.106.6 2.287.644 2.324.056.057 1.11-.504 1.729-.916.774-.517 1.847-1.589 2.365-2.361a9.6 9.6 0 0 0 1.454-3.372c.119-.548.144-.829.144-1.844 0-1.01.012-1.203.094-1.222.761-.218 2.078-.542 2.103-.523.044.05.112 1.09.112 1.726 0 .86-.08 1.701-.218 2.306-.063.286-.112.53-.106.536.006.012.53.2 1.16.43.874.317 1.161.398 1.199.336.1-.168.368-1.813.437-2.692.143-1.963-.2-4.219-.918-5.995-2.022-5.004-6.44-8.331-11.758-8.848-1.068-.106-1.63-.106-2.684 0"/><path d="M18.92 10.828c-.456.044-1.473.287-1.991.467-2.553.898-4.656 2.948-5.605 5.472-.736 1.95-.761 4.4-.062 6.312l.156.424-.575.33c-1.148.667-1.354.785-1.398.785-.056 0-.33-.691-.505-1.277-.2-.698-.412-1.707-.437-2.169-.006-.024-.568-.043-1.255-.043H6l.037.355c.331 3.222 1.817 6.263 4.182 8.562 5.549 5.384 14.405 5.253 19.817-.293a14.7 14.7 0 0 0 1.916-2.461c.43-.717.761-1.39.711-1.44-.025-.025-.324-.143-.667-.268-.344-.124-.806-.293-1.03-.367-.225-.081-.45-.169-.5-.187-.068-.025-.156.08-.33.417-1.049 2.044-3.009 3.901-5.224 4.96-1.892.898-3.814 1.234-6.092 1.054-2.228-.175-4.712-1.271-6.516-2.873-.512-.455-1.255-1.253-1.536-1.651-.093-.138-.143-.1 1.305-.941l.543-.318.768.766c1.373 1.378 2.846 2.188 4.73 2.611.556.119.825.144 1.848.144.655 0 1.21-.019 1.23-.038.025-.018-.075-.455-.213-.966l-.318-1.184-.069-.255-.88-.038c-1.66-.068-2.977-.591-4.212-1.676a6 6 0 0 1-.506-.492l-.125-.162 1.38-.798 1.385-.791 1.448 1.533 1.666-.343 1.667-.336 2.247-2.244-.2-.735c-.125-.468-.224-.73-.274-.73s-.556.125-1.13.281l-1.049.287-.437.424c-.474.46-.405.442-1.435.535l-.375.038-.449-.442a6 6 0 0 1-.456-.462c0-.018-.068-.28-.15-.592l-.15-.567.407-.542c.224-.305.418-.555.43-.567.006-.012.275-.093.6-.174l.58-.15.792-.791c.444-.437.8-.823.8-.86s-.238-.3-.525-.586l-.524-.517-1.517.41-1.523.412-.312.324c-.168.181-.524.567-.78.86-.256.287-.58.654-.718.81-.53.599-.512.418-.18 1.552.155.555.28 1.022.268 1.028-.032.025-1.324.78-2.123 1.228-.3.168-.567.305-.605.305-.031 0-.125-.262-.206-.58-.131-.492-.15-.716-.15-1.632.006-.966.019-1.116.181-1.683.337-1.196.918-2.2 1.754-3.034 1.149-1.147 2.659-1.851 4.194-1.957.65-.05.6 0 .706-.68.037-.242.093-.548.124-.685.032-.137.07-.361.088-.498.025-.137.056-.343.075-.455l.037-.2-.643.013c-.355 0-.749.018-.867.031"/></g><defs><linearGradient id="a" x1="20" x2="20" y1="0" y2="40" gradientUnits="userSpaceOnUse"><stop stop-color="#072c13"/><stop offset="1" stop-color="#041c0b"/></linearGradient><filter id="b" width="36" height="36" x="2" y="2" color-interpolation-filters="sRGB" filterUnits="userSpaceOnUse"><feFlood flood-opacity="0" result="BackgroundImageFix"/><feColorMatrix in="SourceAlpha" result="hardAlpha" values="0 0 0 0 0 0 0 0 0 0 0 0 0 0 0 0 0 0 127 0"/><feOffset/><feGaussianBlur stdDeviation="2"/><feComposite in2="hardAlpha" operator="out"/><feColorMatrix values="0 0 0 0 0 0 0 0 0 0 0 0 0 0 0 0 0 0 0.25 0"/><feBlend in2="BackgroundImageFix" result="effect1_dropShadow_2_1401"/><feBlend in="SourceGraphic" in2="effect1_dropShadow_2_1401" result="shape"/></filter></defs></svg>