<svg xmlns="http://www.w3.org/2000/svg" width="40" height="40" fill="none" viewBox="0 0 40 40"><g clip-path="url(#a)"><rect width="40" height="40" fill="url(#b)" rx="8"/><g filter="url(#c)"><path fill="url(#d)" stroke="#544125" stroke-width=".95" d="m18.81 5.547 3.5 1.111.288.091.04.3 1.166 8.887.008.066-.01.066-.583 3.888-.079.528-.515-.14-4.084-1.11-.432-.119.093-.438.566-2.698-.407-3.096-2.214 3.376-.14.214h-1.68l-.141-.214-2.216-3.376-.406 3.099.567 2.695.092.438-.433.119-4.082 1.11-.516.14-.08-.528-.582-3.888-.01-.066.009-.066 1.166-8.887.04-.3.288-.09 3.499-1.112.268-.085.204.194 3.172 3.02 3.172-3.02.204-.194z"/><circle cx="18.75" cy="9.75" r="1.25" fill="#000"/><circle cx="11.749" cy="9.75" r="1.25" fill="#000"/><path fill="url(#e)" stroke="#959595" stroke-width=".95" d="m21.435 34.453-3.427-1.088-.287-.092-.04-.298-1.142-8.7-.009-.067.01-.066.571-3.806.08-.528.515.14 3.997 1.087.433.117-.093.439-.554 2.64.395 3.002 2.153-3.28.14-.216h1.655l.14.215 2.155 3.281.395-3.004-.555-2.638-.093-.439.433-.117 3.998-1.088.514-.14.08.529.57 3.806.01.066-.008.066-1.142 8.7-.04.3-.287.091-3.427 1.088-.267.085-.204-.194-3.1-2.95-3.098 2.95-.204.194z"/></g></g><rect width="37.9" height="37.9" x="1.05" y="1.05" stroke="#fff" stroke-opacity=".15" stroke-width="2.1" rx="6.95"/><defs><linearGradient id="b" x1="20" x2="20" y1="0" y2="40" gradientUnits="userSpaceOnUse"><stop stop-color="#2c2a07"/><stop offset="1" stop-color="#1c1604"/></linearGradient><linearGradient id="d" x1="15.166" x2="15.166" y1="6" y2="19.886" gradientUnits="userSpaceOnUse"><stop stop-color="#fff500"/><stop offset="1" stop-color="#d7a700"/></linearGradient><linearGradient id="e" x1="25.005" x2="25.005" y1="34" y2="20.406" gradientUnits="userSpaceOnUse"><stop stop-color="#111000"/><stop offset="1" stop-color="#161100"/></linearGradient><clipPath id="a"><rect width="40" height="40" fill="#fff" rx="8"/></clipPath><filter id="c" width="36" height="38.151" x="2" y=".925" color-interpolation-filters="sRGB" filterUnits="userSpaceOnUse"><feFlood flood-opacity="0" result="BackgroundImageFix"/><feColorMatrix in="SourceAlpha" result="hardAlpha" values="0 0 0 0 0 0 0 0 0 0 0 0 0 0 0 0 0 0 127 0"/><feOffset/><feGaussianBlur stdDeviation="2"/><feComposite in2="hardAlpha" operator="out"/><feColorMatrix values="0 0 0 0 0 0 0 0 0 0 0 0 0 0 0 0 0 0 0.25 0"/><feBlend in2="BackgroundImageFix" result="effect1_dropShadow_2_1431"/><feBlend in="SourceGraphic" in2="effect1_dropShadow_2_1431" result="shape"/></filter></defs></svg>