<svg xmlns="http://www.w3.org/2000/svg" width="40" height="40" fill="none" viewBox="0 0 40 40"><rect width="40" height="40" fill="url(#a)" rx="8"/><rect width="37.9" height="37.9" x="1.05" y="1.05" stroke="#fff" stroke-opacity=".15" stroke-width="2.1" rx="6.95"/><g filter="url(#b)"><path fill="url(#c)" d="M6 20c0 7.732 6.268 14 14 14s14-6.268 14-14S27.732 6 20 6 6 12.268 6 20"/><path fill="#fff" d="M16.703 18.217c-.629-.848-1.867-1.405-3.022-1.405-1.907 0-3.681 1.143-3.681 4.282v5.262c0 .357.296.644.662.644.365 0 .662-.29.662-.644v-5.262c-.001-2.385 1.178-2.992 2.357-2.992s2.358.956 2.358 2.57v5.684c0 .357.296.644.662.644h.005a.65.65 0 0 0 .662-.644v-5.684c0-1.614 1.179-2.57 2.358-2.57.748 0 2.357.324 2.357 2.57l.045 1.91c0 3.527 2.425 4.418 3.969 4.418s3.856-1.04 3.903-4.16v-4.995c0-.859-1.327-.859-1.327 0v4.994c0 2.368-1.804 2.872-2.576 2.872s-2.646-.355-2.646-3.129l-.044-1.804c0-2.676-1.72-4.073-3.681-4.073-1.155 0-2.395.665-3.023 1.513m6.603-3.236c0-1.291.974-2.69 2.66-2.69 1.684 0 2.655 1.399 2.655 2.69a.666.666 0 0 0 1.326 0c0-2.26-1.746-3.982-3.982-3.982s-3.982 1.722-3.982 3.982a.664.664 0 0 0 1.323 0"/><path fill="#fff" d="M26.966 15.018a.863.863 0 0 0-.873-.852.863.863 0 0 0-.873.852c0 .471.39.852.873.852a.863.863 0 0 0 .873-.852"/></g><defs><linearGradient id="a" x1="20" x2="20" y1="0" y2="40" gradientUnits="userSpaceOnUse"><stop stop-color="#170b3f"/><stop offset="1" stop-color="#0f0729"/></linearGradient><linearGradient id="c" x1="20" x2="20" y1="6" y2="34" gradientUnits="userSpaceOnUse"><stop stop-color="#5529e5"/><stop offset="1" stop-color="#0f0239"/></linearGradient><filter id="b" width="36" height="36" x="2" y="2" color-interpolation-filters="sRGB" filterUnits="userSpaceOnUse"><feFlood flood-opacity="0" result="BackgroundImageFix"/><feColorMatrix in="SourceAlpha" result="hardAlpha" values="0 0 0 0 0 0 0 0 0 0 0 0 0 0 0 0 0 0 127 0"/><feOffset/><feGaussianBlur stdDeviation="2"/><feComposite in2="hardAlpha" operator="out"/><feColorMatrix values="0 0 0 0 0 0 0 0 0 0 0 0 0 0 0 0 0 0 0.25 0"/><feBlend in2="BackgroundImageFix" result="effect1_dropShadow_2_1640"/><feBlend in="SourceGraphic" in2="effect1_dropShadow_2_1640" result="shape"/></filter></defs></svg>