<svg xmlns="http://www.w3.org/2000/svg" width="40" height="40" fill="none" viewBox="0 0 40 40"><rect width="40" height="40" fill="url(#a)" rx="8"/><rect width="37.9" height="37.9" x="1.05" y="1.05" stroke="#fff" stroke-opacity=".15" stroke-width="2.1" rx="6.95"/><g filter="url(#b)"><path fill="#fefefe" d="M26.003 6.651a6.7 6.7 0 0 1 1.532-.645c.132-.022.264.022.392.053.664.21 1.254.593 1.83.976a17.6 17.6 0 0 1 2.306 1.895c.084.075.166.154.235.245l-.248-.029c-.615-.066-1.22.122-1.78.358a8 8 0 0 0-1.986 1.315c-.135.075-.223.207-.336.308-.141.13-.266.278-.425.387a6.4 6.4 0 0 1-.628.656c-.2.282-.43.542-.644.813-.203.274-.394.556-.596.83a1.4 1.4 0 0 0-.12.21c-.236.291-.407.63-.586.958-.059.156-.18.293-.178.468.207.088.399.205.598.31q.51.26 1.006.544c-.204.12-.438.172-.648.28-.261.076-.5.207-.76.284-.326.145-.666.255-.993.397-.434.154-.855.341-1.287.501-.58.223-1.15.47-1.74.662-.106-.11-.095-.28-.13-.418-.107-.302-.18-.614-.262-.923-.036-.124-.074-.247-.093-.376l-.053-.079c-.025-.25-.128-.481-.174-.726-.032-.17-.11-.328-.127-.501l-.04-.065c-.025-.214-.105-.415-.157-.623a59 59 0 0 0-.403-1.507c-.044-.216-.121-.425-.15-.644.153.02.272.119.402.191.227.095.431.234.654.338.13.057.242.154.385.181.436-.997.913-1.978 1.485-2.905q.037-.069.068-.14c.154-.185.265-.4.405-.594.188-.263.37-.53.585-.774.156-.179.295-.372.463-.54l.335-.337q.465-.436.995-.787c.292-.179.568-.383.868-.547"/><path fill="#f9a332" d="M17.08 7.635c.907-.226 1.84-.32 2.772-.35 1.453-.003 2.918.205 4.288.7l-.336.337c-.167.168-.306.361-.462.54-.214.243-.397.511-.585.775-.14.194-.252.408-.405.593q-.031.072-.068.14c-.572.927-1.05 1.909-1.485 2.906-.143-.028-.255-.125-.385-.182-.223-.104-.427-.242-.654-.338-.13-.072-.25-.17-.401-.19.027.218.105.427.149.643q.21.75.403 1.508c.052.207.132.408.156.622l.041.065c.017.173.094.33.126.5.047.246.15.477.175.727l.053.08c.018.128.057.251.093.376.081.308.155.62.262.922.035.139.024.308.13.418.59-.192 1.16-.439 1.74-.662.432-.16.853-.347 1.287-.5.327-.143.667-.253.992-.398.26-.077.5-.208.76-.284.21-.107.444-.16.649-.28q-.497-.284-1.007-.544c-.198-.105-.39-.222-.597-.31-.003-.175.119-.312.178-.468.18-.328.35-.667.585-.958.036-.073.073-.145.12-.21.203-.274.394-.556.597-.83.213-.271.443-.531.643-.813q.338-.305.629-.656c.159-.108.283-.257.425-.387.113-.101.2-.233.336-.308q.116-.107.24-.207c.43.315.753.746 1.112 1.135.137.139.242.303.372.447.265.369.536.734.76 1.13.141.197.249.414.368.624.091.168.143.357.254.514a12.3 12.3 0 0 1 1.09 3.52c.14.893.156 1.8.12 2.7a12.2 12.2 0 0 1-.646 3.284c-.987-1.003-2.192-1.759-3.428-2.415-.296-.172-.612-.303-.917-.459a10 10 0 0 0-.8-.366c-.057-.018-.069-.076-.081-.126l.104-.08c.1-.293.284-.549.413-.83.062-.148.166-.274.218-.428a.7.7 0 0 0-.278.043c-1.521.404-3.043.817-4.562 1.23-.346.068-.678.199-1.024.27q.039.179.099.355c.134.306.23.627.367.932.12.311.23.627.363.932.412 1.09.854 2.168 1.26 3.26.132-.147.197-.337.298-.505.2-.366.394-.735.592-1.103.07.008.142.015.204.052.183.1.378.176.551.293a.6.6 0 0 0 .194.08c.214.183.474.298.693.473.477.308.926.657 1.358 1.025.193.136.344.324.544.452.08.106.172.202.268.294.127.12.238.258.385.357.17.232.378.434.561.656-.077.176-.237.286-.365.422-.366.419-.817.748-1.239 1.107-.177.161-.39.274-.581.418-.455.341-.95.622-1.46.87a12.4 12.4 0 0 1-4.85 1.322c-.433.048-.871.017-1.306.024a13 13 0 0 1-3.185-.541c-.128-.038-.26-.07-.378-.135a10 10 0 0 0 1.061-1.285q.058-.084.122-.163l.027-.092c.169-.14.254-.347.38-.52.122-.172.193-.373.314-.545.194-.322.357-.664.554-.984.053-.182.165-.339.229-.517.13-.234.24-.478.343-.725l.072-.025.029-.246c.175.013.32.116.474.192.331.17.648.371.987.524-.003-.276-.116-.53-.178-.795-.189-.692-.36-1.388-.555-2.077a1 1 0 0 0-.077-.202c-.068-.407-.214-.796-.297-1.2-.082-.186-.099-.391-.157-.584a13 13 0 0 1-.263-1.01c-.184-.028-.33.102-.498.152-.318.106-.623.247-.938.36-.268.113-.545.2-.811.317a2 2 0 0 1-.243.088c-.317.142-.649.244-.966.383-.312.114-.623.227-.927.363-.264.1-.534.19-.789.314l-.217.06-.015.126q.766.396 1.52.814c-.008.065-.01.134-.044.194-.205.386-.392.783-.643 1.142a18 18 0 0 1-1.27 1.717c-.193.23-.41.44-.596.674a5 5 0 0 0-.649.645c-.144.095-.266.218-.397.33-.252-.232-.492-.477-.734-.72a19 19 0 0 1-1.227-1.546c-.107-.197-.263-.363-.363-.564-.13-.274-.305-.525-.448-.793a3 3 0 0 0-.272-.601c-.13-.267-.227-.548-.338-.823.066-.03.04-.108.017-.156a.4.4 0 0 0-.037.142 2.3 2.3 0 0 0-.116-.385 12.3 12.3 0 0 1-.498-2.18c-.04-.295-.092-.59-.085-.89a11 11 0 0 1-.001-1.673c.013-.133-.016-.282.034-.401l.018.006.016.03c-.006-.057-.015-.113-.013-.169.058-.51.138-1.02.26-1.52.062-.286.157-.563.226-.847l.076-.028c.301.3.616.588.955.845.263.184.514.383.777.566a22.6 22.6 0 0 0 2.92 1.593c.174.096.38.134.534.266a.15.15 0 0 1-.016.099c-.174.314-.34.632-.51.949a2 2 0 0 0-.168.35c.228.014.437-.086.658-.125.2-.04.384-.134.587-.157 1.064-.302 2.134-.58 3.2-.866.258-.05.502-.154.762-.19q.035-.029.071-.054c.204-.004.385-.113.587-.129-.118-.404-.3-.784-.44-1.181-.294-.744-.579-1.492-.865-2.24-.092-.187-.142-.392-.24-.576-.15-.454-.342-.892-.51-1.34-.018-.046-.04-.136-.11-.094-.056.075-.093.162-.134.246-.091.192-.213.37-.285.572-.159.223-.27.476-.399.717-.189.004-.352-.097-.513-.183-.755-.376-1.431-.886-2.103-1.39-.27-.226-.549-.438-.806-.677-.516-.5-1.034-1-1.48-1.564.198-.255.44-.469.66-.704.234-.218.46-.448.716-.641.309-.223.575-.503.905-.696.401-.259.783-.556 1.225-.745.479-.288 1-.495 1.518-.705.496-.18 1.001-.341 1.516-.463"/><path fill="#9d6b36" d="M9.141 7.881c.254-.084.524-.075.788-.074.285.008.574-.024.856.04a6.3 6.3 0 0 1 1.567.338c.389.126.78.251 1.154.417.176.077.35.166.541.2-.442.19-.824.487-1.225.746-.33.193-.596.473-.904.696-.257.193-.483.422-.717.64-.22.236-.461.45-.66.705-.66-.839-1.241-1.796-1.391-2.872-.042-.27 0-.544-.006-.815z"/><path fill="#fefefe" d="M6.587 11.14c.71-1.184 1.59-2.257 2.557-3.238.006.27-.036.545.006.815.15 1.077.73 2.033 1.392 2.872.445.564.963 1.065 1.48 1.564.257.239.536.451.805.676.672.505 1.348 1.015 2.103 1.39.16.087.324.188.514.184.128-.241.24-.494.398-.717.072-.202.194-.38.285-.572.041-.084.078-.17.135-.246.07-.042.09.048.11.095.167.447.359.885.51 1.339.097.184.147.389.239.577.286.747.571 1.495.866 2.239.139.397.321.777.439 1.181-.202.016-.383.125-.587.129l-.07.053c-.26.037-.505.14-.762.191-1.067.287-2.137.564-3.2.865-.204.024-.388.119-.588.158-.22.039-.43.139-.658.125.042-.123.102-.239.169-.35.169-.317.335-.635.509-.95a.16.16 0 0 0 .016-.098c-.155-.132-.36-.17-.535-.266a23 23 0 0 1-2.919-1.593c-.263-.183-.514-.382-.777-.566a9 9 0 0 1-1.034-.929 7.5 7.5 0 0 1-.92-1.21 7.3 7.3 0 0 1-1.063-2.192.6.6 0 0 1 .022-.281c.112-.444.336-.848.558-1.245"/><path fill="#9d6b36" d="M30.27 9.504c.56-.236 1.165-.424 1.78-.357.097.02.202.016.292.063.053.451.067.909.023 1.362-.029.71-.217 1.402-.454 2.068-.092.268-.177.54-.294.798-.105.244-.18.508-.33.73.036.098.076.194.103.294-.111-.157-.162-.346-.254-.514-.119-.21-.227-.427-.368-.624-.224-.396-.495-.761-.76-1.13-.13-.144-.235-.308-.372-.447-.358-.389-.68-.82-1.113-1.134a8 8 0 0 1 1.747-1.109M7.99 16.068l.08.084-.077.028c-.07.284-.164.561-.226.847-.122.5-.202 1.009-.26 1.52-.002.056.007.112.013.168l-.016-.029c-.049-.19.01-.381.03-.57.08-.697.266-1.375.456-2.048"/><path fill="#fefefe" d="M27.185 19.305a.7.7 0 0 1 .278-.043c-.052.153-.156.28-.218.428-.13.28-.313.537-.413.83l-.104.08c.012.05.024.108.081.125q.409.165.8.367c.305.155.621.287.917.459 1.236.656 2.441 1.412 3.428 2.415.358.38.684.79.958 1.236.45.645.822 1.35 1.05 2.104.094.247-.009.509-.09.744-.278.7-.7 1.33-1.13 1.941-.435.59-.889 1.167-1.395 1.696q-.202.211-.4.429a.3.3 0 0 1-.199.132c.034-.043.09-.072.1-.13.084-.61-.046-1.233-.283-1.797a7.6 7.6 0 0 0-1.229-1.963c-.183-.223-.39-.424-.561-.656-.147-.099-.258-.237-.385-.357a2.4 2.4 0 0 1-.268-.294c-.2-.128-.35-.316-.544-.452a13 13 0 0 0-1.358-1.026c-.22-.174-.48-.29-.693-.472a.6.6 0 0 1-.194-.08c-.173-.118-.369-.193-.55-.294-.063-.036-.135-.043-.205-.05q-.295.552-.592 1.102c-.1.168-.166.358-.298.505-.406-1.092-.848-2.17-1.26-3.26-.133-.305-.243-.62-.363-.932-.136-.305-.233-.626-.367-.932a4 4 0 0 1-.1-.356c.347-.07.679-.201 1.025-.268q2.28-.624 4.562-1.23m-8.646 2.437c.167-.05.313-.18.498-.153.076.34.16.678.263 1.01.058.193.074.398.157.584.083.404.229.794.296 1.2.03.066.059.133.077.203.195.69.367 1.385.556 2.076.061.265.174.52.178.796-.34-.153-.656-.354-.987-.524-.154-.076-.3-.179-.474-.192l-.03.246-.071.024a7 7 0 0 1-.344.726c-.063.178-.175.334-.229.516-.197.321-.36.662-.553.985-.121.172-.192.373-.314.544-.126.174-.212.38-.38.521q-.014.044-.027.092a3 3 0 0 0-.122.163c-.312.46-.677.884-1.061 1.285-.325.308-.659.61-1.032.86-.5.332-.999.673-1.547.922-.333.15-.674.293-1.03.373-.23.004-.447-.082-.658-.163a9 9 0 0 1-1.549-.884 17.6 17.6 0 0 1-2.523-2.108c.268.014.538.051.804.003.472-.05.924-.206 1.35-.409.642-.301 1.222-.718 1.767-1.169.13-.112.253-.235.397-.33.193-.236.414-.451.648-.646.187-.234.403-.444.597-.673.459-.545.877-1.122 1.27-1.717.25-.359.438-.757.642-1.143.034-.06.036-.128.045-.193q-.756-.417-1.52-.814c.004-.031.01-.094.015-.125l.217-.061c.255-.124.525-.213.79-.315.302-.135.614-.248.925-.363.318-.139.65-.24.967-.383q.124-.036.243-.088c.266-.116.543-.203.81-.316.316-.113.62-.254.939-.36"/><path fill="#9d6b36" d="M8.51 25.046c.111.19.207.39.272.601.143.268.318.518.448.793.1.201.257.367.364.564.384.534.788 1.055 1.226 1.546.242.243.483.487.734.72-.545.45-1.124.868-1.766 1.17-.427.202-.879.358-1.35.408-.267.049-.536.011-.804-.003l-.026-.001c-.094-.497-.077-1.007-.037-1.508.044-.728.243-1.435.498-2.115.176-.56.421-1.095.67-1.623-.053-.191-.189-.354-.23-.552m20.463 3.734c.127-.136.287-.246.364-.422.5.59.931 1.247 1.23 1.963.236.564.366 1.187.283 1.798-.011.057-.067.086-.1.13l-.012.011c-.366.028-.734.058-1.101.024a2.7 2.7 0 0 1-.604-.059c-.463-.036-.915-.157-1.355-.302a7 7 0 0 1-.931-.337c-.204-.061-.398-.152-.596-.23-.15-.07-.292-.159-.459-.18a9 9 0 0 0 1.46-.87c.19-.145.404-.258.582-.42.421-.358.872-.687 1.238-1.106"/></g><defs><linearGradient id="a" x1="20" x2="20" y1="0" y2="40" gradientUnits="userSpaceOnUse"><stop stop-color="#301f09"/><stop offset="1" stop-color="#20150a"/></linearGradient><filter id="b" width="36" height="36" x="2" y="2" color-interpolation-filters="sRGB" filterUnits="userSpaceOnUse"><feFlood flood-opacity="0" result="BackgroundImageFix"/><feColorMatrix in="SourceAlpha" result="hardAlpha" values="0 0 0 0 0 0 0 0 0 0 0 0 0 0 0 0 0 0 127 0"/><feOffset/><feGaussianBlur stdDeviation="2"/><feComposite in2="hardAlpha" operator="out"/><feColorMatrix values="0 0 0 0 0 0 0 0 0 0 0 0 0 0 0 0 0 0 0.25 0"/><feBlend in2="BackgroundImageFix" result="effect1_dropShadow_2_1415"/><feBlend in="SourceGraphic" in2="effect1_dropShadow_2_1415" result="shape"/></filter></defs></svg>