<svg xmlns="http://www.w3.org/2000/svg" width="40" height="40" fill="none" viewBox="0 0 40 40"><rect width="40" height="40" fill="url(#a)" rx="8"/><rect width="37.9" height="37.9" x="1.05" y="1.05" stroke="#fff" stroke-opacity=".15" stroke-width="2.1" rx="6.95"/><g filter="url(#b)"><path fill="#fff" d="M9 30.5a.5.5 0 0 0 .5.5h10a.5.5 0 0 0 .5-.5V15a.5.5 0 0 1 .5-.5H25a.5.5 0 0 1 .5.5v15.5a.5.5 0 0 0 .5.5h4.5a.5.5 0 0 0 .5-.5v-21a.5.5 0 0 0-.5-.5h-21a.5.5 0 0 0-.5.5z"/></g><defs><linearGradient id="a" x1="20" x2="20" y1="0" y2="40" gradientUnits="userSpaceOnUse"><stop stop-color="#310d0d"/><stop offset="1" stop-color="#220909"/></linearGradient><filter id="b" width="36" height="36" x="2" y="2" color-interpolation-filters="sRGB" filterUnits="userSpaceOnUse"><feFlood flood-opacity="0" result="BackgroundImageFix"/><feColorMatrix in="SourceAlpha" result="hardAlpha" values="0 0 0 0 0 0 0 0 0 0 0 0 0 0 0 0 0 0 127 0"/><feOffset/><feGaussianBlur stdDeviation="2"/><feComposite in2="hardAlpha" operator="out"/><feColorMatrix values="0 0 0 0 0 0 0 0 0 0 0 0 0 0 0 0 0 0 0.25 0"/><feBlend in2="BackgroundImageFix" result="effect1_dropShadow_2_1318"/><feBlend in="SourceGraphic" in2="effect1_dropShadow_2_1318" result="shape"/></filter></defs></svg>