<svg xmlns="http://www.w3.org/2000/svg" width="40" height="40" fill="none" viewBox="0 0 40 40"><rect width="40" height="40" fill="url(#a)" rx="8"/><rect width="37.9" height="37.9" x="1.05" y="1.05" stroke="#fff" stroke-opacity=".15" stroke-width="2.1" rx="6.95"/><g filter="url(#b)"><path fill="#05bbab" d="m10.714 23.362 6.367-.595.567-4.001c-2.338 1.406-4.338 1.655-7.083 1.655v-9.106c4.177 0 8.774 1.418 7.79 6.485l3.259-2.346c-.983-5.062-4.104-7.45-9.35-7.45-1.443 0-4.336-.1-5.264.809v21.823c0 1.819 3.714 1.819 3.714 0z"/><path fill="#fbfbfb" fill-rule="evenodd" d="M23.314 15.01c-11.399 2.133-8.257 18.235 3.116 16.388 10.66-1.73 7.429-18.362-3.116-16.388m.283 3.319c-6.9 1.555-4.19 11.618 2.55 9.689 5.998-1.718 3.538-11.062-2.55-9.69" clip-rule="evenodd"/></g><defs><linearGradient id="a" x1="20" x2="20" y1="0" y2="40" gradientUnits="userSpaceOnUse"><stop stop-color="#012d29"/><stop offset="1" stop-color="#242424"/></linearGradient><filter id="b" width="36" height="36" x="2" y="2" color-interpolation-filters="sRGB" filterUnits="userSpaceOnUse"><feFlood flood-opacity="0" result="BackgroundImageFix"/><feColorMatrix in="SourceAlpha" result="hardAlpha" values="0 0 0 0 0 0 0 0 0 0 0 0 0 0 0 0 0 0 127 0"/><feOffset/><feGaussianBlur stdDeviation="2"/><feComposite in2="hardAlpha" operator="out"/><feColorMatrix values="0 0 0 0 0 0 0 0 0 0 0 0 0 0 0 0 0 0 0.25 0"/><feBlend in2="BackgroundImageFix" result="effect1_dropShadow_2_1597"/><feBlend in="SourceGraphic" in2="effect1_dropShadow_2_1597" result="shape"/></filter></defs></svg>