<svg xmlns="http://www.w3.org/2000/svg" width="40" height="40" fill="none" viewBox="0 0 40 40"><rect width="40" height="40" fill="url(#a)" rx="8"/><rect width="37.9" height="37.9" x="1.05" y="1.05" stroke="#fff" stroke-opacity=".15" stroke-width="2.1" rx="6.95"/><g filter="url(#b)"><path fill="#e9e9ff" stroke="#ccc" stroke-linejoin="bevel" stroke-width=".213" d="m14.035 15.424 3.979 1.526v4.929l-3.98-1.527z"/><path fill="#353564" stroke="#ccc" stroke-linejoin="bevel" stroke-width=".213" d="M9.997 16.973V21.9l4.038-1.549v-4.928z"/><path fill="#afafde" stroke="#ccc" stroke-linejoin="bevel" stroke-width=".213" d="m9.997 21.901 3.979 1.526 4.038-1.549-3.98-1.526z"/><path fill="#f7f7f4" stroke="#ccc" stroke-linejoin="bevel" stroke-width=".213" d="m9.997 16.972 3.979 1.526 4.038-1.548-3.98-1.526z"/><path fill="#fff" stroke="#ccc" stroke-linejoin="bevel" stroke-width=".213" d="M13.976 18.499v4.929l4.038-1.55V16.95z"/><path fill="#efeeea" stroke="#ccc" stroke-linejoin="bevel" stroke-width=".213" d="m9.997 16.973 3.979 1.526v4.929L9.996 21.9z"/><path fill="#e9e9ff" stroke="#ccc" stroke-linejoin="bevel" stroke-width=".213" d="m18.031 11.978 3.98 1.526v4.929l-3.98-1.526z"/><path fill="#353564" stroke="#ccc" stroke-linejoin="bevel" stroke-width=".213" d="M13.993 13.527v4.928l4.038-1.548v-4.93z"/><path fill="#afafde" stroke="#ccc" stroke-linejoin="bevel" stroke-width=".213" d="m13.993 18.455 3.98 1.526 4.037-1.549-3.979-1.526z"/><path fill="#f7f7f4" stroke="#ccc" stroke-linejoin="bevel" stroke-width=".213" d="m13.993 13.526 3.98 1.526 4.037-1.548-3.979-1.526z"/><path fill="#fff" stroke="#ccc" stroke-linejoin="bevel" stroke-width=".213" d="M17.972 15.053v4.929l4.038-1.55v-4.928z"/><path fill="#efeeea" stroke="#ccc" stroke-linejoin="bevel" stroke-width=".213" d="m13.993 13.527 3.98 1.526v4.929l-3.98-1.527z"/><path fill="#e9e9ff" stroke="#ccc" stroke-linejoin="bevel" stroke-width=".213" d="m10.038 21.933 3.98 1.526v4.929l-3.98-1.526z"/><path fill="#353564" stroke="#ccc" stroke-linejoin="bevel" stroke-width=".213" d="M6 23.482v4.929l4.038-1.55v-4.928z"/><path fill="#afafde" stroke="#ccc" stroke-linejoin="bevel" stroke-width=".213" d="m6 28.41 3.98 1.526 4.037-1.548-3.979-1.526z"/><path fill="#f7f7f4" stroke="#ccc" stroke-linejoin="bevel" stroke-width=".213" d="m6 23.481 3.98 1.526 4.037-1.548-3.979-1.526z"/><path fill="#fff" stroke="#ccc" stroke-linejoin="bevel" stroke-width=".213" d="M9.979 25.008v4.929l4.038-1.55V23.46z"/><path fill="#efeeea" stroke="#ccc" stroke-linejoin="bevel" stroke-width=".213" d="m6 23.482 3.98 1.526v4.929L6 28.41z"/><path fill="#e9e9ff" stroke="#ccc" stroke-linejoin="bevel" stroke-width=".213" d="m14.035 23.465 3.979 1.526v4.929l-3.98-1.527z"/><path fill="#353564" stroke="#ccc" stroke-linejoin="bevel" stroke-width=".213" d="M9.997 25.013v4.93l4.038-1.55v-4.928z"/><path fill="#afafde" stroke="#ccc" stroke-linejoin="bevel" stroke-width=".213" d="m9.997 29.942 3.979 1.526 4.038-1.549-3.98-1.526z"/><path fill="#f7f7f4" stroke="#ccc" stroke-linejoin="bevel" stroke-width=".213" d="m9.997 25.013 3.979 1.526 4.038-1.549-3.98-1.525z"/><path fill="#fff" stroke="#ccc" stroke-linejoin="bevel" stroke-width=".213" d="M13.976 26.54v4.929l4.038-1.55v-4.928z"/><path fill="#efeeea" stroke="#ccc" stroke-linejoin="bevel" stroke-width=".213" d="m9.997 25.014 3.979 1.526v4.929l-3.98-1.527z"/><path fill="#e9e9ff" stroke="#ccc" stroke-linejoin="bevel" stroke-width=".213" d="m14.035 18.487 3.979 1.526v4.929l-3.98-1.526z"/><path fill="#353564" stroke="#ccc" stroke-linejoin="bevel" stroke-width=".213" d="M9.997 20.036v4.929l4.038-1.55v-4.928z"/><path fill="#afafde" stroke="#ccc" stroke-linejoin="bevel" stroke-width=".213" d="m9.997 24.964 3.979 1.526 4.038-1.548-3.98-1.526z"/><path fill="#f7f7f4" stroke="#ccc" stroke-linejoin="bevel" stroke-width=".213" d="m9.997 20.036 3.979 1.525 4.038-1.548-3.98-1.526z"/><path fill="#fff" stroke="#ccc" stroke-linejoin="bevel" stroke-width=".213" d="M13.976 21.562v4.929l4.038-1.549v-4.929z"/><path fill="#efeeea" stroke="#ccc" stroke-linejoin="bevel" stroke-width=".213" d="m9.997 20.036 3.979 1.526v4.929l-3.98-1.526z"/><path fill="#e9e9ff" stroke="#ccc" stroke-linejoin="bevel" stroke-width=".213" d="M30.02 20.401 34 21.928v4.928l-3.98-1.526z"/><path fill="#353564" stroke="#ccc" stroke-linejoin="bevel" stroke-width=".213" d="M25.983 21.95v4.929l4.038-1.549v-4.929z"/><path fill="#afafde" stroke="#ccc" stroke-linejoin="bevel" stroke-width=".213" d="m25.983 26.879 3.98 1.526L34 26.856l-3.979-1.526z"/><path fill="#f7f7f4" stroke="#ccc" stroke-linejoin="bevel" stroke-width=".213" d="m25.983 21.95 3.98 1.526L34 21.927l-3.979-1.526z"/><path fill="#fff" stroke="#ccc" stroke-linejoin="bevel" stroke-width=".213" d="M29.962 23.477v4.928L34 26.856v-4.928z"/><path fill="#efeeea" stroke="#ccc" stroke-linejoin="bevel" stroke-width=".213" d="m25.983 21.95 3.98 1.527v4.929l-3.98-1.527z"/><path fill="#e9e9ff" stroke="#ccc" stroke-linejoin="bevel" stroke-width=".213" d="m26.023 21.933 3.98 1.526v4.929l-3.98-1.526z"/><path fill="#353564" stroke="#ccc" stroke-linejoin="bevel" stroke-width=".213" d="M21.985 23.482v4.929l4.038-1.55v-4.928z"/><path fill="#afafde" stroke="#ccc" stroke-linejoin="bevel" stroke-width=".213" d="m21.985 28.41 3.98 1.526 4.038-1.548-3.98-1.526z"/><path fill="#f7f7f4" stroke="#ccc" stroke-linejoin="bevel" stroke-width=".213" d="m21.985 23.481 3.98 1.526 4.038-1.548-3.98-1.526z"/><path fill="#ffd242" stroke="#ccc" stroke-linejoin="bevel" stroke-width=".213" d="M25.964 25.008v4.929l4.038-1.549v-4.929z"/><path fill="#efeeea" stroke="#ccc" stroke-linejoin="bevel" stroke-width=".213" d="m21.985 23.482 3.98 1.526v4.929l-3.98-1.526z"/><path fill="#fff" d="M28.496 27.377c.428-.165.775-.687.775-1.167s-.347-.737-.775-.572c-.429.164-.776.686-.776 1.167 0 .48.347.736.776.572"/><path fill="#e9e9ff" stroke="#ccc" stroke-linejoin="bevel" stroke-width=".213" d="m22.028 23.465 3.979 1.526v4.929l-3.98-1.527z"/><path fill="#353564" stroke="#ccc" stroke-linejoin="bevel" stroke-width=".213" d="M17.99 25.013v4.93l4.037-1.55v-4.928z"/><path fill="#afafde" stroke="#ccc" stroke-linejoin="bevel" stroke-width=".213" d="m17.99 29.942 3.978 1.526 4.038-1.549-3.979-1.526z"/><path fill="#f7f7f4" stroke="#ccc" stroke-linejoin="bevel" stroke-width=".213" d="m17.99 25.013 3.978 1.526 4.038-1.549-3.979-1.525z"/><path fill="#ffd242" stroke="#ccc" stroke-linejoin="bevel" stroke-width=".213" d="M21.969 26.54v4.929l4.038-1.55v-4.928z"/><path fill="#efeeea" stroke="#ccc" stroke-linejoin="bevel" stroke-width=".213" d="m17.99 25.014 3.978 1.526v4.929l-3.979-1.527z"/><path fill="#e9e9ff" stroke="#ccc" stroke-linejoin="bevel" stroke-width=".213" d="m18.031 24.996 3.98 1.527v4.928l-3.98-1.526z"/><path fill="#353564" stroke="#ccc" stroke-linejoin="bevel" stroke-width=".213" d="M13.993 26.545v4.929l4.038-1.55v-4.928z"/><path fill="#afafde" stroke="#ccc" stroke-linejoin="bevel" stroke-width=".213" d="M13.993 31.473 17.973 33l4.037-1.548-3.979-1.526z"/><path fill="#f7f7f4" stroke="#ccc" stroke-linejoin="bevel" stroke-width=".213" d="m13.993 26.545 3.98 1.526 4.037-1.549-3.979-1.526z"/><path fill="#fff" stroke="#ccc" stroke-linejoin="bevel" stroke-width=".213" d="M17.972 28.071v4.93l4.038-1.55v-4.928z"/><path fill="#efeeea" stroke="#ccc" stroke-linejoin="bevel" stroke-width=".213" d="m13.993 26.545 3.98 1.526v4.93l-3.98-1.527z"/><path fill="#e9e9ff" stroke="#ccc" stroke-linejoin="bevel" stroke-width=".213" d="M30.02 15.424 34 16.95v4.929l-3.98-1.526z"/><path fill="#353564" stroke="#ccc" stroke-linejoin="bevel" stroke-width=".213" d="M25.983 16.973v4.929l4.038-1.55v-4.928z"/><path fill="#afafde" stroke="#ccc" stroke-linejoin="bevel" stroke-width=".213" d="m25.983 21.901 3.98 1.526L34 21.88l-3.979-1.526z"/><path fill="#f7f7f4" stroke="#ccc" stroke-linejoin="bevel" stroke-width=".213" d="m25.983 16.973 3.98 1.526L34 16.949l-3.979-1.525z"/><path fill="#ffd242" stroke="#ccc" stroke-linejoin="bevel" stroke-width=".213" d="M29.962 18.499v4.929L34 21.878V16.95z"/><path fill="#efeeea" stroke="#ccc" stroke-linejoin="bevel" stroke-width=".213" d="m25.983 16.973 3.98 1.526v4.929l-3.98-1.527z"/><path fill="#e9e9ff" stroke="#ccc" stroke-linejoin="bevel" stroke-width=".213" d="M30.02 10.446 34 11.973V16.9l-3.98-1.526z"/><path fill="#353564" stroke="#ccc" stroke-linejoin="bevel" stroke-width=".213" d="M25.983 11.995v4.929l4.038-1.55v-4.928z"/><path fill="#afafde" stroke="#ccc" stroke-linejoin="bevel" stroke-width=".213" d="m25.983 16.924 3.98 1.526L34 16.9l-3.979-1.526z"/><path fill="#ffc91d" stroke="#ccc" stroke-linejoin="bevel" stroke-width=".213" d="m25.983 11.995 3.98 1.526L34 11.972l-3.979-1.526z"/><path fill="#ffd242" stroke="#ccc" stroke-linejoin="bevel" stroke-width=".213" d="M29.962 13.521v4.93L34 16.9v-4.928z"/><path fill="#efeeea" stroke="#ccc" stroke-linejoin="bevel" stroke-width=".213" d="m25.983 11.995 3.98 1.526v4.93l-3.98-1.527z"/><path fill="#e9e9ff" stroke="#ccc" stroke-linejoin="bevel" stroke-width=".213" d="m26.024 16.955 3.98 1.527v4.928l-3.98-1.526z"/><path fill="#353564" stroke="#ccc" stroke-linejoin="bevel" stroke-width=".213" d="M21.986 18.504v4.929l4.038-1.549v-4.929z"/><path fill="#afafde" stroke="#ccc" stroke-linejoin="bevel" stroke-width=".213" d="m21.986 23.433 3.979 1.526 4.038-1.549-3.98-1.526z"/><path fill="#f7f7f4" stroke="#ccc" stroke-linejoin="bevel" stroke-width=".213" d="m21.986 18.504 3.979 1.526 4.038-1.549-3.98-1.526z"/><path fill="#ffd242" stroke="#ccc" stroke-linejoin="bevel" stroke-width=".213" d="M25.965 20.03v4.93l4.038-1.55v-4.928z"/><path fill="#efeeea" stroke="#ccc" stroke-linejoin="bevel" stroke-width=".213" d="m21.986 18.504 3.979 1.527v4.928l-3.98-1.526z"/><path fill="#e9e9ff" stroke="#ccc" stroke-linejoin="bevel" stroke-width=".213" d="m26.024 11.978 3.98 1.526v4.929l-3.98-1.526z"/><path fill="#353564" stroke="#ccc" stroke-linejoin="bevel" stroke-width=".213" d="M21.986 13.527v4.929l4.038-1.55v-4.928z"/><path fill="#afafde" stroke="#ccc" stroke-linejoin="bevel" stroke-width=".213" d="m21.986 18.455 3.979 1.526 4.038-1.549-3.98-1.525z"/><path fill="#f7f7f4" stroke="#ccc" stroke-linejoin="bevel" stroke-width=".213" d="m21.986 13.526 3.979 1.526 4.038-1.548-3.98-1.526z"/><path fill="#3775a9" stroke="#ccc" stroke-linejoin="bevel" stroke-width=".213" d="M25.965 15.053v4.929l4.038-1.55v-4.928z"/><path fill="#efeeea" stroke="#ccc" stroke-linejoin="bevel" stroke-width=".213" d="m21.986 13.527 3.979 1.526v4.929l-3.98-1.526z"/><path fill="#e9e9ff" stroke="#ccc" stroke-linejoin="bevel" stroke-width=".213" d="m26.024 7 3.98 1.526v4.93l-3.98-1.527z"/><path fill="#353564" stroke="#ccc" stroke-linejoin="bevel" stroke-width=".213" d="M21.986 8.549v4.929l4.038-1.55V7z"/><path fill="#afafde" stroke="#ccc" stroke-linejoin="bevel" stroke-width=".213" d="m21.986 13.477 3.979 1.526 4.038-1.548-3.98-1.526z"/><path fill="#2f6491" stroke="#ccc" stroke-linejoin="bevel" stroke-width=".213" d="m21.986 8.549 3.979 1.526 4.038-1.549L26.023 7z"/><path fill="#3775a9" stroke="#ccc" stroke-linejoin="bevel" stroke-width=".213" d="M25.965 10.075v4.93l4.038-1.55V8.526z"/><path fill="#efeeea" stroke="#ccc" stroke-linejoin="bevel" stroke-width=".213" d="m21.986 8.55 3.979 1.525v4.93l-3.98-1.527z"/><path fill="#e9e9ff" stroke="#ccc" stroke-linejoin="bevel" stroke-width=".213" d="m22.028 18.487 3.979 1.526v4.929l-3.98-1.526z"/><path fill="#353564" stroke="#ccc" stroke-linejoin="bevel" stroke-width=".213" d="M17.99 20.036v4.929l4.037-1.55v-4.928z"/><path fill="#afafde" stroke="#ccc" stroke-linejoin="bevel" stroke-width=".213" d="m17.99 24.964 3.978 1.526 4.038-1.548-3.979-1.526z"/><path fill="#f7f7f4" stroke="#ccc" stroke-linejoin="bevel" stroke-width=".213" d="m17.99 20.036 3.978 1.525 4.038-1.548-3.979-1.526z"/><path fill="#ffd242" stroke="#ccc" stroke-linejoin="bevel" stroke-width=".213" d="M21.969 21.562v4.929l4.038-1.549v-4.929z"/><path fill="#efeeea" stroke="#ccc" stroke-linejoin="bevel" stroke-width=".213" d="m17.99 20.036 3.978 1.526v4.929l-3.979-1.526z"/><path fill="#e9e9ff" stroke="#ccc" stroke-linejoin="bevel" stroke-width=".213" d="m22.028 13.51 3.979 1.526v4.929l-3.98-1.527z"/><path fill="#353564" stroke="#ccc" stroke-linejoin="bevel" stroke-width=".213" d="M17.99 15.058v4.93l4.037-1.55V13.51z"/><path fill="#afafde" stroke="#ccc" stroke-linejoin="bevel" stroke-width=".213" d="m17.99 19.987 3.978 1.526 4.038-1.549-3.979-1.526z"/><path fill="#f7f7f4" stroke="#ccc" stroke-linejoin="bevel" stroke-width=".213" d="m17.99 15.058 3.978 1.526 4.038-1.549-3.979-1.526z"/><path fill="#3775a9" stroke="#ccc" stroke-linejoin="bevel" stroke-width=".213" d="M21.969 16.585v4.928l4.038-1.549v-4.928z"/><path fill="#efeeea" stroke="#ccc" stroke-linejoin="bevel" stroke-width=".213" d="m17.99 15.058 3.978 1.526v4.93l-3.979-1.527z"/><path fill="#e9e9ff" stroke="#ccc" stroke-linejoin="bevel" stroke-width=".213" d="m18.031 20.019 3.98 1.526v4.929l-3.98-1.527z"/><path fill="#353564" stroke="#ccc" stroke-linejoin="bevel" stroke-width=".213" d="M13.993 21.568v4.928l4.038-1.549V20.02z"/><path fill="#afafde" stroke="#ccc" stroke-linejoin="bevel" stroke-width=".213" d="m13.993 26.496 3.98 1.526 4.037-1.549-3.979-1.526z"/><path fill="#f7f7f4" stroke="#ccc" stroke-linejoin="bevel" stroke-width=".213" d="m13.993 21.567 3.98 1.526 4.037-1.549-3.979-1.525z"/><path fill="#3775a9" stroke="#ccc" stroke-linejoin="bevel" stroke-width=".213" d="M17.972 23.094v4.929l4.038-1.55v-4.928z"/><path fill="#2f6491" stroke="#ccc" stroke-linejoin="bevel" stroke-width=".213" d="m13.993 21.568 3.98 1.526v4.929l-3.98-1.527z"/><path fill="#e9e9ff" stroke="#ccc" stroke-linejoin="bevel" stroke-width=".213" d="m18.031 15.04 3.98 1.527v4.929l-3.98-1.526z"/><path fill="#353564" stroke="#ccc" stroke-linejoin="bevel" stroke-width=".213" d="M13.993 16.59v4.929l4.038-1.55v-4.928z"/><path fill="#afafde" stroke="#ccc" stroke-linejoin="bevel" stroke-width=".213" d="m13.993 21.518 3.98 1.526 4.037-1.548-3.979-1.526z"/><path fill="#2f6491" stroke="#ccc" stroke-linejoin="bevel" stroke-width=".213" d="m13.993 16.59 3.98 1.526 4.037-1.55-3.979-1.525z"/><path fill="#3775a9" stroke="#ccc" stroke-linejoin="bevel" stroke-width=".213" d="M17.972 18.116v4.929l4.038-1.549v-4.929z"/><path fill="#2f6491" stroke="#ccc" stroke-linejoin="bevel" stroke-width=".213" d="m13.993 16.59 3.98 1.526v4.929l-3.98-1.526z"/><path fill="#e9e9ff" stroke="#ccc" stroke-linejoin="bevel" stroke-width=".213" d="m22.028 8.532 3.979 1.526v4.929l-3.98-1.527z"/><path fill="#353564" stroke="#ccc" stroke-linejoin="bevel" stroke-width=".213" d="M17.99 10.08v4.93l4.037-1.55V8.532z"/><path fill="#afafde" stroke="#ccc" stroke-linejoin="bevel" stroke-width=".213" d="m17.99 15.009 3.978 1.526 4.038-1.549-3.979-1.526z"/><path fill="#2f6491" stroke="#ccc" stroke-linejoin="bevel" stroke-width=".213" d="m17.99 10.08 3.978 1.526 4.038-1.548-3.979-1.526z"/><path fill="#3775a9" stroke="#ccc" stroke-linejoin="bevel" stroke-width=".213" d="M21.969 11.607v4.929l4.038-1.55v-4.928z"/><path fill="#2f6491" stroke="#ccc" stroke-linejoin="bevel" stroke-width=".213" d="m17.99 10.08 3.978 1.527v4.929l-3.979-1.527z"/><path fill="#fff" d="M23.476 14.357c.428-.164.775-.687.775-1.167s-.347-.737-.775-.572c-.429.164-.776.686-.776 1.167 0 .48.347.736.776.572"/></g><defs><linearGradient id="a" x1="20" x2="20" y1="0" y2="40" gradientUnits="userSpaceOnUse"><stop stop-color="#001f31"/><stop offset="1" stop-color="#00121d"/></linearGradient><filter id="b" width="36.213" height="36" x="1.894" y="2" color-interpolation-filters="sRGB" filterUnits="userSpaceOnUse"><feFlood flood-opacity="0" result="BackgroundImageFix"/><feColorMatrix in="SourceAlpha" result="hardAlpha" values="0 0 0 0 0 0 0 0 0 0 0 0 0 0 0 0 0 0 127 0"/><feOffset/><feGaussianBlur stdDeviation="2"/><feComposite in2="hardAlpha" operator="out"/><feColorMatrix values="0 0 0 0 0 0 0 0 0 0 0 0 0 0 0 0 0 0 0.25 0"/><feBlend in2="BackgroundImageFix" result="effect1_dropShadow_2_1444"/><feBlend in="SourceGraphic" in2="effect1_dropShadow_2_1444" result="shape"/></filter></defs></svg>