<svg xmlns="http://www.w3.org/2000/svg" width="40" height="40" fill="none" viewBox="0 0 40 40"><g clip-path="url(#a)"><rect width="40" height="40" fill="url(#b)" rx="8"/><g filter="url(#c)"><path fill="url(#d)" d="M3.385 21.57c-.071 0-.128.059-.137.143L3 23.76l.248 2.011c.01.085.066.144.137.144.068 0 .124-.059.135-.143l.295-2.012-.295-2.047c-.01-.084-.067-.144-.135-.144m1.398-1.119c-.012-.088-.07-.149-.142-.149s-.131.063-.141.15l-.334 3.308.334 3.235c.01.087.069.15.141.15s.13-.061.141-.149l.38-3.236zm5.267-3.05c-.138 0-.25.122-.257.276l-.267 6.088.267 3.933c.007.154.12.275.257.275.136 0 .249-.121.257-.275l.301-3.933-.301-6.088c-.008-.154-.121-.276-.257-.276m-2.726 2.116c-.106 0-.192.091-.2.213l-.3 4.033.3 3.902c.008.121.094.212.2.212.104 0 .19-.091.199-.212l.34-3.902-.34-4.034c-.01-.121-.095-.212-.2-.212m5.496 8.456c.17 0 .308-.148.315-.339l.261-3.867-.26-8.105c-.008-.19-.146-.339-.316-.339-.171 0-.31.15-.315.34l-.232 8.103.232 3.87c.005.188.144.337.315.337m5.671.018c.234 0 .427-.209.431-.465l.183-3.757-.183-9.36c-.004-.256-.197-.466-.431-.466s-.428.21-.431.466l-.163 9.357.163 3.762c.003.255.197.463.431.463m-2.857-.014c.204 0 .368-.177.373-.403v.003l.222-3.81-.222-8.163c-.006-.226-.17-.402-.374-.402-.205 0-.369.177-.373.402l-.197 8.164.197 3.808c.005.224.169.4.374.4m-6.953-.036c.121 0 .22-.105.229-.243l.32-3.935-.32-3.743c-.01-.138-.107-.242-.229-.242s-.22.105-.228.244l-.282 3.74.283 3.934c.008.139.105.244.228.244m-2.704-.215c.088 0 .16-.076.17-.18l.36-3.784-.36-3.925c-.01-.105-.082-.181-.17-.181-.09 0-.161.076-.17.18l-.318 3.926.318 3.782c.008.105.08.181.17.181m11.08-12.258c-.221 0-.399.191-.403.435l-.18 7.865.18 3.785c.004.24.181.431.403.431.22 0 .397-.19.402-.434v.003l.202-3.784-.202-7.867c-.005-.243-.181-.434-.402-.434M11.43 27.98c.152 0 .279-.135.286-.307l.28-3.908-.28-7.48c-.008-.173-.134-.307-.286-.307-.155 0-.28.135-.287.307l-.249 7.48.25 3.91c.005.17.131.305.286.305m3.135-.369v-.002l.242-3.843-.242-8.377c-.005-.208-.157-.372-.344-.372-.188 0-.339.163-.344.372l-.214 8.377.214 3.845c.005.206.157.369.344.369.188 0 .338-.163.344-.37zm18.253-8.674a3.9 3.9 0 0 0-1.618.352C30.868 15.204 27.707 12 23.851 12c-.943 0-1.863.201-2.675.542-.315.132-.4.268-.402.533v14.382c.003.277.202.508.451.535.011.002 11.518.008 11.593.008C35.127 28 37 25.971 37 23.468s-1.873-4.532-4.182-4.532m-12.9-5.874c-.25 0-.457.223-.46.498l-.189 10.208.19 3.705c.002.27.209.494.46.494.25 0 .456-.223.46-.498v.005l.205-3.706-.205-10.209c-.004-.274-.21-.497-.46-.497"/></g></g><rect width="37.9" height="37.9" x="1.05" y="1.05" stroke="#fff" stroke-opacity=".15" stroke-width="2.1" rx="6.95"/><defs><linearGradient id="b" x1="20" x2="20" y1="0" y2="40" gradientUnits="userSpaceOnUse"><stop stop-color="#402806"/><stop offset="1" stop-color="#270802"/></linearGradient><linearGradient id="d" x1="19.998" x2="19.998" y1="11.997" y2="32.998" gradientUnits="userSpaceOnUse"><stop stop-color="#f79810"/><stop offset="1" stop-color="#f8310e"/></linearGradient><clipPath id="a"><rect width="40" height="40" fill="#fff" rx="8"/></clipPath><filter id="c" width="42" height="36" x="-1" y="2" color-interpolation-filters="sRGB" filterUnits="userSpaceOnUse"><feFlood flood-opacity="0" result="BackgroundImageFix"/><feColorMatrix in="SourceAlpha" result="hardAlpha" values="0 0 0 0 0 0 0 0 0 0 0 0 0 0 0 0 0 0 127 0"/><feOffset/><feGaussianBlur stdDeviation="2"/><feComposite in2="hardAlpha" operator="out"/><feColorMatrix values="0 0 0 0 0 0 0 0 0 0 0 0 0 0 0 0 0 0 0.25 0"/><feBlend in2="BackgroundImageFix" result="effect1_dropShadow_2_1633"/><feBlend in="SourceGraphic" in2="effect1_dropShadow_2_1633" result="shape"/></filter></defs></svg>