<svg xmlns="http://www.w3.org/2000/svg" width="40" height="40" fill="none" viewBox="0 0 40 40"><rect width="40" height="40" fill="url(#a)" rx="8"/><rect width="37.9" height="37.9" x="1.05" y="1.05" stroke="#fff" stroke-opacity=".15" stroke-width="2.1" rx="6.95"/><g filter="url(#b)"><path fill="#1ed760" d="M20 6C12.268 6 6 12.268 6 20s6.268 14 14 14 14-6.268 14-14c0-7.731-6.267-14-14-14m6.42 20.192a.87.87 0 0 1-1.2.29c-3.287-2.008-7.425-2.463-12.298-1.35a.873.873 0 0 1-.389-1.702c5.333-1.218 9.908-.694 13.598 1.562a.873.873 0 0 1 .29 1.2m1.714-3.812a1.09 1.09 0 0 1-1.501.36c-3.764-2.313-9.5-2.983-13.951-1.632a1.093 1.093 0 0 1-1.362-.727 1.093 1.093 0 0 1 .728-1.362c5.084-1.542 11.405-.795 15.726 1.86.514.317.676.988.36 1.501m.147-3.97c-4.512-2.68-11.957-2.926-16.265-1.619a1.31 1.31 0 1 1-.76-2.505c4.945-1.502 13.166-1.212 18.361 1.872.624.37.828 1.173.458 1.795a1.31 1.31 0 0 1-1.793.457z"/></g><defs><linearGradient id="a" x1="20" x2="20" y1="0" y2="40" gradientUnits="userSpaceOnUse"><stop stop-color="#073417"/><stop offset="1" stop-color="#041f0e"/></linearGradient><filter id="b" width="36" height="36" x="2" y="2" color-interpolation-filters="sRGB" filterUnits="userSpaceOnUse"><feFlood flood-opacity="0" result="BackgroundImageFix"/><feColorMatrix in="SourceAlpha" result="hardAlpha" values="0 0 0 0 0 0 0 0 0 0 0 0 0 0 0 0 0 0 127 0"/><feOffset/><feGaussianBlur stdDeviation="2"/><feComposite in2="hardAlpha" operator="out"/><feColorMatrix values="0 0 0 0 0 0 0 0 0 0 0 0 0 0 0 0 0 0 0.25 0"/><feBlend in2="BackgroundImageFix" result="effect1_dropShadow_2_1626"/><feBlend in="SourceGraphic" in2="effect1_dropShadow_2_1626" result="shape"/></filter></defs></svg>