<svg xmlns="http://www.w3.org/2000/svg" width="40" height="40" fill="none" viewBox="0 0 40 40"><rect width="40" height="40" fill="url(#a)" rx="8"/><rect width="37.9" height="37.9" x="1.05" y="1.05" stroke="#fff" stroke-opacity=".15" stroke-width="2.1" rx="6.95"/><g filter="url(#b)"><path fill="url(#c)" d="M6.571 24.026C8.302 29.794 13.656 34 19.991 34 27.728 34 34 27.732 34 20S27.728 6 19.991 6C12.567 6 6.492 11.772 6.012 19.07c.908 1.521 1.26 2.462.558 4.956z"/><path fill="#fff" d="M19.27 16.494v.069l-3.427 4.976a3.84 3.84 0 0 0-2.297.64l-7.528-3.1s-.174 2.863.552 4.997l5.322 2.195a3.87 3.87 0 0 0 2.295 2.743 3.89 3.89 0 0 0 5.379-3.692l4.9-3.502.12.002a5.33 5.33 0 0 0 5.321-5.328 5.33 5.33 0 0 0-5.321-5.327 5.33 5.33 0 0 0-5.321 5.327zm-.824 10.084a2.997 2.997 0 0 1-3.92 1.616 3 3 0 0 1-1.542-1.47l1.732.717a2.209 2.209 0 0 0 1.697-4.078l-1.795-.741a2.98 2.98 0 0 1 2.21.033 2.96 2.96 0 0 1 1.619 1.628c.305.74.303 1.557-.004 2.295m6.148-6.534a3.556 3.556 0 0 1-3.545-3.55 3.55 3.55 0 0 1 3.545-3.548 3.555 3.555 0 0 1 3.546 3.548 3.55 3.55 0 0 1-3.546 3.55m-2.657-3.555a2.663 2.663 0 1 1 4.546 1.884c-.5.5-1.177.78-1.884.781a2.667 2.667 0 0 1-2.662-2.665"/></g><defs><linearGradient id="a" x1="20" x2="20" y1="0" y2="40" gradientUnits="userSpaceOnUse"><stop stop-color="#0d1b31"/><stop offset="1" stop-color="#081320"/></linearGradient><linearGradient id="c" x1="20.006" x2="20.006" y1="6" y2="34" gradientUnits="userSpaceOnUse"><stop stop-color="#111d2e"/><stop offset=".212" stop-color="#051839"/><stop offset=".407" stop-color="#0a1b48"/><stop offset=".581" stop-color="#132e62"/><stop offset=".738" stop-color="#144b7e"/><stop offset=".873" stop-color="#136497"/><stop offset="1" stop-color="#1387b8"/></linearGradient><filter id="b" width="36" height="36" x="2" y="2" color-interpolation-filters="sRGB" filterUnits="userSpaceOnUse"><feFlood flood-opacity="0" result="BackgroundImageFix"/><feColorMatrix in="SourceAlpha" result="hardAlpha" values="0 0 0 0 0 0 0 0 0 0 0 0 0 0 0 0 0 0 127 0"/><feOffset/><feGaussianBlur stdDeviation="2"/><feComposite in2="hardAlpha" operator="out"/><feColorMatrix values="0 0 0 0 0 0 0 0 0 0 0 0 0 0 0 0 0 0 0.25 0"/><feBlend in2="BackgroundImageFix" result="effect1_dropShadow_2_1356"/><feBlend in="SourceGraphic" in2="effect1_dropShadow_2_1356" result="shape"/></filter></defs></svg>