<svg xmlns="http://www.w3.org/2000/svg" width="40" height="40" fill="none" viewBox="0 0 40 40"><rect width="40" height="40" fill="url(#a)" rx="8"/><rect width="37.9" height="37.9" x="1.05" y="1.05" stroke="#fff" stroke-opacity=".15" stroke-width="2.1" rx="6.95"/><g filter="url(#b)"><path fill="url(#c)" fill-rule="evenodd" d="M29.15 8H10.854A2.854 2.854 0 0 0 8 10.85v18.284A2.856 2.856 0 0 0 10.853 32h18.298A2.85 2.85 0 0 0 32 29.134V10.85A2.854 2.854 0 0 0 29.15 8m-10.8 17.286a.954.954 0 0 1-.96.95h-4a.95.95 0 0 1-.945-.95V13.38a.95.95 0 0 1 .946-.95h3.998a.954.954 0 0 1 .95.95zm9.228-5.467a.95.95 0 0 1-.96.95h-4a.954.954 0 0 1-.95-.95v-6.44a.954.954 0 0 1 .95-.95h4a.95.95 0 0 1 .945.95z" clip-rule="evenodd"/></g><defs><linearGradient id="a" x1="20" x2="20" y1="0" y2="40" gradientUnits="userSpaceOnUse"><stop stop-color="#081f3e"/><stop offset="1" stop-color="#051428"/></linearGradient><linearGradient id="c" x1="3755.6" x2="3755.6" y1="1544" y2="8" gradientUnits="userSpaceOnUse"><stop stop-color="#0052cc"/><stop offset="1" stop-color="#2684ff"/></linearGradient><filter id="b" width="39.429" height="39.429" x=".286" y=".286" color-interpolation-filters="sRGB" filterUnits="userSpaceOnUse"><feFlood flood-opacity="0" result="BackgroundImageFix"/><feColorMatrix in="SourceAlpha" result="hardAlpha" values="0 0 0 0 0 0 0 0 0 0 0 0 0 0 0 0 0 0 127 0"/><feOffset/><feGaussianBlur stdDeviation="2.857"/><feComposite in2="hardAlpha" operator="out"/><feColorMatrix values="0 0 0 0 0 0 0 0 0 0 0 0 0 0 0 0 0 0 0.25 0"/><feBlend in2="BackgroundImageFix" result="effect1_dropShadow_7_270"/><feBlend in="SourceGraphic" in2="effect1_dropShadow_7_270" result="shape"/></filter></defs></svg>