<svg xmlns="http://www.w3.org/2000/svg" width="178" height="56" fill="none" viewBox="0 0 178 56"><rect width="178" height="56" fill="url(#a)" rx="8"/><rect width="175.9" height="53.9" x="1.05" y="1.05" stroke="#fff" stroke-opacity=".15" stroke-width="2.1" rx="6.95"/><g filter="url(#b)"><path fill="#fcfcfc" fill-rule="evenodd" d="M41.708 25.22c.227.355.453.708.713 1.037q.083-.194.179-.394c.16-.34.324-.69.387-1.044.047-.261-.01-.517-.066-.773a2.5 2.5 0 0 1-.084-.62c.021-.624.285-1.271.526-1.862l.102-.251c.121-.302.301-.606.584-.782.081-.051.175-.086.27-.12.138-.052.276-.103.377-.205.306-.312.528-1.163.564-1.59.063-.747-.226-1.556-.503-2.33-.134-.374-.265-.74-.351-1.087-.497-1.989.184-4.361 2.081-5.357 1.413-.742 3.383-.477 4.457.728.757.849 1.056 1.899 1.056 3.011 0 .75-.041 2.043-.691 2.564-.406.326-1.224.3-1.494-.183-.242-.434-.12-.902.002-1.373.095-.368.191-.739.116-1.098-.157-.748-.922-1.72-1.774-1.604-.675.092-1.203.74-1.435 1.335-.254.65-.034 1.335.175 1.983q.058.18.11.354l.008.026c.353 1.19.688 2.318.544 3.57-.035.308-.146.606-.257.902-.116.312-.231.622-.258.941-.014.178.054.354.123.532.059.15.118.302.127.457.053.87-.254 1.739-.626 2.517-.169.352-.433.571-.7.793-.2.165-.4.331-.566.556-.308.419-.5.938-.69 1.447a12 12 0 0 1-.3.755c-.073.16-.162.321-.252.484-.171.31-.346.626-.42.955-.057.254.03.57.109.862.034.124.066.243.086.351.144.791.27 1.623.29 2.428.085 3.6-.802 7.279-3.267 10.024a11.5 11.5 0 0 1-2.651 2.184c-3.66 2.183-8.243 1.232-11.567-1.094-1.152-.806-2.095-1.782-3.049-2.769a63 63 0 0 0-.988-1.007c-.295-.292-.62-.386-.952-.483a3 3 0 0 1-.66-.25c-.593-.328-1.256-1.199-1.565-1.796-.139-.267-.128-.541-.117-.81.01-.23.019-.457-.066-.673-.095-.242-.278-.46-.46-.676a3.5 3.5 0 0 1-.37-.493c-.423-.731-.565-1.551-.623-2.382-.023-.335-.012-.7-.001-1.07.036-1.205.074-2.494-1.045-3.173-1.281-.777-2.838.718-2.648 2.04.055.386.238.69.42.992.218.362.433.72.42 1.21-.016.527-.379.845-.903.846-.694.002-1.127-.479-1.473-1.025-.696-1.096-.813-2.538-.491-3.776.753-2.897 4.569-3.992 6.753-1.928 1.237 1.168 1.292 2.694 1.349 4.266l.005.134q.007.219.011.423c.022.95.04 1.711.72 2.543.223.274.514.311.817.35.192.025.39.05.578.136.425.194.758.615 1.058.995q.093.12.183.228c.21.255.426.528.504.854.04.169.056.336.071.502.028.308.056.609.243.892.617.933 1.525 1.768 2.369 2.493 1.273 1.093 2.62 2.071 4.202 2.675 4.04 1.543 8.044-1.086 9.714-4.764.927-2.042 1.009-4.011.995-6.203-.293.25-.548.554-.803.858a9 9 0 0 1-.643.713c-1.106 1.06-2.333 1.92-3.75 2.514a10 10 0 0 1-4.067.769 8.4 8.4 0 0 1-3.073-.668c-5.78-2.497-6.928-11.104-1.807-14.926a8.4 8.4 0 0 1 2.485-1.292c1.108-.35 2.276-.509 3.434-.413 1.5.125 2.94.553 4.248 1.298A11.2 11.2 0 0 1 41 24.189c.258.33.483.68.708 1.032m-11.984-1.674c.773-.482 1.671-.763 2.575-.865 2.985-.337 5.783 1.729 7.365 4.07a13 13 0 0 1 .915 1.619l.06.12c.11.213.238.463.224.689-.013.21-.16.414-.287.59l-.06.084c-.31.444-.628.892-.98 1.304-1.49 1.737-3.566 3.369-5.926 3.636-.862.097-1.744.055-2.576-.211a5.9 5.9 0 0 1-1.988-1.097c-3.19-2.707-2.908-7.7.678-9.939" clip-rule="evenodd"/></g><g filter="url(#c)"><path fill="#e8e8e8" d="M62.261 24.5h-1.863l4.187-11.636h2.029L70.8 24.5h-1.864l-3.29-9.523h-.09zm.313-4.557h6.045v1.477h-6.045zm16.143-4.17L75.553 24.5h-1.819l-3.17-8.727h1.824l2.21 6.716h.09l2.206-6.716zm3.887 8.92a3.6 3.6 0 0 1-1.5-.307 2.53 2.53 0 0 1-1.063-.903q-.386-.591-.386-1.449 0-.739.284-1.216.285-.477.767-.756a4 4 0 0 1 1.08-.42q.596-.142 1.215-.216l1.273-.148q.49-.061.71-.198.222-.137.222-.444v-.04q0-.744-.42-1.153-.415-.41-1.24-.409-.857 0-1.351.38-.489.376-.676.836l-1.597-.364q.284-.795.83-1.284.551-.495 1.267-.716.716-.227 1.505-.227.523 0 1.108.125.59.12 1.102.443.517.324.847.926.33.597.33 1.552V24.5h-1.66v-1.193h-.068q-.165.33-.494.648-.33.318-.847.528t-1.238.21m.369-1.364q.705 0 1.204-.278.506-.278.768-.727.267-.454.267-.972v-1.125q-.091.091-.353.17-.255.075-.585.131-.33.052-.642.097l-.523.068q-.494.063-.903.21-.404.148-.648.427-.238.272-.238.727 0 .63.466.954.465.32 1.187.319m6.2 1.171v-8.727h1.7V24.5zm.858-10.074a1.08 1.08 0 0 1-.761-.295.96.96 0 0 1-.313-.716q0-.421.313-.716.318-.3.761-.301.444 0 .756.3a.94.94 0 0 1 .318.717.95.95 0 0 1-.318.716 1.06 1.06 0 0 1-.756.295m4.825-1.562V24.5h-1.698V12.864zm4.826 11.83a3.6 3.6 0 0 1-1.5-.308 2.53 2.53 0 0 1-1.063-.903q-.386-.591-.386-1.449 0-.739.284-1.216t.767-.756a4 4 0 0 1 1.08-.42 11 11 0 0 1 1.216-.216l1.272-.148q.49-.061.71-.198.222-.137.222-.444v-.04q0-.744-.42-1.153-.415-.41-1.239-.409-.858 0-1.352.38-.489.376-.676.836L97 17.886q.284-.795.83-1.284.551-.495 1.267-.716.716-.227 1.505-.227.523 0 1.108.125.592.12 1.102.443.517.324.847.926.33.597.33 1.552V24.5h-1.659v-1.193h-.069q-.164.33-.494.648t-.847.528-1.238.21m.369-1.364q.704 0 1.205-.279.505-.278.767-.727.267-.454.267-.972v-1.125q-.091.091-.353.17-.255.075-.585.131-.329.052-.642.097l-.523.068q-.494.063-.903.21a1.55 1.55 0 0 0-.648.427q-.238.272-.238.727 0 .63.466.954.465.32 1.187.319m6.337 1.17V12.864h1.699v4.323h.102q.147-.272.426-.63t.773-.625q.494-.273 1.307-.273 1.056 0 1.886.534.83.535 1.301 1.54.477 1.005.477 2.42t-.471 2.427q-.472 1.005-1.296 1.55-.824.54-1.88.54-.796 0-1.302-.267a2.5 2.5 0 0 1-.784-.625 5 5 0 0 1-.437-.636h-.142V24.5zm1.665-4.364q0 .921.267 1.614t.772 1.085q.506.387 1.239.387.762 0 1.273-.404.511-.41.772-1.108.267-.699.267-1.574 0-.863-.261-1.55-.255-.689-.773-1.086-.511-.398-1.278-.398-.738 0-1.25.381-.506.38-.767 1.063-.261.681-.261 1.59m9.913-7.272V24.5h-1.699V12.864zm6.047 11.812q-1.29 0-2.222-.551a3.74 3.74 0 0 1-1.432-1.562q-.5-1.012-.5-2.37 0-1.341.5-2.364a3.9 3.9 0 0 1 1.409-1.596q.91-.574 2.125-.574.74 0 1.432.244.693.244 1.245.768.55.522.869 1.357.318.83.318 2.018v.602h-6.937v-1.273h5.272q0-.67-.272-1.187a2.07 2.07 0 0 0-.767-.824q-.49-.302-1.148-.302-.716 0-1.25.353a2.36 2.36 0 0 0-.818.909q-.284.556-.284 1.21v.994q0 .876.306 1.489.313.615.87.938.557.318 1.301.318.483 0 .88-.137.399-.142.688-.42.29-.279.443-.688l1.608.29q-.194.71-.693 1.244-.494.529-1.244.824-.745.29-1.699.29m14.017-8.903v1.363h-4.932v-1.363zm-3.58 8.727V14.76q0-.818.358-1.358.358-.545.949-.812a3 3 0 0 1 1.284-.273q.512 0 .875.085.365.08.54.148l-.398 1.375a8 8 0 0 0-.307-.08 1.7 1.7 0 0 0-.454-.05q-.619 0-.887.306-.261.307-.261.887V24.5zm8.665.176q-1.227 0-2.142-.562a3.8 3.8 0 0 1-1.42-1.574q-.507-1.011-.506-2.364 0-1.358.506-2.375a3.8 3.8 0 0 1 1.42-1.58q.915-.561 2.142-.562 1.227 0 2.142.563t1.421 1.58q.505 1.016.505 2.374 0 1.353-.505 2.364a3.8 3.8 0 0 1-1.421 1.574q-.915.562-2.142.562m.006-1.426q.795 0 1.318-.42a2.47 2.47 0 0 0 .773-1.12q.255-.699.255-1.54 0-.835-.255-1.534a2.5 2.5 0 0 0-.773-1.13q-.523-.426-1.318-.427-.802 0-1.33.427a2.54 2.54 0 0 0-.778 1.13q-.25.7-.25 1.535 0 .84.25 1.54.256.697.778 1.119.529.42 1.33.42m5.959 1.25v-8.727h1.642v1.386h.09q.24-.705.841-1.108a2.4 2.4 0 0 1 1.375-.409 7 7 0 0 1 .722.04v1.625a3 3 0 0 0-.364-.063 3.5 3.5 0 0 0-.522-.04q-.603 0-1.074.256a1.9 1.9 0 0 0-1.012 1.71v5.33z"/><path fill="#fff" d="M60.936 43.5V31.136h5.155q1.388 0 2.325.393.94.392 1.412 1.098.477.707.477 1.636 0 .707-.296 1.262-.296.55-.815.912-.519.361-1.201.507v.12q.749.037 1.382.405.641.369 1.027 1.026.386.652.386 1.546a3.2 3.2 0 0 1-.507 1.78q-.507.78-1.467 1.232-.96.447-2.33.447zm2.988-2.409h1.847q.972 0 1.431-.368.465-.368.465-1.026 0-.477-.224-.821a1.44 1.44 0 0 0-.633-.538q-.411-.192-.984-.193h-1.902zm0-4.872h1.654q.489 0 .87-.163.38-.162.591-.47.217-.309.217-.743 0-.622-.44-.978t-1.19-.356h-1.702zm14.283 3.279v-5.27h2.946V43.5H78.34v-1.727h-.096a2.7 2.7 0 0 1-1.05 1.353q-.737.495-1.782.495-.948 0-1.666-.435a2.96 2.96 0 0 1-1.117-1.213q-.398-.785-.404-1.836v-5.91h2.952v5.33q.006.755.398 1.19.393.435 1.069.435.44 0 .79-.193.357-.2.562-.574.211-.38.211-.917m7.778-1.286V43.5h-2.953v-9.273h2.808v1.703h.102a2.6 2.6 0 0 1 1.05-1.334q.743-.49 1.77-.49.977 0 1.696.441.724.435 1.123 1.22.404.779.398 1.823v5.91h-2.952v-5.33q.006-.773-.392-1.208-.393-.435-1.093-.435-.465 0-.821.206a1.36 1.36 0 0 0-.543.573q-.188.375-.194.906m12.144 8.958q-1.322 0-2.264-.368-.94-.367-1.479-1.008a2.8 2.8 0 0 1-.646-1.449l2.796-.157q.078.284.29.495.216.212.56.326.351.115.822.115.742 0 1.225-.362.49-.356.49-1.25v-1.63h-.103a2.2 2.2 0 0 1-.532.767 2.5 2.5 0 0 1-.887.531q-.525.193-1.207.193a3.76 3.76 0 0 1-1.86-.47q-.84-.478-1.346-1.474-.501-1.002-.501-2.577 0-1.624.519-2.675.52-1.056 1.358-1.563a3.47 3.47 0 0 1 1.817-.508q.73 0 1.25.254.525.247.863.64.339.392.514.815h.084v-1.588h2.94v9.31q0 1.176-.592 1.985-.59.81-1.654 1.226-1.062.422-2.457.422m.09-5.946q.538 0 .918-.284.382-.283.586-.815.205-.53.205-1.273 0-.755-.205-1.298-.2-.55-.586-.846a1.45 1.45 0 0 0-.917-.295q-.549 0-.93.302-.38.3-.58.85-.193.544-.193 1.287t.2 1.273.573.815q.381.284.93.284m10.83 2.451q-1.456 0-2.512-.573a3.97 3.97 0 0 1-1.618-1.648q-.561-1.075-.561-2.554 0-1.437.567-2.511.568-1.08 1.6-1.679 1.032-.603 2.433-.604.99 0 1.811.308.82.309 1.419.912.597.604.929 1.491.332.882.332 2.023v.736h-8.059v-1.715h5.313a1.66 1.66 0 0 0-.224-.839 1.5 1.5 0 0 0-.597-.573 1.73 1.73 0 0 0-.864-.211q-.495 0-.887.223a1.68 1.68 0 0 0-.863 1.449v1.745q0 .567.223.996.223.421.634.658.411.235.978.235.392 0 .712-.109a1.5 1.5 0 0 0 .55-.32q.229-.21.344-.519l2.71.079a3.35 3.35 0 0 1-.742 1.587q-.569.67-1.491 1.045-.924.368-2.137.368m10.243 0q-1.455 0-2.512-.573a3.97 3.97 0 0 1-1.618-1.648q-.561-1.075-.561-2.554 0-1.437.567-2.511.568-1.08 1.6-1.679 1.032-.603 2.433-.604.99 0 1.811.308.821.309 1.419.912.597.604.93 1.491.332.882.332 2.023v.736h-8.06v-1.715h5.313a1.66 1.66 0 0 0-.224-.839 1.5 1.5 0 0 0-.597-.573 1.7 1.7 0 0 0-.863-.211q-.495 0-.888.223a1.68 1.68 0 0 0-.863 1.449v1.745q0 .567.223.996.223.421.634.658.411.235.978.235.393 0 .712-.109a1.5 1.5 0 0 0 .55-.32q.229-.21.344-.519l2.71.079a3.35 3.35 0 0 1-.742 1.587q-.567.67-1.491 1.045-.924.368-2.137.368m17.131-8.06h-3.018a2.6 2.6 0 0 0-.248-.838 2.1 2.1 0 0 0-.495-.64 2.1 2.1 0 0 0-.73-.405 2.8 2.8 0 0 0-.924-.145q-.9 0-1.552.441-.645.44-.996 1.274-.344.832-.344 2.016 0 1.232.35 2.065.357.827.996 1.25.646.416 1.528.416.495 0 .899-.127.41-.126.719-.368.313-.247.513-.598.205-.356.284-.803l3.018.019a4.6 4.6 0 0 1-.477 1.617 5.2 5.2 0 0 1-1.081 1.455 5.1 5.1 0 0 1-1.678 1.039q-.983.386-2.258.386-1.678 0-3.006-.736-1.322-.743-2.089-2.162-.766-1.418-.766-3.453 0-2.04.778-3.459.779-1.419 2.107-2.155 1.329-.737 2.976-.737a6.6 6.6 0 0 1 2.077.314 5 5 0 0 1 1.678.906q.725.592 1.178 1.455.452.862.561 1.974m6.038 8.06q-1.461 0-2.511-.598a4.13 4.13 0 0 1-1.612-1.678q-.561-1.08-.561-2.505 0-1.432.561-2.505.568-1.08 1.612-1.679 1.05-.603 2.511-.604 1.462 0 2.506.604 1.05.598 1.612 1.678.567 1.075.567 2.506 0 1.425-.567 2.505a4.1 4.1 0 0 1-1.612 1.678q-1.044.598-2.506.598m.019-2.228q.531 0 .899-.326.369-.326.561-.905.2-.58.2-1.34 0-.773-.2-1.353-.192-.58-.561-.905a1.3 1.3 0 0 0-.899-.326q-.55 0-.93.326-.375.327-.574.905a4.3 4.3 0 0 0-.193 1.353q0 .76.193 1.34.2.58.574.905.38.327.93.326m6.178 2.053v-9.273h2.868v1.69h.096q.254-.917.828-1.364a2.1 2.1 0 0 1 1.334-.453q.205 0 .422.03.218.025.405.08v2.565a3 3 0 0 0-.556-.115 5 5 0 0 0-.603-.042q-.525 0-.948.235a1.7 1.7 0 0 0-.658.646 1.9 1.9 0 0 0-.236.966V43.5zm10.061.133a3.4 3.4 0 0 1-1.866-.531q-.839-.532-1.34-1.594t-.501-2.638q0-1.636.519-2.693.52-1.056 1.359-1.563a3.47 3.47 0 0 1 1.817-.508q.73 0 1.249.254.52.247.858.64.338.392.513.815h.06v-4.679h2.952V43.5h-2.922v-1.503h-.09a2.9 2.9 0 0 1-.531.803q-.345.374-.864.603-.513.23-1.213.23m1.026-2.3q.537 0 .918-.302.38-.308.585-.863.206-.555.206-1.304 0-.762-.206-1.31-.199-.55-.585-.846a1.45 1.45 0 0 0-.918-.295q-.549 0-.93.302-.38.3-.579.85-.193.55-.193 1.299t.199 1.304.573.863q.381.302.93.302"/></g><defs><filter id="b" width="51.429" height="51.429" x="6.286" y="2.286" color-interpolation-filters="sRGB" filterUnits="userSpaceOnUse"><feFlood flood-opacity="0" result="BackgroundImageFix"/><feColorMatrix in="SourceAlpha" result="hardAlpha" values="0 0 0 0 0 0 0 0 0 0 0 0 0 0 0 0 0 0 127 0"/><feOffset/><feGaussianBlur stdDeviation="2.857"/><feComposite in2="hardAlpha" operator="out"/><feColorMatrix values="0 0 0 0 0 0 0 0 0 0 0 0 0 0 0 0 0 0 0.25 0"/><feBlend in2="BackgroundImageFix" result="effect1_dropShadow_31_6"/><feBlend in="SourceGraphic" in2="effect1_dropShadow_31_6" result="shape"/></filter><filter id="c" width="117.2" height="48.87" x="54.4" y="3.9" color-interpolation-filters="sRGB" filterUnits="userSpaceOnUse"><feFlood flood-opacity="0" result="BackgroundImageFix"/><feColorMatrix in="SourceAlpha" result="hardAlpha" values="0 0 0 0 0 0 0 0 0 0 0 0 0 0 0 0 0 0 127 0"/><feOffset/><feGaussianBlur stdDeviation="2.8"/><feComposite in2="hardAlpha" operator="out"/><feColorMatrix values="0 0 0 0 0 0 0 0 0 0 0 0 0 0 0 0 0 0 0.25 0"/><feBlend in2="BackgroundImageFix" result="effect1_dropShadow_31_6"/><feBlend in="SourceGraphic" in2="effect1_dropShadow_31_6" result="shape"/></filter><linearGradient id="a" x1="89" x2="89" y1="0" y2="56" gradientUnits="userSpaceOnUse"><stop stop-color="#322e20"/><stop offset="1" stop-color="#201c15"/></linearGradient></defs></svg>