<svg xmlns="http://www.w3.org/2000/svg" width="167" height="56" fill="none" viewBox="0 0 167 56"><rect width="167" height="56" fill="url(#a)" rx="8"/><rect width="164.9" height="53.9" x="1.05" y="1.05" stroke="#fff" stroke-opacity=".15" stroke-width="2.1" rx="6.95"/><g filter="url(#b)"><path fill="#38342a" d="M33.43 8v2.857h-2.858v5.714h-2.857v2.858h-2.857v2.857H22v2.857h-2.858V28h-2.857v2.857H13.43v5.714h2.857v2.858h2.857v2.857h2.858v2.857h2.857V48h5.714v-2.857h2.857v-5.714h2.857V36.57h2.858v-2.857H42v-2.857h5.714V28h2.857v-5.714h-2.857v-2.857h-2.857V16.57H42v-2.857h-2.857v-2.857h-2.858V8z"/><path fill="#dbd0b4" d="M33.43 10.857v2.857h2.856v2.857h2.858v2.858H42v2.857h2.857v-2.857H42V16.57h-2.857v-2.857h-2.858v-2.857z"/><path fill="#c6bca5" d="M33.43 13.714v2.857h2.856v-2.857z"/><path fill="#dbd0b4" d="M30.572 16.571v5.715h-5.714v2.857H22V28h-2.857v5.714H22v2.857h2.857v2.858h5.714v-5.715h-2.857v-2.857h5.714v2.857h2.857V28H33.43v-2.857h5.715v-2.857h-2.858v-2.857H33.43V16.57z"/><path fill="#38342a" d="M33.43 16.571v2.858h2.856v2.857h2.858v2.857H42v-2.857h-2.857v-2.857h-2.858V16.57z"/><path fill="#bcb29c" d="M36.287 16.571v2.858h2.857V16.57z"/><path fill="#c6bca5" d="M27.715 19.429v2.857h2.857v-2.857z"/><path fill="#bcb29c" d="M39.144 19.429v2.857H42v-2.857z"/><path fill="#c6bca5" d="M30.572 22.286v2.857h2.857v-2.857z"/><path fill="#bcb29c" d="M42 22.286v2.857h2.858v-2.857z"/><path fill="#c6bca5" d="M33.43 25.143V28h5.714v-2.857z"/><path fill="#bcb29c" d="M39.144 25.143V28h-2.858v5.714h2.858v-2.857H42v-5.714z"/><path fill="#807a6d" d="M44.858 25.143V28h2.857v-2.857z"/><path fill="#c6bca5" d="M24.858 28v2.857h2.857V28z"/><path fill="#aea694" d="M16.286 30.857v2.857h2.857v2.857h2.858v2.858h2.857v2.857h2.857v-2.857h-2.857V36.57H22v-2.857h-2.858v-2.857z"/><path fill="#c6bca5" d="M27.715 30.857v2.857h5.714v-2.857z"/><path fill="#9a927e" d="M16.286 33.714v2.857h2.857v-2.857z"/><path fill="#bcb29c" d="M30.572 33.714v5.715h2.857V36.57h2.857v-2.857z"/><path fill="#9a927e" d="M19.144 36.571v2.858H22V36.57zM22 39.43v2.857h2.857V39.43z"/><path fill="#bcb29c" d="M27.715 39.429v2.857h2.857v-2.857z"/><path fill="#9a927e" d="M24.858 42.286v2.857h2.857v-2.857z"/></g><g filter="url(#c)"><path fill="#e8e8e8" d="M62.261 24.5h-1.863l4.187-11.636h2.029L70.8 24.5h-1.864l-3.29-9.523h-.09zm.313-4.557h6.045v1.477h-6.045zm16.143-4.17L75.553 24.5h-1.819l-3.17-8.727h1.824l2.21 6.716h.09l2.206-6.716zm3.887 8.92a3.6 3.6 0 0 1-1.5-.307 2.53 2.53 0 0 1-1.063-.903q-.386-.591-.386-1.449 0-.739.284-1.216.285-.477.767-.756a4 4 0 0 1 1.08-.42q.596-.142 1.215-.216l1.273-.148q.49-.062.71-.198.222-.137.222-.444v-.04q0-.744-.42-1.153-.415-.41-1.24-.409-.857 0-1.351.38-.489.376-.676.836l-1.597-.364q.284-.795.83-1.284.551-.495 1.267-.716.716-.227 1.505-.227.523 0 1.108.125.59.12 1.102.443.517.324.847.926.33.597.33 1.552V24.5h-1.66v-1.193h-.068q-.165.33-.494.648-.33.318-.847.528t-1.238.21m.369-1.364q.705 0 1.204-.278.506-.278.768-.727.267-.454.267-.972v-1.125q-.091.091-.353.17-.255.075-.585.131-.33.052-.642.097l-.523.068q-.494.063-.903.21-.404.148-.648.427-.238.272-.238.727 0 .63.466.954.465.32 1.187.319m6.2 1.171v-8.727h1.7V24.5zm.858-10.074a1.08 1.08 0 0 1-.761-.295.96.96 0 0 1-.313-.716q0-.421.313-.716.318-.3.761-.301.444 0 .756.3a.94.94 0 0 1 .318.717.95.95 0 0 1-.318.716 1.06 1.06 0 0 1-.756.295m4.825-1.562V24.5h-1.698V12.864zm4.826 11.83a3.6 3.6 0 0 1-1.5-.308 2.53 2.53 0 0 1-1.063-.903q-.386-.591-.386-1.449 0-.739.284-1.216t.767-.756a4 4 0 0 1 1.08-.42 11 11 0 0 1 1.216-.216l1.272-.148q.49-.062.71-.198.222-.137.222-.444v-.04q0-.744-.42-1.153-.415-.41-1.239-.409-.858 0-1.352.38-.489.376-.676.836L97 17.886q.284-.795.83-1.284.551-.495 1.267-.716.716-.227 1.505-.227.523 0 1.108.125.592.12 1.102.443.517.324.847.926.33.597.33 1.552V24.5h-1.659v-1.193h-.069q-.164.33-.494.648t-.847.528-1.238.21m.369-1.364q.704 0 1.205-.279.505-.278.767-.727.267-.454.267-.972v-1.125q-.091.091-.353.17-.255.075-.585.131-.329.052-.642.097l-.523.068q-.494.063-.903.21a1.55 1.55 0 0 0-.648.427q-.238.272-.238.727 0 .63.466.954.465.32 1.187.319m6.337 1.17V12.864h1.699v4.323h.102q.147-.272.426-.63t.773-.625q.494-.273 1.307-.273 1.056 0 1.886.534.83.535 1.301 1.54.477 1.005.477 2.42t-.471 2.427q-.472 1.005-1.296 1.55-.824.54-1.88.54-.796 0-1.302-.267a2.5 2.5 0 0 1-.784-.625 5 5 0 0 1-.437-.636h-.142V24.5zm1.665-4.364q0 .921.267 1.614t.772 1.085q.506.387 1.239.387.762 0 1.273-.404.511-.41.772-1.108.267-.699.267-1.574 0-.863-.261-1.55-.255-.689-.773-1.086-.511-.398-1.278-.398-.738 0-1.25.381-.506.381-.767 1.062-.261.682-.261 1.591m9.913-7.272V24.5h-1.699V12.864zm6.047 11.812q-1.29 0-2.222-.551a3.74 3.74 0 0 1-1.432-1.562q-.5-1.012-.5-2.37 0-1.341.5-2.364a3.9 3.9 0 0 1 1.409-1.596q.91-.574 2.125-.574.74 0 1.432.244.693.244 1.245.768.55.522.869 1.357.318.83.318 2.017v.603h-6.937v-1.273h5.272q0-.67-.272-1.187a2.07 2.07 0 0 0-.767-.824q-.49-.302-1.148-.302-.716 0-1.25.353a2.36 2.36 0 0 0-.818.909q-.284.556-.284 1.21v.994q0 .876.306 1.489.313.615.87.938.557.318 1.301.318.483 0 .88-.137.399-.142.688-.42.29-.279.443-.688l1.608.29q-.194.71-.693 1.244-.494.529-1.244.824-.745.29-1.699.29m14.017-8.903v1.363h-4.932v-1.363zm-3.58 8.727V14.76q0-.818.358-1.358.358-.545.949-.812a3 3 0 0 1 1.284-.273q.512 0 .875.085.365.08.54.148l-.398 1.375a8 8 0 0 0-.307-.08 1.7 1.7 0 0 0-.454-.05q-.619 0-.887.306-.261.307-.261.887V24.5zm8.665.176q-1.227 0-2.142-.562a3.8 3.8 0 0 1-1.42-1.574q-.507-1.011-.506-2.364 0-1.358.506-2.375a3.8 3.8 0 0 1 1.42-1.58q.915-.561 2.142-.562 1.227 0 2.142.563t1.421 1.58q.505 1.016.505 2.374 0 1.353-.505 2.364a3.8 3.8 0 0 1-1.421 1.574q-.915.562-2.142.562m.006-1.426q.795 0 1.318-.42a2.47 2.47 0 0 0 .773-1.12q.255-.699.255-1.54 0-.835-.255-1.534a2.5 2.5 0 0 0-.773-1.13q-.523-.426-1.318-.427-.802 0-1.33.427a2.54 2.54 0 0 0-.778 1.13q-.25.7-.25 1.534 0 .841.25 1.54.256.7.778 1.12.529.42 1.33.42m5.959 1.25v-8.727h1.642v1.386h.09q.24-.705.841-1.108a2.4 2.4 0 0 1 1.375-.409 7 7 0 0 1 .722.04v1.625a3 3 0 0 0-.364-.063 3.5 3.5 0 0 0-.522-.04q-.603 0-1.074.256a1.9 1.9 0 0 0-1.012 1.71v5.33z"/><path fill="url(#d)" d="M60.936 43.5V31.136h8.44v2.427h-5.452V36.1h4.914v2.433h-4.914V43.5zm12.409.157q-.888 0-1.576-.296a2.45 2.45 0 0 1-1.08-.905q-.393-.61-.393-1.528 0-.773.272-1.304.27-.531.748-.863a3.5 3.5 0 0 1 1.099-.501 7 7 0 0 1 1.328-.235q.79-.074 1.274-.151.483-.085.7-.236a.51.51 0 0 0 .224-.44v-.03q0-.465-.32-.72-.32-.252-.864-.253-.585 0-.942.254a1.12 1.12 0 0 0-.452.7l-2.723-.096a3.2 3.2 0 0 1 .622-1.51q.506-.67 1.388-1.05.888-.387 2.131-.387.888 0 1.636.212.75.205 1.304.604.555.392.858.965.308.575.308 1.31V43.5h-2.778v-1.292h-.072q-.247.471-.634.797-.38.326-.9.489a3.8 3.8 0 0 1-1.158.163m.911-1.932q.477 0 .858-.193.386-.193.615-.531.23-.344.23-.797v-.882a2 2 0 0 1-.308.121 5 5 0 0 1-.387.103q-.21.048-.434.084t-.429.067a2.7 2.7 0 0 0-.712.205 1.1 1.1 0 0 0-.447.362.9.9 0 0 0-.15.52q0 .458.325.7.332.24.84.241m6.436 1.775V31.136h2.952v4.679h.06q.18-.422.513-.815.338-.393.857-.64.526-.254 1.256-.254.966 0 1.805.508.845.507 1.364 1.563t.52 2.693q0 1.575-.501 2.638-.495 1.063-1.34 1.594a3.4 3.4 0 0 1-1.866.53q-.7 0-1.213-.229a2.6 2.6 0 0 1-.864-.603 2.9 2.9 0 0 1-.531-.803h-.09V43.5zm2.891-4.636q0 .748.2 1.304.205.555.585.863.387.302.924.302.543 0 .923-.302.38-.308.574-.863.2-.555.2-1.304 0-.75-.2-1.298-.193-.55-.574-.852-.374-.3-.923-.301-.543 0-.924.295-.38.297-.585.846-.2.548-.2 1.31m7.983 4.636v-9.273h2.867v1.69h.097q.254-.917.827-1.364a2.1 2.1 0 0 1 1.334-.453q.206 0 .422.03.217.025.405.08v2.565a3 3 0 0 0-.555-.115 5 5 0 0 0-.604-.042q-.525 0-.948.235a1.7 1.7 0 0 0-.658.646 1.9 1.9 0 0 0-.235.966V43.5zm7.155 0v-9.273h2.952V43.5zm1.479-10.353q-.621 0-1.069-.41a1.32 1.32 0 0 1-.446-1.003q0-.579.446-.99a1.5 1.5 0 0 1 1.069-.417q.628 0 1.068.417.447.411.447.99 0 .585-.447 1.002a1.5 1.5 0 0 1-1.068.41m7.68 10.528q-1.467 0-2.517-.604a4.1 4.1 0 0 1-1.606-1.678q-.561-1.08-.561-2.5 0-1.424.561-2.498a4.1 4.1 0 0 1 1.612-1.685q1.05-.603 2.505-.604 1.287 0 2.24.465.96.465 1.497 1.316.543.846.574 1.987h-2.759q-.084-.713-.483-1.117-.393-.405-1.026-.405a1.46 1.46 0 0 0-.9.29q-.386.284-.604.845-.21.556-.211 1.377 0 .82.211 1.388.218.561.604.851.387.285.9.284.41 0 .724-.175.32-.175.525-.513.206-.344.26-.833h2.759q-.043 1.146-.574 2.004a3.55 3.55 0 0 1-1.479 1.334q-.948.471-2.252.471"/></g><defs><linearGradient id="a" x1="83.5" x2="83.5" y1="0" y2="56" gradientUnits="userSpaceOnUse"><stop stop-color="#2d2a24"/><stop offset="1" stop-color="#1e1c18"/></linearGradient><linearGradient id="d" x1="88.592" x2="88.592" y1="28.5" y2="43.731" gradientUnits="userSpaceOnUse"><stop stop-color="#dbd0b4"/><stop offset="1" stop-color="#bcb29c"/></linearGradient><filter id="b" width="51.429" height="51.429" x="6.286" y="2.286" color-interpolation-filters="sRGB" filterUnits="userSpaceOnUse"><feFlood flood-opacity="0" result="BackgroundImageFix"/><feColorMatrix in="SourceAlpha" result="hardAlpha" values="0 0 0 0 0 0 0 0 0 0 0 0 0 0 0 0 0 0 127 0"/><feOffset/><feGaussianBlur stdDeviation="2.857"/><feComposite in2="hardAlpha" operator="out"/><feColorMatrix values="0 0 0 0 0 0 0 0 0 0 0 0 0 0 0 0 0 0 0.25 0"/><feBlend in2="BackgroundImageFix" result="effect1_dropShadow_28_926"/><feBlend in="SourceGraphic" in2="effect1_dropShadow_28_926" result="shape"/></filter><filter id="c" width="106.2" height="48.2" x="54.4" y="3.9" color-interpolation-filters="sRGB" filterUnits="userSpaceOnUse"><feFlood flood-opacity="0" result="BackgroundImageFix"/><feColorMatrix in="SourceAlpha" result="hardAlpha" values="0 0 0 0 0 0 0 0 0 0 0 0 0 0 0 0 0 0 127 0"/><feOffset/><feGaussianBlur stdDeviation="2.8"/><feComposite in2="hardAlpha" operator="out"/><feColorMatrix values="0 0 0 0 0 0 0 0 0 0 0 0 0 0 0 0 0 0 0.25 0"/><feBlend in2="BackgroundImageFix" result="effect1_dropShadow_28_926"/><feBlend in="SourceGraphic" in2="effect1_dropShadow_28_926" result="shape"/></filter></defs></svg>