<svg xmlns="http://www.w3.org/2000/svg" width="167" height="56" fill="none" viewBox="0 0 167 56"><rect width="167" height="56" fill="url(#a)" rx="8"/><rect width="164.9" height="53.9" x="1.05" y="1.05" stroke="#fff" stroke-opacity=".15" stroke-width="2.1" rx="6.95"/><g filter="url(#b)"><path fill="#4e84c4" d="M15.572 22.658v-4.954c.064-.004.128-.09.19-.111 1.067-.543 2.124-1.111 3.206-1.623.324-.155.442-.305.436-.67-.024-1.323-.01-2.648-.01-3.972 0-.407 0-.41.337-.58 1.396-.709 2.794-1.412 4.188-2.123.392-.199.816-.335 1.159-.625h.31c.012.03.016.076.037.087 1.77.89 3.543 1.775 5.31 2.672.107.055.147.059.256 0 .594-.31 1.207-.586 1.798-.903.162-.088.243-.074.398.012.458.259.938.476 1.412.712.305.154.305.16.565.023.44-.232.875-.47 1.315-.702.31-.163.342-.163.63-.017l5.213 2.657c1.924.977 3.852 1.945 5.771 2.93.12.062.223.051.336.066v14.66c-.113.016-.216.005-.336.066a531 531 0 0 1-6.804 3.438c-.38.187-.52.39-.517.824.02 3.035.005 6.07.02 9.105 0 .302-.088.463-.35.584-.508.235-1.002.497-1.502.748q-.056.029-.11.062.07.015.137.044c.54.277 1.077.562 1.622.833.097.049.092.07.024.122q-.08.052-.168.093c-.827.416-1.663.82-2.478 1.264-.371.202-.789.325-1.11.62h-.104a3 3 0 0 0-.298-.208q-5.58-2.832-11.162-5.658a1 1 0 0 1-.098-.07q.045-.016.088-.037c1.169-.593 2.34-1.18 3.504-1.783a.62.62 0 0 1 .64 0c.532.284 1.073.55 1.61.822q.815-.408 1.627-.82c.043-.023.078-.101.112-.098.162.016.156-.083.155-.194 0-.645-.004-1.29 0-1.936 0-.127-.054-.139-.16-.194-.89-.436-1.768-.897-2.651-1.346q-4.274-2.17-8.553-4.335c-.144-.074-.22-.136-.218-.324.014-1.08.004-2.162.009-3.243 0-.19-.046-.292-.24-.38-.48-.215-.935-.49-1.41-.718-.206-.099-.333-.182-.324-.456.024-.784 0-1.57.017-2.353.005-.187-.083-.217-.206-.278-1.096-.551-2.2-1.102-3.29-1.667-.118-.062-.218-.05-.333-.066m23.145 16.39v-3.87c0-.12.026-.17-.146-.083-1.064.549-2.142 1.068-3.216 1.598-.143.07-.348.113-.411.23-.078.151-.044.364-.05.551-.007.157 0 .314 0 .47q0 1.518.003 3.034c0 .139-.046.18-.173.24-.534.253-1.054.538-1.576.811a1 1 0 0 0-.099.07l.089.037c1.185.593 2.371 1.181 3.552 1.787.098.05.128.056.23 0a33 33 0 0 1 1.589-.784c.153-.07.216-.143.214-.325-.011-1.256-.006-2.511-.006-3.766"/></g><g filter="url(#c)"><path fill="#e8e8e8" d="M62.261 24.5h-1.863l4.187-11.636h2.029L70.8 24.5h-1.864l-3.29-9.523h-.09zm.313-4.557h6.045v1.477h-6.045zm16.143-4.17L75.553 24.5h-1.819l-3.17-8.727h1.824l2.21 6.716h.09l2.206-6.716zm3.887 8.92a3.6 3.6 0 0 1-1.5-.307 2.53 2.53 0 0 1-1.063-.903q-.386-.591-.386-1.449 0-.739.284-1.216.285-.477.767-.756a4 4 0 0 1 1.08-.42q.596-.142 1.215-.216l1.273-.148q.49-.061.71-.198.222-.137.222-.444v-.04q0-.744-.42-1.153-.415-.41-1.24-.409-.857 0-1.351.38-.489.376-.676.836l-1.597-.364q.284-.795.83-1.284.551-.495 1.267-.716.716-.227 1.505-.227.523 0 1.108.125.59.12 1.102.443.517.324.847.926.33.597.33 1.552V24.5h-1.66v-1.193h-.068q-.165.33-.494.648-.33.318-.847.528t-1.238.21m.369-1.364q.705 0 1.204-.278.506-.278.768-.727.267-.454.267-.972v-1.125q-.091.091-.353.17-.255.075-.585.131-.33.052-.642.097l-.523.068q-.494.063-.903.21-.404.148-.648.427-.238.272-.238.727 0 .63.466.954.465.32 1.187.319m6.2 1.171v-8.727h1.7V24.5zm.858-10.074a1.08 1.08 0 0 1-.761-.295.96.96 0 0 1-.313-.716q0-.421.313-.716.318-.3.761-.301.444 0 .756.3a.94.94 0 0 1 .318.717.95.95 0 0 1-.318.716 1.06 1.06 0 0 1-.756.295m4.825-1.562V24.5h-1.698V12.864zm4.826 11.83a3.6 3.6 0 0 1-1.5-.308 2.53 2.53 0 0 1-1.063-.903q-.386-.591-.386-1.449 0-.739.284-1.216t.767-.756a4 4 0 0 1 1.08-.42 11 11 0 0 1 1.216-.216l1.272-.148q.49-.061.71-.198.222-.137.222-.444v-.04q0-.744-.42-1.153-.415-.41-1.239-.409-.858 0-1.352.38-.489.376-.676.836L97 17.886q.284-.795.83-1.284.551-.495 1.267-.716.716-.227 1.505-.227.523 0 1.108.125.592.12 1.102.443.517.324.847.926.33.597.33 1.552V24.5h-1.659v-1.193h-.069q-.164.33-.494.648t-.847.528-1.238.21m.369-1.364q.704 0 1.205-.279.505-.278.767-.727.267-.454.267-.972v-1.125q-.091.091-.353.17-.255.075-.585.131-.329.052-.642.097l-.523.068q-.494.063-.903.21a1.55 1.55 0 0 0-.648.427q-.238.272-.238.727 0 .63.466.954.465.32 1.187.319m6.337 1.17V12.864h1.699v4.323h.102q.147-.272.426-.63t.773-.625q.494-.273 1.307-.273 1.056 0 1.886.534.83.535 1.301 1.54.477 1.005.477 2.42t-.471 2.427q-.472 1.005-1.296 1.55-.824.54-1.88.54-.796 0-1.302-.267a2.5 2.5 0 0 1-.784-.625 5 5 0 0 1-.437-.636h-.142V24.5zm1.665-4.364q0 .921.267 1.614t.772 1.085q.506.387 1.239.387.762 0 1.273-.404.511-.41.772-1.108.267-.699.267-1.574 0-.863-.261-1.55-.255-.689-.773-1.086-.511-.398-1.278-.398-.738 0-1.25.381-.506.38-.767 1.063-.261.681-.261 1.59m9.913-7.272V24.5h-1.699V12.864zm6.047 11.812q-1.29 0-2.222-.551a3.74 3.74 0 0 1-1.432-1.562q-.5-1.012-.5-2.37 0-1.341.5-2.364a3.9 3.9 0 0 1 1.409-1.596q.91-.574 2.125-.574.74 0 1.432.244.693.244 1.245.768.55.522.869 1.357.318.83.318 2.018v.602h-6.937v-1.273h5.272q0-.67-.272-1.187a2.07 2.07 0 0 0-.767-.824q-.49-.302-1.148-.302-.716 0-1.25.353a2.36 2.36 0 0 0-.818.909q-.284.556-.284 1.21v.994q0 .876.306 1.489.313.615.87.938.557.318 1.301.318.483 0 .88-.137.399-.142.688-.42.29-.279.443-.688l1.608.29q-.194.71-.693 1.244-.494.529-1.244.824-.745.29-1.699.29m14.017-8.903v1.363h-4.932v-1.363zm-3.58 8.727V14.76q0-.818.358-1.358.358-.545.949-.812a3 3 0 0 1 1.284-.273q.512 0 .875.085.365.08.54.148l-.398 1.375a8 8 0 0 0-.307-.08 1.7 1.7 0 0 0-.454-.05q-.619 0-.887.306-.261.307-.261.887V24.5zm8.665.176q-1.227 0-2.142-.562a3.8 3.8 0 0 1-1.42-1.574q-.507-1.011-.506-2.364 0-1.358.506-2.375a3.8 3.8 0 0 1 1.42-1.58q.915-.561 2.142-.562 1.227 0 2.142.563t1.421 1.58q.505 1.016.505 2.374 0 1.353-.505 2.364a3.8 3.8 0 0 1-1.421 1.574q-.915.562-2.142.562m.006-1.426q.795 0 1.318-.42a2.47 2.47 0 0 0 .773-1.12q.255-.699.255-1.54 0-.835-.255-1.534a2.5 2.5 0 0 0-.773-1.13q-.523-.426-1.318-.427-.802 0-1.33.427a2.54 2.54 0 0 0-.778 1.13q-.25.7-.25 1.535 0 .84.25 1.54.256.697.778 1.119.529.42 1.33.42m5.959 1.25v-8.727h1.642v1.386h.09q.24-.705.841-1.108a2.4 2.4 0 0 1 1.375-.409 7 7 0 0 1 .722.04v1.625a3 3 0 0 0-.364-.063 3.5 3.5 0 0 0-.522-.04q-.603 0-1.074.256a1.9 1.9 0 0 0-1.012 1.71v5.33z"/><path fill="#4e84c4" d="M60.936 43.5V31.136h2.988v9.937h5.143V43.5zm9.678 0v-9.273h2.953V43.5zm1.48-10.353q-.622 0-1.07-.41a1.32 1.32 0 0 1-.446-1.003q0-.579.447-.99a1.5 1.5 0 0 1 1.069-.417q.627 0 1.068.417.447.411.447.99 0 .585-.447 1.002a1.5 1.5 0 0 1-1.069.41m8.586 1.08V36.4h-5.85v-2.174zm-4.625-2.221h2.952v8.578q0 .272.085.44.09.165.26.236.168.067.404.067.168 0 .356-.03.193-.038.29-.06l.447 2.13q-.211.06-.598.151a5 5 0 0 1-.912.115q-1.038.048-1.78-.242a2.3 2.3 0 0 1-1.13-.917q-.386-.622-.374-1.564zm10.366 11.67q-1.455 0-2.512-.574a3.97 3.97 0 0 1-1.618-1.648q-.561-1.075-.561-2.554 0-1.437.567-2.511.568-1.08 1.6-1.679 1.033-.603 2.433-.604.99 0 1.811.308.82.309 1.419.912.597.604.93 1.491.331.882.332 2.023v.736h-8.06V37.86h5.313a1.66 1.66 0 0 0-.224-.839 1.5 1.5 0 0 0-.597-.573 1.7 1.7 0 0 0-.864-.211q-.495 0-.887.223a1.68 1.68 0 0 0-.863 1.449v1.745q0 .567.223.996.223.421.634.658.411.235.978.235.393 0 .712-.109.32-.108.55-.32.229-.21.344-.519l2.71.079a3.35 3.35 0 0 1-.742 1.587q-.569.67-1.491 1.045-.924.368-2.137.368m5.908-.176V31.136h2.989v9.937h5.143V43.5zm14.007.175q-1.461 0-2.511-.598a4.13 4.13 0 0 1-1.612-1.678q-.561-1.08-.561-2.505 0-1.432.561-2.505.568-1.08 1.612-1.679 1.05-.603 2.511-.604 1.462 0 2.506.604 1.05.598 1.612 1.678.567 1.075.567 2.506 0 1.425-.567 2.505a4.1 4.1 0 0 1-1.612 1.678q-1.044.598-2.506.598m.019-2.228q.531 0 .899-.326.369-.326.562-.905.199-.58.199-1.34 0-.773-.199-1.353-.193-.58-.562-.905a1.3 1.3 0 0 0-.899-.326q-.55 0-.93.326-.375.327-.574.905a4.3 4.3 0 0 0-.193 1.353q0 .76.193 1.34.2.58.574.905.38.327.93.326m8.792 2.21q-.886 0-1.575-.296a2.46 2.46 0 0 1-1.081-.905q-.392-.61-.392-1.528 0-.773.271-1.304.272-.531.749-.863a3.5 3.5 0 0 1 1.099-.501 7 7 0 0 1 1.328-.235q.79-.074 1.274-.151.483-.085.7-.236a.51.51 0 0 0 .223-.44v-.03q0-.465-.32-.72-.32-.252-.863-.253-.585 0-.942.254a1.12 1.12 0 0 0-.453.7l-2.722-.096q.12-.846.622-1.51.507-.67 1.388-1.05.888-.387 2.131-.387.888 0 1.636.212.749.205 1.304.604.555.392.857.965.309.575.308 1.31V43.5h-2.777v-1.292h-.072q-.247.471-.634.797-.38.326-.9.489a3.8 3.8 0 0 1-1.159.163m.912-1.932q.477 0 .857-.193.387-.194.616-.531.23-.344.229-.797v-.882a1.7 1.7 0 0 1-.308.121 5 5 0 0 1-.386.103q-.212.048-.435.084-.222.036-.428.067a2.7 2.7 0 0 0-.713.205 1.1 1.1 0 0 0-.446.362.9.9 0 0 0-.151.52q0 .458.326.7.332.24.839.241m9.822 1.908a3.4 3.4 0 0 1-1.865-.531q-.84-.532-1.341-1.594t-.501-2.638q0-1.636.52-2.693.518-1.056 1.358-1.563a3.47 3.47 0 0 1 1.817-.508q.73 0 1.25.254.518.247.857.64.337.392.513.815h.06v-4.679h2.952V43.5h-2.921v-1.503h-.091a2.9 2.9 0 0 1-.531.803q-.344.374-.864.603-.513.23-1.213.23m1.026-2.3q.537 0 .918-.302.38-.308.585-.863.206-.555.206-1.304 0-.762-.206-1.31-.199-.55-.585-.846a1.45 1.45 0 0 0-.918-.295q-.55 0-.929.302-.38.3-.58.85-.193.55-.193 1.299t.199 1.304q.2.555.574.863.38.302.929.302m10.796 2.342q-1.455 0-2.512-.573a3.97 3.97 0 0 1-1.617-1.648q-.562-1.075-.562-2.554 0-1.437.568-2.511.567-1.08 1.599-1.679 1.034-.603 2.433-.604.99 0 1.811.308.822.309 1.419.912.597.604.93 1.491.332.882.332 2.023v.736h-8.06v-1.715h5.313a1.67 1.67 0 0 0-.223-.839 1.5 1.5 0 0 0-.598-.573 1.7 1.7 0 0 0-.863-.211q-.495 0-.888.223a1.68 1.68 0 0 0-.863 1.449v1.745q0 .567.223.996.224.421.634.658.411.235.978.235.392 0 .713-.109.32-.108.549-.32.23-.21.344-.519l2.711.079a3.36 3.36 0 0 1-.743 1.587q-.567.67-1.491 1.045-.924.368-2.137.368m5.908-.175v-9.273h2.868v1.69h.097q.253-.917.827-1.364a2.1 2.1 0 0 1 1.334-.453q.206 0 .422.03.218.025.405.08v2.565a3 3 0 0 0-.556-.115 5 5 0 0 0-.603-.042q-.525 0-.948.235a1.7 1.7 0 0 0-.658.646 1.9 1.9 0 0 0-.235.966V43.5z"/></g><defs><filter id="b" width="51.429" height="51.429" x="6.286" y="2.286" color-interpolation-filters="sRGB" filterUnits="userSpaceOnUse"><feFlood flood-opacity="0" result="BackgroundImageFix"/><feColorMatrix in="SourceAlpha" result="hardAlpha" values="0 0 0 0 0 0 0 0 0 0 0 0 0 0 0 0 0 0 127 0"/><feOffset/><feGaussianBlur stdDeviation="2.857"/><feComposite in2="hardAlpha" operator="out"/><feColorMatrix values="0 0 0 0 0 0 0 0 0 0 0 0 0 0 0 0 0 0 0.25 0"/><feBlend in2="BackgroundImageFix" result="effect1_dropShadow_28_938"/><feBlend in="SourceGraphic" in2="effect1_dropShadow_28_938" result="shape"/></filter><filter id="c" width="106.2" height="48.2" x="54.4" y="3.9" color-interpolation-filters="sRGB" filterUnits="userSpaceOnUse"><feFlood flood-opacity="0" result="BackgroundImageFix"/><feColorMatrix in="SourceAlpha" result="hardAlpha" values="0 0 0 0 0 0 0 0 0 0 0 0 0 0 0 0 0 0 127 0"/><feOffset/><feGaussianBlur stdDeviation="2.8"/><feComposite in2="hardAlpha" operator="out"/><feColorMatrix values="0 0 0 0 0 0 0 0 0 0 0 0 0 0 0 0 0 0 0.25 0"/><feBlend in2="BackgroundImageFix" result="effect1_dropShadow_28_938"/><feBlend in="SourceGraphic" in2="effect1_dropShadow_28_938" result="shape"/></filter><linearGradient id="a" x1="83.5" x2="83.5" y1="0" y2="56" gradientUnits="userSpaceOnUse"><stop stop-color="#131f2e"/><stop offset="1" stop-color="#0c141e"/></linearGradient></defs></svg>