<svg xmlns="http://www.w3.org/2000/svg" width="184" height="56" fill="none" viewBox="0 0 184 56"><rect width="184" height="56" fill="url(#a)" rx="8"/><rect width="181.9" height="53.9" x="1.05" y="1.05" stroke="#fff" stroke-opacity=".15" stroke-width="2.1" rx="6.95"/><g filter="url(#b)"><path fill="#fff" fill-rule="evenodd" d="M51.645 36.34c-.782 1.003-2.696 1.72-2.696 1.72l-14.24 5.206v-3.84l10.48-3.801c1.189-.434 1.371-1.047.405-1.37-.965-.322-2.712-.23-3.902.206l-6.984 2.504V32.98l.403-.139s2.018-.727 4.855-1.047c2.838-.318 6.312.043 9.04 1.096 3.073.989 3.42 2.446 2.639 3.45m-15.58-6.54v-9.82c0-1.153-.21-2.215-1.273-2.516-.814-.265-1.32.504-1.32 1.657v24.593l-6.514-2.105V12.286c2.77.523 6.806 1.76 8.975 2.505 5.518 1.929 7.389 4.329 7.389 9.737 0 5.27-3.197 7.269-7.258 5.273m-21.062 9.225c-3.155-.905-3.68-2.79-2.242-3.875 1.329-1.003 3.59-1.758 3.59-1.758l9.341-3.381v3.855l-6.722 2.449c-1.188.434-1.37 1.048-.405 1.37.965.321 2.713.23 3.903-.205l3.224-1.191v3.449c-.204.037-.432.074-.643.11-3.226.536-6.66.312-10.046-.823" clip-rule="evenodd"/></g><g filter="url(#c)"><path fill="#e8e8e8" d="M62.261 24.5h-1.863l4.187-11.636h2.029L70.8 24.5h-1.864l-3.29-9.523h-.09zm.313-4.557h6.045v1.477h-6.045zm16.143-4.17L75.553 24.5h-1.819l-3.17-8.727h1.824l2.21 6.716h.09l2.206-6.716zm3.887 8.92a3.6 3.6 0 0 1-1.5-.307 2.53 2.53 0 0 1-1.063-.903q-.386-.591-.386-1.449 0-.739.284-1.216.285-.477.767-.756a4 4 0 0 1 1.08-.42q.596-.142 1.215-.216l1.273-.148q.49-.061.71-.198.222-.137.222-.444v-.04q0-.744-.42-1.153-.415-.41-1.24-.409-.857 0-1.351.38-.489.376-.676.836l-1.597-.364q.284-.795.83-1.284.551-.495 1.267-.716.716-.227 1.505-.227.523 0 1.108.125.59.12 1.102.443.517.324.847.926.33.597.33 1.552V24.5h-1.66v-1.193h-.068q-.165.33-.494.648-.33.318-.847.528t-1.238.21m.369-1.364q.705 0 1.204-.278.506-.278.768-.727.267-.454.267-.972v-1.125q-.091.091-.353.17-.255.075-.585.131-.33.052-.642.097l-.523.068q-.494.063-.903.21-.404.148-.648.427-.238.272-.238.727 0 .63.466.954.465.32 1.187.319m6.2 1.171v-8.727h1.7V24.5zm.858-10.074a1.08 1.08 0 0 1-.761-.295.96.96 0 0 1-.313-.716q0-.421.313-.716.318-.3.761-.301.444 0 .756.3a.94.94 0 0 1 .318.717.95.95 0 0 1-.318.716 1.06 1.06 0 0 1-.756.295m4.825-1.562V24.5h-1.698V12.864zm4.826 11.83a3.6 3.6 0 0 1-1.5-.308 2.53 2.53 0 0 1-1.063-.903q-.386-.591-.386-1.449 0-.739.284-1.216t.767-.756a4 4 0 0 1 1.08-.42 11 11 0 0 1 1.216-.216l1.272-.148q.49-.061.71-.198.222-.137.222-.444v-.04q0-.744-.42-1.153-.415-.41-1.239-.409-.858 0-1.352.38-.489.376-.676.836L97 17.886q.284-.795.83-1.284.551-.495 1.267-.716.716-.227 1.505-.227.523 0 1.108.125.592.12 1.102.443.517.324.847.926.33.597.33 1.552V24.5h-1.659v-1.193h-.069q-.164.33-.494.648t-.847.528-1.238.21m.369-1.364q.704 0 1.205-.279.505-.278.767-.727.267-.454.267-.972v-1.125q-.091.091-.353.17-.255.075-.585.131-.329.052-.642.097l-.523.068q-.494.063-.903.21a1.55 1.55 0 0 0-.648.427q-.238.272-.238.727 0 .63.466.954.465.32 1.187.319m6.337 1.17V12.864h1.699v4.323h.102q.147-.272.426-.63t.773-.625q.494-.273 1.307-.273 1.056 0 1.886.534.83.535 1.301 1.54.477 1.005.477 2.42t-.471 2.427q-.472 1.005-1.296 1.55-.824.54-1.88.54-.796 0-1.302-.267a2.5 2.5 0 0 1-.784-.625 5 5 0 0 1-.437-.636h-.142V24.5zm1.665-4.364q0 .921.267 1.614t.772 1.085q.506.387 1.239.387.762 0 1.273-.404.511-.41.772-1.108.267-.699.267-1.574 0-.863-.261-1.55-.255-.689-.773-1.086-.511-.398-1.278-.398-.738 0-1.25.381-.506.38-.767 1.063-.261.681-.261 1.59m9.913-7.272V24.5h-1.699V12.864zm6.047 11.812q-1.29 0-2.222-.551a3.74 3.74 0 0 1-1.432-1.562q-.5-1.012-.5-2.37 0-1.341.5-2.364a3.9 3.9 0 0 1 1.409-1.596q.91-.574 2.125-.574.74 0 1.432.244.693.244 1.245.768.55.522.869 1.357.318.83.318 2.018v.602h-6.937v-1.273h5.272q0-.67-.272-1.187a2.07 2.07 0 0 0-.767-.824q-.49-.302-1.148-.302-.716 0-1.25.353a2.36 2.36 0 0 0-.818.909q-.284.556-.284 1.21v.994q0 .876.306 1.489.313.615.87.938.557.318 1.301.318.483 0 .88-.137.399-.142.688-.42.29-.279.443-.688l1.608.29q-.194.71-.693 1.244-.494.529-1.244.824-.745.29-1.699.29m13.54 0q-1.228 0-2.143-.562a3.8 3.8 0 0 1-1.42-1.574q-.506-1.011-.506-2.364 0-1.358.506-2.375a3.8 3.8 0 0 1 1.42-1.58q.915-.561 2.143-.562 1.227 0 2.142.563a3.8 3.8 0 0 1 1.42 1.58q.506 1.016.506 2.374 0 1.353-.506 2.364a3.8 3.8 0 0 1-1.42 1.574q-.915.562-2.142.562m.005-1.426q.796 0 1.318-.42.523-.42.773-1.12.256-.699.256-1.54 0-.835-.256-1.534a2.5 2.5 0 0 0-.773-1.13q-.522-.426-1.318-.427-.801 0-1.329.427a2.54 2.54 0 0 0-.779 1.13q-.25.7-.25 1.535 0 .84.25 1.54.256.697.779 1.119.528.42 1.329.42m7.658-3.932V24.5h-1.699v-8.727h1.631v1.42h.108q.3-.693.943-1.114.647-.42 1.631-.42.891 0 1.562.375.67.37 1.04 1.102.369.733.369 1.813V24.5h-1.699v-5.347q0-.948-.494-1.482-.495-.54-1.358-.54-.59 0-1.051.255-.455.255-.722.75-.261.489-.261 1.182"/><path fill="#fff" d="M60.936 43.5V31.136h5.107q1.388 0 2.397.544 1.014.537 1.563 1.503.55.96.55 2.233 0 1.28-.562 2.24-.556.954-1.588 1.48-1.032.525-2.45.524H62.8v-2.354h2.596q.675 0 1.129-.235.459-.236.694-.658.236-.429.236-.996 0-.575-.236-.99a1.6 1.6 0 0 0-.694-.652q-.459-.23-1.129-.23h-1.473V43.5zm14.042-12.364V43.5h-2.952V31.136zm4.493 12.521q-.888 0-1.576-.296a2.45 2.45 0 0 1-1.08-.905q-.393-.61-.393-1.528 0-.773.272-1.304.27-.531.748-.863a3.5 3.5 0 0 1 1.099-.501 7 7 0 0 1 1.328-.235q.79-.074 1.274-.151.483-.085.7-.236a.51.51 0 0 0 .224-.44v-.03q0-.465-.32-.72-.32-.252-.864-.253-.585 0-.941.254a1.12 1.12 0 0 0-.453.7l-2.723-.096q.12-.846.622-1.51.506-.67 1.388-1.05.888-.387 2.131-.387.888 0 1.636.212.75.205 1.304.604.555.392.858.965.308.575.308 1.31V43.5h-2.778v-1.292h-.072q-.247.471-.634.797-.38.326-.9.489a3.8 3.8 0 0 1-1.158.163m.911-1.932q.477 0 .857-.193.387-.194.616-.531.23-.344.23-.797v-.882a2 2 0 0 1-.308.121 5 5 0 0 1-.387.103q-.21.048-.434.084t-.429.067a2.7 2.7 0 0 0-.712.205 1.1 1.1 0 0 0-.447.362.9.9 0 0 0-.15.52q0 .458.325.7.332.24.84.241m7.909 5.252q-.532 0-1.003-.084a4 4 0 0 1-.808-.212l.651-2.143q.435.145.785.17.357.023.61-.115.26-.133.398-.477l.115-.278-3.296-9.61h3.09l1.71 6.616h.096l1.733-6.617h3.109l-3.496 10.16q-.253.762-.718 1.34a3.1 3.1 0 0 1-1.19.918q-.724.332-1.786.332m15.004-12.134q-.06-.665-.537-1.032-.471-.375-1.346-.375-.58 0-.966.151t-.58.417a1 1 0 0 0-.199.598.9.9 0 0 0 .109.489q.126.21.362.374.241.157.58.277.338.122.76.212l1.063.241q.917.2 1.618.532.706.331 1.183.79.483.459.73 1.057.248.597.254 1.34-.006 1.17-.592 2.01-.585.84-1.684 1.286-1.093.447-2.638.447-1.551 0-2.705-.465-1.152-.464-1.793-1.413-.64-.947-.658-2.396h2.862q.036.597.32.996.283.399.779.604.5.204 1.159.205.603 0 1.026-.163.429-.163.658-.453t.235-.664a.9.9 0 0 0-.217-.598q-.211-.254-.652-.434-.435-.188-1.111-.344l-1.292-.302q-1.605-.369-2.53-1.19-.922-.825-.917-2.233-.006-1.148.616-2.01.622-.864 1.72-1.347 1.1-.483 2.506-.483 1.437 0 2.493.49 1.063.482 1.648 1.358.586.875.598 2.028zm9.774-.616v2.174h-5.85v-2.174zm-4.624-2.221h2.952v8.578q0 .272.084.44a.53.53 0 0 0 .26.236q.17.067.404.067.17 0 .357-.03.192-.038.289-.06l.447 2.13q-.212.06-.597.151-.381.09-.912.115-1.038.048-1.781-.242a2.3 2.3 0 0 1-1.129-.917q-.386-.622-.374-1.564zm8.744 11.651q-.886 0-1.575-.296a2.46 2.46 0 0 1-1.081-.905q-.393-.61-.392-1.528 0-.773.271-1.304.272-.531.749-.863a3.5 3.5 0 0 1 1.099-.501 7 7 0 0 1 1.328-.235q.79-.074 1.274-.151.483-.085.7-.236a.51.51 0 0 0 .223-.44v-.03q0-.465-.32-.72-.32-.252-.863-.253-.585 0-.942.254a1.12 1.12 0 0 0-.453.7l-2.722-.096q.12-.846.622-1.51.507-.67 1.388-1.05.888-.387 2.131-.387.888 0 1.636.212.749.205 1.304.604.555.392.857.965.309.575.308 1.31V43.5h-2.777v-1.292h-.072q-.247.471-.634.797-.38.326-.9.489a3.8 3.8 0 0 1-1.159.163m.912-1.932q.477 0 .857-.193.387-.194.616-.531.23-.344.229-.797v-.882a1.7 1.7 0 0 1-.308.121 5 5 0 0 1-.386.103q-.211.048-.435.084-.222.036-.428.067a2.7 2.7 0 0 0-.713.205 1.1 1.1 0 0 0-.446.362.9.9 0 0 0-.151.52q0 .458.326.7.332.24.839.241m11.669-7.498v2.174h-5.849v-2.174zm-4.624-2.221h2.952v8.578q0 .272.085.44.09.165.259.236.17.067.405.067.168 0 .356-.03.193-.038.29-.06l.446 2.13q-.211.06-.597.151-.381.09-.912.115-1.038.048-1.781-.242a2.3 2.3 0 0 1-1.129-.917q-.386-.622-.374-1.564zm6.131 11.494v-9.273h2.952V43.5zm1.479-10.353q-.622 0-1.069-.41a1.32 1.32 0 0 1-.447-1.003q0-.579.447-.99a1.5 1.5 0 0 1 1.069-.417q.627 0 1.068.417.447.411.447.99 0 .585-.447 1.002a1.5 1.5 0 0 1-1.068.41m7.68 10.528q-1.461 0-2.511-.598a4.1 4.1 0 0 1-1.612-1.678q-.561-1.08-.562-2.505 0-1.432.562-2.505a4.07 4.07 0 0 1 1.612-1.679q1.05-.603 2.511-.604 1.461 0 2.505.604a4 4 0 0 1 1.612 1.678q.568 1.075.568 2.506 0 1.425-.568 2.505a4.07 4.07 0 0 1-1.612 1.678q-1.044.598-2.505.598m.018-2.228q.531 0 .9-.326.367-.326.561-.905.2-.58.199-1.34 0-.773-.199-1.353-.194-.58-.561-.905a1.3 1.3 0 0 0-.9-.326q-.549 0-.93.326-.373.327-.573.905-.193.58-.193 1.353 0 .76.193 1.34.2.58.573.905.381.327.93.326m9.131-3.235V43.5h-2.952v-9.273h2.807v1.703h.103a2.6 2.6 0 0 1 1.05-1.334q.743-.49 1.769-.49.978 0 1.696.441.725.435 1.123 1.22.405.779.399 1.823v5.91h-2.952v-5.33q.006-.773-.393-1.208-.392-.435-1.092-.435-.465 0-.821.206a1.36 1.36 0 0 0-.544.573q-.187.375-.193.906m16.184 5.457q-1.353 0-2.403-.489-1.05-.49-1.66-1.346-.604-.858-.628-1.968h2.898q.036.681.555 1.099.52.41 1.238.41.561 0 .996-.248.434-.247.682-.694.247-.453.241-1.038a2.04 2.04 0 0 0-.247-1.045 1.76 1.76 0 0 0-.688-.694 1.95 1.95 0 0 0-1.003-.253 2.2 2.2 0 0 0-1.02.235 1.7 1.7 0 0 0-.724.658l-2.638-.495.537-6.665h7.932v2.41h-5.475l-.284 2.915h.073q.308-.513.99-.845.688-.339 1.563-.338 1.112 0 1.98.519a3.66 3.66 0 0 1 1.377 1.425q.507.911.507 2.088 0 1.275-.604 2.258a4.16 4.16 0 0 1-1.678 1.546q-1.075.555-2.517.555"/></g><defs><filter id="b" width="51.429" height="51.429" x="6.286" y="2.286" color-interpolation-filters="sRGB" filterUnits="userSpaceOnUse"><feFlood flood-opacity="0" result="BackgroundImageFix"/><feColorMatrix in="SourceAlpha" result="hardAlpha" values="0 0 0 0 0 0 0 0 0 0 0 0 0 0 0 0 0 0 127 0"/><feOffset/><feGaussianBlur stdDeviation="2.857"/><feComposite in2="hardAlpha" operator="out"/><feColorMatrix values="0 0 0 0 0 0 0 0 0 0 0 0 0 0 0 0 0 0 0.25 0"/><feBlend in2="BackgroundImageFix" result="effect1_dropShadow_28_1036"/><feBlend in="SourceGraphic" in2="effect1_dropShadow_28_1036" result="shape"/></filter><filter id="c" width="123.2" height="48.677" x="54.4" y="3.9" color-interpolation-filters="sRGB" filterUnits="userSpaceOnUse"><feFlood flood-opacity="0" result="BackgroundImageFix"/><feColorMatrix in="SourceAlpha" result="hardAlpha" values="0 0 0 0 0 0 0 0 0 0 0 0 0 0 0 0 0 0 127 0"/><feOffset/><feGaussianBlur stdDeviation="2.8"/><feComposite in2="hardAlpha" operator="out"/><feColorMatrix values="0 0 0 0 0 0 0 0 0 0 0 0 0 0 0 0 0 0 0.25 0"/><feBlend in2="BackgroundImageFix" result="effect1_dropShadow_28_1036"/><feBlend in="SourceGraphic" in2="effect1_dropShadow_28_1036" result="shape"/></filter><linearGradient id="a" x1="0" x2="-6.776" y1="0" y2="55.168" gradientUnits="userSpaceOnUse"><stop stop-color="#131f33"/><stop offset="1" stop-color="#0d1422"/></linearGradient></defs></svg>