<svg xmlns="http://www.w3.org/2000/svg" width="167" height="56" fill="none" viewBox="0 0 167 56"><rect width="167" height="56" fill="url(#a)" rx="8"/><rect width="164.9" height="53.9" x="1.05" y="1.05" stroke="#fff" stroke-opacity=".15" stroke-width="2.1" rx="6.95"/><g stroke-linejoin="round" stroke-width=".857" filter="url(#b)"><path stroke="url(#c)" d="m41.257 13.237-7.89 4.472 7.898 4.464 7.89-4.472z"/><path stroke="url(#d)" d="m31.985 8-7.895 4.472 7.9 4.46 7.894-4.468z"/><path stroke="url(#e)" d="m22.722 13.249-7.895 4.468 7.9 4.464 7.89-4.468z"/><path stroke="url(#f)" d="m31.994 18.486-7.895 4.472 7.899 4.46 7.895-4.469z"/><path stroke="url(#g)" d="m14.143 18.882.004 8.936 7.899 4.46-.004-8.932z"/><path stroke="url(#h)" d="m23.415 24.123.004 8.932 7.899 4.464-.005-8.932z"/><path stroke="url(#i)" d="m14.147 29.367.004 8.933 7.899 4.46-.004-8.933z"/><path stroke="url(#j)" d="m23.419 34.608.004 8.932L31.322 48l-.004-8.932z"/><path stroke="url(#k)" d="m32.695 48 7.894-4.468-.004-8.932-7.895 4.468z"/><path stroke="url(#l)" d="m41.962 42.751 7.895-4.468-.008-8.932-7.89 4.468z"/><path stroke="url(#m)" d="m41.954 32.266 7.895-4.468-.005-8.932-7.894 4.468z"/><path stroke="url(#n)" d="m32.686 28.583.005 8.932 7.89-4.468-.004-8.932z"/></g><g filter="url(#o)"><path fill="#e8e8e8" d="M62.261 24.5h-1.863l4.187-11.636h2.029L70.8 24.5h-1.864l-3.29-9.523h-.09zm.313-4.557h6.045v1.477h-6.045zm16.143-4.17L75.553 24.5h-1.819l-3.17-8.727h1.824l2.21 6.716h.09l2.206-6.716zm3.887 8.92a3.6 3.6 0 0 1-1.5-.307 2.53 2.53 0 0 1-1.063-.903q-.386-.591-.386-1.449 0-.739.284-1.216.285-.477.767-.756a4 4 0 0 1 1.08-.42q.596-.142 1.215-.216l1.273-.148q.49-.061.71-.198.222-.137.222-.444v-.04q0-.744-.42-1.153-.415-.41-1.24-.409-.857 0-1.351.38-.489.376-.676.836l-1.597-.364q.284-.795.83-1.284.551-.495 1.267-.716.716-.227 1.505-.227.523 0 1.108.125.59.12 1.102.443.517.324.847.926.33.597.33 1.552V24.5h-1.66v-1.193h-.068q-.165.33-.494.648-.33.318-.847.528t-1.238.21m.369-1.364q.705 0 1.204-.278.506-.278.768-.727.267-.454.267-.972v-1.125q-.091.091-.353.17-.255.075-.585.131-.33.052-.642.097l-.523.068q-.494.063-.903.21-.404.148-.648.427-.238.272-.238.727 0 .63.466.954.465.32 1.187.319m6.2 1.171v-8.727h1.7V24.5zm.858-10.074a1.08 1.08 0 0 1-.761-.295.96.96 0 0 1-.313-.716q0-.421.313-.716.318-.3.761-.301.444 0 .756.3a.94.94 0 0 1 .318.717.95.95 0 0 1-.318.716 1.06 1.06 0 0 1-.756.295m4.825-1.562V24.5h-1.698V12.864zm4.826 11.83a3.6 3.6 0 0 1-1.5-.308 2.53 2.53 0 0 1-1.063-.903q-.386-.591-.386-1.449 0-.739.284-1.216t.767-.756a4 4 0 0 1 1.08-.42 11 11 0 0 1 1.216-.216l1.272-.148q.49-.061.71-.198.222-.137.222-.444v-.04q0-.744-.42-1.153-.415-.41-1.239-.409-.858 0-1.352.38-.489.376-.676.836L97 17.886q.284-.795.83-1.284.551-.495 1.267-.716.716-.227 1.505-.227.523 0 1.108.125.592.12 1.102.443.517.324.847.926.33.597.33 1.552V24.5h-1.659v-1.193h-.069q-.164.33-.494.648t-.847.528-1.238.21m.369-1.364q.704 0 1.205-.279.505-.278.767-.727.267-.454.267-.972v-1.125q-.091.091-.353.17-.255.075-.585.131-.329.052-.642.097l-.523.068q-.494.063-.903.21a1.55 1.55 0 0 0-.648.427q-.238.272-.238.727 0 .63.466.954.465.32 1.187.319m6.337 1.17V12.864h1.699v4.323h.102q.147-.272.426-.63t.773-.625q.494-.273 1.307-.273 1.056 0 1.886.534.83.535 1.301 1.54.477 1.005.477 2.42t-.471 2.427q-.472 1.005-1.296 1.55-.824.54-1.88.54-.796 0-1.302-.267a2.5 2.5 0 0 1-.784-.625 5 5 0 0 1-.437-.636h-.142V24.5zm1.665-4.364q0 .921.267 1.614t.772 1.085q.506.387 1.239.387.762 0 1.273-.404.511-.41.772-1.108.267-.699.267-1.574 0-.863-.261-1.55-.255-.689-.773-1.086-.511-.398-1.278-.398-.738 0-1.25.381-.506.38-.767 1.063-.261.681-.261 1.59m9.913-7.272V24.5h-1.699V12.864zm6.047 11.812q-1.29 0-2.222-.551a3.74 3.74 0 0 1-1.432-1.562q-.5-1.012-.5-2.37 0-1.341.5-2.364a3.9 3.9 0 0 1 1.409-1.596q.91-.574 2.125-.574.74 0 1.432.244.693.244 1.245.768.55.522.869 1.357.318.83.318 2.018v.602h-6.937v-1.273h5.272q0-.67-.272-1.187a2.07 2.07 0 0 0-.767-.824q-.49-.302-1.148-.302-.716 0-1.25.353a2.36 2.36 0 0 0-.818.909q-.284.556-.284 1.21v.994q0 .876.306 1.489.313.615.87.938.557.318 1.301.318.483 0 .88-.137.399-.142.688-.42.29-.279.443-.688l1.608.29q-.194.71-.693 1.244-.494.529-1.244.824-.745.29-1.699.29m14.017-8.903v1.363h-4.932v-1.363zm-3.58 8.727V14.76q0-.818.358-1.358.358-.545.949-.812a3 3 0 0 1 1.284-.273q.512 0 .875.085.365.08.54.148l-.398 1.375a8 8 0 0 0-.307-.08 1.7 1.7 0 0 0-.454-.05q-.619 0-.887.306-.261.307-.261.887V24.5zm8.665.176q-1.227 0-2.142-.562a3.8 3.8 0 0 1-1.42-1.574q-.507-1.011-.506-2.364 0-1.358.506-2.375a3.8 3.8 0 0 1 1.42-1.58q.915-.561 2.142-.562 1.227 0 2.142.563t1.421 1.58q.505 1.016.505 2.374 0 1.353-.505 2.364a3.8 3.8 0 0 1-1.421 1.574q-.915.562-2.142.562m.006-1.426q.795 0 1.318-.42a2.47 2.47 0 0 0 .773-1.12q.255-.699.255-1.54 0-.835-.255-1.534a2.5 2.5 0 0 0-.773-1.13q-.523-.426-1.318-.427-.802 0-1.33.427a2.54 2.54 0 0 0-.778 1.13q-.25.7-.25 1.535 0 .84.25 1.54.256.697.778 1.119.529.42 1.33.42m5.959 1.25v-8.727h1.642v1.386h.09q.24-.705.841-1.108a2.4 2.4 0 0 1 1.375-.409 7 7 0 0 1 .722.04v1.625a3 3 0 0 0-.364-.063 3.5 3.5 0 0 0-.522-.04q-.603 0-1.074.256a1.9 1.9 0 0 0-1.012 1.71v5.33z"/><path fill="url(#p)" d="M60.936 43.5V31.136h5.107q1.388 0 2.397.544 1.014.537 1.563 1.503.55.96.55 2.233 0 1.28-.562 2.24-.556.954-1.588 1.48-1.032.525-2.45.524H62.8v-2.354h2.596q.675 0 1.129-.235.459-.236.694-.658.236-.429.236-.996 0-.575-.236-.99a1.6 1.6 0 0 0-.694-.652q-.459-.23-1.129-.23h-1.473V43.5zm17.072-4.002v-5.27h2.946V43.5h-2.813v-1.727h-.097a2.7 2.7 0 0 1-1.05 1.353q-.737.495-1.78.495-.949 0-1.667-.435a2.96 2.96 0 0 1-1.117-1.213q-.399-.785-.404-1.836v-5.91h2.952v5.33q.006.755.398 1.19.393.435 1.069.435.44 0 .79-.193.357-.2.562-.574.21-.38.211-.917m4.825 4.002v-9.273h2.868v1.69h.096q.254-.917.827-1.364a2.1 2.1 0 0 1 1.335-.453q.204 0 .422.03.218.025.405.08v2.565a3 3 0 0 0-.556-.115 5 5 0 0 0-.604-.042q-.525 0-.947.235a1.7 1.7 0 0 0-.658.646 1.9 1.9 0 0 0-.236.966V43.5zm7.155 3.477v-12.75h2.922v1.588H93q.183-.422.514-.815.338-.393.857-.64.525-.254 1.256-.254.966 0 1.805.508.845.507 1.364 1.563t.52 2.693q0 1.575-.502 2.638-.494 1.063-1.34 1.594a3.4 3.4 0 0 1-1.865.53q-.7 0-1.214-.229a2.6 2.6 0 0 1-.863-.603 2.9 2.9 0 0 1-.531-.803h-.06v4.98zm2.892-8.113q0 .748.2 1.304.204.555.585.863.386.302.924.302.543 0 .923-.302.38-.308.574-.863.2-.555.199-1.304 0-.75-.2-1.298-.193-.55-.573-.852-.374-.3-.923-.301-.544 0-.924.295-.38.297-.586.846-.199.548-.199 1.31m13.965.634v-5.27h2.946V43.5h-2.813v-1.727h-.097a2.7 2.7 0 0 1-1.05 1.353q-.737.495-1.781.495-.948 0-1.666-.435a2.96 2.96 0 0 1-1.117-1.213q-.399-.785-.405-1.836v-5.91h2.953v5.33q.005.755.398 1.19t1.069.435q.44 0 .79-.193.357-.2.562-.574.211-.38.211-.917m4.825 4.002v-9.273h2.868v1.69h.096q.254-.917.827-1.364a2.1 2.1 0 0 1 1.334-.453q.206 0 .423.03.218.025.404.08v2.565a3 3 0 0 0-.555-.115 5 5 0 0 0-.604-.042q-.525 0-.947.235a1.7 1.7 0 0 0-.658.646 1.9 1.9 0 0 0-.236.966V43.5z"/></g><defs><linearGradient id="a" x1="0" x2="167.464" y1="0" y2="54.576" gradientUnits="userSpaceOnUse"><stop stop-color="#092230"/><stop offset="1" stop-color="#200521"/></linearGradient><linearGradient id="c" x1="11.176" x2="52.046" y1="7.571" y2="49.289" gradientUnits="userSpaceOnUse"><stop offset=".15" stop-color="#25b8ff"/><stop offset=".85" stop-color="#fa02ff"/></linearGradient><linearGradient id="d" x1="11.176" x2="52.046" y1="7.571" y2="49.289" gradientUnits="userSpaceOnUse"><stop offset=".15" stop-color="#25b8ff"/><stop offset=".85" stop-color="#fa02ff"/></linearGradient><linearGradient id="e" x1="11.176" x2="52.046" y1="7.571" y2="49.289" gradientUnits="userSpaceOnUse"><stop offset=".15" stop-color="#25b8ff"/><stop offset=".85" stop-color="#fa02ff"/></linearGradient><linearGradient id="f" x1="11.176" x2="52.046" y1="7.571" y2="49.289" gradientUnits="userSpaceOnUse"><stop offset=".15" stop-color="#25b8ff"/><stop offset=".85" stop-color="#fa02ff"/></linearGradient><linearGradient id="g" x1="11.176" x2="52.046" y1="7.571" y2="49.289" gradientUnits="userSpaceOnUse"><stop offset=".15" stop-color="#25b8ff"/><stop offset=".85" stop-color="#fa02ff"/></linearGradient><linearGradient id="h" x1="11.176" x2="52.046" y1="7.571" y2="49.289" gradientUnits="userSpaceOnUse"><stop offset=".15" stop-color="#25b8ff"/><stop offset=".85" stop-color="#fa02ff"/></linearGradient><linearGradient id="i" x1="11.176" x2="52.046" y1="7.571" y2="49.289" gradientUnits="userSpaceOnUse"><stop offset=".15" stop-color="#25b8ff"/><stop offset=".85" stop-color="#fa02ff"/></linearGradient><linearGradient id="j" x1="11.176" x2="52.046" y1="7.571" y2="49.289" gradientUnits="userSpaceOnUse"><stop offset=".15" stop-color="#25b8ff"/><stop offset=".85" stop-color="#fa02ff"/></linearGradient><linearGradient id="k" x1="11.176" x2="52.046" y1="7.571" y2="49.289" gradientUnits="userSpaceOnUse"><stop offset=".15" stop-color="#25b8ff"/><stop offset=".85" stop-color="#fa02ff"/></linearGradient><linearGradient id="l" x1="11.176" x2="52.046" y1="7.571" y2="49.289" gradientUnits="userSpaceOnUse"><stop offset=".15" stop-color="#25b8ff"/><stop offset=".85" stop-color="#fa02ff"/></linearGradient><linearGradient id="m" x1="11.176" x2="52.046" y1="7.571" y2="49.289" gradientUnits="userSpaceOnUse"><stop offset=".15" stop-color="#25b8ff"/><stop offset=".85" stop-color="#fa02ff"/></linearGradient><linearGradient id="n" x1="11.176" x2="52.046" y1="7.571" y2="49.289" gradientUnits="userSpaceOnUse"><stop offset=".15" stop-color="#25b8ff"/><stop offset=".85" stop-color="#fa02ff"/></linearGradient><linearGradient id="p" x1="60" x2="118" y1="28.5" y2="28.5" gradientUnits="userSpaceOnUse"><stop stop-color="#93daff"/><stop offset="1" stop-color="#fc80ff"/></linearGradient><filter id="b" width="51.429" height="52.286" x="6.286" y="1.857" color-interpolation-filters="sRGB" filterUnits="userSpaceOnUse"><feFlood flood-opacity="0" result="BackgroundImageFix"/><feColorMatrix in="SourceAlpha" result="hardAlpha" values="0 0 0 0 0 0 0 0 0 0 0 0 0 0 0 0 0 0 127 0"/><feOffset/><feGaussianBlur stdDeviation="2.857"/><feComposite in2="hardAlpha" operator="out"/><feColorMatrix values="0 0 0 0 0 0 0 0 0 0 0 0 0 0 0 0 0 0 0.25 0"/><feBlend in2="BackgroundImageFix" result="effect1_dropShadow_28_990"/><feBlend in="SourceGraphic" in2="effect1_dropShadow_28_990" result="shape"/></filter><filter id="o" width="106.2" height="48.677" x="54.4" y="3.9" color-interpolation-filters="sRGB" filterUnits="userSpaceOnUse"><feFlood flood-opacity="0" result="BackgroundImageFix"/><feColorMatrix in="SourceAlpha" result="hardAlpha" values="0 0 0 0 0 0 0 0 0 0 0 0 0 0 0 0 0 0 127 0"/><feOffset/><feGaussianBlur stdDeviation="2.8"/><feComposite in2="hardAlpha" operator="out"/><feColorMatrix values="0 0 0 0 0 0 0 0 0 0 0 0 0 0 0 0 0 0 0.25 0"/><feBlend in2="BackgroundImageFix" result="effect1_dropShadow_28_990"/><feBlend in="SourceGraphic" in2="effect1_dropShadow_28_990" result="shape"/></filter></defs></svg>