<svg xmlns="http://www.w3.org/2000/svg" width="167" height="56" fill="none" viewBox="0 0 167 56"><g clip-path="url(#a)"><rect width="167" height="56" fill="url(#b)" rx="8"/><g filter="url(#c)"><path fill="#9722ff" d="M23.122 13.536a.707.707 0 0 0 .706.707h1.202v2.687h-1.202a.706.706 0 1 0 0 1.414h1.202v2.06a.626.626 0 0 1-.626.626h-2.06v-1.202a.707.707 0 1 0-1.414 0v1.202h-2.687v-1.202a.707.707 0 1 0-1.413 0v1.202h-2.06a.627.627 0 0 1-.627-.626V10.77a.626.626 0 0 1 .626-.626h9.635a.626.626 0 0 1 .626.626v2.06h-1.202a.71.71 0 0 0-.706.707"/><path fill="#dc29dd" d="M35.421 13.536a.707.707 0 0 0 .707.707h1.205v2.687h-1.202a.706.706 0 1 0 0 1.414h1.202v2.06a.627.627 0 0 1-.626.626h-9.636a.626.626 0 0 1-.626-.626v-2.06h1.2a.707.707 0 0 0 0-1.414h-1.2v-2.687h1.2a.709.709 0 1 0 0-1.414h-1.2v-2.06a.626.626 0 0 1 .626-.626h9.635a.626.626 0 0 1 .626.626v2.06H36.13a.706.706 0 0 0-.709.707"/><path fill="#27a2fd" d="M49.633 10.77v9.634a.626.626 0 0 1-.626.626h-2.06v-1.202a.706.706 0 1 0-1.414 0v1.202h-2.687v-1.202a.707.707 0 1 0-1.414 0v1.202h-2.06a.627.627 0 0 1-.626-.626v-2.06h1.202a.707.707 0 0 0 0-1.414h-1.202v-2.687h1.202a.708.708 0 0 0 0-1.414h-1.202v-2.06a.626.626 0 0 1 .626-.626h9.635a.626.626 0 0 1 .626.626"/><path fill="#dc29dd" d="M25.03 23.07v9.635a.626.626 0 0 1-.626.627h-2.06V32.13a.707.707 0 0 0-1.414 0v1.203h-2.687v-1.202a.707.707 0 0 0-1.413 0v1.202h-2.06a.627.627 0 0 1-.627-.626V23.07a.627.627 0 0 1 .626-.626h2.06v1.202a.707.707 0 0 0 1.414 0v-1.202h2.687v1.202a.707.707 0 1 0 1.414 0v-1.202h2.06a.626.626 0 0 1 .626.626"/><path fill="#27a2fd" d="M35.421 25.838a.707.707 0 0 0 .707.706h1.205v2.687h-1.202a.707.707 0 1 0 0 1.414h1.202v2.06a.626.626 0 0 1-.626.627h-2.062V32.13a.707.707 0 0 0-1.414 0v1.203h-2.686v-1.202a.707.707 0 0 0-1.415 0v1.202h-2.06a.626.626 0 0 1-.625-.626V23.07a.626.626 0 0 1 .626-.626h9.635a.627.627 0 0 1 .626.626v2.06H36.13a.706.706 0 0 0-.709.708"/><path fill="#34f" d="M49.633 23.07v9.635a.624.624 0 0 1-.626.627h-9.635a.626.626 0 0 1-.626-.627v-2.06h1.202a.707.707 0 0 0 0-1.414h-1.202v-2.687h1.202a.707.707 0 0 0 0-1.413h-1.202v-2.06a.627.627 0 0 1 .626-.627h2.059v1.202a.707.707 0 0 0 1.414 0v-1.202h2.686v1.202a.707.707 0 0 0 1.414 0v-1.202h2.06a.626.626 0 0 1 .628.626"/><path fill="#9722ff" d="M23.121 38.14a.707.707 0 0 0 .707.706h1.202v2.686h-1.202a.708.708 0 0 0 0 1.415h1.202v2.06a.626.626 0 0 1-.626.627h-9.635a.627.627 0 0 1-.626-.627v-9.635a.627.627 0 0 1 .626-.626h2.06v1.201a.707.707 0 1 0 1.414 0v-1.201h2.687v1.201a.706.706 0 1 0 1.414 0v-1.201h2.06a.625.625 0 0 1 .626.626v2.059h-1.202a.71.71 0 0 0-.707.709"/><path fill="#34f" d="M37.333 35.372v9.635a.627.627 0 0 1-.626.627h-9.636a.626.626 0 0 1-.626-.627v-2.06h1.2a.705.705 0 0 0 .73-.707.71.71 0 0 0-.73-.708h-1.2v-2.686h1.2a.707.707 0 1 0 0-1.414h-1.2v-2.06a.626.626 0 0 1 .626-.626h2.06v1.201a.706.706 0 1 0 1.414 0v-1.201h2.686v1.201a.708.708 0 0 0 1.414 0v-1.201h2.06a.626.626 0 0 1 .628.626"/><path fill="#9722ff" d="m46.001 35.188-6.813 6.813a.626.626 0 0 0 0 .886l6.813 6.813a.626.626 0 0 0 .886 0l6.813-6.813a.626.626 0 0 0 0-.886l-6.813-6.813a.626.626 0 0 0-.886 0"/></g><g filter="url(#d)"><path fill="#e8e8e8" d="M62.261 24.5h-1.863l4.187-11.636h2.029L70.8 24.5h-1.864l-3.29-9.523h-.09zm.313-4.557h6.045v1.477h-6.045zm16.143-4.17L75.553 24.5h-1.819l-3.17-8.727h1.824l2.21 6.716h.09l2.206-6.716zm3.887 8.92a3.6 3.6 0 0 1-1.5-.307 2.53 2.53 0 0 1-1.063-.903q-.386-.591-.386-1.449 0-.739.284-1.216.285-.477.767-.756a4 4 0 0 1 1.08-.42q.596-.142 1.215-.216l1.273-.148q.49-.061.71-.198.222-.137.222-.444v-.04q0-.744-.42-1.153-.415-.41-1.24-.409-.857 0-1.351.38-.489.376-.676.836l-1.597-.364q.284-.795.83-1.284.551-.495 1.267-.716.716-.227 1.505-.227.523 0 1.108.125.59.12 1.102.443.517.324.847.926.33.597.33 1.552V24.5h-1.66v-1.193h-.068q-.165.33-.494.648-.33.318-.847.528t-1.238.21m.369-1.364q.705 0 1.204-.278.506-.278.768-.727.267-.454.267-.972v-1.125q-.091.091-.353.17-.255.075-.585.131-.33.052-.642.097l-.523.068q-.494.063-.903.21-.404.148-.648.427-.238.272-.238.727 0 .63.466.954.465.32 1.187.319m6.2 1.171v-8.727h1.7V24.5zm.858-10.074a1.08 1.08 0 0 1-.761-.295.96.96 0 0 1-.313-.716q0-.421.313-.716.318-.3.761-.301.444 0 .756.3a.94.94 0 0 1 .318.717.95.95 0 0 1-.318.716 1.06 1.06 0 0 1-.756.295m4.825-1.562V24.5h-1.698V12.864zm4.826 11.83a3.6 3.6 0 0 1-1.5-.308 2.53 2.53 0 0 1-1.063-.903q-.386-.591-.386-1.449 0-.739.284-1.216t.767-.756a4 4 0 0 1 1.08-.42 11 11 0 0 1 1.216-.216l1.272-.148q.49-.061.71-.198.222-.137.222-.444v-.04q0-.744-.42-1.153-.415-.41-1.239-.409-.858 0-1.352.38-.489.376-.676.836L97 17.886q.284-.795.83-1.284.551-.495 1.267-.716.716-.227 1.505-.227.523 0 1.108.125.592.12 1.102.443.517.324.847.926.33.597.33 1.552V24.5h-1.659v-1.193h-.069q-.164.33-.494.648t-.847.528-1.238.21m.369-1.364q.704 0 1.205-.279.505-.278.767-.727.267-.454.267-.972v-1.125q-.091.091-.353.17-.255.075-.585.131-.329.052-.642.097l-.523.068q-.494.063-.903.21a1.55 1.55 0 0 0-.648.427q-.238.272-.238.727 0 .63.466.954.465.32 1.187.319m6.337 1.17V12.864h1.699v4.323h.102q.147-.272.426-.63t.773-.625q.494-.273 1.307-.273 1.056 0 1.886.534.83.535 1.301 1.54.477 1.005.477 2.42t-.471 2.427q-.472 1.005-1.296 1.55-.824.54-1.88.54-.796 0-1.302-.267a2.5 2.5 0 0 1-.784-.625 5 5 0 0 1-.437-.636h-.142V24.5zm1.665-4.364q0 .921.267 1.614t.772 1.085q.506.387 1.239.387.762 0 1.273-.404.511-.41.772-1.108.267-.699.267-1.574 0-.863-.261-1.55-.255-.689-.773-1.086-.511-.398-1.278-.398-.738 0-1.25.381-.506.38-.767 1.063-.261.681-.261 1.59m9.913-7.272V24.5h-1.699V12.864zm6.047 11.812q-1.29 0-2.222-.551a3.74 3.74 0 0 1-1.432-1.562q-.5-1.012-.5-2.37 0-1.341.5-2.364a3.9 3.9 0 0 1 1.409-1.596q.91-.574 2.125-.574.74 0 1.432.244.693.244 1.245.768.55.522.869 1.357.318.83.318 2.018v.602h-6.937v-1.273h5.272q0-.67-.272-1.187a2.07 2.07 0 0 0-.767-.824q-.49-.302-1.148-.302-.716 0-1.25.353a2.36 2.36 0 0 0-.818.909q-.284.556-.284 1.21v.994q0 .876.306 1.489.313.615.87.938.557.318 1.301.318.483 0 .88-.137.399-.142.688-.42.29-.279.443-.688l1.608.29q-.194.71-.693 1.244-.494.529-1.244.824-.745.29-1.699.29m14.017-8.903v1.363h-4.932v-1.363zm-3.58 8.727V14.76q0-.818.358-1.358.358-.545.949-.812a3 3 0 0 1 1.284-.273q.512 0 .875.085.365.08.54.148l-.398 1.375a8 8 0 0 0-.307-.08 1.7 1.7 0 0 0-.454-.05q-.619 0-.887.306-.261.307-.261.887V24.5zm8.665.176q-1.227 0-2.142-.562a3.8 3.8 0 0 1-1.42-1.574q-.507-1.011-.506-2.364 0-1.358.506-2.375a3.8 3.8 0 0 1 1.42-1.58q.915-.561 2.142-.562 1.227 0 2.142.563t1.421 1.58q.505 1.016.505 2.374 0 1.353-.505 2.364a3.8 3.8 0 0 1-1.421 1.574q-.915.562-2.142.562m.006-1.426q.795 0 1.318-.42a2.47 2.47 0 0 0 .773-1.12q.255-.699.255-1.54 0-.835-.255-1.534a2.5 2.5 0 0 0-.773-1.13q-.523-.426-1.318-.427-.802 0-1.33.427a2.54 2.54 0 0 0-.778 1.13q-.25.7-.25 1.535 0 .84.25 1.54.256.697.778 1.119.529.42 1.33.42m5.959 1.25v-8.727h1.642v1.386h.09q.24-.705.841-1.108a2.4 2.4 0 0 1 1.375-.409 7 7 0 0 1 .722.04v1.625a3 3 0 0 0-.364-.063 3.5 3.5 0 0 0-.522-.04q-.603 0-1.074.256a1.9 1.9 0 0 0-1.012 1.71v5.33z"/><path fill="url(#e)" d="M65.663 39.057h2.414l1.027 1.31 1.346 1.545 2.07 2.554h-2.704l-1.449-1.733-.857-1.231zm6.942-1.739q0 2.04-.785 3.46-.784 1.418-2.125 2.154-1.334.737-2.994.737-1.665 0-3-.742-1.334-.743-2.12-2.156-.778-1.418-.778-3.453 0-2.04.779-3.459.785-1.419 2.119-2.155 1.335-.737 3-.737 1.66 0 2.994.737 1.34.736 2.125 2.155t.785 3.46m-3.055 0q0-1.208-.344-2.04-.338-.834-.978-1.262-.633-.429-1.527-.429-.887 0-1.527.429t-.984 1.262q-.338.833-.338 2.04t.338 2.04q.343.834.984 1.262.639.429 1.527.429.894 0 1.527-.429.64-.428.978-1.261.344-.834.344-2.04m10.799 2.18v-5.27h2.946v9.27h-2.813v-1.727h-.097a2.7 2.7 0 0 1-1.05 1.353q-.737.495-1.781.495-.948 0-1.666-.435a2.96 2.96 0 0 1-1.117-1.213q-.398-.785-.405-1.836v-5.91h2.952v5.33q.007.755.399 1.19t1.068.435q.441 0 .791-.193.357-.2.562-.574.21-.38.211-.917m4.825 4.002v-9.273h2.952V43.5zm1.479-10.353q-.622 0-1.069-.41a1.32 1.32 0 0 1-.446-1.003q0-.579.447-.99a1.5 1.5 0 0 1 1.068-.417q.628 0 1.069.417.446.411.446.99 0 .585-.446 1.002-.44.41-1.069.41m6.304-2.01V43.5h-2.952V31.136zm7.113 3.09V36.4h-5.85v-2.174zm-4.624-2.221h2.952v8.578q0 .272.084.44.09.165.26.236.17.067.404.067.17 0 .357-.03a5 5 0 0 0 .29-.06l.446 2.13q-.211.06-.598.151a5 5 0 0 1-.911.115q-1.038.048-1.781-.242a2.3 2.3 0 0 1-1.129-.917q-.386-.622-.374-1.564z"/></g></g><rect width="164.9" height="53.9" x="1.05" y="1.05" stroke="#fff" stroke-opacity=".15" stroke-width="2.1" rx="6.95"/><defs><linearGradient id="b" x1="83.5" x2="83.5" y1="0" y2="56" gradientUnits="userSpaceOnUse"><stop stop-color="#260c26"/><stop offset="1" stop-color="#0e1c2c"/></linearGradient><linearGradient id="e" x1="60" x2="101" y1="28.5" y2="28.5" gradientUnits="userSpaceOnUse"><stop stop-color="#e17be1"/><stop offset="1" stop-color="#98a1ff"/></linearGradient><filter id="c" width="53.312" height="53.312" x="6.286" y="2.286" color-interpolation-filters="sRGB" filterUnits="userSpaceOnUse"><feFlood flood-opacity="0" result="BackgroundImageFix"/><feColorMatrix in="SourceAlpha" result="hardAlpha" values="0 0 0 0 0 0 0 0 0 0 0 0 0 0 0 0 0 0 127 0"/><feOffset/><feGaussianBlur stdDeviation="2.857"/><feComposite in2="hardAlpha" operator="out"/><feColorMatrix values="0 0 0 0 0 0 0 0 0 0 0 0 0 0 0 0 0 0 0.25 0"/><feBlend in2="BackgroundImageFix" result="effect1_dropShadow_28_950"/><feBlend in="SourceGraphic" in2="effect1_dropShadow_28_950" result="shape"/></filter><filter id="d" width="106.2" height="48.2" x="54.4" y="3.9" color-interpolation-filters="sRGB" filterUnits="userSpaceOnUse"><feFlood flood-opacity="0" result="BackgroundImageFix"/><feColorMatrix in="SourceAlpha" result="hardAlpha" values="0 0 0 0 0 0 0 0 0 0 0 0 0 0 0 0 0 0 127 0"/><feOffset/><feGaussianBlur stdDeviation="2.8"/><feComposite in2="hardAlpha" operator="out"/><feColorMatrix values="0 0 0 0 0 0 0 0 0 0 0 0 0 0 0 0 0 0 0.25 0"/><feBlend in2="BackgroundImageFix" result="effect1_dropShadow_28_950"/><feBlend in="SourceGraphic" in2="effect1_dropShadow_28_950" result="shape"/></filter><clipPath id="a"><rect width="167" height="56" fill="#fff" rx="8"/></clipPath></defs></svg>