<svg xmlns="http://www.w3.org/2000/svg" width="167" height="56" fill="none" viewBox="0 0 167 56"><rect width="167" height="56" fill="url(#a)" rx="8"/><rect width="164.9" height="53.9" x="1.05" y="1.05" stroke="#fff" stroke-opacity=".15" stroke-width="2.1" rx="6.95"/><g filter="url(#b)"><g fill="#f7cf0d" clip-path="url(#c)"><path d="M50 8H14c-1.1 0-2 .9-2 2v36c0 1.1.9 2 2 2h3.22c-.34-9.14-.02-10.5.62-11.4.78-1.12 1.1-1.26 2.28-2.2 1-.8.64-2.1-.08-3.04-.44-.58-1.06-1.26-1.54-1.92-.3-.44.44-3.02.72-3.96s.76-4 4.96-4.82c1.58-.32 5.92-.54 8.9-.36-.02-.12-.06-.26-.08-.4-.06-.24-.1-.5-.16-.78-.06-.26-.12-.54-.18-.82s-.14-.56-.2-.86c-.08-.3-.14-.58-.24-.88q-.24-.9-.6-1.74c-.12-.28-.24-.54-.38-.78-.14-.22-.28-.42-.4-.5-.02-.02-.04-.04-.06-.04h-.02.04s.02 0 0 0l-.06-.02h-.04l-.08-.02h-.1a6 6 0 0 0-.84 0c-.58.04-1.2.16-1.8.3s-1.18.32-1.74.48c-.24.08-.46.16-.68.22.02.18.04.34.04.52 0 2.6-2.1 4.7-4.7 4.7s-4.68-2.1-4.68-4.7 2.1-4.7 4.7-4.7c1.74 0 3.26.94 4.08 2.36.2-.08.42-.16.64-.24.56-.22 1.18-.44 1.82-.64.66-.2 1.34-.4 2.1-.5.38-.06.78-.08 1.22-.06h.16c.06 0 .12.02.16.02h.14l.06.02h.02l.06.02s.04 0 .06.02l.08.02c.12.04.18.06.26.1s.14.06.22.1c.14.08.26.16.38.24q.33.27.54.54c.16.18.28.36.4.54.24.36.42.7.58 1.04.32.68.58 1.36.78 2l.3.96c.1.32.16.62.24.92.04.14.08.3.1.44.04.14.06.28.1.42.06.28.12.56.18.82.08.4.14.78.2 1.12 4.48.44 7.9 1.02 9.44 2.56 2.26 2.2 4 12.2 2.86 24.9h2c1.1 0 2-.9 2-2V10c0-1.1-.9-2-2-2"/><path d="M30.28 36.16c-.26.72-.48 9.14 2 9.14s2.5-8.64 2.42-9.14c-.08-.48-4.16-.7-4.42 0M27 28c-1.7-.24-2.72 8.04-.34 8.52 2.24.44 2.02-8.28.34-8.52m11.16 0c-1.7-.24-2.72 8.04-.34 8.52 2.24.44 2.04-8.28.34-8.52"/></g></g><g filter="url(#d)"><path fill="#e8e8e8" d="M62.261 24.5h-1.863l4.187-11.636h2.029L70.8 24.5h-1.864l-3.29-9.523h-.09zm.313-4.557h6.045v1.477h-6.045zm16.143-4.17L75.553 24.5h-1.819l-3.17-8.727h1.824l2.21 6.716h.09l2.206-6.716zm3.887 8.92a3.6 3.6 0 0 1-1.5-.307 2.53 2.53 0 0 1-1.063-.903q-.386-.591-.386-1.449 0-.739.284-1.216.285-.477.767-.756a4 4 0 0 1 1.08-.42q.596-.142 1.215-.216l1.273-.148q.49-.061.71-.198.222-.137.222-.444v-.04q0-.744-.42-1.153-.415-.41-1.24-.409-.857 0-1.351.38-.489.376-.676.836l-1.597-.364q.284-.795.83-1.284.551-.495 1.267-.716.716-.227 1.505-.227.523 0 1.108.125.59.12 1.102.443.517.324.847.926.33.597.33 1.552V24.5h-1.66v-1.193h-.068q-.165.33-.494.648-.33.318-.847.528t-1.238.21m.369-1.364q.705 0 1.204-.278.506-.278.768-.727.267-.454.267-.972v-1.125q-.091.091-.353.17-.255.075-.585.131-.33.052-.642.097l-.523.068q-.494.063-.903.21-.404.148-.648.427-.238.272-.238.727 0 .63.466.954.465.32 1.187.319m6.2 1.171v-8.727h1.7V24.5zm.858-10.074a1.08 1.08 0 0 1-.761-.295.96.96 0 0 1-.313-.716q0-.421.313-.716.318-.3.761-.301.444 0 .756.3a.94.94 0 0 1 .318.717.95.95 0 0 1-.318.716 1.06 1.06 0 0 1-.756.295m4.825-1.562V24.5h-1.698V12.864zm4.826 11.83a3.6 3.6 0 0 1-1.5-.308 2.53 2.53 0 0 1-1.063-.903q-.386-.591-.386-1.449 0-.739.284-1.216t.767-.756a4 4 0 0 1 1.08-.42 11 11 0 0 1 1.216-.216l1.272-.148q.49-.061.71-.198.222-.137.222-.444v-.04q0-.744-.42-1.153-.415-.41-1.239-.409-.858 0-1.352.38-.489.376-.676.836L97 17.886q.284-.795.83-1.284.551-.495 1.267-.716.716-.227 1.505-.227.523 0 1.108.125.592.12 1.102.443.517.324.847.926.33.597.33 1.552V24.5h-1.659v-1.193h-.069q-.164.33-.494.648t-.847.528-1.238.21m.369-1.364q.704 0 1.205-.279.505-.278.767-.727.267-.454.267-.972v-1.125q-.091.091-.353.17-.255.075-.585.131-.329.052-.642.097l-.523.068q-.494.063-.903.21a1.55 1.55 0 0 0-.648.427q-.238.272-.238.727 0 .63.466.954.465.32 1.187.319m6.337 1.17V12.864h1.699v4.323h.102q.147-.272.426-.63t.773-.625q.494-.273 1.307-.273 1.056 0 1.886.534.83.535 1.301 1.54.477 1.005.477 2.42t-.471 2.427q-.472 1.005-1.296 1.55-.824.54-1.88.54-.796 0-1.302-.267a2.5 2.5 0 0 1-.784-.625 5 5 0 0 1-.437-.636h-.142V24.5zm1.665-4.364q0 .921.267 1.614t.772 1.085q.506.387 1.239.387.762 0 1.273-.404.511-.41.772-1.108.267-.699.267-1.574 0-.863-.261-1.55-.255-.689-.773-1.086-.511-.398-1.278-.398-.738 0-1.25.381-.506.38-.767 1.063-.261.681-.261 1.59m9.913-7.272V24.5h-1.699V12.864zm6.047 11.812q-1.29 0-2.222-.551a3.74 3.74 0 0 1-1.432-1.562q-.5-1.012-.5-2.37 0-1.341.5-2.364a3.9 3.9 0 0 1 1.409-1.596q.91-.574 2.125-.574.74 0 1.432.244.693.244 1.245.768.55.522.869 1.357.318.83.318 2.018v.602h-6.937v-1.273h5.272q0-.67-.272-1.187a2.07 2.07 0 0 0-.767-.824q-.49-.302-1.148-.302-.716 0-1.25.353a2.36 2.36 0 0 0-.818.909q-.284.556-.284 1.21v.994q0 .876.306 1.489.313.615.87.938.557.318 1.301.318.483 0 .88-.137.399-.142.688-.42.29-.279.443-.688l1.608.29q-.194.71-.693 1.244-.494.529-1.244.824-.745.29-1.699.29m14.017-8.903v1.363h-4.932v-1.363zm-3.58 8.727V14.76q0-.818.358-1.358.358-.545.949-.812a3 3 0 0 1 1.284-.273q.512 0 .875.085.365.08.54.148l-.398 1.375a8 8 0 0 0-.307-.08 1.7 1.7 0 0 0-.454-.05q-.619 0-.887.306-.261.307-.261.887V24.5zm8.665.176q-1.227 0-2.142-.562a3.8 3.8 0 0 1-1.42-1.574q-.507-1.011-.506-2.364 0-1.358.506-2.375a3.8 3.8 0 0 1 1.42-1.58q.915-.561 2.142-.562 1.227 0 2.142.563t1.421 1.58q.505 1.016.505 2.374 0 1.353-.505 2.364a3.8 3.8 0 0 1-1.421 1.574q-.915.562-2.142.562m.006-1.426q.795 0 1.318-.42a2.47 2.47 0 0 0 .773-1.12q.255-.699.255-1.54 0-.835-.255-1.534a2.5 2.5 0 0 0-.773-1.13q-.523-.426-1.318-.427-.802 0-1.33.427a2.54 2.54 0 0 0-.778 1.13q-.25.7-.25 1.535 0 .84.25 1.54.256.697.778 1.119.529.42 1.33.42m5.959 1.25v-8.727h1.642v1.386h.09q.24-.705.841-1.108a2.4 2.4 0 0 1 1.375-.409 7 7 0 0 1 .722.04v1.625a3 3 0 0 0-.364-.063 3.5 3.5 0 0 0-.522-.04q-.603 0-1.074.256a1.9 1.9 0 0 0-1.012 1.71v5.33z"/><path fill="#f7cf0d" d="M67.619 34.843q-.06-.665-.538-1.032-.47-.375-1.346-.375-.579 0-.966.151-.385.151-.58.417a1 1 0 0 0-.199.598.9.9 0 0 0 .11.489q.126.21.361.374.242.157.58.277.338.122.76.212l1.063.241a7.5 7.5 0 0 1 1.618.532q.706.331 1.183.79.484.459.73 1.057.248.597.254 1.34-.006 1.17-.591 2.01t-1.685 1.286q-1.093.447-2.638.447-1.552 0-2.704-.465-1.154-.464-1.793-1.413-.64-.947-.658-2.396h2.861q.035.597.32.996t.779.604q.5.204 1.159.205.603 0 1.026-.163.429-.163.658-.453a1.07 1.07 0 0 0 .236-.664.92.92 0 0 0-.218-.598q-.21-.254-.652-.434-.435-.188-1.11-.344l-1.292-.302q-1.606-.369-2.53-1.19-.924-.825-.917-2.233-.007-1.148.615-2.01.622-.864 1.72-1.347 1.1-.483 2.506-.483 1.438 0 2.493.49 1.063.482 1.648 1.358.586.875.598 2.028zm4.54 12.134v-12.75h2.921v1.588h.09q.182-.422.514-.815.338-.393.857-.64.525-.254 1.256-.254.966 0 1.805.508.845.507 1.364 1.563t.52 2.693q0 1.575-.502 2.638-.494 1.063-1.34 1.594a3.4 3.4 0 0 1-1.865.53q-.7 0-1.214-.229a2.6 2.6 0 0 1-.863-.603 2.9 2.9 0 0 1-.531-.803h-.06v4.98zm2.891-8.113q0 .748.2 1.304.204.555.585.863.386.302.924.302.543 0 .923-.302.38-.308.574-.863.199-.555.199-1.304 0-.75-.2-1.298-.193-.55-.573-.852-.374-.3-.924-.301-.543 0-.923.295-.38.297-.586.846-.198.548-.199 1.31m12.31 4.811q-1.46 0-2.51-.598a4.1 4.1 0 0 1-1.612-1.678q-.562-1.08-.562-2.505 0-1.432.562-2.505.567-1.08 1.612-1.679 1.05-.603 2.51-.604 1.462 0 2.506.604 1.05.598 1.612 1.678.568 1.075.568 2.506 0 1.425-.568 2.505a4.07 4.07 0 0 1-1.612 1.678q-1.044.598-2.505.598m.019-2.228q.531 0 .9-.326.368-.326.56-.905.2-.58.2-1.34 0-.773-.2-1.353-.192-.58-.56-.905a1.3 1.3 0 0 0-.9-.326 1.38 1.38 0 0 0-.93.326q-.374.327-.573.905-.193.58-.193 1.353 0 .76.193 1.34.2.58.573.905.381.327.93.326m9.13-3.235V43.5h-2.951v-9.273h2.807v1.703h.103a2.6 2.6 0 0 1 1.05-1.334q.743-.49 1.769-.49.978 0 1.696.441.724.435 1.123 1.22.405.779.399 1.823v5.91h-2.953v-5.33q.006-.773-.392-1.208-.392-.435-1.093-.435-.465 0-.82.206a1.36 1.36 0 0 0-.544.573q-.188.375-.193.906m12.146 8.958q-1.323 0-2.264-.368-.942-.367-1.479-1.008a2.8 2.8 0 0 1-.646-1.449l2.795-.157q.078.284.29.495.218.212.561.326.35.115.821.115.743 0 1.226-.362.489-.356.489-1.25v-1.63h-.103a2.2 2.2 0 0 1-.531.767 2.5 2.5 0 0 1-.888.531q-.525.193-1.207.193a3.75 3.75 0 0 1-1.859-.47q-.84-.478-1.347-1.474-.501-1.002-.501-2.577 0-1.624.519-2.675.52-1.056 1.359-1.563a3.47 3.47 0 0 1 1.817-.508q.73 0 1.249.254.526.247.864.64.338.392.513.815h.084v-1.588h2.94v9.31q0 1.176-.591 1.985-.592.81-1.654 1.226-1.064.422-2.457.422m.09-5.946q.537 0 .918-.284.38-.283.585-.815.206-.53.206-1.273 0-.755-.206-1.298-.199-.55-.585-.846a1.45 1.45 0 0 0-.918-.295q-.55 0-.929.302-.38.3-.58.85-.193.544-.193 1.287t.199 1.273q.2.532.574.815.38.284.929.284m10.829 2.451q-1.455 0-2.511-.573a3.96 3.96 0 0 1-1.618-1.648q-.562-1.075-.562-2.554 0-1.437.568-2.511.567-1.08 1.599-1.679 1.033-.603 2.433-.604.99 0 1.811.308.822.309 1.419.912.598.604.93 1.491.332.882.332 2.023v.736h-8.059v-1.715h5.312a1.66 1.66 0 0 0-.223-.839 1.5 1.5 0 0 0-.598-.573 1.7 1.7 0 0 0-.863-.211q-.495 0-.888.223a1.68 1.68 0 0 0-.863 1.449v1.745q0 .567.223.996.224.421.634.658.411.235.978.235.392 0 .713-.109.32-.108.549-.32.23-.21.344-.519l2.711.079a3.36 3.36 0 0 1-.743 1.587q-.567.67-1.491 1.045-.924.368-2.137.368"/></g><defs><filter id="b" width="51.429" height="51.429" x="6.286" y="2.286" color-interpolation-filters="sRGB" filterUnits="userSpaceOnUse"><feFlood flood-opacity="0" result="BackgroundImageFix"/><feColorMatrix in="SourceAlpha" result="hardAlpha" values="0 0 0 0 0 0 0 0 0 0 0 0 0 0 0 0 0 0 127 0"/><feOffset/><feGaussianBlur stdDeviation="2.857"/><feComposite in2="hardAlpha" operator="out"/><feColorMatrix values="0 0 0 0 0 0 0 0 0 0 0 0 0 0 0 0 0 0 0.25 0"/><feBlend in2="BackgroundImageFix" result="effect1_dropShadow_28_1008"/><feBlend in="SourceGraphic" in2="effect1_dropShadow_28_1008" result="shape"/></filter><filter id="d" width="106.2" height="48.87" x="54.4" y="3.9" color-interpolation-filters="sRGB" filterUnits="userSpaceOnUse"><feFlood flood-opacity="0" result="BackgroundImageFix"/><feColorMatrix in="SourceAlpha" result="hardAlpha" values="0 0 0 0 0 0 0 0 0 0 0 0 0 0 0 0 0 0 127 0"/><feOffset/><feGaussianBlur stdDeviation="2.8"/><feComposite in2="hardAlpha" operator="out"/><feColorMatrix values="0 0 0 0 0 0 0 0 0 0 0 0 0 0 0 0 0 0 0.25 0"/><feBlend in2="BackgroundImageFix" result="effect1_dropShadow_28_1008"/><feBlend in="SourceGraphic" in2="effect1_dropShadow_28_1008" result="shape"/></filter><linearGradient id="a" x1="83.5" x2="83.5" y1="0" y2="56" gradientUnits="userSpaceOnUse"><stop stop-color="#353518"/><stop offset="1" stop-color="#241f10"/></linearGradient><clipPath id="c"><path fill="#fff" d="M12 8h40v40H12z"/></clipPath></defs></svg>