<svg xmlns="http://www.w3.org/2000/svg" width="164" height="56" fill="none" viewBox="0 0 164 56"><rect width="164" height="56" fill="url(#a)" rx="8"/><rect width="161.9" height="53.9" x="1.05" y="1.05" stroke="#fff" stroke-opacity=".15" stroke-width="2.1" rx="6.95"/><g fill="#fff" filter="url(#b)"><path d="M20.564 8.133c-3.984.712-7.19 3.66-8.2 7.536-.365 1.4-.39 2.22-.349 13.078.025 9.97.034 10.203.2 10.973.919 4.15 3.868 7.106 8.06 8.083.546.124 1.242.15 5.723.174 4.639.033 5.12.025 5.244-.1.124-.123.132-1.722.132-19.843 0-13.433-.025-19.76-.083-19.876-.082-.15-.223-.158-5.077-.15-3.943.009-5.128.034-5.65.125m7.497 19.876v16.78l-3.372-.042c-3.106-.033-3.437-.05-4.059-.207-2.667-.687-4.647-2.741-5.202-5.416-.182-.837-.182-21.442-.008-22.262.497-2.327 2.112-4.257 4.29-5.127 1.094-.438 1.6-.488 5.145-.496l3.206-.009z"/><path d="M21.277 16.29c-.522.1-1.318.497-1.74.87-.87.753-1.3 1.822-1.234 3.08.033.655.074.829.34 1.359a3.77 3.77 0 0 0 1.78 1.789c.555.273.696.306 1.417.331.654.025.886 0 1.325-.149 1.798-.605 2.883-2.352 2.576-4.14-.356-2.13-2.377-3.554-4.465-3.14m14.132-8.232c-.033.025-.058 9.003-.058 19.951 0 18.063.008 19.894.133 19.943.223.083 6.652.05 7.447-.033 3.363-.38 6.328-2.427 7.944-5.466.207-.39.48-1.044.621-1.45.522-1.556.505-1.142.505-13.043 0-9.5-.016-10.916-.132-11.52-.82-4.316-4.109-7.57-8.433-8.316-.58-.099-1.474-.124-4.357-.124-1.988 0-3.645.025-3.67.058m8.847 18.038a4.05 4.05 0 0 1 2.783 2.584c.274.779.266 1.922-.008 2.634-.505 1.308-1.5 2.228-2.775 2.567-2.07.538-4.274-.712-4.879-2.766-.182-.63-.174-1.69.033-2.335.622-2.03 2.775-3.222 4.846-2.684"/></g><g filter="url(#c)"><path fill="#e8e8e8" d="M62.261 24.5h-1.863l4.187-11.636h2.029L70.8 24.5h-1.864l-3.29-9.523h-.09zm.313-4.557h6.045v1.477h-6.045zm16.143-4.17L75.553 24.5h-1.819l-3.17-8.727h1.824l2.21 6.716h.09l2.206-6.716zm3.887 8.92a3.6 3.6 0 0 1-1.5-.307 2.53 2.53 0 0 1-1.063-.903q-.386-.591-.386-1.449 0-.739.284-1.216.285-.477.767-.756a4 4 0 0 1 1.08-.42q.596-.142 1.215-.216l1.273-.148q.49-.061.71-.198.222-.137.222-.444v-.04q0-.744-.42-1.153-.415-.41-1.24-.409-.857 0-1.351.38-.489.376-.676.836l-1.597-.364q.284-.795.83-1.284.551-.495 1.267-.716.716-.227 1.505-.227.523 0 1.108.125.59.12 1.102.443.517.324.847.926.33.597.33 1.552V24.5h-1.66v-1.193h-.068q-.165.33-.494.648-.33.318-.847.528t-1.238.21m.369-1.364q.705 0 1.204-.278.506-.278.768-.727.267-.454.267-.972v-1.125q-.091.091-.353.17-.255.075-.585.131-.33.052-.642.097l-.523.068q-.494.063-.903.21-.404.148-.648.427-.238.272-.238.727 0 .63.466.954.465.32 1.187.319m6.2 1.171v-8.727h1.7V24.5zm.858-10.074a1.08 1.08 0 0 1-.761-.295.96.96 0 0 1-.313-.716q0-.421.313-.716.318-.3.761-.301.444 0 .756.3a.94.94 0 0 1 .318.717.95.95 0 0 1-.318.716 1.06 1.06 0 0 1-.756.295m4.825-1.562V24.5h-1.698V12.864zm4.826 11.83a3.6 3.6 0 0 1-1.5-.308 2.53 2.53 0 0 1-1.063-.903q-.386-.591-.386-1.449 0-.739.284-1.216t.767-.756a4 4 0 0 1 1.08-.42 11 11 0 0 1 1.216-.216l1.272-.148q.49-.061.71-.198.222-.137.222-.444v-.04q0-.744-.42-1.153-.415-.41-1.239-.409-.858 0-1.352.38-.489.376-.676.836L97 17.886q.284-.795.83-1.284.551-.495 1.267-.716.716-.227 1.505-.227.523 0 1.108.125.592.12 1.102.443.517.324.847.926.33.597.33 1.552V24.5h-1.659v-1.193h-.069q-.164.33-.494.648t-.847.528-1.238.21m.369-1.364q.704 0 1.205-.279.505-.278.767-.727.267-.454.267-.972v-1.125q-.091.091-.353.17-.255.075-.585.131-.329.052-.642.097l-.523.068q-.494.063-.903.21a1.55 1.55 0 0 0-.648.427q-.238.272-.238.727 0 .63.466.954.465.32 1.187.319m6.337 1.17V12.864h1.699v4.323h.102q.147-.272.426-.63t.773-.625q.494-.273 1.307-.273 1.056 0 1.886.534.83.535 1.301 1.54.477 1.005.477 2.42t-.471 2.427q-.472 1.005-1.296 1.55-.824.54-1.88.54-.796 0-1.302-.267a2.5 2.5 0 0 1-.784-.625 5 5 0 0 1-.437-.636h-.142V24.5zm1.665-4.364q0 .921.267 1.614t.772 1.085q.506.387 1.239.387.762 0 1.273-.404.511-.41.772-1.108.267-.699.267-1.574 0-.863-.261-1.55-.255-.689-.773-1.086-.511-.398-1.278-.398-.738 0-1.25.381-.506.38-.767 1.063-.261.681-.261 1.59m9.913-7.272V24.5h-1.699V12.864zm6.047 11.812q-1.29 0-2.222-.551a3.74 3.74 0 0 1-1.432-1.562q-.5-1.012-.5-2.37 0-1.341.5-2.364a3.9 3.9 0 0 1 1.409-1.596q.91-.574 2.125-.574.74 0 1.432.244.693.244 1.245.768.55.522.869 1.357.318.83.318 2.018v.602h-6.937v-1.273h5.272q0-.67-.272-1.187a2.07 2.07 0 0 0-.767-.824q-.49-.302-1.148-.302-.716 0-1.25.353a2.36 2.36 0 0 0-.818.909q-.284.556-.284 1.21v.994q0 .876.306 1.489.313.615.87.938.557.318 1.301.318.483 0 .88-.137.399-.142.688-.42.29-.279.443-.688l1.608.29q-.194.71-.693 1.244-.494.529-1.244.824-.745.29-1.699.29m13.54 0q-1.228 0-2.143-.562a3.8 3.8 0 0 1-1.42-1.574q-.506-1.011-.506-2.364 0-1.358.506-2.375a3.8 3.8 0 0 1 1.42-1.58q.915-.561 2.143-.562 1.227 0 2.142.563a3.8 3.8 0 0 1 1.42 1.58q.506 1.016.506 2.374 0 1.353-.506 2.364a3.8 3.8 0 0 1-1.42 1.574q-.915.562-2.142.562m.005-1.426q.796 0 1.318-.42.523-.42.773-1.12.256-.699.256-1.54 0-.835-.256-1.534a2.5 2.5 0 0 0-.773-1.13q-.522-.426-1.318-.427-.801 0-1.329.427a2.54 2.54 0 0 0-.779 1.13q-.25.7-.25 1.535 0 .84.25 1.54.256.697.779 1.119.528.42 1.329.42m7.658-3.932V24.5h-1.699v-8.727h1.631v1.42h.108q.3-.693.943-1.114.647-.42 1.631-.42.891 0 1.562.375.67.37 1.04 1.102.369.733.369 1.813V24.5h-1.699v-5.347q0-.948-.494-1.482-.495-.54-1.358-.54-.59 0-1.051.255-.455.255-.722.75-.261.489-.261 1.182"/><path fill="#fff" d="M67.619 34.843q-.06-.665-.538-1.032-.47-.375-1.346-.375-.579 0-.966.151-.385.151-.58.417a1 1 0 0 0-.199.598.9.9 0 0 0 .11.489q.126.21.361.374.242.157.58.277.338.122.76.212l1.063.241a7.5 7.5 0 0 1 1.618.532q.706.331 1.183.79.484.459.73 1.057.248.597.254 1.34-.006 1.17-.591 2.01t-1.685 1.286q-1.093.447-2.638.447-1.552 0-2.704-.465-1.154-.464-1.793-1.413-.64-.947-.658-2.396h2.861q.035.597.32.996t.779.604q.5.204 1.159.205.603 0 1.026-.163.429-.163.658-.453a1.07 1.07 0 0 0 .236-.664.92.92 0 0 0-.218-.598q-.21-.254-.652-.434-.435-.188-1.11-.344l-1.292-.302q-1.606-.369-2.53-1.19-.924-.825-.917-2.233-.007-1.148.615-2.01.622-.864 1.72-1.347 1.1-.483 2.506-.483 1.438 0 2.493.49 1.063.482 1.648 1.358.586.875.598 2.028zM73.89 43.5l-2.415-9.273h2.964l1.25 5.94h.079l1.34-5.94H80l1.377 5.898h.078l1.214-5.898h2.964L83.212 43.5h-3.157l-1.45-5.403h-.102L77.054 43.5zm12.927 0v-9.273h2.952V43.5zm1.479-10.353q-.622 0-1.069-.41a1.32 1.32 0 0 1-.447-1.003q0-.579.447-.99a1.5 1.5 0 0 1 1.069-.417q.627 0 1.068.417.447.411.447.99 0 .585-.447 1.002a1.5 1.5 0 0 1-1.068.41m8.586 1.08V36.4h-5.85v-2.174zm-4.625-2.221h2.952v8.578q0 .272.085.44.09.165.26.236.168.067.404.067.169 0 .356-.03a5 5 0 0 0 .29-.06l.447 2.13q-.211.06-.598.151a5 5 0 0 1-.912.115q-1.038.048-1.78-.242a2.3 2.3 0 0 1-1.13-.917q-.386-.622-.374-1.564zm10.36 11.67q-1.467 0-2.518-.605a4.1 4.1 0 0 1-1.605-1.678q-.562-1.08-.562-2.5 0-1.424.561-2.498a4.1 4.1 0 0 1 1.612-1.685q1.051-.603 2.506-.604 1.285 0 2.239.465.96.465 1.498 1.316.543.846.573 1.987h-2.759q-.084-.713-.483-1.117-.391-.405-1.026-.405a1.46 1.46 0 0 0-.9.29q-.386.284-.603.845-.212.556-.212 1.377 0 .82.212 1.388.217.561.603.851.387.285.9.284.41 0 .724-.175.32-.175.526-.513a2.1 2.1 0 0 0 .259-.833h2.759q-.042 1.146-.573 2.004a3.56 3.56 0 0 1-1.48 1.334q-.947.471-2.251.471m8.767-5.464v5.29h-2.952V31.136h2.855v4.794h.103a2.7 2.7 0 0 1 1.026-1.34q.719-.484 1.757-.484.978 0 1.702.435.725.428 1.123 1.214.405.785.399 1.835v5.91h-2.952v-5.33q.006-.773-.387-1.208-.392-.435-1.105-.435-.464 0-.821.206a1.4 1.4 0 0 0-.549.573q-.193.375-.199.906"/></g><defs><filter id="b" width="51.429" height="51.429" x="6.286" y="2.286" color-interpolation-filters="sRGB" filterUnits="userSpaceOnUse"><feFlood flood-opacity="0" result="BackgroundImageFix"/><feColorMatrix in="SourceAlpha" result="hardAlpha" values="0 0 0 0 0 0 0 0 0 0 0 0 0 0 0 0 0 0 127 0"/><feOffset/><feGaussianBlur stdDeviation="2.857"/><feComposite in2="hardAlpha" operator="out"/><feColorMatrix values="0 0 0 0 0 0 0 0 0 0 0 0 0 0 0 0 0 0 0.25 0"/><feBlend in2="BackgroundImageFix" result="effect1_dropShadow_28_1054"/><feBlend in="SourceGraphic" in2="effect1_dropShadow_28_1054" result="shape"/></filter><filter id="c" width="103.2" height="48.2" x="54.4" y="3.9" color-interpolation-filters="sRGB" filterUnits="userSpaceOnUse"><feFlood flood-opacity="0" result="BackgroundImageFix"/><feColorMatrix in="SourceAlpha" result="hardAlpha" values="0 0 0 0 0 0 0 0 0 0 0 0 0 0 0 0 0 0 127 0"/><feOffset/><feGaussianBlur stdDeviation="2.8"/><feComposite in2="hardAlpha" operator="out"/><feColorMatrix values="0 0 0 0 0 0 0 0 0 0 0 0 0 0 0 0 0 0 0.25 0"/><feBlend in2="BackgroundImageFix" result="effect1_dropShadow_28_1054"/><feBlend in="SourceGraphic" in2="effect1_dropShadow_28_1054" result="shape"/></filter><linearGradient id="a" x1="0" x2="-7.574" y1="0" y2="54.956" gradientUnits="userSpaceOnUse"><stop stop-color="#40080b"/><stop offset="1" stop-color="#240507"/></linearGradient></defs></svg>