<svg xmlns="http://www.w3.org/2000/svg" width="167" height="56" fill="none" viewBox="0 0 167 56"><rect width="167" height="56" fill="url(#a)" rx="8"/><rect width="164.9" height="53.9" x="1.05" y="1.05" stroke="#fff" stroke-opacity=".15" stroke-width="2.1" rx="6.95"/><g fill="#fff" filter="url(#b)"><path d="M17.265 37.793c-.287.097-.563.208-.865.206a1.96 1.96 0 0 1-1.476-.711 29 29 0 0 1-1.029-1.271c-.82-1.094-1.597-2.218-2.404-3.32-.361-.494-.764-.956-1.128-1.447-.378-.51-.73-1.038-1.1-1.555-.04-.056-.119-.063-.119-.131q-.001-.38.008-.763c.007-.248.14-.46.308-.643q.04-.043.069-.093c.23-.404.423-.83.65-1.238 1.045-1.886 2.082-3.777 3.159-5.646.245-.425.347-.993.876-1.203.335-.133.697-.204 1.052-.28q1.824-.387 3.652-.756c1.32-.266 2.64-.523 3.958-.791.12-.025.188-.151.31-.15q.292 0 .587.003a1.53 1.53 0 0 1 1.009.4q.111.102.2.218c.585.782 1.15 1.579 1.707 2.38.218.313.45.463.873.462 7.499-.018 14.998-.013 22.497-.013.626 0 1.022.375 1.023.968.001.632-.376.993-1.038.993H39.582c-.183 0-.367-.006-.55 0-.496.02-1.006.396-1.089.797-.114.551.153 1.05.694 1.26.126.049.273.058.411.058q3.579.006 7.158.001c.856-.001 1.303.737 1 1.459-.196.464-.624.574-1.07.578-1.338.011-2.675.004-4.012.004h-6.922c-.61 0-.99.432-1.05 1.027-.059.574.604 1.099 1.245 1.097 5.939-.012 11.878-.007 17.817-.007.577 0 1.188-.108 1.573.488a.025.025 0 0 0 .034.007.024.024 0 0 1 .038.02c0 .241-.001.483-.016.742a.43.43 0 0 1-.171.315c-.285.216-.534.41-.947.407-3.644-.033-7.289-.018-10.933-.018-.687 0-1.22.46-1.232 1.046-.012.541.444 1.092 1.202 1.08 1.808-.027 3.617-.005 5.426-.01.864-.002 1.245.786 1.01 1.363-.188.458-.542.678-1.19.678l-21.707.001c-.128 0-.315-.033-.375.036-.348.398-.852.406-1.294.497-2.425.5-4.86.954-7.289 1.434zm6.111-17.922c-.401-.185-.902.064-1.162.421-.23.314-.412.664-.601 1.007-.75 1.358-1.479 2.728-2.25 4.074-.215.373-.501.745-.845.992-.288.208-.703.26-1.07.336-1.814.376-3.631.735-5.446 1.104-.382.078-.645.323-.724.69-.094.434-.01.831.397 1.119.4.282.796.164 1.216.077 1.678-.348 3.357-.69 5.041-1.008.629-.119 1.236.018 1.636.544 1.124 1.477 2.214 2.979 3.317 4.47.366.496.943.608 1.428.279.43-.294.564-.984.237-1.437a351 351 0 0 0-3.025-4.114c-.373-.5-.675-1.015-.491-1.658.08-.285.239-.55.383-.813.516-.94 1.048-1.871 1.558-2.814.372-.685.745-1.372 1.066-2.08.164-.362-.031-.703-.316-.948a1.5 1.5 0 0 0-.349-.241"/><path d="M48.555 26.108c.427-.544.753-.668 1.248-.5.428.146.733.66.648 1.092-.1.503-.633.93-1.084.867-.504-.07-.885-.49-.88-.982.003-.149.039-.298.068-.477"/></g><g filter="url(#c)"><path fill="#e8e8e8" d="M62.261 24.5h-1.863l4.187-11.636h2.029L70.8 24.5h-1.864l-3.29-9.523h-.09zm.313-4.557h6.045v1.477h-6.045zm16.143-4.17L75.553 24.5h-1.819l-3.17-8.727h1.824l2.21 6.716h.09l2.206-6.716zm3.887 8.92a3.6 3.6 0 0 1-1.5-.307 2.53 2.53 0 0 1-1.063-.903q-.386-.591-.386-1.449 0-.739.284-1.216.285-.477.767-.756a4 4 0 0 1 1.08-.42q.596-.142 1.215-.216l1.273-.148q.49-.061.71-.198.222-.137.222-.444v-.04q0-.744-.42-1.153-.415-.41-1.24-.409-.857 0-1.351.38-.489.376-.676.836l-1.597-.364q.284-.795.83-1.284.551-.495 1.267-.716.716-.227 1.505-.227.523 0 1.108.125.59.12 1.102.443.517.324.847.926.33.597.33 1.552V24.5h-1.66v-1.193h-.068q-.165.33-.494.648-.33.318-.847.528t-1.238.21m.369-1.364q.705 0 1.204-.278.506-.278.768-.727.267-.454.267-.972v-1.125q-.091.091-.353.17-.255.075-.585.131-.33.052-.642.097l-.523.068q-.494.063-.903.21-.404.148-.648.427-.238.272-.238.727 0 .63.466.954.465.32 1.187.319m6.2 1.171v-8.727h1.7V24.5zm.858-10.074a1.08 1.08 0 0 1-.761-.295.96.96 0 0 1-.313-.716q0-.421.313-.716.318-.3.761-.301.444 0 .756.3a.94.94 0 0 1 .318.717.95.95 0 0 1-.318.716 1.06 1.06 0 0 1-.756.295m4.825-1.562V24.5h-1.698V12.864zm4.826 11.83a3.6 3.6 0 0 1-1.5-.308 2.53 2.53 0 0 1-1.063-.903q-.386-.591-.386-1.449 0-.739.284-1.216t.767-.756a4 4 0 0 1 1.08-.42 11 11 0 0 1 1.216-.216l1.272-.148q.49-.061.71-.198.222-.137.222-.444v-.04q0-.744-.42-1.153-.415-.41-1.239-.409-.858 0-1.352.38-.489.376-.676.836L97 17.886q.284-.795.83-1.284.551-.495 1.267-.716.716-.227 1.505-.227.523 0 1.108.125.592.12 1.102.443.517.324.847.926.33.597.33 1.552V24.5h-1.659v-1.193h-.069q-.164.33-.494.648t-.847.528-1.238.21m.369-1.364q.704 0 1.205-.279.505-.278.767-.727.267-.454.267-.972v-1.125q-.091.091-.353.17-.255.075-.585.131-.329.052-.642.097l-.523.068q-.494.063-.903.21a1.55 1.55 0 0 0-.648.427q-.238.272-.238.727 0 .63.466.954.465.32 1.187.319m6.337 1.17V12.864h1.699v4.323h.102q.147-.272.426-.63t.773-.625q.494-.273 1.307-.273 1.056 0 1.886.534.83.535 1.301 1.54.477 1.005.477 2.42t-.471 2.427q-.472 1.005-1.296 1.55-.824.54-1.88.54-.796 0-1.302-.267a2.5 2.5 0 0 1-.784-.625 5 5 0 0 1-.437-.636h-.142V24.5zm1.665-4.364q0 .921.267 1.614t.772 1.085q.506.387 1.239.387.762 0 1.273-.404.511-.41.772-1.108.267-.699.267-1.574 0-.863-.261-1.55-.255-.689-.773-1.086-.511-.398-1.278-.398-.738 0-1.25.381-.506.38-.767 1.063-.261.681-.261 1.59m9.913-7.272V24.5h-1.699V12.864zm6.047 11.812q-1.29 0-2.222-.551a3.74 3.74 0 0 1-1.432-1.562q-.5-1.012-.5-2.37 0-1.341.5-2.364a3.9 3.9 0 0 1 1.409-1.596q.91-.574 2.125-.574.74 0 1.432.244.693.244 1.245.768.55.522.869 1.357.318.83.318 2.018v.602h-6.937v-1.273h5.272q0-.67-.272-1.187a2.07 2.07 0 0 0-.767-.824q-.49-.302-1.148-.302-.716 0-1.25.353a2.36 2.36 0 0 0-.818.909q-.284.556-.284 1.21v.994q0 .876.306 1.489.313.615.87.938.557.318 1.301.318.483 0 .88-.137.399-.142.688-.42.29-.279.443-.688l1.608.29q-.194.71-.693 1.244-.494.529-1.244.824-.745.29-1.699.29m14.017-8.903v1.363h-4.932v-1.363zm-3.58 8.727V14.76q0-.818.358-1.358.358-.545.949-.812a3 3 0 0 1 1.284-.273q.512 0 .875.085.365.08.54.148l-.398 1.375a8 8 0 0 0-.307-.08 1.7 1.7 0 0 0-.454-.05q-.619 0-.887.306-.261.307-.261.887V24.5zm8.665.176q-1.227 0-2.142-.562a3.8 3.8 0 0 1-1.42-1.574q-.507-1.011-.506-2.364 0-1.358.506-2.375a3.8 3.8 0 0 1 1.42-1.58q.915-.561 2.142-.562 1.227 0 2.142.563t1.421 1.58q.505 1.016.505 2.374 0 1.353-.505 2.364a3.8 3.8 0 0 1-1.421 1.574q-.915.562-2.142.562m.006-1.426q.795 0 1.318-.42a2.47 2.47 0 0 0 .773-1.12q.255-.699.255-1.54 0-.835-.255-1.534a2.5 2.5 0 0 0-.773-1.13q-.523-.426-1.318-.427-.802 0-1.33.427a2.54 2.54 0 0 0-.778 1.13q-.25.7-.25 1.535 0 .84.25 1.54.256.697.778 1.119.529.42 1.33.42m5.959 1.25v-8.727h1.642v1.386h.09q.24-.705.841-1.108a2.4 2.4 0 0 1 1.375-.409 7 7 0 0 1 .722.04v1.625a3 3 0 0 0-.364-.063 3.5 3.5 0 0 0-.522-.04q-.603 0-1.074.256a1.9 1.9 0 0 0-1.012 1.71v5.33z"/><path fill="#fff" d="m63.743 31.136 2.765 9.056h.102l2.765-9.056h3.345L68.548 43.5H64.57l-4.172-12.364zm13.53 12.54q-1.455 0-2.511-.574a3.97 3.97 0 0 1-1.618-1.648q-.561-1.075-.562-2.554 0-1.437.568-2.511.567-1.08 1.6-1.679 1.032-.603 2.433-.604.99 0 1.81.308.821.309 1.42.912.597.604.93 1.491.33.882.331 2.023v.736h-8.06v-1.715h5.313a1.66 1.66 0 0 0-.223-.839 1.5 1.5 0 0 0-.598-.573 1.7 1.7 0 0 0-.863-.211q-.495 0-.887.223a1.68 1.68 0 0 0-.863 1.449v1.745q0 .567.223.996.223.421.634.658.41.235.978.235.392 0 .712-.109.32-.108.55-.32a1.3 1.3 0 0 0 .343-.519l2.71.079a3.35 3.35 0 0 1-.742 1.587q-.567.67-1.49 1.045-.925.368-2.138.368m8.86-12.54V43.5h-2.951V31.136zm6.208 12.54q-1.46 0-2.511-.599a4.1 4.1 0 0 1-1.612-1.678q-.561-1.08-.561-2.505 0-1.432.561-2.505.568-1.08 1.612-1.679 1.05-.603 2.511-.604 1.462 0 2.506.604 1.05.598 1.612 1.678.567 1.075.567 2.506 0 1.425-.567 2.505a4.07 4.07 0 0 1-1.612 1.678q-1.045.598-2.506.598m.019-2.229q.53 0 .899-.326.368-.326.561-.905.2-.58.2-1.34 0-.773-.2-1.353-.193-.58-.561-.905a1.3 1.3 0 0 0-.9-.326 1.38 1.38 0 0 0-.93.326q-.373.327-.573.905-.192.58-.193 1.353 0 .76.193 1.34.2.58.574.905.38.327.93.326m10.507 2.228q-1.467 0-2.518-.604a4.1 4.1 0 0 1-1.606-1.678q-.56-1.08-.56-2.5 0-1.424.56-2.498a4.1 4.1 0 0 1 1.612-1.685q1.051-.603 2.506-.604 1.286 0 2.239.465.96.465 1.498 1.316.543.846.573 1.987h-2.759q-.084-.713-.483-1.117-.392-.405-1.026-.405a1.46 1.46 0 0 0-.9.29q-.385.284-.603.845-.212.556-.212 1.377 0 .82.212 1.388.218.561.603.851.387.285.9.284.41 0 .724-.175.32-.175.526-.513a2.1 2.1 0 0 0 .259-.833h2.759q-.042 1.146-.573 2.004a3.57 3.57 0 0 1-1.479 1.334q-.948.471-2.252.471m5.815-.175v-9.273h2.952V43.5zm1.479-10.353q-.622 0-1.069-.41a1.32 1.32 0 0 1-.446-1.003q0-.579.446-.99a1.5 1.5 0 0 1 1.069-.417q.628 0 1.068.417.447.411.447.99 0 .585-.447 1.002a1.5 1.5 0 0 1-1.068.41m8.586 1.08v2.174h-5.85v-2.174zm-4.624-2.221h2.952v8.578q0 .272.084.44a.53.53 0 0 0 .26.236 1.1 1.1 0 0 0 .404.067q.17 0 .356-.03.194-.038.29-.06l.447 2.13q-.211.06-.598.151-.38.09-.911.115-1.039.048-1.781-.242a2.3 2.3 0 0 1-1.129-.917q-.387-.622-.374-1.564zm7.935 14.971q-.531 0-1.002-.084a4 4 0 0 1-.809-.212l.652-2.143q.435.145.785.17.356.023.61-.115.259-.133.398-.477l.115-.278-3.296-9.61h3.09l1.709 6.616h.096l1.733-6.617h3.109l-3.495 10.16a4.3 4.3 0 0 1-.719 1.34 3.1 3.1 0 0 1-1.189.918q-.725.332-1.787.332"/></g><defs><filter id="b" width="57.143" height="51.429" x="3.43" y="2.286" color-interpolation-filters="sRGB" filterUnits="userSpaceOnUse"><feFlood flood-opacity="0" result="BackgroundImageFix"/><feColorMatrix in="SourceAlpha" result="hardAlpha" values="0 0 0 0 0 0 0 0 0 0 0 0 0 0 0 0 0 0 127 0"/><feOffset/><feGaussianBlur stdDeviation="2.857"/><feComposite in2="hardAlpha" operator="out"/><feColorMatrix values="0 0 0 0 0 0 0 0 0 0 0 0 0 0 0 0 0 0 0.25 0"/><feBlend in2="BackgroundImageFix" result="effect1_dropShadow_29_36"/><feBlend in="SourceGraphic" in2="effect1_dropShadow_29_36" result="shape"/></filter><filter id="c" width="106.2" height="48.677" x="54.4" y="3.9" color-interpolation-filters="sRGB" filterUnits="userSpaceOnUse"><feFlood flood-opacity="0" result="BackgroundImageFix"/><feColorMatrix in="SourceAlpha" result="hardAlpha" values="0 0 0 0 0 0 0 0 0 0 0 0 0 0 0 0 0 0 127 0"/><feOffset/><feGaussianBlur stdDeviation="2.8"/><feComposite in2="hardAlpha" operator="out"/><feColorMatrix values="0 0 0 0 0 0 0 0 0 0 0 0 0 0 0 0 0 0 0.25 0"/><feBlend in2="BackgroundImageFix" result="effect1_dropShadow_29_36"/><feBlend in="SourceGraphic" in2="effect1_dropShadow_29_36" result="shape"/></filter><linearGradient id="a" x1="83.5" x2="83.5" y1="0" y2="56" gradientUnits="userSpaceOnUse"><stop stop-color="#1d292c"/><stop offset="1" stop-color="#12161c"/></linearGradient></defs></svg>