<svg xmlns="http://www.w3.org/2000/svg" width="167" height="56" fill="none" viewBox="0 0 167 56"><rect width="167" height="56" fill="url(#a)" rx="8"/><rect width="164.9" height="53.9" x="1.05" y="1.05" stroke="#fff" stroke-opacity=".15" stroke-width="2.1" rx="6.95"/><g filter="url(#b)"><path fill="#fff" fill-rule="evenodd" d="M24.255 8.271c-.842.915-.161 1.425 1.904 1.426 1.876 0 3.538.257 5.373.827.715.223.718.167-.059 1.053-.862.985-1.465 1.734-1.922 2.39l-.66.945c-1.734 2.483-4.031 7.717-4.383 9.987-.02.134-.087.41-.146.611-.06.202-.169.667-.242 1.034s-.204.978-.29 1.358c-.087.38-.159.83-.16 1-.003.676-.078.755-.922.965-4.325 1.08-7.868 2.985-9.465 5.088-2.209 2.907-1.53 6.248 1.766 8.702.918.683 2.609 1.663 3.277 1.9.255.09.624.235.821.324 1.473.661 5.123 1.602 6.958 1.794.269.028.794.111 1.166.186.453.09 2.006.136 4.677.138 4.172.004 3.918.023 7.276-.554 2.323-.399 3.806-.827 6.333-1.827 6.917-2.738 8.513-8.56 3.392-12.37-2.174-1.617-5.563-3.007-8.891-3.647-.367-.07-.876-.174-1.133-.23a4.5 4.5 0 0 0-.75-.102c-.351 0-.383-.661-.12-2.481.09-.624.243-1.684.338-2.357.276-1.938.804-4.57 1.043-5.199.064-.168.093-.305.064-.305s.018-.188.102-.418c.15-.404.66-2.028.674-2.14.007-.06.248-.7.397-1.057.052-.122.245-.592.43-1.045.436-1.07 1.505-2.858 1.838-3.076 1.217-.799 4.352-1.48 6.863-1.492C51.658 9.69 52 9.544 52 8.759c0-1.168-5.603-.912-8.665.396-.153.065-.55.226-.881.358-1.936.767-4.411 6.795-5.556 13.528a49 49 0 0 0-.282 1.835c-.036.306-.11.881-.165 1.28-.511 3.67-.66 11.743-.224 12.165.273.266.816.267 1.165.004.193-.147.229-.336.277-1.483l.056-1.316 1.065.358c1.74.584 2.767 1.266 2.767 1.837 0 .72-2.212 1.856-4.638 2.38-1.265.274-2.405.487-2.638.495-2.748.092-3.529.473-2.944 1.435l.219.36.974.001c1.51.001 3.77-.342 5.584-.848.336-.094.686-.19.777-.213 1.702-.433 3.633-1.676 4.099-2.64.93-1.924-1.262-4.047-4.96-4.806-.354-.073-.36-.085-.36-.684 0-.53.025-.603.194-.552.107.032.594.162 1.083.289 8.46 2.197 8.72 7.064.505 9.458-.456.132-.956.262-1.111.288a3 3 0 0 0-.45.11c-1.855.694-9.92.694-11.775 0a3 3 0 0 0-.45-.11c-1.046-.175-2.682-.762-3.994-1.433-4.35-2.227-4.264-4.99.226-7.182 1.196-.584 1.24-.584 1.197.005-.033.453-.06.483-.812.913-2.363 1.348-2.844 3.387-1.128 4.779 1.737 1.407 4.647 1.512 4.233.151-.133-.437-.394-.64-.826-.64-1.113 0-2.779-.9-2.779-1.502 0-.205.891-1.166 1.081-1.166.06 0 .088.116.061.258-.06.315.446.965.751.965.775 0 .942-.418 1.046-2.613.078-1.66.236-3.41.416-4.616.069-.458.137-.959.151-1.112.049-.522.29-1.722.68-3.392 1.307-5.584 3.351-9.484 7.451-14.22.565-.652 1.028-1.263 1.028-1.356 0-.386-.337-.81-.748-.943-.23-.074-.469-.173-.53-.22-.788-.597-3.906-1.218-6.499-1.295L24.505 8zm14.722 1.39c-.427.112-2.273 2.957-3.35 5.163-.707 1.447-1.723 4.046-1.904 4.867-.021.1-.192.767-.377 1.483a45 45 0 0 0-.507 2.168 238 238 0 0 1-.28 1.423 12 12 0 0 0-.155 1c-.024.246-.095.746-.157 1.113-.188 1.116-.573 5.05-.63 6.45-.024.55-.098 1.931-.165 3.068-.15 2.534-.027 2.967.817 2.854.73-.098.81-.368.89-3.037a83 83 0 0 1 1.192-11.893c.324-1.857 1.304-5.38 1.824-6.561.081-.184.281-.659.445-1.057a23 23 0 0 1 1.647-3.205c.313-.51.619-1.01.68-1.112s.327-.477.591-.832c.886-1.19.588-2.193-.561-1.892m-2.918.271c-1.002.316-4.554 5.95-5.707 9.05-.373 1.005-1.01 2.924-1.197 3.614-.367 1.347-.684 2.65-.811 3.337a78 78 0 0 1-.284 1.445 28 28 0 0 0-.265 1.557c-.238 1.732-.383 2.931-.376 3.103.004.098-.06.783-.143 1.524-.402 3.608-.228 4.986.628 4.961.61-.017.755-.277.817-1.47.11-2.126.454-5.974.625-7.006.056-.336.121-.815.145-1.064.024-.248.1-.724.167-1.056.572-2.807.623-3.046.79-3.672.79-2.96 1.669-5.326 2.807-7.545.661-1.288 2.419-3.968 3.105-4.734.841-.94.962-1.415.481-1.896-.299-.299-.301-.299-.782-.148m4.09 21.408c2.623.615 5.128 1.59 7.175 2.793 2.344 1.377 3.529 3.892 2.697 5.728-1.068 2.358-5.574 4.949-9.912 5.7-.212.036-.56.11-.773.165-.403.102-1.193.226-3 .47-.66.09-2.285.144-4.332.144-2.048 0-3.673-.054-4.333-.144-1.807-.244-2.596-.368-3-.47a12 12 0 0 0-.773-.166c-1.413-.244-3.956-1.105-5.463-1.848-6.393-3.156-6.33-7.463.153-10.595 1.163-.562 3.558-1.41 4.39-1.555.437-.077.486.119.055.224-.168.041-.744.264-1.28.495-7.293 3.148-6.393 9.085 1.752 11.56.245.075.644.2.889.277.244.077.77.2 1.166.272.398.072.947.174 1.222.226 2.868.543 7.575.543 10.443 0 .275-.052.825-.154 1.222-.226s.922-.195 1.166-.272c.245-.078.645-.203.89-.277 9.686-2.96 8.688-10.307-1.723-12.679-.277-.063-.315-.092-.131-.1.142-.008.816.117 1.5.278" clip-rule="evenodd"/></g><g filter="url(#c)"><path fill="#e8e8e8" d="M62.261 24.5h-1.863l4.187-11.636h2.029L70.8 24.5h-1.864l-3.29-9.523h-.09zm.313-4.557h6.045v1.477h-6.045zm16.143-4.17L75.553 24.5h-1.819l-3.17-8.727h1.824l2.21 6.716h.09l2.206-6.716zm3.887 8.92a3.6 3.6 0 0 1-1.5-.307 2.53 2.53 0 0 1-1.063-.903q-.386-.591-.386-1.449 0-.739.284-1.216.285-.477.767-.756a4 4 0 0 1 1.08-.42q.596-.142 1.215-.216l1.273-.148q.49-.061.71-.198.222-.137.222-.444v-.04q0-.744-.42-1.153-.415-.41-1.24-.409-.857 0-1.351.38-.489.376-.676.836l-1.597-.364q.284-.795.83-1.284.551-.495 1.267-.716.716-.227 1.505-.227.523 0 1.108.125.59.12 1.102.443.517.324.847.926.33.597.33 1.552V24.5h-1.66v-1.193h-.068q-.165.33-.494.648-.33.318-.847.528t-1.238.21m.369-1.364q.705 0 1.204-.278.506-.278.768-.727.267-.454.267-.972v-1.125q-.091.091-.353.17-.255.075-.585.131-.33.052-.642.097l-.523.068q-.494.063-.903.21-.404.148-.648.427-.238.272-.238.727 0 .63.466.954.465.32 1.187.319m6.2 1.171v-8.727h1.7V24.5zm.858-10.074a1.08 1.08 0 0 1-.761-.295.96.96 0 0 1-.313-.716q0-.421.313-.716.318-.3.761-.301.444 0 .756.3a.94.94 0 0 1 .318.717.95.95 0 0 1-.318.716 1.06 1.06 0 0 1-.756.295m4.825-1.562V24.5h-1.698V12.864zm4.826 11.83a3.6 3.6 0 0 1-1.5-.308 2.53 2.53 0 0 1-1.063-.903q-.386-.591-.386-1.449 0-.739.284-1.216t.767-.756a4 4 0 0 1 1.08-.42 11 11 0 0 1 1.216-.216l1.272-.148q.49-.061.71-.198.222-.137.222-.444v-.04q0-.744-.42-1.153-.415-.41-1.239-.409-.858 0-1.352.38-.489.376-.676.836L97 17.886q.284-.795.83-1.284.551-.495 1.267-.716.716-.227 1.505-.227.523 0 1.108.125.592.12 1.102.443.517.324.847.926.33.597.33 1.552V24.5h-1.659v-1.193h-.069q-.164.33-.494.648t-.847.528-1.238.21m.369-1.364q.704 0 1.205-.279.505-.278.767-.727.267-.454.267-.972v-1.125q-.091.091-.353.17-.255.075-.585.131-.329.052-.642.097l-.523.068q-.494.063-.903.21a1.55 1.55 0 0 0-.648.427q-.238.272-.238.727 0 .63.466.954.465.32 1.187.319m6.337 1.17V12.864h1.699v4.323h.102q.147-.272.426-.63t.773-.625q.494-.273 1.307-.273 1.056 0 1.886.534.83.535 1.301 1.54.477 1.005.477 2.42t-.471 2.427q-.472 1.005-1.296 1.55-.824.54-1.88.54-.796 0-1.302-.267a2.5 2.5 0 0 1-.784-.625 5 5 0 0 1-.437-.636h-.142V24.5zm1.665-4.364q0 .921.267 1.614t.772 1.085q.506.387 1.239.387.762 0 1.273-.404.511-.41.772-1.108.267-.699.267-1.574 0-.863-.261-1.55-.255-.689-.773-1.086-.511-.398-1.278-.398-.738 0-1.25.381-.506.38-.767 1.063-.261.681-.261 1.59m9.913-7.272V24.5h-1.699V12.864zm6.047 11.812q-1.29 0-2.222-.551a3.74 3.74 0 0 1-1.432-1.562q-.5-1.012-.5-2.37 0-1.341.5-2.364a3.9 3.9 0 0 1 1.409-1.596q.91-.574 2.125-.574.74 0 1.432.244.693.244 1.245.768.55.522.869 1.357.318.83.318 2.018v.602h-6.937v-1.273h5.272q0-.67-.272-1.187a2.07 2.07 0 0 0-.767-.824q-.49-.302-1.148-.302-.716 0-1.25.353a2.36 2.36 0 0 0-.818.909q-.284.556-.284 1.21v.994q0 .876.306 1.489.313.615.87.938.557.318 1.301.318.483 0 .88-.137.399-.142.688-.42.29-.279.443-.688l1.608.29q-.194.71-.693 1.244-.494.529-1.244.824-.745.29-1.699.29m14.017-8.903v1.363h-4.932v-1.363zm-3.58 8.727V14.76q0-.818.358-1.358.358-.545.949-.812a3 3 0 0 1 1.284-.273q.512 0 .875.085.365.08.54.148l-.398 1.375a8 8 0 0 0-.307-.08 1.7 1.7 0 0 0-.454-.05q-.619 0-.887.306-.261.307-.261.887V24.5zm8.665.176q-1.227 0-2.142-.562a3.8 3.8 0 0 1-1.42-1.574q-.507-1.011-.506-2.364 0-1.358.506-2.375a3.8 3.8 0 0 1 1.42-1.58q.915-.561 2.142-.562 1.227 0 2.142.563t1.421 1.58q.505 1.016.505 2.374 0 1.353-.505 2.364a3.8 3.8 0 0 1-1.421 1.574q-.915.562-2.142.562m.006-1.426q.795 0 1.318-.42a2.47 2.47 0 0 0 .773-1.12q.255-.699.255-1.54 0-.835-.255-1.534a2.5 2.5 0 0 0-.773-1.13q-.523-.426-1.318-.427-.802 0-1.33.427a2.54 2.54 0 0 0-.778 1.13q-.25.7-.25 1.535 0 .84.25 1.54.256.697.778 1.119.529.42 1.33.42m5.959 1.25v-8.727h1.642v1.386h.09q.24-.705.841-1.108a2.4 2.4 0 0 1 1.375-.409 7 7 0 0 1 .722.04v1.625a3 3 0 0 0-.364-.063 3.5 3.5 0 0 0-.522-.04q-.603 0-1.074.256a1.9 1.9 0 0 0-1.012 1.71v5.33z"/><path fill="#fff" d="m63.9 43.5-3.598-12.364h3.302l1.865 8.102h.103l2.131-8.102h2.693l2.13 8.12h.103l1.872-8.12h3.296L74.205 43.5h-2.88l-2.227-7.498H69L66.773 43.5zm16.716.157q-.887 0-1.576-.296a2.45 2.45 0 0 1-1.08-.905q-.392-.61-.392-1.528 0-.773.271-1.304t.749-.863a3.5 3.5 0 0 1 1.098-.501 7 7 0 0 1 1.329-.235q.79-.074 1.273-.151.484-.085.7-.236a.51.51 0 0 0 .224-.44v-.03q0-.465-.32-.72-.32-.252-.863-.253-.586 0-.942.254a1.12 1.12 0 0 0-.453.7l-2.722-.096q.12-.846.621-1.51.507-.67 1.389-1.05.887-.387 2.13-.387.888 0 1.637.212.749.205 1.304.604.555.392.857.965.308.575.308 1.31V43.5h-2.777v-1.292h-.072q-.248.471-.634.797-.381.326-.9.489a3.8 3.8 0 0 1-1.159.163m.912-1.932q.476 0 .857-.193.386-.194.616-.531.23-.344.23-.797v-.882a2 2 0 0 1-.309.121 5 5 0 0 1-.386.103q-.212.048-.435.084l-.428.067a2.7 2.7 0 0 0-.713.205 1.1 1.1 0 0 0-.447.362.9.9 0 0 0-.15.52q0 .458.326.7.33.24.839.241m11.67-7.498v2.174h-5.85v-2.174zm-4.625-2.221h2.952v8.578q0 .272.084.44.09.165.26.236.17.067.404.067.17 0 .357-.03.192-.038.29-.06l.446 2.13q-.21.06-.597.151-.381.09-.912.115-1.038.048-1.781-.242a2.3 2.3 0 0 1-1.129-.917q-.387-.622-.374-1.564zm10.365 11.67q-1.455 0-2.511-.574a3.97 3.97 0 0 1-1.618-1.648q-.561-1.075-.561-2.554 0-1.437.567-2.511.568-1.08 1.6-1.679 1.032-.603 2.433-.604.99 0 1.811.308a3.9 3.9 0 0 1 1.418.912q.599.604.93 1.491.332.882.332 2.023v.736h-8.06v-1.715h5.313a1.66 1.66 0 0 0-.223-.839 1.5 1.5 0 0 0-.598-.573 1.7 1.7 0 0 0-.863-.211q-.495 0-.887.223a1.68 1.68 0 0 0-.863 1.449v1.745q0 .567.223.996.224.421.633.658.41.235.979.235.392 0 .712-.109.32-.108.549-.32.23-.21.344-.519l2.711.079a3.35 3.35 0 0 1-.743 1.587q-.567.67-1.491 1.045-.923.368-2.137.368m5.909-.176v-9.273h2.867v1.69h.097q.254-.917.827-1.364a2.1 2.1 0 0 1 1.334-.453q.206 0 .423.03.217.025.404.08v2.565a3 3 0 0 0-.555-.115 5 5 0 0 0-.604-.042q-.525 0-.948.235a1.7 1.7 0 0 0-.658.646 1.9 1.9 0 0 0-.235.966V43.5zm12.857-9.273V36.4h-5.964v-2.174zm-4.721 9.273v-9.744q0-1.075.405-1.78.404-.713 1.122-1.063.719-.357 1.661-.356.615 0 1.159.096.55.09.815.163l-.471 2.162a2.5 2.5 0 0 0-.399-.09 3 3 0 0 0-.434-.037q-.52 0-.713.23-.192.228-.193.627V43.5zm8.39.157q-.888 0-1.576-.296a2.45 2.45 0 0 1-1.08-.905q-.393-.61-.393-1.528 0-.773.272-1.304t.749-.863a3.5 3.5 0 0 1 1.098-.501 7 7 0 0 1 1.328-.235q.791-.074 1.274-.151.483-.085.7-.236a.51.51 0 0 0 .224-.44v-.03q0-.465-.32-.72-.32-.252-.863-.253-.587 0-.942.254a1.1 1.1 0 0 0-.453.7l-2.723-.096a3.2 3.2 0 0 1 .622-1.51q.507-.67 1.389-1.05.887-.387 2.131-.387.887 0 1.636.212.748.205 1.304.604.555.392.857.965.308.575.308 1.31V43.5h-2.777v-1.292h-.073q-.248.471-.633.797-.381.326-.9.489a3.8 3.8 0 0 1-1.159.163m.912-1.932q.476 0 .857-.193a1.6 1.6 0 0 0 .616-.531 1.4 1.4 0 0 0 .229-.797v-.882a2 2 0 0 1-.308.121q-.175.054-.386.103t-.435.084l-.429.067a2.7 2.7 0 0 0-.712.205 1.13 1.13 0 0 0-.447.362.9.9 0 0 0-.151.52q0 .458.326.7.332.24.84.241m9.387-10.589V43.5h-2.952V31.136zm4.831 0V43.5h-2.952V31.136z"/></g><defs><filter id="b" width="51.429" height="51.429" x="6.286" y="2.286" color-interpolation-filters="sRGB" filterUnits="userSpaceOnUse"><feFlood flood-opacity="0" result="BackgroundImageFix"/><feColorMatrix in="SourceAlpha" result="hardAlpha" values="0 0 0 0 0 0 0 0 0 0 0 0 0 0 0 0 0 0 127 0"/><feOffset/><feGaussianBlur stdDeviation="2.857"/><feComposite in2="hardAlpha" operator="out"/><feColorMatrix values="0 0 0 0 0 0 0 0 0 0 0 0 0 0 0 0 0 0 0.25 0"/><feBlend in2="BackgroundImageFix" result="effect1_dropShadow_29_5"/><feBlend in="SourceGraphic" in2="effect1_dropShadow_29_5" result="shape"/></filter><filter id="c" width="106.2" height="48.2" x="54.4" y="3.9" color-interpolation-filters="sRGB" filterUnits="userSpaceOnUse"><feFlood flood-opacity="0" result="BackgroundImageFix"/><feColorMatrix in="SourceAlpha" result="hardAlpha" values="0 0 0 0 0 0 0 0 0 0 0 0 0 0 0 0 0 0 127 0"/><feOffset/><feGaussianBlur stdDeviation="2.8"/><feComposite in2="hardAlpha" operator="out"/><feColorMatrix values="0 0 0 0 0 0 0 0 0 0 0 0 0 0 0 0 0 0 0.25 0"/><feBlend in2="BackgroundImageFix" result="effect1_dropShadow_29_5"/><feBlend in="SourceGraphic" in2="effect1_dropShadow_29_5" result="shape"/></filter><linearGradient id="a" x1="83.5" x2="83.5" y1="0" y2="56" gradientUnits="userSpaceOnUse"><stop stop-color="#11192c"/><stop offset="1" stop-color="#13111d"/></linearGradient></defs></svg>