<svg xmlns="http://www.w3.org/2000/svg" width="164" height="56" fill="none" viewBox="0 0 164 56"><rect width="164" height="56" fill="url(#a)" rx="8"/><rect width="161.9" height="53.9" x="1.05" y="1.05" stroke="#fff" stroke-opacity=".15" stroke-width="2.1" rx="6.95"/><g filter="url(#b)"><path fill="#fff" d="M30.006 47.918c-3.082-.295-6.201-1.401-8.88-3.148-2.246-1.465-2.754-2.067-2.754-3.268 0-2.413 2.655-6.64 7.197-11.457 2.58-2.737 6.172-5.944 6.56-5.857.756.169 6.795 6.056 9.056 8.828 3.575 4.383 5.219 7.971 4.384 9.57-.635 1.217-4.574 3.594-7.467 4.507-2.385.753-5.516 1.072-8.096.825M15.34 38.993c-1.866-2.861-2.81-5.678-3.264-9.752-.15-1.345-.097-2.114.341-4.875.546-3.442 2.506-7.423 4.863-9.873 1.003-1.044 1.093-1.07 2.316-.657 1.485.5 3.072 1.595 5.532 3.818l1.435 1.297-.784.963c-3.638 4.467-7.48 10.8-8.927 14.718-.787 2.13-1.104 4.268-.765 5.158.228.6.018.377-.747-.797m32.754.487c.184-.9-.049-2.551-.595-4.217-1.184-3.608-5.14-10.32-8.772-14.884l-1.143-1.437 1.237-1.135c1.615-1.482 2.737-2.37 3.947-3.123.954-.595 2.319-1.122 2.905-1.122.362 0 1.635 1.32 2.663 2.762 1.592 2.231 2.763 4.937 3.356 7.753.383 1.82.415 5.715.062 7.53-.29 1.49-.903 3.423-1.5 4.733-.448.982-1.562 2.89-2.05 3.51-.251.319-.251.318-.11-.37m-17.758-26.6c-1.676-.85-4.262-1.763-5.69-2.008a10.4 10.4 0 0 0-1.898-.107c-1.178.06-1.126-.002.764-.895 1.572-.742 2.883-1.178 4.663-1.552 2.002-.42 5.764-.425 7.735-.01 2.127.448 4.633 1.38 6.045 2.249l.42.258-.963-.049c-1.914-.097-4.702.676-7.695 2.132-.903.44-1.689.79-1.746.78s-.793-.37-1.636-.797"/></g><g filter="url(#c)"><path fill="#e8e8e8" d="M62.261 24.5h-1.863l4.187-11.636h2.029L70.8 24.5h-1.864l-3.29-9.523h-.09zm.313-4.557h6.045v1.477h-6.045zm16.143-4.17L75.553 24.5h-1.819l-3.17-8.727h1.824l2.21 6.716h.09l2.206-6.716zm3.887 8.92a3.6 3.6 0 0 1-1.5-.307 2.53 2.53 0 0 1-1.063-.903q-.386-.591-.386-1.449 0-.739.284-1.216.285-.477.767-.756a4 4 0 0 1 1.08-.42q.596-.142 1.215-.216l1.273-.148q.49-.061.71-.198.222-.137.222-.444v-.04q0-.744-.42-1.153-.415-.41-1.24-.409-.857 0-1.351.38-.489.376-.676.836l-1.597-.364q.284-.795.83-1.284.551-.495 1.267-.716.716-.227 1.505-.227.523 0 1.108.125.59.12 1.102.443.517.324.847.926.33.597.33 1.552V24.5h-1.66v-1.193h-.068q-.165.33-.494.648-.33.318-.847.528t-1.238.21m.369-1.364q.705 0 1.204-.278.506-.278.768-.727.267-.454.267-.972v-1.125q-.091.091-.353.17-.255.075-.585.131-.33.052-.642.097l-.523.068q-.494.063-.903.21-.404.148-.648.427-.238.272-.238.727 0 .63.466.954.465.32 1.187.319m6.2 1.171v-8.727h1.7V24.5zm.858-10.074a1.08 1.08 0 0 1-.761-.295.96.96 0 0 1-.313-.716q0-.421.313-.716.318-.3.761-.301.444 0 .756.3a.94.94 0 0 1 .318.717.95.95 0 0 1-.318.716 1.06 1.06 0 0 1-.756.295m4.825-1.562V24.5h-1.698V12.864zm4.826 11.83a3.6 3.6 0 0 1-1.5-.308 2.53 2.53 0 0 1-1.063-.903q-.386-.591-.386-1.449 0-.739.284-1.216t.767-.756a4 4 0 0 1 1.08-.42 11 11 0 0 1 1.216-.216l1.272-.148q.49-.061.71-.198.222-.137.222-.444v-.04q0-.744-.42-1.153-.415-.41-1.239-.409-.858 0-1.352.38-.489.376-.676.836L97 17.886q.284-.795.83-1.284.551-.495 1.267-.716.716-.227 1.505-.227.523 0 1.108.125.592.12 1.102.443.517.324.847.926.33.597.33 1.552V24.5h-1.659v-1.193h-.069q-.164.33-.494.648t-.847.528-1.238.21m.369-1.364q.704 0 1.205-.279.505-.278.767-.727.267-.454.267-.972v-1.125q-.091.091-.353.17-.255.075-.585.131-.329.052-.642.097l-.523.068q-.494.063-.903.21a1.55 1.55 0 0 0-.648.427q-.238.272-.238.727 0 .63.466.954.465.32 1.187.319m6.337 1.17V12.864h1.699v4.323h.102q.147-.272.426-.63t.773-.625q.494-.273 1.307-.273 1.056 0 1.886.534.83.535 1.301 1.54.477 1.005.477 2.42t-.471 2.427q-.472 1.005-1.296 1.55-.824.54-1.88.54-.796 0-1.302-.267a2.5 2.5 0 0 1-.784-.625 5 5 0 0 1-.437-.636h-.142V24.5zm1.665-4.364q0 .921.267 1.614t.772 1.085q.506.387 1.239.387.762 0 1.273-.404.511-.41.772-1.108.267-.699.267-1.574 0-.863-.261-1.55-.255-.689-.773-1.086-.511-.398-1.278-.398-.738 0-1.25.381-.506.38-.767 1.063-.261.681-.261 1.59m9.913-7.272V24.5h-1.699V12.864zm6.047 11.812q-1.29 0-2.222-.551a3.74 3.74 0 0 1-1.432-1.562q-.5-1.012-.5-2.37 0-1.341.5-2.364a3.9 3.9 0 0 1 1.409-1.596q.91-.574 2.125-.574.74 0 1.432.244.693.244 1.245.768.55.522.869 1.357.318.83.318 2.018v.602h-6.937v-1.273h5.272q0-.67-.272-1.187a2.07 2.07 0 0 0-.767-.824q-.49-.302-1.148-.302-.716 0-1.25.353a2.36 2.36 0 0 0-.818.909q-.284.556-.284 1.21v.994q0 .876.306 1.489.313.615.87.938.557.318 1.301.318.483 0 .88-.137.399-.142.688-.42.29-.279.443-.688l1.608.29q-.194.71-.693 1.244-.494.529-1.244.824-.745.29-1.699.29m13.54 0q-1.228 0-2.143-.562a3.8 3.8 0 0 1-1.42-1.574q-.506-1.011-.506-2.364 0-1.358.506-2.375a3.8 3.8 0 0 1 1.42-1.58q.915-.561 2.143-.562 1.227 0 2.142.563a3.8 3.8 0 0 1 1.42 1.58q.506 1.016.506 2.374 0 1.353-.506 2.364a3.8 3.8 0 0 1-1.42 1.574q-.915.562-2.142.562m.005-1.426q.796 0 1.318-.42.523-.42.773-1.12.256-.699.256-1.54 0-.835-.256-1.534a2.5 2.5 0 0 0-.773-1.13q-.522-.426-1.318-.427-.801 0-1.329.427a2.54 2.54 0 0 0-.779 1.13q-.25.7-.25 1.535 0 .84.25 1.54.256.697.779 1.119.528.42 1.329.42m7.658-3.932V24.5h-1.699v-8.727h1.631v1.42h.108q.3-.693.943-1.114.647-.42 1.631-.42.891 0 1.562.375.67.37 1.04 1.102.369.733.369 1.813V24.5h-1.699v-5.347q0-.948-.494-1.482-.495-.54-1.358-.54-.59 0-1.051.255-.455.255-.722.75-.261.489-.261 1.182"/><path fill="#fff" d="m63.96 31.136 2.258 3.906h.097l2.282-3.906h3.344l-3.73 6.182 3.85 6.182h-3.428l-2.318-3.948h-.097L63.9 43.5h-3.405l3.834-6.182-3.737-6.182zM73.487 43.5V31.136h2.952v4.679h.06q.18-.422.513-.815.338-.393.857-.64.525-.254 1.256-.254.966 0 1.805.508.845.507 1.364 1.563t.52 2.693q0 1.575-.501 2.638-.495 1.063-1.34 1.594a3.4 3.4 0 0 1-1.866.53q-.7 0-1.213-.229a2.6 2.6 0 0 1-.864-.603 2.9 2.9 0 0 1-.531-.803h-.09V43.5zm2.891-4.636q0 .748.2 1.304.204.555.585.863.387.302.924.302.543 0 .923-.302.38-.308.574-.863.2-.555.199-1.304 0-.75-.2-1.298-.193-.55-.573-.852-.375-.3-.923-.301-.544 0-.924.295-.38.297-.586.846-.199.548-.199 1.31m12.311 4.811q-1.461 0-2.511-.598a4.1 4.1 0 0 1-1.612-1.678q-.561-1.08-.562-2.505 0-1.432.562-2.505.567-1.08 1.612-1.679 1.05-.603 2.511-.604 1.462 0 2.505.604 1.05.598 1.612 1.678.568 1.075.568 2.506 0 1.425-.568 2.505a4.07 4.07 0 0 1-1.612 1.678q-1.044.598-2.505.598m.018-2.228q.531 0 .9-.326.368-.326.561-.905.2-.58.2-1.34 0-.773-.2-1.353-.194-.58-.561-.905a1.3 1.3 0 0 0-.9-.326 1.38 1.38 0 0 0-.93.326q-.374.327-.573.905-.193.58-.193 1.353 0 .76.193 1.34.2.58.573.905.381.327.93.326m8.358-7.22 1.528 3.055 1.581-3.055h2.976l-2.589 4.637 2.686 4.636h-2.952l-1.702-3.079-1.66 3.079h-2.995l2.693-4.636-2.56-4.637zm22.755 3.091q0 2.04-.785 3.46-.784 1.418-2.125 2.154-1.334.737-2.994.737-1.666 0-3.001-.742-1.334-.743-2.118-2.156-.78-1.418-.779-3.453 0-2.04.779-3.459.784-1.419 2.118-2.155 1.335-.737 3.001-.737 1.66 0 2.994.737 1.34.736 2.125 2.155t.785 3.46m-3.055 0q0-1.208-.344-2.04-.337-.834-.978-1.262-.634-.429-1.527-.429-.888 0-1.528.429-.639.429-.984 1.262-.338.833-.338 2.04t.338 2.04q.345.834.984 1.262.64.429 1.528.429.893 0 1.527-.429.64-.428.978-1.261.345-.834.344-2.04m7.752.894V43.5h-2.952v-9.273h2.807v1.703h.102a2.6 2.6 0 0 1 1.051-1.334q.742-.49 1.769-.49.978 0 1.696.441.724.435 1.123 1.22.404.779.398 1.823v5.91h-2.952v-5.33q.007-.773-.392-1.208-.393-.435-1.093-.435-.465 0-.821.206a1.36 1.36 0 0 0-.543.573q-.187.375-.193.906m12.157 5.463q-1.456 0-2.512-.573a3.97 3.97 0 0 1-1.618-1.648q-.561-1.075-.561-2.554 0-1.437.567-2.511.568-1.08 1.6-1.679 1.032-.603 2.433-.604.99 0 1.811.308.82.309 1.419.912.597.604.929 1.491.333.882.332 2.023v.736h-8.059v-1.715h5.313a1.66 1.66 0 0 0-.224-.839 1.5 1.5 0 0 0-.597-.573 1.73 1.73 0 0 0-.864-.211q-.495 0-.887.223a1.68 1.68 0 0 0-.863 1.449v1.745q0 .567.223.996.223.421.634.658.411.235.978.235.392 0 .712-.109a1.5 1.5 0 0 0 .55-.32q.229-.21.344-.519l2.71.079a3.35 3.35 0 0 1-.742 1.587q-.569.67-1.491 1.045-.924.368-2.137.368"/></g><defs><filter id="b" width="51.429" height="51.429" x="6.286" y="2.286" color-interpolation-filters="sRGB" filterUnits="userSpaceOnUse"><feFlood flood-opacity="0" result="BackgroundImageFix"/><feColorMatrix in="SourceAlpha" result="hardAlpha" values="0 0 0 0 0 0 0 0 0 0 0 0 0 0 0 0 0 0 127 0"/><feOffset/><feGaussianBlur stdDeviation="2.857"/><feComposite in2="hardAlpha" operator="out"/><feColorMatrix values="0 0 0 0 0 0 0 0 0 0 0 0 0 0 0 0 0 0 0.25 0"/><feBlend in2="BackgroundImageFix" result="effect1_dropShadow_28_1070"/><feBlend in="SourceGraphic" in2="effect1_dropShadow_28_1070" result="shape"/></filter><filter id="c" width="103.2" height="48.2" x="54.4" y="3.9" color-interpolation-filters="sRGB" filterUnits="userSpaceOnUse"><feFlood flood-opacity="0" result="BackgroundImageFix"/><feColorMatrix in="SourceAlpha" result="hardAlpha" values="0 0 0 0 0 0 0 0 0 0 0 0 0 0 0 0 0 0 127 0"/><feOffset/><feGaussianBlur stdDeviation="2.8"/><feComposite in2="hardAlpha" operator="out"/><feColorMatrix values="0 0 0 0 0 0 0 0 0 0 0 0 0 0 0 0 0 0 0.25 0"/><feBlend in2="BackgroundImageFix" result="effect1_dropShadow_28_1070"/><feBlend in="SourceGraphic" in2="effect1_dropShadow_28_1070" result="shape"/></filter><linearGradient id="a" x1="82" x2="74.426" y1="0" y2="54.956" gradientUnits="userSpaceOnUse"><stop stop-color="#083407"/><stop offset="1" stop-color="#041d04"/></linearGradient></defs></svg>