<svg xmlns="http://www.w3.org/2000/svg" width="338" height="40" fill="none" viewBox="0 0 338 40"><g clip-path="url(#a)"><rect width="338" height="40" fill="url(#b)" rx="8"/><g fill="#e8e8e8" filter="url(#c)"><path d="M8 6h7v2.333h-4.667V13H8zm21 0h7v7h-2.333V8.333H29zm-14 4.667h2.333V13h2.334v2.333h-2.334v2.334H15v-2.334h-2.333V13H15zm11.667 0H29V13h2.333v2.333H29v2.334h-2.333v-2.334h-2.334V13h2.334zM15 22.333h2.333v2.334h2.334V27h-2.334v2.333H15V27h-2.333v-2.333H15zm11.667 0H29v2.334h2.333V27H29v2.333h-2.333V27h-2.334v-2.333h2.334zM8 27h2.333v4.667H15V34H8zm25.667 0H36v7h-7v-2.333h4.667z"/></g><g fill="#e8e8e8" filter="url(#d)"><path d="M43.278 25.5V13.864h4.148q1.353 0 2.244.465.898.466 1.341 1.29.444.82.444 1.892 0 1.07-.45 1.881-.443.807-1.34 1.256-.892.449-2.245.449h-3.142v-1.512h2.983q.852 0 1.387-.244.54-.245.79-.71.25-.466.25-1.12 0-.659-.256-1.142a1.65 1.65 0 0 0-.79-.738q-.534-.262-1.403-.262h-2.205V25.5zm5.745-5.25 2.875 5.25h-2l-2.818-5.25zm8.083 5.426q-1.29 0-2.221-.551a3.74 3.74 0 0 1-1.432-1.562q-.5-1.012-.5-2.37 0-1.341.5-2.364a3.9 3.9 0 0 1 1.41-1.596q.908-.574 2.124-.574.74 0 1.432.244.693.244 1.244.768.552.522.87 1.357.318.83.318 2.018v.602h-6.938v-1.273h5.273q0-.67-.273-1.187a2.06 2.06 0 0 0-.767-.824q-.488-.302-1.147-.302-.717 0-1.25.353a2.36 2.36 0 0 0-.819.909q-.284.556-.284 1.21v.994q0 .876.307 1.489.312.615.87.938.556.318 1.3.318.484 0 .881-.137.398-.142.688-.42.289-.279.443-.688l1.608.29q-.194.71-.693 1.244a3.36 3.36 0 0 1-1.245.824q-.744.29-1.699.29m11.522 3.097v-4.631h-.102q-.154.279-.444.636-.283.358-.784.625-.5.267-1.295.268-1.058 0-1.886-.54-.825-.546-1.296-1.552-.465-1.01-.466-2.426 0-1.415.472-2.42.477-1.006 1.306-1.54a3.4 3.4 0 0 1 1.881-.534q.813 0 1.307.273.499.267.773.625.278.359.432.63h.142v-1.414h1.659v12zm-2.25-4.551q.733 0 1.239-.387.51-.392.772-1.085.267-.693.267-1.614 0-.909-.261-1.59-.261-.683-.767-1.063t-1.25-.38q-.767 0-1.279.397-.51.398-.772 1.085-.255.688-.256 1.551 0 .875.261 1.574.262.699.773 1.108.517.404 1.273.404m11.761-2.341v-5.108h1.705V25.5h-1.67v-1.511h-.092q-.3.698-.965 1.164-.66.46-1.643.46-.84 0-1.488-.369-.642-.375-1.012-1.108-.363-.732-.363-1.812v-5.551h1.699v5.346q0 .893.494 1.42.494.53 1.284.53.478 0 .949-.24.477-.239.79-.721.318-.483.312-1.227m3.987 3.619v-8.727h1.7V25.5zm.858-10.074a1.08 1.08 0 0 1-.761-.295.96.96 0 0 1-.312-.716q0-.421.312-.716.318-.3.761-.301.444 0 .756.3a.94.94 0 0 1 .318.717.95.95 0 0 1-.318.716 1.06 1.06 0 0 1-.756.295M86.111 25.5v-8.727h1.642v1.386h.09q.24-.705.842-1.108.607-.41 1.375-.409a7 7 0 0 1 .721.04v1.625a3 3 0 0 0-.363-.063 3.5 3.5 0 0 0-.523-.04q-.603 0-1.074.256a1.9 1.9 0 0 0-1.011 1.71v5.33zm9.59.176q-1.29 0-2.222-.551a3.74 3.74 0 0 1-1.432-1.562q-.5-1.012-.5-2.37 0-1.341.5-2.364a3.9 3.9 0 0 1 1.409-1.596q.909-.574 2.125-.574.739 0 1.432.244t1.244.768q.55.522.87 1.357.318.83.318 2.018v.602h-6.938v-1.273h5.273q0-.67-.273-1.187a2.06 2.06 0 0 0-.767-.824q-.488-.302-1.148-.302-.716 0-1.25.353a2.36 2.36 0 0 0-.818.909q-.285.556-.284 1.21v.994q0 .876.307 1.489.312.615.87.938.556.318 1.3.318.483 0 .881-.137.397-.142.688-.42.289-.279.443-.688l1.608.29q-.194.71-.694 1.244a3.36 3.36 0 0 1-1.244.824q-.744.29-1.699.29m12.168-6.773-1.539.273a1.8 1.8 0 0 0-.307-.562 1.5 1.5 0 0 0-.557-.438q-.353-.17-.881-.17-.721 0-1.204.323-.483.319-.483.824 0 .438.324.705.323.267 1.045.438l1.386.318q1.205.277 1.796.858.591.58.591 1.505 0 .785-.455 1.398-.449.608-1.255.954-.802.348-1.858.347-1.467 0-2.392-.625-.927-.63-1.137-1.79l1.642-.25q.153.642.631.972.477.324 1.244.324.836 0 1.335-.347.5-.352.5-.858a.9.9 0 0 0-.306-.687q-.302-.279-.927-.42l-1.477-.325q-1.22-.277-1.807-.886-.579-.607-.579-1.54a2.2 2.2 0 0 1 .432-1.352q.431-.579 1.193-.903.761-.33 1.744-.33 1.415 0 2.227.614.813.608 1.074 1.63m17.29-.787h-3.018q-.06-.465-.248-.84a2 2 0 0 0-.495-.64 2.1 2.1 0 0 0-.73-.404 2.8 2.8 0 0 0-.924-.145q-.9 0-1.551.441-.646.44-.996 1.274-.344.832-.344 2.016 0 1.232.35 2.065.356.827.996 1.25.646.416 1.527.416.495 0 .9-.127.41-.126.718-.368.313-.247.513-.598.206-.356.284-.803l3.018.019a4.6 4.6 0 0 1-.477 1.617 5.2 5.2 0 0 1-1.08 1.455 5.1 5.1 0 0 1-1.678 1.039q-.984.386-2.258.386-1.678 0-3.007-.736-1.322-.743-2.088-2.162-.767-1.418-.767-3.453 0-2.04.779-3.459.778-1.419 2.107-2.155 1.328-.737 2.976-.737 1.123 0 2.076.314a5 5 0 0 1 1.679.906q.724.592 1.177 1.455.453.862.561 1.974m4.324 8.041q-.887 0-1.575-.296a2.46 2.46 0 0 1-1.081-.905q-.392-.61-.392-1.528 0-.773.271-1.304.272-.531.749-.863a3.5 3.5 0 0 1 1.099-.501 7 7 0 0 1 1.328-.236q.79-.072 1.274-.15.483-.085.7-.236a.51.51 0 0 0 .223-.44v-.03q0-.465-.32-.72-.32-.252-.863-.253-.585 0-.942.254a1.12 1.12 0 0 0-.453.7l-2.722-.096q.12-.846.622-1.51.506-.67 1.388-1.05.888-.386 2.131-.386.888 0 1.636.21.749.206 1.304.605.555.392.857.965.308.575.308 1.31V26h-2.777v-1.292h-.072q-.248.471-.634.797-.38.326-.9.489a3.8 3.8 0 0 1-1.159.163m.912-1.932q.477 0 .857-.193.387-.194.616-.531.23-.344.229-.797v-.882a1.7 1.7 0 0 1-.308.121 5 5 0 0 1-.386.103q-.212.048-.435.084-.222.036-.428.067a2.7 2.7 0 0 0-.713.205 1.1 1.1 0 0 0-.446.362.9.9 0 0 0-.151.52q0 .458.326.7.332.24.839.241M136.829 26v-9.273h2.868v1.69h.096q.254-.917.827-1.364a2.1 2.1 0 0 1 1.335-.453q.204 0 .422.03.217.025.405.08v2.565a3 3 0 0 0-.556-.115 5 5 0 0 0-.603-.042q-.526 0-.948.235a1.7 1.7 0 0 0-.658.646 1.9 1.9 0 0 0-.236.966V26zm10.061.133a3.4 3.4 0 0 1-1.866-.531q-.839-.532-1.34-1.594t-.501-2.638q0-1.637.519-2.693t1.359-1.563a3.47 3.47 0 0 1 1.817-.508q.73 0 1.249.254.52.247.858.64t.513.815h.06v-4.679h2.952V26h-2.922v-1.503h-.09a2.9 2.9 0 0 1-.531.803q-.345.374-.864.603-.513.23-1.213.23m1.026-2.3q.537 0 .918-.302.38-.308.585-.863.206-.555.206-1.304 0-.761-.206-1.31-.2-.55-.585-.846a1.45 1.45 0 0 0-.918-.295q-.549 0-.93.302-.38.301-.579.85-.193.55-.193 1.299t.199 1.304.573.863q.381.302.93.302M154.377 26v-9.273h2.952V26zm1.479-10.353q-.622 0-1.068-.41a1.32 1.32 0 0 1-.447-1.003q0-.579.447-.99a1.5 1.5 0 0 1 1.068-.417 1.5 1.5 0 0 1 1.069.417q.447.411.446.99 0 .585-.446 1.002-.44.41-1.069.41m6.304 5.065V26h-2.952v-9.273h2.807v1.703h.103a2.6 2.6 0 0 1 1.05-1.334q.743-.49 1.769-.49.978 0 1.697.441.725.435 1.122 1.22.405.779.399 1.823V26h-2.952v-5.33q.006-.774-.393-1.208-.392-.435-1.092-.435-.465 0-.821.206a1.36 1.36 0 0 0-.544.573q-.186.375-.193.906m10.437 5.445q-.888 0-1.576-.296a2.46 2.46 0 0 1-1.081-.905q-.392-.61-.392-1.528 0-.773.272-1.304.271-.531.748-.863a3.5 3.5 0 0 1 1.099-.501 7 7 0 0 1 1.328-.236q.79-.072 1.274-.15.483-.085.7-.236a.51.51 0 0 0 .223-.44v-.03q0-.465-.32-.72-.32-.252-.863-.253-.585 0-.942.254a1.12 1.12 0 0 0-.452.7l-2.723-.096a3.2 3.2 0 0 1 .622-1.51q.507-.67 1.388-1.05.888-.386 2.131-.386.888 0 1.636.21.749.206 1.304.605.556.392.858.965.307.575.307 1.31V26h-2.777v-1.292h-.072q-.247.471-.634.797-.38.326-.899.489a3.8 3.8 0 0 1-1.159.163m.911-1.932q.477 0 .857-.193.387-.194.616-.531.23-.344.23-.797v-.882a2 2 0 0 1-.308.121q-.175.054-.387.103-.211.048-.434.084l-.429.067a2.7 2.7 0 0 0-.712.205 1.1 1.1 0 0 0-.447.362.9.9 0 0 0-.151.52q0 .458.326.7.332.24.839.241m9.388-10.589V26h-2.952V13.636zm16.754 4.48h-3.019a2.6 2.6 0 0 0-.247-.84 2.1 2.1 0 0 0-.495-.64 2.1 2.1 0 0 0-.731-.404 2.8 2.8 0 0 0-.924-.145q-.898 0-1.551.441-.647.44-.996 1.274-.344.832-.344 2.016 0 1.232.35 2.065.355.827.996 1.25.647.416 1.527.416.495 0 .9-.127.41-.126.718-.368.315-.247.513-.598.206-.356.284-.803l3.019.019a4.6 4.6 0 0 1-.477 1.617 5.2 5.2 0 0 1-1.081 1.455 5.1 5.1 0 0 1-1.678 1.039q-.984.386-2.258.386-1.678 0-3.006-.736-1.323-.743-2.089-2.162-.767-1.418-.767-3.453 0-2.04.779-3.459.778-1.419 2.107-2.155 1.327-.737 2.976-.737a6.6 6.6 0 0 1 2.077.314 5 5 0 0 1 1.678.906q.724.592 1.177 1.455.453.862.562 1.974m6.038 8.06q-1.461 0-2.511-.599a4.1 4.1 0 0 1-1.612-1.678q-.562-1.08-.562-2.505 0-1.432.562-2.505a4.07 4.07 0 0 1 1.612-1.679q1.05-.604 2.511-.604t2.505.604a4 4 0 0 1 1.612 1.678q.568 1.075.568 2.506 0 1.425-.568 2.505a4.07 4.07 0 0 1-1.612 1.678q-1.044.598-2.505.598m.018-2.229q.531 0 .9-.326.367-.326.561-.905.2-.58.199-1.34 0-.773-.199-1.353-.194-.58-.561-.905a1.3 1.3 0 0 0-.9-.326q-.549 0-.93.326-.373.326-.573.905-.193.58-.193 1.353 0 .76.193 1.34.2.58.573.905.381.327.93.326M211.885 26v-9.273h2.807v1.703h.103a2.64 2.64 0 0 1 .978-1.334q.688-.49 1.642-.49.966 0 1.654.496.688.494.875 1.328h.097a2.4 2.4 0 0 1 1.014-1.322q.755-.502 1.781-.502 1.316 0 2.137.846.82.84.821 2.306V26h-2.952v-5.566q0-.694-.356-1.056-.357-.369-.924-.369-.609 0-.96.399-.344.392-.344 1.056V26h-2.837v-5.596q0-.646-.35-1.02-.351-.375-.924-.375a1.25 1.25 0 0 0-1.147.707 1.8 1.8 0 0 0-.163.796V26zm15.738 3.477v-12.75h2.922v1.588h.091q.18-.422.513-.815.338-.393.857-.64.525-.253 1.256-.253.966 0 1.805.507.845.507 1.364 1.563t.519 2.693q0 1.575-.501 2.638-.495 1.062-1.34 1.594a3.4 3.4 0 0 1-1.865.53q-.7 0-1.214-.229a2.6 2.6 0 0 1-.863-.603 2.9 2.9 0 0 1-.531-.803h-.061v4.98zm2.892-8.113q0 .748.199 1.304.205.555.586.863.386.302.923.302.544 0 .924-.302.381-.308.573-.863.2-.555.2-1.304 0-.75-.2-1.298-.192-.55-.573-.851-.374-.303-.924-.302-.543 0-.923.295-.38.297-.586.846-.2.55-.199 1.31m12.311 4.811q-1.46 0-2.512-.598a4.13 4.13 0 0 1-1.612-1.678q-.561-1.08-.561-2.505 0-1.432.561-2.505.568-1.08 1.612-1.679 1.051-.604 2.512-.604t2.505.604q1.05.598 1.612 1.678.567 1.075.567 2.506 0 1.425-.567 2.505a4.07 4.07 0 0 1-1.612 1.678q-1.044.598-2.505.598m.018-2.228q.531 0 .899-.326.369-.326.562-.905.2-.58.199-1.34 0-.773-.199-1.353-.193-.58-.562-.905a1.3 1.3 0 0 0-.899-.326q-.549 0-.93.326-.374.326-.573.905-.194.58-.194 1.353 0 .76.194 1.34.199.58.573.905.381.327.93.326m9.131-3.235V26h-2.952v-9.273h2.807v1.703h.102a2.6 2.6 0 0 1 1.051-1.334q.742-.49 1.769-.49.978 0 1.696.441.724.435 1.123 1.22.404.779.398 1.823V26h-2.952v-5.33q.006-.774-.392-1.208-.393-.435-1.093-.435-.465 0-.821.206a1.36 1.36 0 0 0-.543.573q-.187.375-.193.906m12.157 5.463q-1.456 0-2.512-.573a3.97 3.97 0 0 1-1.618-1.649q-.561-1.074-.561-2.553 0-1.437.567-2.511.568-1.08 1.6-1.679 1.032-.604 2.433-.604.99 0 1.811.308.82.309 1.419.912.597.604.929 1.491.332.882.332 2.023v.736h-8.059v-1.715h5.313a1.66 1.66 0 0 0-.224-.839 1.5 1.5 0 0 0-.597-.573 1.73 1.73 0 0 0-.864-.211q-.495 0-.887.223a1.68 1.68 0 0 0-.863 1.449v1.744q0 .568.223.997.223.421.634.658.411.235.978.235.392 0 .712-.109a1.5 1.5 0 0 0 .55-.32q.229-.21.344-.519l2.71.079a3.35 3.35 0 0 1-.742 1.587q-.568.67-1.491 1.045-.925.368-2.137.368m8.86-5.463V26h-2.952v-9.273h2.807v1.703h.103a2.6 2.6 0 0 1 1.05-1.334q.743-.49 1.769-.49.978 0 1.697.441.725.435 1.122 1.22.405.779.399 1.823V26h-2.952v-5.33q.006-.774-.393-1.208-.392-.435-1.092-.435-.465 0-.821.206a1.36 1.36 0 0 0-.544.573q-.187.375-.193.906m13.057-3.985v2.174h-5.85v-2.174zm-4.625-2.221h2.952v8.578q0 .272.085.44.09.165.259.236.17.067.405.067.169 0 .356-.03.194-.038.29-.06l.447 2.13q-.211.06-.598.151a5 5 0 0 1-.912.115q-1.038.048-1.78-.242a2.3 2.3 0 0 1-1.129-.917q-.387-.622-.375-1.564zm14.11 5.053-2.71.072a1 1 0 0 0-.23-.513 1.24 1.24 0 0 0-.489-.356 1.7 1.7 0 0 0-.688-.133q-.513 0-.875.205-.357.205-.351.556a.6.6 0 0 0 .218.47q.229.2.815.32l1.787.338q1.388.265 2.064.882.683.616.689 1.63a2.62 2.62 0 0 1-.568 1.66q-.555.706-1.521 1.099-.966.386-2.21.386-1.986 0-3.133-.815-1.141-.821-1.304-2.197l2.916-.073q.096.507.501.773.405.265 1.032.265.569 0 .924-.21.356-.213.362-.562a.6.6 0 0 0-.278-.501q-.271-.194-.851-.302l-1.618-.308q-1.394-.253-2.076-.936-.682-.688-.676-1.75-.006-.93.495-1.588.501-.664 1.424-1.014t2.18-.35q1.882 0 2.97.79 1.086.785 1.201 2.162m8.01 6.441h-3.212l4.171-12.364h3.979L312.653 26h-3.211l-2.904-9.249h-.097zm-.429-4.866h6.713v2.27h-6.713zM313.984 26V13.636h5.108q1.388 0 2.396.544a3.8 3.8 0 0 1 1.564 1.503q.549.96.549 2.233 0 1.28-.561 2.24-.555.954-1.588 1.48-1.032.525-2.451.524h-3.151v-2.354h2.596q.676 0 1.129-.235.459-.236.694-.658.235-.429.235-.997 0-.573-.235-.99a1.6 1.6 0 0 0-.694-.651q-.459-.23-1.129-.23h-1.473V26zm14.079-12.364V26h-2.989V13.636z"/></g></g><rect width="335.9" height="37.9" x="1.05" y="1.05" stroke="#fff" stroke-opacity=".15" stroke-width="2.1" rx="6.95"/><defs><filter id="c" width="39.429" height="39.429" x="2.286" y=".286" color-interpolation-filters="sRGB" filterUnits="userSpaceOnUse"><feFlood flood-opacity="0" result="BackgroundImageFix"/><feColorMatrix in="SourceAlpha" result="hardAlpha" values="0 0 0 0 0 0 0 0 0 0 0 0 0 0 0 0 0 0 127 0"/><feOffset/><feGaussianBlur stdDeviation="2.857"/><feComposite in2="hardAlpha" operator="out"/><feColorMatrix values="0 0 0 0 0 0 0 0 0 0 0 0 0 0 0 0 0 0 0.25 0"/><feBlend in2="BackgroundImageFix" result="effect1_dropShadow_67_33"/><feBlend in="SourceGraphic" in2="effect1_dropShadow_67_33" result="shape"/></filter><filter id="d" width="299.2" height="30.2" x="36.4" y="4.9" color-interpolation-filters="sRGB" filterUnits="userSpaceOnUse"><feFlood flood-opacity="0" result="BackgroundImageFix"/><feColorMatrix in="SourceAlpha" result="hardAlpha" values="0 0 0 0 0 0 0 0 0 0 0 0 0 0 0 0 0 0 127 0"/><feOffset/><feGaussianBlur stdDeviation="2.8"/><feComposite in2="hardAlpha" operator="out"/><feColorMatrix values="0 0 0 0 0 0 0 0 0 0 0 0 0 0 0 0 0 0 0.25 0"/><feBlend in2="BackgroundImageFix" result="effect1_dropShadow_67_33"/><feBlend in="SourceGraphic" in2="effect1_dropShadow_67_33" result="shape"/></filter><linearGradient id="b" x1="169" x2="169" y1="0" y2="38" gradientUnits="userSpaceOnUse"><stop stop-color="#32313e"/><stop offset="1" stop-color="#272730"/></linearGradient><clipPath id="a"><rect width="338" height="40" fill="#fff" rx="8"/></clipPath></defs></svg>