<svg xmlns="http://www.w3.org/2000/svg" width="226" height="40" fill="none" viewBox="0 0 226 40"><rect width="226.001" height="40.001" fill="url(#a)" rx="8"/><rect width="223.858" height="37.858" x="1.071" y="1.071" stroke="#fff" stroke-opacity=".15" stroke-width="2.143" rx="6.929"/><g filter="url(#b)"><path fill="#f1f1f1" d="M26.798 27.013a3.07 3.07 0 0 1-1.905-.652c-.635-.52-1.143-1.301-1.143-2.213 0-.52.508-.52.508-.52H25.4c.38 0 .508.52.508.65.127 1.302.889 1.823 1.397 2.084.254.13.127.65-.508.65m-6.604-6.38-2.286-.26c-1.016-.39-1.016-1.302-.889-1.563.127-.911.508-1.822.89-2.604.634-.91 1.523-1.822 2.666-2.473 2.159-1.302 5.207-2.083 8.509-2.083 2.412 0 4.952.39 4.952.39.254 0 .381.26.381.521 0 .26-.127.52-.38.52H33.02c-3.429 0-5.841.522-7.62 1.563-1.777 1.042-3.047 2.604-3.809 4.817-.127.13-.38 1.302-1.397 1.172m2.92 9.504c-1.65 0-3.3-.781-4.444-2.083-1.016-1.172-1.65-2.343-1.778-3.776-.127-1.041.381-1.301.89-1.301l2.285.26c.508.13.89.39 1.016 1.041.508 3.255 2.413 4.557 3.683 4.948q.38 0 .38.39c0 .26-.126.39-.38.521zM18.289 33c-.889 0-1.778-.13-2.667-.26-1.396-.26-2.54-.651-3.555-1.432-2.413-1.562-3.81-4.427-4.064-7.681 0-.782-.127-2.344 1.65-2.214.763 0 1.906.39 2.795.651 1.016.26 1.524 1.172 1.524 1.953 0 4.687 4.063 7.812 5.841 7.812.762 0 .508.91.127.91-.508.261-1.27.261-1.65.261m-6.222-13.67c-.762-.13-1.397-.39-2.032-.65-2.032-.522-1.651-2.735-1.524-3.256 1.905-5.728 7.873-7.681 12.7-8.202 4.57-.52 9.27-.13 13.714 1.172.381.13 1.524.39.889 1.041-.38.391-2.032 0-2.413 0-2.54-.26-5.206-.26-7.746.13-2.794.391-5.588 1.303-7.747 3.255-1.27.912-3.175 4.167-3.175 4.557-.127.39-.635 2.214-2.666 1.953m11.556 1.042c.38-1.823 2.159-4.687 7.492-4.427 1.27 0 .635.912 0 .912-3.047-.13-4.444 1.952-5.206 3.905-.254.651-.762.781-1.524.651-.381-.13-.89-.13-.762-1.041"/></g><g filter="url(#c)"><path fill="#e8e8e8" d="M42.75 15.743v-1.606h9.569v1.606H48.46V26.5H46.6V15.743zM53.325 26.5v-9.273h1.745V18.7h.096q.254-.75.894-1.177.646-.435 1.46-.435a8 8 0 0 1 .768.042v1.727a3 3 0 0 0-.387-.067 4 4 0 0 0-.555-.042q-.64 0-1.141.272a2.02 2.02 0 0 0-1.075 1.817V26.5zm9.14.205a3.8 3.8 0 0 1-1.594-.326 2.7 2.7 0 0 1-1.129-.96q-.41-.628-.41-1.54 0-.784.302-1.291t.815-.803a4.3 4.3 0 0 1 1.147-.447q.633-.15 1.292-.23l1.352-.156q.52-.066.755-.212.235-.144.235-.47v-.043q0-.79-.447-1.225-.44-.435-1.316-.435-.91 0-1.436.405-.52.398-.719.887l-1.696-.386q.301-.845.881-1.365.586-.525 1.346-.76a5.3 5.3 0 0 1 1.6-.242q.556 0 1.177.133.629.128 1.171.47.55.345.9.985.35.634.35 1.648V26.5h-1.763v-1.268h-.072a2.6 2.6 0 0 1-.525.688 2.8 2.8 0 0 1-.9.562q-.55.222-1.316.223m.392-1.449q.75 0 1.28-.296.538-.295.815-.772.284-.483.284-1.033V21.96q-.097.097-.374.181a6 6 0 0 1-.622.139l-.682.103-.556.072q-.525.066-.96.223a1.65 1.65 0 0 0-.688.453q-.253.289-.253.773 0 .67.495 1.014.495.338 1.262.338m8.393-4.262V26.5h-1.805v-9.273h1.733v1.51h.115a2.65 2.65 0 0 1 1.002-1.184q.688-.447 1.732-.447.949 0 1.66.399.713.392 1.105 1.17.393.78.393 1.927V26.5H75.38v-5.68q0-1.008-.526-1.576-.524-.573-1.442-.573-.628 0-1.117.271a1.95 1.95 0 0 0-.767.797q-.278.52-.278 1.256m15.304-1.503-1.636.29a2 2 0 0 0-.326-.598 1.6 1.6 0 0 0-.592-.465q-.375-.18-.935-.181-.767 0-1.28.344-.513.338-.513.875 0 .465.344.749.345.284 1.11.465l1.474.338q1.28.296 1.907.912.628.615.628 1.6 0 .833-.483 1.484-.477.647-1.334 1.015-.852.368-1.974.368-1.558 0-2.542-.664-.984-.67-1.207-1.902l1.745-.265q.162.681.67 1.032.506.345 1.322.344.887 0 1.418-.368.532-.375.532-.912a.95.95 0 0 0-.326-.73q-.32-.296-.984-.447l-1.57-.344q-1.297-.296-1.92-.942-.615-.645-.615-1.636 0-.82.459-1.437.458-.615 1.267-.96.81-.35 1.854-.35 1.503 0 2.366.652.864.645 1.141 1.733m3.97-5.355v12.364H88.72V14.137zm5.128 12.569a3.8 3.8 0 0 1-1.594-.326 2.7 2.7 0 0 1-1.129-.96q-.41-.628-.41-1.54 0-.784.301-1.291.303-.507.815-.803a4.3 4.3 0 0 1 1.147-.447q.635-.15 1.292-.23l1.353-.156q.519-.066.754-.212.236-.144.236-.47v-.043q0-.79-.447-1.225-.441-.435-1.316-.435-.912 0-1.437.405-.52.398-.718.887l-1.697-.386q.302-.845.882-1.365.585-.525 1.346-.76a5.3 5.3 0 0 1 1.6-.242q.555 0 1.177.133.627.128 1.171.47.549.345.9.985.35.634.35 1.648v6.158h-1.763v-1.268h-.073a2.6 2.6 0 0 1-.525.688 2.8 2.8 0 0 1-.9.562q-.548.222-1.315.223m.392-1.449q.75 0 1.28-.296.537-.295.815-.772.284-.483.284-1.033v-1.195q-.097.097-.375.181a6 6 0 0 1-.621.139l-.683.103-.555.072q-.525.066-.96.223a1.65 1.65 0 0 0-.688.453q-.255.289-.254.773 0 .67.495 1.014.494.338 1.262.338m10.916-8.029v1.449h-5.065v-1.449zm-3.706-2.222h1.805v8.772q0 .526.157.79a.8.8 0 0 0 .404.357q.253.09.55.09.216 0 .38-.03l.253-.048.326 1.491q-.156.06-.446.121a3.5 3.5 0 0 1-.725.072 3.2 3.2 0 0 1-1.328-.253 2.3 2.3 0 0 1-.996-.821q-.38-.555-.38-1.395zm9.6 11.682q-1.371 0-2.361-.586a3.97 3.97 0 0 1-1.521-1.66q-.531-1.074-.531-2.517 0-1.425.531-2.512.537-1.087 1.497-1.696.966-.61 2.258-.61.785 0 1.521.26.736.259 1.323.815.585.555.923 1.443.338.881.338 2.143v.64h-7.371v-1.353h5.602q0-.712-.289-1.261a2.2 2.2 0 0 0-.815-.876q-.52-.32-1.22-.32-.76 0-1.328.375a2.5 2.5 0 0 0-.869.966 2.8 2.8 0 0 0-.302 1.285v1.057q0 .93.326 1.582.331.651.924.996.591.338 1.382.338.513 0 .936-.145.422-.15.73-.447.307-.295.471-.73l1.709.308a3.1 3.1 0 0 1-.737 1.322 3.6 3.6 0 0 1-1.322.875q-.79.308-1.805.308m14.386 0q-1.304 0-2.276-.598a4.03 4.03 0 0 1-1.509-1.672q-.538-1.074-.538-2.511 0-1.443.538-2.524a4 4 0 0 1 1.509-1.678q.972-.597 2.276-.598 1.304 0 2.276.598a4 4 0 0 1 1.509 1.678q.537 1.08.537 2.524 0 1.436-.537 2.511a4.03 4.03 0 0 1-1.509 1.672q-.972.598-2.276.598m.006-1.515q.845 0 1.401-.447.555-.447.821-1.19.271-.742.271-1.635 0-.888-.271-1.63-.266-.75-.821-1.202-.556-.453-1.401-.453-.851 0-1.413.453-.555.453-.827 1.202a4.8 4.8 0 0 0-.265 1.63q0 .892.265 1.636.272.742.827 1.189.562.447 1.413.447m8.136-4.178v5.506h-1.805v-9.273h1.733v1.51h.114a2.66 2.66 0 0 1 1.003-1.184q.688-.447 1.732-.447.948 0 1.66.399.713.392 1.105 1.17.393.78.393 1.927V26.5h-1.806v-5.68q0-1.008-.525-1.576-.525-.573-1.443-.573-.627 0-1.116.271a1.95 1.95 0 0 0-.767.797q-.278.52-.278 1.256"/><path fill="#f1f1f1" d="M159.16 18.617h-3.019q-.06-.465-.247-.84a2.1 2.1 0 0 0-.495-.64 2.1 2.1 0 0 0-.731-.404 2.8 2.8 0 0 0-.923-.145q-.9 0-1.552.44-.645.443-.996 1.274-.344.834-.344 2.017 0 1.231.35 2.065.357.825.996 1.25.646.416 1.528.416.495 0 .899-.127.41-.127.719-.368.314-.248.513-.598a2.5 2.5 0 0 0 .283-.803l3.019.018a4.6 4.6 0 0 1-.477 1.618 5.2 5.2 0 0 1-1.081 1.455 5.1 5.1 0 0 1-1.678 1.038q-.984.387-2.258.387-1.678 0-3.006-.737-1.323-.742-2.089-2.161-.767-1.419-.767-3.453 0-2.04.779-3.46.779-1.418 2.107-2.155t2.976-.736q1.123 0 2.077.314a5 5 0 0 1 1.678.906q.725.591 1.177 1.454.453.864.562 1.974m1.71 7.884v-9.273h2.867v1.69h.097q.254-.917.827-1.364a2.1 2.1 0 0 1 1.334-.453q.205 0 .423.03.217.025.404.079v2.566a3 3 0 0 0-.555-.115 5 5 0 0 0-.604-.042q-.525 0-.948.235a1.7 1.7 0 0 0-.658.646 1.9 1.9 0 0 0-.235.966V26.5zm11.002.175q-1.461 0-2.511-.598a4.1 4.1 0 0 1-1.612-1.678q-.562-1.08-.562-2.505 0-1.431.562-2.506a4.07 4.07 0 0 1 1.612-1.678q1.05-.603 2.511-.604 1.461 0 2.505.604a4 4 0 0 1 1.612 1.678q.568 1.075.568 2.506 0 1.424-.568 2.505a4.07 4.07 0 0 1-1.612 1.678q-1.044.598-2.505.598m.018-2.228q.531 0 .9-.326.368-.326.561-.905.2-.58.199-1.34 0-.773-.199-1.353-.193-.58-.561-.905a1.3 1.3 0 0 0-.9-.326q-.55 0-.929.326-.375.326-.574.905-.193.58-.193 1.352 0 .762.193 1.34.2.58.574.906.38.326.929.326m7.712 2.053-2.414-9.273h2.964l1.249 5.94h.079l1.34-5.94h2.892l1.376 5.898h.079l1.213-5.898h2.964l-2.421 9.273h-3.157l-1.449-5.403h-.102l-1.449 5.403zm16.114.133a3.4 3.4 0 0 1-1.865-.532q-.839-.531-1.34-1.593-.501-1.063-.501-2.639 0-1.636.519-2.692.52-1.056 1.358-1.564a3.47 3.47 0 0 1 1.817-.507q.73 0 1.25.254.52.247.857.64.339.392.513.815h.061v-4.679h2.952V26.5h-2.922v-1.504h-.091a2.9 2.9 0 0 1-.531.803q-.344.375-.863.604-.513.23-1.214.23m1.027-2.3q.537 0 .917-.302.38-.308.586-.864.205-.555.205-1.304 0-.76-.205-1.31-.2-.55-.586-.845a1.45 1.45 0 0 0-.917-.296q-.549 0-.93.302-.38.302-.579.851-.194.55-.194 1.298 0 .75.2 1.304.199.555.573.864.381.3.93.301m6.461 2.167v-9.273h2.952v9.273zm1.479-10.354q-.622 0-1.069-.41a1.32 1.32 0 0 1-.446-1.002q0-.58.446-.99a1.5 1.5 0 0 1 1.069-.417q.628 0 1.068.417.447.41.447.99 0 .585-.447 1.002a1.5 1.5 0 0 1-1.068.41m6.304 5.065v5.289h-2.952v-9.273h2.807v1.702h.103a2.6 2.6 0 0 1 1.05-1.334q.743-.489 1.769-.489.978 0 1.696.44.724.435 1.123 1.22.405.78.399 1.823v5.91h-2.953v-5.33q.007-.773-.392-1.207-.393-.435-1.093-.435-.464 0-.821.205a1.36 1.36 0 0 0-.543.574q-.187.375-.193.905"/></g><defs><filter id="b" width="39.203" height="39.202" x="2.4" y=".4" color-interpolation-filters="sRGB" filterUnits="userSpaceOnUse"><feFlood flood-opacity="0" result="BackgroundImageFix"/><feColorMatrix in="SourceAlpha" result="hardAlpha" values="0 0 0 0 0 0 0 0 0 0 0 0 0 0 0 0 0 0 127 0"/><feOffset/><feGaussianBlur stdDeviation="2.8"/><feComposite in2="hardAlpha" operator="out"/><feColorMatrix values="0 0 0 0 0 0 0 0 0 0 0 0 0 0 0 0 0 0 0.25 0"/><feBlend in2="BackgroundImageFix" result="effect1_dropShadow_16_30"/><feBlend in="SourceGraphic" in2="effect1_dropShadow_16_30" result="shape"/></filter><filter id="c" width="187.429" height="32.429" x="36.287" y="3.786" color-interpolation-filters="sRGB" filterUnits="userSpaceOnUse"><feFlood flood-opacity="0" result="BackgroundImageFix"/><feColorMatrix in="SourceAlpha" result="hardAlpha" values="0 0 0 0 0 0 0 0 0 0 0 0 0 0 0 0 0 0 127 0"/><feOffset/><feGaussianBlur stdDeviation="2.857"/><feComposite in2="hardAlpha" operator="out"/><feColorMatrix values="0 0 0 0 0 0 0 0 0 0 0 0 0 0 0 0 0 0 0.25 0"/><feBlend in2="BackgroundImageFix" result="effect1_dropShadow_16_30"/><feBlend in="SourceGraphic" in2="effect1_dropShadow_16_30" result="shape"/></filter><linearGradient id="a" x1="113.001" x2="113.001" y1="0" y2="40.001" gradientUnits="userSpaceOnUse"><stop stop-color="#273227"/><stop offset="1" stop-color="#181f18"/></linearGradient></defs></svg>