<svg xmlns="http://www.w3.org/2000/svg" width="196" height="40" fill="none" viewBox="0 0 196 40"><g clip-path="url(#a)"><rect width="196.001" height="40.001" fill="url(#b)" rx="8"/><g stroke="#f1f1f1" stroke-linecap="round" stroke-linejoin="round" stroke-width="2.8" filter="url(#c)"><path d="M22.002 33.001c7.18 0 13-5.82 13-13S29.182 7 22.002 7 9 12.82 9 20s5.82 13.001 13 13.001M9.001 20h26.001"/><path d="M22.002 7a19.9 19.9 0 0 1 5.2 13 19.9 19.9 0 0 1-5.2 13.001 19.9 19.9 0 0 1-5.2-13c.1-4.82 1.948-9.44 5.2-13.001"/></g><g filter="url(#d)"><path fill="#e8e8e8" d="M43.36 26.5V14.138h1.865v5.373h6.164v-5.373h1.871v12.364h-1.87V21.11h-6.164v5.39zm16.469.188q-1.37 0-2.36-.586a3.97 3.97 0 0 1-1.522-1.66q-.532-1.074-.532-2.517 0-1.425.532-2.512.537-1.087 1.497-1.696.966-.61 2.258-.61.785 0 1.521.26.737.259 1.322.815t.924 1.443q.338.881.338 2.143v.64h-7.371v-1.353h5.602q0-.712-.29-1.261a2.2 2.2 0 0 0-.815-.876q-.518-.32-1.22-.32-.76 0-1.327.375a2.5 2.5 0 0 0-.87.966 2.8 2.8 0 0 0-.301 1.285v1.057q0 .93.325 1.582.333.651.924.996.592.338 1.383.338.513 0 .935-.145.423-.15.73-.447a1.94 1.94 0 0 0 .472-.73l1.708.308a3.1 3.1 0 0 1-.736 1.322 3.6 3.6 0 0 1-1.322.875q-.792.308-1.806.308m7.786-12.55V26.5H65.81V14.137zm2.428 15.84v-12.75h1.763v1.503h.15q.158-.29.453-.67t.822-.664q.525-.29 1.388-.29 1.124 0 2.004.568.882.567 1.383 1.636.507 1.069.507 2.571 0 1.504-.501 2.578-.501 1.07-1.377 1.648-.875.574-1.998.574-.845 0-1.382-.284a2.6 2.6 0 0 1-.833-.664 5 5 0 0 1-.465-.676h-.109v4.92zm1.769-8.114q0 .978.284 1.715.283.736.82 1.153.538.41 1.317.41.809 0 1.352-.428.543-.435.82-1.177.285-.743.285-1.673a4.6 4.6 0 0 0-.278-1.648q-.272-.73-.821-1.153-.543-.422-1.358-.422-.785 0-1.329.404-.537.405-.814 1.129-.279.724-.278 1.69m19.096.791v-5.427h1.811v9.273h-1.775v-1.606h-.096a2.9 2.9 0 0 1-1.026 1.237q-.7.49-1.745.49-.894 0-1.582-.393-.682-.399-1.074-1.177-.387-.78-.387-1.926v-5.898h1.805v5.68q0 .95.526 1.51.525.561 1.364.561.507 0 1.008-.253.507-.255.84-.767.337-.513.331-1.304m11.185-3.163-1.636.29a1.9 1.9 0 0 0-.326-.598 1.6 1.6 0 0 0-.592-.465q-.374-.18-.935-.181-.767 0-1.28.344-.513.338-.513.875 0 .465.344.749.345.284 1.11.465l1.474.338q1.28.296 1.907.912.628.615.628 1.6a2.43 2.43 0 0 1-.483 1.484q-.477.647-1.334 1.015-.85.368-1.974.368-1.557 0-2.542-.664-.984-.67-1.207-1.902l1.745-.265q.162.681.67 1.032.507.345 1.322.344.886 0 1.419-.368.531-.375.531-.912a.95.95 0 0 0-.326-.73q-.32-.296-.984-.447l-1.57-.344q-1.297-.296-1.92-.942-.615-.645-.615-1.636 0-.82.459-1.437.458-.615 1.267-.96.81-.35 1.854-.35 1.503 0 2.366.652.864.645 1.141 1.733"/><path fill="#f1f1f1" d="M108.533 16.564v-2.427h10.45v2.427h-3.749V26.5h-2.946v-9.937zm10.946 9.937v-9.273h2.868v1.69h.096q.254-.917.827-1.364a2.1 2.1 0 0 1 1.335-.453q.204 0 .422.03.217.025.405.079v2.566a3 3 0 0 0-.556-.115 5 5 0 0 0-.603-.042q-.526 0-.948.235a1.7 1.7 0 0 0-.658.646 1.9 1.9 0 0 0-.236.966V26.5zm9.421.157q-.888 0-1.576-.296a2.45 2.45 0 0 1-1.08-.906q-.393-.609-.393-1.527 0-.773.272-1.304.271-.531.748-.863a3.5 3.5 0 0 1 1.099-.501 7 7 0 0 1 1.328-.236q.79-.072 1.274-.15.483-.086.7-.236a.51.51 0 0 0 .224-.44v-.031q0-.465-.32-.718-.32-.255-.864-.254-.585 0-.941.254a1.1 1.1 0 0 0-.453.7l-2.723-.097a3.2 3.2 0 0 1 .622-1.509q.507-.67 1.389-1.05.887-.387 2.131-.387.887 0 1.636.212.748.205 1.304.603.555.393.857.966.308.574.308 1.31v6.303h-2.777v-1.292h-.073q-.247.471-.634.797-.38.325-.899.489a3.8 3.8 0 0 1-1.159.163m.911-1.932q.477 0 .858-.193.386-.194.615-.532.23-.344.23-.797v-.88a2 2 0 0 1-.308.12q-.176.054-.386.103-.212.048-.435.084l-.429.066a2.7 2.7 0 0 0-.712.206 1.13 1.13 0 0 0-.447.362.9.9 0 0 0-.151.52q0 .457.326.7.333.24.839.24m9.388-3.514V26.5h-2.952v-9.273h2.807v1.702h.103a2.6 2.6 0 0 1 1.05-1.334q.743-.489 1.769-.489.978 0 1.696.44.724.435 1.123 1.22.405.78.398 1.823v5.91h-2.952v-5.33q.006-.773-.392-1.207-.393-.435-1.093-.435-.465 0-.821.205a1.36 1.36 0 0 0-.543.574q-.187.375-.193.905m15.918-1.153-2.711.073a1 1 0 0 0-.229-.513 1.24 1.24 0 0 0-.489-.357 1.7 1.7 0 0 0-.689-.132q-.513 0-.875.205-.356.205-.35.555a.6.6 0 0 0 .217.471q.23.2.815.32l1.787.338q1.389.265 2.065.882.682.615.688 1.63-.006.953-.567 1.66-.556.706-1.522 1.098-.966.387-2.209.387-1.986 0-3.133-.815-1.142-.822-1.304-2.198l2.915-.072q.097.506.502.773.403.265 1.032.265.567 0 .924-.211.356-.21.362-.561a.6.6 0 0 0-.278-.502q-.272-.192-.851-.301l-1.618-.308q-1.395-.254-2.077-.936-.682-.688-.676-1.75-.006-.93.495-1.588.501-.664 1.425-1.015t2.179-.35q1.884 0 2.97.791 1.087.785 1.202 2.161m4.635-5.922V26.5h-2.953V14.137zm4.493 12.52q-.888 0-1.576-.295a2.46 2.46 0 0 1-1.081-.906q-.392-.609-.392-1.527 0-.773.272-1.304.271-.531.748-.863a3.5 3.5 0 0 1 1.099-.501 7 7 0 0 1 1.328-.236q.79-.072 1.274-.15.483-.086.7-.236a.51.51 0 0 0 .223-.44v-.031q0-.465-.32-.718-.32-.255-.863-.254-.585 0-.942.254a1.12 1.12 0 0 0-.452.7l-2.723-.097q.12-.844.622-1.509.507-.67 1.388-1.05.888-.387 2.131-.387.888 0 1.636.212.749.205 1.304.603.556.393.858.966.307.574.307 1.31V26.5h-2.777v-1.292h-.072q-.247.471-.634.797-.38.325-.899.489a3.8 3.8 0 0 1-1.159.163m.911-1.931q.477 0 .857-.193.387-.194.616-.532.23-.344.23-.797v-.88a2 2 0 0 1-.308.12q-.175.054-.387.103-.211.048-.434.084l-.429.066a2.7 2.7 0 0 0-.712.206 1.1 1.1 0 0 0-.447.362.9.9 0 0 0-.151.52q0 .457.326.7.332.24.839.24m11.669-7.498V19.4h-5.849v-2.173zm-4.624-2.222h2.952v8.579q0 .272.085.44.09.165.259.236.17.066.405.066.169 0 .356-.03.193-.036.29-.06l.447 2.13q-.212.061-.598.152-.381.09-.912.115-1.038.048-1.781-.242a2.3 2.3 0 0 1-1.129-.918q-.386-.621-.374-1.563zm10.366 11.67q-1.455 0-2.512-.574a3.97 3.97 0 0 1-1.618-1.648q-.561-1.074-.561-2.553 0-1.437.567-2.512.568-1.08 1.6-1.678 1.032-.603 2.433-.604.99 0 1.811.308.82.308 1.419.912.597.604.929 1.49.333.882.333 2.023v.737h-8.06v-1.715h5.313a1.66 1.66 0 0 0-.224-.839 1.5 1.5 0 0 0-.597-.573 1.73 1.73 0 0 0-.864-.212q-.495 0-.887.224a1.68 1.68 0 0 0-.863 1.449v1.744q0 .567.223.996.223.423.634.658t.978.236q.393 0 .712-.109a1.5 1.5 0 0 0 .55-.32q.229-.21.344-.52l2.71.08a3.35 3.35 0 0 1-.742 1.587q-.568.67-1.491 1.044-.924.369-2.137.369"/></g></g><rect width="193.858" height="37.858" x="1.071" y="1.071" stroke="#fff" stroke-opacity=".15" stroke-width="2.143" rx="6.929"/><defs><filter id="c" width="40.002" height="40.002" x="2.001" y="0" color-interpolation-filters="sRGB" filterUnits="userSpaceOnUse"><feFlood flood-opacity="0" result="BackgroundImageFix"/><feColorMatrix in="SourceAlpha" result="hardAlpha" values="0 0 0 0 0 0 0 0 0 0 0 0 0 0 0 0 0 0 127 0"/><feOffset/><feGaussianBlur stdDeviation="2.8"/><feComposite in2="hardAlpha" operator="out"/><feColorMatrix values="0 0 0 0 0 0 0 0 0 0 0 0 0 0 0 0 0 0 0.25 0"/><feBlend in2="BackgroundImageFix" result="effect1_dropShadow_16_12"/><feBlend in="SourceGraphic" in2="effect1_dropShadow_16_12" result="shape"/></filter><filter id="d" width="157.429" height="32.429" x="36.287" y="3.786" color-interpolation-filters="sRGB" filterUnits="userSpaceOnUse"><feFlood flood-opacity="0" result="BackgroundImageFix"/><feColorMatrix in="SourceAlpha" result="hardAlpha" values="0 0 0 0 0 0 0 0 0 0 0 0 0 0 0 0 0 0 127 0"/><feOffset/><feGaussianBlur stdDeviation="2.857"/><feComposite in2="hardAlpha" operator="out"/><feColorMatrix values="0 0 0 0 0 0 0 0 0 0 0 0 0 0 0 0 0 0 0.25 0"/><feBlend in2="BackgroundImageFix" result="effect1_dropShadow_16_12"/><feBlend in="SourceGraphic" in2="effect1_dropShadow_16_12" result="shape"/></filter><linearGradient id="b" x1="98.001" x2="98.001" y1="0" y2="40.001" gradientUnits="userSpaceOnUse"><stop stop-color="#303030"/><stop offset="1" stop-color="#1d1d1d"/></linearGradient><clipPath id="a"><rect width="196.001" height="40.001" fill="#fff" rx="8"/></clipPath></defs></svg>