<svg xmlns="http://www.w3.org/2000/svg" width="225" height="40" fill="none" viewBox="0 0 225 40"><rect width="225.001" height="40.001" fill="url(#a)" rx="8"/><rect width="222.858" height="37.858" x="1.071" y="1.071" stroke="#fff" stroke-opacity=".15" stroke-width="2.143" rx="6.929"/><g filter="url(#b)"><path fill="url(#c)" d="M25.94 25.168a3.1 3.1 0 0 1-1.199-.243c-.864-.364-1.625-1.05-2.244-1.977q.265-.455.478-.935c.623-1.397.92-2.927.942-4.445l-.008-.09-.002-.079a5 5 0 0 0-.308-1.76c-.244-.648-.634-1.295-1.253-1.548a.9.9 0 0 0-.349-.062c-.778-1.404-.803-2.748 0-4.029h.044a5.3 5.3 0 0 1 2.69.785c2.187 1.341 3.278 3.955 3.302 6.522l-.001.09h.012c-.003 2.712-.68 5.463-2.103 7.771m-4.85 4.257a8.38 8.38 0 0 1-6.44-.14c-2.33-1.043-4.11-3.07-5.207-5.384-1.875-3.958-1.918-8.69-.14-12.708 1.336.515 2.524-.306 2.524-.306s-.003 1.263 1.265 1.897c-1.301 2.94-1.27 6.432.034 9.297.628 1.379 1.587 2.663 2.916 3.388.474.26.995.427 1.532.49l.006.009c.947 1.425 2.14 2.612 3.51 3.457"/><path fill="url(#d)" fill-rule="evenodd" d="M25.94 25.169a3.1 3.1 0 0 1-1.199-.244c-.864-.363-1.625-1.049-2.245-1.977a10 10 0 0 0 .478-.935q.281-.632.476-1.296c.301-1.022 4.296.276 3.687 1.96-.314.87-.713 1.706-1.197 2.492m-4.851 4.257a8.38 8.38 0 0 1-6.44-.14c-2.33-1.044.063-4.542 1.392-3.817.474.26.995.427 1.531.49l.007.01c.947 1.424 2.14 2.612 3.51 3.457" clip-rule="evenodd" opacity=".3"/><path fill="url(#e)" d="M15.973 17.397v-.09c.023-2.567 1.114-5.18 3.301-6.522A5.3 5.3 0 0 1 22.008 10v4.029a.9.9 0 0 0-.349.062c-.619.253-1.009.9-1.253 1.548a5 5 0 0 0-.308 1.76l-.002.078-.008.09c.023 1.52.32 3.049.942 4.446.698 1.565 1.807 3.004 3.372 3.662 1.181.496 2.49.38 3.561-.206 1.33-.726 2.288-2.01 2.916-3.388 1.304-2.864 1.335-6.357.034-9.297 1.268-.634 1.265-1.897 1.265-1.897s1.188.821 2.524.306c1.778 4.018 1.736 8.75-.14 12.708-1.096 2.314-2.876 4.342-5.206 5.384a8.37 8.37 0 0 1-6.589.08c-1.865-.784-3.382-2.196-4.473-3.84-1.581-2.378-2.33-5.274-2.333-8.128z"/></g><g filter="url(#f)"><path fill="#e8e8e8" d="M42.75 15.743v-1.606h9.569v1.606H48.46V26.5H46.6V15.743zM53.325 26.5v-9.273h1.745V18.7h.096q.254-.75.894-1.177.646-.435 1.46-.435a8 8 0 0 1 .768.042v1.727a3 3 0 0 0-.387-.067 4 4 0 0 0-.555-.042q-.64 0-1.141.272a2.02 2.02 0 0 0-1.075 1.817V26.5zm9.14.205a3.8 3.8 0 0 1-1.594-.326 2.7 2.7 0 0 1-1.129-.96q-.41-.628-.41-1.54 0-.784.302-1.291t.815-.803a4.3 4.3 0 0 1 1.147-.447q.633-.15 1.292-.23l1.352-.156q.52-.066.755-.212.235-.144.235-.47v-.043q0-.79-.447-1.225-.44-.435-1.316-.435-.91 0-1.436.405-.52.398-.719.887l-1.696-.386q.301-.845.881-1.365.586-.525 1.346-.76a5.3 5.3 0 0 1 1.6-.242q.556 0 1.177.133.629.128 1.171.47.55.345.9.985.35.634.35 1.648V26.5h-1.763v-1.268h-.072a2.6 2.6 0 0 1-.525.688 2.8 2.8 0 0 1-.9.562q-.55.222-1.316.223m.392-1.449q.75 0 1.28-.296.538-.295.815-.772.284-.483.284-1.033V21.96q-.097.097-.374.181a6 6 0 0 1-.622.139l-.682.103-.556.072q-.525.066-.96.223a1.65 1.65 0 0 0-.688.453q-.253.289-.253.773 0 .67.495 1.014.495.338 1.262.338m8.393-4.262V26.5h-1.805v-9.273h1.733v1.51h.115a2.65 2.65 0 0 1 1.002-1.184q.688-.447 1.732-.447.949 0 1.66.399.713.392 1.105 1.17.393.78.393 1.927V26.5H75.38v-5.68q0-1.008-.526-1.576-.524-.573-1.442-.573-.628 0-1.117.271a1.95 1.95 0 0 0-.767.797q-.278.52-.278 1.256m15.304-1.503-1.636.29a2 2 0 0 0-.326-.598 1.6 1.6 0 0 0-.592-.465q-.375-.18-.935-.181-.767 0-1.28.344-.513.338-.513.875 0 .465.344.749.345.284 1.11.465l1.474.338q1.28.296 1.907.912.628.615.628 1.6 0 .833-.483 1.484-.477.647-1.334 1.015-.852.368-1.974.368-1.558 0-2.542-.664-.984-.67-1.207-1.902l1.745-.265q.162.681.67 1.032.506.345 1.322.344.887 0 1.418-.368.532-.375.532-.912a.95.95 0 0 0-.326-.73q-.32-.296-.984-.447l-1.57-.344q-1.297-.296-1.92-.942-.615-.645-.615-1.636 0-.82.459-1.437.458-.615 1.267-.96.81-.35 1.854-.35 1.503 0 2.366.652.864.645 1.141 1.733m3.97-5.355v12.364H88.72V14.137zm5.128 12.569a3.8 3.8 0 0 1-1.594-.326 2.7 2.7 0 0 1-1.129-.96q-.41-.628-.41-1.54 0-.784.301-1.291.303-.507.815-.803a4.3 4.3 0 0 1 1.147-.447q.635-.15 1.292-.23l1.353-.156q.519-.066.754-.212.236-.144.236-.47v-.043q0-.79-.447-1.225-.441-.435-1.316-.435-.912 0-1.437.405-.52.398-.718.887l-1.697-.386q.302-.845.882-1.365.585-.525 1.346-.76a5.3 5.3 0 0 1 1.6-.242q.555 0 1.177.133.627.128 1.171.47.549.345.9.985.35.634.35 1.648v6.158h-1.763v-1.268h-.073a2.6 2.6 0 0 1-.525.688 2.8 2.8 0 0 1-.9.562q-.548.222-1.315.223m.392-1.449q.75 0 1.28-.296.537-.295.815-.772.284-.483.284-1.033v-1.195q-.097.097-.375.181a6 6 0 0 1-.621.139l-.683.103-.555.072q-.525.066-.96.223a1.65 1.65 0 0 0-.688.453q-.255.289-.254.773 0 .67.495 1.014.494.338 1.262.338m10.916-8.029v1.449h-5.065v-1.449zm-3.706-2.222h1.805v8.772q0 .526.157.79a.8.8 0 0 0 .404.357q.253.09.55.09.216 0 .38-.03l.253-.048.326 1.491q-.156.06-.446.121a3.5 3.5 0 0 1-.725.072 3.2 3.2 0 0 1-1.328-.253 2.3 2.3 0 0 1-.996-.821q-.38-.555-.38-1.395zm9.6 11.682q-1.371 0-2.361-.586a3.97 3.97 0 0 1-1.521-1.66q-.531-1.074-.531-2.517 0-1.425.531-2.512.537-1.087 1.497-1.696.966-.61 2.258-.61.785 0 1.521.26.736.259 1.323.815.585.555.923 1.443.338.881.338 2.143v.64h-7.371v-1.353h5.602q0-.712-.289-1.261a2.2 2.2 0 0 0-.815-.876q-.52-.32-1.22-.32-.76 0-1.328.375a2.5 2.5 0 0 0-.869.966 2.8 2.8 0 0 0-.302 1.285v1.057q0 .93.326 1.582.331.651.924.996.591.338 1.382.338.513 0 .936-.145.422-.15.73-.447.307-.295.471-.73l1.709.308a3.1 3.1 0 0 1-.737 1.322 3.6 3.6 0 0 1-1.322.875q-.79.308-1.805.308m14.386 0q-1.304 0-2.276-.598a4.03 4.03 0 0 1-1.509-1.672q-.538-1.074-.538-2.511 0-1.443.538-2.524a4 4 0 0 1 1.509-1.678q.972-.597 2.276-.598 1.304 0 2.276.598a4 4 0 0 1 1.509 1.678q.537 1.08.537 2.524 0 1.436-.537 2.511a4.03 4.03 0 0 1-1.509 1.672q-.972.598-2.276.598m.006-1.515q.845 0 1.401-.447.555-.447.821-1.19.271-.742.271-1.635 0-.888-.271-1.63-.266-.75-.821-1.202-.556-.453-1.401-.453-.851 0-1.413.453-.555.453-.827 1.202a4.8 4.8 0 0 0-.265 1.63q0 .892.265 1.636.272.742.827 1.189.562.447 1.413.447m8.136-4.178v5.506h-1.805v-9.273h1.733v1.51h.114a2.66 2.66 0 0 1 1.003-1.184q.688-.447 1.732-.447.948 0 1.66.399.713.392 1.105 1.17.393.78.393 1.927V26.5h-1.806v-5.68q0-1.008-.525-1.576-.525-.573-1.443-.573-.627 0-1.116.271a1.95 1.95 0 0 0-.767.797q-.278.52-.278 1.256"/><path fill="url(#g)" d="m150.901 26.5-3.598-12.363h3.303l1.865 8.102h.103l2.131-8.102h2.692l2.131 8.12h.103l1.871-8.12h3.296l-3.592 12.364h-2.879l-2.228-7.498h-.096l-2.228 7.498zm18.437.176q-1.455 0-2.511-.574a3.96 3.96 0 0 1-1.618-1.648q-.562-1.074-.562-2.553 0-1.437.568-2.512.567-1.08 1.6-1.678 1.032-.603 2.433-.604.99 0 1.811.308a3.9 3.9 0 0 1 1.418.912q.599.604.93 1.49.332.882.332 2.023v.737h-8.059v-1.715h5.312a1.66 1.66 0 0 0-.223-.839 1.5 1.5 0 0 0-.598-.573 1.7 1.7 0 0 0-.863-.212q-.495 0-.888.224a1.68 1.68 0 0 0-.863 1.449v1.744q0 .567.224.996.223.423.633.658t.978.236q.392 0 .713-.109.32-.108.549-.32.23-.21.344-.52l2.711.08a3.35 3.35 0 0 1-.743 1.587q-.567.67-1.491 1.044-.924.369-2.137.369m5.909-.175V14.137h2.952v4.679h.06q.181-.423.513-.815.338-.393.858-.64.525-.255 1.255-.254.966 0 1.805.507.846.508 1.365 1.564t.519 2.692q0 1.575-.501 2.639-.495 1.063-1.34 1.593a3.4 3.4 0 0 1-1.866.532q-.7 0-1.213-.23a2.7 2.7 0 0 1-.864-.604 2.9 2.9 0 0 1-.531-.803h-.09v1.504zm2.891-4.637q0 .75.2 1.304.205.555.585.864.387.3.924.301.543 0 .924-.301.38-.308.573-.864.2-.555.199-1.304 0-.748-.199-1.298-.193-.55-.573-.85-.375-.303-.924-.303-.543 0-.924.296-.38.297-.585.845-.2.55-.2 1.31m10.935-7.727v12.364h-2.952V14.137zm4.493 12.52q-.888 0-1.576-.295a2.45 2.45 0 0 1-1.08-.906q-.393-.609-.393-1.527 0-.773.272-1.304.271-.531.748-.863a3.5 3.5 0 0 1 1.099-.501 7 7 0 0 1 1.328-.236q.79-.072 1.274-.15.483-.086.7-.236a.51.51 0 0 0 .224-.44v-.031q0-.465-.32-.718-.32-.255-.864-.254-.585 0-.941.254a1.1 1.1 0 0 0-.453.7l-2.723-.097a3.2 3.2 0 0 1 .622-1.509q.507-.67 1.389-1.05.887-.387 2.131-.387.887 0 1.636.212.748.205 1.304.603.555.393.857.966.308.574.308 1.31v6.303h-2.777v-1.292h-.073q-.247.471-.634.797-.38.325-.899.489a3.8 3.8 0 0 1-1.159.163m.911-1.931q.477 0 .858-.193.385-.194.615-.532.23-.344.23-.797v-.88a2 2 0 0 1-.308.12q-.176.054-.386.103-.212.048-.435.084l-.429.066a2.7 2.7 0 0 0-.712.206 1.13 1.13 0 0 0-.447.362.9.9 0 0 0-.151.52q0 .457.326.7.333.24.839.24m11.67-7.498v2.173h-5.85v-2.173zm-4.625-2.222h2.953v8.579q0 .272.084.44.09.165.26.236a1.1 1.1 0 0 0 .404.066q.17 0 .356-.03.194-.036.29-.06l.447 2.13q-.211.061-.598.152-.38.09-.911.115-1.039.048-1.781-.242a2.3 2.3 0 0 1-1.129-.918q-.387-.621-.375-1.563zm10.366 11.67q-1.455 0-2.511-.574a3.96 3.96 0 0 1-1.618-1.648q-.562-1.074-.562-2.553 0-1.437.568-2.512.567-1.08 1.599-1.678 1.033-.603 2.433-.604.99 0 1.811.308.822.308 1.419.912t.93 1.49q.332.882.332 2.023v.737h-8.059v-1.715h5.312a1.66 1.66 0 0 0-.223-.839 1.5 1.5 0 0 0-.598-.573 1.7 1.7 0 0 0-.863-.212q-.495 0-.888.224a1.65 1.65 0 0 0-.622.597q-.228.375-.241.851v1.745q0 .567.223.996.224.423.634.658t.978.236q.393 0 .713-.109.32-.108.549-.32.23-.21.344-.52l2.711.08a3.36 3.36 0 0 1-.743 1.587q-.567.67-1.491 1.044-.924.369-2.137.369"/></g><defs><linearGradient id="a" x1="112.501" x2="112.501" y1="0" y2="40.001" gradientUnits="userSpaceOnUse"><stop stop-color="#1a2c32"/><stop offset="1" stop-color="#0e1c0f"/></linearGradient><linearGradient id="c" x1="8.002" x2="21.683" y1="17.612" y2="17.612" gradientUnits="userSpaceOnUse"><stop stop-color="#00d2e6"/><stop offset="1" stop-color="#2eccaa"/></linearGradient><linearGradient id="d" x1="16.008" x2="23.111" y1="26.116" y2="21.422" gradientUnits="userSpaceOnUse"><stop stop-opacity="0"/><stop offset=".514"/><stop offset="1" stop-opacity="0"/></linearGradient><linearGradient id="e" x1="36.003" x2="22.345" y1="17.944" y2="17.944" gradientUnits="userSpaceOnUse"><stop stop-color="#1fa385"/><stop offset="1" stop-color="#2eccaa"/></linearGradient><linearGradient id="g" x1="147.002" x2="217.002" y1="19.193" y2="19.193" gradientUnits="userSpaceOnUse"><stop stop-color="#00d2e6"/><stop offset="1" stop-color="#2eccaa"/></linearGradient><filter id="b" width="39.203" height="39.202" x="2.4" y=".4" color-interpolation-filters="sRGB" filterUnits="userSpaceOnUse"><feFlood flood-opacity="0" result="BackgroundImageFix"/><feColorMatrix in="SourceAlpha" result="hardAlpha" values="0 0 0 0 0 0 0 0 0 0 0 0 0 0 0 0 0 0 127 0"/><feOffset/><feGaussianBlur stdDeviation="2.8"/><feComposite in2="hardAlpha" operator="out"/><feColorMatrix values="0 0 0 0 0 0 0 0 0 0 0 0 0 0 0 0 0 0 0.25 0"/><feBlend in2="BackgroundImageFix" result="effect1_dropShadow_16_21"/><feBlend in="SourceGraphic" in2="effect1_dropShadow_16_21" result="shape"/></filter><filter id="f" width="186.429" height="32.429" x="36.287" y="3.786" color-interpolation-filters="sRGB" filterUnits="userSpaceOnUse"><feFlood flood-opacity="0" result="BackgroundImageFix"/><feColorMatrix in="SourceAlpha" result="hardAlpha" values="0 0 0 0 0 0 0 0 0 0 0 0 0 0 0 0 0 0 127 0"/><feOffset/><feGaussianBlur stdDeviation="2.857"/><feComposite in2="hardAlpha" operator="out"/><feColorMatrix values="0 0 0 0 0 0 0 0 0 0 0 0 0 0 0 0 0 0 0.25 0"/><feBlend in2="BackgroundImageFix" result="effect1_dropShadow_16_21"/><feBlend in="SourceGraphic" in2="effect1_dropShadow_16_21" result="shape"/></filter></defs></svg>