<svg xmlns="http://www.w3.org/2000/svg" width="223" height="40" fill="none" viewBox="0 0 223 40"><g clip-path="url(#a)"><rect width="223.001" height="40.001" fill="url(#b)" rx="8"/><g filter="url(#c)"><path fill="#353535" d="M15.57 6v2.289H11.5v2.019H9.4v2.289h2.1v2.019h2.1v2.154h4.2v2.154h8.401V16.77h4.2v-2.154h1.97v6.596H30.4v6.328h-2.23v4.307H15.568v2.154H28.17v-2.154h2.231V27.54h1.97v-6.327h2.23V10.308h-2.23v2.289H30.4v2.019h-4.2v2.154h-8.4v-2.154h-4.2v-2.02h-2.1v-2.288h4.068v-2.02H22V6z"/><path fill="#515151" d="M22.001 6v2.289h6.169v2.019h4.2v-2.02h-4.2V6z"/><path fill="#a37b63" d="M15.57 8.289v2.019h2.23v-2.02z"/><path fill="#ab826b" d="M17.8 8.289v2.019h2.1v-2.02z"/><path fill="#aba26b" d="M19.9 8.289v2.019h4.07v-2.02z"/><path fill="#ab826b" d="M23.97 8.289v2.019h2.23v-2.02z"/><path fill="#bf967e" d="M26.201 8.289v2.019h1.969v2.289h2.231v-2.29H28.17V8.29z"/><path fill="#958c55" d="M11.5 10.308v2.289h2.1v-2.289z"/><path fill="#956c55" d="M13.6 10.308v2.289h1.97v-2.289z"/><path fill="#c33e1f" d="M15.57 10.308v2.289h2.23v-2.289z"/><path fill="#e38c3f" d="M17.8 10.308v2.289h2.1v2.019h2.101v2.154h4.2v-2.154h-4.2v-2.02h-2.1v-2.288z"/><path fill="#e4d25c" d="M19.9 10.308v2.289h2.101v2.019h4.2v-2.02H23.97v-2.288z"/><path fill="#e38c3f" d="M23.97 10.308v2.289h2.23v-2.289z"/><path fill="#cc4628" d="M26.201 10.308v2.289h1.969v2.019h2.231v-2.02H28.17v-2.288z"/><path fill="#bfb67e" d="M30.401 10.308v2.289h1.97v-2.289z"/><path fill="#515151" d="M9.4 12.597v8.615h2.1v6.328h2.1v4.307h1.97V27.54H13.6v-6.327h-2.1v-8.615z"/><path fill="#dc8638" d="M13.6 12.597v2.019h1.97v-2.02z"/><path fill="#e2cf5a" d="M15.57 12.597v2.019h2.23v2.154h2.1v-4.173z"/><path fill="#ea9346" d="M26.201 12.597v2.019h1.969v-2.02z"/><path fill="#e7e7e7" d="M11.5 14.616v2.154h2.1v2.154h4.2V16.77h-4.2v-2.154z"/><path fill="#c54021" d="M19.9 14.616v2.154h2.101v-2.154z"/><path fill="#a9a9a9" d="M30.401 14.616v2.154h1.97v-2.154z"/><path fill="#d8d8d8" d="M11.5 16.77v4.442h2.1v6.328h1.97v2.288h2.23v2.02h4.201v-8.616h-2.1v-2.02h-2.1v2.02h-2.232v-4.308h-1.968V16.77z"/><path fill="#ead762" d="M26.201 16.77v2.154h1.969V16.77z"/><path fill="#cb4627" d="M28.17 16.77v2.154h2.23V16.77z"/><path fill="#727272" d="M30.401 16.77v4.442H28.17v6.328h2.23v-6.328h1.97V16.77z"/><path fill="#fff" d="M15.57 18.924v4.308h2.23v-4.308z"/><path fill="#d85334" d="M17.8 18.924v2.288h2.1v-2.288z"/><path fill="#cacaca" d="M19.9 18.924v2.288h6.301v-2.288z"/><path fill="#e99245" d="M26.201 18.924v2.288h1.969v-2.288z"/><path fill="#969696" d="M28.17 18.924v2.288h2.23v-2.288z"/><path fill="#a8a8a8" d="M19.9 21.212v2.02h2.101v6.596h1.969v-6.596h2.23v-2.02z"/><path fill="#cb4627" d="M26.201 21.212v2.02h1.969v-2.02z"/><path fill="#fff" d="M17.8 23.232v4.308h2.1v-4.308z"/><path fill="#969696" d="M23.97 23.232v6.596H22v2.02h6.169V27.54H26.2v-2.02h1.969v-2.288z"/><path fill="#cb4627" d="M26.201 25.52v2.02h1.969v-2.02z"/><path fill="#969696" d="M15.57 29.828v2.02h2.23v-2.02z"/><g opacity=".7"><mask id="e" width="22" height="22" x="15.503" y="14.201" fill="#000" maskUnits="userSpaceOnUse"><path fill="#fff" d="M15.503 14.201h22v22h-22z"/><path fill-rule="evenodd" d="M20.64 17.406a.7.7 0 0 0-.99 0l-.941.941a.7.7 0 0 0 0 .99l6.265 6.266-6.266 6.264a.7.7 0 0 0 0 .99l.942.94a.7.7 0 0 0 .99 0l6.265-6.263 6.264 6.264a.7.7 0 0 0 .99 0l.94-.942a.7.7 0 0 0 0-.99l-6.262-6.263 6.266-6.263a.7.7 0 0 0 0-.99l-.942-.941a.7.7 0 0 0-.99 0l-6.265 6.263z" clip-rule="evenodd"/></mask><path fill="url(#d)" fill-rule="evenodd" d="M20.64 17.406a.7.7 0 0 0-.99 0l-.941.941a.7.7 0 0 0 0 .99l6.265 6.266-6.266 6.264a.7.7 0 0 0 0 .99l.942.94a.7.7 0 0 0 .99 0l6.265-6.263 6.264 6.264a.7.7 0 0 0 .99 0l.94-.942a.7.7 0 0 0 0-.99l-6.262-6.263 6.266-6.263a.7.7 0 0 0 0-.99l-.942-.941a.7.7 0 0 0-.99 0l-6.265 6.263z" clip-rule="evenodd"/><path fill="#000" d="m19.65 17.406-1.485-1.485zm.99 0-1.485 1.485zm-1.931.941-1.485-1.485zm0 .99-1.485 1.485zm6.265 6.266 1.485 1.485 1.485-1.485-1.485-1.485zm-6.266 6.264-1.485-1.486zm0 .99 1.485-1.486zm.942.94-1.485 1.486zm.99 0-1.485-1.485zm6.265-6.263 1.485-1.485-1.484-1.485-1.485 1.485zm6.264 6.264-1.485 1.485zm.99 0 1.485 1.485zm.94-.942 1.486 1.486zm0-.99-1.484 1.485zm-6.262-6.263-1.485-1.485-1.485 1.485 1.485 1.485zm6.266-6.263-1.485-1.485zm0-.99 1.484-1.485zm-.942-.941 1.485-1.485zm-.99 0-1.485-1.485zm-6.265 6.263-1.485 1.485 1.485 1.485 1.485-1.485zm-5.77-4.781a1.4 1.4 0 0 1-1.981 0l2.97-2.97a2.8 2.8 0 0 0-3.96 0zm-.942.94.941-.94-2.97-2.97-.941.941zm0-1.979a1.4 1.4 0 0 1 0 1.98l-2.97-2.97a2.8 2.8 0 0 0 0 3.96zm6.265 6.266-6.265-6.266-2.97 2.97 6.265 6.266zm-6.266 9.234 6.266-6.264-2.97-2.97-6.266 6.263zm0-1.98a1.4 1.4 0 0 1 0 1.98l-2.97-2.97a2.8 2.8 0 0 0 0 3.96zm.941.94-.941-.94-2.97 2.97.942.94zm-1.98 0a1.4 1.4 0 0 1 1.98 0l-2.97 2.97a2.8 2.8 0 0 0 3.96 0zm6.267-6.263-6.266 6.263 2.97 2.97 6.265-6.263zm9.233 6.264-6.264-6.264-2.97 2.97 6.264 6.264zm-1.98 0a1.4 1.4 0 0 1 1.98 0l-2.97 2.97a2.8 2.8 0 0 0 3.96 0zm.94-.941-.94.94 2.97 2.97.941-.94zm0 1.98a1.4 1.4 0 0 1 0-1.98l2.971 2.97a2.8 2.8 0 0 0 0-3.96zm-6.262-6.264 6.263 6.263 2.97-2.97-6.263-6.263zm6.266-9.233-6.266 6.263 2.97 2.97 6.265-6.263zm0 1.98a1.4 1.4 0 0 1 0-1.98l2.97 2.97a2.8 2.8 0 0 0 0-3.96zm-.942-.94.942.94 2.97-2.97-.942-.941zm1.98 0a1.4 1.4 0 0 1-1.98 0l2.97-2.971a2.8 2.8 0 0 0-3.96 0zm-6.265 6.262 6.265-6.263-2.97-2.97-6.265 6.262zm-9.236-6.266 6.266 6.266 2.97-2.97-6.266-6.266z" mask="url(#e)"/></g></g><g filter="url(#f)"><path fill="#e7cdcd" d="m45.78 26.5-3.428-12.363h1.962l2.408 9.575h.115l2.505-9.575h1.944l2.506 9.58h.114l2.403-9.58h1.968l-3.435 12.364h-1.877l-2.602-9.261h-.097l-2.602 9.26zm17.046.188q-1.304 0-2.276-.598a4.03 4.03 0 0 1-1.51-1.672q-.537-1.074-.537-2.511 0-1.443.538-2.524.537-1.08 1.509-1.678t2.276-.598 2.276.598a4 4 0 0 1 1.509 1.678q.537 1.08.537 2.524 0 1.436-.537 2.511a4.03 4.03 0 0 1-1.51 1.672q-.971.598-2.275.598m.006-1.515q.845 0 1.4-.447t.822-1.19a4.7 4.7 0 0 0 .271-1.635q0-.888-.272-1.63-.265-.75-.82-1.202-.556-.453-1.401-.453-.851 0-1.413.453-.555.453-.827 1.202a4.8 4.8 0 0 0-.265 1.63q0 .892.265 1.636.272.742.827 1.189.562.447 1.413.447m8.136-4.178v5.506h-1.805v-9.273h1.733v1.51h.114a2.65 2.65 0 0 1 1.003-1.184q.688-.447 1.732-.447.948 0 1.66.399.713.392 1.105 1.17.392.78.392 1.927V26.5h-1.805v-5.68q0-1.008-.525-1.576-.524-.573-1.443-.573-.627 0-1.116.271a1.95 1.95 0 0 0-.767.797q-.278.52-.278 1.256m9.907-6.858v1.16q0 .511-.193 1.08a4.6 4.6 0 0 1-.532 1.08q-.344.519-.809.894l-.893-.64q.356-.519.616-1.105.265-.584.265-1.292v-1.177zm6.43 3.091v1.449h-5.066v-1.449zm-3.708-2.222h1.806v8.772q0 .526.156.79a.82.82 0 0 0 .405.357q.253.09.55.09.215 0 .38-.03l.253-.048.326 1.491q-.157.06-.447.121a3.5 3.5 0 0 1-.724.072 3.2 3.2 0 0 1-1.328-.253 2.3 2.3 0 0 1-.996-.821q-.38-.555-.38-1.395zm17.151 4.486-1.636.29a2 2 0 0 0-.326-.598 1.6 1.6 0 0 0-.591-.465q-.375-.18-.936-.181-.767 0-1.28.344-.513.338-.513.875 0 .465.344.749.345.284 1.11.465l1.474.338q1.28.296 1.908.912.627.615.627 1.6a2.43 2.43 0 0 1-.483 1.484q-.476.647-1.334 1.015-.85.368-1.974.368-1.557 0-2.541-.664-.984-.67-1.208-1.902l1.745-.265q.163.681.67 1.032.507.345 1.322.344.888 0 1.419-.368.531-.375.531-.912a.95.95 0 0 0-.326-.73q-.32-.296-.984-.447l-1.57-.344q-1.297-.296-1.92-.942-.615-.645-.615-1.636 0-.82.459-1.437.459-.615 1.267-.96.81-.35 1.854-.35 1.503 0 2.366.652.864.645 1.141 1.733m8.04 3.163v-5.427h1.811v9.273h-1.775v-1.606h-.096a2.9 2.9 0 0 1-1.027 1.237q-.7.49-1.744.49-.894 0-1.582-.393-.682-.399-1.075-1.177-.386-.78-.386-1.926v-5.898h1.805v5.68q0 .95.525 1.51.525.561 1.365.561.507 0 1.008-.253.507-.255.839-.767.338-.513.332-1.304m4.236 7.323v-12.75h1.763v1.503h.151a5 5 0 0 1 .453-.67 2.6 2.6 0 0 1 .821-.664q.525-.29 1.388-.29 1.123 0 2.005.568.88.567 1.382 1.636.507 1.069.507 2.571 0 1.504-.501 2.578-.501 1.07-1.376 1.648-.876.574-1.998.574-.846 0-1.383-.284a2.6 2.6 0 0 1-.833-.664 5 5 0 0 1-.465-.676h-.109v4.92zm1.769-8.114q0 .978.284 1.715.284.736.821 1.153.537.41 1.316.41.809 0 1.352-.428.544-.435.821-1.177.285-.743.284-1.673 0-.916-.278-1.648-.271-.73-.821-1.153-.543-.422-1.358-.422-.785 0-1.328.404-.537.405-.815 1.129t-.278 1.69m8.724 8.114v-12.75h1.762v1.503h.151a5 5 0 0 1 .453-.67 2.6 2.6 0 0 1 .821-.664q.525-.29 1.389-.29 1.122 0 2.004.568.88.567 1.382 1.636.507 1.069.507 2.571 0 1.504-.501 2.578-.5 1.07-1.376 1.648-.876.574-1.998.574-.846 0-1.383-.284a2.6 2.6 0 0 1-.833-.664 5 5 0 0 1-.465-.676h-.108v4.92zm1.768-8.114q0 .978.284 1.715.284.736.821 1.153.537.41 1.316.41.81 0 1.353-.428.542-.435.821-1.177.283-.743.283-1.673 0-.916-.277-1.648-.273-.73-.821-1.153-.544-.422-1.359-.422-.785 0-1.328.404-.537.405-.815 1.129t-.278 1.69m12.63 4.824q-1.304 0-2.276-.598a4.03 4.03 0 0 1-1.509-1.672q-.538-1.074-.538-2.511 0-1.443.538-2.524a4 4 0 0 1 1.509-1.678q.971-.597 2.276-.598 1.304 0 2.276.598a4 4 0 0 1 1.509 1.678q.537 1.08.537 2.524 0 1.436-.537 2.511a4.03 4.03 0 0 1-1.509 1.672q-.972.598-2.276.598m.006-1.515q.845 0 1.4-.447.556-.447.821-1.19.272-.742.272-1.635 0-.888-.272-1.63-.265-.75-.821-1.202-.555-.453-1.4-.453-.852 0-1.413.453-.555.453-.827 1.202a4.8 4.8 0 0 0-.266 1.63q0 .892.266 1.636.272.742.827 1.189.561.447 1.413.447m6.331 1.328v-9.273h1.745v1.473h.096q.254-.75.894-1.177.645-.435 1.461-.435a8 8 0 0 1 .766.042v1.727a3 3 0 0 0-.386-.067 4 4 0 0 0-.555-.042q-.64 0-1.141.272a2.02 2.02 0 0 0-1.075 1.817v5.663zm11.401-9.273v1.449h-5.065v-1.449zm-3.707-2.222h1.805v8.772q0 .526.157.79.157.261.405.357.254.09.549.09.218 0 .38-.03l.254-.048.326 1.491q-.157.06-.447.121a3.5 3.5 0 0 1-.724.072 3.2 3.2 0 0 1-1.329-.253 2.3 2.3 0 0 1-.996-.821q-.38-.555-.38-1.395z"/><path fill="url(#g)" d="M161.937 26.5V14.138h5.156q1.388 0 2.324.393.942.391 1.413 1.098.477.706.477 1.636 0 .707-.296 1.262-.297.549-.815.912-.52.361-1.202.507v.12q.749.037 1.383.405.64.367 1.026 1.026.386.652.386 1.546a3.2 3.2 0 0 1-.507 1.78q-.507.78-1.467 1.232-.96.447-2.33.447zm2.988-2.408h1.848q.972 0 1.431-.368.464-.369.464-1.027 0-.476-.223-.82a1.44 1.44 0 0 0-.634-.538q-.411-.193-.984-.193h-1.902zm0-4.872h1.655q.489 0 .869-.163a1.34 1.34 0 0 0 .592-.47 1.26 1.26 0 0 0 .217-.743q0-.622-.441-.978-.44-.357-1.189-.356h-1.703zm14.284 3.278v-5.27h2.946v9.273h-2.813v-1.727h-.097a2.7 2.7 0 0 1-1.05 1.352q-.737.495-1.781.495-.948 0-1.666-.434a2.96 2.96 0 0 1-1.117-1.214q-.399-.785-.405-1.835v-5.91h2.952v5.33q.006.756.399 1.19.392.434 1.068.434.441 0 .791-.193.357-.2.562-.573.21-.381.211-.918m7.487 1.57.012-3.52h.411l2.608-3.32h3.344l-3.876 4.757h-.778zm-2.662 2.433V14.137h2.952v12.364zm5.759 0-2.427-3.852 1.944-2.095 3.894 5.947zm6.997-2.433.012-3.52h.41l2.608-3.32h3.345l-3.876 4.757h-.779zm-2.662 2.433V14.137h2.952v12.364zm5.759 0-2.427-3.852 1.944-2.095 3.894 5.947zm4.334 0v-9.273h2.952v9.273zm1.479-10.354q-.621 0-1.068-.41a1.32 1.32 0 0 1-.447-1.002q0-.58.447-.99a1.5 1.5 0 0 1 1.068-.417 1.5 1.5 0 0 1 1.069.417q.447.41.447.99 0 .585-.447 1.002-.44.41-1.069.41m8.586 1.081v2.173h-5.849v-2.173zm-4.624-2.222h2.952v8.579q0 .272.085.44.09.165.259.236.17.066.405.066.168 0 .356-.03.193-.036.29-.06l.446 2.13q-.21.061-.597.152-.381.09-.912.115-1.038.048-1.781-.242a2.3 2.3 0 0 1-1.129-.918q-.386-.621-.374-1.563z"/></g></g><rect width="220.858" height="37.858" x="1.071" y="1.071" stroke="#fff" stroke-opacity=".15" stroke-width="2.143" rx="6.929"/><defs><linearGradient id="b" x1="111.501" x2="111.501" y1="0" y2="40.001" gradientUnits="userSpaceOnUse"><stop stop-color="#2c1b1b"/><stop offset="1" stop-color="#1f1414"/></linearGradient><linearGradient id="d" x1="26.905" x2="26.905" y1="17.201" y2="34.003" gradientUnits="userSpaceOnUse"><stop stop-color="red"/><stop offset="1" stop-color="#c00"/></linearGradient><linearGradient id="g" x1="188.001" x2="188.001" y1="9.501" y2="30.501" gradientUnits="userSpaceOnUse"><stop stop-color="#fff"/><stop offset="1" stop-color="#b9b9b9"/></linearGradient><filter id="c" width="40.608" height="41.304" x="2.4" y=".4" color-interpolation-filters="sRGB" filterUnits="userSpaceOnUse"><feFlood flood-opacity="0" result="BackgroundImageFix"/><feColorMatrix in="SourceAlpha" result="hardAlpha" values="0 0 0 0 0 0 0 0 0 0 0 0 0 0 0 0 0 0 127 0"/><feOffset/><feGaussianBlur stdDeviation="2.8"/><feComposite in2="hardAlpha" operator="out"/><feColorMatrix values="0 0 0 0 0 0 0 0 0 0 0 0 0 0 0 0 0 0 0.25 0"/><feBlend in2="BackgroundImageFix" result="effect1_dropShadow_28_3127"/><feBlend in="SourceGraphic" in2="effect1_dropShadow_28_3127" result="shape"/></filter><filter id="f" width="184.429" height="32.429" x="36.287" y="3.786" color-interpolation-filters="sRGB" filterUnits="userSpaceOnUse"><feFlood flood-opacity="0" result="BackgroundImageFix"/><feColorMatrix in="SourceAlpha" result="hardAlpha" values="0 0 0 0 0 0 0 0 0 0 0 0 0 0 0 0 0 0 127 0"/><feOffset/><feGaussianBlur stdDeviation="2.857"/><feComposite in2="hardAlpha" operator="out"/><feColorMatrix values="0 0 0 0 0 0 0 0 0 0 0 0 0 0 0 0 0 0 0.25 0"/><feBlend in2="BackgroundImageFix" result="effect1_dropShadow_28_3127"/><feBlend in="SourceGraphic" in2="effect1_dropShadow_28_3127" result="shape"/></filter><clipPath id="a"><rect width="223.001" height="40.001" fill="#fff" rx="8"/></clipPath></defs></svg>