<svg xmlns="http://www.w3.org/2000/svg" width="275" height="40" fill="none" viewBox="0 0 275 40"><g clip-path="url(#a)"><rect width="275.001" height="40.001" fill="url(#b)" rx="8"/><g filter="url(#c)"><path fill="#fcfcfc" fill-rule="evenodd" d="M28.798 18.055c.158.248.317.495.499.726q.058-.136.125-.276c.112-.238.227-.483.271-.731.033-.183-.007-.362-.047-.541-.031-.144-.063-.288-.058-.435.015-.436.2-.89.368-1.303l.072-.176c.084-.211.21-.424.408-.547a1 1 0 0 1 .19-.084c.096-.036.193-.072.263-.144.215-.218.37-.814.395-1.113.044-.522-.158-1.089-.352-1.63a8 8 0 0 1-.246-.761c-.348-1.393.129-3.053 1.457-3.75.99-.52 2.369-.335 3.12.51.53.593.74 1.328.74 2.107 0 .525-.03 1.43-.485 1.795-.284.228-.856.21-1.045-.128-.17-.304-.085-.631 0-.962.068-.257.135-.517.082-.768-.11-.524-.645-1.204-1.241-1.123-.473.064-.843.518-1.005.934-.178.456-.023.935.122 1.389q.041.125.078.247l.005.019c.247.833.482 1.622.381 2.499-.025.216-.103.424-.18.632-.081.218-.162.435-.18.658-.01.124.038.248.086.372.04.106.082.212.089.32.037.609-.178 1.218-.439 1.762-.118.247-.303.4-.49.555a2.2 2.2 0 0 0-.396.39c-.216.293-.35.656-.483 1.013-.067.181-.134.36-.21.528a5 5 0 0 1-.176.339c-.12.217-.243.438-.294.668-.04.178.02.4.076.604q.038.131.06.246c.1.554.19 1.136.203 1.7.06 2.52-.561 5.095-2.287 7.016a8 8 0 0 1-1.856 1.53c-2.562 1.527-5.77.862-8.097-.767-.807-.564-1.466-1.247-2.134-1.938a44 44 0 0 0-.692-.705c-.206-.204-.434-.27-.667-.338-.152-.044-.308-.089-.461-.174-.416-.23-.88-.84-1.096-1.258-.097-.187-.09-.38-.082-.568.007-.16.013-.32-.046-.47-.066-.17-.195-.322-.323-.474-.095-.113-.19-.225-.259-.344-.295-.513-.395-1.087-.435-1.668a8 8 0 0 1-.001-.75c.025-.843.052-1.745-.732-2.22-.897-.544-1.987.502-1.854 1.428.04.27.167.483.294.694.153.254.304.504.294.848-.01.368-.264.59-.632.591-.485.002-.788-.335-1.03-.717-.488-.767-.57-1.777-.345-2.643.528-2.029 3.199-2.795 4.728-1.35.866.817.904 1.885.944 2.986l.004.094.008.296c.015.665.027 1.198.503 1.78.157.192.36.218.573.245.134.018.272.035.404.096.298.135.53.43.74.696l.129.16c.147.178.298.37.353.598.028.117.039.235.05.35.02.216.038.427.17.625.431.653 1.067 1.238 1.658 1.745.891.766 1.834 1.45 2.942 1.873 2.827 1.08 5.63-.76 6.8-3.335.648-1.43.706-2.808.696-4.342-.205.175-.383.387-.562.6-.145.173-.29.346-.45.5-.775.742-1.633 1.343-2.625 1.76a7 7 0 0 1-2.847.538 5.9 5.9 0 0 1-2.151-.468c-4.046-1.748-4.85-7.773-1.265-10.449a5.9 5.9 0 0 1 1.74-.904 6.3 6.3 0 0 1 2.403-.289 7.2 7.2 0 0 1 2.973.908 7.8 7.8 0 0 1 2.264 1.951c.18.23.338.476.496.722m-8.39-1.172a4.3 4.3 0 0 1 1.803-.606c2.09-.235 4.048 1.21 5.156 2.85.244.361.449.741.64 1.133l.042.084c.077.149.167.324.157.482-.01.147-.112.29-.201.413l-.042.059c-.218.31-.44.624-.687.913-1.042 1.216-2.495 2.358-4.148 2.545-.603.068-1.22.039-1.802-.148a4.1 4.1 0 0 1-1.392-.768c-2.233-1.895-2.036-5.39.474-6.957" clip-rule="evenodd"/><g opacity=".7"><mask id="e" width="22" height="22" x="15.503" y="14.201" fill="#000" maskUnits="userSpaceOnUse"><path fill="#fff" d="M15.503 14.201h22v22h-22z"/><path fill-rule="evenodd" d="M20.64 17.406a.7.7 0 0 0-.99 0l-.941.941a.7.7 0 0 0 0 .99l6.265 6.266-6.266 6.264a.7.7 0 0 0 0 .99l.942.94a.7.7 0 0 0 .99 0l6.265-6.263 6.264 6.264a.7.7 0 0 0 .99 0l.94-.941a.7.7 0 0 0 0-.99l-6.262-6.264 6.266-6.263a.7.7 0 0 0 0-.99l-.942-.941a.7.7 0 0 0-.99 0l-6.265 6.263z" clip-rule="evenodd"/></mask><path fill="url(#d)" fill-rule="evenodd" d="M20.64 17.406a.7.7 0 0 0-.99 0l-.941.941a.7.7 0 0 0 0 .99l6.265 6.266-6.266 6.264a.7.7 0 0 0 0 .99l.942.94a.7.7 0 0 0 .99 0l6.265-6.263 6.264 6.264a.7.7 0 0 0 .99 0l.94-.941a.7.7 0 0 0 0-.99l-6.262-6.264 6.266-6.263a.7.7 0 0 0 0-.99l-.942-.941a.7.7 0 0 0-.99 0l-6.265 6.263z" clip-rule="evenodd"/><path fill="#000" d="m19.65 17.406-1.485-1.485zm.99 0-1.485 1.485zm-1.931.941-1.485-1.485zm0 .99-1.485 1.485zm6.265 6.266 1.485 1.485 1.485-1.485-1.485-1.485zm-6.266 6.264-1.485-1.486zm0 .99 1.485-1.486zm.942.94-1.485 1.486zm.99 0-1.485-1.485zm6.265-6.263 1.485-1.485-1.484-1.485-1.485 1.485zm6.264 6.264-1.485 1.485zm.99 0 1.485 1.485zm.94-.941 1.486 1.485zm0-.99-1.484 1.485zm-6.262-6.264-1.485-1.485-1.485 1.485 1.485 1.485zm6.266-6.263-1.485-1.485zm0-.99 1.484-1.485zm-.942-.941 1.485-1.485zm-.99 0-1.485-1.485zm-6.265 6.263-1.485 1.485 1.485 1.485 1.485-1.485zm-5.77-4.781a1.4 1.4 0 0 1-1.981 0l2.97-2.97a2.8 2.8 0 0 0-3.96 0zm-.942.941.941-.941-2.97-2.97-.941.941zm0-1.98a1.4 1.4 0 0 1 0 1.98l-2.97-2.97a2.8 2.8 0 0 0 0 3.96zm6.265 6.266-6.265-6.266-2.97 2.97 6.265 6.266zm-6.266 9.234 6.266-6.264-2.97-2.97-6.266 6.264zm0-1.98a1.4 1.4 0 0 1 0 1.98l-2.97-2.97a2.8 2.8 0 0 0 0 3.96zm.941.94-.941-.94-2.97 2.97.942.94zm-1.98 0a1.4 1.4 0 0 1 1.98 0l-2.97 2.97a2.8 2.8 0 0 0 3.96 0zm6.267-6.263-6.266 6.263 2.97 2.97 6.265-6.262zm9.233 6.264-6.264-6.264-2.97 2.97 6.264 6.264zm-1.98 0a1.4 1.4 0 0 1 1.98 0l-2.97 2.97a2.8 2.8 0 0 0 3.96 0zm.94-.941-.94.941 2.97 2.97.941-.941zm0 1.98a1.4 1.4 0 0 1 0-1.98l2.971 2.97a2.8 2.8 0 0 0 0-3.96zm-6.262-6.264 6.263 6.264 2.97-2.97-6.263-6.264zm6.266-9.233-6.266 6.263 2.97 2.97 6.265-6.263zm0 1.98a1.4 1.4 0 0 1 0-1.98l2.97 2.97a2.8 2.8 0 0 0 0-3.96zm-.942-.94.942.94 2.97-2.97-.942-.941zm1.98 0a1.4 1.4 0 0 1-1.98 0l2.97-2.971a2.8 2.8 0 0 0-3.96 0zm-6.265 6.262 6.265-6.263-2.97-2.97-6.265 6.263zm-9.236-6.266 6.266 6.266 2.97-2.97-6.266-6.266z" mask="url(#e)"/></g></g><g filter="url(#f)"><path fill="#e7cdcd" d="m45.78 26.5-3.428-12.363h1.962l2.408 9.575h.115l2.505-9.575h1.944l2.506 9.58h.114l2.403-9.58h1.968l-3.435 12.364h-1.877l-2.602-9.261h-.097l-2.602 9.26zm17.046.188q-1.304 0-2.276-.598a4.03 4.03 0 0 1-1.51-1.672q-.537-1.075-.537-2.511 0-1.443.538-2.524.537-1.08 1.509-1.678t2.276-.598 2.276.598a4 4 0 0 1 1.509 1.678q.537 1.08.537 2.524 0 1.436-.537 2.51a4.03 4.03 0 0 1-1.51 1.673q-.971.598-2.275.598m.006-1.515q.845 0 1.4-.447t.822-1.19a4.7 4.7 0 0 0 .271-1.636q0-.886-.272-1.63-.265-.748-.82-1.2-.556-.454-1.401-.454-.851 0-1.413.453-.555.453-.827 1.202a4.8 4.8 0 0 0-.265 1.63q0 .892.265 1.636.272.742.827 1.189.562.447 1.413.447m8.136-4.178v5.506h-1.805v-9.273h1.733v1.51h.114a2.65 2.65 0 0 1 1.003-1.184q.688-.447 1.732-.447.948 0 1.66.399.713.392 1.105 1.17.392.78.392 1.927V26.5h-1.805v-5.68q0-1.008-.525-1.576-.524-.573-1.443-.573-.627 0-1.116.271a1.95 1.95 0 0 0-.767.797q-.278.52-.278 1.256m9.907-6.858v1.16q0 .511-.193 1.08a4.6 4.6 0 0 1-.532 1.08 3.9 3.9 0 0 1-.809.894l-.893-.64q.356-.519.616-1.105a3.1 3.1 0 0 0 .265-1.292v-1.177zm6.43 3.09v1.45h-5.066v-1.45zm-3.708-2.22h1.806v8.771q0 .526.156.79a.82.82 0 0 0 .405.357q.253.09.55.09.215 0 .38-.03l.253-.048.326 1.491q-.157.06-.447.121a3.5 3.5 0 0 1-.724.072 3.2 3.2 0 0 1-1.328-.253 2.3 2.3 0 0 1-.996-.821q-.38-.555-.38-1.395zm17.151 4.485-1.636.29a2 2 0 0 0-.326-.598 1.6 1.6 0 0 0-.591-.465q-.375-.18-.936-.181-.767 0-1.28.344-.513.338-.513.875 0 .465.344.749.345.284 1.11.465l1.474.338q1.28.296 1.908.912.627.615.627 1.6a2.43 2.43 0 0 1-.483 1.484q-.476.647-1.334 1.015-.85.368-1.974.368-1.557 0-2.541-.664-.984-.67-1.208-1.902l1.745-.265q.163.681.67 1.032.507.345 1.322.344.888 0 1.419-.368.531-.375.531-.912a.95.95 0 0 0-.326-.73q-.32-.296-.984-.447l-1.57-.344q-1.297-.296-1.92-.942-.615-.645-.615-1.636 0-.82.459-1.437.459-.615 1.267-.96.81-.35 1.854-.35 1.503 0 2.366.652.864.645 1.141 1.733m8.04 3.163v-5.427h1.811V26.5h-1.775v-1.606h-.096a2.9 2.9 0 0 1-1.027 1.237q-.7.49-1.744.49-.894 0-1.582-.393-.682-.399-1.075-1.177-.386-.78-.386-1.926v-5.898h1.805v5.68q0 .95.525 1.51.525.561 1.365.561.507 0 1.008-.253.507-.255.839-.767.338-.513.332-1.304m4.236 7.323v-12.75h1.763v1.503h.151q.157-.29.453-.67a2.6 2.6 0 0 1 .821-.664q.525-.29 1.388-.29 1.123 0 2.005.568.88.567 1.382 1.636.507 1.069.507 2.571t-.501 2.578q-.501 1.069-1.376 1.648-.876.574-1.998.574-.846 0-1.383-.284a2.6 2.6 0 0 1-.833-.664 5 5 0 0 1-.465-.676h-.109v4.92zm1.769-8.114q0 .978.284 1.715.284.736.821 1.153.537.41 1.316.41.809 0 1.352-.428.544-.435.821-1.177.285-.743.284-1.673 0-.916-.278-1.648-.271-.73-.821-1.153-.543-.422-1.358-.422-.785 0-1.328.404-.537.405-.815 1.129t-.278 1.69m8.724 8.114v-12.75h1.762v1.503h.151q.157-.29.453-.67a2.6 2.6 0 0 1 .821-.664q.525-.29 1.389-.29 1.122 0 2.004.568.88.567 1.382 1.636.507 1.069.507 2.571t-.501 2.578q-.5 1.069-1.376 1.648-.876.574-1.998.574-.846 0-1.383-.284a2.6 2.6 0 0 1-.833-.664 5 5 0 0 1-.465-.676h-.108v4.92zm1.768-8.114q0 .978.284 1.715.284.736.821 1.153.537.41 1.316.41.81 0 1.353-.428.542-.435.821-1.177.283-.743.283-1.673 0-.916-.277-1.648-.273-.73-.821-1.153-.544-.422-1.359-.422-.785 0-1.328.404-.537.405-.815 1.129t-.278 1.69m12.63 4.824q-1.304 0-2.276-.598a4.03 4.03 0 0 1-1.509-1.672q-.538-1.075-.538-2.511 0-1.443.538-2.524a4 4 0 0 1 1.509-1.678q.971-.598 2.276-.598t2.276.598a4 4 0 0 1 1.509 1.678q.537 1.08.537 2.524 0 1.436-.537 2.51a4.03 4.03 0 0 1-1.509 1.673q-.972.598-2.276.598m.006-1.515q.845 0 1.4-.447.556-.447.821-1.19.272-.742.272-1.636 0-.886-.272-1.63-.265-.748-.821-1.2-.555-.454-1.4-.454-.852 0-1.413.453-.555.453-.827 1.202a4.8 4.8 0 0 0-.266 1.63q0 .892.266 1.636.272.742.827 1.189.561.447 1.413.447m6.331 1.328v-9.273h1.745V18.7h.096q.254-.75.894-1.177.645-.435 1.461-.435a8 8 0 0 1 .766.042v1.727a3 3 0 0 0-.386-.067 4 4 0 0 0-.555-.042q-.64 0-1.141.272a2.02 2.02 0 0 0-1.075 1.817V26.5zm11.401-9.273v1.449h-5.065v-1.45zm-3.707-2.222h1.805v8.772q0 .526.157.79.157.261.405.357.254.09.549.09.218 0 .38-.03l.254-.048.326 1.491q-.157.06-.447.121a3.5 3.5 0 0 1-.724.072 3.2 3.2 0 0 1-1.329-.253 2.3 2.3 0 0 1-.996-.821q-.38-.555-.38-1.395z"/><path fill="#fff" d="M161.937 26.5V14.138h5.156q1.388 0 2.324.392.942.393 1.413 1.1.477.705.477 1.635 0 .707-.296 1.262-.297.549-.815.912-.52.36-1.202.507v.12q.749.037 1.383.405.64.367 1.026 1.026.386.652.386 1.546a3.2 3.2 0 0 1-.507 1.78q-.507.78-1.467 1.232-.96.447-2.33.447zm2.988-2.408h1.848q.972 0 1.431-.368.464-.369.464-1.027 0-.476-.223-.82a1.44 1.44 0 0 0-.634-.538q-.411-.193-.984-.193h-1.902zm0-4.872h1.655q.489 0 .869-.163.38-.162.592-.47a1.26 1.26 0 0 0 .217-.743q0-.622-.441-.978-.44-.357-1.189-.357h-1.703zm14.284 3.278v-5.27h2.946V26.5h-2.813v-1.727h-.097a2.7 2.7 0 0 1-1.05 1.352q-.737.495-1.781.495-.948 0-1.666-.434a2.96 2.96 0 0 1-1.117-1.214q-.399-.785-.405-1.835v-5.91h2.952v5.33q.006.756.399 1.19.392.434 1.068.434.441 0 .791-.193.357-.2.562-.573.21-.381.211-.918m7.777-1.286V26.5h-2.952v-9.273h2.807v1.702h.103a2.6 2.6 0 0 1 1.05-1.334q.743-.489 1.769-.489.978 0 1.696.44.725.435 1.123 1.22.405.78.399 1.823v5.91h-2.952v-5.33q.006-.773-.393-1.207-.392-.435-1.093-.435-.464 0-.821.205a1.36 1.36 0 0 0-.543.574q-.187.375-.193.905m12.145 8.96q-1.322 0-2.264-.37-.942-.367-1.479-1.007a2.8 2.8 0 0 1-.646-1.45l2.795-.156q.078.284.29.495.218.211.561.326.35.114.821.115.743 0 1.226-.363.489-.356.489-1.25v-1.63h-.103a2.2 2.2 0 0 1-.531.767 2.5 2.5 0 0 1-.888.532q-.525.193-1.207.193a3.75 3.75 0 0 1-1.859-.471q-.84-.477-1.347-1.473-.501-1.002-.501-2.578 0-1.623.519-2.674.52-1.056 1.359-1.564a3.47 3.47 0 0 1 1.817-.507q.73 0 1.25.254.524.247.863.64.337.392.513.815h.084v-1.588h2.94v9.309q0 1.177-.591 1.986-.592.81-1.654 1.226-1.063.422-2.457.422m.09-5.947q.537 0 .918-.284.38-.284.585-.815.206-.531.206-1.274 0-.755-.206-1.298-.199-.55-.585-.845a1.45 1.45 0 0 0-.918-.296q-.55 0-.929.302-.38.302-.58.851-.193.544-.193 1.286 0 .743.199 1.274.2.531.574.815.38.285.929.284m10.829 2.45q-1.455 0-2.511-.573a3.96 3.96 0 0 1-1.618-1.648q-.562-1.074-.562-2.553 0-1.437.568-2.512a4.1 4.1 0 0 1 1.6-1.678q1.032-.604 2.432-.604.99 0 1.812.308.82.308 1.418.912.599.604.93 1.49.332.882.332 2.023v.737h-8.059V20.86h5.312a1.66 1.66 0 0 0-.223-.839 1.5 1.5 0 0 0-.598-.573 1.7 1.7 0 0 0-.863-.212q-.495 0-.888.224a1.68 1.68 0 0 0-.863 1.449v1.744q0 .567.223.996.224.423.634.658t.978.236q.392 0 .713-.109t.549-.32q.23-.21.344-.52l2.711.08a3.35 3.35 0 0 1-.743 1.587q-.567.67-1.491 1.044-.924.369-2.137.369m10.243 0q-1.455 0-2.511-.573a3.97 3.97 0 0 1-1.618-1.648q-.561-1.074-.562-2.553 0-1.437.568-2.512.567-1.08 1.6-1.678 1.032-.604 2.433-.604.99 0 1.811.308.82.308 1.418.912.599.604.93 1.49.332.882.332 2.023v.737h-8.059v-1.715h5.312a1.66 1.66 0 0 0-.223-.839 1.5 1.5 0 0 0-.598-.573 1.7 1.7 0 0 0-.863-.212q-.495 0-.887.224a1.68 1.68 0 0 0-.864 1.449v1.744q0 .567.224.996.223.423.634.658.41.236.978.236.392 0 .712-.109t.549-.32.344-.52l2.711.08a3.35 3.35 0 0 1-.743 1.587q-.567.67-1.491 1.044-.924.369-2.137.369m17.131-8.059h-3.018q-.06-.465-.248-.839a2 2 0 0 0-.495-.64 2.1 2.1 0 0 0-.73-.404 2.8 2.8 0 0 0-.924-.145q-.899 0-1.551.44-.647.443-.996 1.274-.344.834-.344 2.017 0 1.231.35 2.065.355.825.996 1.25.647.416 1.527.416.495 0 .9-.127.41-.127.718-.368.314-.248.513-.598a2.4 2.4 0 0 0 .284-.803l3.018.018a4.6 4.6 0 0 1-.476 1.618 5.2 5.2 0 0 1-1.081 1.455 5.1 5.1 0 0 1-1.678 1.038q-.984.387-2.258.387-1.678 0-3.007-.737-1.321-.742-2.088-2.161t-.767-3.453q0-2.04.779-3.46.778-1.418 2.107-2.155 1.327-.736 2.976-.736 1.122 0 2.077.314a5 5 0 0 1 1.678.906q.724.591 1.177 1.454.453.864.561 1.974m6.039 8.06q-1.461 0-2.511-.598a4.1 4.1 0 0 1-1.612-1.678q-.562-1.08-.562-2.505 0-1.431.562-2.506.567-1.08 1.612-1.678 1.05-.604 2.511-.604t2.505.604a4 4 0 0 1 1.612 1.678q.567 1.075.568 2.506 0 1.424-.568 2.505a4.07 4.07 0 0 1-1.612 1.678q-1.044.598-2.505.598m.018-2.228q.531 0 .9-.326.368-.327.561-.905.2-.58.199-1.34 0-.773-.199-1.353-.193-.58-.561-.905a1.3 1.3 0 0 0-.9-.326q-.549 0-.93.326-.373.326-.573.905-.193.58-.193 1.352 0 .762.193 1.34.2.58.573.906.381.326.93.326m6.179 2.053v-9.273h2.867v1.69h.097q.254-.917.827-1.364a2.1 2.1 0 0 1 1.334-.453q.206 0 .423.03.217.024.404.079v2.566a3 3 0 0 0-.555-.115 5 5 0 0 0-.604-.042q-.525 0-.948.235a1.7 1.7 0 0 0-.658.646 1.9 1.9 0 0 0-.235.966V26.5zm10.06.133a3.4 3.4 0 0 1-1.865-.532q-.839-.531-1.34-1.593-.501-1.063-.501-2.639 0-1.636.519-2.692.52-1.056 1.358-1.564a3.47 3.47 0 0 1 1.817-.507q.73 0 1.25.254.52.247.857.64.339.392.513.815h.061v-4.679h2.952v12.364h-2.922v-1.504h-.091a2.9 2.9 0 0 1-.531.803q-.344.375-.863.604-.513.23-1.214.23m1.027-2.3q.537 0 .917-.302.38-.309.586-.864t.205-1.304q0-.76-.205-1.31-.2-.55-.586-.845a1.45 1.45 0 0 0-.917-.296q-.55 0-.93.302t-.58.851q-.192.55-.193 1.298 0 .75.199 1.304.2.555.574.864.38.3.93.301"/></g></g><rect width="272.858" height="37.858" x="1.071" y="1.071" stroke="#fff" stroke-opacity=".15" stroke-width="2.143" rx="6.929"/><defs><linearGradient id="b" x1="137.501" x2="137.501" y1="0" y2="40.001" gradientUnits="userSpaceOnUse"><stop stop-color="#2c1b1b"/><stop offset="1" stop-color="#1f1414"/></linearGradient><linearGradient id="d" x1="26.905" x2="26.905" y1="17.201" y2="34.003" gradientUnits="userSpaceOnUse"><stop stop-color="red"/><stop offset="1" stop-color="#c00"/></linearGradient><filter id="c" width="40.608" height="41.304" x="2.4" y=".4" color-interpolation-filters="sRGB" filterUnits="userSpaceOnUse"><feFlood flood-opacity="0" result="BackgroundImageFix"/><feColorMatrix in="SourceAlpha" result="hardAlpha" values="0 0 0 0 0 0 0 0 0 0 0 0 0 0 0 0 0 0 127 0"/><feOffset/><feGaussianBlur stdDeviation="2.8"/><feComposite in2="hardAlpha" operator="out"/><feColorMatrix values="0 0 0 0 0 0 0 0 0 0 0 0 0 0 0 0 0 0 0.25 0"/><feBlend in2="BackgroundImageFix" result="effect1_dropShadow_33_64"/><feBlend in="SourceGraphic" in2="effect1_dropShadow_33_64" result="shape"/></filter><filter id="f" width="236.429" height="32.429" x="36.287" y="3.786" color-interpolation-filters="sRGB" filterUnits="userSpaceOnUse"><feFlood flood-opacity="0" result="BackgroundImageFix"/><feColorMatrix in="SourceAlpha" result="hardAlpha" values="0 0 0 0 0 0 0 0 0 0 0 0 0 0 0 0 0 0 127 0"/><feOffset/><feGaussianBlur stdDeviation="2.857"/><feComposite in2="hardAlpha" operator="out"/><feColorMatrix values="0 0 0 0 0 0 0 0 0 0 0 0 0 0 0 0 0 0 0.25 0"/><feBlend in2="BackgroundImageFix" result="effect1_dropShadow_33_64"/><feBlend in="SourceGraphic" in2="effect1_dropShadow_33_64" result="shape"/></filter><clipPath id="a"><rect width="275.001" height="40.001" fill="#fff" rx="8"/></clipPath></defs></svg>