<svg xmlns="http://www.w3.org/2000/svg" width="259" height="40" fill="none" viewBox="0 0 259 40"><g clip-path="url(#a)"><rect width="259.001" height="40.001" fill="url(#b)" rx="8"/><g filter="url(#c)"><path fill="#4e84c4" d="M10.5 16.261v-3.468c.046-.003.09-.062.133-.078.748-.38 1.488-.778 2.245-1.136.227-.108.31-.213.305-.468-.017-.927-.007-1.854-.006-2.782 0-.284 0-.287.236-.406q1.466-.741 2.931-1.485c.274-.14.571-.235.811-.438h.217c.009.02.011.053.026.06 1.24.624 2.48 1.244 3.717 1.871.076.039.104.042.18 0 .416-.217.845-.41 1.258-.632.114-.061.17-.052.28.009.32.18.656.333.987.498.213.108.213.112.396.016.307-.163.613-.33.92-.491.218-.114.24-.114.441-.012l3.65 1.86c1.346.684 2.696 1.361 4.04 2.051.084.043.156.036.235.046V21.54c-.079.01-.151.003-.235.046a366 366 0 0 1-4.764 2.406c-.265.132-.364.273-.361.578.014 2.124.003 4.25.013 6.374 0 .21-.06.323-.245.408-.355.165-.701.348-1.05.524q-.04.02-.078.043a1 1 0 0 1 .096.03c.378.195.754.394 1.136.584.068.034.064.049.016.086a1 1 0 0 1-.117.064c-.58.292-1.164.575-1.735.885-.26.142-.552.228-.777.434h-.072a2 2 0 0 0-.21-.145l-7.813-3.96-.069-.05q.032-.01.062-.026c.818-.415 1.637-.826 2.453-1.248a.44.44 0 0 1 .448 0c.372.199.751.384 1.127.575q.57-.284 1.138-.574c.031-.015.056-.07.08-.068.113.011.108-.058.108-.136 0-.452-.003-.904 0-1.355 0-.09-.038-.098-.112-.136-.624-.305-1.238-.628-1.856-.942q-2.992-1.52-5.987-3.035c-.101-.052-.155-.095-.153-.227.01-.756.003-1.513.006-2.27 0-.133-.032-.205-.168-.266-.336-.15-.654-.343-.987-.503-.144-.069-.233-.127-.227-.32.018-.548 0-1.098.012-1.646.004-.131-.058-.152-.144-.195-.768-.386-1.54-.771-2.303-1.167-.082-.043-.152-.035-.233-.046m16.203 11.473v-2.708c0-.084.018-.12-.102-.058-.745.383-1.5.747-2.251 1.118-.1.049-.244.079-.288.161-.055.106-.03.255-.036.386-.004.11 0 .22 0 .33q0 1.06.003 2.123c0 .097-.032.126-.121.168-.374.177-.738.376-1.104.568l-.068.048.062.027c.83.415 1.66.826 2.486 1.25.069.036.09.04.162 0q.549-.29 1.111-.549c.108-.048.152-.1.15-.227-.008-.88-.004-1.758-.004-2.637"/><g opacity=".7"><mask id="e" width="22" height="22" x="15.503" y="14.201" fill="#000" maskUnits="userSpaceOnUse"><path fill="#fff" d="M15.503 14.201h22v22h-22z"/><path fill-rule="evenodd" d="M20.64 17.406a.7.7 0 0 0-.99 0l-.941.94a.7.7 0 0 0 0 .991l6.265 6.266-6.266 6.264a.7.7 0 0 0 0 .99l.942.94a.7.7 0 0 0 .99 0l6.265-6.263 6.264 6.264a.7.7 0 0 0 .99 0l.94-.942a.7.7 0 0 0 0-.99l-6.262-6.263 6.266-6.263a.7.7 0 0 0 0-.99l-.942-.941a.7.7 0 0 0-.99 0l-6.265 6.263z" clip-rule="evenodd"/></mask><path fill="url(#d)" fill-rule="evenodd" d="M20.64 17.406a.7.7 0 0 0-.99 0l-.941.94a.7.7 0 0 0 0 .991l6.265 6.266-6.266 6.264a.7.7 0 0 0 0 .99l.942.94a.7.7 0 0 0 .99 0l6.265-6.263 6.264 6.264a.7.7 0 0 0 .99 0l.94-.942a.7.7 0 0 0 0-.99l-6.262-6.263 6.266-6.263a.7.7 0 0 0 0-.99l-.942-.941a.7.7 0 0 0-.99 0l-6.265 6.263z" clip-rule="evenodd"/><path fill="#000" d="m19.65 17.406-1.485-1.485zm.99 0-1.485 1.485zm-1.931.94-1.485-1.484zm0 .991-1.485 1.485zm6.265 6.266 1.485 1.485 1.485-1.485-1.485-1.485zm-6.266 6.264-1.485-1.486zm0 .99 1.485-1.486zm.942.94-1.485 1.486zm.99 0-1.485-1.485zm6.265-6.263 1.485-1.485-1.484-1.485-1.485 1.485zm6.264 6.264-1.485 1.485zm.99 0 1.485 1.485zm.94-.942 1.486 1.486zm0-.99-1.484 1.485zm-6.262-6.263-1.485-1.485-1.485 1.485 1.485 1.485zm6.266-6.263-1.485-1.485zm0-.99 1.484-1.485zm-.942-.941 1.485-1.485zm-.99 0-1.485-1.485zm-6.265 6.263-1.485 1.485 1.485 1.485 1.485-1.485zm-5.77-4.781a1.4 1.4 0 0 1-1.981 0l2.97-2.97a2.8 2.8 0 0 0-3.96 0zm-.942.94.941-.94-2.97-2.97-.941.941zm0-1.979a1.4 1.4 0 0 1 0 1.98l-2.97-2.97a2.8 2.8 0 0 0 0 3.96zm6.265 6.266-6.265-6.266-2.97 2.97 6.265 6.266zm-6.266 9.234 6.266-6.264-2.97-2.97-6.266 6.263zm0-1.98a1.4 1.4 0 0 1 0 1.98l-2.97-2.97a2.8 2.8 0 0 0 0 3.96zm.941.94-.941-.94-2.97 2.97.942.94zm-1.98 0a1.4 1.4 0 0 1 1.98 0l-2.97 2.97a2.8 2.8 0 0 0 3.96 0zm6.267-6.263-6.266 6.263 2.97 2.97 6.265-6.263zm9.233 6.264-6.264-6.264-2.97 2.97 6.264 6.264zm-1.98 0a1.4 1.4 0 0 1 1.98 0l-2.97 2.97a2.8 2.8 0 0 0 3.96 0zm.94-.941-.94.94 2.97 2.97.941-.94zm0 1.98a1.4 1.4 0 0 1 0-1.98l2.971 2.97a2.8 2.8 0 0 0 0-3.96zm-6.262-6.264 6.263 6.263 2.97-2.97-6.263-6.263zm6.266-9.233-6.266 6.263 2.97 2.97 6.265-6.263zm0 1.98a1.4 1.4 0 0 1 0-1.98l2.97 2.97a2.8 2.8 0 0 0 0-3.96zm-.942-.94.942.94 2.97-2.97-.942-.941zm1.98 0a1.4 1.4 0 0 1-1.98 0l2.97-2.971a2.8 2.8 0 0 0-3.96 0zm-6.265 6.262 6.265-6.263-2.97-2.97-6.265 6.262zm-9.236-6.266 6.266 6.266 2.97-2.97-6.266-6.266z" mask="url(#e)"/></g></g><g filter="url(#f)"><path fill="#e7cdcd" d="m45.78 26.5-3.428-12.363h1.962l2.408 9.575h.115l2.505-9.575h1.944l2.506 9.58h.114l2.403-9.58h1.968l-3.435 12.364h-1.877l-2.602-9.261h-.097l-2.602 9.26zm17.046.188q-1.304 0-2.276-.598a4.03 4.03 0 0 1-1.51-1.672q-.537-1.074-.537-2.511 0-1.443.538-2.524.537-1.08 1.509-1.678t2.276-.598 2.276.598a4 4 0 0 1 1.509 1.678q.537 1.08.537 2.524 0 1.436-.537 2.511a4.03 4.03 0 0 1-1.51 1.672q-.971.598-2.275.598m.006-1.515q.845 0 1.4-.447t.822-1.19a4.7 4.7 0 0 0 .271-1.635q0-.888-.272-1.63-.265-.75-.82-1.202-.556-.453-1.401-.453-.851 0-1.413.453-.555.453-.827 1.202a4.8 4.8 0 0 0-.265 1.63q0 .892.265 1.636.272.742.827 1.189.562.447 1.413.447m8.136-4.178v5.506h-1.805v-9.273h1.733v1.51h.114a2.65 2.65 0 0 1 1.003-1.184q.688-.447 1.732-.447.948 0 1.66.399.713.392 1.105 1.17.392.78.392 1.927V26.5h-1.805v-5.68q0-1.008-.525-1.576-.524-.573-1.443-.573-.627 0-1.116.271a1.95 1.95 0 0 0-.767.797q-.278.52-.278 1.256m9.907-6.858v1.16q0 .511-.193 1.08a4.6 4.6 0 0 1-.532 1.08q-.344.519-.809.894l-.893-.64q.356-.519.616-1.105.265-.584.265-1.292v-1.177zm6.43 3.091v1.449h-5.066v-1.449zm-3.708-2.222h1.806v8.772q0 .526.156.79a.82.82 0 0 0 .405.357q.253.09.55.09.215 0 .38-.03l.253-.048.326 1.491q-.157.06-.447.121a3.5 3.5 0 0 1-.724.072 3.2 3.2 0 0 1-1.328-.253 2.3 2.3 0 0 1-.996-.821q-.38-.555-.38-1.395zm17.151 4.486-1.636.29a2 2 0 0 0-.326-.598 1.6 1.6 0 0 0-.591-.465q-.375-.18-.936-.181-.767 0-1.28.344-.513.338-.513.875 0 .465.344.749.345.284 1.11.465l1.474.338q1.28.296 1.908.912.627.615.627 1.6a2.43 2.43 0 0 1-.483 1.484q-.476.647-1.334 1.015-.85.368-1.974.368-1.557 0-2.541-.664-.984-.67-1.208-1.902l1.745-.265q.163.681.67 1.032.507.345 1.322.344.888 0 1.419-.368.531-.375.531-.912a.95.95 0 0 0-.326-.73q-.32-.296-.984-.447l-1.57-.344q-1.297-.296-1.92-.942-.615-.645-.615-1.636 0-.82.459-1.437.459-.615 1.267-.96.81-.35 1.854-.35 1.503 0 2.366.652.864.645 1.141 1.733m8.04 3.163v-5.427h1.811v9.273h-1.775v-1.606h-.096a2.9 2.9 0 0 1-1.027 1.237q-.7.49-1.744.49-.894 0-1.582-.393-.682-.399-1.075-1.177-.386-.78-.386-1.926v-5.898h1.805v5.68q0 .95.525 1.51.525.561 1.365.561.507 0 1.008-.253.507-.255.839-.767.338-.513.332-1.304m4.236 7.323v-12.75h1.763v1.503h.151a5 5 0 0 1 .453-.67 2.6 2.6 0 0 1 .821-.664q.525-.29 1.388-.29 1.123 0 2.005.568.88.567 1.382 1.636.507 1.069.507 2.571 0 1.504-.501 2.578-.501 1.07-1.376 1.648-.876.574-1.998.574-.846 0-1.383-.284a2.6 2.6 0 0 1-.833-.664 5 5 0 0 1-.465-.676h-.109v4.92zm1.769-8.114q0 .978.284 1.715.284.736.821 1.153.537.41 1.316.41.809 0 1.352-.428.544-.435.821-1.177.285-.743.284-1.673 0-.916-.278-1.648-.271-.73-.821-1.153-.543-.422-1.358-.422-.785 0-1.328.404-.537.405-.815 1.129t-.278 1.69m8.724 8.114v-12.75h1.762v1.503h.151a5 5 0 0 1 .453-.67 2.6 2.6 0 0 1 .821-.664q.525-.29 1.389-.29 1.122 0 2.004.568.88.567 1.382 1.636.507 1.069.507 2.571 0 1.504-.501 2.578-.5 1.07-1.376 1.648-.876.574-1.998.574-.846 0-1.383-.284a2.6 2.6 0 0 1-.833-.664 5 5 0 0 1-.465-.676h-.108v4.92zm1.768-8.114q0 .978.284 1.715.284.736.821 1.153.537.41 1.316.41.81 0 1.353-.428.542-.435.821-1.177.283-.743.283-1.673 0-.916-.277-1.648-.273-.73-.821-1.153-.544-.422-1.359-.422-.785 0-1.328.404-.537.405-.815 1.129t-.278 1.69m12.63 4.824q-1.304 0-2.276-.598a4.03 4.03 0 0 1-1.509-1.672q-.538-1.074-.538-2.511 0-1.443.538-2.524a4 4 0 0 1 1.509-1.678q.971-.597 2.276-.598 1.304 0 2.276.598a4 4 0 0 1 1.509 1.678q.537 1.08.537 2.524 0 1.436-.537 2.511a4.03 4.03 0 0 1-1.509 1.672q-.972.598-2.276.598m.006-1.515q.845 0 1.4-.447.556-.447.821-1.19.272-.742.272-1.635 0-.888-.272-1.63-.265-.75-.821-1.202-.555-.453-1.4-.453-.852 0-1.413.453-.555.453-.827 1.202a4.8 4.8 0 0 0-.266 1.63q0 .892.266 1.636.272.742.827 1.189.561.447 1.413.447m6.331 1.328v-9.273h1.745v1.473h.096q.254-.75.894-1.177.645-.435 1.461-.435a8 8 0 0 1 .766.042v1.727a3 3 0 0 0-.386-.067 4 4 0 0 0-.555-.042q-.64 0-1.141.272a2.02 2.02 0 0 0-1.075 1.817v5.663zm11.401-9.273v1.449h-5.065v-1.449zm-3.707-2.222h1.805v8.772q0 .526.157.79.157.261.405.357.254.09.549.09.218 0 .38-.03l.254-.048.326 1.491q-.157.06-.447.121a3.5 3.5 0 0 1-.724.072 3.2 3.2 0 0 1-1.329-.253 2.3 2.3 0 0 1-.996-.821q-.38-.555-.38-1.395z"/><path fill="#4e84c4" d="M161.937 26.5V14.138h2.988v9.937h5.144V26.5zm9.679 0v-9.272h2.952v9.273zm1.479-10.353q-.622 0-1.069-.41a1.32 1.32 0 0 1-.446-1.002q0-.58.446-.99a1.5 1.5 0 0 1 1.069-.417q.629 0 1.068.417.447.41.447.99 0 .585-.447 1.002-.44.41-1.068.41m8.586 1.081v2.173h-5.85v-2.173zm-4.624-2.222h2.952v8.579q0 .272.084.44a.53.53 0 0 0 .26.236q.169.066.404.066.17 0 .356-.03.194-.036.29-.06l.447 2.13q-.211.061-.598.152-.38.09-.911.115-1.038.048-1.781-.242a2.3 2.3 0 0 1-1.129-.918q-.387-.621-.374-1.563zm10.365 11.67q-1.455 0-2.511-.574a3.96 3.96 0 0 1-1.618-1.648q-.561-1.074-.562-2.553 0-1.437.568-2.512.567-1.08 1.6-1.678 1.032-.603 2.433-.604.99 0 1.811.308a3.9 3.9 0 0 1 1.418.912q.599.604.93 1.49.332.882.332 2.023v.737h-8.059v-1.715h5.312a1.66 1.66 0 0 0-.223-.839 1.5 1.5 0 0 0-.598-.573 1.7 1.7 0 0 0-.863-.212q-.495 0-.888.224a1.68 1.68 0 0 0-.863 1.449v1.744q0 .567.224.996.223.423.633.658t.978.236q.392 0 .713-.109.32-.108.549-.32.23-.21.344-.52l2.711.08a3.35 3.35 0 0 1-.743 1.587q-.567.67-1.491 1.044-.924.369-2.137.369m5.909-.175V14.137h2.988v9.937h5.143V26.5zm14.007.175q-1.461 0-2.511-.598a4.1 4.1 0 0 1-1.612-1.678q-.562-1.08-.562-2.505 0-1.431.562-2.506a4.07 4.07 0 0 1 1.612-1.678q1.05-.603 2.511-.604 1.461 0 2.505.604a4 4 0 0 1 1.612 1.678q.567 1.075.568 2.506 0 1.424-.568 2.505a4.07 4.07 0 0 1-1.612 1.678q-1.044.598-2.505.598m.018-2.228q.531 0 .9-.326.368-.326.561-.905.2-.58.199-1.34 0-.773-.199-1.353-.193-.58-.561-.905a1.3 1.3 0 0 0-.9-.326q-.549 0-.93.326-.373.326-.573.905-.193.58-.193 1.352 0 .762.193 1.34.2.58.573.906.381.326.93.326m8.793 2.21q-.888 0-1.576-.296a2.45 2.45 0 0 1-1.08-.906q-.393-.609-.393-1.527 0-.773.272-1.304.271-.531.748-.863a3.5 3.5 0 0 1 1.099-.501 7 7 0 0 1 1.328-.236q.79-.072 1.274-.15.483-.086.7-.236a.51.51 0 0 0 .224-.44v-.031q0-.465-.32-.718-.32-.255-.864-.254-.585 0-.941.254a1.1 1.1 0 0 0-.453.7l-2.723-.097a3.2 3.2 0 0 1 .622-1.509q.507-.67 1.389-1.05.887-.387 2.131-.387.887 0 1.636.212.748.205 1.304.603.555.393.857.966.308.574.308 1.31v6.303h-2.777v-1.292h-.073q-.247.471-.634.797-.38.325-.899.489a3.8 3.8 0 0 1-1.159.163m.911-1.932q.477 0 .858-.193.386-.194.615-.532.23-.344.23-.797v-.88a2 2 0 0 1-.308.12q-.176.054-.386.103-.212.048-.435.084l-.429.066a2.7 2.7 0 0 0-.712.206 1.13 1.13 0 0 0-.447.362.9.9 0 0 0-.151.52q0 .457.326.7.333.24.839.24m9.822 1.908a3.4 3.4 0 0 1-1.865-.532q-.839-.531-1.34-1.593-.501-1.063-.501-2.639 0-1.636.519-2.692.52-1.056 1.358-1.564a3.47 3.47 0 0 1 1.817-.507q.73 0 1.25.254.52.247.857.64.339.392.513.815h.061v-4.679h2.952V26.5h-2.922v-1.504h-.091a2.9 2.9 0 0 1-.531.803q-.344.375-.863.604-.513.23-1.214.23m1.027-2.3q.537 0 .917-.302.38-.308.586-.864.205-.555.205-1.304 0-.76-.205-1.31-.2-.55-.586-.845a1.45 1.45 0 0 0-.917-.296q-.549 0-.93.302-.38.302-.579.851-.194.55-.194 1.298 0 .75.2 1.304.199.555.573.864.381.3.93.301m10.795 2.342q-1.455 0-2.511-.574a3.97 3.97 0 0 1-1.618-1.648q-.561-1.074-.561-2.553 0-1.437.567-2.512.568-1.08 1.6-1.678 1.032-.603 2.433-.604.99 0 1.811.308.82.308 1.419.912.597.604.929 1.49.332.882.332 2.023v.737h-8.059V20.86h5.312a1.66 1.66 0 0 0-.223-.839 1.5 1.5 0 0 0-.598-.573 1.7 1.7 0 0 0-.863-.212q-.495 0-.887.224a1.68 1.68 0 0 0-.864 1.449v1.744q0 .567.224.996.223.423.634.658.41.236.978.236.392 0 .712-.109.32-.108.549-.32.23-.21.344-.52l2.711.08a3.35 3.35 0 0 1-.743 1.587q-.567.67-1.491 1.044-.923.369-2.137.369m5.909-.175v-9.273h2.867v1.69h.097q.254-.917.827-1.364a2.1 2.1 0 0 1 1.334-.453q.206 0 .423.03.218.025.404.079v2.566a3 3 0 0 0-.555-.115 5 5 0 0 0-.604-.042q-.525 0-.948.235a1.7 1.7 0 0 0-.658.646 1.9 1.9 0 0 0-.235.966V26.5z"/></g></g><rect width="256.858" height="37.858" x="1.071" y="1.071" stroke="#fff" stroke-opacity=".15" stroke-width="2.143" rx="6.929"/><defs><linearGradient id="b" x1="129.501" x2="129.501" y1="0" y2="40.001" gradientUnits="userSpaceOnUse"><stop stop-color="#2c1b1b"/><stop offset="1" stop-color="#1f1414"/></linearGradient><linearGradient id="d" x1="26.905" x2="26.905" y1="17.201" y2="34.003" gradientUnits="userSpaceOnUse"><stop stop-color="red"/><stop offset="1" stop-color="#c00"/></linearGradient><filter id="c" width="40.608" height="41.304" x="2.4" y=".4" color-interpolation-filters="sRGB" filterUnits="userSpaceOnUse"><feFlood flood-opacity="0" result="BackgroundImageFix"/><feColorMatrix in="SourceAlpha" result="hardAlpha" values="0 0 0 0 0 0 0 0 0 0 0 0 0 0 0 0 0 0 127 0"/><feOffset/><feGaussianBlur stdDeviation="2.8"/><feComposite in2="hardAlpha" operator="out"/><feColorMatrix values="0 0 0 0 0 0 0 0 0 0 0 0 0 0 0 0 0 0 0.25 0"/><feBlend in2="BackgroundImageFix" result="effect1_dropShadow_28_3094"/><feBlend in="SourceGraphic" in2="effect1_dropShadow_28_3094" result="shape"/></filter><filter id="f" width="220.429" height="32.429" x="36.287" y="3.786" color-interpolation-filters="sRGB" filterUnits="userSpaceOnUse"><feFlood flood-opacity="0" result="BackgroundImageFix"/><feColorMatrix in="SourceAlpha" result="hardAlpha" values="0 0 0 0 0 0 0 0 0 0 0 0 0 0 0 0 0 0 127 0"/><feOffset/><feGaussianBlur stdDeviation="2.857"/><feComposite in2="hardAlpha" operator="out"/><feColorMatrix values="0 0 0 0 0 0 0 0 0 0 0 0 0 0 0 0 0 0 0.25 0"/><feBlend in2="BackgroundImageFix" result="effect1_dropShadow_28_3094"/><feBlend in="SourceGraphic" in2="effect1_dropShadow_28_3094" result="shape"/></filter><clipPath id="a"><rect width="259.001" height="40.001" fill="#fff" rx="8"/></clipPath></defs></svg>