<svg xmlns="http://www.w3.org/2000/svg" width="210" height="40" fill="none" viewBox="0 0 210 40"><g clip-path="url(#a)"><rect width="210.001" height="40.001" fill="url(#b)" rx="8"/><g filter="url(#c)"><path fill="#9722ff" d="M15.786 9.876a.495.495 0 0 0 .495.495h.841v1.88h-.841a.495.495 0 1 0 0 .99h.841v1.442a.44.44 0 0 1-.438.439H15.24v-.842a.495.495 0 1 0-.99 0v.842h-1.88v-.842a.495.495 0 1 0-.99 0v.842H9.94a.44.44 0 0 1-.439-.439V7.938A.44.44 0 0 1 9.94 7.5h6.745a.44.44 0 0 1 .438.438V9.38h-.841a.495.495 0 0 0-.495.496"/><path fill="#dc29dd" d="M24.396 9.876a.495.495 0 0 0 .494.495h.844v1.88h-.841a.495.495 0 1 0 0 .99h.841v1.442a.44.44 0 0 1-.438.439H18.55a.44.44 0 0 1-.438-.439v-1.442h.84a.495.495 0 1 0 0-.99h-.84v-1.88h.84a.494.494 0 0 0 .36-.851.5.5 0 0 0-.36-.14h-.84V7.938a.44.44 0 0 1 .438-.438h6.745a.44.44 0 0 1 .438.438V9.38h-.841a.494.494 0 0 0-.496.496"/><path fill="#27a2fd" d="M34.345 7.938v6.745a.44.44 0 0 1-.439.439h-1.442v-.842a.495.495 0 0 0-.99 0v.842h-1.88v-.842a.495.495 0 1 0-.99 0v.842h-1.442a.44.44 0 0 1-.439-.439v-1.442h.842a.495.495 0 1 0 0-.99h-.842v-1.88h.842a.495.495 0 0 0 0-.99h-.842V7.937a.44.44 0 0 1 .439-.438h6.744a.44.44 0 0 1 .439.438"/><path fill="#dc29dd" d="M17.122 16.55v6.745a.44.44 0 0 1-.438.438H15.24v-.841a.495.495 0 1 0-.99 0v.842h-1.88v-.842a.494.494 0 1 0-.99 0v.842H9.94a.44.44 0 0 1-.439-.438V16.55a.44.44 0 0 1 .439-.439h1.442v.842a.495.495 0 1 0 .99 0v-.842h1.88v.842a.495.495 0 1 0 .99 0v-.842h1.443a.44.44 0 0 1 .438.439"/><path fill="#27a2fd" d="M24.396 18.487a.495.495 0 0 0 .494.495h.844v1.88h-.841a.495.495 0 1 0 0 .99h.841v1.443a.44.44 0 0 1-.438.438h-1.443v-.841a.495.495 0 1 0-.99 0v.842h-1.88v-.842a.495.495 0 0 0-.99 0v.842H18.55a.44.44 0 0 1-.438-.438V16.55a.44.44 0 0 1 .438-.439h6.745a.44.44 0 0 1 .438.439v1.442h-.841a.494.494 0 0 0-.496.495"/><path fill="#34f" d="M34.345 16.55v6.745a.44.44 0 0 1-.439.438h-6.744a.44.44 0 0 1-.439-.438v-1.443h.842a.495.495 0 1 0 0-.99h-.842v-1.88h.842a.495.495 0 1 0 0-.99h-.842V16.55a.44.44 0 0 1 .439-.439h1.441v.842a.495.495 0 1 0 .99 0v-.842h1.88v.842a.495.495 0 1 0 .99 0v-.842h1.442a.436.436 0 0 1 .44.439"/><path fill="#9722ff" d="M15.786 27.099a.495.495 0 0 0 .495.495h.841v1.88h-.841a.495.495 0 0 0 0 .99h.841v1.442a.44.44 0 0 1-.438.439H9.939a.44.44 0 0 1-.439-.439v-6.744a.44.44 0 0 1 .439-.439h1.442v.841a.495.495 0 1 0 .99 0v-.84h1.88v.84a.495.495 0 1 0 .99 0v-.84h1.443a.44.44 0 0 1 .438.438v1.44h-.841a.5.5 0 0 0-.495.497"/><path fill="#34f" d="M25.734 25.162v6.744a.44.44 0 0 1-.438.439H18.55a.44.44 0 0 1-.438-.439v-1.442h.84a.496.496 0 1 0 0-.99h-.84v-1.88h.84a.494.494 0 0 0 .36-.851.5.5 0 0 0-.36-.14h-.84v-1.441a.44.44 0 0 1 .438-.439h1.442v.841a.495.495 0 1 0 .99 0v-.84h1.881v.84a.494.494 0 1 0 .99 0v-.84h1.442a.44.44 0 0 1 .44.438"/><path fill="#9722ff" d="m31.802 25.033-4.769 4.77a.44.44 0 0 0 0 .62l4.77 4.768a.44.44 0 0 0 .62 0l4.769-4.769a.44.44 0 0 0 0-.62l-4.77-4.77a.44.44 0 0 0-.62 0"/><g opacity=".7"><mask id="e" width="22" height="22" x="15.503" y="14.201" fill="#000" maskUnits="userSpaceOnUse"><path fill="#fff" d="M15.503 14.201h22v22h-22z"/><path fill-rule="evenodd" d="M20.64 17.406a.7.7 0 0 0-.99 0l-.941.941a.7.7 0 0 0 0 .99l6.265 6.266-6.266 6.264a.7.7 0 0 0 0 .99l.942.94a.7.7 0 0 0 .99 0l6.265-6.263 6.264 6.264a.7.7 0 0 0 .99 0l.94-.942a.7.7 0 0 0 0-.99l-6.262-6.263 6.266-6.263a.7.7 0 0 0 0-.99l-.942-.941a.7.7 0 0 0-.99 0l-6.265 6.263z" clip-rule="evenodd"/></mask><path fill="url(#d)" fill-rule="evenodd" d="M20.64 17.406a.7.7 0 0 0-.99 0l-.941.941a.7.7 0 0 0 0 .99l6.265 6.266-6.266 6.264a.7.7 0 0 0 0 .99l.942.94a.7.7 0 0 0 .99 0l6.265-6.263 6.264 6.264a.7.7 0 0 0 .99 0l.94-.942a.7.7 0 0 0 0-.99l-6.262-6.263 6.266-6.263a.7.7 0 0 0 0-.99l-.942-.941a.7.7 0 0 0-.99 0l-6.265 6.263z" clip-rule="evenodd"/><path fill="#000" d="m19.65 17.406-1.485-1.485zm.99 0-1.485 1.485zm-1.931.941-1.485-1.485zm0 .99-1.485 1.485zm6.265 6.266 1.485 1.485 1.485-1.485-1.485-1.485zm-6.266 6.264-1.485-1.486zm0 .99-1.485 1.485zm.942.94 1.484-1.485zm.99 0-1.485-1.485zm6.265-6.263 1.485-1.485-1.484-1.485-1.485 1.485zm6.264 6.264-1.485 1.485zm.99 0 1.485 1.485zm.94-.942 1.486 1.486zm0-.99-1.484 1.485zm-6.262-6.263-1.485-1.485-1.485 1.485 1.485 1.485zm6.266-6.263-1.485-1.485zm0-.99 1.484-1.485zm-.942-.941 1.485-1.485zm-.99 0-1.485-1.485zm-6.265 6.263-1.485 1.485 1.485 1.485 1.485-1.485zm-5.77-4.781a1.4 1.4 0 0 1-1.981 0l2.97-2.97a2.8 2.8 0 0 0-3.96 0zm-.942.94.941-.94-2.97-2.97-.941.941zm0-1.979a1.4 1.4 0 0 1 0 1.98l-2.97-2.97a2.8 2.8 0 0 0 0 3.96zm6.265 6.266-6.265-6.266-2.97 2.97 6.265 6.266zm-6.266 9.234 6.266-6.264-2.97-2.97-6.266 6.263zm0-1.98a1.4 1.4 0 0 1 0 1.98l-2.97-2.97a2.8 2.8 0 0 0 0 3.96zm.941.94-.941-.94-2.97 2.97.942.94zm-1.98 0a1.4 1.4 0 0 1 1.98 0l-2.97 2.97a2.8 2.8 0 0 0 3.96 0zm6.267-6.263-6.266 6.263 2.97 2.97 6.265-6.263zm9.233 6.264-6.264-6.264-2.97 2.97 6.264 6.264zm-1.98 0a1.4 1.4 0 0 1 1.98 0l-2.97 2.97a2.8 2.8 0 0 0 3.96 0zm.94-.941-.94.94 2.97 2.97.941-.94zm0 1.98a1.4 1.4 0 0 1 0-1.98l2.971 2.97a2.8 2.8 0 0 0 0-3.96zm-6.262-6.264 6.263 6.263 2.97-2.97-6.263-6.263zm6.266-9.233-6.266 6.263 2.97 2.97 6.265-6.263zm0 1.98a1.4 1.4 0 0 1 0-1.98l2.97 2.97a2.8 2.8 0 0 0 0-3.96zm-.942-.94.942.94 2.97-2.97-.942-.941zm1.98 0a1.4 1.4 0 0 1-1.98 0l2.97-2.971a2.8 2.8 0 0 0-3.96 0zm-6.265 6.262 6.265-6.263-2.97-2.97-6.265 6.262zm-9.236-6.266 6.266 6.266 2.97-2.97-6.266-6.266z" mask="url(#e)"/></g></g><g filter="url(#f)"><path fill="#e7cdcd" d="m45.78 26.5-3.428-12.363h1.962l2.408 9.575h.115l2.505-9.575h1.944l2.506 9.58h.114l2.403-9.58h1.968l-3.435 12.364h-1.877l-2.602-9.261h-.097l-2.602 9.26zm17.046.188q-1.304 0-2.276-.598a4.03 4.03 0 0 1-1.51-1.672q-.537-1.074-.537-2.511 0-1.443.538-2.524.537-1.08 1.509-1.678t2.276-.598 2.276.598a4 4 0 0 1 1.509 1.678q.537 1.08.537 2.524 0 1.436-.537 2.511a4.03 4.03 0 0 1-1.51 1.672q-.971.598-2.275.598m.006-1.515q.845 0 1.4-.447t.822-1.19a4.7 4.7 0 0 0 .271-1.635q0-.888-.272-1.63-.265-.75-.82-1.202-.556-.453-1.401-.453-.851 0-1.413.453-.555.453-.827 1.202a4.8 4.8 0 0 0-.265 1.63q0 .892.265 1.636.272.742.827 1.189.562.447 1.413.447m8.136-4.178v5.506h-1.805v-9.273h1.733v1.51h.114a2.65 2.65 0 0 1 1.003-1.184q.688-.447 1.732-.447.948 0 1.66.399.713.392 1.105 1.17.392.78.392 1.927V26.5h-1.805v-5.68q0-1.008-.525-1.576-.524-.573-1.443-.573-.627 0-1.116.271a1.95 1.95 0 0 0-.767.797q-.278.52-.278 1.256m9.907-6.858v1.16q0 .511-.193 1.08a4.6 4.6 0 0 1-.532 1.08q-.344.519-.809.894l-.893-.64q.356-.519.616-1.105.265-.584.265-1.292v-1.177zm6.43 3.091v1.449h-5.066v-1.449zm-3.708-2.222h1.806v8.772q0 .526.156.79a.82.82 0 0 0 .405.357q.253.09.55.09.215 0 .38-.03l.253-.048.326 1.491q-.157.06-.447.121a3.5 3.5 0 0 1-.724.072 3.2 3.2 0 0 1-1.328-.253 2.3 2.3 0 0 1-.996-.821q-.38-.555-.38-1.395zm17.151 4.486-1.636.29a2 2 0 0 0-.326-.598 1.6 1.6 0 0 0-.591-.465q-.375-.18-.936-.181-.767 0-1.28.344-.513.338-.513.875 0 .465.344.749.345.284 1.11.465l1.474.338q1.28.296 1.908.912.627.615.627 1.6a2.43 2.43 0 0 1-.483 1.484q-.476.647-1.334 1.015-.85.368-1.974.368-1.557 0-2.541-.664-.984-.67-1.208-1.902l1.745-.265q.163.681.67 1.032.507.345 1.322.344.888 0 1.419-.368.531-.375.531-.912a.95.95 0 0 0-.326-.73q-.32-.296-.984-.447l-1.57-.344q-1.297-.296-1.92-.942-.615-.645-.615-1.636 0-.82.459-1.437.459-.615 1.267-.96.81-.35 1.854-.35 1.503 0 2.366.652.864.645 1.141 1.733m8.04 3.163v-5.427h1.811v9.273h-1.775v-1.606h-.096a2.9 2.9 0 0 1-1.027 1.237q-.7.49-1.744.49-.894 0-1.582-.393-.682-.399-1.075-1.177-.386-.78-.386-1.926v-5.898h1.805v5.68q0 .95.525 1.51.525.561 1.365.561.507 0 1.008-.253.507-.255.839-.767.338-.513.332-1.304m4.236 7.323v-12.75h1.763v1.503h.151a5 5 0 0 1 .453-.67 2.6 2.6 0 0 1 .821-.664q.525-.29 1.388-.29 1.123 0 2.005.568.88.567 1.382 1.636.507 1.069.507 2.571 0 1.504-.501 2.578-.501 1.07-1.376 1.648-.876.574-1.998.574-.846 0-1.383-.284a2.6 2.6 0 0 1-.833-.664 5 5 0 0 1-.465-.676h-.109v4.92zm1.769-8.114q0 .978.284 1.715.284.736.821 1.153.537.41 1.316.41.809 0 1.352-.428.544-.435.821-1.177.285-.743.284-1.673 0-.916-.278-1.648-.271-.73-.821-1.153-.543-.422-1.358-.422-.785 0-1.328.404-.537.405-.815 1.129t-.278 1.69m8.724 8.114v-12.75h1.762v1.503h.151a5 5 0 0 1 .453-.67 2.6 2.6 0 0 1 .821-.664q.525-.29 1.389-.29 1.122 0 2.004.568.88.567 1.382 1.636.507 1.069.507 2.571 0 1.504-.501 2.578-.5 1.07-1.376 1.648-.876.574-1.998.574-.846 0-1.383-.284a2.6 2.6 0 0 1-.833-.664 5 5 0 0 1-.465-.676h-.108v4.92zm1.768-8.114q0 .978.284 1.715.284.736.821 1.153.537.41 1.316.41.81 0 1.353-.428.542-.435.821-1.177.283-.743.283-1.673 0-.916-.277-1.648-.273-.73-.821-1.153-.544-.422-1.359-.422-.785 0-1.328.404-.537.405-.815 1.129t-.278 1.69m12.63 4.824q-1.304 0-2.276-.598a4.03 4.03 0 0 1-1.509-1.672q-.538-1.074-.538-2.511 0-1.443.538-2.524a4 4 0 0 1 1.509-1.678q.971-.597 2.276-.598 1.304 0 2.276.598a4 4 0 0 1 1.509 1.678q.537 1.08.537 2.524 0 1.436-.537 2.511a4.03 4.03 0 0 1-1.509 1.672q-.972.598-2.276.598m.006-1.515q.845 0 1.4-.447.556-.447.821-1.19.272-.742.272-1.635 0-.888-.272-1.63-.265-.75-.821-1.202-.555-.453-1.4-.453-.852 0-1.413.453-.555.453-.827 1.202a4.8 4.8 0 0 0-.266 1.63q0 .892.266 1.636.272.742.827 1.189.561.447 1.413.447m6.331 1.328v-9.273h1.745v1.473h.096q.254-.75.894-1.177.645-.435 1.461-.435a8 8 0 0 1 .766.042v1.727a3 3 0 0 0-.386-.067 4 4 0 0 0-.555-.042q-.64 0-1.141.272a2.02 2.02 0 0 0-1.075 1.817v5.663zm11.401-9.273v1.449h-5.065v-1.449zm-3.707-2.222h1.805v8.772q0 .526.157.79.157.261.405.357.254.09.549.09.218 0 .38-.03l.254-.048.326 1.491q-.157.06-.447.121a3.5 3.5 0 0 1-.724.072 3.2 3.2 0 0 1-1.329-.253 2.3 2.3 0 0 1-.996-.821q-.38-.555-.38-1.395z"/><path fill="url(#g)" d="M166.664 22.058h2.415l1.026 1.31 1.346 1.545 2.071 2.554h-2.704l-1.449-1.733-.858-1.232zm6.943-1.74q0 2.041-.785 3.46t-2.125 2.155q-1.335.737-2.995.737-1.665 0-3-.743-1.334-.742-2.119-2.155-.779-1.419-.779-3.453 0-2.04.779-3.46.785-1.418 2.119-2.155t3-.736q1.66 0 2.995.736 1.34.737 2.125 2.156.785 1.418.785 3.459m-3.055 0q0-1.206-.344-2.04-.339-.833-.978-1.261-.634-.429-1.528-.429-.887 0-1.527.429-.64.428-.984 1.261-.338.834-.338 2.04 0 1.209.338 2.041.344.834.984 1.262t1.527.429q.894 0 1.528-.429.639-.428.978-1.262.344-.832.344-2.04m10.798 2.18v-5.27h2.946v9.273h-2.813v-1.727h-.096a2.7 2.7 0 0 1-1.051 1.352q-.736.495-1.781.495-.948 0-1.666-.434a2.96 2.96 0 0 1-1.117-1.214q-.398-.785-.404-1.835v-5.91h2.952v5.33q.006.756.398 1.19.393.434 1.069.434.44 0 .791-.193a1.43 1.43 0 0 0 .561-.573q.211-.381.211-.918m4.825 4.003V17.23h2.953v9.273zm1.48-10.354q-.622 0-1.069-.41a1.32 1.32 0 0 1-.447-1.002q0-.58.447-.99a1.5 1.5 0 0 1 1.069-.417q.627 0 1.068.417.447.41.447.99 0 .585-.447 1.002-.441.41-1.068.41m6.304-2.01v12.364h-2.952V14.137zm7.113 3.091v2.173h-5.85V17.23zm-4.625-2.222h2.952v8.579q0 .272.085.44.09.165.259.236.17.066.405.066.169 0 .356-.03.193-.036.29-.06l.447 2.13q-.211.061-.598.152a5 5 0 0 1-.912.115q-1.038.048-1.781-.242a2.3 2.3 0 0 1-1.128-.918q-.387-.621-.375-1.563z"/></g></g><rect width="207.858" height="37.858" x="1.071" y="1.071" stroke="#fff" stroke-opacity=".15" stroke-width="2.143" rx="6.929"/><defs><linearGradient id="b" x1="105.001" x2="105.001" y1="0" y2="40.001" gradientUnits="userSpaceOnUse"><stop stop-color="#2c1b1b"/><stop offset="1" stop-color="#1f1414"/></linearGradient><linearGradient id="d" x1="26.905" x2="26.905" y1="17.201" y2="34.003" gradientUnits="userSpaceOnUse"><stop stop-color="red"/><stop offset="1" stop-color="#c00"/></linearGradient><linearGradient id="g" x1="161.001" x2="202.001" y1="9.501" y2="9.501" gradientUnits="userSpaceOnUse"><stop stop-color="#e17be1"/><stop offset="1" stop-color="#98a1ff"/></linearGradient><filter id="c" width="40.608" height="41.304" x="2.4" y=".4" color-interpolation-filters="sRGB" filterUnits="userSpaceOnUse"><feFlood flood-opacity="0" result="BackgroundImageFix"/><feColorMatrix in="SourceAlpha" result="hardAlpha" values="0 0 0 0 0 0 0 0 0 0 0 0 0 0 0 0 0 0 127 0"/><feOffset/><feGaussianBlur stdDeviation="2.8"/><feComposite in2="hardAlpha" operator="out"/><feColorMatrix values="0 0 0 0 0 0 0 0 0 0 0 0 0 0 0 0 0 0 0.25 0"/><feBlend in2="BackgroundImageFix" result="effect1_dropShadow_28_3106"/><feBlend in="SourceGraphic" in2="effect1_dropShadow_28_3106" result="shape"/></filter><filter id="f" width="171.429" height="32.429" x="36.287" y="3.786" color-interpolation-filters="sRGB" filterUnits="userSpaceOnUse"><feFlood flood-opacity="0" result="BackgroundImageFix"/><feColorMatrix in="SourceAlpha" result="hardAlpha" values="0 0 0 0 0 0 0 0 0 0 0 0 0 0 0 0 0 0 127 0"/><feOffset/><feGaussianBlur stdDeviation="2.857"/><feComposite in2="hardAlpha" operator="out"/><feColorMatrix values="0 0 0 0 0 0 0 0 0 0 0 0 0 0 0 0 0 0 0.25 0"/><feBlend in2="BackgroundImageFix" result="effect1_dropShadow_28_3106"/><feBlend in="SourceGraphic" in2="effect1_dropShadow_28_3106" result="shape"/></filter><clipPath id="a"><rect width="210.001" height="40.001" fill="#fff" rx="8"/></clipPath></defs></svg>