<svg xmlns="http://www.w3.org/2000/svg" width="225" height="40" fill="none" viewBox="0 0 225 40"><g clip-path="url(#a)"><rect width="225.001" height="40.001" fill="url(#b)" rx="8"/><g filter="url(#c)"><path fill="url(#d)" fill-rule="evenodd" d="M22.526 8.059c-.312.1-.55.28-.822.618-.076.095-.207.129-.378.097-.202-.039-.97-.088-2.982-.193-.588-.031-.707-.014-.813.113-.252.305-.184 1.288.104 1.502.082.06.529.07.968.02.237-.028.473-.052 1.015-.105l.495-.048.631-.063c.211-.02.521-.066.689-.101l.305-.064.09.062c.267.178.34.307.303.531-.072.42-.08.652-.069 2.136.013 1.832.056 1.67-.451 1.71-.317.025-.44.115-.496.363-.027.118-.02 1.249.008 1.557.018.194-.134.304-.482.35-.342.044-.425.24-.352.834.016.129-.062.233-.264.351a.335.335 0 0 0-.078.515c.157.165.165.248.04.428-.13.188-.132.218-.133 1.366-.002 1.154-.017 1.342-.118 1.493-.147.22-.868.883-1.038.957-.051.022-.49.034-1.666.046-.878.008-1.627.024-1.664.034-.151.042-.29-.007-.426-.147-.189-.196-.167-.193-1.462-.18-1.271.014-1.258.015-1.289-.166a1.4 1.4 0 0 0-.137-.45c-.157-.343-.296-.41-.735-.355-.28.035-.343.111-.412.496-.085.483-.175.584-.431.487-.169-.064-.194-.065-.857-.042a1 1 0 0 1-.165-.014.4.4 0 0 0-.186.016 1.3 1.3 0 0 1-.28.037c-.457.014-.533.038-.638.197-.23.35-.425 2.31-.322 3.245.117 1.066.265 1.57.485 1.662.302.125 1.609.183 1.952.086l.177-.05.08.056c.103.074.16.206.209.493.06.345.12.422.374.47.174.033.408.02.514-.028.222-.101.346-.794.212-1.182-.077-.222-.02-.275.081-.075.143.28.289.31 1.603.31 1.19 0 1.105.02 1.271-.308.134-.263.195-.312.383-.305.078.003.698.015 1.378.026 1.358.023 1.23.008 1.659.197 1.124.495 2.355.774 3.898.883.848.06 2.015.035 2.747-.06 1.316-.17 2.184-.39 3.081-.779.654-.283.944-.133 1.079.559.105.54.08.62-.237.749-.447.181-.724.368-.79.532-.047.118-.025.249.103.604.034.095.066.234.07.309.011.212.033.299.108.433.039.068.077.18.086.247.02.157.08.342.151.468.034.06.062.163.071.263.045.465.246.6 1.005.676.089.009.187.02.22.025 1.542.236 3.673-.408 5.205-1.573.715-.544.894-.802.755-1.082a.6.6 0 0 1-.042-.213.9.9 0 0 0-.15-.464.4.4 0 0 1-.061-.173 1.2 1.2 0 0 0-.149-.419.3.3 0 0 1-.036-.132.8.8 0 0 0-.129-.358.8.8 0 0 1-.082-.186c-.101-.34-.677-.546-1.261-.45-.5.081-.535.063-.68-.361-.46-1.35-1.086-2.346-1.81-2.88-.276-.204-.379-.25-1.409-.642-1.01-.385-1.265-.492-1.728-.727a11 11 0 0 1-.68-.37c-1.495-.963-1.334-.71-1.389-2.17-.036-.982-.044-1.02-.236-1.175-.157-.125-.18-.183-.136-.345.075-.28.035-.403-.172-.544-.162-.11-.185-.158-.16-.336.085-.602-.012-.818-.385-.859-.226-.024-.32-.054-.385-.123l-.058-.062-.002-.883c-.003-1.172.005-1.154-.534-1.18-.386-.02-.475-.041-.555-.137l-.064-.075v-1.659c0-.964-.011-1.75-.026-1.878-.03-.258-.026-.266.204-.482.175-.164.286-.231.354-.213.398.109.334.103 2.512.2 1.672.073 1.658.074 1.794-.199.18-.358.058-1.325-.178-1.425-.08-.034-.4-.033-.7.003-.222.027-.28.033-1.361.152-1.343.147-1.369.15-1.7.208-.322.056-.341.05-.527-.174-.396-.478-.986-.676-1.511-.508" clip-rule="evenodd"/><g opacity=".7"><mask id="f" width="22" height="22" x="15.503" y="14.201" fill="#000" maskUnits="userSpaceOnUse"><path fill="#fff" d="M15.503 14.201h22v22h-22z"/><path fill-rule="evenodd" d="M20.64 17.406a.7.7 0 0 0-.99 0l-.941.941a.7.7 0 0 0 0 .99l6.265 6.266-6.266 6.264a.7.7 0 0 0 0 .99l.942.94a.7.7 0 0 0 .99 0l6.265-6.263 6.264 6.264a.7.7 0 0 0 .99 0l.94-.942a.7.7 0 0 0 0-.99l-6.262-6.263 6.266-6.263a.7.7 0 0 0 0-.99l-.942-.941a.7.7 0 0 0-.99 0l-6.265 6.263z" clip-rule="evenodd"/></mask><path fill="url(#e)" fill-rule="evenodd" d="M20.64 17.406a.7.7 0 0 0-.99 0l-.941.941a.7.7 0 0 0 0 .99l6.265 6.266-6.266 6.264a.7.7 0 0 0 0 .99l.942.94a.7.7 0 0 0 .99 0l6.265-6.263 6.264 6.264a.7.7 0 0 0 .99 0l.94-.942a.7.7 0 0 0 0-.99l-6.262-6.263 6.266-6.263a.7.7 0 0 0 0-.99l-.942-.941a.7.7 0 0 0-.99 0l-6.265 6.263z" clip-rule="evenodd"/><path fill="#000" d="m19.65 17.406-1.485-1.485zm.99 0-1.485 1.485zm-1.931.941-1.485-1.485zm0 .99-1.485 1.485zm6.265 6.266 1.485 1.485 1.485-1.485-1.485-1.485zm-6.266 6.264-1.485-1.486zm0 .99 1.485-1.486zm.942.94-1.485 1.486zm.99 0-1.485-1.485zm6.265-6.263 1.485-1.485-1.484-1.485-1.485 1.485zm6.264 6.264-1.485 1.485zm.99 0 1.485 1.485zm.94-.942 1.486 1.486zm0-.99-1.484 1.485zm-6.262-6.263-1.485-1.485-1.485 1.485 1.485 1.485zm6.266-6.263-1.485-1.485zm0-.99 1.484-1.485zm-.942-.941 1.485-1.485zm-.99 0-1.485-1.485zm-6.265 6.263-1.485 1.485 1.485 1.485 1.485-1.485zm-5.77-4.781a1.4 1.4 0 0 1-1.981 0l2.97-2.97a2.8 2.8 0 0 0-3.96 0zm-.942.94.941-.94-2.97-2.97-.941.941zm0-1.979a1.4 1.4 0 0 1 0 1.98l-2.97-2.97a2.8 2.8 0 0 0 0 3.96zm6.265 6.266-6.265-6.266-2.97 2.97 6.265 6.266zm-6.266 9.234 6.266-6.264-2.97-2.97-6.266 6.263zm0-1.98a1.4 1.4 0 0 1 0 1.98l-2.97-2.97a2.8 2.8 0 0 0 0 3.96zm.941.94-.941-.94-2.97 2.97.942.94zm-1.98 0a1.4 1.4 0 0 1 1.98 0l-2.97 2.97a2.8 2.8 0 0 0 3.96 0zm6.267-6.263-6.266 6.263 2.97 2.97 6.265-6.263zm9.233 6.264-6.264-6.264-2.97 2.97 6.264 6.264zm-1.98 0a1.4 1.4 0 0 1 1.98 0l-2.97 2.97a2.8 2.8 0 0 0 3.96 0zm.94-.941-.94.94 2.97 2.97.941-.94zm0 1.98a1.4 1.4 0 0 1 0-1.98l2.971 2.97a2.8 2.8 0 0 0 0-3.96zm-6.262-6.264 6.263 6.263 2.97-2.97-6.263-6.263zm6.266-9.233-6.266 6.263 2.97 2.97 6.265-6.263zm0 1.98a1.4 1.4 0 0 1 0-1.98l2.97 2.97a2.8 2.8 0 0 0 0-3.96zm-.942-.94.942.94 2.97-2.97-.942-.941zm1.98 0a1.4 1.4 0 0 1-1.98 0l2.97-2.971a2.8 2.8 0 0 0-3.96 0zm-6.265 6.262 6.265-6.263-2.97-2.97-6.265 6.262zm-9.236-6.266 6.266 6.266 2.97-2.97-6.266-6.266z" mask="url(#f)"/></g></g><g filter="url(#g)"><path fill="#e7cdcd" d="m45.78 26.5-3.428-12.363h1.962l2.408 9.575h.115l2.505-9.575h1.944l2.506 9.58h.114l2.403-9.58h1.968l-3.435 12.364h-1.877l-2.602-9.261h-.097l-2.602 9.26zm17.046.188q-1.304 0-2.276-.598a4.03 4.03 0 0 1-1.51-1.672q-.537-1.074-.537-2.511 0-1.443.538-2.524.537-1.08 1.509-1.678t2.276-.598 2.276.598a4 4 0 0 1 1.509 1.678q.537 1.08.537 2.524 0 1.436-.537 2.511a4.03 4.03 0 0 1-1.51 1.672q-.971.598-2.275.598m.006-1.515q.845 0 1.4-.447t.822-1.19a4.7 4.7 0 0 0 .271-1.635q0-.888-.272-1.63-.265-.75-.82-1.202-.556-.453-1.401-.453-.851 0-1.413.453-.555.453-.827 1.202a4.8 4.8 0 0 0-.265 1.63q0 .892.265 1.636.272.742.827 1.189.562.447 1.413.447m8.136-4.178v5.506h-1.805v-9.273h1.733v1.51h.114a2.65 2.65 0 0 1 1.003-1.184q.688-.447 1.732-.447.948 0 1.66.399.713.392 1.105 1.17.392.78.392 1.927V26.5h-1.805v-5.68q0-1.008-.525-1.576-.524-.573-1.443-.573-.627 0-1.116.271a1.95 1.95 0 0 0-.767.797q-.278.52-.278 1.256m9.907-6.858v1.16q0 .511-.193 1.08a4.6 4.6 0 0 1-.532 1.08q-.344.519-.809.894l-.893-.64q.356-.519.616-1.105.265-.584.265-1.292v-1.177zm6.43 3.091v1.449h-5.066v-1.449zm-3.708-2.222h1.806v8.772q0 .526.156.79a.82.82 0 0 0 .405.357q.253.09.55.09.215 0 .38-.03l.253-.048.326 1.491q-.157.06-.447.121a3.5 3.5 0 0 1-.724.072 3.2 3.2 0 0 1-1.328-.253 2.3 2.3 0 0 1-.996-.821q-.38-.555-.38-1.395zm17.151 4.486-1.636.29a2 2 0 0 0-.326-.598 1.6 1.6 0 0 0-.591-.465q-.375-.18-.936-.181-.767 0-1.28.344-.513.338-.513.875 0 .465.344.749.345.284 1.11.465l1.474.338q1.28.296 1.908.912.627.615.627 1.6a2.43 2.43 0 0 1-.483 1.484q-.476.647-1.334 1.015-.85.368-1.974.368-1.557 0-2.541-.664-.984-.67-1.208-1.902l1.745-.265q.163.681.67 1.032.507.345 1.322.344.888 0 1.419-.368.531-.375.531-.912a.95.95 0 0 0-.326-.73q-.32-.296-.984-.447l-1.57-.344q-1.297-.296-1.92-.942-.615-.645-.615-1.636 0-.82.459-1.437.459-.615 1.267-.96.81-.35 1.854-.35 1.503 0 2.366.652.864.645 1.141 1.733m8.04 3.163v-5.427h1.811v9.273h-1.775v-1.606h-.096a2.9 2.9 0 0 1-1.027 1.237q-.7.49-1.744.49-.894 0-1.582-.393-.682-.399-1.075-1.177-.386-.78-.386-1.926v-5.898h1.805v5.68q0 .95.525 1.51.525.561 1.365.561.507 0 1.008-.253.507-.255.839-.767.338-.513.332-1.304m4.236 7.323v-12.75h1.763v1.503h.151a5 5 0 0 1 .453-.67 2.6 2.6 0 0 1 .821-.664q.525-.29 1.388-.29 1.123 0 2.005.568.88.567 1.382 1.636.507 1.069.507 2.571 0 1.504-.501 2.578-.501 1.07-1.376 1.648-.876.574-1.998.574-.846 0-1.383-.284a2.6 2.6 0 0 1-.833-.664 5 5 0 0 1-.465-.676h-.109v4.92zm1.769-8.114q0 .978.284 1.715.284.736.821 1.153.537.41 1.316.41.809 0 1.352-.428.544-.435.821-1.177.285-.743.284-1.673 0-.916-.278-1.648-.271-.73-.821-1.153-.543-.422-1.358-.422-.785 0-1.328.404-.537.405-.815 1.129t-.278 1.69m8.724 8.114v-12.75h1.762v1.503h.151a5 5 0 0 1 .453-.67 2.6 2.6 0 0 1 .821-.664q.525-.29 1.389-.29 1.122 0 2.004.568.88.567 1.382 1.636.507 1.069.507 2.571 0 1.504-.501 2.578-.5 1.07-1.376 1.648-.876.574-1.998.574-.846 0-1.383-.284a2.6 2.6 0 0 1-.833-.664 5 5 0 0 1-.465-.676h-.108v4.92zm1.768-8.114q0 .978.284 1.715.284.736.821 1.153.537.41 1.316.41.81 0 1.353-.428.542-.435.821-1.177.283-.743.283-1.673 0-.916-.277-1.648-.273-.73-.821-1.153-.544-.422-1.359-.422-.785 0-1.328.404-.537.405-.815 1.129t-.278 1.69m12.63 4.824q-1.304 0-2.276-.598a4.03 4.03 0 0 1-1.509-1.672q-.538-1.074-.538-2.511 0-1.443.538-2.524a4 4 0 0 1 1.509-1.678q.971-.597 2.276-.598 1.304 0 2.276.598a4 4 0 0 1 1.509 1.678q.537 1.08.537 2.524 0 1.436-.537 2.511a4.03 4.03 0 0 1-1.509 1.672q-.972.598-2.276.598m.006-1.515q.845 0 1.4-.447.556-.447.821-1.19.272-.742.272-1.635 0-.888-.272-1.63-.265-.75-.821-1.202-.555-.453-1.4-.453-.852 0-1.413.453-.555.453-.827 1.202a4.8 4.8 0 0 0-.266 1.63q0 .892.266 1.636.272.742.827 1.189.561.447 1.413.447m6.331 1.328v-9.273h1.745v1.473h.096q.254-.75.894-1.177.645-.435 1.461-.435a8 8 0 0 1 .766.042v1.727a3 3 0 0 0-.386-.067 4 4 0 0 0-.555-.042q-.64 0-1.141.272a2.02 2.02 0 0 0-1.075 1.817v5.663zm11.401-9.273v1.449h-5.065v-1.449zm-3.707-2.222h1.805v8.772q0 .526.157.79.157.261.405.357.254.09.549.09.218 0 .38-.03l.254-.048.326 1.491q-.157.06-.447.121a3.5 3.5 0 0 1-.724.072 3.2 3.2 0 0 1-1.329-.253 2.3 2.3 0 0 1-.996-.821q-.38-.555-.38-1.395z"/><path fill="url(#h)" d="M168.62 17.844q-.06-.664-.537-1.033-.471-.374-1.346-.374-.58 0-.966.151-.387.15-.58.417a1 1 0 0 0-.199.597.9.9 0 0 0 .109.49q.126.21.362.373.242.158.579.278.338.12.761.212l1.062.241q.918.2 1.618.531.707.333 1.184.791.483.459.73 1.057.248.597.254 1.34-.007 1.17-.592 2.01t-1.684 1.286q-1.093.447-2.638.447-1.552 0-2.705-.465t-1.793-1.413-.658-2.396h2.862q.036.597.319.996.285.398.779.603.502.206 1.159.206.604 0 1.027-.163.428-.164.658-.453t.235-.664a.9.9 0 0 0-.217-.598q-.211-.253-.652-.435-.435-.187-1.111-.344l-1.292-.302q-1.606-.368-2.529-1.189-.924-.827-.918-2.233-.006-1.148.616-2.01.621-.864 1.72-1.347 1.1-.483 2.506-.483 1.436 0 2.493.489 1.063.483 1.648 1.358t.598 2.029zm4.54 12.134v-12.75h2.922v1.588h.09q.181-.423.513-.815.339-.393.858-.64.525-.255 1.255-.254.966 0 1.805.507.846.508 1.365 1.564t.519 2.692q0 1.575-.501 2.639-.495 1.063-1.34 1.593a3.4 3.4 0 0 1-1.866.532q-.7 0-1.213-.23a2.6 2.6 0 0 1-.863-.604 2.9 2.9 0 0 1-.532-.803h-.06v4.981zm2.892-8.114q0 .75.199 1.304.206.555.585.864.387.3.924.301.543 0 .924-.301.38-.308.573-.864.2-.555.199-1.304 0-.748-.199-1.298-.193-.55-.573-.85-.375-.303-.924-.303-.543 0-.924.296-.38.297-.585.845-.2.55-.199 1.31m7.982 4.637v-9.273h2.952v9.273zm1.479-10.354q-.622 0-1.069-.41a1.32 1.32 0 0 1-.446-1.002q0-.58.446-.99a1.5 1.5 0 0 1 1.069-.417q.628 0 1.068.417.447.41.447.99 0 .585-.447 1.002a1.5 1.5 0 0 1-1.068.41m7.674 14.024q-1.322 0-2.263-.368-.942-.369-1.48-1.008a2.8 2.8 0 0 1-.645-1.45l2.795-.156q.079.284.289.495.217.211.562.326.35.114.821.115.742 0 1.225-.363.489-.356.489-1.25v-1.63h-.102a2.2 2.2 0 0 1-.532.767 2.5 2.5 0 0 1-.887.532q-.525.193-1.207.193a3.76 3.76 0 0 1-1.86-.471q-.839-.477-1.346-1.473-.501-1.002-.501-2.578 0-1.623.519-2.674.52-1.056 1.358-1.564a3.5 3.5 0 0 1 1.818-.507q.73 0 1.249.254.525.247.863.64.339.392.514.815h.084v-1.588h2.94v9.309q0 1.177-.591 1.986-.592.81-1.655 1.226-1.062.422-2.457.422m.091-5.946q.537 0 .918-.284.38-.284.585-.815t.205-1.274q0-.755-.205-1.298-.2-.55-.585-.845a1.45 1.45 0 0 0-.918-.296q-.549 0-.93.302-.38.302-.579.851-.194.544-.194 1.286 0 .743.2 1.274t.573.815q.381.285.93.284m10.823 2.45q-1.46 0-2.512-.597a4.13 4.13 0 0 1-1.612-1.678q-.561-1.08-.561-2.505 0-1.431.561-2.506.568-1.08 1.612-1.678 1.051-.603 2.512-.604 1.461 0 2.505.604 1.05.598 1.612 1.678.567 1.075.567 2.506 0 1.424-.567 2.505a4.07 4.07 0 0 1-1.612 1.678q-1.044.598-2.505.598m.018-2.227q.531 0 .899-.326.369-.326.562-.905.199-.58.199-1.34 0-.773-.199-1.353-.193-.58-.562-.905a1.3 1.3 0 0 0-.899-.326 1.38 1.38 0 0 0-.93.326q-.374.326-.573.905-.194.58-.194 1.352 0 .762.194 1.34.199.58.573.906.38.326.93.326m11.413-7.22v2.173h-5.85v-2.173zm-4.625-2.222h2.952v8.579q0 .272.085.44.09.165.259.236.17.066.405.066.169 0 .356-.03.193-.036.29-.06l.447 2.13q-.212.061-.598.152a5 5 0 0 1-.912.115q-1.038.048-1.781-.242a2.3 2.3 0 0 1-1.128-.918q-.387-.621-.375-1.563z"/></g></g><rect width="222.858" height="37.858" x="1.071" y="1.071" stroke="#fff" stroke-opacity=".15" stroke-width="2.143" rx="6.929"/><defs><linearGradient id="b" x1="112.501" x2="112.501" y1="0" y2="40.001" gradientUnits="userSpaceOnUse"><stop stop-color="#2c1b1b"/><stop offset="1" stop-color="#1f1414"/></linearGradient><linearGradient id="d" x1="22.001" x2="22.001" y1="8" y2="32.001" gradientUnits="userSpaceOnUse"><stop stop-color="#cea260"/><stop offset="1" stop-color="#81562e"/></linearGradient><linearGradient id="e" x1="26.905" x2="26.905" y1="17.201" y2="34.003" gradientUnits="userSpaceOnUse"><stop stop-color="red"/><stop offset="1" stop-color="#c00"/></linearGradient><linearGradient id="h" x1="189.001" x2="189.001" y1="9.501" y2="30.501" gradientUnits="userSpaceOnUse"><stop stop-color="#e9c48d"/><stop offset="1" stop-color="#a2825d"/></linearGradient><filter id="c" width="40.608" height="41.304" x="2.4" y=".4" color-interpolation-filters="sRGB" filterUnits="userSpaceOnUse"><feFlood flood-opacity="0" result="BackgroundImageFix"/><feColorMatrix in="SourceAlpha" result="hardAlpha" values="0 0 0 0 0 0 0 0 0 0 0 0 0 0 0 0 0 0 127 0"/><feOffset/><feGaussianBlur stdDeviation="2.8"/><feComposite in2="hardAlpha" operator="out"/><feColorMatrix values="0 0 0 0 0 0 0 0 0 0 0 0 0 0 0 0 0 0 0.25 0"/><feBlend in2="BackgroundImageFix" result="effect1_dropShadow_28_3133"/><feBlend in="SourceGraphic" in2="effect1_dropShadow_28_3133" result="shape"/></filter><filter id="g" width="186.429" height="32.429" x="36.287" y="3.786" color-interpolation-filters="sRGB" filterUnits="userSpaceOnUse"><feFlood flood-opacity="0" result="BackgroundImageFix"/><feColorMatrix in="SourceAlpha" result="hardAlpha" values="0 0 0 0 0 0 0 0 0 0 0 0 0 0 0 0 0 0 127 0"/><feOffset/><feGaussianBlur stdDeviation="2.857"/><feComposite in2="hardAlpha" operator="out"/><feColorMatrix values="0 0 0 0 0 0 0 0 0 0 0 0 0 0 0 0 0 0 0.25 0"/><feBlend in2="BackgroundImageFix" result="effect1_dropShadow_28_3133"/><feBlend in="SourceGraphic" in2="effect1_dropShadow_28_3133" result="shape"/></filter><clipPath id="a"><rect width="225.001" height="40.001" fill="#fff" rx="8"/></clipPath></defs></svg>