<svg xmlns="http://www.w3.org/2000/svg" width="234" height="40" fill="none" viewBox="0 0 234 40"><g clip-path="url(#a)"><rect width="234.001" height="40.001" fill="url(#b)" rx="8"/><g filter="url(#c)"><path fill="#f7cf0d" d="M34.602 6H9.4C8.63 6 8 6.63 8 7.4v25.201c0 .77.63 1.4 1.4 1.4h2.254c-.238-6.398-.014-7.35.434-7.98.546-.784.77-.882 1.596-1.54.7-.56.448-1.47-.056-2.128-.308-.406-.742-.882-1.078-1.344-.21-.308.308-2.114.504-2.772s.532-2.8 3.472-3.375c1.106-.224 4.144-.378 6.23-.252-.014-.084-.042-.182-.056-.28-.042-.168-.07-.35-.112-.546a38 38 0 0 1-.126-.574c-.042-.196-.098-.392-.14-.602-.056-.21-.098-.406-.168-.616a9 9 0 0 0-.42-1.218 5 5 0 0 0-.266-.546c-.098-.154-.196-.294-.28-.35-.014-.014-.028-.028-.042-.028h-.014.028s.014 0 0 0l-.042-.014h-.028l-.056-.014h-.07a4 4 0 0 0-.588 0c-.406.028-.84.112-1.26.21s-.826.224-1.218.336c-.168.056-.322.112-.476.154.014.126.028.238.028.364 0 1.82-1.47 3.29-3.29 3.29a3.275 3.275 0 0 1-3.276-3.29c0-1.82 1.47-3.29 3.29-3.29 1.218 0 2.282.658 2.856 1.652.14-.056.294-.112.448-.168.392-.154.826-.308 1.274-.448.462-.14.938-.28 1.47-.35.266-.042.546-.056.854-.042h.112c.042 0 .084.014.112.014h.098l.042.014h.014l.042.014s.028 0 .042.014l.056.014c.084.028.126.042.182.07s.098.042.154.07c.098.056.182.112.266.168q.231.189.378.378c.112.126.196.252.28.378.168.252.294.49.406.728.224.476.406.952.546 1.4l.21.672c.07.224.112.434.168.644.028.098.056.21.07.308.028.098.042.196.07.294.042.196.084.392.126.574.056.28.098.546.14.784 3.136.308 5.53.714 6.609 1.792 1.582 1.54 2.8 8.541 2.002 17.431h1.4c.77 0 1.4-.63 1.4-1.4v-25.2c0-.771-.63-1.401-1.4-1.401"/><path fill="#f7cf0d" d="M20.797 25.713c-.182.504-.336 6.398 1.4 6.398s1.75-6.048 1.694-6.398c-.056-.336-2.912-.49-3.094 0M18.501 20c-1.19-.168-1.904 5.628-.238 5.964 1.568.308 1.414-5.796.238-5.964m7.812 0c-1.19-.168-1.904 5.628-.238 5.964 1.569.308 1.428-5.796.238-5.964"/><g opacity=".7"><mask id="e" width="22" height="22" x="15.503" y="14.201" fill="#000" maskUnits="userSpaceOnUse"><path fill="#fff" d="M15.503 14.201h22v22h-22z"/><path fill-rule="evenodd" d="M20.64 17.406a.7.7 0 0 0-.99 0l-.941.941a.7.7 0 0 0 0 .99l6.265 6.266-6.266 6.264a.7.7 0 0 0 0 .99l.942.94a.7.7 0 0 0 .99 0l6.265-6.263 6.264 6.264a.7.7 0 0 0 .99 0l.94-.941a.7.7 0 0 0 0-.99l-6.262-6.264 6.266-6.263a.7.7 0 0 0 0-.99l-.942-.941a.7.7 0 0 0-.99 0l-6.265 6.263z" clip-rule="evenodd"/></mask><path fill="url(#d)" fill-rule="evenodd" d="M20.64 17.406a.7.7 0 0 0-.99 0l-.941.941a.7.7 0 0 0 0 .99l6.265 6.266-6.266 6.264a.7.7 0 0 0 0 .99l.942.94a.7.7 0 0 0 .99 0l6.265-6.263 6.264 6.264a.7.7 0 0 0 .99 0l.94-.941a.7.7 0 0 0 0-.99l-6.262-6.264 6.266-6.263a.7.7 0 0 0 0-.99l-.942-.941a.7.7 0 0 0-.99 0l-6.265 6.263z" clip-rule="evenodd"/><path fill="#000" d="m19.65 17.406-1.485-1.485zm.99 0-1.485 1.485zm-1.931.941-1.485-1.485zm0 .99-1.485 1.485zm6.265 6.266 1.485 1.485 1.485-1.485-1.485-1.485zm-6.266 6.264-1.485-1.486zm0 .99 1.485-1.486zm.942.94-1.485 1.486zm.99 0-1.485-1.485zm6.265-6.263 1.485-1.485-1.484-1.485-1.485 1.485zm6.264 6.264-1.485 1.485zm.99 0 1.485 1.485zm.94-.941 1.486 1.485zm0-.99-1.484 1.485zm-6.262-6.264-1.485-1.485-1.485 1.485 1.485 1.485zm6.266-6.263-1.485-1.485zm0-.99 1.484-1.485zm-.942-.941 1.485-1.485zm-.99 0-1.485-1.485zm-6.265 6.263-1.485 1.485 1.484 1.485 1.485-1.485zm-5.77-4.781a1.4 1.4 0 0 1-1.981 0l2.97-2.97a2.8 2.8 0 0 0-3.96 0zm-.942.94.941-.94-2.97-2.97-.941.941zm0-1.979a1.4 1.4 0 0 1 0 1.98l-2.97-2.97a2.8 2.8 0 0 0 0 3.96zm6.265 6.266-6.265-6.266-2.97 2.97 6.265 6.266zm-6.266 9.234 6.266-6.264-2.97-2.97-6.266 6.263zm0-1.98a1.4 1.4 0 0 1 0 1.98l-2.97-2.97a2.8 2.8 0 0 0 0 3.96zm.941.94-.941-.94-2.97 2.97.942.94zm-1.98 0a1.4 1.4 0 0 1 1.98 0l-2.97 2.97a2.8 2.8 0 0 0 3.96 0zm6.267-6.263-6.266 6.263 2.97 2.97 6.265-6.263zm9.233 6.264-6.264-6.264-2.97 2.97 6.264 6.264zm-1.98 0a1.4 1.4 0 0 1 1.98 0l-2.97 2.97a2.8 2.8 0 0 0 3.96 0zm.94-.941-.94.94 2.97 2.97.941-.94zm0 1.98a1.4 1.4 0 0 1 0-1.98l2.971 2.97a2.8 2.8 0 0 0 0-3.96zm-6.262-6.264 6.263 6.264 2.97-2.97-6.263-6.264zm6.266-9.233-6.266 6.263 2.97 2.97 6.265-6.263zm0 1.98a1.4 1.4 0 0 1 0-1.98l2.97 2.97a2.8 2.8 0 0 0 0-3.96zm-.942-.94.942.94 2.97-2.97-.942-.941zm1.98 0a1.4 1.4 0 0 1-1.98 0l2.97-2.971a2.8 2.8 0 0 0-3.96 0zm-6.265 6.262 6.265-6.263-2.97-2.97-6.265 6.262zm-9.236-6.266 6.266 6.266 2.97-2.97-6.266-6.266z" mask="url(#e)"/></g></g><g filter="url(#f)"><path fill="#e7cdcd" d="m45.78 26.5-3.428-12.363h1.962l2.408 9.575h.115l2.505-9.575h1.944l2.506 9.58h.114l2.403-9.58h1.968l-3.435 12.364h-1.877l-2.602-9.261h-.097l-2.602 9.26zm17.046.188q-1.304 0-2.276-.598a4.03 4.03 0 0 1-1.51-1.672q-.537-1.075-.537-2.511 0-1.443.538-2.524.537-1.08 1.509-1.678t2.276-.598 2.276.598a4 4 0 0 1 1.509 1.678q.537 1.08.537 2.524 0 1.436-.537 2.51a4.03 4.03 0 0 1-1.51 1.673q-.971.598-2.275.598m.006-1.515q.845 0 1.4-.447t.822-1.19a4.7 4.7 0 0 0 .271-1.636q0-.886-.272-1.63-.265-.748-.82-1.2-.556-.454-1.401-.454-.851 0-1.413.453-.555.453-.827 1.202a4.8 4.8 0 0 0-.265 1.63q0 .892.265 1.636.272.742.827 1.189.562.447 1.413.447m8.136-4.178v5.506h-1.805v-9.273h1.733v1.51h.114a2.65 2.65 0 0 1 1.003-1.184q.688-.447 1.732-.447.948 0 1.66.399.713.392 1.105 1.17.392.78.392 1.927V26.5h-1.805v-5.68q0-1.008-.525-1.576-.524-.573-1.443-.573-.627 0-1.116.271a1.95 1.95 0 0 0-.767.797q-.278.52-.278 1.256m9.907-6.858v1.16q0 .511-.193 1.08a4.6 4.6 0 0 1-.532 1.08 3.9 3.9 0 0 1-.809.894l-.893-.64q.356-.519.616-1.105a3.1 3.1 0 0 0 .265-1.292v-1.177zm6.43 3.09v1.45h-5.066v-1.45zm-3.708-2.22h1.806v8.771q0 .526.156.79a.82.82 0 0 0 .405.357q.253.09.55.09.215 0 .38-.03l.253-.048.326 1.491q-.157.06-.447.121a3.5 3.5 0 0 1-.724.072 3.2 3.2 0 0 1-1.328-.253 2.3 2.3 0 0 1-.996-.821q-.38-.555-.38-1.395zm17.151 4.485-1.636.29a2 2 0 0 0-.326-.598 1.6 1.6 0 0 0-.591-.465q-.375-.18-.936-.181-.767 0-1.28.344-.513.338-.513.875 0 .465.344.749.345.284 1.11.465l1.474.338q1.28.296 1.908.912.627.615.627 1.6a2.43 2.43 0 0 1-.483 1.484q-.476.647-1.334 1.015-.85.368-1.974.368-1.557 0-2.541-.664-.984-.67-1.208-1.902l1.745-.265q.163.681.67 1.032.507.345 1.322.344.888 0 1.419-.368.531-.375.531-.912a.95.95 0 0 0-.326-.73q-.32-.296-.984-.447l-1.57-.344q-1.297-.296-1.92-.942-.615-.645-.615-1.636 0-.82.459-1.437.459-.615 1.267-.96.81-.35 1.854-.35 1.503 0 2.366.652.864.645 1.141 1.733m8.04 3.163v-5.427h1.811V26.5h-1.775v-1.606h-.096a2.9 2.9 0 0 1-1.027 1.237q-.7.49-1.744.49-.894 0-1.582-.393-.682-.399-1.075-1.177-.386-.78-.386-1.926v-5.898h1.805v5.68q0 .95.525 1.51.525.561 1.365.561.507 0 1.008-.253.507-.255.839-.767.338-.513.332-1.304m4.236 7.323v-12.75h1.763v1.503h.151q.157-.29.453-.67a2.6 2.6 0 0 1 .821-.664q.525-.29 1.388-.29 1.123 0 2.005.568.88.567 1.382 1.636.507 1.069.507 2.571t-.501 2.578q-.501 1.069-1.376 1.648-.876.574-1.998.574-.846 0-1.383-.284a2.6 2.6 0 0 1-.833-.664 5 5 0 0 1-.465-.676h-.109v4.92zm1.769-8.114q0 .978.284 1.715.284.736.821 1.153.537.41 1.316.41.809 0 1.352-.428.544-.435.821-1.177.285-.743.284-1.673 0-.916-.278-1.648-.271-.73-.821-1.153-.543-.422-1.358-.422-.785 0-1.328.404-.537.405-.815 1.129t-.278 1.69m8.724 8.114v-12.75h1.762v1.503h.151q.157-.29.453-.67a2.6 2.6 0 0 1 .821-.664q.525-.29 1.389-.29 1.122 0 2.004.568.88.567 1.382 1.636.507 1.069.507 2.571t-.501 2.578q-.5 1.069-1.376 1.648-.876.574-1.998.574-.846 0-1.383-.284a2.6 2.6 0 0 1-.833-.664 5 5 0 0 1-.465-.676h-.108v4.92zm1.768-8.114q0 .978.284 1.715.284.736.821 1.153.537.41 1.316.41.81 0 1.353-.428.542-.435.821-1.177.283-.743.283-1.673 0-.916-.277-1.648-.273-.73-.821-1.153-.544-.422-1.359-.422-.785 0-1.328.404-.537.405-.815 1.129t-.278 1.69m12.63 4.824q-1.304 0-2.276-.598a4.03 4.03 0 0 1-1.509-1.672q-.538-1.075-.538-2.511 0-1.443.538-2.524a4 4 0 0 1 1.509-1.678q.971-.598 2.276-.598t2.276.598a4 4 0 0 1 1.509 1.678q.537 1.08.537 2.524 0 1.436-.537 2.51a4.03 4.03 0 0 1-1.509 1.673q-.972.598-2.276.598m.006-1.515q.845 0 1.4-.447.556-.447.821-1.19.272-.742.272-1.636 0-.886-.272-1.63-.265-.748-.821-1.2-.555-.454-1.4-.454-.852 0-1.413.453-.555.453-.827 1.202a4.8 4.8 0 0 0-.266 1.63q0 .892.266 1.636.272.742.827 1.189.561.447 1.413.447m6.331 1.328v-9.273h1.745V18.7h.096q.254-.75.894-1.177.645-.435 1.461-.435a8 8 0 0 1 .766.042v1.727a3 3 0 0 0-.386-.067 4 4 0 0 0-.555-.042q-.64 0-1.141.272a2.02 2.02 0 0 0-1.075 1.817V26.5zm11.401-9.273v1.449h-5.065v-1.45zm-3.707-2.222h1.805v8.772q0 .526.157.79.157.261.405.357.254.09.549.09.218 0 .38-.03l.254-.048.326 1.491q-.157.06-.447.121a3.5 3.5 0 0 1-.724.072 3.2 3.2 0 0 1-1.329-.253 2.3 2.3 0 0 1-.996-.821q-.38-.555-.38-1.395z"/><path fill="#f7cf0d" d="M168.62 17.844q-.06-.664-.537-1.033-.471-.374-1.346-.374-.58 0-.966.151-.387.15-.58.417a1 1 0 0 0-.199.597.9.9 0 0 0 .109.49q.126.21.362.373.242.158.579.278.338.12.761.212l1.062.241q.918.2 1.618.531.707.332 1.184.791.483.459.73 1.056.248.599.254 1.34-.007 1.172-.592 2.011t-1.684 1.286q-1.093.447-2.638.447-1.552 0-2.705-.465t-1.793-1.413-.658-2.396h2.862q.036.597.319.996.285.398.779.603.502.206 1.159.206.604 0 1.027-.163.428-.164.658-.453t.235-.664a.9.9 0 0 0-.217-.598q-.211-.254-.652-.435-.435-.187-1.111-.344l-1.292-.302q-1.606-.368-2.529-1.189-.924-.827-.918-2.233-.006-1.148.616-2.01.621-.864 1.72-1.347 1.1-.483 2.506-.483 1.436 0 2.493.489 1.063.483 1.648 1.358t.598 2.029zm4.54 12.134v-12.75h2.922v1.588h.09q.181-.423.513-.815.339-.393.858-.64.525-.255 1.255-.254.966 0 1.805.507.846.508 1.365 1.564t.519 2.692q0 1.575-.501 2.639-.495 1.063-1.34 1.593a3.4 3.4 0 0 1-1.866.532q-.7 0-1.213-.23a2.6 2.6 0 0 1-.863-.604 2.9 2.9 0 0 1-.532-.803h-.06v4.98zm2.892-8.114q0 .75.199 1.304.206.555.585.864.387.3.924.301.543 0 .924-.301.38-.309.573-.864.2-.555.199-1.304 0-.748-.199-1.298-.193-.55-.573-.85-.375-.303-.924-.303-.543 0-.924.296-.38.296-.585.845-.2.55-.199 1.31m12.31 4.812q-1.461 0-2.511-.598a4.1 4.1 0 0 1-1.612-1.678q-.561-1.08-.561-2.505 0-1.431.561-2.506.567-1.08 1.612-1.678 1.05-.604 2.511-.604 1.46 0 2.506.604 1.05.598 1.612 1.678.567 1.075.567 2.506 0 1.424-.567 2.505a4.1 4.1 0 0 1-1.612 1.678q-1.045.598-2.506.598m.018-2.228q.532 0 .9-.326.368-.327.561-.905.2-.58.2-1.34 0-.773-.2-1.353-.193-.58-.561-.905a1.3 1.3 0 0 0-.9-.326q-.55 0-.929.326-.375.326-.574.905-.193.58-.193 1.352 0 .762.193 1.34.2.58.574.906.38.326.929.326m9.131-3.236v5.289h-2.952v-9.273h2.807v1.702h.103a2.6 2.6 0 0 1 1.05-1.334q.744-.489 1.769-.489.978 0 1.697.44.724.435 1.123 1.22.404.78.398 1.823v5.91h-2.952v-5.33q.006-.773-.392-1.207-.393-.435-1.093-.435-.465 0-.821.205a1.36 1.36 0 0 0-.544.574q-.186.375-.193.905m12.145 8.96q-1.322 0-2.264-.37-.942-.367-1.479-1.007a2.8 2.8 0 0 1-.646-1.45l2.795-.156q.079.284.29.495.217.211.562.326.35.114.821.115.742 0 1.225-.363.489-.356.489-1.25v-1.63h-.103a2.2 2.2 0 0 1-.531.767 2.5 2.5 0 0 1-.887.532q-.525.193-1.208.193a3.75 3.75 0 0 1-1.859-.471q-.839-.477-1.346-1.473-.501-1.002-.501-2.578 0-1.623.519-2.674.52-1.056 1.358-1.564a3.47 3.47 0 0 1 1.817-.507q.73 0 1.25.254.525.247.863.64.339.392.513.815h.085v-1.588h2.94v9.309q0 1.177-.592 1.986-.592.81-1.654 1.226-1.062.422-2.457.422m.091-5.947q.537 0 .917-.284t.586-.815q.205-.531.205-1.274 0-.755-.205-1.298-.2-.55-.586-.845a1.45 1.45 0 0 0-.917-.296q-.55 0-.93.302t-.58.851q-.192.544-.193 1.286 0 .743.199 1.274.2.531.574.815.38.285.93.284m10.828 2.45q-1.455 0-2.511-.573a3.97 3.97 0 0 1-1.618-1.648q-.561-1.074-.561-2.553 0-1.437.567-2.512.567-1.08 1.6-1.678 1.032-.604 2.433-.604.99 0 1.811.308a3.9 3.9 0 0 1 1.419.912q.597.604.929 1.49.333.882.332 2.023v.737h-8.059v-1.715h5.313a1.7 1.7 0 0 0-.224-.839 1.5 1.5 0 0 0-.598-.573 1.7 1.7 0 0 0-.863-.212q-.495 0-.887.224a1.68 1.68 0 0 0-.863 1.449v1.744q0 .567.223.996.223.423.634.658.41.236.978.236.392 0 .712-.109t.549-.32.345-.52l2.71.08a3.36 3.36 0 0 1-.742 1.587q-.568.67-1.492 1.044-.923.369-2.137.369"/></g></g><rect width="231.858" height="37.858" x="1.071" y="1.071" stroke="#fff" stroke-opacity=".15" stroke-width="2.143" rx="6.929"/><defs><linearGradient id="b" x1="117.001" x2="117.001" y1="0" y2="40.001" gradientUnits="userSpaceOnUse"><stop stop-color="#2c1b1b"/><stop offset="1" stop-color="#1f1414"/></linearGradient><linearGradient id="d" x1="26.905" x2="26.905" y1="17.201" y2="34.003" gradientUnits="userSpaceOnUse"><stop stop-color="red"/><stop offset="1" stop-color="#c00"/></linearGradient><filter id="c" width="40.608" height="41.304" x="2.4" y=".4" color-interpolation-filters="sRGB" filterUnits="userSpaceOnUse"><feFlood flood-opacity="0" result="BackgroundImageFix"/><feColorMatrix in="SourceAlpha" result="hardAlpha" values="0 0 0 0 0 0 0 0 0 0 0 0 0 0 0 0 0 0 127 0"/><feOffset/><feGaussianBlur stdDeviation="2.8"/><feComposite in2="hardAlpha" operator="out"/><feColorMatrix values="0 0 0 0 0 0 0 0 0 0 0 0 0 0 0 0 0 0 0.25 0"/><feBlend in2="BackgroundImageFix" result="effect1_dropShadow_28_3164"/><feBlend in="SourceGraphic" in2="effect1_dropShadow_28_3164" result="shape"/></filter><filter id="f" width="195.429" height="32.429" x="36.287" y="3.786" color-interpolation-filters="sRGB" filterUnits="userSpaceOnUse"><feFlood flood-opacity="0" result="BackgroundImageFix"/><feColorMatrix in="SourceAlpha" result="hardAlpha" values="0 0 0 0 0 0 0 0 0 0 0 0 0 0 0 0 0 0 127 0"/><feOffset/><feGaussianBlur stdDeviation="2.857"/><feComposite in2="hardAlpha" operator="out"/><feColorMatrix values="0 0 0 0 0 0 0 0 0 0 0 0 0 0 0 0 0 0 0.25 0"/><feBlend in2="BackgroundImageFix" result="effect1_dropShadow_28_3164"/><feBlend in="SourceGraphic" in2="effect1_dropShadow_28_3164" result="shape"/></filter><clipPath id="a"><rect width="234.001" height="40.001" fill="#fff" rx="8"/></clipPath></defs></svg>