<svg xmlns="http://www.w3.org/2000/svg" width="247" height="40" fill="none" viewBox="0 0 247 40"><g clip-path="url(#a)"><rect width="247.001" height="40.001" fill="url(#b)" rx="8"/><g filter="url(#c)"><path fill="#fff" fill-rule="evenodd" d="M16.58 6.19c-.59.64-.113.997 1.332.998 1.313 0 2.477.18 3.761.58.5.155.503.115-.04.736-.604.69-1.026 1.214-1.346 1.673l-.462.662c-1.214 1.738-2.822 5.402-3.068 6.99-.015.095-.061.288-.103.429s-.118.467-.17.724c-.05.257-.142.684-.202.95s-.111.58-.112.7c-.002.473-.055.529-.645.676-3.028.756-5.508 2.09-6.627 3.562-1.546 2.035-1.07 4.373 1.237 6.091.642.478 1.826 1.165 2.294 1.33.178.063.437.165.575.227 1.03.463 3.586 1.122 4.87 1.256.189.02.556.078.817.13.317.063 1.404.095 3.274.097 2.92.002 2.742.016 5.094-.388 1.625-.28 2.664-.579 4.432-1.279 4.843-1.917 5.96-5.992 2.375-8.66-1.522-1.132-3.894-2.105-6.224-2.552-.257-.05-.613-.122-.793-.161a3 3 0 0 0-.525-.072c-.246 0-.268-.463-.084-1.737l.237-1.65c.193-1.357.562-3.2.73-3.639.044-.118.065-.214.045-.214s.012-.131.071-.292c.104-.283.462-1.42.472-1.499.005-.042.173-.49.278-.74l.3-.73c.306-.75 1.054-2.001 1.287-2.154.852-.56 3.047-1.036 4.805-1.045 1.298-.006 1.537-.108 1.537-.658 0-.817-3.922-.638-6.066.277-.107.046-.384.159-.617.251-1.355.537-3.088 4.757-3.89 9.47a35 35 0 0 0-.197 1.285c-.024.214-.076.617-.115.895-.358 2.57-.462 8.221-.157 8.517.192.186.571.187.816.002.135-.102.16-.235.194-1.038l.039-.92.745.25c1.218.409 1.938.886 1.938 1.286 0 .504-1.549 1.3-3.247 1.666-.886.191-1.684.341-1.847.346-1.924.065-2.47.331-2.061 1.005l.153.252h.682c1.057.002 2.64-.239 3.909-.593.235-.066.48-.133.544-.15 1.192-.302 2.543-1.172 2.87-1.848.65-1.346-.884-2.833-3.472-3.364-.249-.05-.253-.06-.253-.479 0-.37.018-.422.136-.386.075.022.416.114.758.202 5.923 1.538 6.105 4.946.354 6.621a11 11 0 0 1-.778.202c-.109.018-.25.053-.315.077-1.299.486-6.944.486-8.243 0a2 2 0 0 0-.315-.077c-.732-.122-1.877-.534-2.796-1.004-3.045-1.558-2.985-3.492.159-5.027.837-.409.867-.408.837.004-.023.317-.041.338-.568.639-1.654.944-1.99 2.371-.79 3.345 1.216.986 3.254 1.059 2.964.106-.094-.306-.276-.448-.579-.448-.779 0-1.945-.63-1.945-1.052 0-.143.624-.816.757-.816.042 0 .062.081.042.181-.042.22.313.676.526.676.542 0 .66-.293.732-1.83a35 35 0 0 1 .292-3.23c.048-.322.095-.672.105-.78.034-.365.203-1.205.476-2.374.916-3.909 2.346-6.64 5.216-9.954.396-.457.72-.884.72-.95 0-.27-.236-.567-.524-.66a2 2 0 0 1-.37-.153c-.552-.419-2.735-.854-4.55-.908L16.754 6zm10.305.973c-.299.078-1.59 2.07-2.345 3.614-.495 1.013-1.206 2.832-1.332 3.407-.016.07-.135.537-.265 1.038a31 31 0 0 0-.354 1.518c-.065.334-.153.782-.197.996-.043.214-.092.53-.108.7-.017.172-.066.522-.11.78-.131.78-.401 3.534-.442 4.515a138 138 0 0 1-.115 2.147c-.105 1.774-.018 2.077.572 1.998.512-.069.567-.258.624-2.126.087-2.886.36-5.612.834-8.325.227-1.3.913-3.766 1.277-4.594.057-.128.197-.46.311-.739.3-.73.697-1.502 1.153-2.244.22-.356.433-.707.476-.778s.23-.334.414-.583c.62-.833.412-1.535-.393-1.324m-2.043.19c-.701.22-3.188 4.164-3.994 6.335a44 44 0 0 0-.839 2.53c-.257.943-.479 1.855-.567 2.335-.052.279-.141.734-.2 1.012-.057.279-.14.77-.185 1.09-.166 1.212-.267 2.052-.263 2.172.003.069-.042.549-.1 1.067-.282 2.526-.16 3.49.44 3.473.427-.012.528-.194.572-1.029.077-1.488.317-4.182.438-4.904.039-.236.084-.57.101-.745a10 10 0 0 1 .116-.74c.401-1.965.437-2.131.554-2.57.552-2.073 1.168-3.728 1.965-5.282.463-.901 1.693-2.777 2.173-3.314.59-.658.674-.99.337-1.327-.209-.209-.21-.21-.548-.103m2.864 14.986c1.836.43 3.59 1.113 5.023 1.955 1.64.964 2.47 2.725 1.888 4.01-.748 1.65-3.903 3.464-6.94 3.99a9 9 0 0 0-.54.115c-.283.072-.835.159-2.1.33-.462.062-1.6.1-3.033.1-1.434 0-2.572-.038-3.033-.1-1.265-.171-1.818-.258-2.1-.33a9 9 0 0 0-.541-.115c-.99-.171-2.77-.774-3.825-1.295-4.475-2.208-4.432-5.223.107-7.416.815-.393 2.49-.987 3.073-1.089.307-.053.34.083.039.157-.118.029-.52.185-.896.346-5.105 2.205-4.476 6.36 1.227 8.093l.622.194c.17.054.538.14.816.19s.663.122.856.159c2.007.38 5.302.38 7.31 0 .192-.037.577-.108.855-.159a8 8 0 0 0 .817-.19c.17-.055.45-.142.622-.194 6.781-2.072 6.083-7.215-1.205-8.875-.194-.045-.22-.065-.092-.071.099-.005.571.082 1.05.195" clip-rule="evenodd"/><g opacity=".7"><mask id="e" width="22" height="22" x="15.503" y="14.201" fill="#000" maskUnits="userSpaceOnUse"><path fill="#fff" d="M15.503 14.201h22v22h-22z"/><path fill-rule="evenodd" d="M20.64 17.406a.7.7 0 0 0-.99 0l-.941.941a.7.7 0 0 0 0 .99l6.265 6.266-6.266 6.264a.7.7 0 0 0 0 .99l.942.94a.7.7 0 0 0 .99 0l6.265-6.263 6.264 6.264a.7.7 0 0 0 .99 0l.94-.942a.7.7 0 0 0 0-.99l-6.262-6.263 6.266-6.263a.7.7 0 0 0 0-.99l-.942-.941a.7.7 0 0 0-.99 0l-6.265 6.263z" clip-rule="evenodd"/></mask><path fill="url(#d)" fill-rule="evenodd" d="M20.64 17.406a.7.7 0 0 0-.99 0l-.941.941a.7.7 0 0 0 0 .99l6.265 6.266-6.266 6.264a.7.7 0 0 0 0 .99l.942.94a.7.7 0 0 0 .99 0l6.265-6.263 6.264 6.264a.7.7 0 0 0 .99 0l.94-.942a.7.7 0 0 0 0-.99l-6.262-6.263 6.266-6.263a.7.7 0 0 0 0-.99l-.942-.941a.7.7 0 0 0-.99 0l-6.265 6.263z" clip-rule="evenodd"/><path fill="#000" d="m19.65 17.406-1.485-1.485zm.99 0-1.485 1.485zm-1.931.941-1.485-1.485zm0 .99-1.485 1.485zm6.265 6.266 1.485 1.485 1.485-1.485-1.485-1.485zm-6.266 6.264-1.485-1.486zm0 .99 1.485-1.486zm.942.94-1.485 1.486zm.99 0-1.485-1.485zm6.265-6.263 1.485-1.485-1.484-1.485-1.485 1.485zm6.264 6.264-1.485 1.485zm.99 0 1.485 1.485zm.94-.942 1.486 1.486zm0-.99-1.484 1.485zm-6.262-6.263-1.485-1.485-1.485 1.485 1.485 1.485zm6.266-6.263-1.485-1.485zm0-.99 1.484-1.485zm-.942-.941 1.485-1.485zm-.99 0-1.485-1.485zm-6.265 6.263-1.485 1.485 1.485 1.485 1.485-1.485zm-5.77-4.781a1.4 1.4 0 0 1-1.981 0l2.97-2.97a2.8 2.8 0 0 0-3.96 0zm-.942.94.941-.94-2.97-2.97-.941.941zm0-1.979a1.4 1.4 0 0 1 0 1.98l-2.97-2.97a2.8 2.8 0 0 0 0 3.96zm6.265 6.266-6.265-6.266-2.97 2.97 6.265 6.266zm-6.266 9.234 6.266-6.264-2.97-2.97-6.266 6.263zm0-1.98a1.4 1.4 0 0 1 0 1.98l-2.97-2.97a2.8 2.8 0 0 0 0 3.96zm.941.94-.941-.94-2.97 2.97.942.94zm-1.98 0a1.4 1.4 0 0 1 1.98 0l-2.97 2.97a2.8 2.8 0 0 0 3.96 0zm6.267-6.263-6.266 6.263 2.97 2.97 6.265-6.263zm9.233 6.264-6.264-6.264-2.97 2.97 6.264 6.264zm-1.98 0a1.4 1.4 0 0 1 1.98 0l-2.97 2.97a2.8 2.8 0 0 0 3.96 0zm.94-.941-.94.94 2.97 2.97.941-.94zm0 1.98a1.4 1.4 0 0 1 0-1.98l2.971 2.97a2.8 2.8 0 0 0 0-3.96zm-6.262-6.264 6.263 6.263 2.97-2.97-6.263-6.263zm6.266-9.233-6.266 6.263 2.97 2.97 6.265-6.263zm0 1.98a1.4 1.4 0 0 1 0-1.98l2.97 2.97a2.8 2.8 0 0 0 0-3.96zm-.942-.94.942.94 2.97-2.97-.942-.941zm1.98 0a1.4 1.4 0 0 1-1.98 0l2.97-2.971a2.8 2.8 0 0 0-3.96 0zm-6.265 6.262 6.265-6.263-2.97-2.97-6.265 6.262zm-9.236-6.266 6.266 6.266 2.97-2.97-6.266-6.266z" mask="url(#e)"/></g></g><g filter="url(#f)"><path fill="#e7cdcd" d="m45.78 26.5-3.428-12.363h1.962l2.408 9.575h.115l2.505-9.575h1.944l2.506 9.58h.114l2.403-9.58h1.968l-3.435 12.364h-1.877l-2.602-9.261h-.097l-2.602 9.26zm17.046.188q-1.304 0-2.276-.598a4.03 4.03 0 0 1-1.51-1.672q-.537-1.074-.537-2.511 0-1.443.538-2.524.537-1.08 1.509-1.678t2.276-.598 2.276.598a4 4 0 0 1 1.509 1.678q.537 1.08.537 2.524 0 1.436-.537 2.511a4.03 4.03 0 0 1-1.51 1.672q-.971.598-2.275.598m.006-1.515q.845 0 1.4-.447t.822-1.19a4.7 4.7 0 0 0 .271-1.635q0-.888-.272-1.63-.265-.75-.82-1.202-.556-.453-1.401-.453-.851 0-1.413.453-.555.453-.827 1.202a4.8 4.8 0 0 0-.265 1.63q0 .892.265 1.636.272.742.827 1.189.562.447 1.413.447m8.136-4.178v5.506h-1.805v-9.273h1.733v1.51h.114a2.65 2.65 0 0 1 1.003-1.184q.688-.447 1.732-.447.948 0 1.66.399.713.392 1.105 1.17.392.78.392 1.927V26.5h-1.805v-5.68q0-1.008-.525-1.576-.524-.573-1.443-.573-.627 0-1.116.271a1.95 1.95 0 0 0-.767.797q-.278.52-.278 1.256m9.907-6.858v1.16q0 .511-.193 1.08a4.6 4.6 0 0 1-.532 1.08q-.344.519-.809.894l-.893-.64q.356-.519.616-1.105.265-.584.265-1.292v-1.177zm6.43 3.091v1.449h-5.066v-1.449zm-3.708-2.222h1.806v8.772q0 .526.156.79a.82.82 0 0 0 .405.357q.253.09.55.09.215 0 .38-.03l.253-.048.326 1.491q-.157.06-.447.121a3.5 3.5 0 0 1-.724.072 3.2 3.2 0 0 1-1.328-.253 2.3 2.3 0 0 1-.996-.821q-.38-.555-.38-1.395zm17.151 4.486-1.636.29a2 2 0 0 0-.326-.598 1.6 1.6 0 0 0-.591-.465q-.375-.18-.936-.181-.767 0-1.28.344-.513.338-.513.875 0 .465.344.749.345.284 1.11.465l1.474.338q1.28.296 1.908.912.627.615.627 1.6a2.43 2.43 0 0 1-.483 1.484q-.476.647-1.334 1.015-.85.368-1.974.368-1.557 0-2.541-.664-.984-.67-1.208-1.902l1.745-.265q.163.681.67 1.032.507.345 1.322.344.888 0 1.419-.368.531-.375.531-.912a.95.95 0 0 0-.326-.73q-.32-.296-.984-.447l-1.57-.344q-1.297-.296-1.92-.942-.615-.645-.615-1.636 0-.82.459-1.437.459-.615 1.267-.96.81-.35 1.854-.35 1.503 0 2.366.652.864.645 1.141 1.733m8.04 3.163v-5.427h1.811v9.273h-1.775v-1.606h-.096a2.9 2.9 0 0 1-1.027 1.237q-.7.49-1.744.49-.894 0-1.582-.393-.682-.399-1.075-1.177-.386-.78-.386-1.926v-5.898h1.805v5.68q0 .95.525 1.51.525.561 1.365.561.507 0 1.008-.253.507-.255.839-.767.338-.513.332-1.304m4.236 7.323v-12.75h1.763v1.503h.151a5 5 0 0 1 .453-.67 2.6 2.6 0 0 1 .821-.664q.525-.29 1.388-.29 1.123 0 2.005.568.88.567 1.382 1.636.507 1.069.507 2.571 0 1.504-.501 2.578-.501 1.07-1.376 1.648-.876.574-1.998.574-.846 0-1.383-.284a2.6 2.6 0 0 1-.833-.664 5 5 0 0 1-.465-.676h-.109v4.92zm1.769-8.114q0 .978.284 1.715.284.736.821 1.153.537.41 1.316.41.809 0 1.352-.428.544-.435.821-1.177.285-.743.284-1.673 0-.916-.278-1.648-.271-.73-.821-1.153-.543-.422-1.358-.422-.785 0-1.328.404-.537.405-.815 1.129t-.278 1.69m8.724 8.114v-12.75h1.762v1.503h.151a5 5 0 0 1 .453-.67 2.6 2.6 0 0 1 .821-.664q.525-.29 1.389-.29 1.122 0 2.004.568.88.567 1.382 1.636.507 1.069.507 2.571 0 1.504-.501 2.578-.5 1.07-1.376 1.648-.876.574-1.998.574-.846 0-1.383-.284a2.6 2.6 0 0 1-.833-.664 5 5 0 0 1-.465-.676h-.108v4.92zm1.768-8.114q0 .978.284 1.715.284.736.821 1.153.537.41 1.316.41.81 0 1.353-.428.542-.435.821-1.177.283-.743.283-1.673 0-.916-.277-1.648-.273-.73-.821-1.153-.544-.422-1.359-.422-.785 0-1.328.404-.537.405-.815 1.129t-.278 1.69m12.63 4.824q-1.304 0-2.276-.598a4.03 4.03 0 0 1-1.509-1.672q-.538-1.074-.538-2.511 0-1.443.538-2.524a4 4 0 0 1 1.509-1.678q.971-.597 2.276-.598 1.304 0 2.276.598a4 4 0 0 1 1.509 1.678q.537 1.08.537 2.524 0 1.436-.537 2.511a4.03 4.03 0 0 1-1.509 1.672q-.972.598-2.276.598m.006-1.515q.845 0 1.4-.447.556-.447.821-1.19.272-.742.272-1.635 0-.888-.272-1.63-.265-.75-.821-1.202-.555-.453-1.4-.453-.852 0-1.413.453-.555.453-.827 1.202a4.8 4.8 0 0 0-.266 1.63q0 .892.266 1.636.272.742.827 1.189.561.447 1.413.447m6.331 1.328v-9.273h1.745v1.473h.096q.254-.75.894-1.177.645-.435 1.461-.435a8 8 0 0 1 .766.042v1.727a3 3 0 0 0-.386-.067 4 4 0 0 0-.555-.042q-.64 0-1.141.272a2.02 2.02 0 0 0-1.075 1.817v5.663zm11.401-9.273v1.449h-5.065v-1.449zm-3.707-2.222h1.805v8.772q0 .526.157.79.157.261.405.357.254.09.549.09.218 0 .38-.03l.254-.048.326 1.491q-.157.06-.447.121a3.5 3.5 0 0 1-.724.072 3.2 3.2 0 0 1-1.329-.253 2.3 2.3 0 0 1-.996-.821q-.38-.555-.38-1.395z"/><path fill="#fff" d="m164.901 26.5-3.598-12.363h3.303l1.865 8.102h.103l2.131-8.102h2.692l2.131 8.12h.103l1.871-8.12h3.296l-3.592 12.364h-2.879l-2.228-7.498h-.096l-2.228 7.498zm16.717.158q-.888 0-1.576-.296a2.46 2.46 0 0 1-1.081-.906q-.392-.609-.392-1.527 0-.773.272-1.304.271-.531.748-.863a3.5 3.5 0 0 1 1.099-.501 7 7 0 0 1 1.328-.236q.79-.072 1.274-.15.483-.086.7-.236a.51.51 0 0 0 .223-.44v-.031q0-.465-.319-.718-.321-.255-.864-.254-.585 0-.942.254a1.12 1.12 0 0 0-.452.7l-2.723-.097a3.2 3.2 0 0 1 .622-1.509q.507-.67 1.388-1.05.888-.387 2.131-.387.888 0 1.636.212.749.205 1.304.603.556.393.858.966.307.574.307 1.31v6.303h-2.777v-1.292h-.072q-.247.471-.634.797-.38.325-.899.489a3.8 3.8 0 0 1-1.159.163m.911-1.932q.477 0 .857-.193.387-.194.616-.532.23-.344.23-.797v-.88a2 2 0 0 1-.308.12q-.175.054-.387.103-.211.048-.434.084l-.429.066a2.7 2.7 0 0 0-.712.206 1.13 1.13 0 0 0-.447.362.9.9 0 0 0-.151.52q0 .457.326.7.332.24.839.24m11.67-7.498V19.4h-5.85v-2.173zm-4.625-2.222h2.952v8.579q0 .272.085.44.09.165.259.236.17.066.405.066.169 0 .356-.03.193-.036.29-.06l.447 2.13q-.212.061-.598.152a5 5 0 0 1-.912.115q-1.038.048-1.781-.242a2.3 2.3 0 0 1-1.128-.918q-.387-.621-.375-1.563zm10.366 11.67q-1.455 0-2.512-.574a3.97 3.97 0 0 1-1.618-1.648q-.561-1.074-.561-2.553 0-1.437.567-2.512.568-1.08 1.6-1.678 1.032-.603 2.433-.604.99 0 1.811.308t1.419.912q.597.604.93 1.49.332.882.332 2.023v.737h-8.06v-1.715h5.313a1.66 1.66 0 0 0-.224-.839 1.5 1.5 0 0 0-.597-.573 1.73 1.73 0 0 0-.864-.212q-.495 0-.887.224a1.68 1.68 0 0 0-.863 1.449v1.744q0 .567.223.996.223.423.634.658t.978.236q.393 0 .712-.109a1.5 1.5 0 0 0 .55-.32q.229-.21.344-.52l2.71.08a3.35 3.35 0 0 1-.742 1.587q-.567.67-1.491 1.044-.924.369-2.137.369m5.908-.175v-9.273h2.868v1.69h.096q.254-.917.828-1.364a2.1 2.1 0 0 1 1.334-.453q.204 0 .422.03.218.025.405.079v2.566a3 3 0 0 0-.556-.115 5 5 0 0 0-.603-.042q-.526 0-.948.235a1.7 1.7 0 0 0-.658.646 1.9 1.9 0 0 0-.236.966V26.5zm12.857-9.273V19.4h-5.964v-2.173zm-4.72 9.273v-9.744q0-1.075.404-1.78.405-.714 1.123-1.063.718-.357 1.66-.357.616 0 1.159.097.55.09.815.163l-.471 2.161a2.4 2.4 0 0 0-.398-.09 3 3 0 0 0-.435-.036q-.519 0-.712.229-.193.23-.193.628V26.5zm8.389.157q-.887 0-1.575-.296a2.46 2.46 0 0 1-1.081-.906q-.392-.609-.392-1.527 0-.773.271-1.304a2.3 2.3 0 0 1 .749-.863 3.5 3.5 0 0 1 1.099-.501 7 7 0 0 1 1.328-.236q.79-.072 1.274-.15.483-.086.7-.236a.51.51 0 0 0 .223-.44v-.031q0-.465-.32-.718-.32-.255-.863-.254-.585 0-.942.254a1.12 1.12 0 0 0-.452.7l-2.723-.097q.12-.844.622-1.509.507-.67 1.388-1.05.888-.387 2.131-.387.888 0 1.636.212.749.205 1.304.603.555.393.857.966.309.574.308 1.31V26.5h-2.777v-1.292h-.072q-.247.471-.634.797-.38.325-.9.489a3.8 3.8 0 0 1-1.159.163m.912-1.932q.477 0 .857-.193.387-.194.616-.532.23-.344.229-.797v-.88a2 2 0 0 1-.307.12q-.175.054-.387.103t-.435.084q-.222.036-.428.066a2.7 2.7 0 0 0-.712.206 1.1 1.1 0 0 0-.447.362.9.9 0 0 0-.151.52q0 .457.326.7.332.24.839.24m9.387-10.589v12.364h-2.952V14.137zm4.831 0v12.364h-2.952V14.137z"/></g></g><rect width="244.858" height="37.858" x="1.071" y="1.071" stroke="#fff" stroke-opacity=".15" stroke-width="2.143" rx="6.929"/><defs><linearGradient id="b" x1="123.501" x2="123.501" y1="0" y2="40.001" gradientUnits="userSpaceOnUse"><stop stop-color="#2c1b1b"/><stop offset="1" stop-color="#1f1414"/></linearGradient><linearGradient id="d" x1="26.905" x2="26.905" y1="17.201" y2="34.003" gradientUnits="userSpaceOnUse"><stop stop-color="red"/><stop offset="1" stop-color="#c00"/></linearGradient><filter id="c" width="40.608" height="41.304" x="2.4" y=".4" color-interpolation-filters="sRGB" filterUnits="userSpaceOnUse"><feFlood flood-opacity="0" result="BackgroundImageFix"/><feColorMatrix in="SourceAlpha" result="hardAlpha" values="0 0 0 0 0 0 0 0 0 0 0 0 0 0 0 0 0 0 127 0"/><feOffset/><feGaussianBlur stdDeviation="2.8"/><feComposite in2="hardAlpha" operator="out"/><feColorMatrix values="0 0 0 0 0 0 0 0 0 0 0 0 0 0 0 0 0 0 0.25 0"/><feBlend in2="BackgroundImageFix" result="effect1_dropShadow_33_49"/><feBlend in="SourceGraphic" in2="effect1_dropShadow_33_49" result="shape"/></filter><filter id="f" width="208.429" height="32.429" x="36.287" y="3.786" color-interpolation-filters="sRGB" filterUnits="userSpaceOnUse"><feFlood flood-opacity="0" result="BackgroundImageFix"/><feColorMatrix in="SourceAlpha" result="hardAlpha" values="0 0 0 0 0 0 0 0 0 0 0 0 0 0 0 0 0 0 127 0"/><feOffset/><feGaussianBlur stdDeviation="2.857"/><feComposite in2="hardAlpha" operator="out"/><feColorMatrix values="0 0 0 0 0 0 0 0 0 0 0 0 0 0 0 0 0 0 0.25 0"/><feBlend in2="BackgroundImageFix" result="effect1_dropShadow_33_49"/><feBlend in="SourceGraphic" in2="effect1_dropShadow_33_49" result="shape"/></filter><clipPath id="a"><rect width="247.001" height="40.001" fill="#fff" rx="8"/></clipPath></defs></svg>