<?xml version="1.0" encoding="UTF-8"?>
<svg version="1.1" xmlns="http://www.w3.org/2000/svg" width="3072" height="1024">
<path d="M0 0 C0.98431503 -0.00708481 1.96863007 -0.01416962 2.98277283 -0.02146912 C4.60832848 -0.01775299 4.60832848 -0.01775299 6.26672363 -0.01396179 C7.97409447 -0.02162819 7.97409447 -0.02162819 9.71595764 -0.02944946 C13.49400021 -0.04339685 17.27186144 -0.04238495 21.04992676 -0.04008484 C23.66544666 -0.04396865 26.28096593 -0.04830266 28.89648438 -0.05307007 C34.38433451 -0.06128955 39.87213319 -0.06037039 45.35998535 -0.05497742 C51.70959385 -0.04893371 58.05898097 -0.0612567 64.40855169 -0.08254749 C70.51039427 -0.10225767 76.61213298 -0.1053409 82.71400452 -0.10181236 C85.3136497 -0.10232748 87.91329828 -0.10760071 90.51292419 -0.11762428 C94.14066872 -0.12989541 97.76789431 -0.12325317 101.39562988 -0.11161804 C102.47933365 -0.11926178 103.56303741 -0.12690552 104.67958069 -0.13478088 C106.15605324 -0.12425941 106.15605324 -0.12425941 107.66235352 -0.11352539 C108.52071053 -0.11369313 109.37906754 -0.11386087 110.26343536 -0.1140337 C111.28696735 0.07145771 111.28696735 0.07145771 112.33117676 0.26069641 C114.20699085 3.07441754 114.68403381 4.32578436 115.26867676 7.51069641 C115.89178665 10.57679269 116.5981444 12.85870394 117.89367676 15.76069641 C119.61393984 19.94916305 120.03633409 23.77705441 120.33117676 28.26069641 C120.99117676 28.26069641 121.65117676 28.26069641 122.33117676 28.26069641 C122.59672363 29.2855011 122.86227051 30.31030579 123.13586426 31.36616516 C123.49246704 32.7268863 123.84924727 34.08756094 124.20617676 35.44819641 C124.3802002 36.12173157 124.55422363 36.79526672 124.73352051 37.48921204 C125.71150114 41.20191628 126.86009931 44.71810175 128.33117676 48.26069641 C128.83070152 49.81680758 129.30977261 51.37962575 129.76867676 52.94819641 C130.02391113 53.81315735 130.27914551 54.67811829 130.54211426 55.56929016 C130.80250488 56.45745422 131.06289551 57.34561829 131.33117676 58.26069641 C133.94712446 67.50900048 133.94712446 67.50900048 137.30773926 76.49507141 C139.88474448 82.46482451 141.05473151 87.76423307 141.33117676 94.26069641 C141.99117676 94.26069641 142.65117676 94.26069641 143.33117676 94.26069641 C143.44074707 94.82917297 143.55031738 95.39764954 143.66320801 95.98335266 C143.8217627 96.7555011 143.98031738 97.52764954 144.14367676 98.32319641 C144.29449707 99.07729797 144.44531738 99.83139954 144.60070801 100.60835266 C145.52873536 103.97803487 146.95018958 107.05092672 148.33117676 110.26069641 C149.17962736 112.79806905 149.99511475 115.32640864 150.76867676 117.88569641 C151.19828793 119.29066767 151.62797661 120.69561523 152.05773926 122.10054016 C152.37533203 123.14443909 152.37533203 123.14443909 152.69934082 124.20942688 C153.29698186 126.14968192 153.91883325 128.08243155 154.54211426 130.01460266 C154.90562988 131.1476886 155.26914551 132.28077454 155.64367676 133.44819641 C155.96980957 134.4523761 156.29594238 135.45655579 156.63195801 136.49116516 C157.31735565 139.20595247 157.46867138 141.47515722 157.33117676 144.26069641 C157.99117676 144.26069641 158.65117676 144.26069641 159.33117676 144.26069641 C159.83924123 145.98751078 160.33728143 147.7172762 160.83117676 149.44819641 C161.10961426 150.4111261 161.38805176 151.37405579 161.67492676 152.36616516 C162.29795283 155.11415517 162.45420488 157.45668057 162.33117676 160.26069641 C162.99117676 160.26069641 163.65117676 160.26069641 164.33117676 160.26069641 C164.57867676 161.53944641 164.82617676 162.81819641 165.08117676 164.13569641 C165.85300081 167.63901128 166.88500429 170.82760592 168.26867676 174.13569641 C171.0958006 180.92291133 173.59779115 187.83548553 173.33117676 195.26069641 C173.99117676 195.26069641 174.65117676 195.26069641 175.33117676 195.26069641 C175.83995976 196.82035859 176.33781144 198.38358882 176.83117676 199.94819641 C177.24883301 201.25337219 177.24883301 201.25337219 177.67492676 202.58491516 C178.32968481 205.25461318 178.44949171 207.52466325 178.33117676 210.26069641 C178.99117676 210.26069641 179.65117676 210.26069641 180.33117676 210.26069641 C180.57352051 211.22749329 180.81586426 212.19429016 181.06555176 213.19038391 C183.26072521 221.86638965 183.26072521 221.86638965 186.33117676 230.26069641 C188.60736011 235.60166208 189.98066996 241.13224808 191.40148926 246.74507141 C192.25615368 249.97699568 193.23975327 253.10218299 194.33117676 256.26069641 C196.87121661 263.72530333 199.34569985 271.16297955 201.45617676 278.76069641 C202.44416544 282.31028478 203.41635935 285.72409355 204.95617676 289.07319641 C206.09483162 291.71280542 206.71432836 293.79663402 207.26867676 296.57319641 C207.93990051 299.87384214 208.88590328 302.78793413 210.20617676 305.88569641 C212.2552459 310.76080515 213.59608953 315.74551267 214.89440918 320.85713196 C215.7596779 324.22922987 216.70815002 327.47277381 218.01867676 330.69819641 C219.48238957 334.67113117 219.95617719 338.06070125 220.33117676 342.26069641 C220.99117676 342.26069641 221.65117676 342.26069641 222.33117676 342.26069641 C222.44074707 342.82917297 222.55031738 343.39764954 222.66320801 343.98335266 C223.44504661 347.7908431 224.29294109 351.17147985 225.83117676 354.76069641 C227.33015515 358.25831266 228.11074323 361.48291673 228.85852051 365.19038391 C229.30738692 367.41589816 229.30738692 367.41589816 230.45617676 370.01069641 C231.44903734 372.56376648 231.48635766 374.5450306 231.33117676 377.26069641 C231.99117676 377.26069641 232.65117676 377.26069641 233.33117676 377.26069641 C233.59672363 378.2855011 233.86227051 379.31030579 234.13586426 380.36616516 C234.49246704 381.7268863 234.84924727 383.08756094 235.20617676 384.44819641 C235.3802002 385.12173157 235.55422363 385.79526672 235.73352051 386.48921204 C236.50420636 389.41496389 237.32085704 392.23518377 238.45617676 395.04194641 C239.56785111 397.86083495 239.4707487 400.2598997 239.33117676 403.26069641 C239.99117676 403.26069641 240.65117676 403.26069641 241.33117676 403.26069641 C241.33117676 404.91069641 241.33117676 406.56069641 241.33117676 408.26069641 C241.99117676 408.26069641 242.65117676 408.26069641 243.33117676 408.26069641 C243.47812988 409.16948547 243.47812988 409.16948547 243.62805176 410.09663391 C244.46282767 414.77425757 245.52436654 419.00811175 247.39367676 423.38569641 C249.25153813 427.75063465 249.98147519 431.53972524 250.33117676 436.26069641 C249.34117676 436.26069641 248.35117676 436.26069641 247.33117676 436.26069641 C247.33117676 436.92069641 247.33117676 437.58069641 247.33117676 438.26069641 C205.42117676 438.26069641 163.51117676 438.26069641 120.33117676 438.26069641 C120.33117676 437.60069641 120.33117676 436.94069641 120.33117676 436.26069641 C119.34117676 436.26069641 118.35117676 436.26069641 117.33117676 436.26069641 C117.00117676 432.63069641 116.67117676 429.00069641 116.33117676 425.26069641 C115.67117676 425.26069641 115.01117676 425.26069641 114.33117676 425.26069641 C114.07723145 424.21011047 113.82328613 423.15952454 113.56164551 422.07710266 C111.95337203 415.49166255 110.35125192 408.96709339 108.10461426 402.56538391 C106.73194834 398.47511678 105.61130364 394.31080019 104.44055176 390.15913391 C103.03575593 385.19126503 101.56109587 380.24389353 100.08166504 375.29780579 C99.88298828 374.62813782 99.68431152 373.95846985 99.47961426 373.26850891 C99.30607422 372.68730286 99.13253418 372.1060968 98.95373535 371.50727844 C98.01221848 368.10969481 97.18626631 364.68105464 96.33117676 361.26069641 C62.01117676 361.26069641 27.69117676 361.26069641 -7.66882324 361.26069641 C-9.42797401 354.22409333 -7.16353438 346.96523259 -4.66882324 340.26069641 C-3.09947742 335.92191679 -2.21898634 331.84538886 -1.66882324 327.26069641 C-1.00882324 327.26069641 -0.34882324 327.26069641 0.33117676 327.26069641 C0.38016113 326.53624329 0.42914551 325.81179016 0.47961426 325.06538391 C0.88768887 319.78855708 1.49864686 315.24925001 3.33117676 310.26069641 C4.10322272 307.2679806 4.82983399 304.26630101 5.54992676 301.26069641 C6.34601976 298.20369929 7.32902913 295.25604541 8.33117676 292.26069641 C9.1761909 289.39462485 9.97363292 286.51597609 10.76867676 283.63569641 C10.98894531 282.84606506 11.20921387 282.05643372 11.43615723 281.24287415 C12.96799554 275.71036039 14.34227715 270.15749912 15.55773926 264.54585266 C16.44012545 261.93880256 17.18501124 260.95839653 19.33117676 259.26069641 C21.47624207 258.89993286 21.47624207 258.89993286 23.98620605 258.92012024 C24.9269548 258.92034683 25.86770355 258.92057343 26.83695984 258.92080688 C28.35583549 258.94403267 28.35583549 258.94403267 29.90539551 258.96772766 C30.94436478 258.9719725 31.98333405 258.97621735 33.05378723 258.98059082 C36.37567952 258.99739793 39.69696751 259.03505445 43.01867676 259.07319641 C45.26931904 259.0882406 47.51997083 259.10192946 49.77062988 259.11421204 C55.29101873 259.14730805 60.81105458 259.19752772 66.33117676 259.26069641 C65.85757377 257.49592786 65.3819188 255.73170991 64.90539551 253.96772766 C64.50840454 252.49396667 64.50840454 252.49396667 64.10339355 250.99043274 C63.52702943 248.95302291 62.85820548 246.94135549 62.14367676 244.94819641 C61.23379603 241.93859092 61.18228036 239.38752075 61.33117676 236.26069641 C60.67117676 236.26069641 60.01117676 236.26069641 59.33117676 236.26069641 C59.00117676 232.63069641 58.67117676 229.00069641 58.33117676 225.26069641 C57.67117676 225.26069641 57.01117676 225.26069641 56.33117676 225.26069641 C56.06562988 224.09151672 55.80008301 222.92233704 55.52648926 221.71772766 C55.16992825 220.16950224 54.81314573 218.62132782 54.45617676 217.07319641 C54.28215332 216.30427063 54.10812988 215.53534485 53.92883301 214.74311829 C53.00477804 210.75599224 51.98425931 207.02145922 50.33117676 203.26069641 C48.72469167 199.06598534 48.11712412 195.75580172 48.33117676 191.26069641 C47.67117676 191.26069641 47.01117676 191.26069641 46.33117676 191.26069641 C46.00117676 187.63069641 45.67117676 184.00069641 45.33117676 180.26069641 C44.67117676 180.26069641 44.01117676 180.26069641 43.33117676 180.26069641 C43.13483643 179.48468079 42.93849609 178.70866516 42.73620605 177.90913391 C41.83502975 174.35845159 40.92691296 170.80957913 40.01867676 167.26069641 C39.70994629 166.03995422 39.40121582 164.81921204 39.08312988 163.56147766 C37.47307402 157.29073376 35.68903061 151.28632292 33.33117676 145.26069641 C32.93313606 143.72977063 32.56826327 142.18889249 32.26867676 140.63569641 C31.56984785 137.05503018 30.49873271 133.71749601 29.33117676 130.26069641 C27.80782035 125.30003938 26.37561497 120.31135984 24.9317627 115.32710266 C24.4070903 113.52188837 23.87376793 111.71919266 23.33898926 109.91694641 C21.99270448 105.24982586 20.93267595 101.17553976 21.33117676 96.26069641 C20.67117676 96.26069641 20.01117676 96.26069641 19.33117676 96.26069641 C19.07723145 95.21011047 18.82328613 94.15952454 18.56164551 93.07710266 C16.92668109 86.38491416 15.27902106 79.77817163 12.98352051 73.27632141 C12.05095046 70.3948475 11.445553 67.46768484 10.85852051 64.49897766 C10.1950638 61.68297252 9.26850795 58.99742981 8.33117676 56.26069641 C5.88490113 48.90340706 3.85702307 42.01692952 3.33117676 34.26069641 C2.67117676 34.26069641 2.01117676 34.26069641 1.33117676 34.26069641 C1.22160645 33.55944641 1.11203613 32.85819641 0.99914551 32.13569641 C0.125346 26.90710751 -0.94353816 22.14321434 -2.94226074 17.23725891 C-4.00996009 14.33265746 -4.61853652 11.36560356 -5.23913574 8.33882141 C-5.63758364 6.2312226 -5.63758364 6.2312226 -6.34851074 4.12007141 C-6.45421387 3.50647766 -6.55991699 2.89288391 -6.66882324 2.26069641 C-4.17889621 -0.22923062 -3.43433004 0.00821364 0 0 Z " fill="#70F260" transform="translate(300.6688232421875,236.7393035888672)"/>
<path d="M0 0 C4.29 0 8.58 0 13 0 C20.30913135 17.39069184 20.30913135 17.39069184 20 26 C20.66 26 21.32 26 22 26 C22.25394531 27.02738281 22.50789062 28.05476563 22.76953125 29.11328125 C26.02008092 43.3009457 26.02008092 43.3009457 30.625 57.0625 C32.41872807 61.57968955 32.713764 66.1833391 33 71 C33.66 71 34.32 71 35 71 C35.10957031 71.6290625 35.21914063 72.258125 35.33203125 72.90625 C36.24678361 77.84442534 37.41174947 82.35275618 39.28125 87.0078125 C40.31022167 89.85985355 40.86159904 92.77045277 41.4765625 95.734375 C42.16602929 98.71863422 43.15710651 101.55669833 44.15625 104.44921875 C45.53945816 108.63086193 46.69864013 112.87496981 47.89453125 117.11328125 C48.87483905 120.57952853 49.8892999 124.03502374 50.91186523 127.48901367 C51.757166 130.34527385 52.59510559 133.20366183 53.43164062 136.0625 C53.94533321 137.81364449 54.46452774 139.56317272 54.984375 141.3125 C56.33199305 145.99102303 57.39943502 150.0736347 57 155 C57.66 155 58.32 155 59 155 C59.19335938 155.71285156 59.38671875 156.42570313 59.5859375 157.16015625 C59.84632813 158.11792969 60.10671875 159.07570313 60.375 160.0625 C60.64570313 161.06667969 60.91640625 162.07085937 61.1953125 163.10546875 C61.82921195 165.38566045 62.52151834 167.62469022 63.25 169.875 C64.05166376 173.21526569 63.75710651 174.71592759 63 178 C62.85820312 178.80179688 62.71640625 179.60359375 62.5703125 180.4296875 C61.8560483 184.35187512 61.10246955 187.76517394 59.5 191.4375 C57.81645583 195.43591741 57.16604667 199.18185332 56.4609375 203.44140625 C55.92326042 206.42596971 55.01194038 209.14275659 54 212 C53.23710166 214.70107249 52.50738419 217.40992968 51.78125 220.12109375 C51.23417582 222.13706211 50.67023441 224.14849396 50.09375 226.15625 C48.4064594 232.08587124 46.81323284 238.04105817 45.2109375 243.99414062 C43.93122192 248.71551552 42.56559819 253.36420277 41 258 C40.50054931 259.89059084 40.02149683 261.78668264 39.5625 263.6875 C37.55850617 271.84517185 35.30750878 279.92371927 33 288 C32.498154 289.83282888 31.99831319 291.66620746 31.5 293.5 C30.15983957 298.4250896 28.81462533 303.34664893 27.31640625 308.2265625 C25.60124741 313.82526751 24.10832213 319.44543292 22.74609375 325.140625 C21.96098386 328.14952781 20.99418909 331.053717 20 334 C19.12177931 336.82628022 18.2778496 339.6622616 17.4375 342.5 C17.21642578 343.23347656 16.99535156 343.96695312 16.76757812 344.72265625 C15.5609352 348.7982659 14.59433178 352.77957654 14 357 C13.34 357 12.68 357 12 357 C11.95101562 357.64066406 11.90203125 358.28132813 11.8515625 358.94140625 C11.39621992 364.20924891 10.59865747 368.93758468 9 374 C8.49470948 375.85273191 7.99512649 377.70702599 7.5 379.5625 C6.73346865 382.3910007 5.94461924 385.16268097 5 387.9375 C3.70364013 391.9076021 2.75399101 395.93986362 1.78125 400 C1.26557541 401.98019044 0.68150886 403.94396169 0.02734375 405.8828125 C-1.16576709 409.5029739 -2.05513707 413.17065369 -2.9375 416.875 C-4.28883596 422.42669106 -5.82024145 427.70630067 -8 433 C-8.33 433.99 -8.66 434.98 -9 436 C-9.66 436 -10.32 436 -11 436 C-11 436.66 -11 437.32 -11 438 C-52.58 438 -94.16 438 -137 438 C-137 437.34 -137 436.68 -137 436 C-137.66 436 -138.32 436 -139 436 C-139 434.68 -139 433.36 -139 432 C-138.34 432 -137.68 432 -137 432 C-136.896875 430.700625 -136.79375 429.40125 -136.6875 428.0625 C-136.29350898 423.09821316 -134.63082084 418.66712324 -133 414 C-132.51005869 412.55915717 -132.0217402 411.11776135 -131.53515625 409.67578125 C-131.17405762 408.60783325 -131.17405762 408.60783325 -130.80566406 407.51831055 C-128.28337048 400.03180511 -125.93616936 392.54199016 -123.859375 384.91796875 C-123.05588311 382.18974855 -122.06986213 379.63220047 -121 377 C-120.48028106 375.36028674 -119.9801267 373.71424021 -119.5 372.0625 C-118.40555489 368.34685886 -117.22494824 364.67484473 -116 361 C-114.98183895 357.67206788 -113.99199031 354.33581057 -113 351 C-112.43796877 349.12485943 -111.87548725 347.24985376 -111.3125 345.375 C-111.06113281 344.53710938 -110.80976563 343.69921875 -110.55078125 342.8359375 C-110.36902344 342.23007812 -110.18726563 341.62421875 -110 341 C-109.34 341 -108.68 341 -108 341 C-107.95101562 340.41992188 -107.90203125 339.83984375 -107.8515625 339.2421875 C-107.40077152 334.53219903 -106.63971278 330.46366258 -105 326 C-104.24532357 323.4925267 -103.51216077 320.97933569 -102.78125 318.46484375 C-102 316 -102 316 -101.0234375 313.56640625 C-99.89862299 310.7457836 -99.00420141 307.90645093 -98.125 305 C-97.77824219 303.85917969 -97.43148437 302.71835937 -97.07421875 301.54296875 C-96.54248047 299.78919922 -96.54248047 299.78919922 -96 298 C-95.31342175 295.77054927 -94.62594538 293.54137488 -93.9375 291.3125 C-92.2662277 285.88251647 -90.62237289 280.44478176 -89 275 C-88.34 275 -87.68 275 -87 275 C-86.95101562 274.41992188 -86.90203125 273.83984375 -86.8515625 273.2421875 C-86.40077152 268.53219903 -85.63971278 264.46366258 -84 260 C-83.44954291 258.21101447 -82.90845742 256.41912803 -82.375 254.625 C-82.11460937 253.75101563 -81.85421875 252.87703125 -81.5859375 251.9765625 C-81.39257812 251.32429687 -81.19921875 250.67203125 -81 250 C-80.34 250 -79.68 250 -79 250 C-78.96261719 249.38253906 -78.92523438 248.76507813 -78.88671875 248.12890625 C-78.3040726 240.62305291 -76.49820648 234.35598252 -73.4375 227.5 C-72.03460358 224.08425219 -71.2672439 220.92367281 -70.52734375 217.328125 C-69.36304159 212.18794655 -67.58308894 207.30611922 -65.4375 202.5 C-64.01593708 199.03880333 -63.21597373 195.80412737 -62.47265625 192.15625 C-61.85969349 189.359924 -60.96639086 186.69208884 -60 184 C-59.34 184 -58.68 184 -58 184 C-57.97421875 183.39414062 -57.9484375 182.78828125 -57.921875 182.1640625 C-57.5273091 176.33524802 -56.33263261 171.65162768 -53.9375 166.32421875 C-52.95730363 163.89414859 -52.43806601 161.57820102 -52 159 C-51.34 159 -50.68 159 -50 159 C-49.97421875 158.39414062 -49.9484375 157.78828125 -49.921875 157.1640625 C-49.53711214 151.48006576 -48.37376612 147.03747362 -46.109375 141.8359375 C-44.77853792 138.43386807 -43.84223705 134.97026195 -42.9375 131.4375 C-41.17750767 124.59923194 -39.32013801 117.95710914 -36.4375 111.5 C-35.01442339 108.03511781 -34.26899544 104.81631376 -33.5234375 101.16796875 C-32.92182534 98.67621691 -31.92133535 96.45605657 -30.8515625 94.1328125 C-29.21988761 90.04614052 -28.162018 85.77014166 -26.984375 81.53515625 C-25.72238037 77.00299299 -24.36890452 72.50079213 -23 68 C-22.34 68 -21.68 68 -21 68 C-20.96261719 67.38253906 -20.92523438 66.76507813 -20.88671875 66.12890625 C-20.3040726 58.62305291 -18.49820648 52.35598252 -15.4375 45.5 C-14.30746144 42.74860176 -13.63472121 40.55362554 -13.0625 37.6875 C-12.39127625 34.38685427 -11.44527348 31.47276228 -10.125 28.375 C-7.82364344 22.89639744 -6.38404164 17.26092481 -4.9296875 11.515625 C-4.07644102 8.28906269 -3.09268921 5.15236003 -2 2 C-1.34 2 -0.68 2 0 2 C0 1.34 0 0.68 0 0 Z " fill="#70F260" transform="translate(256,237)"/>
<path d="M0 0 C2.21793786 1.54746811 3.91900062 2.93812687 5.8125 4.8125 C6.32804443 5.30443848 6.84358887 5.79637695 7.37475586 6.30322266 C24.73283065 23.20217435 24.73283065 23.20217435 25.13142776 34.83595943 C25.13953593 36.42715643 25.14212026 38.01838711 25.14044189 39.60960388 C25.14341302 40.48745751 25.14638414 41.36531114 25.1494453 42.26976639 C25.15813012 45.21688187 25.15964035 48.16395672 25.16113281 51.11108398 C25.16576104 53.22176195 25.17078571 55.33243908 25.17617798 57.44311523 C25.18930122 63.1806341 25.19574649 68.91814126 25.20018864 74.65567279 C25.20311873 78.23843274 25.20722337 81.82118949 25.21169281 85.40394783 C25.22536589 96.60859075 25.23503418 107.81322636 25.2388947 119.01787704 C25.24337886 131.96193901 25.26094417 144.90589556 25.2898953 157.84992546 C25.31148756 167.85000369 25.32159762 177.8500522 25.32293582 187.85015351 C25.32398536 193.82563933 25.32992523 199.80102602 25.34775543 205.77648735 C25.36419423 211.39481938 25.36641202 217.01297731 25.35761642 222.63132477 C25.35684387 224.6949186 25.36121736 226.75852163 25.37107468 228.82209206 C25.38372993 231.63607469 25.37795242 234.44943467 25.36749268 237.26341248 C25.37957728 238.49230427 25.37957728 238.49230427 25.39190602 239.74602216 C25.35195622 244.33168033 24.88544442 247.36811637 22 251 C19.63070966 252.18464517 18.16528854 252.13908051 15.52197266 252.16113281 C14.13010239 252.17554413 14.13010239 252.17554413 12.71011353 252.19024658 C11.20231827 252.1966214 11.20231827 252.1966214 9.6640625 252.203125 C8.63316498 252.20882507 7.60226746 252.21452515 6.54013062 252.22039795 C4.35619129 252.22985536 2.17223766 252.23638486 -0.01171875 252.24023438 C-3.35441968 252.24994024 -6.69650597 252.28095715 -10.0390625 252.3125 C-12.15885051 252.31902988 -14.27864292 252.32428041 -16.3984375 252.328125 C-17.39958588 252.3404718 -18.40073425 252.3528186 -19.43222046 252.36553955 C-20.36643829 252.36253845 -21.30065613 252.35953735 -22.26318359 252.35644531 C-23.49323624 252.36191376 -23.49323624 252.36191376 -24.74813843 252.36749268 C-27.57381488 251.90635625 -28.92937163 250.95197049 -31 249 C-32.32984842 245.01045474 -32.13072766 241.18911512 -32.11352539 237.03051758 C-32.11364593 236.09841052 -32.11376646 235.16630346 -32.11389065 234.20595074 C-32.11314361 231.18545339 -32.10552482 228.16501757 -32.09765625 225.14453125 C-32.09618619 223.28104685 -32.09516587 221.41756204 -32.09460449 219.55407715 C-32.08935909 212.64021181 -32.07539792 205.7263553 -32.0625 198.8125 C-32.041875 183.364375 -32.02125 167.91625 -32 152 C-65.33 152 -98.66 152 -133 152 C-132.84164026 183.41371117 -132.84164026 183.41371117 -132.63964844 214.82714844 C-132.62158203 220.90283203 -132.62158203 220.90283203 -132.6182251 223.74713135 C-132.61208273 225.73365867 -132.59801421 227.72017108 -132.57769775 229.706604 C-132.54845942 232.71579903 -132.54437446 235.72408286 -132.54589844 238.73339844 C-132.531506 239.6183688 -132.51711357 240.50333916 -132.502285 241.4151268 C-132.52816351 245.22682321 -132.55030931 247.33744418 -134.72857666 250.54681396 C-137.33467213 252.21411283 -138.72272411 252.50581631 -141.796875 252.51757812 C-143.2185498 252.53649109 -143.2185498 252.53649109 -144.66894531 252.55578613 C-145.68569336 252.54768921 -146.70244141 252.53959229 -147.75 252.53125 C-149.32539551 252.53699036 -149.32539551 252.53699036 -150.93261719 252.54284668 C-153.15170247 252.54556696 -155.37081974 252.53819777 -157.58984375 252.52148438 C-160.98770595 252.50007745 -164.38345361 252.52128325 -167.78125 252.546875 C-169.93750467 252.54423175 -172.09375802 252.53910682 -174.25 252.53125 C-175.26674805 252.53934692 -176.28349609 252.54744385 -177.33105469 252.55578613 C-178.27883789 252.54317749 -179.22662109 252.53056885 -180.203125 252.51757812 C-181.45077637 252.51280457 -181.45077637 252.51280457 -182.72363281 252.50793457 C-186.01564924 251.77337428 -186.98763294 250.72662855 -189 248 C-189.60097557 244.8541753 -189.53067507 241.74277691 -189.49447632 238.54846191 C-189.49930515 237.58006457 -189.50413398 236.61166722 -189.50910914 235.6139245 C-189.52040517 232.36018272 -189.50304152 229.10722246 -189.48583984 225.85351562 C-189.48798508 223.52446784 -189.49186184 221.1954211 -189.49734497 218.86637878 C-189.50705455 212.53379937 -189.49171464 206.20150104 -189.47143888 199.86895561 C-189.45567447 193.92024102 -189.45711363 187.97154935 -189.45798953 182.02281767 C-189.45899086 170.2353774 -189.44066555 158.44804564 -189.41162109 146.66064453 C-189.38344608 135.22019473 -189.36927955 123.77984044 -189.37060547 112.33935547 C-189.37068538 111.63475002 -189.37076529 110.93014458 -189.37084763 110.20418745 C-189.37092834 109.50080573 -189.37100905 108.797424 -189.3710922 108.07272768 C-189.37240185 95.71209827 -189.36210824 83.35150824 -189.34550858 70.9908905 C-189.33843786 65.72462154 -189.33478135 60.45836638 -189.33372116 55.1920929 C-189.3317153 48.99348372 -189.31953025 42.79497526 -189.29938889 36.59639931 C-189.29353634 34.31792632 -189.29108866 32.03944174 -189.29224396 29.76096153 C-189.29322219 26.65771253 -189.2819454 23.55474759 -189.26742554 20.45153809 C-189.27052274 19.54376318 -189.27361995 18.63598828 -189.276811 17.70070505 C-189.27036211 16.8696429 -189.26391322 16.03858075 -189.25726891 15.1823349 C-189.25586006 14.46607233 -189.25445121 13.74980975 -189.25299966 13.01184225 C-188.95378007 10.63246117 -188.25393107 9.03662927 -187 7 C-184.61212762 5.80606381 -183.0961943 5.85438356 -180.43017578 5.82299805 C-179.48224152 5.81016281 -178.53430725 5.79732758 -177.55764771 5.78410339 C-176.53057709 5.77671646 -175.50350647 5.76932953 -174.4453125 5.76171875 C-172.86567215 5.74961113 -172.86567215 5.74961113 -171.25411987 5.73725891 C-169.02310842 5.72341305 -166.79207573 5.71269315 -164.56103516 5.70483398 C-161.14575222 5.68760469 -157.73143299 5.64372034 -154.31640625 5.59960938 C-152.1510488 5.58948414 -149.98568311 5.58096751 -147.8203125 5.57421875 C-146.79729034 5.55671066 -145.77426819 5.53920258 -144.72024536 5.52116394 C-143.76600677 5.52408951 -142.81176819 5.52701508 -141.82861328 5.5300293 C-140.5719133 5.52122993 -140.5719133 5.52122993 -139.28982544 5.51225281 C-135.96378004 6.22072136 -134.91797372 7.18033082 -133 10 C-132.43225661 13.03064176 -132.49480507 16.00786442 -132.54589844 19.08300781 C-132.5454163 20.0152354 -132.54493416 20.947463 -132.54443741 21.90793991 C-132.54742131 24.92339097 -132.57787295 27.93785105 -132.609375 30.953125 C-132.61525667 32.81558761 -132.61933706 34.6780568 -132.62158203 36.54052734 C-132.64254736 43.44378578 -132.69839233 50.34690264 -132.75 57.25 C-132.8325 72.6775 -132.915 88.105 -133 104 C-99.67 104 -66.34 104 -32 104 C-32.11858584 80.33583397 -32.11858584 80.33583397 -32.27026367 56.671875 C-32.28381348 52.07421875 -32.28381348 52.07421875 -32.28633118 49.91552734 C-32.29090996 48.4216849 -32.30140278 46.9278529 -32.31672668 45.43408203 C-32.50427125 26.1739718 -32.50427125 26.1739718 -25.0703125 18.27539062 C-24.59335938 17.79263672 -24.11640625 17.30988281 -23.625 16.8125 C-23.15578125 16.31814453 -22.6865625 15.82378906 -22.203125 15.31445312 C-19.19029442 12.15597466 -16.09913712 9.07352442 -13 6 C-12.10474609 5.10861328 -12.10474609 5.10861328 -11.19140625 4.19921875 C-10.38509766 3.45091797 -10.38509766 3.45091797 -9.5625 2.6875 C-9.02753906 2.17574219 -8.49257812 1.66398437 -7.94140625 1.13671875 C-5.06431708 -0.54785459 -3.2843581 -0.4902027 0 0 Z " fill="#FFFFFF" transform="translate(1963,353)"/>
<path d="M0 0 C1.00546875 0.26296875 2.0109375 0.5259375 3.046875 0.796875 C12.72318894 3.63027079 25.76727408 8.76727408 33 16 C33.25168228 18.36548805 33.25168228 18.36548805 33.25396729 21.39395142 C33.26242676 23.113022 33.26242676 23.113022 33.27105713 24.86682129 C33.26498444 26.76313293 33.26498444 26.76313293 33.25878906 28.69775391 C33.26149859 30.03840322 33.26505931 31.37905105 33.26940918 32.71969604 C33.27855929 36.37400191 33.27497313 40.02819529 33.26865101 43.68250322 C33.26358162 47.52567374 33.26828719 51.36883471 33.27142334 55.21200562 C33.27506989 61.69034541 33.27025596 68.16863976 33.26074219 74.64697266 C33.24995722 82.0753656 33.2533069 89.50364789 33.264395 96.93203795 C33.27357022 103.34090241 33.27470097 109.74973414 33.26951766 116.15860307 C33.26644032 119.97114698 33.26586681 123.78363961 33.27259064 127.59617996 C33.32888659 164.76897351 33.24140852 201.30972663 6.375 230.0625 C-20.03934714 255.14071285 -54.61351608 258.84716881 -89.49365234 258.13623047 C-103.20155274 257.60364389 -119.96126508 254.58568271 -131 246 C-135.82736586 239.06440487 -140.3103938 228.5175597 -139 220 C-137.0625 217.5 -137.0625 217.5 -134 215 C-132.98292969 214.14728516 -132.98292969 214.14728516 -131.9453125 213.27734375 C-122.38813804 205.48940401 -122.38813804 205.48940401 -117 204 C-113.1732492 204.40445334 -110.12411828 205.76146475 -106.6875 207.4375 C-99.29373056 210.87208902 -92.12323782 212.47155942 -84 213 C-82.48986328 213.09861328 -82.48986328 213.09861328 -80.94921875 213.19921875 C-64.48964597 213.74976963 -48.53016482 209.96389422 -36 199 C-35.34 199 -34.68 199 -34 199 C-33.5978125 198.18789063 -33.5978125 198.18789063 -33.1875 197.359375 C-32.32875309 195.65318048 -31.45133359 193.95634108 -30.5625 192.265625 C-24.72508105 180.99940643 -23.7062149 172.53483081 -24 160 C-24.4640625 160.556875 -24.928125 161.11375 -25.40625 161.6875 C-30.08192258 166.85167569 -34.82283349 170.35181139 -41 173.4375 C-41.65162109 173.76685547 -42.30324219 174.09621094 -42.97460938 174.43554688 C-52.63669124 179.04065853 -62.02312445 179.38818395 -72.625 179.375 C-73.29163666 179.37512085 -73.95827332 179.3752417 -74.64511108 179.37536621 C-84.64203062 179.34950991 -93.61129008 178.74522308 -103 175 C-103.88171875 174.66484375 -104.7634375 174.3296875 -105.671875 173.984375 C-120.95668617 167.69062922 -132.53012402 155.15132498 -139.25 140.25 C-146.16658098 122.9397525 -148.94506114 104.61359555 -148 86 C-147.96422852 85.25588867 -147.92845703 84.51177734 -147.89160156 83.74511719 C-146.53158093 58.61948057 -139.8211687 34.46590293 -121.390625 16.44921875 C-89.9740655 -11.52850113 -38.45592912 -10.78053243 0 0 Z M-71 41 C-71.64710938 41.33902344 -72.29421875 41.67804688 -72.9609375 42.02734375 C-81.67109366 47.37134786 -86.48025025 57.43450451 -89 67 C-90.73523287 74.67807039 -91.35536292 82.07593579 -91.3125 89.9375 C-91.30831055 90.99001953 -91.30412109 92.04253906 -91.29980469 93.12695312 C-91.19351367 100.42258765 -90.65992337 107.13716742 -88 114 C-87.73316406 114.72703125 -87.46632813 115.4540625 -87.19140625 116.203125 C-83.96290118 123.72195459 -78.30579026 129.35054734 -70.75 132.4375 C-69.17929156 132.99525156 -67.59605291 133.5195555 -66 134 C-65.05640625 134.29003906 -65.05640625 134.29003906 -64.09375 134.5859375 C-54.24335618 136.53396314 -43.87975294 135.04053267 -35.0234375 130.40234375 C-30.0158453 126.93183101 -25.25695036 121.71014117 -23 116 C-22.70974699 112.68308808 -22.70974699 112.68308808 -22.77294922 108.93652344 C-22.77265717 108.23368225 -22.77236511 107.53084106 -22.77206421 106.80670166 C-22.77345408 104.49079916 -22.78899887 102.17522108 -22.8046875 99.859375 C-22.80841885 98.25083594 -22.81126525 96.64229459 -22.81326294 95.03375244 C-22.82088977 90.80539649 -22.84053006 86.5771785 -22.8626709 82.34887695 C-22.88314982 78.03208278 -22.89226903 73.71526627 -22.90234375 69.3984375 C-22.92377688 60.93222844 -22.95790132 52.4661314 -23 44 C-31.79604354 38.84981618 -39.08902184 36.44512304 -49.375 36.5625 C-50.29748535 36.56934814 -51.2199707 36.57619629 -52.17041016 36.58325195 C-59.05293776 36.74538667 -64.89441616 37.63637836 -71 41 Z " fill="#FFFFFF" transform="translate(3000,430)"/>
<path d="M0 0 C2.8447794 0.02680077 5.6856144 0.00017453 8.53027344 -0.03173828 C18.93613802 -0.05205443 27.73308541 0.05772835 35.80249023 7.43676758 C82.29598573 55.09717993 111.93016135 169.30020523 113.28808594 235.27685547 C113.31056396 235.97037109 113.33304199 236.66388672 113.35620117 237.37841797 C113.34183642 240.3014617 113.05270548 242.32138724 111.51879883 244.8293457 C107.20967326 247.77267285 102.75908584 247.20193186 97.66308594 247.14794922 C96.56843018 247.14940445 95.47377441 247.15085968 94.34594727 247.15235901 C92.03268776 247.15069979 89.71941724 247.13913608 87.40625 247.1184082 C83.86378121 247.08946329 80.3228095 247.09779772 76.78027344 247.11083984 C74.53287032 247.10460217 72.28547194 247.09621102 70.03808594 247.08544922 C68.44734253 247.08985268 68.44734253 247.08985268 66.82446289 247.09434509 C65.83663818 247.08166092 64.84881348 247.06897675 63.83105469 247.0559082 C62.53010864 247.04780373 62.53010864 247.04780373 61.20288086 247.03953552 C58.32207798 246.56475245 56.9562471 245.65053463 54.85058594 243.65185547 C53.82066459 240.56209144 53.50657974 237.9219835 53.20214844 234.68310547 C53.08355469 233.47009766 52.96496094 232.25708984 52.84277344 231.00732422 C52.60395081 228.4996866 52.36687699 225.99188161 52.13183594 223.48388672 C51.11004732 213.081209 49.49029733 203.03669431 47.85058594 192.65185547 C17.16058594 192.65185547 -13.52941406 192.65185547 -45.14941406 192.65185547 C-46.53416586 204.42224576 -47.81029328 216.15543777 -48.7512207 227.96386719 C-48.91274576 229.9702034 -49.09139796 231.97513758 -49.27050781 233.97998047 C-49.36775146 235.14432617 -49.46499512 236.30867187 -49.56518555 237.50830078 C-50.18809769 240.8600002 -51.14541113 242.91337347 -53.14941406 245.65185547 C-55.56709723 246.86069705 -57.12574998 246.79146704 -59.8269043 246.81298828 C-60.79808701 246.82259583 -61.76926971 246.83220337 -62.7698822 246.84210205 C-64.34800438 246.84847687 -64.34800438 246.84847687 -65.95800781 246.85498047 C-67.0356691 246.86068054 -68.11333038 246.86638062 -69.22364807 246.87225342 C-71.50594091 246.8817107 -73.78824745 246.88824028 -76.07055664 246.89208984 C-79.56908846 246.90180596 -83.06703558 246.93282731 -86.56542969 246.96435547 C-88.7796189 246.97088425 -90.99381232 246.97613521 -93.20800781 246.97998047 C-94.25806503 246.99232727 -95.30812225 247.00467407 -96.38999939 247.01739502 C-97.36433426 247.01439392 -98.33866913 247.01139282 -99.3425293 247.00830078 C-100.20031479 247.01194641 -101.05810028 247.01559204 -101.94187927 247.01934814 C-104.65616133 246.56749625 -105.51437911 245.83152837 -107.14941406 243.65185547 C-120.82534289 189.80736083 -78.0869479 97.58950763 -55.14941406 49.65185547 C-54.75012695 48.81090332 -54.35083984 47.96995117 -53.93945312 47.10351562 C-48.69516209 36.12161813 -43.14416904 25.62798141 -36.14941406 15.65185547 C-35.49328125 14.69408203 -34.83714844 13.73630859 -34.16113281 12.74951172 C-25.031963 0.29066474 -14.48818666 -0.16253575 0 0 Z M0.85058594 55.65185547 C-13.63833903 80.08004297 -35.14941406 119.28894008 -35.14941406 148.65185547 C-11.05941406 148.65185547 13.03058594 148.65185547 37.85058594 148.65185547 C31.98879444 127.51864931 31.98879444 127.51864931 24.97558594 106.83935547 C24.72112701 106.14804535 24.46666809 105.45673523 24.20449829 104.74447632 C19.92997246 93.13863683 15.24522019 81.78446617 9.85058594 70.65185547 C9.51124023 69.93900391 9.17189453 69.22615234 8.82226562 68.49169922 C5.96097677 61.02142794 5.96097677 61.02142794 0.85058594 55.65185547 Z " fill="#FFFFFF" transform="translate(798.1494140625,358.34814453125)"/>
<path d="M0 0 C18.34687592 14.8145751 27.05899068 33.88944784 30 57 C31.47393961 86.99243773 28.93175428 116.5956556 8 140 C-10.47330546 159.35137848 -35.00506185 165.79626527 -61 167 C-62.07636719 167.05414062 -63.15273437 167.10828125 -64.26171875 167.1640625 C-89.36017639 167.81751347 -115.19776881 161.23003792 -134.44140625 144.53125 C-153.66901641 125.50912575 -159.80380806 100.73493764 -160.25 74.4375 C-159.85492109 51.30069133 -154.98990727 27.59916989 -139 10 C-138.34644531 9.25492187 -137.69289063 8.50984375 -137.01953125 7.7421875 C-105.0109311 -26.65685456 -36.32120885 -27.85306184 0 0 Z M-92 34 C-104.66249477 48.84670133 -104.11705306 69.59130578 -103 88 C-101.61527513 98.62204214 -98.32509954 109.77627549 -90 117 C-77.98421581 124.26157148 -65.50642088 125.85554927 -51.7265625 123.421875 C-43.59117843 120.85771383 -36.79950118 115.56726131 -32.3359375 108.28515625 C-29.67107522 102.72946383 -27.92130678 97.08490989 -27 91 C-26.88914062 90.2678125 -26.77828125 89.535625 -26.6640625 88.78125 C-24.55281433 71.66302157 -24.23130264 49.64619222 -35.01171875 35.328125 C-42.22285532 27.62617809 -49.77567181 24.53939292 -60.19140625 23.76171875 C-71.8663172 23.50468131 -83.51395058 25.3197618 -92 34 Z " fill="#FFFFFF" transform="translate(2182,443)"/>
<path d="M0 0 C18.34687592 14.8145751 27.05899068 33.88944784 30 57 C31.47393961 86.99243773 28.93175428 116.5956556 8 140 C-10.47330546 159.35137848 -35.00506185 165.79626527 -61 167 C-62.07636719 167.05414062 -63.15273437 167.10828125 -64.26171875 167.1640625 C-89.36017639 167.81751347 -115.19776881 161.23003792 -134.44140625 144.53125 C-153.66901641 125.50912575 -159.80380806 100.73493764 -160.25 74.4375 C-159.85492109 51.30069133 -154.98990727 27.59916989 -139 10 C-138.34644531 9.25492187 -137.69289063 8.50984375 -137.01953125 7.7421875 C-105.0109311 -26.65685456 -36.32120885 -27.85306184 0 0 Z M-92 34 C-104.66249477 48.84670133 -104.11705306 69.59130578 -103 88 C-101.61527513 98.62204214 -98.32509954 109.77627549 -90 117 C-77.98421581 124.26157148 -65.50642088 125.85554927 -51.7265625 123.421875 C-43.59117843 120.85771383 -36.79950118 115.56726131 -32.3359375 108.28515625 C-29.67107522 102.72946383 -27.92130678 97.08490989 -27 91 C-26.88914062 90.2678125 -26.77828125 89.535625 -26.6640625 88.78125 C-24.55281433 71.66302157 -24.23130264 49.64619222 -35.01171875 35.328125 C-42.22285532 27.62617809 -49.77567181 24.53939292 -60.19140625 23.76171875 C-71.8663172 23.50468131 -83.51395058 25.3197618 -92 34 Z " fill="#FFFFFF" transform="translate(1269,443)"/>
<path d="M0 0 C14.97388531 12.5943695 22.60403036 29.07970792 24.63305664 48.45483398 C25.6268846 60.25772415 24.54637842 71.24635153 18.28125 81.5390625 C8.41653817 90.85573479 -3.30311872 92.84141236 -16.40429688 92.77758789 C-17.60573837 92.77780693 -17.60573837 92.77780693 -18.83145142 92.7780304 C-21.45016289 92.7773398 -24.06880112 92.76958779 -26.6875 92.76171875 C-28.51452597 92.75985153 -30.34155245 92.75842906 -32.1685791 92.75743103 C-36.95578415 92.75362976 -41.74295841 92.74382008 -46.53015137 92.73272705 C-51.42374251 92.72246134 -56.31733867 92.71792239 -61.2109375 92.71289062 C-70.79688846 92.70219549 -80.38281666 92.68514803 -89.96875 92.6640625 C-89.20012683 95.2368046 -88.42293649 97.8064199 -87.640625 100.375 C-87.42519043 101.09937256 -87.20975586 101.82374512 -86.98779297 102.57006836 C-84.37088274 111.10664355 -80.25590656 116.68840468 -72.53515625 121.34375 C-59.05036744 128.28112994 -41.7065156 129.22022766 -27.09375 125.2265625 C-21.14164076 123.05570038 -15.561279 119.92782821 -10.14111328 116.66235352 C-3.96449415 113.10497121 1.06264599 113.02177527 8 114.14453125 C14.12309989 115.85484156 19.79716361 117.97585744 25.03125 121.6640625 C28.23714621 128.07585493 25.09472945 135.89023495 23.296875 142.296875 C20.18460831 150.57704132 15.55610783 153.71992537 8.03125 157.6640625 C7.20625 158.10878906 6.38125 158.55351563 5.53125 159.01171875 C-22.64238163 173.05558696 -62.34922679 171.94450305 -91.70800781 162.47070312 C-101.6935615 158.90782306 -111.11022979 153.81929102 -118.96875 146.6640625 C-119.71382812 145.99890625 -120.45890625 145.33375 -121.2265625 144.6484375 C-138.79913801 128.08851888 -144.22636539 106.34927598 -145.21484375 82.92578125 C-145.86269006 55.71915456 -139.74190081 31.64867578 -123.65625 9.4765625 C-110.81527232 -3.96166996 -95.15907164 -12.00698975 -76.96875 -15.3359375 C-75.95039062 -15.52671875 -74.93203125 -15.7175 -73.8828125 -15.9140625 C-47.95991958 -18.70814677 -21.11837616 -16.61682756 0 0 Z M-79.48828125 29.27734375 C-84.90521532 35.90108845 -88.65901603 43.83129343 -89.5300293 52.36547852 C-89.6139946 53.17171158 -89.6979599 53.97794464 -89.7844696 54.80860901 C-89.8756884 55.72705849 -89.8756884 55.72705849 -89.96875 56.6640625 C-82.49295441 56.75686613 -75.01728363 56.82787951 -67.54102802 56.87131119 C-64.06921816 56.89215962 -60.59780327 56.92042545 -57.1262207 56.96582031 C-53.13228631 57.01771689 -49.13876485 57.03703023 -45.14453125 57.0546875 C-43.90165848 57.07533264 -42.65878571 57.09597778 -41.37825012 57.11724854 C-40.21742416 57.11755066 -39.05659821 57.11785278 -37.8605957 57.11816406 C-36.84133499 57.12704651 -35.82207428 57.13592896 -34.77192688 57.14508057 C-31.21211174 56.53422529 -29.53310532 55.15720926 -26.96875 52.6640625 C-25.02821405 45.79384206 -27.85596169 38.74814875 -30.96875 32.6640625 C-34.35914254 26.92647512 -41.01711272 22.71783244 -47.4296875 21.0078125 C-58.83001957 19.46438293 -71.18408198 20.46080313 -79.48828125 29.27734375 Z " fill="#FFFFFF" transform="translate(1610.96875,441.3359375)"/>
<path d="M0 0 C7.19629457 4.48481315 13.14114873 10.93597495 19 17 C20.33102853 18.33563416 21.66367379 19.66966628 23 21 C23.46148438 20.49210937 23.92296875 19.98421875 24.3984375 19.4609375 C35.38922546 7.86196365 50.02546126 1.24779594 66.00390625 0.6640625 C87.52717888 0.36707724 106.29235033 2.71283187 122.5234375 18.2890625 C126.3722294 22.50209338 129.29487636 26.98996279 132 32 C132.59748047 33.09054687 132.59748047 33.09054687 133.20703125 34.203125 C142.07171858 52.13170611 140.16145103 74.33253005 140.16796875 93.78515625 C140.17118846 96.05862956 140.17455305 98.33210267 140.17805481 100.60557556 C140.18400416 105.33983847 140.18589868 110.07408323 140.18530273 114.80834961 C140.18520048 120.87087977 140.19893607 126.93329448 140.21607494 132.99579716 C140.22718544 137.67722612 140.22922236 142.35862687 140.22869301 147.04006767 C140.22987134 149.2763554 140.23428485 151.51264389 140.24202538 153.74891853 C140.2518209 156.86663156 140.2489506 159.98408952 140.24291992 163.10180664 C140.24853943 164.01979538 140.25415894 164.93778412 140.25994873 165.8835907 C140.23671635 170.60944133 140.0417912 174.63474082 138 179 C134.85208032 181.09861312 134.09366479 181.25392288 130.50024414 181.2746582 C129.59242691 181.28419022 128.68460968 181.29372223 127.74928284 181.30354309 C126.77112106 181.30263168 125.79295929 181.30172028 124.78515625 181.30078125 C123.77786972 181.30506638 122.77058319 181.3093515 121.73277283 181.31376648 C119.6018855 181.319511 117.47097855 181.32000915 115.34008789 181.31567383 C112.07859857 181.31251559 108.81801764 181.33596596 105.55664062 181.36132812 C103.48698031 181.36360126 101.41731756 181.36430455 99.34765625 181.36328125 C97.88344994 181.37709587 97.88344994 181.37709587 96.3896637 181.39118958 C95.47869431 181.38496078 94.56772491 181.37873199 93.62915039 181.37231445 C92.82989639 181.37294388 92.0306424 181.3735733 91.20716858 181.3742218 C88.41515841 180.90084107 87.05231068 179.92621244 85 178 C84.07698706 175.23096119 83.87159448 173.57680339 83.86196899 170.72032166 C83.85651566 169.84716309 83.85106232 168.97400452 83.84544373 168.0743866 C83.8444014 167.11905533 83.84335907 166.16372406 83.84228516 165.17944336 C83.83720444 164.1709433 83.83212372 163.16244324 83.82688904 162.12338257 C83.81617884 159.9298941 83.80756121 157.73639465 83.80076981 155.54289055 C83.78898144 152.06593502 83.76952642 148.58910373 83.74765015 145.11219788 C83.68604749 135.22498745 83.63207532 125.33778835 83.59863281 115.45043945 C83.57763005 109.40386455 83.5422765 103.35751393 83.49787521 97.31106758 C83.483754 95.0111309 83.47500158 92.71115451 83.47182083 90.41117668 C83.4668853 87.18265384 83.44365702 83.95472044 83.41650391 80.72631836 C83.41951004 79.78515671 83.42251617 78.84399506 83.4256134 77.87431335 C83.31553662 69.01400697 81.55385624 60.77119995 75.875 53.7578125 C69.23587463 47.53363247 60.66651028 45.60382673 51.8203125 45.72265625 C43.25788537 46.56466778 35.7777136 49.60182599 30 56 C24.97166756 62.14937904 24.27809333 67.35168509 24.35644531 75.1418457 C24.3431292 76.77496956 24.3431292 76.77496956 24.32954407 78.44108582 C24.30594978 82.01963206 24.31703244 85.59718907 24.328125 89.17578125 C24.31754295 91.66823896 24.30463053 94.16068777 24.28948975 96.65312195 C24.25880412 102.53194333 24.24937082 108.41048217 24.25106406 114.28937739 C24.25274449 124.20147832 24.20826397 134.11343131 24.16766357 144.0254364 C24.1476265 148.94671026 24.13831445 153.86782584 24.13751221 158.78913879 C24.13369281 161.02780156 24.12984894 163.26646428 24.12597656 165.50512695 C24.12807632 166.52905548 24.13017609 167.55298401 24.13233948 168.60794067 C24.12977646 169.54288864 24.12721344 170.47783661 24.12457275 171.44111633 C24.1246143 172.25388692 24.12465584 173.06665751 24.12469864 173.9040575 C24 176 24 176 23 179 C20.12149067 180.89881302 17.79192155 181.25495416 14.38671875 181.2746582 C13.47897705 181.28419022 12.57123535 181.29372223 11.63598633 181.30354309 C10.66298584 181.30263168 9.68998535 181.30172028 8.6875 181.30078125 C7.17869263 181.30720894 7.17869263 181.30720894 5.6394043 181.31376648 C3.51449333 181.31950486 1.38956272 181.32001367 -0.73535156 181.31567383 C-3.9879702 181.3125117 -7.23968115 181.33598711 -10.4921875 181.36132812 C-12.55729052 181.36360092 -14.62239598 181.3643047 -16.6875 181.36328125 C-17.66050049 181.372491 -18.63350098 181.38170074 -19.63598633 181.39118958 C-20.99759888 181.38184639 -20.99759888 181.38184639 -22.38671875 181.37231445 C-23.18295654 181.37294388 -23.97919434 181.3735733 -24.79956055 181.3742218 C-27.6871626 180.88313642 -28.90789396 180.05550043 -31 178 C-31.51453781 175.23809719 -31.51453781 175.23809719 -31.53485107 171.8221283 C-31.55191101 170.52826202 -31.56897095 169.23439575 -31.58654785 167.90132141 C-31.58514971 166.46408032 -31.58330354 165.02683962 -31.58105469 163.58959961 C-31.59302182 162.07829456 -31.60663213 160.56700176 -31.62176514 159.0557251 C-31.65715159 154.94579312 -31.66647901 150.83619411 -31.66902828 146.72612453 C-31.6718707 144.15622857 -31.68040896 141.58641735 -31.69101715 139.01654243 C-31.72805078 130.04425813 -31.74435568 121.07221171 -31.74121094 112.09985352 C-31.73881222 103.74884135 -31.78092458 95.3988665 -31.84418559 87.04811662 C-31.89660394 79.87168918 -31.91794148 72.69559927 -31.9153893 65.51898199 C-31.914372 61.23594182 -31.92562343 56.95382162 -31.9681015 52.67097282 C-32.00702272 48.6362142 -32.00701559 44.6032446 -31.97803497 40.56842041 C-31.97387419 39.09387644 -31.98316988 37.61921834 -32.00747681 36.14486885 C-32.14629256 27.13553448 -31.23277063 21.66486399 -24.9966011 14.95421696 C-24.33772274 14.30932536 -23.67884438 13.66443377 -23 13 C-22.48449963 12.43563704 -21.96899925 11.87127409 -21.43787766 11.28980923 C-20.125 9.875 -20.125 9.875 -18 8 C-17.34 8 -16.68 8 -16 8 C-16 7.34 -16 6.68 -16 6 C-14.0234375 4.23828125 -14.0234375 4.23828125 -11.375 2.3125 C-10.51648437 1.66925781 -9.65796875 1.02601563 -8.7734375 0.36328125 C-5.26024665 -1.36362524 -3.70498434 -1.15689234 0 0 Z " fill="#FFFFFF" transform="translate(2676,424)"/>
<path d="M0 0 C1.5056301 -0.01143435 3.01122248 -0.03174815 4.51660156 -0.06152344 C19.11557213 -0.34929083 33.65628637 1.3791749 45.8449707 10.29516602 C52.8033032 17.6380053 53.16553809 28.15237825 53.2434082 37.83422852 C52.8449707 40.29516602 52.8449707 40.29516602 51.6418457 42.00219727 C45.30498998 46.56197823 34.70180214 49.69242663 26.8840332 49.05297852 C23.50592849 48.21062336 21.7374783 47.01539181 19.0324707 44.85766602 C11.86589997 39.62220715 4.59646693 38.5420252 -4.1550293 39.29516602 C-8.74717497 40.01985245 -13.13905251 40.86021588 -17.1550293 43.29516602 C-19.99492401 48.02832386 -20.51310011 50.9655252 -19.28393555 56.30297852 C-15.88790181 62.29597923 -9.55472206 64.73716961 -3.4675293 67.17016602 C-2.63882324 67.51184814 -1.81011719 67.85353027 -0.95629883 68.20556641 C4.0192076 70.23399875 9.03720185 72.10185013 14.10229492 73.89282227 C30.45742922 79.69418976 48.84152556 86.81633557 56.9543457 103.29907227 C57.24825195 103.9577832 57.5421582 104.61649414 57.8449707 105.29516602 C58.4637207 106.62547852 58.4637207 106.62547852 59.0949707 107.98266602 C63.24150837 120.76782382 62.46953391 138.20728894 56.8449707 150.29516602 C53.5589789 156.45445397 50.3960257 161.03106349 44.8449707 165.29516602 C44.17079102 165.97836914 43.49661133 166.66157227 42.80200195 167.36547852 C32.49919996 177.52432919 15.69069221 182.01309138 1.8449707 184.29516602 C1.05477539 184.42665039 0.26458008 184.55813477 -0.54956055 184.69360352 C-24.40640555 187.78538378 -53.061336 185.54935639 -73.1550293 171.29516602 C-73.86916992 170.79887695 -74.58331055 170.30258789 -75.3190918 169.79125977 C-78.9467816 167.02352033 -78.9467816 167.02352033 -80.1550293 165.29516602 C-80.71506911 160.14261577 -79.49064973 157.58354208 -76.5769043 153.38110352 C-76.20905823 152.84417877 -75.84121216 152.30725403 -75.46221924 151.75405884 C-74.68516885 150.62523925 -73.90147574 149.50096667 -73.11157227 148.38110352 C-71.90988687 146.67705429 -70.72821453 144.96051674 -69.54956055 143.24047852 C-62.78453469 133.45885755 -62.78453469 133.45885755 -59.1550293 130.29516602 C-54.52898004 130.2569342 -51.55994675 132.93413731 -47.9675293 135.60766602 C-36.33771433 144.00550507 -25.37221966 146.09774934 -11.1550293 145.29516602 C-5.03700745 144.29510475 0.47744102 142.95386434 4.8449707 138.29516602 C6.06163172 134.64518295 6.59998844 131.07718145 5.8449707 127.29516602 C3.12551082 123.05771784 0.39053195 121.21781271 -4.1550293 119.17016602 C-4.77877441 118.8872168 -5.40251953 118.60426758 -6.04516602 118.31274414 C-14.16604354 114.71352595 -22.50268609 111.59062884 -30.81518555 108.46655273 C-46.82119863 102.34726849 -63.71454688 94.69977912 -71.1550293 78.29516602 C-77.09534817 63.87873998 -76.11658348 47.1653446 -70.40893555 32.82250977 C-64.06036098 20.02647317 -52.10415625 11.58034933 -39.1550293 6.29516602 C-26.20339927 1.93395567 -13.63928552 0.07174718 0 0 Z " fill="#FFFFFF" transform="translate(2315.155029296875,424.704833984375)"/>
<path d="M0 0 C2.38289372 1.60580082 4.33753211 3.09300041 6.4375 5 C6.99735596 5.49185791 7.55721191 5.98371582 8.1340332 6.49047852 C22.68996172 19.49411029 22.68996172 19.49411029 23.22705078 27.29980469 C23.21657715 28.57758789 23.20610352 29.85537109 23.1953125 31.171875 C23.1924826 31.8542926 23.18965271 32.53671021 23.18673706 33.23980713 C23.17558098 35.41005307 23.15048557 37.57987971 23.125 39.75 C23.11496426 41.22525444 23.10583944 42.70051537 23.09765625 44.17578125 C23.07565687 47.78398942 23.04115883 51.39195375 23 55 C24.03930664 54.97905273 25.07861328 54.95810547 26.14941406 54.93652344 C30.01076442 54.86404326 33.87205483 54.81817169 37.73388672 54.78027344 C39.40423702 54.76017607 41.07451713 54.73289317 42.74462891 54.69824219 C45.1476372 54.64963881 47.54971434 54.62701344 49.953125 54.609375 C50.69806213 54.58872986 51.44299927 54.56808472 52.21051025 54.54681396 C55.5239641 54.54538473 57.65072602 54.77798249 60.47192383 56.57128906 C62.57283847 59.91046446 62.50172297 62.3183549 62.49609375 66.25 C62.49754898 66.94512695 62.49900421 67.64025391 62.50050354 68.35644531 C62.4988477 69.82230838 62.48732135 71.28818939 62.46655273 72.75390625 C62.4375913 74.99294147 62.44594895 77.2296079 62.45898438 79.46875 C62.45274644 80.8958448 62.44435506 82.32293214 62.43359375 83.75 C62.42384521 85.04421875 62.41409668 86.3384375 62.40405273 87.671875 C61.98015314 91.16347577 61.49938492 92.57742312 59 95 C55.43072615 96.18975795 52.20053028 96.12478155 48.48828125 96.09765625 C47.76005661 96.0962413 47.03183197 96.09482635 46.28153992 96.09336853 C43.95848461 96.08777659 41.63552612 96.07522562 39.3125 96.0625 C37.73632952 96.05748396 36.16015752 96.05292123 34.58398438 96.04882812 C30.72261902 96.0378098 26.86132592 96.02055074 23 96 C23.06141173 105.99740841 23.13866115 115.99456009 23.23571491 125.99168968 C23.28030006 130.63457859 23.31958183 135.27738215 23.34643555 139.92041016 C23.37258742 144.40746261 23.41307247 148.8941845 23.46318626 153.38103104 C23.47977504 155.08645111 23.49133878 156.79192825 23.49761391 158.49741745 C23.28183874 173.81860255 23.28183874 173.81860255 29.375 187.5 C34.43130976 192.3155331 39.20937557 192.30258353 45.90625 192.203125 C50.11634378 191.9267047 53.92728314 191.08605783 58 190 C62.32378548 195.62290452 64.40274133 201.92212816 66.75 208.5625 C67.16121094 209.68591797 67.57242188 210.80933594 67.99609375 211.96679688 C71.42329344 221.54815414 71.42329344 221.54815414 71 226 C61.2205976 236.18888476 39.55274932 235.97781412 26.5 236.3125 C9.20788622 235.99742397 -5.98338477 232.75859095 -18.8125 220.40234375 C-29.41133578 208.76255089 -32.18013958 193.15151947 -32.11352539 177.85180664 C-32.11367142 176.96320953 -32.11381744 176.07461243 -32.1139679 175.15908813 C-32.11327518 172.24275206 -32.10551297 169.32648107 -32.09765625 166.41015625 C-32.09578979 164.37991877 -32.09436696 162.34968084 -32.09336853 160.31944275 C-32.08956131 154.99135074 -32.07974642 149.66328626 -32.06866455 144.33520508 C-32.05841177 138.89209363 -32.05386264 133.44897771 -32.04882812 128.00585938 C-32.03812248 117.33722753 -32.0210677 106.66861606 -32 96 C-32.64026123 96.01047363 -33.28052246 96.02094727 -33.94018555 96.03173828 C-36.85591671 96.07344815 -39.77158495 96.09937363 -42.6875 96.125 C-43.69490234 96.14175781 -44.70230469 96.15851563 -45.74023438 96.17578125 C-46.71669922 96.18222656 -47.69316406 96.18867188 -48.69921875 96.1953125 C-49.59471436 96.20578613 -50.49020996 96.21625977 -51.4128418 96.22705078 C-54.31774061 95.97211487 -56.41006787 95.33461362 -59 94 C-60.90590456 89.96449485 -61.25590249 86.32434789 -61.265625 81.90234375 C-61.26820313 80.77119141 -61.27078125 79.64003906 -61.2734375 78.47460938 C-61.26570313 77.30736328 -61.25796875 76.14011719 -61.25 74.9375 C-61.25773437 73.76638672 -61.26546875 72.59527344 -61.2734375 71.38867188 C-61.27085937 70.25880859 -61.26828125 69.12894531 -61.265625 67.96484375 C-61.26336914 66.9399585 -61.26111328 65.91507324 -61.25878906 64.85913086 C-60.98435579 61.82716103 -60.40238342 59.69745351 -59 57 C-55.60102327 54.73401552 -54.43680827 54.76257346 -50.45703125 54.8046875 C-48.84731445 54.81435547 -48.84731445 54.81435547 -47.20507812 54.82421875 C-46.08552734 54.84097656 -44.96597656 54.85773438 -43.8125 54.875 C-42.68134766 54.88402344 -41.55019531 54.89304687 -40.38476562 54.90234375 C-37.58963172 54.92593138 -34.79492155 54.958847 -32 55 C-32.03665771 54.07775635 -32.07331543 53.1555127 -32.11108398 52.20532227 C-32.23124685 48.74406688 -32.31853577 45.28506293 -32.38452148 41.82250977 C-32.41947117 40.33159156 -32.46705186 38.8409088 -32.52807617 37.35083008 C-33.08472386 23.39721611 -33.08472386 23.39721611 -28.74609375 17.7578125 C-27.53097043 16.47261251 -26.2854149 15.21489597 -25 14 C-24.22914063 13.12988281 -23.45828125 12.25976562 -22.6640625 11.36328125 C-8.9969325 -2.38239547 -8.9969325 -2.38239547 0 0 Z " fill="#FFFFFF" transform="translate(2446,374)"/>
<path d="M0 0 C2.16339704 -0.00437836 4.32475274 -0.04088868 6.48779297 -0.07861328 C20.83611928 -0.19342672 36.22767374 1.83980669 47.10888672 11.99560547 C52.06888588 18.70619257 55.33366806 29.0464227 54.29638672 37.37060547 C51.39780389 42.28167585 47.3900131 44.2502516 42.42138672 46.62060547 C41.72658203 46.97123047 41.03177734 47.32185547 40.31591797 47.68310547 C36.36557694 49.61735908 32.76058145 51.28749546 28.29638672 51.37060547 C25.73426171 50.34917924 23.54779957 49.33457357 21.17138672 47.99560547 C10.83540948 42.37774947 0.90412752 41.76650333 -10.57861328 44.99560547 C-15.45190946 46.65371478 -19.22495468 48.74381476 -23.11767578 52.10107422 C-24.70361328 53.37060547 -24.70361328 53.37060547 -27.70361328 54.37060547 C-28.76909033 56.18779372 -28.76909033 56.18779372 -29.70361328 58.37060547 C-30.67692509 59.9159752 -31.65654898 61.45738032 -32.64111328 62.99560547 C-37.25268602 70.6553153 -39.19610564 78.49691131 -39.70361328 87.37060547 C-39.75646484 88.10408203 -39.80931641 88.83755859 -39.86376953 89.59326172 C-40.40179302 103.60526472 -36.97048105 117.23454949 -28.01611328 128.12060547 C-20.13704879 136.48749197 -9.89668649 141.23361139 1.59326172 141.80419922 C3.41082646 141.82708341 5.22878567 141.82789698 7.04638672 141.80810547 C8.48111328 141.80000854 8.48111328 141.80000854 9.94482422 141.79174805 C18.96556877 141.59951014 27.33688856 140.17969622 35.29638672 135.67138672 C38.9526664 134.0860467 40.57623285 133.9326918 44.29638672 135.37060547 C45.80431067 137.64036157 46.74611467 139.44610874 47.73388672 141.93310547 C48.01756104 142.59624756 48.30123535 143.25938965 48.59350586 143.94262695 C49.1957899 145.35247034 49.78923413 146.76611762 50.37451172 148.18310547 C51.30214179 150.38426158 52.28802514 152.54911393 53.29638672 154.71435547 C53.94253133 156.12046247 54.58837346 157.52670852 55.23388672 158.93310547 C55.54060303 159.58674072 55.84731934 160.24037598 56.16333008 160.91381836 C57.94345807 164.89898827 58.62529663 168.01422726 58.29638672 172.37060547 C33.13178695 187.6999843 -2.40655732 188.5117933 -30.54345703 182.55810547 C-51.52598348 177.36119489 -70.41445785 167.28760969 -82.57861328 148.87060547 C-97.34739663 123.95048655 -100.48109396 93.07098738 -93.70361328 65.03857422 C-90.25892398 51.92028151 -84.46070309 40.76836784 -75.70361328 30.37060547 C-75.24599609 29.76861328 -74.78837891 29.16662109 -74.31689453 28.54638672 C-64.63088492 16.19603063 -49.10203124 9.4719705 -34.70361328 4.37060547 C-33.7812085 4.04108887 -32.85880371 3.71157227 -31.90844727 3.37207031 C-21.6281919 0.15963735 -10.68781846 -0.00240662 0 0 Z " fill="#FFFFFF" transform="translate(1033.70361328125,424.62939453125)"/>
<path d="M0 0 C2.58726711 1.58627522 4.76803709 3.51467712 7 5.5625 C7.91410645 6.38439819 7.91410645 6.38439819 8.84667969 7.22290039 C10.04438614 8.3121468 11.23448675 9.40982787 12.41601562 10.51660156 C13.72083635 11.73856376 15.05233755 12.93197214 16.390625 14.1171875 C21.88113265 19.49234835 22.44319083 25.54557517 23 33 C23.37511719 32.28714844 23.75023437 31.57429688 24.13671875 30.83984375 C25.72241877 27.87214825 27.34775869 24.93113963 29 22 C29.37125 21.33742188 29.7425 20.67484375 30.125 19.9921875 C35.98726307 10.72463927 46.6119502 5.37025126 56.87744141 2.46948242 C60.53539472 1.66039061 64.20480689 1.77398518 67.9375 1.75 C68.73607422 1.729375 69.53464844 1.70875 70.35742188 1.6875 C71.13537109 1.68234375 71.91332031 1.6771875 72.71484375 1.671875 C73.41730225 1.6625293 74.11976074 1.65318359 74.84350586 1.64355469 C78.09459587 2.18092494 79.56376967 2.6954649 82 5 C82.72394693 8.51940974 82.57949894 11.99505024 82.48828125 15.57421875 C82.48120651 16.61318802 82.47413177 17.65215729 82.46684265 18.72261047 C82.43882688 22.04496909 82.37607264 25.36564978 82.3125 28.6875 C82.28742653 30.93812673 82.26461171 33.18877983 82.24414062 35.43945312 C82.18897694 40.96020908 82.10527911 46.47998469 82 52 C78.13956342 53.13335342 75.83824515 52.62892486 71.9375 51.5625 C60.30454205 48.7612526 49.1634941 49.09123231 38.609375 55.4375 C30.34829825 61.99591207 26.37533703 71.9859892 24 82 C23.82770874 82.69298187 23.65541748 83.38596375 23.47790527 84.09994507 C22.84130818 87.96298372 22.83072656 91.7859364 22.81054688 95.68994141 C22.80225357 96.55392044 22.79396027 97.41789948 22.78541565 98.30805969 C22.76805856 100.17848538 22.75288002 102.04893228 22.73963928 103.91939163 C22.71856231 106.87790768 22.69154551 109.83631682 22.66296387 112.79476929 C22.59323145 120.1392686 22.53369103 127.4838441 22.47393799 134.82843018 C22.42302441 141.04095435 22.36821533 147.25341992 22.30812073 153.46586227 C22.28152833 156.38352473 22.26072818 159.30119266 22.2401123 162.21890259 C22.22351237 164.0022203 22.2066408 165.78553551 22.18945312 167.56884766 C22.18526871 168.38242233 22.18108429 169.19599701 22.17677307 170.03422546 C22.14050516 173.27585893 22.03228916 175.90313253 21 179 C18.12149067 180.89881302 15.79192155 181.25495416 12.38671875 181.2746582 C11.47897705 181.28419022 10.57123535 181.29372223 9.63598633 181.30354309 C8.66298584 181.30263168 7.68998535 181.30172028 6.6875 181.30078125 C5.17869263 181.30720894 5.17869263 181.30720894 3.6394043 181.31376648 C1.51449333 181.31950486 -0.61043728 181.32001367 -2.73535156 181.31567383 C-5.9879702 181.3125117 -9.23968115 181.33598711 -12.4921875 181.36132812 C-14.55729052 181.36360092 -16.62239598 181.3643047 -18.6875 181.36328125 C-19.66050049 181.372491 -20.63350098 181.38170074 -21.63598633 181.39118958 C-22.99759888 181.38184639 -22.99759888 181.38184639 -24.38671875 181.37231445 C-25.18295654 181.37294388 -25.97919434 181.3735733 -26.79956055 181.3742218 C-29.6871626 180.88313642 -30.90789396 180.05550043 -33 178 C-33.51453781 175.23809719 -33.51453781 175.23809719 -33.53485107 171.8221283 C-33.55191101 170.52826202 -33.56897095 169.23439575 -33.58654785 167.90132141 C-33.58514971 166.46408032 -33.58330354 165.02683962 -33.58105469 163.58959961 C-33.59302182 162.07829456 -33.60663213 160.56700176 -33.62176514 159.0557251 C-33.65715159 154.94579312 -33.66647901 150.83619411 -33.66902828 146.72612453 C-33.6718707 144.15622857 -33.68040896 141.58641735 -33.69101715 139.01654243 C-33.72805078 130.04425813 -33.74435568 121.07221171 -33.74121094 112.09985352 C-33.73881222 103.74884135 -33.78092458 95.3988665 -33.84418559 87.04811662 C-33.89660394 79.87168918 -33.91794148 72.69559927 -33.9153893 65.51898199 C-33.914372 61.23594182 -33.92562343 56.95382162 -33.9681015 52.67097282 C-34.00702272 48.6362142 -34.00701559 44.6032446 -33.97803497 40.56842041 C-33.97387419 39.09387644 -33.98316988 37.61921834 -34.00747681 36.14486885 C-34.14629256 27.13553448 -33.23277063 21.66486399 -26.9966011 14.95421696 C-26.33772274 14.30932536 -25.67884438 13.66443377 -25 13 C-24.48449963 12.43563704 -23.96899925 11.87127409 -23.43787766 11.28980923 C-22.125 9.875 -22.125 9.875 -20 8 C-19.34 8 -18.68 8 -18 8 C-18 7.34 -18 6.68 -18 6 C-16.35546875 4.52734375 -16.35546875 4.52734375 -14.1875 2.9375 C-13.47980469 2.41027344 -12.77210937 1.88304687 -12.04296875 1.33984375 C-7.80763007 -1.43782579 -4.81409507 -1.16842099 0 0 Z " fill="#FFFFFF" transform="translate(1369,424)"/>
<path d="M0 0 C1.33169472 -0.01441132 1.33169472 -0.01441132 2.69029236 -0.02911377 C3.64658035 -0.03336365 4.60286835 -0.03761353 5.58813477 -0.04199219 C6.57322525 -0.04769226 7.55831573 -0.05339233 8.57325745 -0.05926514 C10.65706305 -0.06871153 12.74088358 -0.07524769 14.82470703 -0.07910156 C18.01369182 -0.08881889 21.2020353 -0.11985065 24.39086914 -0.15136719 C26.41495385 -0.1578962 28.43904318 -0.16314707 30.46313477 -0.16699219 C31.41739853 -0.17933899 32.37166229 -0.19168579 33.35484314 -0.20440674 C34.24579178 -0.20140564 35.13674042 -0.19840454 36.0546875 -0.1953125 C36.83617661 -0.19895813 37.61766571 -0.20260376 38.4228363 -0.20635986 C41.19338217 0.26300815 42.55352062 1.25289741 44.59204102 3.16113281 C45.72873204 6.5712059 45.71790397 9.16876463 45.71902466 12.76574707 C45.72058465 13.43997979 45.72214464 14.1142125 45.7237519 14.80887651 C45.72774715 17.07280175 45.72457796 19.33666018 45.72143555 21.60058594 C45.72279024 23.22175638 45.72457056 24.84292652 45.72674561 26.46409607 C45.73131182 30.87101175 45.7295337 35.27790407 45.72636652 39.68482018 C45.72383875 44.29187458 45.72618163 48.89892696 45.72775269 53.50598145 C45.72957316 61.24341186 45.72717127 68.98083275 45.72241211 76.71826172 C45.71696973 85.66997114 45.71873247 94.62165778 45.72423851 103.57336664 C45.72877312 111.25239332 45.72941848 118.93141314 45.72679985 126.61044073 C45.72523899 131.19973467 45.72503809 135.7890179 45.72833633 140.37831116 C45.73122008 144.69236889 45.72923004 149.00639719 45.72344208 153.32045174 C45.72211719 154.90595005 45.72250402 156.49145083 45.72470474 158.07694817 C45.72742686 160.23683867 45.72402204 162.39663415 45.71902466 164.55651855 C45.71864763 165.76662346 45.71827061 166.97672836 45.71788216 168.22350311 C45.59204102 171.16113281 45.59204102 171.16113281 44.59204102 174.16113281 C41.71353168 176.05994583 39.38396257 176.41608697 35.97875977 176.43579102 C35.07101807 176.44532303 34.16327637 176.45485504 33.22802734 176.4646759 C32.25502686 176.4637645 31.28202637 176.46285309 30.27954102 176.46191406 C28.77073364 176.46834175 28.77073364 176.46834175 27.23144531 176.47489929 C25.10653435 176.48063767 22.98160374 176.48114648 20.85668945 176.47680664 C17.60407082 176.47364451 14.35235986 176.49711993 11.09985352 176.52246094 C9.0347505 176.52473374 6.96964503 176.52543752 4.90454102 176.52441406 C3.93154053 176.53362381 2.95854004 176.54283356 1.95605469 176.55232239 C0.59444214 176.5429792 0.59444214 176.5429792 -0.79467773 176.53344727 C-1.59091553 176.53407669 -2.38715332 176.53470612 -3.20751953 176.53535461 C-6.11819511 176.04034519 -7.31677334 175.25840763 -9.40795898 173.16113281 C-9.90573692 170.16103363 -9.90573692 170.16103363 -9.9024353 166.40466309 C-9.90726413 165.71409616 -9.91209296 165.02352923 -9.91706812 164.31203604 C-9.92836166 161.99247272 -9.91100428 159.67400641 -9.89379883 157.35449219 C-9.89594415 155.69391074 -9.89982104 154.03333074 -9.90530396 152.37275696 C-9.91501234 147.85826697 -9.89967551 143.34417137 -9.87939787 138.82972908 C-9.86185437 134.11057088 -9.86535142 129.39142537 -9.86611938 124.67224121 C-9.86424524 116.74643336 -9.8468661 108.82077848 -9.81958008 100.89501953 C-9.78812806 91.72515241 -9.77758382 82.55545288 -9.77905118 73.38553572 C-9.78027104 64.57290281 -9.77006658 55.76032461 -9.75346756 46.94770813 C-9.74639759 43.19338046 -9.74274045 39.43907216 -9.74168015 35.68473816 C-9.73967399 31.26556939 -9.72748673 26.84654185 -9.70734787 22.42741966 C-9.70149628 20.80322827 -9.69904746 19.17902063 -9.70020294 17.55481911 C-9.7011815 15.34226245 -9.68990171 13.13010384 -9.67538452 10.91760254 C-9.67203283 9.67800026 -9.66868114 8.43839798 -9.66522789 7.16123199 C-9.40795898 4.16113281 -9.40795898 4.16113281 -7.40795898 1.16113281 C-4.61721735 0.2308856 -2.88712624 0.02525102 0 0 Z " fill="#FFFFFF" transform="translate(2554.407958984375,428.8388671875)"/>
<path d="M0 0 C2.71875 2.01171875 2.71875 2.01171875 5.5 4.6875 C6.25615601 5.40921387 6.25615601 5.40921387 7.02758789 6.14550781 C8.69846698 7.75040768 10.34919788 9.37447242 12 11 C13.2381857 12.19931741 14.47646918 13.39853387 15.71484375 14.59765625 C16.95715181 15.81365244 18.19806275 17.0310778 19.4375 18.25 C20.01628906 18.81549561 20.59507812 19.38099121 21.19140625 19.96362305 C30.40030209 29.15779536 30.40030209 29.15779536 31.64453125 35.0546875 C30.76367406 39.07993792 28.53165106 41.32030123 25.6875 44.125 C21.77939317 48.07188639 21.77939317 48.07188639 18.26953125 52.3671875 C17.85058594 52.90601563 17.43164062 53.44484375 17 54 C16.34 54 15.68 54 15 54 C14.67 54.99 14.34 55.98 14 57 C11.52456344 59.54951447 8.73965726 61.74073403 6 64 C5.319375 64.60199219 4.63875 65.20398438 3.9375 65.82421875 C3.2775 66.37722656 2.6175 66.93023437 1.9375 67.5 C1.34839844 68.0053125 0.75929688 68.510625 0.15234375 69.03125 C-3.19515691 70.53792906 -5.49699608 69.88147484 -9 69 C-20.87859728 61.56104964 -30.36575422 49.8370602 -39 39 C-39.33 38.67 -39.66 38.34 -40 38 C-40.50224624 35.05827205 -40.52548187 32.9053097 -38.99853516 30.2746582 C-34.46311381 24.27208115 -29.28807888 19.02621092 -23.9375 13.75 C-23.05255859 12.86570312 -22.16761719 11.98140625 -21.25585938 11.0703125 C-7.94283788 -2.15282363 -7.94283788 -2.15282363 0 0 Z " fill="#FFFFFF" transform="translate(2577,337)"/>
<path d="M0 0 C0.66 0 1.32 0 2 0 C2 0.66 2 1.32 2 2 C43.25 2 84.5 2 127 2 C126.67 3.32 126.34 4.64 126 6 C85.08 6 44.16 6 2 6 C2 5.34 2 4.68 2 4 C1.34 4 0.68 4 0 4 C0 2.68 0 1.36 0 0 Z " fill="#80FE78" transform="translate(117,669)"/>
<path d="M0 0 C1.7715873 -0.00043808 1.7715873 -0.00043808 3.57896423 -0.00088501 C6.80378276 0.00026645 10.02842588 0.01027074 13.25320959 0.02426291 C16.62844417 0.03679761 20.0036825 0.03794292 23.37893677 0.04031372 C29.76426887 0.04652046 36.14953217 0.06292031 42.53483403 0.0830127 C49.80689282 0.10539685 57.07895496 0.11637145 64.35103965 0.12640357 C79.30453997 0.14728729 94.25797598 0.18244753 109.21142578 0.22705078 C109.21142578 0.88705078 109.21142578 1.54705078 109.21142578 2.22705078 C108.22142578 2.22705078 107.23142578 2.22705078 106.21142578 2.22705078 C106.21142578 2.88705078 106.21142578 3.54705078 106.21142578 4.22705078 C65.29142578 4.22705078 24.37142578 4.22705078 -17.78857422 4.22705078 C-17.78857422 3.56705078 -17.78857422 2.90705078 -17.78857422 2.22705078 C-11.93314781 -0.32345203 -6.26206341 -0.04057032 0 0 Z " fill="#91FE6A" transform="translate(441.78857421875,670.77294921875)"/>
<path d="M0 0 C15.51 0 31.02 0 47 0 C47 0.66 47 1.32 47 2 C46.01 2 45.02 2 44 2 C44 2.66 44 3.32 44 4 C33.44 4 22.88 4 12 4 C12 3.34 12 2.68 12 2 C8.04 2 4.08 2 0 2 C0 1.34 0 0.68 0 0 Z " fill="#7CFE72" transform="translate(504,671)"/>
<path d="M0 0 C0.99 0 1.98 0 3 0 C1.77232581 5.76062506 0.36635518 11.42831607 -1.21484375 17.1015625 C-2.03210721 20.11852511 -2.76897623 23.14858442 -3.5 26.1875 C-4.70415548 30.97916532 -5.88828237 35.52315863 -8 40 C-10.09765625 40.70703125 -10.09765625 40.70703125 -12 41 C-11.54630479 36.55378694 -10.63502481 33.11298801 -8.75390625 29.078125 C-7.79422384 26.4327828 -7.415865 23.84425246 -7 21.0625 C-6.23620638 15.97054256 -4.99505519 11.73825607 -3 7 C-2.62875 6.05125 -2.2575 5.1025 -1.875 4.125 C-1 2 -1 2 0 0 Z " fill="#78FD68" transform="translate(299,475)"/>
<path d="M0 0 C0.76978683 0.0028299 1.53957367 0.00565979 2.33268738 0.00857544 C4.777943 0.01972093 7.22282487 0.04481469 9.66796875 0.0703125 C11.3313749 0.0803496 12.99478682 0.08947417 14.65820312 0.09765625 C18.72410112 0.11964177 22.78972169 0.15413236 26.85546875 0.1953125 C27.35046875 1.1853125 27.35046875 1.1853125 27.85546875 2.1953125 C21.58546875 2.1953125 15.31546875 2.1953125 8.85546875 2.1953125 C8.85546875 2.8553125 8.85546875 3.5153125 8.85546875 4.1953125 C1.59546875 4.1953125 -5.66453125 4.1953125 -13.14453125 4.1953125 C-13.14453125 3.5353125 -13.14453125 2.8753125 -13.14453125 2.1953125 C-8.77883735 0.02932875 -4.77126949 -0.06657661 0 0 Z " fill="#92FE68" transform="translate(166.14453125,670.8046875)"/>
<path d="M0 0 C1.32 0.33 2.64 0.66 4 1 C1.64535973 11.89913035 -1.45694792 22.43383135 -5 33 C-6.5625 31.9375 -6.5625 31.9375 -8 30 C-7.82675891 25.49573167 -6.64994308 22.13519396 -4.7578125 18.09375 C-3.43476158 14.43831035 -3.04481718 10.60869124 -2.52734375 6.76953125 C-2.03001465 4.15763249 -1.31719162 2.29005514 0 0 Z " fill="#75FE64" transform="translate(279,544)"/>
<path d="M0 0 C0.99 0.33 1.98 0.66 3 1 C2.54543566 3.04250911 2.08617174 5.0839726 1.625 7.125 C1.36976563 8.26195312 1.11453125 9.39890625 0.8515625 10.5703125 C0.05363523 13.78398288 -0.90790559 16.87566034 -2 20 C-2.99 20 -3.98 20 -5 20 C-5.33 20.99 -5.66 21.98 -6 23 C-6.33 22.34 -6.66 21.68 -7 21 C-6.731875 20.34 -6.46375 19.68 -6.1875 19 C-4.79228347 15.47524246 -4.19683882 12.03142809 -3.5625 8.3046875 C-3 6 -3 6 -1 3 C-0.67 2.01 -0.34 1.02 0 0 Z " fill="#78FD68" transform="translate(262,608)"/>
<path d="M0 0 C2.96527758 2.4453385 3.55582214 4.44602347 4.1875 8.1875 C4.34605469 9.08855469 4.50460937 9.98960937 4.66796875 10.91796875 C4.83232422 11.94857422 4.83232422 11.94857422 5 13 C4.01 13.495 4.01 13.495 3 14 C1 13 1 13 0.078125 10.8203125 C-0.19515625 9.93085937 -0.4684375 9.04140625 -0.75 8.125 C-1.03359375 7.24070312 -1.3171875 6.35640625 -1.609375 5.4453125 C-2 3 -2 3 0 0 Z " fill="#7AFE67" transform="translate(406,620)"/>
<path d="M0 0 C3.875 0.875 3.875 0.875 5 2 C5.07244053 4.01964199 5.08377188 6.04167124 5.0625 8.0625 C5.05347656 9.16722656 5.04445313 10.27195312 5.03515625 11.41015625 C5.02355469 12.26480469 5.01195312 13.11945313 5 14 C4.34 14 3.68 14 3 14 C2.49528803 12.23050388 1.99639315 10.45934777 1.5 8.6875 C1.2215625 7.70136719 0.943125 6.71523438 0.65625 5.69921875 C0 3 0 3 0 0 Z " fill="#77FE69" transform="translate(354,448)"/>
<path d="M0 0 C0.99 0.33 1.98 0.66 3 1 C2.67 3.64 2.34 6.28 2 9 C1.34 8.67 0.68 8.34 0 8 C0 5.36 0 2.72 0 0 Z " fill="#7DFE6D" transform="translate(410,637)"/>
</svg>
