<svg xmlns="http://www.w3.org/2000/svg" width="224" height="40" fill="none" viewBox="0 0 224 40"><g clip-path="url(#a)"><rect width="224.001" height="40.001" fill="url(#b)" rx="8"/><g filter="url(#c)"><ellipse cx="22.002" cy="20.008" fill="#fff" rx="13.999" ry="13.993"/><path fill="url(#d)" d="M22.28 12.53c-.033 0-.081 0-.097.032l-.032.08 5.395 20.209a14 14 0 0 0 6.327-5.426L22.376 12.578a.13.13 0 0 0-.097-.048" opacity=".5"/><path fill="#2185d0" d="M21.951 6a14 14 0 0 0-12.213 7.24 13.99 13.99 0 0 0 .401 14.187l11.673-15.086c.037-.044.11-.073.19-.073s.146.03.19.073l11.666 15.086A14 14 0 0 0 36 19.993C36.001 12.268 29.731 6 22.002 6z"/></g><g filter="url(#e)"><path fill="#e8e8e8" d="M50.103 17.385q-.096-.857-.797-1.328-.7-.477-1.763-.477-.76 0-1.316.241-.555.236-.863.652a1.54 1.54 0 0 0-.302.936q0 .44.205.76.211.32.55.538.345.211.736.356.392.14.755.23l1.207.314a9 9 0 0 1 1.214.392q.622.247 1.153.652t.857 1.002q.332.597.332 1.43 0 1.052-.543 1.866-.538.815-1.564 1.286-1.02.47-2.469.47-1.388 0-2.403-.44-1.014-.44-1.587-1.25-.574-.815-.634-1.931h1.871q.055.67.435 1.117.387.44.984.658.603.21 1.322.21.79 0 1.407-.247.621-.253.978-.7a1.66 1.66 0 0 0 .356-1.056q0-.55-.314-.9-.307-.35-.84-.58a8 8 0 0 0-1.189-.404l-1.46-.398q-1.485-.404-2.355-1.19-.863-.785-.863-2.076 0-1.069.58-1.866.579-.796 1.569-1.237.99-.447 2.234-.447 1.255 0 2.215.44.966.442 1.521 1.214.555.767.58 1.763zm8.049 9.303q-1.37 0-2.36-.586a3.97 3.97 0 0 1-1.522-1.66q-.531-1.074-.531-2.517 0-1.425.531-2.512.537-1.087 1.497-1.696.966-.61 2.258-.61.785 0 1.521.26.737.259 1.322.815t.924 1.443q.338.881.338 2.143v.64h-7.37v-1.353h5.602q0-.712-.29-1.261a2.2 2.2 0 0 0-.814-.876q-.52-.32-1.22-.32-.76 0-1.328.375a2.5 2.5 0 0 0-.87.966 2.8 2.8 0 0 0-.301 1.285v1.057q0 .93.326 1.582.332.651.923.996.593.338 1.383.338.513 0 .936-.145.422-.15.73-.447a1.94 1.94 0 0 0 .47-.73l1.71.308a3.1 3.1 0 0 1-.737 1.322 3.6 3.6 0 0 1-1.322.875q-.791.308-1.805.308m9.977 0q-1.37 0-2.36-.586a3.97 3.97 0 0 1-1.521-1.66q-.532-1.074-.532-2.517 0-1.425.532-2.512.537-1.087 1.497-1.696.966-.61 2.257-.61.785 0 1.522.26.735.259 1.322.815.585.555.924 1.443.338.881.338 2.143v.64h-7.371v-1.353h5.602q0-.712-.29-1.261a2.2 2.2 0 0 0-.815-.876q-.519-.32-1.22-.32-.76 0-1.328.375a2.5 2.5 0 0 0-.869.966 2.8 2.8 0 0 0-.302 1.285v1.057q0 .93.326 1.582.333.651.924.996.591.338 1.382.338.514 0 .936-.145.423-.15.73-.447a1.94 1.94 0 0 0 .471-.73l1.709.308a3.1 3.1 0 0 1-.737 1.322q-.525.561-1.322.875-.79.308-1.805.308m10.48-.187v-9.273h1.733v1.51h.115q.29-.768.948-1.196.657-.435 1.575-.435.93 0 1.558.435.633.435.935 1.195h.097q.332-.743 1.056-1.183.725-.447 1.727-.447 1.261 0 2.059.791.802.79.802 2.385V26.5H89.41v-6.05q0-.94-.513-1.364a1.87 1.87 0 0 0-1.225-.422q-.882 0-1.37.543-.49.538-.49 1.383v5.91h-1.799v-6.164q0-.755-.47-1.213-.471-.46-1.226-.46-.513 0-.948.272a2 2 0 0 0-.694.743q-.26.477-.26 1.105V26.5zm19.021.187q-1.37 0-2.36-.586a3.97 3.97 0 0 1-1.521-1.66q-.532-1.074-.532-2.517 0-1.425.532-2.512.537-1.087 1.497-1.696.966-.61 2.258-.61.785 0 1.52.26.738.259 1.323.815t.924 1.443q.338.881.338 2.143v.64h-7.371v-1.353h5.602q0-.712-.29-1.261a2.2 2.2 0 0 0-.815-.876q-.52-.32-1.22-.32-.76 0-1.328.375a2.5 2.5 0 0 0-.869.966 2.8 2.8 0 0 0-.302 1.285v1.057q0 .93.326 1.582.333.651.924.996.591.338 1.382.338.514 0 .936-.145.423-.15.73-.447.309-.295.472-.73l1.708.308a3.1 3.1 0 0 1-.737 1.322q-.525.561-1.322.875-.79.308-1.805.308m14.386 0q-1.304 0-2.276-.598a4.03 4.03 0 0 1-1.509-1.672q-.537-1.075-.537-2.511 0-1.443.537-2.524a4 4 0 0 1 1.509-1.678q.972-.598 2.276-.598 1.305 0 2.276.598a4 4 0 0 1 1.509 1.678q.538 1.08.538 2.524 0 1.436-.538 2.51a4.03 4.03 0 0 1-1.509 1.673q-.971.598-2.276.598m.006-1.515q.846 0 1.401-.447t.821-1.19q.272-.742.272-1.636 0-.886-.272-1.63-.266-.748-.821-1.2-.555-.454-1.401-.454-.85 0-1.412.453-.556.453-.827 1.202a4.8 4.8 0 0 0-.266 1.63q0 .892.266 1.636.271.742.827 1.189.561.447 1.412.447m8.137-4.178v5.506h-1.805v-9.273h1.732v1.51h.115a2.65 2.65 0 0 1 1.002-1.184q.688-.447 1.733-.447.947 0 1.66.399a2.66 2.66 0 0 1 1.104 1.17q.393.78.393 1.927V26.5h-1.805v-5.68q0-1.008-.525-1.576-.526-.573-1.443-.573-.628 0-1.117.271a1.95 1.95 0 0 0-.767.797q-.277.52-.277 1.256"/><path fill="url(#f)" d="M144.16 18.616h-3.019q-.06-.465-.247-.839a2.1 2.1 0 0 0-.495-.64 2.1 2.1 0 0 0-.731-.404 2.8 2.8 0 0 0-.923-.145q-.9 0-1.552.44-.645.443-.996 1.274-.344.834-.344 2.017 0 1.231.35 2.065.357.825.996 1.25.646.416 1.528.416.495 0 .899-.127.41-.127.719-.368.314-.248.513-.598a2.5 2.5 0 0 0 .283-.803l3.019.018a4.6 4.6 0 0 1-.477 1.618 5.2 5.2 0 0 1-1.081 1.455 5.1 5.1 0 0 1-1.678 1.038q-.984.387-2.258.387-1.678 0-3.006-.737-1.323-.742-2.089-2.161-.767-1.419-.767-3.453 0-2.04.779-3.46.779-1.418 2.107-2.155t2.976-.736q1.123 0 2.077.314a5 5 0 0 1 1.678.906q.725.591 1.177 1.454.453.864.562 1.974m6.038 8.06q-1.461 0-2.511-.598a4.1 4.1 0 0 1-1.612-1.678q-.561-1.08-.561-2.505 0-1.431.561-2.506.567-1.08 1.612-1.678 1.05-.604 2.511-.604 1.46 0 2.506.604 1.05.598 1.611 1.678.568 1.075.568 2.506 0 1.424-.568 2.505a4.07 4.07 0 0 1-1.611 1.678q-1.045.598-2.506.598m.018-2.228q.532 0 .9-.326.368-.327.561-.905.2-.58.2-1.34 0-.773-.2-1.353-.193-.58-.561-.905a1.3 1.3 0 0 0-.9-.326q-.55 0-.929.326-.375.326-.574.905-.193.58-.193 1.352 0 .762.193 1.34.2.58.574.906.38.326.929.326m9.566 2.186a3.4 3.4 0 0 1-1.866-.532q-.839-.531-1.34-1.593-.501-1.063-.501-2.639 0-1.636.519-2.692.52-1.056 1.359-1.564a3.47 3.47 0 0 1 1.817-.507q.73 0 1.249.254.52.247.858.64.337.392.513.815h.06v-4.679h2.952v12.364h-2.922v-1.504h-.09a2.9 2.9 0 0 1-.531.803q-.345.375-.864.604-.513.23-1.213.23m1.026-2.3q.537 0 .918-.302.38-.309.585-.864.206-.555.206-1.304 0-.76-.206-1.31-.199-.55-.585-.845a1.45 1.45 0 0 0-.918-.296q-.549 0-.93.302-.38.302-.579.851-.193.55-.193 1.298 0 .75.199 1.304.2.555.573.864.381.3.93.301m10.796 2.342q-1.455 0-2.512-.574a3.97 3.97 0 0 1-1.618-1.648q-.561-1.074-.561-2.553 0-1.437.568-2.512.567-1.08 1.599-1.678 1.032-.604 2.433-.604.99 0 1.811.308t1.419.912.93 1.49q.332.882.332 2.023v.737h-8.06v-1.715h5.313a1.66 1.66 0 0 0-.224-.839 1.5 1.5 0 0 0-.597-.573 1.7 1.7 0 0 0-.863-.212q-.495 0-.888.224a1.68 1.68 0 0 0-.863 1.449v1.744q0 .567.223.996.223.423.634.658t.978.236q.393 0 .712-.109.32-.109.55-.32.229-.21.344-.52l2.71.08a3.35 3.35 0 0 1-.742 1.587q-.567.67-1.491 1.044-.924.369-2.137.369m5.908-.175V14.137h2.952v4.679h.061q.182-.423.513-.815.338-.393.857-.64.525-.255 1.256-.254a3.43 3.43 0 0 1 1.805.507q.845.508 1.364 1.564t.519 2.692q0 1.575-.501 2.639-.495 1.063-1.34 1.593a3.4 3.4 0 0 1-1.865.532q-.7 0-1.214-.23a2.6 2.6 0 0 1-.863-.604 2.9 2.9 0 0 1-.531-.803h-.091v1.504zm2.892-4.637q0 .75.199 1.304.205.555.586.864.386.3.924.301.543 0 .923-.301.38-.309.574-.864.199-.555.199-1.304 0-.748-.199-1.298-.193-.55-.574-.85-.374-.303-.923-.303-.544 0-.924.296t-.586.845q-.2.55-.199 1.31m12.317 4.812q-1.455 0-2.511-.574a3.96 3.96 0 0 1-1.618-1.648q-.562-1.074-.562-2.553 0-1.437.568-2.512.567-1.08 1.599-1.678 1.034-.604 2.433-.604.99 0 1.811.308.822.308 1.419.912t.93 1.49q.332.882.332 2.023v.737h-8.059v-1.715h5.312a1.66 1.66 0 0 0-.223-.839 1.5 1.5 0 0 0-.598-.573 1.7 1.7 0 0 0-.863-.212q-.495 0-.888.224a1.65 1.65 0 0 0-.622.597q-.228.375-.241.851v1.745q0 .567.223.996.224.423.634.658t.978.236q.393 0 .713-.109t.549-.32.344-.52l2.711.08a3.36 3.36 0 0 1-.743 1.587q-.567.67-1.491 1.044-.924.369-2.137.369m5.909-.175v-9.273h2.867v1.69h.097q.253-.917.827-1.364a2.1 2.1 0 0 1 1.334-.453q.206 0 .422.03.218.024.405.079v2.566a3 3 0 0 0-.555-.115 5 5 0 0 0-.604-.042q-.525 0-.948.235a1.7 1.7 0 0 0-.658.646 1.9 1.9 0 0 0-.235.966V26.5zm10.996 3.67q-1.322 0-2.264-.368-.942-.369-1.479-1.008a2.8 2.8 0 0 1-.646-1.45l2.795-.156q.078.284.29.495.218.211.561.326.35.114.821.115.743 0 1.226-.363.489-.356.489-1.25v-1.63h-.103a2.2 2.2 0 0 1-.531.767 2.5 2.5 0 0 1-.888.532q-.525.193-1.207.193a3.75 3.75 0 0 1-1.859-.471q-.84-.477-1.347-1.473-.501-1.002-.501-2.578 0-1.623.52-2.674.519-1.056 1.358-1.564a3.47 3.47 0 0 1 1.817-.507q.73 0 1.25.254.525.247.863.64.337.392.513.815h.085v-1.588h2.94v9.309q0 1.177-.592 1.986-.591.81-1.654 1.226-1.062.422-2.457.422m.09-5.946q.538 0 .918-.284t.586-.815q.205-.531.205-1.274 0-.755-.205-1.298-.2-.55-.586-.845a1.45 1.45 0 0 0-.918-.296q-.55 0-.929.302-.38.302-.58.851-.193.544-.193 1.286 0 .743.199 1.274.2.531.574.815.38.285.929.284"/></g></g><rect width="221.858" height="37.858" x="1.071" y="1.071" stroke="#fff" stroke-opacity=".15" stroke-width="2.143" rx="6.929"/><defs><linearGradient id="b" x1="112.001" x2="112.001" y1="0" y2="40.001" gradientUnits="userSpaceOnUse"><stop stop-color="#132430"/><stop offset="1" stop-color="#323232"/></linearGradient><linearGradient id="d" x1="22.279" x2="31.265" y1="12.53" y2="30.494" gradientUnits="userSpaceOnUse"><stop stop-color="#fff" stop-opacity="0"/><stop offset=".5" stop-color="#71c2ff"/><stop offset="1" stop-color="#39aaff"/></linearGradient><linearGradient id="f" x1="174.001" x2="174.001" y1="9.501" y2="30.501" gradientUnits="userSpaceOnUse"><stop stop-color="#7ab3de"/><stop offset="1" stop-color="#c1d8ea"/></linearGradient><filter id="c" width="39.202" height="39.202" x="2.4" y=".4" color-interpolation-filters="sRGB" filterUnits="userSpaceOnUse"><feFlood flood-opacity="0" result="BackgroundImageFix"/><feColorMatrix in="SourceAlpha" result="hardAlpha" values="0 0 0 0 0 0 0 0 0 0 0 0 0 0 0 0 0 0 127 0"/><feOffset/><feGaussianBlur stdDeviation="2.8"/><feComposite in2="hardAlpha" operator="out"/><feColorMatrix values="0 0 0 0 0 0 0 0 0 0 0 0 0 0 0 0 0 0 0.25 0"/><feBlend in2="BackgroundImageFix" result="effect1_dropShadow_28_2883"/><feBlend in="SourceGraphic" in2="effect1_dropShadow_28_2883" result="shape"/></filter><filter id="e" width="185.429" height="32.429" x="36.287" y="3.786" color-interpolation-filters="sRGB" filterUnits="userSpaceOnUse"><feFlood flood-opacity="0" result="BackgroundImageFix"/><feColorMatrix in="SourceAlpha" result="hardAlpha" values="0 0 0 0 0 0 0 0 0 0 0 0 0 0 0 0 0 0 127 0"/><feOffset/><feGaussianBlur stdDeviation="2.857"/><feComposite in2="hardAlpha" operator="out"/><feColorMatrix values="0 0 0 0 0 0 0 0 0 0 0 0 0 0 0 0 0 0 0.25 0"/><feBlend in2="BackgroundImageFix" result="effect1_dropShadow_28_2883"/><feBlend in="SourceGraphic" in2="effect1_dropShadow_28_2883" result="shape"/></filter><clipPath id="a"><rect width="224.001" height="40.001" fill="#fff" rx="8"/></clipPath></defs></svg>