<svg xmlns="http://www.w3.org/2000/svg" width="240" height="40" fill="none" viewBox="0 0 240 40"><rect width="240.001" height="40.001" fill="url(#a)" rx="8"/><rect width="237.858" height="37.858" x="1.071" y="1.071" stroke="#fff" stroke-opacity=".15" stroke-width="2.143" rx="6.929"/><g filter="url(#b)"><path fill="#2299f8" d="M22.512 33.001c-3.327 0-6.372-1.161-8.722-3.083l-5.79.75 2.233-5.277a12.5 12.5 0 0 1-1.212-5.39c0-7.182 6.043-13 13.49-13C29.967 7 36 12.818 36 20c0 7.18-6.033 13-13.489 13"/><path fill="#fcfcfc" d="M22.598 13.067h-4.972v13.867h4.902c4.638 0 7.348-2.972 7.348-6.971v-.037c0-3.997-2.675-6.86-7.278-6.86m3.608 6.942c0 2.247-1.417 3.514-3.556 3.514h-1.452v-7.055h1.452c2.14 0 3.556 1.286 3.556 3.505z"/></g><g filter="url(#c)"><path fill="#e8e8e8" d="M53.629 18.158h-1.884a2.88 2.88 0 0 0-1.129-1.842 3.1 3.1 0 0 0-.96-.482 3.8 3.8 0 0 0-1.117-.163q-1.068 0-1.913.537-.84.537-1.328 1.575-.483 1.04-.483 2.536 0 1.509.483 2.547.489 1.04 1.334 1.57a3.5 3.5 0 0 0 1.901.531q.586 0 1.111-.157.531-.162.96-.476.429-.315.724-.767a2.9 2.9 0 0 0 .417-1.05l1.884.005a5 5 0 0 1-.586 1.679 4.6 4.6 0 0 1-1.105 1.316q-.67.55-1.533.85a5.7 5.7 0 0 1-1.884.303q-1.605 0-2.861-.76-1.256-.768-1.98-2.192-.72-1.425-.719-3.4 0-1.98.725-3.398.724-1.425 1.98-2.185 1.256-.767 2.855-.767.984 0 1.836.284a4.8 4.8 0 0 1 1.539.82q.682.538 1.129 1.317.447.773.604 1.769m3.892 2.837v5.506h-1.805V14.137h1.78v4.6h.115q.327-.748.997-1.189.67-.44 1.75-.44.954 0 1.667.392.718.392 1.11 1.17.399.774.399 1.933V26.5h-1.805v-5.68q0-1.02-.526-1.582-.525-.567-1.46-.567-.64 0-1.148.271a1.96 1.96 0 0 0-.79.797q-.284.52-.284 1.256m11.12 5.711a3.8 3.8 0 0 1-1.594-.326 2.7 2.7 0 0 1-1.129-.96q-.41-.627-.41-1.54 0-.784.302-1.291.3-.507.815-.803a4.3 4.3 0 0 1 1.147-.447q.633-.15 1.291-.23l1.353-.156q.519-.066.754-.212.236-.144.236-.47v-.043q0-.79-.447-1.225-.44-.435-1.316-.435-.912 0-1.437.405-.519.398-.718.887l-1.697-.386q.303-.845.882-1.365.585-.525 1.346-.76a5.3 5.3 0 0 1 1.6-.242q.556 0 1.177.133.629.128 1.171.471.55.344.9.984.35.634.35 1.648v6.158h-1.763v-1.268h-.072a2.6 2.6 0 0 1-.526.688 2.8 2.8 0 0 1-.899.562q-.55.222-1.316.223m.392-1.449q.75 0 1.28-.296.537-.295.815-.772.284-.483.284-1.033v-1.195q-.098.096-.374.181a6 6 0 0 1-.622.139l-.682.103-.556.072q-.525.066-.96.223a1.65 1.65 0 0 0-.688.453q-.253.289-.253.773 0 .67.495 1.014.495.338 1.261.338m10.917-8.029v1.449h-5.065v-1.449zm-3.707-2.222h1.805v8.772q0 .526.157.79a.82.82 0 0 0 .404.357q.255.09.55.09.217 0 .38-.03l.254-.048.326 1.491q-.158.06-.447.121a3.5 3.5 0 0 1-.724.073 3.2 3.2 0 0 1-1.329-.254 2.3 2.3 0 0 1-.996-.821q-.38-.555-.38-1.395zm12.213 11.495-2.73-9.273h1.866l1.817 6.81h.091l1.823-6.81h1.866l1.81 6.78h.091l1.805-6.78h1.866l-2.723 9.273h-1.841l-1.884-6.695h-.139L90.291 26.5zm12.018 0v-9.273h1.805v9.273zm.911-10.704q-.47 0-.809-.314a1.02 1.02 0 0 1-.332-.76q0-.447.332-.761.338-.32.809-.32t.803.32q.338.315.338.76 0 .442-.338.761-.332.315-.803.314m7.651 1.431v1.449h-5.065v-1.449zm-3.707-2.222h1.805v8.772q0 .526.157.79a.82.82 0 0 0 .404.357q.253.09.55.09.217 0 .38-.03l.254-.048.326 1.491a3 3 0 0 1-.447.121 3.5 3.5 0 0 1-.725.073 3.2 3.2 0 0 1-1.328-.254 2.3 2.3 0 0 1-.996-.821q-.38-.555-.38-1.395zm7.708 5.989v5.506h-1.806V14.137h1.781v4.6h.115q.326-.748.996-1.189.67-.44 1.751-.44.954 0 1.666.392.718.392 1.111 1.17.398.774.398 1.933V26.5h-1.805v-5.68q0-1.02-.525-1.582-.525-.567-1.461-.567-.64 0-1.147.271a1.96 1.96 0 0 0-.791.797q-.283.52-.283 1.256m18.794 1.66v-5.427h1.811v9.273h-1.775v-1.606h-.096a2.9 2.9 0 0 1-1.027 1.238q-.7.489-1.744.489-.894 0-1.582-.393-.682-.399-1.075-1.177-.386-.78-.386-1.926v-5.898h1.805v5.68q0 .95.525 1.51.525.561 1.365.561.507 0 1.008-.253.507-.255.839-.767.338-.513.332-1.304m11.185-3.163-1.636.29a2 2 0 0 0-.326-.598 1.6 1.6 0 0 0-.592-.465q-.374-.18-.935-.181-.767 0-1.28.344-.513.338-.513.875 0 .465.344.75.344.282 1.11.464l1.474.338q1.28.296 1.907.912.628.615.628 1.6a2.43 2.43 0 0 1-.483 1.484q-.477.647-1.334 1.015-.852.368-1.974.368-1.558 0-2.542-.664-.984-.67-1.207-1.902l1.745-.265q.163.681.67 1.032.506.345 1.322.344.887 0 1.418-.368.532-.375.532-.912a.95.95 0 0 0-.326-.73q-.321-.296-.984-.447l-1.57-.344q-1.298-.296-1.92-.942-.615-.645-.615-1.636 0-.82.458-1.437.46-.615 1.268-.96.809-.35 1.853-.35 1.504 0 2.367.652.863.645 1.141 1.733m10.571 7.196q-1.304 0-2.276-.598a4.04 4.04 0 0 1-1.51-1.672q-.537-1.074-.537-2.511 0-1.443.537-2.524a4.03 4.03 0 0 1 1.51-1.678q.972-.597 2.276-.598 1.304 0 2.275.598a4 4 0 0 1 1.51 1.678q.537 1.08.537 2.524 0 1.436-.537 2.511a4.03 4.03 0 0 1-1.51 1.672q-.971.598-2.275.598m.006-1.515q.845 0 1.4-.447a2.6 2.6 0 0 0 .821-1.19q.272-.742.272-1.635 0-.888-.272-1.63a2.66 2.66 0 0 0-.821-1.202q-.555-.453-1.4-.453-.852 0-1.413.453-.555.453-.827 1.202a4.8 4.8 0 0 0-.266 1.63q0 .892.266 1.636.272.742.827 1.189.561.447 1.413.447m8.136-4.178v5.506h-1.805v-9.273h1.732v1.51h.115a2.65 2.65 0 0 1 1.002-1.184q.689-.447 1.733-.447.948 0 1.66.399.712.392 1.105 1.17.392.78.392 1.927V26.5h-1.805v-5.68q0-1.008-.525-1.576-.525-.573-1.443-.573-.627 0-1.117.271a1.95 1.95 0 0 0-.766.797q-.279.52-.278 1.256"/><path fill="#2299f8" d="M178.507 26.5h-4.57V14.138h4.564q1.89 0 3.254.743a5.07 5.07 0 0 1 2.113 2.125q.742 1.382.742 3.308 0 1.932-.742 3.32a5.07 5.07 0 0 1-2.107 2.131q-1.37.737-3.254.737m-1.582-2.547h1.467q1.039 0 1.757-.35.724-.357 1.093-1.153.374-.803.374-2.137t-.374-2.125q-.375-.797-1.105-1.147-.724-.357-1.787-.356h-1.425zm9.43 2.548V17.23h2.952v9.273zm1.479-10.354q-.622 0-1.068-.41a1.32 1.32 0 0 1-.447-1.002q0-.58.447-.99a1.5 1.5 0 0 1 1.068-.417 1.5 1.5 0 0 1 1.069.417q.446.41.446.99 0 .585-.446 1.002-.44.41-1.069.41m11.448 3.912-2.711.073a1 1 0 0 0-.229-.513 1.24 1.24 0 0 0-.489-.357 1.7 1.7 0 0 0-.688-.132q-.514 0-.876.205-.356.205-.35.555a.6.6 0 0 0 .217.471q.23.2.815.32l1.787.338q1.389.265 2.065.882.682.615.688 1.63-.006.953-.567 1.66-.556.706-1.522 1.098-.966.387-2.209.387-1.987 0-3.133-.815-1.142-.82-1.304-2.198l2.916-.072q.096.507.501.773.404.265 1.032.265.567 0 .924-.211.356-.21.362-.561a.6.6 0 0 0-.278-.502q-.272-.192-.851-.301l-1.618-.308q-1.395-.254-2.077-.936-.682-.688-.676-1.75-.006-.93.495-1.588.501-.664 1.425-1.015t2.179-.35q1.884 0 2.97.791 1.087.785 1.202 2.161m7.738 9.919V25h-.061a2.9 2.9 0 0 1-.531.802q-.344.375-.863.604-.513.23-1.214.23a3.4 3.4 0 0 1-1.865-.532q-.84-.531-1.34-1.593-.501-1.063-.501-2.639 0-1.636.519-2.692.52-1.056 1.358-1.564a3.47 3.47 0 0 1 1.817-.507q.73 0 1.25.254.52.247.857.64.337.392.513.815h.091V17.23h2.922v12.75zm-1.642-5.645q.537 0 .917-.301.38-.308.586-.864.205-.555.205-1.304 0-.76-.205-1.31-.2-.55-.586-.845a1.45 1.45 0 0 0-.917-.296q-.55 0-.93.302t-.58.851q-.192.55-.193 1.298 0 .75.199 1.304.2.555.574.864.38.301.93.302m12.443-1.835v-5.27h2.946v9.273h-2.813v-1.727h-.097a2.7 2.7 0 0 1-1.05 1.352q-.737.495-1.781.495-.948 0-1.666-.434a2.96 2.96 0 0 1-1.117-1.214q-.398-.785-.404-1.835v-5.91h2.952v5.33q.005.756.398 1.19t1.069.434q.44 0 .79-.193.357-.199.562-.573.211-.381.211-.918m12.921-2.439-2.711.073a1 1 0 0 0-.229-.513 1.24 1.24 0 0 0-.489-.357 1.7 1.7 0 0 0-.689-.132q-.513 0-.875.205-.356.205-.35.555a.6.6 0 0 0 .217.471q.23.2.815.32l1.787.338q1.389.265 2.065.882.682.615.688 1.63-.006.953-.567 1.66-.556.706-1.522 1.098-.966.387-2.209.387-1.986 0-3.133-.815-1.142-.82-1.304-2.198l2.915-.072q.097.507.502.773.403.265 1.032.265.567 0 .924-.211.356-.21.362-.561a.6.6 0 0 0-.278-.502q-.272-.192-.851-.301l-1.618-.308q-1.395-.254-2.077-.936-.682-.688-.676-1.75-.006-.93.495-1.588.501-.664 1.425-1.015t2.179-.35q1.884 0 2.97.791 1.087.785 1.202 2.161"/></g><defs><filter id="b" width="39.203" height="39.202" x="2.4" y=".4" color-interpolation-filters="sRGB" filterUnits="userSpaceOnUse"><feFlood flood-opacity="0" result="BackgroundImageFix"/><feColorMatrix in="SourceAlpha" result="hardAlpha" values="0 0 0 0 0 0 0 0 0 0 0 0 0 0 0 0 0 0 127 0"/><feOffset/><feGaussianBlur stdDeviation="2.8"/><feComposite in2="hardAlpha" operator="out"/><feColorMatrix values="0 0 0 0 0 0 0 0 0 0 0 0 0 0 0 0 0 0 0.25 0"/><feBlend in2="BackgroundImageFix" result="effect1_dropShadow_3_873"/><feBlend in="SourceGraphic" in2="effect1_dropShadow_3_873" result="shape"/></filter><filter id="c" width="201.429" height="32.429" x="36.287" y="3.786" color-interpolation-filters="sRGB" filterUnits="userSpaceOnUse"><feFlood flood-opacity="0" result="BackgroundImageFix"/><feColorMatrix in="SourceAlpha" result="hardAlpha" values="0 0 0 0 0 0 0 0 0 0 0 0 0 0 0 0 0 0 127 0"/><feOffset/><feGaussianBlur stdDeviation="2.857"/><feComposite in2="hardAlpha" operator="out"/><feColorMatrix values="0 0 0 0 0 0 0 0 0 0 0 0 0 0 0 0 0 0 0.25 0"/><feBlend in2="BackgroundImageFix" result="effect1_dropShadow_3_873"/><feBlend in="SourceGraphic" in2="effect1_dropShadow_3_873" result="shape"/></filter><linearGradient id="a" x1="120.001" x2="120.001" y1="0" y2="40.001" gradientUnits="userSpaceOnUse"><stop stop-color="#051f30"/><stop offset="1" stop-color="#031420"/></linearGradient></defs></svg>