<svg xmlns="http://www.w3.org/2000/svg" width="200" height="40" fill="none" viewBox="0 0 200 40"><g clip-path="url(#a)"><rect width="200.001" height="40.001" fill="url(#b)" rx="8"/><g filter="url(#c)"><path fill="#fff" d="M22.002 6.5C14.267 6.5 8 12.702 8 20.344c0 6.118 4.012 11.305 9.571 13.134.703.131.956-.297.956-.667 0-.33-.007-1.199-.013-2.353-3.896.834-4.717-1.86-4.717-1.86-.638-1.596-1.559-2.024-1.559-2.024-1.267-.856.1-.837.1-.837 1.404.094 2.143 1.423 2.143 1.423 1.249 2.117 3.276 1.505 4.079 1.149.122-.892.487-1.506.885-1.848-3.109-.346-6.377-1.536-6.377-6.84 0-1.515.542-2.748 1.44-3.717-.156-.347-.63-1.757.123-3.664 0 0 1.171-.37 3.85 1.42a13.7 13.7 0 0 1 3.5-.468c1.19.007 2.38.161 3.5.468 2.664-1.79 3.835-1.42 3.835-1.42.751 1.907.277 3.316.14 3.664.889.969 1.431 2.203 1.431 3.717 0 5.316-3.273 6.488-6.384 6.827.486.414.942 1.266.942 2.56 0 1.85-.017 3.342-.017 3.793 0 .36.245.792.966.653 5.6-1.81 9.607-7.001 9.607-13.111C36.001 12.7 29.735 6.5 22 6.5z"/></g><g filter="url(#d)"><path fill="#e8e8e8" d="M50.103 17.385q-.096-.857-.797-1.328-.7-.477-1.763-.477-.76 0-1.316.241-.555.236-.863.652a1.54 1.54 0 0 0-.302.936q0 .44.205.76.211.32.55.538.345.211.736.356.392.14.755.23l1.207.314a9 9 0 0 1 1.214.392q.622.247 1.153.652t.857 1.002q.332.597.332 1.43 0 1.052-.543 1.866-.538.815-1.564 1.286-1.02.47-2.469.47-1.388 0-2.403-.44-1.014-.44-1.587-1.25-.574-.815-.634-1.931h1.871q.055.67.435 1.117.387.44.984.658.603.21 1.322.21.79 0 1.407-.247.621-.253.978-.7a1.66 1.66 0 0 0 .356-1.056q0-.55-.314-.9-.307-.35-.84-.58a8 8 0 0 0-1.189-.404l-1.46-.398q-1.485-.404-2.355-1.19-.863-.785-.863-2.076 0-1.069.58-1.866.579-.796 1.569-1.237.99-.447 2.234-.447 1.255 0 2.215.44.966.442 1.521 1.214.555.767.58 1.763zm8.049 9.303q-1.37 0-2.36-.586a3.97 3.97 0 0 1-1.522-1.66q-.531-1.074-.531-2.517 0-1.425.531-2.512.537-1.087 1.497-1.696.966-.61 2.258-.61.785 0 1.521.26.737.259 1.322.815t.924 1.443q.338.881.338 2.143v.64h-7.37v-1.353h5.602q0-.712-.29-1.261a2.2 2.2 0 0 0-.814-.876q-.52-.32-1.22-.32-.76 0-1.328.375a2.5 2.5 0 0 0-.87.966 2.8 2.8 0 0 0-.301 1.285v1.057q0 .93.326 1.582.332.651.923.996.593.338 1.383.338.513 0 .936-.145.422-.15.73-.447a1.94 1.94 0 0 0 .47-.73l1.71.308a3.1 3.1 0 0 1-.737 1.322 3.6 3.6 0 0 1-1.322.875q-.791.308-1.805.308m9.977 0q-1.37 0-2.36-.586a3.97 3.97 0 0 1-1.521-1.66q-.532-1.074-.532-2.517 0-1.425.532-2.512.537-1.087 1.497-1.696.966-.61 2.257-.61.785 0 1.522.26.735.259 1.322.815.585.555.924 1.443.338.881.338 2.143v.64h-7.371v-1.353h5.602q0-.712-.29-1.261a2.2 2.2 0 0 0-.815-.876q-.519-.32-1.22-.32-.76 0-1.328.375a2.5 2.5 0 0 0-.869.966 2.8 2.8 0 0 0-.302 1.285v1.057q0 .93.326 1.582.333.651.924.996.591.338 1.382.338.514 0 .936-.145.423-.15.73-.447a1.94 1.94 0 0 0 .471-.73l1.709.308a3.1 3.1 0 0 1-.737 1.322q-.525.561-1.322.875-.79.308-1.805.308m10.48-.187v-9.273h1.733v1.51h.115q.29-.768.948-1.196.657-.435 1.575-.435.93 0 1.558.435.633.435.935 1.195h.097q.332-.743 1.056-1.183.725-.447 1.727-.447 1.261 0 2.059.791.802.79.802 2.385V26.5H89.41v-6.05q0-.94-.513-1.364a1.87 1.87 0 0 0-1.225-.422q-.882 0-1.37.543-.49.538-.49 1.383v5.91h-1.799v-6.164q0-.755-.47-1.213-.471-.46-1.226-.46-.513 0-.948.272a2 2 0 0 0-.694.743q-.26.477-.26 1.105V26.5zm19.021.187q-1.37 0-2.36-.586a3.97 3.97 0 0 1-1.521-1.66q-.532-1.074-.532-2.517 0-1.425.532-2.512.537-1.087 1.497-1.696.966-.61 2.258-.61.785 0 1.52.26.738.259 1.323.815t.924 1.443q.338.881.338 2.143v.64h-7.371v-1.353h5.602q0-.712-.29-1.261a2.2 2.2 0 0 0-.815-.876q-.52-.32-1.22-.32-.76 0-1.328.375a2.5 2.5 0 0 0-.869.966 2.8 2.8 0 0 0-.302 1.285v1.057q0 .93.326 1.582.333.651.924.996.591.338 1.382.338.514 0 .936-.145.423-.15.73-.447.309-.295.472-.73l1.708.308a3.1 3.1 0 0 1-.737 1.322q-.525.561-1.322.875-.79.308-1.805.308m14.386 0q-1.304 0-2.276-.598a4.03 4.03 0 0 1-1.509-1.672q-.537-1.075-.537-2.511 0-1.443.537-2.524a4 4 0 0 1 1.509-1.678q.972-.598 2.276-.598 1.305 0 2.276.598a4 4 0 0 1 1.509 1.678q.538 1.08.538 2.524 0 1.436-.538 2.51a4.03 4.03 0 0 1-1.509 1.673q-.971.598-2.276.598m.006-1.515q.846 0 1.401-.447t.821-1.19q.272-.742.272-1.636 0-.886-.272-1.63-.266-.748-.821-1.2-.555-.454-1.401-.454-.85 0-1.412.453-.556.453-.827 1.202a4.8 4.8 0 0 0-.266 1.63q0 .892.266 1.636.271.742.827 1.189.561.447 1.412.447m8.137-4.178v5.506h-1.805v-9.273h1.732v1.51h.115a2.65 2.65 0 0 1 1.002-1.184q.688-.447 1.733-.447.947 0 1.66.399a2.66 2.66 0 0 1 1.104 1.17q.393.78.393 1.927V26.5h-1.805v-5.68q0-1.008-.525-1.576-.526-.573-1.443-.573-.628 0-1.117.271a1.95 1.95 0 0 0-.767.797q-.277.52-.277 1.256"/><path fill="#fff" d="M141.051 18.176a2.2 2.2 0 0 0-.302-.67 1.9 1.9 0 0 0-.489-.501 2.1 2.1 0 0 0-.664-.308 3 3 0 0 0-.821-.109q-.9 0-1.558.435-.651.435-1.008 1.267-.356.828-.356 2.01 0 1.19.344 2.03.345.838.996 1.279.652.44 1.582.44.82 0 1.388-.265.575-.272.87-.767t.296-1.165l.555.067h-3.006v-2.18h5.33v1.636q0 1.66-.706 2.844a4.7 4.7 0 0 1-1.932 1.817q-1.226.634-2.819.634-1.769 0-3.109-.767t-2.089-2.185q-.749-1.425-.749-3.381 0-1.521.453-2.698a5.7 5.7 0 0 1 1.262-2.005 5.45 5.45 0 0 1 1.883-1.243 6.3 6.3 0 0 1 2.313-.423q1.074 0 1.998.308.93.308 1.642.87a4.6 4.6 0 0 1 1.165 1.333 4.4 4.4 0 0 1 .555 1.697zm5.499 8.325v-9.273h2.953V26.5zm1.48-10.354q-.622 0-1.069-.41a1.32 1.32 0 0 1-.447-1.002q0-.58.447-.99a1.5 1.5 0 0 1 1.069-.417q.627 0 1.068.417.447.41.447.99 0 .585-.447 1.002a1.5 1.5 0 0 1-1.068.41m8.586 1.08v2.174h-5.85v-2.173zm-4.625-2.22h2.952v8.578q0 .271.085.44.09.164.259.236.17.066.405.066.169 0 .356-.03.193-.036.29-.06l.447 2.13q-.212.061-.598.152a5 5 0 0 1-.912.115q-1.038.048-1.781-.242a2.3 2.3 0 0 1-1.128-.918q-.387-.621-.375-1.563zm6.33 11.494V14.137h2.988v4.962h4.872v-4.962h2.982v12.364h-2.982v-4.969h-4.872v4.969zm18.699-4.003v-5.27h2.946V26.5h-2.813v-1.727h-.096a2.7 2.7 0 0 1-1.051 1.352q-.736.495-1.781.495-.948 0-1.666-.434a2.96 2.96 0 0 1-1.117-1.214q-.398-.785-.404-1.835v-5.91h2.952v5.33q.006.756.398 1.19.393.434 1.069.434.44 0 .791-.193a1.43 1.43 0 0 0 .561-.573q.211-.381.211-.918m4.825 4.003V14.137h2.952v4.679h.061q.182-.423.513-.815.338-.393.857-.64.525-.255 1.256-.254a3.43 3.43 0 0 1 1.805.507q.845.508 1.364 1.564t.519 2.692q0 1.575-.501 2.639-.495 1.063-1.34 1.593a3.4 3.4 0 0 1-1.865.532q-.7 0-1.214-.23a2.6 2.6 0 0 1-.863-.604 2.9 2.9 0 0 1-.531-.803h-.091v1.504zm2.892-4.637q0 .75.199 1.304.205.555.586.864.385.3.924.301.543 0 .923-.301.38-.309.574-.864.198-.555.199-1.304 0-.748-.199-1.298-.193-.55-.574-.85-.374-.303-.923-.303-.544 0-.924.296t-.586.845q-.2.55-.199 1.31"/></g></g><rect width="197.858" height="37.858" x="1.071" y="1.071" stroke="#fff" stroke-opacity=".15" stroke-width="2.143" rx="6.929"/><defs><filter id="c" width="39.202" height="39.202" x="2.4" y=".4" color-interpolation-filters="sRGB" filterUnits="userSpaceOnUse"><feFlood flood-opacity="0" result="BackgroundImageFix"/><feColorMatrix in="SourceAlpha" result="hardAlpha" values="0 0 0 0 0 0 0 0 0 0 0 0 0 0 0 0 0 0 127 0"/><feOffset/><feGaussianBlur stdDeviation="2.8"/><feComposite in2="hardAlpha" operator="out"/><feColorMatrix values="0 0 0 0 0 0 0 0 0 0 0 0 0 0 0 0 0 0 0.25 0"/><feBlend in2="BackgroundImageFix" result="effect1_dropShadow_28_2842"/><feBlend in="SourceGraphic" in2="effect1_dropShadow_28_2842" result="shape"/></filter><filter id="d" width="161.429" height="32.429" x="36.287" y="3.786" color-interpolation-filters="sRGB" filterUnits="userSpaceOnUse"><feFlood flood-opacity="0" result="BackgroundImageFix"/><feColorMatrix in="SourceAlpha" result="hardAlpha" values="0 0 0 0 0 0 0 0 0 0 0 0 0 0 0 0 0 0 127 0"/><feOffset/><feGaussianBlur stdDeviation="2.857"/><feComposite in2="hardAlpha" operator="out"/><feColorMatrix values="0 0 0 0 0 0 0 0 0 0 0 0 0 0 0 0 0 0 0.25 0"/><feBlend in2="BackgroundImageFix" result="effect1_dropShadow_28_2842"/><feBlend in="SourceGraphic" in2="effect1_dropShadow_28_2842" result="shape"/></filter><linearGradient id="b" x1="100.001" x2="100.001" y1="0" y2="40.001" gradientUnits="userSpaceOnUse"><stop stop-color="#181f29"/><stop offset="1" stop-color="#0f131a"/></linearGradient><clipPath id="a"><rect width="200.001" height="40.001" fill="#fff" rx="8"/></clipPath></defs></svg>