<svg xmlns="http://www.w3.org/2000/svg" width="196" height="40" fill="none" viewBox="0 0 196 40"><rect width="196.001" height="40.001" fill="url(#a)" rx="8"/><rect width="193.858" height="37.858" x="1.071" y="1.071" stroke="#fff" stroke-opacity=".15" stroke-width="2.143" rx="6.929"/><g filter="url(#b)"><path fill="#e24329" d="m22 32.997 5.157-15.993H16.844z"/><path fill="#fc6d26" d="m22 32.997-5.155-15.993H9.619z"/><path fill="#fca326" d="m9.62 17.004-1.568 4.86a1.08 1.08 0 0 0 .388 1.203L22 33z"/><path fill="#e24329" d="M9.62 17.004h7.225l-3.106-9.632a.54.54 0 0 0-.507-.37.53.53 0 0 0-.508.37z"/><path fill="#fc6d26" d="m22 32.997 5.157-15.993h7.225z"/><path fill="#fca326" d="m34.382 17.004 1.567 4.86a1.08 1.08 0 0 1-.388 1.203L22.001 33z"/><path fill="#e24329" d="M34.382 17.004h-7.225l3.105-9.633a.54.54 0 0 1 .507-.37.53.53 0 0 1 .508.37z"/></g><g filter="url(#c)"><path fill="#e8e8e8" d="M50.103 17.385q-.096-.857-.797-1.328-.7-.477-1.763-.477-.76 0-1.316.241-.555.236-.863.652a1.54 1.54 0 0 0-.302.936q0 .44.205.76.211.32.55.538.345.211.736.356.392.14.755.23l1.207.314a9 9 0 0 1 1.214.392q.622.247 1.153.652t.857 1.002q.332.597.332 1.43 0 1.052-.543 1.866-.538.815-1.564 1.286-1.02.47-2.469.47-1.388 0-2.403-.44-1.014-.44-1.587-1.25-.574-.815-.634-1.931h1.871q.055.67.435 1.117.387.44.984.658.603.21 1.322.21.79 0 1.407-.247.621-.253.978-.7a1.66 1.66 0 0 0 .356-1.056q0-.55-.314-.9-.307-.35-.84-.58a8 8 0 0 0-1.189-.404l-1.46-.398q-1.485-.404-2.355-1.19-.863-.785-.863-2.076 0-1.069.58-1.866.579-.796 1.569-1.237.99-.447 2.234-.447 1.255 0 2.215.44.966.442 1.521 1.214.555.767.58 1.763zm8.049 9.303q-1.37 0-2.36-.586a3.97 3.97 0 0 1-1.522-1.66q-.531-1.074-.531-2.517 0-1.425.531-2.512.537-1.087 1.497-1.696.966-.61 2.258-.61.785 0 1.521.26.737.259 1.322.815t.924 1.443q.338.881.338 2.143v.64h-7.37v-1.353h5.602q0-.712-.29-1.261a2.2 2.2 0 0 0-.814-.876q-.52-.32-1.22-.32-.76 0-1.328.375a2.5 2.5 0 0 0-.87.966 2.8 2.8 0 0 0-.301 1.285v1.057q0 .93.326 1.582.332.651.923.996.593.338 1.383.338.513 0 .936-.145.422-.15.73-.447a1.94 1.94 0 0 0 .47-.73l1.71.308a3.1 3.1 0 0 1-.737 1.322 3.6 3.6 0 0 1-1.322.875q-.791.308-1.805.308m9.977 0q-1.37 0-2.36-.586a3.97 3.97 0 0 1-1.521-1.66q-.532-1.074-.532-2.517 0-1.425.532-2.512.537-1.087 1.497-1.696.966-.61 2.257-.61.785 0 1.522.26.735.259 1.322.815.585.555.924 1.443.338.881.338 2.143v.64h-7.371v-1.353h5.602q0-.712-.29-1.261a2.2 2.2 0 0 0-.815-.876q-.519-.32-1.22-.32-.76 0-1.328.375a2.5 2.5 0 0 0-.869.966 2.8 2.8 0 0 0-.302 1.285v1.057q0 .93.326 1.582.333.651.924.996.591.338 1.382.338.514 0 .936-.145.423-.15.73-.447a1.94 1.94 0 0 0 .471-.73l1.709.308a3.1 3.1 0 0 1-.737 1.322q-.525.561-1.322.875-.79.308-1.805.308m10.48-.187v-9.273h1.733v1.51h.115q.29-.768.948-1.196.657-.435 1.575-.435.93 0 1.558.435.633.435.935 1.195h.097q.332-.743 1.056-1.183.725-.447 1.727-.447 1.261 0 2.059.791.802.79.802 2.385V26.5H89.41v-6.05q0-.94-.513-1.364a1.87 1.87 0 0 0-1.225-.422q-.882 0-1.37.543-.49.538-.49 1.383v5.91h-1.799v-6.164q0-.755-.47-1.213-.471-.46-1.226-.46-.513 0-.948.272a2 2 0 0 0-.694.743q-.26.477-.26 1.105V26.5zm19.021.187q-1.37 0-2.36-.586a3.97 3.97 0 0 1-1.521-1.66q-.532-1.074-.532-2.517 0-1.425.532-2.512.537-1.087 1.497-1.696.966-.61 2.258-.61.785 0 1.52.26.738.259 1.323.815t.924 1.443q.338.881.338 2.143v.64h-7.371v-1.353h5.602q0-.712-.29-1.261a2.2 2.2 0 0 0-.815-.876q-.52-.32-1.22-.32-.76 0-1.328.375a2.5 2.5 0 0 0-.869.966 2.8 2.8 0 0 0-.302 1.285v1.057q0 .93.326 1.582.333.651.924.996.591.338 1.382.338.514 0 .936-.145.423-.15.73-.447.309-.295.472-.73l1.708.308a3.1 3.1 0 0 1-.737 1.322q-.525.561-1.322.875-.79.308-1.805.308m14.386 0q-1.304 0-2.276-.598a4.03 4.03 0 0 1-1.509-1.672q-.537-1.075-.537-2.511 0-1.443.537-2.524a4 4 0 0 1 1.509-1.678q.972-.598 2.276-.598 1.305 0 2.276.598a4 4 0 0 1 1.509 1.678q.538 1.08.538 2.524 0 1.436-.538 2.51a4.03 4.03 0 0 1-1.509 1.673q-.971.598-2.276.598m.006-1.515q.846 0 1.401-.447t.821-1.19q.272-.742.272-1.636 0-.886-.272-1.63-.266-.748-.821-1.2-.555-.454-1.401-.454-.85 0-1.412.453-.556.453-.827 1.202a4.8 4.8 0 0 0-.266 1.63q0 .892.266 1.636.271.742.827 1.189.561.447 1.412.447m8.137-4.178v5.506h-1.805v-9.273h1.732v1.51h.115a2.65 2.65 0 0 1 1.002-1.184q.688-.447 1.733-.447.947 0 1.66.399a2.66 2.66 0 0 1 1.104 1.17q.393.78.393 1.927V26.5h-1.805v-5.68q0-1.008-.525-1.576-.526-.573-1.443-.573-.628 0-1.117.271a1.95 1.95 0 0 0-.767.797q-.277.52-.277 1.256"/><path fill="url(#d)" d="M141.051 18.176a2.2 2.2 0 0 0-.302-.67 1.9 1.9 0 0 0-.489-.501 2.1 2.1 0 0 0-.664-.308 3 3 0 0 0-.821-.109q-.9 0-1.558.435-.651.435-1.008 1.267-.356.828-.356 2.01 0 1.19.344 2.03.345.838.996 1.279.652.44 1.582.44.82 0 1.388-.265.575-.272.87-.767t.296-1.165l.555.067h-3.006v-2.18h5.33v1.636q0 1.66-.706 2.844a4.7 4.7 0 0 1-1.932 1.817q-1.226.634-2.819.634-1.769 0-3.109-.767t-2.089-2.185q-.749-1.425-.749-3.381 0-1.521.453-2.698a5.7 5.7 0 0 1 1.262-2.005 5.45 5.45 0 0 1 1.883-1.243 6.3 6.3 0 0 1 2.313-.423q1.074 0 1.998.308.93.308 1.642.87a4.6 4.6 0 0 1 1.165 1.333 4.4 4.4 0 0 1 .555 1.697zm5.499 8.325v-9.273h2.953V26.5zm1.48-10.354q-.622 0-1.069-.41a1.32 1.32 0 0 1-.447-1.002q0-.58.447-.99a1.5 1.5 0 0 1 1.069-.417q.627 0 1.068.417.447.41.447.99 0 .585-.447 1.002a1.5 1.5 0 0 1-1.068.41m8.586 1.08v2.174h-5.85v-2.173zm-4.625-2.22h2.952v8.578q0 .271.085.44.09.164.259.236.17.066.405.066.169 0 .356-.03.193-.036.29-.06l.447 2.13q-.212.061-.598.152a5 5 0 0 1-.912.115q-1.038.048-1.781-.242a2.3 2.3 0 0 1-1.128-.918q-.387-.621-.375-1.563zm6.33 11.494V14.137h2.988v9.937h5.144V26.5zm12.293.157q-.888 0-1.576-.296a2.46 2.46 0 0 1-1.081-.906q-.392-.609-.392-1.527 0-.773.272-1.304.271-.531.748-.863a3.5 3.5 0 0 1 1.099-.501 7 7 0 0 1 1.328-.236q.79-.072 1.274-.15.483-.086.7-.236a.51.51 0 0 0 .224-.44v-.031q0-.466-.32-.718-.32-.255-.864-.254-.585 0-.941.253-.357.255-.453.7l-2.723-.096a3.2 3.2 0 0 1 .622-1.509q.507-.67 1.388-1.05.888-.387 2.131-.387.888 0 1.636.212.75.205 1.304.603.556.393.858.966.308.574.308 1.31v6.303h-2.777v-1.292h-.073q-.247.471-.634.797-.38.325-.899.489a3.8 3.8 0 0 1-1.159.163m.911-1.932q.477 0 .857-.193.387-.194.616-.532.23-.344.23-.797v-.88a2 2 0 0 1-.308.12q-.175.054-.387.103-.21.048-.434.084t-.429.066a2.7 2.7 0 0 0-.712.206 1.13 1.13 0 0 0-.447.362.9.9 0 0 0-.151.519q0 .46.326.7.332.242.839.242m6.436 1.775V14.137h2.952v4.679h.06q.182-.423.513-.815.339-.393.857-.64.526-.255 1.256-.254.966 0 1.805.507.845.508 1.364 1.564t.52 2.692q0 1.575-.501 2.639-.495 1.063-1.341 1.593a3.4 3.4 0 0 1-1.865.532q-.7 0-1.213-.23a2.6 2.6 0 0 1-.864-.604 2.9 2.9 0 0 1-.531-.803h-.091v1.504zm2.891-4.637q0 .75.2 1.304.205.555.585.864.387.3.924.301.543 0 .923-.301.38-.309.574-.864.2-.555.199-1.304 0-.748-.199-1.298-.193-.55-.574-.85-.374-.303-.923-.303-.543 0-.924.296-.38.296-.585.845-.2.55-.2 1.31"/></g><defs><linearGradient id="a" x1="98.001" x2="98.001" y1="0" y2="40.001" gradientUnits="userSpaceOnUse"><stop stop-color="#2e0e09"/><stop offset="1" stop-color="#1f1506"/></linearGradient><linearGradient id="d" x1="160.001" x2="160.001" y1="9.501" y2="30.501" gradientUnits="userSpaceOnUse"><stop stop-color="#e06955"/><stop offset="1" stop-color="#f5b253"/></linearGradient><filter id="b" width="39.202" height="39.202" x="2.4" y=".4" color-interpolation-filters="sRGB" filterUnits="userSpaceOnUse"><feFlood flood-opacity="0" result="BackgroundImageFix"/><feColorMatrix in="SourceAlpha" result="hardAlpha" values="0 0 0 0 0 0 0 0 0 0 0 0 0 0 0 0 0 0 127 0"/><feOffset/><feGaussianBlur stdDeviation="2.8"/><feComposite in2="hardAlpha" operator="out"/><feColorMatrix values="0 0 0 0 0 0 0 0 0 0 0 0 0 0 0 0 0 0 0.25 0"/><feBlend in2="BackgroundImageFix" result="effect1_dropShadow_28_2861"/><feBlend in="SourceGraphic" in2="effect1_dropShadow_28_2861" result="shape"/></filter><filter id="c" width="157.429" height="32.429" x="36.287" y="3.786" color-interpolation-filters="sRGB" filterUnits="userSpaceOnUse"><feFlood flood-opacity="0" result="BackgroundImageFix"/><feColorMatrix in="SourceAlpha" result="hardAlpha" values="0 0 0 0 0 0 0 0 0 0 0 0 0 0 0 0 0 0 127 0"/><feOffset/><feGaussianBlur stdDeviation="2.857"/><feComposite in2="hardAlpha" operator="out"/><feColorMatrix values="0 0 0 0 0 0 0 0 0 0 0 0 0 0 0 0 0 0 0.25 0"/><feBlend in2="BackgroundImageFix" result="effect1_dropShadow_28_2861"/><feBlend in="SourceGraphic" in2="effect1_dropShadow_28_2861" result="shape"/></filter></defs></svg>