<svg xmlns="http://www.w3.org/2000/svg" width="266" height="40" fill="none" viewBox="0 0 266 40"><g clip-path="url(#a)"><rect width="266.001" height="40.001" fill="url(#b)" rx="8"/><g filter="url(#c)"><path fill="url(#d)" d="M34.896 12.2c-.4-3.01-2.995-5.38-6.07-5.84-.52-.077-2.485-.36-7.04-.36h-.034c-4.555 0-5.533.283-6.051.36-2.99.447-5.721 2.577-6.384 5.622-.318 1.499-.352 3.161-.293 4.686.084 2.186.1 4.369.297 6.546.136 1.447.373 2.882.71 4.294.629 2.61 3.178 4.78 5.676 5.666a15.07 15.07 0 0 0 8.305.443q.454-.107.898-.248c.67-.215 1.455-.456 2.032-.878a.07.07 0 0 0 .026-.051v-2.11a.062.062 0 0 0-.076-.06c-1.765.426-3.574.64-5.389.637-3.124 0-3.964-1.498-4.204-2.122a6.6 6.6 0 0 1-.366-1.672.06.06 0 0 1 .023-.05.06.06 0 0 1 .053-.013c1.736.423 3.516.637 5.301.637.43 0 .858 0 1.288-.012 1.796-.05 3.689-.144 5.456-.492q.067-.013.126-.028c2.787-.541 5.44-2.239 5.709-6.538.01-.17.035-1.773.035-1.949.001-.596.19-4.234-.028-6.469"/><path fill="#fff" d="M30.48 15.58v7.474h-2.93V15.8c0-1.527-.63-2.306-1.911-2.306-1.408 0-2.113.921-2.113 2.74v3.972h-2.914v-3.971c0-1.82-.706-2.741-2.114-2.741-1.274 0-1.91.779-1.91 2.306v7.254h-2.93V15.58q0-2.292 1.158-3.64c.796-.898 1.84-1.358 3.136-1.358 1.5 0 2.634.583 3.39 1.747l.729 1.237.73-1.237c.756-1.164 1.89-1.747 3.387-1.747 1.295 0 2.339.46 3.138 1.358q1.155 1.347 1.154 3.64"/></g><g filter="url(#e)"><path fill="#e8e8e8" d="M53.629 18.158h-1.884a2.88 2.88 0 0 0-1.129-1.842 3.1 3.1 0 0 0-.96-.483 3.8 3.8 0 0 0-1.117-.163q-1.068 0-1.913.538-.84.537-1.328 1.575-.483 1.04-.483 2.536 0 1.509.483 2.547.489 1.04 1.334 1.57a3.5 3.5 0 0 0 1.901.531q.586 0 1.111-.157.531-.162.96-.477.429-.313.724-.766a2.9 2.9 0 0 0 .417-1.05l1.884.005a5 5 0 0 1-.586 1.679 4.6 4.6 0 0 1-1.105 1.316q-.67.55-1.533.85a5.7 5.7 0 0 1-1.884.303q-1.605 0-2.861-.761-1.256-.766-1.98-2.191-.72-1.425-.719-3.4 0-1.98.725-3.398.724-1.425 1.98-2.185 1.256-.767 2.855-.767a5.8 5.8 0 0 1 1.836.284 4.8 4.8 0 0 1 1.539.82q.682.538 1.129 1.317.447.773.604 1.769m3.892 2.837v5.506h-1.805V14.137h1.78v4.6h.115q.327-.748.997-1.19.67-.44 1.75-.44.954 0 1.667.393.718.392 1.11 1.17.399.774.399 1.933V26.5h-1.805v-5.68q0-1.02-.526-1.582-.525-.567-1.46-.567-.64 0-1.148.271a1.96 1.96 0 0 0-.79.797q-.284.52-.284 1.256m11.12 5.71a3.8 3.8 0 0 1-1.594-.325 2.7 2.7 0 0 1-1.129-.96q-.41-.628-.41-1.54 0-.784.302-1.291.3-.507.815-.803a4.3 4.3 0 0 1 1.147-.447q.633-.15 1.291-.23l1.353-.156q.519-.066.754-.212.236-.144.236-.47v-.043q0-.79-.447-1.225-.44-.435-1.316-.435-.912 0-1.437.405-.519.398-.718.887l-1.697-.386q.303-.845.882-1.365.585-.525 1.346-.76a5.3 5.3 0 0 1 1.6-.242q.556 0 1.177.133.629.128 1.171.47.55.345.9.985.35.634.35 1.648v6.158h-1.763v-1.268h-.072a2.6 2.6 0 0 1-.526.688 2.8 2.8 0 0 1-.899.562q-.55.222-1.316.223m.392-1.448q.75 0 1.28-.296.537-.295.815-.772.284-.484.284-1.033v-1.195q-.098.097-.374.181a6 6 0 0 1-.622.139l-.682.103-.556.072q-.525.067-.96.223a1.65 1.65 0 0 0-.688.453q-.253.289-.253.773 0 .67.495 1.014.495.338 1.261.338m10.917-8.03v1.45h-5.065v-1.45zm-3.707-2.22h1.805v8.771q0 .526.157.79a.82.82 0 0 0 .404.357q.255.09.55.09.217 0 .38-.03l.254-.048.326 1.491q-.158.06-.447.121a3.5 3.5 0 0 1-.724.072 3.2 3.2 0 0 1-1.329-.253 2.3 2.3 0 0 1-.996-.821q-.38-.555-.38-1.395zM88.456 26.5l-2.73-9.273h1.866l1.817 6.81h.091l1.823-6.81h1.866l1.81 6.78h.091l1.805-6.78h1.866L96.038 26.5h-1.841l-1.884-6.695h-.139L90.291 26.5zm12.018 0v-9.273h1.805V26.5zm.911-10.704q-.47 0-.809-.314a1.02 1.02 0 0 1-.332-.76q0-.447.332-.761.338-.32.809-.32t.803.32q.338.315.338.76 0 .441-.338.761-.332.315-.803.314m7.651 1.43v1.45h-5.065v-1.45zm-3.707-2.22h1.805v8.771q0 .526.157.79a.82.82 0 0 0 .404.357q.253.09.55.09.217 0 .38-.03l.254-.048.326 1.491q-.158.06-.447.121a3.5 3.5 0 0 1-.725.072 3.2 3.2 0 0 1-1.328-.253 2.3 2.3 0 0 1-.996-.821q-.38-.555-.38-1.395zm7.708 5.988V26.5h-1.806V14.137h1.781v4.6h.115q.326-.748.996-1.19.67-.44 1.751-.44.954 0 1.666.393.718.392 1.111 1.17.398.774.398 1.933V26.5h-1.805v-5.68q0-1.02-.525-1.582-.525-.567-1.461-.567-.64 0-1.147.271a1.96 1.96 0 0 0-.791.797q-.283.52-.283 1.256m18.794 1.66v-5.427h1.811V26.5h-1.775v-1.606h-.096a2.9 2.9 0 0 1-1.027 1.237q-.7.49-1.744.49-.894 0-1.582-.393-.682-.399-1.075-1.177-.386-.78-.386-1.926v-5.898h1.805v5.68q0 .95.525 1.51.525.561 1.365.561.507 0 1.008-.253.507-.255.839-.767.338-.513.332-1.304m11.185-3.163-1.636.29a2 2 0 0 0-.326-.598 1.6 1.6 0 0 0-.592-.465q-.374-.18-.935-.181-.767 0-1.28.344-.513.338-.513.875 0 .465.344.749t1.11.465l1.474.338q1.28.296 1.907.912.628.615.628 1.6a2.43 2.43 0 0 1-.483 1.484q-.477.647-1.334 1.015-.852.368-1.974.368-1.558 0-2.542-.664-.984-.67-1.207-1.902l1.745-.265q.163.681.67 1.032.506.345 1.322.344.887 0 1.418-.368.532-.375.532-.912a.95.95 0 0 0-.326-.73q-.321-.296-.984-.447l-1.57-.344q-1.298-.296-1.92-.942-.615-.645-.615-1.636 0-.82.458-1.437.46-.615 1.268-.96.809-.35 1.853-.35 1.504 0 2.367.652.863.645 1.141 1.733m10.571 7.196q-1.304 0-2.276-.598a4.04 4.04 0 0 1-1.51-1.672q-.537-1.075-.537-2.511 0-1.443.537-2.524.538-1.08 1.51-1.678t2.276-.598 2.275.598a4 4 0 0 1 1.51 1.678q.537 1.08.537 2.524 0 1.436-.537 2.51a4.03 4.03 0 0 1-1.51 1.673q-.971.598-2.275.598m.006-1.515q.845 0 1.4-.447t.821-1.19q.272-.742.272-1.636 0-.886-.272-1.63-.266-.748-.821-1.2-.555-.454-1.4-.454-.852 0-1.413.453-.555.453-.827 1.202a4.8 4.8 0 0 0-.266 1.63q0 .892.266 1.636.272.742.827 1.189.561.447 1.413.447m8.136-4.178V26.5h-1.805v-9.273h1.732v1.51h.115a2.65 2.65 0 0 1 1.002-1.184q.689-.447 1.733-.447.948 0 1.66.399.712.392 1.105 1.17.392.78.392 1.927V26.5h-1.805v-5.68q0-1.008-.525-1.576-.525-.573-1.443-.573-.627 0-1.117.271a1.95 1.95 0 0 0-.766.797q-.279.52-.278 1.256"/><path fill="url(#f)" d="M173.937 14.137h3.701l3.139 7.655h.145l3.139-7.655h3.701v12.364h-2.91v-7.595h-.103l-2.97 7.516h-1.859l-2.97-7.558h-.103V26.5h-2.91zm18.303 12.52q-.888 0-1.576-.295a2.46 2.46 0 0 1-1.081-.906q-.392-.609-.392-1.527 0-.773.272-1.304.271-.531.748-.863a3.5 3.5 0 0 1 1.099-.501 7 7 0 0 1 1.328-.236q.79-.072 1.274-.15.483-.086.7-.236a.51.51 0 0 0 .224-.44v-.031q0-.466-.32-.718-.32-.255-.864-.254-.585 0-.941.253-.357.255-.453.7l-2.723-.096a3.2 3.2 0 0 1 .622-1.509q.507-.67 1.388-1.05.888-.387 2.131-.387.888 0 1.636.212.75.205 1.304.603.556.393.858.966.308.574.308 1.31v6.303h-2.777v-1.292h-.073q-.247.471-.634.797-.38.325-.899.489a3.8 3.8 0 0 1-1.159.163m.911-1.931q.477 0 .857-.193.387-.194.616-.532.23-.344.23-.797v-.88a2 2 0 0 1-.308.12q-.175.054-.387.103-.21.048-.434.084t-.429.066a2.7 2.7 0 0 0-.712.206 1.13 1.13 0 0 0-.447.362.9.9 0 0 0-.151.519q0 .46.326.7.332.242.839.242m14.531-4.667-2.71.073a1 1 0 0 0-.23-.513 1.24 1.24 0 0 0-.489-.357 1.7 1.7 0 0 0-.688-.132q-.513 0-.875.205-.357.206-.351.555a.6.6 0 0 0 .218.471q.229.2.815.32l1.787.338q1.388.266 2.064.882.682.615.689 1.63-.007.953-.568 1.66-.555.706-1.521 1.098-.966.387-2.21.387-1.986 0-3.133-.815-1.141-.822-1.304-2.198l2.916-.072q.096.506.501.773.405.265 1.032.265.568 0 .924-.211.356-.21.362-.561a.6.6 0 0 0-.278-.502q-.271-.193-.851-.301l-1.618-.308q-1.394-.254-2.076-.936-.683-.688-.676-1.75-.007-.93.495-1.588.501-.664 1.424-1.015.924-.35 2.18-.35 1.883 0 2.97.791 1.087.785 1.201 2.161m6.917-2.831V19.4h-5.85v-2.173zm-4.624-2.222h2.952v8.579q0 .271.084.44a.53.53 0 0 0 .26.236q.168.066.404.066.17 0 .356-.03.194-.036.29-.06l.447 2.13q-.211.061-.598.152-.38.09-.911.115-1.039.048-1.781-.242a2.3 2.3 0 0 1-1.129-.918q-.387-.621-.374-1.563zm10.359 11.67q-1.461 0-2.511-.598a4.1 4.1 0 0 1-1.612-1.678q-.561-1.08-.562-2.505 0-1.431.562-2.506.567-1.08 1.612-1.678 1.05-.604 2.511-.604t2.505.604a4 4 0 0 1 1.612 1.678q.568 1.075.568 2.506 0 1.424-.568 2.505a4.07 4.07 0 0 1-1.612 1.678q-1.044.598-2.505.598m.018-2.228q.531 0 .9-.326.368-.327.561-.905.2-.58.199-1.34 0-.773-.199-1.353-.193-.58-.561-.905a1.3 1.3 0 0 0-.9-.326q-.549 0-.93.326-.374.326-.573.905-.193.58-.193 1.352 0 .762.193 1.34.2.58.573.906.381.326.93.326m9.566 2.186a3.4 3.4 0 0 1-1.866-.532q-.839-.531-1.34-1.593-.501-1.063-.501-2.639 0-1.636.519-2.692.52-1.056 1.358-1.564a3.5 3.5 0 0 1 1.818-.507q.73 0 1.249.254.52.247.857.64.339.392.514.815h.06v-4.679h2.952v12.364h-2.922v-1.504h-.09a2.9 2.9 0 0 1-.532.803q-.344.375-.863.604-.514.23-1.213.23m1.026-2.3q.537 0 .918-.302.38-.309.585-.864t.205-1.304q0-.76-.205-1.31-.2-.55-.585-.845a1.45 1.45 0 0 0-.918-.296q-.549 0-.93.302-.38.302-.579.851-.193.55-.193 1.298 0 .75.199 1.304.2.555.573.864.381.3.93.301m10.789 2.342q-1.461 0-2.511-.598a4.13 4.13 0 0 1-1.612-1.678q-.561-1.08-.561-2.505 0-1.431.561-2.506.568-1.08 1.612-1.678 1.05-.604 2.511-.604 1.46 0 2.506.604 1.05.598 1.612 1.678.567 1.075.567 2.506 0 1.424-.567 2.505a4.1 4.1 0 0 1-1.612 1.678q-1.045.598-2.506.598m.019-2.228q.531 0 .899-.326.369-.327.561-.905.2-.58.2-1.34 0-.773-.2-1.353-.192-.58-.561-.905a1.3 1.3 0 0 0-.899-.326q-.55 0-.93.326-.375.326-.574.905a4.3 4.3 0 0 0-.193 1.352q0 .762.193 1.34.2.58.574.906.38.326.93.326m9.13-3.236v5.289h-2.952v-9.273h2.808v1.702h.102a2.6 2.6 0 0 1 1.051-1.334q.742-.489 1.768-.489.978 0 1.697.44.724.435 1.123 1.22.404.78.398 1.823v5.91h-2.952v-5.33q.006-.773-.392-1.207-.393-.435-1.093-.435-.465 0-.821.205a1.35 1.35 0 0 0-.543.574q-.188.375-.194.905"/></g></g><rect width="263.858" height="37.858" x="1.071" y="1.071" stroke="#fff" stroke-opacity=".15" stroke-width="2.143" rx="6.929"/><defs><linearGradient id="b" x1="133.001" x2="133.001" y1="0" y2="40.001" gradientUnits="userSpaceOnUse"><stop stop-color="#1c1036"/><stop offset="1" stop-color="#0b0920"/></linearGradient><linearGradient id="d" x1="22.001" x2="22.001" y1="6" y2="34.002" gradientUnits="userSpaceOnUse"><stop stop-color="#6364ff"/><stop offset="1" stop-color="#563acc"/></linearGradient><linearGradient id="f" x1="215.501" x2="215.501" y1="9.501" y2="30.501" gradientUnits="userSpaceOnUse"><stop stop-color="#9393ff"/><stop offset="1" stop-color="#7a65d1"/></linearGradient><filter id="c" width="39.202" height="39.202" x="2.4" y=".4" color-interpolation-filters="sRGB" filterUnits="userSpaceOnUse"><feFlood flood-opacity="0" result="BackgroundImageFix"/><feColorMatrix in="SourceAlpha" result="hardAlpha" values="0 0 0 0 0 0 0 0 0 0 0 0 0 0 0 0 0 0 127 0"/><feOffset/><feGaussianBlur stdDeviation="2.8"/><feComposite in2="hardAlpha" operator="out"/><feColorMatrix values="0 0 0 0 0 0 0 0 0 0 0 0 0 0 0 0 0 0 0.25 0"/><feBlend in2="BackgroundImageFix" result="effect1_dropShadow_28_2892"/><feBlend in="SourceGraphic" in2="effect1_dropShadow_28_2892" result="shape"/></filter><filter id="e" width="227.429" height="32.429" x="36.287" y="3.786" color-interpolation-filters="sRGB" filterUnits="userSpaceOnUse"><feFlood flood-opacity="0" result="BackgroundImageFix"/><feColorMatrix in="SourceAlpha" result="hardAlpha" values="0 0 0 0 0 0 0 0 0 0 0 0 0 0 0 0 0 0 127 0"/><feOffset/><feGaussianBlur stdDeviation="2.857"/><feComposite in2="hardAlpha" operator="out"/><feColorMatrix values="0 0 0 0 0 0 0 0 0 0 0 0 0 0 0 0 0 0 0.25 0"/><feBlend in2="BackgroundImageFix" result="effect1_dropShadow_28_2892"/><feBlend in="SourceGraphic" in2="effect1_dropShadow_28_2892" result="shape"/></filter><clipPath id="a"><rect width="266.001" height="40.001" fill="#fff" rx="8"/></clipPath></defs></svg>