<svg xmlns="http://www.w3.org/2000/svg" width="236" height="40" fill="none" viewBox="0 0 236 40"><g clip-path="url(#a)"><rect width="236" height="40" fill="url(#b)" rx="8"/><g filter="url(#c)"><g fill="#fff" clip-path="url(#d)"><path d="M33.464 33.304V6.617h-1.923v-.64h2.67v28h-2.67v-.641zm-16.57-18.2v1.348h.039a3.9 3.9 0 0 1 1.308-1.199c.51-.283 1.098-.424 1.747-.424q.951 0 1.73.367.785.365 1.195 1.295a4.2 4.2 0 0 1 1.212-1.155c.509-.335 1.115-.502 1.808-.502q.796 0 1.467.193.677.194 1.16.618t.753 1.111q.27.684.27 1.654v6.676h-2.748v-5.652q0-.502-.038-.945a2 2 0 0 0-.213-.772c-.117-.22-.295-.4-.513-.521q-.337-.193-.922-.193-.579.001-.94.221a1.6 1.6 0 0 0-.56.58c-.14.25-.232.527-.27.81q-.07.456-.07.92v5.556h-2.748v-5.6q0-.445-.018-.875a2.5 2.5 0 0 0-.165-.802 1.23 1.23 0 0 0-.483-.588q-.339-.222-1.002-.222a2 2 0 0 0-.512.088 1.7 1.7 0 0 0-.62.327q-.3.241-.512.695t-.213 1.19v5.792h-2.748V15.12zm-6.405-8.459v26.687h1.923v.64h-2.67v-28h2.66v.641z"/></g></g><g filter="url(#e)"><path fill="#e8e8e8" d="M53.627 18.157h-1.883a2.88 2.88 0 0 0-1.13-1.841 3.1 3.1 0 0 0-.96-.483 3.8 3.8 0 0 0-1.116-.163q-1.068 0-1.914.537-.84.537-1.328 1.576-.483 1.038-.483 2.535 0 1.509.483 2.548.489 1.038 1.334 1.57a3.5 3.5 0 0 0 1.902.53q.585 0 1.11-.156a3.2 3.2 0 0 0 .96-.477 2.9 2.9 0 0 0 1.141-1.817l1.884.006a5 5 0 0 1-.586 1.678 4.6 4.6 0 0 1-1.104 1.316q-.67.55-1.534.851a5.7 5.7 0 0 1-1.883.302q-1.606 0-2.862-.76-1.256-.767-1.98-2.192-.718-1.425-.718-3.399 0-1.98.724-3.399.724-1.425 1.98-2.185 1.256-.767 2.856-.767.984 0 1.835.284a4.8 4.8 0 0 1 1.54.821q.681.537 1.128 1.316.447.773.604 1.769m3.892 2.837V26.5h-1.805V14.136h1.781v4.6h.115q.326-.748.996-1.189.67-.44 1.75-.44.955 0 1.667.392.72.393 1.11 1.171.4.773.4 1.932V26.5h-1.806v-5.68q0-1.02-.525-1.582-.525-.568-1.461-.568-.64 0-1.147.272a1.96 1.96 0 0 0-.79.797q-.285.519-.285 1.255m11.12 5.711a3.8 3.8 0 0 1-1.593-.326 2.7 2.7 0 0 1-1.13-.96q-.41-.627-.41-1.539 0-.785.302-1.292t.815-.803a4.3 4.3 0 0 1 1.147-.447q.634-.15 1.292-.229l1.352-.157q.52-.067.755-.211.235-.146.235-.471v-.042q0-.791-.446-1.226-.441-.434-1.316-.434-.912 0-1.437.404-.52.399-.719.887l-1.696-.386q.302-.845.881-1.364.586-.525 1.347-.761a5.3 5.3 0 0 1 1.6-.241q.555 0 1.177.132.628.127 1.17.471.55.345.9.984.35.634.35 1.648V26.5h-1.762v-1.268h-.073a2.6 2.6 0 0 1-.525.688 2.8 2.8 0 0 1-.9.562q-.549.223-1.315.223m.393-1.449q.748 0 1.28-.295.537-.296.815-.773.283-.483.283-1.032V21.96q-.096.097-.374.181a6 6 0 0 1-.622.14l-.682.102-.555.072q-.525.067-.96.224a1.65 1.65 0 0 0-.688.452q-.255.29-.254.773 0 .67.495 1.014.494.338 1.262.338m10.916-8.029v1.45h-5.065v-1.45zm-3.706-2.221h1.804v8.771q0 .525.157.791.157.26.405.356.253.09.55.09.216 0 .38-.03l.253-.048.326 1.492q-.157.06-.447.12a3.5 3.5 0 0 1-.724.073 3.2 3.2 0 0 1-1.328-.254 2.3 2.3 0 0 1-.996-.82q-.38-.556-.38-1.395zM88.454 26.5l-2.728-9.273h1.865l1.817 6.81h.09l1.824-6.81h1.865l1.811 6.78h.09l1.806-6.78h1.865L96.037 26.5h-1.842l-1.883-6.695h-.14L90.29 26.5zm12.018 0v-9.273h1.805V26.5zm.912-10.703q-.471 0-.809-.314a1.02 1.02 0 0 1-.332-.761q0-.447.332-.76.338-.32.809-.32.47 0 .803.32.338.313.338.76 0 .44-.338.76-.333.315-.803.315m7.65 1.43v1.45h-5.065v-1.45zm-3.707-2.221h1.805v8.771q0 .525.157.791.157.26.405.356.254.09.549.09.218 0 .381-.03l.253-.048.326 1.492q-.157.06-.447.12a3.5 3.5 0 0 1-.724.073 3.2 3.2 0 0 1-1.328-.254 2.27 2.27 0 0 1-.996-.82q-.381-.556-.381-1.395zm7.708 5.988V26.5h-1.805V14.136h1.781v4.6h.115q.326-.748.996-1.189.67-.44 1.75-.44.954 0 1.667.392a2.65 2.65 0 0 1 1.11 1.171q.399.773.399 1.932V26.5h-1.805v-5.68q0-1.02-.525-1.582-.526-.568-1.461-.568-.64 0-1.147.272a1.96 1.96 0 0 0-.791.797q-.284.519-.284 1.255m18.795 1.66v-5.427h1.811V26.5h-1.775v-1.606h-.097a2.9 2.9 0 0 1-1.026 1.238q-.7.489-1.745.489-.893 0-1.581-.393-.682-.398-1.075-1.177-.386-.779-.386-1.926v-5.898h1.805v5.681q0 .948.525 1.51.525.56 1.364.56.507 0 1.008-.253.507-.254.839-.767.339-.513.333-1.303m11.184-3.163-1.636.29a1.9 1.9 0 0 0-.326-.598 1.6 1.6 0 0 0-.591-.465q-.375-.18-.936-.18-.767 0-1.28.343-.513.339-.513.876 0 .465.344.748.345.284 1.111.465l1.473.338q1.28.295 1.908.912.627.615.628 1.6a2.43 2.43 0 0 1-.483 1.485q-.477.645-1.335 1.014-.85.368-1.974.368-1.557 0-2.541-.664-.984-.67-1.208-1.902l1.745-.265q.163.682.67 1.032.507.345 1.322.344.888 0 1.419-.368.531-.374.531-.912a.95.95 0 0 0-.326-.73q-.32-.296-.984-.447l-1.569-.344q-1.299-.295-1.92-.942-.616-.645-.616-1.636 0-.82.459-1.437.459-.615 1.268-.96.809-.35 1.853-.35 1.503 0 2.366.652.864.647 1.141 1.733m10.571 7.196q-1.304 0-2.276-.598a4.03 4.03 0 0 1-1.509-1.672q-.537-1.074-.537-2.511 0-1.443.537-2.523a4 4 0 0 1 1.509-1.679q.972-.598 2.276-.598t2.276.598a4 4 0 0 1 1.509 1.678q.538 1.08.538 2.524 0 1.437-.538 2.511a4.03 4.03 0 0 1-1.509 1.672q-.972.598-2.276.598m.006-1.515q.845 0 1.401-.447.555-.446.821-1.19.271-.742.271-1.635 0-.888-.271-1.63-.266-.75-.821-1.201-.556-.453-1.401-.453-.85 0-1.412.453-.556.452-.828 1.2a4.8 4.8 0 0 0-.265 1.63q0 .894.265 1.637.272.742.828 1.19.561.446 1.412.446m8.136-4.178V26.5h-1.805v-9.273h1.733v1.51h.115a2.65 2.65 0 0 1 1.002-1.184q.688-.447 1.732-.447.948 0 1.661.399.712.393 1.104 1.171.393.78.393 1.926V26.5h-1.805v-5.68q0-1.01-.526-1.576-.525-.574-1.442-.574-.628 0-1.117.272a1.95 1.95 0 0 0-.767.797q-.278.519-.278 1.255"/><path fill="#fff" d="M173.936 13.636h3.7l3.14 7.655h.144l3.14-7.655h3.7V26h-2.91v-7.594h-.102l-2.97 7.516h-1.86l-2.97-7.559h-.102V26h-2.91zm18.302 12.521q-.887 0-1.575-.296a2.46 2.46 0 0 1-1.081-.905q-.392-.61-.392-1.528 0-.773.271-1.304.272-.531.749-.863a3.5 3.5 0 0 1 1.098-.501 7 7 0 0 1 1.329-.236q.79-.072 1.273-.15.483-.085.701-.236a.51.51 0 0 0 .223-.44v-.03q0-.465-.32-.72-.32-.252-.863-.253-.586 0-.942.254a1.12 1.12 0 0 0-.453.7l-2.722-.096q.12-.846.621-1.51.508-.67 1.389-1.05.888-.386 2.131-.386.888 0 1.636.21.749.206 1.304.605.555.392.857.965.308.575.308 1.31V26h-2.777v-1.292h-.072q-.248.471-.634.797-.381.326-.9.489a3.8 3.8 0 0 1-1.159.163m.912-1.932q.477 0 .857-.193.387-.194.616-.531.23-.344.229-.797v-.882a1.7 1.7 0 0 1-.308.121 5 5 0 0 1-.386.103q-.212.048-.435.084l-.428.067a2.7 2.7 0 0 0-.713.205 1.1 1.1 0 0 0-.446.362.9.9 0 0 0-.151.52q0 .458.326.7.332.24.839.241m11.669-7.498v2.174h-5.85v-2.174zm-4.624-2.221h2.952v8.578q0 .272.084.44a.53.53 0 0 0 .26.236q.17.067.404.067.17 0 .357-.03.192-.038.289-.06l.447 2.13q-.212.06-.597.151-.381.09-.912.115-1.038.048-1.781-.242a2.3 2.3 0 0 1-1.129-.917q-.386-.622-.374-1.564zM206.325 26v-9.273h2.868v1.69h.096q.254-.917.828-1.364a2.1 2.1 0 0 1 1.334-.453q.205 0 .422.03.217.025.405.08v2.565a3 3 0 0 0-.556-.115 5 5 0 0 0-.603-.042q-.525 0-.948.235a1.7 1.7 0 0 0-.658.646 1.9 1.9 0 0 0-.236.966V26zm7.156 0v-9.273h2.952V26zm1.479-10.353q-.622 0-1.069-.41a1.32 1.32 0 0 1-.447-1.003q0-.579.447-.99a1.5 1.5 0 0 1 1.069-.417q.627 0 1.068.417.447.411.447.99 0 .585-.447 1.002a1.5 1.5 0 0 1-1.068.41m5.863 1.08 1.527 3.055 1.582-3.055h2.976l-2.59 4.637L227.005 26h-2.952l-1.703-3.079L220.69 26h-2.994l2.692-4.636-2.559-4.637z"/></g></g><rect width="233.9" height="37.9" x="1.05" y="1.05" stroke="#fff" stroke-opacity=".15" stroke-width="2.1" rx="6.95"/><defs><clipPath id="a"><rect width="236" height="40" fill="#fff" rx="8"/></clipPath><clipPath id="d"><path fill="#fff" d="M9.75 6h24.5v28H9.75z"/></clipPath><filter id="c" width="39.429" height="39.429" x="2.286" y=".286" color-interpolation-filters="sRGB" filterUnits="userSpaceOnUse"><feFlood flood-opacity="0" result="BackgroundImageFix"/><feColorMatrix in="SourceAlpha" result="hardAlpha" values="0 0 0 0 0 0 0 0 0 0 0 0 0 0 0 0 0 0 127 0"/><feOffset/><feGaussianBlur stdDeviation="2.857"/><feComposite in2="hardAlpha" operator="out"/><feColorMatrix values="0 0 0 0 0 0 0 0 0 0 0 0 0 0 0 0 0 0 0.25 0"/><feBlend in2="BackgroundImageFix" result="effect1_dropShadow_2_3265"/><feBlend in="SourceGraphic" in2="effect1_dropShadow_2_3265" result="shape"/></filter><filter id="e" width="197.2" height="32.2" x="36.4" y="3.9" color-interpolation-filters="sRGB" filterUnits="userSpaceOnUse"><feFlood flood-opacity="0" result="BackgroundImageFix"/><feColorMatrix in="SourceAlpha" result="hardAlpha" values="0 0 0 0 0 0 0 0 0 0 0 0 0 0 0 0 0 0 127 0"/><feOffset/><feGaussianBlur stdDeviation="2.8"/><feComposite in2="hardAlpha" operator="out"/><feColorMatrix values="0 0 0 0 0 0 0 0 0 0 0 0 0 0 0 0 0 0 0.25 0"/><feBlend in2="BackgroundImageFix" result="effect1_dropShadow_2_3265"/><feBlend in="SourceGraphic" in2="effect1_dropShadow_2_3265" result="shape"/></filter><linearGradient id="b" x1="118" x2="118" y1="0" y2="40" gradientUnits="userSpaceOnUse"><stop stop-color="#373737"/><stop offset="1" stop-color="#202020"/></linearGradient></defs></svg>