<svg xmlns="http://www.w3.org/2000/svg" width="240" height="40" fill="none" viewBox="0 0 240 40"><rect width="240.001" height="40.001" fill="url(#a)" rx="8"/><rect width="237.858" height="37.858" x="1.071" y="1.071" stroke="#fff" stroke-opacity=".15" stroke-width="2.143" rx="6.929"/><g filter="url(#b)"><path fill="#ff4654" d="M26.04 15.796c0 1.88-1.009 3.009-3.164 3.009H19.31v-5.95h3.568c2.154 0 3.164 1.162 3.164 2.94M10.1 8l3.454 4.866V32h5.756v-9.058h1.38L25.605 32H32.1l-5.453-9.505a6.87 6.87 0 0 0 3.828-2.531 7.06 7.06 0 0 0 1.422-4.409c0-4.171-2.895-7.556-8.684-7.556z"/></g><g filter="url(#c)"><path fill="#e8e8e8" d="M53.629 18.158h-1.884a2.88 2.88 0 0 0-1.129-1.842 3.1 3.1 0 0 0-.96-.483 3.8 3.8 0 0 0-1.117-.163q-1.068 0-1.913.538-.84.537-1.328 1.575-.483 1.04-.483 2.536 0 1.509.483 2.547.489 1.04 1.334 1.57a3.5 3.5 0 0 0 1.901.531q.586 0 1.111-.157a3.2 3.2 0 0 0 .96-.477q.429-.313.724-.766a2.9 2.9 0 0 0 .417-1.05l1.884.005a5 5 0 0 1-.586 1.679 4.6 4.6 0 0 1-1.105 1.316q-.67.55-1.533.85a5.7 5.7 0 0 1-1.884.303q-1.605 0-2.861-.76-1.256-.768-1.98-2.192-.72-1.425-.719-3.4 0-1.98.725-3.398.724-1.425 1.98-2.185 1.256-.767 2.855-.767.984 0 1.836.284a4.8 4.8 0 0 1 1.539.82q.682.538 1.129 1.317.447.773.604 1.769m3.892 2.837v5.506h-1.805V14.137h1.78v4.6h.115q.327-.748.997-1.19.67-.44 1.75-.44.954 0 1.667.393.718.392 1.11 1.17.399.774.399 1.933V26.5h-1.805v-5.68q0-1.02-.526-1.582-.525-.567-1.46-.567-.64 0-1.148.271a1.96 1.96 0 0 0-.79.797q-.284.52-.284 1.256m11.12 5.711a3.8 3.8 0 0 1-1.594-.326 2.7 2.7 0 0 1-1.129-.96q-.41-.628-.41-1.54 0-.784.302-1.291.3-.507.815-.803a4.3 4.3 0 0 1 1.147-.447q.633-.15 1.291-.23l1.353-.156q.519-.066.754-.212.236-.144.236-.47v-.043q0-.79-.447-1.225-.44-.435-1.316-.435-.912 0-1.437.405-.519.398-.718.887l-1.697-.386q.303-.845.882-1.365.585-.525 1.346-.76a5.3 5.3 0 0 1 1.6-.242q.556 0 1.177.133.629.128 1.171.47.55.345.9.985.35.634.35 1.648v6.158h-1.763v-1.268h-.072a2.6 2.6 0 0 1-.526.688 2.8 2.8 0 0 1-.899.562q-.55.222-1.316.223m.392-1.449q.75 0 1.28-.296.537-.295.815-.772.284-.483.284-1.033v-1.195q-.098.097-.374.181a6 6 0 0 1-.622.139l-.682.103-.556.072q-.525.066-.96.223a1.65 1.65 0 0 0-.688.453q-.253.289-.253.773 0 .67.495 1.014.495.338 1.261.338m10.917-8.029v1.449h-5.065v-1.449zm-3.707-2.222h1.805v8.772q0 .526.157.79a.82.82 0 0 0 .404.357q.255.09.55.09.217 0 .38-.03l.254-.048.326 1.491q-.158.06-.447.121a3.5 3.5 0 0 1-.724.072 3.2 3.2 0 0 1-1.329-.253 2.3 2.3 0 0 1-.996-.821q-.38-.555-.38-1.395zm12.213 11.495-2.73-9.273h1.866l1.817 6.81h.091l1.823-6.81h1.866l1.81 6.78h.091l1.805-6.78h1.866l-2.723 9.273h-1.841l-1.884-6.695h-.139L90.291 26.5zm12.018 0v-9.273h1.805v9.273zm.911-10.704q-.47 0-.809-.314a1.02 1.02 0 0 1-.332-.76q0-.447.332-.761.338-.32.809-.32t.803.32q.338.315.338.76 0 .441-.338.761-.332.315-.803.314m7.651 1.431v1.449h-5.065v-1.449zm-3.707-2.222h1.805v8.772q0 .526.157.79a.82.82 0 0 0 .404.357q.253.09.55.09.217 0 .38-.03l.254-.048.326 1.491q-.158.06-.447.121a3.5 3.5 0 0 1-.725.072 3.2 3.2 0 0 1-1.328-.253 2.3 2.3 0 0 1-.996-.821q-.38-.555-.38-1.395zm7.708 5.989v5.506h-1.806V14.137h1.781v4.6h.115q.326-.748.996-1.19.67-.44 1.751-.44.954 0 1.666.393.718.392 1.111 1.17.398.774.398 1.933V26.5h-1.805v-5.68q0-1.02-.525-1.582-.525-.567-1.461-.567-.64 0-1.147.271a1.96 1.96 0 0 0-.791.797q-.283.52-.283 1.256m12.92 5.506v-9.273h1.733v1.51h.114q.29-.768.948-1.196.658-.435 1.576-.435.93 0 1.557.435.635.435.936 1.195h.097q.332-.743 1.056-1.183.725-.447 1.727-.447 1.261 0 2.058.791.803.79.803 2.385V26.5h-1.805v-6.05q0-.94-.513-1.364a1.87 1.87 0 0 0-1.226-.422q-.88 0-1.37.543-.489.538-.489 1.383v5.91h-1.799v-6.164q0-.755-.471-1.213-.47-.46-1.225-.46-.513 0-.948.272a2 2 0 0 0-.694.743q-.26.477-.26 1.105V26.5zm19.021.187q-1.37 0-2.361-.586a3.97 3.97 0 0 1-1.521-1.66q-.531-1.074-.531-2.517 0-1.425.531-2.512.537-1.087 1.497-1.696.966-.61 2.258-.61.785 0 1.521.26.736.259 1.323.815.585.555.923 1.443.338.881.338 2.143v.64h-7.371v-1.353h5.602q0-.712-.289-1.261a2.2 2.2 0 0 0-.815-.876q-.52-.32-1.22-.32-.76 0-1.328.375a2.5 2.5 0 0 0-.869.966 2.8 2.8 0 0 0-.302 1.285v1.057q0 .93.326 1.582.332.651.924.996.591.338 1.382.338.513 0 .936-.145.422-.15.73-.447.308-.295.471-.73l1.709.308a3.1 3.1 0 0 1-.737 1.322 3.6 3.6 0 0 1-1.322.875q-.79.308-1.805.308m14.386 0q-1.304 0-2.276-.598a4.03 4.03 0 0 1-1.509-1.672q-.538-1.074-.538-2.511 0-1.443.538-2.524a4 4 0 0 1 1.509-1.678q.972-.597 2.276-.598 1.304 0 2.276.598a4 4 0 0 1 1.509 1.678q.537 1.08.537 2.524 0 1.436-.537 2.511a4.03 4.03 0 0 1-1.509 1.672q-.972.598-2.276.598m.006-1.515q.844 0 1.401-.447.555-.447.821-1.19.271-.742.271-1.635 0-.888-.271-1.63-.266-.75-.821-1.202-.556-.453-1.401-.453-.851 0-1.413.453-.555.453-.827 1.202a4.8 4.8 0 0 0-.265 1.63q0 .892.265 1.636.272.742.827 1.189.562.447 1.413.447m8.136-4.178v5.506h-1.805v-9.273h1.733v1.51h.114a2.66 2.66 0 0 1 1.003-1.184q.688-.447 1.732-.447.948 0 1.66.399.713.392 1.105 1.17.393.78.393 1.927V26.5h-1.806v-5.68q0-1.008-.525-1.576-.525-.573-1.443-.573-.627 0-1.116.271a1.95 1.95 0 0 0-.767.797q-.278.52-.278 1.256"/><path fill="#ff4654" d="M179.937 26.5V14.138h5.107q1.389 0 2.397.501 1.014.495 1.564 1.425.549.924.549 2.191 0 1.286-.561 2.186-.562.893-1.594 1.364-1.032.465-2.445.465h-3.23v-2.355h2.674q.677 0 1.129-.175a1.42 1.42 0 0 0 .695-.543q.235-.368.235-.942 0-.573-.235-.948a1.4 1.4 0 0 0-.695-.567q-.458-.193-1.129-.193h-1.473V26.5zm6.961-5.65 3.079 5.65h-3.26l-3.019-5.65zm8.447 5.826q-1.455 0-2.511-.574a3.96 3.96 0 0 1-1.618-1.648q-.562-1.074-.562-2.553 0-1.437.568-2.512.567-1.08 1.6-1.678 1.032-.603 2.432-.604.99 0 1.811.308.822.308 1.419.912t.93 1.49q.332.882.332 2.023v.737h-8.059v-1.715h5.312a1.66 1.66 0 0 0-.223-.839 1.5 1.5 0 0 0-.598-.573 1.7 1.7 0 0 0-.863-.212q-.495 0-.888.224a1.68 1.68 0 0 0-.863 1.449v1.744q0 .567.223.996.224.423.634.658t.978.236q.392 0 .713-.109.32-.108.549-.32.23-.21.344-.52l2.711.08a3.36 3.36 0 0 1-.743 1.587q-.567.67-1.491 1.044-.924.369-2.137.369M210 17.228l-3.182 9.273h-3.381l-3.175-9.273h3.109l1.708 6.387h.097l1.715-6.387zm5.161 9.448q-1.461 0-2.511-.598a4.1 4.1 0 0 1-1.612-1.678q-.561-1.08-.561-2.505 0-1.431.561-2.506.568-1.08 1.612-1.678 1.05-.603 2.511-.604 1.461 0 2.505.604a4 4 0 0 1 1.612 1.678q.568 1.075.568 2.506 0 1.424-.568 2.505a4.07 4.07 0 0 1-1.612 1.678q-1.044.598-2.505.598m.018-2.228q.531 0 .9-.326.368-.326.561-.905.2-.58.199-1.34 0-.773-.199-1.353-.193-.58-.561-.905a1.3 1.3 0 0 0-.9-.326q-.55 0-.929.326-.375.326-.574.905-.193.58-.193 1.352 0 .762.193 1.34.2.58.574.906.38.326.929.326m9.131-10.31V26.5h-2.952V14.137zm7.113 3.09v2.173h-5.85v-2.173zm-4.624-2.222h2.952v8.579q0 .272.084.44a.53.53 0 0 0 .26.236q.17.066.404.066.17 0 .357-.03.192-.036.289-.06l.447 2.13q-.211.061-.597.152-.381.09-.912.115-1.038.048-1.781-.242a2.3 2.3 0 0 1-1.129-.918q-.386-.621-.374-1.563z"/></g><defs><filter id="b" width="39.202" height="39.202" x="2.4" y=".4" color-interpolation-filters="sRGB" filterUnits="userSpaceOnUse"><feFlood flood-opacity="0" result="BackgroundImageFix"/><feColorMatrix in="SourceAlpha" result="hardAlpha" values="0 0 0 0 0 0 0 0 0 0 0 0 0 0 0 0 0 0 127 0"/><feOffset/><feGaussianBlur stdDeviation="2.8"/><feComposite in2="hardAlpha" operator="out"/><feColorMatrix values="0 0 0 0 0 0 0 0 0 0 0 0 0 0 0 0 0 0 0.25 0"/><feBlend in2="BackgroundImageFix" result="effect1_dropShadow_28_2796"/><feBlend in="SourceGraphic" in2="effect1_dropShadow_28_2796" result="shape"/></filter><filter id="c" width="201.429" height="32.429" x="36.287" y="3.786" color-interpolation-filters="sRGB" filterUnits="userSpaceOnUse"><feFlood flood-opacity="0" result="BackgroundImageFix"/><feColorMatrix in="SourceAlpha" result="hardAlpha" values="0 0 0 0 0 0 0 0 0 0 0 0 0 0 0 0 0 0 127 0"/><feOffset/><feGaussianBlur stdDeviation="2.857"/><feComposite in2="hardAlpha" operator="out"/><feColorMatrix values="0 0 0 0 0 0 0 0 0 0 0 0 0 0 0 0 0 0 0.25 0"/><feBlend in2="BackgroundImageFix" result="effect1_dropShadow_28_2796"/><feBlend in="SourceGraphic" in2="effect1_dropShadow_28_2796" result="shape"/></filter><linearGradient id="a" x1="120.001" x2="120.001" y1="0" y2="40.001" gradientUnits="userSpaceOnUse"><stop stop-color="#301515"/><stop offset="1" stop-color="#1e0d0d"/></linearGradient></defs></svg>