<svg xmlns="http://www.w3.org/2000/svg" width="248" height="40" fill="none" viewBox="0 0 248 40"><rect width="248.001" height="40.001" fill="url(#a)" rx="8"/><rect width="245.858" height="37.858" x="1.071" y="1.071" stroke="#fff" stroke-opacity=".15" stroke-width="2.143" rx="6.929"/><g filter="url(#b)"><path fill="#1d9bf0" d="M33.135 14.226c.017.25.017.5.017.751 0 7.674-5.78 16.524-16.346 16.524v-.004c-3.122.004-6.178-.9-8.806-2.604q.681.082 1.367.084c2.587.002 5.1-.875 7.135-2.49-2.458-.048-4.614-1.668-5.367-4.034a5.7 5.7 0 0 0 2.594-.1c-2.68-.547-4.608-2.928-4.608-5.692v-.074c.798.45 1.692.7 2.607.727-2.524-1.706-3.303-5.1-1.778-7.754a16.25 16.25 0 0 0 11.84 6.067 5.85 5.85 0 0 1 1.662-5.549 5.707 5.707 0 0 1 8.128.252 11.5 11.5 0 0 0 3.648-1.41 5.82 5.82 0 0 1-2.526 3.212 11.3 11.3 0 0 0 3.3-.914 11.7 11.7 0 0 1-2.867 3.008"/></g><g filter="url(#c)"><path fill="#e8e8e8" d="M53.629 18.158h-1.884a2.88 2.88 0 0 0-1.129-1.842 3.1 3.1 0 0 0-.96-.482 3.8 3.8 0 0 0-1.117-.163q-1.068 0-1.913.537-.84.537-1.328 1.575-.483 1.04-.483 2.536 0 1.509.483 2.547.489 1.04 1.334 1.57a3.5 3.5 0 0 0 1.901.531q.586 0 1.111-.157.531-.162.96-.476.429-.315.724-.767a2.9 2.9 0 0 0 .417-1.05l1.884.005a5 5 0 0 1-.586 1.679 4.6 4.6 0 0 1-1.105 1.316q-.67.55-1.533.85a5.7 5.7 0 0 1-1.884.303q-1.605 0-2.861-.76-1.256-.768-1.98-2.192-.72-1.425-.719-3.4 0-1.98.725-3.398.724-1.425 1.98-2.185 1.256-.767 2.855-.767.984 0 1.836.284a4.8 4.8 0 0 1 1.539.82q.682.538 1.129 1.317.447.773.604 1.769m3.892 2.837v5.506h-1.805V14.137h1.78v4.6h.115q.327-.748.997-1.189.67-.44 1.75-.44.954 0 1.667.392.718.392 1.11 1.17.399.774.399 1.933V26.5h-1.805v-5.68q0-1.02-.526-1.582-.525-.567-1.46-.567-.64 0-1.148.271a1.96 1.96 0 0 0-.79.797q-.284.52-.284 1.256m11.12 5.711a3.8 3.8 0 0 1-1.594-.326 2.7 2.7 0 0 1-1.129-.96q-.41-.627-.41-1.54 0-.784.302-1.291.3-.507.815-.803a4.3 4.3 0 0 1 1.147-.447q.633-.15 1.291-.23l1.353-.156q.519-.066.754-.212.236-.144.236-.47v-.043q0-.79-.447-1.225-.44-.435-1.316-.435-.912 0-1.437.405-.519.398-.718.887l-1.697-.386q.303-.845.882-1.365.585-.525 1.346-.76a5.3 5.3 0 0 1 1.6-.242q.556 0 1.177.133.629.128 1.171.471.55.344.9.984.35.634.35 1.648v6.158h-1.763v-1.268h-.072a2.6 2.6 0 0 1-.526.688 2.8 2.8 0 0 1-.899.562q-.55.222-1.316.223m.392-1.449q.75 0 1.28-.296.537-.295.815-.772.284-.483.284-1.033v-1.195q-.098.096-.374.181a6 6 0 0 1-.622.139l-.682.103-.556.072q-.525.066-.96.223a1.65 1.65 0 0 0-.688.453q-.253.289-.253.773 0 .67.495 1.014.495.338 1.261.338m10.917-8.029v1.449h-5.065v-1.449zm-3.707-2.222h1.805v8.772q0 .526.157.79a.82.82 0 0 0 .404.357q.255.09.55.09.217 0 .38-.03l.254-.048.326 1.491q-.158.06-.447.121a3.5 3.5 0 0 1-.724.073 3.2 3.2 0 0 1-1.329-.254 2.3 2.3 0 0 1-.996-.821q-.38-.555-.38-1.395zm12.213 11.495-2.73-9.273h1.866l1.817 6.81h.091l1.823-6.81h1.866l1.81 6.78h.091l1.805-6.78h1.866l-2.723 9.273h-1.841l-1.884-6.695h-.139L90.291 26.5zm12.018 0v-9.273h1.805v9.273zm.911-10.704q-.47 0-.809-.314a1.02 1.02 0 0 1-.332-.76q0-.447.332-.761.338-.32.809-.32t.803.32q.338.315.338.76 0 .442-.338.761-.332.315-.803.314m7.651 1.431v1.449h-5.065v-1.449zm-3.707-2.222h1.805v8.772q0 .526.157.79a.82.82 0 0 0 .404.357q.253.09.55.09.217 0 .38-.03l.254-.048.326 1.491a3 3 0 0 1-.447.121 3.5 3.5 0 0 1-.725.073 3.2 3.2 0 0 1-1.328-.254 2.3 2.3 0 0 1-.996-.821q-.38-.555-.38-1.395zm7.708 5.989v5.506h-1.806V14.137h1.781v4.6h.115q.326-.748.996-1.189.67-.44 1.751-.44.954 0 1.666.392.718.392 1.111 1.17.398.774.398 1.933V26.5h-1.805v-5.68q0-1.02-.525-1.582-.525-.567-1.461-.567-.64 0-1.147.271a1.96 1.96 0 0 0-.791.797q-.283.52-.283 1.256m12.92 5.506v-9.273h1.733v1.51h.114q.29-.768.948-1.196.658-.435 1.576-.435.93 0 1.557.435.635.435.936 1.195h.097q.332-.743 1.056-1.183.725-.447 1.727-.447 1.261 0 2.058.791.803.79.803 2.385V26.5h-1.805v-6.05q0-.94-.513-1.364a1.87 1.87 0 0 0-1.226-.422q-.88 0-1.37.543-.489.538-.489 1.383v5.91h-1.799v-6.164q0-.754-.471-1.213-.47-.46-1.225-.46-.513 0-.948.272a2 2 0 0 0-.694.743q-.26.477-.26 1.105V26.5zm19.021.187q-1.37 0-2.361-.586a3.97 3.97 0 0 1-1.521-1.66q-.531-1.074-.531-2.517 0-1.425.531-2.512.537-1.087 1.497-1.696.966-.61 2.258-.61.785 0 1.521.26t1.323.815q.585.555.923 1.443.338.881.338 2.143v.64h-7.371v-1.353h5.602q0-.712-.289-1.261a2.2 2.2 0 0 0-.815-.876q-.52-.32-1.22-.32-.76 0-1.328.375a2.5 2.5 0 0 0-.869.966 2.8 2.8 0 0 0-.302 1.285v1.057q0 .93.326 1.582.332.651.924.996.591.338 1.382.338.513 0 .936-.145.422-.15.73-.447.308-.295.471-.73l1.709.308a3.1 3.1 0 0 1-.737 1.322 3.6 3.6 0 0 1-1.322.875q-.79.308-1.805.308m14.386 0q-1.304 0-2.276-.598a4.03 4.03 0 0 1-1.509-1.672q-.538-1.074-.538-2.511 0-1.443.538-2.524a4 4 0 0 1 1.509-1.678q.972-.597 2.276-.598 1.304 0 2.276.598a4 4 0 0 1 1.509 1.678q.537 1.08.537 2.524 0 1.436-.537 2.511a4.03 4.03 0 0 1-1.509 1.672q-.972.598-2.276.598m.006-1.515q.844 0 1.401-.447.555-.446.821-1.19.271-.742.271-1.635 0-.888-.271-1.63-.266-.75-.821-1.202-.556-.453-1.401-.453-.851 0-1.413.453-.555.453-.827 1.202a4.8 4.8 0 0 0-.265 1.63q0 .892.265 1.636.272.742.827 1.189.562.447 1.413.447m8.136-4.178v5.506h-1.805v-9.273h1.733v1.51h.114a2.66 2.66 0 0 1 1.003-1.184q.688-.447 1.732-.447.948 0 1.66.399.713.392 1.105 1.17.393.78.393 1.927V26.5h-1.806v-5.68q0-1.008-.525-1.576-.525-.573-1.443-.573-.627 0-1.116.271a1.95 1.95 0 0 0-.767.797q-.278.52-.278 1.256"/><path fill="#1d9bf0" d="M179.533 16.564v-2.427h10.45v2.427h-3.749V26.5h-2.946v-9.937zm12.579 9.937-2.415-9.273h2.965l1.249 5.94h.079l1.34-5.94h2.892l1.376 5.898h.078l1.214-5.898h2.964l-2.421 9.273h-3.157l-1.449-5.403h-.103l-1.448 5.403zm12.927 0v-9.273h2.952v9.273zm1.479-10.354q-.622 0-1.069-.41a1.32 1.32 0 0 1-.446-1.002q0-.58.446-.99a1.5 1.5 0 0 1 1.069-.417q.628 0 1.068.417.447.41.447.99 0 .585-.447 1.002a1.5 1.5 0 0 1-1.068.41m8.586 1.081v2.173h-5.85v-2.173zm-4.624-2.222h2.952v8.579q0 .272.084.44.09.165.26.236a1.1 1.1 0 0 0 .404.066q.17 0 .356-.03.194-.036.29-.06l.447 2.13q-.211.061-.598.152-.38.09-.911.115-1.039.048-1.781-.242a2.3 2.3 0 0 1-1.129-.918q-.387-.621-.374-1.563zm11.364 2.222v2.173h-5.85v-2.173zm-4.624-2.222h2.952v8.579q0 .272.084.44a.53.53 0 0 0 .26.236q.169.066.404.066.17 0 .357-.03.192-.036.289-.06l.447 2.13q-.211.061-.598.152-.38.09-.911.115-1.038.048-1.781-.242a2.3 2.3 0 0 1-1.129-.918q-.387-.621-.374-1.563zm10.365 11.67q-1.455 0-2.511-.574a3.97 3.97 0 0 1-1.618-1.648q-.562-1.074-.562-2.553 0-1.437.568-2.512.567-1.08 1.6-1.678 1.032-.604 2.433-.604.99 0 1.811.308a3.9 3.9 0 0 1 1.418.912q.599.604.93 1.49.332.883.332 2.023v.737h-8.059v-1.715h5.312a1.66 1.66 0 0 0-.223-.839 1.5 1.5 0 0 0-.598-.573 1.7 1.7 0 0 0-.863-.212q-.495 0-.887.224a1.68 1.68 0 0 0-.864 1.449v1.744q0 .567.224.996.223.423.634.658.41.236.978.236.392 0 .712-.109.32-.108.549-.32.23-.21.344-.519l2.711.078a3.35 3.35 0 0 1-.743 1.588q-.567.67-1.491 1.044-.924.369-2.137.369m5.909-.175v-9.273h2.867v1.69h.097q.254-.917.827-1.364a2.1 2.1 0 0 1 1.334-.453q.206 0 .423.03a2.4 2.4 0 0 1 .404.079v2.566a3 3 0 0 0-.555-.115 5 5 0 0 0-.604-.042q-.525 0-.948.235a1.7 1.7 0 0 0-.658.646 1.9 1.9 0 0 0-.235.966V26.5z"/></g><defs><filter id="b" width="39.202" height="39.202" x="2.4" y=".4" color-interpolation-filters="sRGB" filterUnits="userSpaceOnUse"><feFlood flood-opacity="0" result="BackgroundImageFix"/><feColorMatrix in="SourceAlpha" result="hardAlpha" values="0 0 0 0 0 0 0 0 0 0 0 0 0 0 0 0 0 0 127 0"/><feOffset/><feGaussianBlur stdDeviation="2.8"/><feComposite in2="hardAlpha" operator="out"/><feColorMatrix values="0 0 0 0 0 0 0 0 0 0 0 0 0 0 0 0 0 0 0.25 0"/><feBlend in2="BackgroundImageFix" result="effect1_dropShadow_28_2915"/><feBlend in="SourceGraphic" in2="effect1_dropShadow_28_2915" result="shape"/></filter><filter id="c" width="209.429" height="32.429" x="36.287" y="3.786" color-interpolation-filters="sRGB" filterUnits="userSpaceOnUse"><feFlood flood-opacity="0" result="BackgroundImageFix"/><feColorMatrix in="SourceAlpha" result="hardAlpha" values="0 0 0 0 0 0 0 0 0 0 0 0 0 0 0 0 0 0 127 0"/><feOffset/><feGaussianBlur stdDeviation="2.857"/><feComposite in2="hardAlpha" operator="out"/><feColorMatrix values="0 0 0 0 0 0 0 0 0 0 0 0 0 0 0 0 0 0 0.25 0"/><feBlend in2="BackgroundImageFix" result="effect1_dropShadow_28_2915"/><feBlend in="SourceGraphic" in2="effect1_dropShadow_28_2915" result="shape"/></filter><linearGradient id="a" x1="124.001" x2="124.001" y1="0" y2="40.001" gradientUnits="userSpaceOnUse"><stop stop-color="#051f30"/><stop offset="1" stop-color="#031420"/></linearGradient></defs></svg>