<svg xmlns="http://www.w3.org/2000/svg" width="218" height="40" fill="none" viewBox="0 0 218 40"><g clip-path="url(#a)"><rect width="218.001" height="40.001" fill="url(#b)" rx="8"/><g filter="url(#c)"><path fill="#7755ac" d="M10.324 6 8.5 10.864V30.32h6.685v3.65h3.65l3.646-3.65h5.47l7.297-7.293V6zm2.43 2.43h20.062v13.377l-4.256 4.257h-6.686l-3.645 3.645v-3.645h-5.475zm6.688 12.163h2.432v-7.296h-2.432zm6.686 0h2.432v-7.296h-2.431z"/></g><g filter="url(#d)"><path fill="#e8e8e8" d="m45.78 26.5-3.428-12.363h1.962l2.408 9.575h.115l2.505-9.575h1.944l2.506 9.58h.114l2.403-9.58h1.968l-3.435 12.364h-1.877l-2.602-9.261h-.097l-2.602 9.26zm15.838.206a3.8 3.8 0 0 1-1.593-.326 2.7 2.7 0 0 1-1.13-.96q-.41-.628-.41-1.54 0-.784.302-1.291t.815-.803a4.3 4.3 0 0 1 1.147-.447q.634-.15 1.292-.23l1.352-.156q.52-.066.755-.212.235-.144.235-.47v-.043q0-.79-.446-1.225-.441-.435-1.316-.435-.912 0-1.437.405-.52.398-.719.887l-1.696-.386q.302-.845.881-1.365.586-.525 1.347-.76a5.3 5.3 0 0 1 1.6-.242q.555 0 1.177.133.628.128 1.17.47.55.345.9.985.35.634.35 1.648v6.158h-1.762v-1.268h-.073a2.6 2.6 0 0 1-.525.688 2.8 2.8 0 0 1-.9.562q-.549.222-1.315.223m.393-1.449q.748 0 1.28-.296.537-.295.815-.772.283-.483.283-1.033v-1.195q-.096.097-.374.181a6 6 0 0 1-.622.139l-.682.103-.555.072q-.525.066-.96.223a1.65 1.65 0 0 0-.688.453q-.255.289-.254.773 0 .67.495 1.014.494.338 1.262.338m10.916-8.029v1.449h-5.065v-1.449zm-3.707-2.222h1.805v8.772q0 .526.157.79.157.261.405.357.253.09.55.09.216 0 .38-.03l.253-.048.326 1.491q-.157.06-.447.121a3.5 3.5 0 0 1-.724.072 3.2 3.2 0 0 1-1.328-.253 2.3 2.3 0 0 1-.996-.821q-.38-.555-.38-1.395zm9.51 11.682q-1.346 0-2.318-.61a4.04 4.04 0 0 1-1.485-1.696q-.52-1.08-.52-2.475 0-1.413.532-2.494a4.07 4.07 0 0 1 1.497-1.696q.966-.61 2.276-.61 1.056 0 1.884.393.826.386 1.334 1.086.513.701.61 1.636h-1.757a2.1 2.1 0 0 0-.664-1.123q-.514-.47-1.377-.47-.755 0-1.322.398-.561.393-.875 1.123-.314.724-.314 1.714 0 1.015.308 1.751t.87 1.141q.566.405 1.333.404.513 0 .93-.187.423-.193.706-.549.29-.357.405-.857h1.756q-.097.9-.585 1.606a3.37 3.37 0 0 1-1.31 1.11q-.815.405-1.914.405m7.545-5.693v5.506H84.47V14.137h1.78v4.6h.115q.327-.748.996-1.19.67-.44 1.751-.44.954 0 1.666.393.72.392 1.111 1.17.399.774.399 1.933V26.5h-1.805v-5.68q0-1.02-.526-1.582-.525-.567-1.46-.567-.64 0-1.148.271a1.96 1.96 0 0 0-.79.797q-.284.52-.284 1.256m12.92 5.506v-9.273h1.733v1.51h.115q.29-.768.947-1.196.658-.435 1.576-.435.93 0 1.558.435.633.435.935 1.195h.097q.332-.743 1.056-1.183.725-.447 1.727-.447 1.261 0 2.059.791.802.79.802 2.385V26.5h-1.805v-6.05q0-.94-.513-1.364a1.87 1.87 0 0 0-1.225-.422q-.882 0-1.371.543-.489.538-.489 1.383v5.91h-1.799v-6.164q0-.755-.47-1.213-.471-.46-1.226-.46-.513 0-.948.272a2 2 0 0 0-.694.743q-.26.477-.26 1.105V26.5zm19.021.187q-1.37 0-2.36-.586a4 4 0 0 1-1.522-1.66q-.531-1.074-.531-2.517 0-1.425.531-2.512.538-1.087 1.498-1.696.966-.61 2.257-.61.786 0 1.522.26a3.7 3.7 0 0 1 1.322.815q.585.555.923 1.443.339.881.339 2.143v.64h-7.372v-1.353h5.603q0-.712-.29-1.261a2.2 2.2 0 0 0-.815-.876q-.52-.32-1.22-.32-.76 0-1.328.375a2.5 2.5 0 0 0-.869.966 2.8 2.8 0 0 0-.302 1.285v1.057q0 .93.326 1.582.332.651.924.996.591.338 1.382.338.513 0 .936-.145.422-.15.731-.447.308-.295.47-.73l1.709.308a3.1 3.1 0 0 1-.737 1.322 3.6 3.6 0 0 1-1.322.875q-.79.308-1.805.308m14.386 0q-1.304 0-2.276-.598a4.03 4.03 0 0 1-1.509-1.672q-.537-1.074-.537-2.511 0-1.443.537-2.524a4 4 0 0 1 1.509-1.678q.972-.597 2.276-.598 1.304 0 2.276.598a4 4 0 0 1 1.509 1.678q.538 1.08.538 2.524 0 1.436-.538 2.511a4.03 4.03 0 0 1-1.509 1.672q-.971.598-2.276.598m.006-1.515q.846 0 1.401-.447t.821-1.19q.271-.742.271-1.635 0-.888-.271-1.63-.266-.75-.821-1.202-.555-.453-1.401-.453-.85 0-1.412.453-.556.453-.827 1.202a4.8 4.8 0 0 0-.266 1.63q0 .892.266 1.636.271.742.827 1.189.561.447 1.412.447m8.137-4.178v5.506h-1.806v-9.273h1.733v1.51h.115a2.65 2.65 0 0 1 1.002-1.184q.688-.447 1.732-.447.948 0 1.661.399a2.66 2.66 0 0 1 1.104 1.17q.393.78.393 1.927V26.5h-1.805v-5.68q0-1.008-.525-1.576-.526-.573-1.443-.573-.628 0-1.117.271a1.95 1.95 0 0 0-.767.797q-.277.52-.277 1.256"/><path fill="#7755ac" d="M152.533 16.564v-2.427h10.45v2.427h-3.749V26.5h-2.946v-9.937zm12.579 9.937-2.415-9.273h2.965l1.249 5.94h.079l1.34-5.94h2.892l1.376 5.898h.078l1.214-5.898h2.964l-2.421 9.273h-3.157l-1.449-5.403h-.103l-1.448 5.403zm12.927 0v-9.273h2.952v9.273zm1.479-10.354q-.622 0-1.069-.41a1.32 1.32 0 0 1-.446-1.002q0-.58.446-.99a1.5 1.5 0 0 1 1.069-.417q.628 0 1.068.417.447.41.447.99 0 .585-.447 1.002a1.5 1.5 0 0 1-1.068.41m8.586 1.081v2.173h-5.85v-2.173zm-4.624-2.222h2.952v8.579q0 .272.084.44.09.165.26.236a1.1 1.1 0 0 0 .404.066q.17 0 .356-.03.194-.036.29-.06l.447 2.13q-.211.061-.598.152-.38.09-.911.115-1.039.048-1.781-.242a2.3 2.3 0 0 1-1.129-.918q-.387-.621-.374-1.563zm10.359 11.67q-1.467 0-2.518-.604a4.1 4.1 0 0 1-1.605-1.678q-.562-1.08-.562-2.5 0-1.424.562-2.499a4.1 4.1 0 0 1 1.612-1.684q1.05-.603 2.505-.604 1.286 0 2.24.465.96.465 1.497 1.316.543.846.573 1.986h-2.759q-.084-.712-.483-1.117-.392-.404-1.026-.404-.513 0-.899.29-.387.283-.604.845-.211.555-.211 1.376t.211 1.389q.217.561.604.851.386.285.899.284.41 0 .725-.175.32-.175.525-.513.205-.345.259-.834h2.759q-.042 1.147-.573 2.005a3.55 3.55 0 0 1-1.479 1.334q-.948.47-2.252.47m8.767-5.464V26.5h-2.952V14.137h2.855v4.793h.103a2.7 2.7 0 0 1 1.026-1.34q.719-.483 1.757-.483.978 0 1.703.435a2.9 2.9 0 0 1 1.122 1.213q.405.786.399 1.835v5.91h-2.952v-5.33q.006-.773-.387-1.207-.391-.435-1.104-.435-.465 0-.821.205a1.4 1.4 0 0 0-.55.574q-.193.375-.199.905"/></g></g><rect width="215.858" height="37.858" x="1.071" y="1.071" stroke="#fff" stroke-opacity=".15" stroke-width="2.143" rx="6.929"/><defs><filter id="c" width="39.202" height="39.202" x="2.4" y=".4" color-interpolation-filters="sRGB" filterUnits="userSpaceOnUse"><feFlood flood-opacity="0" result="BackgroundImageFix"/><feColorMatrix in="SourceAlpha" result="hardAlpha" values="0 0 0 0 0 0 0 0 0 0 0 0 0 0 0 0 0 0 127 0"/><feOffset/><feGaussianBlur stdDeviation="2.8"/><feComposite in2="hardAlpha" operator="out"/><feColorMatrix values="0 0 0 0 0 0 0 0 0 0 0 0 0 0 0 0 0 0 0.25 0"/><feBlend in2="BackgroundImageFix" result="effect1_dropShadow_28_2771"/><feBlend in="SourceGraphic" in2="effect1_dropShadow_28_2771" result="shape"/></filter><filter id="d" width="179.429" height="32.429" x="36.287" y="3.786" color-interpolation-filters="sRGB" filterUnits="userSpaceOnUse"><feFlood flood-opacity="0" result="BackgroundImageFix"/><feColorMatrix in="SourceAlpha" result="hardAlpha" values="0 0 0 0 0 0 0 0 0 0 0 0 0 0 0 0 0 0 127 0"/><feOffset/><feGaussianBlur stdDeviation="2.857"/><feComposite in2="hardAlpha" operator="out"/><feColorMatrix values="0 0 0 0 0 0 0 0 0 0 0 0 0 0 0 0 0 0 0.25 0"/><feBlend in2="BackgroundImageFix" result="effect1_dropShadow_28_2771"/><feBlend in="SourceGraphic" in2="effect1_dropShadow_28_2771" result="shape"/></filter><linearGradient id="b" x1="109.001" x2="109.001" y1="0" y2="40.001" gradientUnits="userSpaceOnUse"><stop stop-color="#1e142f"/><stop offset="1" stop-color="#150e20"/></linearGradient><clipPath id="a"><rect width="218.001" height="40.001" fill="#fff" rx="8"/></clipPath></defs></svg>