<svg xmlns="http://www.w3.org/2000/svg" width="234" height="40" fill="none" viewBox="0 0 234 40"><rect width="234.001" height="40.001" fill="url(#a)" rx="8"/><rect width="231.858" height="37.858" x="1.071" y="1.071" stroke="#fff" stroke-opacity=".15" stroke-width="2.143" rx="6.929"/><g filter="url(#b)"><path fill="#f22f21" d="M30.186 10h-16.37C10.604 10 8 12.63 8 15.87v8.261c0 3.242 2.604 5.87 5.816 5.87h16.37c3.212 0 5.815-2.628 5.815-5.87v-8.26c0-3.242-2.603-5.87-5.815-5.87m-3.933 10.403-7.657 3.686a.307.307 0 0 1-.44-.28v-7.603c0-.231.242-.381.447-.277l7.656 3.917a.312.312 0 0 1-.006.557"/></g><g filter="url(#c)"><path fill="#e8e8e8" d="m45.78 26.5-3.428-12.363h1.962l2.408 9.575h.115l2.505-9.575h1.944l2.506 9.58h.114l2.403-9.58h1.968l-3.435 12.364h-1.877l-2.602-9.261h-.097l-2.602 9.26zm15.838.206a3.8 3.8 0 0 1-1.593-.326 2.7 2.7 0 0 1-1.13-.96q-.41-.628-.41-1.54 0-.784.302-1.291t.815-.803a4.3 4.3 0 0 1 1.147-.447q.634-.15 1.292-.23l1.352-.156q.52-.066.755-.212.235-.144.235-.47v-.043q0-.79-.446-1.225-.441-.435-1.316-.435-.912 0-1.437.405-.52.398-.719.887l-1.696-.386q.302-.845.881-1.365.586-.525 1.347-.76a5.3 5.3 0 0 1 1.6-.242q.555 0 1.177.133.628.128 1.17.47.55.345.9.985.35.634.35 1.648v6.158h-1.762v-1.268h-.073a2.6 2.6 0 0 1-.525.688 2.8 2.8 0 0 1-.9.562q-.549.222-1.315.223m.393-1.449q.748 0 1.28-.296.537-.295.815-.772.283-.483.283-1.033v-1.195q-.096.097-.374.181a6 6 0 0 1-.622.139l-.682.103-.555.072q-.525.066-.96.223a1.65 1.65 0 0 0-.688.453q-.255.289-.254.773 0 .67.495 1.014.494.338 1.262.338m10.916-8.029v1.449h-5.065v-1.449zm-3.707-2.222h1.805v8.772q0 .526.157.79.157.261.405.357.253.09.55.09.216 0 .38-.03l.253-.048.326 1.491q-.157.06-.447.121a3.5 3.5 0 0 1-.724.072 3.2 3.2 0 0 1-1.328-.253 2.3 2.3 0 0 1-.996-.821q-.38-.555-.38-1.395zm9.51 11.682q-1.346 0-2.318-.61a4.04 4.04 0 0 1-1.485-1.696q-.52-1.08-.52-2.475 0-1.413.532-2.494a4.07 4.07 0 0 1 1.497-1.696q.966-.61 2.276-.61 1.056 0 1.884.393.826.386 1.334 1.086.513.701.61 1.636h-1.757a2.1 2.1 0 0 0-.664-1.123q-.514-.47-1.377-.47-.755 0-1.322.398-.561.393-.875 1.123-.314.724-.314 1.714 0 1.015.308 1.751t.87 1.141q.566.405 1.333.404.513 0 .93-.187.423-.193.706-.549.29-.357.405-.857h1.756q-.097.9-.585 1.606a3.37 3.37 0 0 1-1.31 1.11q-.815.405-1.914.405m7.545-5.693v5.506H84.47V14.137h1.78v4.6h.115q.327-.748.996-1.19.67-.44 1.751-.44.954 0 1.666.393.72.392 1.111 1.17.399.774.399 1.933V26.5h-1.805v-5.68q0-1.02-.526-1.582-.525-.567-1.46-.567-.64 0-1.148.271a1.96 1.96 0 0 0-.79.797q-.284.52-.284 1.256m12.92 5.506v-9.273h1.733v1.51h.115q.29-.768.947-1.196.658-.435 1.576-.435.93 0 1.558.435.633.435.935 1.195h.097q.332-.743 1.056-1.183.725-.447 1.727-.447 1.261 0 2.059.791.802.79.802 2.385V26.5h-1.805v-6.05q0-.94-.513-1.364a1.87 1.87 0 0 0-1.225-.422q-.882 0-1.371.543-.489.538-.489 1.383v5.91h-1.799v-6.164q0-.755-.47-1.213-.471-.46-1.226-.46-.513 0-.948.272a2 2 0 0 0-.694.743q-.26.477-.26 1.105V26.5zm19.021.187q-1.37 0-2.36-.586a4 4 0 0 1-1.522-1.66q-.531-1.074-.531-2.517 0-1.425.531-2.512.538-1.087 1.498-1.696.966-.61 2.257-.61.786 0 1.522.26a3.7 3.7 0 0 1 1.322.815q.585.555.923 1.443.339.881.339 2.143v.64h-7.372v-1.353h5.603q0-.712-.29-1.261a2.2 2.2 0 0 0-.815-.876q-.52-.32-1.22-.32-.76 0-1.328.375a2.5 2.5 0 0 0-.869.966 2.8 2.8 0 0 0-.302 1.285v1.057q0 .93.326 1.582.332.651.924.996.591.338 1.382.338.513 0 .936-.145.422-.15.731-.447.308-.295.47-.73l1.709.308a3.1 3.1 0 0 1-.737 1.322 3.6 3.6 0 0 1-1.322.875q-.79.308-1.805.308m14.386 0q-1.304 0-2.276-.598a4.03 4.03 0 0 1-1.509-1.672q-.537-1.074-.537-2.511 0-1.443.537-2.524a4 4 0 0 1 1.509-1.678q.972-.597 2.276-.598 1.304 0 2.276.598a4 4 0 0 1 1.509 1.678q.538 1.08.538 2.524 0 1.436-.538 2.511a4.03 4.03 0 0 1-1.509 1.672q-.971.598-2.276.598m.006-1.515q.846 0 1.401-.447t.821-1.19q.271-.742.271-1.635 0-.888-.271-1.63-.266-.75-.821-1.202-.555-.453-1.401-.453-.85 0-1.412.453-.556.453-.827 1.202a4.8 4.8 0 0 0-.266 1.63q0 .892.266 1.636.271.742.827 1.189.561.447 1.412.447m8.137-4.178v5.506h-1.806v-9.273h1.733v1.51h.115a2.65 2.65 0 0 1 1.002-1.184q.688-.447 1.732-.447.948 0 1.661.399a2.66 2.66 0 0 1 1.104 1.17q.393.78.393 1.927V26.5h-1.805v-5.68q0-1.008-.525-1.576-.526-.573-1.443-.573-.628 0-1.117.271a1.95 1.95 0 0 0-.767.797q-.277.52-.277 1.256"/><path fill="#f22f21" d="M152.321 14.137h3.339l2.614 5.174h.109l2.613-5.174h3.339l-4.522 8.234v4.13h-2.97v-4.13zm15.453 12.539q-1.461 0-2.511-.598a4.13 4.13 0 0 1-1.612-1.678q-.561-1.08-.561-2.505 0-1.431.561-2.506.568-1.08 1.612-1.678 1.05-.603 2.511-.604 1.462 0 2.506.604 1.05.598 1.612 1.678.567 1.075.567 2.506 0 1.424-.567 2.505a4.1 4.1 0 0 1-1.612 1.678q-1.044.598-2.506.598m.019-2.228q.531 0 .899-.326.369-.326.562-.905.199-.58.199-1.34 0-.773-.199-1.353-.193-.58-.562-.905a1.3 1.3 0 0 0-.899-.326q-.55 0-.93.326-.375.326-.574.905a4.3 4.3 0 0 0-.193 1.352q0 .762.193 1.34.2.58.574.906.38.326.93.326m12.161-1.95v-5.27h2.946v9.273h-2.813v-1.727h-.097a2.7 2.7 0 0 1-1.05 1.352q-.737.495-1.781.495-.948 0-1.666-.434a2.96 2.96 0 0 1-1.117-1.214q-.399-.785-.405-1.835v-5.91h2.952v5.33q.006.756.399 1.19.392.434 1.068.434.441 0 .791-.193.357-.2.562-.573.211-.381.211-.918m3.557-5.934v-2.427h10.45v2.427h-3.749V26.5h-2.946v-9.937zm16.63 5.934v-5.27h2.946v9.273h-2.813v-1.727h-.096a2.7 2.7 0 0 1-1.051 1.352q-.736.495-1.781.495-.948 0-1.666-.434a2.96 2.96 0 0 1-1.117-1.214q-.398-.785-.404-1.835v-5.91h2.952v5.33q.006.756.398 1.19.393.434 1.069.434.44 0 .791-.193a1.43 1.43 0 0 0 .561-.573q.211-.381.211-.918m4.825 4.003V14.137h2.953v4.679h.06q.181-.423.513-.815.338-.393.857-.64.525-.255 1.256-.254.966 0 1.805.507.845.508 1.364 1.564t.52 2.692q0 1.575-.502 2.639-.495 1.063-1.34 1.593a3.4 3.4 0 0 1-1.865.532q-.7 0-1.214-.23a2.7 2.7 0 0 1-.863-.604 2.9 2.9 0 0 1-.531-.803h-.091v1.504zm2.892-4.637q0 .75.199 1.304.205.555.586.864.386.3.924.301.543 0 .923-.301.38-.308.574-.864.2-.555.199-1.304 0-.748-.199-1.298-.193-.55-.574-.85-.374-.303-.923-.303-.544 0-.924.296-.38.297-.586.845-.198.55-.199 1.31m12.317 4.812q-1.455 0-2.511-.574a3.96 3.96 0 0 1-1.618-1.648q-.562-1.074-.562-2.553 0-1.437.568-2.512.567-1.08 1.6-1.678 1.032-.603 2.432-.604.99 0 1.812.308a3.9 3.9 0 0 1 1.418.912q.599.604.93 1.49.332.882.332 2.023v.737h-8.059v-1.715h5.312a1.66 1.66 0 0 0-.223-.839 1.5 1.5 0 0 0-.598-.573 1.7 1.7 0 0 0-.863-.212q-.495 0-.888.224a1.68 1.68 0 0 0-.863 1.449v1.744q0 .567.223.996.224.423.634.658t.978.236q.392 0 .713-.109.32-.108.549-.32.23-.21.344-.52l2.711.08a3.35 3.35 0 0 1-.743 1.587q-.567.67-1.491 1.044-.924.369-2.137.369"/></g><defs><filter id="b" width="39.202" height="39.202" x="2.4" y=".4" color-interpolation-filters="sRGB" filterUnits="userSpaceOnUse"><feFlood flood-opacity="0" result="BackgroundImageFix"/><feColorMatrix in="SourceAlpha" result="hardAlpha" values="0 0 0 0 0 0 0 0 0 0 0 0 0 0 0 0 0 0 127 0"/><feOffset/><feGaussianBlur stdDeviation="2.8"/><feComposite in2="hardAlpha" operator="out"/><feColorMatrix values="0 0 0 0 0 0 0 0 0 0 0 0 0 0 0 0 0 0 0.25 0"/><feBlend in2="BackgroundImageFix" result="effect1_dropShadow_28_2758"/><feBlend in="SourceGraphic" in2="effect1_dropShadow_28_2758" result="shape"/></filter><filter id="c" width="195.429" height="32.429" x="36.287" y="3.786" color-interpolation-filters="sRGB" filterUnits="userSpaceOnUse"><feFlood flood-opacity="0" result="BackgroundImageFix"/><feColorMatrix in="SourceAlpha" result="hardAlpha" values="0 0 0 0 0 0 0 0 0 0 0 0 0 0 0 0 0 0 127 0"/><feOffset/><feGaussianBlur stdDeviation="2.857"/><feComposite in2="hardAlpha" operator="out"/><feColorMatrix values="0 0 0 0 0 0 0 0 0 0 0 0 0 0 0 0 0 0 0.25 0"/><feBlend in2="BackgroundImageFix" result="effect1_dropShadow_28_2758"/><feBlend in="SourceGraphic" in2="effect1_dropShadow_28_2758" result="shape"/></filter><linearGradient id="a" x1="117.001" x2="117.001" y1="0" y2="40.001" gradientUnits="userSpaceOnUse"><stop stop-color="#300e0c"/><stop offset="1" stop-color="#200908"/></linearGradient></defs></svg>