<svg xmlns="http://www.w3.org/2000/svg" width="56" height="56" fill="none" viewBox="0 0 56 56"><g clip-path="url(#a)"><rect width="56" height="56" fill="url(#b)" rx="8.4"/><g filter="url(#c)"><path fill="#353535" d="M18.522 8v3.27h-5.997v2.884H9.43v3.27h3.095v2.884h3.096v3.077h6.19v3.077h12.381v-3.077h6.19v-3.077h2.902v9.423h-2.901v9.038h-3.29v6.154h-18.57V48h18.57v-3.077h3.29V38.77h2.901v-9.038h3.289V14.154h-3.289v3.27h-2.901v2.884h-6.19v3.077H21.81v-3.077h-6.19v-2.885h-3.096v-3.27h5.997V11.27h9.48V8z"/><path fill="#515151" d="M28.002 8v3.27h9.092v2.884h6.19v-2.885h-6.19V8z"/><path fill="#a37b63" d="M18.523 11.27v2.884h3.288v-2.885z"/><path fill="#ab826b" d="M21.81 11.27v2.884h3.096v-2.885z"/><path fill="#aba26b" d="M24.907 11.27v2.884h5.997v-2.885z"/><path fill="#ab826b" d="M30.903 11.27v2.884h3.288v-2.885z"/><path fill="#bf967e" d="M34.192 11.27v2.884h2.902v3.27h3.288v-3.27h-3.288v-2.885z"/><path fill="#958c55" d="M12.525 14.154v3.27h3.096v-3.27z"/><path fill="#956c55" d="M15.62 14.154v3.27h2.902v-3.27z"/><path fill="#c33e1f" d="M18.523 14.154v3.27h3.288v-3.27z"/><path fill="#e38c3f" d="M21.81 14.154v3.27h3.096v2.884H28v3.077h6.19v-3.077H28v-2.885h-3.095v-3.269z"/><path fill="#e4d25c" d="M24.907 14.154v3.27h3.095v2.884h6.19v-2.885h-3.288v-3.269z"/><path fill="#e38c3f" d="M30.903 14.154v3.27h3.288v-3.27z"/><path fill="#cc4628" d="M34.192 14.154v3.27h2.902v2.884h3.288v-2.885h-3.288v-3.269z"/><path fill="#bfb67e" d="M40.382 14.154v3.27h2.902v-3.27z"/><path fill="#515151" d="M9.43 17.423v12.308h3.095v9.038h3.096v6.154h2.901V38.77h-2.901v-9.038h-3.096V17.423z"/><path fill="#dc8638" d="M15.62 17.423v2.885h2.902v-2.885z"/><path fill="#e2cf5a" d="M18.523 17.423v2.885h3.288v3.077h3.095v-5.962z"/><path fill="#ea9346" d="M34.192 17.423v2.885h2.902v-2.885z"/><path fill="#e7e7e7" d="M12.525 20.308v3.077h3.096v3.077h6.19v-3.077h-6.19v-3.077z"/><path fill="#c54021" d="M24.907 20.308v3.077h3.095v-3.077z"/><path fill="#a9a9a9" d="M40.382 20.308v3.077h2.902v-3.077z"/><path fill="#d8d8d8" d="M12.525 23.385v6.346h3.096v9.038h2.901v3.27h3.29v2.884h6.19V32.615h-3.096v-2.884h-3.095v2.884h-3.289v-6.153h-2.901v-3.077z"/><path fill="#ead762" d="M34.192 23.385v3.077h2.902v-3.077z"/><path fill="#cb4627" d="M37.094 23.385v3.077h3.288v-3.077z"/><path fill="#727272" d="M40.382 23.385v6.346h-3.288v9.038h3.288v-9.038h2.902v-6.346z"/><path fill="#fff" d="M18.523 26.462v6.153h3.288v-6.153z"/><path fill="#d85334" d="M21.81 26.462v3.269h3.096v-3.27z"/><path fill="#cacaca" d="M24.907 26.462v3.269h9.286v-3.27z"/><path fill="#e99245" d="M34.192 26.462v3.269h2.902v-3.27z"/><path fill="#969696" d="M37.094 26.462v3.269h3.288v-3.27z"/><path fill="#a8a8a8" d="M24.907 29.73v2.885h3.095v9.424h2.902v-9.424h3.289v-2.884z"/><path fill="#cb4627" d="M34.192 29.73v2.885h2.902v-2.884z"/><path fill="#fff" d="M21.81 32.615v6.154h3.096v-6.154z"/><path fill="#969696" d="M30.903 32.615v9.423h-2.901v2.885h9.092V38.77h-2.902v-2.884h2.902v-3.27z"/><path fill="#cb4627" d="M34.192 35.885v2.884h2.902v-2.884z"/><path fill="#969696" d="M18.523 42.039v2.884h3.288v-2.885z"/><g opacity=".7"><mask id="e" width="28" height="28" x="22.144" y="22.143" fill="#000" maskUnits="userSpaceOnUse"><path fill="#fff" d="M22.144 22.143h28v28h-28z"/><path fill-rule="evenodd" d="M27.96 25.352a.714.714 0 0 0-1.01 0l-1.595 1.596a.715.715 0 0 0 0 1.01l8.612 8.615-8.614 8.612a.714.714 0 0 0 0 1.01l1.595 1.595a.714.714 0 0 0 1.01 0l8.614-8.612 8.61 8.613a.714.714 0 0 0 1.01 0l1.595-1.595a.715.715 0 0 0 0-1.01l-8.61-8.613 8.613-8.611a.714.714 0 0 0 0-1.01l-1.595-1.595a.715.715 0 0 0-1.01 0l-8.612 8.61z" clip-rule="evenodd"/></mask><path fill="url(#d)" fill-rule="evenodd" d="M27.96 25.352a.714.714 0 0 0-1.01 0l-1.595 1.596a.715.715 0 0 0 0 1.01l8.612 8.615-8.614 8.612a.714.714 0 0 0 0 1.01l1.595 1.595a.714.714 0 0 0 1.01 0l8.614-8.612 8.61 8.613a.714.714 0 0 0 1.01 0l1.595-1.595a.715.715 0 0 0 0-1.01l-8.61-8.613 8.613-8.611a.714.714 0 0 0 0-1.01l-1.595-1.595a.715.715 0 0 0-1.01 0l-8.612 8.61z" clip-rule="evenodd"/><path fill="#000" d="m26.95 25.352 1.515 1.515zm1.01 0-1.516 1.515zm-2.605 1.596-1.516-1.516zm0 1.01-1.516 1.515zm8.612 8.615 1.516 1.515 1.515-1.515-1.515-1.515zm-8.614 8.612-1.515-1.515zm0 1.01-1.515 1.516zm1.595 1.595 1.515-1.515zm1.01 0 1.516 1.516zm8.614-8.612 1.515-1.515-1.515-1.515-1.515 1.515zm8.61 8.613-1.515 1.515zm1.01 0 1.516 1.515zm1.595-1.595 1.516 1.515zm0-1.01L46.272 46.7zm-8.61-8.613-1.515-1.515-1.515 1.515 1.515 1.515zm8.613-8.611 1.516 1.515zm0-1.01 1.516-1.516zm-1.595-1.595 1.516-1.516zm-1.01 0L43.67 23.84zm-8.612 8.61-1.516 1.516 1.515 1.515 1.516-1.515zm-8.108-7.1a1.43 1.43 0 0 1-2.02 0l3.03-3.03a2.857 2.857 0 0 0-4.041 0zm-1.595 1.595 1.595-1.595-3.031-3.03-1.595 1.595zm0-2.02a1.43 1.43 0 0 1 0 2.02l-3.03-3.03a2.857 2.857 0 0 0 0 4.04zm8.613 8.616-8.613-8.615-3.03 3.03 8.612 8.615zM26.868 46.7l8.615-8.613-3.03-3.03-8.615 8.612zm0-2.021a1.43 1.43 0 0 1 0 2.02l-3.03-3.03a2.857 2.857 0 0 0 0 4.04zm1.595 1.595-1.595-1.595-3.03 3.03 1.595 1.596zm-2.02 0a1.43 1.43 0 0 1 2.02 0l-3.03 3.03a2.857 2.857 0 0 0 4.04 0zm8.614-8.612-8.614 8.612 3.03 3.03 8.614-8.612zm11.64 8.613-8.61-8.613-3.03 3.03 8.61 8.613zm-2.02 0a1.43 1.43 0 0 1 2.02 0l-3.03 3.03a2.857 2.857 0 0 0 4.04 0zm1.595-1.596-1.595 1.596 3.03 3.03 1.596-1.595zm0 2.02a1.43 1.43 0 0 1 0-2.02l3.03 3.03a2.857 2.857 0 0 0 0-4.04zm-8.61-8.612 8.61 8.612 3.03-3.03-8.61-8.612zm8.613-11.642-8.613 8.612 3.03 3.03 8.614-8.611zm0 2.02a1.43 1.43 0 0 1 0-2.02l3.03 3.031a2.857 2.857 0 0 0 0-4.04zm-1.595-1.594 1.595 1.595 3.03-3.03-1.594-1.596zm2.02 0a1.43 1.43 0 0 1-2.02 0l3.03-3.03a2.86 2.86 0 0 0-4.04 0zm-8.612 8.611 8.612-8.61-3.03-3.032-8.612 8.612zm-11.644-8.616 8.613 8.616 3.031-3.03-8.613-8.616z" mask="url(#e)"/></g></g></g><rect width="53.9" height="53.9" x="1.05" y="1.05" stroke="#fff" stroke-opacity=".15" stroke-width="2.1" rx="7.35"/><defs><linearGradient id="b" x1="28" x2="28" y1="0" y2="56" gradientUnits="userSpaceOnUse"><stop stop-color="#2c1b1b"/><stop offset="1" stop-color="#1f1414"/></linearGradient><linearGradient id="d" x1="36.572" x2="36.572" y1="25.143" y2="48" gradientUnits="userSpaceOnUse"><stop stop-color="red"/><stop offset="1" stop-color="#c00"/></linearGradient><clipPath id="a"><rect width="56" height="56" fill="#fff" rx="8.4"/></clipPath><filter id="c" width="53.571" height="53.571" x="2.286" y="2.286" color-interpolation-filters="sRGB" filterUnits="userSpaceOnUse"><feFlood flood-opacity="0" result="BackgroundImageFix"/><feColorMatrix in="SourceAlpha" result="hardAlpha" values="0 0 0 0 0 0 0 0 0 0 0 0 0 0 0 0 0 0 127 0"/><feOffset/><feGaussianBlur stdDeviation="2.857"/><feComposite in2="hardAlpha" operator="out"/><feColorMatrix values="0 0 0 0 0 0 0 0 0 0 0 0 0 0 0 0 0 0 0.25 0"/><feBlend in2="BackgroundImageFix" result="effect1_dropShadow_28_3973"/><feBlend in="SourceGraphic" in2="effect1_dropShadow_28_3973" result="shape"/></filter></defs></svg>