<svg xmlns="http://www.w3.org/2000/svg" width="56" height="56" fill="none" viewBox="0 0 56 56"><g clip-path="url(#a)"><rect width="56" height="56" fill="url(#b)" rx="8.4"/><g filter="url(#c)"><path fill="#38342a" d="M29.43 8v2.857h-2.857v5.714h-2.857v2.858h-2.857v2.857h-2.857v2.857h-2.857V28h-2.858v2.857H9.43v5.714h2.857v2.858h2.858v2.857h2.857v2.857h2.857V48h5.714v-2.857h2.857v-5.714h2.857V36.57h2.858v-2.857h2.857v-2.857h5.714V28h2.857v-5.714h-2.857v-2.857h-2.857V16.57h-2.857v-2.857h-2.858v-2.857h-2.857V8z"/><path fill="#dbd0b4" d="M29.43 10.857v2.857h2.857v2.857h2.858v2.858h2.857v2.857h2.857v-2.857h-2.857V16.57h-2.858v-2.857h-2.857v-2.857z"/><path fill="#c6bca5" d="M29.43 13.714v2.857h2.857v-2.857z"/><path fill="#dbd0b4" d="M26.573 16.571v5.715H20.86v2.857h-2.857V28h-2.857v5.714h2.857v2.857h2.857v2.858h5.714v-5.715h-2.857v-2.857h5.714v2.857h2.857V28H29.43v-2.857h5.715v-2.857h-2.858v-2.857H29.43V16.57z"/><path fill="#38342a" d="M29.43 16.571v2.858h2.857v2.857h2.858v2.857h2.857v-2.857h-2.858v-2.857h-2.857V16.57z"/><path fill="#bcb29c" d="M32.287 16.571v2.858h2.857V16.57z"/><path fill="#c6bca5" d="M23.716 19.429v2.857h2.857v-2.857z"/><path fill="#bcb29c" d="M35.144 19.429v2.857h2.857v-2.857z"/><path fill="#c6bca5" d="M26.573 22.286v2.857h2.857v-2.857z"/><path fill="#bcb29c" d="M38.002 22.286v2.857h2.857v-2.857z"/><path fill="#c6bca5" d="M29.43 25.143V28h5.715v-2.857z"/><path fill="#bcb29c" d="M35.144 25.143V28h-2.857v5.714h2.857v-2.857h2.857v-5.714z"/><path fill="#807a6d" d="M40.858 25.143V28h2.858v-2.857z"/><path fill="#c6bca5" d="M20.858 28v2.857h2.857V28z"/><path fill="#aea694" d="M12.287 30.857v2.857h2.857v2.857h2.857v2.858h2.857v2.857h2.858v-2.857h-2.858V36.57h-2.857v-2.857h-2.857v-2.857z"/><path fill="#c6bca5" d="M23.716 30.857v2.857h5.714v-2.857z"/><path fill="#9a927e" d="M12.287 33.714v2.857h2.857v-2.857z"/><path fill="#bcb29c" d="M26.573 33.714v5.715h2.857V36.57h2.857v-2.857z"/><path fill="#9a927e" d="M15.145 36.571v2.858h2.857V36.57zm2.857 2.858v2.857h2.857v-2.857z"/><path fill="#bcb29c" d="M23.716 39.429v2.857h2.857v-2.857z"/><path fill="#9a927e" d="M20.858 42.286v2.857h2.857v-2.857z"/><g opacity=".7"><mask id="e" width="28" height="28" x="22.144" y="22.143" fill="#000" maskUnits="userSpaceOnUse"><path fill="#fff" d="M22.144 22.143h28v28h-28z"/><path fill-rule="evenodd" d="M27.96 25.352a.714.714 0 0 0-1.01 0l-1.595 1.595a.715.715 0 0 0 0 1.01l8.612 8.616-8.614 8.612a.714.714 0 0 0 0 1.01l1.595 1.595a.714.714 0 0 0 1.01 0l8.614-8.612 8.61 8.613a.714.714 0 0 0 1.01 0l1.595-1.596a.715.715 0 0 0 0-1.01l-8.61-8.612 8.613-8.611a.714.714 0 0 0 0-1.01l-1.595-1.595a.715.715 0 0 0-1.01 0l-8.612 8.61z" clip-rule="evenodd"/></mask><path fill="url(#d)" fill-rule="evenodd" d="M27.96 25.352a.714.714 0 0 0-1.01 0l-1.595 1.595a.715.715 0 0 0 0 1.01l8.612 8.616-8.614 8.612a.714.714 0 0 0 0 1.01l1.595 1.595a.714.714 0 0 0 1.01 0l8.614-8.612 8.61 8.613a.714.714 0 0 0 1.01 0l1.595-1.596a.715.715 0 0 0 0-1.01l-8.61-8.612 8.613-8.611a.714.714 0 0 0 0-1.01l-1.595-1.595a.715.715 0 0 0-1.01 0l-8.612 8.61z" clip-rule="evenodd"/><path fill="#000" d="m26.95 25.352 1.515 1.515zm1.01 0-1.516 1.515zm-2.605 1.595 1.515 1.515zm0 1.01-1.516 1.516zm8.612 8.616 1.516 1.515 1.515-1.515-1.515-1.515zm-8.614 8.612-1.515-1.515zm0 1.01-1.515 1.516zm1.595 1.595 1.515-1.515zm1.01 0 1.516 1.515zm8.614-8.612 1.515-1.515-1.515-1.516-1.515 1.516zm8.61 8.613 1.516-1.515zm1.01 0-1.515-1.515zm1.595-1.596 1.516 1.515zm0-1.01L46.272 46.7zm-8.61-8.612-1.515-1.515-1.515 1.515 1.515 1.515zm8.613-8.611 1.516 1.515zm0-1.01 1.516-1.516zm-1.595-1.595 1.516-1.516zm-1.01 0L43.67 23.84zm-8.612 8.61-1.516 1.516 1.515 1.515 1.516-1.515zm-8.108-7.1a1.43 1.43 0 0 1-2.02 0l3.03-3.03a2.857 2.857 0 0 0-4.041 0zm-1.595 1.595 1.595-1.595-3.031-3.03-1.595 1.595zm0-2.02a1.43 1.43 0 0 1 0 2.02l-3.03-3.03a2.857 2.857 0 0 0 0 4.04zm8.613 8.616-8.613-8.615-3.03 3.03 8.612 8.615zM26.868 46.7l8.615-8.613-3.03-3.03-8.615 8.612zm0-2.021a1.43 1.43 0 0 1 0 2.02l-3.03-3.03a2.857 2.857 0 0 0 0 4.04zm1.595 1.595-1.595-1.595-3.03 3.03 1.595 1.595zm-2.02 0a1.43 1.43 0 0 1 2.02 0l-3.03 3.03a2.857 2.857 0 0 0 4.04 0zm8.614-8.612-8.614 8.612 3.03 3.03 8.614-8.612zm11.64 8.613-8.61-8.613-3.03 3.03 8.61 8.613zm-2.02 0a1.43 1.43 0 0 1 2.02 0l-3.03 3.03a2.857 2.857 0 0 0 4.04 0zm1.595-1.596-1.595 1.596 3.03 3.03 1.596-1.596zm0 2.02a1.43 1.43 0 0 1 0-2.02l3.03 3.03a2.857 2.857 0 0 0 0-4.04zm-8.61-8.612 8.61 8.612 3.03-3.03-8.61-8.612zm8.613-11.642-8.613 8.612 3.03 3.03 8.614-8.611zm0 2.02a1.43 1.43 0 0 1 0-2.02l3.03 3.03a2.857 2.857 0 0 0 0-4.04zm-1.595-1.594 1.595 1.595 3.03-3.03-1.594-1.596zm2.02 0a1.43 1.43 0 0 1-2.02 0l3.03-3.03a2.857 2.857 0 0 0-4.04 0zm-8.612 8.611 8.612-8.61-3.03-3.032-8.612 8.611zm-11.644-8.616 8.613 8.616 3.031-3.03-8.613-8.616z" mask="url(#e)"/></g></g></g><rect width="53.9" height="53.9" x="1.05" y="1.05" stroke="#fff" stroke-opacity=".15" stroke-width="2.1" rx="7.35"/><defs><linearGradient id="b" x1="28" x2="28" y1="0" y2="56" gradientUnits="userSpaceOnUse"><stop stop-color="#2c1b1b"/><stop offset="1" stop-color="#1f1414"/></linearGradient><linearGradient id="d" x1="36.572" x2="36.572" y1="25.143" y2="48" gradientUnits="userSpaceOnUse"><stop stop-color="red"/><stop offset="1" stop-color="#c00"/></linearGradient><clipPath id="a"><rect width="56" height="56" fill="#fff" rx="8.4"/></clipPath><filter id="c" width="53.571" height="53.571" x="2.286" y="2.286" color-interpolation-filters="sRGB" filterUnits="userSpaceOnUse"><feFlood flood-opacity="0" result="BackgroundImageFix"/><feColorMatrix in="SourceAlpha" result="hardAlpha" values="0 0 0 0 0 0 0 0 0 0 0 0 0 0 0 0 0 0 127 0"/><feOffset/><feGaussianBlur stdDeviation="2.857"/><feComposite in2="hardAlpha" operator="out"/><feColorMatrix values="0 0 0 0 0 0 0 0 0 0 0 0 0 0 0 0 0 0 0.25 0"/><feBlend in2="BackgroundImageFix" result="effect1_dropShadow_28_3928"/><feBlend in="SourceGraphic" in2="effect1_dropShadow_28_3928" result="shape"/></filter></defs></svg>