<svg xmlns="http://www.w3.org/2000/svg" width="56" height="56" fill="none" viewBox="0 0 56 56"><g clip-path="url(#a)"><rect width="56" height="56" fill="url(#b)" rx="8.4"/><g filter="url(#c)"><path fill="#dfa86a" d="M44.182 20.523 27 19.667h21V18H24.273v6.306c0 .045-.682-4.099-.864-5.27h-1.863v5.856c0 .045-.819-4.91-.864-5.54H8c.864.72 5.636 4.774 9.046 6.44 1.681.812 3.772.857 5.636.902.954.045 1.909.09 2.636.81 1.046.991 1.273 2.568.364 3.74-.864 1.17-3.318 1.44-3.318 1.44l-2.091 2.433V38h4.682l.136-2.838 4.045-2.838c-.409.36-1.409 1.262-2.818 3.469a7.3 7.3 0 0 0-.773 1.576c1-.855 3.091-1.441 5.546-1.441 2.409 0 4.5.586 5.5 1.441a7.3 7.3 0 0 0-.773-1.576c-1.454-2.207-2.409-3.108-2.818-3.469l4.045 2.838.137 2.838h4.363v-2.883L39.5 32.64s-3.045-.18-3.818-1.442c-2.364-3.513.863-9.009 8.5-10.675"/><g opacity=".7"><mask id="e" width="28" height="28" x="22.144" y="22.143" fill="#000" maskUnits="userSpaceOnUse"><path fill="#fff" d="M22.144 22.143h28v28h-28z"/><path fill-rule="evenodd" d="M27.96 25.352a.714.714 0 0 0-1.01 0l-1.595 1.596a.714.714 0 0 0 0 1.01l8.612 8.615-8.614 8.612a.714.714 0 0 0 0 1.01l1.595 1.595a.714.714 0 0 0 1.01 0l8.614-8.612 8.61 8.613a.714.714 0 0 0 1.01 0l1.595-1.595a.715.715 0 0 0 0-1.01l-8.61-8.613 8.613-8.611a.714.714 0 0 0 0-1.01l-1.595-1.595a.714.714 0 0 0-1.01 0l-8.612 8.61z" clip-rule="evenodd"/></mask><path fill="url(#d)" fill-rule="evenodd" d="M27.96 25.352a.714.714 0 0 0-1.01 0l-1.595 1.596a.714.714 0 0 0 0 1.01l8.612 8.615-8.614 8.612a.714.714 0 0 0 0 1.01l1.595 1.595a.714.714 0 0 0 1.01 0l8.614-8.612 8.61 8.613a.714.714 0 0 0 1.01 0l1.595-1.595a.715.715 0 0 0 0-1.01l-8.61-8.613 8.613-8.611a.714.714 0 0 0 0-1.01l-1.595-1.595a.714.714 0 0 0-1.01 0l-8.612 8.61z" clip-rule="evenodd"/><path fill="#000" d="m26.95 25.352 1.515 1.515zm1.01 0-1.516 1.515zm-2.605 1.596-1.516-1.516zm0 1.01 1.515-1.515zm8.612 8.615 1.516 1.515 1.515-1.515-1.515-1.515zm-8.614 8.612-1.515-1.515zm0 1.01-1.515 1.516zm1.595 1.595 1.515-1.515zm1.01 0 1.516 1.516zm8.614-8.612 1.515-1.515-1.515-1.515-1.515 1.515zm8.61 8.613-1.515 1.515zm1.01 0 1.516 1.515zm1.595-1.595-1.515-1.516zm0-1.01L46.272 46.7zm-8.61-8.613-1.515-1.515-1.515 1.515 1.515 1.515zm8.613-8.611 1.516 1.515zm0-1.01 1.516-1.516zm-1.595-1.595 1.516-1.516zm-1.01 0L43.67 23.84zm-8.612 8.61-1.516 1.516 1.515 1.515 1.516-1.515zm-8.108-7.1a1.43 1.43 0 0 1-2.02 0l3.03-3.03a2.857 2.857 0 0 0-4.041 0zm-1.595 1.595 1.595-1.595-3.031-3.03-1.595 1.595zm0-2.02a1.43 1.43 0 0 1 0 2.02l-3.03-3.03a2.857 2.857 0 0 0 0 4.04zm8.613 8.616-8.613-8.615-3.03 3.03 8.612 8.615zM26.868 46.7l8.615-8.613-3.03-3.03-8.615 8.612zm0-2.021a1.43 1.43 0 0 1 0 2.02l-3.03-3.03a2.857 2.857 0 0 0 0 4.04zm1.595 1.595-1.595-1.595-3.03 3.03 1.595 1.596zm-2.02 0a1.43 1.43 0 0 1 2.02 0l-3.03 3.03a2.857 2.857 0 0 0 4.04 0zm8.614-8.612-8.614 8.612 3.03 3.03 8.614-8.612zm11.64 8.613-8.61-8.613-3.03 3.03 8.61 8.613zm-2.02 0a1.43 1.43 0 0 1 2.02 0l-3.03 3.03a2.857 2.857 0 0 0 4.04 0zm1.595-1.596-1.595 1.596 3.03 3.03 1.596-1.595zm0 2.02a1.43 1.43 0 0 1 0-2.02l3.03 3.03a2.857 2.857 0 0 0 0-4.04zm-8.61-8.612 8.61 8.612 3.03-3.03-8.61-8.612zm8.613-11.642-8.613 8.612 3.03 3.03 8.614-8.611zm0 2.02a1.43 1.43 0 0 1 0-2.02l3.03 3.031a2.857 2.857 0 0 0 0-4.04zm-1.595-1.594 1.595 1.595 3.03-3.03-1.594-1.596zm2.02 0a1.43 1.43 0 0 1-2.02 0l3.03-3.03a2.857 2.857 0 0 0-4.04 0zm-8.612 8.611 8.612-8.61-3.03-3.032-8.612 8.611zm-11.644-8.616 8.613 8.616 3.031-3.03-8.613-8.616z" mask="url(#e)"/></g></g></g><rect width="53.9" height="53.9" x="1.05" y="1.05" stroke="#fff" stroke-opacity=".15" stroke-width="2.1" rx="7.35"/><defs><linearGradient id="b" x1="28" x2="28" y1="0" y2="56" gradientUnits="userSpaceOnUse"><stop stop-color="#2c1b1b"/><stop offset="1" stop-color="#1f1414"/></linearGradient><linearGradient id="d" x1="36.572" x2="36.572" y1="25.143" y2="48" gradientUnits="userSpaceOnUse"><stop stop-color="red"/><stop offset="1" stop-color="#c00"/></linearGradient><clipPath id="a"><rect width="56" height="56" fill="#fff" rx="8.4"/></clipPath><filter id="c" width="53.571" height="53.571" x="2.286" y="2.286" color-interpolation-filters="sRGB" filterUnits="userSpaceOnUse"><feFlood flood-opacity="0" result="BackgroundImageFix"/><feColorMatrix in="SourceAlpha" result="hardAlpha" values="0 0 0 0 0 0 0 0 0 0 0 0 0 0 0 0 0 0 127 0"/><feOffset/><feGaussianBlur stdDeviation="2.857"/><feComposite in2="hardAlpha" operator="out"/><feColorMatrix values="0 0 0 0 0 0 0 0 0 0 0 0 0 0 0 0 0 0 0.25 0"/><feBlend in2="BackgroundImageFix" result="effect1_dropShadow_28_3934"/><feBlend in="SourceGraphic" in2="effect1_dropShadow_28_3934" result="shape"/></filter></defs></svg>