<svg xmlns="http://www.w3.org/2000/svg" width="56" height="56" fill="none" viewBox="0 0 56 56"><g clip-path="url(#a)"><rect width="56" height="56" fill="url(#b)" rx="8.4"/><g filter="url(#c)"><path fill="#4e84c4" d="M11.572 22.658v-4.954c.065-.004.128-.09.19-.111 1.067-.543 2.124-1.111 3.206-1.623.324-.155.443-.305.436-.67-.024-1.323-.01-2.648-.009-3.972 0-.407 0-.41.337-.58 1.395-.709 2.793-1.412 4.187-2.123.392-.199.816-.335 1.159-.625h.31c.012.03.016.076.037.087 1.77.89 3.543 1.775 5.31 2.672.108.055.147.059.256 0 .595-.31 1.207-.586 1.798-.903.163-.088.244-.074.398.012.458.259.938.476 1.412.712.305.154.305.16.565.023.44-.232.875-.47 1.315-.702.31-.163.343-.163.63-.017l5.213 2.657c1.924.977 3.852 1.945 5.772 2.93.12.062.222.051.335.066v14.66c-.113.016-.215.005-.335.066a531 531 0 0 1-6.805 3.438c-.38.187-.52.39-.517.824.02 3.035.006 6.07.02 9.105 0 .302-.088.463-.35.584-.507.235-1.002.497-1.502.748q-.056.029-.11.062.07.015.137.044c.54.277 1.077.562 1.622.833.098.049.092.07.024.122q-.08.052-.168.093c-.827.416-1.663.82-2.477 1.264-.372.202-.79.325-1.112.62h-.102a3 3 0 0 0-.3-.208q-5.58-2.832-11.16-5.658a1 1 0 0 1-.098-.07q.046-.016.087-.037c1.169-.593 2.34-1.18 3.504-1.783a.62.62 0 0 1 .641 0c.531.284 1.073.55 1.61.822q.814-.408 1.626-.82c.044-.023.079-.101.112-.098.163.016.156-.083.155-.194 0-.645-.004-1.29 0-1.936 0-.127-.053-.139-.16-.194-.89-.436-1.767-.897-2.65-1.346q-4.275-2.17-8.553-4.335c-.145-.074-.221-.136-.218-.324.013-1.08.003-2.162.008-3.243 0-.19-.045-.292-.24-.38-.48-.215-.935-.49-1.41-.718-.206-.099-.333-.182-.324-.456.025-.784 0-1.57.017-2.353.005-.187-.083-.217-.206-.278-1.096-.551-2.2-1.102-3.29-1.667-.117-.062-.217-.05-.333-.066m23.145 16.39v-3.87c0-.12.026-.17-.146-.083-1.063.549-2.142 1.068-3.216 1.598-.143.07-.348.113-.41.23-.079.151-.045.364-.052.551-.006.157 0 .314 0 .47q-.001 1.518.004 3.034c0 .139-.045.18-.173.24-.534.253-1.053.538-1.576.811a1 1 0 0 0-.098.07l.088.037c1.185.593 2.372 1.181 3.552 1.787.099.05.128.056.23 0a33 33 0 0 1 1.589-.784c.154-.07.216-.143.215-.325-.012-1.256-.007-2.511-.007-3.766"/><g opacity=".7"><mask id="e" width="28" height="28" x="22.144" y="22.143" fill="#000" maskUnits="userSpaceOnUse"><path fill="#fff" d="M22.144 22.143h28v28h-28z"/><path fill-rule="evenodd" d="M27.96 25.352a.714.714 0 0 0-1.01 0l-1.595 1.596a.715.715 0 0 0 0 1.01l8.612 8.615-8.614 8.612a.714.714 0 0 0 0 1.01l1.595 1.595a.714.714 0 0 0 1.01 0l8.614-8.612 8.61 8.613a.714.714 0 0 0 1.01 0l1.595-1.595a.715.715 0 0 0 0-1.01l-8.61-8.613 8.613-8.611a.714.714 0 0 0 0-1.01l-1.595-1.595a.714.714 0 0 0-1.01 0l-8.612 8.61z" clip-rule="evenodd"/></mask><path fill="url(#d)" fill-rule="evenodd" d="M27.96 25.352a.714.714 0 0 0-1.01 0l-1.595 1.596a.715.715 0 0 0 0 1.01l8.612 8.615-8.614 8.612a.714.714 0 0 0 0 1.01l1.595 1.595a.714.714 0 0 0 1.01 0l8.614-8.612 8.61 8.613a.714.714 0 0 0 1.01 0l1.595-1.595a.715.715 0 0 0 0-1.01l-8.61-8.613 8.613-8.611a.714.714 0 0 0 0-1.01l-1.595-1.595a.714.714 0 0 0-1.01 0l-8.612 8.61z" clip-rule="evenodd"/><path fill="#000" d="m26.95 25.352 1.515 1.515zm1.01 0-1.516 1.515zm-2.605 1.596-1.516-1.515zm0 1.01-1.516 1.515zm8.612 8.615 1.516 1.515 1.515-1.515-1.515-1.515zm-8.614 8.612-1.515-1.515zm0 1.01-1.515 1.516zm1.595 1.595 1.515-1.515zm1.01 0 1.516 1.516zm8.614-8.612 1.515-1.515-1.515-1.515-1.515 1.515zm8.61 8.613 1.516-1.515zm1.01 0 1.516 1.515zm1.595-1.595-1.515-1.516zm0-1.01 1.516-1.516zm-8.61-8.613-1.515-1.515-1.515 1.515 1.515 1.515zm8.613-8.611 1.516 1.515zm0-1.01 1.516-1.516zm-1.595-1.595 1.516-1.516zm-1.01 0L43.67 23.84zm-8.612 8.61-1.516 1.516 1.515 1.515 1.516-1.515zm-8.108-7.1a1.43 1.43 0 0 1-2.02 0l3.03-3.03a2.857 2.857 0 0 0-4.041 0zm-1.595 1.595 1.595-1.595-3.031-3.03-1.595 1.596zm0-2.02a1.43 1.43 0 0 1 0 2.02l-3.03-3.03a2.857 2.857 0 0 0 0 4.04zm8.613 8.616-8.613-8.615-3.03 3.03 8.612 8.615zM26.868 46.7l8.615-8.613-3.03-3.03-8.615 8.612zm0-2.021a1.43 1.43 0 0 1 0 2.02l-3.03-3.03a2.857 2.857 0 0 0 0 4.04zm1.595 1.595-1.595-1.595-3.03 3.03 1.595 1.596zm-2.02 0a1.43 1.43 0 0 1 2.02 0l-3.03 3.03a2.857 2.857 0 0 0 4.04 0zm8.614-8.612-8.614 8.612 3.03 3.03 8.614-8.612zm11.64 8.613-8.61-8.613-3.03 3.03 8.61 8.613zm-2.02 0a1.43 1.43 0 0 1 2.02 0l-3.03 3.03a2.857 2.857 0 0 0 4.04 0zm1.595-1.596-1.595 1.596 3.03 3.03 1.596-1.595zm0 2.02a1.43 1.43 0 0 1 0-2.02l3.03 3.03a2.857 2.857 0 0 0 0-4.04zm-8.61-8.612 8.61 8.612 3.03-3.03-8.61-8.612zm8.613-11.642-8.613 8.612 3.03 3.03 8.614-8.611zm0 2.02a1.43 1.43 0 0 1 0-2.02l3.03 3.03a2.857 2.857 0 0 0 0-4.04zm-1.595-1.594 1.595 1.595 3.03-3.03-1.594-1.596zm2.02 0a1.43 1.43 0 0 1-2.02 0l3.03-3.03a2.857 2.857 0 0 0-4.04 0zm-8.612 8.611 8.612-8.61-3.03-3.032-8.613 8.612zm-11.644-8.616 8.613 8.616 3.031-3.03-8.613-8.616z" mask="url(#e)"/></g></g></g><rect width="53.9" height="53.9" x="1.05" y="1.05" stroke="#fff" stroke-opacity=".15" stroke-width="2.1" rx="7.35"/><defs><linearGradient id="b" x1="28" x2="28" y1="0" y2="56" gradientUnits="userSpaceOnUse"><stop stop-color="#2c1b1b"/><stop offset="1" stop-color="#1f1414"/></linearGradient><linearGradient id="d" x1="36.572" x2="36.572" y1="25.143" y2="48" gradientUnits="userSpaceOnUse"><stop stop-color="red"/><stop offset="1" stop-color="#c00"/></linearGradient><clipPath id="a"><rect width="56" height="56" fill="#fff" rx="8.4"/></clipPath><filter id="c" width="53.571" height="53.571" x="2.286" y="2.286" color-interpolation-filters="sRGB" filterUnits="userSpaceOnUse"><feFlood flood-opacity="0" result="BackgroundImageFix"/><feColorMatrix in="SourceAlpha" result="hardAlpha" values="0 0 0 0 0 0 0 0 0 0 0 0 0 0 0 0 0 0 127 0"/><feOffset/><feGaussianBlur stdDeviation="2.857"/><feComposite in2="hardAlpha" operator="out"/><feColorMatrix values="0 0 0 0 0 0 0 0 0 0 0 0 0 0 0 0 0 0 0.25 0"/><feBlend in2="BackgroundImageFix" result="effect1_dropShadow_28_3940"/><feBlend in="SourceGraphic" in2="effect1_dropShadow_28_3940" result="shape"/></filter></defs></svg>