<svg xmlns="http://www.w3.org/2000/svg" width="56" height="56" fill="none" viewBox="0 0 56 56"><g clip-path="url(#a)"><rect width="56" height="56" fill="url(#b)" rx="8.4"/><g filter="url(#c)"><path stroke="url(#d)" stroke-linejoin="round" stroke-width=".857" d="m37.257 13.237-7.89 4.472 7.899 4.464 7.89-4.472z"/><path stroke="url(#e)" stroke-linejoin="round" stroke-width=".857" d="m27.986 8-7.895 4.472 7.899 4.46 7.895-4.468z"/><path stroke="url(#f)" stroke-linejoin="round" stroke-width=".857" d="m18.722 13.249-7.895 4.468 7.9 4.464 7.89-4.468z"/><path stroke="url(#g)" stroke-linejoin="round" stroke-width=".857" d="m27.994 18.486-7.895 4.472 7.9 4.46 7.894-4.469z"/><path stroke="url(#h)" stroke-linejoin="round" stroke-width=".857" d="m10.143 18.882.004 8.936 7.9 4.46-.005-8.932z"/><path stroke="url(#i)" stroke-linejoin="round" stroke-width=".857" d="m19.415 24.123.004 8.932 7.899 4.464-.005-8.932z"/><path stroke="url(#j)" stroke-linejoin="round" stroke-width=".857" d="m10.147 29.367.004 8.933 7.9 4.46-.005-8.933z"/><path stroke="url(#k)" stroke-linejoin="round" stroke-width=".857" d="m19.419 34.608.004 8.932 7.9 4.46-.005-8.932z"/><path stroke="url(#l)" stroke-linejoin="round" stroke-width=".857" d="m28.695 48 7.895-4.468-.004-8.932-7.895 4.468z"/><path stroke="url(#m)" stroke-linejoin="round" stroke-width=".857" d="m37.962 42.751 7.895-4.468-.008-8.932-7.891 4.468z"/><path stroke="url(#n)" stroke-linejoin="round" stroke-width=".857" d="m37.954 32.266 7.895-4.468-.005-8.932-7.894 4.468z"/><path stroke="url(#o)" stroke-linejoin="round" stroke-width=".857" d="m28.687 28.583.004 8.932 7.89-4.468-.004-8.932z"/><g opacity=".7"><mask id="q" width="28" height="28" x="22.144" y="22.143" fill="#000" maskUnits="userSpaceOnUse"><path fill="#fff" d="M22.144 22.143h28v28h-28z"/><path fill-rule="evenodd" d="M27.96 25.353a.714.714 0 0 0-1.01 0l-1.595 1.595a.715.715 0 0 0 0 1.01l8.612 8.615-8.614 8.612a.714.714 0 0 0 0 1.01l1.595 1.595a.714.714 0 0 0 1.01 0l8.614-8.612 8.61 8.613a.714.714 0 0 0 1.01 0l1.595-1.595a.715.715 0 0 0 0-1.01l-8.61-8.613 8.613-8.611a.714.714 0 0 0 0-1.01l-1.595-1.595a.714.714 0 0 0-1.01 0l-8.612 8.61z" clip-rule="evenodd"/></mask><path fill="url(#p)" fill-rule="evenodd" d="M27.96 25.353a.714.714 0 0 0-1.01 0l-1.595 1.595a.715.715 0 0 0 0 1.01l8.612 8.615-8.614 8.612a.714.714 0 0 0 0 1.01l1.595 1.595a.714.714 0 0 0 1.01 0l8.614-8.612 8.61 8.613a.714.714 0 0 0 1.01 0l1.595-1.595a.715.715 0 0 0 0-1.01l-8.61-8.613 8.613-8.611a.714.714 0 0 0 0-1.01l-1.595-1.595a.714.714 0 0 0-1.01 0l-8.612 8.61z" clip-rule="evenodd"/><path fill="#000" d="m26.95 25.353 1.515 1.514zm1.01 0-1.516 1.514zm-2.605 1.595-1.516-1.515zm0 1.01 1.515-1.515zm8.612 8.615 1.516 1.515 1.515-1.515-1.515-1.515zm-8.614 8.612-1.515-1.515zm0 1.01-1.515 1.516zm1.595 1.595 1.515-1.515zm1.01 0 1.516 1.516zm8.614-8.612 1.515-1.515-1.515-1.515-1.515 1.515zm8.61 8.613-1.515 1.515zm1.01 0 1.516 1.515zm1.595-1.595-1.515-1.515zm0-1.01L46.272 46.7zm-8.61-8.613-1.515-1.515-1.515 1.515 1.515 1.515zm8.613-8.611 1.516 1.515zm0-1.01 1.516-1.516zm-1.595-1.595 1.516-1.515zm-1.01 0-1.515-1.515zm-8.612 8.61-1.516 1.516 1.515 1.515 1.516-1.515zm-8.108-7.1a1.43 1.43 0 0 1-2.02 0l3.03-3.03a2.857 2.857 0 0 0-4.041 0zm-1.595 1.596 1.595-1.596-3.031-3.03-1.595 1.596zm0-2.02a1.43 1.43 0 0 1 0 2.02l-3.03-3.03a2.857 2.857 0 0 0 0 4.04zm8.613 8.615-8.613-8.615-3.03 3.03 8.612 8.615zM26.868 46.7l8.615-8.613-3.03-3.03-8.615 8.612zm0-2.02a1.43 1.43 0 0 1 0 2.02l-3.03-3.031a2.857 2.857 0 0 0 0 4.04zm1.595 1.594-1.595-1.595-3.03 3.03 1.595 1.596zm-2.02 0a1.43 1.43 0 0 1 2.02 0l-3.03 3.03a2.857 2.857 0 0 0 4.04 0zm8.614-8.612-8.614 8.612 3.03 3.03 8.614-8.611zm11.64 8.613-8.61-8.613-3.03 3.03 8.61 8.613zm-2.02 0a1.43 1.43 0 0 1 2.02 0l-3.03 3.03a2.857 2.857 0 0 0 4.04 0zm1.595-1.595-1.595 1.595 3.03 3.03 1.596-1.595zm0 2.02a1.43 1.43 0 0 1 0-2.02l3.03 3.03a2.857 2.857 0 0 0 0-4.04zm-8.61-8.613 8.61 8.612 3.03-3.03-8.61-8.612zm8.613-11.642-8.613 8.612 3.03 3.03 8.614-8.611zm0 2.021a1.43 1.43 0 0 1 0-2.02l3.03 3.03a2.857 2.857 0 0 0 0-4.04zm-1.595-1.595 1.595 1.595 3.03-3.03-1.594-1.596zm2.02 0a1.43 1.43 0 0 1-2.02 0l3.03-3.03a2.857 2.857 0 0 0-4.04 0zm-8.612 8.611 8.612-8.61-3.03-3.032-8.613 8.612zm-11.644-8.615 8.613 8.615 3.031-3.03-8.613-8.616z" mask="url(#q)"/></g></g></g><rect width="53.9" height="53.9" x="1.05" y="1.05" stroke="#fff" stroke-opacity=".15" stroke-width="2.1" rx="7.35"/><defs><linearGradient id="b" x1="28" x2="28" y1="0" y2="56" gradientUnits="userSpaceOnUse"><stop stop-color="#2c1b1b"/><stop offset="1" stop-color="#1f1414"/></linearGradient><linearGradient id="d" x1="7.176" x2="48.047" y1="7.571" y2="49.289" gradientUnits="userSpaceOnUse"><stop offset=".15" stop-color="#25b8ff"/><stop offset=".85" stop-color="#fa02ff"/></linearGradient><linearGradient id="e" x1="7.176" x2="48.047" y1="7.571" y2="49.289" gradientUnits="userSpaceOnUse"><stop offset=".15" stop-color="#25b8ff"/><stop offset=".85" stop-color="#fa02ff"/></linearGradient><linearGradient id="f" x1="7.176" x2="48.046" y1="7.571" y2="49.289" gradientUnits="userSpaceOnUse"><stop offset=".15" stop-color="#25b8ff"/><stop offset=".85" stop-color="#fa02ff"/></linearGradient><linearGradient id="g" x1="7.176" x2="48.047" y1="7.571" y2="49.289" gradientUnits="userSpaceOnUse"><stop offset=".15" stop-color="#25b8ff"/><stop offset=".85" stop-color="#fa02ff"/></linearGradient><linearGradient id="h" x1="7.176" x2="48.047" y1="7.571" y2="49.289" gradientUnits="userSpaceOnUse"><stop offset=".15" stop-color="#25b8ff"/><stop offset=".85" stop-color="#fa02ff"/></linearGradient><linearGradient id="i" x1="7.176" x2="48.046" y1="7.571" y2="49.289" gradientUnits="userSpaceOnUse"><stop offset=".15" stop-color="#25b8ff"/><stop offset=".85" stop-color="#fa02ff"/></linearGradient><linearGradient id="j" x1="7.176" x2="48.046" y1="7.571" y2="49.289" gradientUnits="userSpaceOnUse"><stop offset=".15" stop-color="#25b8ff"/><stop offset=".85" stop-color="#fa02ff"/></linearGradient><linearGradient id="k" x1="7.176" x2="48.047" y1="7.571" y2="49.289" gradientUnits="userSpaceOnUse"><stop offset=".15" stop-color="#25b8ff"/><stop offset=".85" stop-color="#fa02ff"/></linearGradient><linearGradient id="l" x1="7.176" x2="48.047" y1="7.571" y2="49.289" gradientUnits="userSpaceOnUse"><stop offset=".15" stop-color="#25b8ff"/><stop offset=".85" stop-color="#fa02ff"/></linearGradient><linearGradient id="m" x1="7.176" x2="48.046" y1="7.571" y2="49.289" gradientUnits="userSpaceOnUse"><stop offset=".15" stop-color="#25b8ff"/><stop offset=".85" stop-color="#fa02ff"/></linearGradient><linearGradient id="n" x1="7.176" x2="48.046" y1="7.571" y2="49.289" gradientUnits="userSpaceOnUse"><stop offset=".15" stop-color="#25b8ff"/><stop offset=".85" stop-color="#fa02ff"/></linearGradient><linearGradient id="o" x1="7.176" x2="48.046" y1="7.571" y2="49.289" gradientUnits="userSpaceOnUse"><stop offset=".15" stop-color="#25b8ff"/><stop offset=".85" stop-color="#fa02ff"/></linearGradient><linearGradient id="p" x1="36.572" x2="36.572" y1="25.143" y2="48" gradientUnits="userSpaceOnUse"><stop stop-color="red"/><stop offset="1" stop-color="#c00"/></linearGradient><clipPath id="a"><rect width="56" height="56" fill="#fff" rx="8.4"/></clipPath><filter id="c" width="53.571" height="54" x="2.286" y="1.857" color-interpolation-filters="sRGB" filterUnits="userSpaceOnUse"><feFlood flood-opacity="0" result="BackgroundImageFix"/><feColorMatrix in="SourceAlpha" result="hardAlpha" values="0 0 0 0 0 0 0 0 0 0 0 0 0 0 0 0 0 0 127 0"/><feOffset/><feGaussianBlur stdDeviation="2.857"/><feComposite in2="hardAlpha" operator="out"/><feColorMatrix values="0 0 0 0 0 0 0 0 0 0 0 0 0 0 0 0 0 0 0.25 0"/><feBlend in2="BackgroundImageFix" result="effect1_dropShadow_28_3992"/><feBlend in="SourceGraphic" in2="effect1_dropShadow_28_3992" result="shape"/></filter></defs></svg>