<svg xmlns="http://www.w3.org/2000/svg" width="56" height="56" fill="none" viewBox="0 0 56 56"><g clip-path="url(#a)"><rect width="56" height="56" fill="url(#b)" rx="8.4"/><g filter="url(#c)"><path fill="#9722ff" d="M19.122 13.536a.71.71 0 0 0 .706.707h1.203v2.687h-1.203a.707.707 0 0 0 0 1.414h1.203v2.06a.626.626 0 0 1-.627.626h-2.06v-1.202a.707.707 0 0 0-1.414 0v1.202h-2.687v-1.202a.707.707 0 1 0-1.413 0v1.202h-2.06a.627.627 0 0 1-.627-.626V10.77a.626.626 0 0 1 .626-.626h9.635a.624.624 0 0 1 .627.626v2.06h-1.203a.707.707 0 0 0-.706.707"/><path fill="#dc29dd" d="M31.421 13.536a.707.707 0 0 0 .707.707h1.206v2.687h-1.202a.707.707 0 0 0 0 1.414h1.202v2.06a.627.627 0 0 1-.627.626h-9.636a.626.626 0 0 1-.626-.626v-2.06h1.201a.707.707 0 1 0 0-1.414h-1.201v-2.687h1.201a.708.708 0 1 0 0-1.414h-1.201v-2.06a.626.626 0 0 1 .626-.626h9.635a.626.626 0 0 1 .626.626v2.06H32.13a.707.707 0 0 0-.709.707"/><path fill="#27a2fd" d="M45.634 10.77v9.634a.626.626 0 0 1-.627.626h-2.06v-1.202a.707.707 0 1 0-1.414 0v1.202h-2.687v-1.202a.707.707 0 0 0-1.413 0v1.202h-2.06a.627.627 0 0 1-.627-.626v-2.06h1.202a.707.707 0 0 0 0-1.414h-1.202v-2.687h1.202a.708.708 0 0 0 0-1.414h-1.202v-2.06a.627.627 0 0 1 .626-.626h9.635a.624.624 0 0 1 .627.626"/><path fill="#dc29dd" d="M21.03 23.07v9.635a.626.626 0 0 1-.626.627h-2.06V32.13a.707.707 0 1 0-1.414 0v1.203h-2.687v-1.202a.707.707 0 1 0-1.413 0v1.202h-2.06a.626.626 0 0 1-.627-.626V23.07a.627.627 0 0 1 .626-.626h2.06v1.202a.706.706 0 1 0 1.414 0v-1.202h2.687v1.202a.707.707 0 1 0 1.414 0v-1.202h2.06a.626.626 0 0 1 .627.626"/><path fill="#27a2fd" d="M31.421 25.838a.707.707 0 0 0 .707.706h1.206v2.687h-1.202a.707.707 0 0 0 0 1.414h1.202v2.06a.626.626 0 0 1-.627.627h-2.061V32.13a.707.707 0 1 0-1.414 0v1.203h-2.687v-1.202a.708.708 0 0 0-1.414 0v1.202h-2.06a.624.624 0 0 1-.626-.626V23.07a.626.626 0 0 1 .626-.626h9.635a.627.627 0 0 1 .626.626v2.06H32.13a.71.71 0 0 0-.709.708"/><path fill="#34f" d="M45.634 23.07v9.635a.625.625 0 0 1-.627.627h-9.635a.626.626 0 0 1-.626-.627v-2.06h1.202a.707.707 0 0 0 0-1.414h-1.202v-2.687h1.202a.707.707 0 1 0 0-1.413h-1.202v-2.06a.627.627 0 0 1 .626-.627h2.06v1.202a.707.707 0 1 0 1.413 0v-1.202h2.687v1.202a.707.707 0 1 0 1.414 0v-1.202h2.06a.626.626 0 0 1 .627.626"/><path fill="#9722ff" d="M19.122 38.14a.71.71 0 0 0 .706.706h1.203v2.687h-1.203a.708.708 0 0 0 0 1.414h1.203v2.06a.626.626 0 0 1-.627.627H10.77a.627.627 0 0 1-.626-.627v-9.635a.626.626 0 0 1 .626-.626h2.06v1.201a.707.707 0 1 0 1.414 0v-1.201h2.687v1.201a.707.707 0 0 0 1.414 0v-1.201h2.06a.626.626 0 0 1 .627.626v2.059h-1.203a.707.707 0 0 0-.706.709"/><path fill="#34f" d="M33.334 35.372v9.635a.627.627 0 0 1-.627.627h-9.636a.626.626 0 0 1-.626-.627v-2.06h1.201a.708.708 0 1 0 0-1.415h-1.201v-2.686h1.201a.706.706 0 1 0 0-1.414h-1.201v-2.06a.626.626 0 0 1 .626-.626h2.06v1.201a.709.709 0 1 0 1.414 0v-1.201h2.687v1.201a.707.707 0 1 0 1.414 0v-1.201h2.06a.63.63 0 0 1 .628.626"/><path fill="#9722ff" d="m42.002 35.188-6.813 6.813a.626.626 0 0 0 0 .886l6.813 6.813a.626.626 0 0 0 .886 0l6.812-6.813a.626.626 0 0 0 0-.886l-6.812-6.813a.626.626 0 0 0-.886 0"/><g opacity=".7"><mask id="e" width="28" height="28" x="22.144" y="22.143" fill="#000" maskUnits="userSpaceOnUse"><path fill="#fff" d="M22.144 22.143h28v28h-28z"/><path fill-rule="evenodd" d="M27.96 25.352a.714.714 0 0 0-1.01 0l-1.595 1.596a.715.715 0 0 0 0 1.01l8.612 8.615-8.614 8.612a.714.714 0 0 0 0 1.01l1.595 1.595a.714.714 0 0 0 1.01 0l8.614-8.612 8.61 8.613a.714.714 0 0 0 1.01 0l1.595-1.595a.715.715 0 0 0 0-1.01l-8.61-8.613 8.613-8.611a.714.714 0 0 0 0-1.01l-1.595-1.595a.714.714 0 0 0-1.01 0l-8.612 8.61z" clip-rule="evenodd"/></mask><path fill="url(#d)" fill-rule="evenodd" d="M27.96 25.352a.714.714 0 0 0-1.01 0l-1.595 1.596a.715.715 0 0 0 0 1.01l8.612 8.615-8.614 8.612a.714.714 0 0 0 0 1.01l1.595 1.595a.714.714 0 0 0 1.01 0l8.614-8.612 8.61 8.613a.714.714 0 0 0 1.01 0l1.595-1.595a.715.715 0 0 0 0-1.01l-8.61-8.613 8.613-8.611a.714.714 0 0 0 0-1.01l-1.595-1.595a.714.714 0 0 0-1.01 0l-8.612 8.61z" clip-rule="evenodd"/><path fill="#000" d="m26.95 25.352 1.515 1.515zm1.01 0-1.516 1.515zm-2.605 1.596 1.515 1.514zm0 1.01-1.516 1.515zm8.612 8.615 1.516 1.515 1.515-1.515-1.515-1.515zm-8.614 8.612-1.515-1.515zm0 1.01-1.515 1.516zm1.595 1.595 1.515-1.515zm1.01 0 1.516 1.516zm8.614-8.612 1.515-1.515-1.515-1.515-1.515 1.515zm8.61 8.613 1.516-1.515zm1.01 0 1.516 1.515zm1.595-1.595-1.515-1.515zm0-1.01 1.516-1.516zm-8.61-8.613-1.515-1.515-1.515 1.515 1.515 1.515zm8.613-8.611 1.516 1.515zm0-1.01 1.516-1.516zm-1.595-1.595 1.516-1.516zm-1.01 0L43.67 23.84zm-8.612 8.61-1.516 1.516 1.515 1.515 1.516-1.515zm-8.108-7.1a1.43 1.43 0 0 1-2.02 0l3.03-3.03a2.857 2.857 0 0 0-4.041 0zm-1.595 1.595 1.595-1.595-3.031-3.03-1.595 1.596zm0-2.02a1.43 1.43 0 0 1 0 2.02l-3.03-3.03a2.857 2.857 0 0 0 0 4.04zm8.613 8.616-8.613-8.615-3.03 3.03 8.612 8.615zM26.868 46.7l8.615-8.613-3.03-3.03-8.615 8.612zm0-2.021a1.43 1.43 0 0 1 0 2.02l-3.03-3.03a2.857 2.857 0 0 0 0 4.04zm1.595 1.595-1.595-1.595-3.03 3.03 1.595 1.596zm-2.02 0a1.43 1.43 0 0 1 2.02 0l-3.03 3.03a2.857 2.857 0 0 0 4.04 0zm8.614-8.612-8.614 8.612 3.03 3.03 8.614-8.612zm11.64 8.613-8.61-8.613-3.03 3.03 8.61 8.613zm-2.02 0a1.43 1.43 0 0 1 2.02 0l-3.03 3.03a2.857 2.857 0 0 0 4.04 0zm1.595-1.596-1.595 1.596 3.03 3.03 1.596-1.595zm0 2.02a1.43 1.43 0 0 1 0-2.02l3.03 3.03a2.857 2.857 0 0 0 0-4.04zm-8.61-8.612 8.61 8.612 3.03-3.03-8.61-8.612zm8.613-11.642-8.613 8.612 3.03 3.03 8.614-8.611zm0 2.02a1.43 1.43 0 0 1 0-2.02l3.03 3.03a2.857 2.857 0 0 0 0-4.04zm-1.595-1.594 1.595 1.595 3.03-3.03-1.594-1.596zm2.02 0a1.43 1.43 0 0 1-2.02 0l3.03-3.03a2.857 2.857 0 0 0-4.04 0zm-8.612 8.611 8.612-8.61-3.03-3.032-8.613 8.612zm-11.644-8.616 8.613 8.616 3.031-3.03-8.613-8.616z" mask="url(#e)"/></g></g></g><rect width="53.9" height="53.9" x="1.05" y="1.05" stroke="#fff" stroke-opacity=".15" stroke-width="2.1" rx="7.35"/><defs><linearGradient id="b" x1="28" x2="28" y1="0" y2="56" gradientUnits="userSpaceOnUse"><stop stop-color="#2c1b1b"/><stop offset="1" stop-color="#1f1414"/></linearGradient><linearGradient id="d" x1="36.572" x2="36.572" y1="25.143" y2="48" gradientUnits="userSpaceOnUse"><stop stop-color="red"/><stop offset="1" stop-color="#c00"/></linearGradient><clipPath id="a"><rect width="56" height="56" fill="#fff" rx="8.4"/></clipPath><filter id="c" width="53.571" height="53.571" x="2.286" y="2.286" color-interpolation-filters="sRGB" filterUnits="userSpaceOnUse"><feFlood flood-opacity="0" result="BackgroundImageFix"/><feColorMatrix in="SourceAlpha" result="hardAlpha" values="0 0 0 0 0 0 0 0 0 0 0 0 0 0 0 0 0 0 127 0"/><feOffset/><feGaussianBlur stdDeviation="2.857"/><feComposite in2="hardAlpha" operator="out"/><feColorMatrix values="0 0 0 0 0 0 0 0 0 0 0 0 0 0 0 0 0 0 0.25 0"/><feBlend in2="BackgroundImageFix" result="effect1_dropShadow_28_3952"/><feBlend in="SourceGraphic" in2="effect1_dropShadow_28_3952" result="shape"/></filter></defs></svg>