<svg xmlns="http://www.w3.org/2000/svg" width="56" height="56" fill="none" viewBox="0 0 56 56"><g clip-path="url(#a)"><rect width="56" height="56" fill="url(#b)" rx="8.4"/><g filter="url(#c)"><g fill="#f7cf0d" clip-path="url(#d)"><path d="M46 8H10c-1.1 0-2 .9-2 2v36c0 1.1.9 2 2 2h3.22c-.34-9.14-.02-10.5.62-11.4.78-1.12 1.1-1.26 2.28-2.2 1-.8.64-2.1-.08-3.04-.44-.58-1.06-1.26-1.54-1.92-.3-.44.44-3.02.72-3.96s.76-4 4.96-4.82c1.58-.32 5.92-.54 8.9-.36-.02-.12-.06-.26-.08-.4-.06-.24-.1-.5-.16-.78-.06-.26-.12-.54-.18-.82s-.14-.56-.2-.86c-.08-.3-.14-.58-.24-.88q-.24-.9-.6-1.74c-.12-.28-.24-.54-.38-.78-.14-.22-.28-.42-.4-.5-.02-.02-.04-.04-.06-.04h-.02.04s.02 0 0 0l-.06-.02h-.04l-.08-.02h-.1a6 6 0 0 0-.84 0c-.58.04-1.2.16-1.8.3s-1.18.32-1.74.48c-.24.08-.46.16-.68.22.02.18.04.34.04.52 0 2.6-2.1 4.7-4.7 4.7s-4.68-2.1-4.68-4.7 2.1-4.7 4.7-4.7c1.74 0 3.26.94 4.08 2.36.2-.08.42-.16.64-.24.56-.22 1.18-.44 1.82-.64.66-.2 1.34-.4 2.1-.5.38-.06.78-.08 1.22-.06h.16c.06 0 .12.02.16.02h.14l.06.02h.02l.06.02s.04 0 .06.02l.08.02c.12.04.18.06.26.1s.14.06.22.1c.14.08.26.16.38.24q.33.27.54.54c.16.18.28.36.4.54.24.36.42.7.58 1.04.32.68.58 1.36.78 2l.3.96c.1.32.16.62.24.92.04.14.08.3.1.44.04.14.06.28.1.42.06.28.12.56.18.82.08.4.14.78.2 1.12 4.48.44 7.9 1.02 9.44 2.56 2.26 2.2 4 12.2 2.86 24.9h2c1.1 0 2-.9 2-2V10c0-1.1-.9-2-2-2"/><path d="M26.28 36.16c-.26.72-.48 9.14 2 9.14s2.5-8.64 2.42-9.14c-.08-.48-4.16-.7-4.42 0M23 28c-1.7-.24-2.72 8.04-.34 8.52 2.24.44 2.02-8.28.34-8.52m11.16 0c-1.7-.24-2.72 8.04-.34 8.52 2.24.44 2.04-8.28.34-8.52"/></g><g opacity=".7"><mask id="f" width="28" height="28" x="22.144" y="22.143" fill="#000" maskUnits="userSpaceOnUse"><path fill="#fff" d="M22.144 22.143h28v28h-28z"/><path fill-rule="evenodd" d="M27.96 25.352a.714.714 0 0 0-1.01 0l-1.595 1.596a.715.715 0 0 0 0 1.01l8.612 8.615-8.614 8.612a.714.714 0 0 0 0 1.01l1.595 1.595a.714.714 0 0 0 1.01 0l8.614-8.612 8.61 8.613a.714.714 0 0 0 1.01 0l1.595-1.595a.715.715 0 0 0 0-1.01l-8.61-8.613 8.613-8.611a.714.714 0 0 0 0-1.01l-1.595-1.595a.715.715 0 0 0-1.01 0l-8.612 8.61z" clip-rule="evenodd"/></mask><path fill="url(#e)" fill-rule="evenodd" d="M27.96 25.352a.714.714 0 0 0-1.01 0l-1.595 1.596a.715.715 0 0 0 0 1.01l8.612 8.615-8.614 8.612a.714.714 0 0 0 0 1.01l1.595 1.595a.714.714 0 0 0 1.01 0l8.614-8.612 8.61 8.613a.714.714 0 0 0 1.01 0l1.595-1.595a.715.715 0 0 0 0-1.01l-8.61-8.613 8.613-8.611a.714.714 0 0 0 0-1.01l-1.595-1.595a.715.715 0 0 0-1.01 0l-8.612 8.61z" clip-rule="evenodd"/><path fill="#000" d="m26.95 25.352 1.515 1.515zm1.01 0-1.516 1.515zm-2.605 1.596-1.516-1.515zm0 1.01 1.515-1.515zm8.612 8.615 1.516 1.515 1.515-1.515-1.515-1.515zm-8.614 8.612-1.515-1.515zm0 1.01-1.515 1.516zm1.595 1.595 1.515-1.515zm1.01 0 1.516 1.516zm8.614-8.612 1.515-1.515-1.515-1.515-1.515 1.515zm8.61 8.613-1.515 1.515zm1.01 0 1.516 1.515zm1.595-1.595-1.515-1.515zm0-1.01L46.272 46.7zm-8.61-8.613-1.515-1.515-1.515 1.515 1.515 1.515zm8.613-8.611 1.516 1.515zm0-1.01 1.516-1.516zm-1.595-1.595 1.516-1.516zm-1.01 0L43.67 23.84zm-8.612 8.61-1.516 1.516 1.515 1.515 1.516-1.515zm-8.108-7.1a1.43 1.43 0 0 1-2.02 0l3.03-3.03a2.857 2.857 0 0 0-4.041 0zm-1.595 1.596 1.595-1.596-3.031-3.03-1.595 1.596zm0-2.02a1.43 1.43 0 0 1 0 2.02l-3.03-3.03a2.857 2.857 0 0 0 0 4.04zm8.613 8.615-8.613-8.615-3.03 3.03 8.612 8.615zM26.868 46.7l8.615-8.613-3.03-3.03-8.615 8.612zm0-2.021a1.43 1.43 0 0 1 0 2.02l-3.03-3.03a2.857 2.857 0 0 0 0 4.04zm1.595 1.595-1.595-1.595-3.03 3.03 1.595 1.596zm-2.02 0a1.43 1.43 0 0 1 2.02 0l-3.03 3.03a2.857 2.857 0 0 0 4.04 0zm8.614-8.612-8.614 8.612 3.03 3.03 8.614-8.612zm11.64 8.613-8.61-8.613-3.03 3.03 8.61 8.613zm-2.02 0a1.43 1.43 0 0 1 2.02 0l-3.03 3.03a2.857 2.857 0 0 0 4.04 0zm1.595-1.596-1.595 1.596 3.03 3.03 1.596-1.595zm0 2.02a1.43 1.43 0 0 1 0-2.02l3.03 3.03a2.857 2.857 0 0 0 0-4.04zm-8.61-8.612 8.61 8.612 3.03-3.03-8.61-8.612zm8.613-11.642-8.613 8.612 3.03 3.03 8.614-8.611zm0 2.02a1.43 1.43 0 0 1 0-2.02l3.03 3.031a2.857 2.857 0 0 0 0-4.04zm-1.595-1.594 1.595 1.595 3.03-3.03-1.594-1.596zm2.02 0a1.43 1.43 0 0 1-2.02 0l3.03-3.03a2.86 2.86 0 0 0-4.04 0zm-8.612 8.611 8.612-8.61-3.03-3.032-8.613 8.612zm-11.644-8.615 8.613 8.615 3.031-3.03-8.613-8.616z" mask="url(#f)"/></g></g></g><rect width="53.9" height="53.9" x="1.05" y="1.05" stroke="#fff" stroke-opacity=".15" stroke-width="2.1" rx="7.35"/><defs><linearGradient id="b" x1="28" x2="28" y1="0" y2="56" gradientUnits="userSpaceOnUse"><stop stop-color="#2c1b1b"/><stop offset="1" stop-color="#1f1414"/></linearGradient><linearGradient id="e" x1="36.572" x2="36.572" y1="25.143" y2="48" gradientUnits="userSpaceOnUse"><stop stop-color="red"/><stop offset="1" stop-color="#c00"/></linearGradient><clipPath id="a"><rect width="56" height="56" fill="#fff" rx="8.4"/></clipPath><clipPath id="d"><path fill="#fff" d="M8 8h40v40H8z"/></clipPath><filter id="c" width="53.571" height="53.571" x="2.286" y="2.286" color-interpolation-filters="sRGB" filterUnits="userSpaceOnUse"><feFlood flood-opacity="0" result="BackgroundImageFix"/><feColorMatrix in="SourceAlpha" result="hardAlpha" values="0 0 0 0 0 0 0 0 0 0 0 0 0 0 0 0 0 0 127 0"/><feOffset/><feGaussianBlur stdDeviation="2.857"/><feComposite in2="hardAlpha" operator="out"/><feColorMatrix values="0 0 0 0 0 0 0 0 0 0 0 0 0 0 0 0 0 0 0.25 0"/><feBlend in2="BackgroundImageFix" result="effect1_dropShadow_28_4010"/><feBlend in="SourceGraphic" in2="effect1_dropShadow_28_4010" result="shape"/></filter></defs></svg>