<svg xmlns="http://www.w3.org/2000/svg" width="56" height="56" fill="none" viewBox="0 0 56 56"><g clip-path="url(#a)"><rect width="56" height="56" fill="url(#b)" rx="8.4"/><g filter="url(#c)"><path fill="#fff" d="M13.263 37.793c-.286.097-.562.208-.865.206a1.96 1.96 0 0 1-1.476-.711 29 29 0 0 1-1.028-1.271c-.82-1.094-1.597-2.218-2.405-3.32-.361-.494-.764-.956-1.128-1.447-.378-.51-.73-1.038-1.099-1.555-.04-.056-.12-.063-.12-.131q0-.38.009-.763c.006-.248.14-.46.307-.643q.04-.043.07-.093c.23-.404.423-.83.649-1.238 1.046-1.886 2.082-3.777 3.159-5.646.245-.425.347-.993.876-1.203.335-.133.697-.204 1.053-.28q1.824-.387 3.652-.756c1.318-.266 2.64-.523 3.958-.791.12-.025.188-.151.31-.15q.291 0 .586.003c.372.007.737.147 1.009.4q.111.102.2.218a87 87 0 0 1 1.707 2.38c.218.313.45.463.873.462 7.5-.018 14.998-.013 22.497-.013.626 0 1.022.375 1.023.968.002.632-.376.993-1.037.993H35.58c-.184 0-.368-.006-.55 0-.497.02-1.007.396-1.09.797-.114.551.154 1.05.694 1.26.126.049.274.058.411.058q3.58.006 7.159.001c.855-.001 1.303.737.999 1.459-.196.464-.623.574-1.07.578-1.337.011-2.675.004-4.012.004H31.2c-.61 0-.99.432-1.05 1.027-.058.574.604 1.099 1.245 1.097 5.94-.012 11.878-.007 17.817-.007.578 0 1.188-.108 1.573.488a.025.025 0 0 0 .035.007.024.024 0 0 1 .037.02c0 .241-.001.483-.015.742a.43.43 0 0 1-.172.315c-.285.216-.534.41-.947.407-3.644-.033-7.288-.018-10.932-.018-.688 0-1.22.46-1.233 1.046-.012.541.444 1.092 1.202 1.08 1.809-.027 3.618-.005 5.427-.01.864-.002 1.245.786 1.009 1.363-.187.458-.542.678-1.189.678l-21.708.001c-.128 0-.315-.033-.375.036-.348.398-.851.406-1.293.497-2.426.5-4.86.954-7.29 1.434zm6.112-17.922c-.402-.185-.903.064-1.163.421-.23.314-.412.664-.6 1.007-.75 1.358-1.48 2.728-2.251 4.074-.214.373-.5.745-.844.992-.289.208-.703.26-1.072.336-1.813.376-3.63.735-5.445 1.104-.382.078-.644.323-.724.69-.094.434-.01.831.397 1.119.4.282.796.164 1.216.077a295 295 0 0 1 5.041-1.008c.63-.119 1.236.018 1.637.544 1.123 1.477 2.213 2.979 3.316 4.47.367.496.943.608 1.428.279.431-.294.564-.984.237-1.437a351 351 0 0 0-3.025-4.114c-.373-.5-.674-1.015-.491-1.658.081-.285.24-.55.383-.813.516-.94 1.048-1.871 1.559-2.814.371-.685.744-1.372 1.066-2.08.163-.362-.032-.703-.317-.948a1.5 1.5 0 0 0-.348-.241"/><path fill="#fff" d="M44.554 26.108c.427-.544.753-.668 1.248-.5.428.146.733.66.648 1.092-.1.503-.633.93-1.084.867-.504-.07-.885-.49-.88-.982.003-.149.039-.298.068-.477"/><g opacity=".7"><mask id="e" width="28" height="28" x="22.144" y="22.143" fill="#000" maskUnits="userSpaceOnUse"><path fill="#fff" d="M22.144 22.143h28v28h-28z"/><path fill-rule="evenodd" d="M27.96 25.352a.714.714 0 0 0-1.01 0l-1.595 1.596a.715.715 0 0 0 0 1.01l8.612 8.615-8.614 8.612a.714.714 0 0 0 0 1.01l1.595 1.595a.714.714 0 0 0 1.01 0l8.614-8.612 8.61 8.613a.714.714 0 0 0 1.01 0l1.595-1.595a.715.715 0 0 0 0-1.01l-8.61-8.613 8.613-8.611a.714.714 0 0 0 0-1.01l-1.595-1.595a.715.715 0 0 0-1.01 0l-8.612 8.61z" clip-rule="evenodd"/></mask><path fill="url(#d)" fill-rule="evenodd" d="M27.96 25.352a.714.714 0 0 0-1.01 0l-1.595 1.596a.715.715 0 0 0 0 1.01l8.612 8.615-8.614 8.612a.714.714 0 0 0 0 1.01l1.595 1.595a.714.714 0 0 0 1.01 0l8.614-8.612 8.61 8.613a.714.714 0 0 0 1.01 0l1.595-1.595a.715.715 0 0 0 0-1.01l-8.61-8.613 8.613-8.611a.714.714 0 0 0 0-1.01l-1.595-1.595a.715.715 0 0 0-1.01 0l-8.612 8.61z" clip-rule="evenodd"/><path fill="#000" d="m26.95 25.352 1.515 1.515zm1.01 0-1.516 1.515zm-2.605 1.596 1.515 1.515zm0 1.01-1.516 1.515zm8.612 8.615 1.516 1.515 1.515-1.515-1.515-1.515zm-8.614 8.612-1.515-1.515zm0 1.01-1.515 1.516zm1.595 1.595 1.515-1.515zm1.01 0 1.516 1.516zm8.614-8.612 1.515-1.515-1.515-1.515-1.515 1.515zm8.61 8.613-1.515 1.515zm1.01 0 1.516 1.515zm1.595-1.595-1.515-1.515zm0-1.01L46.272 46.7zm-8.61-8.613-1.515-1.515-1.515 1.515 1.515 1.515zm8.613-8.611 1.516 1.515zm0-1.01 1.516-1.516zm-1.595-1.595 1.516-1.516zm-1.01 0L43.67 23.84zm-8.612 8.61-1.516 1.516 1.515 1.515 1.516-1.515zm-8.108-7.1a1.43 1.43 0 0 1-2.02 0l3.03-3.03a2.857 2.857 0 0 0-4.041 0zm-1.595 1.596 1.595-1.596-3.031-3.03-1.595 1.596zm0-2.02a1.43 1.43 0 0 1 0 2.02l-3.03-3.03a2.857 2.857 0 0 0 0 4.04zm8.613 8.615-8.613-8.615-3.03 3.03 8.612 8.615zM26.868 46.7l8.615-8.613-3.03-3.03-8.615 8.612zm0-2.021a1.43 1.43 0 0 1 0 2.02l-3.03-3.03a2.857 2.857 0 0 0 0 4.04zm1.595 1.595-1.595-1.595-3.03 3.03 1.595 1.596zm-2.02 0a1.43 1.43 0 0 1 2.02 0l-3.03 3.03a2.857 2.857 0 0 0 4.04 0zm8.614-8.612-8.614 8.612 3.03 3.03 8.614-8.612zm11.64 8.613-8.61-8.613-3.03 3.03 8.61 8.613zm-2.02 0a1.43 1.43 0 0 1 2.02 0l-3.03 3.03a2.857 2.857 0 0 0 4.04 0zm1.595-1.596-1.595 1.596 3.03 3.03 1.596-1.595zm0 2.02a1.43 1.43 0 0 1 0-2.02l3.03 3.03a2.857 2.857 0 0 0 0-4.04zm-8.61-8.612 8.61 8.612 3.03-3.03-8.61-8.612zm8.613-11.642-8.613 8.612 3.03 3.03 8.614-8.611zm0 2.02a1.43 1.43 0 0 1 0-2.02l3.03 3.031a2.857 2.857 0 0 0 0-4.04zm-1.595-1.594 1.595 1.595 3.03-3.03-1.594-1.596zm2.02 0a1.43 1.43 0 0 1-2.02 0l3.03-3.03a2.86 2.86 0 0 0-4.04 0zm-8.612 8.611 8.612-8.61-3.03-3.032-8.613 8.612zm-11.644-8.615 8.613 8.615 3.031-3.03-8.613-8.616z" mask="url(#e)"/></g></g></g><rect width="53.9" height="53.9" x="1.05" y="1.05" stroke="#fff" stroke-opacity=".15" stroke-width="2.1" rx="7.35"/><defs><linearGradient id="b" x1="28" x2="28" y1="0" y2="56" gradientUnits="userSpaceOnUse"><stop stop-color="#2c1b1b"/><stop offset="1" stop-color="#1f1414"/></linearGradient><linearGradient id="d" x1="36.572" x2="36.572" y1="25.143" y2="48" gradientUnits="userSpaceOnUse"><stop stop-color="red"/><stop offset="1" stop-color="#c00"/></linearGradient><clipPath id="a"><rect width="56" height="56" fill="#fff" rx="8.4"/></clipPath><filter id="c" width="57.143" height="53.571" x="-.572" y="2.286" color-interpolation-filters="sRGB" filterUnits="userSpaceOnUse"><feFlood flood-opacity="0" result="BackgroundImageFix"/><feColorMatrix in="SourceAlpha" result="hardAlpha" values="0 0 0 0 0 0 0 0 0 0 0 0 0 0 0 0 0 0 127 0"/><feOffset/><feGaussianBlur stdDeviation="2.857"/><feComposite in2="hardAlpha" operator="out"/><feColorMatrix values="0 0 0 0 0 0 0 0 0 0 0 0 0 0 0 0 0 0 0.25 0"/><feBlend in2="BackgroundImageFix" result="effect1_dropShadow_33_32"/><feBlend in="SourceGraphic" in2="effect1_dropShadow_33_32" result="shape"/></filter></defs></svg>