<svg xmlns="http://www.w3.org/2000/svg" width="56" height="56" fill="none" viewBox="0 0 56 56"><g clip-path="url(#a)"><rect width="56" height="56" fill="url(#b)" rx="8.4"/><g filter="url(#c)"><path fill="#fff" fill-rule="evenodd" d="M20.255 8.271c-.842.915-.161 1.425 1.904 1.426 1.876 0 3.538.257 5.373.827.715.223.718.167-.059 1.053-.862.985-1.465 1.734-1.922 2.39l-.66.945c-1.734 2.483-4.031 7.717-4.383 9.987-.02.134-.087.41-.146.611-.06.202-.169.667-.242 1.034s-.204.978-.29 1.358c-.087.38-.159.83-.16 1-.003.676-.078.755-.922.965-4.325 1.08-7.868 2.985-9.465 5.088-2.209 2.907-1.53 6.248 1.766 8.702.918.683 2.609 1.663 3.277 1.9.255.09.624.235.821.324 1.473.661 5.123 1.602 6.958 1.794.269.028.794.111 1.166.186.453.09 2.006.136 4.677.138 4.172.004 3.918.023 7.276-.554 2.323-.399 3.806-.827 6.333-1.827 6.917-2.738 8.513-8.56 3.392-12.37-2.174-1.617-5.563-3.007-8.891-3.647-.367-.07-.876-.174-1.133-.23a4.5 4.5 0 0 0-.75-.102c-.351 0-.383-.661-.12-2.481.09-.624.243-1.684.338-2.357.276-1.938.804-4.57 1.043-5.199.064-.168.093-.305.064-.305s.018-.188.102-.418c.15-.404.66-2.028.674-2.14.007-.06.248-.7.397-1.057.052-.122.245-.592.43-1.045.436-1.07 1.505-2.858 1.838-3.076 1.217-.799 4.352-1.48 6.863-1.492C47.658 9.69 48 9.544 48 8.759c0-1.168-5.603-.912-8.665.396-.153.065-.55.226-.881.358-1.936.767-4.411 6.795-5.556 13.528a49 49 0 0 0-.282 1.835c-.036.306-.11.881-.165 1.28-.511 3.67-.66 11.743-.224 12.165.273.266.816.267 1.165.004.193-.147.229-.336.277-1.483l.056-1.316 1.065.358c1.74.584 2.767 1.266 2.767 1.837 0 .72-2.212 1.856-4.638 2.38-1.265.274-2.405.487-2.638.495-2.748.092-3.529.473-2.944 1.435l.219.36.974.001c1.51.001 3.77-.342 5.584-.848.336-.094.686-.19.777-.213 1.702-.433 3.633-1.676 4.099-2.64.93-1.924-1.262-4.047-4.96-4.806-.354-.073-.36-.085-.36-.684 0-.53.025-.603.194-.552.107.032.594.162 1.083.289 8.46 2.197 8.72 7.064.505 9.458-.456.132-.956.262-1.111.288a3 3 0 0 0-.45.11c-1.855.694-9.92.694-11.775 0a3 3 0 0 0-.45-.11c-1.046-.175-2.682-.762-3.994-1.433-4.35-2.227-4.264-4.99.226-7.182 1.196-.584 1.24-.584 1.197.005-.033.453-.06.483-.812.913-2.363 1.348-2.844 3.387-1.128 4.779 1.737 1.407 4.647 1.512 4.233.151-.133-.437-.394-.64-.826-.64-1.113 0-2.779-.9-2.779-1.502 0-.205.891-1.166 1.081-1.166.06 0 .088.116.061.258-.06.315.446.965.751.965.775 0 .942-.418 1.046-2.613.078-1.66.236-3.41.416-4.616.069-.458.137-.959.151-1.112.049-.522.29-1.722.68-3.392 1.307-5.584 3.351-9.484 7.451-14.22.565-.652 1.028-1.263 1.028-1.356 0-.386-.338-.81-.748-.943-.23-.074-.469-.173-.53-.22-.788-.597-3.906-1.218-6.499-1.295L20.505 8zm14.722 1.39c-.427.112-2.273 2.957-3.35 5.163-.707 1.447-1.723 4.046-1.904 4.867-.021.1-.192.767-.377 1.483a45 45 0 0 0-.507 2.168 238 238 0 0 1-.28 1.423 12 12 0 0 0-.155 1c-.024.246-.095.746-.157 1.113-.188 1.116-.573 5.05-.63 6.45-.024.55-.098 1.931-.165 3.068-.15 2.534-.027 2.967.817 2.854.73-.098.81-.368.89-3.037a83 83 0 0 1 1.192-11.893c.324-1.857 1.304-5.38 1.824-6.561.081-.184.281-.659.445-1.057a23 23 0 0 1 1.647-3.205c.313-.51.619-1.01.68-1.112s.327-.477.591-.832c.886-1.19.588-2.193-.561-1.892m-2.918.271c-1.002.316-4.554 5.95-5.707 9.05-.373 1.005-1.01 2.924-1.197 3.614-.367 1.347-.684 2.65-.811 3.337a78 78 0 0 1-.284 1.445 28 28 0 0 0-.265 1.557c-.238 1.732-.383 2.931-.376 3.103.004.098-.06.783-.143 1.524-.402 3.608-.228 4.986.628 4.961.61-.017.755-.277.817-1.47.11-2.126.454-5.974.625-7.006.056-.336.121-.815.145-1.064.024-.248.1-.724.167-1.056.572-2.807.623-3.046.79-3.672.79-2.96 1.669-5.326 2.808-7.545.66-1.288 2.418-3.968 3.104-4.734.841-.94.962-1.415.481-1.896-.299-.299-.301-.299-.782-.148m4.09 21.408c2.623.615 5.128 1.59 7.175 2.793 2.344 1.377 3.529 3.892 2.697 5.728-1.068 2.358-5.574 4.949-9.912 5.7-.212.036-.56.11-.773.165-.403.102-1.193.226-3 .47-.66.09-2.285.144-4.332.144-2.048 0-3.674-.054-4.333-.144-1.807-.244-2.596-.368-3-.47a12 12 0 0 0-.773-.166c-1.413-.244-3.956-1.105-5.463-1.848-6.393-3.156-6.33-7.463.153-10.595 1.163-.562 3.558-1.41 4.39-1.555.437-.077.486.119.055.224-.168.041-.744.264-1.28.495-7.293 3.148-6.393 9.085 1.752 11.56.245.075.644.2.889.277.244.077.77.2 1.166.272.398.072.947.174 1.222.226 2.868.543 7.575.543 10.443 0 .275-.052.825-.154 1.222-.226s.922-.195 1.166-.272c.245-.078.645-.203.89-.277 9.686-2.96 8.688-10.307-1.723-12.679-.277-.063-.315-.092-.131-.1.142-.008.816.117 1.5.278" clip-rule="evenodd"/><g opacity=".7"><mask id="e" width="28" height="28" x="22.144" y="22.143" fill="#000" maskUnits="userSpaceOnUse"><path fill="#fff" d="M22.144 22.143h28v28h-28z"/><path fill-rule="evenodd" d="M27.96 25.353a.714.714 0 0 0-1.01 0l-1.595 1.595a.715.715 0 0 0 0 1.01l8.612 8.615-8.614 8.612a.714.714 0 0 0 0 1.01l1.595 1.595a.714.714 0 0 0 1.01 0l8.614-8.612 8.61 8.613a.714.714 0 0 0 1.01 0l1.595-1.595a.715.715 0 0 0 0-1.01l-8.61-8.613 8.613-8.611a.714.714 0 0 0 0-1.01l-1.595-1.595a.714.714 0 0 0-1.01 0l-8.612 8.61z" clip-rule="evenodd"/></mask><path fill="url(#d)" fill-rule="evenodd" d="M27.96 25.353a.714.714 0 0 0-1.01 0l-1.595 1.595a.715.715 0 0 0 0 1.01l8.612 8.615-8.614 8.612a.714.714 0 0 0 0 1.01l1.595 1.595a.714.714 0 0 0 1.01 0l8.614-8.612 8.61 8.613a.714.714 0 0 0 1.01 0l1.595-1.595a.715.715 0 0 0 0-1.01l-8.61-8.613 8.613-8.611a.714.714 0 0 0 0-1.01l-1.595-1.595a.714.714 0 0 0-1.01 0l-8.612 8.61z" clip-rule="evenodd"/><path fill="#000" d="m26.95 25.353 1.515 1.514zm1.01 0-1.516 1.514zm-2.605 1.595 1.515 1.515zm0 1.01-1.516 1.515zm8.612 8.615 1.516 1.515 1.515-1.515-1.515-1.515zm-8.614 8.612-1.515-1.515zm0 1.01-1.515 1.516zm1.595 1.595 1.515-1.515zm1.01 0 1.516 1.516zm8.614-8.612 1.515-1.515-1.515-1.515-1.515 1.515zm8.61 8.613-1.515 1.515zm1.01 0 1.516 1.515zm1.595-1.595-1.515-1.515zm0-1.01L46.272 46.7zm-8.61-8.613-1.515-1.515-1.515 1.515 1.515 1.515zm8.613-8.611 1.516 1.515zm0-1.01 1.516-1.516zm-1.595-1.595 1.516-1.515zm-1.01 0-1.515-1.515zm-8.612 8.61-1.516 1.516 1.515 1.515 1.516-1.515zm-8.108-7.1a1.43 1.43 0 0 1-2.02 0l3.03-3.03a2.857 2.857 0 0 0-4.041 0zm-1.595 1.596 1.595-1.596-3.031-3.03-1.595 1.596zm0-2.02a1.43 1.43 0 0 1 0 2.02l-3.03-3.03a2.857 2.857 0 0 0 0 4.04zm8.613 8.615-8.613-8.615-3.03 3.03 8.612 8.615zM26.868 46.7l8.615-8.613-3.03-3.03-8.615 8.612zm0-2.02a1.43 1.43 0 0 1 0 2.02l-3.03-3.031a2.857 2.857 0 0 0 0 4.04zm1.595 1.594-1.595-1.595-3.03 3.03 1.595 1.596zm-2.02 0a1.43 1.43 0 0 1 2.02 0l-3.03 3.03a2.857 2.857 0 0 0 4.04 0zm8.614-8.612-8.614 8.612 3.03 3.03 8.614-8.611zm11.64 8.613-8.61-8.613-3.03 3.03 8.61 8.613zm-2.02 0a1.43 1.43 0 0 1 2.02 0l-3.03 3.03a2.857 2.857 0 0 0 4.04 0zm1.595-1.595-1.595 1.595 3.03 3.03 1.596-1.595zm0 2.02a1.43 1.43 0 0 1 0-2.02l3.03 3.03a2.857 2.857 0 0 0 0-4.04zm-8.61-8.613 8.61 8.612 3.03-3.03-8.61-8.612zm8.613-11.642-8.613 8.612 3.03 3.03 8.614-8.611zm0 2.021a1.43 1.43 0 0 1 0-2.02l3.03 3.03a2.857 2.857 0 0 0 0-4.04zm-1.595-1.595 1.595 1.595 3.03-3.03-1.594-1.596zm2.02 0a1.43 1.43 0 0 1-2.02 0l3.03-3.03a2.857 2.857 0 0 0-4.04 0zm-8.612 8.611 8.612-8.61-3.03-3.032-8.613 8.612zm-11.644-8.615 8.613 8.615 3.031-3.03-8.613-8.616z" mask="url(#e)"/></g></g></g><rect width="53.9" height="53.9" x="1.05" y="1.05" stroke="#fff" stroke-opacity=".15" stroke-width="2.1" rx="7.35"/><defs><linearGradient id="b" x1="28" x2="28" y1="0" y2="56" gradientUnits="userSpaceOnUse"><stop stop-color="#2c1b1b"/><stop offset="1" stop-color="#1f1414"/></linearGradient><linearGradient id="d" x1="36.572" x2="36.572" y1="25.143" y2="48" gradientUnits="userSpaceOnUse"><stop stop-color="red"/><stop offset="1" stop-color="#c00"/></linearGradient><clipPath id="a"><rect width="56" height="56" fill="#fff" rx="8.4"/></clipPath><filter id="c" width="53.571" height="53.571" x="2.286" y="2.286" color-interpolation-filters="sRGB" filterUnits="userSpaceOnUse"><feFlood flood-opacity="0" result="BackgroundImageFix"/><feColorMatrix in="SourceAlpha" result="hardAlpha" values="0 0 0 0 0 0 0 0 0 0 0 0 0 0 0 0 0 0 127 0"/><feOffset/><feGaussianBlur stdDeviation="2.857"/><feComposite in2="hardAlpha" operator="out"/><feColorMatrix values="0 0 0 0 0 0 0 0 0 0 0 0 0 0 0 0 0 0 0.25 0"/><feBlend in2="BackgroundImageFix" result="effect1_dropShadow_33_25"/><feBlend in="SourceGraphic" in2="effect1_dropShadow_33_25" result="shape"/></filter></defs></svg>