<svg xmlns="http://www.w3.org/2000/svg" width="186" height="40" fill="none" viewBox="0 0 186 40"><g clip-path="url(#a)"><rect width="186.001" height="40.001" fill="url(#b)" rx="8"/><g filter="url(#c)"><g clip-path="url(#d)"><path fill="#ffc4c4" d="M8 6h28.001v28.001H8z"/><mask id="e" width="28" height="25" x="9" y="9" maskUnits="userSpaceOnUse" style="mask-type:alpha"><path fill="#d9d9d9" d="m9.864 13.473 22.85-3.939 3.507 20.351-22.85 3.939z"/></mask><g mask="url(#e)"><rect width="5.125" height="19.661" x="17.443" y="9.158" fill="#fff" fill-opacity=".3" stroke="#000" stroke-width="1.75" rx="2.563" transform="rotate(-9.777 17.443 9.158)"/></g><mask id="f" width="7" height="19" x="18" y="9" maskUnits="userSpaceOnUse" style="mask-type:alpha"><rect width="3.375" height="18.165" x="18.411" y="9.621" fill="#fff" rx="1.688" transform="rotate(-9.777 18.41 9.621)"/></mask><g mask="url(#f)"><path fill="url(#g)" d="M12.685 14.278h20.69v15.048h-20.69z"/></g><path fill="#ff5e5e" d="m29.178 7.491 11.078 7.96-12.432 5.613z"/><path fill="#ffa337" d="m34.158 24.085 1.47 10.63-9.941-4.043z"/><path fill="#ffee57" d="m9.93 13.193 6.649 8.423-10.62 1.546z"/></g></g><g filter="url(#h)"><path fill="#e8e8e8" d="M43.36 26.5V14.138h4.528q1.315 0 2.179.435.863.429 1.292 1.165.428.73.428 1.648 0 .773-.283 1.304-.285.525-.761.845a3.4 3.4 0 0 1-1.038.459v.12q.615.03 1.2.4.592.361.979 1.031.386.67.386 1.63 0 .948-.447 1.703-.44.748-1.364 1.189-.923.435-2.36.435zm1.865-1.6h2.693q1.34 0 1.92-.518a1.67 1.67 0 0 0 .579-1.298q0-.585-.296-1.075a2.1 2.1 0 0 0-.845-.779q-.543-.29-1.292-.29h-2.759zm0-5.414h2.5q.627 0 1.128-.242.507-.24.803-.676.302-.441.302-1.038 0-.767-.537-1.286-.537-.52-1.648-.52h-2.548zm14.987 3.17v-5.428h1.81v9.273h-1.774v-1.606h-.096a2.9 2.9 0 0 1-1.027 1.237q-.7.49-1.745.49-.892 0-1.581-.393-.682-.399-1.075-1.177-.386-.78-.386-1.926v-5.898h1.805v5.68q0 .95.525 1.51.525.561 1.364.561.508 0 1.009-.253.506-.255.839-.767.338-.513.332-1.304m4.236 3.845v-9.273h1.805V26.5zm.912-10.704q-.471 0-.81-.314a1.02 1.02 0 0 1-.331-.76q0-.447.332-.761.338-.32.809-.32.47 0 .803.32a1 1 0 0 1 .338.76q0 .441-.338.761-.333.315-.803.314m5.127-1.66V26.5h-1.805V14.137zm6.757 3.091v1.449h-5.065v-1.449zm-3.707-2.222h1.805v8.772q0 .526.157.79.158.261.404.357.254.09.55.09.217 0 .38-.03l.254-.048.326 1.491q-.157.06-.447.121a3.5 3.5 0 0 1-.725.072 3.2 3.2 0 0 1-1.328-.253 2.3 2.3 0 0 1-.996-.821q-.38-.555-.38-1.395zm14.108 11.682q-1.305 0-2.276-.598a4.03 4.03 0 0 1-1.509-1.672q-.537-1.074-.537-2.511 0-1.443.537-2.524t1.51-1.678 2.275-.598q1.305 0 2.276.598a4 4 0 0 1 1.51 1.678q.537 1.08.537 2.524 0 1.436-.538 2.511a4.03 4.03 0 0 1-1.509 1.672q-.972.598-2.276.598m.006-1.515q.846 0 1.4-.447.556-.447.822-1.19a4.7 4.7 0 0 0 .271-1.635q0-.888-.271-1.63-.265-.75-.821-1.202-.555-.453-1.4-.453-.853 0-1.413.453-.555.453-.828 1.202a4.8 4.8 0 0 0-.265 1.63q0 .892.266 1.636.27.742.827 1.189.561.447 1.412.447m8.136-4.178V26.5h-1.805v-9.273h1.733v1.51h.115a2.65 2.65 0 0 1 1.002-1.184q.688-.447 1.733-.447.947 0 1.66.399a2.66 2.66 0 0 1 1.104 1.17q.393.78.393 1.927V26.5h-1.805v-5.68q0-1.008-.526-1.576-.525-.573-1.442-.573-.628 0-1.117.271a1.95 1.95 0 0 0-.767.797q-.278.52-.278 1.256"/><path fill="#fff" d="M110.612 26.5H107.4l4.171-12.363h3.979l4.171 12.364h-3.211l-2.904-9.249h-.097zm-.429-4.865h6.713v2.27h-6.713zm13.675 4.999a3.4 3.4 0 0 1-1.865-.532q-.84-.531-1.341-1.593-.501-1.063-.501-2.639 0-1.636.52-2.692.519-1.056 1.358-1.564a3.47 3.47 0 0 1 1.817-.507q.73 0 1.25.254.52.247.857.64.338.392.513.815h.06v-4.679h2.952v12.364h-2.921v-1.504h-.091a2.9 2.9 0 0 1-.531.803q-.344.375-.863.604-.514.23-1.214.23m1.026-2.3q.538 0 .918-.302.38-.308.586-.864.204-.555.205-1.304 0-.76-.205-1.31-.2-.55-.586-.845a1.45 1.45 0 0 0-.918-.296q-.55 0-.929.302-.38.302-.58.851-.193.55-.193 1.298 0 .75.199 1.304.2.555.574.864.38.3.929.301m9.848 2.3a3.4 3.4 0 0 1-1.865-.532q-.84-.531-1.341-1.593-.501-1.063-.501-2.639 0-1.636.52-2.692.519-1.056 1.358-1.564a3.47 3.47 0 0 1 1.817-.507q.73 0 1.25.254.52.247.857.64.337.392.513.815h.06v-4.679h2.952V26.5h-2.921v-1.504h-.091a2.9 2.9 0 0 1-.531.803q-.345.375-.863.604-.514.23-1.214.23m1.026-2.3q.538 0 .918-.302.38-.308.586-.864.204-.555.205-1.304 0-.76-.205-1.31-.2-.55-.586-.845a1.45 1.45 0 0 0-.918-.296q-.55 0-.929.302-.38.302-.58.851-.193.55-.193 1.298 0 .75.199 1.304.2.555.574.864.38.3.929.301m6.461 2.167v-9.273h2.952v9.273zm1.479-10.354q-.621 0-1.068-.41a1.32 1.32 0 0 1-.447-1.002q0-.58.447-.99a1.5 1.5 0 0 1 1.068-.417 1.5 1.5 0 0 1 1.069.417q.447.41.447.99 0 .585-.447 1.002-.44.41-1.069.41m8.586 1.081v2.173h-5.849v-2.173zm-4.624-2.222h2.952v8.579q0 .272.085.44.09.165.259.236.17.066.405.066.169 0 .356-.03.193-.036.29-.06l.447 2.13q-.212.061-.598.152-.381.09-.912.115-1.038.048-1.781-.242a2.3 2.3 0 0 1-1.129-.918q-.386-.621-.374-1.563zm6.131 11.495v-9.273h2.952v9.273zm1.479-10.354q-.622 0-1.069-.41a1.32 1.32 0 0 1-.447-1.002q0-.58.447-.99a1.5 1.5 0 0 1 1.069-.417q.627 0 1.068.417.447.41.447.99 0 .585-.447 1.002-.441.41-1.068.41m12.347 1.081-3.182 9.273h-3.38l-3.176-9.273h3.109l1.709 6.387h.096l1.715-6.387zm5.167 9.448q-1.455 0-2.511-.574a3.97 3.97 0 0 1-1.618-1.648q-.561-1.074-.561-2.553 0-1.437.567-2.512.567-1.08 1.6-1.678 1.032-.603 2.433-.604.99 0 1.811.308.82.308 1.419.912.597.604.929 1.49.333.882.332 2.023v.737h-8.059V20.86h5.313a1.7 1.7 0 0 0-.224-.839 1.5 1.5 0 0 0-.598-.573 1.7 1.7 0 0 0-.863-.212q-.495 0-.887.224a1.64 1.64 0 0 0-.622.597q-.229.375-.242.851v1.745q0 .567.224.996.223.423.634.658.41.236.978.236.392 0 .712-.109.32-.108.549-.32.23-.21.345-.52l2.71.08a3.36 3.36 0 0 1-.742 1.587q-.568.67-1.492 1.044-.923.369-2.137.369"/></g></g><rect width="183.858" height="37.858" x="1.071" y="1.071" stroke="#fff" stroke-opacity=".15" stroke-width="2.143" rx="6.929"/><defs><linearGradient id="b" x1="93.001" x2="93.001" y1="0" y2="40.001" gradientUnits="userSpaceOnUse"><stop stop-color="#363313"/><stop offset="1" stop-color="#2d0f0f"/></linearGradient><linearGradient id="g" x1="23.03" x2="23.03" y1="14.278" y2="29.326" gradientUnits="userSpaceOnUse"><stop stop-color="#ff4d00"/><stop offset=".089" stop-color="#ff4d00"/><stop offset="1" stop-color="red"/></linearGradient><clipPath id="a"><rect width="186.001" height="40.001" fill="#fff" rx="8"/></clipPath><clipPath id="d"><rect width="28.001" height="28.001" x="8" y="6" fill="#fff" rx="14.001"/></clipPath><filter id="c" width="39.202" height="39.202" x="2.4" y=".4" color-interpolation-filters="sRGB" filterUnits="userSpaceOnUse"><feFlood flood-opacity="0" result="BackgroundImageFix"/><feColorMatrix in="SourceAlpha" result="hardAlpha" values="0 0 0 0 0 0 0 0 0 0 0 0 0 0 0 0 0 0 127 0"/><feOffset/><feGaussianBlur stdDeviation="2.8"/><feComposite in2="hardAlpha" operator="out"/><feColorMatrix values="0 0 0 0 0 0 0 0 0 0 0 0 0 0 0 0 0 0 0.25 0"/><feBlend in2="BackgroundImageFix" result="effect1_dropShadow_1_475"/><feBlend in="SourceGraphic" in2="effect1_dropShadow_1_475" result="shape"/></filter><filter id="h" width="147.429" height="32.429" x="36.287" y="3.786" color-interpolation-filters="sRGB" filterUnits="userSpaceOnUse"><feFlood flood-opacity="0" result="BackgroundImageFix"/><feColorMatrix in="SourceAlpha" result="hardAlpha" values="0 0 0 0 0 0 0 0 0 0 0 0 0 0 0 0 0 0 127 0"/><feOffset/><feGaussianBlur stdDeviation="2.857"/><feComposite in2="hardAlpha" operator="out"/><feColorMatrix values="0 0 0 0 0 0 0 0 0 0 0 0 0 0 0 0 0 0 0.25 0"/><feBlend in2="BackgroundImageFix" result="effect1_dropShadow_1_475"/><feBlend in="SourceGraphic" in2="effect1_dropShadow_1_475" result="shape"/></filter></defs></svg>