<svg xmlns="http://www.w3.org/2000/svg" width="207" height="40" fill="none" viewBox="0 0 207 40"><g clip-path="url(#a)"><rect width="207.001" height="40.001" fill="url(#b)" rx="8"/><g filter="url(#c)"><g clip-path="url(#d)"><mask id="e" width="29" height="29" x="8" y="6" maskUnits="userSpaceOnUse" style="mask-type:luminance"><path fill="#fff" d="M36.001 6H8v28.001h28.001z"/></mask><g mask="url(#e)"><path fill="#cbfff6" d="M36.001 6H8v28.001h28.001z"/><path fill="#e5ff45" d="M31.626 32.251a4.375 4.375 0 1 0 0-8.75 4.375 4.375 0 0 0 0 8.75"/><path fill="#45ff79" d="M33.376 20a6.125 6.125 0 1 0 0-12.25 6.125 6.125 0 0 0 0 12.25"/><path fill="#ffd18b" d="M11.5 23.5a5.25 5.25 0 1 0 0-10.5 5.25 5.25 0 0 0 0 10.5"/><path fill="#fff" fill-opacity=".3" stroke="#000" stroke-width="1.75" d="M25.333 16.945a2.625 2.625 0 1 0-5.071-1.36l-1.812 6.762a2.625 2.625 0 0 0 5.072 1.36z"/><path fill="#000" d="m20.925 26.634.226-.845-1.69-.453-.227.845zm-2.597 2.928a.875.875 0 1 0 1.69.453zm.906-3.38-.906 3.38 1.69.453.907-3.38z"/><path stroke="#000" stroke-linecap="square" stroke-width="1.75" d="m24.157 11.194-.453 1.69"/><path stroke="#000" stroke-linecap="round" stroke-width="1.75" d="m27.537 12.1-6.761-1.812"/><mask id="f" width="6" height="11" x="19" y="14" maskUnits="userSpaceOnUse" style="mask-type:alpha"><path fill="#fff" d="M24.488 16.718a1.75 1.75 0 1 0-3.38-.906l-1.813 6.762a1.75 1.75 0 1 0 3.381.906z"/></mask><g mask="url(#f)"><path fill="url(#g)" d="M30.416 17.866H12.915v7h17.5z"/></g></g></g></g><g filter="url(#h)"><path fill="#e8e8e8" d="M43.36 26.5V14.138h4.528q1.315 0 2.179.435.863.429 1.292 1.165.428.73.428 1.648 0 .773-.283 1.304-.285.525-.761.845a3.4 3.4 0 0 1-1.038.459v.12q.615.03 1.2.4.592.361.979 1.031.386.67.386 1.63 0 .948-.447 1.703-.44.748-1.364 1.189-.923.435-2.36.435zm1.865-1.6h2.693q1.34 0 1.92-.518a1.67 1.67 0 0 0 .579-1.298q0-.585-.296-1.075a2.1 2.1 0 0 0-.845-.779q-.543-.29-1.292-.29h-2.759zm0-5.414h2.5q.627 0 1.128-.242.507-.24.803-.676.302-.441.302-1.038 0-.767-.537-1.286-.537-.52-1.648-.52h-2.548zm14.987 3.17v-5.428h1.81v9.273h-1.774v-1.606h-.096a2.9 2.9 0 0 1-1.027 1.237q-.7.49-1.745.49-.892 0-1.581-.393-.682-.399-1.075-1.177-.386-.78-.386-1.926v-5.898h1.805v5.68q0 .95.525 1.51.525.561 1.364.561.508 0 1.009-.253.506-.255.839-.767.338-.513.332-1.304m4.236 3.845v-9.273h1.805V26.5zm.912-10.704q-.471 0-.81-.314a1.02 1.02 0 0 1-.331-.76q0-.447.332-.761.338-.32.809-.32.47 0 .803.32a1 1 0 0 1 .338.76q0 .441-.338.761-.333.315-.803.314m5.127-1.66V26.5h-1.805V14.137zm6.757 3.091v1.449h-5.065v-1.449zm-3.707-2.222h1.805v8.772q0 .526.157.79.158.261.404.357.254.09.55.09.217 0 .38-.03l.254-.048.326 1.491q-.157.06-.447.121a3.5 3.5 0 0 1-.725.072 3.2 3.2 0 0 1-1.328-.253 2.3 2.3 0 0 1-.996-.821q-.38-.555-.38-1.395zm14.108 11.682q-1.305 0-2.276-.598a4.03 4.03 0 0 1-1.509-1.672q-.537-1.074-.537-2.511 0-1.443.537-2.524t1.51-1.678 2.275-.598q1.305 0 2.276.598a4 4 0 0 1 1.51 1.678q.537 1.08.537 2.524 0 1.436-.538 2.511a4.03 4.03 0 0 1-1.509 1.672q-.972.598-2.276.598m.006-1.515q.846 0 1.4-.447.556-.447.822-1.19a4.7 4.7 0 0 0 .271-1.635q0-.888-.271-1.63-.265-.75-.821-1.202-.555-.453-1.4-.453-.853 0-1.413.453-.555.453-.828 1.202a4.8 4.8 0 0 0-.265 1.63q0 .892.266 1.636.27.742.827 1.189.561.447 1.412.447m8.136-4.178V26.5h-1.805v-9.273h1.733v1.51h.115a2.65 2.65 0 0 1 1.002-1.184q.688-.447 1.733-.447.947 0 1.66.399a2.66 2.66 0 0 1 1.104 1.17q.393.78.393 1.927V26.5h-1.805v-5.68q0-1.008-.526-1.576-.525-.573-1.442-.573-.628 0-1.117.271a1.95 1.95 0 0 0-.767.797q-.278.52-.278 1.256"/><path fill="#fff" d="M110.612 26.5H107.4l4.171-12.363h3.979l4.171 12.364h-3.211l-2.904-9.249h-.097zm-.429-4.865h6.713v2.27h-6.713zm13.675 4.999a3.4 3.4 0 0 1-1.865-.532q-.84-.531-1.341-1.593-.501-1.063-.501-2.639 0-1.636.52-2.692.519-1.056 1.358-1.564a3.47 3.47 0 0 1 1.817-.507q.73 0 1.25.254.52.247.857.64.338.392.513.815h.06v-4.679h2.952v12.364h-2.921v-1.504h-.091a2.9 2.9 0 0 1-.531.803q-.344.375-.863.604-.514.23-1.214.23m1.026-2.3q.538 0 .918-.302.38-.308.586-.864.204-.555.205-1.304 0-.76-.205-1.31-.2-.55-.586-.845a1.45 1.45 0 0 0-.918-.296q-.55 0-.929.302-.38.302-.58.851-.193.55-.193 1.298 0 .75.199 1.304.2.555.574.864.38.3.929.301m6.461 2.167v-9.273h2.868v1.69h.097q.253-.917.827-1.364a2.1 2.1 0 0 1 1.334-.453q.205 0 .422.03.218.025.405.079v2.566a3 3 0 0 0-.556-.115 5 5 0 0 0-.603-.042q-.525 0-.948.235a1.7 1.7 0 0 0-.658.646 1.9 1.9 0 0 0-.236.966V26.5zm11.009.175q-1.455 0-2.512-.574a3.97 3.97 0 0 1-1.618-1.648q-.561-1.074-.561-2.553 0-1.437.568-2.512.567-1.08 1.599-1.678 1.033-.603 2.433-.604.99 0 1.811.308t1.419.912.93 1.49q.332.882.332 2.023v.737h-8.06v-1.715h5.313a1.66 1.66 0 0 0-.224-.839 1.5 1.5 0 0 0-.597-.573 1.7 1.7 0 0 0-.863-.212q-.495 0-.888.224a1.68 1.68 0 0 0-.863 1.449v1.744q0 .567.223.996.223.423.634.658t.978.236q.393 0 .712-.109a1.5 1.5 0 0 0 .55-.32q.229-.21.344-.52l2.71.08a3.35 3.35 0 0 1-.742 1.587q-.567.67-1.491 1.044-.924.369-2.137.369m8.86-5.464V26.5h-2.952v-9.273h2.808v1.702h.102a2.6 2.6 0 0 1 1.051-1.334q.742-.489 1.768-.489.978 0 1.697.44.724.435 1.123 1.22.404.78.398 1.823v5.91h-2.952v-5.33q.006-.773-.392-1.207-.393-.435-1.093-.435-.465 0-.821.205a1.36 1.36 0 0 0-.543.574q-.188.375-.194.905m10.437 5.446q-.888 0-1.576-.296a2.45 2.45 0 0 1-1.08-.906q-.393-.609-.393-1.527 0-.773.272-1.304.271-.531.748-.863a3.5 3.5 0 0 1 1.099-.501 7 7 0 0 1 1.328-.236q.79-.072 1.274-.15.483-.086.7-.236a.51.51 0 0 0 .224-.44v-.031q0-.465-.32-.718-.32-.255-.864-.254-.585 0-.941.254a1.1 1.1 0 0 0-.453.7l-2.723-.097a3.2 3.2 0 0 1 .622-1.509q.507-.67 1.389-1.05.886-.387 2.131-.387.887 0 1.636.212.748.205 1.304.603.555.393.857.966.308.574.308 1.31V26.5h-2.777v-1.292h-.073q-.247.471-.634.797-.38.325-.899.489a3.8 3.8 0 0 1-1.159.163m.911-1.932q.477 0 .858-.193.386-.194.615-.532.23-.344.23-.797v-.88a2 2 0 0 1-.308.12q-.176.054-.386.103t-.435.084l-.429.066a2.7 2.7 0 0 0-.712.206 1.13 1.13 0 0 0-.447.362.9.9 0 0 0-.151.52q0 .457.326.7.332.24.839.24m9.388-10.589v12.364h-2.952V14.137zm1.879 12.364v-9.273h2.952v9.273zm1.479-10.354q-.622 0-1.069-.41a1.32 1.32 0 0 1-.446-1.002q0-.58.446-.99a1.5 1.5 0 0 1 1.069-.417q.628 0 1.068.417.447.41.447.99 0 .585-.447 1.002a1.5 1.5 0 0 1-1.068.41m6.304 5.065v5.289h-2.952v-9.273h2.807v1.702h.103a2.6 2.6 0 0 1 1.05-1.334q.743-.489 1.769-.489.978 0 1.696.44.724.435 1.123 1.22.405.78.399 1.823v5.91h-2.953v-5.33q.007-.773-.392-1.207-.393-.435-1.093-.435-.464 0-.821.205a1.36 1.36 0 0 0-.543.574q-.187.375-.193.905m12.157 5.464q-1.455 0-2.512-.574a3.97 3.97 0 0 1-1.618-1.648q-.561-1.074-.561-2.553 0-1.437.568-2.512.567-1.08 1.599-1.678 1.033-.603 2.433-.604.99 0 1.811.308.822.308 1.419.912t.93 1.49q.332.882.332 2.023v.737h-8.06V20.86h5.313a1.67 1.67 0 0 0-.223-.839 1.5 1.5 0 0 0-.598-.573 1.7 1.7 0 0 0-.863-.212q-.495 0-.888.224a1.68 1.68 0 0 0-.863 1.449v1.744q0 .567.223.996.223.423.634.658t.978.236q.393 0 .712-.109a1.5 1.5 0 0 0 .55-.32q.229-.21.344-.52l2.71.08a3.35 3.35 0 0 1-.742 1.587q-.567.67-1.491 1.044-.924.369-2.137.369"/></g></g><rect width="204.858" height="37.858" x="1.071" y="1.071" stroke="#fff" stroke-opacity=".15" stroke-width="2.143" rx="6.929"/><defs><linearGradient id="b" x1="103.501" x2="103.501" y1="0" y2="40.001" gradientUnits="userSpaceOnUse"><stop stop-color="#2a2e11"/><stop offset="1" stop-color="#102b17"/></linearGradient><linearGradient id="g" x1="21.665" x2="21.665" y1="17.866" y2="24.866" gradientUnits="userSpaceOnUse"><stop stop-color="#00ff19"/><stop offset="0" stop-color="#42ff00"/><stop offset="1" stop-color="#cf0"/></linearGradient><clipPath id="a"><rect width="207.001" height="40.001" fill="#fff" rx="8"/></clipPath><clipPath id="d"><rect width="28.001" height="28.001" x="8" y="6" fill="#fff" rx="14.001"/></clipPath><filter id="c" width="39.202" height="39.202" x="2.4" y=".4" color-interpolation-filters="sRGB" filterUnits="userSpaceOnUse"><feFlood flood-opacity="0" result="BackgroundImageFix"/><feColorMatrix in="SourceAlpha" result="hardAlpha" values="0 0 0 0 0 0 0 0 0 0 0 0 0 0 0 0 0 0 127 0"/><feOffset/><feGaussianBlur stdDeviation="2.8"/><feComposite in2="hardAlpha" operator="out"/><feColorMatrix values="0 0 0 0 0 0 0 0 0 0 0 0 0 0 0 0 0 0 0.25 0"/><feBlend in2="BackgroundImageFix" result="effect1_dropShadow_1_454"/><feBlend in="SourceGraphic" in2="effect1_dropShadow_1_454" result="shape"/></filter><filter id="h" width="168.429" height="32.429" x="36.287" y="3.786" color-interpolation-filters="sRGB" filterUnits="userSpaceOnUse"><feFlood flood-opacity="0" result="BackgroundImageFix"/><feColorMatrix in="SourceAlpha" result="hardAlpha" values="0 0 0 0 0 0 0 0 0 0 0 0 0 0 0 0 0 0 127 0"/><feOffset/><feGaussianBlur stdDeviation="2.857"/><feComposite in2="hardAlpha" operator="out"/><feColorMatrix values="0 0 0 0 0 0 0 0 0 0 0 0 0 0 0 0 0 0 0.25 0"/><feBlend in2="BackgroundImageFix" result="effect1_dropShadow_1_454"/><feBlend in="SourceGraphic" in2="effect1_dropShadow_1_454" result="shape"/></filter></defs></svg>