<svg xmlns="http://www.w3.org/2000/svg" width="173" height="40" fill="none" viewBox="0 0 173 40"><g clip-path="url(#a)"><rect width="173" height="40" fill="url(#b)" rx="8"/><g filter="url(#c)"><g clip-path="url(#d)"><path fill="#fff" d="M18.14 29.814c-1.25-1.156-1.616-3.586-1.095-5.346.904 1.11 2.156 1.461 3.453 1.66 2.003.306 3.97.192 5.83-.734.213-.106.41-.247.642-.39a3.5 3.5 0 0 1 .159 1.556c-.149 1.28-.78 2.27-1.782 3.02-.401.3-.826.57-1.24.852-1.273.87-1.617 1.89-1.139 3.373.012.036.022.072.047.16a3.36 3.36 0 0 1-1.486-1.285 3.64 3.64 0 0 1-.573-1.962c-.005-.346-.005-.695-.05-1.036-.113-.832-.5-1.204-1.227-1.226-.746-.022-1.337.445-1.493 1.18-.012.056-.03.112-.047.178z"/><path fill="url(#e)" d="M18.14 29.814c-1.25-1.156-1.616-3.586-1.095-5.346.904 1.11 2.156 1.461 3.453 1.66 2.003.306 3.97.192 5.83-.734.213-.106.41-.247.642-.39a3.5 3.5 0 0 1 .159 1.556c-.149 1.28-.78 2.27-1.782 3.02-.401.3-.826.57-1.24.852-1.273.87-1.617 1.89-1.139 3.373.012.036.022.072.047.16a3.36 3.36 0 0 1-1.486-1.285 3.64 3.64 0 0 1-.573-1.962c-.005-.346-.005-.695-.05-1.036-.113-.832-.5-1.204-1.227-1.226-.746-.022-1.337.445-1.493 1.18-.012.056-.03.112-.047.178z"/><path fill="#fff" d="M11 24.175s3.704-1.825 7.42-1.825l2.8-8.764c.105-.424.412-.712.757-.712s.652.288.757.712l2.801 8.764c4.4 0 7.42 1.825 7.42 1.825L26.65 6.808c-.18-.513-.486-.843-.897-.843h-7.551c-.411 0-.704.33-.897.843z"/></g></g><g filter="url(#f)"><path fill="#e8e8e8" d="M43.278 25.5V13.864h4.262q1.239 0 2.05.409.814.403 1.217 1.096.403.688.403 1.552 0 .726-.267 1.227a2.2 2.2 0 0 1-.716.795q-.442.296-.977.432v.114a2.3 2.3 0 0 1 1.13.375q.558.34.921.971.364.63.364 1.534 0 .893-.42 1.603-.415.704-1.285 1.119-.87.41-2.221.409zm1.756-1.506h2.534q1.261 0 1.807-.488.545-.489.545-1.222 0-.55-.278-1.011a2 2 0 0 0-.795-.733q-.512-.273-1.216-.273h-2.597zm0-5.096h2.352q.592 0 1.063-.227a1.86 1.86 0 0 0 .756-.637q.284-.414.284-.977 0-.722-.506-1.21-.505-.489-1.551-.489h-2.398zM59.14 21.88v-5.108h1.705V25.5h-1.67v-1.511h-.092q-.3.698-.965 1.164-.66.46-1.643.46-.84 0-1.488-.369-.642-.375-1.012-1.108-.363-.732-.363-1.812v-5.551h1.699v5.346q0 .893.494 1.42.495.53 1.284.53.477 0 .949-.24.477-.239.79-.721.318-.483.312-1.227m3.987 3.619v-8.727h1.7V25.5zm.858-10.074a1.08 1.08 0 0 1-.761-.295.96.96 0 0 1-.312-.716q0-.421.312-.716.318-.3.761-.301.444 0 .756.3a.94.94 0 0 1 .318.717.95.95 0 0 1-.318.716 1.06 1.06 0 0 1-.756.295m4.826-1.562V25.5h-1.7V13.864zm6.359 2.909v1.363h-4.767v-1.363zm-3.489-2.091h1.7v8.256q0 .493.147.744a.77.77 0 0 0 .38.335q.24.085.518.085.204 0 .358-.028l.238-.046.307 1.404a3 3 0 0 1-.42.114q-.274.062-.682.068a3 3 0 0 1-1.25-.239 2.15 2.15 0 0 1-.938-.773q-.357-.523-.358-1.312zM83.175 25.5l-2.568-8.727h1.755l1.71 6.409h.086l1.716-6.41h1.755l1.705 6.381h.085l1.699-6.38h1.756L90.31 25.5h-1.733l-1.773-6.301h-.13L84.902 25.5zm11.31 0v-8.727h1.7V25.5zm.859-10.074a1.08 1.08 0 0 1-.762-.295.96.96 0 0 1-.312-.716q0-.421.312-.716.319-.3.762-.301.443 0 .755.3a.94.94 0 0 1 .319.717.95.95 0 0 1-.319.716 1.06 1.06 0 0 1-.755.295m7.2 1.347v1.363h-4.767v-1.363zm-3.489-2.091h1.699v8.256q0 .493.148.744a.77.77 0 0 0 .381.335q.238.085.517.085a2 2 0 0 0 .358-.028l.238-.046.307 1.404a3 3 0 0 1-.42.114 3.3 3.3 0 0 1-.682.068 3 3 0 0 1-1.25-.239 2.14 2.14 0 0 1-.938-.773q-.357-.523-.358-1.312zm7.255 5.636V25.5h-1.699V13.864h1.676v4.33h.108q.306-.706.937-1.12t1.648-.415q.898 0 1.568.37.677.369 1.046 1.102.375.727.375 1.818V25.5h-1.699v-5.347q0-.96-.494-1.488-.495-.534-1.375-.534a2.25 2.25 0 0 0-1.08.255q-.471.255-.744.75-.267.489-.267 1.182"/><path fill="#fff" d="M121.61 26h-3.212l4.172-12.364h3.978L130.72 26h-3.212l-2.904-9.249h-.096zm-.429-4.866h6.714v2.27h-6.714zm18.683-1.575-2.71.072a1 1 0 0 0-.23-.513 1.2 1.2 0 0 0-.489-.356 1.7 1.7 0 0 0-.688-.133q-.513 0-.875.205-.357.205-.35.556a.6.6 0 0 0 .217.47q.229.2.815.32l1.787.338q1.388.265 2.064.882.683.616.689 1.63a2.62 2.62 0 0 1-.568 1.66q-.555.706-1.521 1.099-.966.386-2.21.386-1.986 0-3.133-.815-1.14-.821-1.304-2.197l2.916-.073q.096.507.501.773.405.265 1.032.265.569 0 .924-.21.356-.213.362-.562a.6.6 0 0 0-.277-.501q-.272-.194-.852-.302l-1.618-.308q-1.394-.253-2.076-.936-.682-.688-.676-1.75-.006-.93.495-1.588.501-.664 1.424-1.014.924-.35 2.18-.35 1.883 0 2.97.79 1.087.785 1.201 2.162m6.917-2.832v2.174h-5.85v-2.174zm-4.624-2.221h2.952v8.578q0 .272.084.44a.53.53 0 0 0 .26.236q.169.067.404.067.17 0 .357-.03.192-.038.289-.06l.447 2.13q-.211.06-.598.151-.38.09-.911.115-1.038.048-1.781-.242a2.3 2.3 0 0 1-1.129-.917q-.387-.622-.374-1.564zM148.287 26v-9.273h2.868v1.69h.096q.254-.917.827-1.364a2.1 2.1 0 0 1 1.335-.453q.204 0 .422.03.218.025.405.08v2.565a3 3 0 0 0-.556-.115 5 5 0 0 0-.603-.042q-.526 0-.948.235a1.7 1.7 0 0 0-.658.646 1.9 1.9 0 0 0-.236.966V26zm11.003.175q-1.46 0-2.512-.598a4.13 4.13 0 0 1-1.612-1.678q-.561-1.08-.561-2.505 0-1.432.561-2.505.568-1.08 1.612-1.679 1.051-.604 2.512-.604t2.505.604q1.05.598 1.612 1.678.567 1.075.567 2.506 0 1.425-.567 2.505a4.1 4.1 0 0 1-1.612 1.678q-1.044.598-2.505.598m.018-2.228q.531 0 .899-.326.369-.326.562-.905.199-.58.199-1.34 0-.773-.199-1.353-.193-.58-.562-.905a1.3 1.3 0 0 0-.899-.326 1.38 1.38 0 0 0-.93.326q-.375.326-.574.905a4.3 4.3 0 0 0-.193 1.353q0 .76.193 1.34.2.58.574.905.38.327.93.326"/></g></g><rect width="170.9" height="37.9" x="1.05" y="1.05" stroke="#fff" stroke-opacity=".15" stroke-width="2.1" rx="6.95"/><defs><linearGradient id="b" x1="69.08" x2="70.585" y1="45" y2="-3.02" gradientUnits="userSpaceOnUse"><stop stop-color="#321818"/><stop offset="1" stop-color="#4b244e"/></linearGradient><linearGradient id="e" x1="16.815" x2="28.944" y1="33.965" y2="28.297" gradientUnits="userSpaceOnUse"><stop stop-color="#d83333"/><stop offset="1" stop-color="#f041ff"/></linearGradient><clipPath id="a"><rect width="173" height="40" fill="#fff" rx="8"/></clipPath><clipPath id="d"><path fill="#fff" d="M11 5.965h22v28H11z"/></clipPath><filter id="c" width="39.429" height="39.463" x="2.286" y=".251" color-interpolation-filters="sRGB" filterUnits="userSpaceOnUse"><feFlood flood-opacity="0" result="BackgroundImageFix"/><feColorMatrix in="SourceAlpha" result="hardAlpha" values="0 0 0 0 0 0 0 0 0 0 0 0 0 0 0 0 0 0 127 0"/><feOffset/><feGaussianBlur stdDeviation="2.857"/><feComposite in2="hardAlpha" operator="out"/><feColorMatrix values="0 0 0 0 0 0 0 0 0 0 0 0 0 0 0 0 0 0 0.25 0"/><feBlend in2="BackgroundImageFix" result="effect1_dropShadow_62_65"/><feBlend in="SourceGraphic" in2="effect1_dropShadow_62_65" result="shape"/></filter><filter id="f" width="134.2" height="30.2" x="36.4" y="4.9" color-interpolation-filters="sRGB" filterUnits="userSpaceOnUse"><feFlood flood-opacity="0" result="BackgroundImageFix"/><feColorMatrix in="SourceAlpha" result="hardAlpha" values="0 0 0 0 0 0 0 0 0 0 0 0 0 0 0 0 0 0 127 0"/><feOffset/><feGaussianBlur stdDeviation="2.8"/><feComposite in2="hardAlpha" operator="out"/><feColorMatrix values="0 0 0 0 0 0 0 0 0 0 0 0 0 0 0 0 0 0 0.25 0"/><feBlend in2="BackgroundImageFix" result="effect1_dropShadow_62_65"/><feBlend in="SourceGraphic" in2="effect1_dropShadow_62_65" result="shape"/></filter></defs></svg>