<svg xmlns="http://www.w3.org/2000/svg" width="231" height="40" fill="none" viewBox="0 0 231 40"><g clip-path="url(#a)"><rect width="231.001" height="40.001" fill="url(#b)" rx="8"/><g filter="url(#c)"><mask id="e" width="33" height="25" x="5.6" y="7.6" fill="#000" maskUnits="userSpaceOnUse"><path fill="#fff" d="M5.6 7.6h33v25h-33z"/><path fill-rule="evenodd" d="M24.1 28.601v-7.595a6 6 0 0 0-1.1-.081h-1.999a6 6 0 0 0-1.1.081v7.595a2.8 2.8 0 0 1-2.8 2.8H9.4a2.8 2.8 0 0 1-2.8-2.8v-3.867a2.8 2.8 0 0 1 2.8-2.8h3.2V19.02H9.4a2.8 2.8 0 0 1-2.8-2.8v-3.867a2.8 2.8 0 0 1 2.8-2.8H14a1.4 1.4 0 1 1 0 2.8H9.4v3.867h3.2a2.8 2.8 0 0 1 2.8 2.8v2.914a2.8 2.8 0 0 1-2.8 2.8H9.4v3.867h7.7V11.905c0-.816.281-1.519.783-2.056.472-.505 1.06-.784 1.569-.945.96-.305 2.015-.304 2.506-.304h.086c.49 0 1.546 0 2.505.304.508.161 1.098.44 1.57.945.501.537.782 1.24.782 2.056v16.696h7.7v-3.867h-3.2a2.8 2.8 0 0 1-2.8-2.8V19.02a2.8 2.8 0 0 1 2.8-2.8h3.2v-3.867h-4.6a1.4 1.4 0 0 1 0-2.8h4.6a2.8 2.8 0 0 1 2.8 2.8v3.867a2.8 2.8 0 0 1-2.8 2.8h-3.2v2.914h3.2a2.8 2.8 0 0 1 2.8 2.8v3.867a2.8 2.8 0 0 1-2.8 2.8h-7.7a2.8 2.8 0 0 1-2.8-2.8m-4.5-7.51-.005.002zm4.802 0 .004.002z" clip-rule="evenodd"/></mask><path fill="url(#d)" fill-rule="evenodd" d="M24.1 28.601v-7.595a6 6 0 0 0-1.1-.081h-1.999a6 6 0 0 0-1.1.081v7.595a2.8 2.8 0 0 1-2.8 2.8H9.4a2.8 2.8 0 0 1-2.8-2.8v-3.867a2.8 2.8 0 0 1 2.8-2.8h3.2V19.02H9.4a2.8 2.8 0 0 1-2.8-2.8v-3.867a2.8 2.8 0 0 1 2.8-2.8H14a1.4 1.4 0 1 1 0 2.8H9.4v3.867h3.2a2.8 2.8 0 0 1 2.8 2.8v2.914a2.8 2.8 0 0 1-2.8 2.8H9.4v3.867h7.7V11.905c0-.816.281-1.519.783-2.056.472-.505 1.06-.784 1.569-.945.96-.305 2.015-.304 2.506-.304h.086c.49 0 1.546 0 2.505.304.508.161 1.098.44 1.57.945.501.537.782 1.24.782 2.056v16.696h7.7v-3.867h-3.2a2.8 2.8 0 0 1-2.8-2.8V19.02a2.8 2.8 0 0 1 2.8-2.8h3.2v-3.867h-4.6a1.4 1.4 0 0 1 0-2.8h4.6a2.8 2.8 0 0 1 2.8 2.8v3.867a2.8 2.8 0 0 1-2.8 2.8h-3.2v2.914h3.2a2.8 2.8 0 0 1 2.8 2.8v3.867a2.8 2.8 0 0 1-2.8 2.8h-7.7a2.8 2.8 0 0 1-2.8-2.8m-4.5-7.51-.005.002zm4.802 0 .004.002z" clip-rule="evenodd"/><path fill="#544125" d="M24.1 21.006h.28v-.232l-.227-.043zm-4.2 0-.052-.275-.227.043v.232zm-10.5.928v.28zm3.2 0v.28h.28v-.28zm0-2.914h.28v-.28h-.28zm1.4-6.667v.28zm-4.6 0v-.28h-.28v.28zm0 3.867h-.28v.28h.28zm3.2 0v-.28zm-3.2 8.514v-.28h-.28v.28zm0 3.867h-.28v.28h.28zm7.7 0v.28h.28v-.28zm0-8.124h.28zm.783-10.628.205.19zm1.569-.945-.085-.267zm2.506-.304v.28zm.043 0v.28zm.043 0v.28zm2.505.304.085-.267zm1.57.945-.206.19zM26.9 28.6h-.28v.28h.28zm7.7 0v.28h.28v-.28zm0-3.867h.28v-.28h-.28zm0-8.514v.28h.28v-.28zm0-3.867h.28v-.28h-.28zm0 6.667v-.28zm-3.2 0v-.28h-.28v.28zm0 2.914h-.28v.28h.28zm-11.8-.841.134.246-.26-.497zm-.003.002-.132.247.133.07.132-.071zm4.806-.002.126-.25-.26.496zm.004.002-.133.246.123.067.127-.06zm-.585-.088v7.595h.56v-7.595zm-.82.199c.492 0 .831.035 1.047.076l.105-.55a6.3 6.3 0 0 0-1.152-.086zm-.012 0h.012v-.56h-.012zm-.012 0h.012v-.56h-.012zm-.011 0h.011v-.56h-.011zm-.012 0h.012v-.56h-.012zm-.01 0h.01v-.56h-.01zm-.012 0h.011v-.56h-.011zm-.011 0h.011v-.56h-.011zm-.011 0h.01v-.56h-.01zm-.011 0h.01v-.56h-.01zm-.011 0h.01v-.56h-.01zm-.01 0h.01v-.56h-.01zm-.012 0h.011v-.56h-.01zm-.01 0h.01v-.56h-.01zm-.01 0h.01v-.56h-.01zm-.011 0h.01v-.56h-.01zm-.01 0h.01v-.56h-.01zm-.01 0h.01v-.56h-.01zm-.01 0h.01v-.56h-.01zm-.01 0h.01v-.56h-.01zm-.01 0h.01v-.56h-.01zm-.01 0h.01v-.56h-.01zm-.01 0h.01v-.56h-.01zm-.01 0h.01v-.56h-.01zm-.01 0h.01v-.56h-.01zm-.01 0h.01v-.56h-.01zm-.01 0h.01v-.56h-.01zm-.009 0h.01v-.56h-.01zm-.009 0h.01v-.56h-.01zm-.01 0h.01v-.56h-.01zm-.008 0h.009v-.56h-.01zm-.01 0h.01v-.56h-.01zm-.008 0h.009v-.56h-.01zm-.01 0h.01v-.56h-.01zm-.008 0h.009v-.56h-.01zm-.009 0h.009v-.56h-.009zm-.009 0h.009v-.56h-.009zm-.008 0h.008v-.56h-.008zm-.009 0h.009v-.56h-.009zm-.008 0h.008v-.56h-.008zm-.009 0h.009v-.56H22.6zm-.008 0h.008v-.56h-.008zm-.008 0h.008v-.56h-.008zm-.008 0h.008v-.56h-.008zm-.008 0h.008v-.56h-.008zm-.008 0h.008v-.56h-.008zm-.008 0h.008v-.56h-.008zm-.008 0h.008v-.56h-.008zm-.008 0h.008v-.56h-.008zm-.008 0h.008v-.56h-.008zm-.007 0h.007v-.56h-.007zm-.008 0h.008v-.56h-.008zm-.007 0h.007v-.56h-.007zm-.008 0h.008v-.56H22.5zm-.007 0h.007v-.56h-.007zm-.007 0h.007v-.56h-.007zm-.008 0h.008v-.56h-.008zm-.007 0h.008v-.56h-.008zm-.007 0h.007v-.56h-.007zm-.007 0h.007v-.56h-.007zm-.007 0h.007v-.56h-.007zm-.006 0h.006v-.56h-.006zm-.007 0h.007v-.56h-.007zm-.007 0h.007v-.56h-.007zm-.006 0h.006v-.56h-.006zm-.007 0h.006v-.56h-.006zm-.006 0h.006v-.56h-.006zm-.007 0h.007v-.56h-.007zm-.006 0h.006v-.56h-.006zm-.007 0h.007v-.56h-.007zm-.006 0h.006v-.56h-.006zm-.006 0h.006v-.56h-.006zm-.006 0h.006v-.56h-.006zm-.006 0h.006v-.56h-.006zm-.006 0h.006v-.56h-.006zm-.006 0h.006v-.56h-.006zm-.006 0h.006v-.56h-.006zm-.005 0h.005v-.56h-.005zm-.006 0h.006v-.56h-.006zm-.006 0h.006v-.56h-.006zm-.005 0h.005v-.56h-.005zm-.006 0h.006v-.56h-.006zm-.005 0h.005v-.56h-.005zm-.006 0h.006v-.56h-.006zm-.005 0h.005v-.56h-.005zm-.005 0h.005v-.56H22.3zm-.005 0h.005v-.56h-.005zm-.006 0h.006v-.56h-.006zm-.005 0h.005v-.56h-.005zm-.005 0h.005v-.56h-.005zm-.005 0h.005v-.56h-.005zm-.005 0h.005v-.56h-.005zm-.004 0h.004v-.56h-.004zm-.005 0h.005v-.56h-.005zm-.005 0h.005v-.56h-.005zm-.005 0h.005v-.56h-.005zm-.004 0h.004v-.56h-.004zm-.005 0h.005v-.56h-.005zm-.004 0h.004v-.56h-.004zm-.005 0h.005v-.56h-.005zm-.004 0h.004v-.56h-.004zm-.004 0h.004v-.56h-.004zm-.005 0h.005v-.56h-.005zm-.004 0h.004v-.56h-.004zm-.004 0h.004v-.56h-.004zm-.004 0h.004v-.56h-.004zm-.004 0h.004v-.56h-.004zm-.004 0h.004v-.56h-.004zm-.004 0h.004v-.56h-.004zm-.004 0h.004v-.56h-.004zm-.004 0h.004v-.56h-.004zm-.004 0h.004v-.56h-.004zm-.003 0h.003v-.56h-.003zm-.004 0h.004v-.56h-.004zm-.004 0h.004v-.56h-.004zm-.003 0h.003v-.56h-.003zm-.004 0h.004v-.56h-.004zm-.003 0h.003v-.56h-.003zm-.004 0h.004v-.56h-.004zm-.003 0h.003v-.56h-.003zm-.003 0h.003v-.56h-.003zm-.004 0h.004v-.56h-.004zm-.003 0h.003v-.56h-.003zm-.003 0h.003v-.56h-.003zm-.003 0h.003v-.56h-.003zm-.003 0h.003v-.56h-.003zm-.003 0h.003v-.56h-.003zm-.003 0h.003v-.56h-.003zm-.003 0h.003v-.56h-.003zm-.003 0h.003v-.56h-.003zm-.003 0h.003v-.56h-.003zm-.003 0h.003v-.56h-.003zm-.003 0h.003v-.56h-.003zm-.002 0h.002v-.56h-.002zm-.003 0h.003v-.56h-.003zm-.003 0h.003v-.56h-.003zm-.002 0h.002v-.56h-.002zm-.003 0h.003v-.56H22.1zm-.002 0h.002v-.56H22.1zm-.003 0h.003v-.56h-.003zm-.002 0h.002v-.56h-.002zm-.003 0h.003v-.56h-.003zm-.002 0h.002v-.56h-.002zm-.002 0h.002v-.56h-.002zm-.003 0h.003v-.56h-.003zm-.002 0h.002v-.56h-.002zm-.002 0h.002v-.56h-.002zm-.002 0h.002v-.56h-.002zm-.002 0h.002v-.56h-.002zm-.002 0h.002v-.56h-.002zm-.002 0h.002v-.56h-.002zm-.002 0h.002v-.56h-.002zm-.002 0h.002v-.56h-.002zm-.002 0h.002v-.56h-.002zm-.002 0h.002v-.56h-.002zm-.002 0h.002v-.56h-.002zm-.002 0h.002v-.56h-.002zm-.002 0h.002v-.56h-.002zm-.001 0h.002v-.56h-.002zm-.002 0h.002v-.56h-.002zm-.002 0h.002v-.56h-.002zm-.001 0v-.56h-.001zm-.002 0h.002v-.56h-.002zm-.001 0v-.56h-.001zm-.002 0h.002v-.56h-.002zm-.002 0h.002v-.56h-.002zm0 0v-.56zm-.002 0v-.56h-.001zm-.002 0h.002v-.56h-.002zm-.001 0v-.56h-.001zm-.002 0h.002v-.56h-.002zm0 0v-.56zm-.002 0v-.56h-.001zm-.001 0v-.56h-.001zm-.002 0h.002v-.56h-.002zm0 0v-.56zm-.002 0v-.56zm-.001 0v-.56h-.001zm-.001 0v-.56h-.001zm-.001 0v-.56zm-.001 0v-.56zm-.001 0v-.56zm-.001 0v-.56zm-.001 0v-.56zm-.001 0v-.56zm-.001 0v-.56zm0 0v-.56zm-.002 0v-.56zm0 0v-.56zm-.001 0v-.56zm-.001 0v-.56zm-.001 0v-.56zm0 0v-.56zm-.002 0v-.56zm0 0v-.56zm0 0v-.56zm-.002 0v-.56zm0 0v-.56zm0 0v-.56zm-.001 0v-.56zm0 0v-.56zm-.002 0v-.56zm0 0v-.56zm0 0v-.56zm-.001 0v-.56zm0 0v-.56zm0 0v-.56zm-.001 0v-.56zm0 0v-.56zm-.001 0v-.56zm0 0v-.56zm0 0v-.56zm-.001 0v-.56zm0 0v-.56zm-.001 0v-.56zm0 0v-.56zm0 0v-.56zm0 0v-.56zm-.001 0v-.56zm0 0v-.56zm0 0v-.56zm0 0v-.56zm-.001 0v-.56zm0 0v-.56zm0 0v-.56zm0 0v-.56zm0 0v-.56zm0 0v-.56zm-.001 0v-.56zm0 0v-.56zm0 0v-.56zm0 0v-.56zm0 0v-.56zm0 0v-.56zm0 0v-.56zm0 0v-.56zm0 0v-.56zm-.001 0v-.56zm0 0v-.56zm0 0v-.56zm0 0v-.56zm0 0v-.56zm0 0v-.56zm0 0v-.56zm0 0v-.56zm0 0v-.56zm0 0v-.56zm0 0v-.56zm0 0v-.56zm0 0v-.56zm0 0v-.56zm0 0v-.56zm0 0v-.56zm0 0v-.56zm0 0v-.56zm0 0v-.56zm0 0v-.56zm0 0v-.56zm0 0v-.56zm0 0v-.56zm0 0v-.56zm0 0v-.56zm0 0v-.56zm0 0v-.56zm0 0v-.56zm0 0v-.56zm0 0v-.56zm0 0v-.56zm-.001 0v-.56zm0 0v-.56zm0 0v-.56zm0 0v-.56zm0 0v-.56zm0 0v-.56zm0 0v-.56zm0 0v-.56zm-.001 0v-.56zm0 0v-.56zm0 0v-.56zm0 0v-.56zm0 0v-.56zm0 0v-.56zm-.001 0v-.56zm0 0v-.56zm0 0v-.56zm0 0v-.56zm-.001 0v-.56zm0 0v-.56zm0 0v-.56zm-.001 0v-.56zm0 0v-.56zm0 0v-.56zm-.001 0v-.56zm0 0v-.56zm-.001 0v-.56zm0 0v-.56zm0 0v-.56zm-.001 0v-.56zm0 0v-.56zm-.001 0v-.56zm0 0v-.56zm-.001 0v-.56zm0 0v-.56zm-.001 0v-.56zm-.001 0v-.56zm0 0v-.56zm-.001 0v-.56zm0 0v-.56zm-.002 0v-.56zm0 0v-.56zm-.001 0v-.56zm0 0v-.56zm-.002 0v-.56zm0 0v-.56zm-.001 0v-.56zm-.001 0v-.56zm0 0v-.56zm-.002 0v-.56zm0 0v-.56zm-.002 0v-.56zm0 0v-.56zm-.002 0h.002v-.56h-.002zm0 0v-.56zm-.002 0h.002v-.56h-.002zm0 0v-.56zm-.002 0v-.56zm0 0v-.56zm-.002 0v-.56h-.001zm-.001 0v-.56h-.001zm-.002 0h.002v-.56h-.002zm0 0v-.56zm-.002 0v-.56h-.001zm-.001 0v-.56h-.001zm-.002 0h.002v-.56h-.002zm-.001 0v-.56h-.001zm-.001 0v-.56h-.001zm-.002 0h.002v-.56h-.002zm-.001 0v-.56h-.001zm-.002 0h.002v-.56h-.002zm-.001 0v-.56h-.001zm-.002 0h.002v-.56h-.002zm-.002 0h.002v-.56h-.002zm-.001 0h.002v-.56h-.002zm-.002 0h.002v-.56h-.002zm-.002 0h.002v-.56h-.002zm-.001 0h.002v-.56h-.002zm-.002 0h.002v-.56h-.002zm-.002 0h.002v-.56h-.002zm-.002 0h.002v-.56h-.002zm-.002 0h.002v-.56h-.002zm-.001 0h.002v-.56h-.002zm-.002 0h.002v-.56h-.002zm-.002 0h.002v-.56h-.002zm-.002 0h.002v-.56h-.002zm-.003 0h.003v-.56h-.003zm-.002 0h.003v-.56h-.003zm-.002 0h.002v-.56h-.002zm-.002 0h.002v-.56h-.002zm-.002 0h.002v-.56h-.002zm-.002 0h.002v-.56h-.002zm-.003 0h.003v-.56h-.003zm-.002 0h.002v-.56h-.002zm-.002 0h.002v-.56h-.002zm-.003 0h.003v-.56h-.003zm-.002 0h.002v-.56h-.002zm-.003 0h.003v-.56H21.9zm-.002 0h.002v-.56h-.002zm-.003 0h.003v-.56h-.003zm-.003 0h.003v-.56h-.003zm-.002 0h.002v-.56h-.002zm-.003 0h.003v-.56h-.003zm-.003 0h.003v-.56h-.003zm-.003 0h.003v-.56h-.003zm-.003 0h.003v-.56h-.003zm-.002 0h.002v-.56h-.002zm-.003 0h.003v-.56h-.003zm-.003 0h.003v-.56h-.003zm-.003 0h.003v-.56h-.003zm-.004 0h.004v-.56h-.004zm-.003 0h.003v-.56h-.003zm-.003 0h.003v-.56h-.003zm-.003 0h.003v-.56h-.003zm-.003 0h.003v-.56h-.003zm-.004 0h.004v-.56h-.004zm-.003 0h.003v-.56h-.003zm-.004 0h.004v-.56h-.004zm-.003 0h.003v-.56h-.003zm-.003 0h.003v-.56h-.003zm-.004 0h.004v-.56h-.004zm-.004 0h.004v-.56h-.004zm-.003 0h.003v-.56h-.003zm-.004 0h.004v-.56h-.004zm-.004 0h.004v-.56h-.004zm-.004 0h.004v-.56h-.004zm-.004 0h.004v-.56h-.004zm-.004 0h.004v-.56h-.004zm-.004 0h.004v-.56H21.8zm-.004 0h.004v-.56h-.004zm-.004 0h.004v-.56h-.004zm-.004 0h.004v-.56h-.004zm-.004 0h.004v-.56h-.004zm-.004 0h.004v-.56h-.004zm-.005 0h.005v-.56h-.005zm-.004 0h.004v-.56h-.004zm-.005 0h.005v-.56h-.005zm-.004 0h.005v-.56h-.005zm-.005 0h.005v-.56h-.005zm-.004 0h.005v-.56h-.005zm-.005 0h.005v-.56h-.005zm-.005 0h.005v-.56h-.005zm-.004 0h.005v-.56h-.005zm-.005 0h.005v-.56h-.005zm-.005 0h.005v-.56h-.005zm-.005 0h.005v-.56h-.005zm-.005 0h.005v-.56h-.005zm-.005 0h.005v-.56h-.005zm-.005 0h.005v-.56h-.005zm-.005 0h.005v-.56h-.005zm-.006 0h.006v-.56h-.006zm-.005 0h.005v-.56h-.005zm-.005 0h.005v-.56h-.005zm-.006 0h.006v-.56h-.006zm-.005 0h.005v-.56h-.005zm-.006 0h.006v-.56h-.006zm-.006 0h.006v-.56h-.006zm-.005 0h.006v-.56h-.006zm-.006 0h.006v-.56h-.006zm-.006 0h.006v-.56h-.006zm-.006 0h.006v-.56h-.006zm-.006 0h.006v-.56h-.006zm-.006 0h.006v-.56h-.006zm-.006 0h.006v-.56h-.006zm-.006 0h.006v-.56h-.006zm-.006 0h.006v-.56h-.006zm-.006 0h.006v-.56h-.006zm-.007 0h.007v-.56h-.007zm-.006 0h.006v-.56h-.006zm-.007 0h.007v-.56h-.007zm-.006 0h.006v-.56h-.006zm-.007 0h.007v-.56h-.007zm-.007 0h.007v-.56h-.007zm-.006 0h.006v-.56h-.006zm-.007 0h.007v-.56h-.007zm-.007 0h.007v-.56h-.007zm-.007 0h.007v-.56h-.007zm-.007 0h.007v-.56h-.007zm-.007 0h.007v-.56h-.007zm-.007 0h.007v-.56h-.007zm-.008 0h.008v-.56h-.008zm-.007 0h.007v-.56h-.007zm-.007 0h.007v-.56h-.007zm-.008 0h.008v-.56h-.008zm-.007 0h.007v-.56h-.007zm-.008 0h.008v-.56h-.008zm-.008 0h.008v-.56h-.008zm-.008 0h.008v-.56h-.008zm-.007 0h.007v-.56h-.007zm-.008 0h.008v-.56h-.008zm-.008 0h.008v-.56h-.008zm-.008 0h.008v-.56h-.008zm-.009 0h.009v-.56h-.009zm-.008 0h.008v-.56h-.008zm-.008 0h.008v-.56H21.4zm-.008 0h.008v-.56h-.008zm-.009 0h.009v-.56h-.009zm-.008 0h.008v-.56h-.008zm-.01 0h.01v-.56h-.01zm-.008 0h.009v-.56h-.009zm-.008 0h.008v-.56h-.008zm-.01 0h.01v-.56h-.01zm-.008 0h.009v-.56h-.01zm-.01 0h.01v-.56h-.01zm-.008 0h.009v-.56h-.01zm-.01 0h.01v-.56h-.01zm-.009 0h.01v-.56h-.01zm-.01 0h.01v-.56h-.01zm-.009 0h.01v-.56h-.01zm-.01 0h.01v-.56h-.01zm-.009 0h.01v-.56h-.01zm-.01 0h.01v-.56h-.01zm-.01 0h.01v-.56h-.01zm-.009 0h.01v-.56h-.01zm-.01 0h.01v-.56h-.01zm-.01 0h.01v-.56h-.01zm-.01 0h.01v-.56h-.01zm-.01 0h.01v-.56h-.01zm-.01 0h.01v-.56h-.01zm-.01 0h.01v-.56h-.01zm-.011 0h.01v-.56h-.01zm-.01 0h.01v-.56h-.01zm-.011 0h.01v-.56h-.01zm-.011 0h.01v-.56h-.01zm-.01 0h.01v-.56h-.01zm-.012 0h.011v-.56h-.01zm-.01 0h.01v-.56h-.01zm-.012 0h.011v-.56h-.01zm-.01 0h.01v-.56h-.01zm-.012 0h.011v-.56h-.011zm-.011 0h.011v-.56h-.011zm-.012 0h.012v-.56h-.012zm-.011 0h.011v-.56h-.011zm-.012 0h.012v-.56h-.012zm-.011 0h.011v-.56h-.011zm-1.048.076a6 6 0 0 1 1.048-.076v-.56c-.516 0-.893.036-1.153.086zm.227 7.32v-7.595h-.56v7.595zm-3.08 3.08a3.08 3.08 0 0 0 3.08-3.08h-.56a2.52 2.52 0 0 1-2.52 2.52zm-7.7 0h7.7v-.56H9.4zm-3.08-3.08a3.08 3.08 0 0 0 3.08 3.08v-.56a2.52 2.52 0 0 1-2.52-2.52zm0-3.867v3.867h.56v-3.867zm3.08-3.08a3.08 3.08 0 0 0-3.08 3.08h.56a2.52 2.52 0 0 1 2.52-2.52zm3.2 0H9.4v.56h3.2zm-.28-2.634v2.914h.56V19.02zm-2.92.28h3.2v-.56H9.4zm-3.08-3.08A3.08 3.08 0 0 0 9.4 19.3v-.56a2.52 2.52 0 0 1-2.52-2.52zm0-3.867v3.867h.56v-3.867zm3.08-3.08a3.08 3.08 0 0 0-3.08 3.08h.56a2.52 2.52 0 0 1 2.52-2.52zm4.6 0H9.4v.56H14zm1.68 1.68A1.68 1.68 0 0 0 14 9.273v.56c.619 0 1.12.501 1.12 1.12zM14 12.633a1.68 1.68 0 0 0 1.68-1.68h-.56a1.12 1.12 0 0 1-1.12 1.12zm-4.6 0H14v-.56H9.4zm.28 3.587v-3.867h-.56v3.867zm2.92-.28H9.4v.56h3.2zm3.08 3.08a3.08 3.08 0 0 0-3.08-3.08v.56a2.52 2.52 0 0 1 2.52 2.52zm0 2.914V19.02h-.56v2.914zm-3.08 3.08a3.08 3.08 0 0 0 3.08-3.08h-.56a2.52 2.52 0 0 1-2.52 2.52zm-3.2 0h3.2v-.56H9.4zm.28 3.587v-3.867h-.56v3.867zm7.42-.28H9.4v.56h7.7zm-.28-7.844v8.124h.56v-8.124zm0-1.905v1.905h.56v-1.905zm0-.01v.01h.56v-.01zm0-.009v.01h.56v-.01zm0-.009v.01h.56v-.01zm0-.01v.01h.56v-.01zm0-.009v.01h.56v-.01zm0-.01v.01h.56v-.01zm0-.01v.01h.56v-.01zm0-.009v.01h.56v-.01zm0-.01v.01h.56v-.01zm0-.01v.01h.56v-.01zm0-.009v.01h.56v-.01zm0-.01v.01h.56v-.01zm0-.01v.01h.56v-.01zm0-.01v.01h.56v-.01zm0-.01v.01h.56v-.01zm0-.01v.01h.56v-.01zm0-.01v.01h.56v-.01zm0-.01v.01h.56v-.01zm0-.01v.01h.56v-.01zm0-.01v.01h.56v-.01zm0-.01v.01h.56v-.01zm0-.01v.01h.56v-.01zm0-.01v.01h.56v-.01zm0-.01v.01h.56v-.01zm0-.011v.01h.56v-.01zm0-.01v.01h.56v-.01zm0-.01v.01h.56v-.01zm0-.011v.01h.56v-.01zm0-.01v.01h.56v-.01zm0-.011v.01h.56v-.01zm0-.011v.01h.56v-.01zm0-.01v.01h.56v-.01zm0-.011v.01h.56v-.01zm0-.011v.01h.56v-.01zm0-.01v.01h.56v-.01zm0-.012v.011h.56v-.01zm0-.01v.01h.56v-.01zm0-.011v.01h.56v-.01zm0-.011v.01h.56v-.01zm0-.011v.01h.56v-.01zm0-.011v.01h.56v-.01zm0-.011v.011h.56v-.011zm0-.011v.011h.56v-.011zm0-.011v.01h.56v-.01zm0-.011v.01h.56v-.01zm0-.012v.012h.56v-.012zm0-.01v.01h.56v-.01zm0-.012v.011h.56v-.01zm0-.011v.011h.56v-.011zm0-.011v.01h.56v-.01zm0-.012v.012h.56v-.012zm0-.011v.011h.56v-.011zm0-.012v.012h.56v-.012zm0-.011v.011h.56v-.011zm0-.012v.012h.56v-.012zm0-.011v.011h.56v-.011zm0-.012v.012h.56v-.012zm0-.011v.011h.56v-.011zm0-.012v.012h.56v-.012zm0-.012v.012h.56v-.012zm0-.011v.011h.56v-.011zm0-.012v.012h.56v-.012zm0-.012v.012h.56v-.012zm0-.012v.012h.56v-.012zm0-.011v.011h.56v-.011zm0-.012v.012h.56v-.012zm0-.012v.012h.56v-.012zm0-.012v.012h.56v-.012zm0-.012v.012h.56v-.012zm0-.012v.012h.56v-.012zm0-.012v.012h.56v-.012zm0-.012v.012h.56v-.012zm0-.012v.012h.56v-.012zm0-.012v.012h.56v-.012zm0-.013v.013h.56v-.013zm0-.012v.012h.56v-.012zm0-.012v.012h.56v-.012zm0-.012v.012h.56v-.012zm0-.012v.012h.56v-.012zm0-.013v.012h.56V17.7zm0-.012v.012h.56v-.012zm0-.013v.013h.56v-.013zm0-.012v.012h.56v-.012zm0-.012v.012h.56v-.012zm0-.013v.013h.56v-.013zm0-.012v.012h.56v-.012zm0-.013v.013h.56v-.013zm0-.012v.012h.56V17.6zm0-.013v.012h.56v-.012zm0-.013v.013h.56v-.013zm0-.012v.012h.56v-.012zm0-.013v.013h.56v-.013zm0-.013v.013h.56v-.013zm0-.013v.013h.56v-.013zm0-.012v.012h.56v-.012zm0-.013v.013h.56v-.013zm0-.013v.013h.56v-.013zm0-.013v.013h.56v-.013zm0-.013v.013h.56v-.013zm0-.012v.012h.56v-.012zm0-.013v.013h.56v-.013zm0-.013v.013h.56v-.013zm0-.013v.013h.56v-.013zm0-.013v.013h.56v-.013zm0-.013v.013h.56v-.013zm0-.013v.013h.56v-.013zm0-.014v.014h.56v-.014zm0-.013v.014h.56v-.014zm0-.013v.013h.56v-.013zm0-.013v.013h.56v-.013zm0-.013v.013h.56v-.013zm0-.013v.013h.56v-.013zm0-.014v.014h.56v-.014zm0-.013v.013h.56v-.013zm0-.013v.013h.56v-.013zm0-.013v.013h.56v-.013zm0-.014v.014h.56v-.014zm0-.013v.013h.56v-.013zm0-.014v.014h.56v-.014zm0-.013v.014h.56v-.014zm0-.013v.013h.56v-.013zm0-.014v.014h.56v-.014zm0-.013v.013h.56v-.013zm0-.014v.014h.56v-.014zm0-.013v.013h.56v-.013zm0-.014v.014h.56v-.014zm0-.013v.013h.56v-.013zm0-.014v.014h.56v-.014zm0-.014v.014h.56v-.014zm0-.013v.013h.56v-.013zm0-.014v.014h.56v-.014zm0-.014v.014h.56v-.014zm0-.013v.013h.56v-.013zm0-.014v.014h.56v-.014zm0-.014v.014h.56v-.014zm0-.014v.014h.56v-.014zm0-.013v.013h.56v-.013zm0-.014v.014h.56v-.014zm0-.014v.014h.56v-.014zm0-.014v.014h.56v-.014zm0-.014v.014h.56v-.014zm0-.014v.014h.56v-.014zm0-.013v.014h.56v-.014zm0-.014v.014h.56v-.014zm0-.014v.014h.56v-.014zm0-.014v.014h.56v-.014zm0-.014v.014h.56v-.014zm0-.014v.014h.56v-.014zm0-.014v.014h.56v-.014zm0-.014v.014h.56v-.014zm0-.014v.014h.56v-.014zm0-.014v.014h.56v-.014zm0-.014v.014h.56v-.014zm0-.015v.015h.56v-.015zm0-.014v.014h.56V16.7zm0-.014v.014h.56v-.014zm0-.014v.014h.56v-.014zm0-.014v.014h.56v-.014zm0-.014v.014h.56v-.014zm0-.015v.015h.56v-.015zm0-.014v.014h.56v-.014zm0-.014v.014h.56v-.014zm0-.014v.014h.56v-.014zm0-.015v.015h.56v-.015zm0-.014v.014h.56v-.014zm0-.014v.014h.56v-.014zm0-.015v.015h.56v-.015zm0-.014v.014h.56v-.014zm0-.014v.014h.56v-.014zm0-.015v.015h.56v-.015zm0-.014v.014h.56v-.014zm0-.014v.014h.56v-.014zm0-.015v.015h.56v-.015zm0-.014v.014h.56v-.014zm0-.015v.015h.56v-.015zm0-.014v.014h.56V16.4zm0-.015v.015h.56v-.015zm0-.014v.014h.56v-.014zm0-.015v.015h.56v-.015zm0-.014v.014h.56v-.014zm0-.015v.015h.56v-.015zm0-.014v.014h.56v-.014zm0-.015v.015h.56v-.015zm0-.014v.014h.56v-.014zm0-.015v.015h.56v-.015zm0-.014v.014h.56v-.014zm0-.015v.015h.56v-.015zm0-.015v.015h.56v-.015zm0-.014v.014h.56v-.014zm0-.015v.015h.56v-.015zm0-.015v.015h.56v-.015zm0-.014v.014h.56v-.014zm0-.015v.015h.56v-.015zm0-.015v.015h.56v-.015zm0-.014v.014h.56v-.014zm0-.015v.015h.56v-.015zm0-.015v.015h.56v-.015zm0-.014v.014h.56v-.014zm0-.015v.015h.56v-.015zm0-.015v.015h.56v-.015zm0-.014v.014h.56v-.014zm0-.015v.015h.56v-.015zm0-.015v.015h.56v-.015zm0-.015v.015h.56v-.015zm0-.014v.014h.56v-.014zm0-.015v.014h.56v-.014zm0-.015v.015h.56v-.015zm0-.015v.015h.56v-.015zm0-.015v.015h.56v-.015zm0-.014v.014h.56v-.014zm0-.015v.014h.56v-.014zm0-.015v.015h.56v-.015zm0-.015v.015h.56v-.015zm0-.015v.015h.56v-.015zm0-.015v.015h.56v-.015zm0-.014v.014h.56v-.014zm0-.015v.014h.56v-.014zm0-.015v.015h.56v-.015zm0-.015v.015h.56v-.015zm0-.015v.015h.56v-.015zm0-.015v.015h.56v-.015zm0-.015v.015h.56v-.015zm0-.015v.015h.56v-.015zm0-.015v.015h.56v-.015zm0-.014v.014h.56v-.014zm0-.015v.014h.56v-.014zm0-.015v.015h.56v-.015zm0-.015v.015h.56v-.015zm0-.015v.015h.56v-.015zm0-.015v.015h.56v-.015zm0-.015v.015h.56v-.015zm0-.015v.015h.56v-.015zm0-.015v.015h.56v-.015zm0-.015v.015h.56v-.015zm0-.015v.015h.56v-.015zm0-.015v.015h.56v-.015zm0-.015v.015h.56V15.5zm0-.015v.015h.56v-.015zm0-.015v.015h.56v-.015zm0-.015v.015h.56v-.015zm0-.015v.015h.56v-.015zm0-.015v.015h.56v-.015zm0-.014v.014h.56v-.014zm0-.015v.014h.56v-.014zm0-.015v.014h.56v-.014zm0-.015v.014h.56v-.014zm0-.015v.015h.56v-.015zm0-.015v.015h.56v-.015zm0-.015v.015h.56v-.015zm0-.015v.015h.56v-.015zm0-.015v.015h.56v-.015zm0-.015v.015h.56v-.015zm0-.015v.015h.56v-.015zm0-.015v.015h.56v-.015zm0-.015v.015h.56v-.015zm0-.015v.015h.56v-.015zm0-.015v.015h.56V15.2zm0-.015v.015h.56v-.015zm0-.015v.015h.56v-.015zm0-.015v.015h.56v-.015zm0-.015v.015h.56v-.015zm0-.015v.015h.56v-.015zm0-.015v.015h.56v-.015zm0-.015v.015h.56v-.015zm0-.015v.015h.56v-.015zm0-.015v.015h.56v-.015zm0-.015v.015h.56v-.015zm0-.015v.015h.56v-.015zm0-.015v.015h.56v-.015zm0-.015v.015h.56v-.015zm0-.015v.015h.56v-.015zm0-.015v.015h.56v-.015zm0-.014v.014h.56v-.014zm0-.015v.014h.56v-.014zm0-.015v.015h.56v-.015zm0-.015v.015h.56v-.015zm0-.015v.015h.56V14.9zm0-.015v.015h.56v-.015zm0-.015v.015h.56v-.015zm0-.015v.015h.56v-.015zm0-.015v.015h.56v-.015zm0-.015v.015h.56v-.015zm0-.015v.015h.56v-.015zm0-.014v.014h.56v-.014zm0-.015v.014h.56v-.014zm0-.015v.015h.56v-.015zm0-.015v.015h.56v-.015zm0-.015v.015h.56v-.015zm0-.015v.015h.56v-.015zm0-.015v.015h.56v-.015zm0-.015v.015h.56v-.015zm0-.014v.014h.56v-.014zm0-.015v.015h.56v-.015zm0-.015v.015h.56v-.015zm0-.015v.015h.56v-.015zm0-.015v.015h.56v-.015zm0-.014v.014h.56v-.014zm0-.015v.014h.56v-.014zm0-.015v.015h.56v-.015zm0-.015v.015h.56v-.015zm0-.015v.015h.56v-.015zm0-.014v.014h.56v-.014zm0-.015v.015h.56v-.015zm0-.015v.015h.56V14.5zm0-.015v.015h.56v-.015zm0-.014v.014h.56v-.014zm0-.015v.015h.56v-.015zm0-.015v.015h.56v-.015zm0-.014v.014h.56v-.014zm0-.015v.015h.56v-.015zm0-.015v.015h.56v-.015zm0-.014v.014h.56v-.014zm0-.015v.015h.56v-.015zm0-.015v.015h.56v-.015zm0-.014v.014h.56v-.014zm0-.015v.015h.56v-.015zm0-.014v.014h.56v-.014zm0-.015v.014h.56v-.014zm0-.015v.015h.56v-.015zm0-.014v.014h.56v-.014zm0-.015v.015h.56v-.015zm0-.014v.014h.56v-.014zm0-.015v.015h.56v-.015zm0-.014v.014h.56v-.014zm0-.015v.015h.56v-.015zm0-.014v.014h.56v-.014zm0-.015v.015h.56v-.015zm0-.014v.014h.56v-.014zm0-.015v.015h.56v-.015zm0-.014v.014h.56v-.014zm0-.015v.015h.56v-.015zm0-.014v.014h.56v-.014zm0-.014v.014h.56v-.014zm0-.015v.014h.56v-.014zm0-.014v.014h.56v-.014zm0-.015v.015h.56v-.015zm0-.014v.014h.56v-.014zm0-.014v.014h.56v-.014zm0-.014v.014h.56v-.014zm0-.015v.014h.56v-.014zm0-.014v.014h.56v-.014zm0-.014v.014h.56v-.014zm0-.015v.015h.56v-.015zm0-.014v.014h.56v-.014zm0-.014v.014h.56v-.014zm0-.014v.014h.56v-.014zm0-.014v.014h.56v-.014zm0-.015v.015h.56v-.015zm0-.014v.014h.56v-.014zm0-.014v.014h.56v-.014zm0-.014v.014h.56v-.014zm0-.014v.014h.56v-.014zm0-.014v.014h.56v-.014zm0-.014v.014h.56v-.014zm0-.014v.014h.56v-.014zm0-.014v.014h.56v-.014zm0-.014v.014h.56v-.014zm0-.014v.014h.56v-.014zm0-.014v.014h.56v-.014zm0-.014v.014h.56v-.014zm0-.014v.014h.56v-.014zm0-.014v.014h.56v-.014zm0-.014v.014h.56v-.014zm0-.014v.014h.56v-.014zm0-.013v.013h.56v-.013zm0-.014v.014h.56v-.014zm0-.014v.014h.56v-.014zm0-.014v.014h.56v-.014zm0-.014v.014h.56v-.014zm0-.013v.013h.56v-.013zm0-.014v.014h.56v-.014zm0-.014v.014h.56v-.014zm0-.014v.014h.56v-.014zm0-.013v.013h.56v-.013zm0-.014v.014h.56v-.014zm0-.013v.013h.56v-.013zm0-.014v.014h.56v-.014zm0-.014v.014h.56v-.014zm0-.013v.013h.56v-.013zm0-.014v.014h.56v-.014zm0-.013v.013h.56v-.013zm0-.014v.014h.56v-.014zm0-.013v.013h.56v-.013zm0-.014v.014h.56v-.014zm0-.013v.014h.56v-.014zm0-.013v.013h.56v-.013zm0-.014v.014h.56v-.014zm0-.013v.013h.56v-.013zm0-.013v.013h.56V13.3zm0-.014v.014h.56v-.014zm0-.013v.013h.56v-.013zm0-.013v.013h.56v-.013zm0-.013v.013h.56v-.013zm0-.013v.013h.56v-.013zm0-.014v.014h.56v-.014zm0-.013v.013h.56v-.013zm0-.013v.013h.56v-.013zm0-.013v.013h.56v-.013zm0-.013v.013h.56v-.013zm0-.013v.013h.56v-.013zm0-.013v.013h.56v-.013zm0-.013v.013h.56v-.013zm0-.013v.013h.56v-.013zm0-.013v.013h.56v-.013zm0-.013v.013h.56v-.013zm0-.013v.013h.56v-.013zm0-.012v.012h.56v-.012zm0-.013v.013h.56v-.013zm0-.013v.013h.56v-.013zm0-.013v.013h.56v-.013zm0-.013v.013h.56v-.013zm0-.012v.012h.56v-.012zm0-.013v.013h.56v-.013zm0-.013v.013h.56v-.013zm0-.012v.012h.56v-.012zm0-.013v.013h.56v-.013zm0-.012v.012h.56v-.012zm0-.013v.013h.56v-.013zm0-.012v.012h.56v-.012zm0-.013v.013h.56V12.9zm0-.012v.012h.56v-.012zm0-.013v.013h.56v-.013zm0-.012v.012h.56v-.012zm0-.012v.012h.56v-.012zm0-.013v.013h.56v-.013zm0-.012v.012h.56v-.012zm0-.012v.012h.56v-.012zm0-.012v.012h.56v-.012zm0-.013v.013h.56v-.013zm0-.012v.012h.56v-.012zm0-.012v.012h.56v-.012zm0-.012v.012h.56v-.012zm0-.012v.012h.56v-.012zm0-.012v.012h.56v-.012zm0-.012v.012h.56v-.012zm0-.012v.012h.56v-.012zm0-.012v.012h.56v-.012zm0-.012v.012h.56v-.012zm0-.012v.012h.56v-.012zm0-.012v.012h.56v-.012zm0-.011v.011h.56v-.011zm0-.012v.012h.56v-.012zm0-.012v.012h.56v-.012zm0-.012v.012h.56v-.012zm0-.011v.011h.56v-.01zm0-.012v.012h.56v-.012zm0-.011v.011h.56v-.011zm0-.012v.012h.56v-.012zm0-.011v.011h.56v-.011zm0-.012v.011h.56v-.011zm0-.011v.011h.56v-.011zm0-.012v.012h.56v-.012zm0-.011v.011h.56v-.011zm0-.012v.012h.56v-.012zm0-.01v.01h.56v-.01zm0-.012v.011h.56v-.011zm0-.011v.01h.56v-.01zm0-.012v.012h.56v-.012zm0-.01v.01h.56v-.01zm0-.012v.011h.56v-.01zm0-.011v.011h.56v-.011zm0-.011v.011h.56v-.011zm0-.011v.011h.56v-.011zm0-.011v.011h.56v-.011zm0-.01v.01h.56v-.01zm0-.012v.011h.56v-.01zm0-.01v.01h.56v-.01zm0-.011v.01h.56v-.01zm0-.011v.01h.56v-.01zm0-.011v.01h.56v-.01zm0-.01v.01h.56v-.01zm0-.011v.01h.56v-.01zm0-.011v.01h.56v-.01zm0-.01v.01h.56v-.01zm0-.011v.01h.56v-.01zm0-.01v.01h.56v-.01zm0-.011v.01h.56v-.01zm0-.01v.01h.56v-.01zm0-.011v.01h.56v-.01zm0-.01v.01h.56v-.01zm0-.01v.01h.56v-.01zm0-.01v.01h.56v-.01zm0-.011v.01h.56v-.01zm0-.01v.01h.56v-.01zm0-.01v.01h.56v-.01zm0-.01v.01h.56v-.01zm0-.01v.01h.56v-.01zm0-.01v.01h.56v-.01zm0-.01v.01h.56v-.01zm0-.01v.01h.56v-.01zm0-.01v.01h.56v-.01zm0-.01v.01h.56v-.01zm0-.01v.01h.56v-.01zm0-.01v.01h.56v-.01zm0-.01v.01h.56v-.01zm0-.01v.01h.56v-.01zm0-.009v.01h.56v-.01zm0-.01v.01h.56v-.01zm0-.009v.01h.56v-.01zm0-.01v.01h.56v-.01zm0-.009v.01h.56v-.01zm0-.01v.01h.56v-.01zm0-.009v.01h.56v-.01zm0-.009v.01h.56v-.01zm0-.01v.01h.56v-.01zm0-.008v.009h.56v-.01zm0-.01v.01h.56v-.01zm0-.009v.01h.56v-.01zm0-.009v.01h.56v-.01zm0-.009v.01h.56v-.01zm0-.009v.01h.56v-.01zm0-.009v.01h.56v-.01zm.858-2.247c-.552.591-.858 1.363-.858 2.247h.56c0-.748.256-1.382.708-1.865zm1.69-1.021c-.535.17-1.174.468-1.69 1.02l.41.383c.427-.458.967-.716 1.449-.87zm2.59-.317c-.488 0-1.584-.002-2.59.317l.169.534c.913-.29 1.928-.291 2.42-.29zm.043 0h-.043v.56H22zm.042 0H22v.56h.044zm2.591.317c-1.006-.32-2.103-.317-2.59-.317v.56c.493 0 1.508 0 2.42.29zm1.689 1.02c-.516-.552-1.154-.85-1.689-1.02l-.17.534c.482.153 1.022.411 1.45.869zm.858 2.248c0-.884-.306-1.656-.858-2.247l-.41.382c.452.483.708 1.117.708 1.865zm0 .01v-.01h-.56v.01zm0 .008v-.009h-.56v.01zm0 .01v-.01h-.56v.01zm0 .008v-.009h-.56v.01zm0 .01v-.01h-.56v.01zm0 .008v-.009h-.56v.01zm0 .01v-.01h-.56v.01zm0 .009v-.01h-.56v.01zm0 .01v-.01h-.56v.01zm0 .009v-.01h-.56v.01zm0 .01v-.01h-.56v.01zm0 .009v-.01h-.56v.01zm0 .01v-.01h-.56v.01zm0 .009v-.01h-.56v.01zm0 .01v-.01h-.56v.01zm0 .009v-.01h-.56v.01zm0 .01v-.01h-.56v.01zm0 .01v-.01h-.56v.01zm0 .009v-.01h-.56v.01zm0 .01v-.01h-.56v.01zm0 .01v-.01h-.56v.01zm0 .01v-.01h-.56v.01zm0 .01v-.01h-.56v.01zm0 .01v-.01h-.56v.01zm0 .01v-.01h-.56v.01zm0 .01v-.01h-.56v.01zm0 .01v-.01h-.56v.01zm0 .01v-.01h-.56v.01zm0 .01v-.01h-.56v.01zm0 .01v-.01h-.56v.01zm0 .01v-.01h-.56v.01zm0 .01v-.01h-.56v.01zm0 .011v-.01h-.56v.01zm0 .01v-.01h-.56v.01zm0 .01v-.01h-.56v.01zm0 .011v-.01h-.56v.01zm0 .01v-.01h-.56v.01zm0 .011v-.01h-.56v.01zm0 .011v-.01h-.56v.01zm0 .01v-.01h-.56v.01zm0 .011v-.01h-.56v.01zm0 .011v-.01h-.56v.01zm0 .01v-.01h-.56v.01zm0 .011v-.01h-.56v.01zm0 .011v-.01h-.56v.01zm0 .011v-.01h-.56v.01zm0 .011v-.01h-.56v.01zm0 .011v-.01h-.56v.01zm0 .011v-.011h-.56v.011zm0 .011v-.011h-.56v.011zm0 .011v-.011h-.56v.011zm0 .011v-.011h-.56v.011zm0 .011v-.01h-.56v.01zm0 .011v-.01h-.56v.01zm0 .012v-.012h-.56v.012zm0 .01v-.01h-.56v.01zm0 .012v-.011h-.56v.011zm0 .011v-.01h-.56v.01zm0 .012v-.012h-.56v.012zm0 .011v-.011h-.56v.011zm0 .012v-.012h-.56v.012zm0 .011v-.011h-.56v.011zm0 .011v-.011h-.56v.011zm0 .012v-.011h-.56v.011zm0 .012v-.012h-.56v.012zm0 .011v-.011h-.56v.011zm0 .012v-.012h-.56v.012zm0 .011v-.01h-.56v.011zm0 .012v-.012h-.56v.012zm0 .012v-.012h-.56v.012zm0 .012v-.012h-.56v.012zm0 .011v-.011h-.56v.011zm0 .012v-.012h-.56v.012zm0 .012v-.012h-.56v.012zm0 .012v-.012h-.56v.012zm0 .012v-.012h-.56v.012zm0 .012v-.012h-.56v.012zm0 .012v-.012h-.56v.012zm0 .012v-.012h-.56v.012zm0 .012v-.012h-.56v.012zm0 .012v-.012h-.56v.012zm0 .012v-.012h-.56v.012zm0 .012v-.012h-.56v.012zm0 .013v-.013h-.56v.013zm0 .012v-.012h-.56v.012zm0 .012v-.012h-.56v.012zm0 .012v-.012h-.56v.012zm0 .013v-.013h-.56v.013zm0 .012v-.012h-.56v.012zm0 .012v-.012h-.56v.012zm0 .013v-.013h-.56v.013zm0 .012v-.012h-.56v.012zm0 .013V12.9h-.56v.013zm0 .012v-.012h-.56v.012zm0 .013v-.013h-.56v.013zm0 .012v-.012h-.56v.012zm0 .013v-.013h-.56v.013zm0 .012v-.012h-.56v.012zm0 .013v-.013h-.56v.013zm0 .013v-.013h-.56v.013zm0 .012v-.012h-.56v.012zm0 .013v-.013h-.56v.013zm0 .013v-.013h-.56v.013zm0 .013v-.013h-.56v.013zm0 .013v-.013h-.56v.013zm0 .012v-.012h-.56v.012zm0 .013v-.013h-.56v.013zm0 .013v-.013h-.56v.013zm0 .013v-.013h-.56v.013zm0 .013v-.013h-.56v.013zm0 .013v-.013h-.56v.013zm0 .013v-.013h-.56v.013zm0 .013v-.013h-.56v.013zm0 .013v-.013h-.56v.013zm0 .013v-.013h-.56v.013zm0 .013v-.013h-.56v.013zm0 .013v-.013h-.56v.013zm0 .014v-.014h-.56v.014zm0 .013v-.013h-.56v.013zm0 .013v-.013h-.56v.013zm0 .013v-.013h-.56v.013zm0 .013v-.013h-.56v.013zm0 .014v-.014h-.56v.014zm0 .013V13.3h-.56v.013zm0 .013v-.013h-.56v.013zm0 .014v-.014h-.56v.014zm0 .013v-.013h-.56v.013zm0 .014v-.014h-.56v.014zm0 .013v-.014h-.56v.014zm0 .013v-.013h-.56v.013zm0 .014v-.014h-.56v.014zm0 .013v-.013h-.56v.013zm0 .014v-.014h-.56v.014zm0 .013v-.013h-.56v.013zm0 .014v-.014h-.56v.014zm0 .014v-.014h-.56v.014zm0 .013v-.013h-.56v.013zm0 .014v-.014h-.56v.014zm0 .013v-.013h-.56v.013zm0 .014v-.014h-.56v.014zm0 .014v-.014h-.56v.014zm0 .014v-.014h-.56v.014zm0 .013v-.013h-.56v.013zm0 .014v-.014h-.56v.014zm0 .014v-.014h-.56v.014zm0 .014v-.014h-.56v.014zm0 .014v-.014h-.56v.014zm0 .013v-.013h-.56v.013zm0 .014v-.014h-.56v.014zm0 .014v-.014h-.56v.014zm0 .014v-.014h-.56v.014zm0 .014v-.014h-.56v.014zm0 .014v-.014h-.56v.014zm0 .014v-.014h-.56v.014zm0 .014v-.014h-.56v.014zm0 .014v-.014h-.56v.014zm0 .014v-.014h-.56v.014zm0 .014v-.014h-.56v.014zm0 .014v-.014h-.56v.014zm0 .014v-.014h-.56v.014zm0 .014v-.014h-.56v.014zm0 .014v-.014h-.56v.014zm0 .014v-.014h-.56v.014zm0 .014v-.014h-.56v.014zm0 .015v-.015h-.56v.015zm0 .014v-.014h-.56v.014zm0 .014v-.014h-.56v.014zm0 .014v-.014h-.56v.014zm0 .014v-.014h-.56v.014zm0 .015v-.015h-.56v.015zm0 .014v-.014h-.56v.014zm0 .014v-.014h-.56v.014zm0 .014v-.014h-.56v.014zm0 .015v-.014h-.56v.014zm0 .014v-.014h-.56v.014zm0 .014v-.014h-.56v.014zm0 .015v-.015h-.56v.015zm0 .014v-.014h-.56v.014zm0 .014v-.014h-.56v.014zm0 .015v-.014h-.56v.014zm0 .014v-.014h-.56v.014zm0 .015v-.015h-.56v.015zm0 .014v-.014h-.56v.014zm0 .015v-.015h-.56v.015zm0 .014v-.014h-.56v.014zm0 .015v-.015h-.56v.015zm0 .014v-.014h-.56v.014zm0 .015v-.015h-.56v.015zm0 .014v-.014h-.56v.014zm0 .015v-.015h-.56v.015zm0 .014v-.014h-.56v.014zm0 .015v-.015h-.56v.015zm0 .014v-.014h-.56v.014zm0 .015v-.015h-.56v.015zm0 .014v-.014h-.56v.014zm0 .015v-.014h-.56v.014zm0 .015v-.015h-.56v.015zm0 .014v-.014h-.56v.014zm0 .015v-.015h-.56v.015zm0 .015v-.015h-.56v.015zm0 .014v-.014h-.56v.014zm0 .015v-.015h-.56v.015zm0 .015v-.015h-.56v.015zm0 .014v-.014h-.56v.014zm0 .015v-.015h-.56v.015zm0 .015v-.015h-.56v.015zm0 .014v-.014h-.56v.014zm0 .015v-.015h-.56v.015zm0 .015V14.5h-.56v.015zm0 .015v-.015h-.56v.015zm0 .014v-.014h-.56v.014zm0 .015v-.015h-.56v.015zm0 .015v-.015h-.56v.015zm0 .015v-.015h-.56v.015zm0 .014v-.014h-.56v.014zm0 .015v-.014h-.56v.014zm0 .015v-.015h-.56v.015zm0 .015v-.015h-.56v.015zm0 .015v-.015h-.56v.015zm0 .015v-.015h-.56v.015zm0 .014v-.014h-.56v.014zm0 .015v-.015h-.56v.015zm0 .015v-.015h-.56v.015zm0 .015v-.015h-.56v.015zm0 .015v-.015h-.56v.015zm0 .015v-.015h-.56v.015zm0 .015v-.015h-.56v.015zm0 .014v-.014h-.56v.014zm0 .015v-.014h-.56v.014zm0 .015v-.015h-.56v.015zm0 .015v-.015h-.56v.015zm0 .015v-.015h-.56v.015zm0 .015v-.015h-.56v.015zm0 .015v-.015h-.56v.015zm0 .015v-.015h-.56v.015zm0 .015V14.9h-.56v.015zm0 .015v-.015h-.56v.015zm0 .015v-.015h-.56v.015zm0 .014v-.014h-.56v.014zm0 .015v-.014h-.56v.014zm0 .015v-.015h-.56v.015zm0 .015v-.015h-.56v.015zm0 .015v-.015h-.56v.015zm0 .015v-.015h-.56v.015zm0 .015v-.015h-.56v.015zm0 .015v-.015h-.56v.015zm0 .015v-.015h-.56v.015zm0 .015v-.015h-.56v.015zm0 .015v-.015h-.56v.015zm0 .015v-.015h-.56v.015zm0 .015v-.015h-.56v.015zm0 .015v-.015h-.56v.015zm0 .015v-.015h-.56v.015zm0 .015v-.015h-.56v.015zm0 .015v-.015h-.56v.015zm0 .015V15.2h-.56v.015zm0 .015v-.015h-.56v.015zm0 .015v-.015h-.56v.015zm0 .015v-.015h-.56v.015zm0 .015v-.015h-.56v.015zm0 .015v-.015h-.56v.015zm0 .015v-.015h-.56v.015zm0 .015v-.015h-.56v.015zm0 .015v-.015h-.56v.015zm0 .015v-.015h-.56v.015zm0 .015v-.015h-.56v.015zm0 .014v-.014h-.56v.014zm0 .016v-.015h-.56v.014zm0 .014v-.014h-.56v.014zm0 .015v-.014h-.56v.014zm0 .015v-.015h-.56v.015zm0 .015v-.015h-.56v.015zm0 .015v-.015h-.56v.015zm0 .015v-.015h-.56v.015zm0 .015v-.015h-.56v.015zm0 .015V15.5h-.56v.015zm0 .015v-.015h-.56v.015zm0 .015v-.015h-.56v.015zm0 .015v-.015h-.56v.015zm0 .015v-.015h-.56v.015zm0 .015v-.015h-.56v.015zm0 .015v-.015h-.56v.015zm0 .015v-.015h-.56v.015zm0 .015v-.015h-.56v.015zm0 .015v-.015h-.56v.015zm0 .015v-.015h-.56v.015zm0 .014v-.014h-.56v.014zm0 .015v-.014h-.56v.014zm0 .015v-.015h-.56v.015zm0 .015v-.015h-.56v.015zm0 .015v-.015h-.56v.015zm0 .015v-.015h-.56v.015zm0 .015v-.015h-.56v.015zm0 .015v-.015h-.56v.015zm0 .015v-.015h-.56v.015zm0 .014v-.014h-.56v.014zm0 .015v-.014h-.56v.014zm0 .015v-.015h-.56v.015zm0 .015v-.015h-.56v.015zm0 .015v-.015h-.56v.015zm0 .015v-.015h-.56v.015zm0 .014v-.014h-.56v.014zm0 .015v-.014h-.56v.014zm0 .015v-.015h-.56v.015zm0 .015v-.015h-.56v.015zm0 .015v-.015h-.56v.015zm0 .014v-.014h-.56v.014zm0 .015v-.014h-.56v.014zm0 .015v-.015h-.56v.015zm0 .015v-.015h-.56v.015zm0 .015v-.015h-.56v.015zm0 .014v-.014h-.56v.014zm0 .015v-.015h-.56v.015zm0 .015v-.015h-.56v.015zm0 .014v-.014h-.56v.014zm0 .015v-.015h-.56v.015zm0 .015v-.015h-.56v.015zm0 .014v-.014h-.56v.014zm0 .015v-.015h-.56v.015zm0 .015v-.015h-.56v.015zm0 .014v-.014h-.56v.014zm0 .015v-.015h-.56v.015zm0 .015v-.015h-.56v.015zm0 .014v-.014h-.56v.014zm0 .015v-.015h-.56v.015zm0 .015v-.015h-.56v.015zm0 .014v-.014h-.56v.014zm0 .015v-.015h-.56v.015zm0 .014v-.014h-.56v.014zm0 .015v-.015h-.56v.015zm0 .014v-.014h-.56v.014zm0 .015v-.015h-.56v.015zm0 .014v-.014h-.56v.014zm0 .015v-.015h-.56v.015zm0 .014v-.014h-.56v.014zm0 .015v-.015h-.56v.015zm0 .014V16.4h-.56v.014zm0 .015v-.015h-.56v.015zm0 .014v-.014h-.56v.014zm0 .015v-.015h-.56v.015zm0 .014v-.014h-.56v.014zm0 .014v-.014h-.56v.014zm0 .015v-.015h-.56v.015zm0 .014v-.014h-.56v.014zm0 .014v-.014h-.56v.014zm0 .015v-.015h-.56v.015zm0 .014v-.014h-.56v.014zm0 .014v-.014h-.56v.014zm0 .015v-.015h-.56v.015zm0 .014v-.014h-.56v.014zm0 .014v-.014h-.56v.014zm0 .014v-.014h-.56v.014zm0 .015v-.015h-.56v.015zm0 .014v-.014h-.56v.014zm0 .014v-.014h-.56v.014zm0 .014v-.014h-.56v.014zm0 .014v-.014h-.56v.014zm0 .014V16.7h-.56v.014zm0 .015v-.015h-.56v.015zm0 .014v-.014h-.56v.014zm0 .014v-.014h-.56v.014zm0 .014v-.014h-.56v.014zm0 .014v-.014h-.56v.014zm0 .014v-.014h-.56v.014zm0 .014v-.014h-.56v.014zm0 .014v-.014h-.56v.014zm0 .014v-.014h-.56v.014zm0 .014v-.014h-.56v.014zm0 .014v-.014h-.56v.014zm0 .014v-.014h-.56v.014zm0 .013v-.014h-.56v.014zm0 .014v-.014h-.56v.014zm0 .014v-.014h-.56v.014zm0 .014v-.014h-.56v.014zm0 .014v-.014h-.56v.014zm0 .013v-.013h-.56v.013zm0 .014v-.014h-.56v.014zm0 .014v-.014h-.56v.014zm0 .014v-.014h-.56v.014zm0 .013v-.013h-.56v.013zm0 .014v-.014h-.56v.014zm0 .014v-.014h-.56v.014zm0 .013v-.013h-.56v.013zm0 .014v-.014h-.56v.014zm0 .014v-.014h-.56v.014zm0 .013v-.013h-.56v.013zm0 .014v-.014h-.56v.014zm0 .013v-.013h-.56v.013zm0 .014v-.014h-.56v.014zm0 .013v-.013h-.56v.013zm0 .014v-.014h-.56v.014zm0 .013v-.013h-.56v.013zm0 .014v-.014h-.56v.014zm0 .013v-.014h-.56v.014zm0 .013v-.013h-.56v.013zm0 .014v-.014h-.56v.014zm0 .013v-.013h-.56v.013zm0 .013v-.013h-.56v.013zm0 .013v-.013h-.56v.013zm0 .014v-.014h-.56v.014zm0 .013v-.013h-.56v.013zm0 .013v-.013h-.56v.013zm0 .013v-.013h-.56v.013zm0 .013v-.013h-.56v.013zm0 .014v-.014h-.56v.014zm0 .013v-.014h-.56v.014zm0 .013v-.013h-.56v.013zm0 .013v-.013h-.56v.013zm0 .013v-.013h-.56v.013zm0 .013v-.013h-.56v.013zm0 .013v-.013h-.56v.013zm0 .013v-.013h-.56v.013zm0 .012v-.012h-.56v.012zm0 .013v-.013h-.56v.013zm0 .013v-.013h-.56v.013zm0 .013v-.013h-.56v.013zm0 .013v-.013h-.56v.013zm0 .012v-.012h-.56v.012zm0 .013v-.013h-.56v.013zm0 .013v-.013h-.56v.013zm0 .013v-.013h-.56v.013zm0 .012v-.012h-.56v.012zm0 .013v-.013h-.56v.013zm0 .012v-.012h-.56v.012zm0 .013V17.6h-.56v.012zm0 .013v-.013h-.56v.013zm0 .012v-.012h-.56v.012zm0 .013v-.013h-.56v.013zm0 .012v-.012h-.56v.012zm0 .012v-.012h-.56v.012zm0 .013v-.013h-.56v.013zm0 .012v-.012h-.56v.012zm0 .012V17.7h-.56v.012zm0 .013v-.012h-.56v.012zm0 .012v-.012h-.56v.012zm0 .012v-.012h-.56v.012zm0 .012v-.012h-.56v.012zm0 .013v-.013h-.56v.013zm0 .012v-.012h-.56v.012zm0 .012v-.012h-.56v.012zm0 .012v-.012h-.56v.012zm0 .012v-.012h-.56v.012zm0 .012v-.012h-.56v.012zm0 .012v-.012h-.56v.012zm0 .012v-.012h-.56v.012zm0 .012v-.012h-.56v.012zm0 .012v-.012h-.56v.012zm0 .011v-.011h-.56v.011zm0 .012v-.012h-.56v.012zm0 .012v-.012h-.56v.012zm0 .012v-.012h-.56v.012zm0 .011v-.011h-.56v.011zm0 .012v-.012h-.56v.012zm0 .012v-.012h-.56v.012zm0 .011v-.011h-.56v.011zm0 .012v-.012h-.56v.012zm0 .011v-.011h-.56v.011zm0 .012v-.012h-.56v.012zm0 .011v-.011h-.56v.011zm0 .012v-.012h-.56v.012zm0 .011v-.011h-.56v.011zm0 .012v-.012h-.56v.012zm0 .01v-.01h-.56v.01zm0 .012v-.011h-.56v.011zm0 .011v-.01h-.56v.01zm0 .011v-.01h-.56v.01zm0 .012v-.012h-.56v.012zm0 .01v-.01h-.56v.01zm0 .012v-.011h-.56v.01zm0 .011v-.011h-.56v.011zm0 .011v-.011h-.56v.011zm0 .01v-.01h-.56v.01zm0 .012v-.011h-.56v.01zm0 .01v-.01h-.56v.01zm0 .012v-.011h-.56v.01zm0 .01v-.01h-.56v.01zm0 .011v-.01h-.56v.01zm0 .011v-.01h-.56v.01zm0 .01v-.01h-.56v.01zm0 .011v-.01h-.56v.01zm0 .011v-.01h-.56v.01zm0 .01v-.01h-.56v.01zm0 .011v-.01h-.56v.01zm0 .01v-.01h-.56v.01zm0 .011v-.01h-.56v.01zm0 .01v-.01h-.56v.01zm0 .011v-.01h-.56v.01zm0 .01v-.01h-.56v.01zm0 .01v-.01h-.56v.01zm0 .01v-.01h-.56v.01zm0 .011v-.01h-.56v.01zm0 .01v-.01h-.56v.01zm0 .01v-.01h-.56v.01zm0 .01v-.01h-.56v.01zm0 .01v-.01h-.56v.01zm0 .01v-.01h-.56v.01zm0 .01v-.01h-.56v.01zm0 .01v-.01h-.56v.01zm0 .01v-.01h-.56v.01zm0 .01v-.01h-.56v.01zm0 .01v-.01h-.56v.01zm0 .01v-.01h-.56v.01zm0 .01v-.01h-.56v.01zm0 .01v-.01h-.56v.01zm0 .009v-.01h-.56v.01zm0 .01v-.01h-.56v.01zm0 .01v-.01h-.56v.01zm0 .009v-.01h-.56v.01zm0 .009v-.01h-.56v.01zm0 .01v-.01h-.56v.01zm0 .009v-.01h-.56v.01zm0 .01v-.01h-.56v.01zm0 1.904v-1.905h-.56v1.905zm0 8.124v-8.124h-.56v8.124zm7.42-.28h-7.7v.56h7.7zm-.28-3.587v3.867h.56v-3.867zm-2.92.28h3.2v-.56h-3.2zm-3.08-3.08a3.08 3.08 0 0 0 3.08 3.08v-.56a2.52 2.52 0 0 1-2.52-2.52zm0-2.914v2.914h.56V19.02zm3.08-3.08a3.08 3.08 0 0 0-3.08 3.08h.56a2.52 2.52 0 0 1 2.52-2.52zm3.2 0h-3.2v.56h3.2zm-.28-3.587v3.867h.56v-3.867zm-4.32.28h4.6v-.56h-4.6zm-1.68-1.68c0 .928.752 1.68 1.68 1.68v-.56a1.12 1.12 0 0 1-1.12-1.12zM30 9.273a1.68 1.68 0 0 0-1.68 1.68h.56c0-.619.501-1.12 1.12-1.12zm4.6 0H30v.56h4.6zm3.08 3.08a3.08 3.08 0 0 0-3.08-3.08v.56a2.52 2.52 0 0 1 2.52 2.52zm0 3.867v-3.867h-.56v3.867zM34.6 19.3a3.08 3.08 0 0 0 3.08-3.08h-.56a2.52 2.52 0 0 1-2.52 2.52zm-3.2 0h3.2v-.56h-3.2zm.28 2.634V19.02h-.56v2.914zm2.92-.28h-3.2v.56h3.2zm3.08 3.08a3.08 3.08 0 0 0-3.08-3.08v.56a2.52 2.52 0 0 1 2.52 2.52zm0 3.867v-3.867h-.56v3.867zm-3.08 3.08a3.08 3.08 0 0 0 3.08-3.08h-.56a2.52 2.52 0 0 1-2.52 2.52zm-7.7 0h7.7v-.56h-7.7zm-3.08-3.08a3.08 3.08 0 0 0 3.08 3.08v-.56a2.52 2.52 0 0 1-2.52-2.52zm-4.355-7.756-.004.002.267.493.004-.002zm.26.001a.28.28 0 0 1 .125.361c-.022.05-.053.08-.056.084a.3.3 0 0 1-.063.047l-.007.004-.252-.5-.012.006-.012.007-.018.012a.2.2 0 0 0-.035.03c-.003.003-.034.034-.056.083a.28.28 0 0 0 .124.36zm4.55.496-.006-.004q-.003 0-.01-.006l-.019-.012-.035-.03c-.003-.004-.037-.036-.058-.088a.28.28 0 0 1 .14-.363l.235.509a.28.28 0 0 0 .141-.363c-.022-.052-.055-.084-.059-.088a.3.3 0 0 0-.078-.056zm.263-.495-.004-.002-.266.493.004.002z" mask="url(#e)"/><circle cx="19.875" cy="15.126" r="1.125" fill="#000"/><circle cx="24.126" cy="15.126" r="1.125" fill="#000"/></g><g filter="url(#f)"><path fill="#e8e8e8" d="M43.36 26.5V14.138h4.528q1.315 0 2.179.435.863.428 1.292 1.165.428.73.428 1.648 0 .773-.283 1.304-.285.525-.761.845a3.4 3.4 0 0 1-1.038.459v.12q.615.03 1.2.399.592.362.979 1.032.386.67.386 1.63 0 .948-.447 1.703-.44.748-1.364 1.189-.923.435-2.36.435zm1.865-1.6h2.693q1.34 0 1.92-.518a1.67 1.67 0 0 0 .579-1.298q0-.585-.296-1.075a2.1 2.1 0 0 0-.845-.779q-.543-.29-1.292-.29h-2.759zm0-5.414h2.5q.627 0 1.128-.242.507-.24.803-.676.302-.441.302-1.038 0-.767-.537-1.286-.537-.52-1.648-.52h-2.548zm14.987 3.17v-5.428h1.81V26.5h-1.774v-1.606h-.096a2.9 2.9 0 0 1-1.027 1.237q-.7.49-1.745.49-.892 0-1.581-.393-.682-.399-1.075-1.177-.386-.78-.386-1.926v-5.898h1.805v5.68q0 .95.525 1.51.525.561 1.364.561.508 0 1.009-.253.506-.255.839-.767.338-.513.332-1.304m4.236 3.845v-9.273h1.805V26.5zm.912-10.704q-.471 0-.81-.314a1.02 1.02 0 0 1-.331-.76q0-.447.332-.761.338-.32.809-.32.47 0 .803.32a1 1 0 0 1 .338.76q0 .441-.338.761-.333.315-.803.314m5.127-1.66v12.364h-1.805V14.137zm6.757 3.09v1.45h-5.065v-1.45zm-3.707-2.22h1.805v8.771q0 .526.157.79.158.261.404.357.254.09.55.09.217 0 .38-.03l.254-.048.326 1.491q-.157.06-.447.121a3.5 3.5 0 0 1-.725.072 3.2 3.2 0 0 1-1.328-.253 2.3 2.3 0 0 1-.996-.821q-.38-.555-.38-1.395zM85.75 26.5l-2.73-9.273h1.866l1.817 6.81h.091l1.823-6.81h1.865l1.812 6.78h.09l1.805-6.78h1.866L93.332 26.5h-1.841l-1.884-6.695h-.139L87.585 26.5zm12.018 0v-9.273h1.805V26.5zm.911-10.704q-.47 0-.809-.314a1.02 1.02 0 0 1-.332-.76q0-.447.332-.761.338-.32.81-.32.47 0 .802.32a1 1 0 0 1 .338.76q0 .441-.338.761-.332.315-.803.314m7.65 1.43v1.45h-5.065v-1.45zm-3.706-2.22h1.805v8.771q0 .526.157.79a.8.8 0 0 0 .404.357q.253.09.55.09.217 0 .38-.03l.254-.048.326 1.491q-.158.06-.447.121a3.5 3.5 0 0 1-.725.072 3.2 3.2 0 0 1-1.328-.253 2.3 2.3 0 0 1-.996-.821q-.38-.555-.38-1.395zm7.707 5.988V26.5h-1.805V14.137h1.781v4.6h.115q.325-.748.996-1.19.67-.44 1.751-.44.954 0 1.666.393.718.392 1.111 1.17.398.774.398 1.933V26.5h-1.805v-5.68q0-1.02-.525-1.582-.525-.567-1.461-.567-.64 0-1.147.271a1.96 1.96 0 0 0-.791.797q-.284.52-.284 1.256"/><path fill="url(#g)" d="M122.937 26.5V14.138h5.156q1.388 0 2.324.392.942.393 1.413 1.1.477.705.477 1.635 0 .707-.296 1.262-.297.549-.815.912-.52.36-1.202.507v.12q.749.037 1.383.405.64.367 1.026 1.026.387.652.386 1.546a3.2 3.2 0 0 1-.507 1.78q-.507.78-1.467 1.232-.96.447-2.33.447zm2.988-2.408h1.848q.972 0 1.431-.368.464-.369.464-1.027 0-.476-.223-.82a1.44 1.44 0 0 0-.634-.538q-.411-.193-.984-.193h-1.902zm0-4.872h1.655q.488 0 .869-.163.38-.162.592-.47a1.26 1.26 0 0 0 .217-.743q0-.622-.441-.978-.44-.357-1.189-.357h-1.703zm12.636 7.456q-1.455 0-2.512-.574a3.96 3.96 0 0 1-1.617-1.648q-.562-1.074-.562-2.553 0-1.437.568-2.512.567-1.08 1.599-1.678 1.033-.604 2.433-.604.99 0 1.811.308.822.308 1.419.912t.93 1.49q.332.882.332 2.023v.737h-8.06v-1.715h5.313a1.7 1.7 0 0 0-.223-.839 1.5 1.5 0 0 0-.598-.573 1.7 1.7 0 0 0-.863-.212q-.495 0-.888.224a1.68 1.68 0 0 0-.863 1.449v1.744q0 .567.223.996.223.423.634.658t.978.236q.393 0 .712-.109.32-.109.55-.32.229-.21.344-.52l2.711.08a3.36 3.36 0 0 1-.743 1.587q-.567.67-1.491 1.044-.924.369-2.137.369m5.908 3.302v-12.75h2.922v1.588h.091q.181-.423.513-.815.338-.393.857-.64.525-.255 1.256-.254.966 0 1.805.507.845.508 1.364 1.564t.519 2.692q0 1.575-.501 2.639-.495 1.063-1.34 1.593a3.4 3.4 0 0 1-1.865.532q-.7 0-1.214-.23a2.7 2.7 0 0 1-.863-.604 2.9 2.9 0 0 1-.531-.803h-.061v4.98zm2.892-8.114q0 .75.199 1.304.205.555.586.864.386.3.924.301.543 0 .923-.301.38-.309.574-.864.2-.555.199-1.304 0-.748-.199-1.298-.193-.55-.574-.85-.374-.303-.923-.303-.544 0-.924.296t-.586.845q-.199.55-.199 1.31m7.982 4.637v-9.273h2.952V26.5zm1.479-10.354q-.621 0-1.068-.41a1.32 1.32 0 0 1-.447-1.002q0-.58.447-.99a1.5 1.5 0 0 1 1.068-.417 1.5 1.5 0 0 1 1.069.417q.447.41.447.99 0 .585-.447 1.002-.44.41-1.069.41m6.305 5.065v5.289h-2.953v-9.273h2.808v1.702h.102a2.6 2.6 0 0 1 1.051-1.334q.742-.489 1.769-.489.978 0 1.696.44.724.435 1.123 1.22.404.78.398 1.823v5.91h-2.952v-5.33q.006-.773-.392-1.207-.393-.435-1.093-.435-.465 0-.821.205a1.36 1.36 0 0 0-.543.574q-.187.375-.193.905m7.822 5.289V14.137h2.988v4.962h4.872v-4.962h2.982v12.364h-2.982v-4.969h-4.872v4.969zm17.051.175q-1.455 0-2.511-.574a3.97 3.97 0 0 1-1.618-1.648q-.561-1.074-.561-2.553 0-1.437.567-2.512.567-1.08 1.6-1.678 1.032-.604 2.433-.604.99 0 1.811.308.82.308 1.418.912.599.604.93 1.49.332.882.332 2.023v.737h-8.059v-1.715h5.312a1.66 1.66 0 0 0-.223-.839 1.5 1.5 0 0 0-.598-.573 1.7 1.7 0 0 0-.863-.212q-.495 0-.887.224a1.68 1.68 0 0 0-.864 1.449v1.744q0 .567.224.996.223.423.634.658.41.236.978.236.392 0 .712-.109t.549-.32.344-.52l2.711.08a3.35 3.35 0 0 1-.743 1.587q-.567.67-1.491 1.044-.923.369-2.137.369m10.237 0q-1.467 0-2.517-.604a4.1 4.1 0 0 1-1.606-1.678q-.561-1.08-.561-2.5 0-1.424.561-2.499a4.1 4.1 0 0 1 1.612-1.684q1.05-.604 2.505-.604 1.287 0 2.24.465.96.465 1.497 1.316.544.845.574 1.986h-2.759q-.085-.712-.483-1.117-.393-.404-1.026-.404-.514 0-.9.29-.387.283-.604.845-.211.555-.211 1.376t.211 1.389q.217.561.604.851.386.285.9.284.41 0 .724-.175.32-.175.525-.514.206-.344.26-.833h2.759q-.043 1.147-.574 2.005a3.55 3.55 0 0 1-1.479 1.334q-.947.47-2.252.47m8.478-2.608.012-3.52h.41l2.608-3.32h3.345l-3.876 4.757h-.779zm-2.663 2.433V14.137h2.952v12.364zm5.76 0-2.427-3.852 1.944-2.095 3.893 5.947zm12.43-6.442-2.711.073a1 1 0 0 0-.229-.513 1.24 1.24 0 0 0-.489-.357 1.7 1.7 0 0 0-.689-.132q-.513 0-.875.205-.356.206-.35.555a.6.6 0 0 0 .217.471q.23.2.815.32l1.787.338q1.389.266 2.065.882.682.615.688 1.63-.006.953-.567 1.66-.556.706-1.522 1.098-.966.387-2.209.387-1.986 0-3.133-.815-1.142-.822-1.304-2.198l2.915-.072q.097.506.502.773.403.265 1.032.265.567 0 .924-.211.356-.21.362-.561a.6.6 0 0 0-.278-.502q-.272-.193-.851-.301l-1.618-.308q-1.395-.254-2.077-.936-.682-.688-.676-1.75-.006-.93.495-1.588.501-.664 1.425-1.015t2.179-.35q1.884 0 2.97.791 1.087.785 1.202 2.161"/></g></g><rect width="228.858" height="37.858" x="1.071" y="1.071" stroke="#fff" stroke-opacity=".15" stroke-width="2.143" rx="6.929"/><defs><linearGradient id="b" x1="115.501" x2="115.501" y1="0" y2="40.001" gradientUnits="userSpaceOnUse"><stop stop-color="#2c2a07"/><stop offset="1" stop-color="#1c1604"/></linearGradient><linearGradient id="d" x1="22.001" x2="22.001" y1="8.555" y2="31.446" gradientUnits="userSpaceOnUse"><stop stop-color="#e4d652"/><stop offset="1" stop-color="#cbba24"/></linearGradient><linearGradient id="g" x1="172.501" x2="172.501" y1="12.732" y2="27.27" gradientUnits="userSpaceOnUse"><stop stop-color="#e4d551"/><stop offset="1" stop-color="#cbba23"/></linearGradient><filter id="c" width="42.562" height="39.202" x=".72" y=".4" color-interpolation-filters="sRGB" filterUnits="userSpaceOnUse"><feFlood flood-opacity="0" result="BackgroundImageFix"/><feColorMatrix in="SourceAlpha" result="hardAlpha" values="0 0 0 0 0 0 0 0 0 0 0 0 0 0 0 0 0 0 127 0"/><feOffset/><feGaussianBlur stdDeviation="2.8"/><feComposite in2="hardAlpha" operator="out"/><feColorMatrix values="0 0 0 0 0 0 0 0 0 0 0 0 0 0 0 0 0 0 0.25 0"/><feBlend in2="BackgroundImageFix" result="effect1_dropShadow_4_85"/><feBlend in="SourceGraphic" in2="effect1_dropShadow_4_85" result="shape"/></filter><filter id="f" width="192.429" height="32.429" x="36.287" y="3.786" color-interpolation-filters="sRGB" filterUnits="userSpaceOnUse"><feFlood flood-opacity="0" result="BackgroundImageFix"/><feColorMatrix in="SourceAlpha" result="hardAlpha" values="0 0 0 0 0 0 0 0 0 0 0 0 0 0 0 0 0 0 127 0"/><feOffset/><feGaussianBlur stdDeviation="2.857"/><feComposite in2="hardAlpha" operator="out"/><feColorMatrix values="0 0 0 0 0 0 0 0 0 0 0 0 0 0 0 0 0 0 0.25 0"/><feBlend in2="BackgroundImageFix" result="effect1_dropShadow_4_85"/><feBlend in="SourceGraphic" in2="effect1_dropShadow_4_85" result="shape"/></filter><clipPath id="a"><rect width="231.001" height="40.001" fill="#fff" rx="8"/></clipPath></defs></svg>