<svg xmlns="http://www.w3.org/2000/svg" width="233" height="40" fill="none" viewBox="0 0 233 40"><rect width="233.001" height="40.001" fill="url(#a)" rx="8"/><rect width="230.858" height="37.858" x="1.071" y="1.071" stroke="#fff" stroke-opacity=".15" stroke-width="2.143" rx="6.929"/><g filter="url(#b)"><path fill="#fff" fill-rule="evenodd" d="M21.786 13.035h12.062v4.922H21.786z" clip-rule="evenodd"/><path fill="#3ecc5f" fill-rule="evenodd" d="M10.872 29.106a2.86 2.86 0 0 1-2.484-1.448c-.254.44-.388.939-.388 1.448C8 30.705 9.286 32 10.872 32h2.872v-2.895z" clip-rule="evenodd"/><path fill="#3ecc5f" fill-rule="evenodd" d="m23.793 13.813 10.055-.633v-1.448c0-1.6-1.286-2.896-2.872-2.896H18.052l-.36-.627a.413.413 0 0 0-.717 0l-.36.627-.358-.627a.413.413 0 0 0-.718 0l-.359.627-.359-.627a.413.413 0 0 0-.718 0l-.359.627h-.01l-.594-.6a.413.413 0 0 0-.693.188l-.197.74-.745-.202a.416.416 0 0 0-.508.512l.2.752-.733.197a.42.42 0 0 0-.186.7l.595.6v.009l-.623.362a.42.42 0 0 0 0 .724l.622.362-.622.361a.42.42 0 0 0 0 .724l.622.362-.622.362a.42.42 0 0 0 0 .724l.622.362-.622.362a.42.42 0 0 0 0 .724l.622.362-.622.362a.42.42 0 0 0 0 .724l.622.362-.622.362a.42.42 0 0 0 0 .724l.622.362-.622.362a.42.42 0 0 0 0 .724l.622.361-.622.363a.42.42 0 0 0 0 .723l.622.362-.622.362a.42.42 0 0 0 0 .724l.622.362-.622.362a.42.42 0 0 0 0 .724l.622.362-.622.362a.42.42 0 0 0 0 .724l.622.362-.622.362a.42.42 0 0 0 0 .724l.622.362c0 1.599 1.286 2.895 2.872 2.895h17.232c1.586 0 2.872-1.296 2.872-2.895V17.523l-10.055-.634a1.52 1.52 0 0 1-1.019-.482 1.55 1.55 0 0 1-.414-1.056c0-.814.627-1.487 1.433-1.538" clip-rule="evenodd"/><path fill="#3ecc5f" fill-rule="evenodd" d="M28.104 32.001h4.308V26.21h-4.308z" clip-rule="evenodd"/><path fill="#44d860" fill-rule="evenodd" d="M35.284 28.382q-.047.002-.092.009-.007-.033-.017-.065a.72.72 0 0 0 .427-.81.725.725 0 0 0-.703-.582.7.7 0 0 0-.433.15l-.048-.049a.72.72 0 0 0-.907-1.073.72.72 0 0 0-.327.357l-.063-.017c.003-.03.009-.06.009-.092a.73.73 0 0 0-.21-.512.715.715 0 0 0-1.016 0 .73.73 0 0 0-.21.512q.001.047.009.092l-.064.017a.72.72 0 0 0-.804-.426.72.72 0 0 0-.574.71.72.72 0 0 0 .145.432 2.9 2.9 0 0 0-.866 2.07c0 1.6 1.286 2.896 2.872 2.896a2.875 2.875 0 0 0 2.78-2.18q.044.006.092.008c.19 0 .373-.076.507-.212a.727.727 0 0 0 0-1.023.72.72 0 0 0-.507-.212" clip-rule="evenodd"/><path fill="#3ecc5f" fill-rule="evenodd" d="M29.54 23.314h4.308V20.42H29.54z" clip-rule="evenodd"/><path fill="#44d860" fill-rule="evenodd" d="M35.284 22.228a.363.363 0 0 0 0-.724q-.023.001-.046.005l-.008-.032a.36.36 0 0 0 .213-.405.36.36 0 0 0-.352-.291.35.35 0 0 0-.216.075l-.024-.025a.36.36 0 1 0-.617-.358 1.4 1.4 0 0 0-.386-.054c-.793 0-1.436.648-1.436 1.447 0 .8.643 1.448 1.436 1.448q.201-.002.386-.054a.36.36 0 0 0 .402.212.36.36 0 0 0 .287-.354.36.36 0 0 0-.072-.216l.024-.025a.35.35 0 0 0 .444-.007.362.362 0 0 0-.09-.614l.009-.032q.022.004.046.004" clip-rule="evenodd"/><path fill="#000" fill-rule="evenodd" d="M16.616 13.542a.36.36 0 0 1-.359-.362c0-.6-.483-1.086-1.077-1.086s-1.077.487-1.077 1.086a.358.358 0 1 1-.718 0c0-.998.805-1.81 1.795-1.81s1.795.812 1.795 1.81a.363.363 0 0 1-.359.361" clip-rule="evenodd"/><path fill="#ffff50" fill-rule="evenodd" d="M22.36 32.001h8.616c1.586 0 2.872-1.296 2.872-2.895V18.97h-8.616c-1.586 0-2.872 1.296-2.872 2.895z" clip-rule="evenodd"/><path fill="#000" fill-rule="evenodd" d="M31.697 23.46H24.51a.14.14 0 0 1-.101-.043.145.145 0 0 1 .101-.248h7.186a.143.143 0 0 1 .143.145.143.143 0 0 1-.144.145m0 2.895H24.51a.143.143 0 0 1-.143-.145.143.143 0 0 1 .143-.145h7.186a.143.143 0 0 1 .143.145.143.143 0 0 1-.144.145m0 2.895H24.51a.14.14 0 0 1-.101-.042.145.145 0 0 1 .101-.247h7.186a.143.143 0 0 1 .143.145.143.143 0 0 1-.144.145m0-7.212H24.51a.14.14 0 0 1-.101-.042.145.145 0 0 1 .101-.247h7.186a.143.143 0 0 1 .143.144.143.143 0 0 1-.144.145m0 2.869H24.51a.145.145 0 0 1 0-.29h7.186a.143.143 0 0 1 .143.145.145.145 0 0 1-.143.145m0 2.896H24.51a.143.143 0 0 1-.143-.145q0-.06.042-.103a.14.14 0 0 1 .101-.042h7.186a.143.143 0 0 1 .143.145.143.143 0 0 1-.144.145m2.15-13.377h-.004c-.444.015-.654.462-.839.857-.193.413-.343.681-.588.673-.271-.01-.426-.319-.59-.646-.189-.375-.404-.801-.857-.785-.437.015-.648.404-.833.748-.198.366-.333.588-.592.578-.277-.01-.424-.261-.594-.552-.19-.324-.41-.688-.852-.675-.43.014-.642.345-.828.637-.197.308-.335.496-.598.485-.284-.01-.43-.219-.6-.46-.19-.271-.403-.578-.846-.563-.42.014-.631.285-.817.523-.177.227-.316.406-.608.395a.145.145 0 0 0-.01.29c.433.014.652-.261.843-.505.17-.217.315-.404.602-.414.277-.012.406.162.603.441.186.266.397.567.823.582.445.015.66-.32.85-.618.169-.265.316-.494.595-.504.258-.01.398.195.596.533.186.318.397.678.83.694.45.016.666-.379.855-.729.163-.302.318-.588.591-.597.258-.006.392.23.59.627.186.37.396.788.837.804h.024c.44 0 .649-.445.834-.838.163-.35.318-.678.584-.691z" clip-rule="evenodd"/><path fill="#3ecc5f" fill-rule="evenodd" d="M19.488 32.001h5.744V26.21h-5.744z" clip-rule="evenodd"/><path fill="#d8d8d8" d="m33.813 16.976-11.168 3.017a.29.29 0 0 0-.203.355l1.091 4.107a.287.287 0 0 0 .352.205l11.168-3.018a.29.29 0 0 0 .204-.354l-1.092-4.107a.287.287 0 0 0-.352-.205"/><path fill="#4a4a4a" d="m26.016 22.242-.4.108a.145.145 0 0 0-.101.177l.107.403c.02.077.099.123.175.103l.4-.108a.146.146 0 0 0 .102-.178l-.107-.403a.144.144 0 0 0-.176-.102m.804-.217-.4.108a.145.145 0 0 0-.102.177l.107.403c.02.078.1.123.176.103l.4-.108a.145.145 0 0 0 .101-.178l-.107-.403a.144.144 0 0 0-.176-.102m.802-.217-.4.108a.145.145 0 0 0-.101.177l.107.404c.02.077.1.123.176.102l.4-.108c.076-.02.122-.1.101-.177l-.107-.404a.143.143 0 0 0-.176-.102m.803-.217-.4.108a.145.145 0 0 0-.102.177l.108.404c.02.077.099.123.175.102l.4-.108c.077-.02.122-.1.102-.177l-.107-.404a.143.143 0 0 0-.176-.102m.803-.217-.4.108a.145.145 0 0 0-.101.178l.107.403c.02.077.1.123.176.102l.4-.108c.076-.02.122-.1.101-.177l-.107-.403a.143.143 0 0 0-.176-.103m.803-.217-.4.108a.145.145 0 0 0-.102.178l.107.403c.02.077.1.123.176.102l.4-.108c.077-.02.122-.1.102-.177l-.108-.403a.143.143 0 0 0-.175-.103m.803-.217-.4.109a.145.145 0 0 0-.102.177l.107.403c.02.077.1.123.176.102l.4-.108c.077-.02.122-.1.102-.177l-.108-.403a.143.143 0 0 0-.175-.102m.801-.217-.4.108a.145.145 0 0 0-.101.177l.107.403c.02.078.1.123.176.103l.4-.108a.145.145 0 0 0 .101-.178l-.107-.403a.144.144 0 0 0-.176-.102m.804-.217-.4.108a.145.145 0 0 0-.101.177l.107.403c.02.078.099.123.176.103l.4-.108a.145.145 0 0 0 .101-.178l-.107-.403a.144.144 0 0 0-.176-.102"/><path fill="#4a4a4a" fill-rule="evenodd" d="m23.484 22.926 1.704-.46a.14.14 0 0 1 .176.102l.107.403a.146.146 0 0 1-.102.177l-1.704.46a.143.143 0 0 1-.176-.102l-.107-.403a.146.146 0 0 1 .102-.177m9.38-2.535 1.705-.46a.143.143 0 0 1 .176.102l.107.403a.146.146 0 0 1-.101.178l-1.705.46a.145.145 0 0 1-.176-.102l-.107-.403a.146.146 0 0 1 .102-.178m-9.815.901.65-.176a.14.14 0 0 1 .175.102l.108.403a.146.146 0 0 1-.102.178l-.65.175a.14.14 0 0 1-.176-.102l-.107-.403a.146.146 0 0 1 .101-.177" clip-rule="evenodd"/><path fill="#4a4a4a" d="m24.503 20.899-.4.108a.145.145 0 0 0-.102.177l.108.403c.02.078.099.124.175.103l.4-.108c.077-.02.122-.1.102-.178l-.107-.403a.143.143 0 0 0-.176-.102m.802-.217-.4.108a.145.145 0 0 0-.101.177l.107.404c.02.077.1.123.176.102l.4-.108c.077-.02.122-.1.102-.177l-.108-.404a.143.143 0 0 0-.176-.102m.803-.217-.4.108a.145.145 0 0 0-.101.178l.107.403c.02.077.1.123.176.102l.4-.108c.076-.02.122-.1.101-.177l-.107-.403a.144.144 0 0 0-.176-.103m.802-.217-.399.108a.145.145 0 0 0-.101.178l.107.403c.02.077.099.123.175.102l.4-.108c.077-.02.122-.1.102-.177l-.107-.403a.144.144 0 0 0-.176-.103m.802-.216-.4.108a.145.145 0 0 0-.101.177l.107.403c.02.077.1.123.176.102l.4-.108c.076-.02.122-.1.101-.177l-.107-.403a.144.144 0 0 0-.176-.102m.803-.217-.4.108a.145.145 0 0 0-.101.177l.107.403c.02.077.1.123.176.103l.4-.109c.076-.02.122-.1.101-.177l-.107-.403a.144.144 0 0 0-.176-.102m.803-.217-.4.108a.145.145 0 0 0-.102.177l.108.403c.02.078.099.123.175.103l.4-.108a.146.146 0 0 0 .102-.178l-.107-.403a.143.143 0 0 0-.176-.102m.803-.217-.4.108a.145.145 0 0 0-.102.177l.107.404c.02.077.1.123.176.102l.4-.108c.077-.02.122-.1.102-.177l-.108-.404a.144.144 0 0 0-.175-.102m.802-.217-.4.108a.145.145 0 0 0-.101.178l.107.403c.02.077.1.123.176.102l.4-.108c.076-.02.122-.1.101-.177l-.107-.404a.144.144 0 0 0-.176-.102m.803-.217-.4.108a.145.145 0 0 0-.102.178l.107.403c.02.077.1.123.176.102l.4-.108c.077-.02.122-.1.102-.177l-.108-.403a.143.143 0 0 0-.175-.103m.803-.217-.4.108a.145.145 0 0 0-.102.178l.107.403c.02.077.1.123.176.102l.4-.108c.076-.02.122-.1.101-.177l-.107-.403a.143.143 0 0 0-.176-.103m.803-.216-.4.108a.145.145 0 0 0-.101.177l.107.403c.02.077.099.123.176.102l.4-.107a.145.145 0 0 0 .101-.178l-.107-.403a.144.144 0 0 0-.176-.102m.803-.217-.4.108a.145.145 0 0 0-.102.177l.107.403c.02.078.1.123.176.103l.4-.108a.146.146 0 0 0 .102-.178l-.108-.403a.144.144 0 0 0-.175-.102"/><path fill="#4a4a4a" fill-rule="evenodd" d="m34.11 18.205-.65.176a.14.14 0 0 1-.176-.102l-.107-.404a.146.146 0 0 1 .102-.177l.65-.176a.14.14 0 0 1 .176.103l.107.403a.146.146 0 0 1-.101.177" clip-rule="evenodd"/><path fill="#4a4a4a" d="m32.658 18.598.4-.108c.076-.02.122-.1.101-.177l-.107-.404a.144.144 0 0 0-.176-.102l-.4.108a.145.145 0 0 0-.101.177l.107.404c.02.077.1.123.176.102m-.803.217.4-.108a.146.146 0 0 0 .102-.178l-.108-.403a.144.144 0 0 0-.175-.102l-.4.108a.145.145 0 0 0-.102.177l.107.403c.02.078.1.123.176.103m-.803.217.4-.108a.146.146 0 0 0 .102-.178l-.107-.403a.143.143 0 0 0-.176-.102l-.4.108a.145.145 0 0 0-.102.177l.107.403c.02.077.1.123.176.103m-.802.216.4-.108c.076-.02.122-.1.101-.177l-.107-.403a.143.143 0 0 0-.176-.102l-.4.108a.145.145 0 0 0-.101.177l.107.403c.02.077.1.123.176.102m-.803.217.4-.108c.076-.02.122-.1.101-.177l-.107-.403a.143.143 0 0 0-.176-.103l-.4.108a.145.145 0 0 0-.101.178l.107.403c.02.077.1.123.176.102m-.803.217.4-.108c.077-.02.122-.1.102-.177l-.108-.403a.143.143 0 0 0-.175-.103l-.4.108a.145.145 0 0 0-.102.178l.107.403c.02.077.1.123.176.102m-.803.217.4-.108c.077-.02.122-.1.102-.177l-.107-.404a.144.144 0 0 0-.176-.102l-.4.108a.145.145 0 0 0-.102.177l.107.404c.021.077.1.123.176.102m-.802.217.4-.108c.076-.02.122-.1.101-.177l-.107-.404a.143.143 0 0 0-.176-.102l-.4.108a.145.145 0 0 0-.101.177l.107.404c.02.077.1.123.176.102m-.803.217.4-.108a.146.146 0 0 0 .102-.178l-.107-.403a.144.144 0 0 0-.176-.102l-.4.108a.145.145 0 0 0-.102.177l.107.403c.021.078.1.123.176.103m-.803.217.4-.108a.146.146 0 0 0 .102-.178l-.107-.403a.143.143 0 0 0-.176-.102l-.4.108a.145.145 0 0 0-.102.177l.108.403c.02.077.099.123.175.103m-.803.217.4-.109c.077-.02.123-.1.102-.177l-.107-.403a.143.143 0 0 0-.176-.102l-.4.108a.145.145 0 0 0-.101.177l.107.403c.02.077.1.123.176.102m-.803.217.4-.108c.077-.02.122-.1.102-.177l-.107-.403a.143.143 0 0 0-.176-.103l-.4.108a.145.145 0 0 0-.102.178l.107.403c.021.077.1.123.176.102m-.802.217.4-.108c.076-.02.122-.1.101-.177l-.107-.403a.143.143 0 0 0-.176-.103l-.4.108a.145.145 0 0 0-.101.178l.107.403c.02.077.099.123.176.102"/><path fill="#4a4a4a" d="m32.658 18.598.4-.108c.076-.02.122-.1.101-.177l-.107-.404a.144.144 0 0 0-.176-.102l-.4.108a.145.145 0 0 0-.101.177l.107.404c.02.077.1.123.176.102m-.803.217.4-.108a.146.146 0 0 0 .102-.178l-.108-.403a.144.144 0 0 0-.175-.102l-.4.108a.145.145 0 0 0-.102.177l.107.403c.02.078.1.123.176.103m-.803.217.4-.108a.146.146 0 0 0 .102-.178l-.107-.403a.143.143 0 0 0-.176-.102l-.4.108a.145.145 0 0 0-.102.177l.107.403c.02.077.1.123.176.103m-.802.216.4-.108c.076-.02.122-.1.101-.177l-.107-.403a.143.143 0 0 0-.176-.102l-.4.108a.145.145 0 0 0-.101.177l.107.403c.02.077.1.123.176.102m-.803.217.4-.108c.076-.02.122-.1.101-.177l-.107-.403a.143.143 0 0 0-.176-.103l-.4.108a.145.145 0 0 0-.101.178l.107.403c.02.077.1.123.176.102m-.803.217.4-.108c.077-.02.122-.1.102-.177l-.108-.403a.143.143 0 0 0-.175-.103l-.4.108a.145.145 0 0 0-.102.178l.107.403c.02.077.1.123.176.102m-.803.217.4-.108c.077-.02.122-.1.102-.177l-.107-.404a.144.144 0 0 0-.176-.102l-.4.108a.145.145 0 0 0-.102.177l.107.404c.021.077.1.123.176.102m-.802.217.4-.108c.076-.02.122-.1.101-.177l-.107-.404a.143.143 0 0 0-.176-.102l-.4.108a.145.145 0 0 0-.101.177l.107.404c.02.077.1.123.176.102m-.803.217.4-.108a.146.146 0 0 0 .102-.178l-.107-.403a.144.144 0 0 0-.176-.102l-.4.108a.145.145 0 0 0-.102.177l.107.403c.021.078.1.123.176.103m-.803.217.4-.108a.146.146 0 0 0 .102-.178l-.107-.403a.143.143 0 0 0-.176-.102l-.4.108a.145.145 0 0 0-.102.177l.108.403c.02.077.099.123.175.103m-.803.217.4-.109c.077-.02.123-.1.102-.177l-.107-.403a.143.143 0 0 0-.176-.102l-.4.108a.145.145 0 0 0-.101.177l.107.403c.02.077.1.123.176.102m-.803.217.4-.108c.077-.02.122-.1.102-.177l-.107-.403a.143.143 0 0 0-.176-.103l-.4.108a.145.145 0 0 0-.102.178l.107.403c.021.077.1.123.176.102m-.802.217.4-.108c.076-.02.122-.1.101-.177l-.107-.403a.143.143 0 0 0-.176-.103l-.4.108a.145.145 0 0 0-.101.178l.107.403c.02.077.099.123.176.102"/><path fill="#4a4a4a" fill-rule="evenodd" d="m23.265 22.1.926-.25a.14.14 0 0 1 .176.103l.107.403a.146.146 0 0 1-.101.177l-.927.25a.143.143 0 0 1-.176-.102l-.107-.403a.146.146 0 0 1 .102-.177" clip-rule="evenodd"/><path fill="#4a4a4a" d="m25.02 21.627-.4.108a.145.145 0 0 0-.102.177l.107.403c.02.078.1.123.176.103l.4-.108a.145.145 0 0 0 .101-.178l-.107-.403a.144.144 0 0 0-.176-.102m.803-.217-.4.108a.145.145 0 0 0-.101.177l.107.404c.02.077.099.123.176.102l.4-.108c.076-.02.122-.1.101-.177l-.107-.404a.144.144 0 0 0-.176-.102m.803-.217-.4.108a.145.145 0 0 0-.101.177l.107.404c.02.077.099.123.176.102l.4-.108c.076-.02.122-.1.101-.177l-.107-.404a.143.143 0 0 0-.176-.102m.803-.217-.4.108a.145.145 0 0 0-.102.178l.107.403c.02.077.1.123.176.102l.4-.108c.077-.02.122-.1.101-.177l-.107-.403a.144.144 0 0 0-.176-.103m.803-.216-.4.107a.145.145 0 0 0-.101.178l.107.403c.02.077.099.123.176.102l.4-.108c.076-.02.122-.1.101-.177l-.107-.403a.144.144 0 0 0-.176-.103m.803-.216-.4.108a.145.145 0 0 0-.102.177l.108.403c.02.077.099.123.175.102l.4-.108c.077-.02.122-.1.102-.177l-.107-.403a.144.144 0 0 0-.176-.102m.803-.217-.4.108a.145.145 0 0 0-.102.177l.107.403c.02.078.1.123.176.103l.4-.108a.147.147 0 0 0 .102-.178l-.108-.403a.143.143 0 0 0-.175-.102m.802-.217-.4.108a.145.145 0 0 0-.101.177l.107.403c.02.078.1.123.176.103l.4-.108c.076-.02.122-.1.101-.178l-.107-.403a.144.144 0 0 0-.176-.102m.802-.217-.4.108a.145.145 0 0 0-.1.177l.106.404c.02.077.1.123.176.102l.4-.108c.077-.02.122-.1.102-.177l-.107-.404a.144.144 0 0 0-.176-.102m.802-.217-.4.108a.145.145 0 0 0-.101.178l.107.403c.02.077.1.123.176.102l.4-.108c.076-.02.122-.1.101-.177l-.107-.403a.143.143 0 0 0-.176-.103m.803-.217-.4.108a.145.145 0 0 0-.101.178l.107.403c.02.077.1.123.176.102l.4-.108c.076-.02.122-.1.101-.177l-.107-.403a.143.143 0 0 0-.176-.103"/><path fill="#4a4a4a" fill-rule="evenodd" d="m33.474 19.343.876-.237a.143.143 0 0 1 .176.102l.107.404a.15.15 0 0 1-.014.11.14.14 0 0 1-.087.067l-.877.237a.143.143 0 0 1-.176-.103l-.107-.403a.146.146 0 0 1 .102-.177" clip-rule="evenodd"/><path fill="#4a4a4a" d="m24.108 23.662-.4.108a.145.145 0 0 0-.102.177l.107.404c.02.077.1.123.176.102l.4-.108c.077-.02.122-.1.102-.177l-.107-.404a.143.143 0 0 0-.176-.102m.802-.217-.4.108a.145.145 0 0 0-.101.177l.107.404c.02.077.1.123.176.102l.4-.108c.077-.02.122-.1.101-.177l-.107-.404a.144.144 0 0 0-.176-.102m.804-.217-.4.108a.145.145 0 0 0-.102.178l.107.403c.02.077.1.123.176.102l.4-.108c.077-.02.122-.1.102-.177l-.107-.403a.143.143 0 0 0-.176-.103m.802-.217-.4.108a.145.145 0 0 0-.101.178l.107.403c.02.077.099.123.175.102l.4-.108c.077-.02.122-.1.102-.177l-.107-.403a.144.144 0 0 0-.176-.103"/><path fill="#4a4a4a" fill-rule="evenodd" d="m26.919 22.903 3.861-1.044a.14.14 0 0 1 .176.103l.107.403a.146.146 0 0 1-.101.177L27.1 23.586a.14.14 0 0 1-.176-.103l-.107-.403a.146.146 0 0 1 .102-.177m4.264-1.152.5-.136a.143.143 0 0 1 .176.103l.107.403a.146.146 0 0 1-.102.178l-.5.135a.14.14 0 0 1-.176-.103l-.107-.403a.146.146 0 0 1 .102-.177" clip-rule="evenodd"/><path fill="#4a4a4a" d="m32.486 21.399-.4.108a.145.145 0 0 0-.102.177l.107.403c.02.077.1.123.176.102l.4-.108c.077-.02.122-.1.102-.177l-.108-.403a.143.143 0 0 0-.175-.102m.802-.217-.4.108a.145.145 0 0 0-.101.177l.107.403c.02.078.1.123.176.103l.4-.108a.145.145 0 0 0 .101-.178l-.107-.403a.144.144 0 0 0-.176-.102m1.505-.407-.4.108a.145.145 0 0 0-.101.178l.107.403c.02.077.099.123.176.102l.4-.108c.076-.02.121-.1.101-.177l-.107-.403a.144.144 0 0 0-.176-.103m-1.213.64-.04-.151a.146.146 0 0 1 .1-.177l.4-.108a.143.143 0 0 1 .177.102l.04.15zm.704-.082.04.151a.146.146 0 0 1-.102.177l-.4.108a.143.143 0 0 1-.176-.102l-.04-.151zm-.495-4.19-10.987 2.968a.157.157 0 0 0 .08.304l10.987-2.968a.157.157 0 0 0-.08-.304"/><path fill="#d8d8d8" d="m23.474 19.984-.433.117a.105.105 0 0 0-.073.128.104.104 0 0 0 .127.075l.432-.117a.105.105 0 0 0 .074-.129.104.104 0 0 0-.127-.074m.866-.234-.432.117a.105.105 0 0 0-.074.128.104.104 0 0 0 .127.075l.433-.117a.105.105 0 0 0 .073-.128.104.104 0 0 0-.127-.075m.666-.18-.433.117a.105.105 0 0 0-.073.128.104.104 0 0 0 .127.075l.433-.117a.105.105 0 0 0 .073-.128.104.104 0 0 0-.127-.075m.666-.18-.432.117a.105.105 0 0 0-.073.128.104.104 0 0 0 .127.074l.432-.116a.105.105 0 0 0 .073-.128.104.104 0 0 0-.127-.075m.667-.18-.432.117a.105.105 0 0 0-.074.128.104.104 0 0 0 .128.075l.432-.117a.105.105 0 0 0 .073-.128.104.104 0 0 0-.127-.075m.832-.225-.432.117a.105.105 0 0 0-.073.128.104.104 0 0 0 .127.075l.432-.117a.105.105 0 0 0 .073-.128.104.104 0 0 0-.127-.075m.667-.18-.433.117a.105.105 0 0 0-.073.128.104.104 0 0 0 .127.075l.432-.117a.105.105 0 0 0 .074-.128.104.104 0 0 0-.127-.075m.666-.18-.432.117a.105.105 0 0 0-.073.128.104.104 0 0 0 .127.074l.432-.116a.105.105 0 0 0 .073-.129.104.104 0 0 0-.127-.074m.666-.18-.432.117a.105.105 0 0 0-.073.128.104.104 0 0 0 .127.074l.432-.116a.105.105 0 0 0 .074-.129.104.104 0 0 0-.127-.074m.832-.225-.433.117a.105.105 0 0 0-.073.128.104.104 0 0 0 .127.075l.433-.117a.105.105 0 0 0 .073-.128.104.104 0 0 0-.127-.075m.667-.18-.433.117a.105.105 0 0 0-.074.128.104.104 0 0 0 .128.075l.432-.117a.105.105 0 0 0 .073-.128.104.104 0 0 0-.127-.075m.667-.18-.432.117a.105.105 0 0 0-.074.128.104.104 0 0 0 .127.074l.433-.116a.105.105 0 0 0 .073-.129.104.104 0 0 0-.127-.074m.832-.225-.432.117a.105.105 0 0 0-.073.128.104.104 0 0 0 .127.075l.432-.117a.105.105 0 0 0 .074-.129.104.104 0 0 0-.128-.074m.666-.18-.432.117a.105.105 0 0 0-.073.128.104.104 0 0 0 .127.075l.432-.117a.105.105 0 0 0 .074-.129.104.104 0 0 0-.128-.074m.666-.18-.432.117a.105.105 0 0 0-.073.128.104.104 0 0 0 .127.075l.432-.117a.105.105 0 0 0 .074-.129.104.104 0 0 0-.127-.074" opacity=".136"/><path fill="#44d860" fill-rule="evenodd" d="M28.104 28.382q-.047.002-.092.009l-.017-.065a.72.72 0 0 0 .427-.81.73.73 0 0 0-.248-.418.71.71 0 0 0-.888-.014l-.048-.049a.721.721 0 0 0-.907-1.073.72.72 0 0 0-.326.357l-.064-.017q.007-.044.009-.092a.73.73 0 0 0-.21-.512.715.715 0 0 0-1.016 0 .73.73 0 0 0-.21.512q.001.047.009.092l-.064.017a.72.72 0 0 0-.804-.426.727.727 0 0 0-.429 1.142 2.9 2.9 0 0 0-.866 2.07c0 1.6 1.286 2.896 2.872 2.896a2.875 2.875 0 0 0 2.78-2.18q.044.006.092.008c.19 0 .373-.076.507-.212a.727.727 0 0 0-.507-1.235" clip-rule="evenodd"/><path fill="#3ecc5f" fill-rule="evenodd" d="M19.488 23.314h5.744V20.42h-5.744z" clip-rule="evenodd"/><path fill="#44d860" fill-rule="evenodd" d="M26.668 22.228a.36.36 0 0 0 .359-.362.36.36 0 0 0-.359-.362q-.023.001-.046.005l-.008-.032a.36.36 0 0 0 .213-.405.36.36 0 0 0-.352-.291.35.35 0 0 0-.216.075l-.024-.025a.36.36 0 1 0-.617-.358 1.4 1.4 0 0 0-.386-.054c-.793 0-1.436.648-1.436 1.447 0 .8.643 1.448 1.436 1.448q.201-.002.386-.054a.36.36 0 0 0 .402.212.36.36 0 0 0 .287-.354.36.36 0 0 0-.072-.216l.024-.025a.35.35 0 0 0 .444-.007.363.363 0 0 0-.09-.614l.009-.032q.022.004.046.004" clip-rule="evenodd"/><path fill="#000" fill-rule="evenodd" d="M28.104 11.55a.4.4 0 0 1-.138-.027.4.4 0 0 1-.116-.078q-.025-.025-.045-.055a.38.38 0 0 1-.033-.34.4.4 0 0 1 .078-.117.4.4 0 0 1 .184-.098.37.37 0 0 1 .27.054l.054.043a.362.362 0 0 1-.254.618m2.872-.18a.37.37 0 0 1-.332-.223.37.37 0 0 1 .132-.44.4.4 0 0 1 .13-.054.37.37 0 0 1 .27.054.37.37 0 0 1 .132.44l-.034.062-.044.055a.4.4 0 0 1-.116.078.4.4 0 0 1-.138.028" clip-rule="evenodd"/></g><g filter="url(#c)"><path fill="#e8e8e8" d="M43.36 26.5V14.138h4.528q1.315 0 2.179.435.863.429 1.292 1.165.428.73.428 1.648 0 .773-.283 1.304-.285.525-.761.845a3.4 3.4 0 0 1-1.038.459v.12q.615.03 1.2.4.592.361.979 1.031.386.67.386 1.63 0 .948-.447 1.703-.44.748-1.364 1.189-.923.435-2.36.435zm1.865-1.6h2.693q1.34 0 1.92-.518a1.67 1.67 0 0 0 .579-1.298q0-.585-.296-1.075a2.1 2.1 0 0 0-.845-.779q-.543-.29-1.292-.29h-2.759zm0-5.414h2.5q.627 0 1.128-.242.507-.24.803-.676.302-.441.302-1.038 0-.767-.537-1.286-.537-.52-1.648-.52h-2.548zm14.987 3.17v-5.428h1.81v9.273h-1.774v-1.606h-.096a2.9 2.9 0 0 1-1.027 1.237q-.7.49-1.745.49-.892 0-1.581-.393-.682-.399-1.075-1.177-.386-.78-.386-1.926v-5.898h1.805v5.68q0 .95.525 1.51.525.561 1.364.561.508 0 1.009-.253.506-.255.839-.767.338-.513.332-1.304m4.236 3.845v-9.273h1.805V26.5zm.912-10.704q-.471 0-.81-.314a1.02 1.02 0 0 1-.331-.76q0-.447.332-.761.338-.32.809-.32.47 0 .803.32a1 1 0 0 1 .338.76q0 .441-.338.761-.333.315-.803.314m5.127-1.66V26.5h-1.805V14.137zm6.757 3.091v1.449h-5.065v-1.449zm-3.707-2.222h1.805v8.772q0 .526.157.79.158.261.404.357.254.09.55.09.217 0 .38-.03l.254-.048.326 1.491q-.157.06-.447.121a3.5 3.5 0 0 1-.725.072 3.2 3.2 0 0 1-1.328-.253 2.3 2.3 0 0 1-.996-.821q-.38-.555-.38-1.395zM85.75 26.501l-2.73-9.273h1.866l1.817 6.81h.091l1.823-6.81h1.865l1.812 6.78h.09l1.805-6.78h1.866l-2.723 9.273h-1.841l-1.884-6.695h-.139L87.585 26.5zm12.018 0v-9.273h1.805v9.273zm.911-10.704q-.47 0-.809-.314a1.02 1.02 0 0 1-.332-.76q0-.447.332-.761.338-.32.81-.32.47 0 .802.32a1 1 0 0 1 .338.76q0 .441-.338.761-.332.315-.803.314m7.65 1.431v1.449h-5.065v-1.449zm-3.706-2.222h1.805v8.772q0 .526.157.79a.8.8 0 0 0 .404.357q.253.09.55.09.217 0 .38-.03l.254-.048.326 1.491q-.158.06-.447.121a3.5 3.5 0 0 1-.725.072 3.2 3.2 0 0 1-1.328-.253 2.3 2.3 0 0 1-.996-.821q-.38-.555-.38-1.395zm7.707 5.989v5.506h-1.805V14.137h1.781v4.6h.115q.325-.748.996-1.19.67-.44 1.751-.44.954 0 1.666.393.718.392 1.111 1.17.398.774.398 1.933V26.5h-1.805v-5.68q0-1.02-.525-1.582-.525-.567-1.461-.567-.64 0-1.147.271a1.96 1.96 0 0 0-.791.797q-.284.52-.284 1.256"/><path fill="url(#d)" d="M127.507 26.5h-4.57V14.138h4.564q1.89 0 3.254.743a5.07 5.07 0 0 1 2.113 2.125q.742 1.382.742 3.308 0 1.932-.742 3.32a5.07 5.07 0 0 1-2.107 2.131q-1.37.737-3.254.737m-1.582-2.547h1.467q1.039 0 1.757-.35.724-.357 1.093-1.153.374-.803.374-2.137t-.374-2.125q-.375-.797-1.105-1.147-.724-.357-1.787-.356h-1.425zm13.759 2.723q-1.46 0-2.512-.598a4.13 4.13 0 0 1-1.612-1.678q-.561-1.08-.561-2.505 0-1.431.561-2.506.568-1.08 1.612-1.678 1.051-.603 2.512-.604 1.461 0 2.505.604 1.05.598 1.612 1.678.567 1.075.567 2.506 0 1.424-.567 2.505a4.07 4.07 0 0 1-1.612 1.678q-1.044.598-2.505.598m.018-2.228q.531 0 .899-.326.369-.326.562-.905.199-.58.199-1.34 0-.773-.199-1.353-.193-.58-.562-.905a1.3 1.3 0 0 0-.899-.326q-.549 0-.93.326-.374.326-.573.905-.194.58-.194 1.352 0 .762.194 1.34.199.58.573.906.381.326.93.326m10.507 2.228q-1.467 0-2.517-.604a4.1 4.1 0 0 1-1.606-1.678q-.561-1.08-.562-2.5 0-1.424.562-2.499a4.1 4.1 0 0 1 1.612-1.684q1.05-.603 2.505-.604 1.286 0 2.24.465a3.56 3.56 0 0 1 1.497 1.316q.543.846.573 1.986h-2.759q-.084-.712-.482-1.117-.393-.404-1.027-.404-.513 0-.899.29-.387.283-.604.845-.211.555-.211 1.376t.211 1.389q.217.561.604.851.386.285.899.284.41 0 .725-.175.32-.175.525-.513.205-.345.259-.834h2.759q-.042 1.147-.573 2.005a3.55 3.55 0 0 1-1.479 1.334q-.948.47-2.252.47m11.798-4.178v-5.27h2.946v9.273h-2.813v-1.727h-.097a2.7 2.7 0 0 1-1.051 1.352q-.736.495-1.78.495-.948 0-1.667-.434a2.96 2.96 0 0 1-1.116-1.214q-.399-.785-.405-1.835v-5.91h2.952v5.33q.006.756.399 1.19.392.434 1.068.434.441 0 .791-.193.356-.2.561-.573.212-.381.212-.918m12.92-2.439-2.71.073a1 1 0 0 0-.23-.513 1.24 1.24 0 0 0-.489-.357 1.7 1.7 0 0 0-.688-.132q-.513 0-.875.205-.357.205-.35.555a.6.6 0 0 0 .217.471q.229.2.815.32l1.787.338q1.388.265 2.064.882.683.615.689 1.63a2.62 2.62 0 0 1-.568 1.66q-.555.706-1.521 1.098-.966.387-2.21.387-1.986 0-3.133-.815-1.14-.822-1.304-2.198l2.916-.072q.096.506.501.773.405.265 1.032.265.569 0 .924-.211.357-.21.362-.561a.6.6 0 0 0-.277-.502q-.272-.192-.852-.301l-1.618-.308q-1.394-.254-2.076-.936-.682-.688-.676-1.75-.006-.93.495-1.588.501-.664 1.424-1.015.924-.35 2.18-.35 1.883 0 2.97.791 1.086.785 1.201 2.161m4.297 6.599q-.888 0-1.576-.296a2.45 2.45 0 0 1-1.08-.906q-.393-.609-.393-1.527 0-.773.272-1.304t.749-.863a3.5 3.5 0 0 1 1.098-.501 7 7 0 0 1 1.328-.236q.791-.072 1.274-.15.483-.086.701-.236a.51.51 0 0 0 .223-.44v-.031q0-.465-.32-.718-.32-.255-.863-.254-.587 0-.942.254a1.12 1.12 0 0 0-.453.7l-2.723-.097a3.2 3.2 0 0 1 .622-1.509q.507-.67 1.389-1.05.887-.387 2.131-.387.887 0 1.636.212.749.205 1.304.603.555.393.857.966.308.574.308 1.31v6.303h-2.777V25.21h-.073q-.248.471-.633.797-.381.325-.9.489a3.8 3.8 0 0 1-1.159.163m.912-1.932q.477 0 .857-.193a1.6 1.6 0 0 0 .616-.532q.23-.344.229-.797v-.88a2 2 0 0 1-.308.12q-.175.054-.386.103t-.435.084l-.429.066a2.7 2.7 0 0 0-.712.206 1.13 1.13 0 0 0-.447.362.9.9 0 0 0-.151.52q0 .457.326.7.333.24.84.24m12.418-2.228v-5.27h2.946v9.273h-2.814v-1.727h-.096a2.7 2.7 0 0 1-1.051 1.352q-.736.495-1.781.495-.947 0-1.666-.434a2.96 2.96 0 0 1-1.117-1.214q-.398-.785-.404-1.835v-5.91h2.952v5.33q.006.756.398 1.19.393.434 1.069.434.44 0 .791-.193a1.43 1.43 0 0 0 .561-.573q.212-.381.212-.918m4.825 4.003v-9.273h2.867v1.69h.097q.253-.917.827-1.364a2.1 2.1 0 0 1 1.334-.453q.206 0 .423.03.216.025.404.079v2.566a3 3 0 0 0-.555-.115 5 5 0 0 0-.604-.042q-.525 0-.948.235a1.7 1.7 0 0 0-.658.646 1.9 1.9 0 0 0-.235.966V26.5zm13.137-4.003v-5.27h2.946v9.273h-2.813v-1.727h-.096a2.7 2.7 0 0 1-1.051 1.352q-.736.495-1.781.495-.948 0-1.666-.434a2.96 2.96 0 0 1-1.117-1.214q-.398-.785-.404-1.835v-5.91h2.952v5.33q.006.756.398 1.19.393.434 1.069.434.44 0 .791-.193a1.43 1.43 0 0 0 .561-.573q.211-.381.211-.918m12.921-2.439-2.711.073a1 1 0 0 0-.229-.513 1.24 1.24 0 0 0-.489-.357 1.7 1.7 0 0 0-.688-.132q-.513 0-.876.205-.356.205-.35.555a.6.6 0 0 0 .218.471q.229.2.815.32l1.787.338q1.388.265 2.064.882.682.615.688 1.63-.006.953-.567 1.66-.555.706-1.521 1.098-.966.387-2.21.387-1.986 0-3.133-.815-1.141-.822-1.304-2.198l2.916-.072q.096.506.501.773.404.265 1.032.265.567 0 .924-.211.356-.21.362-.561a.6.6 0 0 0-.278-.502q-.272-.192-.851-.301l-1.618-.308q-1.394-.254-2.076-.936-.683-.688-.677-1.75-.006-.93.495-1.588.501-.664 1.425-1.015t2.179-.35q1.884 0 2.971.791 1.086.785 1.201 2.161"/></g><defs><linearGradient id="a" x1="116.501" x2="116.501" y1="0" y2="40.001" gradientUnits="userSpaceOnUse"><stop stop-color="#103519"/><stop offset="1" stop-color="#22220a"/></linearGradient><linearGradient id="d" x1="173.501" x2="173.501" y1="9.501" y2="30.501" gradientUnits="userSpaceOnUse"><stop stop-color="#31a4e7"/><stop offset="0" stop-color="#6cca82"/><stop offset="1" stop-color="#ffff8d"/></linearGradient><filter id="b" width="39.202" height="39.202" x="2.4" y=".4" color-interpolation-filters="sRGB" filterUnits="userSpaceOnUse"><feFlood flood-opacity="0" result="BackgroundImageFix"/><feColorMatrix in="SourceAlpha" result="hardAlpha" values="0 0 0 0 0 0 0 0 0 0 0 0 0 0 0 0 0 0 127 0"/><feOffset/><feGaussianBlur stdDeviation="2.8"/><feComposite in2="hardAlpha" operator="out"/><feColorMatrix values="0 0 0 0 0 0 0 0 0 0 0 0 0 0 0 0 0 0 0.25 0"/><feBlend in2="BackgroundImageFix" result="effect1_dropShadow_40_511"/><feBlend in="SourceGraphic" in2="effect1_dropShadow_40_511" result="shape"/></filter><filter id="c" width="194.429" height="32.429" x="36.287" y="3.786" color-interpolation-filters="sRGB" filterUnits="userSpaceOnUse"><feFlood flood-opacity="0" result="BackgroundImageFix"/><feColorMatrix in="SourceAlpha" result="hardAlpha" values="0 0 0 0 0 0 0 0 0 0 0 0 0 0 0 0 0 0 127 0"/><feOffset/><feGaussianBlur stdDeviation="2.857"/><feComposite in2="hardAlpha" operator="out"/><feColorMatrix values="0 0 0 0 0 0 0 0 0 0 0 0 0 0 0 0 0 0 0.25 0"/><feBlend in2="BackgroundImageFix" result="effect1_dropShadow_40_511"/><feBlend in="SourceGraphic" in2="effect1_dropShadow_40_511" result="shape"/></filter></defs></svg>