<svg xmlns="http://www.w3.org/2000/svg" width="154" height="40" fill="none" viewBox="0 0 154 40"><g clip-path="url(#a)"><rect width="154" height="40" fill="url(#b)" rx="8"/><g filter="url(#c)"><path fill="#f6d2a2" fill-rule="evenodd" stroke="#000" stroke-linecap="round" stroke-width=".35" d="M11.53 21.143c.042.867.907.466 1.3.195.371-.258.48-.044.513-.552.021-.334.06-.667.04-1.003-.562-.05-1.174.083-1.635.419-.238.173-.683.724-.218.94Z" clip-rule="evenodd"/><path fill="#c6b198" fill-rule="evenodd" d="M11.53 21.143c.126-.047.26-.08.345-.195z" clip-rule="evenodd"/><path stroke="#000" stroke-linecap="round" stroke-width=".35" d="M11.53 21.143c.126-.047.26-.08.345-.195"/><path fill="#6ad7e5" fill-rule="evenodd" stroke="#000" stroke-linecap="round" stroke-width=".35" d="M13.53 10.813c-3.317-.934-.85-5.157 1.813-3.42zm14.735-3.737c2.625-1.845 4.997 2.319 1.946 3.366z" clip-rule="evenodd"/><path fill="#f6d2a2" fill-rule="evenodd" stroke="#000" stroke-linecap="round" stroke-width=".35" d="M28.83 31.815c.666.412 1.885 1.661.885 2.267-.961.88-1.5-.967-2.343-1.223.364-.494.824-.944 1.458-1.044Z" clip-rule="evenodd"/><path stroke="#000" stroke-linecap="round" stroke-width=".35" d="M29.715 34.082c-.148-.296-.198-.64-.446-.878"/><path fill="#f6d2a2" fill-rule="evenodd" stroke="#000" stroke-linecap="round" stroke-width=".35" d="M16.917 33.226c-.783.12-1.223.828-1.875 1.187-.615.366-.85-.118-.906-.216-.096-.044-.088.04-.237-.11-.57-.9.594-1.558 1.2-2.005.844-.17 1.373.562 1.818 1.144Z" clip-rule="evenodd"/><path stroke="#000" stroke-linecap="round" stroke-width=".35" d="M14.136 34.197c.03-.344.302-.573.431-.863"/><path fill="#000" fill-rule="evenodd" d="M13.668 9.646c-.437-.231-.758-.546-.49-1.052.247-.47.707-.418 1.145-.187zm15.852-.44c.438-.232.759-.546.49-1.053-.247-.469-.707-.418-1.145-.186z" clip-rule="evenodd"/><path fill="#f6d2a2" fill-rule="evenodd" stroke="#000" stroke-linecap="round" stroke-width=".35" d="M32.532 21.033c-.042.867-.907.466-1.3.194-.371-.257-.48-.043-.513-.55-.021-.335-.06-.668-.04-1.004.562-.05 1.174.083 1.635.419.238.173.683.724.218.94Z" clip-rule="evenodd"/><path fill="#c6b198" fill-rule="evenodd" d="M32.532 21.033c-.126-.047-.26-.08-.345-.195z" clip-rule="evenodd"/><path stroke="#000" stroke-linecap="round" stroke-width=".35" d="M32.532 21.033c-.126-.047-.26-.08-.345-.195"/><path fill="#6ad7e5" fill-rule="evenodd" stroke="#000" stroke-linecap="round" stroke-width=".35" d="M21.699 5.323c3.32 0 6.432.475 8.055 3.668 1.456 3.578.938 7.437 1.16 11.22.191 3.247.614 7-.891 10.009-1.584 3.166-5.54 3.962-8.8 3.846-2.561-.092-5.654-.928-7.1-3.27-1.695-2.747-.893-6.832-.77-9.888.146-3.621-.98-7.253.21-10.796 1.232-3.675 4.557-4.506 8.136-4.79Z" clip-rule="evenodd"/><path fill="#fff" fill-rule="evenodd" stroke="#000" stroke-linecap="round" stroke-width=".35" d="M22.285 9.784c.596 3.468 6.26 2.551 5.447-.947-.73-3.137-5.645-2.269-5.447.947Zm-6.769.561c.772 3.02 5.603 2.246 5.42-.783-.218-3.627-6.159-2.927-5.42.783Zm7.452 3.601c.003.45.103.957.017 1.437-.114.217-.34.24-.535.328a.79.79 0 0 1-.603-.47c-.069-.548.026-1.078.043-1.626z" clip-rule="evenodd"/><path fill="#000" d="M16.848 10.736c.45 0 .816-.395.816-.884 0-.488-.365-.884-.816-.884s-.816.396-.816.884c0 .489.366.884.816.884"/><path fill="#fff" d="M17.219 10.277c.106 0 .192-.101.192-.225s-.086-.225-.192-.225-.192.1-.192.225c0 .124.086.225.192.225"/><path fill="#000" d="M23.682 10.516c.443 0 .802-.396.802-.884s-.36-.884-.802-.884-.802.396-.802.884.359.884.802.884"/><path fill="#fff" d="M24.047 10.056c.104 0 .189-.1.189-.224 0-.125-.085-.225-.19-.225-.104 0-.188.1-.188.225 0 .124.084.224.189.224"/><path fill="#fff" fill-rule="evenodd" stroke="#000" stroke-linecap="round" stroke-width=".35" d="M20.637 13.897c-.356.863.199 2.59 1.164 1.316-.069-.548.026-1.078.043-1.626z" clip-rule="evenodd"/><path fill="#f6d2a2" fill-rule="evenodd" stroke="#231f20" stroke-linecap="round" stroke-width=".35" d="M20.76 12.234c-.664.057-1.206.846-.862 1.47.457.828 1.477-.072 2.111.012.731.015 1.33.773 1.917.137.652-.708-.281-1.397-1.011-1.705z" clip-rule="evenodd"/><path fill="#000" fill-rule="evenodd" d="M20.676 12.2c-.05-1.15 2.141-1.294 2.4-.332.258.96-2.292 1.184-2.4.332" clip-rule="evenodd"/></g><g filter="url(#d)"><path fill="#e8e8e8" d="M43.358 26.5V14.136h4.528q1.316 0 2.18.435.862.429 1.291 1.165.429.731.429 1.648 0 .773-.284 1.304-.284.525-.76.845-.47.315-1.039.46v.12q.615.03 1.201.398.592.363.978 1.033.387.67.387 1.63 0 .947-.447 1.702-.44.749-1.364 1.19-.924.434-2.36.434zm1.866-1.6h2.692q1.341 0 1.92-.519a1.67 1.67 0 0 0 .58-1.298q-.001-.585-.296-1.074a2.1 2.1 0 0 0-.845-.78q-.544-.288-1.292-.289h-2.76zm0-5.415h2.499q.628 0 1.129-.241.507-.242.803-.677.302-.44.302-1.038 0-.767-.538-1.286-.537-.519-1.648-.519h-2.547zm14.986 3.17v-5.428h1.812V26.5h-1.775v-1.606h-.097a2.9 2.9 0 0 1-1.026 1.238q-.7.489-1.745.489-.894 0-1.582-.393-.682-.398-1.074-1.177-.387-.779-.386-1.926v-5.898h1.804v5.681q0 .948.526 1.51.525.56 1.364.56.507 0 1.008-.253.507-.254.84-.767.337-.513.331-1.303m4.237 3.845v-9.273h1.805V26.5zm.911-10.703q-.47 0-.809-.314a1.02 1.02 0 0 1-.332-.761q0-.447.332-.76.338-.32.81-.32.47 0 .802.32a1 1 0 0 1 .338.76q0 .44-.338.76-.332.315-.803.315m5.127-1.66V26.5H68.68V14.136zm6.757 3.09v1.45h-5.065v-1.45zm-3.707-2.221h1.806v8.771q0 .525.156.791a.82.82 0 0 0 .405.356q.253.09.55.09.216 0 .38-.03l.253-.048.326 1.492q-.157.06-.447.12a3.5 3.5 0 0 1-.724.073 3.2 3.2 0 0 1-1.328-.254 2.3 2.3 0 0 1-.996-.82q-.38-.556-.38-1.395zM85.748 26.5l-2.729-9.273h1.866l1.817 6.81h.09l1.824-6.81h1.865l1.811 6.78h.09l1.806-6.78h1.865L93.331 26.5h-1.842l-1.883-6.695h-.14L87.584 26.5zm12.018 0v-9.273h1.805V26.5zm.912-10.703q-.471 0-.81-.314a1.02 1.02 0 0 1-.331-.761q0-.447.332-.76.338-.32.809-.32.47 0 .803.32a1 1 0 0 1 .338.76q0 .44-.338.76-.333.315-.803.315m7.65 1.43v1.45h-5.065v-1.45zm-3.707-2.221h1.805v8.771q0 .525.157.791.157.26.405.356.254.09.549.09.218 0 .381-.03l.253-.048.326 1.492q-.157.06-.447.12a3.5 3.5 0 0 1-.724.073 3.2 3.2 0 0 1-1.328-.254 2.27 2.27 0 0 1-.996-.82q-.381-.556-.381-1.395zm7.708 5.988V26.5h-1.805V14.136h1.781v4.6h.115q.326-.748.996-1.189.67-.44 1.75-.44.954 0 1.667.392.718.393 1.11 1.171.399.773.399 1.932V26.5h-1.805v-5.68q0-1.02-.525-1.582-.526-.568-1.461-.568-.64 0-1.147.272a1.96 1.96 0 0 0-.791.797q-.284.519-.284 1.255"/><path fill="#6ad7e5" d="M131.049 17.675a2.2 2.2 0 0 0-.301-.67 1.9 1.9 0 0 0-.489-.501 2.1 2.1 0 0 0-.665-.308 3 3 0 0 0-.821-.109q-.898 0-1.557.435-.653.434-1.008 1.268-.356.826-.356 2.01 0 1.19.344 2.028.344.84.996 1.28t1.581.441q.822 0 1.389-.266.573-.27.869-.766.296-.495.296-1.165l.555.066h-3.006v-2.18h5.331v1.637q0 1.66-.707 2.843a4.7 4.7 0 0 1-1.931 1.817q-1.226.634-2.82.634-1.768 0-3.109-.767-1.34-.766-2.089-2.185-.748-1.425-.748-3.38 0-1.522.453-2.7.453-1.182 1.261-2.004a5.5 5.5 0 0 1 1.884-1.243 6.3 6.3 0 0 1 2.312-.423 6.3 6.3 0 0 1 1.998.308q.93.307 1.642.87.719.561 1.165 1.334.447.772.556 1.696zm9.247 8.5q-1.461 0-2.511-.598a4.13 4.13 0 0 1-1.612-1.678q-.561-1.08-.561-2.505 0-1.432.561-2.505.568-1.08 1.612-1.679 1.05-.604 2.511-.604 1.46 0 2.506.604 1.05.598 1.612 1.678.567 1.075.567 2.506 0 1.425-.567 2.505a4.1 4.1 0 0 1-1.612 1.678q-1.045.598-2.506.598m.019-2.228q.531 0 .899-.326.369-.326.561-.905.2-.58.2-1.34 0-.773-.2-1.353-.192-.58-.561-.905a1.3 1.3 0 0 0-.899-.326q-.55 0-.93.326-.375.326-.574.905a4.3 4.3 0 0 0-.193 1.353q0 .76.193 1.34.2.58.574.905.38.327.93.326"/></g></g><rect width="151.9" height="37.9" x="1.05" y="1.05" stroke="#fff" stroke-opacity=".15" stroke-width="2.1" rx="6.95"/><defs><filter id="c" width="38.8" height="38.8" x="2.6" y=".6" color-interpolation-filters="sRGB" filterUnits="userSpaceOnUse"><feFlood flood-opacity="0" result="BackgroundImageFix"/><feColorMatrix in="SourceAlpha" result="hardAlpha" values="0 0 0 0 0 0 0 0 0 0 0 0 0 0 0 0 0 0 127 0"/><feOffset/><feGaussianBlur stdDeviation="2"/><feComposite in2="hardAlpha" operator="out"/><feColorMatrix values="0 0 0 0 0 0 0 0 0 0 0 0 0 0 0 0 0 0 0.25 0"/><feBlend in2="BackgroundImageFix" result="effect1_dropShadow_2_3140"/><feBlend in="SourceGraphic" in2="effect1_dropShadow_2_3140" result="shape"/></filter><filter id="d" width="115.2" height="32.2" x="36.4" y="3.9" color-interpolation-filters="sRGB" filterUnits="userSpaceOnUse"><feFlood flood-opacity="0" result="BackgroundImageFix"/><feColorMatrix in="SourceAlpha" result="hardAlpha" values="0 0 0 0 0 0 0 0 0 0 0 0 0 0 0 0 0 0 127 0"/><feOffset/><feGaussianBlur stdDeviation="2.8"/><feComposite in2="hardAlpha" operator="out"/><feColorMatrix values="0 0 0 0 0 0 0 0 0 0 0 0 0 0 0 0 0 0 0.25 0"/><feBlend in2="BackgroundImageFix" result="effect1_dropShadow_2_3140"/><feBlend in="SourceGraphic" in2="effect1_dropShadow_2_3140" result="shape"/></filter><linearGradient id="b" x1="77" x2="77" y1="0" y2="40" gradientUnits="userSpaceOnUse"><stop stop-color="#152a2d"/><stop offset="1" stop-color="#102022"/></linearGradient><clipPath id="a"><rect width="154" height="40" fill="#fff" rx="8"/></clipPath></defs></svg>