<svg xmlns="http://www.w3.org/2000/svg" width="186" height="40" fill="none" viewBox="0 0 186 40"><rect width="186.001" height="40.001" fill="url(#a)" rx="8"/><rect width="183.858" height="37.858" x="1.071" y="1.071" stroke="#fff" stroke-opacity=".15" stroke-width="2.143" rx="6.929"/><g filter="url(#b)"><path fill="#7dc1d1" d="M34.473 10.855c-1.751-1.786-4.436-1.786-6.187-.12-.117.12-.117.239-.117.358 0 .12 0 .238.117.357l.584.596c.116.119.35.119.583 0 .467-.358.934-.477 1.518-.477 1.4 0 2.568 1.191 2.568 2.62q0 1.072-.7 1.786c-3.502 3.572-8.288-6.43-18.91-1.31-.7.357-1.05 1.19-.7 1.905v.12l1.75 3.214c.35.715 1.284.953 1.985.596l.817-.477c.934-.595 1.75-1.19 2.568-1.905.116-.119.467-.119.583 0 .234.12.234.357.117.596l-.117.119a23 23 0 0 1-2.684 2.024l-.817.357c-.35.238-.7.357-1.168.357-.817 0-1.634-.476-1.984-1.19l-1.75-3.096c-3.27 2.381-5.37 7.025-4.203 12.859 0 .238.233.357.467.357h1.984c.234 0 .35-.119.467-.357.234-1.667 1.634-2.738 3.268-2.5 1.284.119 2.335 1.19 2.452 2.5 0 .238.233.357.467.357h1.867c.234 0 .35-.119.467-.357.234-1.667 1.634-2.738 3.268-2.5 1.284.119 2.335 1.19 2.452 2.5 0 .238.233.357.467.357h1.867c.234 0 .467-.238.467-.476 0-2.739.817-5.834 2.802-7.382 6.886-5.477 5.019-10.121 3.385-11.788m-7.237 8.216-1.401-.715c0-.476.35-.833.817-.833s.817.357.817.833c.117.357 0 .596-.233.715"/></g><g filter="url(#c)"><path fill="#e8e8e8" d="M43.36 26.5V14.138h4.528q1.315 0 2.179.435.863.428 1.292 1.165.428.73.428 1.648 0 .773-.283 1.304-.285.525-.761.845a3.4 3.4 0 0 1-1.038.459v.12q.615.03 1.2.399.592.362.979 1.032.386.67.386 1.63 0 .948-.447 1.703-.44.748-1.364 1.189-.923.435-2.36.435zm1.865-1.6h2.693q1.34 0 1.92-.518a1.67 1.67 0 0 0 .579-1.298q0-.585-.296-1.075a2.1 2.1 0 0 0-.845-.779q-.543-.29-1.292-.29h-2.759zm0-5.414h2.5q.627 0 1.128-.242.507-.24.803-.676.302-.441.302-1.038 0-.767-.537-1.286-.537-.52-1.648-.52h-2.548zm14.987 3.17v-5.428h1.81V26.5h-1.774v-1.606h-.096a2.9 2.9 0 0 1-1.027 1.237q-.7.49-1.745.49-.892 0-1.581-.393-.682-.399-1.075-1.177-.386-.78-.386-1.926v-5.898h1.805v5.68q0 .95.525 1.51.525.561 1.364.561.508 0 1.009-.253.506-.255.839-.767.338-.513.332-1.304m4.236 3.845v-9.273h1.805V26.5zm.912-10.704q-.471 0-.81-.314a1.02 1.02 0 0 1-.331-.76q0-.447.332-.761.338-.32.809-.32.47 0 .803.32a1 1 0 0 1 .338.76q0 .441-.338.761-.333.315-.803.314m5.127-1.66v12.364h-1.805V14.137zm6.757 3.09v1.45h-5.065v-1.45zm-3.707-2.22h1.805v8.771q0 .526.157.79.158.261.404.357.254.09.55.09.217 0 .38-.03l.254-.048.326 1.491q-.157.06-.447.121a3.5 3.5 0 0 1-.725.072 3.2 3.2 0 0 1-1.328-.253 2.3 2.3 0 0 1-.996-.821q-.38-.555-.38-1.395zM85.75 26.5l-2.73-9.273h1.866l1.817 6.81h.091l1.823-6.81h1.865l1.812 6.78h.09l1.805-6.78h1.866L93.332 26.5h-1.841l-1.884-6.695h-.139L87.585 26.5zm12.018 0v-9.273h1.805V26.5zm.911-10.704q-.47 0-.809-.314a1.02 1.02 0 0 1-.332-.76q0-.447.332-.761.338-.32.81-.32.47 0 .802.32a1 1 0 0 1 .338.76q0 .441-.338.761-.332.315-.803.314m7.65 1.43v1.45h-5.065v-1.45zm-3.706-2.22h1.805v8.771q0 .526.157.79a.8.8 0 0 0 .404.357q.253.09.55.09.217 0 .38-.03l.254-.048.326 1.491q-.158.06-.447.121a3.5 3.5 0 0 1-.725.072 3.2 3.2 0 0 1-1.328-.253 2.3 2.3 0 0 1-.996-.821q-.38-.555-.38-1.395zm7.707 5.988V26.5h-1.805V14.137h1.781v4.6h.115q.325-.748.996-1.19.67-.44 1.751-.44.954 0 1.666.393.718.392 1.111 1.17.398.774.398 1.933V26.5h-1.805v-5.68q0-1.02-.525-1.582-.525-.567-1.461-.567-.64 0-1.147.271a1.96 1.96 0 0 0-.791.797q-.284.52-.284 1.256"/><path fill="#7dc1d1" d="M131.051 18.176a2.2 2.2 0 0 0-.302-.67 1.9 1.9 0 0 0-.489-.501 2.1 2.1 0 0 0-.664-.308 3 3 0 0 0-.821-.109q-.9 0-1.558.435-.651.435-1.008 1.267-.356.828-.356 2.01 0 1.19.344 2.03.345.838.996 1.279.652.44 1.582.44.82 0 1.388-.265.575-.272.87-.767t.296-1.165l.555.067h-3.006v-2.18h5.33v1.636q0 1.66-.706 2.844a4.7 4.7 0 0 1-1.932 1.817q-1.226.634-2.819.634-1.769 0-3.109-.767t-2.089-2.185q-.749-1.425-.749-3.381 0-1.521.453-2.698a5.7 5.7 0 0 1 1.262-2.005 5.45 5.45 0 0 1 1.883-1.243 6.3 6.3 0 0 1 2.313-.423q1.074 0 1.998.308.93.308 1.642.87a4.6 4.6 0 0 1 1.165 1.333 4.4 4.4 0 0 1 .555 1.697zm4.918 8.325v-9.273h2.868v1.69h.097q.253-.917.827-1.364a2.1 2.1 0 0 1 1.334-.453q.205 0 .422.03.217.024.405.079v2.566a3 3 0 0 0-.556-.115 5 5 0 0 0-.603-.042q-.525 0-.948.235a1.7 1.7 0 0 0-.658.646 1.9 1.9 0 0 0-.236.966V26.5zm9.421.157q-.888 0-1.576-.296a2.45 2.45 0 0 1-1.08-.906q-.393-.609-.393-1.527 0-.773.272-1.304a2.3 2.3 0 0 1 .749-.863 3.5 3.5 0 0 1 1.098-.501 7 7 0 0 1 1.328-.236q.791-.072 1.274-.15.483-.086.701-.236a.51.51 0 0 0 .223-.44v-.031q0-.466-.32-.718-.32-.255-.863-.254-.587 0-.942.253-.356.255-.453.7l-2.723-.096a3.2 3.2 0 0 1 .622-1.509q.507-.67 1.389-1.05.887-.387 2.131-.387.887 0 1.636.212.749.205 1.304.603.555.393.857.966.308.574.308 1.31v6.303h-2.777v-1.292h-.072a2.6 2.6 0 0 1-.634.797q-.381.325-.9.489a3.8 3.8 0 0 1-1.159.163m.912-1.932q.477 0 .857-.193a1.6 1.6 0 0 0 .616-.532q.23-.344.229-.797v-.88a1.7 1.7 0 0 1-.308.12q-.175.054-.386.103a7 7 0 0 1-.435.084l-.428.066a2.7 2.7 0 0 0-.713.206 1.13 1.13 0 0 0-.447.362.9.9 0 0 0-.151.519q0 .46.326.7.333.242.84.242m9.822 1.908a3.4 3.4 0 0 1-1.866-.532q-.839-.531-1.34-1.593-.501-1.063-.501-2.639 0-1.636.519-2.692t1.359-1.564a3.47 3.47 0 0 1 1.817-.507q.73 0 1.249.254.519.247.858.64.337.392.513.815h.06v-4.679h2.952v12.364h-2.922v-1.504h-.09a2.9 2.9 0 0 1-.532.803q-.344.375-.863.604-.513.23-1.213.23m1.026-2.3q.537 0 .918-.302.38-.309.585-.864t.205-1.304q0-.76-.205-1.31-.2-.55-.585-.845a1.45 1.45 0 0 0-.918-.296q-.549 0-.93.302-.38.302-.579.851-.193.55-.193 1.298 0 .75.199 1.304.2.555.573.864.381.3.93.301m9.413-10.197V26.5h-2.952V14.137zm6.214 12.539q-1.455 0-2.512-.574a3.97 3.97 0 0 1-1.618-1.648q-.561-1.074-.561-2.553 0-1.437.567-2.512.568-1.08 1.6-1.678 1.032-.604 2.433-.604.99 0 1.811.308a3.9 3.9 0 0 1 1.419.912q.597.604.929 1.49.332.882.332 2.023v.737h-8.059v-1.715h5.313a1.66 1.66 0 0 0-.224-.839 1.5 1.5 0 0 0-.597-.573 1.73 1.73 0 0 0-.864-.212q-.494 0-.887.224a1.68 1.68 0 0 0-.863 1.449v1.744q0 .567.223.996.223.423.634.658t.978.236q.393 0 .712-.109.32-.109.55-.32.229-.21.344-.52l2.71.08a3.35 3.35 0 0 1-.742 1.587q-.569.67-1.491 1.044-.924.369-2.137.369"/></g><defs><filter id="b" width="39.202" height="39.202" x="2.4" y=".4" color-interpolation-filters="sRGB" filterUnits="userSpaceOnUse"><feFlood flood-opacity="0" result="BackgroundImageFix"/><feColorMatrix in="SourceAlpha" result="hardAlpha" values="0 0 0 0 0 0 0 0 0 0 0 0 0 0 0 0 0 0 127 0"/><feOffset/><feGaussianBlur stdDeviation="2.8"/><feComposite in2="hardAlpha" operator="out"/><feColorMatrix values="0 0 0 0 0 0 0 0 0 0 0 0 0 0 0 0 0 0 0.25 0"/><feBlend in2="BackgroundImageFix" result="effect1_dropShadow_3_710"/><feBlend in="SourceGraphic" in2="effect1_dropShadow_3_710" result="shape"/></filter><filter id="c" width="147.429" height="32.429" x="36.287" y="3.786" color-interpolation-filters="sRGB" filterUnits="userSpaceOnUse"><feFlood flood-opacity="0" result="BackgroundImageFix"/><feColorMatrix in="SourceAlpha" result="hardAlpha" values="0 0 0 0 0 0 0 0 0 0 0 0 0 0 0 0 0 0 127 0"/><feOffset/><feGaussianBlur stdDeviation="2.857"/><feComposite in2="hardAlpha" operator="out"/><feColorMatrix values="0 0 0 0 0 0 0 0 0 0 0 0 0 0 0 0 0 0 0.25 0"/><feBlend in2="BackgroundImageFix" result="effect1_dropShadow_3_710"/><feBlend in="SourceGraphic" in2="effect1_dropShadow_3_710" result="shape"/></filter><linearGradient id="a" x1="93.001" x2="93.001" y1="0" y2="40.001" gradientUnits="userSpaceOnUse"><stop stop-color="#19282c"/><stop offset="1" stop-color="#121c1f"/></linearGradient></defs></svg>