<svg xmlns="http://www.w3.org/2000/svg" width="221" height="40" fill="none" viewBox="0 0 221 40"><g clip-path="url(#a)"><rect width="221.001" height="40.001" fill="url(#b)" rx="8"/><g filter="url(#c)"><path fill="#f7df1e" d="M7.3 6h28.002v28.002H7.301zm25.708 21.323c-.204-1.277-1.036-2.35-3.503-3.352-.859-.402-1.813-.682-2.097-1.33-.106-.385-.122-.595-.053-.822.174-.754 1.067-.98 1.767-.77.455.14.875.49 1.139 1.05 1.206-.79 1.206-.79 2.047-1.313-.315-.49-.471-.701-.683-.91-.735-.823-1.714-1.243-3.307-1.206l-.822.103c-.79.193-1.54.613-1.995 1.173-1.33 1.506-.947 4.131.663 5.216 1.593 1.19 3.922 1.452 4.22 2.573.28 1.365-1.016 1.803-2.294 1.645-.947-.21-1.47-.684-2.048-1.559l-2.135 1.227c.245.56.525.804.945 1.294 2.03 2.048 7.105 1.943 8.016-1.172.034-.105.28-.822.087-1.925zm-10.48-8.453h-2.623c0 2.261-.01 4.508-.01 6.773 0 1.438.073 2.757-.162 3.163-.385.804-1.376.701-1.827.56-.462-.229-.696-.544-.968-.997-.074-.123-.128-.23-.148-.23l-2.13 1.314c.356.735.876 1.367 1.545 1.77.998.594 2.338.787 3.742.472.913-.264 1.701-.806 2.113-1.646.595-1.085.469-2.415.463-3.904.014-2.397 0-4.794 0-7.21z"/></g><g filter="url(#d)"><path fill="#e8e8e8" d="M43.36 26.5V14.138h4.528q1.315 0 2.179.435.863.428 1.292 1.165.428.73.428 1.648 0 .773-.283 1.304-.285.525-.761.845a3.4 3.4 0 0 1-1.038.459v.12q.615.03 1.2.399.592.362.979 1.032.386.67.386 1.63 0 .948-.447 1.703-.44.748-1.364 1.189-.923.435-2.36.435zm1.865-1.6h2.693q1.34 0 1.92-.518a1.67 1.67 0 0 0 .579-1.298q0-.585-.296-1.075a2.1 2.1 0 0 0-.845-.779q-.543-.29-1.292-.29h-2.759zm0-5.414h2.5q.627 0 1.128-.242.507-.24.803-.676.302-.441.302-1.038 0-.767-.537-1.286-.537-.52-1.648-.52h-2.548zm14.987 3.17v-5.428h1.81V26.5h-1.774v-1.606h-.096a2.9 2.9 0 0 1-1.027 1.237q-.7.49-1.745.49-.892 0-1.581-.393-.682-.399-1.075-1.177-.386-.78-.386-1.926v-5.898h1.805v5.68q0 .95.525 1.51.525.561 1.364.561.508 0 1.009-.253.506-.255.839-.767.338-.513.332-1.304m4.236 3.845v-9.273h1.805V26.5zm.912-10.704q-.471 0-.81-.314a1.02 1.02 0 0 1-.331-.76q0-.447.332-.761.338-.32.809-.32.47 0 .803.32a1 1 0 0 1 .338.76q0 .441-.338.761-.333.315-.803.314m5.127-1.66v12.364h-1.805V14.137zm6.757 3.09v1.45h-5.065v-1.45zm-3.707-2.22h1.805v8.771q0 .526.157.79.158.261.404.357.254.09.55.09.217 0 .38-.03l.254-.048.326 1.491q-.157.06-.447.121a3.5 3.5 0 0 1-.725.072 3.2 3.2 0 0 1-1.328-.253 2.3 2.3 0 0 1-.996-.821q-.38-.555-.38-1.395zM85.75 26.5l-2.73-9.273h1.866l1.817 6.81h.091l1.823-6.81h1.865l1.812 6.78h.09l1.805-6.78h1.866L93.332 26.5h-1.841l-1.884-6.695h-.139L87.585 26.5zm12.018 0v-9.273h1.805V26.5zm.911-10.704q-.47 0-.809-.314a1.02 1.02 0 0 1-.332-.76q0-.447.332-.761.338-.32.81-.32.47 0 .802.32a1 1 0 0 1 .338.76q0 .441-.338.761-.332.315-.803.314m7.65 1.43v1.45h-5.065v-1.45zm-3.706-2.22h1.805v8.771q0 .526.157.79a.8.8 0 0 0 .404.357q.253.09.55.09.217 0 .38-.03l.254-.048.326 1.491q-.158.06-.447.121a3.5 3.5 0 0 1-.725.072 3.2 3.2 0 0 1-1.328-.253 2.3 2.3 0 0 1-.996-.821q-.38-.555-.38-1.395zm7.707 5.988V26.5h-1.805V14.137h1.781v4.6h.115q.325-.748.996-1.19.67-.44 1.751-.44.954 0 1.666.393.718.392 1.111 1.17.398.774.398 1.933V26.5h-1.805v-5.68q0-1.02-.525-1.582-.525-.567-1.461-.567-.64 0-1.147.271a1.96 1.96 0 0 0-.791.797q-.284.52-.284 1.256"/><path fill="#f7df1e" d="M127.96 14.137h2.946v8.548q-.006 1.202-.574 2.101a3.8 3.8 0 0 1-1.569 1.389q-.996.495-2.306.495-1.16 0-2.107-.405a3.34 3.34 0 0 1-1.503-1.256q-.556-.85-.55-2.179h2.976q.019.477.182.815.168.333.464.501.297.17.707.17.429 0 .724-.182.295-.187.447-.55.157-.36.163-.899zm7.436 12.52q-.888 0-1.576-.295a2.45 2.45 0 0 1-1.08-.906q-.393-.609-.393-1.527 0-.773.272-1.304t.748-.863a3.5 3.5 0 0 1 1.099-.501 7 7 0 0 1 1.328-.236q.792-.072 1.274-.15.484-.086.7-.236a.51.51 0 0 0 .224-.44v-.031q0-.466-.32-.718-.32-.255-.863-.254-.587 0-.942.253-.357.255-.453.7l-2.723-.096a3.2 3.2 0 0 1 .622-1.509q.507-.67 1.389-1.05.887-.387 2.131-.387.887 0 1.636.212.748.205 1.304.603.555.393.857.966.308.574.308 1.31v6.303h-2.777v-1.292h-.073q-.247.471-.634.797-.38.325-.899.489a3.8 3.8 0 0 1-1.159.163m.911-1.931q.477 0 .858-.193a1.6 1.6 0 0 0 .615-.532q.23-.344.23-.797v-.88a2 2 0 0 1-.308.12q-.175.054-.386.103a7 7 0 0 1-.435.084q-.223.036-.429.066a2.7 2.7 0 0 0-.712.206 1.13 1.13 0 0 0-.447.362.9.9 0 0 0-.151.519q0 .46.326.7.333.242.839.242m15.099-7.498-3.182 9.273h-3.38l-3.176-9.273h3.109l1.709 6.387h.096l1.715-6.387zm3.497 9.43q-.888 0-1.576-.296a2.46 2.46 0 0 1-1.081-.906q-.392-.609-.392-1.527 0-.773.272-1.304.271-.531.748-.863a3.5 3.5 0 0 1 1.099-.501 7 7 0 0 1 1.328-.236q.79-.072 1.274-.15.483-.086.7-.236a.51.51 0 0 0 .224-.44v-.031q0-.466-.32-.718-.32-.255-.864-.254-.585 0-.941.253-.357.255-.453.7l-2.723-.096a3.2 3.2 0 0 1 .622-1.509q.507-.67 1.388-1.05.887-.387 2.132-.387.886 0 1.636.212.748.205 1.304.603.555.393.857.966.308.574.308 1.31v6.303h-2.777V25.21h-.073q-.247.471-.634.797-.38.325-.899.489a3.8 3.8 0 0 1-1.159.163m.911-1.932q.477 0 .858-.193.385-.194.615-.532.23-.344.23-.797v-.88a2 2 0 0 1-.308.12q-.175.054-.387.103-.21.048-.434.084t-.429.066a2.7 2.7 0 0 0-.712.206 1.13 1.13 0 0 0-.447.362.9.9 0 0 0-.151.519q0 .46.326.7.333.242.839.242m13.119-6.882q-.061-.664-.538-1.033-.47-.374-1.346-.374-.579 0-.966.151-.386.15-.579.417a1 1 0 0 0-.2.597.9.9 0 0 0 .109.49q.127.21.362.373.241.158.58.278t.76.212l1.063.241q.918.2 1.618.531.706.332 1.183.791.483.459.731 1.056.247.599.253 1.34-.006 1.172-.592 2.011-.585.84-1.684 1.286-1.093.447-2.638.447-1.551 0-2.705-.465-1.153-.465-1.792-1.413-.64-.948-.659-2.396h2.862q.036.597.32.996.284.398.779.603.5.206 1.159.206.603 0 1.026-.163.429-.164.658-.453a1.07 1.07 0 0 0 .236-.664.92.92 0 0 0-.218-.598q-.211-.254-.652-.435-.435-.187-1.111-.344l-1.291-.302q-1.606-.368-2.53-1.189-.924-.827-.918-2.233-.006-1.148.616-2.01.622-.864 1.721-1.347 1.098-.483 2.505-.483 1.437 0 2.493.489 1.063.483 1.648 1.358.586.876.598 2.029zm8.868 8.832q-1.467 0-2.518-.604a4.1 4.1 0 0 1-1.605-1.678q-.562-1.08-.562-2.5 0-1.424.562-2.499a4.1 4.1 0 0 1 1.611-1.684q1.051-.604 2.506-.604 1.286 0 2.239.465.96.465 1.498 1.316.543.845.573 1.986h-2.759q-.084-.712-.483-1.117-.392-.404-1.026-.404-.513 0-.899.29-.387.283-.604.845-.211.555-.211 1.376t.211 1.389q.217.561.604.851.386.285.899.284.41 0 .724-.175.32-.175.526-.514.205-.344.259-.833h2.759q-.042 1.147-.573 2.005a3.57 3.57 0 0 1-1.479 1.334q-.948.47-2.252.47m5.815-.175v-9.273h2.867v1.69h.097q.254-.917.827-1.364a2.1 2.1 0 0 1 1.334-.453q.206 0 .423.03.218.024.404.079v2.566a3 3 0 0 0-.555-.115 5 5 0 0 0-.604-.042q-.525 0-.948.235a1.7 1.7 0 0 0-.658.646 1.9 1.9 0 0 0-.235.966V26.5zm7.155 0v-9.273h2.952V26.5zm1.479-10.354q-.622 0-1.068-.41a1.32 1.32 0 0 1-.447-1.002q0-.58.447-.99a1.5 1.5 0 0 1 1.068-.417 1.5 1.5 0 0 1 1.069.417q.447.41.446.99 0 .585-.446 1.002-.44.41-1.069.41m3.352 13.83v-12.75h2.922v1.589h.091a3.2 3.2 0 0 1 .513-.815q.338-.393.857-.64.525-.255 1.256-.254a3.43 3.43 0 0 1 1.805.507q.845.508 1.364 1.564t.519 2.692q0 1.575-.501 2.639-.495 1.063-1.34 1.593a3.4 3.4 0 0 1-1.865.532q-.7 0-1.214-.23a2.6 2.6 0 0 1-.863-.604 2.9 2.9 0 0 1-.531-.803h-.061v4.98zm2.892-8.113q0 .75.199 1.304.205.555.586.864.386.3.923.301.544 0 .924-.301.38-.309.574-.864.199-.555.199-1.304 0-.748-.199-1.298-.193-.55-.574-.85-.374-.303-.924-.303-.543 0-.923.296t-.586.845q-.2.55-.199 1.31m13.216-4.636V19.4h-5.85v-2.173zm-4.624-2.222h2.952v8.579q0 .271.085.44.09.164.259.236.17.066.405.066.168 0 .356-.03.193-.036.29-.06l.446 2.13q-.212.061-.597.152a5 5 0 0 1-.912.115q-1.038.048-1.781-.242a2.3 2.3 0 0 1-1.129-.918q-.386-.621-.374-1.563z"/></g></g><rect width="218.858" height="37.858" x="1.071" y="1.071" stroke="#fff" stroke-opacity=".15" stroke-width="2.143" rx="6.929"/><defs><filter id="c" width="39.901" height="39.202" x="1.7" y=".4" color-interpolation-filters="sRGB" filterUnits="userSpaceOnUse"><feFlood flood-opacity="0" result="BackgroundImageFix"/><feColorMatrix in="SourceAlpha" result="hardAlpha" values="0 0 0 0 0 0 0 0 0 0 0 0 0 0 0 0 0 0 127 0"/><feOffset/><feGaussianBlur stdDeviation="2.8"/><feComposite in2="hardAlpha" operator="out"/><feColorMatrix values="0 0 0 0 0 0 0 0 0 0 0 0 0 0 0 0 0 0 0.25 0"/><feBlend in2="BackgroundImageFix" result="effect1_dropShadow_2_963"/><feBlend in="SourceGraphic" in2="effect1_dropShadow_2_963" result="shape"/></filter><filter id="d" width="182.429" height="32.429" x="36.287" y="3.786" color-interpolation-filters="sRGB" filterUnits="userSpaceOnUse"><feFlood flood-opacity="0" result="BackgroundImageFix"/><feColorMatrix in="SourceAlpha" result="hardAlpha" values="0 0 0 0 0 0 0 0 0 0 0 0 0 0 0 0 0 0 127 0"/><feOffset/><feGaussianBlur stdDeviation="2.857"/><feComposite in2="hardAlpha" operator="out"/><feColorMatrix values="0 0 0 0 0 0 0 0 0 0 0 0 0 0 0 0 0 0 0.25 0"/><feBlend in2="BackgroundImageFix" result="effect1_dropShadow_2_963"/><feBlend in="SourceGraphic" in2="effect1_dropShadow_2_963" result="shape"/></filter><linearGradient id="b" x1="110.501" x2="110.501" y1="0" y2="40.001" gradientUnits="userSpaceOnUse"><stop stop-color="#35300a"/><stop offset="1" stop-color="#232004"/></linearGradient><clipPath id="a"><rect width="221.001" height="40.001" fill="#fff" rx="8"/></clipPath></defs></svg>