<svg xmlns="http://www.w3.org/2000/svg" width="193" height="40" fill="none" viewBox="0 0 193 40"><g clip-path="url(#a)"><rect width="193.001" height="40.001" fill="url(#b)" rx="8"/><g stroke-width=".35" filter="url(#c)"><path fill="#4e7896" stroke="#4e7896" d="m32.339 32.084.005.003.331.076c-.057.74-.69 1.293-1.584 1.704-.905.416-2.138.716-3.52.924-2.769.416-6.182.466-8.88.29l-.165-.01v-.003c-1.679-.104-2.704-.296-3.317-.47a4 4 0 0 1-.655-.24 2 2 0 0 1-.184-.107l-.01-.01-.005-.002-.002-.002-.473-.407.615.101c3.32.547 8.978.648 13.54-.2 2.006-.373 3.095-.806 3.676-1.138.29-.165.451-.304.538-.395a1 1 0 0 0 .08-.099l.01-.018.002-.001zM14.62 30.216c.288.008.557.059.743.189l.456.318h-.567l-.044.002q-.06.003-.18.016a6 6 0 0 0-.723.128l-.012.003v-.001a5.5 5.5 0 0 0-1.371.453q-.16.084-.258.161a.34.34 0 0 0-.105.116c-.003.008-.004.008.004.02a.46.46 0 0 0 .187.119c.72.314 1.923.538 3.393.677 1.464.139 3.175.192 4.899.174 3.454-.038 6.932-.364 8.576-.858l.295-.101c.264-.102.438-.202.549-.294.144-.12.174-.217.177-.28a.32.32 0 0 0-.063-.193l-.053-.064-.016-.016-.004-.003.051-.061.054-.249h.07l.042.036c.371.176.631.408.637.716a.67.67 0 0 1-.165.43 1.7 1.7 0 0 1-.424.36c-.702.449-2.04.875-3.822 1.192-3.576.636-9.027.848-14.999-.132-.549-.089-.946-.207-1.208-.355-.263-.147-.427-.349-.415-.602.011-.232.172-.44.37-.611.203-.178.48-.348.792-.501a8.6 8.6 0 0 1 2.139-.698c.357-.065.7-.1.995-.091Zm3.613-2.197-.531.324-.001.002-.007.003-.027.02a1 1 0 0 0-.088.07c-.073.064-.118.127-.127.17a.04.04 0 0 0 .004.03c.007.014.029.044.093.08.1.057.274.115.556.162l.321.042h.004c2.32.298 3.548.25 6.122-.248l.067-.013.058.036a9 9 0 0 0 1.613.786l.41.152-.401.173c-2.954 1.27-6.295 1.232-8.327.71-.508-.13-.943-.293-1.271-.478-.321-.181-.572-.4-.662-.658a.6.6 0 0 1 0-.415.9.9 0 0 1 .273-.367q.38-.325 1.25-.574l.024-.007zm10.62-6.753c1.846-.653 3.562.319 3.787 1.792.113.736-.158 1.56-.923 2.316-.764.753-2.023 1.444-3.909 1.936l-.62.162.452-.454.015-.02a1 1 0 0 0 .053-.085l.048-.097h.065c2.748-1.44 3.388-2.803 3.235-3.696-.155-.91-1.146-1.475-1.96-1.318a4 4 0 0 0-.576.173l-.024.011-.005.002-.468.234.234-.468v-.003l.004-.004.007-.015.028-.045a1 1 0 0 1 .557-.42Zm-10.547.187.001.002.137.274-.287-.02-.025.007-.165.042c-.14.036-.337.088-.563.152-.453.129-1.015.303-1.467.49a3.4 3.4 0 0 0-.55.277.8.8 0 0 0-.144.118.2.2 0 0 0-.027.038l.003.003a.4.4 0 0 0 .138.083c.163.069.44.136.872.192h.001c1.475.198 4.396.149 7.135-.05l.833-.084a59 59 0 0 0 3.537-.498l.075-.012.019-.003.005-.001.102.332h-.002l-.006.004-.026.011-.097.043-.33.157a9 9 0 0 0-.86.473l-.023.015-.027.007c-2.788.733-6.844.933-9.82.763-1.482-.084-2.721-.262-3.402-.522a1.6 1.6 0 0 1-.428-.228.5.5 0 0 1-.208-.351c-.01-.15.067-.28.174-.385q.162-.159.46-.305a11.4 11.4 0 0 1 3.391-1.037c.437-.06.792-.08 1.04-.086q.186-.003.286 0l.07.001.117-.027zm-1.266 3.611-.092.032-.018.015a1 1 0 0 0-.101.099.7.7 0 0 0-.175.273.17.17 0 0 0 0 .1c.009.026.03.062.085.103.117.088.365.181.842.23h-.001c2.527.25 4.502.3 7.92-.397l.093-.018.067.067c.315.322.7.564 1.126.708l.52.176-.526.157c-3.538 1.06-7.29 1.112-9.536.68-.562-.107-1.038-.246-1.395-.412-.346-.162-.622-.367-.717-.63-.107-.292.034-.57.312-.802.273-.227.713-.448 1.331-.66l.265-.201z"/><path fill="#f58219" stroke="#f58219" d="m28.19 10.992.13.321c-1.615.938-2.744 1.704-3.506 2.36-.765.659-1.146 1.193-1.29 1.661-.142.458-.064.879.152 1.332.22.462.571.936.963 1.507l.153.234c.32.544.383 1.073.28 1.563-.117.552-.44 1.039-.807 1.436a6.4 6.4 0 0 1-1.113.938 7 7 0 0 1-.523.321l-.032.018-.009.004-.003.002-.191-.291.003-.003.012-.011.052-.047a2.9 2.9 0 0 0 .626-.838c.13-.271.216-.582.189-.917-.027-.332-.166-.702-.505-1.09h-.001c-1.245-1.444-1.554-2.723-1.264-3.83.287-1.096 1.146-1.977 2.131-2.659.988-.685 2.128-1.187 3.016-1.518a18 18 0 0 1 1.42-.462L28.16 11l.023-.006zm-3.578-6.114h.002v.001l.002.003.008.009.029.03q.036.042.094.118c.078.102.18.252.284.446.205.39.413.961.422 1.686.02 1.457-.758 3.48-3.796 5.88-1.195.955-1.841 1.793-2.138 2.542-.294.743-.25 1.414-.028 2.055.224.647.63 1.26 1.06 1.88.424.613.876 1.238 1.158 1.883l-.277.2c-1.419-1.276-2.659-2.494-3.365-3.665-.355-.587-.581-1.173-.623-1.757-.043-.587.102-1.16.471-1.717.526-.8 1.278-1.49 2.076-2.146.805-.663 1.649-1.285 2.398-1.972.745-.684 1.377-1.414 1.747-2.269.368-.85.484-1.836.182-3.042l-.158-.627z"/></g><g filter="url(#d)"><path fill="#e8e8e8" d="M43.36 26.5V14.138h4.528q1.315 0 2.179.435.863.428 1.292 1.165.428.73.428 1.648 0 .773-.283 1.304-.285.525-.761.845a3.4 3.4 0 0 1-1.038.459v.12q.615.03 1.2.399.592.362.979 1.032.386.67.386 1.63 0 .948-.447 1.703-.44.748-1.364 1.189-.923.435-2.36.435zm1.865-1.6h2.693q1.34 0 1.92-.518a1.67 1.67 0 0 0 .579-1.298q0-.585-.296-1.075a2.1 2.1 0 0 0-.845-.779q-.543-.29-1.292-.29h-2.759zm0-5.414h2.5q.627 0 1.128-.242.507-.24.803-.676.302-.441.302-1.038 0-.767-.537-1.286-.537-.52-1.648-.52h-2.548zm14.987 3.17v-5.428h1.81V26.5h-1.774v-1.606h-.096a2.9 2.9 0 0 1-1.027 1.237q-.7.49-1.745.49-.892 0-1.581-.393-.682-.399-1.075-1.177-.386-.78-.386-1.926v-5.898h1.805v5.68q0 .95.525 1.51.525.561 1.364.561.508 0 1.009-.253.506-.255.839-.767.338-.513.332-1.304m4.236 3.845v-9.273h1.805V26.5zm.912-10.704q-.471 0-.81-.314a1.02 1.02 0 0 1-.331-.76q0-.447.332-.761.338-.32.809-.32.47 0 .803.32a1 1 0 0 1 .338.76q0 .441-.338.761-.333.315-.803.314m5.127-1.66v12.364h-1.805V14.137zm6.757 3.09v1.45h-5.065v-1.45zm-3.707-2.22h1.805v8.771q0 .526.157.79.158.261.404.357.254.09.55.09.217 0 .38-.03l.254-.048.326 1.491q-.157.06-.447.121a3.5 3.5 0 0 1-.725.072 3.2 3.2 0 0 1-1.328-.253 2.3 2.3 0 0 1-.996-.821q-.38-.555-.38-1.395zM85.75 26.5l-2.73-9.273h1.866l1.817 6.81h.091l1.823-6.81h1.865l1.812 6.78h.09l1.805-6.78h1.866L93.332 26.5h-1.841l-1.884-6.695h-.139L87.585 26.5zm12.018 0v-9.273h1.805V26.5zm.911-10.704q-.47 0-.809-.314a1.02 1.02 0 0 1-.332-.76q0-.447.332-.761.338-.32.81-.32.47 0 .802.32a1 1 0 0 1 .338.76q0 .441-.338.761-.332.315-.803.314m7.65 1.43v1.45h-5.065v-1.45zm-3.706-2.22h1.805v8.771q0 .526.157.79a.8.8 0 0 0 .404.357q.253.09.55.09.217 0 .38-.03l.254-.048.326 1.491q-.158.06-.447.121a3.5 3.5 0 0 1-.725.072 3.2 3.2 0 0 1-1.328-.253 2.3 2.3 0 0 1-.996-.821q-.38-.555-.38-1.395zm7.707 5.988V26.5h-1.805V14.137h1.781v4.6h.115q.325-.748.996-1.19.67-.44 1.751-.44.954 0 1.666.393.718.392 1.111 1.17.398.774.398 1.933V26.5h-1.805v-5.68q0-1.02-.525-1.582-.525-.567-1.461-.567-.64 0-1.147.271a1.96 1.96 0 0 0-.791.797q-.284.52-.284 1.256"/><path fill="#f58219" d="M127.96 14.137h2.946v8.548q-.006 1.202-.574 2.101a3.8 3.8 0 0 1-1.569 1.389q-.996.495-2.306.495-1.16 0-2.107-.405a3.34 3.34 0 0 1-1.503-1.256q-.556-.85-.55-2.179h2.976q.019.477.182.815.168.333.464.501.297.17.707.17.429 0 .724-.182.295-.187.447-.55.157-.36.163-.899zm7.436 12.52q-.888 0-1.576-.295a2.45 2.45 0 0 1-1.08-.906q-.393-.609-.393-1.527 0-.773.272-1.304t.748-.863a3.5 3.5 0 0 1 1.099-.501 7 7 0 0 1 1.328-.236q.792-.072 1.274-.15.484-.086.7-.236a.51.51 0 0 0 .224-.44v-.031q0-.466-.32-.718-.32-.255-.863-.254-.587 0-.942.253-.357.255-.453.7l-2.723-.096a3.2 3.2 0 0 1 .622-1.509q.507-.67 1.389-1.05.887-.387 2.131-.387.887 0 1.636.212.748.205 1.304.603.555.393.857.966.308.574.308 1.31v6.303h-2.777v-1.292h-.073q-.247.471-.634.797-.38.325-.899.489a3.8 3.8 0 0 1-1.159.163m.911-1.931q.477 0 .858-.193a1.6 1.6 0 0 0 .615-.532q.23-.344.23-.797v-.88a2 2 0 0 1-.308.12q-.175.054-.386.103a7 7 0 0 1-.435.084q-.223.036-.429.066a2.7 2.7 0 0 0-.712.206 1.13 1.13 0 0 0-.447.362.9.9 0 0 0-.151.519q0 .46.326.7.333.242.839.242m15.099-7.498-3.182 9.273h-3.38l-3.176-9.273h3.109l1.709 6.387h.096l1.715-6.387zm3.497 9.43q-.888 0-1.576-.296a2.46 2.46 0 0 1-1.081-.906q-.392-.609-.392-1.527 0-.773.272-1.304.271-.531.748-.863a3.5 3.5 0 0 1 1.099-.501 7 7 0 0 1 1.328-.236q.79-.072 1.274-.15.483-.086.7-.236a.51.51 0 0 0 .224-.44v-.031q0-.466-.32-.718-.32-.255-.864-.254-.585 0-.941.253-.357.255-.453.7l-2.723-.096a3.2 3.2 0 0 1 .622-1.509q.507-.67 1.388-1.05.887-.387 2.132-.387.886 0 1.636.212.748.205 1.304.603.555.393.857.966.308.574.308 1.31v6.303h-2.777V25.21h-.073q-.247.471-.634.797-.38.325-.899.489a3.8 3.8 0 0 1-1.159.163m.911-1.932q.477 0 .858-.193.385-.194.615-.532.23-.344.23-.797v-.88a2 2 0 0 1-.308.12q-.175.054-.387.103-.21.048-.434.084t-.429.066a2.7 2.7 0 0 0-.712.206 1.13 1.13 0 0 0-.447.362.9.9 0 0 0-.151.519q0 .46.326.7.333.242.839.242m10.064 1.775v-2.15l4.509-3.948q.508-.458.864-.839.356-.386.543-.773.187-.392.187-.85 0-.515-.223-.876a1.5 1.5 0 0 0-.616-.568 1.96 1.96 0 0 0-.899-.199q-.514 0-.9.212a1.46 1.46 0 0 0-.604.597q-.21.393-.211.954h-2.831q0-1.262.567-2.18a3.74 3.74 0 0 1 1.594-1.412q1.032-.501 2.397-.501 1.406 0 2.445.47 1.038.472 1.605 1.317.574.84.574 1.95 0 .706-.284 1.4-.283.694-1.02 1.534-.73.84-2.077 2.01l-1.479 1.364v.079h5.011V26.5zm16.558-12.364v12.364h-2.983v-9.575h-.072l-2.765 1.69v-2.583l3.049-1.896z"/></g></g><rect width="190.858" height="37.858" x="1.071" y="1.071" stroke="#fff" stroke-opacity=".15" stroke-width="2.143" rx="6.929"/><defs><filter id="c" width="39.202" height="42.72" x="2.4" y="-1.768" color-interpolation-filters="sRGB" filterUnits="userSpaceOnUse"><feFlood flood-opacity="0" result="BackgroundImageFix"/><feColorMatrix in="SourceAlpha" result="hardAlpha" values="0 0 0 0 0 0 0 0 0 0 0 0 0 0 0 0 0 0 127 0"/><feOffset/><feGaussianBlur stdDeviation="2.8"/><feComposite in2="hardAlpha" operator="out"/><feColorMatrix values="0 0 0 0 0 0 0 0 0 0 0 0 0 0 0 0 0 0 0.25 0"/><feBlend in2="BackgroundImageFix" result="effect1_dropShadow_56_70"/><feBlend in="SourceGraphic" in2="effect1_dropShadow_56_70" result="shape"/></filter><filter id="d" width="154.429" height="32.429" x="36.287" y="3.786" color-interpolation-filters="sRGB" filterUnits="userSpaceOnUse"><feFlood flood-opacity="0" result="BackgroundImageFix"/><feColorMatrix in="SourceAlpha" result="hardAlpha" values="0 0 0 0 0 0 0 0 0 0 0 0 0 0 0 0 0 0 127 0"/><feOffset/><feGaussianBlur stdDeviation="2.857"/><feComposite in2="hardAlpha" operator="out"/><feColorMatrix values="0 0 0 0 0 0 0 0 0 0 0 0 0 0 0 0 0 0 0.25 0"/><feBlend in2="BackgroundImageFix" result="effect1_dropShadow_56_70"/><feBlend in="SourceGraphic" in2="effect1_dropShadow_56_70" result="shape"/></filter><linearGradient id="b" x1="96.501" x2="96.501" y1="0" y2="40.001" gradientUnits="userSpaceOnUse"><stop stop-color="#2f1a07"/><stop offset="1" stop-color="#111a21"/></linearGradient><clipPath id="a"><rect width="193.001" height="40.001" fill="#fff" rx="8"/></clipPath></defs></svg>