<svg xmlns="http://www.w3.org/2000/svg" width="181" height="40" fill="none" viewBox="0 0 181 40"><rect width="181.001" height="40.001" fill="url(#a)" rx="8"/><rect width="178.858" height="37.858" x="1.071" y="1.071" stroke="#fff" stroke-opacity=".15" stroke-width="2.143" rx="6.929"/><g filter="url(#b)"><path fill="red" d="M11.293 31.73a4 4 0 0 1-1.153-.75c-1.42-1.324-1.575-3.424-.432-4.813l-.015-.015.22-.213L27.412 8.732c.261-.255.518-1.015.631-1.452a.6.6 0 0 1 .128-.272l.021-.022.015-.014.003-.008.02-.017c.277-.279.767-.269 1.448.024.823.352 1.854 1.08 2.834 1.994.823.77 1.521 1.59 1.954 2.3.514.832.608 1.422.272 1.749l-.06.035-.026.01a1 1 0 0 1-.265.11c-.517.147-1.295.444-1.492.646L15.192 31.279l-.017-.015c-1.07.83-2.547 1.026-3.875.461l-.008-.003zm-.84-5.416-.049.046c-1.137 1.146-1.062 3.023.18 4.182q.42.393.946.616c1.186.508 2.524.286 3.412-.578l.063-.056 17.412-17.138c.37-.371 1.529-.732 1.758-.797l.027-.01c.022-.01.032-.007.04-.024.03-.069.058-.342-.363-1.033-.408-.664-1.055-1.431-1.83-2.152-.9-.831-1.895-1.545-2.628-1.86-.476-.203-.68-.18-.728-.14l-.02.046c-.031.128-.33 1.266-.787 1.723L10.455 26.31zm16.602-8.533s-1.724.77-2.995.768c-1.27-.003-2.012-.464-3.206-.346-1.191.116-1.995.645-1.995.645l-8.047 7.923c-.89.902-.804 2.443.183 3.37.99.926 2.55.93 3.466.05zm-10.943 8.89c.148.006.275.117.274.259 0 .142-.11.255-.259.248-.148-.005-.275-.117-.273-.259-.004-.133.106-.248.258-.249m-.35-2.602c-.22-.002-.409-.175-.41-.386a.362.362 0 0 1 .385-.376c.222 0 .409.176.41.384.017.212-.144.365-.381.367zm.889-1.11c-.009-.395.307-.715.724-.72a.784.784 0 0 1 .776.72.71.71 0 0 1-.721.72c-.429-.012-.769-.329-.795-.728zm4.076-1.323a.4.4 0 0 1 .412.38.364.364 0 0 1-.384.379c-.223 0-.411-.177-.41-.387-.016-.214.164-.384.383-.376zm-.9-2.262c.148.007.276.119.273.26a.244.244 0 0 1-.258.251c-.148-.006-.276-.118-.273-.258a.25.25 0 0 1 .258-.253m9.578-10.97c.251-.247 1.293.334 2.326 1.305 1.031.965 1.664 1.95 1.415 2.198-.258.249-1.299-.334-2.33-1.3-1.038-.968-1.67-1.953-1.414-2.205z"/></g><g filter="url(#c)"><path fill="#e8e8e8" d="M43.36 26.5V14.138h4.528q1.315 0 2.179.435.863.429 1.292 1.165.428.73.428 1.648 0 .773-.283 1.304-.285.525-.761.845a3.4 3.4 0 0 1-1.038.459v.12q.615.03 1.2.4.592.361.979 1.031.386.67.386 1.63 0 .948-.447 1.703-.44.748-1.364 1.189-.923.435-2.36.435zm1.865-1.6h2.693q1.34 0 1.92-.518a1.67 1.67 0 0 0 .579-1.298q0-.585-.296-1.075a2.1 2.1 0 0 0-.845-.779q-.543-.29-1.292-.29h-2.759zm0-5.414h2.5q.627 0 1.128-.242.507-.24.803-.676.302-.441.302-1.038 0-.767-.537-1.286-.537-.52-1.648-.52h-2.548zm14.987 3.17v-5.428h1.81v9.273h-1.774v-1.606h-.096a2.9 2.9 0 0 1-1.027 1.237q-.7.49-1.745.49-.892 0-1.581-.393-.682-.399-1.075-1.177-.386-.78-.386-1.926v-5.898h1.805v5.68q0 .95.525 1.51.525.561 1.364.561.508 0 1.009-.253.506-.255.839-.767.338-.513.332-1.304m4.236 3.845v-9.273h1.805V26.5zm.912-10.704q-.471 0-.81-.314a1.02 1.02 0 0 1-.331-.76q0-.447.332-.761.338-.32.809-.32.47 0 .803.32a1 1 0 0 1 .338.76q0 .441-.338.761-.333.315-.803.314m5.127-1.66V26.5h-1.805V14.137zm6.757 3.091v1.449h-5.065v-1.449zm-3.707-2.222h1.805v8.772q0 .526.157.79.158.261.404.357.254.09.55.09.217 0 .38-.03l.254-.048.326 1.491q-.157.06-.447.121a3.5 3.5 0 0 1-.725.072 3.2 3.2 0 0 1-1.328-.253 2.3 2.3 0 0 1-.996-.821q-.38-.555-.38-1.395zM85.75 26.501l-2.73-9.273h1.866l1.817 6.81h.091l1.823-6.81h1.865l1.812 6.78h.09l1.805-6.78h1.866l-2.723 9.273h-1.841l-1.884-6.695h-.139L87.585 26.5zm12.018 0v-9.273h1.805v9.273zm.911-10.704q-.47 0-.809-.314a1.02 1.02 0 0 1-.332-.76q0-.447.332-.761.338-.32.81-.32.47 0 .802.32a1 1 0 0 1 .338.76q0 .441-.338.761-.332.315-.803.314m7.65 1.431v1.449h-5.065v-1.449zm-3.706-2.222h1.805v8.772q0 .526.157.79a.8.8 0 0 0 .404.357q.253.09.55.09.217 0 .38-.03l.254-.048.326 1.491q-.158.06-.447.121a3.5 3.5 0 0 1-.725.072 3.2 3.2 0 0 1-1.328-.253 2.3 2.3 0 0 1-.996-.821q-.38-.555-.38-1.395zm7.707 5.989v5.506h-1.805V14.137h1.781v4.6h.115q.325-.748.996-1.19.67-.44 1.751-.44.954 0 1.666.393.718.392 1.111 1.17.398.774.398 1.933V26.5h-1.805v-5.68q0-1.02-.525-1.582-.525-.567-1.461-.567-.64 0-1.147.271a1.96 1.96 0 0 0-.791.797q-.284.52-.284 1.256"/><path fill="red" d="M127.96 14.137h2.946v8.548q-.006 1.202-.574 2.101a3.8 3.8 0 0 1-1.569 1.389q-.996.495-2.306.495-1.16 0-2.107-.405a3.34 3.34 0 0 1-1.503-1.255q-.556-.852-.55-2.18h2.976q.019.477.182.815.168.333.464.501.297.17.707.17.429 0 .724-.182.295-.187.447-.55.157-.36.163-.899zm9.156 12.539q-1.455 0-2.511-.574a3.97 3.97 0 0 1-1.618-1.648q-.561-1.074-.561-2.553 0-1.437.567-2.512.568-1.08 1.6-1.678 1.032-.603 2.433-.604.99 0 1.811.308.82.308 1.419.912.597.604.929 1.49.332.882.332 2.023v.737h-8.059v-1.715h5.313a1.66 1.66 0 0 0-.224-.839 1.5 1.5 0 0 0-.597-.573 1.73 1.73 0 0 0-.864-.212q-.495 0-.887.224a1.68 1.68 0 0 0-.863 1.449v1.744q0 .567.223.996.223.423.634.658.41.236.978.236.392 0 .712-.109.32-.108.549-.32.23-.21.345-.52l2.71.08a3.36 3.36 0 0 1-.742 1.587q-.569.67-1.491 1.044-.924.369-2.138.369m8.571-2.608.012-3.52h.411l2.608-3.32h3.344l-3.875 4.757h-.779zm-2.662 2.433V14.137h2.952v12.364zm5.759 0-2.427-3.852 1.944-2.095 3.894 5.947zm6.339 3.477q-.531 0-1.002-.085a4 4 0 0 1-.809-.21l.652-2.144q.434.145.785.17.355.023.61-.116.259-.132.398-.477l.115-.277-3.297-9.611h3.091l1.709 6.616h.096l1.733-6.616h3.109l-3.495 10.16a4.3 4.3 0 0 1-.719 1.34 3.1 3.1 0 0 1-1.189.918q-.725.332-1.787.332m11.274-15.84V26.5h-2.952V14.137zm4.831 0V26.5h-2.952V14.137z"/></g><defs><filter id="b" width="39.202" height="39.202" x="2.4" y=".4" color-interpolation-filters="sRGB" filterUnits="userSpaceOnUse"><feFlood flood-opacity="0" result="BackgroundImageFix"/><feColorMatrix in="SourceAlpha" result="hardAlpha" values="0 0 0 0 0 0 0 0 0 0 0 0 0 0 0 0 0 0 127 0"/><feOffset/><feGaussianBlur stdDeviation="2.8"/><feComposite in2="hardAlpha" operator="out"/><feColorMatrix values="0 0 0 0 0 0 0 0 0 0 0 0 0 0 0 0 0 0 0.25 0"/><feBlend in2="BackgroundImageFix" result="effect1_dropShadow_40_497"/><feBlend in="SourceGraphic" in2="effect1_dropShadow_40_497" result="shape"/></filter><filter id="c" width="142.429" height="32.429" x="36.287" y="3.786" color-interpolation-filters="sRGB" filterUnits="userSpaceOnUse"><feFlood flood-opacity="0" result="BackgroundImageFix"/><feColorMatrix in="SourceAlpha" result="hardAlpha" values="0 0 0 0 0 0 0 0 0 0 0 0 0 0 0 0 0 0 127 0"/><feOffset/><feGaussianBlur stdDeviation="2.857"/><feComposite in2="hardAlpha" operator="out"/><feColorMatrix values="0 0 0 0 0 0 0 0 0 0 0 0 0 0 0 0 0 0 0.25 0"/><feBlend in2="BackgroundImageFix" result="effect1_dropShadow_40_497"/><feBlend in="SourceGraphic" in2="effect1_dropShadow_40_497" result="shape"/></filter><linearGradient id="a" x1="90.501" x2="90.501" y1="0" y2="40.001" gradientUnits="userSpaceOnUse"><stop stop-color="#360a0a"/><stop offset="1" stop-color="#1e0505"/></linearGradient></defs></svg>