<svg xmlns="http://www.w3.org/2000/svg" width="176" height="40" fill="none" viewBox="0 0 176 40"><g clip-path="url(#a)"><rect width="176" height="40" fill="url(#b)" rx="8"/><g filter="url(#c)"><path fill="url(#d)" d="M36 34H8V6h28L21.711 19.794z"/></g><g filter="url(#e)"><path fill="#e8e8e8" d="M43.278 25.5V13.864h4.262q1.239 0 2.05.409.814.403 1.217 1.096.403.688.403 1.552 0 .726-.267 1.227a2.2 2.2 0 0 1-.716.795q-.442.296-.977.432v.114a2.3 2.3 0 0 1 1.13.375q.558.34.921.971.364.63.364 1.534 0 .893-.42 1.603-.415.704-1.285 1.119-.87.41-2.221.409zm1.756-1.506h2.534q1.261 0 1.807-.488.545-.489.545-1.222 0-.55-.278-1.011a2 2 0 0 0-.795-.733q-.512-.273-1.216-.273h-2.597zm0-5.096h2.352q.592 0 1.063-.227a1.86 1.86 0 0 0 .756-.637q.284-.414.284-.977 0-.722-.506-1.21-.505-.489-1.551-.489h-2.398zM59.14 21.88v-5.108h1.705V25.5h-1.67v-1.511h-.092q-.3.698-.965 1.164-.66.46-1.643.46-.84 0-1.488-.369-.642-.375-1.012-1.108-.363-.732-.363-1.812v-5.551h1.699v5.346q0 .893.494 1.42.495.53 1.284.53.477 0 .949-.24.477-.239.79-.721.318-.483.312-1.227m3.987 3.619v-8.727h1.7V25.5zm.858-10.074a1.08 1.08 0 0 1-.761-.295.96.96 0 0 1-.312-.716q0-.421.312-.716.318-.3.761-.301.444 0 .756.3a.94.94 0 0 1 .318.717.95.95 0 0 1-.318.716 1.06 1.06 0 0 1-.756.295m4.826-1.562V25.5h-1.7V13.864zm6.359 2.909v1.363h-4.767v-1.363zm-3.489-2.091h1.7v8.256q0 .493.147.744a.77.77 0 0 0 .38.335q.24.085.518.085.204 0 .358-.028l.238-.046.307 1.404a3 3 0 0 1-.42.114q-.274.062-.682.068a3 3 0 0 1-1.25-.239 2.15 2.15 0 0 1-.938-.773q-.357-.523-.358-1.312zM83.175 25.5l-2.568-8.727h1.755l1.71 6.409h.086l1.716-6.41h1.755l1.705 6.381h.085l1.699-6.38h1.756L90.31 25.5h-1.733l-1.773-6.301h-.13L84.902 25.5zm11.31 0v-8.727h1.7V25.5zm.859-10.074a1.08 1.08 0 0 1-.762-.295.96.96 0 0 1-.312-.716q0-.421.312-.716.319-.3.762-.301.443 0 .755.3a.94.94 0 0 1 .319.717.95.95 0 0 1-.319.716 1.06 1.06 0 0 1-.755.295m7.2 1.347v1.363h-4.767v-1.363zm-3.489-2.091h1.699v8.256q0 .493.148.744a.77.77 0 0 0 .381.335q.238.085.517.085a2 2 0 0 0 .358-.028l.238-.046.307 1.404a3 3 0 0 1-.42.114 3.3 3.3 0 0 1-.682.068 3 3 0 0 1-1.25-.239 2.14 2.14 0 0 1-.938-.773q-.357-.523-.358-1.312zm7.255 5.636V25.5h-1.699V13.864h1.676v4.33h.108q.306-.706.937-1.12t1.648-.415q.898 0 1.568.37.677.369 1.046 1.102.375.727.375 1.818V25.5h-1.699v-5.347q0-.96-.494-1.488-.495-.534-1.375-.534a2.25 2.25 0 0 0-1.08.255q-.471.255-.744.75-.267.489-.267 1.182"/><path fill="url(#f)" d="M118.936 26V13.636h2.988v5.228h.163l4.087-5.228h3.52l-4.383 5.518L129.772 26h-3.574l-3.079-4.86-1.195 1.51V26zm15.584.175q-1.461 0-2.511-.598a4.1 4.1 0 0 1-1.612-1.678q-.562-1.08-.562-2.505 0-1.432.562-2.505a4.07 4.07 0 0 1 1.612-1.679q1.05-.604 2.511-.604t2.505.604a4 4 0 0 1 1.612 1.678q.568 1.075.568 2.506 0 1.425-.568 2.505a4.07 4.07 0 0 1-1.612 1.678q-1.044.598-2.505.598m.018-2.228q.531 0 .9-.326.367-.326.561-.905.2-.58.199-1.34 0-.773-.199-1.353-.194-.58-.561-.905a1.3 1.3 0 0 0-.9-.326q-.549 0-.93.326-.373.326-.573.905-.193.58-.193 1.353 0 .76.193 1.34.2.58.573.905.381.327.93.326m11.413-7.22v2.174h-5.85v-2.174zm-4.624-2.221h2.952v8.578q0 .272.084.44a.53.53 0 0 0 .26.236q.169.067.404.067.17 0 .357-.03.192-.038.289-.06l.447 2.13q-.211.06-.598.151-.38.09-.911.115-1.038.048-1.781-.242a2.3 2.3 0 0 1-1.129-.917q-.387-.622-.374-1.564zm9.281-.87V26h-2.952V13.636zM152.487 26v-9.273h2.953V26zm1.48-10.353q-.622 0-1.069-.41a1.32 1.32 0 0 1-.447-1.003q0-.579.447-.99a1.5 1.5 0 0 1 1.069-.417q.627 0 1.068.417.447.411.447.99 0 .585-.447 1.002a1.5 1.5 0 0 1-1.068.41m6.304 5.065V26h-2.952v-9.273h2.807v1.703h.102a2.6 2.6 0 0 1 1.051-1.334q.742-.49 1.769-.49.978 0 1.696.441.724.435 1.123 1.22.404.779.398 1.823V26h-2.952v-5.33q.006-.774-.392-1.208-.393-.435-1.093-.435-.465 0-.821.206a1.36 1.36 0 0 0-.543.573q-.187.375-.193.906"/></g></g><rect width="173.9" height="37.9" x="1.05" y="1.05" stroke="#fff" stroke-opacity=".15" stroke-width="2.1" rx="6.95"/><defs><radialGradient id="b" cx="0" cy="0" r="1" gradientTransform="matrix(-176 0 0 -40 176 0)" gradientUnits="userSpaceOnUse"><stop stop-color="#3d282a"/><stop offset=".504" stop-color="#332336"/><stop offset="1" stop-color="#24202f"/></radialGradient><radialGradient id="d" cx="0" cy="0" r="1" gradientTransform="matrix(-28 0 0 -28 36 6)" gradientUnits="userSpaceOnUse"><stop stop-color="#e44857"/><stop offset=".504" stop-color="#c711e1"/><stop offset="1" stop-color="#7f52ff"/></radialGradient><radialGradient id="f" cx="0" cy="0" r="1" gradientTransform="matrix(-50 0 0 -18 168 11)" gradientUnits="userSpaceOnUse"><stop stop-color="#e44857"/><stop offset=".504" stop-color="#c711e1"/><stop offset="1" stop-color="#7f52ff"/></radialGradient><filter id="c" width="39.429" height="39.429" x="2.286" y=".286" color-interpolation-filters="sRGB" filterUnits="userSpaceOnUse"><feFlood flood-opacity="0" result="BackgroundImageFix"/><feColorMatrix in="SourceAlpha" result="hardAlpha" values="0 0 0 0 0 0 0 0 0 0 0 0 0 0 0 0 0 0 127 0"/><feOffset/><feGaussianBlur stdDeviation="2.857"/><feComposite in2="hardAlpha" operator="out"/><feColorMatrix values="0 0 0 0 0 0 0 0 0 0 0 0 0 0 0 0 0 0 0.25 0"/><feBlend in2="BackgroundImageFix" result="effect1_dropShadow_57_190"/><feBlend in="SourceGraphic" in2="effect1_dropShadow_57_190" result="shape"/></filter><filter id="e" width="137.2" height="30.2" x="36.4" y="4.9" color-interpolation-filters="sRGB" filterUnits="userSpaceOnUse"><feFlood flood-opacity="0" result="BackgroundImageFix"/><feColorMatrix in="SourceAlpha" result="hardAlpha" values="0 0 0 0 0 0 0 0 0 0 0 0 0 0 0 0 0 0 127 0"/><feOffset/><feGaussianBlur stdDeviation="2.8"/><feComposite in2="hardAlpha" operator="out"/><feColorMatrix values="0 0 0 0 0 0 0 0 0 0 0 0 0 0 0 0 0 0 0.25 0"/><feBlend in2="BackgroundImageFix" result="effect1_dropShadow_57_190"/><feBlend in="SourceGraphic" in2="effect1_dropShadow_57_190" result="shape"/></filter><clipPath id="a"><rect width="176" height="40" fill="#fff" rx="8"/></clipPath></defs></svg>