<svg xmlns="http://www.w3.org/2000/svg" width="187" height="40" fill="none" viewBox="0 0 187 40"><g clip-path="url(#a)"><rect width="187.001" height="40.001" fill="url(#b)" rx="8"/><g filter="url(#c)"><path fill="url(#d)" d="M32.757 6.926c-.513.209-1.414.87-2.511 1.857l.626 1.712a21 21 0 0 1 2.255-2.067c-.027.024-.058.042-.085.067-.234.186-.943.795-2.063 2.05.89.079 2.27.092 3.405.06.598-1.76.067-2.677.067-2.677s-.638-1.433-1.694-1.002"/><path fill="#be202e" d="M28.4 18.53q-.009-.003 0 0c.017.002.034-.002.051 0q.114.002.22-.008c-.087.005-.179.003-.271.007"/><path fill="#be202e" d="M28.4 18.53q-.009-.003 0 0c.017.002.034-.002.051 0q.114.002.22-.008c-.087.005-.179.003-.271.007" opacity=".35"/><path fill="url(#e)" d="M27.727 14.248q.502-.663.999-1.293a37 37 0 0 1 2.14-2.466l-.626-1.707c-.073.069-.152.136-.232.21q-.438.402-.913.866-.532.525-1.098 1.111c-.346.362-.7.745-1.056 1.14q-.454.509-.91 1.041l-.035.04.8 2.322q.47-.636.931-1.264"/><path fill="url(#f)" d="M20.842 25.744c-.205.376-.417.762-.624 1.16-.001.006-.008.01-.009.016-.03.057-.061.11-.087.168-.143.266-.264.508-.551 1.052.31.195.517.618.7 1.093a1.77 1.77 0 0 0-.406-1.299c1.614.3 3.079.094 3.97-.973q.117-.143.229-.305c-.392.361-.823.48-1.586.329h-.006.006c1.203-.337 1.84-.737 2.457-1.455q.219-.254.445-.567c-1.136.858-2.324.979-3.501.595l-.92-.028c-.04.073-.078.14-.117.214"/><path fill="url(#g)" d="m21.55 23.815.823-1.42q.402-.683.82-1.374.421-.69.852-1.381.439-.704.893-1.398c.297-.459.605-.916.907-1.369.11-.164.219-.323.335-.486q.286-.416.58-.83c.008-.016.022-.03.03-.046L26 13.197c-.02.025-.042.056-.068.08-.32.382-.646.77-.963 1.169q-.485.605-.956 1.238a78 78 0 0 0-.783 1.076l-.153.22a31 31 0 0 0-1.686 2.732q-.238.438-.445.848c-.115.231-.224.469-.333.7a22 22 0 0 0-.68 1.66l.804 2.332c.204-.37.419-.74.63-1.12z"/><path fill="url(#h)" d="M19.907 22.994a17 17 0 0 0-.598 2.04c-.004.023-.013.05-.016.072-.268-.6-1.131-1.272-1.127-1.266.533 1.053.905 2.072.841 3.013-.37.021-.848-.153-1.385-.436.516.618.938.829 1.106.892-.55-.044-1.17.246-1.805.59.886-.22 1.584-.256 2.05-.078a159 159 0 0 0-3.333 6.665.68.68 0 0 0 .518-.371 150 150 0 0 1 3.553-6.983c.056-.105.117-.209.173-.319.016-.031.032-.057.047-.089q.317-.58.657-1.19c.053-.093.101-.182.155-.276v-.005l-.803-2.333a.4.4 0 0 0-.033.074"/><path fill="url(#i)" d="M26.954 15.724c-.044.062-.08.118-.124.18-.125.185-.255.369-.38.559q-.209.308-.426.632c-.074.108-.147.215-.22.329q-.332.502-.675 1.035a115 115 0 0 0-1.716 2.773c-.274.461-.556.933-.84 1.428-.254.436-.51.89-.773 1.353-.015.02-.024.047-.039.067a192 192 0 0 0-.804 1.45l.92.028c-.017-.008-.034-.01-.055-.019 1.104.02 2.66-.572 3.73-1.422a8.6 8.6 0 0 0 1.411-1.438c.338-.425.66-.902.987-1.441q.421-.7.84-1.535a3.5 3.5 0 0 1-.892.167l-.173.01c-.058.003-.115 0-.178.003 1.067-.238 1.81-.882 2.404-1.72-.29.139-.757.31-1.291.352-.07.008-.145.008-.22.009l-.056-.002a4.2 4.2 0 0 0 .977-.37q.093-.047.176-.104.132-.084.256-.178c.052-.043.104-.08.156-.124a3 3 0 0 0 .337-.34c.034-.04.068-.075.097-.116.044-.062.086-.117.123-.174a10 10 0 0 0 .615-.982c.017-.037.039-.068.055-.105.05-.1.097-.188.132-.268q.077-.175.11-.282a.6.6 0 0 1-.13.06c-.329.134-.876.226-1.309.244l.845.028-.845-.028c-.005 0-.01-.002-.017.003q-.061-.001-.133.004c.007-.005.018-.003.024-.008l-2.888-.095c.002.022-.005.033-.011.037"/><path fill="url(#j)" d="M30.982 10.545q-.464.517-1.017 1.184c-.021.025-.041.044-.057.07a61 61 0 0 0-2.006 2.597c-.3.408-.605.843-.931 1.303l2.889.096c.881-.259 1.302-.543 1.734-.983a17 17 0 0 0 1.39-1.694c.318-.438.606-.876.83-1.272a8 8 0 0 0 .362-.702 8 8 0 0 0 .204-.534c-1.128.028-2.509.014-3.398-.066"/><path fill="#be202e" d="M27.735 19.892c-.058.003-.115.001-.178.003q.086-.006.178-.003"/><path fill="#be202e" d="M27.735 19.892c-.058.003-.115.001-.178.003q.086-.006.178-.003" opacity=".35"/><path fill="url(#k)" d="M27.735 19.892c-.058.003-.115.001-.178.003q.086-.006.178-.003"/><path fill="#be202e" d="M28.394 18.529c.017.002.035-.001.057.002z"/><path fill="#be202e" d="M28.394 18.529c.017.002.035-.001.057.002z" opacity=".35"/><path fill="url(#l)" d="M28.394 18.529c.017.002.035-.001.057.002z"/><path fill="url(#m)" d="M12.552 6.31c-.176.451-.291 1.424-.312 2.72l1.512.653c-.06-.926-.057-1.799.009-2.594.003-.059.007-.094.007-.094 0 .032-.007.063-.007.094-.02.262-.053 1.082.09 2.556.595-.513 1.45-1.375 2.122-2.111-.795-1.454-1.724-1.68-1.724-1.68s-1.336-.474-1.697.456"/><path fill="#be202e" d="M18.092 17.303q-.101.114-.207.222c.037-.034.074-.076.107-.114q.055-.054.1-.108"/><path fill="#be202e" d="M18.092 17.303q-.101.114-.207.222c.037-.034.074-.076.107-.114q.055-.054.1-.108" opacity=".35"/><path fill="#be202e" d="M17.508 16.162q-.006.005 0 0c.012-.01.02-.023.032-.032q.069-.07.129-.143c-.05.057-.107.114-.161.175"/><path fill="#be202e" d="M17.508 16.162q-.006.005 0 0c.012-.01.02-.023.032-.032q.069-.07.129-.143c-.05.057-.107.114-.161.175" opacity=".35"/><path fill="url(#n)" d="M14.287 13.963a70 70 0 0 1-.241-1.421q-.113-.726-.19-1.43-.007-.044-.009-.082-.076-.689-.117-1.348l-1.507-.648-.004.274q-.004.523.013 1.107.02.656.06 1.372c.027.44.063.898.105 1.364q.057.597.13 1.212c0 .017.003.028.005.046l2.018.915q-.13-.685-.263-1.36"/><path fill="url(#o)" d="M17.612 25.346q.182.541.383 1.104l.005.015c.019.055.035.106.057.157.089.253.174.478.357.992.319-.076.724.051 1.149.227a1.64 1.64 0 0 0-1.105-.539c1.185-.835 1.946-1.885 1.788-3.1a4 4 0 0 0-.062-.33c-.001.467-.186.812-.753 1.201l-.004.003.004-.003c.513-.965.64-1.612.544-2.44a8 8 0 0 0-.102-.628c-.13 1.242-.777 2.065-1.75 2.573l-.58.563q.033.103.069.205"/><path fill="url(#p)" d="M16.79 23.716q-.215-.686-.432-1.388-.205-.671-.403-1.359-.198-.689-.39-1.382-.194-.709-.374-1.42c-.12-.468-.233-.942-.347-1.409-.04-.17-.078-.336-.115-.51q-.1-.434-.191-.873c-.006-.015-.007-.033-.013-.047l-2.006-.918c.004.029.01.061.01.093.057.436.112.879.181 1.323q.104.676.23 1.36.11.577.23 1.154l.052.23a28 28 0 0 0 .768 2.736q.143.42.286.8c.083.214.172.429.258.64q.312.742.677 1.443l2.028.92c-.12-.356-.232-.717-.353-1.083q-.046-.152-.096-.31"/><path fill="url(#q)" d="M15.222 24.252q.441.85.977 1.626c.013.016.025.038.037.054-.558-.198-1.528-.064-1.521-.063 1.018.308 1.916.696 2.497 1.312-.212.247-.62.443-1.135.609.723.051 1.12-.086 1.264-.154-.365.32-.554.89-.716 1.501.398-.693.8-1.157 1.203-1.343.67 1.922 1.468 4.003 2.348 6.184a.58.58 0 0 0 .073-.555 133 133 0 0 1-2.423-6.516c-.035-.1-.066-.201-.105-.304l-.029-.085q-.187-.555-.382-1.142c-.028-.091-.058-.176-.086-.267l-.004-.004-2.026-.92a.4.4 0 0 0 .028.067"/><path fill="url(#r)" d="M14.767 15.358c.013.064.028.123.042.188.046.191.087.386.136.582l.156.655q.038.167.082.34.128.515.27 1.06.174.666.375 1.38c.127.45.261.92.402 1.398.137.456.276.922.427 1.404q.201.64.42 1.316c.004.021.016.044.02.065a171 171 0 0 0 .464 1.395l.58-.563c-.014.005-.026.014-.045.022.688-.684 1.25-2.028 1.345-3.224a7.5 7.5 0 0 0-.085-1.77 12 12 0 0 0-.347-1.504q-.202-.695-.498-1.469c-.102.224-.25.447-.435.665l-.1.115c-.033.038-.07.073-.107.114.496-.82.527-1.682.337-2.57a3.2 3.2 0 0 1-.557 1.031 2 2 0 0 1-.128.144c-.012.01-.02.022-.037.034a3.5 3.5 0 0 0 .355-.842c.018-.058.028-.117.039-.175.018-.09.028-.18.04-.27.003-.06.01-.115.013-.175a2.5 2.5 0 0 0-.019-.42c-.005-.047-.007-.09-.017-.133q-.018-.097-.039-.184a9 9 0 0 0-.27-.989c-.015-.033-.022-.065-.036-.099-.036-.092-.065-.176-.096-.247a3 3 0 0 0-.12-.242.5.5 0 0 1-.038.119c-.114.29-.387.69-.64.975l.535-.516-.535.516q-.007.003-.01.013-.038.038-.078.086c.001-.007.01-.013.01-.02l-1.83 1.764c.017.013.02.024.019.03"/><path fill="url(#s)" d="M13.839 9.645q.058.61.158 1.366c.004.029.004.054.012.08a53 53 0 0 0 .485 2.854c.085.439.185.897.29 1.384l1.83-1.764c.368-.714.438-1.153.413-1.695a14 14 0 0 0-.266-1.914 13 13 0 0 0-.331-1.301 7 7 0 0 0-.242-.658 8 8 0 0 0-.227-.456c-.672.729-1.526 1.592-2.122 2.104"/><path fill="#be202e" d="M17.995 17.415c-.033.038-.07.073-.107.114q.047-.058.107-.114"/><path fill="#be202e" d="M17.995 17.415c-.033.038-.07.073-.107.114q.047-.058.107-.114" opacity=".35"/><path fill="url(#t)" d="M17.995 17.415c-.033.038-.07.073-.107.114q.047-.058.107-.114"/><path fill="#be202e" d="M17.503 16.164c.012-.009.02-.022.036-.034-.011.01-.02.022-.036.034"/><path fill="#be202e" d="M17.503 16.164c.012-.009.02-.022.036-.034-.011.01-.02.022-.036.034" opacity=".35"/><path fill="url(#u)" d="M17.503 16.164c.012-.009.02-.022.036-.034-.011.01-.02.022-.036.034"/></g><g filter="url(#v)"><path fill="#e8e8e8" d="M43.36 26.5V14.138h4.528q1.315 0 2.179.435.863.428 1.292 1.165.428.73.428 1.648 0 .773-.283 1.304-.285.525-.761.845a3.4 3.4 0 0 1-1.038.459v.12q.615.03 1.2.399.592.362.979 1.032.386.67.386 1.63 0 .948-.447 1.703-.44.748-1.364 1.189-.923.435-2.36.435zm1.865-1.6h2.693q1.34 0 1.92-.518a1.67 1.67 0 0 0 .579-1.298q0-.585-.296-1.075a2.1 2.1 0 0 0-.845-.779q-.543-.29-1.292-.29h-2.759zm0-5.414h2.5q.627 0 1.128-.242.507-.24.803-.676.302-.441.302-1.038 0-.767-.537-1.286-.537-.52-1.648-.52h-2.548zm14.987 3.17v-5.428h1.81V26.5h-1.774v-1.606h-.096a2.9 2.9 0 0 1-1.027 1.237q-.7.49-1.745.49-.892 0-1.581-.393-.682-.399-1.075-1.177-.386-.78-.386-1.926v-5.898h1.805v5.68q0 .95.525 1.51.525.561 1.364.561.508 0 1.009-.253.506-.255.839-.767.338-.513.332-1.304m4.236 3.845v-9.273h1.805V26.5zm.912-10.704q-.471 0-.81-.314a1.02 1.02 0 0 1-.331-.76q0-.447.332-.761.338-.32.809-.32.47 0 .803.32a1 1 0 0 1 .338.76q0 .441-.338.761-.333.315-.803.314m5.127-1.66v12.364h-1.805V14.137zm6.757 3.09v1.45h-5.065v-1.45zm-3.707-2.22h1.805v8.771q0 .526.157.79.158.261.404.357.254.09.55.09.217 0 .38-.03l.254-.048.326 1.491q-.157.06-.447.121a3.5 3.5 0 0 1-.725.072 3.2 3.2 0 0 1-1.328-.253 2.3 2.3 0 0 1-.996-.821q-.38-.555-.38-1.395zM85.75 26.5l-2.73-9.273h1.866l1.817 6.81h.091l1.823-6.81h1.865l1.812 6.78h.09l1.805-6.78h1.866L93.332 26.5h-1.841l-1.884-6.695h-.139L87.585 26.5zm12.018 0v-9.273h1.805V26.5zm.911-10.704q-.47 0-.809-.314a1.02 1.02 0 0 1-.332-.76q0-.447.332-.761.338-.32.81-.32.47 0 .802.32a1 1 0 0 1 .338.76q0 .441-.338.761-.332.315-.803.314m7.65 1.43v1.45h-5.065v-1.45zm-3.706-2.22h1.805v8.771q0 .526.157.79a.8.8 0 0 0 .404.357q.253.09.55.09.217 0 .38-.03l.254-.048.326 1.491q-.158.06-.447.121a3.5 3.5 0 0 1-.725.072 3.2 3.2 0 0 1-1.328-.253 2.3 2.3 0 0 1-.996-.821q-.38-.555-.38-1.395zm7.707 5.988V26.5h-1.805V14.137h1.781v4.6h.115q.325-.748.996-1.19.67-.44 1.751-.44.954 0 1.666.393.718.392 1.111 1.17.398.774.398 1.933V26.5h-1.805v-5.68q0-1.02-.525-1.582-.525-.567-1.461-.567-.64 0-1.147.271a1.96 1.96 0 0 0-.791.797q-.284.52-.284 1.256"/><path fill="url(#w)" d="M122.937 14.137h3.701l3.139 7.655h.145l3.139-7.655h3.701v12.364h-2.91v-7.595h-.103l-2.97 7.516h-1.859l-2.97-7.558h-.103V26.5h-2.91zm18.303 12.52q-.888 0-1.576-.295a2.46 2.46 0 0 1-1.081-.906q-.392-.609-.392-1.527 0-.773.272-1.304.271-.531.748-.863a3.5 3.5 0 0 1 1.099-.501 7 7 0 0 1 1.328-.236q.79-.072 1.274-.15.483-.086.7-.236a.51.51 0 0 0 .224-.44v-.031q0-.466-.32-.718-.32-.255-.864-.254-.585 0-.941.253-.357.255-.453.7l-2.723-.096a3.2 3.2 0 0 1 .622-1.509q.507-.67 1.388-1.05.888-.387 2.131-.387.888 0 1.636.212.75.205 1.304.603.556.393.858.966.308.574.308 1.31v6.303h-2.777v-1.292h-.073q-.247.471-.634.797-.38.325-.899.489a3.8 3.8 0 0 1-1.159.163m.911-1.931q.477 0 .857-.193.387-.194.616-.532.23-.344.23-.797v-.88a2 2 0 0 1-.308.12q-.175.054-.387.103-.21.048-.434.084t-.429.066a2.7 2.7 0 0 0-.712.206 1.13 1.13 0 0 0-.447.362.9.9 0 0 0-.151.519q0 .46.326.7.332.242.839.242m15.099-7.498-3.182 9.273h-3.381l-3.175-9.273h3.109l1.708 6.387h.097l1.715-6.387zm5.167 9.448q-1.455 0-2.511-.574a3.97 3.97 0 0 1-1.618-1.648q-.561-1.074-.561-2.553 0-1.437.567-2.512.567-1.08 1.6-1.678 1.032-.604 2.433-.604.99 0 1.811.308.82.308 1.418.912.599.604.93 1.49.332.882.332 2.023v.737h-8.059v-1.715h5.312a1.66 1.66 0 0 0-.223-.839 1.5 1.5 0 0 0-.598-.573 1.7 1.7 0 0 0-.863-.212q-.495 0-.887.224a1.68 1.68 0 0 0-.864 1.449v1.744q0 .567.224.996.223.423.634.658.41.236.978.236.392 0 .712-.109t.549-.32.344-.52l2.711.08a3.35 3.35 0 0 1-.743 1.587q-.567.67-1.491 1.044-.923.369-2.137.369m8.861-5.464v5.289h-2.952v-9.273h2.807v1.702h.103a2.6 2.6 0 0 1 1.05-1.334q.743-.489 1.769-.489.978 0 1.696.44.725.435 1.123 1.22.405.78.399 1.823v5.91h-2.952v-5.33q.006-.773-.393-1.207-.392-.435-1.093-.435-.464 0-.821.205a1.36 1.36 0 0 0-.543.574q-.187.375-.193.905"/></g></g><rect width="184.858" height="37.858" x="1.071" y="1.071" stroke="#fff" stroke-opacity=".15" stroke-width="2.143" rx="6.929"/><defs><linearGradient id="b" x1="93.501" x2="93.501" y1="0" y2="40.001" gradientUnits="userSpaceOnUse"><stop stop-color="#352008"/><stop offset=".5" stop-color="#30080d"/><stop offset="1" stop-color="#12112e"/></linearGradient><linearGradient id="d" x1="30.951" x2="37.504" y1="9.078" y2="8.217" gradientUnits="userSpaceOnUse"><stop stop-color="#f69923"/><stop offset=".312" stop-color="#f79a23"/><stop offset=".838" stop-color="#e97826"/></linearGradient><linearGradient id="e" x1="13.084" x2="29.378" y1="34.862" y2="9.412" gradientUnits="userSpaceOnUse"><stop offset=".323" stop-color="#9e2064"/><stop offset=".63" stop-color="#c92037"/><stop offset=".751" stop-color="#cd2335"/><stop offset="1" stop-color="#e97826"/></linearGradient><linearGradient id="f" x1="17.685" x2="27.393" y1="33.474" y2="18.303" gradientUnits="userSpaceOnUse"><stop stop-color="#282662"/><stop offset=".095" stop-color="#662e8d"/><stop offset=".788" stop-color="#9f2064"/><stop offset=".949" stop-color="#cd2032"/></linearGradient><linearGradient id="g" x1="13.791" x2="30.088" y1="33.298" y2="7.852" gradientUnits="userSpaceOnUse"><stop offset=".323" stop-color="#9e2064"/><stop offset=".63" stop-color="#c92037"/><stop offset=".751" stop-color="#cd2335"/><stop offset="1" stop-color="#e97826"/></linearGradient><linearGradient id="h" x1="15.364" x2="23.93" y1="31.686" y2="18.317" gradientUnits="userSpaceOnUse"><stop stop-color="#282662"/><stop offset=".095" stop-color="#662e8d"/><stop offset=".788" stop-color="#9f2064"/><stop offset=".949" stop-color="#cd2032"/></linearGradient><linearGradient id="i" x1="16.444" x2="32.737" y1="34.997" y2="9.543" gradientUnits="userSpaceOnUse"><stop offset=".323" stop-color="#9e2064"/><stop offset=".63" stop-color="#c92037"/><stop offset=".751" stop-color="#cd2335"/><stop offset="1" stop-color="#e97826"/></linearGradient><linearGradient id="j" x1="15.264" x2="31.555" y1="36.472" y2="11.014" gradientUnits="userSpaceOnUse"><stop offset=".323" stop-color="#9e2064"/><stop offset=".63" stop-color="#c92037"/><stop offset=".751" stop-color="#cd2335"/><stop offset="1" stop-color="#e97826"/></linearGradient><linearGradient id="k" x1="17.224" x2="33.512" y1="35.502" y2="10.035" gradientUnits="userSpaceOnUse"><stop offset=".323" stop-color="#9e2064"/><stop offset=".63" stop-color="#c92037"/><stop offset=".751" stop-color="#cd2335"/><stop offset="1" stop-color="#e97826"/></linearGradient><linearGradient id="l" x1="17.073" x2="33.313" y1="35.436" y2="9.896" gradientUnits="userSpaceOnUse"><stop offset=".323" stop-color="#9e2064"/><stop offset=".63" stop-color="#c92037"/><stop offset=".751" stop-color="#cd2335"/><stop offset="1" stop-color="#e97826"/></linearGradient><linearGradient id="m" x1="12.866" x2="16.235" y1="8.765" y2="4.053" gradientUnits="userSpaceOnUse"><stop stop-color="#f69923"/><stop offset=".312" stop-color="#f79a23"/><stop offset=".838" stop-color="#e97826"/></linearGradient><linearGradient id="n" x1="18.912" x2="12.877" y1="35.817" y2="9.785" gradientUnits="userSpaceOnUse"><stop offset=".323" stop-color="#9e2064"/><stop offset=".63" stop-color="#c92037"/><stop offset=".751" stop-color="#cd2335"/><stop offset="1" stop-color="#e97826"/></linearGradient><linearGradient id="o" x1="20.777" x2="17.183" y1="32.066" y2="16.552" gradientUnits="userSpaceOnUse"><stop stop-color="#282662"/><stop offset=".095" stop-color="#662e8d"/><stop offset=".788" stop-color="#9f2064"/><stop offset=".949" stop-color="#cd2032"/></linearGradient><linearGradient id="p" x1="18.289" x2="12.252" y1="34.416" y2="8.385" gradientUnits="userSpaceOnUse"><stop offset=".323" stop-color="#9e2064"/><stop offset=".63" stop-color="#c92037"/><stop offset=".751" stop-color="#cd2335"/><stop offset="1" stop-color="#e97826"/></linearGradient><linearGradient id="q" x1="18.165" x2="14.991" y1="32.439" y2="18.759" gradientUnits="userSpaceOnUse"><stop stop-color="#282662"/><stop offset=".095" stop-color="#662e8d"/><stop offset=".788" stop-color="#9f2064"/><stop offset=".949" stop-color="#cd2032"/></linearGradient><linearGradient id="r" x1="21.039" x2="15.006" y1="33.78" y2="7.747" gradientUnits="userSpaceOnUse"><stop offset=".323" stop-color="#9e2064"/><stop offset=".63" stop-color="#c92037"/><stop offset=".751" stop-color="#cd2335"/><stop offset="1" stop-color="#e97826"/></linearGradient><linearGradient id="s" x1="21.318" x2="15.288" y1="35.423" y2="9.388" gradientUnits="userSpaceOnUse"><stop offset=".323" stop-color="#9e2064"/><stop offset=".63" stop-color="#c92037"/><stop offset=".751" stop-color="#cd2335"/><stop offset="1" stop-color="#e97826"/></linearGradient><linearGradient id="t" x1="21.87" x2="15.85" y1="33.591" y2="7.551" gradientUnits="userSpaceOnUse"><stop offset=".323" stop-color="#9e2064"/><stop offset=".63" stop-color="#c92037"/><stop offset=".751" stop-color="#cd2335"/><stop offset="1" stop-color="#e97826"/></linearGradient><linearGradient id="u" x1="21.786" x2="15.881" y1="33.45" y2="7.625" gradientUnits="userSpaceOnUse"><stop offset=".323" stop-color="#9e2064"/><stop offset=".63" stop-color="#c92037"/><stop offset=".751" stop-color="#cd2335"/><stop offset="1" stop-color="#e97826"/></linearGradient><linearGradient id="w" x1="150.501" x2="150.501" y1="9.501" y2="30.501" gradientUnits="userSpaceOnUse"><stop stop-color="#ffb054"/><stop offset="1" stop-color="#ce5ec3"/></linearGradient><filter id="c" width="39.202" height="39.954" x="2.4" y=".133" color-interpolation-filters="sRGB" filterUnits="userSpaceOnUse"><feFlood flood-opacity="0" result="BackgroundImageFix"/><feColorMatrix in="SourceAlpha" result="hardAlpha" values="0 0 0 0 0 0 0 0 0 0 0 0 0 0 0 0 0 0 127 0"/><feOffset/><feGaussianBlur stdDeviation="2.8"/><feComposite in2="hardAlpha" operator="out"/><feColorMatrix values="0 0 0 0 0 0 0 0 0 0 0 0 0 0 0 0 0 0 0.25 0"/><feBlend in2="BackgroundImageFix" result="effect1_dropShadow_3_717"/><feBlend in="SourceGraphic" in2="effect1_dropShadow_3_717" result="shape"/></filter><filter id="v" width="148.429" height="32.429" x="36.287" y="3.786" color-interpolation-filters="sRGB" filterUnits="userSpaceOnUse"><feFlood flood-opacity="0" result="BackgroundImageFix"/><feColorMatrix in="SourceAlpha" result="hardAlpha" values="0 0 0 0 0 0 0 0 0 0 0 0 0 0 0 0 0 0 127 0"/><feOffset/><feGaussianBlur stdDeviation="2.857"/><feComposite in2="hardAlpha" operator="out"/><feColorMatrix values="0 0 0 0 0 0 0 0 0 0 0 0 0 0 0 0 0 0 0.25 0"/><feBlend in2="BackgroundImageFix" result="effect1_dropShadow_3_717"/><feBlend in="SourceGraphic" in2="effect1_dropShadow_3_717" result="shape"/></filter><clipPath id="a"><rect width="187.001" height="40.001" fill="#fff" rx="8"/></clipPath></defs></svg>