<svg xmlns="http://www.w3.org/2000/svg" width="199" height="40" fill="none" viewBox="0 0 199 40"><rect width="199.001" height="40.001" fill="url(#a)" rx="8"/><rect width="196.858" height="37.858" x="1.071" y="1.071" stroke="#fff" stroke-opacity=".15" stroke-width="2.143" rx="6.929"/><g filter="url(#b)"><path fill="#31a4e7" fill-rule="evenodd" d="M21.226 7.027a1.6 1.6 0 0 0-.394.122c-.117.061-9.737 10.761-11.44 12.726-.237.273-.601.948-.805 1.493-1.133 3.025-.613 5.593 1.456 7.192.62.48.52.445 7.367 2.489 7.379 2.202 7 2.113 7.433 1.762.248-.201 10.815-12.97 10.932-13.21.14-.288.147-.6.019-.95-.188-.512-.201-1.295-.032-1.84.313-1.009-.094-1.73-.976-1.725-.918.004-1.555 1.428-1.347 3.01.037.277.07.568.074.645.008.152-9.578 11.836-9.715 11.841-.125.005-12.2-3.601-12.397-3.702-1.34-.687-1.683-3.794-.487-4.407.556-.285-.398-.522 9.831 2.438 2.966.858 2.993.86 3.577.228.801-.867 11.467-13.277 11.565-13.457.176-.319.146-.857-.064-1.161-.282-.408-.045-.344-7.31-1.973-7.628-1.71-6.978-1.575-7.287-1.521m4.34 5.4c4.993 1.231 4.642 1.036 3.762 2.093-.924 1.11-.507 1.119-5.568-.124-5.29-1.299-4.92-1.1-4.037-2.183.882-1.08.534-1.093 5.842.215" clip-rule="evenodd"/></g><g filter="url(#c)"><path fill="#e8e8e8" d="M43.36 26.5V14.138h4.528q1.315 0 2.179.435.863.429 1.292 1.165.428.73.428 1.648 0 .773-.283 1.304-.285.525-.761.845a3.4 3.4 0 0 1-1.038.459v.12q.615.03 1.2.4.592.361.979 1.031.386.67.386 1.63 0 .948-.447 1.703-.44.748-1.364 1.189-.923.435-2.36.435zm1.865-1.6h2.693q1.34 0 1.92-.518a1.67 1.67 0 0 0 .579-1.298q0-.585-.296-1.075a2.1 2.1 0 0 0-.845-.779q-.543-.29-1.292-.29h-2.759zm0-5.414h2.5q.627 0 1.128-.242.507-.24.803-.676.302-.441.302-1.038 0-.767-.537-1.286-.537-.52-1.648-.52h-2.548zm14.987 3.17v-5.428h1.81v9.273h-1.774v-1.606h-.096a2.9 2.9 0 0 1-1.027 1.237q-.7.49-1.745.49-.892 0-1.581-.393-.682-.399-1.075-1.177-.386-.78-.386-1.926v-5.898h1.805v5.68q0 .95.525 1.51.525.561 1.364.561.508 0 1.009-.253.506-.255.839-.767.338-.513.332-1.304m4.236 3.845v-9.273h1.805V26.5zm.912-10.704q-.471 0-.81-.314a1.02 1.02 0 0 1-.331-.76q0-.447.332-.761.338-.32.809-.32.47 0 .803.32a1 1 0 0 1 .338.76q0 .441-.338.761-.333.315-.803.314m5.127-1.66V26.5h-1.805V14.137zm6.757 3.091v1.449h-5.065v-1.449zm-3.707-2.222h1.805v8.772q0 .526.157.79.158.261.404.357.254.09.55.09.217 0 .38-.03l.254-.048.326 1.491q-.157.06-.447.121a3.5 3.5 0 0 1-.725.072 3.2 3.2 0 0 1-1.328-.253 2.3 2.3 0 0 1-.996-.821q-.38-.555-.38-1.395zM85.75 26.501l-2.73-9.273h1.866l1.817 6.81h.091l1.823-6.81h1.865l1.812 6.78h.09l1.805-6.78h1.866l-2.723 9.273h-1.841l-1.884-6.695h-.139L87.585 26.5zm12.018 0v-9.273h1.805v9.273zm.911-10.704q-.47 0-.809-.314a1.02 1.02 0 0 1-.332-.76q0-.447.332-.761.338-.32.81-.32.47 0 .802.32a1 1 0 0 1 .338.76q0 .441-.338.761-.332.315-.803.314m7.65 1.431v1.449h-5.065v-1.449zm-3.706-2.222h1.805v8.772q0 .526.157.79a.8.8 0 0 0 .404.357q.253.09.55.09.217 0 .38-.03l.254-.048.326 1.491q-.158.06-.447.121a3.5 3.5 0 0 1-.725.072 3.2 3.2 0 0 1-1.328-.253 2.3 2.3 0 0 1-.996-.821q-.38-.555-.38-1.395zm7.707 5.989v5.506h-1.805V14.137h1.781v4.6h.115q.325-.748.996-1.19.67-.44 1.751-.44.954 0 1.666.393.718.392 1.111 1.17.398.774.398 1.933V26.5h-1.805v-5.68q0-1.02-.525-1.582-.525-.567-1.461-.567-.64 0-1.147.271a1.96 1.96 0 0 0-.791.797q-.284.52-.284 1.256"/><path fill="#31a4e7" d="M122.937 14.137h3.701l3.139 7.655h.145l3.139-7.655h3.701v12.364h-2.91v-7.595h-.103l-2.97 7.516h-1.859l-2.97-7.558h-.103v7.637h-2.91zm18.351 9.93.012-3.519h.411l2.607-3.32h3.345l-3.876 4.757h-.779zm-2.662 2.434V14.137h2.952v12.364zm5.759 0-2.427-3.852 1.944-2.095 3.894 5.947zm8.904 0h-4.57V14.137h4.564q1.89 0 3.254.743a5.07 5.07 0 0 1 2.113 2.125q.743 1.382.743 3.308 0 1.932-.743 3.32a5.07 5.07 0 0 1-2.107 2.131q-1.37.737-3.254.737m-1.581-2.548h1.467q1.038 0 1.756-.35.725-.357 1.093-1.153.374-.803.374-2.137t-.374-2.125q-.374-.797-1.105-1.147-.724-.357-1.787-.356h-1.424zm13.758 2.723q-1.46 0-2.512-.598a4.1 4.1 0 0 1-1.611-1.678q-.562-1.08-.562-2.505 0-1.431.562-2.506.567-1.08 1.611-1.678 1.051-.603 2.512-.604 1.461 0 2.505.604 1.05.598 1.612 1.678.567 1.075.568 2.506 0 1.424-.568 2.505a4.07 4.07 0 0 1-1.612 1.678q-1.044.598-2.505.598m.018-2.228q.531 0 .899-.326.369-.326.562-.905.2-.58.199-1.34 0-.773-.199-1.353-.193-.58-.562-.905a1.3 1.3 0 0 0-.899-.326q-.549 0-.93.326-.374.326-.573.905-.193.58-.193 1.352 0 .762.193 1.34.2.58.573.906.381.326.93.326m10.507 2.228q-1.467 0-2.517-.604a4.1 4.1 0 0 1-1.606-1.678q-.561-1.08-.561-2.5 0-1.424.561-2.499a4.1 4.1 0 0 1 1.612-1.684q1.05-.603 2.505-.604 1.286 0 2.24.465a3.56 3.56 0 0 1 1.497 1.316q.543.846.574 1.986h-2.759q-.085-.712-.483-1.117-.393-.404-1.027-.404-.512 0-.899.29-.387.283-.604.845-.211.555-.211 1.376t.211 1.389q.217.561.604.851.387.285.899.284.411 0 .725-.175.32-.175.525-.513.205-.345.26-.834h2.759q-.043 1.147-.574 2.005a3.55 3.55 0 0 1-1.479 1.334q-.947.47-2.252.47m13.911-6.617-2.711.073a1 1 0 0 0-.229-.513 1.24 1.24 0 0 0-.489-.357 1.7 1.7 0 0 0-.688-.132q-.513 0-.876.205-.356.205-.35.555a.6.6 0 0 0 .217.471q.23.2.815.32l1.787.338q1.389.265 2.065.882.682.615.688 1.63-.006.953-.567 1.66-.555.706-1.522 1.098-.965.387-2.209.387-1.987 0-3.133-.815-1.142-.822-1.304-2.198l2.916-.072q.096.506.501.773.404.265 1.032.265.567 0 .924-.211.356-.21.362-.561a.6.6 0 0 0-.278-.502q-.272-.192-.851-.301l-1.618-.308q-1.395-.254-2.077-.936-.681-.688-.676-1.75-.006-.93.495-1.588.501-.664 1.425-1.015t2.179-.35q1.884 0 2.97.791 1.087.785 1.202 2.161"/></g><defs><filter id="b" width="39.202" height="39.202" x="2.4" y=".4" color-interpolation-filters="sRGB" filterUnits="userSpaceOnUse"><feFlood flood-opacity="0" result="BackgroundImageFix"/><feColorMatrix in="SourceAlpha" result="hardAlpha" values="0 0 0 0 0 0 0 0 0 0 0 0 0 0 0 0 0 0 127 0"/><feOffset/><feGaussianBlur stdDeviation="2.8"/><feComposite in2="hardAlpha" operator="out"/><feColorMatrix values="0 0 0 0 0 0 0 0 0 0 0 0 0 0 0 0 0 0 0.25 0"/><feBlend in2="BackgroundImageFix" result="effect1_dropShadow_40_504"/><feBlend in="SourceGraphic" in2="effect1_dropShadow_40_504" result="shape"/></filter><filter id="c" width="160.429" height="32.429" x="36.287" y="3.786" color-interpolation-filters="sRGB" filterUnits="userSpaceOnUse"><feFlood flood-opacity="0" result="BackgroundImageFix"/><feColorMatrix in="SourceAlpha" result="hardAlpha" values="0 0 0 0 0 0 0 0 0 0 0 0 0 0 0 0 0 0 127 0"/><feOffset/><feGaussianBlur stdDeviation="2.857"/><feComposite in2="hardAlpha" operator="out"/><feColorMatrix values="0 0 0 0 0 0 0 0 0 0 0 0 0 0 0 0 0 0 0.25 0"/><feBlend in2="BackgroundImageFix" result="effect1_dropShadow_40_504"/><feBlend in="SourceGraphic" in2="effect1_dropShadow_40_504" result="shape"/></filter><linearGradient id="a" x1="99.501" x2="99.501" y1="0" y2="40.001" gradientUnits="userSpaceOnUse"><stop stop-color="#142e3d"/><stop offset="0" stop-color="#112734"/><stop offset="1" stop-color="#04111a"/></linearGradient></defs></svg>