<svg xmlns="http://www.w3.org/2000/svg" width="235" height="40" fill="none" viewBox="0 0 235 40"><rect width="235.001" height="40.001" fill="url(#a)" rx="8"/><rect width="232.858" height="37.858" x="1.071" y="1.071" stroke="#fff" stroke-opacity=".15" stroke-width="2.143" rx="6.929"/><g filter="url(#b)"><path fill="#3655ff" d="M10.56 9.248A5.96 5.96 0 0 1 14.79 7.4h13.23c1.44 0 2.783.63 4.022 1.848a5.7 5.7 0 0 1 1.859 4.137v13.41c0 1.407-.588 2.709-1.764 3.916a6.06 6.06 0 0 1-4.274 1.89h-13a6.6 6.6 0 0 1-4.304-1.648c-1.134-1.03-1.754-2.52-1.859-4.515V13.417a5.47 5.47 0 0 1 1.859-4.169m6.562 8.716 8.327 10.563h2.226c.515-.063.924-.21 1.229-.451.315-.242.525-.588.672-1.05v-5.188c.084-.997.703-1.617 1.858-1.837q-1.732-.63-1.858-1.953V13.09c-.126-.462-.347-.84-.672-1.123a1.92 1.92 0 0 0-1.145-.494h-2.257v10.71l-8.38-10.72H14.78c-.588.105-1.019.315-1.313.63s-.483.819-.567 1.502v5.092c-.367.725-.945 1.155-1.732 1.313.892.168 1.47.64 1.732 1.428v5.009c.021.577.21 1.05.567 1.438.347.378.735.557 1.155.525H17.1z"/></g><g filter="url(#c)"><path fill="#e8e8e8" d="M43.36 26.5V14.138h4.528q1.315 0 2.179.435.863.429 1.292 1.165.428.73.428 1.648 0 .773-.283 1.304-.285.525-.761.845a3.4 3.4 0 0 1-1.038.459v.12q.615.03 1.2.4.592.361.979 1.031.386.67.386 1.63 0 .948-.447 1.703-.44.748-1.364 1.19-.923.434-2.36.434zm1.865-1.6h2.693q1.34 0 1.92-.518a1.67 1.67 0 0 0 .579-1.298q0-.585-.296-1.075a2.1 2.1 0 0 0-.845-.779q-.543-.29-1.292-.29h-2.759zm0-5.414h2.5q.627 0 1.128-.242.507-.24.803-.676.302-.441.302-1.038 0-.767-.537-1.286-.537-.52-1.648-.52h-2.548zm14.987 3.17v-5.428h1.81v9.273h-1.774v-1.606h-.096a2.9 2.9 0 0 1-1.027 1.238q-.7.489-1.745.489-.892 0-1.581-.393-.682-.399-1.075-1.177-.386-.78-.386-1.926v-5.898h1.805v5.68q0 .95.525 1.51.525.561 1.364.561.508 0 1.009-.253.506-.255.839-.767.338-.513.332-1.304m4.236 3.845v-9.273h1.805V26.5zm.912-10.704q-.471 0-.81-.314a1.02 1.02 0 0 1-.331-.76q0-.447.332-.761.338-.32.809-.32.47 0 .803.32a1 1 0 0 1 .338.76q0 .442-.338.761-.333.315-.803.314m5.127-1.66V26.5h-1.805V14.137zm6.757 3.091v1.449h-5.065v-1.449zm-3.707-2.222h1.805v8.772q0 .526.157.79.158.261.404.357.254.09.55.09.217 0 .38-.03l.254-.048.326 1.491a3 3 0 0 1-.447.121 3.5 3.5 0 0 1-.725.073 3.2 3.2 0 0 1-1.328-.254 2.3 2.3 0 0 1-.996-.821q-.38-.555-.38-1.395zM85.75 26.501l-2.73-9.273h1.866l1.817 6.81h.091l1.823-6.81h1.865l1.812 6.78h.09l1.805-6.78h1.866l-2.723 9.273h-1.841l-1.884-6.695h-.139L87.585 26.5zm12.018 0v-9.273h1.805v9.273zm.911-10.704q-.47 0-.809-.314a1.02 1.02 0 0 1-.332-.76q0-.447.332-.761.338-.32.81-.32.47 0 .802.32a1 1 0 0 1 .338.76q0 .442-.338.761-.332.315-.803.314m7.65 1.431v1.449h-5.065v-1.449zm-3.706-2.222h1.805v8.772q0 .526.157.79a.8.8 0 0 0 .404.357q.253.09.55.09.217 0 .38-.03l.254-.048.326 1.491a3 3 0 0 1-.447.121 3.5 3.5 0 0 1-.725.073 3.2 3.2 0 0 1-1.328-.254 2.3 2.3 0 0 1-.996-.821q-.38-.555-.38-1.395zm7.707 5.989v5.506h-1.805V14.137h1.781v4.6h.115q.325-.748.996-1.189.67-.44 1.751-.44.954 0 1.666.392.718.392 1.111 1.17.398.774.398 1.933V26.5h-1.805v-5.68q0-1.02-.525-1.582-.525-.567-1.461-.567-.64 0-1.147.271a1.96 1.96 0 0 0-.791.797q-.284.52-.284 1.256"/><path fill="#3655ff" d="M133.46 14.137v12.364h-2.536l-4.92-7.136h-.079v7.136h-2.988V14.137h2.572l4.866 7.124h.102v-7.124zm4.493 12.52q-.888 0-1.576-.295a2.46 2.46 0 0 1-1.081-.906q-.392-.609-.392-1.527 0-.773.272-1.304a2.3 2.3 0 0 1 .748-.863 3.5 3.5 0 0 1 1.099-.501 7 7 0 0 1 1.328-.236q.79-.072 1.274-.15.483-.086.7-.236a.51.51 0 0 0 .223-.44v-.031q0-.465-.32-.718-.32-.255-.863-.254-.585 0-.942.254a1.12 1.12 0 0 0-.452.7l-2.723-.097q.12-.844.622-1.509.507-.67 1.388-1.05.888-.387 2.131-.387.888 0 1.636.212a4 4 0 0 1 1.304.603q.556.393.858.966.307.574.307 1.31v6.303h-2.777v-1.292h-.072q-.247.471-.634.797-.38.325-.899.489a3.8 3.8 0 0 1-1.159.163m.911-1.931q.477 0 .857-.193.387-.194.616-.532.23-.344.23-.796v-.882a2 2 0 0 1-.308.12q-.175.055-.387.104-.211.048-.434.084l-.429.067a2.7 2.7 0 0 0-.712.205 1.1 1.1 0 0 0-.447.362.9.9 0 0 0-.151.52q0 .457.326.7.332.24.839.24m11.67-7.498v2.173h-5.85v-2.173zm-4.625-2.222h2.952v8.579q0 .272.085.44.09.165.259.236.17.066.405.066.169 0 .356-.03a6 6 0 0 0 .29-.06l.447 2.13q-.212.061-.598.152-.381.09-.912.115-1.038.048-1.781-.242a2.3 2.3 0 0 1-1.128-.918q-.387-.621-.375-1.563zm6.131 11.495v-9.273h2.952v9.273zm1.479-10.354q-.622 0-1.069-.41a1.32 1.32 0 0 1-.447-1.002q0-.58.447-.99a1.5 1.5 0 0 1 1.069-.417q.628 0 1.068.417.447.41.447.99 0 .585-.447 1.002a1.5 1.5 0 0 1-1.068.41m12.347 1.081-3.182 9.273h-3.38l-3.176-9.273h3.109l1.709 6.387h.096l1.715-6.387zm5.167 9.448q-1.455 0-2.511-.574a3.97 3.97 0 0 1-1.618-1.648q-.561-1.074-.561-2.553 0-1.437.567-2.512.568-1.08 1.6-1.678 1.032-.604 2.433-.604.99 0 1.811.308.82.308 1.419.912.597.604.929 1.49.333.883.332 2.023v.737h-8.059v-1.715h5.313a1.66 1.66 0 0 0-.224-.839 1.5 1.5 0 0 0-.597-.573 1.73 1.73 0 0 0-.864-.212q-.495 0-.887.224a1.68 1.68 0 0 0-.863 1.449v1.744q0 .567.223.996.223.423.634.658.41.236.978.236.392 0 .712-.109.32-.108.549-.32.23-.21.345-.519l2.71.078a3.36 3.36 0 0 1-.742 1.588q-.568.67-1.492 1.044-.923.369-2.137.369m12.592-8.832q-.06-.664-.537-1.033-.471-.374-1.347-.374-.58 0-.965.151-.387.15-.58.417a1 1 0 0 0-.199.597.9.9 0 0 0 .108.49q.127.21.363.374.242.157.579.277.338.12.761.212l1.062.241q.918.2 1.618.531.707.333 1.183.791.483.459.731 1.057.247.597.253 1.34-.006 1.17-.591 2.01-.586.84-1.684 1.286-1.093.447-2.639.447-1.55 0-2.704-.465-1.153-.464-1.793-1.413-.64-.948-.658-2.396h2.861q.037.597.32.996.284.398.779.603a3 3 0 0 0 1.159.206q.605 0 1.026-.163.43-.164.658-.453a1.07 1.07 0 0 0 .236-.664.92.92 0 0 0-.217-.598q-.212-.253-.652-.435-.435-.186-1.111-.344l-1.292-.302q-1.606-.367-2.53-1.189-.923-.827-.917-2.233-.006-1.148.616-2.01.622-.864 1.72-1.347 1.1-.483 2.505-.483 1.437 0 2.494.49 1.062.482 1.648 1.357.585.876.597 2.029zm8.868 8.832q-1.467 0-2.517-.604a4.1 4.1 0 0 1-1.606-1.678q-.561-1.08-.561-2.5 0-1.424.561-2.499a4.1 4.1 0 0 1 1.612-1.684q1.05-.604 2.505-.604 1.286 0 2.24.465.96.465 1.497 1.316.543.846.574 1.986h-2.759q-.085-.713-.483-1.116-.393-.405-1.027-.405-.513 0-.899.29-.387.283-.604.845-.211.555-.211 1.376t.211 1.389q.217.561.604.851.386.285.899.284.411 0 .725-.175.32-.175.525-.513.205-.345.26-.834h2.759q-.043 1.147-.574 2.005a3.55 3.55 0 0 1-1.479 1.334q-.948.47-2.252.47m5.815-.175v-9.273h2.868v1.69h.096q.254-.917.827-1.364a2.1 2.1 0 0 1 1.335-.453q.204 0 .422.03.218.025.405.079v2.566a3 3 0 0 0-.556-.115 5 5 0 0 0-.603-.042q-.526 0-.948.235a1.7 1.7 0 0 0-.658.646 1.9 1.9 0 0 0-.236.966V26.5zm7.156 0v-9.273h2.952V26.5zm1.479-10.354q-.622 0-1.069-.41a1.32 1.32 0 0 1-.447-1.002q0-.58.447-.99a1.5 1.5 0 0 1 1.069-.417q.627 0 1.068.417.447.41.447.99 0 .585-.447 1.002a1.5 1.5 0 0 1-1.068.41m3.352 13.831v-12.75h2.921v1.588h.091q.181-.423.513-.815.338-.393.857-.64.526-.255 1.256-.254.966 0 1.805.507.846.508 1.364 1.564.52 1.056.52 2.692 0 1.575-.501 2.639-.495 1.063-1.341 1.593a3.4 3.4 0 0 1-1.865.532q-.7 0-1.213-.23a2.6 2.6 0 0 1-.864-.604 2.9 2.9 0 0 1-.531-.803h-.06v4.981zm2.891-8.114q0 .75.199 1.304.206.555.586.864.387.301.924.302.543 0 .923-.302.38-.308.574-.864.2-.555.199-1.304 0-.748-.199-1.298-.193-.55-.574-.85-.374-.303-.923-.303-.543 0-.924.296-.38.297-.586.845-.198.55-.199 1.31m13.217-4.636V19.4h-5.85v-2.173zm-4.625-2.222h2.952v8.579q0 .272.085.44.09.165.259.236.17.066.405.066.169 0 .356-.03.194-.036.29-.06l.447 2.13q-.211.061-.598.152a5 5 0 0 1-.912.115q-1.038.048-1.78-.242a2.3 2.3 0 0 1-1.129-.918q-.387-.621-.375-1.563z"/></g><defs><filter id="b" width="39.202" height="39.202" x="2.4" y=".4" color-interpolation-filters="sRGB" filterUnits="userSpaceOnUse"><feFlood flood-opacity="0" result="BackgroundImageFix"/><feColorMatrix in="SourceAlpha" result="hardAlpha" values="0 0 0 0 0 0 0 0 0 0 0 0 0 0 0 0 0 0 127 0"/><feOffset/><feGaussianBlur stdDeviation="2.8"/><feComposite in2="hardAlpha" operator="out"/><feColorMatrix values="0 0 0 0 0 0 0 0 0 0 0 0 0 0 0 0 0 0 0.25 0"/><feBlend in2="BackgroundImageFix" result="effect1_dropShadow_2_1087"/><feBlend in="SourceGraphic" in2="effect1_dropShadow_2_1087" result="shape"/></filter><filter id="c" width="196.429" height="32.429" x="36.287" y="3.786" color-interpolation-filters="sRGB" filterUnits="userSpaceOnUse"><feFlood flood-opacity="0" result="BackgroundImageFix"/><feColorMatrix in="SourceAlpha" result="hardAlpha" values="0 0 0 0 0 0 0 0 0 0 0 0 0 0 0 0 0 0 127 0"/><feOffset/><feGaussianBlur stdDeviation="2.857"/><feComposite in2="hardAlpha" operator="out"/><feColorMatrix values="0 0 0 0 0 0 0 0 0 0 0 0 0 0 0 0 0 0 0.25 0"/><feBlend in2="BackgroundImageFix" result="effect1_dropShadow_2_1087"/><feBlend in="SourceGraphic" in2="effect1_dropShadow_2_1087" result="shape"/></filter><linearGradient id="a" x1="117.501" x2="117.501" y1="0" y2="40.001" gradientUnits="userSpaceOnUse"><stop stop-color="#0d1439"/><stop offset="1" stop-color="#060b24"/></linearGradient></defs></svg>