<svg xmlns="http://www.w3.org/2000/svg" width="170" height="40" fill="none" viewBox="0 0 170 40"><g clip-path="url(#a)"><rect width="170.001" height="40.001" fill="url(#b)" rx="8"/><g filter="url(#c)"><path fill="#fff" d="M20.803 6c-.206 0-.362.002-.419.008-.06.006-.252.024-.424.038-3.977.359-7.702 2.504-10.062 5.802a13.86 13.86 0 0 0-2.471 6.117c-.112.769-.126.996-.126 2.038 0 1.043.014 1.27.126 2.04.76 5.257 4.502 9.674 9.577 11.31.909.293 1.867.493 2.956.613.424.047 2.258.047 2.683 0 1.88-.208 3.473-.673 5.044-1.475.241-.123.288-.156.255-.183a262 262 0 0 1-2.28-3.057l-2.24-3.024-2.805-4.152c-1.544-2.282-2.814-4.149-2.825-4.149-.01-.003-.021 1.842-.027 4.094-.008 3.944-.01 4.103-.06 4.196a.5.5 0 0 1-.241.249c-.087.044-.164.052-.578.052h-.473l-.126-.08a.5.5 0 0 1-.183-.2l-.058-.122.006-5.487.008-5.49.085-.107a.8.8 0 0 1 .202-.167c.112-.055.156-.06.63-.06.558 0 .651.021.796.18.042.044 1.56 2.332 3.378 5.088q2.76 4.184 5.524 8.366l2.217 3.358.112-.074A14.4 14.4 0 0 0 31.88 29.2a13.94 13.94 0 0 0 3.295-7.157c.112-.769.126-.996.126-2.039 0-1.042-.014-1.27-.126-2.038-.76-5.258-4.502-9.675-9.577-11.311-.895-.29-1.848-.49-2.915-.61C22.487 6.022 21.42 6 20.803 6m4.746 8.42c.406 0 .477.006.567.055a.55.55 0 0 1 .277.323c.021.071.027 1.593.021 5.022l-.008 4.92-.867-1.33-.87-1.33v-3.577c0-2.312.01-3.612.027-3.675a.56.56 0 0 1 .27-.345c.113-.058.154-.063.584-.063"/></g><g filter="url(#d)"><path fill="#e8e8e8" d="M43.36 26.5V14.138h4.528q1.315 0 2.179.435.863.429 1.292 1.165.428.73.428 1.648 0 .773-.283 1.304-.285.525-.761.845a3.4 3.4 0 0 1-1.038.459v.12q.615.03 1.2.4.592.361.979 1.031.386.67.386 1.63 0 .948-.447 1.703-.44.748-1.364 1.19-.923.434-2.36.434zm1.865-1.6h2.693q1.34 0 1.92-.518a1.67 1.67 0 0 0 .579-1.298q0-.585-.296-1.075a2.1 2.1 0 0 0-.845-.779q-.543-.29-1.292-.29h-2.759zm0-5.414h2.5q.627 0 1.128-.242.507-.24.803-.676.302-.441.302-1.038 0-.767-.537-1.286-.537-.52-1.648-.52h-2.548zm14.987 3.17v-5.428h1.81v9.273h-1.774v-1.606h-.096a2.9 2.9 0 0 1-1.027 1.238q-.7.489-1.745.489-.892 0-1.581-.393-.682-.399-1.075-1.177-.386-.78-.386-1.926v-5.898h1.805v5.68q0 .95.525 1.51.525.561 1.364.561.508 0 1.009-.253.506-.255.839-.767.338-.513.332-1.304m4.236 3.845v-9.273h1.805V26.5zm.912-10.704q-.471 0-.81-.314a1.02 1.02 0 0 1-.331-.76q0-.447.332-.761.338-.32.809-.32.47 0 .803.32a1 1 0 0 1 .338.76q0 .442-.338.761-.333.315-.803.314m5.127-1.66V26.5h-1.805V14.137zm6.757 3.091v1.449h-5.065v-1.449zm-3.707-2.222h1.805v8.772q0 .526.157.79.158.261.404.357.254.09.55.09.217 0 .38-.03l.254-.048.326 1.491a3 3 0 0 1-.447.121 3.5 3.5 0 0 1-.725.073 3.2 3.2 0 0 1-1.328-.254 2.3 2.3 0 0 1-.996-.821q-.38-.555-.38-1.395zM85.75 26.501l-2.73-9.273h1.866l1.817 6.81h.091l1.823-6.81h1.865l1.812 6.78h.09l1.805-6.78h1.866l-2.723 9.273h-1.841l-1.884-6.695h-.139L87.585 26.5zm12.018 0v-9.273h1.805v9.273zm.911-10.704q-.47 0-.809-.314a1.02 1.02 0 0 1-.332-.76q0-.447.332-.761.338-.32.81-.32.47 0 .802.32a1 1 0 0 1 .338.76q0 .442-.338.761-.332.315-.803.314m7.65 1.431v1.449h-5.065v-1.449zm-3.706-2.222h1.805v8.772q0 .526.157.79a.8.8 0 0 0 .404.357q.253.09.55.09.217 0 .38-.03l.254-.048.326 1.491a3 3 0 0 1-.447.121 3.5 3.5 0 0 1-.725.073 3.2 3.2 0 0 1-1.328-.254 2.3 2.3 0 0 1-.996-.821q-.38-.555-.38-1.395zm7.707 5.989v5.506h-1.805V14.137h1.781v4.6h.115q.325-.748.996-1.189.67-.44 1.751-.44.954 0 1.666.392.718.392 1.111 1.17.398.774.398 1.933V26.5h-1.805v-5.68q0-1.02-.525-1.582-.525-.567-1.461-.567-.64 0-1.147.271a1.96 1.96 0 0 0-.791.797q-.284.52-.284 1.256"/><path fill="#fff" d="M133.46 14.137v12.364h-2.536l-4.92-7.136h-.079v7.136h-2.988V14.137h2.572l4.866 7.124h.102v-7.124zm6.213 12.539q-1.455 0-2.511-.574a3.96 3.96 0 0 1-1.618-1.648q-.561-1.074-.562-2.553 0-1.437.568-2.512a4.1 4.1 0 0 1 1.6-1.678q1.032-.604 2.433-.604.99 0 1.811.308a3.9 3.9 0 0 1 1.418.912q.599.604.93 1.49.332.883.332 2.023v.737h-8.059v-1.715h5.312a1.66 1.66 0 0 0-.223-.839 1.5 1.5 0 0 0-.598-.573 1.7 1.7 0 0 0-.863-.212q-.495 0-.888.224a1.68 1.68 0 0 0-.863 1.449v1.744q0 .567.224.996.223.423.633.658t.978.236q.393 0 .713-.109.32-.108.549-.32.23-.21.344-.519l2.711.078a3.35 3.35 0 0 1-.743 1.588q-.567.67-1.491 1.044-.924.369-2.137.369m8.287-9.448 1.528 3.055 1.581-3.055h2.976l-2.589 4.636 2.686 4.637h-2.952l-1.702-3.08-1.661 3.08h-2.994l2.693-4.637-2.56-4.636zm12.667 0v2.173h-5.85v-2.173zm-4.624-2.222h2.952v8.579q0 .272.085.44.09.165.259.236.17.066.405.066.168 0 .356-.03a6 6 0 0 0 .29-.06l.446 2.13q-.212.061-.597.152-.381.09-.912.115-1.038.048-1.781-.242a2.3 2.3 0 0 1-1.129-.918q-.386-.621-.374-1.563z"/></g></g><rect width="167.859" height="37.858" x="1.071" y="1.071" stroke="#fff" stroke-opacity=".15" stroke-width="2.143" rx="6.929"/><defs><filter id="c" width="39.901" height="39.202" x="1.7" y=".4" color-interpolation-filters="sRGB" filterUnits="userSpaceOnUse"><feFlood flood-opacity="0" result="BackgroundImageFix"/><feColorMatrix in="SourceAlpha" result="hardAlpha" values="0 0 0 0 0 0 0 0 0 0 0 0 0 0 0 0 0 0 127 0"/><feOffset/><feGaussianBlur stdDeviation="2.8"/><feComposite in2="hardAlpha" operator="out"/><feColorMatrix values="0 0 0 0 0 0 0 0 0 0 0 0 0 0 0 0 0 0 0.25 0"/><feBlend in2="BackgroundImageFix" result="effect1_dropShadow_2_1161"/><feBlend in="SourceGraphic" in2="effect1_dropShadow_2_1161" result="shape"/></filter><filter id="d" width="131.429" height="32.429" x="36.287" y="3.786" color-interpolation-filters="sRGB" filterUnits="userSpaceOnUse"><feFlood flood-opacity="0" result="BackgroundImageFix"/><feColorMatrix in="SourceAlpha" result="hardAlpha" values="0 0 0 0 0 0 0 0 0 0 0 0 0 0 0 0 0 0 127 0"/><feOffset/><feGaussianBlur stdDeviation="2.857"/><feComposite in2="hardAlpha" operator="out"/><feColorMatrix values="0 0 0 0 0 0 0 0 0 0 0 0 0 0 0 0 0 0 0.25 0"/><feBlend in2="BackgroundImageFix" result="effect1_dropShadow_2_1161"/><feBlend in="SourceGraphic" in2="effect1_dropShadow_2_1161" result="shape"/></filter><linearGradient id="b" x1="85.001" x2="85.001" y1="0" y2="40.001" gradientUnits="userSpaceOnUse"><stop stop-color="#1e1e1e"/><stop offset="1" stop-color="#0d0d0d"/></linearGradient><clipPath id="a"><rect width="170.001" height="40.001" fill="#fff" rx="8"/></clipPath></defs></svg>