<svg xmlns="http://www.w3.org/2000/svg" width="191" height="40" fill="none" viewBox="0 0 191 40"><g clip-path="url(#a)"><rect width="191" height="40" fill="url(#b)" rx="8"/><g filter="url(#c)"><path fill="url(#d)" d="M21.833 6a19.5 19.5 0 0 0-3.227.273c-2.858.5-3.377 1.544-3.377 3.472v2.546h6.754v.848h-9.288c-1.963 0-3.682 1.167-4.22 3.387-.62 2.545-.647 4.132 0 6.79.48 1.977 1.627 3.386 3.59 3.386h2.322V23.65c0-2.205 1.929-4.15 4.219-4.15h6.746a3.383 3.383 0 0 0 3.377-3.394V9.745c0-1.81-1.544-3.17-3.377-3.472A21.3 21.3 0 0 0 21.833 6m-3.652 2.048c.697 0 1.267.572 1.267 1.277a1.267 1.267 0 1 1-2.535 0c0-.705.568-1.277 1.268-1.277"/><path fill="url(#e)" d="M29.571 13.14v2.966c0 2.3-1.971 4.235-4.22 4.235h-6.745c-1.848 0-3.377 1.564-3.377 3.394v6.361c0 1.81 1.592 2.875 3.377 3.395 2.138.621 4.188.734 6.746 0 1.7-.487 3.377-1.467 3.377-3.395V27.55h-6.746v-.848h10.123c1.962 0 2.694-1.354 3.377-3.387.705-2.092.675-4.105 0-6.789-.486-1.932-1.412-3.386-3.377-3.386zm-3.794 16.108c.7 0 1.267.567 1.267 1.269 0 .704-.567 1.277-1.267 1.277a1.274 1.274 0 0 1-1.267-1.277c0-.702.57-1.27 1.267-1.27"/></g><g filter="url(#f)"><path fill="#e8e8e8" d="M43.358 26.5V14.136h4.528q1.316 0 2.18.435.862.429 1.291 1.165.429.731.429 1.648 0 .773-.284 1.304-.284.525-.76.845-.47.315-1.039.46v.12q.615.03 1.201.398.592.363.978 1.033.387.67.387 1.63 0 .947-.447 1.702-.44.749-1.364 1.19-.924.434-2.36.434zm1.866-1.6h2.692q1.341 0 1.92-.519a1.67 1.67 0 0 0 .58-1.298q-.001-.585-.296-1.074a2.1 2.1 0 0 0-.845-.78q-.544-.288-1.292-.289h-2.76zm0-5.415h2.499q.628 0 1.129-.241.507-.242.803-.677.302-.44.302-1.038 0-.767-.538-1.286-.537-.519-1.648-.519h-2.547zm14.986 3.17v-5.428h1.812V26.5h-1.775v-1.606h-.097a2.9 2.9 0 0 1-1.026 1.238q-.7.489-1.745.489-.894 0-1.582-.393-.682-.398-1.074-1.177-.387-.779-.386-1.926v-5.898h1.804v5.681q0 .948.526 1.51.525.56 1.364.56.507 0 1.008-.253.507-.254.84-.767.337-.513.331-1.303m4.237 3.845v-9.273h1.805V26.5zm.911-10.703q-.47 0-.809-.314a1.02 1.02 0 0 1-.332-.761q0-.447.332-.76.338-.32.81-.32.47 0 .802.32a1 1 0 0 1 .338.76q0 .44-.338.76-.332.315-.803.315m5.127-1.66V26.5H68.68V14.136zm6.757 3.09v1.45h-5.065v-1.45zm-3.707-2.221h1.806v8.771q0 .525.156.791a.82.82 0 0 0 .405.356q.253.09.55.09.216 0 .38-.03l.253-.048.326 1.492q-.157.06-.447.12a3.5 3.5 0 0 1-.724.073 3.2 3.2 0 0 1-1.328-.254 2.3 2.3 0 0 1-.996-.82q-.38-.556-.38-1.395zM85.748 26.5l-2.729-9.273h1.866l1.817 6.81h.09l1.824-6.81h1.865l1.811 6.78h.09l1.806-6.78h1.865L93.331 26.5h-1.842l-1.883-6.695h-.14L87.584 26.5zm12.018 0v-9.273h1.805V26.5zm.912-10.703q-.471 0-.81-.314a1.02 1.02 0 0 1-.331-.761q0-.447.332-.76.338-.32.809-.32.47 0 .803.32a1 1 0 0 1 .338.76q0 .44-.338.76-.333.315-.803.315m7.65 1.43v1.45h-5.065v-1.45zm-3.707-2.221h1.805v8.771q0 .525.157.791.157.26.405.356.254.09.549.09.218 0 .381-.03l.253-.048.326 1.492q-.157.06-.447.12a3.5 3.5 0 0 1-.724.073 3.2 3.2 0 0 1-1.328-.254 2.27 2.27 0 0 1-.996-.82q-.381-.556-.381-1.395zm7.708 5.988V26.5h-1.805V14.136h1.781v4.6h.115q.326-.748.996-1.189.67-.44 1.75-.44.954 0 1.667.392.718.393 1.11 1.171.399.773.399 1.932V26.5h-1.805v-5.68q0-1.02-.525-1.582-.526-.568-1.461-.568-.64 0-1.147.272a1.96 1.96 0 0 0-.791.797q-.284.519-.284 1.255"/><path fill="#fff" d="M122.936 26V13.636h5.107q1.389 0 2.397.544 1.014.537 1.563 1.503.55.96.55 2.233 0 1.28-.562 2.24a3.76 3.76 0 0 1-1.588 1.48q-1.032.525-2.451.524h-3.151v-2.354h2.596q.676 0 1.129-.235.459-.236.694-.658.236-.429.236-.997 0-.573-.236-.99a1.6 1.6 0 0 0-.694-.651q-.459-.23-1.129-.23h-1.473V26zm12.895 3.477q-.532 0-1.003-.084a4 4 0 0 1-.808-.212l.652-2.143q.434.145.784.17.357.023.61-.115.26-.134.398-.477l.115-.278-3.296-9.61h3.091l1.708 6.616h.097l1.733-6.617h3.109l-3.496 10.16a4.3 4.3 0 0 1-.718 1.34 3.1 3.1 0 0 1-1.189.918q-.725.333-1.787.332m13.556-12.75v2.174h-5.85v-2.174zm-4.625-2.221h2.952v8.578q0 .272.085.44.09.165.259.236.17.067.405.067.169 0 .356-.03.193-.038.29-.06l.447 2.13q-.212.06-.598.151a5 5 0 0 1-.912.115q-1.038.048-1.781-.242a2.3 2.3 0 0 1-1.128-.917q-.387-.622-.375-1.564zm9.282 6.206V26h-2.952V13.636h2.855v4.794h.103a2.7 2.7 0 0 1 1.026-1.34q.719-.484 1.757-.483.978 0 1.703.434a2.9 2.9 0 0 1 1.122 1.214q.405.785.399 1.835V26h-2.952v-5.33q.006-.774-.387-1.208-.391-.435-1.104-.435-.465 0-.821.206a1.4 1.4 0 0 0-.55.573q-.193.375-.199.906m12.184 5.463q-1.461 0-2.511-.598a4.1 4.1 0 0 1-1.612-1.678q-.562-1.08-.562-2.505 0-1.432.562-2.505a4.07 4.07 0 0 1 1.612-1.679q1.05-.604 2.511-.604t2.505.604a4 4 0 0 1 1.612 1.678q.568 1.075.568 2.506 0 1.425-.568 2.505a4.07 4.07 0 0 1-1.612 1.678q-1.044.598-2.505.598m.018-2.228q.531 0 .9-.326.368-.326.561-.905.2-.58.199-1.34 0-.773-.199-1.353-.193-.58-.561-.905a1.3 1.3 0 0 0-.9-.326q-.549 0-.93.326-.374.326-.573.905-.193.58-.193 1.353 0 .76.193 1.34.2.58.573.905.381.327.93.326m9.131-3.235V26h-2.952v-9.273h2.807v1.703h.103a2.6 2.6 0 0 1 1.05-1.334q.743-.49 1.769-.49.978 0 1.696.441.725.435 1.123 1.22.405.779.399 1.823V26h-2.952v-5.33q.006-.774-.393-1.208-.392-.435-1.092-.435-.465 0-.821.206a1.36 1.36 0 0 0-.544.573q-.187.375-.193.906"/></g></g><rect width="188.9" height="37.9" x="1.05" y="1.05" stroke="#fff" stroke-opacity=".15" stroke-width="2.1" rx="6.95"/><defs><linearGradient id="b" x1="30.507" x2="110.32" y1="0" y2="85.564" gradientUnits="userSpaceOnUse"><stop stop-color="#152b3e"/><stop offset="1" stop-color="#282208"/></linearGradient><linearGradient id="d" x1="8" x2="23.429" y1="6" y2="19.293" gradientUnits="userSpaceOnUse"><stop stop-color="#5a9fd4"/><stop offset="1" stop-color="#306998"/></linearGradient><linearGradient id="e" x1="25.615" x2="20.109" y1="30.303" y2="22.502" gradientUnits="userSpaceOnUse"><stop stop-color="#ffd43b"/><stop offset="1" stop-color="#ffe873"/></linearGradient><filter id="c" width="39.429" height="39.429" x="2.286" y=".286" color-interpolation-filters="sRGB" filterUnits="userSpaceOnUse"><feFlood flood-opacity="0" result="BackgroundImageFix"/><feColorMatrix in="SourceAlpha" result="hardAlpha" values="0 0 0 0 0 0 0 0 0 0 0 0 0 0 0 0 0 0 127 0"/><feOffset/><feGaussianBlur stdDeviation="2.857"/><feComposite in2="hardAlpha" operator="out"/><feColorMatrix values="0 0 0 0 0 0 0 0 0 0 0 0 0 0 0 0 0 0 0.25 0"/><feBlend in2="BackgroundImageFix" result="effect1_dropShadow_2_3701"/><feBlend in="SourceGraphic" in2="effect1_dropShadow_2_3701" result="shape"/></filter><filter id="f" width="152.2" height="32.2" x="36.4" y="3.9" color-interpolation-filters="sRGB" filterUnits="userSpaceOnUse"><feFlood flood-opacity="0" result="BackgroundImageFix"/><feColorMatrix in="SourceAlpha" result="hardAlpha" values="0 0 0 0 0 0 0 0 0 0 0 0 0 0 0 0 0 0 127 0"/><feOffset/><feGaussianBlur stdDeviation="2.8"/><feComposite in2="hardAlpha" operator="out"/><feColorMatrix values="0 0 0 0 0 0 0 0 0 0 0 0 0 0 0 0 0 0 0.25 0"/><feBlend in2="BackgroundImageFix" result="effect1_dropShadow_2_3701"/><feBlend in="SourceGraphic" in2="effect1_dropShadow_2_3701" result="shape"/></filter><clipPath id="a"><rect width="191" height="40" fill="#fff" rx="8"/></clipPath></defs></svg>