<svg xmlns="http://www.w3.org/2000/svg" width="179" height="40" fill="none" viewBox="0 0 179 40"><rect width="179.001" height="40.001" fill="url(#a)" rx="8"/><rect width="176.859" height="37.858" x="1.071" y="1.071" stroke="#fff" stroke-opacity=".15" stroke-width="2.143" rx="6.929"/><g filter="url(#b)"><path fill="#61dafb" d="M25.303 20.004a2.65 2.65 0 0 1-.764 1.863 2.6 2.6 0 0 1-1.844.773 2.6 2.6 0 0 1-1.844-.772 2.65 2.65 0 0 1-.764-1.864c0-.7.274-1.37.763-1.864a2.6 2.6 0 0 1 1.844-.772c.692 0 1.356.277 1.845.772a2.65 2.65 0 0 1 .764 1.864M28.393 7.4c-1.57 0-3.625 1.132-5.703 3.092-2.077-1.95-4.133-3.068-5.702-3.068-.478 0-.914.11-1.29.328-1.605.935-1.964 3.848-1.136 7.504-3.551 1.108-5.861 2.88-5.861 4.748 0 1.874 2.322 3.651 5.884 4.751-.822 3.67-.456 6.589 1.152 7.522.374.22.805.325 1.286.325 1.57 0 3.625-1.132 5.703-3.094 2.077 1.95 4.132 3.069 5.702 3.069a2.54 2.54 0 0 0 1.29-.325c1.603-.933 1.964-3.847 1.135-7.504 3.539-1.099 5.85-2.874 5.85-4.744 0-1.875-2.323-3.652-5.885-4.754.822-3.667.455-6.587-1.152-7.522a2.5 2.5 0 0 0-1.274-.328m-.006 1.285v.007c.262 0 .473.052.65.15.778.45 1.115 2.164.853 4.367a18 18 0 0 1-.292 1.698 27 27 0 0 0-3.625-.63 28 28 0 0 0-2.374-2.885c1.857-1.745 3.601-2.702 4.789-2.705zm-11.4.024c1.182 0 2.934.953 4.796 2.688-.8.849-1.598 1.812-2.357 2.88a26 26 0 0 0-3.632.634 18 18 0 0 1-.296-1.675c-.268-2.202.063-3.914.833-4.37.222-.106.467-.15.657-.156zm5.697 3.596c.53.552 1.062 1.17 1.587 1.844a34 34 0 0 0-1.57-.04q-.806-.001-1.586.04a22 22 0 0 1 1.569-1.845M22.7 15.4c.864 0 1.724.04 2.57.11a31 31 0 0 1 2.567 4.487 32 32 0 0 1-1.181 2.299 30 30 0 0 1-1.377 2.205q-1.275.113-2.579.115a32 32 0 0 1-2.569-.11 32 32 0 0 1-1.38-2.192 30 30 0 0 1-1.188-2.295 30 30 0 0 1 1.182-2.303c.444-.779.902-1.517 1.377-2.203q1.276-.114 2.578-.115zm-4.24.3c-.28.444-.56.9-.822 1.367q-.392.69-.74 1.384a25 25 0 0 1-.79-2.295 28 28 0 0 1 2.351-.455zm8.47 0q1.216.178 2.34.456c-.21.745-.472 1.511-.77 2.279a31 31 0 0 0-1.57-2.735m3.573.795q.849.266 1.605.587c2.02.873 3.327 2.014 3.327 2.92-.006.905-1.312 2.051-3.333 2.918-.49.212-1.027.403-1.581.581a28 28 0 0 0-1.283-3.514c.525-1.198.945-2.37 1.265-3.494zm-15.628.005a28 28 0 0 0 1.284 3.514 27.5 27.5 0 0 0-1.267 3.494 16 16 0 0 1-1.599-.59c-2.02-.868-3.327-2.01-3.327-2.916s1.306-2.054 3.327-2.92a18 18 0 0 1 1.582-.582M28.5 21.546c.31.775.572 1.547.789 2.297-.747.185-1.535.342-2.352.46a31 31 0 0 0 1.564-2.757m-11.603.024c.233.462.479.923.747 1.385q.402.69.822 1.348-1.216-.18-2.34-.455c.21-.743.474-1.512.77-2.28zm12.71 3.521c.131.582.234 1.142.297 1.678.268 2.203-.063 3.915-.833 4.372-.172.106-.395.15-.657.15-1.18 0-2.933-.95-4.795-2.687.8-.85 1.598-1.811 2.356-2.877a26.5 26.5 0 0 0 3.632-.637zm-13.802.012c1.12.276 2.34.49 3.625.628a28 28 0 0 0 2.374 2.883c-1.86 1.749-3.607 2.706-4.795 2.706a1.4 1.4 0 0 1-.645-.155c-.777-.448-1.114-2.163-.852-4.366a18 18 0 0 1 .292-1.696zm5.32.755a35 35 0 0 0 1.57.04q.806.001 1.586-.04a23 23 0 0 1-1.569 1.845 24 24 0 0 1-1.587-1.845"/></g><g filter="url(#c)"><path fill="#e8e8e8" d="M43.36 26.5V14.138h4.528q1.315 0 2.179.435.863.429 1.292 1.165.428.73.428 1.648 0 .773-.283 1.304-.285.525-.761.845a3.4 3.4 0 0 1-1.038.459v.12q.615.03 1.2.4.592.361.979 1.031.386.67.386 1.63 0 .948-.447 1.703-.44.748-1.364 1.19-.923.434-2.36.434zm1.865-1.6h2.693q1.34 0 1.92-.518a1.67 1.67 0 0 0 .579-1.298q0-.585-.296-1.075a2.1 2.1 0 0 0-.845-.779q-.543-.29-1.292-.29h-2.759zm0-5.414h2.5q.627 0 1.128-.242.507-.24.803-.676.302-.441.302-1.038 0-.767-.537-1.286-.537-.52-1.648-.52h-2.548zm14.987 3.17v-5.428h1.81v9.273h-1.774v-1.606h-.096a2.9 2.9 0 0 1-1.027 1.238q-.7.489-1.745.489-.892 0-1.581-.393-.682-.399-1.075-1.177-.386-.78-.386-1.926v-5.898h1.805v5.68q0 .95.525 1.51.525.561 1.364.561.508 0 1.009-.253.506-.255.839-.767.338-.513.332-1.304m4.236 3.845v-9.273h1.805V26.5zm.912-10.704q-.471 0-.81-.314a1.02 1.02 0 0 1-.331-.76q0-.447.332-.761.338-.32.809-.32.47 0 .803.32a1 1 0 0 1 .338.76q0 .442-.338.761-.333.315-.803.314m5.127-1.66V26.5h-1.805V14.137zm6.757 3.091v1.449h-5.065v-1.449zm-3.707-2.222h1.805v8.772q0 .526.157.79.158.261.404.357.254.09.55.09.217 0 .38-.03l.254-.048.326 1.491a3 3 0 0 1-.447.121 3.5 3.5 0 0 1-.725.073 3.2 3.2 0 0 1-1.328-.254 2.3 2.3 0 0 1-.996-.821q-.38-.555-.38-1.395zM85.75 26.501l-2.73-9.273h1.866l1.817 6.81h.091l1.823-6.81h1.865l1.812 6.78h.09l1.805-6.78h1.866l-2.723 9.273h-1.841l-1.884-6.695h-.139L87.585 26.5zm12.018 0v-9.273h1.805v9.273zm.911-10.704q-.47 0-.809-.314a1.02 1.02 0 0 1-.332-.76q0-.447.332-.761.338-.32.81-.32.47 0 .802.32a1 1 0 0 1 .338.76q0 .442-.338.761-.332.315-.803.314m7.65 1.431v1.449h-5.065v-1.449zm-3.706-2.222h1.805v8.772q0 .526.157.79a.8.8 0 0 0 .404.357q.253.09.55.09.217 0 .38-.03l.254-.048.326 1.491a3 3 0 0 1-.447.121 3.5 3.5 0 0 1-.725.073 3.2 3.2 0 0 1-1.328-.254 2.3 2.3 0 0 1-.996-.821q-.38-.555-.38-1.395zm7.707 5.989v5.506h-1.805V14.137h1.781v4.6h.115q.325-.748.996-1.189.67-.44 1.751-.44.954 0 1.666.392.718.392 1.111 1.17.398.774.398 1.933V26.5h-1.805v-5.68q0-1.02-.525-1.582-.525-.567-1.461-.567-.64 0-1.147.271a1.96 1.96 0 0 0-.791.797q-.284.52-.284 1.256"/><path fill="#61dafb" d="M122.937 26.5V14.138h5.107q1.389 0 2.397.501 1.014.495 1.564 1.425.549.924.549 2.191 0 1.286-.561 2.186-.562.893-1.594 1.364-1.032.465-2.445.465h-3.23v-2.355h2.674q.677 0 1.129-.175.46-.18.695-.543.235-.368.235-.942 0-.573-.235-.948a1.42 1.42 0 0 0-.695-.567q-.458-.193-1.129-.193h-1.473V26.5zm6.961-5.65 3.079 5.65h-3.26l-3.019-5.65zm8.447 5.826q-1.455 0-2.511-.574a3.96 3.96 0 0 1-1.618-1.648q-.562-1.074-.562-2.553 0-1.437.568-2.512a4.1 4.1 0 0 1 1.6-1.678q1.032-.604 2.432-.604.99 0 1.811.308.822.308 1.419.912t.93 1.49q.332.883.332 2.023v.737h-8.059v-1.715h5.312a1.66 1.66 0 0 0-.223-.839 1.5 1.5 0 0 0-.598-.573 1.7 1.7 0 0 0-.863-.212q-.495 0-.888.224a1.68 1.68 0 0 0-.863 1.449v1.744q0 .567.223.996.224.423.634.658t.978.236q.392 0 .713-.109.32-.108.549-.32.23-.21.344-.519l2.711.078a3.36 3.36 0 0 1-.743 1.588q-.567.67-1.491 1.044-.924.369-2.137.369m8.523-.018q-.888 0-1.576-.296a2.46 2.46 0 0 1-1.081-.906q-.392-.609-.392-1.527 0-.773.272-1.304a2.3 2.3 0 0 1 .748-.863 3.5 3.5 0 0 1 1.099-.501 7 7 0 0 1 1.328-.236q.79-.072 1.274-.15.483-.086.7-.236a.51.51 0 0 0 .223-.44v-.031q0-.465-.319-.718-.321-.255-.864-.254-.585 0-.942.254a1.12 1.12 0 0 0-.452.7l-2.723-.097a3.2 3.2 0 0 1 .622-1.509q.507-.67 1.388-1.05.888-.387 2.131-.387.888 0 1.636.212a4 4 0 0 1 1.304.603q.556.393.858.966.307.574.307 1.31v6.303h-2.777v-1.292h-.072q-.247.471-.634.797-.38.325-.899.489a3.8 3.8 0 0 1-1.159.163m.911-1.932q.477 0 .857-.193.387-.194.616-.532.23-.344.23-.796v-.882a2 2 0 0 1-.308.12q-.175.055-.387.104-.211.048-.434.084l-.429.067a2.7 2.7 0 0 0-.712.205 1.13 1.13 0 0 0-.447.362.9.9 0 0 0-.151.52q0 .457.326.7.332.24.839.24m10.764 1.95q-1.467 0-2.517-.604a4.1 4.1 0 0 1-1.606-1.678q-.562-1.08-.562-2.5 0-1.424.562-2.499a4.1 4.1 0 0 1 1.612-1.684q1.05-.604 2.505-.604 1.286 0 2.24.465.96.465 1.497 1.316.543.846.573 1.986h-2.759q-.084-.713-.482-1.116-.393-.405-1.027-.405-.513 0-.899.29-.387.283-.604.845-.211.555-.211 1.376t.211 1.389q.217.561.604.851.386.285.899.284.41 0 .725-.175.32-.175.525-.513.205-.345.259-.834h2.759q-.042 1.147-.573 2.005a3.55 3.55 0 0 1-1.479 1.334q-.948.47-2.252.47m11.049-9.448v2.173h-5.85v-2.173zm-4.624-2.222h2.952v8.579q0 .272.084.44a.53.53 0 0 0 .26.236q.169.066.404.066.17 0 .357-.03.192-.036.289-.06l.447 2.13q-.211.061-.598.152-.38.09-.911.115-1.038.048-1.781-.242a2.3 2.3 0 0 1-1.129-.918q-.386-.621-.374-1.563z"/></g><defs><filter id="b" width="39.903" height="39.202" x="2.4" y=".4" color-interpolation-filters="sRGB" filterUnits="userSpaceOnUse"><feFlood flood-opacity="0" result="BackgroundImageFix"/><feColorMatrix in="SourceAlpha" result="hardAlpha" values="0 0 0 0 0 0 0 0 0 0 0 0 0 0 0 0 0 0 127 0"/><feOffset/><feGaussianBlur stdDeviation="2.8"/><feComposite in2="hardAlpha" operator="out"/><feColorMatrix values="0 0 0 0 0 0 0 0 0 0 0 0 0 0 0 0 0 0 0.25 0"/><feBlend in2="BackgroundImageFix" result="effect1_dropShadow_2_1141"/><feBlend in="SourceGraphic" in2="effect1_dropShadow_2_1141" result="shape"/></filter><filter id="c" width="140.429" height="32.429" x="36.287" y="3.786" color-interpolation-filters="sRGB" filterUnits="userSpaceOnUse"><feFlood flood-opacity="0" result="BackgroundImageFix"/><feColorMatrix in="SourceAlpha" result="hardAlpha" values="0 0 0 0 0 0 0 0 0 0 0 0 0 0 0 0 0 0 127 0"/><feOffset/><feGaussianBlur stdDeviation="2.857"/><feComposite in2="hardAlpha" operator="out"/><feColorMatrix values="0 0 0 0 0 0 0 0 0 0 0 0 0 0 0 0 0 0 0.25 0"/><feBlend in2="BackgroundImageFix" result="effect1_dropShadow_2_1141"/><feBlend in="SourceGraphic" in2="effect1_dropShadow_2_1141" result="shape"/></filter><linearGradient id="a" x1="89.501" x2="89.501" y1="0" y2="40.001" gradientUnits="userSpaceOnUse"><stop stop-color="#0f343e"/><stop offset="1" stop-color="#072027"/></linearGradient></defs></svg>