<svg xmlns="http://www.w3.org/2000/svg" width="171" height="40" fill="none" viewBox="0 0 171 40"><g clip-path="url(#a)"><rect width="171" height="40" fill="url(#b)" rx="8"/><g filter="url(#c)"><g clip-path="url(#d)"><path fill="#cd6699" fill-rule="evenodd" d="M22 6c7.732 0 14 6.268 14 14s-6.268 14-14 14S8 27.732 8 20 14.268 6 22 6" clip-rule="evenodd"/><path fill="#fff" d="M19.218 24.663c.204.754.181 1.456-.03 2.093a4 4 0 0 1-.167.414q-.245.506-.647.943c-.813.887-1.95 1.223-2.437.94-.526-.305-.262-1.556.68-2.553 1.015-1.073 2.475-1.762 2.475-1.762l-.002-.005zm11.564-12.67c-.634-2.487-4.757-3.305-8.659-1.918-2.322.825-4.836 2.12-6.644 3.81-2.149 2.01-2.491 3.76-2.35 4.491.498 2.58 4.033 4.266 5.486 5.517v.008c-.429.21-3.565 1.797-4.298 3.42-.775 1.712.123 2.94.717 3.105 1.841.513 3.73-.409 4.746-1.923.98-1.462.898-3.35.473-4.288.587-.155 1.272-.225 2.142-.123 2.456.287 2.938 1.82 2.846 2.462s-.607.994-.78 1.1c-.172.108-.224.144-.21.224.02.115.1.11.247.086.203-.034 1.29-.522 1.337-1.707.059-1.504-1.383-3.187-3.935-3.143-1.05.018-1.712.119-2.189.296l-.108-.12c-1.578-1.683-4.495-2.874-4.371-5.137.045-.822.33-2.989 5.604-5.616 4.32-2.153 7.779-1.56 8.376-.248.854 1.876-1.848 5.362-6.334 5.864-1.71.192-2.61-.47-2.833-.717-.236-.26-.271-.272-.36-.223-.142.08-.052.309 0 .445.135.35.684.967 1.622 1.275.824.27 2.83.419 5.258-.52 2.718-1.051 4.84-3.976 4.217-6.42"/></g></g><g filter="url(#e)"><path fill="#e8e8e8" d="M43.358 26.5V14.136h4.528q1.316 0 2.18.435.862.429 1.291 1.165.429.731.429 1.648 0 .773-.284 1.304-.284.525-.76.845-.47.315-1.039.46v.12q.615.03 1.201.398.592.363.978 1.033.387.67.387 1.63 0 .947-.447 1.702-.44.749-1.364 1.19-.924.434-2.36.434zm1.866-1.6h2.692q1.341 0 1.92-.519a1.67 1.67 0 0 0 .58-1.298q-.001-.585-.296-1.074a2.1 2.1 0 0 0-.845-.78q-.544-.288-1.292-.289h-2.76zm0-5.415h2.499q.628 0 1.129-.241.507-.242.803-.677.302-.44.302-1.038 0-.767-.538-1.286-.537-.519-1.648-.519h-2.547zm14.986 3.17v-5.428h1.812V26.5h-1.775v-1.606h-.097a2.9 2.9 0 0 1-1.026 1.238q-.7.489-1.745.489-.894 0-1.582-.393-.682-.398-1.074-1.177-.387-.779-.386-1.926v-5.898h1.804v5.681q0 .948.526 1.51.525.56 1.364.56.507 0 1.008-.253.507-.254.84-.767.337-.513.331-1.303m4.237 3.845v-9.273h1.805V26.5zm.911-10.703q-.47 0-.809-.314a1.02 1.02 0 0 1-.332-.761q0-.447.332-.76.338-.32.81-.32.47 0 .802.32a1 1 0 0 1 .338.76q0 .44-.338.76-.332.315-.803.315m5.127-1.66V26.5H68.68V14.136zm6.757 3.09v1.45h-5.065v-1.45zm-3.707-2.221h1.806v8.771q0 .525.156.791a.82.82 0 0 0 .405.356q.253.09.55.09.216 0 .38-.03l.253-.048.326 1.492q-.157.06-.447.12a3.5 3.5 0 0 1-.724.073 3.2 3.2 0 0 1-1.328-.254 2.3 2.3 0 0 1-.996-.82q-.38-.556-.38-1.395zM85.748 26.5l-2.729-9.273h1.866l1.817 6.81h.09l1.824-6.81h1.865l1.811 6.78h.09l1.806-6.78h1.865L93.331 26.5h-1.842l-1.883-6.695h-.14L87.584 26.5zm12.018 0v-9.273h1.805V26.5zm.912-10.703q-.471 0-.81-.314a1.02 1.02 0 0 1-.331-.761q0-.447.332-.76.338-.32.809-.32.47 0 .803.32a1 1 0 0 1 .338.76q0 .44-.338.76-.333.315-.803.315m7.65 1.43v1.45h-5.065v-1.45zm-3.707-2.221h1.805v8.771q0 .525.157.791.157.26.405.356.254.09.549.09.218 0 .381-.03l.253-.048.326 1.492q-.157.06-.447.12a3.5 3.5 0 0 1-.724.073 3.2 3.2 0 0 1-1.328-.254 2.27 2.27 0 0 1-.996-.82q-.381-.556-.381-1.395zm7.708 5.988V26.5h-1.805V14.136h1.781v4.6h.115q.326-.748.996-1.189.67-.44 1.75-.44.954 0 1.667.392.718.393 1.11 1.171.399.773.399 1.932V26.5h-1.805v-5.68q0-1.02-.525-1.582-.526-.568-1.461-.568-.64 0-1.147.272a1.96 1.96 0 0 0-.791.797q-.284.519-.284 1.255"/><path fill="#cd6699" d="M129.619 17.343q-.061-.665-.538-1.032-.47-.375-1.346-.375-.579 0-.966.151-.386.151-.579.417a1 1 0 0 0-.2.598.9.9 0 0 0 .109.489q.127.21.362.374.241.157.58.277t.76.212l1.063.241q.918.2 1.618.532.706.331 1.183.79.483.459.731 1.057.247.597.253 1.34-.006 1.17-.591 2.01-.586.84-1.685 1.286-1.093.447-2.638.447-1.552 0-2.704-.465-1.154-.464-1.793-1.413-.64-.947-.658-2.396h2.861q.036.597.32.996.284.398.779.604.5.204 1.159.205.603 0 1.026-.163.429-.164.658-.453a1.07 1.07 0 0 0 .236-.664.92.92 0 0 0-.218-.598q-.211-.254-.652-.434a6.7 6.7 0 0 0-1.111-.344l-1.291-.302q-1.606-.368-2.53-1.19-.924-.825-.917-2.233-.007-1.147.615-2.01.622-.864 1.721-1.347 1.098-.483 2.505-.483 1.437 0 2.493.49 1.063.482 1.648 1.358.586.875.598 2.028zm7.153 8.814q-.887 0-1.575-.296a2.46 2.46 0 0 1-1.081-.905q-.392-.61-.392-1.528 0-.773.271-1.304.272-.531.749-.863a3.5 3.5 0 0 1 1.099-.501 7 7 0 0 1 1.328-.236q.79-.072 1.274-.15.483-.085.7-.236a.51.51 0 0 0 .223-.44v-.03q0-.465-.32-.72-.32-.252-.863-.253-.585 0-.942.254a1.12 1.12 0 0 0-.453.7l-2.722-.096q.12-.846.622-1.51.507-.67 1.388-1.05.888-.386 2.131-.386.888 0 1.636.21.749.206 1.304.605.555.392.857.965.309.575.308 1.31V26h-2.777v-1.292h-.072q-.247.471-.634.797-.38.326-.9.489a3.8 3.8 0 0 1-1.159.163m.912-1.932q.477 0 .857-.193.387-.194.616-.531.23-.344.229-.797v-.882a1.7 1.7 0 0 1-.308.121 5 5 0 0 1-.386.103q-.212.048-.435.084-.222.036-.428.067a2.7 2.7 0 0 0-.713.205 1.1 1.1 0 0 0-.446.362.9.9 0 0 0-.151.52q0 .458.326.7.332.24.839.241m14.531-4.666-2.711.072a1 1 0 0 0-.229-.513 1.24 1.24 0 0 0-.489-.356 1.7 1.7 0 0 0-.688-.133q-.513 0-.876.205-.356.205-.35.556a.6.6 0 0 0 .217.47q.23.2.815.32l1.787.338q1.389.265 2.065.882.682.616.688 1.63-.006.954-.567 1.66-.555.706-1.522 1.099-.965.386-2.209.386-1.987 0-3.133-.815-1.142-.821-1.304-2.197l2.916-.073q.096.507.501.773.404.265 1.032.265.567 0 .924-.21.356-.213.362-.562a.6.6 0 0 0-.278-.501q-.272-.194-.851-.302l-1.618-.308q-1.395-.253-2.077-.936-.682-.688-.676-1.75-.006-.93.495-1.588.501-.664 1.425-1.014t2.179-.35q1.884 0 2.97.79 1.087.785 1.202 2.162m9.778 0-2.71.072a1 1 0 0 0-.23-.513 1.24 1.24 0 0 0-.489-.356 1.7 1.7 0 0 0-.688-.133q-.513 0-.875.205-.357.205-.351.556a.6.6 0 0 0 .218.47q.229.2.815.32l1.787.338q1.388.265 2.064.882.683.616.689 1.63a2.62 2.62 0 0 1-.568 1.66q-.555.706-1.521 1.099-.966.386-2.21.386-1.986 0-3.133-.815-1.141-.821-1.304-2.197l2.916-.073q.096.507.501.773.405.265 1.032.265.569 0 .924-.21.356-.213.362-.562a.6.6 0 0 0-.277-.501q-.272-.194-.852-.302l-1.618-.308q-1.394-.253-2.076-.936-.682-.688-.676-1.75-.006-.93.495-1.588.501-.664 1.424-1.014.924-.35 2.18-.35 1.882 0 2.97.79 1.086.785 1.201 2.162"/></g></g><rect width="168.9" height="37.9" x="1.05" y="1.05" stroke="#fff" stroke-opacity=".15" stroke-width="2.1" rx="6.95"/><defs><clipPath id="a"><rect width="171" height="40" fill="#fff" rx="8"/></clipPath><clipPath id="d"><path fill="#fff" d="M8 6h28v28H8z"/></clipPath><filter id="c" width="39.429" height="39.429" x="2.286" y=".286" color-interpolation-filters="sRGB" filterUnits="userSpaceOnUse"><feFlood flood-opacity="0" result="BackgroundImageFix"/><feColorMatrix in="SourceAlpha" result="hardAlpha" values="0 0 0 0 0 0 0 0 0 0 0 0 0 0 0 0 0 0 127 0"/><feOffset/><feGaussianBlur stdDeviation="2.857"/><feComposite in2="hardAlpha" operator="out"/><feColorMatrix values="0 0 0 0 0 0 0 0 0 0 0 0 0 0 0 0 0 0 0.25 0"/><feBlend in2="BackgroundImageFix" result="effect1_dropShadow_2_3709"/><feBlend in="SourceGraphic" in2="effect1_dropShadow_2_3709" result="shape"/></filter><filter id="e" width="132.2" height="32.2" x="36.4" y="3.9" color-interpolation-filters="sRGB" filterUnits="userSpaceOnUse"><feFlood flood-opacity="0" result="BackgroundImageFix"/><feColorMatrix in="SourceAlpha" result="hardAlpha" values="0 0 0 0 0 0 0 0 0 0 0 0 0 0 0 0 0 0 127 0"/><feOffset/><feGaussianBlur stdDeviation="2.8"/><feComposite in2="hardAlpha" operator="out"/><feColorMatrix values="0 0 0 0 0 0 0 0 0 0 0 0 0 0 0 0 0 0 0.25 0"/><feBlend in2="BackgroundImageFix" result="effect1_dropShadow_2_3709"/><feBlend in="SourceGraphic" in2="effect1_dropShadow_2_3709" result="shape"/></filter><linearGradient id="b" x1="85.5" x2="85.5" y1="0" y2="40" gradientUnits="userSpaceOnUse"><stop stop-color="#442132"/><stop offset="1" stop-color="#26121c"/></linearGradient></defs></svg>