<svg xmlns="http://www.w3.org/2000/svg" width="264" height="40" fill="none" viewBox="0 0 264 40"><rect width="264.001" height="40.001" fill="url(#a)" rx="8"/><rect width="261.858" height="37.858" x="1.071" y="1.071" stroke="#fff" stroke-opacity=".15" stroke-width="2.143" rx="6.929"/><g filter="url(#b)"><g filter="url(#c)"><path fill="#fff" fill-opacity=".25" d="M12.5 26.5v-2.1h6.301v2.1zm-2.1-2.1v-2.1h2.1v2.1zm8.401 0v-6.3h2.1v6.3zm-6.3-6.3V16h6.3v2.1zM10.4 16v-2.1h2.1V16zm2.1-2.1v-2.1h8.4v2.1zm12.6 12.6v-2.1h6.3v2.1zM23 24.4V13.9h2.1v10.5zm8.4 0V13.9h2.1v10.5zm-6.3-10.5v-2.1h6.3v2.1z"/></g><path fill="#fff" d="M12.5 26.5v-2.1h6.301v2.1zm-2.1-2.1v-2.1h2.1v2.1zm8.401 0v-6.3h2.1v6.3zm-6.3-6.3V16h6.3v2.1zM10.4 16v-2.1h2.1V16zm2.1-2.1v-2.1h8.4v2.1zm12.6 12.6v-2.1h6.3v2.1zM23 24.4V13.9h2.1v10.5zm8.4 0V13.9h2.1v10.5zm-6.3-10.5v-2.1h6.3v2.1z"/></g><g filter="url(#d)"><path fill="#e8e8e8" d="M43.36 26.5V14.138h4.528q1.315 0 2.179.435.863.429 1.292 1.165.428.73.428 1.648 0 .773-.283 1.304-.285.525-.761.845a3.4 3.4 0 0 1-1.038.459v.12q.615.03 1.2.4.592.361.979 1.031.386.67.386 1.63 0 .948-.447 1.703-.44.748-1.364 1.189-.923.435-2.36.435zm1.865-1.6h2.693q1.34 0 1.92-.518a1.67 1.67 0 0 0 .579-1.298q0-.585-.296-1.075a2.1 2.1 0 0 0-.845-.779q-.543-.29-1.292-.29h-2.759zm0-5.414h2.5q.627 0 1.128-.242.507-.24.803-.676.302-.441.302-1.038 0-.767-.537-1.286-.537-.52-1.648-.52h-2.548zm14.987 3.17v-5.428h1.81v9.273h-1.774v-1.606h-.096a2.9 2.9 0 0 1-1.027 1.237q-.7.49-1.745.49-.892 0-1.581-.393-.682-.399-1.075-1.177-.386-.78-.386-1.926v-5.898h1.805v5.68q0 .95.525 1.51.525.561 1.364.561.508 0 1.009-.253.506-.255.839-.767.338-.513.332-1.304m4.236 3.845v-9.273h1.805V26.5zm.912-10.704q-.471 0-.81-.314a1.02 1.02 0 0 1-.331-.76q0-.447.332-.761.338-.32.809-.32.47 0 .803.32a1 1 0 0 1 .338.76q0 .441-.338.761-.333.315-.803.314m5.127-1.66V26.5h-1.805V14.137zm6.757 3.091v1.449h-5.065v-1.449zm-3.707-2.222h1.805v8.772q0 .526.157.79.158.261.404.357.254.09.55.09.217 0 .38-.03l.254-.048.326 1.491q-.157.06-.447.121a3.5 3.5 0 0 1-.725.072 3.2 3.2 0 0 1-1.328-.253 2.3 2.3 0 0 1-.996-.821q-.38-.555-.38-1.395zm14.108 11.682q-1.305 0-2.276-.598a4.03 4.03 0 0 1-1.509-1.672q-.537-1.074-.537-2.511 0-1.443.537-2.524t1.51-1.678 2.275-.598q1.305 0 2.276.598a4 4 0 0 1 1.51 1.678q.537 1.08.537 2.524 0 1.436-.538 2.511a4.03 4.03 0 0 1-1.509 1.672q-.972.598-2.276.598m.006-1.515q.846 0 1.4-.447.556-.447.822-1.19a4.7 4.7 0 0 0 .271-1.635q0-.888-.271-1.63-.265-.75-.821-1.202-.555-.453-1.4-.453-.853 0-1.413.453-.555.453-.828 1.202a4.8 4.8 0 0 0-.265 1.63q0 .892.266 1.636.27.742.827 1.189.561.447 1.412.447m8.136-4.178V26.5h-1.805v-9.273h1.733v1.51h.115a2.65 2.65 0 0 1 1.002-1.184q.688-.447 1.733-.447.947 0 1.66.399a2.66 2.66 0 0 1 1.104 1.17q.393.78.393 1.927V26.5h-1.805v-5.68q0-1.008-.526-1.576-.525-.573-1.442-.573-.628 0-1.117.271a1.95 1.95 0 0 0-.767.797q-.278.52-.278 1.256"/><path fill="#fff" d="M114.62 17.844q-.06-.664-.537-1.033-.471-.374-1.346-.374-.58 0-.966.151-.387.15-.58.417a1 1 0 0 0-.199.597.9.9 0 0 0 .109.49q.126.21.362.373.242.158.579.278.338.12.761.212l1.062.241q.918.2 1.618.531.707.333 1.184.791.483.459.73 1.057.248.597.254 1.34-.007 1.17-.592 2.01t-1.684 1.286q-1.093.447-2.638.447-1.552 0-2.705-.465t-1.793-1.413-.658-2.396h2.862q.036.597.319.996.284.398.779.603.502.206 1.159.206.604 0 1.027-.163.428-.164.658-.453t.235-.664a.9.9 0 0 0-.217-.598q-.211-.253-.652-.435-.435-.187-1.111-.344l-1.292-.302q-1.606-.368-2.529-1.189-.924-.827-.918-2.233-.006-1.148.616-2.01.621-.864 1.72-1.347 1.1-.483 2.506-.483 1.436 0 2.493.489 1.062.483 1.648 1.358t.598 2.029zm4.54 8.657v-9.273h2.952v9.273zm1.479-10.354q-.622 0-1.069-.41a1.32 1.32 0 0 1-.446-1.002q0-.58.446-.99a1.5 1.5 0 0 1 1.069-.417q.628 0 1.068.417.447.41.447.99 0 .585-.447 1.002a1.5 1.5 0 0 1-1.068.41m3.352 10.354v-9.273h2.807v1.702h.103a2.64 2.64 0 0 1 .978-1.334q.688-.489 1.642-.489.966 0 1.654.495t.875 1.328h.097a2.4 2.4 0 0 1 1.014-1.322q.755-.5 1.781-.5 1.316 0 2.137.844.82.84.821 2.307V26.5h-2.952v-5.566q0-.694-.356-1.057-.357-.368-.924-.368-.609 0-.96.398-.344.393-.344 1.057V26.5h-2.837v-5.597q0-.645-.35-1.02-.351-.374-.924-.374a1.25 1.25 0 0 0-1.147.706 1.8 1.8 0 0 0-.163.797V26.5zm15.738 3.477v-12.75h2.922v1.588h.091q.18-.423.513-.815.338-.393.857-.64.525-.255 1.256-.254.966 0 1.805.507.845.508 1.364 1.564t.519 2.692q0 1.575-.501 2.639-.495 1.063-1.34 1.593a3.4 3.4 0 0 1-1.865.532q-.7 0-1.214-.23a2.6 2.6 0 0 1-.863-.604 2.9 2.9 0 0 1-.531-.803h-.061v4.981zm2.892-8.114q0 .75.199 1.304.205.555.586.864.386.3.923.301.544 0 .924-.301.381-.308.573-.864.2-.555.2-1.304 0-.748-.2-1.298-.192-.55-.573-.85-.374-.303-.924-.303-.543 0-.923.296-.38.297-.586.845-.2.55-.199 1.31m10.934-7.727v12.364h-2.952V14.137zm3.684 15.841q-.531 0-1.002-.085a4 4 0 0 1-.809-.21l.652-2.144q.435.145.785.17.356.023.61-.116.26-.132.398-.477l.115-.277-3.296-9.611h3.091l1.708 6.616h.097l1.732-6.616h3.109l-3.495 10.16a4.3 4.3 0 0 1-.719 1.34q-.458.586-1.189.918-.724.332-1.787.332m23.644-9.66q0 2.041-.785 3.46-.784 1.419-2.125 2.155-1.334.737-2.994.737-1.666 0-3.001-.743-1.333-.742-2.119-2.155-.778-1.419-.778-3.453 0-2.04.778-3.46.786-1.418 2.119-2.155 1.335-.736 3.001-.736 1.66 0 2.994.736 1.34.737 2.125 2.156.785 1.418.785 3.459m-3.055 0q0-1.206-.344-2.04-.337-.833-.978-1.261-.634-.429-1.527-.429-.888 0-1.528.429-.639.428-.984 1.261-.338.834-.338 2.04 0 1.209.338 2.041.345.834.984 1.262.64.429 1.528.429.893 0 1.527-.429.64-.428.978-1.262.345-.832.344-2.04m4.8 9.66V17.23h2.921v1.588h.091q.181-.423.513-.815.338-.393.857-.64.526-.255 1.256-.254.966 0 1.805.507.845.508 1.364 1.564t.52 2.692q0 1.575-.501 2.639-.495 1.063-1.341 1.593a3.4 3.4 0 0 1-1.865.532q-.7 0-1.213-.23a2.6 2.6 0 0 1-.864-.604 2.9 2.9 0 0 1-.531-.803h-.06v4.981zm2.891-8.114q0 .75.2 1.304.205.555.585.864.387.3.924.301.543 0 .923-.301.38-.308.574-.864.2-.555.199-1.304 0-.748-.199-1.298-.193-.55-.574-.85-.374-.303-.923-.303-.543 0-.924.296-.38.297-.585.845-.2.55-.2 1.31m13.217-4.636v2.173h-5.85V17.23zm-4.625-2.222h2.952v8.579q0 .272.085.44.09.165.26.236a1.1 1.1 0 0 0 .404.066q.169 0 .356-.03.194-.036.29-.06l.447 2.13q-.211.061-.598.152a5 5 0 0 1-.912.115q-1.038.048-1.78-.242a2.3 2.3 0 0 1-1.129-.918q-.387-.621-.375-1.563zm6.131 11.495V17.23h2.952v9.273zm1.479-10.354q-.622 0-1.069-.41a1.32 1.32 0 0 1-.446-1.002q0-.58.446-.99a1.5 1.5 0 0 1 1.069-.417q.628 0 1.068.417.447.41.447.99 0 .585-.447 1.002a1.5 1.5 0 0 1-1.068.41m3.352 10.354V17.23h2.807v1.702h.103a2.64 2.64 0 0 1 .978-1.334q.688-.489 1.642-.489.966 0 1.654.495t.875 1.328h.097a2.4 2.4 0 0 1 1.014-1.322q.755-.5 1.781-.5 1.316 0 2.137.844.82.84.821 2.307V26.5h-2.952v-5.566q0-.694-.356-1.057-.357-.368-.924-.368-.609 0-.96.398-.344.393-.344 1.057V26.5h-2.837v-5.597q0-.645-.35-1.02-.351-.374-.924-.374a1.25 1.25 0 0 0-1.147.706 1.8 1.8 0 0 0-.163.797V26.5zm15.738 0V17.23h2.952v9.273zm1.479-10.354q-.621 0-1.068-.41a1.32 1.32 0 0 1-.447-1.002q0-.58.447-.99a1.5 1.5 0 0 1 1.068-.417 1.5 1.5 0 0 1 1.069.417q.446.41.446.99 0 .585-.446 1.002-.44.41-1.069.41m3.376 10.354v-1.685l4.299-5.234v-.06h-4.148V17.23h7.667v1.847l-3.984 5.071v.06h4.129v2.295zm13.94.175q-1.455 0-2.512-.574a3.97 3.97 0 0 1-1.618-1.648q-.561-1.074-.561-2.553 0-1.437.567-2.512.568-1.08 1.6-1.678 1.032-.603 2.433-.604.99 0 1.811.308t1.419.912q.597.604.93 1.49.332.882.332 2.023v.737h-8.06v-1.715h5.313a1.66 1.66 0 0 0-.224-.839 1.5 1.5 0 0 0-.597-.573 1.73 1.73 0 0 0-.864-.212q-.495 0-.887.224a1.68 1.68 0 0 0-.863 1.449v1.744q0 .567.223.996.223.423.634.658t.978.236q.393 0 .712-.109a1.5 1.5 0 0 0 .55-.32q.229-.21.344-.52l2.71.08a3.35 3.35 0 0 1-.742 1.587q-.568.67-1.491 1.044-.924.369-2.137.369m9.295-.042a3.4 3.4 0 0 1-1.865-.532q-.84-.531-1.341-1.593-.501-1.063-.501-2.639 0-1.636.52-2.692.519-1.056 1.358-1.564a3.47 3.47 0 0 1 1.817-.507q.73 0 1.25.254.519.247.857.64.337.392.513.815h.06v-4.679h2.952v12.364H251.6v-1.504h-.091a2.9 2.9 0 0 1-.531.803q-.344.375-.864.604-.513.23-1.213.23m1.026-2.3q.537 0 .918-.302.38-.308.585-.864.206-.555.206-1.304 0-.76-.206-1.31-.199-.55-.585-.845a1.45 1.45 0 0 0-.918-.296q-.55 0-.929.302-.38.302-.58.851-.193.55-.193 1.298 0 .75.199 1.304.2.555.574.864.38.3.929.301"/></g><defs><filter id="b" width="39.202" height="39.202" x="2.4" y=".4" color-interpolation-filters="sRGB" filterUnits="userSpaceOnUse"><feFlood flood-opacity="0" result="BackgroundImageFix"/><feColorMatrix in="SourceAlpha" result="hardAlpha" values="0 0 0 0 0 0 0 0 0 0 0 0 0 0 0 0 0 0 127 0"/><feOffset/><feGaussianBlur stdDeviation="2.8"/><feComposite in2="hardAlpha" operator="out"/><feColorMatrix values="0 0 0 0 0 0 0 0 0 0 0 0 0 0 0 0 0 0 0.25 0"/><feBlend in2="BackgroundImageFix" result="effect1_dropShadow_28_2351"/><feBlend in="SourceGraphic" in2="effect1_dropShadow_28_2351" result="shape"/></filter><filter id="c" width="34.302" height="25.901" x="4.801" y="6.199" color-interpolation-filters="sRGB" filterUnits="userSpaceOnUse"><feFlood flood-opacity="0" result="BackgroundImageFix"/><feBlend in="SourceGraphic" in2="BackgroundImageFix" result="shape"/><feGaussianBlur result="effect1_foregroundBlur_28_2351" stdDeviation="2.8"/></filter><filter id="d" width="225.429" height="32.429" x="36.287" y="3.786" color-interpolation-filters="sRGB" filterUnits="userSpaceOnUse"><feFlood flood-opacity="0" result="BackgroundImageFix"/><feColorMatrix in="SourceAlpha" result="hardAlpha" values="0 0 0 0 0 0 0 0 0 0 0 0 0 0 0 0 0 0 127 0"/><feOffset/><feGaussianBlur stdDeviation="2.857"/><feComposite in2="hardAlpha" operator="out"/><feColorMatrix values="0 0 0 0 0 0 0 0 0 0 0 0 0 0 0 0 0 0 0.25 0"/><feBlend in2="BackgroundImageFix" result="effect1_dropShadow_28_2351"/><feBlend in="SourceGraphic" in2="effect1_dropShadow_28_2351" result="shape"/></filter><linearGradient id="a" x1="132.001" x2="132.001" y1="0" y2="40.001" gradientUnits="userSpaceOnUse"><stop stop-color="#021f1d"/><stop offset="1" stop-color="#000606"/></linearGradient></defs></svg>