<svg xmlns="http://www.w3.org/2000/svg" width="204" height="40" fill="none" viewBox="0 0 204 40"><g clip-path="url(#a)"><rect width="204" height="40" fill="url(#b)" rx="8"/><g filter="url(#c)"><g clip-path="url(#d)"><path fill="#ff3e00" d="M32.283 9.667C29.697 5.942 24.548 4.85 20.846 7.2l-6.526 4.177a7.42 7.42 0 0 0-3.369 5.006c-.309 1.732-.048 3.512.783 5.055a7.2 7.2 0 0 0-1.115 2.8 7.98 7.98 0 0 0 1.352 6.027c2.61 3.725 7.736 4.817 11.438 2.467l6.525-4.152a7.42 7.42 0 0 0 3.37-5.007c.308-1.732.047-3.512-.784-5.054.57-.854.95-1.803 1.116-2.8a7.82 7.82 0 0 0-1.353-6.05"/><path fill="#fff" d="M20.205 30.62a5.17 5.17 0 0 1-5.552-2.065c-.76-1.044-1.045-2.349-.83-3.63.046-.214.094-.404.141-.617l.12-.38.331.237q1.175.855 2.563 1.282l.237.07-.023.238c-.024.332.07.688.26.973a1.57 1.57 0 0 0 1.685.64c.143-.047.285-.094.404-.165l6.501-4.153a1.34 1.34 0 0 0 .617-.902 1.47 1.47 0 0 0-.237-1.091 1.56 1.56 0 0 0-1.685-.617 2 2 0 0 0-.403.166l-2.492 1.59c-.403.26-.854.45-1.328.57A5.17 5.17 0 0 1 14.96 20.7a4.8 4.8 0 0 1-.807-3.63 4.5 4.5 0 0 1 2.04-3.014l6.526-4.153c.404-.26.855-.45 1.33-.593a5.17 5.17 0 0 1 5.552 2.065c.759 1.043 1.044 2.349.83 3.63a6 6 0 0 1-.166.617l-.118.38-.333-.238a8.7 8.7 0 0 0-2.562-1.281l-.238-.071.024-.238a1.6 1.6 0 0 0-.261-.972 1.56 1.56 0 0 0-1.685-.617 2 2 0 0 0-.403.166l-6.502 4.152a1.35 1.35 0 0 0-.617.902c-.071.38.024.783.237 1.092a1.56 1.56 0 0 0 1.685.617c.143-.048.285-.096.404-.167l2.491-1.59c.403-.26.854-.45 1.329-.593a5.17 5.17 0 0 1 5.553 2.065c.759 1.044 1.044 2.349.83 3.63a4.5 4.5 0 0 1-2.04 3.014l-6.526 4.152a5.1 5.1 0 0 1-1.329.593"/></g></g><g filter="url(#e)"><path fill="#e8e8e8" d="M43.278 25.5V13.864h4.262q1.239 0 2.05.409.814.403 1.217 1.096.403.688.403 1.552 0 .726-.267 1.227a2.2 2.2 0 0 1-.716.795q-.442.296-.977.432v.114a2.3 2.3 0 0 1 1.13.375q.558.34.921.971.364.63.364 1.534 0 .893-.42 1.603-.415.704-1.285 1.119-.87.41-2.221.409zm1.756-1.506h2.534q1.261 0 1.807-.488.545-.489.545-1.222 0-.55-.278-1.011a2 2 0 0 0-.795-.733q-.512-.273-1.216-.273h-2.597zm0-5.096h2.352q.592 0 1.063-.227a1.86 1.86 0 0 0 .756-.637q.284-.414.284-.977 0-.722-.506-1.21-.505-.489-1.551-.489h-2.398zM59.14 21.88v-5.108h1.705V25.5h-1.67v-1.511h-.092q-.3.698-.965 1.164-.66.46-1.643.46-.84 0-1.488-.369-.642-.375-1.012-1.108-.363-.732-.363-1.812v-5.551h1.699v5.346q0 .893.494 1.42.495.53 1.284.53.477 0 .949-.24.477-.239.79-.721.318-.483.312-1.227m3.987 3.619v-8.727h1.7V25.5zm.858-10.074a1.08 1.08 0 0 1-.761-.295.96.96 0 0 1-.312-.716q0-.421.312-.716.318-.3.761-.301.444 0 .756.3a.94.94 0 0 1 .318.717.95.95 0 0 1-.318.716 1.06 1.06 0 0 1-.756.295m4.826-1.562V25.5h-1.7V13.864zm6.359 2.909v1.363h-4.767v-1.363zm-3.489-2.091h1.7v8.256q0 .493.147.744a.77.77 0 0 0 .38.335q.24.085.518.085.204 0 .358-.028l.238-.046.307 1.404a3 3 0 0 1-.42.114q-.274.062-.682.068a3 3 0 0 1-1.25-.239 2.15 2.15 0 0 1-.938-.773q-.357-.523-.358-1.312zM83.175 25.5l-2.568-8.727h1.755l1.71 6.409h.086l1.716-6.41h1.755l1.705 6.381h.085l1.699-6.38h1.756L90.31 25.5h-1.733l-1.773-6.301h-.13L84.902 25.5zm11.31 0v-8.727h1.7V25.5zm.859-10.074a1.08 1.08 0 0 1-.762-.295.96.96 0 0 1-.312-.716q0-.421.312-.716.319-.3.762-.301.443 0 .755.3a.94.94 0 0 1 .319.717.95.95 0 0 1-.319.716 1.06 1.06 0 0 1-.755.295m7.2 1.347v1.363h-4.767v-1.363zm-3.489-2.091h1.699v8.256q0 .493.148.744a.77.77 0 0 0 .381.335q.238.085.517.085a2 2 0 0 0 .358-.028l.238-.046.307 1.404a3 3 0 0 1-.42.114 3.3 3.3 0 0 1-.682.068 3 3 0 0 1-1.25-.239 2.14 2.14 0 0 1-.938-.773q-.357-.523-.358-1.312zm7.255 5.636V25.5h-1.699V13.864h1.676v4.33h.108q.306-.706.937-1.12t1.648-.415q.898 0 1.568.37.677.369 1.046 1.102.375.727.375 1.818V25.5h-1.699v-5.347q0-.96-.494-1.488-.495-.534-1.375-.534a2.25 2.25 0 0 0-1.08.255q-.471.255-.744.75-.267.489-.267 1.182"/><path fill="#ff3e00" d="M125.619 17.343q-.061-.665-.538-1.032-.47-.375-1.346-.375-.579 0-.966.151-.386.151-.579.417a1 1 0 0 0-.2.598.9.9 0 0 0 .109.489q.127.21.362.374.241.157.58.277t.76.212l1.063.241q.918.2 1.618.532.706.331 1.183.79.483.459.731 1.057.247.597.253 1.34-.006 1.17-.591 2.01-.586.84-1.685 1.286-1.092.447-2.638.447-1.552 0-2.704-.465-1.154-.464-1.793-1.413-.64-.947-.658-2.396h2.861q.036.597.32.996.284.398.779.604.5.204 1.159.205.603 0 1.026-.163.429-.164.658-.453a1.07 1.07 0 0 0 .236-.664.92.92 0 0 0-.218-.598q-.211-.254-.652-.434a6.7 6.7 0 0 0-1.111-.344l-1.291-.302q-1.606-.368-2.53-1.19-.924-.825-.917-2.233-.007-1.147.615-2.01.622-.864 1.721-1.347 1.098-.483 2.505-.483 1.437 0 2.493.49 1.063.482 1.648 1.358.586.875.598 2.028zm13.534-.616L135.972 26h-3.381l-3.175-9.273h3.109l1.708 6.387h.097l1.714-6.387zm5.168 9.448q-1.455 0-2.511-.573a3.96 3.96 0 0 1-1.618-1.649q-.562-1.074-.562-2.553 0-1.437.568-2.511.567-1.08 1.6-1.679 1.032-.604 2.432-.604.99 0 1.812.308a3.9 3.9 0 0 1 1.418.912q.599.604.93 1.491.332.882.332 2.023v.736h-8.059v-1.715h5.312a1.66 1.66 0 0 0-.223-.839 1.5 1.5 0 0 0-.598-.573 1.7 1.7 0 0 0-.863-.211q-.495 0-.888.223a1.68 1.68 0 0 0-.863 1.449v1.744q0 .568.223.997.224.421.634.658.411.235.978.235.392 0 .713-.109.32-.108.549-.32.23-.21.344-.519l2.711.079a3.35 3.35 0 0 1-.743 1.587q-.567.67-1.491 1.045-.924.368-2.137.368m8.861-12.539V26h-2.952V13.636zm7.113 3.091v2.174h-5.85v-2.174zm-4.625-2.221h2.953v8.578q0 .272.084.44.09.165.26.236a1.1 1.1 0 0 0 .404.067q.169 0 .356-.03.194-.038.29-.06l.447 2.13q-.211.06-.598.151-.38.09-.911.115-1.039.048-1.781-.242a2.3 2.3 0 0 1-1.129-.917q-.387-.622-.375-1.564zm10.366 11.67q-1.455 0-2.512-.574a3.97 3.97 0 0 1-1.617-1.649q-.562-1.074-.562-2.553 0-1.437.568-2.511.567-1.08 1.599-1.679 1.034-.604 2.433-.604.99 0 1.811.308.822.309 1.419.912.597.604.93 1.491.332.882.332 2.023v.736h-8.06v-1.715h5.313a1.67 1.67 0 0 0-.223-.839 1.5 1.5 0 0 0-.598-.573 1.7 1.7 0 0 0-.863-.211q-.495 0-.888.223a1.68 1.68 0 0 0-.863 1.449v1.744q0 .568.223.997.224.421.634.658.411.235.978.235.393 0 .713-.109.32-.108.549-.32.23-.21.344-.519l2.711.079a3.36 3.36 0 0 1-.743 1.587q-.567.67-1.491 1.045-.924.368-2.137.368m5.908-.176V13.636h2.989v5.228h.163l4.087-5.228h3.519l-4.383 5.518L182.781 26h-3.574l-3.079-4.86-1.195 1.51V26zm12.518 0v-9.273h2.952V26zm1.479-10.353q-.622 0-1.068-.41a1.32 1.32 0 0 1-.447-1.003q0-.579.447-.99a1.5 1.5 0 0 1 1.068-.417 1.5 1.5 0 0 1 1.069.417q.446.411.446.99 0 .585-.446 1.002-.44.41-1.069.41m8.586 1.08v2.174h-5.85v-2.174zm-4.624-2.221h2.952v8.578q0 .272.084.44a.53.53 0 0 0 .26.236q.17.067.404.067.17 0 .357-.03.192-.038.289-.06l.447 2.13q-.212.06-.597.151-.381.09-.912.115-1.038.048-1.781-.242a2.3 2.3 0 0 1-1.129-.917q-.386-.622-.374-1.564z"/></g></g><rect width="201.9" height="37.9" x="1.05" y="1.05" stroke="#fff" stroke-opacity=".15" stroke-width="2.1" rx="6.95"/><defs><clipPath id="a"><rect width="204" height="40" fill="#fff" rx="8"/></clipPath><clipPath id="d"><path fill="#fff" d="M10.5 5.965h23.278v28H10.5z"/></clipPath><filter id="c" width="39.429" height="39.463" x="2.286" y=".251" color-interpolation-filters="sRGB" filterUnits="userSpaceOnUse"><feFlood flood-opacity="0" result="BackgroundImageFix"/><feColorMatrix in="SourceAlpha" result="hardAlpha" values="0 0 0 0 0 0 0 0 0 0 0 0 0 0 0 0 0 0 127 0"/><feOffset/><feGaussianBlur stdDeviation="2.857"/><feComposite in2="hardAlpha" operator="out"/><feColorMatrix values="0 0 0 0 0 0 0 0 0 0 0 0 0 0 0 0 0 0 0.25 0"/><feBlend in2="BackgroundImageFix" result="effect1_dropShadow_62_57"/><feBlend in="SourceGraphic" in2="effect1_dropShadow_62_57" result="shape"/></filter><filter id="e" width="165.2" height="30.2" x="36.4" y="4.9" color-interpolation-filters="sRGB" filterUnits="userSpaceOnUse"><feFlood flood-opacity="0" result="BackgroundImageFix"/><feColorMatrix in="SourceAlpha" result="hardAlpha" values="0 0 0 0 0 0 0 0 0 0 0 0 0 0 0 0 0 0 127 0"/><feOffset/><feGaussianBlur stdDeviation="2.8"/><feComposite in2="hardAlpha" operator="out"/><feColorMatrix values="0 0 0 0 0 0 0 0 0 0 0 0 0 0 0 0 0 0 0.25 0"/><feBlend in2="BackgroundImageFix" result="effect1_dropShadow_62_57"/><feBlend in="SourceGraphic" in2="effect1_dropShadow_62_57" result="shape"/></filter><linearGradient id="b" x1="102" x2="102" y1="0" y2="40" gradientUnits="userSpaceOnUse"><stop stop-color="#381f0c"/><stop offset="1" stop-color="#211205"/></linearGradient></defs></svg>