<svg xmlns="http://www.w3.org/2000/svg" width="223" height="40" fill="none" viewBox="0 0 223 40"><g clip-path="url(#a)"><rect width="223.001" height="40.001" fill="url(#b)" rx="8"/><g filter="url(#c)"><path fill="#3178c6" d="M8.613 6a1.31 1.31 0 0 0-1.312 1.313v25.376a1.31 1.31 0 0 0 1.312 1.313H33.99a1.31 1.31 0 0 0 1.312-1.313V7.313A1.31 1.31 0 0 0 33.99 6zm20.258 11.376q1.071 0 1.899.13.782.116 1.523.396v2.868a4.6 4.6 0 0 0-.75-.421 6 6 0 0 0-.837-.304 6.4 6.4 0 0 0-1.663-.233q-.525-.001-.956.1-.386.083-.727.283-.297.181-.458.436c-.11.17-.166.37-.164.572q.001.343.182.617.183.273.517.518.335.244.812.478.48.237 1.08.486.824.345 1.478.732.654.39 1.123.879.469.487.717 1.116.249.629.25 1.462 0 1.151-.436 1.932a3.54 3.54 0 0 1-1.18 1.266 5.1 5.1 0 0 1-1.735.696q-.99.21-2.089.21a11.6 11.6 0 0 1-2.147-.192 6.5 6.5 0 0 1-1.764-.575V27.76a5.87 5.87 0 0 0 3.777 1.4q.584 0 1.017-.105.435-.105.727-.292a1.3 1.3 0 0 0 .435-.443 1.19 1.19 0 0 0-.086-1.271 2.5 2.5 0 0 0-.626-.583 6.5 6.5 0 0 0-.942-.518q-.582-.266-1.175-.51-1.606-.67-2.395-1.638-.788-.969-.789-2.34 0-1.073.43-1.845a3.66 3.66 0 0 1 1.172-1.27 5.2 5.2 0 0 1 1.715-.735 8.8 8.8 0 0 1 2.065-.234m-17.632.219h11.157v2.527h-4.004v11.254h-3.17V20.122h-3.983z"/></g><g filter="url(#d)"><path fill="#e8e8e8" d="M43.36 26.5V14.138h4.528q1.315 0 2.179.435.863.428 1.292 1.165.428.73.428 1.648 0 .773-.283 1.304-.285.525-.761.845a3.4 3.4 0 0 1-1.038.459v.12q.615.03 1.2.399.592.362.979 1.032.386.67.386 1.63 0 .948-.447 1.703-.44.748-1.364 1.189-.923.435-2.36.435zm1.865-1.6h2.693q1.34 0 1.92-.518a1.67 1.67 0 0 0 .579-1.298q0-.585-.296-1.075a2.1 2.1 0 0 0-.845-.779q-.543-.29-1.292-.29h-2.759zm0-5.414h2.5q.627 0 1.128-.242.507-.24.803-.676.302-.441.302-1.038 0-.767-.537-1.286-.537-.52-1.648-.52h-2.548zm14.987 3.17v-5.428h1.81V26.5h-1.774v-1.606h-.096a2.9 2.9 0 0 1-1.027 1.237q-.7.49-1.745.49-.892 0-1.581-.393-.682-.399-1.075-1.177-.386-.78-.386-1.926v-5.898h1.805v5.68q0 .95.525 1.51.525.561 1.364.561.508 0 1.009-.253.506-.255.839-.767.338-.513.332-1.304m4.236 3.845v-9.273h1.805V26.5zm.912-10.704q-.471 0-.81-.314a1.02 1.02 0 0 1-.331-.76q0-.447.332-.761.338-.32.809-.32.47 0 .803.32a1 1 0 0 1 .338.76q0 .441-.338.761-.333.315-.803.314m5.127-1.66v12.364h-1.805V14.137zm6.757 3.09v1.45h-5.065v-1.45zm-3.707-2.22h1.805v8.771q0 .526.157.79.158.261.404.357.254.09.55.09.217 0 .38-.03l.254-.048.326 1.491q-.157.06-.447.121a3.5 3.5 0 0 1-.725.072 3.2 3.2 0 0 1-1.328-.253 2.3 2.3 0 0 1-.996-.821q-.38-.555-.38-1.395zM85.75 26.5l-2.73-9.273h1.866l1.817 6.81h.091l1.823-6.81h1.865l1.812 6.78h.09l1.805-6.78h1.866L93.332 26.5h-1.841l-1.884-6.695h-.139L87.585 26.5zm12.018 0v-9.273h1.805V26.5zm.911-10.704q-.47 0-.809-.314a1.02 1.02 0 0 1-.332-.76q0-.447.332-.761.338-.32.81-.32.47 0 .802.32a1 1 0 0 1 .338.76q0 .441-.338.761-.332.315-.803.314m7.65 1.43v1.45h-5.065v-1.45zm-3.706-2.22h1.805v8.771q0 .526.157.79a.8.8 0 0 0 .404.357q.253.09.55.09.217 0 .38-.03l.254-.048.326 1.491q-.158.06-.447.121a3.5 3.5 0 0 1-.725.072 3.2 3.2 0 0 1-1.328-.253 2.3 2.3 0 0 1-.996-.821q-.38-.555-.38-1.395zm7.707 5.988V26.5h-1.805V14.137h1.781v4.6h.115q.325-.748.996-1.19.67-.44 1.751-.44.954 0 1.666.393.718.392 1.111 1.17.398.774.398 1.933V26.5h-1.805v-5.68q0-1.02-.525-1.582-.525-.567-1.461-.567-.64 0-1.147.271a1.96 1.96 0 0 0-.791.797q-.284.52-.284 1.256"/><path fill="#3178c6" d="M122.533 16.564v-2.427h10.45v2.427h-3.749V26.5h-2.946v-9.937zm12.652 13.414a5.7 5.7 0 0 1-1.003-.085 4 4 0 0 1-.808-.21l.652-2.144q.434.145.784.17.357.023.61-.116.26-.132.398-.477l.115-.277-3.296-9.611h3.091l1.708 6.616h.097l1.733-6.616h3.109l-3.496 10.16a4.3 4.3 0 0 1-.718 1.34 3.1 3.1 0 0 1-1.189.918q-.725.332-1.787.332m8.322 0v-12.75h2.921v1.588h.091q.181-.423.513-.815.338-.393.857-.64.525-.255 1.256-.254.966 0 1.805.507.846.508 1.364 1.564.52 1.056.52 2.692 0 1.575-.501 2.639-.496 1.063-1.341 1.593a3.4 3.4 0 0 1-1.865.532q-.7 0-1.214-.23a2.7 2.7 0 0 1-.863-.604 2.9 2.9 0 0 1-.531-.803h-.06v4.98zm2.891-8.114q0 .75.199 1.304.205.555.586.864.386.3.924.301.543 0 .923-.301.38-.309.574-.864.2-.555.199-1.304 0-.748-.199-1.298-.193-.55-.574-.85-.374-.303-.923-.303-.544 0-.924.296t-.586.845q-.199.55-.199 1.31m12.317 4.812q-1.455 0-2.511-.574a3.96 3.96 0 0 1-1.618-1.648q-.561-1.074-.562-2.553 0-1.437.568-2.512a4.1 4.1 0 0 1 1.6-1.678q1.032-.604 2.433-.604.99 0 1.811.308.82.308 1.418.912.599.604.93 1.49.332.882.332 2.023v.737h-8.059v-1.715h5.312a1.66 1.66 0 0 0-.223-.839 1.5 1.5 0 0 0-.598-.573 1.7 1.7 0 0 0-.863-.212q-.495 0-.888.224a1.68 1.68 0 0 0-.863 1.449v1.744q0 .567.224.996.223.423.633.658t.978.236q.392 0 .713-.109t.549-.32q.23-.21.344-.52l2.711.08a3.35 3.35 0 0 1-.743 1.587q-.567.67-1.491 1.044-.924.369-2.137.369m12.592-8.832q-.061-.664-.538-1.033-.47-.374-1.346-.374-.579 0-.966.151-.386.15-.579.417a1 1 0 0 0-.2.597.9.9 0 0 0 .109.49q.127.21.362.373.241.158.58.278t.76.212l1.063.241q.918.2 1.618.531.706.332 1.183.791.483.459.731 1.056.247.599.253 1.34-.006 1.172-.591 2.011-.586.84-1.685 1.286-1.093.447-2.638.447-1.551 0-2.704-.465t-1.793-1.413-.658-2.396h2.861q.036.597.32.996.284.398.779.603.5.206 1.159.206.603 0 1.026-.163.429-.164.658-.453a1.07 1.07 0 0 0 .236-.664.92.92 0 0 0-.218-.598q-.211-.254-.652-.435-.435-.187-1.111-.344l-1.291-.302q-1.606-.368-2.53-1.189-.924-.827-.918-2.233-.005-1.148.616-2.01.622-.864 1.721-1.347 1.098-.483 2.505-.483 1.437 0 2.493.489 1.063.483 1.648 1.358.586.876.598 2.029zm8.868 8.832q-1.467 0-2.518-.604a4.1 4.1 0 0 1-1.605-1.678q-.562-1.08-.562-2.5 0-1.424.562-2.499a4.1 4.1 0 0 1 1.611-1.684q1.051-.604 2.506-.604 1.286 0 2.239.465.96.465 1.498 1.316.543.845.573 1.986h-2.759q-.084-.712-.483-1.117-.392-.404-1.026-.404-.513 0-.899.29-.387.283-.604.845-.211.555-.211 1.376t.211 1.389q.217.561.604.851.386.285.899.284.41 0 .724-.175.32-.175.526-.514.205-.344.259-.833h2.759q-.042 1.147-.573 2.005a3.56 3.56 0 0 1-1.479 1.334q-.948.47-2.252.47m5.815-.175v-9.273h2.867v1.69h.097q.254-.917.827-1.364a2.1 2.1 0 0 1 1.334-.453q.206 0 .423.03.218.024.404.079v2.566a3 3 0 0 0-.555-.115 5 5 0 0 0-.604-.042q-.525 0-.948.235a1.7 1.7 0 0 0-.658.646 1.9 1.9 0 0 0-.235.966V26.5zm7.155 0v-9.273h2.952V26.5zm1.479-10.354q-.621 0-1.068-.41a1.32 1.32 0 0 1-.447-1.002q0-.58.447-.99a1.5 1.5 0 0 1 1.068-.417 1.5 1.5 0 0 1 1.069.417q.447.41.446.99 0 .585-.446 1.002-.44.41-1.069.41m3.352 13.83v-12.75h2.922v1.589h.091a3.2 3.2 0 0 1 .513-.815q.338-.393.857-.64.525-.255 1.256-.254a3.43 3.43 0 0 1 1.805.507q.845.508 1.364 1.564t.519 2.692q0 1.575-.501 2.639-.495 1.063-1.34 1.593a3.4 3.4 0 0 1-1.865.532q-.7 0-1.214-.23a2.6 2.6 0 0 1-.863-.604 2.9 2.9 0 0 1-.531-.803h-.061v4.98zm2.892-8.113q0 .75.199 1.304.205.555.586.864.386.3.923.301.544 0 .924-.301.38-.309.574-.864.199-.555.199-1.304 0-.748-.199-1.298-.193-.55-.574-.85-.374-.303-.924-.303-.543 0-.923.296t-.586.845q-.2.55-.199 1.31m13.216-4.636V19.4h-5.85v-2.173zm-4.624-2.222h2.952v8.579q0 .271.085.44.09.164.259.236.17.066.405.066.168 0 .356-.03.193-.036.29-.06l.446 2.13q-.212.061-.597.152a5 5 0 0 1-.912.115q-1.038.048-1.781-.242a2.3 2.3 0 0 1-1.129-.918q-.386-.621-.374-1.563z"/></g></g><rect width="220.858" height="37.858" x="1.071" y="1.071" stroke="#fff" stroke-opacity=".15" stroke-width="2.143" rx="6.929"/><defs><filter id="c" width="39.901" height="39.202" x="1.7" y=".4" color-interpolation-filters="sRGB" filterUnits="userSpaceOnUse"><feFlood flood-opacity="0" result="BackgroundImageFix"/><feColorMatrix in="SourceAlpha" result="hardAlpha" values="0 0 0 0 0 0 0 0 0 0 0 0 0 0 0 0 0 0 127 0"/><feOffset/><feGaussianBlur stdDeviation="2.8"/><feComposite in2="hardAlpha" operator="out"/><feColorMatrix values="0 0 0 0 0 0 0 0 0 0 0 0 0 0 0 0 0 0 0.25 0"/><feBlend in2="BackgroundImageFix" result="effect1_dropShadow_2_1078"/><feBlend in="SourceGraphic" in2="effect1_dropShadow_2_1078" result="shape"/></filter><filter id="d" width="184.429" height="32.429" x="36.287" y="3.786" color-interpolation-filters="sRGB" filterUnits="userSpaceOnUse"><feFlood flood-opacity="0" result="BackgroundImageFix"/><feColorMatrix in="SourceAlpha" result="hardAlpha" values="0 0 0 0 0 0 0 0 0 0 0 0 0 0 0 0 0 0 127 0"/><feOffset/><feGaussianBlur stdDeviation="2.857"/><feComposite in2="hardAlpha" operator="out"/><feColorMatrix values="0 0 0 0 0 0 0 0 0 0 0 0 0 0 0 0 0 0 0.25 0"/><feBlend in2="BackgroundImageFix" result="effect1_dropShadow_2_1078"/><feBlend in="SourceGraphic" in2="effect1_dropShadow_2_1078" result="shape"/></filter><linearGradient id="b" x1="111.501" x2="111.501" y1="0" y2="40.001" gradientUnits="userSpaceOnUse"><stop stop-color="#0c1f34"/><stop offset="1" stop-color="#051220"/></linearGradient><clipPath id="a"><rect width="223.001" height="40.001" fill="#fff" rx="8"/></clipPath></defs></svg>