<svg xmlns="http://www.w3.org/2000/svg" width="184" height="40" fill="none" viewBox="0 0 184 40"><rect width="184.001" height="40.001" fill="url(#a)" rx="8"/><rect width="181.858" height="37.858" x="1.071" y="1.071" stroke="#fff" stroke-opacity=".15" stroke-width="2.143" rx="6.929"/><g filter="url(#b)"><path fill="#42b883" d="m24.535 8.8-3.233 5.542L18.068 8.8H7.301l14 24.001 14.001-24z"/><path fill="#35495e" d="M24.535 8.8 21.3 14.342 18.068 8.8H12.9l8.401 14.4 8.401-14.4z"/></g><g filter="url(#c)"><path fill="#e8e8e8" d="M43.36 26.5V14.138h4.528q1.315 0 2.179.435.863.429 1.292 1.165.428.73.428 1.648 0 .773-.283 1.304-.285.525-.761.845a3.4 3.4 0 0 1-1.038.459v.12q.615.03 1.2.4.592.361.979 1.031.386.67.386 1.63 0 .948-.447 1.703-.44.748-1.364 1.19-.923.434-2.36.434zm1.865-1.6h2.693q1.34 0 1.92-.518a1.67 1.67 0 0 0 .579-1.298q0-.585-.296-1.075a2.1 2.1 0 0 0-.845-.779q-.543-.29-1.292-.29h-2.759zm0-5.414h2.5q.627 0 1.128-.242.507-.24.803-.676.302-.441.302-1.038 0-.767-.537-1.286-.537-.52-1.648-.52h-2.548zm14.987 3.17v-5.428h1.81v9.273h-1.774v-1.606h-.096a2.9 2.9 0 0 1-1.027 1.238q-.7.489-1.745.489-.892 0-1.581-.393-.682-.399-1.075-1.177-.386-.78-.386-1.926v-5.898h1.805v5.68q0 .95.525 1.51.525.561 1.364.561.508 0 1.009-.253.506-.255.839-.767.338-.513.332-1.304m4.236 3.845v-9.273h1.805V26.5zm.912-10.704q-.471 0-.81-.314a1.02 1.02 0 0 1-.331-.76q0-.447.332-.761.338-.32.809-.32.47 0 .803.32a1 1 0 0 1 .338.76q0 .442-.338.761-.333.315-.803.314m5.127-1.66V26.5h-1.805V14.137zm6.757 3.091v1.449h-5.065v-1.449zm-3.707-2.222h1.805v8.772q0 .526.157.79.158.261.404.357.254.09.55.09.217 0 .38-.03l.254-.048.326 1.491a3 3 0 0 1-.447.121 3.5 3.5 0 0 1-.725.073 3.2 3.2 0 0 1-1.328-.254 2.3 2.3 0 0 1-.996-.821q-.38-.555-.38-1.395zM85.75 26.501l-2.73-9.273h1.866l1.817 6.81h.091l1.823-6.81h1.865l1.812 6.78h.09l1.805-6.78h1.866l-2.723 9.273h-1.841l-1.884-6.695h-.139L87.585 26.5zm12.018 0v-9.273h1.805v9.273zm.911-10.704q-.47 0-.809-.314a1.02 1.02 0 0 1-.332-.76q0-.447.332-.761.338-.32.81-.32.47 0 .802.32a1 1 0 0 1 .338.76q0 .442-.338.761-.332.315-.803.314m7.65 1.431v1.449h-5.065v-1.449zm-3.706-2.222h1.805v8.772q0 .526.157.79a.8.8 0 0 0 .404.357q.253.09.55.09.217 0 .38-.03l.254-.048.326 1.491a3 3 0 0 1-.447.121 3.5 3.5 0 0 1-.725.073 3.2 3.2 0 0 1-1.328-.254 2.3 2.3 0 0 1-.996-.821q-.38-.555-.38-1.395zm7.707 5.989v5.506h-1.805V14.137h1.781v4.6h.115q.325-.748.996-1.189.67-.44 1.751-.44.954 0 1.666.392.718.392 1.111 1.17.398.774.398 1.933V26.5h-1.805v-5.68q0-1.02-.525-1.582-.525-.567-1.461-.567-.64 0-1.147.271a1.96 1.96 0 0 0-.791.797q-.284.52-.284 1.256"/><path fill="#42b883" d="m125.744 14.137 2.765 9.055h.103l2.765-9.055h3.344l-4.171 12.364h-3.979L122.4 14.137zm16.291 8.361v-5.27h2.946v9.273h-2.813v-1.727h-.097a2.7 2.7 0 0 1-1.05 1.352q-.737.495-1.781.495-.948 0-1.666-.434a2.96 2.96 0 0 1-1.117-1.214q-.399-.785-.405-1.835v-5.91h2.952v5.33q.007.756.399 1.19.393.434 1.068.434.441 0 .791-.193.357-.199.562-.573.211-.381.211-.918m9.16 4.178q-1.456 0-2.512-.574a3.97 3.97 0 0 1-1.618-1.648q-.561-1.074-.561-2.553 0-1.437.567-2.512.568-1.08 1.6-1.678 1.032-.604 2.433-.604.99 0 1.811.308.82.308 1.419.912.597.604.929 1.49.332.883.332 2.023v.737h-8.059v-1.715h5.313a1.66 1.66 0 0 0-.224-.839 1.5 1.5 0 0 0-.597-.573 1.73 1.73 0 0 0-.864-.212q-.495 0-.887.224a1.68 1.68 0 0 0-.863 1.449v1.744q0 .567.223.996.223.423.634.658t.978.236q.392 0 .712-.109.32-.108.55-.32.229-.21.344-.519l2.71.078a3.35 3.35 0 0 1-.742 1.588q-.569.67-1.491 1.044-.925.369-2.137.369m7.568 0a1.53 1.53 0 0 1-1.116-.459 1.5 1.5 0 0 1-.453-1.11q-.006-.641.453-1.093a1.53 1.53 0 0 1 1.116-.46q.616 0 1.087.46a1.47 1.47 0 0 1 .254 1.883 1.65 1.65 0 0 1-.574.568q-.35.21-.767.21m3.52-9.448h2.952v9.66q0 1.146-.471 1.822-.465.676-1.316.972t-2.01.296q-.158 0-.296-.006l-.302-.012v-2.24q.108.012.193.018t.169.006q.61 0 .845-.23.236-.222.236-.687zm1.473-1.08q-.622 0-1.069-.411a1.32 1.32 0 0 1-.446-1.002q0-.58.446-.99a1.5 1.5 0 0 1 1.069-.417q.628 0 1.068.417.447.41.447.99 0 .585-.447 1.002a1.5 1.5 0 0 1-1.068.41m11.453 3.911-2.71.073a1 1 0 0 0-.23-.513 1.2 1.2 0 0 0-.489-.357 1.7 1.7 0 0 0-.688-.132q-.513 0-.875.205-.357.205-.35.555a.6.6 0 0 0 .217.471q.23.2.815.32l1.787.338q1.389.265 2.065.882.682.615.688 1.63-.006.953-.568 1.66-.555.706-1.521 1.098-.966.387-2.209.387-1.987 0-3.134-.815-1.14-.82-1.304-2.198l2.916-.072q.097.507.501.773.405.265 1.033.265.567 0 .923-.211.356-.21.363-.561a.6.6 0 0 0-.278-.502q-.272-.192-.851-.301l-1.618-.308q-1.395-.254-2.077-.936-.682-.688-.676-1.75-.006-.93.495-1.588.501-.664 1.425-1.015.923-.35 2.179-.35 1.884 0 2.97.791 1.087.785 1.201 2.161"/></g><defs><filter id="b" width="39.901" height="39.202" x="1.7" y=".4" color-interpolation-filters="sRGB" filterUnits="userSpaceOnUse"><feFlood flood-opacity="0" result="BackgroundImageFix"/><feColorMatrix in="SourceAlpha" result="hardAlpha" values="0 0 0 0 0 0 0 0 0 0 0 0 0 0 0 0 0 0 127 0"/><feOffset/><feGaussianBlur stdDeviation="2.8"/><feComposite in2="hardAlpha" operator="out"/><feColorMatrix values="0 0 0 0 0 0 0 0 0 0 0 0 0 0 0 0 0 0 0.25 0"/><feBlend in2="BackgroundImageFix" result="effect1_dropShadow_2_1104"/><feBlend in="SourceGraphic" in2="effect1_dropShadow_2_1104" result="shape"/></filter><filter id="c" width="145.429" height="32.429" x="36.287" y="3.786" color-interpolation-filters="sRGB" filterUnits="userSpaceOnUse"><feFlood flood-opacity="0" result="BackgroundImageFix"/><feColorMatrix in="SourceAlpha" result="hardAlpha" values="0 0 0 0 0 0 0 0 0 0 0 0 0 0 0 0 0 0 127 0"/><feOffset/><feGaussianBlur stdDeviation="2.857"/><feComposite in2="hardAlpha" operator="out"/><feColorMatrix values="0 0 0 0 0 0 0 0 0 0 0 0 0 0 0 0 0 0 0.25 0"/><feBlend in2="BackgroundImageFix" result="effect1_dropShadow_2_1104"/><feBlend in="SourceGraphic" in2="effect1_dropShadow_2_1104" result="shape"/></filter><linearGradient id="a" x1="92.001" x2="92.001" y1="0" y2="40.001" gradientUnits="userSpaceOnUse"><stop stop-color="#0e3a26"/><stop offset="1" stop-color="#051e13"/></linearGradient></defs></svg>