<svg xmlns="http://www.w3.org/2000/svg" width="252" height="40" fill="none" viewBox="0 0 252 40"><g clip-path="url(#a)"><rect width="252.001" height="40.001" fill="url(#b)" rx="8"/><g filter="url(#c)"><path fill="#654ff0" d="M24.504 6v.15a3.21 3.21 0 1 1-6.422 0V6H7.301v28.002h28.001V6zm-3.84 25.004L19.3 24.257h-.023l-1.475 6.747h-1.88l-2.127-9.914h1.855l1.27 6.748h.023l1.53-6.748h1.734l1.373 6.83h.024l1.449-6.83h1.821l-2.365 9.914zm10.215 0-.632-2.206h-3.338l-.487 2.206h-1.855l2.399-9.914h2.927l2.917 9.914zm-2.797-7.47-.81 3.638h2.52l-.929-3.638z"/></g><g filter="url(#d)"><path fill="#e8e8e8" d="M43.36 26.5V14.138h4.528q1.315 0 2.179.435.863.429 1.292 1.165.428.73.428 1.648 0 .773-.283 1.304-.285.525-.761.845a3.4 3.4 0 0 1-1.038.459v.12q.615.03 1.2.4.592.361.979 1.031.386.67.386 1.63 0 .948-.447 1.703-.44.748-1.364 1.19-.923.434-2.36.434zm1.865-1.6h2.693q1.34 0 1.92-.518a1.67 1.67 0 0 0 .579-1.298q0-.585-.296-1.075a2.1 2.1 0 0 0-.845-.779q-.543-.29-1.292-.29h-2.759zm0-5.414h2.5q.627 0 1.128-.242.507-.24.803-.676.302-.441.302-1.038 0-.767-.537-1.286-.537-.52-1.648-.52h-2.548zm14.987 3.17v-5.428h1.81v9.273h-1.774v-1.606h-.096a2.9 2.9 0 0 1-1.027 1.238q-.7.489-1.745.489-.892 0-1.581-.393-.682-.399-1.075-1.177-.386-.78-.386-1.926v-5.898h1.805v5.68q0 .95.525 1.51.525.561 1.364.561.508 0 1.009-.253.506-.255.839-.767.338-.513.332-1.304m4.236 3.845v-9.273h1.805V26.5zm.912-10.704q-.471 0-.81-.314a1.02 1.02 0 0 1-.331-.76q0-.447.332-.761.338-.32.809-.32.47 0 .803.32a1 1 0 0 1 .338.76q0 .442-.338.761-.333.315-.803.314m5.127-1.66V26.5h-1.805V14.137zm6.757 3.091v1.449h-5.065v-1.449zm-3.707-2.222h1.805v8.772q0 .526.157.79.158.261.404.357.254.09.55.09.217 0 .38-.03l.254-.048.326 1.491a3 3 0 0 1-.447.121 3.5 3.5 0 0 1-.725.073 3.2 3.2 0 0 1-1.328-.254 2.3 2.3 0 0 1-.996-.821q-.38-.555-.38-1.395zM85.75 26.501l-2.73-9.273h1.866l1.817 6.81h.091l1.823-6.81h1.865l1.812 6.78h.09l1.805-6.78h1.866l-2.723 9.273h-1.841l-1.884-6.695h-.139L87.585 26.5zm12.018 0v-9.273h1.805v9.273zm.911-10.704q-.47 0-.809-.314a1.02 1.02 0 0 1-.332-.76q0-.447.332-.761.338-.32.81-.32.47 0 .802.32a1 1 0 0 1 .338.76q0 .442-.338.761-.332.315-.803.314m7.65 1.431v1.449h-5.065v-1.449zm-3.706-2.222h1.805v8.772q0 .526.157.79a.8.8 0 0 0 .404.357q.253.09.55.09.217 0 .38-.03l.254-.048.326 1.491a3 3 0 0 1-.447.121 3.5 3.5 0 0 1-.725.073 3.2 3.2 0 0 1-1.328-.254 2.3 2.3 0 0 1-.996-.821q-.38-.555-.38-1.395zm7.707 5.989v5.506h-1.805V14.137h1.781v4.6h.115q.325-.748.996-1.189.67-.44 1.751-.44.954 0 1.666.392.718.392 1.111 1.17.398.774.398 1.933V26.5h-1.805v-5.68q0-1.02-.525-1.582-.525-.567-1.461-.567-.64 0-1.147.271a1.96 1.96 0 0 0-.791.797q-.284.52-.284 1.256"/><path fill="#654ff0" d="m125.901 26.5-3.598-12.363h3.303l1.865 8.102h.103l2.131-8.102h2.692l2.131 8.12h.103l1.871-8.12h3.296l-3.592 12.364h-2.879l-2.228-7.498h-.096l-2.228 7.498zm18.437.176q-1.455 0-2.511-.574a3.96 3.96 0 0 1-1.618-1.648q-.562-1.074-.562-2.553 0-1.437.568-2.512a4.1 4.1 0 0 1 1.6-1.678q1.032-.604 2.433-.604.99 0 1.811.308a3.9 3.9 0 0 1 1.418.912q.599.604.93 1.49.332.883.332 2.023v.737h-8.059v-1.715h5.312a1.66 1.66 0 0 0-.223-.839 1.5 1.5 0 0 0-.598-.573 1.7 1.7 0 0 0-.863-.212q-.495 0-.888.224a1.68 1.68 0 0 0-.863 1.449v1.744q0 .567.224.996.223.423.633.658t.978.236q.392 0 .713-.109.32-.108.549-.32.23-.21.344-.519l2.711.078a3.35 3.35 0 0 1-.743 1.588q-.567.67-1.491 1.044-.924.369-2.137.369m5.909-.175V14.137h2.952v4.679h.06q.181-.423.513-.815.338-.393.858-.64.525-.255 1.255-.254.966 0 1.805.507.846.508 1.365 1.564t.519 2.692q0 1.575-.501 2.639-.495 1.063-1.34 1.593a3.4 3.4 0 0 1-1.866.532q-.7 0-1.213-.23a2.7 2.7 0 0 1-.864-.604 2.9 2.9 0 0 1-.531-.803h-.09v1.504zm2.891-4.637q0 .75.2 1.304.205.555.585.864.387.301.924.302.543 0 .924-.302.38-.308.573-.864.2-.555.199-1.304 0-.748-.199-1.298-.193-.55-.573-.85-.375-.303-.924-.303-.543 0-.924.296-.38.297-.585.845-.2.55-.2 1.31m10.076 4.637h-3.212l4.172-12.364h3.978l4.172 12.364h-3.212l-2.904-9.249h-.096zm-.429-4.866h6.714v2.27h-6.714zm18.683-1.576-2.71.073a1 1 0 0 0-.23-.513 1.24 1.24 0 0 0-.489-.357 1.7 1.7 0 0 0-.688-.132q-.513 0-.875.205-.357.205-.35.555a.6.6 0 0 0 .217.471q.229.2.815.32l1.787.338q1.388.265 2.064.882.683.615.689 1.63a2.62 2.62 0 0 1-.568 1.66q-.555.706-1.521 1.098-.966.387-2.21.387-1.986 0-3.133-.815-1.14-.82-1.304-2.198l2.916-.072q.096.507.501.773.405.265 1.032.265.569 0 .924-.211.357-.21.362-.561a.6.6 0 0 0-.277-.502q-.272-.192-.852-.301l-1.618-.308q-1.394-.254-2.076-.936-.682-.688-.676-1.75-.006-.93.495-1.588.501-.664 1.424-1.015.924-.35 2.18-.35 1.882 0 2.97.791 1.087.785 1.201 2.161m9.779 0-2.711.073a1 1 0 0 0-.229-.513 1.24 1.24 0 0 0-.489-.357 1.7 1.7 0 0 0-.689-.132q-.513 0-.875.205-.356.205-.35.555a.6.6 0 0 0 .217.471q.23.2.815.32l1.787.338q1.389.265 2.065.882.682.615.688 1.63-.006.953-.568 1.66-.555.706-1.521 1.098-.966.387-2.209.387-1.987 0-3.133-.815-1.142-.82-1.304-2.198l2.915-.072q.097.507.501.773.405.265 1.033.265.567 0 .923-.211.357-.21.363-.561a.6.6 0 0 0-.278-.502q-.272-.192-.851-.301l-1.618-.308q-1.395-.254-2.077-.936-.682-.688-.676-1.75-.006-.93.495-1.588.501-.664 1.425-1.015.923-.35 2.179-.35 1.884 0 2.97.791 1.087.785 1.202 2.161m6.017 6.617q-1.455 0-2.511-.574a3.96 3.96 0 0 1-1.618-1.648q-.562-1.074-.562-2.553 0-1.437.568-2.512.567-1.08 1.599-1.678 1.034-.604 2.433-.604.99 0 1.811.308.822.308 1.419.912t.93 1.49q.332.883.332 2.023v.737h-8.06v-1.715h5.313a1.66 1.66 0 0 0-.223-.839 1.5 1.5 0 0 0-.598-.573 1.7 1.7 0 0 0-.863-.212q-.495 0-.888.224a1.65 1.65 0 0 0-.622.597q-.228.375-.241.851v1.745q0 .567.223.996.224.423.634.658t.978.236q.393 0 .713-.109.32-.108.549-.32.23-.21.344-.519l2.711.078a3.36 3.36 0 0 1-.743 1.588q-.567.67-1.491 1.044-.924.369-2.137.369m5.909-.175v-9.273h2.807v1.702h.102a2.64 2.64 0 0 1 .978-1.334q.688-.489 1.642-.489.966 0 1.654.495.689.495.876 1.328h.096a2.4 2.4 0 0 1 1.015-1.322q.754-.5 1.781-.5 1.315 0 2.137.844.82.84.821 2.307V26.5h-2.952v-5.566q0-.694-.357-1.057-.356-.368-.923-.368-.61 0-.96.398-.344.393-.344 1.057V26.5h-2.838v-5.597q0-.645-.35-1.02-.35-.374-.923-.374-.387 0-.683.187-.296.18-.464.52a1.8 1.8 0 0 0-.163.796V26.5zm15.738 0V14.137h2.952v4.679h.06q.181-.423.513-.815.338-.393.858-.64.525-.255 1.255-.254.966 0 1.805.507.846.508 1.365 1.564t.519 2.692q0 1.575-.501 2.639-.495 1.063-1.34 1.593a3.4 3.4 0 0 1-1.866.532q-.7 0-1.213-.23a2.7 2.7 0 0 1-.864-.604 2.9 2.9 0 0 1-.531-.803h-.09v1.504zm2.891-4.637q0 .75.2 1.304.205.555.585.864.387.301.924.302.543 0 .924-.302.38-.308.573-.864.2-.555.199-1.304 0-.748-.199-1.298-.194-.55-.573-.85-.375-.303-.924-.303-.543 0-.924.296-.38.297-.585.845-.2.55-.2 1.31m10.935-7.727v12.364h-2.952V14.137zm3.684 15.841q-.531 0-1.002-.085a4 4 0 0 1-.809-.21l.652-2.144q.434.145.785.17.355.023.609-.116.26-.132.399-.477l.114-.277-3.296-9.611h3.091l1.709 6.616h.096l1.733-6.616h3.109l-3.495 10.16q-.254.76-.719 1.34-.459.586-1.189.918-.725.332-1.787.332"/></g></g><rect width="249.858" height="37.858" x="1.071" y="1.071" stroke="#fff" stroke-opacity=".15" stroke-width="2.143" rx="6.929"/><defs><filter id="c" width="39.901" height="39.202" x="1.7" y=".4" color-interpolation-filters="sRGB" filterUnits="userSpaceOnUse"><feFlood flood-opacity="0" result="BackgroundImageFix"/><feColorMatrix in="SourceAlpha" result="hardAlpha" values="0 0 0 0 0 0 0 0 0 0 0 0 0 0 0 0 0 0 127 0"/><feOffset/><feGaussianBlur stdDeviation="2.8"/><feComposite in2="hardAlpha" operator="out"/><feColorMatrix values="0 0 0 0 0 0 0 0 0 0 0 0 0 0 0 0 0 0 0.25 0"/><feBlend in2="BackgroundImageFix" result="effect1_dropShadow_2_1095"/><feBlend in="SourceGraphic" in2="effect1_dropShadow_2_1095" result="shape"/></filter><filter id="d" width="213.429" height="32.429" x="36.287" y="3.786" color-interpolation-filters="sRGB" filterUnits="userSpaceOnUse"><feFlood flood-opacity="0" result="BackgroundImageFix"/><feColorMatrix in="SourceAlpha" result="hardAlpha" values="0 0 0 0 0 0 0 0 0 0 0 0 0 0 0 0 0 0 127 0"/><feOffset/><feGaussianBlur stdDeviation="2.857"/><feComposite in2="hardAlpha" operator="out"/><feColorMatrix values="0 0 0 0 0 0 0 0 0 0 0 0 0 0 0 0 0 0 0.25 0"/><feBlend in2="BackgroundImageFix" result="effect1_dropShadow_2_1095"/><feBlend in="SourceGraphic" in2="effect1_dropShadow_2_1095" result="shape"/></filter><linearGradient id="b" x1="126.001" x2="126.001" y1="0" y2="40.001" gradientUnits="userSpaceOnUse"><stop stop-color="#140e3a"/><stop offset="1" stop-color="#0a0622"/></linearGradient><clipPath id="a"><rect width="252.001" height="40.001" fill="#fff" rx="8"/></clipPath></defs></svg>