<svg xmlns="http://www.w3.org/2000/svg" width="156" height="56" fill="none" viewBox="0 0 156 56"><rect width="156" height="56" fill="url(#a)" rx="8"/><rect width="153.9" height="53.9" x="1.05" y="1.05" stroke="#fff" stroke-opacity=".15" stroke-width="2.1" rx="6.95"/><g filter="url(#b)"><ellipse cx="32.002" cy="28.01" fill="#fff" rx="19.998" ry="19.99"/><path fill="url(#c)" d="M32.398 17.329c-.046 0-.114 0-.137.045l-.046.115 7.707 28.867a20 20 0 0 0 9.038-7.75L32.536 17.397a.18.18 0 0 0-.138-.069" opacity=".5"/><path fill="#2185d0" d="M31.929 8a20 20 0 0 0-17.446 10.342 19.98 19.98 0 0 0 .572 20.267l16.676-21.551c.052-.063.156-.104.27-.104s.21.041.272.104l16.665 21.551A20 20 0 0 0 52 27.99C52 16.955 43.042 8 32.002 8z"/></g><g filter="url(#d)"><path fill="#e8e8e8" d="M68.102 16.384q-.097-.857-.797-1.328-.7-.477-1.763-.477-.76 0-1.316.242-.555.235-.863.652a1.54 1.54 0 0 0-.302.935q0 .441.205.761.21.32.55.537.343.212.736.357.392.139.754.229l1.208.314q.592.144 1.213.392.623.248 1.153.652.532.405.858 1.002.331.599.332 1.431 0 1.05-.544 1.866-.538.814-1.563 1.285-1.02.471-2.47.471-1.388 0-2.402-.44t-1.588-1.25q-.573-.814-.634-1.932h1.872q.053.671.434 1.117.387.44.984.658.605.21 1.322.211.792 0 1.407-.247.622-.255.978-.7.356-.453.356-1.057 0-.549-.314-.9-.308-.35-.839-.58a8 8 0 0 0-1.189-.404l-1.461-.398q-1.485-.405-2.354-1.19-.864-.785-.864-2.076 0-1.068.58-1.865.58-.798 1.57-1.238.99-.447 2.233-.447 1.256 0 2.216.441.965.44 1.521 1.213.555.768.58 1.763zm8.048 9.303q-1.37 0-2.36-.585a3.97 3.97 0 0 1-1.521-1.66q-.532-1.075-.532-2.518 0-1.425.532-2.511.537-1.087 1.497-1.697.966-.61 2.257-.61.785 0 1.522.26.735.26 1.322.815.585.555.924 1.443.338.882.338 2.143v.64h-7.372v-1.352h5.603q0-.713-.29-1.262a2.2 2.2 0 0 0-.815-.875q-.519-.32-1.22-.32-.76 0-1.328.374a2.5 2.5 0 0 0-.869.966 2.8 2.8 0 0 0-.302 1.286v1.056q0 .93.326 1.582.333.652.924.996.591.338 1.382.338.513 0 .936-.145.423-.15.73-.447a1.94 1.94 0 0 0 .471-.73l1.709.308a3.1 3.1 0 0 1-.737 1.322q-.524.561-1.322.875-.79.308-1.805.308m9.978 0q-1.37 0-2.36-.585a3.97 3.97 0 0 1-1.522-1.66q-.531-1.075-.531-2.518 0-1.425.531-2.511.537-1.087 1.497-1.697.966-.61 2.258-.61.784 0 1.521.26t1.322.815.924 1.443q.338.882.338 2.143v.64h-7.37v-1.352h5.601q0-.713-.29-1.262a2.2 2.2 0 0 0-.814-.875q-.52-.32-1.22-.32-.76 0-1.328.374a2.5 2.5 0 0 0-.87.966 2.8 2.8 0 0 0-.301 1.286v1.056q0 .93.326 1.582.333.652.923.996.592.338 1.383.338.513 0 .936-.145.422-.15.73-.447a1.94 1.94 0 0 0 .471-.73l1.709.308a3.1 3.1 0 0 1-.737 1.322 3.6 3.6 0 0 1-1.322.875q-.79.308-1.805.308m16.354-4.033v-5.427h1.811V25.5h-1.775v-1.606h-.096a2.9 2.9 0 0 1-1.027 1.238q-.7.489-1.744.489-.894 0-1.582-.393-.682-.398-1.075-1.177-.386-.779-.386-1.926v-5.898h1.805v5.681q0 .948.525 1.51.525.56 1.365.56.507 0 1.008-.253.507-.254.839-.767.338-.513.332-1.303m11.185-3.163-1.636.29a2 2 0 0 0-.326-.598 1.6 1.6 0 0 0-.592-.465q-.374-.18-.936-.18-.766 0-1.279.343-.513.339-.514.876 0 .465.345.748.344.284 1.11.465l1.473.338q1.281.295 1.908.912.628.615.628 1.6a2.43 2.43 0 0 1-.483 1.485q-.477.645-1.334 1.014-.852.368-1.974.368-1.558 0-2.542-.664-.984-.67-1.207-1.902l1.744-.265q.163.682.671 1.032.507.345 1.322.344.887 0 1.418-.368.531-.374.532-.912a.95.95 0 0 0-.326-.73q-.321-.296-.984-.447l-1.57-.344q-1.297-.295-1.92-.942-.615-.645-.616-1.636 0-.82.459-1.437.46-.615 1.268-.96.809-.35 1.853-.35 1.503 0 2.367.652.863.647 1.141 1.733m10.57 7.196q-1.303 0-2.275-.598a4.03 4.03 0 0 1-1.51-1.672q-.537-1.074-.537-2.511 0-1.443.537-2.523.538-1.081 1.51-1.679t2.275-.598q1.305 0 2.276.598a4.03 4.03 0 0 1 1.51 1.678q.537 1.08.537 2.524 0 1.437-.537 2.511a4.04 4.04 0 0 1-1.51 1.672q-.971.598-2.276.598m.007-1.515q.845 0 1.4-.447.555-.446.821-1.19.272-.742.272-1.635 0-.888-.272-1.63-.266-.75-.821-1.201-.555-.453-1.4-.453-.852 0-1.413.453-.555.452-.827 1.2a4.8 4.8 0 0 0-.266 1.63q0 .894.266 1.637.272.742.827 1.19.561.446 1.413.446m8.136-4.178V25.5h-1.805v-9.273h1.732v1.51h.115a2.65 2.65 0 0 1 1.002-1.184q.689-.447 1.733-.447.948 0 1.66.399.712.393 1.105 1.171.392.78.392 1.926V25.5h-1.805v-5.68q0-1.01-.525-1.576-.525-.574-1.443-.574-.628 0-1.117.272a1.96 1.96 0 0 0-.767.797q-.277.519-.277 1.255"/><path fill="url(#e)" d="M72.158 36.616H69.14q-.06-.465-.248-.84a2 2 0 0 0-.495-.64 2.1 2.1 0 0 0-.73-.404 2.8 2.8 0 0 0-.924-.145q-.9 0-1.551.441-.646.44-.996 1.274-.344.832-.344 2.016 0 1.232.35 2.065.356.827.996 1.25.646.416 1.527.416.495 0 .9-.127.41-.126.718-.368.314-.247.513-.598a2.4 2.4 0 0 0 .284-.803l3.018.019a4.6 4.6 0 0 1-.477 1.617 5.2 5.2 0 0 1-1.08 1.455 5.1 5.1 0 0 1-1.678 1.039q-.984.386-2.258.386-1.679 0-3.007-.736-1.322-.743-2.088-2.162-.767-1.418-.767-3.453 0-2.04.779-3.459.778-1.419 2.107-2.155 1.327-.737 2.976-.737 1.122 0 2.076.314a5 5 0 0 1 1.679.906q.724.592 1.177 1.455.453.862.561 1.974m6.039 8.06q-1.461 0-2.511-.599a4.1 4.1 0 0 1-1.612-1.678q-.562-1.08-.562-2.505 0-1.432.562-2.505.567-1.08 1.612-1.679 1.05-.603 2.51-.604 1.462 0 2.506.604 1.05.598 1.612 1.678.567 1.075.568 2.506 0 1.425-.568 2.505a4.07 4.07 0 0 1-1.612 1.678q-1.044.598-2.505.598m.018-2.229q.531 0 .9-.326.368-.326.56-.905.2-.58.2-1.34 0-.773-.2-1.353-.192-.58-.56-.905a1.3 1.3 0 0 0-.9-.326 1.38 1.38 0 0 0-.93.326q-.374.327-.573.905-.195.58-.194 1.353 0 .76.194 1.34.199.58.573.905.381.327.93.326m9.565 2.186a3.4 3.4 0 0 1-1.865-.531q-.84-.532-1.34-1.594t-.501-2.638q0-1.636.519-2.693.52-1.056 1.358-1.563a3.47 3.47 0 0 1 1.817-.508q.73 0 1.25.254.52.247.857.64.339.392.513.815h.06v-4.679h2.953V44.5h-2.922v-1.503h-.09a2.9 2.9 0 0 1-.532.803q-.344.374-.863.603-.513.23-1.214.23m1.027-2.3q.537 0 .917-.302.382-.308.586-.863.205-.555.205-1.304 0-.762-.205-1.31-.2-.55-.586-.846a1.45 1.45 0 0 0-.917-.295q-.55 0-.93.302-.38.3-.58.85-.193.55-.193 1.299t.2 1.304q.198.555.573.863.381.302.93.302m10.795 2.342q-1.455 0-2.511-.573a3.97 3.97 0 0 1-1.618-1.648q-.561-1.075-.561-2.554 0-1.437.567-2.511.568-1.08 1.6-1.679 1.032-.603 2.433-.604.99 0 1.811.308a3.9 3.9 0 0 1 1.418.912q.599.604.93 1.491.332.882.332 2.023v.736h-8.06v-1.715h5.313a1.66 1.66 0 0 0-.223-.839 1.5 1.5 0 0 0-.598-.573 1.7 1.7 0 0 0-.863-.211q-.495 0-.887.223a1.68 1.68 0 0 0-.863 1.449v1.745q0 .567.223.996.223.421.634.658.41.235.978.235.392 0 .712-.109.32-.108.549-.32.23-.21.344-.519l2.711.079a3.35 3.35 0 0 1-.743 1.587q-.567.67-1.491 1.045-.923.368-2.137.368m5.909-.175V32.136h2.952v4.679h.06q.181-.422.513-.815.339-.393.858-.64.525-.254 1.255-.254.966 0 1.805.508.846.507 1.365 1.563t.519 2.693q0 1.575-.501 2.638-.495 1.063-1.34 1.594a3.4 3.4 0 0 1-1.866.53q-.7 0-1.213-.229a2.6 2.6 0 0 1-.863-.603 2.9 2.9 0 0 1-.532-.803h-.09V44.5zm2.892-4.636q0 .748.199 1.304.206.555.585.863.387.302.924.302.543 0 .924-.302.38-.308.573-.863.2-.555.199-1.304 0-.75-.199-1.298-.194-.55-.573-.852-.375-.3-.924-.301-.543 0-.924.295-.38.297-.585.846-.2.548-.199 1.31m12.316 4.811q-1.454 0-2.511-.573a3.97 3.97 0 0 1-1.618-1.648q-.561-1.075-.561-2.554 0-1.437.567-2.511.568-1.08 1.6-1.679 1.032-.603 2.433-.604.99 0 1.811.308.82.309 1.419.912.597.604.929 1.491.332.882.332 2.023v.736h-8.059v-1.715h5.313a1.66 1.66 0 0 0-.224-.839 1.5 1.5 0 0 0-.597-.573 1.73 1.73 0 0 0-.864-.211q-.495 0-.887.223a1.68 1.68 0 0 0-.863 1.449v1.745q0 .567.223.996.223.421.634.658.41.235.978.235.392 0 .712-.109.32-.108.549-.32.23-.21.345-.519l2.71.079a3.36 3.36 0 0 1-.742 1.587q-.569.67-1.491 1.045-.924.368-2.138.368m5.909-.175v-9.273h2.868v1.69h.096q.254-.917.827-1.364a2.1 2.1 0 0 1 1.334-.453q.206 0 .423.03.217.025.405.08v2.565a3 3 0 0 0-.556-.115 5 5 0 0 0-.604-.042q-.525 0-.947.235a1.7 1.7 0 0 0-.658.646 1.9 1.9 0 0 0-.236.966V44.5zm10.996 3.67q-1.322 0-2.263-.368-.942-.367-1.48-1.008a2.8 2.8 0 0 1-.645-1.449l2.795-.157q.079.284.289.495.217.212.562.326.35.115.821.115.742 0 1.225-.362.489-.356.489-1.25v-1.63h-.102a2.2 2.2 0 0 1-.532.767 2.5 2.5 0 0 1-.887.531q-.525.193-1.207.193a3.76 3.76 0 0 1-1.86-.47q-.839-.478-1.346-1.474-.501-1.002-.501-2.577 0-1.624.519-2.675.52-1.056 1.358-1.563a3.5 3.5 0 0 1 1.818-.508q.73 0 1.249.254.525.247.863.64.339.392.514.815h.084v-1.588h2.94v9.31q0 1.176-.591 1.985-.592.81-1.655 1.226-1.062.422-2.457.422m.091-5.946q.537 0 .918-.284.38-.283.585-.815.205-.53.205-1.273 0-.755-.205-1.298-.2-.55-.585-.846a1.45 1.45 0 0 0-.918-.295q-.549 0-.93.302-.38.3-.579.85-.194.544-.194 1.287t.2 1.273.573.815q.381.284.93.284"/></g><defs><linearGradient id="a" x1="78" x2="78" y1="0" y2="56" gradientUnits="userSpaceOnUse"><stop stop-color="#132430"/><stop offset="1" stop-color="#323232"/></linearGradient><linearGradient id="c" x1="32.398" x2="45.235" y1="17.329" y2="42.99" gradientUnits="userSpaceOnUse"><stop stop-color="#fff" stop-opacity="0"/><stop offset=".5" stop-color="#71c2ff"/><stop offset="1" stop-color="#39aaff"/></linearGradient><linearGradient id="e" x1="102" x2="102" y1="29.5" y2="47.5" gradientUnits="userSpaceOnUse"><stop stop-color="#7ab3de"/><stop offset="1" stop-color="#c1d8ea"/></linearGradient><filter id="b" width="51.429" height="51.429" x="6.286" y="2.286" color-interpolation-filters="sRGB" filterUnits="userSpaceOnUse"><feFlood flood-opacity="0" result="BackgroundImageFix"/><feColorMatrix in="SourceAlpha" result="hardAlpha" values="0 0 0 0 0 0 0 0 0 0 0 0 0 0 0 0 0 0 127 0"/><feOffset/><feGaussianBlur stdDeviation="2.857"/><feComposite in2="hardAlpha" operator="out"/><feColorMatrix values="0 0 0 0 0 0 0 0 0 0 0 0 0 0 0 0 0 0 0.25 0"/><feBlend in2="BackgroundImageFix" result="effect1_dropShadow_28_877"/><feBlend in="SourceGraphic" in2="effect1_dropShadow_28_877" result="shape"/></filter><filter id="d" width="95.2" height="50.87" x="54.4" y="2.9" color-interpolation-filters="sRGB" filterUnits="userSpaceOnUse"><feFlood flood-opacity="0" result="BackgroundImageFix"/><feColorMatrix in="SourceAlpha" result="hardAlpha" values="0 0 0 0 0 0 0 0 0 0 0 0 0 0 0 0 0 0 127 0"/><feOffset/><feGaussianBlur stdDeviation="2.8"/><feComposite in2="hardAlpha" operator="out"/><feColorMatrix values="0 0 0 0 0 0 0 0 0 0 0 0 0 0 0 0 0 0 0.25 0"/><feBlend in2="BackgroundImageFix" result="effect1_dropShadow_28_877"/><feBlend in="SourceGraphic" in2="effect1_dropShadow_28_877" result="shape"/></filter></defs></svg>