<svg xmlns="http://www.w3.org/2000/svg" width="197" height="56" fill="none" viewBox="0 0 197 56"><rect width="197" height="56" fill="url(#a)" rx="8"/><rect width="194.9" height="53.9" x="1.05" y="1.05" stroke="#fff" stroke-opacity=".15" stroke-width="2.1" rx="6.95"/><g filter="url(#b)"><path fill="#5865f2" d="M45.86 15.493a33.7 33.7 0 0 0-8.146-2.491c-.053 0-.106 0-.128.063a22 22 0 0 0-1.014 2.05 31 31 0 0 0-9.15 0 14.4 14.4 0 0 0-1.067-2.05c-.032-.042-.075-.073-.128-.063-2.456.483-5.594 1.366-8.114 2.491-.021 0-.043.021-.053.042-5.232 7.673-6.62 15.03-5.872 22.388 0 .032.021.074.053.105 3.417 2.48 6.726 3.995 9.993 4.972.053 0 .107 0 .139-.042a23.6 23.6 0 0 0 2.05-3.28.12.12 0 0 0-.075-.168 24 24 0 0 1-3.128-1.471.122.122 0 0 1 0-.21c.213-.158.427-.316.62-.473.031-.032.084-.032.127-.021 6.555 2.943 13.666 2.943 20.071 0a.14.14 0 0 1 .128.01c.203.168.406.326.62.484.074.052.064.168 0 .21a21 21 0 0 1-3.129 1.471c-.074.032-.106.105-.064.18a26 26 0 0 0 2.029 3.257.12.12 0 0 0 .139.042 33.6 33.6 0 0 0 10.014-4.971c.032-.021.053-.053.053-.105.833-8.503-1.398-15.872-5.914-22.388 0-.021-.032-.042-.054-.042zM25.362 33.467c-2.028 0-3.63-1.787-3.63-3.994s1.602-3.995 3.63-3.995c2.029 0 3.63 1.787 3.63 3.994s-1.601 3.995-3.63 3.995m13.345 0c-2.028 0-3.63-1.787-3.63-3.994s1.602-3.995 3.63-3.995c2.029 0 3.63 1.787 3.63 3.994s-1.601 3.995-3.63 3.995"/></g><g filter="url(#c)"><path fill="#e8e8e8" d="M70.943 16.648h-1.772a2.7 2.7 0 0 0-1.063-1.733q-.403-.301-.904-.455a3.5 3.5 0 0 0-1.05-.153q-1.006 0-1.802.505-.79.506-1.25 1.484-.454.976-.454 2.386 0 1.42.454 2.398.46.977 1.256 1.477.795.5 1.79.5.551 0 1.045-.148.5-.153.904-.449a2.72 2.72 0 0 0 1.074-1.71l1.772.006a4.8 4.8 0 0 1-.551 1.58q-.403.716-1.04 1.238-.63.517-1.443.801a5.3 5.3 0 0 1-1.773.284q-1.51 0-2.693-.716-1.182-.72-1.863-2.062-.677-1.34-.677-3.2 0-1.863.682-3.198.682-1.341 1.864-2.057 1.182-.721 2.687-.722.927 0 1.728.268.806.26 1.448.772.642.505 1.063 1.239.42.727.568 1.665m3.663 2.67V24.5h-1.698V12.864h1.676v4.33h.108q.306-.706.937-1.12.63-.415 1.648-.415.898 0 1.568.37.676.369 1.046 1.102.375.727.375 1.818V24.5h-1.7v-5.347q0-.96-.494-1.488-.494-.534-1.375-.534a2.25 2.25 0 0 0-1.08.255q-.471.255-.743.75-.267.489-.267 1.182m10.466 5.375a3.6 3.6 0 0 1-1.5-.307 2.53 2.53 0 0 1-1.062-.903q-.386-.591-.386-1.449 0-.739.284-1.216t.767-.756a4 4 0 0 1 1.08-.42q.596-.142 1.215-.216l1.273-.148q.489-.061.71-.198.222-.137.222-.444v-.04q0-.744-.42-1.153-.415-.41-1.24-.409-.857 0-1.352.38-.487.376-.676.836l-1.596-.364q.283-.795.83-1.284.55-.495 1.266-.716.717-.227 1.506-.227.522 0 1.108.125.59.12 1.102.443.517.324.847.926.33.597.33 1.552V24.5h-1.66v-1.193h-.068q-.165.33-.494.648-.33.318-.847.528t-1.239.21m.37-1.364q.705 0 1.204-.278a1.95 1.95 0 0 0 .767-.727q.267-.454.267-.972v-1.125q-.09.091-.352.17-.255.075-.585.131-.33.052-.642.097l-.523.068q-.494.063-.903.21-.404.148-.648.427-.24.272-.239.727 0 .63.466.954.466.32 1.188.319m10.274-7.556v1.363H90.95v-1.363zm-3.489-2.091h1.7v8.256q0 .493.147.744a.77.77 0 0 0 .38.335q.24.085.518.085.204 0 .358-.028l.238-.046.307 1.404a3 3 0 0 1-.42.114q-.273.062-.682.068a3 3 0 0 1-1.25-.239 2.15 2.15 0 0 1-.938-.773q-.357-.523-.358-1.312zM103.722 24.5l-2.569-8.727h1.756l1.71 6.409h.086l1.715-6.41h1.756l1.705 6.381h.085l1.699-6.38h1.755l-2.562 8.727h-1.733l-1.773-6.301h-.13l-1.773 6.301zm11.311 0v-8.727h1.699V24.5zm.858-10.074a1.08 1.08 0 0 1-.762-.295.96.96 0 0 1-.312-.716.95.95 0 0 1 .312-.716q.318-.3.762-.301.443 0 .755.3a.94.94 0 0 1 .318.717.95.95 0 0 1-.318.716q-.312.295-.755.295m7.2 1.347v1.363h-4.767v-1.363zm-3.489-2.091h1.699v8.256q0 .493.148.744a.77.77 0 0 0 .381.335q.238.085.517.085a2 2 0 0 0 .358-.028l.238-.046.307 1.404a3 3 0 0 1-.42.114q-.273.062-.682.068a3 3 0 0 1-1.25-.239 2.14 2.14 0 0 1-.938-.773q-.357-.523-.358-1.312zm7.255 5.636V24.5h-1.699V12.864h1.676v4.33h.108q.306-.706.937-1.12t1.648-.415q.897 0 1.568.37.676.369 1.046 1.102.375.727.375 1.818V24.5h-1.699v-5.347q0-.96-.495-1.488-.493-.534-1.375-.534-.602 0-1.079.255-.472.255-.744.75-.267.489-.267 1.182m12.16 5.182v-8.727h1.631v1.42h.108a2.25 2.25 0 0 1 .892-1.125q.62-.41 1.483-.409.875 0 1.466.41a2.4 2.4 0 0 1 .88 1.124h.091q.312-.699.994-1.114.683-.42 1.625-.42 1.188 0 1.938.744.756.745.756 2.245V24.5h-1.699v-5.693q0-.887-.483-1.284a1.76 1.76 0 0 0-1.154-.398q-.83 0-1.289.511-.46.506-.461 1.302V24.5h-1.693v-5.801q0-.71-.443-1.142t-1.153-.432q-.483 0-.892.256a1.9 1.9 0 0 0-.654.698 2.14 2.14 0 0 0-.244 1.04V24.5zm17.902.176q-1.29 0-2.222-.551a3.74 3.74 0 0 1-1.431-1.562q-.5-1.012-.5-2.37 0-1.341.5-2.364a3.9 3.9 0 0 1 1.409-1.596q.909-.574 2.125-.574.738 0 1.432.244.693.244 1.244.768.55.522.869 1.357.318.83.318 2.018v.602h-6.937v-1.273h5.273q0-.67-.273-1.187a2.07 2.07 0 0 0-.767-.824q-.49-.302-1.148-.302-.716 0-1.25.353a2.36 2.36 0 0 0-.818.909q-.284.556-.284 1.21v.994q0 .876.307 1.489.312.615.869.938.557.318 1.301.318.483 0 .881-.137a1.83 1.83 0 0 0 1.13-1.108l1.608.29a2.9 2.9 0 0 1-.693 1.244 3.35 3.35 0 0 1-1.244.824q-.744.29-1.699.29m13.54 0q-1.227 0-2.142-.562a3.8 3.8 0 0 1-1.421-1.574q-.505-1.011-.505-2.364 0-1.358.505-2.375a3.8 3.8 0 0 1 1.421-1.58q.915-.561 2.142-.562 1.227 0 2.142.563t1.42 1.58q.506 1.016.506 2.374 0 1.353-.506 2.364a3.8 3.8 0 0 1-1.42 1.574q-.915.562-2.142.562m.005-1.426q.796 0 1.319-.42t.772-1.12q.256-.699.256-1.54 0-.835-.256-1.534a2.5 2.5 0 0 0-.772-1.13q-.523-.426-1.319-.427-.801 0-1.329.427a2.53 2.53 0 0 0-.778 1.13q-.25.7-.25 1.535 0 .84.25 1.54.255.697.778 1.119.528.42 1.329.42m7.658-3.932V24.5h-1.699v-8.727h1.631v1.42h.108q.301-.693.943-1.114.647-.42 1.631-.42.891 0 1.562.375.67.37 1.04 1.102.369.733.369 1.813V24.5h-1.699v-5.347q0-.948-.494-1.482-.494-.54-1.358-.54-.59 0-1.051.255-.454.255-.722.75-.261.489-.261 1.182"/><path fill="#5865f2" d="M65.506 43.5h-4.57V31.136H65.5q1.89 0 3.254.743a5.1 5.1 0 0 1 2.112 2.125q.743 1.383.743 3.308 0 1.932-.742 3.32a5.1 5.1 0 0 1-2.107 2.132q-1.371.735-3.254.736m-1.582-2.548h1.467q1.038 0 1.757-.35.725-.355 1.092-1.153.375-.802.375-2.137t-.375-2.125q-.374-.796-1.104-1.147-.725-.356-1.787-.356h-1.425zm9.43 2.548v-9.273h2.952V43.5zm1.479-10.353q-.622 0-1.069-.41a1.32 1.32 0 0 1-.447-1.003q0-.579.447-.99a1.5 1.5 0 0 1 1.069-.417q.628 0 1.068.417.447.411.447.99 0 .585-.447 1.002-.44.41-1.068.41m11.447 3.912-2.71.072a1 1 0 0 0-.23-.513 1.24 1.24 0 0 0-.489-.356 1.7 1.7 0 0 0-.688-.133q-.513 0-.875.205-.356.205-.35.556a.6.6 0 0 0 .217.47q.229.2.815.32l1.787.339q1.388.265 2.064.88.683.617.689 1.63-.007.955-.568 1.661-.555.706-1.521 1.099-.966.386-2.21.386-1.986 0-3.133-.815-1.14-.821-1.304-2.197l2.916-.073q.096.507.501.773t1.032.266q.569 0 .924-.212.357-.21.362-.561a.6.6 0 0 0-.277-.501q-.271-.194-.852-.302l-1.617-.308q-1.395-.253-2.077-.936-.682-.688-.676-1.75-.007-.93.495-1.588.501-.664 1.424-1.014.924-.35 2.18-.35 1.883 0 2.97.79 1.087.785 1.201 2.162m6.011 6.616q-1.466 0-2.517-.604a4.1 4.1 0 0 1-1.606-1.678q-.561-1.08-.561-2.5 0-1.424.561-2.498a4.1 4.1 0 0 1 1.612-1.685q1.05-.603 2.505-.604 1.287 0 2.24.465.96.465 1.497 1.316.544.846.574 1.987h-2.759q-.084-.713-.483-1.117-.393-.405-1.026-.405-.513 0-.9.29-.386.284-.603.845-.212.556-.212 1.377 0 .82.212 1.388.217.561.603.851.387.285.9.284.41 0 .724-.175.32-.175.525-.513.206-.344.26-.833h2.759q-.043 1.146-.574 2.004a3.56 3.56 0 0 1-1.479 1.334q-.948.471-2.252.471m10.144 0q-1.461 0-2.511-.598a4.1 4.1 0 0 1-1.612-1.678q-.562-1.08-.562-2.505 0-1.432.562-2.505.568-1.08 1.612-1.679 1.05-.603 2.511-.604 1.461 0 2.505.604a4 4 0 0 1 1.612 1.678q.568 1.075.568 2.506 0 1.425-.568 2.505a4.07 4.07 0 0 1-1.612 1.678q-1.044.598-2.505.598m.018-2.228q.531 0 .9-.326.368-.326.561-.905.2-.58.199-1.34 0-.773-.199-1.353-.194-.58-.561-.905a1.3 1.3 0 0 0-.9-.326q-.55 0-.929.326-.375.327-.574.905-.193.58-.193 1.353 0 .76.193 1.34.2.58.574.905.38.327.929.326m6.179 2.053v-9.273h2.868v1.69h.096q.254-.917.827-1.364a2.1 2.1 0 0 1 1.334-.453q.206 0 .423.03.218.025.404.08v2.565a3 3 0 0 0-.555-.115 5 5 0 0 0-.604-.042q-.525 0-.947.235a1.7 1.7 0 0 0-.659.646 1.9 1.9 0 0 0-.235.966V43.5zm10.061.133a3.4 3.4 0 0 1-1.866-.531q-.839-.532-1.34-1.594t-.501-2.638q0-1.636.519-2.693.52-1.056 1.358-1.563a3.5 3.5 0 0 1 1.817-.508q.73 0 1.25.254.52.247.857.64.339.392.513.815h.061v-4.679h2.952V43.5h-2.922v-1.503h-.091a2.9 2.9 0 0 1-.531.803q-.344.374-.863.603-.513.23-1.213.23m1.026-2.3q.537 0 .917-.302.38-.308.586-.863t.205-1.304q0-.762-.205-1.31-.2-.55-.586-.846a1.45 1.45 0 0 0-.917-.295q-.549 0-.93.302-.38.3-.579.85-.194.55-.194 1.299t.2 1.304q.199.555.573.863.381.302.93.302"/></g><defs><filter id="b" width="51.429" height="51.429" x="6.286" y="2.286" color-interpolation-filters="sRGB" filterUnits="userSpaceOnUse"><feFlood flood-opacity="0" result="BackgroundImageFix"/><feColorMatrix in="SourceAlpha" result="hardAlpha" values="0 0 0 0 0 0 0 0 0 0 0 0 0 0 0 0 0 0 127 0"/><feOffset/><feGaussianBlur stdDeviation="2.857"/><feComposite in2="hardAlpha" operator="out"/><feColorMatrix values="0 0 0 0 0 0 0 0 0 0 0 0 0 0 0 0 0 0 0.25 0"/><feBlend in2="BackgroundImageFix" result="effect1_dropShadow_28_787"/><feBlend in="SourceGraphic" in2="effect1_dropShadow_28_787" result="shape"/></filter><filter id="c" width="136.2" height="48.2" x="54.4" y="3.9" color-interpolation-filters="sRGB" filterUnits="userSpaceOnUse"><feFlood flood-opacity="0" result="BackgroundImageFix"/><feColorMatrix in="SourceAlpha" result="hardAlpha" values="0 0 0 0 0 0 0 0 0 0 0 0 0 0 0 0 0 0 127 0"/><feOffset/><feGaussianBlur stdDeviation="2.8"/><feComposite in2="hardAlpha" operator="out"/><feColorMatrix values="0 0 0 0 0 0 0 0 0 0 0 0 0 0 0 0 0 0 0.25 0"/><feBlend in2="BackgroundImageFix" result="effect1_dropShadow_28_787"/><feBlend in="SourceGraphic" in2="effect1_dropShadow_28_787" result="shape"/></filter><linearGradient id="a" x1="98.5" x2="98.5" y1="0" y2="56" gradientUnits="userSpaceOnUse"><stop stop-color="#1b1d31"/><stop offset="1" stop-color="#11121f"/></linearGradient></defs></svg>