<svg xmlns="http://www.w3.org/2000/svg" width="192" height="56" fill="none" viewBox="0 0 192 56"><rect width="192" height="56" fill="url(#a)" rx="8"/><rect width="189.9" height="53.9" x="1.05" y="1.05" stroke="#fff" stroke-opacity=".15" stroke-width="2.1" rx="6.95"/><g filter="url(#b)"><path fill="#2299f8" d="M32.73 46.572c-4.752 0-9.102-1.66-12.46-4.406L12 43.239l3.19-7.537A17.8 17.8 0 0 1 13.458 28c0-10.259 8.632-18.571 19.27-18.571C43.38 9.429 52 17.74 52 28c0 10.258-8.62 18.572-19.27 18.572"/><path fill="#fcfcfc" d="M32.853 18.095H25.75v19.81h7.003c6.625 0 10.497-4.247 10.497-9.96v-.052c0-5.71-3.822-9.798-10.397-9.798m5.155 9.918c0 3.209-2.025 5.019-5.08 5.019h-2.075V22.954h2.075c3.055 0 5.08 1.837 5.08 5.006z"/></g><g filter="url(#c)"><path fill="#e8e8e8" d="M70.943 16.648h-1.772a2.7 2.7 0 0 0-1.063-1.733q-.403-.301-.904-.455a3.5 3.5 0 0 0-1.05-.153q-1.006 0-1.802.505-.79.506-1.25 1.484-.454.976-.454 2.386 0 1.42.454 2.398.46.977 1.256 1.477.795.5 1.79.5.551 0 1.045-.148.5-.153.904-.449a2.72 2.72 0 0 0 1.074-1.71l1.772.006a4.8 4.8 0 0 1-.551 1.58q-.403.716-1.04 1.238-.63.517-1.443.801a5.3 5.3 0 0 1-1.773.284q-1.51 0-2.693-.716-1.182-.72-1.863-2.062-.677-1.34-.677-3.2 0-1.863.682-3.198.682-1.341 1.864-2.057 1.182-.721 2.687-.722.927 0 1.728.268.806.26 1.448.772.642.505 1.063 1.239.42.727.568 1.665m3.663 2.67V24.5h-1.698V12.864h1.676v4.33h.108q.306-.706.937-1.12.63-.415 1.648-.415.898 0 1.568.37.676.369 1.046 1.102.375.727.375 1.818V24.5h-1.7v-5.347q0-.96-.494-1.488-.494-.534-1.375-.534a2.25 2.25 0 0 0-1.08.255q-.471.255-.743.75-.267.489-.267 1.182m10.466 5.375a3.6 3.6 0 0 1-1.5-.307 2.53 2.53 0 0 1-1.062-.903q-.386-.591-.386-1.449 0-.739.284-1.216t.767-.756a4 4 0 0 1 1.08-.42q.596-.142 1.215-.216l1.273-.148q.489-.061.71-.198.222-.137.222-.444v-.04q0-.744-.42-1.153-.415-.41-1.24-.409-.857 0-1.352.38-.487.376-.676.836l-1.596-.364q.283-.795.83-1.284.55-.495 1.266-.716.717-.227 1.506-.227.522 0 1.108.125.59.12 1.102.443.517.324.847.926.33.597.33 1.552V24.5h-1.66v-1.193h-.068q-.165.33-.494.648-.33.318-.847.528t-1.239.21m.37-1.364q.705 0 1.204-.278a1.95 1.95 0 0 0 .767-.727q.267-.454.267-.972v-1.125q-.09.091-.352.17-.255.075-.585.131-.33.052-.642.097l-.523.068q-.494.063-.903.21-.404.148-.648.427-.24.272-.239.727 0 .63.466.954.466.32 1.188.319m10.274-7.556v1.363H90.95v-1.363zm-3.489-2.091h1.7v8.256q0 .493.147.744a.77.77 0 0 0 .38.335q.24.085.518.085.204 0 .358-.028l.238-.046.307 1.404a3 3 0 0 1-.42.114q-.273.062-.682.068a3 3 0 0 1-1.25-.239 2.15 2.15 0 0 1-.938-.773q-.357-.523-.358-1.312zM103.722 24.5l-2.569-8.727h1.756l1.71 6.409h.086l1.715-6.41h1.756l1.705 6.381h.085l1.699-6.38h1.755l-2.562 8.727h-1.733l-1.773-6.301h-.13l-1.773 6.301zm11.311 0v-8.727h1.699V24.5zm.858-10.074a1.08 1.08 0 0 1-.762-.295.96.96 0 0 1-.312-.716.95.95 0 0 1 .312-.716q.318-.3.762-.301.443 0 .755.3a.94.94 0 0 1 .318.717.95.95 0 0 1-.318.716q-.312.295-.755.295m7.2 1.347v1.363h-4.767v-1.363zm-3.489-2.091h1.699v8.256q0 .493.148.744a.77.77 0 0 0 .381.335q.238.085.517.085a2 2 0 0 0 .358-.028l.238-.046.307 1.404a3 3 0 0 1-.42.114q-.273.062-.682.068a3 3 0 0 1-1.25-.239 2.14 2.14 0 0 1-.938-.773q-.357-.523-.358-1.312zm7.255 5.636V24.5h-1.699V12.864h1.676v4.33h.108q.306-.706.937-1.12t1.648-.415q.897 0 1.568.37.676.369 1.046 1.102.375.727.375 1.818V24.5h-1.699v-5.347q0-.96-.495-1.488-.493-.534-1.375-.534-.602 0-1.079.255-.472.255-.744.75-.267.489-.267 1.182m17.688 1.563v-5.108h1.705V24.5h-1.67v-1.511h-.091a2.73 2.73 0 0 1-.966 1.164q-.66.46-1.642.46-.841 0-1.489-.369-.642-.375-1.011-1.108-.364-.732-.364-1.812v-5.551h1.699v5.346q0 .893.494 1.42.495.53 1.284.53.477 0 .949-.24.477-.239.79-.721.318-.483.312-1.227m10.527-2.978-1.539.273a1.8 1.8 0 0 0-.307-.562 1.5 1.5 0 0 0-.557-.438q-.352-.17-.881-.17-.721 0-1.204.323-.483.319-.483.824 0 .438.324.705t1.045.438l1.387.318q1.204.277 1.795.858.591.58.591 1.505 0 .785-.455 1.398-.448.608-1.255.954-.802.348-1.858.347-1.467 0-2.392-.625-.927-.63-1.137-1.79l1.642-.25q.154.642.631.972.477.324 1.244.324.835 0 1.336-.347.5-.352.5-.858a.9.9 0 0 0-.307-.687q-.302-.279-.926-.42l-1.478-.325q-1.221-.277-1.806-.886-.58-.607-.58-1.54a2.2 2.2 0 0 1 .432-1.352q.431-.579 1.193-.903.762-.33 1.744-.33 1.415 0 2.228.614.812.608 1.073 1.63m9.949 6.773q-1.227 0-2.142-.562a3.8 3.8 0 0 1-1.42-1.574q-.506-1.011-.506-2.364 0-1.358.506-2.375a3.8 3.8 0 0 1 1.42-1.58q.915-.561 2.142-.562 1.227 0 2.142.563t1.421 1.58q.505 1.016.505 2.374 0 1.353-.505 2.364a3.8 3.8 0 0 1-1.421 1.574q-.915.562-2.142.562m.006-1.426q.796 0 1.318-.42.523-.42.773-1.12.255-.699.256-1.54 0-.835-.256-1.534a2.5 2.5 0 0 0-.773-1.13q-.523-.426-1.318-.427-.8 0-1.33.427a2.54 2.54 0 0 0-.778 1.13q-.25.7-.25 1.535 0 .84.25 1.54.255.697.778 1.119.53.42 1.33.42m7.658-3.932V24.5h-1.699v-8.727h1.63v1.42h.108q.302-.693.944-1.114.647-.42 1.63-.42.893 0 1.563.375.67.37 1.04 1.102.369.733.369 1.813V24.5h-1.699v-5.347q0-.948-.494-1.482-.495-.54-1.358-.54-.591 0-1.051.255-.455.255-.722.75-.261.489-.261 1.182"/><path fill="#2299f8" d="M65.506 43.5h-4.57V31.136H65.5q1.89 0 3.254.743a5.1 5.1 0 0 1 2.112 2.125q.743 1.383.743 3.308 0 1.932-.742 3.32a5.1 5.1 0 0 1-2.107 2.132q-1.371.735-3.254.736m-1.582-2.548h1.467q1.038 0 1.757-.35.725-.355 1.092-1.153.375-.802.375-2.137t-.375-2.125q-.374-.796-1.104-1.147-.725-.356-1.787-.356h-1.425zm9.43 2.548v-9.273h2.952V43.5zm1.479-10.353q-.622 0-1.069-.41a1.32 1.32 0 0 1-.447-1.003q0-.579.447-.99a1.5 1.5 0 0 1 1.069-.417q.628 0 1.068.417.447.411.447.99 0 .585-.447 1.002-.44.41-1.068.41m11.447 3.912-2.71.072a1 1 0 0 0-.23-.513 1.24 1.24 0 0 0-.489-.356 1.7 1.7 0 0 0-.688-.133q-.513 0-.875.205-.356.205-.35.556a.6.6 0 0 0 .217.47q.229.2.815.32l1.787.339q1.388.265 2.064.88.683.617.689 1.63-.007.955-.568 1.661-.555.706-1.521 1.099-.966.386-2.21.386-1.986 0-3.133-.815-1.14-.821-1.304-2.197l2.916-.073q.096.507.501.773t1.032.266q.569 0 .924-.212.357-.21.362-.561a.6.6 0 0 0-.277-.501q-.271-.194-.852-.302l-1.617-.308q-1.395-.253-2.077-.936-.682-.688-.676-1.75-.007-.93.495-1.588.501-.664 1.424-1.014.924-.35 2.18-.35 1.883 0 2.97.79 1.087.785 1.201 2.162m7.738 9.918v-4.98h-.06a2.9 2.9 0 0 1-.531.803q-.345.374-.864.603-.513.23-1.213.23a3.4 3.4 0 0 1-1.866-.531q-.84-.532-1.34-1.594t-.5-2.638q0-1.636.518-2.693.52-1.056 1.359-1.563a3.47 3.47 0 0 1 1.817-.508q.73 0 1.25.254.518.247.857.64.337.392.513.815h.09v-1.588h2.922v12.75zm-1.642-5.644q.537 0 .918-.302.38-.308.585-.863.206-.555.206-1.304 0-.762-.206-1.31-.2-.55-.585-.846a1.45 1.45 0 0 0-.918-.295q-.549 0-.93.302-.38.3-.58.85-.192.55-.192 1.299t.199 1.304q.2.555.573.863.381.302.93.302m12.444-1.835v-5.27h2.946V43.5h-2.814v-1.727h-.096a2.7 2.7 0 0 1-1.051 1.353q-.736.495-1.78.495-.948 0-1.667-.435a2.96 2.96 0 0 1-1.116-1.213q-.398-.785-.405-1.836v-5.91h2.952v5.33q.006.755.399 1.19.391.435 1.068.435.441 0 .791-.193.356-.2.561-.574.212-.38.212-.917m12.92-2.44-2.71.073a1 1 0 0 0-.23-.513 1.24 1.24 0 0 0-.489-.356 1.7 1.7 0 0 0-.688-.133q-.513 0-.875.205-.356.205-.35.556a.6.6 0 0 0 .217.47q.229.2.815.32l1.787.339q1.388.265 2.064.88.683.617.689 1.63a2.62 2.62 0 0 1-.568 1.661q-.555.706-1.521 1.099-.966.386-2.21.386-1.986 0-3.133-.815-1.14-.821-1.304-2.197l2.916-.073q.096.507.501.773t1.032.266q.569 0 .924-.212.356-.21.362-.561a.6.6 0 0 0-.277-.501q-.272-.194-.852-.302l-1.618-.308q-1.394-.253-2.076-.936-.682-.688-.676-1.75-.006-.93.495-1.588.501-.664 1.424-1.014.924-.35 2.18-.35 1.882 0 2.97.79 1.087.785 1.201 2.162"/></g><defs><filter id="b" width="51.429" height="51.429" x="6.286" y="2.286" color-interpolation-filters="sRGB" filterUnits="userSpaceOnUse"><feFlood flood-opacity="0" result="BackgroundImageFix"/><feColorMatrix in="SourceAlpha" result="hardAlpha" values="0 0 0 0 0 0 0 0 0 0 0 0 0 0 0 0 0 0 127 0"/><feOffset/><feGaussianBlur stdDeviation="2.857"/><feComposite in2="hardAlpha" operator="out"/><feColorMatrix values="0 0 0 0 0 0 0 0 0 0 0 0 0 0 0 0 0 0 0.25 0"/><feBlend in2="BackgroundImageFix" result="effect1_dropShadow_2_667"/><feBlend in="SourceGraphic" in2="effect1_dropShadow_2_667" result="shape"/></filter><filter id="c" width="131.2" height="48.677" x="54.4" y="3.9" color-interpolation-filters="sRGB" filterUnits="userSpaceOnUse"><feFlood flood-opacity="0" result="BackgroundImageFix"/><feColorMatrix in="SourceAlpha" result="hardAlpha" values="0 0 0 0 0 0 0 0 0 0 0 0 0 0 0 0 0 0 127 0"/><feOffset/><feGaussianBlur stdDeviation="2.8"/><feComposite in2="hardAlpha" operator="out"/><feColorMatrix values="0 0 0 0 0 0 0 0 0 0 0 0 0 0 0 0 0 0 0.25 0"/><feBlend in2="BackgroundImageFix" result="effect1_dropShadow_2_667"/><feBlend in="SourceGraphic" in2="effect1_dropShadow_2_667" result="shape"/></filter><linearGradient id="a" x1="96" x2="96" y1="0" y2="56" gradientUnits="userSpaceOnUse"><stop stop-color="#051f30"/><stop offset="1" stop-color="#031420"/></linearGradient></defs></svg>