<svg xmlns="http://www.w3.org/2000/svg" width="197" height="56" fill="none" viewBox="0 0 197 56"><rect width="197" height="56" fill="url(#a)" rx="8"/><rect width="194.9" height="53.9" x="1.05" y="1.05" stroke="#fff" stroke-opacity=".15" stroke-width="2.1" rx="6.95"/><g filter="url(#b)"><path fill="#5dadec" d="M52 21.065H40.861L37.57 10.856h6.835z"/><path fill="#bdddf4" d="M12 21.065h11.14l3.29-10.208h-6.835z"/><path fill="#8ccaf7" d="M23.14 21.065h17.72l-3.29-10.209H26.43z"/><path fill="#5dadec" d="M40.861 21.065H23.14L32 45.143z"/><path fill="#4289c1" d="m32 45.143 20-24.078H40.861z"/><path fill="#8ccaf7" d="M32 45.143 12 21.065h11.14z"/></g><g filter="url(#c)"><path fill="#e8e8e8" d="M70.943 16.648h-1.772a2.7 2.7 0 0 0-1.063-1.733q-.403-.301-.904-.455a3.5 3.5 0 0 0-1.05-.153q-1.006 0-1.802.505-.79.506-1.25 1.484-.454.976-.454 2.386 0 1.42.454 2.398.46.977 1.256 1.477.795.5 1.79.5.551 0 1.045-.148.5-.153.904-.449a2.72 2.72 0 0 0 1.074-1.71l1.772.006a4.8 4.8 0 0 1-.551 1.58q-.403.716-1.04 1.238-.63.517-1.443.801a5.3 5.3 0 0 1-1.773.284q-1.51 0-2.693-.716-1.182-.72-1.863-2.062-.677-1.34-.677-3.2 0-1.863.682-3.198.682-1.341 1.864-2.057 1.182-.721 2.687-.722.927 0 1.728.268.806.26 1.448.772.642.505 1.063 1.239.42.727.568 1.665m3.663 2.67V24.5h-1.698V12.864h1.676v4.33h.108q.306-.706.937-1.12.63-.415 1.648-.415.898 0 1.568.37.676.369 1.046 1.102.375.727.375 1.818V24.5h-1.7v-5.347q0-.96-.494-1.488-.494-.534-1.375-.534a2.25 2.25 0 0 0-1.08.255q-.471.255-.743.75-.267.489-.267 1.182m10.466 5.375a3.6 3.6 0 0 1-1.5-.307 2.53 2.53 0 0 1-1.062-.903q-.386-.591-.386-1.449 0-.739.284-1.216t.767-.756a4 4 0 0 1 1.08-.42q.596-.142 1.215-.216l1.273-.148q.489-.061.71-.198.222-.137.222-.444v-.04q0-.744-.42-1.153-.415-.41-1.24-.409-.857 0-1.352.38-.487.376-.676.836l-1.596-.364q.283-.795.83-1.284.55-.495 1.266-.716.717-.227 1.506-.227.522 0 1.108.125.59.12 1.102.443.517.324.847.926.33.597.33 1.552V24.5h-1.66v-1.193h-.068q-.165.33-.494.648-.33.318-.847.528t-1.239.21m.37-1.364q.705 0 1.204-.278a1.95 1.95 0 0 0 .767-.727q.267-.454.267-.972v-1.125q-.09.091-.352.17-.255.075-.585.131-.33.052-.642.097l-.523.068q-.494.063-.903.21-.404.148-.648.427-.24.272-.239.727 0 .63.466.954.466.32 1.188.319m10.274-7.556v1.363H90.95v-1.363zm-3.489-2.091h1.7v8.256q0 .493.147.744a.77.77 0 0 0 .38.335q.24.085.518.085.204 0 .358-.028l.238-.046.307 1.404a3 3 0 0 1-.42.114q-.273.062-.682.068a3 3 0 0 1-1.25-.239 2.15 2.15 0 0 1-.938-.773q-.357-.523-.358-1.312zM103.722 24.5l-2.569-8.727h1.756l1.71 6.409h.086l1.715-6.41h1.756l1.705 6.381h.085l1.699-6.38h1.755l-2.562 8.727h-1.733l-1.773-6.301h-.13l-1.773 6.301zm11.311 0v-8.727h1.699V24.5zm.858-10.074a1.08 1.08 0 0 1-.762-.295.96.96 0 0 1-.312-.716.95.95 0 0 1 .312-.716q.318-.3.762-.301.443 0 .755.3a.94.94 0 0 1 .318.717.95.95 0 0 1-.318.716q-.312.295-.755.295m7.2 1.347v1.363h-4.767v-1.363zm-3.489-2.091h1.699v8.256q0 .493.148.744a.77.77 0 0 0 .381.335q.238.085.517.085a2 2 0 0 0 .358-.028l.238-.046.307 1.404a3 3 0 0 1-.42.114q-.273.062-.682.068a3 3 0 0 1-1.25-.239 2.14 2.14 0 0 1-.938-.773q-.357-.523-.358-1.312zm7.255 5.636V24.5h-1.699V12.864h1.676v4.33h.108q.306-.706.937-1.12t1.648-.415q.897 0 1.568.37.676.369 1.046 1.102.375.727.375 1.818V24.5h-1.699v-5.347q0-.96-.495-1.488-.493-.534-1.375-.534-.602 0-1.079.255-.472.255-.744.75-.267.489-.267 1.182m12.16 5.182v-8.727h1.631v1.42h.108a2.25 2.25 0 0 1 .892-1.125q.62-.41 1.483-.409.875 0 1.466.41a2.4 2.4 0 0 1 .88 1.124h.091q.312-.699.994-1.114.683-.42 1.625-.42 1.188 0 1.938.744.756.745.756 2.245V24.5h-1.699v-5.693q0-.887-.483-1.284a1.76 1.76 0 0 0-1.154-.398q-.83 0-1.289.511-.46.506-.461 1.302V24.5h-1.693v-5.801q0-.71-.443-1.142t-1.153-.432q-.483 0-.892.256a1.9 1.9 0 0 0-.654.698 2.14 2.14 0 0 0-.244 1.04V24.5zm17.902.176q-1.29 0-2.222-.551a3.74 3.74 0 0 1-1.431-1.562q-.5-1.012-.5-2.37 0-1.341.5-2.364a3.9 3.9 0 0 1 1.409-1.596q.909-.574 2.125-.574.738 0 1.432.244.693.244 1.244.768.55.522.869 1.357.318.83.318 2.018v.602h-6.937v-1.273h5.273q0-.67-.273-1.187a2.07 2.07 0 0 0-.767-.824q-.49-.302-1.148-.302-.716 0-1.25.353a2.36 2.36 0 0 0-.818.909q-.284.556-.284 1.21v.994q0 .876.307 1.489.312.615.869.938.557.318 1.301.318.483 0 .881-.137a1.83 1.83 0 0 0 1.13-1.108l1.608.29a2.9 2.9 0 0 1-.693 1.244 3.35 3.35 0 0 1-1.244.824q-.744.29-1.699.29m13.54 0q-1.227 0-2.142-.562a3.8 3.8 0 0 1-1.421-1.574q-.505-1.011-.505-2.364 0-1.358.505-2.375a3.8 3.8 0 0 1 1.421-1.58q.915-.561 2.142-.562 1.227 0 2.142.563t1.42 1.58q.506 1.016.506 2.374 0 1.353-.506 2.364a3.8 3.8 0 0 1-1.42 1.574q-.915.562-2.142.562m.005-1.426q.796 0 1.319-.42t.772-1.12q.256-.699.256-1.54 0-.835-.256-1.534a2.5 2.5 0 0 0-.772-1.13q-.523-.426-1.319-.427-.801 0-1.329.427a2.53 2.53 0 0 0-.778 1.13q-.25.7-.25 1.535 0 .84.25 1.54.255.697.778 1.119.528.42 1.329.42m7.658-3.932V24.5h-1.699v-8.727h1.631v1.42h.108q.301-.693.943-1.114.647-.42 1.631-.42.891 0 1.562.375.67.37 1.04 1.102.369.733.369 1.813V24.5h-1.699v-5.347q0-.948-.494-1.482-.494-.54-1.358-.54-.59 0-1.051.255-.454.255-.722.75-.261.489-.261 1.182"/><path fill="#8ccaf7" d="M69.05 35.175a2.2 2.2 0 0 0-.302-.67 1.9 1.9 0 0 0-.49-.501 2.1 2.1 0 0 0-.663-.308 3 3 0 0 0-.822-.109q-.9 0-1.557.435-.652.434-1.008 1.268-.356.827-.356 2.01 0 1.19.344 2.029t.996 1.28q.652.44 1.581.44.821 0 1.389-.266.573-.27.87-.766.295-.495.295-1.165l.555.066h-3.006v-2.18h5.33v1.637q0 1.66-.706 2.843a4.7 4.7 0 0 1-1.931 1.817q-1.226.634-2.82.634-1.768 0-3.109-.767-1.34-.766-2.089-2.185-.748-1.425-.748-3.38 0-1.522.453-2.7.452-1.182 1.261-2.004a5.45 5.45 0 0 1 1.884-1.243 6.3 6.3 0 0 1 2.312-.423q1.075 0 1.998.308.93.308 1.642.87.72.561 1.166 1.334.445.772.555 1.696zm5.499 8.325v-9.273h2.952V43.5zm1.479-10.353q-.622 0-1.069-.41a1.32 1.32 0 0 1-.446-1.003q0-.579.447-.99a1.5 1.5 0 0 1 1.068-.417q.628 0 1.069.417.446.411.446.99 0 .585-.446 1.002-.44.41-1.069.41m11.448 3.912-2.711.072a1 1 0 0 0-.23-.513 1.24 1.24 0 0 0-.488-.356 1.7 1.7 0 0 0-.689-.133q-.512 0-.875.205-.356.205-.35.556a.6.6 0 0 0 .217.47q.23.2.815.32l1.787.339q1.389.265 2.065.88.682.617.688 1.63-.006.955-.567 1.661-.555.706-1.522 1.099-.965.386-2.21.386-1.985 0-3.133-.815-1.14-.821-1.303-2.197l2.915-.073q.097.507.501.773.405.266 1.033.266.567 0 .923-.212.357-.21.363-.561a.6.6 0 0 0-.278-.501q-.272-.194-.851-.302l-1.618-.308q-1.395-.253-2.077-.936-.682-.688-.676-1.75-.006-.93.495-1.588.501-.664 1.425-1.014.923-.35 2.18-.35 1.882 0 2.97.79 1.086.785 1.2 2.162m6.01 6.616q-1.466 0-2.517-.604a4.1 4.1 0 0 1-1.605-1.678q-.562-1.08-.562-2.5 0-1.424.562-2.498a4.1 4.1 0 0 1 1.611-1.685q1.05-.603 2.506-.604 1.286 0 2.24.465.96.465 1.497 1.316.543.846.573 1.987h-2.759q-.084-.713-.483-1.117-.391-.405-1.026-.405-.513 0-.9.29-.386.284-.603.845-.211.556-.211 1.377 0 .82.21 1.388.218.561.605.851.385.285.9.284.41 0 .724-.175.32-.175.525-.513a2.05 2.05 0 0 0 .26-.833h2.758q-.043 1.146-.573 2.004a3.56 3.56 0 0 1-1.48 1.334q-.947.471-2.251.471m11.799-4.177v-5.27h2.946V43.5h-2.814v-1.727h-.096a2.7 2.7 0 0 1-1.051 1.353q-.736.495-1.781.495-.947 0-1.666-.435a2.96 2.96 0 0 1-1.117-1.213q-.398-.785-.404-1.836v-5.91h2.952v5.33q.006.755.398 1.19.393.435 1.069.435.44 0 .791-.193a1.43 1.43 0 0 0 .561-.574q.212-.38.212-.917m12.92-2.44-2.711.073a1 1 0 0 0-.229-.513 1.24 1.24 0 0 0-.489-.356 1.7 1.7 0 0 0-.688-.133q-.513 0-.875.205-.357.205-.351.556a.6.6 0 0 0 .218.47q.229.2.815.32l1.787.339q1.388.265 2.064.88.682.617.688 1.63-.006.955-.567 1.661-.555.706-1.521 1.099-.966.386-2.21.386-1.986 0-3.133-.815-1.141-.821-1.304-2.197l2.916-.073q.096.507.501.773t1.032.266q.568 0 .924-.212.356-.21.362-.561a.6.6 0 0 0-.278-.501q-.271-.194-.851-.302l-1.618-.308q-1.394-.253-2.076-.936-.683-.688-.677-1.75-.006-.93.495-1.588.502-.664 1.425-1.014t2.18-.35q1.883 0 2.97.79 1.087.785 1.201 2.162"/></g><defs><filter id="b" width="51.429" height="51.429" x="6.286" y="2.286" color-interpolation-filters="sRGB" filterUnits="userSpaceOnUse"><feFlood flood-opacity="0" result="BackgroundImageFix"/><feColorMatrix in="SourceAlpha" result="hardAlpha" values="0 0 0 0 0 0 0 0 0 0 0 0 0 0 0 0 0 0 127 0"/><feOffset/><feGaussianBlur stdDeviation="2.857"/><feComposite in2="hardAlpha" operator="out"/><feColorMatrix values="0 0 0 0 0 0 0 0 0 0 0 0 0 0 0 0 0 0 0.25 0"/><feBlend in2="BackgroundImageFix" result="effect1_dropShadow_3_839"/><feBlend in="SourceGraphic" in2="effect1_dropShadow_3_839" result="shape"/></filter><filter id="c" width="136.2" height="48.2" x="54.4" y="3.9" color-interpolation-filters="sRGB" filterUnits="userSpaceOnUse"><feFlood flood-opacity="0" result="BackgroundImageFix"/><feColorMatrix in="SourceAlpha" result="hardAlpha" values="0 0 0 0 0 0 0 0 0 0 0 0 0 0 0 0 0 0 127 0"/><feOffset/><feGaussianBlur stdDeviation="2.8"/><feComposite in2="hardAlpha" operator="out"/><feColorMatrix values="0 0 0 0 0 0 0 0 0 0 0 0 0 0 0 0 0 0 0.25 0"/><feBlend in2="BackgroundImageFix" result="effect1_dropShadow_3_839"/><feBlend in="SourceGraphic" in2="effect1_dropShadow_3_839" result="shape"/></filter><linearGradient id="a" x1="98.5" x2="98.5" y1="0" y2="56" gradientUnits="userSpaceOnUse"><stop stop-color="#242e35"/><stop offset="1" stop-color="#12202b"/></linearGradient></defs></svg>