<svg xmlns="http://www.w3.org/2000/svg" width="158" height="56" fill="none" viewBox="0 0 158 56"><rect width="158" height="56" fill="url(#a)" rx="8"/><rect width="155.9" height="53.9" x="1.05" y="1.05" stroke="#fff" stroke-opacity=".15" stroke-width="2.1" rx="6.95"/><g filter="url(#b)"><path fill="#fff" d="M32.001 8.716C20.951 8.716 12 17.573 12 28.488c0 8.741 5.73 16.15 13.672 18.763 1.004.187 1.366-.425 1.366-.954 0-.47-.01-1.711-.018-3.36-5.567 1.192-6.74-2.658-6.74-2.658-.91-2.279-2.226-2.89-2.226-2.89-1.81-1.223.144-1.197.144-1.197 2.005.135 3.06 2.033 3.06 2.033 1.784 3.025 4.68 2.15 5.827 1.641.175-1.274.696-2.15 1.264-2.638-4.44-.496-9.11-2.195-9.11-9.772 0-2.163.775-3.926 2.057-5.31-.222-.495-.9-2.51.176-5.233 0 0 1.674-.528 5.5 2.027a19.5 19.5 0 0 1 5-.668c1.7.011 3.4.231 5 .669 3.805-2.556 5.477-2.028 5.477-2.028 1.074 2.723.397 4.736.202 5.233 1.268 1.384 2.043 3.148 2.043 5.31 0 7.594-4.675 9.269-9.12 9.752.695.592 1.346 1.81 1.346 3.657 0 2.644-.025 4.775-.025 5.419 0 .514.35 1.132 1.38.933C46.275 44.63 52 37.216 52 28.487c0-10.916-8.952-19.773-20.001-19.773z"/></g><g filter="url(#c)"><path fill="#e8e8e8" d="M68.102 16.384q-.097-.857-.797-1.328-.7-.477-1.763-.477-.76 0-1.316.242-.555.235-.863.652a1.54 1.54 0 0 0-.302.935q0 .441.205.761.21.32.55.537.343.212.736.357.392.139.754.229l1.208.314q.592.144 1.213.392.623.248 1.153.652.532.405.858 1.002.331.599.332 1.431 0 1.05-.544 1.866-.538.814-1.563 1.285-1.02.471-2.47.471-1.388 0-2.402-.44t-1.588-1.25q-.573-.814-.634-1.932h1.872q.053.671.434 1.117.387.44.984.658.605.21 1.322.211.792 0 1.407-.247.622-.255.978-.7.356-.453.356-1.057 0-.549-.314-.9-.308-.35-.839-.58a8 8 0 0 0-1.189-.404l-1.461-.398q-1.485-.405-2.354-1.19-.864-.785-.864-2.076 0-1.068.58-1.865.58-.798 1.57-1.238.99-.447 2.233-.447 1.256 0 2.216.441.965.44 1.521 1.213.555.768.58 1.763zm8.048 9.303q-1.37 0-2.36-.585a3.97 3.97 0 0 1-1.521-1.66q-.532-1.075-.532-2.518 0-1.425.532-2.511.537-1.087 1.497-1.697.966-.61 2.257-.61.785 0 1.522.26.735.26 1.322.815.585.555.924 1.443.338.882.338 2.143v.64h-7.372v-1.352h5.603q0-.713-.29-1.262a2.2 2.2 0 0 0-.815-.875q-.519-.32-1.22-.32-.76 0-1.328.374a2.5 2.5 0 0 0-.869.966 2.8 2.8 0 0 0-.302 1.286v1.056q0 .93.326 1.582.333.652.924.996.591.338 1.382.338.513 0 .936-.145.423-.15.73-.447a1.94 1.94 0 0 0 .471-.73l1.709.308a3.1 3.1 0 0 1-.737 1.322q-.524.561-1.322.875-.79.308-1.805.308m9.978 0q-1.37 0-2.36-.585a3.97 3.97 0 0 1-1.522-1.66q-.531-1.075-.531-2.518 0-1.425.531-2.511.537-1.087 1.497-1.697.966-.61 2.258-.61.784 0 1.521.26t1.322.815.924 1.443q.338.882.338 2.143v.64h-7.37v-1.352h5.601q0-.713-.29-1.262a2.2 2.2 0 0 0-.814-.875q-.52-.32-1.22-.32-.76 0-1.328.374a2.5 2.5 0 0 0-.87.966 2.8 2.8 0 0 0-.301 1.286v1.056q0 .93.326 1.582.333.652.923.996.592.338 1.383.338.513 0 .936-.145.422-.15.73-.447a1.94 1.94 0 0 0 .471-.73l1.709.308a3.1 3.1 0 0 1-.737 1.322 3.6 3.6 0 0 1-1.322.875q-.79.308-1.805.308m10.48-.187v-9.273h1.733v1.51h.114q.29-.767.948-1.196.658-.434 1.576-.434.93 0 1.557.434.635.435.936 1.195h.097q.331-.742 1.056-1.183.724-.447 1.727-.447 1.261 0 2.058.791.803.792.803 2.385V25.5h-1.805v-6.049q0-.942-.513-1.364a1.87 1.87 0 0 0-1.226-.423q-.88 0-1.37.543-.489.538-.489 1.383v5.91h-1.799v-6.164q0-.754-.471-1.213-.47-.459-1.225-.459-.514 0-.948.272a2 2 0 0 0-.694.742q-.26.477-.26 1.105V25.5zm19.021.187q-1.371 0-2.361-.585a3.97 3.97 0 0 1-1.521-1.66q-.531-1.075-.531-2.518 0-1.425.531-2.511.537-1.087 1.497-1.697.966-.61 2.258-.61.784 0 1.521.26t1.322.815q.587.555.924 1.443.338.882.338 2.143v.64h-7.371v-1.352h5.602q0-.713-.289-1.262a2.2 2.2 0 0 0-.815-.875q-.52-.32-1.22-.32-.76 0-1.328.374a2.5 2.5 0 0 0-.869.966 2.8 2.8 0 0 0-.302 1.286v1.056q0 .93.326 1.582.332.652.923.996.592.338 1.383.338.513 0 .936-.145.422-.15.73-.447.307-.295.471-.73l1.708.308a3.1 3.1 0 0 1-.736 1.322 3.6 3.6 0 0 1-1.322.875q-.79.308-1.805.308m14.386 0q-1.304 0-2.276-.598a4.03 4.03 0 0 1-1.509-1.672q-.538-1.074-.538-2.511 0-1.443.538-2.523a4 4 0 0 1 1.509-1.679q.972-.598 2.276-.598t2.276.598a4 4 0 0 1 1.509 1.678q.537 1.08.537 2.524 0 1.437-.537 2.511a4.03 4.03 0 0 1-1.509 1.672q-.972.598-2.276.598m.006-1.515q.845 0 1.4-.447.556-.446.821-1.19a4.7 4.7 0 0 0 .272-1.635 4.7 4.7 0 0 0-.272-1.63q-.265-.75-.821-1.201-.555-.453-1.4-.453-.852 0-1.413.453-.555.452-.827 1.2a4.8 4.8 0 0 0-.265 1.63q0 .894.265 1.637.272.742.827 1.19.561.446 1.413.446m8.136-4.178V25.5h-1.805v-9.273h1.733v1.51h.114a2.66 2.66 0 0 1 1.003-1.184q.688-.447 1.732-.447.948 0 1.66.399.712.393 1.105 1.171.392.78.392 1.926V25.5h-1.805v-5.68q0-1.01-.525-1.576-.525-.574-1.443-.574-.628 0-1.116.272a1.95 1.95 0 0 0-.767.797q-.278.519-.278 1.255"/><path fill="#fff" d="M69.05 36.175a2.2 2.2 0 0 0-.302-.67 1.9 1.9 0 0 0-.49-.501 2.1 2.1 0 0 0-.663-.308 3 3 0 0 0-.822-.109q-.9 0-1.557.435-.652.434-1.008 1.268-.356.827-.356 2.01 0 1.19.344 2.029t.996 1.28q.652.44 1.581.44.821 0 1.389-.266.573-.27.87-.766.295-.495.295-1.165l.555.066h-3.006v-2.18h5.33v1.637q0 1.66-.706 2.843a4.7 4.7 0 0 1-1.931 1.817q-1.226.634-2.82.634-1.768 0-3.109-.767-1.34-.766-2.089-2.185-.748-1.425-.748-3.38 0-1.522.453-2.7.452-1.182 1.261-2.004a5.45 5.45 0 0 1 1.884-1.243 6.3 6.3 0 0 1 2.312-.423q1.075 0 1.998.308.93.308 1.642.87.72.561 1.166 1.334.445.772.555 1.696zm5.499 8.325v-9.273h2.952V44.5zm1.479-10.353q-.622 0-1.069-.41a1.32 1.32 0 0 1-.446-1.003q0-.579.447-.99a1.5 1.5 0 0 1 1.068-.417q.628 0 1.069.417.446.411.446.99 0 .585-.446 1.002-.44.41-1.069.41m8.586 1.08V37.4h-5.85v-2.174zm-4.624-2.221h2.952v8.578q0 .272.084.44.09.165.26.236.17.067.404.067.17 0 .357-.03.192-.038.29-.06l.446 2.13q-.21.06-.597.151-.381.09-.912.115-1.038.048-1.781-.242a2.3 2.3 0 0 1-1.129-.917q-.386-.622-.374-1.564zM86.32 44.5V32.136h2.988V37.1h4.872v-4.963h2.982V44.5H94.18v-4.968h-4.872V44.5zm18.699-4.002v-5.27h2.946V44.5h-2.813v-1.727h-.097a2.7 2.7 0 0 1-1.05 1.353q-.737.495-1.781.495-.948 0-1.666-.435a2.96 2.96 0 0 1-1.117-1.213q-.398-.785-.405-1.836v-5.91h2.952v5.33q.006.755.399 1.19.392.435 1.068.435.441 0 .791-.193.357-.2.562-.574.21-.38.211-.917m4.825 4.002V32.136h2.952v4.679h.06q.181-.422.513-.815.339-.393.858-.64.525-.254 1.255-.254.966 0 1.805.508.846.507 1.365 1.563t.519 2.693q0 1.575-.501 2.638-.495 1.063-1.34 1.594a3.4 3.4 0 0 1-1.866.53q-.7 0-1.213-.229a2.6 2.6 0 0 1-.863-.603 2.9 2.9 0 0 1-.532-.803h-.09V44.5zm2.892-4.636q0 .748.199 1.304.206.555.585.863.387.302.924.302.543 0 .924-.302.38-.308.573-.863.2-.555.199-1.304 0-.75-.199-1.298-.194-.55-.573-.852-.375-.3-.924-.301-.543 0-.924.295-.38.297-.585.846-.2.548-.199 1.31"/></g><defs><filter id="b" width="51.429" height="51.429" x="6.286" y="2.286" color-interpolation-filters="sRGB" filterUnits="userSpaceOnUse"><feFlood flood-opacity="0" result="BackgroundImageFix"/><feColorMatrix in="SourceAlpha" result="hardAlpha" values="0 0 0 0 0 0 0 0 0 0 0 0 0 0 0 0 0 0 127 0"/><feOffset/><feGaussianBlur stdDeviation="2.857"/><feComposite in2="hardAlpha" operator="out"/><feColorMatrix values="0 0 0 0 0 0 0 0 0 0 0 0 0 0 0 0 0 0 0.25 0"/><feBlend in2="BackgroundImageFix" result="effect1_dropShadow_28_845"/><feBlend in="SourceGraphic" in2="effect1_dropShadow_28_845" result="shape"/></filter><filter id="c" width="97.2" height="50.2" x="54.4" y="2.9" color-interpolation-filters="sRGB" filterUnits="userSpaceOnUse"><feFlood flood-opacity="0" result="BackgroundImageFix"/><feColorMatrix in="SourceAlpha" result="hardAlpha" values="0 0 0 0 0 0 0 0 0 0 0 0 0 0 0 0 0 0 127 0"/><feOffset/><feGaussianBlur stdDeviation="2.8"/><feComposite in2="hardAlpha" operator="out"/><feColorMatrix values="0 0 0 0 0 0 0 0 0 0 0 0 0 0 0 0 0 0 0.25 0"/><feBlend in2="BackgroundImageFix" result="effect1_dropShadow_28_845"/><feBlend in="SourceGraphic" in2="effect1_dropShadow_28_845" result="shape"/></filter><linearGradient id="a" x1="79" x2="79" y1="0" y2="56" gradientUnits="userSpaceOnUse"><stop stop-color="#181f29"/><stop offset="1" stop-color="#0f131a"/></linearGradient></defs></svg>