<svg xmlns="http://www.w3.org/2000/svg" width="152" height="56" fill="none" viewBox="0 0 152 56"><rect width="152" height="56" fill="url(#a)" rx="8"/><rect width="149.9" height="53.9" x="1.05" y="1.05" stroke="#fff" stroke-opacity=".15" stroke-width="2.1" rx="6.95"/><g filter="url(#b)"><path fill="#e24329" d="m32 46.566 7.366-22.847H24.634z"/><path fill="#fc6d26" d="m32 46.566-7.366-22.847h-10.32z"/><path fill="#fca326" d="m14.313 23.72-2.238 6.942a1.55 1.55 0 0 0 .554 1.718L32 46.571z"/><path fill="#e24329" d="M14.313 23.72h10.321L20.2 9.96a.77.77 0 0 0-.725-.53.76.76 0 0 0-.725.53z"/><path fill="#fc6d26" d="m32 46.566 7.366-22.847h10.321z"/><path fill="#fca326" d="m49.687 23.72 2.239 6.942a1.55 1.55 0 0 1-.554 1.718L32 46.571z"/><path fill="#e24329" d="M49.687 23.72H39.366l4.436-13.762a.77.77 0 0 1 .725-.53.76.76 0 0 1 .725.53z"/></g><g filter="url(#c)"><path fill="#e8e8e8" d="M68.102 16.384q-.097-.857-.797-1.328-.7-.477-1.763-.477-.76 0-1.316.242-.555.235-.863.652a1.54 1.54 0 0 0-.302.935q0 .441.205.761.21.32.55.537.343.212.736.357.392.139.754.229l1.208.314q.592.144 1.213.392.623.248 1.153.652.532.405.858 1.002.331.599.332 1.431 0 1.05-.544 1.866-.538.814-1.563 1.285-1.02.471-2.47.471-1.388 0-2.402-.44t-1.588-1.25q-.573-.814-.634-1.932h1.872q.053.671.434 1.117.387.44.984.658.605.21 1.322.211.792 0 1.407-.247.622-.255.978-.7.356-.453.356-1.057 0-.549-.314-.9-.308-.35-.839-.58a8 8 0 0 0-1.189-.404l-1.461-.398q-1.485-.405-2.354-1.19-.864-.785-.864-2.076 0-1.068.58-1.865.58-.798 1.57-1.238.99-.447 2.233-.447 1.256 0 2.216.441.965.44 1.521 1.213.555.768.58 1.763zm8.048 9.303q-1.37 0-2.36-.585a3.97 3.97 0 0 1-1.521-1.66q-.532-1.075-.532-2.518 0-1.425.532-2.511.537-1.087 1.497-1.697.966-.61 2.257-.61.785 0 1.522.26.735.26 1.322.815.585.555.924 1.443.338.882.338 2.143v.64h-7.372v-1.352h5.603q0-.713-.29-1.262a2.2 2.2 0 0 0-.815-.875q-.519-.32-1.22-.32-.76 0-1.328.374a2.5 2.5 0 0 0-.869.966 2.8 2.8 0 0 0-.302 1.286v1.056q0 .93.326 1.582.333.652.924.996.591.338 1.382.338.513 0 .936-.145.423-.15.73-.447a1.94 1.94 0 0 0 .471-.73l1.709.308a3.1 3.1 0 0 1-.737 1.322q-.524.561-1.322.875-.79.308-1.805.308m9.978 0q-1.37 0-2.36-.585a3.97 3.97 0 0 1-1.522-1.66q-.531-1.075-.531-2.518 0-1.425.531-2.511.537-1.087 1.497-1.697.966-.61 2.258-.61.784 0 1.521.26t1.322.815.924 1.443q.338.882.338 2.143v.64h-7.37v-1.352h5.601q0-.713-.29-1.262a2.2 2.2 0 0 0-.814-.875q-.52-.32-1.22-.32-.76 0-1.328.374a2.5 2.5 0 0 0-.87.966 2.8 2.8 0 0 0-.301 1.286v1.056q0 .93.326 1.582.333.652.923.996.592.338 1.383.338.513 0 .936-.145.422-.15.73-.447a1.94 1.94 0 0 0 .471-.73l1.709.308a3.1 3.1 0 0 1-.737 1.322 3.6 3.6 0 0 1-1.322.875q-.79.308-1.805.308m16.354-4.033v-5.427h1.811V25.5h-1.775v-1.606h-.096a2.9 2.9 0 0 1-1.027 1.238q-.7.489-1.744.489-.894 0-1.582-.393-.682-.398-1.075-1.177-.386-.779-.386-1.926v-5.898h1.805v5.681q0 .948.525 1.51.525.56 1.365.56.507 0 1.008-.253.507-.254.839-.767.338-.513.332-1.303m11.185-3.163-1.636.29a2 2 0 0 0-.326-.598 1.6 1.6 0 0 0-.592-.465q-.374-.18-.936-.18-.766 0-1.279.343-.513.339-.514.876 0 .465.345.748.344.284 1.11.465l1.473.338q1.281.295 1.908.912.628.615.628 1.6a2.43 2.43 0 0 1-.483 1.485q-.477.645-1.334 1.014-.852.368-1.974.368-1.558 0-2.542-.664-.984-.67-1.207-1.902l1.744-.265q.163.682.671 1.032.507.345 1.322.344.887 0 1.418-.368.531-.374.532-.912a.95.95 0 0 0-.326-.73q-.321-.296-.984-.447l-1.57-.344q-1.297-.295-1.92-.942-.615-.645-.616-1.636 0-.82.459-1.437.46-.615 1.268-.96.809-.35 1.853-.35 1.503 0 2.367.652.863.647 1.141 1.733m10.57 7.196q-1.303 0-2.275-.598a4.03 4.03 0 0 1-1.51-1.672q-.537-1.074-.537-2.511 0-1.443.537-2.523.538-1.081 1.51-1.679t2.275-.598q1.305 0 2.276.598a4.03 4.03 0 0 1 1.51 1.678q.537 1.08.537 2.524 0 1.437-.537 2.511a4.04 4.04 0 0 1-1.51 1.672q-.971.598-2.276.598m.007-1.515q.845 0 1.4-.447.555-.446.821-1.19.272-.742.272-1.635 0-.888-.272-1.63-.266-.75-.821-1.201-.555-.453-1.4-.453-.852 0-1.413.453-.555.452-.827 1.2a4.8 4.8 0 0 0-.266 1.63q0 .894.266 1.637.272.742.827 1.19.561.446 1.413.446m8.136-4.178V25.5h-1.805v-9.273h1.732v1.51h.115a2.65 2.65 0 0 1 1.002-1.184q.689-.447 1.733-.447.948 0 1.66.399.712.393 1.105 1.171.392.78.392 1.926V25.5h-1.805v-5.68q0-1.01-.525-1.576-.525-.574-1.443-.574-.628 0-1.117.272a1.96 1.96 0 0 0-.767.797q-.277.519-.277 1.255"/><path fill="url(#d)" d="M69.05 36.175a2.2 2.2 0 0 0-.302-.67 1.9 1.9 0 0 0-.49-.501 2.1 2.1 0 0 0-.663-.308 3 3 0 0 0-.822-.109q-.9 0-1.557.435-.652.434-1.008 1.268-.356.827-.356 2.01 0 1.19.344 2.029t.996 1.28q.652.44 1.581.44.821 0 1.389-.266.573-.27.87-.766.295-.495.295-1.165l.555.066h-3.006v-2.18h5.33v1.637q0 1.66-.706 2.843a4.7 4.7 0 0 1-1.931 1.817q-1.226.634-2.82.634-1.768 0-3.109-.767-1.34-.766-2.089-2.185-.748-1.425-.748-3.38 0-1.522.453-2.7.452-1.182 1.261-2.004a5.45 5.45 0 0 1 1.884-1.243 6.3 6.3 0 0 1 2.312-.423q1.075 0 1.998.308.93.308 1.642.87.72.561 1.166 1.334.445.772.555 1.696zm5.499 8.325v-9.273h2.952V44.5zm1.479-10.353q-.622 0-1.069-.41a1.32 1.32 0 0 1-.446-1.003q0-.579.447-.99a1.5 1.5 0 0 1 1.068-.417q.628 0 1.069.417.446.411.446.99 0 .585-.446 1.002-.44.41-1.069.41m8.586 1.08V37.4h-5.85v-2.174zm-4.624-2.221h2.952v8.578q0 .272.084.44.09.165.26.236.17.067.404.067.17 0 .357-.03.192-.038.29-.06l.446 2.13q-.21.06-.597.151-.381.09-.912.115-1.038.048-1.781-.242a2.3 2.3 0 0 1-1.129-.917q-.386-.622-.374-1.564zM86.32 44.5V32.136h2.988v9.937h5.143V44.5zm12.292.157q-.887 0-1.575-.296a2.45 2.45 0 0 1-1.081-.905q-.393-.61-.392-1.528 0-.773.271-1.304t.749-.863a3.5 3.5 0 0 1 1.099-.501 7 7 0 0 1 1.328-.235q.791-.074 1.273-.151.483-.085.701-.236a.51.51 0 0 0 .223-.44v-.03q0-.465-.32-.72-.32-.252-.863-.253-.586 0-.942.254a1.12 1.12 0 0 0-.453.7l-2.722-.096q.12-.846.621-1.51.508-.67 1.389-1.05.888-.387 2.131-.387.888 0 1.636.212.749.205 1.304.604.555.392.857.965.308.575.308 1.31V44.5h-2.777v-1.292h-.072q-.248.471-.634.797-.381.326-.9.489a3.8 3.8 0 0 1-1.159.163m.912-1.932q.476 0 .857-.193.387-.194.616-.531.23-.344.229-.797v-.882a1.7 1.7 0 0 1-.308.121 5 5 0 0 1-.386.103q-.211.048-.435.084-.223.036-.428.067a2.7 2.7 0 0 0-.713.205 1.1 1.1 0 0 0-.446.362.9.9 0 0 0-.151.52q0 .458.326.7.331.24.839.241m6.435 1.775V32.136h2.952v4.679h.061q.18-.422.513-.815.338-.393.857-.64.525-.254 1.256-.254.965 0 1.805.508.845.507 1.364 1.563t.519 2.693q0 1.575-.501 2.638-.495 1.063-1.34 1.594a3.4 3.4 0 0 1-1.865.53q-.7 0-1.214-.229a2.6 2.6 0 0 1-.863-.603 2.9 2.9 0 0 1-.531-.803h-.091V44.5zm2.892-4.636q0 .748.199 1.304.205.555.586.863.386.302.923.302.544 0 .924-.302.38-.308.573-.863.2-.555.2-1.304 0-.75-.2-1.298-.193-.55-.573-.852-.374-.3-.924-.301-.543 0-.923.295-.38.297-.586.846-.2.548-.199 1.31"/></g><defs><linearGradient id="a" x1="76" x2="76" y1="0" y2="56" gradientUnits="userSpaceOnUse"><stop stop-color="#2e0e09"/><stop offset="1" stop-color="#1f1506"/></linearGradient><linearGradient id="d" x1="88" x2="88" y1="29.5" y2="47.5" gradientUnits="userSpaceOnUse"><stop stop-color="#e06955"/><stop offset="1" stop-color="#f5b253"/></linearGradient><filter id="b" width="51.429" height="51.429" x="6.286" y="2.286" color-interpolation-filters="sRGB" filterUnits="userSpaceOnUse"><feFlood flood-opacity="0" result="BackgroundImageFix"/><feColorMatrix in="SourceAlpha" result="hardAlpha" values="0 0 0 0 0 0 0 0 0 0 0 0 0 0 0 0 0 0 127 0"/><feOffset/><feGaussianBlur stdDeviation="2.857"/><feComposite in2="hardAlpha" operator="out"/><feColorMatrix values="0 0 0 0 0 0 0 0 0 0 0 0 0 0 0 0 0 0 0.25 0"/><feBlend in2="BackgroundImageFix" result="effect1_dropShadow_28_851"/><feBlend in="SourceGraphic" in2="effect1_dropShadow_28_851" result="shape"/></filter><filter id="c" width="91.2" height="50.2" x="54.4" y="2.9" color-interpolation-filters="sRGB" filterUnits="userSpaceOnUse"><feFlood flood-opacity="0" result="BackgroundImageFix"/><feColorMatrix in="SourceAlpha" result="hardAlpha" values="0 0 0 0 0 0 0 0 0 0 0 0 0 0 0 0 0 0 127 0"/><feOffset/><feGaussianBlur stdDeviation="2.8"/><feComposite in2="hardAlpha" operator="out"/><feColorMatrix values="0 0 0 0 0 0 0 0 0 0 0 0 0 0 0 0 0 0 0.25 0"/><feBlend in2="BackgroundImageFix" result="effect1_dropShadow_28_851"/><feBlend in="SourceGraphic" in2="effect1_dropShadow_28_851" result="shape"/></filter></defs></svg>