<svg xmlns="http://www.w3.org/2000/svg" width="192" height="56" fill="none" viewBox="0 0 192 56"><rect width="192" height="56" fill="url(#a)" rx="8"/><rect width="189.9" height="53.9" x="1.05" y="1.05" stroke="#fff" stroke-opacity=".15" stroke-width="2.1" rx="6.95"/><g filter="url(#b)"><path fill="#f5c400" d="M21.626 19.725s.03 4.454 2.293 9.06c2.324 4.434 5.528 7.282 8.171 8.417 2.731-1.291 5.37-3.532 6.81-5.946h-7.498c-1.94-1.625-3.467-4.322-3.817-7.44H49.58c-1.085 5.012-3.387 9.57-5.58 12.473a26.5 26.5 0 0 1-11.895 8.854h-.069c-7.89-3.178-12.133-8.183-14.934-13.831-1.796-3.62-3.674-10.19-3.674-19.026H50.57a54 54 0 0 1-.495 7.44z"/></g><g filter="url(#c)"><path fill="#e8e8e8" d="M70.943 16.648h-1.772a2.7 2.7 0 0 0-1.063-1.733q-.403-.301-.904-.455a3.5 3.5 0 0 0-1.05-.153q-1.006 0-1.802.505-.79.506-1.25 1.484-.454.976-.454 2.386 0 1.42.454 2.398.46.977 1.256 1.477.795.5 1.79.5.551 0 1.045-.148.5-.153.904-.449a2.72 2.72 0 0 0 1.074-1.71l1.772.006a4.8 4.8 0 0 1-.551 1.58q-.403.716-1.04 1.238-.63.517-1.443.801a5.3 5.3 0 0 1-1.773.284q-1.51 0-2.693-.716-1.182-.72-1.863-2.062-.677-1.34-.677-3.2 0-1.863.682-3.198.682-1.341 1.864-2.057 1.182-.721 2.687-.722.927 0 1.728.268.806.26 1.448.772.642.505 1.063 1.239.42.727.568 1.665m3.663 2.67V24.5h-1.698V12.864h1.676v4.33h.108q.306-.706.937-1.12.63-.415 1.648-.415.898 0 1.568.37.676.369 1.046 1.102.375.727.375 1.818V24.5h-1.7v-5.347q0-.96-.494-1.488-.494-.534-1.375-.534a2.25 2.25 0 0 0-1.08.255q-.471.255-.743.75-.267.489-.267 1.182m10.466 5.375a3.6 3.6 0 0 1-1.5-.307 2.53 2.53 0 0 1-1.062-.903q-.386-.591-.386-1.449 0-.739.284-1.216t.767-.756a4 4 0 0 1 1.08-.42q.596-.142 1.215-.216l1.273-.148q.489-.061.71-.198.222-.137.222-.444v-.04q0-.744-.42-1.153-.415-.41-1.24-.409-.857 0-1.352.38-.487.376-.676.836l-1.596-.364q.283-.795.83-1.284.55-.495 1.266-.716.717-.227 1.506-.227.522 0 1.108.125.59.12 1.102.443.517.324.847.926.33.597.33 1.552V24.5h-1.66v-1.193h-.068q-.165.33-.494.648-.33.318-.847.528t-1.239.21m.37-1.364q.705 0 1.204-.278a1.95 1.95 0 0 0 .767-.727q.267-.454.267-.972v-1.125q-.09.091-.352.17-.255.075-.585.131-.33.052-.642.097l-.523.068q-.494.063-.903.21-.404.148-.648.427-.24.272-.239.727 0 .63.466.954.466.32 1.188.319m10.274-7.556v1.363H90.95v-1.363zm-3.489-2.091h1.7v8.256q0 .493.147.744a.77.77 0 0 0 .38.335q.24.085.518.085.204 0 .358-.028l.238-.046.307 1.404a3 3 0 0 1-.42.114q-.273.062-.682.068a3 3 0 0 1-1.25-.239 2.15 2.15 0 0 1-.938-.773q-.357-.523-.358-1.312zM103.722 24.5l-2.569-8.727h1.756l1.71 6.409h.086l1.715-6.41h1.756l1.705 6.381h.085l1.699-6.38h1.755l-2.562 8.727h-1.733l-1.773-6.301h-.13l-1.773 6.301zm11.311 0v-8.727h1.699V24.5zm.858-10.074a1.08 1.08 0 0 1-.762-.295.96.96 0 0 1-.312-.716.95.95 0 0 1 .312-.716q.318-.3.762-.301.443 0 .755.3a.94.94 0 0 1 .318.717.95.95 0 0 1-.318.716q-.312.295-.755.295m7.2 1.347v1.363h-4.767v-1.363zm-3.489-2.091h1.699v8.256q0 .493.148.744a.77.77 0 0 0 .381.335q.238.085.517.085a2 2 0 0 0 .358-.028l.238-.046.307 1.404a3 3 0 0 1-.42.114q-.273.062-.682.068a3 3 0 0 1-1.25-.239 2.14 2.14 0 0 1-.938-.773q-.357-.523-.358-1.312zm7.255 5.636V24.5h-1.699V12.864h1.676v4.33h.108q.306-.706.937-1.12t1.648-.415q.897 0 1.568.37.676.369 1.046 1.102.375.727.375 1.818V24.5h-1.699v-5.347q0-.96-.495-1.488-.493-.534-1.375-.534-.602 0-1.079.255-.472.255-.744.75-.267.489-.267 1.182m17.688 1.563v-5.108h1.705V24.5h-1.67v-1.511h-.091a2.73 2.73 0 0 1-.966 1.164q-.66.46-1.642.46-.841 0-1.489-.369-.642-.375-1.011-1.108-.364-.732-.364-1.812v-5.551h1.699v5.346q0 .893.494 1.42.495.53 1.284.53.477 0 .949-.24.477-.239.79-.721.318-.483.312-1.227m10.527-2.978-1.539.273a1.8 1.8 0 0 0-.307-.562 1.5 1.5 0 0 0-.557-.438q-.352-.17-.881-.17-.721 0-1.204.323-.483.319-.483.824 0 .438.324.705t1.045.438l1.387.318q1.204.277 1.795.858.591.58.591 1.505 0 .785-.455 1.398-.448.608-1.255.954-.802.348-1.858.347-1.467 0-2.392-.625-.927-.63-1.137-1.79l1.642-.25q.154.642.631.972.477.324 1.244.324.835 0 1.336-.347.5-.352.5-.858a.9.9 0 0 0-.307-.687q-.302-.279-.926-.42l-1.478-.325q-1.221-.277-1.806-.886-.58-.607-.58-1.54a2.2 2.2 0 0 1 .432-1.352q.431-.579 1.193-.903.762-.33 1.744-.33 1.415 0 2.228.614.812.608 1.073 1.63m9.949 6.773q-1.227 0-2.142-.562a3.8 3.8 0 0 1-1.42-1.574q-.506-1.011-.506-2.364 0-1.358.506-2.375a3.8 3.8 0 0 1 1.42-1.58q.915-.561 2.142-.562 1.227 0 2.142.563t1.421 1.58q.505 1.016.505 2.374 0 1.353-.505 2.364a3.8 3.8 0 0 1-1.421 1.574q-.915.562-2.142.562m.006-1.426q.796 0 1.318-.42.523-.42.773-1.12.255-.699.256-1.54 0-.835-.256-1.534a2.5 2.5 0 0 0-.773-1.13q-.523-.426-1.318-.427-.8 0-1.33.427a2.54 2.54 0 0 0-.778 1.13q-.25.7-.25 1.535 0 .84.25 1.54.255.697.778 1.119.53.42 1.33.42m7.658-3.932V24.5h-1.699v-8.727h1.63v1.42h.108q.302-.693.944-1.114.647-.42 1.63-.42.893 0 1.563.375.67.37 1.04 1.102.369.733.369 1.813V24.5h-1.699v-5.347q0-.948-.494-1.482-.495-.54-1.358-.54-.591 0-1.051.255-.455.255-.722.75-.261.489-.261 1.182"/><path fill="#f5c400" d="M69.05 35.175a2.2 2.2 0 0 0-.302-.67 1.9 1.9 0 0 0-.49-.501 2.1 2.1 0 0 0-.663-.308 3 3 0 0 0-.822-.109q-.9 0-1.557.435-.652.434-1.008 1.268-.356.827-.356 2.01 0 1.19.344 2.029t.996 1.28q.652.44 1.581.44.821 0 1.389-.266.573-.27.87-.766.295-.495.295-1.165l.555.066h-3.006v-2.18h5.33v1.637q0 1.66-.706 2.843a4.7 4.7 0 0 1-1.931 1.817q-1.226.634-2.82.634-1.768 0-3.109-.767-1.34-.766-2.089-2.185-.748-1.425-.748-3.38 0-1.522.453-2.7.452-1.182 1.261-2.004a5.45 5.45 0 0 1 1.884-1.243 6.3 6.3 0 0 1 2.312-.423q1.075 0 1.998.308.93.308 1.642.87.72.561 1.166 1.334.445.772.555 1.696zm10.9 4.323v-5.27h2.947V43.5h-2.814v-1.727h-.096a2.7 2.7 0 0 1-1.05 1.353q-.737.495-1.782.495-.947 0-1.666-.435a2.96 2.96 0 0 1-1.117-1.213q-.398-.785-.404-1.836v-5.91h2.952v5.33q.006.755.398 1.19.393.435 1.069.435.44 0 .79-.193.357-.2.562-.574.212-.38.212-.917m4.826 4.002v-9.273h2.952V43.5zm1.479-10.353q-.622 0-1.069-.41a1.32 1.32 0 0 1-.447-1.003q0-.579.447-.99a1.5 1.5 0 0 1 1.069-.417q.627 0 1.068.417.447.411.447.99 0 .585-.447 1.002a1.5 1.5 0 0 1-1.068.41m6.304-2.01V43.5h-2.952V31.136zm5.265 12.496a3.4 3.4 0 0 1-1.865-.531q-.84-.532-1.34-1.594t-.501-2.638q0-1.636.519-2.693.52-1.056 1.358-1.563a3.47 3.47 0 0 1 1.817-.508q.73 0 1.25.254.52.247.857.64.339.392.513.815h.061v-4.679h2.952V43.5h-2.922v-1.503h-.091a2.9 2.9 0 0 1-.53.803q-.345.374-.864.603-.513.23-1.214.23m1.027-2.3q.537 0 .917-.302.38-.308.586-.863t.205-1.304q0-.762-.205-1.31-.2-.55-.586-.846a1.45 1.45 0 0 0-.917-.295q-.55 0-.93.302-.38.3-.58.85-.192.55-.193 1.299 0 .748.2 1.304.198.555.573.863.38.302.93.302m10.795 2.342q-1.455 0-2.511-.573a3.97 3.97 0 0 1-1.618-1.648q-.561-1.075-.561-2.554 0-1.437.567-2.511.567-1.08 1.6-1.679 1.032-.603 2.433-.604.99 0 1.811.308a3.9 3.9 0 0 1 1.418.912q.599.604.93 1.491.332.882.332 2.023v.736h-8.059v-1.715h5.312a1.66 1.66 0 0 0-.223-.839 1.5 1.5 0 0 0-.598-.573 1.7 1.7 0 0 0-.863-.211q-.495 0-.887.223a1.68 1.68 0 0 0-.864 1.449v1.745q0 .567.224.996.223.421.634.658.41.235.978.235.392 0 .712-.109.32-.108.549-.32.23-.21.344-.519l2.711.079a3.35 3.35 0 0 1-.743 1.587q-.567.67-1.491 1.045-.923.368-2.137.368m9.296-.042a3.4 3.4 0 0 1-1.866-.531q-.839-.532-1.34-1.594t-.501-2.638q0-1.636.519-2.693.52-1.056 1.358-1.563a3.5 3.5 0 0 1 1.817-.508q.73 0 1.25.254.52.247.857.64.339.392.514.815h.06v-4.679h2.952V43.5h-2.922v-1.503h-.09a2.9 2.9 0 0 1-.532.803q-.344.374-.863.603-.513.23-1.213.23m1.026-2.3q.537 0 .917-.302.38-.308.586-.863t.205-1.304q0-.762-.205-1.31-.2-.55-.586-.846a1.45 1.45 0 0 0-.917-.295q-.549 0-.93.302-.38.3-.579.85-.194.55-.194 1.299t.2 1.304q.199.555.573.863.381.302.93.302"/></g><defs><filter id="b" width="51.429" height="51.429" x="6.286" y="2.286" color-interpolation-filters="sRGB" filterUnits="userSpaceOnUse"><feFlood flood-opacity="0" result="BackgroundImageFix"/><feColorMatrix in="SourceAlpha" result="hardAlpha" values="0 0 0 0 0 0 0 0 0 0 0 0 0 0 0 0 0 0 127 0"/><feOffset/><feGaussianBlur stdDeviation="2.857"/><feComposite in2="hardAlpha" operator="out"/><feColorMatrix values="0 0 0 0 0 0 0 0 0 0 0 0 0 0 0 0 0 0 0.25 0"/><feBlend in2="BackgroundImageFix" result="effect1_dropShadow_28_825"/><feBlend in="SourceGraphic" in2="effect1_dropShadow_28_825" result="shape"/></filter><filter id="c" width="131.2" height="48.2" x="54.4" y="3.9" color-interpolation-filters="sRGB" filterUnits="userSpaceOnUse"><feFlood flood-opacity="0" result="BackgroundImageFix"/><feColorMatrix in="SourceAlpha" result="hardAlpha" values="0 0 0 0 0 0 0 0 0 0 0 0 0 0 0 0 0 0 127 0"/><feOffset/><feGaussianBlur stdDeviation="2.8"/><feComposite in2="hardAlpha" operator="out"/><feColorMatrix values="0 0 0 0 0 0 0 0 0 0 0 0 0 0 0 0 0 0 0.25 0"/><feBlend in2="BackgroundImageFix" result="effect1_dropShadow_28_825"/><feBlend in="SourceGraphic" in2="effect1_dropShadow_28_825" result="shape"/></filter><linearGradient id="a" x1="96" x2="96" y1="0" y2="56" gradientUnits="userSpaceOnUse"><stop stop-color="#322c16"/><stop offset="1" stop-color="#231f0f"/></linearGradient></defs></svg>