<svg xmlns="http://www.w3.org/2000/svg" width="192" height="56" fill="none" viewBox="0 0 192 56"><rect width="192" height="56" fill="url(#a)" rx="8"/><rect width="189.9" height="53.9" x="1.05" y="1.05" stroke="#fff" stroke-opacity=".15" stroke-width="2.1" rx="6.95"/><g filter="url(#b)"><path fill="#e01e5a" d="M20.433 33.287a4.2 4.2 0 0 1-4.2 4.203 4.2 4.2 0 0 1-4.201-4.203 4.2 4.2 0 0 1 4.2-4.204h4.2zm2.1 0a4.2 4.2 0 0 1 4.2-4.204c2.323 0 4.2 1.879 4.2 4.204v10.51a4.2 4.2 0 0 1-4.2 4.203 4.2 4.2 0 0 1-4.2-4.204z"/><path fill="#36c5f0" d="M26.734 16.408a4.2 4.2 0 0 1-4.201-4.204A4.2 4.2 0 0 1 26.733 8a4.2 4.2 0 0 1 4.201 4.204v4.204zm0 2.133a4.2 4.2 0 0 1 4.2 4.204 4.2 4.2 0 0 1-4.2 4.204H16.2a4.2 4.2 0 0 1-4.2-4.204 4.2 4.2 0 0 1 4.2-4.204z"/><path fill="#2eb67d" d="M43.567 22.745a4.2 4.2 0 0 1 4.2-4.204 4.2 4.2 0 0 1 4.201 4.204 4.2 4.2 0 0 1-4.2 4.204h-4.2zm-2.1 0a4.2 4.2 0 0 1-4.2 4.204 4.2 4.2 0 0 1-4.201-4.204V12.204A4.2 4.2 0 0 1 37.266 8c2.323 0 4.2 1.879 4.2 4.204z"/><path fill="#ecb22e" d="M37.266 39.592c2.323 0 4.2 1.88 4.2 4.204a4.2 4.2 0 0 1-4.2 4.204 4.2 4.2 0 0 1-4.2-4.204v-4.204zm0-2.102a4.2 4.2 0 0 1-4.2-4.203 4.2 4.2 0 0 1 4.2-4.204H47.8c2.323 0 4.2 1.879 4.2 4.204a4.2 4.2 0 0 1-4.2 4.203z"/></g><g filter="url(#c)"><path fill="#e8e8e8" d="M70.943 16.648h-1.772a2.7 2.7 0 0 0-1.063-1.733q-.403-.301-.904-.455a3.5 3.5 0 0 0-1.05-.153q-1.006 0-1.802.505-.79.506-1.25 1.484-.454.976-.454 2.386 0 1.42.454 2.398.46.977 1.256 1.477.795.5 1.79.5.551 0 1.045-.148.5-.153.904-.449a2.72 2.72 0 0 0 1.074-1.71l1.772.006a4.8 4.8 0 0 1-.551 1.58q-.403.716-1.04 1.238-.63.517-1.443.801a5.3 5.3 0 0 1-1.773.284q-1.51 0-2.693-.716-1.182-.72-1.863-2.062-.677-1.34-.677-3.2 0-1.863.682-3.198.682-1.341 1.864-2.057 1.182-.721 2.687-.722.927 0 1.728.268.806.26 1.448.772.642.505 1.063 1.239.42.727.568 1.665m3.663 2.67V24.5h-1.698V12.864h1.676v4.33h.108q.306-.706.937-1.12.63-.415 1.648-.415.898 0 1.568.37.676.369 1.046 1.102.375.727.375 1.818V24.5h-1.7v-5.347q0-.96-.494-1.488-.494-.534-1.375-.534a2.25 2.25 0 0 0-1.08.255q-.471.255-.743.75-.267.489-.267 1.182m10.466 5.375a3.6 3.6 0 0 1-1.5-.307 2.53 2.53 0 0 1-1.062-.903q-.386-.591-.386-1.449 0-.739.284-1.216t.767-.756a4 4 0 0 1 1.08-.42q.596-.142 1.215-.216l1.273-.148q.489-.061.71-.198.222-.137.222-.444v-.04q0-.744-.42-1.153-.415-.41-1.24-.409-.857 0-1.352.38-.487.376-.676.836l-1.596-.364q.283-.795.83-1.284.55-.495 1.266-.716.717-.227 1.506-.227.522 0 1.108.125.59.12 1.102.443.517.324.847.926.33.597.33 1.552V24.5h-1.66v-1.193h-.068q-.165.33-.494.648-.33.318-.847.528t-1.239.21m.37-1.364q.705 0 1.204-.278a1.95 1.95 0 0 0 .767-.727q.267-.454.267-.972v-1.125q-.09.091-.352.17-.255.075-.585.131-.33.052-.642.097l-.523.068q-.494.063-.903.21-.404.148-.648.427-.24.272-.239.727 0 .63.466.954.466.32 1.188.319m10.274-7.556v1.363H90.95v-1.363zm-3.489-2.091h1.7v8.256q0 .493.147.744a.77.77 0 0 0 .38.335q.24.085.518.085.204 0 .358-.028l.238-.046.307 1.404a3 3 0 0 1-.42.114q-.273.062-.682.068a3 3 0 0 1-1.25-.239 2.15 2.15 0 0 1-.938-.773q-.357-.523-.358-1.312zM103.722 24.5l-2.569-8.727h1.756l1.71 6.409h.086l1.715-6.41h1.756l1.705 6.381h.085l1.699-6.38h1.755l-2.562 8.727h-1.733l-1.773-6.301h-.13l-1.773 6.301zm11.311 0v-8.727h1.699V24.5zm.858-10.074a1.08 1.08 0 0 1-.762-.295.96.96 0 0 1-.312-.716.95.95 0 0 1 .312-.716q.318-.3.762-.301.443 0 .755.3a.94.94 0 0 1 .318.717.95.95 0 0 1-.318.716q-.312.295-.755.295m7.2 1.347v1.363h-4.767v-1.363zm-3.489-2.091h1.699v8.256q0 .493.148.744a.77.77 0 0 0 .381.335q.238.085.517.085a2 2 0 0 0 .358-.028l.238-.046.307 1.404a3 3 0 0 1-.42.114q-.273.062-.682.068a3 3 0 0 1-1.25-.239 2.14 2.14 0 0 1-.938-.773q-.357-.523-.358-1.312zm7.255 5.636V24.5h-1.699V12.864h1.676v4.33h.108q.306-.706.937-1.12t1.648-.415q.897 0 1.568.37.676.369 1.046 1.102.375.727.375 1.818V24.5h-1.699v-5.347q0-.96-.495-1.488-.493-.534-1.375-.534-.602 0-1.079.255-.472.255-.744.75-.267.489-.267 1.182m17.688 1.563v-5.108h1.705V24.5h-1.67v-1.511h-.091a2.73 2.73 0 0 1-.966 1.164q-.66.46-1.642.46-.841 0-1.489-.369-.642-.375-1.011-1.108-.364-.732-.364-1.812v-5.551h1.699v5.346q0 .893.494 1.42.495.53 1.284.53.477 0 .949-.24.477-.239.79-.721.318-.483.312-1.227m10.527-2.978-1.539.273a1.8 1.8 0 0 0-.307-.562 1.5 1.5 0 0 0-.557-.438q-.352-.17-.881-.17-.721 0-1.204.323-.483.319-.483.824 0 .438.324.705t1.045.438l1.387.318q1.204.277 1.795.858.591.58.591 1.505 0 .785-.455 1.398-.448.608-1.255.954-.802.348-1.858.347-1.467 0-2.392-.625-.927-.63-1.137-1.79l1.642-.25q.154.642.631.972.477.324 1.244.324.835 0 1.336-.347.5-.352.5-.858a.9.9 0 0 0-.307-.687q-.302-.279-.926-.42l-1.478-.325q-1.221-.277-1.806-.886-.58-.607-.58-1.54a2.2 2.2 0 0 1 .432-1.352q.431-.579 1.193-.903.762-.33 1.744-.33 1.415 0 2.228.614.812.608 1.073 1.63m9.949 6.773q-1.227 0-2.142-.562a3.8 3.8 0 0 1-1.42-1.574q-.506-1.011-.506-2.364 0-1.358.506-2.375a3.8 3.8 0 0 1 1.42-1.58q.915-.561 2.142-.562 1.227 0 2.142.563t1.421 1.58q.505 1.016.505 2.374 0 1.353-.505 2.364a3.8 3.8 0 0 1-1.421 1.574q-.915.562-2.142.562m.006-1.426q.796 0 1.318-.42.523-.42.773-1.12.255-.699.256-1.54 0-.835-.256-1.534a2.5 2.5 0 0 0-.773-1.13q-.523-.426-1.318-.427-.8 0-1.33.427a2.54 2.54 0 0 0-.778 1.13q-.25.7-.25 1.535 0 .84.25 1.54.255.697.778 1.119.53.42 1.33.42m7.658-3.932V24.5h-1.699v-8.727h1.63v1.42h.108q.302-.693.944-1.114.647-.42 1.63-.42.893 0 1.563.375.67.37 1.04 1.102.369.733.369 1.813V24.5h-1.699v-5.347q0-.948-.494-1.482-.495-.54-1.358-.54-.591 0-1.051.255-.455.255-.722.75-.261.489-.261 1.182"/><path fill="#d54ad5" d="M67.619 34.843q-.06-.665-.538-1.032-.47-.375-1.346-.375-.579 0-.966.151-.385.151-.58.417a1 1 0 0 0-.199.598.9.9 0 0 0 .11.489q.126.21.361.374.242.157.58.277.338.122.76.212l1.063.241a7.5 7.5 0 0 1 1.618.532q.706.331 1.183.79.484.459.73 1.057.248.597.254 1.34-.006 1.17-.591 2.01t-1.685 1.286q-1.093.447-2.638.447-1.552 0-2.704-.465-1.154-.464-1.793-1.413-.64-.947-.658-2.396h2.861q.035.597.32.996t.779.604q.5.204 1.159.205.603 0 1.026-.163.429-.163.658-.453a1.07 1.07 0 0 0 .236-.664.92.92 0 0 0-.218-.598q-.21-.254-.652-.434-.435-.188-1.11-.344l-1.292-.302q-1.606-.369-2.53-1.19-.924-.825-.917-2.233-.007-1.148.615-2.01.622-.864 1.72-1.347 1.1-.483 2.506-.483 1.438 0 2.493.49 1.063.482 1.648 1.358.586.875.598 2.028zm7.491-3.707V43.5h-2.952V31.136zm4.493 12.521q-.886 0-1.575-.296a2.45 2.45 0 0 1-1.08-.905q-.393-.61-.393-1.528 0-.773.271-1.304.272-.531.749-.863a3.5 3.5 0 0 1 1.099-.501 7 7 0 0 1 1.328-.235q.79-.074 1.274-.151.483-.085.7-.236a.51.51 0 0 0 .223-.44v-.03q0-.465-.32-.72-.319-.252-.863-.253-.585 0-.942.254a1.12 1.12 0 0 0-.453.7l-2.722-.096q.12-.846.622-1.51.506-.67 1.388-1.05.888-.387 2.131-.387.888 0 1.636.212.75.205 1.304.604.555.392.857.965.309.575.308 1.31V43.5h-2.777v-1.292h-.072q-.247.471-.634.797-.38.326-.9.489a3.8 3.8 0 0 1-1.159.163m.912-1.932q.477 0 .857-.193.387-.194.616-.531.23-.344.23-.797v-.882a2 2 0 0 1-.309.121 5 5 0 0 1-.386.103q-.211.048-.434.084-.224.036-.43.067a2.7 2.7 0 0 0-.712.205 1.1 1.1 0 0 0-.446.362.9.9 0 0 0-.151.52q0 .458.326.7.331.24.839.241m10.764 1.95q-1.467 0-2.518-.604a4.1 4.1 0 0 1-1.605-1.678q-.562-1.08-.562-2.5 0-1.424.562-2.498a4.1 4.1 0 0 1 1.611-1.685q1.05-.603 2.506-.604 1.286 0 2.24.465.96.465 1.497 1.316.543.846.573 1.987h-2.759q-.084-.713-.483-1.117-.391-.405-1.026-.405-.513 0-.9.29-.385.284-.603.845-.211.556-.211 1.377 0 .82.21 1.388.218.561.605.851.386.285.9.284.41 0 .724-.175.32-.175.525-.513.204-.344.26-.833h2.758q-.043 1.146-.573 2.004a3.56 3.56 0 0 1-1.48 1.334q-.947.471-2.251.471m8.477-2.608.012-3.52h.411l2.608-3.32h3.344l-3.876 4.757h-.778zM97.094 43.5V31.136h2.952V43.5zm5.759 0-2.427-3.852 1.944-2.094 3.894 5.946z"/></g><defs><filter id="b" width="51.429" height="51.429" x="6.286" y="2.286" color-interpolation-filters="sRGB" filterUnits="userSpaceOnUse"><feFlood flood-opacity="0" result="BackgroundImageFix"/><feColorMatrix in="SourceAlpha" result="hardAlpha" values="0 0 0 0 0 0 0 0 0 0 0 0 0 0 0 0 0 0 127 0"/><feOffset/><feGaussianBlur stdDeviation="2.857"/><feComposite in2="hardAlpha" operator="out"/><feColorMatrix values="0 0 0 0 0 0 0 0 0 0 0 0 0 0 0 0 0 0 0.25 0"/><feBlend in2="BackgroundImageFix" result="effect1_dropShadow_28_805"/><feBlend in="SourceGraphic" in2="effect1_dropShadow_28_805" result="shape"/></filter><filter id="c" width="131.2" height="48.2" x="54.4" y="3.9" color-interpolation-filters="sRGB" filterUnits="userSpaceOnUse"><feFlood flood-opacity="0" result="BackgroundImageFix"/><feColorMatrix in="SourceAlpha" result="hardAlpha" values="0 0 0 0 0 0 0 0 0 0 0 0 0 0 0 0 0 0 127 0"/><feOffset/><feGaussianBlur stdDeviation="2.8"/><feComposite in2="hardAlpha" operator="out"/><feColorMatrix values="0 0 0 0 0 0 0 0 0 0 0 0 0 0 0 0 0 0 0.25 0"/><feBlend in2="BackgroundImageFix" result="effect1_dropShadow_28_805"/><feBlend in="SourceGraphic" in2="effect1_dropShadow_28_805" result="shape"/></filter><linearGradient id="a" x1="95.309" x2="95.309" y1="0" y2="56" gradientUnits="userSpaceOnUse"><stop stop-color="#2c0c2c"/><stop offset="1" stop-color="#1c081c"/></linearGradient></defs></svg>