<svg xmlns="http://www.w3.org/2000/svg" width="167" height="56" fill="none" viewBox="0 0 167 56"><rect width="167" height="56" fill="url(#a)" rx="8"/><rect width="164.9" height="53.9" x="1.05" y="1.05" stroke="#fff" stroke-opacity=".15" stroke-width="2.1" rx="6.95"/><g filter="url(#b)"><path fill="#7755ac" d="m15.32 8-2.606 6.949v27.79h9.55v5.215h5.214l5.208-5.214h7.815l10.422-10.42V8zm3.471 3.472h28.66v19.109l-6.081 6.08h-9.551l-5.207 5.207v-5.206h-7.82zm9.554 17.374h3.474V18.424h-3.474zm9.552 0h3.473V18.424h-3.473z"/></g><g filter="url(#c)"><path fill="#e8e8e8" d="M63.557 24.5 60.33 12.864h1.846l2.267 9.011h.108l2.358-9.011h1.83l2.358 9.017h.108l2.26-9.017h1.853L72.085 24.5h-1.767l-2.449-8.716h-.09l-2.45 8.716zm14.906.193a3.6 3.6 0 0 1-1.5-.307 2.53 2.53 0 0 1-1.062-.903q-.387-.591-.387-1.449 0-.739.284-1.216.285-.477.767-.756a4 4 0 0 1 1.08-.42q.597-.142 1.216-.216l1.272-.148q.49-.061.71-.198.222-.137.222-.444v-.04q0-.744-.42-1.153-.416-.41-1.239-.409-.858 0-1.352.38-.489.376-.676.836l-1.597-.364q.284-.795.83-1.284.551-.495 1.267-.716.716-.227 1.505-.227.523 0 1.109.125.59.12 1.102.443.517.324.846.926.33.597.33 1.552V24.5h-1.66v-1.193h-.067q-.165.33-.495.648t-.846.528-1.239.21m.37-1.364q.704 0 1.204-.278a1.95 1.95 0 0 0 .767-.727q.267-.454.267-.972v-1.125q-.09.091-.352.17-.256.075-.585.131-.33.052-.642.097l-.523.068q-.494.063-.904.21-.403.148-.647.427-.24.272-.239.727 0 .63.466.954.465.32 1.187.319m10.273-7.556v1.363H84.34v-1.363zm-3.488-2.091h1.699v8.256q0 .493.148.744a.77.77 0 0 0 .38.335q.24.085.517.085.205 0 .358-.028l.239-.046.307 1.404a3 3 0 0 1-.42.114q-.274.062-.683.068a3 3 0 0 1-1.25-.239 2.15 2.15 0 0 1-.937-.773q-.358-.523-.358-1.312zm8.95 10.994q-1.266 0-2.182-.574a3.8 3.8 0 0 1-1.397-1.596q-.489-1.017-.489-2.33 0-1.329.5-2.346a3.83 3.83 0 0 1 1.41-1.597q.909-.574 2.141-.574.994 0 1.773.37.778.363 1.255 1.022.484.66.574 1.54H96.5q-.136-.615-.625-1.057-.483-.443-1.296-.443a2.1 2.1 0 0 0-1.244.375q-.528.369-.824 1.057-.295.681-.295 1.613 0 .955.29 1.648t.818 1.074q.535.38 1.255.38.484 0 .876-.175.397-.183.664-.517.273-.336.381-.807h1.653a3.2 3.2 0 0 1-.55 1.511 3.2 3.2 0 0 1-1.234 1.046q-.766.38-1.8.38m7.101-5.358V24.5h-1.7V12.864h1.676v4.33h.108q.307-.706.938-1.12.63-.415 1.647-.415.898 0 1.569.37a2.5 2.5 0 0 1 1.045 1.102q.375.727.375 1.818V24.5h-1.699v-5.347q0-.96-.494-1.488-.495-.534-1.375-.534-.602 0-1.08.255-.471.255-.744.75-.267.489-.267 1.182m17.689 1.563v-5.108h1.704V24.5h-1.67v-1.511h-.091a2.73 2.73 0 0 1-.966 1.164q-.659.46-1.642.46-.84 0-1.488-.369-.643-.375-1.012-1.108-.363-.732-.363-1.812v-5.551h1.698v5.346q0 .893.495 1.42.494.53 1.284.53.477 0 .949-.24.477-.239.789-.721.32-.483.313-1.227m10.527-2.978-1.54.273a1.8 1.8 0 0 0-.307-.562 1.5 1.5 0 0 0-.556-.438q-.353-.17-.881-.17-.722 0-1.205.323-.483.319-.483.824 0 .438.324.705t1.046.438l1.386.318q1.205.277 1.795.858.591.58.591 1.505 0 .785-.454 1.398-.449.608-1.256.954-.8.348-1.858.347-1.465 0-2.392-.625-.926-.63-1.136-1.79l1.642-.25q.153.642.631.972.476.324 1.244.324.835 0 1.335-.347.5-.352.5-.858a.89.89 0 0 0-.307-.687q-.301-.279-.926-.42l-1.477-.325q-1.222-.277-1.807-.886-.58-.607-.58-1.54a2.2 2.2 0 0 1 .432-1.352q.432-.579 1.193-.903.761-.33 1.745-.33 1.414 0 2.227.614.813.608 1.074 1.63m9.949 6.773q-1.227 0-2.142-.562a3.8 3.8 0 0 1-1.421-1.574q-.505-1.011-.505-2.364 0-1.358.505-2.375a3.8 3.8 0 0 1 1.421-1.58q.915-.561 2.142-.562 1.227 0 2.142.563t1.42 1.58q.506 1.016.506 2.374 0 1.353-.506 2.364a3.8 3.8 0 0 1-1.42 1.574q-.915.562-2.142.562m.005-1.426q.796 0 1.319-.42t.772-1.12q.256-.699.256-1.54 0-.835-.256-1.534a2.5 2.5 0 0 0-.772-1.13q-.523-.426-1.319-.427-.801 0-1.329.427a2.53 2.53 0 0 0-.778 1.13q-.25.7-.25 1.535 0 .84.25 1.54.255.697.778 1.119.528.42 1.329.42m7.658-3.932V24.5h-1.699v-8.727h1.631v1.42h.108q.301-.693.943-1.114.648-.42 1.631-.42.891 0 1.562.375.67.37 1.04 1.102.369.733.369 1.813V24.5h-1.699v-5.347q0-.948-.494-1.482-.494-.54-1.358-.54-.59 0-1.051.255-.454.255-.722.75-.261.489-.261 1.182"/><path fill="#7755ac" d="M60.531 33.563v-2.427h10.45v2.427h-3.749V43.5h-2.946v-9.937zm12.58 9.937-2.415-9.273h2.964l1.25 5.94h.078l1.34-5.94h2.892l1.377 5.898h.078l1.213-5.898h2.965L82.432 43.5h-3.158l-1.448-5.403h-.103L76.274 43.5zm12.926 0v-9.273h2.952V43.5zm1.48-10.353q-.622 0-1.07-.41a1.32 1.32 0 0 1-.446-1.003q0-.579.447-.99a1.5 1.5 0 0 1 1.068-.417q.628 0 1.069.417.447.411.447.99 0 .585-.447 1.002-.44.41-1.069.41m8.585 1.08V36.4h-5.85v-2.174zm-4.624-2.221h2.952v8.578q0 .272.085.44.09.165.26.236.168.067.404.067.168 0 .356-.03.193-.038.29-.06l.446 2.13q-.21.06-.597.151a5 5 0 0 1-.912.115q-1.038.048-1.78-.242a2.3 2.3 0 0 1-1.13-.917q-.386-.622-.374-1.564zm10.359 11.67q-1.467 0-2.517-.605a4.1 4.1 0 0 1-1.606-1.678q-.561-1.08-.561-2.5 0-1.424.561-2.498a4.1 4.1 0 0 1 1.612-1.685q1.05-.603 2.505-.604 1.287 0 2.24.465a3.56 3.56 0 0 1 1.497 1.316q.543.846.574 1.987h-2.759q-.084-.713-.483-1.117-.393-.405-1.026-.405a1.46 1.46 0 0 0-.9.29q-.386.284-.604.845-.21.556-.211 1.377 0 .82.211 1.388.218.561.604.851.387.285.9.284.41 0 .724-.175.32-.175.525-.513.206-.344.26-.833h2.759q-.043 1.146-.574 2.004a3.55 3.55 0 0 1-1.479 1.334q-.948.471-2.252.471m8.768-5.464v5.29h-2.952V31.136h2.855v4.794h.103a2.7 2.7 0 0 1 1.026-1.34q.718-.484 1.757-.484.978 0 1.702.435.724.428 1.123 1.214.405.785.398 1.835v5.91h-2.952v-5.33q.007-.773-.386-1.208t-1.105-.435q-.465 0-.821.206a1.4 1.4 0 0 0-.549.573q-.193.375-.199.906"/></g><defs><filter id="b" width="51.429" height="51.429" x="6.286" y="2.286" color-interpolation-filters="sRGB" filterUnits="userSpaceOnUse"><feFlood flood-opacity="0" result="BackgroundImageFix"/><feColorMatrix in="SourceAlpha" result="hardAlpha" values="0 0 0 0 0 0 0 0 0 0 0 0 0 0 0 0 0 0 127 0"/><feOffset/><feGaussianBlur stdDeviation="2.857"/><feComposite in2="hardAlpha" operator="out"/><feColorMatrix values="0 0 0 0 0 0 0 0 0 0 0 0 0 0 0 0 0 0 0.25 0"/><feBlend in2="BackgroundImageFix" result="effect1_dropShadow_28_767"/><feBlend in="SourceGraphic" in2="effect1_dropShadow_28_767" result="shape"/></filter><filter id="c" width="106.2" height="48.2" x="54.4" y="3.9" color-interpolation-filters="sRGB" filterUnits="userSpaceOnUse"><feFlood flood-opacity="0" result="BackgroundImageFix"/><feColorMatrix in="SourceAlpha" result="hardAlpha" values="0 0 0 0 0 0 0 0 0 0 0 0 0 0 0 0 0 0 127 0"/><feOffset/><feGaussianBlur stdDeviation="2.8"/><feComposite in2="hardAlpha" operator="out"/><feColorMatrix values="0 0 0 0 0 0 0 0 0 0 0 0 0 0 0 0 0 0 0.25 0"/><feBlend in2="BackgroundImageFix" result="effect1_dropShadow_28_767"/><feBlend in="SourceGraphic" in2="effect1_dropShadow_28_767" result="shape"/></filter><linearGradient id="a" x1="83.5" x2="83.5" y1="0" y2="56" gradientUnits="userSpaceOnUse"><stop stop-color="#1e142f"/><stop offset="1" stop-color="#150e20"/></linearGradient></defs></svg>