<svg xmlns="http://www.w3.org/2000/svg" width="172" height="56" fill="none" viewBox="0 0 172 56"><rect width="172" height="56" fill="url(#a)" rx="8"/><rect width="169.9" height="53.9" x="1.05" y="1.05" stroke="#fff" stroke-opacity=".15" stroke-width="2.1" rx="6.95"/><g filter="url(#b)"><path fill="#f22f21" d="M43.693 13.714H20.308C15.719 13.714 12 17.47 12 22.1v11.8c0 4.631 3.72 8.386 8.308 8.386h23.385C48.28 42.286 52 38.53 52 33.9V22.1c0-4.631-3.72-8.386-8.307-8.386m-5.619 14.86L27.136 33.84a.44.44 0 0 1-.628-.4V22.58a.44.44 0 0 1 .638-.396l10.938 5.595a.445.445 0 0 1-.01.795"/></g><g filter="url(#c)"><path fill="#e8e8e8" d="M63.557 24.5 60.33 12.864h1.846l2.267 9.011h.108l2.358-9.011h1.83l2.358 9.017h.108l2.26-9.017h1.853L72.085 24.5h-1.767l-2.449-8.716h-.09l-2.45 8.716zm14.906.193a3.6 3.6 0 0 1-1.5-.307 2.53 2.53 0 0 1-1.062-.903q-.387-.591-.387-1.449 0-.739.284-1.216.285-.477.767-.756a4 4 0 0 1 1.08-.42q.597-.142 1.216-.216l1.272-.148q.49-.061.71-.198.222-.137.222-.444v-.04q0-.744-.42-1.153-.416-.41-1.239-.409-.858 0-1.352.38-.489.376-.676.836l-1.597-.364q.284-.795.83-1.284.551-.495 1.267-.716.716-.227 1.505-.227.523 0 1.109.125.59.12 1.102.443.517.324.846.926.33.597.33 1.552V24.5h-1.66v-1.193h-.067q-.165.33-.495.648t-.846.528-1.239.21m.37-1.364q.704 0 1.204-.278a1.95 1.95 0 0 0 .767-.727q.267-.454.267-.972v-1.125q-.09.091-.352.17-.256.075-.585.131-.33.052-.642.097l-.523.068q-.494.063-.904.21-.403.148-.647.427-.24.272-.239.727 0 .63.466.954.465.32 1.187.319m10.273-7.556v1.363H84.34v-1.363zm-3.488-2.091h1.699v8.256q0 .493.148.744a.77.77 0 0 0 .38.335q.24.085.517.085.205 0 .358-.028l.239-.046.307 1.404a3 3 0 0 1-.42.114q-.274.062-.683.068a3 3 0 0 1-1.25-.239 2.15 2.15 0 0 1-.937-.773q-.358-.523-.358-1.312zm8.95 10.994q-1.266 0-2.182-.574a3.8 3.8 0 0 1-1.397-1.596q-.489-1.017-.489-2.33 0-1.329.5-2.346a3.83 3.83 0 0 1 1.41-1.597q.909-.574 2.141-.574.994 0 1.773.37.778.363 1.255 1.022.484.66.574 1.54H96.5q-.136-.615-.625-1.057-.483-.443-1.296-.443a2.1 2.1 0 0 0-1.244.375q-.528.369-.824 1.057-.295.681-.295 1.613 0 .955.29 1.648t.818 1.074q.535.38 1.255.38.484 0 .876-.175.397-.183.664-.517.273-.336.381-.807h1.653a3.2 3.2 0 0 1-.55 1.511 3.2 3.2 0 0 1-1.234 1.046q-.766.38-1.8.38m7.101-5.358V24.5h-1.7V12.864h1.676v4.33h.108q.307-.706.938-1.12.63-.415 1.647-.415.898 0 1.569.37a2.5 2.5 0 0 1 1.045 1.102q.375.727.375 1.818V24.5h-1.699v-5.347q0-.96-.494-1.488-.495-.534-1.375-.534-.602 0-1.08.255-.471.255-.744.75-.267.489-.267 1.182M113.83 24.5v-8.727h1.63v1.42h.108q.273-.72.892-1.125.62-.41 1.483-.409.875 0 1.466.41.596.408.881 1.124h.091q.312-.699.994-1.114.682-.42 1.625-.42 1.187 0 1.937.744.756.745.756 2.245V24.5h-1.699v-5.693q0-.887-.483-1.284a1.76 1.76 0 0 0-1.153-.398q-.83 0-1.29.511-.46.506-.46 1.302V24.5h-1.693v-5.801q0-.71-.443-1.142-.444-.432-1.154-.432-.483 0-.892.256a1.87 1.87 0 0 0-.653.698 2.14 2.14 0 0 0-.245 1.04V24.5zm17.902.176q-1.29 0-2.222-.551a3.73 3.73 0 0 1-1.432-1.562q-.5-1.012-.5-2.37 0-1.341.5-2.364a3.9 3.9 0 0 1 1.409-1.596q.91-.574 2.125-.574.74 0 1.432.244.693.244 1.244.768.552.522.87 1.357.318.83.318 2.018v.602h-6.938v-1.273h5.273q0-.67-.273-1.187a2.05 2.05 0 0 0-.767-.824q-.488-.302-1.147-.302-.717 0-1.25.353a2.37 2.37 0 0 0-.819.909 2.6 2.6 0 0 0-.284 1.21v.994q0 .876.307 1.489.312.615.869.938.557.318 1.302.318.483 0 .88-.137.398-.142.688-.42.29-.279.443-.688l1.608.29q-.194.71-.693 1.244-.495.529-1.245.824-.744.29-1.698.29m13.539 0q-1.227 0-2.142-.562a3.8 3.8 0 0 1-1.42-1.574q-.506-1.011-.506-2.364 0-1.358.506-2.375a3.8 3.8 0 0 1 1.42-1.58q.915-.561 2.142-.562 1.227 0 2.142.563t1.421 1.58q.505 1.016.505 2.374 0 1.353-.505 2.364a3.8 3.8 0 0 1-1.421 1.574q-.915.562-2.142.562m.006-1.426q.796 0 1.318-.42.523-.42.773-1.12.255-.699.256-1.54 0-.835-.256-1.534a2.5 2.5 0 0 0-.773-1.13q-.523-.426-1.318-.427-.8 0-1.33.427a2.54 2.54 0 0 0-.778 1.13q-.25.7-.25 1.535 0 .84.25 1.54.255.697.778 1.119.53.42 1.33.42m7.658-3.932V24.5h-1.699v-8.727h1.63v1.42h.108q.302-.693.944-1.114.647-.42 1.63-.42.893 0 1.563.375.67.37 1.04 1.102.369.733.369 1.813V24.5h-1.699v-5.347q0-.948-.494-1.482-.495-.54-1.358-.54-.591 0-1.051.255-.455.255-.722.75-.261.489-.261 1.182"/><path fill="#f22f21" d="M60.32 31.136h3.338l2.614 5.174h.109l2.614-5.174h3.338l-4.521 8.235V43.5h-2.97v-4.13zm15.453 12.54q-1.461 0-2.511-.599A4.1 4.1 0 0 1 71.65 41.4q-.562-1.08-.562-2.505 0-1.432.562-2.505.567-1.08 1.612-1.679 1.05-.603 2.511-.604 1.462 0 2.505.604 1.05.598 1.612 1.678.568 1.075.568 2.506 0 1.425-.568 2.505a4.07 4.07 0 0 1-1.612 1.678q-1.044.598-2.505.598m.018-2.229q.531 0 .9-.326.367-.326.561-.905.2-.58.2-1.34 0-.773-.2-1.353-.194-.58-.561-.905a1.3 1.3 0 0 0-.9-.326 1.38 1.38 0 0 0-.93.326q-.374.327-.573.905-.193.58-.193 1.353 0 .76.193 1.34.2.58.573.905.381.327.93.326m12.162-1.95v-5.27h2.945V43.5h-2.813v-1.727h-.096a2.7 2.7 0 0 1-1.05 1.353q-.737.495-1.782.495-.948 0-1.666-.435a2.96 2.96 0 0 1-1.117-1.213q-.398-.785-.404-1.836v-5.91h2.952v5.33q.006.755.398 1.19.393.435 1.069.435.44 0 .79-.193.357-.2.562-.574.212-.38.212-.917m3.557-5.934v-2.427h10.45v2.427h-3.75V43.5h-2.945v-9.937zm16.63 5.935v-5.27h2.946V43.5h-2.813v-1.727h-.097a2.7 2.7 0 0 1-1.05 1.353q-.737.495-1.781.495-.948 0-1.666-.435a2.96 2.96 0 0 1-1.117-1.213q-.399-.785-.405-1.836v-5.91h2.952v5.33q.006.755.399 1.19.392.435 1.068.435.441 0 .791-.193.357-.2.562-.574.211-.38.211-.917m4.825 4.002V31.136h2.952v4.679h.06q.181-.422.514-.815.338-.393.857-.64.525-.254 1.255-.254.966 0 1.806.508.845.507 1.364 1.563t.519 2.693q0 1.575-.501 2.638-.495 1.063-1.34 1.594a3.4 3.4 0 0 1-1.866.53q-.7 0-1.213-.229a2.6 2.6 0 0 1-.863-.603 2.9 2.9 0 0 1-.532-.803h-.09V43.5zm2.892-4.636q0 .748.199 1.304.206.555.585.863.387.302.924.302.543 0 .924-.302.38-.308.573-.863.2-.555.2-1.304 0-.75-.2-1.298-.193-.55-.573-.852-.375-.3-.924-.301-.543 0-.924.295-.38.297-.585.846-.2.548-.199 1.31m12.317 4.811q-1.456 0-2.512-.573a3.97 3.97 0 0 1-1.618-1.648q-.561-1.075-.561-2.554 0-1.437.567-2.511.568-1.08 1.6-1.679 1.032-.603 2.433-.604.99 0 1.811.308.82.309 1.419.912.597.604.929 1.491.333.882.332 2.023v.736h-8.059v-1.715h5.313a1.66 1.66 0 0 0-.224-.839 1.5 1.5 0 0 0-.597-.573 1.73 1.73 0 0 0-.864-.211q-.495 0-.887.223a1.68 1.68 0 0 0-.863 1.449v1.745q0 .567.223.996.223.421.634.658.411.235.978.235.392 0 .712-.109a1.5 1.5 0 0 0 .55-.32q.229-.21.344-.519l2.71.079a3.35 3.35 0 0 1-.742 1.587q-.569.67-1.491 1.045-.924.368-2.137.368"/></g><defs><filter id="b" width="51.429" height="51.429" x="6.286" y="2.286" color-interpolation-filters="sRGB" filterUnits="userSpaceOnUse"><feFlood flood-opacity="0" result="BackgroundImageFix"/><feColorMatrix in="SourceAlpha" result="hardAlpha" values="0 0 0 0 0 0 0 0 0 0 0 0 0 0 0 0 0 0 127 0"/><feOffset/><feGaussianBlur stdDeviation="2.857"/><feComposite in2="hardAlpha" operator="out"/><feColorMatrix values="0 0 0 0 0 0 0 0 0 0 0 0 0 0 0 0 0 0 0.25 0"/><feBlend in2="BackgroundImageFix" result="effect1_dropShadow_28_761"/><feBlend in="SourceGraphic" in2="effect1_dropShadow_28_761" result="shape"/></filter><filter id="c" width="111.2" height="48.2" x="54.4" y="3.9" color-interpolation-filters="sRGB" filterUnits="userSpaceOnUse"><feFlood flood-opacity="0" result="BackgroundImageFix"/><feColorMatrix in="SourceAlpha" result="hardAlpha" values="0 0 0 0 0 0 0 0 0 0 0 0 0 0 0 0 0 0 127 0"/><feOffset/><feGaussianBlur stdDeviation="2.8"/><feComposite in2="hardAlpha" operator="out"/><feColorMatrix values="0 0 0 0 0 0 0 0 0 0 0 0 0 0 0 0 0 0 0.25 0"/><feBlend in2="BackgroundImageFix" result="effect1_dropShadow_28_761"/><feBlend in="SourceGraphic" in2="effect1_dropShadow_28_761" result="shape"/></filter><linearGradient id="a" x1="86" x2="86" y1="0" y2="56" gradientUnits="userSpaceOnUse"><stop stop-color="#321513"/><stop offset="1" stop-color="#210e0c"/></linearGradient></defs></svg>