<svg xmlns="http://www.w3.org/2000/svg" width="167" height="56" fill="none" viewBox="0 0 167 56"><rect width="167" height="56" fill="url(#a)" rx="8"/><rect width="164.9" height="53.9" x="1.05" y="1.05" stroke="#fff" stroke-opacity=".15" stroke-width="2.1" rx="6.95"/><g filter="url(#b)"><path fill="#f1f1f1" d="M38.852 38.016a4.4 4.4 0 0 1-2.721-.93c-.907-.743-1.633-1.86-1.633-3.161 0-.744.726-.744.726-.744h1.632c.544 0 .726.744.726.93.181 1.86 1.27 2.604 1.995 2.976.363.185.182.93-.725.93m-9.433-9.113-3.266-.372c-1.45-.557-1.45-1.86-1.27-2.231.182-1.302.726-2.604 1.27-3.72.907-1.302 2.177-2.604 3.81-3.534 3.084-1.86 7.438-2.975 12.154-2.975 3.447 0 7.075.558 7.075.558.363 0 .544.372.544.744s-.181.743-.544.743h-1.451c-4.898 0-8.345.744-10.885 2.232s-4.353 3.72-5.442 6.882c-.181.186-.544 1.86-1.995 1.673M33.59 42.48c-2.358 0-4.717-1.116-6.35-2.976-1.45-1.674-2.357-3.347-2.539-5.393-.181-1.488.544-1.86 1.27-1.86l3.265.372c.726.186 1.27.558 1.452 1.488.725 4.65 3.446 6.51 5.26 7.067q.544 0 .544.558c0 .372-.18.558-.544.744zm-6.893 4.092c-1.27 0-2.54-.187-3.81-.373-1.996-.371-3.628-.93-5.08-2.045-3.446-2.232-5.442-6.324-5.804-10.973 0-1.116-.182-3.348 2.358-3.162 1.088 0 2.721.558 3.99.93 1.452.372 2.178 1.674 2.178 2.79 0 6.695 5.805 11.159 8.344 11.159 1.089 0 .726 1.301.182 1.301-.726.373-1.814.373-2.358.373m-8.89-19.528c-1.088-.186-1.995-.558-2.902-.93-2.902-.744-2.358-3.906-2.177-4.65 2.721-8.183 11.247-10.973 18.14-11.717a49.9 49.9 0 0 1 19.593 1.674c.544.186 2.177.558 1.27 1.488-.544.558-2.903 0-3.447 0-3.628-.372-7.438-.372-11.066.186-3.99.558-7.982 1.86-11.066 4.65-1.814 1.301-4.535 5.95-4.535 6.509-.181.558-.907 3.162-3.81 2.79m16.509 1.487c.544-2.603 3.084-6.695 10.703-6.323 1.814 0 .907 1.302 0 1.302-4.354-.186-6.35 2.79-7.438 5.58-.363.93-1.089 1.115-2.177.93-.544-.187-1.27-.187-1.088-1.489"/></g><g filter="url(#c)"><path fill="#e8e8e8" d="M60.705 14.375v-1.511h9.005v1.511h-3.63V24.5h-1.75V14.375zM70.658 24.5v-8.727H72.3v1.386h.09q.24-.705.841-1.108.609-.41 1.376-.409a7 7 0 0 1 .721.04v1.625a3 3 0 0 0-.364-.063 3.5 3.5 0 0 0-.522-.04q-.603 0-1.074.256a1.9 1.9 0 0 0-1.011 1.71v5.33zm8.602.193a3.6 3.6 0 0 1-1.5-.307 2.53 2.53 0 0 1-1.063-.903q-.386-.591-.386-1.449 0-.739.284-1.216t.767-.756a4 4 0 0 1 1.08-.42q.597-.142 1.216-.216l1.272-.148q.49-.061.71-.198.222-.137.222-.444v-.04q0-.744-.42-1.153-.416-.41-1.239-.409-.858 0-1.352.38-.489.376-.676.836l-1.597-.364q.284-.795.83-1.284.551-.495 1.267-.716.716-.227 1.505-.227.523 0 1.108.125.591.12 1.103.443.516.324.846.926.33.597.33 1.552V24.5h-1.66v-1.193h-.067q-.165.33-.495.648t-.846.528-1.24.21m.37-1.364q.703 0 1.204-.278a1.95 1.95 0 0 0 .767-.727q.267-.454.267-.972v-1.125q-.09.091-.352.17-.255.075-.586.131-.33.052-.642.097l-.522.068q-.495.063-.904.21-.404.148-.647.427-.24.272-.24.727 0 .63.467.954.465.32 1.187.319m7.898-4.01v5.18H85.83v-8.727h1.631v1.42h.108q.3-.693.943-1.114.648-.42 1.631-.42.893 0 1.563.375.67.37 1.04 1.102.368.733.369 1.813V24.5h-1.7v-5.347q0-.948-.494-1.482-.494-.54-1.358-.54-.59 0-1.05.255-.456.255-.722.75-.262.489-.262 1.182m14.404-1.416-1.54.273a1.8 1.8 0 0 0-.307-.562 1.5 1.5 0 0 0-.557-.438q-.352-.17-.88-.17-.722 0-1.205.323-.483.319-.483.824 0 .438.324.705t1.045.438l1.387.318q1.204.277 1.795.858.591.58.591 1.505 0 .785-.454 1.398-.45.608-1.256.954-.8.348-1.858.347-1.466 0-2.392-.625-.926-.63-1.136-1.79l1.642-.25q.153.642.63.972.478.324 1.245.324.835 0 1.335-.347.5-.352.5-.858a.89.89 0 0 0-.307-.687q-.301-.279-.926-.42l-1.477-.325q-1.222-.277-1.807-.886-.58-.607-.58-1.54 0-.773.432-1.352t1.193-.903q.762-.33 1.745-.33 1.414 0 2.227.614.813.608 1.074 1.63m3.737-5.04V24.5h-1.699V12.864zm4.825 11.83a3.6 3.6 0 0 1-1.5-.307 2.5 2.5 0 0 1-1.062-.903q-.387-.591-.387-1.449 0-.739.285-1.216.284-.477.767-.756a4 4 0 0 1 1.079-.42q.597-.142 1.216-.216l1.273-.148q.489-.061.71-.198.222-.137.222-.444v-.04q0-.744-.421-1.153-.414-.41-1.239-.409-.857 0-1.352.38-.489.376-.676.836l-1.597-.364q.284-.795.83-1.284.551-.495 1.267-.716a5 5 0 0 1 1.506-.227q.522 0 1.108.125.59.12 1.102.443.517.324.847.926.329.597.329 1.552V24.5h-1.659v-1.193h-.068q-.165.33-.494.648-.33.318-.847.528-.518.21-1.239.21m.37-1.364q.704 0 1.204-.278.506-.278.767-.727.267-.454.267-.972v-1.125q-.09.091-.352.17-.256.075-.585.131-.33.052-.642.097l-.523.068q-.495.063-.903.21-.403.148-.648.427-.239.272-.239.727 0 .63.466.954.467.32 1.188.319m10.274-7.556v1.363h-4.767v-1.363zm-3.489-2.091h1.699v8.256q0 .493.148.744a.77.77 0 0 0 .38.335q.239.085.517.085.205 0 .358-.028l.239-.046.307 1.404a3 3 0 0 1-.421.114 3.3 3.3 0 0 1-.681.068 3 3 0 0 1-1.25-.239 2.14 2.14 0 0 1-.938-.773q-.358-.523-.358-1.312zm9.036 10.994q-1.29 0-2.222-.551a3.74 3.74 0 0 1-1.432-1.562q-.5-1.012-.5-2.37 0-1.341.5-2.364a3.9 3.9 0 0 1 1.409-1.596q.91-.574 2.125-.574.74 0 1.432.244.693.244 1.244.768.552.522.87 1.357.318.83.318 2.018v.602h-6.938v-1.273h5.273q0-.67-.273-1.187a2.05 2.05 0 0 0-.767-.824q-.488-.302-1.147-.302-.716 0-1.25.353a2.36 2.36 0 0 0-.818.909q-.285.556-.285 1.21v.994q0 .876.307 1.489.313.615.87.938.556.318 1.301.318.483 0 .88-.137.399-.142.688-.42.29-.279.443-.688l1.608.29q-.194.71-.693 1.244-.495.529-1.244.824-.745.29-1.699.29m13.539 0q-1.227 0-2.142-.562a3.8 3.8 0 0 1-1.42-1.574q-.506-1.011-.506-2.364 0-1.358.506-2.375a3.8 3.8 0 0 1 1.42-1.58q.915-.561 2.142-.562 1.228 0 2.142.563.915.562 1.421 1.58.506 1.016.506 2.374 0 1.353-.506 2.364a3.8 3.8 0 0 1-1.421 1.574q-.914.562-2.142.562m.006-1.426q.795 0 1.318-.42t.773-1.12q.255-.699.256-1.54 0-.835-.256-1.534a2.5 2.5 0 0 0-.773-1.13q-.523-.426-1.318-.427-.801 0-1.329.427a2.54 2.54 0 0 0-.779 1.13q-.25.7-.25 1.535 0 .84.25 1.54.256.697.779 1.119.528.42 1.329.42m7.658-3.932V24.5h-1.699v-8.727h1.631v1.42h.108q.3-.693.943-1.114.648-.42 1.63-.42.893 0 1.563.375.67.37 1.04 1.102.369.733.369 1.813V24.5h-1.699v-5.347q0-.948-.494-1.482-.495-.54-1.358-.54-.59 0-1.051.255-.455.255-.722.75-.261.489-.261 1.182"/><path fill="#f1f1f1" d="M72.158 35.616H69.14q-.06-.465-.248-.84a2 2 0 0 0-.495-.64 2.1 2.1 0 0 0-.73-.404 2.8 2.8 0 0 0-.924-.145q-.9 0-1.551.441-.646.44-.996 1.274-.344.832-.344 2.016 0 1.232.35 2.065.356.827.996 1.25.646.416 1.527.416.495 0 .9-.127.41-.126.718-.368.314-.247.513-.598a2.4 2.4 0 0 0 .284-.803l3.018.019a4.6 4.6 0 0 1-.477 1.617 5.2 5.2 0 0 1-1.08 1.455 5.1 5.1 0 0 1-1.678 1.039q-.984.386-2.258.386-1.679 0-3.007-.736-1.322-.743-2.088-2.162-.767-1.418-.767-3.453 0-2.04.779-3.459.778-1.419 2.107-2.155 1.327-.737 2.976-.737 1.122 0 2.076.314a5 5 0 0 1 1.679.906q.724.592 1.177 1.455.453.862.561 1.974m1.71 7.884v-9.273h2.868v1.69h.096q.254-.917.828-1.364a2.1 2.1 0 0 1 1.334-.453q.204 0 .422.03.218.025.405.08v2.565a3 3 0 0 0-.556-.115 5 5 0 0 0-.603-.042q-.525 0-.948.235a1.7 1.7 0 0 0-.658.646 1.9 1.9 0 0 0-.236.966V43.5zm11.003.175q-1.46 0-2.512-.598a4.1 4.1 0 0 1-1.612-1.678q-.561-1.08-.561-2.505 0-1.432.561-2.505.568-1.08 1.612-1.679 1.05-.603 2.512-.604 1.461 0 2.505.604 1.05.598 1.612 1.678.567 1.075.567 2.506 0 1.425-.567 2.505a4.07 4.07 0 0 1-1.612 1.678q-1.044.598-2.505.598m.018-2.228q.531 0 .9-.326.368-.326.56-.905.2-.58.2-1.34 0-.773-.2-1.353-.192-.58-.56-.905a1.3 1.3 0 0 0-.9-.326 1.38 1.38 0 0 0-.93.326q-.374.327-.573.905-.195.58-.194 1.353 0 .76.194 1.34.199.58.573.905.38.327.93.326M92.6 43.5l-2.415-9.273h2.964l1.25 5.94h.078l1.34-5.94h2.892l1.377 5.898h.078l1.214-5.898h2.964l-2.421 9.273h-3.157l-1.45-5.403h-.102L95.764 43.5zm16.114.133a3.4 3.4 0 0 1-1.865-.531q-.84-.532-1.341-1.594t-.501-2.638q0-1.636.52-2.693.518-1.056 1.358-1.563a3.47 3.47 0 0 1 1.817-.508q.73 0 1.25.254.519.247.857.64.338.392.513.815h.06v-4.679h2.952V43.5h-2.921v-1.503h-.091a2.9 2.9 0 0 1-.531.803q-.344.374-.864.603-.513.23-1.213.23m1.026-2.3q.537 0 .918-.302.38-.308.585-.863.206-.555.206-1.304 0-.762-.206-1.31-.199-.55-.585-.846a1.45 1.45 0 0 0-.918-.295q-.55 0-.929.302-.38.3-.58.85-.193.55-.193 1.299t.199 1.304q.2.555.574.863.38.302.929.302m6.461 2.167v-9.273h2.952V43.5zm1.479-10.353q-.621 0-1.068-.41a1.32 1.32 0 0 1-.447-1.003q0-.579.447-.99a1.5 1.5 0 0 1 1.068-.417 1.5 1.5 0 0 1 1.069.417q.447.411.447.99 0 .585-.447 1.002-.44.41-1.069.41m6.304 5.065V43.5h-2.952v-9.273h2.808v1.703h.102a2.6 2.6 0 0 1 1.051-1.334q.742-.49 1.768-.49.978 0 1.697.441.724.435 1.123 1.22.404.779.398 1.823v5.91h-2.952v-5.33q.006-.773-.392-1.208-.393-.435-1.093-.435-.465 0-.821.206a1.35 1.35 0 0 0-.543.573q-.188.375-.194.906"/></g><defs><filter id="b" width="51.429" height="51.429" x="6.286" y="2.286" color-interpolation-filters="sRGB" filterUnits="userSpaceOnUse"><feFlood flood-opacity="0" result="BackgroundImageFix"/><feColorMatrix in="SourceAlpha" result="hardAlpha" values="0 0 0 0 0 0 0 0 0 0 0 0 0 0 0 0 0 0 127 0"/><feOffset/><feGaussianBlur stdDeviation="2.857"/><feComposite in2="hardAlpha" operator="out"/><feColorMatrix values="0 0 0 0 0 0 0 0 0 0 0 0 0 0 0 0 0 0 0.25 0"/><feBlend in2="BackgroundImageFix" result="effect1_dropShadow_4_232"/><feBlend in="SourceGraphic" in2="effect1_dropShadow_4_232" result="shape"/></filter><filter id="c" width="106.2" height="48.2" x="54.4" y="3.9" color-interpolation-filters="sRGB" filterUnits="userSpaceOnUse"><feFlood flood-opacity="0" result="BackgroundImageFix"/><feColorMatrix in="SourceAlpha" result="hardAlpha" values="0 0 0 0 0 0 0 0 0 0 0 0 0 0 0 0 0 0 127 0"/><feOffset/><feGaussianBlur stdDeviation="2.8"/><feComposite in2="hardAlpha" operator="out"/><feColorMatrix values="0 0 0 0 0 0 0 0 0 0 0 0 0 0 0 0 0 0 0.25 0"/><feBlend in2="BackgroundImageFix" result="effect1_dropShadow_4_232"/><feBlend in="SourceGraphic" in2="effect1_dropShadow_4_232" result="shape"/></filter><linearGradient id="a" x1="83.5" x2="83.5" y1="0" y2="56" gradientUnits="userSpaceOnUse"><stop stop-color="#273227"/><stop offset="1" stop-color="#181f18"/></linearGradient></defs></svg>