<svg xmlns="http://www.w3.org/2000/svg" width="152" height="56" fill="none" viewBox="0 0 152 56"><rect width="152" height="56" fill="url(#a)" rx="8"/><rect width="149.9" height="53.9" x="1.05" y="1.05" stroke="#fff" stroke-opacity=".15" stroke-width="2.1" rx="6.95"/><g stroke="#f1f1f1" stroke-linecap="round" stroke-linejoin="round" stroke-width="2.857" filter="url(#b)"><path d="M32.001 46.571c10.257 0 18.572-8.314 18.572-18.571S42.258 9.429 32 9.429 13.43 17.743 13.43 28 21.744 46.571 32 46.571M13.43 28h37.143"/><path d="M32 9.429A28.4 28.4 0 0 1 39.43 28 28.4 28.4 0 0 1 32 46.571 28.4 28.4 0 0 1 24.573 28a28.4 28.4 0 0 1 7.429-18.571"/></g><g filter="url(#c)"><path fill="#e8e8e8" d="M61.278 24.5V12.864h1.756v5.057h5.801v-5.057h1.762V24.5h-1.762v-5.074h-5.8V24.5zm15.5.176q-1.29 0-2.221-.551a3.74 3.74 0 0 1-1.432-1.562q-.5-1.012-.5-2.37 0-1.341.5-2.364a3.9 3.9 0 0 1 1.41-1.596q.908-.574 2.124-.574.739 0 1.432.244t1.244.768.87 1.357q.318.83.318 2.017v.603h-6.938v-1.273h5.273q0-.67-.273-1.187a2.06 2.06 0 0 0-.767-.824q-.489-.302-1.148-.302-.716 0-1.25.353a2.36 2.36 0 0 0-.818.909q-.285.556-.284 1.21v.994q0 .876.307 1.489.312.615.87.938.556.318 1.3.318.483 0 .881-.137.397-.142.688-.42.289-.279.443-.688l1.608.29q-.194.71-.693 1.244a3.36 3.36 0 0 1-1.245.824q-.744.29-1.699.29m7.328-11.812V24.5h-1.698V12.864zm2.286 14.909v-12h1.66v1.415h.141q.148-.273.426-.631.28-.358.773-.625.495-.273 1.307-.273 1.056 0 1.886.534.83.535 1.301 1.54.478 1.005.478 2.42t-.472 2.427q-.471 1.005-1.295 1.55-.825.54-1.881.54-.795 0-1.301-.267a2.5 2.5 0 0 1-.784-.625 5 5 0 0 1-.438-.636h-.102v4.63zm1.665-7.637q0 .921.267 1.614t.773 1.085q.506.387 1.238.387.762 0 1.273-.404.51-.41.773-1.108.267-.699.267-1.574a4.3 4.3 0 0 0-.262-1.55q-.255-.689-.772-1.086-.511-.398-1.279-.398-.738 0-1.25.381-.506.381-.767 1.062-.261.682-.261 1.591M100.5 24.5v-8.727h1.631v1.42h.108q.273-.72.892-1.125.62-.41 1.483-.409.875 0 1.466.41.597.408.881 1.124h.091q.312-.699.994-1.114.681-.42 1.625-.42 1.188 0 1.937.744.756.745.756 2.245V24.5h-1.699v-5.693q0-.887-.483-1.284a1.76 1.76 0 0 0-1.153-.398q-.83 0-1.29.511-.46.506-.46 1.302V24.5h-1.693v-5.801q0-.71-.444-1.142-.442-.432-1.153-.432-.483 0-.892.256a1.87 1.87 0 0 0-.653.698 2.14 2.14 0 0 0-.245 1.04V24.5zm17.902.176q-1.289 0-2.221-.551a3.74 3.74 0 0 1-1.432-1.562q-.5-1.012-.5-2.37 0-1.341.5-2.364a3.9 3.9 0 0 1 1.409-1.596q.909-.574 2.125-.574.739 0 1.432.244t1.244.768.87 1.357q.318.83.318 2.017v.603h-6.938v-1.273h5.273q0-.67-.273-1.187a2.06 2.06 0 0 0-.767-.824q-.489-.302-1.148-.302-.716 0-1.25.353a2.36 2.36 0 0 0-.818.909 2.6 2.6 0 0 0-.284 1.21v.994q0 .876.307 1.489.312.615.869.938.558.318 1.301.318.483 0 .881-.137.397-.142.688-.42.29-.279.443-.688l1.608.29q-.194.71-.693 1.244-.495.529-1.245.824-.744.29-1.699.29"/><path fill="#f1f1f1" d="M60.531 33.563v-2.427h10.45v2.427h-3.749V43.5h-2.946v-9.937zM71.478 43.5v-9.273h2.867v1.69h.097q.254-.917.827-1.364a2.1 2.1 0 0 1 1.334-.453q.206 0 .423.03.218.025.404.08v2.565a3 3 0 0 0-.555-.115 5 5 0 0 0-.604-.042q-.525 0-.948.235a1.7 1.7 0 0 0-.658.646 1.9 1.9 0 0 0-.235.966V43.5zm9.42.157q-.887 0-1.575-.296a2.45 2.45 0 0 1-1.08-.905q-.393-.61-.393-1.528 0-.773.271-1.304.272-.531.749-.863a3.5 3.5 0 0 1 1.099-.501 7 7 0 0 1 1.328-.235q.79-.074 1.274-.151.483-.085.7-.236a.51.51 0 0 0 .223-.44v-.03q0-.465-.32-.72-.319-.252-.863-.253-.585 0-.942.254a1.12 1.12 0 0 0-.453.7l-2.722-.096a3.2 3.2 0 0 1 .622-1.51q.506-.67 1.388-1.05.888-.387 2.131-.387.888 0 1.636.212.75.205 1.304.604.555.392.857.965.309.575.308 1.31V43.5h-2.777v-1.292h-.072q-.247.471-.634.797-.38.326-.9.489a3.8 3.8 0 0 1-1.159.163m.912-1.932q.477 0 .857-.193.387-.193.616-.531.23-.344.23-.797v-.882a2 2 0 0 1-.309.121q-.174.054-.386.103-.21.048-.435.084-.222.036-.428.067a2.7 2.7 0 0 0-.713.205 1.1 1.1 0 0 0-.446.362.9.9 0 0 0-.151.52q0 .458.326.7.331.24.839.241m9.387-3.513V43.5h-2.952v-9.273h2.807v1.703h.103a2.6 2.6 0 0 1 1.05-1.334q.743-.49 1.77-.49.977 0 1.696.441.724.435 1.123 1.22.404.779.398 1.823v5.91H94.24v-5.33q.006-.773-.392-1.208-.393-.435-1.093-.435-.465 0-.821.206a1.36 1.36 0 0 0-.543.573q-.188.375-.194.906m15.918-1.153-2.71.072a1 1 0 0 0-.23-.513 1.24 1.24 0 0 0-.489-.356 1.7 1.7 0 0 0-.688-.133q-.513 0-.875.205-.356.205-.35.555a.6.6 0 0 0 .217.471q.229.2.815.32l1.787.339q1.388.265 2.064.88.683.617.689 1.63a2.62 2.62 0 0 1-.568 1.661q-.555.706-1.521 1.099-.966.386-2.21.386-1.986 0-3.133-.815-1.14-.821-1.304-2.197l2.916-.073q.096.507.501.773t1.032.266q.569 0 .924-.212.356-.21.362-.561a.6.6 0 0 0-.277-.501q-.272-.194-.852-.302l-1.618-.308q-1.394-.253-2.076-.936-.682-.688-.676-1.75-.007-.93.495-1.588.501-.664 1.424-1.014.924-.35 2.18-.35 1.882 0 2.97.79 1.087.785 1.201 2.162m4.635-5.923V43.5h-2.952V31.136zm4.493 12.52q-.888 0-1.576-.295a2.45 2.45 0 0 1-1.08-.905q-.393-.61-.393-1.528 0-.773.272-1.304t.749-.863a3.5 3.5 0 0 1 1.098-.501 7 7 0 0 1 1.328-.235q.791-.074 1.274-.151.483-.085.701-.236a.51.51 0 0 0 .223-.44v-.03q0-.465-.32-.72-.32-.252-.863-.253-.587 0-.942.254a1.12 1.12 0 0 0-.453.7l-2.722-.096q.12-.846.621-1.51.507-.67 1.389-1.05.887-.387 2.131-.387.887 0 1.636.212.749.205 1.304.604.555.392.857.965.308.575.308 1.31V43.5h-2.777v-1.292h-.072q-.248.471-.634.797-.381.326-.9.489a3.8 3.8 0 0 1-1.159.163m.912-1.93q.476 0 .857-.194.386-.193.616-.531.23-.344.229-.797v-.882a1.7 1.7 0 0 1-.308.121q-.175.054-.386.103t-.435.084l-.428.067a2.7 2.7 0 0 0-.713.205 1.13 1.13 0 0 0-.447.362.9.9 0 0 0-.15.52q0 .458.326.7.332.24.839.241m11.669-7.499v2.174h-5.85v-2.174zm-4.624-2.221h2.952v8.578q0 .272.084.44a.53.53 0 0 0 .26.236q.169.067.404.067.17 0 .357-.03.192-.038.289-.06l.447 2.13q-.211.06-.598.151-.38.09-.911.115-1.038.048-1.781-.242a2.3 2.3 0 0 1-1.129-.917q-.387-.622-.374-1.564zm10.365 11.67q-1.455 0-2.511-.574a3.96 3.96 0 0 1-1.618-1.648q-.562-1.075-.562-2.554 0-1.437.568-2.511.567-1.08 1.6-1.679 1.032-.603 2.433-.604.99 0 1.811.308a3.9 3.9 0 0 1 1.418.912q.599.604.93 1.491.332.882.332 2.023v.736h-8.059v-1.715h5.312a1.66 1.66 0 0 0-.223-.839 1.5 1.5 0 0 0-.598-.573 1.7 1.7 0 0 0-.863-.211q-.495 0-.887.223a1.68 1.68 0 0 0-.864 1.449v1.745q0 .567.224.996.223.421.633.658.411.235.978.235.393 0 .713-.109.32-.108.549-.32.23-.21.344-.519l2.711.079a3.35 3.35 0 0 1-.743 1.587q-.567.67-1.491 1.045-.924.368-2.137.368"/></g><defs><filter id="b" width="51.43" height="51.429" x="6.286" y="2.286" color-interpolation-filters="sRGB" filterUnits="userSpaceOnUse"><feFlood flood-opacity="0" result="BackgroundImageFix"/><feColorMatrix in="SourceAlpha" result="hardAlpha" values="0 0 0 0 0 0 0 0 0 0 0 0 0 0 0 0 0 0 127 0"/><feOffset/><feGaussianBlur stdDeviation="2.857"/><feComposite in2="hardAlpha" operator="out"/><feColorMatrix values="0 0 0 0 0 0 0 0 0 0 0 0 0 0 0 0 0 0 0.25 0"/><feBlend in2="BackgroundImageFix" result="effect1_dropShadow_9_30"/><feBlend in="SourceGraphic" in2="effect1_dropShadow_9_30" result="shape"/></filter><filter id="c" width="91.2" height="48.2" x="54.4" y="3.9" color-interpolation-filters="sRGB" filterUnits="userSpaceOnUse"><feFlood flood-opacity="0" result="BackgroundImageFix"/><feColorMatrix in="SourceAlpha" result="hardAlpha" values="0 0 0 0 0 0 0 0 0 0 0 0 0 0 0 0 0 0 127 0"/><feOffset/><feGaussianBlur stdDeviation="2.8"/><feComposite in2="hardAlpha" operator="out"/><feColorMatrix values="0 0 0 0 0 0 0 0 0 0 0 0 0 0 0 0 0 0 0.25 0"/><feBlend in2="BackgroundImageFix" result="effect1_dropShadow_9_30"/><feBlend in="SourceGraphic" in2="effect1_dropShadow_9_30" result="shape"/></filter><linearGradient id="a" x1="76" x2="76" y1="0" y2="56" gradientUnits="userSpaceOnUse"><stop stop-color="#303030"/><stop offset="1" stop-color="#1d1d1d"/></linearGradient></defs></svg>