<svg xmlns="http://www.w3.org/2000/svg" width="167" height="56" fill="none" viewBox="0 0 167 56"><rect width="167" height="56" fill="url(#a)" rx="8"/><rect width="164.9" height="53.9" x="1.05" y="1.05" stroke="#fff" stroke-opacity=".15" stroke-width="2.1" rx="6.95"/><g filter="url(#b)"><path fill="url(#c)" d="M37.626 35.382a4.5 4.5 0 0 1-1.713-.348c-1.234-.519-2.321-1.499-3.206-2.824q.378-.651.683-1.335c.89-1.996 1.313-4.181 1.345-6.35l-.011-.13-.002-.111a7.2 7.2 0 0 0-.44-2.515c-.35-.925-.907-1.85-1.791-2.211a1.2 1.2 0 0 0-.498-.09c-1.112-2.004-1.147-3.925 0-5.754h.062a7.56 7.56 0 0 1 3.843 1.121c3.124 1.917 4.682 5.65 4.717 9.317l-.002.129h.018c-.005 3.874-.97 7.803-3.005 11.1m-6.928 6.081a11.97 11.97 0 0 1-9.201-.2c-3.329-1.49-5.872-4.385-7.438-7.691-2.679-5.654-2.74-12.413-.2-18.154 1.909.736 3.605-.436 3.605-.436s-.004 1.804 1.808 2.709c-1.859 4.2-1.814 9.189.049 13.281.896 1.97 2.266 3.803 4.164 4.84.678.37 1.423.61 2.189.699l.008.012c1.353 2.036 3.057 3.733 5.016 4.94"/><path fill="url(#d)" fill-rule="evenodd" d="M37.626 35.383a4.5 4.5 0 0 1-1.712-.348c-1.235-.519-2.322-1.499-3.207-2.824q.378-.652.683-1.336.401-.904.68-1.851c.43-1.461 6.137.393 5.266 2.8a19.2 19.2 0 0 1-1.71 3.559m-6.93 6.08a11.97 11.97 0 0 1-9.2-.2c-3.327-1.49.091-6.488 1.99-5.451.677.37 1.421.609 2.187.699l.01.014c1.352 2.035 3.056 3.731 5.014 4.939" clip-rule="evenodd" opacity=".3"/><path fill="url(#e)" d="M23.388 24.28q-.002-.063-.001-.128c.034-3.666 1.592-7.4 4.717-9.317a7.56 7.56 0 0 1 3.904-1.12v5.754a1.2 1.2 0 0 0-.497.089c-.884.36-1.441 1.286-1.791 2.21a7.2 7.2 0 0 0-.44 2.516l-.002.111-.011.13c.032 2.169.455 4.354 1.345 6.35.997 2.235 2.58 4.29 4.817 5.23 1.688.71 3.558.542 5.087-.293 1.899-1.037 3.269-2.87 4.165-4.84 1.863-4.092 1.908-9.082.049-13.282 1.811-.904 1.808-2.709 1.808-2.709s1.696 1.173 3.604.437c2.54 5.74 2.48 12.5-.2 18.154-1.566 3.305-4.109 6.201-7.437 7.691-2.963 1.327-6.446 1.36-9.411.114-2.665-1.12-4.832-3.138-6.39-5.484-2.259-3.398-3.328-7.536-3.333-11.612z"/></g><g filter="url(#f)"><path fill="#e8e8e8" d="M60.705 14.375v-1.511h9.005v1.511h-3.63V24.5h-1.75V14.375zM70.658 24.5v-8.727H72.3v1.386h.09q.24-.705.841-1.108.609-.41 1.376-.409a7 7 0 0 1 .721.04v1.625a3 3 0 0 0-.364-.063 3.5 3.5 0 0 0-.522-.04q-.603 0-1.074.256a1.9 1.9 0 0 0-1.011 1.71v5.33zm8.602.193a3.6 3.6 0 0 1-1.5-.307 2.53 2.53 0 0 1-1.063-.903q-.386-.591-.386-1.449 0-.739.284-1.216t.767-.756a4 4 0 0 1 1.08-.42q.597-.142 1.216-.216l1.272-.148q.49-.061.71-.198.222-.137.222-.444v-.04q0-.744-.42-1.153-.416-.41-1.239-.409-.858 0-1.352.38-.489.376-.676.836l-1.597-.364q.284-.795.83-1.284.551-.495 1.267-.716.716-.227 1.505-.227.523 0 1.108.125.591.12 1.103.443.516.324.846.926.33.597.33 1.552V24.5h-1.66v-1.193h-.067q-.165.33-.495.648t-.846.528-1.24.21m.37-1.364q.703 0 1.204-.278a1.95 1.95 0 0 0 .767-.727q.267-.454.267-.972v-1.125q-.09.091-.352.17-.255.075-.586.131-.33.052-.642.097l-.522.068q-.495.063-.904.21-.404.148-.647.427-.24.272-.24.727 0 .63.467.954.465.32 1.187.319m7.898-4.01v5.18H85.83v-8.727h1.631v1.42h.108q.3-.693.943-1.114.648-.42 1.631-.42.893 0 1.563.375.67.37 1.04 1.102.368.733.369 1.813V24.5h-1.7v-5.347q0-.948-.494-1.482-.494-.54-1.358-.54-.59 0-1.05.255-.456.255-.722.75-.262.489-.262 1.182m14.404-1.416-1.54.273a1.8 1.8 0 0 0-.307-.562 1.5 1.5 0 0 0-.557-.438q-.352-.17-.88-.17-.722 0-1.205.323-.483.319-.483.824 0 .438.324.705t1.045.438l1.387.318q1.204.277 1.795.858.591.58.591 1.505 0 .785-.454 1.398-.45.608-1.256.954-.8.348-1.858.347-1.466 0-2.392-.625-.926-.63-1.136-1.79l1.642-.25q.153.642.63.972.478.324 1.245.324.835 0 1.335-.347.5-.352.5-.858a.89.89 0 0 0-.307-.687q-.301-.279-.926-.42l-1.477-.325q-1.222-.277-1.807-.886-.58-.607-.58-1.54 0-.773.432-1.352t1.193-.903q.762-.33 1.745-.33 1.414 0 2.227.614.813.608 1.074 1.63m3.737-5.04V24.5h-1.699V12.864zm4.825 11.83a3.6 3.6 0 0 1-1.5-.307 2.5 2.5 0 0 1-1.062-.903q-.387-.591-.387-1.449 0-.739.285-1.216.284-.477.767-.756a4 4 0 0 1 1.079-.42q.597-.142 1.216-.216l1.273-.148q.489-.061.71-.198.222-.137.222-.444v-.04q0-.744-.421-1.153-.414-.41-1.239-.409-.857 0-1.352.38-.489.376-.676.836l-1.597-.364q.284-.795.83-1.284.551-.495 1.267-.716a5 5 0 0 1 1.506-.227q.522 0 1.108.125.59.12 1.102.443.517.324.847.926.329.597.329 1.552V24.5h-1.659v-1.193h-.068q-.165.33-.494.648-.33.318-.847.528-.518.21-1.239.21m.37-1.364q.704 0 1.204-.278.506-.278.767-.727.267-.454.267-.972v-1.125q-.09.091-.352.17-.256.075-.585.131-.33.052-.642.097l-.523.068q-.495.063-.903.21-.403.148-.648.427-.239.272-.239.727 0 .63.466.954.467.32 1.188.319m10.274-7.556v1.363h-4.767v-1.363zm-3.489-2.091h1.699v8.256q0 .493.148.744a.77.77 0 0 0 .38.335q.239.085.517.085.205 0 .358-.028l.239-.046.307 1.404a3 3 0 0 1-.421.114 3.3 3.3 0 0 1-.681.068 3 3 0 0 1-1.25-.239 2.14 2.14 0 0 1-.938-.773q-.358-.523-.358-1.312zm9.036 10.994q-1.29 0-2.222-.551a3.74 3.74 0 0 1-1.432-1.562q-.5-1.012-.5-2.37 0-1.341.5-2.364a3.9 3.9 0 0 1 1.409-1.596q.91-.574 2.125-.574.74 0 1.432.244.693.244 1.244.768.552.522.87 1.357.318.83.318 2.018v.602h-6.938v-1.273h5.273q0-.67-.273-1.187a2.05 2.05 0 0 0-.767-.824q-.488-.302-1.147-.302-.716 0-1.25.353a2.36 2.36 0 0 0-.818.909q-.285.556-.285 1.21v.994q0 .876.307 1.489.313.615.87.938.556.318 1.301.318.483 0 .88-.137.399-.142.688-.42.29-.279.443-.688l1.608.29q-.194.71-.693 1.244-.495.529-1.244.824-.745.29-1.699.29m13.539 0q-1.227 0-2.142-.562a3.8 3.8 0 0 1-1.42-1.574q-.506-1.011-.506-2.364 0-1.358.506-2.375a3.8 3.8 0 0 1 1.42-1.58q.915-.561 2.142-.562 1.228 0 2.142.563.915.562 1.421 1.58.506 1.016.506 2.374 0 1.353-.506 2.364a3.8 3.8 0 0 1-1.421 1.574q-.914.562-2.142.562m.006-1.426q.795 0 1.318-.42t.773-1.12q.255-.699.256-1.54 0-.835-.256-1.534a2.5 2.5 0 0 0-.773-1.13q-.523-.426-1.318-.427-.801 0-1.329.427a2.54 2.54 0 0 0-.779 1.13q-.25.7-.25 1.535 0 .84.25 1.54.256.697.779 1.119.528.42 1.329.42m7.658-3.932V24.5h-1.699v-8.727h1.631v1.42h.108q.3-.693.943-1.114.648-.42 1.63-.42.893 0 1.563.375.67.37 1.04 1.102.369.733.369 1.813V24.5h-1.699v-5.347q0-.948-.494-1.482-.495-.54-1.358-.54-.59 0-1.051.255-.455.255-.722.75-.261.489-.261 1.182"/><path fill="url(#g)" d="m63.9 43.5-3.598-12.364h3.302l1.865 8.102h.103l2.131-8.102h2.693l2.13 8.12h.103l1.872-8.12h3.296L74.205 43.5h-2.88l-2.227-7.498H69L66.773 43.5zm18.437.175q-1.455 0-2.512-.573a3.97 3.97 0 0 1-1.618-1.648q-.561-1.075-.561-2.554 0-1.437.567-2.511.568-1.08 1.6-1.679 1.033-.603 2.433-.604.99 0 1.811.308.82.309 1.419.912.597.604.93 1.491.331.882.332 2.023v.736h-8.06v-1.715h5.313a1.66 1.66 0 0 0-.224-.839 1.5 1.5 0 0 0-.597-.573 1.7 1.7 0 0 0-.864-.211q-.494 0-.887.223a1.68 1.68 0 0 0-.863 1.449v1.745q0 .567.223.996.223.421.634.658.411.235.978.235.393 0 .712-.109.32-.108.55-.32.229-.21.344-.519l2.71.079a3.35 3.35 0 0 1-.742 1.587q-.569.67-1.491 1.045-.924.368-2.137.368m5.908-.175V31.136h2.952v4.679h.06q.181-.422.514-.815.338-.393.857-.64.525-.254 1.256-.254.965 0 1.805.508.845.507 1.364 1.563t.52 2.693q0 1.575-.502 2.638-.495 1.063-1.34 1.594a3.4 3.4 0 0 1-1.865.53q-.7 0-1.214-.229a2.6 2.6 0 0 1-.863-.603 2.9 2.9 0 0 1-.531-.803h-.09V43.5zm2.892-4.636q0 .748.2 1.304.204.555.585.863.386.302.923.302.544 0 .924-.302.38-.308.574-.863.198-.555.199-1.304 0-.75-.2-1.298-.193-.55-.573-.852-.374-.3-.924-.301-.543 0-.923.295-.38.297-.586.846-.2.548-.199 1.31m10.934-7.728V43.5h-2.952V31.136zm4.493 12.521q-.886 0-1.575-.296a2.46 2.46 0 0 1-1.081-.905q-.392-.61-.392-1.528 0-.773.271-1.304.272-.531.749-.863a3.5 3.5 0 0 1 1.099-.501 7 7 0 0 1 1.328-.235q.79-.074 1.274-.151.483-.085.7-.236a.51.51 0 0 0 .223-.44v-.03q0-.465-.32-.72-.32-.252-.863-.253-.585 0-.942.254a1.12 1.12 0 0 0-.453.7l-2.722-.096q.12-.846.622-1.51.507-.67 1.388-1.05.888-.387 2.131-.387.888 0 1.636.212.749.205 1.304.604.555.392.857.965.309.575.308 1.31V43.5h-2.777v-1.292h-.072q-.247.471-.634.797-.38.326-.9.489a3.8 3.8 0 0 1-1.159.163m.912-1.932q.477 0 .857-.193.387-.194.616-.531.23-.344.229-.797v-.882a1.7 1.7 0 0 1-.308.121 5 5 0 0 1-.386.103q-.211.048-.435.084-.222.036-.428.067a2.7 2.7 0 0 0-.713.205 1.1 1.1 0 0 0-.446.362.9.9 0 0 0-.151.52q0 .458.326.7.332.24.839.241m11.669-7.498v2.174h-5.849v-2.174zm-4.624-2.221h2.952v8.578q0 .272.085.44.09.165.259.236.17.067.405.067.168 0 .356-.03.193-.038.29-.06l.446 2.13q-.212.06-.597.151-.381.09-.912.115-1.038.048-1.781-.242a2.3 2.3 0 0 1-1.129-.917q-.386-.622-.374-1.564zm10.365 11.67q-1.455 0-2.511-.574a3.97 3.97 0 0 1-1.618-1.648q-.561-1.075-.561-2.554 0-1.437.567-2.511.568-1.08 1.6-1.679 1.032-.603 2.433-.604.99 0 1.811.308.82.309 1.419.912.597.604.929 1.491.332.882.332 2.023v.736h-8.059v-1.715h5.313a1.66 1.66 0 0 0-.224-.839 1.5 1.5 0 0 0-.597-.573 1.73 1.73 0 0 0-.864-.211q-.495 0-.887.223a1.68 1.68 0 0 0-.863 1.449v1.745q0 .567.223.996.223.421.634.658.41.235.978.235.392 0 .712-.109.32-.108.549-.32.23-.21.345-.519l2.71.079a3.36 3.36 0 0 1-.742 1.587q-.569.67-1.491 1.045-.924.368-2.138.368"/></g><defs><linearGradient id="a" x1="83.5" x2="83.5" y1="0" y2="56" gradientUnits="userSpaceOnUse"><stop stop-color="#1a2c32"/><stop offset="1" stop-color="#0e1c0f"/></linearGradient><linearGradient id="c" x1="12.001" x2="31.544" y1="24.588" y2="24.588" gradientUnits="userSpaceOnUse"><stop stop-color="#00d2e6"/><stop offset="1" stop-color="#2eccaa"/></linearGradient><linearGradient id="d" x1="23.438" x2="33.585" y1="36.735" y2="30.03" gradientUnits="userSpaceOnUse"><stop stop-opacity="0"/><stop offset=".514"/><stop offset="1" stop-opacity="0"/></linearGradient><linearGradient id="e" x1="52.001" x2="32.491" y1="25.063" y2="25.063" gradientUnits="userSpaceOnUse"><stop stop-color="#1fa385"/><stop offset="1" stop-color="#2eccaa"/></linearGradient><linearGradient id="g" x1="60.001" x2="130.001" y1="36.808" y2="36.808" gradientUnits="userSpaceOnUse"><stop stop-color="#00d2e6"/><stop offset="1" stop-color="#2eccaa"/></linearGradient><filter id="b" width="51.429" height="51.429" x="6.286" y="2.286" color-interpolation-filters="sRGB" filterUnits="userSpaceOnUse"><feFlood flood-opacity="0" result="BackgroundImageFix"/><feColorMatrix in="SourceAlpha" result="hardAlpha" values="0 0 0 0 0 0 0 0 0 0 0 0 0 0 0 0 0 0 127 0"/><feOffset/><feGaussianBlur stdDeviation="2.857"/><feComposite in2="hardAlpha" operator="out"/><feColorMatrix values="0 0 0 0 0 0 0 0 0 0 0 0 0 0 0 0 0 0 0.25 0"/><feBlend in2="BackgroundImageFix" result="effect1_dropShadow_4_223"/><feBlend in="SourceGraphic" in2="effect1_dropShadow_4_223" result="shape"/></filter><filter id="f" width="106.2" height="48.2" x="54.4" y="3.9" color-interpolation-filters="sRGB" filterUnits="userSpaceOnUse"><feFlood flood-opacity="0" result="BackgroundImageFix"/><feColorMatrix in="SourceAlpha" result="hardAlpha" values="0 0 0 0 0 0 0 0 0 0 0 0 0 0 0 0 0 0 127 0"/><feOffset/><feGaussianBlur stdDeviation="2.8"/><feComposite in2="hardAlpha" operator="out"/><feColorMatrix values="0 0 0 0 0 0 0 0 0 0 0 0 0 0 0 0 0 0 0.25 0"/><feBlend in2="BackgroundImageFix" result="effect1_dropShadow_4_223"/><feBlend in="SourceGraphic" in2="effect1_dropShadow_4_223" result="shape"/></filter></defs></svg>