<svg xmlns="http://www.w3.org/2000/svg" width="56" height="56" fill="none" viewBox="0 0 56 56"><rect width="56" height="56" fill="url(#a)" rx="8.4"/><rect width="53.9" height="53.9" x="1.05" y="1.05" stroke="#fff" stroke-opacity=".15" stroke-width="2.1" rx="7.35"/><g filter="url(#b)"><path fill="#fcfcfc" fill-rule="evenodd" d="M37.708 25.22c.227.355.453.708.713 1.037q.083-.194.179-.394c.16-.34.324-.69.387-1.044.047-.261-.01-.517-.066-.773a2.5 2.5 0 0 1-.084-.62c.021-.624.285-1.271.526-1.862l.102-.251c.121-.302.301-.606.584-.782.081-.051.175-.086.27-.12.138-.052.276-.103.377-.205.306-.312.528-1.163.564-1.59.063-.747-.226-1.556-.503-2.33-.134-.374-.265-.74-.351-1.087-.497-1.989.184-4.361 2.081-5.357 1.413-.742 3.383-.477 4.457.728.757.849 1.056 1.899 1.056 3.011 0 .75-.041 2.043-.691 2.564-.406.326-1.224.3-1.494-.183-.242-.434-.12-.902.002-1.373.095-.368.191-.739.116-1.098-.157-.748-.922-1.72-1.774-1.604-.675.092-1.203.74-1.435 1.335-.254.65-.034 1.335.175 1.983q.058.18.11.354l.008.026c.353 1.19.688 2.318.544 3.57-.035.308-.146.606-.257.902-.116.312-.231.622-.258.941-.014.178.054.354.123.532.059.15.118.302.127.457.053.87-.254 1.739-.626 2.517-.169.352-.433.571-.7.793-.2.165-.4.331-.566.556-.308.419-.5.938-.69 1.447a12 12 0 0 1-.3.755c-.073.16-.162.321-.252.484-.171.31-.346.626-.42.955-.057.254.03.57.109.862.034.124.066.243.086.351.144.791.27 1.623.29 2.428.085 3.6-.802 7.279-3.267 10.024a11.5 11.5 0 0 1-2.651 2.184c-3.66 2.183-8.243 1.232-11.567-1.094-1.152-.806-2.095-1.782-3.049-2.769a63 63 0 0 0-.988-1.007c-.295-.292-.62-.386-.952-.483a3 3 0 0 1-.66-.25c-.593-.328-1.256-1.199-1.565-1.796-.139-.267-.128-.541-.117-.81.01-.23.019-.457-.066-.673-.095-.242-.278-.46-.46-.676-.136-.162-.272-.322-.37-.493-.423-.731-.565-1.551-.623-2.382-.023-.335-.012-.7-.001-1.07.036-1.205.074-2.494-1.045-3.173-1.281-.777-2.838.718-2.648 2.04.055.386.238.69.42.992.218.362.433.72.42 1.21-.016.527-.379.845-.903.846-.694.002-1.127-.479-1.473-1.025-.696-1.096-.813-2.538-.491-3.776.753-2.897 4.569-3.992 6.753-1.928 1.237 1.168 1.292 2.694 1.349 4.266l.005.134q.007.219.011.423c.022.95.04 1.711.72 2.543.223.274.514.311.817.35.192.025.39.05.578.136.425.194.758.615 1.058.995q.093.12.183.228c.21.255.426.528.504.854.04.169.056.336.071.502.028.308.056.609.243.892.617.933 1.525 1.768 2.369 2.493 1.273 1.093 2.62 2.071 4.202 2.675 4.04 1.543 8.044-1.086 9.714-4.764.927-2.042 1.009-4.011.995-6.203-.293.25-.548.554-.803.858a9 9 0 0 1-.643.713c-1.106 1.06-2.333 1.92-3.75 2.514a10 10 0 0 1-4.067.769 8.4 8.4 0 0 1-3.073-.668c-5.78-2.497-6.928-11.104-1.807-14.926a8.4 8.4 0 0 1 2.485-1.292c1.108-.35 2.276-.509 3.434-.413 1.5.125 2.94.553 4.248 1.298A11.2 11.2 0 0 1 37 24.189c.258.33.483.68.708 1.032m-11.984-1.674c.772-.482 1.671-.763 2.575-.865 2.985-.337 5.782 1.729 7.365 4.07.349.517.642 1.06.915 1.619l.06.12c.11.213.238.463.224.689-.013.21-.16.414-.287.59l-.06.084c-.31.444-.628.892-.98 1.304-1.49 1.737-3.566 3.369-5.926 3.636-.862.097-1.744.055-2.576-.211a5.9 5.9 0 0 1-1.988-1.097c-3.19-2.707-2.908-7.7.678-9.939" clip-rule="evenodd"/></g><defs><linearGradient id="a" x1="28" x2="28" y1="0" y2="56" gradientUnits="userSpaceOnUse"><stop stop-color="#322e20"/><stop offset="1" stop-color="#201c15"/></linearGradient><filter id="b" width="51.429" height="51.429" x="2.286" y="2.286" color-interpolation-filters="sRGB" filterUnits="userSpaceOnUse"><feFlood flood-opacity="0" result="BackgroundImageFix"/><feColorMatrix in="SourceAlpha" result="hardAlpha" values="0 0 0 0 0 0 0 0 0 0 0 0 0 0 0 0 0 0 127 0"/><feOffset/><feGaussianBlur stdDeviation="2.857"/><feComposite in2="hardAlpha" operator="out"/><feColorMatrix values="0 0 0 0 0 0 0 0 0 0 0 0 0 0 0 0 0 0 0.25 0"/><feBlend in2="BackgroundImageFix" result="effect1_dropShadow_32_2"/><feBlend in="SourceGraphic" in2="effect1_dropShadow_32_2" result="shape"/></filter></defs></svg>