<svg xmlns="http://www.w3.org/2000/svg" width="56" height="56" fill="none" viewBox="0 0 56 56"><rect width="56" height="56" fill="url(#a)" rx="8.4"/><rect width="53.9" height="53.9" x="1.05" y="1.05" stroke="#fff" stroke-opacity=".15" stroke-width="2.1" rx="7.35"/><g filter="url(#b)"><path fill="#38342a" d="M29.43 8v2.857h-2.857v5.714h-2.858v2.858h-2.857v2.857h-2.857v2.857h-2.857V28h-2.857v2.857H9.43v5.714h2.857v2.858h2.857v2.857h2.857v2.857h2.857V48h5.715v-2.857h2.857v-5.714h2.857V36.57h2.857v-2.857h2.857v-2.857h5.714V28h2.857v-5.714h-2.857v-2.857h-2.857V16.57h-2.857v-2.857h-2.857v-2.857h-2.857V8z"/><path fill="#dbd0b4" d="M29.43 10.857v2.857h2.857v2.857h2.857v2.858h2.857v2.857h2.857v-2.857h-2.857V16.57h-2.857v-2.857h-2.857v-2.857z"/><path fill="#c6bca5" d="M29.43 13.714v2.857h2.857v-2.857z"/><path fill="#dbd0b4" d="M26.573 16.571v5.715h-5.715v2.857h-2.857V28h-2.857v5.714h2.857v2.857h2.857v2.858h5.715v-5.715h-2.858v-2.857h5.715v2.857h2.857V28H29.43v-2.857h5.714v-2.857h-2.857v-2.857H29.43V16.57z"/><path fill="#38342a" d="M29.43 16.571v2.858h2.857v2.857h2.857v2.857h2.857v-2.857h-2.857v-2.857h-2.857V16.57z"/><path fill="#bcb29c" d="M32.288 16.571v2.858h2.857V16.57z"/><path fill="#c6bca5" d="M23.715 19.429v2.857h2.858v-2.857z"/><path fill="#bcb29c" d="M35.145 19.429v2.857h2.857v-2.857z"/><path fill="#c6bca5" d="M26.573 22.286v2.857h2.857v-2.857z"/><path fill="#bcb29c" d="M38.002 22.286v2.857h2.857v-2.857z"/><path fill="#c6bca5" d="M29.43 25.143V28h5.714v-2.857z"/><path fill="#bcb29c" d="M35.145 25.143V28h-2.857v5.714h2.857v-2.857h2.857v-5.714z"/><path fill="#807a6d" d="M40.859 25.143V28h2.857v-2.857z"/><path fill="#c6bca5" d="M20.858 28v2.857h2.857V28z"/><path fill="#aea694" d="M12.287 30.857v2.857h2.857v2.857h2.857v2.858h2.857v2.857h2.858v-2.857h-2.858V36.57h-2.857v-2.857h-2.857v-2.857z"/><path fill="#c6bca5" d="M23.715 30.857v2.857h5.715v-2.857z"/><path fill="#9a927e" d="M12.287 33.714v2.857h2.857v-2.857z"/><path fill="#bcb29c" d="M26.573 33.714v5.715h2.857V36.57h2.857v-2.857z"/><path fill="#9a927e" d="M15.144 36.571v2.858h2.857V36.57zm2.857 2.858v2.857h2.857v-2.857z"/><path fill="#bcb29c" d="M23.715 39.429v2.857h2.858v-2.857z"/><path fill="#9a927e" d="M20.858 42.286v2.857h2.857v-2.857z"/></g><defs><linearGradient id="a" x1="28" x2="28" y1="0" y2="56" gradientUnits="userSpaceOnUse"><stop stop-color="#2d2a24"/><stop offset="1" stop-color="#1e1c18"/></linearGradient><filter id="b" width="51.429" height="51.429" x="2.286" y="2.286" color-interpolation-filters="sRGB" filterUnits="userSpaceOnUse"><feFlood flood-opacity="0" result="BackgroundImageFix"/><feColorMatrix in="SourceAlpha" result="hardAlpha" values="0 0 0 0 0 0 0 0 0 0 0 0 0 0 0 0 0 0 127 0"/><feOffset/><feGaussianBlur stdDeviation="2.857"/><feComposite in2="hardAlpha" operator="out"/><feColorMatrix values="0 0 0 0 0 0 0 0 0 0 0 0 0 0 0 0 0 0 0.25 0"/><feBlend in2="BackgroundImageFix" result="effect1_dropShadow_28_3769"/><feBlend in="SourceGraphic" in2="effect1_dropShadow_28_3769" result="shape"/></filter></defs></svg>