<svg xmlns="http://www.w3.org/2000/svg" width="56" height="56" fill="none" viewBox="0 0 56 56"><rect width="56" height="56" fill="url(#a)" rx="8.4"/><rect width="53.9" height="53.9" x="1.05" y="1.05" stroke="#fff" stroke-opacity=".15" stroke-width="2.1" rx="7.35"/><g filter="url(#b)"><path fill="#dfa86a" d="M44.182 20.523 27 19.667h21V18H24.273v6.306c0 .045-.682-4.099-.864-5.27h-1.863v5.856c0 .045-.819-4.91-.864-5.54H8c.864.72 5.636 4.774 9.046 6.44 1.681.812 3.772.857 5.636.902.954.045 1.909.09 2.636.81 1.046.991 1.273 2.568.364 3.74-.864 1.17-3.318 1.44-3.318 1.44l-2.091 2.433V38h4.682l.136-2.838 4.045-2.838c-.409.36-1.409 1.262-2.818 3.469a7.3 7.3 0 0 0-.773 1.576c1-.855 3.091-1.441 5.546-1.441 2.409 0 4.5.586 5.5 1.441a7.3 7.3 0 0 0-.773-1.576c-1.454-2.207-2.409-3.108-2.818-3.469l4.045 2.838.137 2.838h4.363v-2.883L39.5 32.64s-3.045-.18-3.818-1.442c-2.364-3.513.863-9.009 8.5-10.675"/></g><defs><linearGradient id="a" x1="28" x2="28" y1="0" y2="56" gradientUnits="userSpaceOnUse"><stop stop-color="#251e17"/><stop offset="1" stop-color="#1b1610"/></linearGradient><filter id="b" width="51.429" height="51.429" x="2.286" y="2.286" color-interpolation-filters="sRGB" filterUnits="userSpaceOnUse"><feFlood flood-opacity="0" result="BackgroundImageFix"/><feColorMatrix in="SourceAlpha" result="hardAlpha" values="0 0 0 0 0 0 0 0 0 0 0 0 0 0 0 0 0 0 127 0"/><feOffset/><feGaussianBlur stdDeviation="2.857"/><feComposite in2="hardAlpha" operator="out"/><feColorMatrix values="0 0 0 0 0 0 0 0 0 0 0 0 0 0 0 0 0 0 0.25 0"/><feBlend in2="BackgroundImageFix" result="effect1_dropShadow_28_3775"/><feBlend in="SourceGraphic" in2="effect1_dropShadow_28_3775" result="shape"/></filter></defs></svg>