<svg xmlns="http://www.w3.org/2000/svg" width="56" height="56" fill="none" viewBox="0 0 56 56"><rect width="56" height="56" fill="url(#a)" rx="8.4"/><rect width="53.9" height="53.9" x="1.05" y="1.05" stroke="#fff" stroke-opacity=".15" stroke-width="2.1" rx="7.35"/><g filter="url(#b)"><path fill="url(#c)" fill-rule="evenodd" d="M31.394 9.99a3.966 3.966 0 0 1-1.463 5.393l-11.714 6.733a1 1 0 0 0-.5.868v10.572a1 1 0 0 0 .5.868l9.274 5.33a.99.99 0 0 0 .985 0l9.272-5.327a1 1 0 0 0 .5-.868v-6.572l-8.335 4.726a3.915 3.915 0 0 1-5.353-1.5 3.965 3.965 0 0 1 1.491-5.384l11.927-6.769a5.45 5.45 0 0 1 8.129 4.774V34.36a7.53 7.53 0 0 1-3.769 6.531L31.693 47.01a7.44 7.44 0 0 1-7.422 0l-10.645-6.12a7.53 7.53 0 0 1-3.77-6.532V22.183a7.53 7.53 0 0 1 3.77-6.531L26.033 8.52a3.92 3.92 0 0 1 5.361 1.47" clip-rule="evenodd"/></g><defs><linearGradient id="a" x1="-.262" x2="20.652" y1="56" y2="9.236" gradientUnits="userSpaceOnUse"><stop stop-color="#331c00"/><stop offset="1" stop-color="#392916"/></linearGradient><linearGradient id="c" x1="37.098" x2="18.338" y1="14.02" y2="43.344" gradientUnits="userSpaceOnUse"><stop stop-color="#ffb45b"/><stop offset="1" stop-color="#ff8a00"/></linearGradient><filter id="b" width="51.429" height="51.428" x="2.286" y="2.286" color-interpolation-filters="sRGB" filterUnits="userSpaceOnUse"><feFlood flood-opacity="0" result="BackgroundImageFix"/><feColorMatrix in="SourceAlpha" result="hardAlpha" values="0 0 0 0 0 0 0 0 0 0 0 0 0 0 0 0 0 0 127 0"/><feOffset/><feGaussianBlur stdDeviation="2.857"/><feComposite in2="hardAlpha" operator="out"/><feColorMatrix values="0 0 0 0 0 0 0 0 0 0 0 0 0 0 0 0 0 0 0.25 0"/><feBlend in2="BackgroundImageFix" result="effect1_dropShadow_28_3859"/><feBlend in="SourceGraphic" in2="effect1_dropShadow_28_3859" result="shape"/></filter></defs></svg>