<svg xmlns="http://www.w3.org/2000/svg" width="56" height="56" fill="none" viewBox="0 0 56 56"><rect width="56" height="56" fill="url(#a)" rx="8.4"/><rect width="53.9" height="53.9" x="1.05" y="1.05" stroke="#fff" stroke-opacity=".15" stroke-width="2.1" rx="7.35"/><g filter="url(#b)"><path fill="#4e84c4" d="M11.571 22.658v-4.954c.065-.004.129-.09.19-.111 1.068-.543 2.125-1.111 3.207-1.623.324-.155.442-.305.435-.67-.024-1.323-.01-2.648-.008-3.972 0-.407 0-.41.336-.58 1.396-.709 2.794-1.412 4.188-2.123.391-.199.816-.335 1.158-.625h.31c.012.03.017.076.038.087 1.77.89 3.543 1.775 5.31 2.672.107.055.147.059.256 0 .594-.31 1.207-.586 1.798-.903.162-.088.243-.074.398.012.458.259.938.476 1.411.712.305.154.305.16.566.023.439-.232.875-.47 1.314-.702.31-.163.343-.163.63-.017l5.213 2.657c1.924.977 3.852 1.945 5.772 2.93.12.062.223.051.335.066v14.66c-.112.016-.215.005-.335.066a531 531 0 0 1-6.805 3.438c-.38.187-.52.39-.516.824.02 3.035.005 6.07.019 9.105 0 .302-.087.463-.35.584-.507.235-1.002.497-1.501.748q-.056.029-.11.062.07.015.136.044c.54.277 1.078.562 1.623.833.097.049.092.07.024.122q-.081.052-.168.093c-.828.416-1.663.82-2.478 1.264-.371.202-.789.325-1.111.62h-.103a3 3 0 0 0-.299-.208q-5.58-2.832-11.16-5.658a1 1 0 0 1-.099-.07q.046-.016.088-.037c1.168-.593 2.34-1.18 3.504-1.783a.62.62 0 0 1 .64 0c.532.284 1.073.55 1.61.822q.815-.408 1.626-.82c.044-.023.08-.101.113-.098.162.016.155-.083.155-.194 0-.645-.005-1.29 0-1.936 0-.127-.054-.139-.16-.194-.891-.436-1.768-.897-2.651-1.346q-4.275-2.17-8.553-4.335c-.144-.074-.22-.136-.218-.324.013-1.08.004-2.162.009-3.243 0-.19-.046-.292-.24-.38-.48-.215-.935-.49-1.411-.718-.206-.099-.332-.182-.324-.456.025-.784 0-1.57.018-2.353.005-.187-.083-.217-.206-.278-1.097-.551-2.2-1.102-3.29-1.667-.118-.062-.218-.05-.334-.066m23.146 16.39v-3.87c0-.12.025-.17-.146-.083-1.064.549-2.143 1.068-3.216 1.598-.143.07-.348.113-.411.23-.078.151-.044.364-.051.551-.006.157 0 .314 0 .47q0 1.518.003 3.034c0 .139-.045.18-.172.24-.534.253-1.054.538-1.577.811a1 1 0 0 0-.098.07l.089.037c1.185.593 2.371 1.181 3.551 1.787.1.05.129.056.231 0a33 33 0 0 1 1.588-.784c.154-.07.216-.143.215-.325-.012-1.256-.006-2.511-.006-3.766"/></g><defs><linearGradient id="a" x1="28" x2="28" y1="0" y2="56" gradientUnits="userSpaceOnUse"><stop stop-color="#131f2e"/><stop offset="1" stop-color="#0c141e"/></linearGradient><filter id="b" width="51.429" height="51.429" x="2.286" y="2.286" color-interpolation-filters="sRGB" filterUnits="userSpaceOnUse"><feFlood flood-opacity="0" result="BackgroundImageFix"/><feColorMatrix in="SourceAlpha" result="hardAlpha" values="0 0 0 0 0 0 0 0 0 0 0 0 0 0 0 0 0 0 127 0"/><feOffset/><feGaussianBlur stdDeviation="2.857"/><feComposite in2="hardAlpha" operator="out"/><feColorMatrix values="0 0 0 0 0 0 0 0 0 0 0 0 0 0 0 0 0 0 0.25 0"/><feBlend in2="BackgroundImageFix" result="effect1_dropShadow_28_3781"/><feBlend in="SourceGraphic" in2="effect1_dropShadow_28_3781" result="shape"/></filter></defs></svg>