<svg xmlns="http://www.w3.org/2000/svg" width="56" height="56" fill="none" viewBox="0 0 56 56"><rect width="56" height="56" fill="url(#a)" rx="8.4"/><rect width="53.9" height="53.9" x="1.05" y="1.05" stroke="#fff" stroke-opacity=".15" stroke-width="2.1" rx="7.35"/><g filter="url(#b)"><path fill="#fff" d="m43.693 12.32-4.898 29.387a1.19 1.19 0 0 1-.618.856c-.181.1-.386.154-.594.155a1.2 1.2 0 0 1-.452-.095l-8.664-3.567-4.624 5.647c-.23.283-.575.445-.94.44a1 1 0 0 1-.415-.083 1.19 1.19 0 0 1-.808-1.19v-6.62L38.2 17.04 17.757 34.694 10.21 31.59a1.19 1.19 0 0 1-.773-1.046 1.19 1.19 0 0 1 .618-1.189l31.819-18.307a1.19 1.19 0 0 1 1.295 0c.41.283.616.782.524 1.272"/></g><defs><linearGradient id="a" x1="28" x2="28" y1="0" y2="56" gradientUnits="userSpaceOnUse"><stop stop-color="#1d262d"/><stop offset="1" stop-color="#12181c"/></linearGradient><filter id="b" width="51.429" height="51.429" x="2.286" y="2.286" color-interpolation-filters="sRGB" filterUnits="userSpaceOnUse"><feFlood flood-opacity="0" result="BackgroundImageFix"/><feColorMatrix in="SourceAlpha" result="hardAlpha" values="0 0 0 0 0 0 0 0 0 0 0 0 0 0 0 0 0 0 127 0"/><feOffset/><feGaussianBlur stdDeviation="2.857"/><feComposite in2="hardAlpha" operator="out"/><feColorMatrix values="0 0 0 0 0 0 0 0 0 0 0 0 0 0 0 0 0 0 0.25 0"/><feBlend in2="BackgroundImageFix" result="effect1_dropShadow_28_3826"/><feBlend in="SourceGraphic" in2="effect1_dropShadow_28_3826" result="shape"/></filter></defs></svg>