<svg xmlns="http://www.w3.org/2000/svg" width="56" height="56" fill="none" viewBox="0 0 56 56"><rect width="56" height="56" fill="url(#a)" rx="8.4"/><rect width="53.9" height="53.9" x="1.05" y="1.05" stroke="#fff" stroke-opacity=".15" stroke-width="2.1" rx="7.35"/><g filter="url(#b)"><path fill="#9c9c9c" d="m26.515 35.195-5.271.95 10.543 5.706L33.545 39z"/><path fill="#7e7e7e" d="m26.516 35.195 7.029 3.803v-3.803l-7.03-3.803z"/><path fill="#6a6a6a" d="M44.089 23.785v19.017L15.972 27.59V8.57z"/><path fill="#9c9c9c" d="m17.027 8-1.055.57L44.09 23.785l1.054-.57z"/><path fill="#7e7e7e" d="m44.088 42.802 1.055-.57V23.214l-1.055.57z"/><path fill="#fff" d="m17.73 11.423 24.601 13.313v15.213L17.73 26.637z"/><path fill="#7e7e7e" d="m16.13 35.258-5.273 3.233L28.43 48l5.272-3.233z"/><path fill="#2d2d2d" d="m28.43 48 5.272-2.853v-.38z"/></g><defs><linearGradient id="a" x1="0" x2="19.435" y1="56" y2="7.844" gradientUnits="userSpaceOnUse"><stop stop-color="#161616"/><stop offset="1" stop-color="#2d2d2d"/></linearGradient><filter id="b" width="51.429" height="51.429" x="2.286" y="2.286" color-interpolation-filters="sRGB" filterUnits="userSpaceOnUse"><feFlood flood-opacity="0" result="BackgroundImageFix"/><feColorMatrix in="SourceAlpha" result="hardAlpha" values="0 0 0 0 0 0 0 0 0 0 0 0 0 0 0 0 0 0 127 0"/><feOffset/><feGaussianBlur stdDeviation="2.857"/><feComposite in2="hardAlpha" operator="out"/><feColorMatrix values="0 0 0 0 0 0 0 0 0 0 0 0 0 0 0 0 0 0 0.25 0"/><feBlend in2="BackgroundImageFix" result="effect1_dropShadow_28_3865"/><feBlend in="SourceGraphic" in2="effect1_dropShadow_28_3865" result="shape"/></filter></defs></svg>