<svg xmlns="http://www.w3.org/2000/svg" width="56" height="56" fill="none" viewBox="0 0 56 56"><rect width="56" height="56" fill="url(#a)" rx="8.4"/><rect width="53.9" height="53.9" x="1.05" y="1.05" stroke="#fff" stroke-opacity=".15" stroke-width="2.1" rx="7.35"/><g filter="url(#b)"><path fill="#fff" fill-rule="evenodd" d="M47.645 36.34c-.782 1.003-2.696 1.72-2.696 1.72l-14.241 5.206v-3.84l10.48-3.801c1.19-.434 1.372-1.047.405-1.37-.965-.322-2.712-.23-3.902.206l-6.983 2.504V32.98l.403-.139s2.017-.727 4.855-1.047c2.837-.318 6.311.043 9.039 1.096 3.074.989 3.42 2.446 2.64 3.45M32.064 29.8v-9.82c0-1.153-.21-2.215-1.272-2.516-.815-.265-1.32.504-1.32 1.657v24.593l-6.515-2.105V12.286c2.77.523 6.806 1.76 8.976 2.505 5.517 1.929 7.388 4.329 7.388 9.737 0 5.27-3.196 7.269-7.257 5.273m-21.062 9.225c-3.155-.905-3.68-2.79-2.242-3.875 1.33-1.003 3.59-1.758 3.59-1.758l9.342-3.381v3.855l-6.723 2.449c-1.187.434-1.37 1.048-.405 1.37.966.321 2.714.23 3.903-.205l3.225-1.191v3.449c-.205.037-.433.074-.644.11-3.225.536-6.66.312-10.045-.823" clip-rule="evenodd"/></g><defs><linearGradient id="a" x1="0" x2="-19.436" y1="0" y2="48.156" gradientUnits="userSpaceOnUse"><stop stop-color="#131f33"/><stop offset="1" stop-color="#0d1422"/></linearGradient><filter id="b" width="51.429" height="51.429" x="2.286" y="2.286" color-interpolation-filters="sRGB" filterUnits="userSpaceOnUse"><feFlood flood-opacity="0" result="BackgroundImageFix"/><feColorMatrix in="SourceAlpha" result="hardAlpha" values="0 0 0 0 0 0 0 0 0 0 0 0 0 0 0 0 0 0 127 0"/><feOffset/><feGaussianBlur stdDeviation="2.857"/><feComposite in2="hardAlpha" operator="out"/><feColorMatrix values="0 0 0 0 0 0 0 0 0 0 0 0 0 0 0 0 0 0 0.25 0"/><feBlend in2="BackgroundImageFix" result="effect1_dropShadow_28_3891"/><feBlend in="SourceGraphic" in2="effect1_dropShadow_28_3891" result="shape"/></filter></defs></svg>