<svg xmlns="http://www.w3.org/2000/svg" width="56" height="56" fill="none" viewBox="0 0 56 56"><rect width="56" height="56" fill="url(#a)" rx="8.4"/><rect width="53.9" height="53.9" x="1.05" y="1.05" stroke="#fff" stroke-opacity=".15" stroke-width="2.1" rx="7.35"/><g stroke-linejoin="round" stroke-width=".857" filter="url(#b)"><path stroke="url(#c)" d="m37.257 13.237-7.89 4.472 7.899 4.464 7.89-4.472z"/><path stroke="url(#d)" d="m27.986 8-7.895 4.472 7.899 4.46 7.895-4.468z"/><path stroke="url(#e)" d="m18.722 13.249-7.894 4.468 7.899 4.464 7.89-4.468z"/><path stroke="url(#f)" d="M27.993 18.486 20.1 22.958l7.899 4.46 7.894-4.469z"/><path stroke="url(#g)" d="m10.143 18.882.004 8.936 7.899 4.46-.005-8.932z"/><path stroke="url(#h)" d="m19.415 24.123.004 8.932 7.899 4.464-.005-8.932z"/><path stroke="url(#i)" d="m10.148 29.367.004 8.933 7.899 4.46-.005-8.933z"/><path stroke="url(#j)" d="m19.419 34.608.004 8.932L27.322 48l-.005-8.932z"/><path stroke="url(#k)" d="m28.695 48 7.894-4.468-.004-8.932-7.895 4.468z"/><path stroke="url(#l)" d="m37.963 42.751 7.895-4.468-.009-8.932-7.89 4.468z"/><path stroke="url(#m)" d="m37.954 32.266 7.895-4.468-.005-8.932-7.894 4.468z"/><path stroke="url(#n)" d="m28.687 28.583.004 8.932 7.89-4.468-.004-8.932z"/></g><defs><linearGradient id="a" x1="0" x2="61.387" y1="0" y2="6.709" gradientUnits="userSpaceOnUse"><stop stop-color="#092230"/><stop offset="1" stop-color="#200521"/></linearGradient><linearGradient id="c" x1="7.176" x2="48.047" y1="7.571" y2="49.289" gradientUnits="userSpaceOnUse"><stop offset=".15" stop-color="#25b8ff"/><stop offset=".85" stop-color="#fa02ff"/></linearGradient><linearGradient id="d" x1="7.176" x2="48.047" y1="7.571" y2="49.289" gradientUnits="userSpaceOnUse"><stop offset=".15" stop-color="#25b8ff"/><stop offset=".85" stop-color="#fa02ff"/></linearGradient><linearGradient id="e" x1="7.177" x2="48.047" y1="7.571" y2="49.289" gradientUnits="userSpaceOnUse"><stop offset=".15" stop-color="#25b8ff"/><stop offset=".85" stop-color="#fa02ff"/></linearGradient><linearGradient id="f" x1="7.176" x2="48.046" y1="7.571" y2="49.289" gradientUnits="userSpaceOnUse"><stop offset=".15" stop-color="#25b8ff"/><stop offset=".85" stop-color="#fa02ff"/></linearGradient><linearGradient id="g" x1="7.176" x2="48.046" y1="7.571" y2="49.289" gradientUnits="userSpaceOnUse"><stop offset=".15" stop-color="#25b8ff"/><stop offset=".85" stop-color="#fa02ff"/></linearGradient><linearGradient id="h" x1="7.176" x2="48.046" y1="7.571" y2="49.289" gradientUnits="userSpaceOnUse"><stop offset=".15" stop-color="#25b8ff"/><stop offset=".85" stop-color="#fa02ff"/></linearGradient><linearGradient id="i" x1="7.176" x2="48.047" y1="7.571" y2="49.289" gradientUnits="userSpaceOnUse"><stop offset=".15" stop-color="#25b8ff"/><stop offset=".85" stop-color="#fa02ff"/></linearGradient><linearGradient id="j" x1="7.176" x2="48.046" y1="7.571" y2="49.289" gradientUnits="userSpaceOnUse"><stop offset=".15" stop-color="#25b8ff"/><stop offset=".85" stop-color="#fa02ff"/></linearGradient><linearGradient id="k" x1="7.176" x2="48.046" y1="7.571" y2="49.289" gradientUnits="userSpaceOnUse"><stop offset=".15" stop-color="#25b8ff"/><stop offset=".85" stop-color="#fa02ff"/></linearGradient><linearGradient id="l" x1="7.176" x2="48.047" y1="7.571" y2="49.289" gradientUnits="userSpaceOnUse"><stop offset=".15" stop-color="#25b8ff"/><stop offset=".85" stop-color="#fa02ff"/></linearGradient><linearGradient id="m" x1="7.176" x2="48.046" y1="7.571" y2="49.289" gradientUnits="userSpaceOnUse"><stop offset=".15" stop-color="#25b8ff"/><stop offset=".85" stop-color="#fa02ff"/></linearGradient><linearGradient id="n" x1="7.176" x2="48.046" y1="7.571" y2="49.289" gradientUnits="userSpaceOnUse"><stop offset=".15" stop-color="#25b8ff"/><stop offset=".85" stop-color="#fa02ff"/></linearGradient><filter id="b" width="51.429" height="52.286" x="2.286" y="1.857" color-interpolation-filters="sRGB" filterUnits="userSpaceOnUse"><feFlood flood-opacity="0" result="BackgroundImageFix"/><feColorMatrix in="SourceAlpha" result="hardAlpha" values="0 0 0 0 0 0 0 0 0 0 0 0 0 0 0 0 0 0 127 0"/><feOffset/><feGaussianBlur stdDeviation="2.857"/><feComposite in2="hardAlpha" operator="out"/><feColorMatrix values="0 0 0 0 0 0 0 0 0 0 0 0 0 0 0 0 0 0 0.25 0"/><feBlend in2="BackgroundImageFix" result="effect1_dropShadow_28_3833"/><feBlend in="SourceGraphic" in2="effect1_dropShadow_28_3833" result="shape"/></filter></defs></svg>