<svg xmlns="http://www.w3.org/2000/svg" width="56" height="56" fill="none" viewBox="0 0 56 56"><rect width="56" height="56" fill="url(#a)" rx="8.4"/><rect width="53.9" height="53.9" x="1.05" y="1.05" stroke="#fff" stroke-opacity=".15" stroke-width="2.1" rx="7.35"/><g filter="url(#b)"><path fill="url(#c)" d="M27.286 8.412a1.43 1.43 0 0 1 1.428 0l15.892 9.176c.442.255.715.726.715 1.237v18.35c0 .51-.273.982-.715 1.237l-15.892 9.176a1.43 1.43 0 0 1-1.428 0l-15.892-9.176a1.43 1.43 0 0 1-.714-1.237v-18.35c0-.51.272-.982.714-1.237z"/></g><defs><linearGradient id="a" x1="28" x2="28" y1="0" y2="56" gradientUnits="userSpaceOnUse"><stop stop-color="#383838"/><stop offset="1" stop-color="#242424"/></linearGradient><linearGradient id="c" x1="8" x2="8" y1="8" y2="48" gradientUnits="userSpaceOnUse"><stop stop-color="#fff"/><stop offset="1" stop-color="#b9b9b9"/></linearGradient><filter id="b" width="51.429" height="51.429" x="2.286" y="2.286" color-interpolation-filters="sRGB" filterUnits="userSpaceOnUse"><feFlood flood-opacity="0" result="BackgroundImageFix"/><feColorMatrix in="SourceAlpha" result="hardAlpha" values="0 0 0 0 0 0 0 0 0 0 0 0 0 0 0 0 0 0 127 0"/><feOffset/><feGaussianBlur stdDeviation="2.857"/><feComposite in2="hardAlpha" operator="out"/><feColorMatrix values="0 0 0 0 0 0 0 0 0 0 0 0 0 0 0 0 0 0 0.25 0"/><feBlend in2="BackgroundImageFix" result="effect1_dropShadow_28_3808"/><feBlend in="SourceGraphic" in2="effect1_dropShadow_28_3808" result="shape"/></filter></defs></svg>