<svg xmlns="http://www.w3.org/2000/svg" width="56" height="56" fill="none" viewBox="0 0 56 56"><rect width="56" height="56" fill="url(#a)" rx="8.4"/><rect width="53.9" height="53.9" x="1.05" y="1.05" stroke="#fff" stroke-opacity=".15" stroke-width="2.1" rx="7.35"/><g filter="url(#b)"><g fill="#f7cf0d" clip-path="url(#c)"><path d="M46 8H10c-1.1 0-2 .9-2 2v36c0 1.1.9 2 2 2h3.22c-.34-9.14-.02-10.5.62-11.4.78-1.12 1.1-1.26 2.28-2.2 1-.8.64-2.1-.08-3.04-.44-.58-1.06-1.26-1.54-1.92-.3-.44.44-3.02.72-3.96s.76-4 4.96-4.82c1.58-.32 5.92-.54 8.9-.36-.02-.12-.06-.26-.08-.4-.06-.24-.1-.5-.16-.78-.06-.26-.12-.54-.18-.82s-.14-.56-.2-.86c-.08-.3-.14-.58-.24-.88q-.24-.9-.6-1.74c-.12-.28-.24-.54-.38-.78-.14-.22-.28-.42-.4-.5-.02-.02-.04-.04-.06-.04h-.02.04s.02 0 0 0l-.06-.02h-.04l-.08-.02h-.1a6 6 0 0 0-.84 0c-.58.04-1.2.16-1.8.3s-1.18.32-1.74.48c-.24.08-.46.16-.68.22.02.18.04.34.04.52 0 2.6-2.1 4.7-4.7 4.7s-4.68-2.1-4.68-4.7 2.1-4.7 4.7-4.7c1.74 0 3.26.94 4.08 2.36.2-.08.42-.16.64-.24.56-.22 1.18-.44 1.82-.64.66-.2 1.34-.4 2.1-.5.38-.06.78-.08 1.22-.06h.16c.06 0 .12.02.16.02h.14l.06.02h.02l.06.02s.04 0 .06.02l.08.02c.12.04.18.06.26.1s.14.06.22.1c.14.08.26.16.38.24q.33.27.54.54c.16.18.28.36.4.54.24.36.42.7.58 1.04.32.68.58 1.36.78 2l.3.96c.1.32.16.62.24.92.04.14.08.3.1.44.04.14.06.28.1.42.06.28.12.56.18.82.08.4.14.78.2 1.12 4.48.44 7.9 1.02 9.44 2.56 2.26 2.2 4 12.2 2.86 24.9h2c1.1 0 2-.9 2-2V10c0-1.1-.9-2-2-2"/><path d="M26.28 36.16c-.26.72-.48 9.14 2 9.14s2.5-8.64 2.42-9.14c-.08-.48-4.16-.7-4.42 0M23 28c-1.7-.24-2.72 8.04-.34 8.52 2.24.44 2.02-8.28.34-8.52m11.16 0c-1.7-.24-2.72 8.04-.34 8.52 2.24.44 2.04-8.28.34-8.52"/></g></g><defs><linearGradient id="a" x1="28" x2="28" y1="0" y2="56" gradientUnits="userSpaceOnUse"><stop stop-color="#353518"/><stop offset="1" stop-color="#241f10"/></linearGradient><clipPath id="c"><path fill="#fff" d="M8 8h40v40H8z"/></clipPath><filter id="b" width="51.429" height="51.429" x="2.286" y="2.286" color-interpolation-filters="sRGB" filterUnits="userSpaceOnUse"><feFlood flood-opacity="0" result="BackgroundImageFix"/><feColorMatrix in="SourceAlpha" result="hardAlpha" values="0 0 0 0 0 0 0 0 0 0 0 0 0 0 0 0 0 0 127 0"/><feOffset/><feGaussianBlur stdDeviation="2.857"/><feComposite in2="hardAlpha" operator="out"/><feColorMatrix values="0 0 0 0 0 0 0 0 0 0 0 0 0 0 0 0 0 0 0.25 0"/><feBlend in2="BackgroundImageFix" result="effect1_dropShadow_28_3851"/><feBlend in="SourceGraphic" in2="effect1_dropShadow_28_3851" result="shape"/></filter></defs></svg>