<svg xmlns="http://www.w3.org/2000/svg" width="56" height="56" fill="none" viewBox="0 0 56 56"><rect width="56" height="56" fill="url(#a)" rx="8.4"/><rect width="53.9" height="53.9" x="1.05" y="1.05" stroke="#fff" stroke-opacity=".15" stroke-width="2.1" rx="7.35"/><g fill="#fff" filter="url(#b)"><path d="M16.564 8.133c-3.985.712-7.19 3.66-8.201 7.536-.365 1.4-.39 2.22-.348 13.078.025 9.97.033 10.203.199 10.973.92 4.15 3.868 7.106 8.06 8.083.546.124 1.242.15 5.724.174 4.638.033 5.119.025 5.243-.1.124-.123.133-1.722.133-19.843 0-13.433-.025-19.76-.083-19.876-.083-.15-.224-.158-5.078-.15-3.943.009-5.128.034-5.65.125m7.496 19.876v16.78l-3.371-.042c-3.107-.033-3.438-.05-4.06-.207-2.667-.687-4.646-2.741-5.201-5.416-.183-.837-.183-21.442-.009-22.262.497-2.327 2.113-4.257 4.291-5.127 1.094-.438 1.6-.488 5.145-.496l3.205-.009z"/><path d="M17.276 16.29c-.522.1-1.317.497-1.74.87-.87.753-1.3 1.822-1.234 3.08.033.655.075.829.34 1.359a3.77 3.77 0 0 0 1.78 1.789c.556.273.697.306 1.417.331.655.025.887 0 1.326-.149 1.797-.605 2.882-2.352 2.576-4.14-.356-2.13-2.378-3.554-4.465-3.14m14.132-8.232c-.034.025-.058 9.003-.058 19.951 0 18.063.008 19.894.132 19.943.224.083 6.652.05 7.447-.033 3.363-.38 6.329-2.427 7.944-5.466.207-.39.48-1.044.621-1.45.522-1.556.506-1.142.506-13.043 0-9.5-.017-10.916-.133-11.52-.82-4.316-4.108-7.57-8.433-8.316C38.854 8.025 37.96 8 35.077 8c-1.988 0-3.645.025-3.67.058m8.846 18.038a4.05 4.05 0 0 1 2.784 2.584c.273.779.265 1.922-.008 2.634-.506 1.308-1.5 2.228-2.776 2.567-2.07.538-4.274-.712-4.878-2.766-.183-.63-.174-1.69.033-2.335.62-2.03 2.775-3.222 4.846-2.684"/></g><defs><linearGradient id="a" x1="0" x2="-19.436" y1="0" y2="48.156" gradientUnits="userSpaceOnUse"><stop stop-color="#40080b"/><stop offset="1" stop-color="#240507"/></linearGradient><filter id="b" width="51.429" height="51.429" x="2.286" y="2.286" color-interpolation-filters="sRGB" filterUnits="userSpaceOnUse"><feFlood flood-opacity="0" result="BackgroundImageFix"/><feColorMatrix in="SourceAlpha" result="hardAlpha" values="0 0 0 0 0 0 0 0 0 0 0 0 0 0 0 0 0 0 127 0"/><feOffset/><feGaussianBlur stdDeviation="2.857"/><feComposite in2="hardAlpha" operator="out"/><feColorMatrix values="0 0 0 0 0 0 0 0 0 0 0 0 0 0 0 0 0 0 0.25 0"/><feBlend in2="BackgroundImageFix" result="effect1_dropShadow_28_3897"/><feBlend in="SourceGraphic" in2="effect1_dropShadow_28_3897" result="shape"/></filter></defs></svg>