<svg xmlns="http://www.w3.org/2000/svg" width="56" height="56" fill="none" viewBox="0 0 56 56"><g clip-path="url(#a)"><rect width="56" height="56" fill="url(#b)" rx="8.4"/><g fill="#fff" filter="url(#c)"><path d="M13.264 37.793c-.287.097-.563.208-.865.206a1.96 1.96 0 0 1-1.476-.711 29 29 0 0 1-1.029-1.271c-.82-1.094-1.597-2.218-2.405-3.32-.36-.494-.764-.956-1.127-1.447-.378-.51-.73-1.038-1.1-1.555-.04-.056-.119-.063-.119-.131q-.001-.38.008-.763c.007-.248.14-.46.308-.643q.04-.043.069-.093c.23-.404.423-.83.65-1.238 1.045-1.886 2.082-3.777 3.159-5.646.245-.425.346-.993.875-1.203.336-.133.698-.204 1.053-.28q1.825-.387 3.652-.756c1.319-.266 2.64-.523 3.958-.791.12-.025.188-.151.31-.15q.292 0 .587.003c.372.007.736.147 1.008.4q.112.102.2.218a87 87 0 0 1 1.708 2.38c.218.313.45.463.873.462 7.499-.018 14.998-.013 22.497-.013.625 0 1.021.375 1.023.968.001.632-.376.993-1.038.993H35.581c-.183 0-.367-.006-.55 0-.497.02-1.006.396-1.09.797-.113.551.154 1.05.695 1.26.126.049.273.058.41.058q3.58.006 7.16.001c.855-.001 1.302.737.998 1.459-.196.464-.623.574-1.07.578-1.337.011-2.674.004-4.011.004H31.2c-.61 0-.99.432-1.05 1.027-.058.574.605 1.099 1.246 1.097 5.939-.012 11.877-.007 17.816-.007.578 0 1.189-.108 1.574.488a.025.025 0 0 0 .034.007.024.024 0 0 1 .037.02c0 .241 0 .483-.015.742a.43.43 0 0 1-.171.315c-.285.216-.534.41-.948.407-3.643-.033-7.288-.018-10.932-.018-.687 0-1.22.46-1.233 1.046-.011.541.445 1.092 1.203 1.08 1.808-.027 3.617-.005 5.426-.01.864-.002 1.245.786 1.01 1.363-.188.458-.543.678-1.19.678l-21.707.001c-.128 0-.315-.033-.375.036-.348.398-.852.406-1.294.497-2.425.5-4.86.954-7.289 1.434zm6.11-17.922c-.4-.185-.901.064-1.162.421-.23.314-.411.664-.6 1.007-.75 1.358-1.479 2.728-2.25 4.074-.215.373-.501.745-.845.992-.288.208-.703.26-1.071.336-1.814.376-3.63.735-5.446 1.104-.381.078-.644.323-.723.69-.095.434-.01.831.396 1.119.4.282.797.164 1.217.077a295 295 0 0 1 5.04-1.008c.63-.119 1.237.018 1.637.544 1.124 1.477 2.213 2.979 3.317 4.47.366.496.943.608 1.427.279.432-.294.565-.984.238-1.437a351 351 0 0 0-3.025-4.114c-.373-.5-.675-1.015-.492-1.658.081-.285.24-.55.384-.813.515-.94 1.048-1.871 1.558-2.814.372-.685.745-1.372 1.066-2.08.164-.362-.032-.703-.316-.948a1.5 1.5 0 0 0-.35-.241"/><path d="M44.553 26.108c.428-.544.754-.668 1.249-.5.427.146.732.66.647 1.092-.099.503-.632.93-1.084.867-.503-.07-.885-.49-.879-.982.002-.149.038-.298.067-.477"/></g></g><rect width="53.9" height="53.9" x="1.05" y="1.05" stroke="#fff" stroke-opacity=".15" stroke-width="2.1" rx="7.35"/><defs><linearGradient id="b" x1="28" x2="28" y1="0" y2="56" gradientUnits="userSpaceOnUse"><stop stop-color="#1d292c"/><stop offset="1" stop-color="#12161c"/></linearGradient><clipPath id="a"><rect width="56" height="56" fill="#fff" rx="8.4"/></clipPath><filter id="c" width="57.143" height="51.429" x="-.571" y="2.286" color-interpolation-filters="sRGB" filterUnits="userSpaceOnUse"><feFlood flood-opacity="0" result="BackgroundImageFix"/><feColorMatrix in="SourceAlpha" result="hardAlpha" values="0 0 0 0 0 0 0 0 0 0 0 0 0 0 0 0 0 0 127 0"/><feOffset/><feGaussianBlur stdDeviation="2.857"/><feComposite in2="hardAlpha" operator="out"/><feColorMatrix values="0 0 0 0 0 0 0 0 0 0 0 0 0 0 0 0 0 0 0.25 0"/><feBlend in2="BackgroundImageFix" result="effect1_dropShadow_29_50"/><feBlend in="SourceGraphic" in2="effect1_dropShadow_29_50" result="shape"/></filter></defs></svg>