<svg xmlns="http://www.w3.org/2000/svg" width="56" height="56" fill="none" viewBox="0 0 56 56"><rect width="56" height="56" fill="url(#a)" rx="8.4"/><rect width="53.9" height="53.9" x="1.05" y="1.05" stroke="#fff" stroke-opacity=".15" stroke-width="2.1" rx="7.35"/><g filter="url(#b)"><path fill="#fff" d="M26.006 47.918c-3.082-.295-6.201-1.401-8.88-3.148-2.246-1.465-2.754-2.067-2.754-3.268 0-2.413 2.655-6.64 7.197-11.457 2.58-2.737 6.172-5.944 6.56-5.857.756.169 6.795 6.056 9.056 8.828 3.575 4.383 5.219 7.971 4.384 9.57-.635 1.217-4.574 3.594-7.467 4.507-2.385.753-5.516 1.072-8.096.825M11.34 38.993c-1.866-2.861-2.81-5.678-3.264-9.752-.15-1.345-.097-2.114.341-4.875.546-3.442 2.506-7.423 4.863-9.873 1.003-1.044 1.093-1.07 2.316-.657 1.485.5 3.072 1.595 5.532 3.818l1.435 1.297-.784.963c-3.638 4.467-7.48 10.8-8.927 14.718-.787 2.13-1.104 4.268-.766 5.158.23.6.02.377-.746-.797m32.754.487c.184-.9-.049-2.551-.595-4.217-1.184-3.608-5.14-10.32-8.772-14.884l-1.143-1.437 1.237-1.135c1.615-1.482 2.737-2.37 3.947-3.123.954-.595 2.319-1.122 2.905-1.122.362 0 1.635 1.32 2.663 2.762 1.592 2.231 2.763 4.937 3.356 7.753.383 1.82.415 5.715.062 7.53-.29 1.49-.903 3.423-1.5 4.733-.448.982-1.562 2.89-2.05 3.51-.251.319-.251.318-.11-.37m-17.758-26.6c-1.676-.85-4.262-1.763-5.69-2.008a10.4 10.4 0 0 0-1.898-.107c-1.178.06-1.126-.002.764-.895 1.572-.742 2.883-1.178 4.663-1.552 2.002-.42 5.764-.425 7.735-.01 2.127.448 4.633 1.38 6.045 2.249l.42.258-.963-.049c-1.914-.097-4.702.676-7.695 2.132-.903.44-1.689.79-1.746.78s-.793-.37-1.636-.797"/></g><defs><linearGradient id="a" x1="28" x2="8.564" y1="0" y2="48.156" gradientUnits="userSpaceOnUse"><stop stop-color="#083407"/><stop offset="1" stop-color="#041d04"/></linearGradient><filter id="b" width="51.429" height="51.429" x="2.286" y="2.286" color-interpolation-filters="sRGB" filterUnits="userSpaceOnUse"><feFlood flood-opacity="0" result="BackgroundImageFix"/><feColorMatrix in="SourceAlpha" result="hardAlpha" values="0 0 0 0 0 0 0 0 0 0 0 0 0 0 0 0 0 0 127 0"/><feOffset/><feGaussianBlur stdDeviation="2.857"/><feComposite in2="hardAlpha" operator="out"/><feColorMatrix values="0 0 0 0 0 0 0 0 0 0 0 0 0 0 0 0 0 0 0.25 0"/><feBlend in2="BackgroundImageFix" result="effect1_dropShadow_28_3906"/><feBlend in="SourceGraphic" in2="effect1_dropShadow_28_3906" result="shape"/></filter></defs></svg>