<svg xmlns="http://www.w3.org/2000/svg" width="266" height="40" fill="none" viewBox="0 0 266 40"><g clip-path="url(#a)"><rect width="266.001" height="40.001" fill="url(#b)" rx="8"/><g filter="url(#c)"><path fill="url(#d)" fill-rule="evenodd" d="M12.676 6.11c-.264.202-.309.561-.309 2.483 0 1.408-.026 1.925-.1 1.971-.055.035-.806.178-1.67.319l-1.569.255-.022 2.095c-.017 1.614.002 2.114.082 2.178.071.056.586.006 1.589-.154.816-.13 1.53-.22 1.588-.199.082.03.099 1.454.082 6.904l-.02 6.866-1.65.041-1.649.042v5.09h14.347v-5.09l-1.69-.042-1.69-.041-.021-7.492c-.017-5.95 0-7.5.082-7.53.106-.038 9.587-1.527 9.957-1.564.195-.019.207.005.229.44l.023.458-1.614 1.502-1.614 1.502-.47.042-.47.041v3.338h8.905v-3.338l-.43-.025-.431-.025-1.363-1.51-1.363-1.511v-.52c0-.617.045-.666.693-.745.613-.075.708-.113.71-.283.004-.265-.602-4.06-.658-4.124-.032-.036-2.756.369-6.055.899s-6.032.941-6.075.915c-.042-.026-.077-.622-.077-1.324 0-1.326-.074-1.747-.333-1.887-.239-.13-6.774-.108-6.945.023m5.94 2.267c.026 1.22.04 1.185-.545 1.297l-.433.083-1.48-1.179c-.815-.648-1.482-1.212-1.482-1.251 0-.04.881-.063 1.958-.05l1.959.022zm-3.28 1.12c.618.502.598.532-.488.705-1.234.196-1.161.252-1.161-.884 0-1.267-.153-1.283 1.649.18m3.282 5.042c.028.552-.011.572-.447.22a13 13 0 0 0-.48-.374c-.203-.145-.156-.19.293-.28.584-.117.606-.102.634.434m12.977.648c.422.46.78.873.796.918.017.05-.622.08-1.711.08-.957 0-1.74-.027-1.741-.062-.003-.073 1.748-1.765 1.831-1.77.03-.002.402.374.825.834m-15.125-.204c.907.733.943.709-1.031.683l-1.711-.023-.026-.366c-.034-.486-.019-.496 1.066-.673l.98-.161c.023-.005.348.238.722.54m2.146 3.31c.012.723-.006 1.314-.042 1.313-.093-.002-3.192-2.49-3.225-2.589-.018-.055.536-.076 1.608-.061l1.636.023zm-3.068.525c.922.732 1.647 1.36 1.612 1.396s-.821.054-1.748.042l-1.684-.023-.023-1.405c-.016-1.028.003-1.397.072-1.374.052.018.849.631 1.77 1.364m3.068 3.995c.012.685-.006 1.272-.041 1.305-.063.058-3.171-2.368-3.226-2.518-.017-.046.636-.068 1.608-.055l1.636.023zm-3.073.564c.931.742 1.662 1.381 1.624 1.42-.039.039-.828.06-1.755.048l-1.684-.023-.023-1.397c-.014-.897.007-1.398.06-1.398.046 0 .846.607 1.777 1.35m3.073 4.011c.017 1.024-.001 1.313-.083 1.31-.137-.007-3.134-2.424-3.178-2.563-.027-.084.308-.102 1.602-.084l1.636.023zm-2.047 1.42c.002.036-.636.055-1.419.043l-1.422-.023-.023-1.039c-.013-.57-.005-1.087.018-1.148.04-.106 2.836 2.023 2.845 2.168" clip-rule="evenodd"/></g><g filter="url(#e)"><path fill="#e8e8e8" d="M43.36 26.5V14.138h4.407q1.437 0 2.384.495.954.495 1.425 1.37.47.87.47 2.01 0 1.136-.476 1.999-.471.858-1.425 1.334-.948.477-2.384.477h-3.339v-1.606h3.17q.904 0 1.473-.26.573-.259.839-.754.265-.494.265-1.19 0-.699-.271-1.213a1.76 1.76 0 0 0-.84-.784q-.567-.279-1.49-.278h-2.343V26.5zm6.103-5.577 3.055 5.578h-2.125l-2.995-5.578zm8.59 5.765q-1.371 0-2.361-.586a3.97 3.97 0 0 1-1.522-1.66q-.53-1.074-.53-2.517 0-1.425.53-2.512.538-1.087 1.498-1.696.966-.61 2.257-.61.785 0 1.522.26.735.259 1.322.815.585.555.923 1.443.339.881.339 2.143v.64h-7.372v-1.353h5.603q0-.712-.29-1.261a2.2 2.2 0 0 0-.815-.876q-.52-.32-1.22-.32-.76 0-1.328.375a2.5 2.5 0 0 0-.869.966 2.8 2.8 0 0 0-.302 1.285v1.057q0 .93.326 1.582.332.651.924.996.591.338 1.382.338.513 0 .936-.145.423-.15.73-.447a1.94 1.94 0 0 0 .471-.73l1.709.308a3.1 3.1 0 0 1-.737 1.322 3.6 3.6 0 0 1-1.322.875q-.79.308-1.805.308m12.24 3.29v-4.92h-.108a5 5 0 0 1-.471.676 2.6 2.6 0 0 1-.833.664q-.531.285-1.377.284-1.122 0-2.004-.574-.875-.579-1.376-1.648-.495-1.074-.495-2.578t.5-2.571q.508-1.07 1.39-1.636.88-.568 1.997-.568.864 0 1.389.29.531.284.821.664.296.38.459.67h.15v-1.503H72.1v12.75zm-2.39-4.836q.78 0 1.316-.41.543-.417.821-1.153.284-.737.284-1.715 0-.966-.278-1.69-.278-.725-.815-1.129t-1.328-.404q-.815 0-1.358.422-.544.423-.821 1.153a4.7 4.7 0 0 0-.272 1.648q0 .93.278 1.673.277.742.82 1.177.55.428 1.353.428m12.496-2.487v-5.427h1.811v9.273h-1.774v-1.606h-.097a2.9 2.9 0 0 1-1.026 1.237q-.7.49-1.745.49-.894 0-1.582-.393-.682-.399-1.074-1.177-.387-.78-.387-1.926v-5.898h1.805v5.68q0 .95.526 1.51.525.561 1.364.561.507 0 1.008-.253.507-.255.84-.767.337-.513.331-1.304m4.237 3.846v-9.273h1.805v9.273zm.911-10.704q-.47 0-.809-.314a1.02 1.02 0 0 1-.332-.76q0-.447.332-.761.338-.32.81-.32.47 0 .802.32a1 1 0 0 1 .338.76q0 .441-.338.761-.332.315-.803.314m3.322 10.704v-9.273h1.745v1.473h.096q.254-.75.894-1.177.646-.435 1.46-.435a8 8 0 0 1 .768.042v1.727a3 3 0 0 0-.387-.067 4 4 0 0 0-.555-.042q-.64 0-1.141.272a2.02 2.02 0 0 0-1.075 1.817v5.663zm10.189.187q-1.37 0-2.36-.586a3.97 3.97 0 0 1-1.522-1.66q-.531-1.074-.531-2.517 0-1.425.531-2.512.538-1.087 1.497-1.696.966-.61 2.258-.61.784 0 1.522.26a3.7 3.7 0 0 1 1.322.815q.585.555.923 1.443.338.881.338 2.143v.64h-7.37v-1.353h5.602q0-.712-.29-1.261a2.2 2.2 0 0 0-.815-.876q-.52-.32-1.22-.32-.76 0-1.328.375a2.5 2.5 0 0 0-.87.966 2.8 2.8 0 0 0-.301 1.285v1.057q0 .93.326 1.582.332.651.924.996.591.338 1.382.338.513 0 .936-.145.423-.15.73-.447.309-.295.471-.73l1.709.308a3.1 3.1 0 0 1-.737 1.322 3.6 3.6 0 0 1-1.322.875q-.79.308-1.805.308m12.93-7.196-1.636.29a2 2 0 0 0-.326-.598 1.6 1.6 0 0 0-.592-.465q-.374-.18-.936-.181-.766 0-1.28.344-.513.338-.513.875 0 .465.344.749.345.284 1.111.465l1.473.338q1.28.296 1.908.912.628.615.628 1.6a2.43 2.43 0 0 1-.483 1.484q-.477.647-1.334 1.015-.852.368-1.974.368-1.558 0-2.542-.664-.985-.67-1.207-1.902l1.744-.265q.163.681.67 1.032.507.345 1.322.344.888 0 1.419-.368.531-.375.531-.912a.95.95 0 0 0-.326-.73q-.32-.296-.984-.447l-1.569-.344q-1.298-.296-1.92-.942-.616-.645-.616-1.636 0-.82.459-1.437.46-.615 1.268-.96.809-.35 1.853-.35 1.503 0 2.367.652.862.645 1.141 1.733"/><path fill="url(#f)" d="M120.612 26.5H117.4l4.171-12.363h3.979l4.171 12.364h-3.211l-2.904-9.249h-.097zm-.429-4.865h6.713v2.27h-6.713zm10.869 4.866v-9.273h2.868v1.69h.097q.253-.917.827-1.364a2.1 2.1 0 0 1 1.334-.453q.205 0 .422.03.218.025.405.079v2.566a3 3 0 0 0-.556-.115 5 5 0 0 0-.603-.042q-.525 0-.948.235a1.7 1.7 0 0 0-.658.646 1.9 1.9 0 0 0-.236.966V26.5zm11.003.175q-1.467 0-2.518-.604a4.1 4.1 0 0 1-1.605-1.678q-.562-1.08-.562-2.5 0-1.424.562-2.499a4.1 4.1 0 0 1 1.611-1.684q1.051-.603 2.506-.604 1.285 0 2.239.465.96.465 1.498 1.316.543.846.573 1.986H143.6q-.084-.712-.483-1.117-.392-.404-1.026-.404a1.46 1.46 0 0 0-.9.29q-.386.283-.603.845-.212.555-.212 1.376t.212 1.389q.218.561.603.851.387.285.9.284.41 0 .724-.175.32-.175.526-.513a2.1 2.1 0 0 0 .259-.834h2.759q-.042 1.147-.573 2.005a3.56 3.56 0 0 1-1.48 1.334q-.947.47-2.251.47m8.767-5.464V26.5h-2.952V14.137h2.855v4.793h.103a2.7 2.7 0 0 1 1.026-1.34q.719-.483 1.757-.483.978 0 1.702.435.725.429 1.123 1.213.405.786.399 1.835v5.91h-2.952v-5.33q.006-.773-.387-1.207-.392-.435-1.105-.435-.464 0-.821.205a1.4 1.4 0 0 0-.549.574q-.193.375-.199.905m7.855 5.289v-9.273h2.952v9.273zm1.479-10.354q-.621 0-1.068-.41a1.32 1.32 0 0 1-.447-1.002q0-.58.447-.99a1.5 1.5 0 0 1 1.068-.417 1.5 1.5 0 0 1 1.069.417q.447.41.447.99 0 .585-.447 1.002-.44.41-1.069.41m8.586 1.081v2.173h-5.849v-2.173zm-4.624-2.222h2.952v8.579q0 .272.085.44.09.165.259.236.17.066.405.066.169 0 .356-.03.193-.036.29-.06l.447 2.13q-.212.061-.598.152-.381.09-.912.115-1.038.048-1.781-.242a2.3 2.3 0 0 1-1.129-.918q-.386-.621-.374-1.563zm10.366 11.67q-1.455 0-2.512-.574a3.97 3.97 0 0 1-1.618-1.648q-.561-1.074-.561-2.553 0-1.437.567-2.512.568-1.08 1.6-1.678 1.032-.603 2.433-.604.99 0 1.811.308.82.308 1.419.912.597.604.929 1.49.333.882.333 2.023v.737h-8.06v-1.715h5.313a1.66 1.66 0 0 0-.224-.839 1.5 1.5 0 0 0-.597-.573 1.73 1.73 0 0 0-.864-.212q-.495 0-.887.224a1.68 1.68 0 0 0-.863 1.449v1.744q0 .567.223.996.223.423.634.658t.978.236q.393 0 .712-.109a1.5 1.5 0 0 0 .55-.32q.229-.21.344-.52l2.71.08a3.35 3.35 0 0 1-.742 1.587q-.568.67-1.491 1.044-.924.369-2.137.369m10.237 0q-1.467 0-2.518-.604a4.1 4.1 0 0 1-1.605-1.678q-.562-1.08-.562-2.5 0-1.424.562-2.499a4.1 4.1 0 0 1 1.611-1.684q1.051-.603 2.506-.604 1.286 0 2.239.465.96.465 1.498 1.316.543.846.573 1.986h-2.759q-.084-.712-.483-1.117-.391-.404-1.026-.404a1.46 1.46 0 0 0-.9.29q-.386.283-.603.845-.212.555-.212 1.376t.212 1.389q.218.561.603.851.387.285.9.284.41 0 .724-.175.32-.175.526-.513a2.1 2.1 0 0 0 .259-.834h2.759q-.042 1.147-.573 2.005a3.57 3.57 0 0 1-1.479 1.334q-.948.47-2.252.47m11.049-9.448V19.4h-5.85v-2.173zm-4.624-2.222h2.952v8.579q0 .272.084.44.09.165.26.236a1.1 1.1 0 0 0 .404.066q.17 0 .356-.03.194-.036.29-.06l.447 2.13q-.211.061-.598.152-.38.09-.911.115-1.039.048-1.781-.242a2.3 2.3 0 0 1-1.129-.918q-.387-.621-.374-1.563zm12.113 7.492v-5.27h2.946V26.5h-2.814v-1.727h-.096a2.7 2.7 0 0 1-1.051 1.352q-.736.495-1.78.495-.948 0-1.667-.434a2.96 2.96 0 0 1-1.116-1.214q-.399-.785-.405-1.835v-5.91h2.952v5.33q.006.756.399 1.19.391.434 1.068.434.44 0 .791-.193.356-.2.561-.573.212-.381.212-.918m4.825 4.003v-9.273h2.867v1.69h.097q.253-.917.827-1.364a2.1 2.1 0 0 1 1.334-.453q.206 0 .423.03.216.025.404.079v2.566a3 3 0 0 0-.555-.115 5 5 0 0 0-.604-.042q-.525 0-.948.235a1.7 1.7 0 0 0-.658.646 1.9 1.9 0 0 0-.235.966V26.5zm9.242 3.477q-.531 0-1.002-.085a4 4 0 0 1-.809-.21l.652-2.144q.434.145.785.17.356.023.61-.116.259-.132.398-.477l.115-.277-3.296-9.611h3.091l1.708 6.616h.097l1.732-6.616h3.109l-3.495 10.16a4.3 4.3 0 0 1-.719 1.34q-.458.586-1.189.918-.724.332-1.787.332m14.649-3.477h-3.212l4.172-12.364h3.978l4.172 12.364h-3.212l-2.904-9.249h-.096zm-.429-4.866h6.713v2.27h-6.713zm10.87 4.866V14.137h5.107q1.388 0 2.397.543 1.014.538 1.563 1.504.549.96.549 2.233 0 1.28-.561 2.24a3.76 3.76 0 0 1-1.588 1.479q-1.032.525-2.451.525h-3.151v-2.354h2.596q.676 0 1.129-.236.459-.235.694-.658.236-.428.236-.996 0-.573-.236-.99a1.6 1.6 0 0 0-.694-.652q-.459-.23-1.129-.23h-1.473v9.956zm14.078-12.364V26.5h-2.988V14.137z"/></g></g><rect width="263.858" height="37.858" x="1.071" y="1.071" stroke="#fff" stroke-opacity=".15" stroke-width="2.143" rx="6.929"/><defs><linearGradient id="b" x1="133.001" x2="133.001" y1="0" y2="40.001" gradientUnits="userSpaceOnUse"><stop stop-color="#311d14"/><stop offset="1" stop-color="#1c0b0b"/></linearGradient><linearGradient id="d" x1="22.001" x2="22.001" y1="6" y2="34.001" gradientUnits="userSpaceOnUse"><stop stop-color="#e05718"/><stop offset="1" stop-color="#d63833"/></linearGradient><linearGradient id="f" x1="193.067" x2="193.067" y1="9.501" y2="27.27" gradientUnits="userSpaceOnUse"><stop stop-color="#e05718"/><stop offset="1" stop-color="#d63833"/></linearGradient><filter id="c" width="39.202" height="39.202" x="2.4" y=".4" color-interpolation-filters="sRGB" filterUnits="userSpaceOnUse"><feFlood flood-opacity="0" result="BackgroundImageFix"/><feColorMatrix in="SourceAlpha" result="hardAlpha" values="0 0 0 0 0 0 0 0 0 0 0 0 0 0 0 0 0 0 127 0"/><feOffset/><feGaussianBlur stdDeviation="2.8"/><feComposite in2="hardAlpha" operator="out"/><feColorMatrix values="0 0 0 0 0 0 0 0 0 0 0 0 0 0 0 0 0 0 0.25 0"/><feBlend in2="BackgroundImageFix" result="effect1_dropShadow_28_2717"/><feBlend in="SourceGraphic" in2="effect1_dropShadow_28_2717" result="shape"/></filter><filter id="e" width="227.429" height="32.429" x="36.287" y="3.786" color-interpolation-filters="sRGB" filterUnits="userSpaceOnUse"><feFlood flood-opacity="0" result="BackgroundImageFix"/><feColorMatrix in="SourceAlpha" result="hardAlpha" values="0 0 0 0 0 0 0 0 0 0 0 0 0 0 0 0 0 0 127 0"/><feOffset/><feGaussianBlur stdDeviation="2.857"/><feComposite in2="hardAlpha" operator="out"/><feColorMatrix values="0 0 0 0 0 0 0 0 0 0 0 0 0 0 0 0 0 0 0.25 0"/><feBlend in2="BackgroundImageFix" result="effect1_dropShadow_28_2717"/><feBlend in="SourceGraphic" in2="effect1_dropShadow_28_2717" result="shape"/></filter><clipPath id="a"><rect width="266.001" height="40.001" fill="#fff" rx="8"/></clipPath></defs></svg>