<svg xmlns="http://www.w3.org/2000/svg" width="311" height="40" fill="none" viewBox="0 0 311 40"><rect width="311.001" height="40.001" fill="url(#a)" rx="8"/><rect width="308.858" height="37.858" x="1.071" y="1.071" stroke="#fff" stroke-opacity=".15" stroke-width="2.143" rx="6.929"/><g filter="url(#b)"><path fill="#fff" d="M9 25.75V24h5.25v1.75zM14.25 24v-1.75H16V24zm-7 0v-8.75H9V24zm7-7v-1.75H16V17zM9 15.25V13.5h5.25v1.75zm8.75 10.5V13.5h8.751v1.75h-7V17H23v1.75h-3.5V24h7v1.75zm14.001-7V17h1.75v1.75zm-3.5 7V13.5h1.75v1.75h1.75V17h-1.75v8.75zm7 0V17h-1.75v-1.75h1.75V13.5h1.75v12.25z"/></g><g filter="url(#c)"><path fill="#e8e8e8" d="M43.36 26.5V14.138h4.407q1.437 0 2.384.495.954.495 1.425 1.37.47.87.47 2.01 0 1.135-.476 1.999-.471.858-1.425 1.334-.948.477-2.384.477h-3.339v-1.606h3.17q.904 0 1.473-.26.573-.258.839-.754.265-.494.265-1.19 0-.699-.271-1.213a1.75 1.75 0 0 0-.84-.784q-.567-.279-1.49-.278h-2.343V26.5zm6.103-5.578 3.055 5.579h-2.125l-2.995-5.579zm8.59 5.766q-1.371 0-2.361-.586a3.97 3.97 0 0 1-1.522-1.66q-.53-1.074-.53-2.517 0-1.425.53-2.512.538-1.087 1.498-1.696.966-.61 2.257-.61.785 0 1.522.26.735.259 1.322.815.585.555.923 1.443.339.881.339 2.143v.64h-7.372v-1.353h5.603q0-.712-.29-1.261a2.2 2.2 0 0 0-.815-.876q-.52-.32-1.22-.32-.76 0-1.328.375a2.5 2.5 0 0 0-.869.966 2.8 2.8 0 0 0-.302 1.285v1.057q0 .93.326 1.582.332.651.924.996.591.338 1.382.338.513 0 .936-.145.423-.15.73-.447a1.94 1.94 0 0 0 .471-.73l1.709.308a3.1 3.1 0 0 1-.737 1.322 3.6 3.6 0 0 1-1.322.875q-.79.308-1.805.308m12.24 3.29v-4.92h-.108a5 5 0 0 1-.471.676 2.6 2.6 0 0 1-.833.664q-.531.285-1.377.284-1.122 0-2.004-.574-.875-.58-1.376-1.648-.495-1.075-.495-2.578t.5-2.571q.508-1.07 1.39-1.636.88-.568 1.997-.568.864 0 1.389.29.531.284.821.664.296.38.459.67h.15v-1.503H72.1v12.75zm-2.39-4.836q.78 0 1.316-.41.543-.417.821-1.153.284-.737.284-1.715 0-.966-.278-1.69-.278-.725-.815-1.129t-1.328-.404q-.815 0-1.358.422-.544.423-.821 1.153a4.7 4.7 0 0 0-.272 1.648q0 .93.278 1.672.277.744.82 1.178.55.428 1.353.428m12.496-2.487v-5.427h1.811V26.5h-1.774v-1.606h-.097a2.9 2.9 0 0 1-1.026 1.237q-.7.49-1.745.49-.894 0-1.582-.393-.682-.399-1.074-1.177-.387-.78-.387-1.926v-5.898h1.805v5.68q0 .95.526 1.51.525.561 1.364.561.507 0 1.008-.253.507-.255.84-.767.337-.513.331-1.304m4.237 3.846v-9.273h1.805V26.5zm.911-10.704q-.47 0-.809-.314a1.02 1.02 0 0 1-.332-.76q0-.447.332-.761.338-.32.81-.32.47 0 .802.32a1 1 0 0 1 .338.76q0 .441-.338.761-.332.315-.803.314M88.868 26.5v-9.273h1.745V18.7h.096q.254-.75.894-1.177.646-.435 1.46-.435a8 8 0 0 1 .768.042v1.727a3 3 0 0 0-.387-.067 4 4 0 0 0-.555-.042q-.64 0-1.141.272a2.02 2.02 0 0 0-1.075 1.817V26.5zm10.189.187q-1.37 0-2.36-.586a3.97 3.97 0 0 1-1.522-1.66q-.531-1.074-.531-2.517 0-1.425.531-2.512.538-1.087 1.497-1.696.966-.61 2.258-.61.784 0 1.522.26.736.259 1.322.815.585.555.923 1.443.338.881.338 2.143v.64h-7.37v-1.353h5.602q0-.712-.29-1.261a2.2 2.2 0 0 0-.815-.876q-.52-.32-1.22-.32-.76 0-1.328.375a2.5 2.5 0 0 0-.87.966 2.8 2.8 0 0 0-.301 1.285v1.057q0 .93.326 1.582.332.651.924.996.591.338 1.382.338.513 0 .936-.145.423-.15.73-.447.309-.295.471-.73l1.709.308a3.1 3.1 0 0 1-.737 1.322 3.6 3.6 0 0 1-1.322.875q-.79.308-1.805.308m12.93-7.196-1.636.29a2 2 0 0 0-.326-.598 1.6 1.6 0 0 0-.592-.465q-.374-.18-.936-.181-.766 0-1.28.344-.513.338-.513.875 0 .465.344.749.345.284 1.111.465l1.473.338q1.28.296 1.908.912.628.615.628 1.6a2.43 2.43 0 0 1-.483 1.484q-.477.647-1.334 1.015-.852.368-1.974.368-1.558 0-2.542-.664-.985-.67-1.207-1.902l1.744-.265q.163.681.67 1.032.507.345 1.322.344.888 0 1.419-.368.531-.375.531-.912a.95.95 0 0 0-.326-.73q-.32-.296-.984-.447l-1.569-.344q-1.298-.296-1.92-.942-.616-.645-.616-1.636 0-.82.459-1.437.46-.615 1.268-.96.809-.35 1.853-.35 1.503 0 2.367.652.862.645 1.141 1.733"/><path fill="#fff" d="M129.16 18.616h-3.019q-.06-.465-.247-.839a2.1 2.1 0 0 0-.495-.64 2.1 2.1 0 0 0-.731-.404 2.8 2.8 0 0 0-.923-.145q-.9 0-1.552.44-.645.443-.996 1.274-.344.834-.344 2.017 0 1.231.35 2.065.357.825.996 1.25.646.416 1.528.416.495 0 .899-.127.41-.127.719-.368.314-.248.513-.598a2.5 2.5 0 0 0 .283-.803l3.019.018a4.6 4.6 0 0 1-.477 1.618 5.2 5.2 0 0 1-1.081 1.455 5.1 5.1 0 0 1-1.678 1.038q-.984.387-2.258.387-1.679 0-3.006-.737-1.323-.742-2.089-2.161-.767-1.419-.767-3.453 0-2.04.779-3.46.779-1.418 2.107-2.155t2.976-.736q1.123 0 2.077.314a5 5 0 0 1 1.678.906q.725.591 1.177 1.454.453.864.562 1.974m7.692 3.882v-5.27h2.946V26.5h-2.813v-1.727h-.096a2.7 2.7 0 0 1-1.051 1.352q-.736.495-1.781.495-.948 0-1.666-.434a2.96 2.96 0 0 1-1.117-1.214q-.398-.785-.404-1.835v-5.91h2.952v5.33q.006.756.398 1.19.393.434 1.069.434.44 0 .791-.193a1.43 1.43 0 0 0 .561-.573q.211-.381.211-.918m12.921-2.439-2.711.073a1 1 0 0 0-.229-.513 1.24 1.24 0 0 0-.489-.357 1.7 1.7 0 0 0-.688-.132q-.513 0-.876.205-.356.206-.35.555a.6.6 0 0 0 .218.471q.229.2.815.32l1.787.338q1.387.266 2.064.882.682.615.688 1.63-.006.953-.567 1.66-.555.706-1.521 1.098-.966.387-2.21.387-1.986 0-3.133-.815-1.141-.822-1.304-2.198l2.916-.072q.096.506.501.773.404.265 1.032.265.567 0 .924-.211.356-.21.362-.561a.6.6 0 0 0-.278-.502q-.272-.193-.851-.301l-1.618-.308q-1.395-.254-2.077-.936-.682-.688-.676-1.75-.006-.93.495-1.588.501-.664 1.425-1.015t2.179-.35q1.884 0 2.971.791 1.086.785 1.201 2.161m6.917-2.831V19.4h-5.85v-2.173zm-4.625-2.222h2.953v8.579q0 .271.084.44.09.164.26.236.168.066.404.066.17 0 .356-.03.194-.036.29-.06l.447 2.13q-.211.061-.598.152-.38.09-.911.115-1.039.048-1.781-.242a2.3 2.3 0 0 1-1.129-.918q-.387-.621-.375-1.563zm10.36 11.67q-1.46 0-2.512-.598a4.1 4.1 0 0 1-1.611-1.678q-.562-1.08-.562-2.505 0-1.431.562-2.506.567-1.08 1.611-1.678 1.051-.604 2.512-.604t2.505.604q1.05.598 1.612 1.678.567 1.075.567 2.506 0 1.424-.567 2.505a4.07 4.07 0 0 1-1.612 1.678q-1.044.598-2.505.598m.018-2.228q.531 0 .899-.326.369-.327.562-.905.2-.58.199-1.34 0-.773-.199-1.353-.193-.58-.562-.905a1.3 1.3 0 0 0-.899-.326q-.549 0-.93.326-.374.326-.573.905-.193.58-.193 1.352 0 .762.193 1.34.2.58.573.906.381.326.93.326m6.179 2.053v-9.273h2.807v1.702h.103a2.64 2.64 0 0 1 .978-1.334q.688-.489 1.642-.489.966 0 1.654.495t.875 1.328h.097a2.4 2.4 0 0 1 1.014-1.322q.755-.5 1.781-.5 1.315-.001 2.137.844.82.84.821 2.307V26.5h-2.952v-5.566q0-.694-.356-1.057-.357-.368-.924-.368-.61 0-.96.398-.344.393-.344 1.057V26.5h-2.837v-5.597q0-.645-.351-1.02-.35-.374-.923-.374a1.25 1.25 0 0 0-1.147.706 1.8 1.8 0 0 0-.163.797V26.5zm19.39 0V14.137h8.621v2.427h-5.632v2.535h5.191v2.433h-5.191v2.542h5.632V26.5zm13.445-5.289V26.5h-2.952v-9.273h2.807v1.702h.102a2.6 2.6 0 0 1 1.051-1.334q.742-.489 1.769-.489.978 0 1.696.44.724.435 1.123 1.22.404.78.398 1.823v5.91h-2.952v-5.33q.006-.773-.392-1.207-.393-.435-1.093-.435-.464 0-.821.205a1.36 1.36 0 0 0-.543.574q-.187.375-.193.905m13.056-3.984V19.4h-5.85v-2.173zm-4.624-2.222h2.952v8.579q0 .271.084.44a.53.53 0 0 0 .26.236q.169.066.404.066.17 0 .357-.03.192-.036.289-.06l.447 2.13q-.211.061-.598.152-.38.09-.911.115-1.038.048-1.781-.242a2.3 2.3 0 0 1-1.129-.918q-.387-.621-.374-1.563zm6.13 11.495v-9.273h2.952V26.5zm1.479-10.354q-.621 0-1.068-.41a1.32 1.32 0 0 1-.447-1.002q0-.58.447-.99a1.5 1.5 0 0 1 1.068-.417 1.5 1.5 0 0 1 1.069.417q.447.41.447.99 0 .585-.447 1.002-.44.41-1.069.41m8.586 1.08V19.4h-5.85v-2.173zm-4.624-2.22h2.952v8.578q0 .271.085.44.09.164.259.236.17.066.405.066.168 0 .356-.03.193-.036.29-.06l.446 2.13q-.212.061-.597.152a5 5 0 0 1-.912.115q-1.038.048-1.781-.242a2.3 2.3 0 0 1-1.129-.918q-.386-.621-.374-1.563zm7.936 14.97a5.7 5.7 0 0 1-1.003-.084 4 4 0 0 1-.809-.21l.652-2.144q.435.145.785.17.357.023.61-.116.26-.132.398-.477l.115-.277-3.296-9.611h3.091l1.708 6.616h.097l1.732-6.616h3.11l-3.496 10.16a4.3 4.3 0 0 1-.718 1.34q-.46.586-1.19.918-.724.332-1.786.332m11.974-15.84h3.7l3.14 7.655h.144l3.14-7.655h3.7v12.364h-2.909v-7.595h-.103l-2.97 7.516h-1.86l-2.97-7.558h-.102V26.5h-2.91zm20.017 12.539q-1.46 0-2.512-.598a4.13 4.13 0 0 1-1.612-1.678q-.561-1.08-.561-2.505 0-1.431.561-2.506.568-1.08 1.612-1.678 1.051-.604 2.512-.604t2.505.604q1.05.598 1.612 1.678.567 1.075.567 2.506 0 1.424-.567 2.505a4.07 4.07 0 0 1-1.612 1.678q-1.044.598-2.505.598m.018-2.228q.531 0 .899-.326.369-.327.562-.905.2-.58.199-1.34 0-.773-.199-1.353-.193-.58-.562-.905a1.3 1.3 0 0 0-.899-.326q-.549 0-.93.326-.374.326-.573.905-.194.58-.194 1.352 0 .762.194 1.34.199.58.573.906.381.326.93.326m9.565 2.186a3.4 3.4 0 0 1-1.865-.532q-.839-.531-1.34-1.593-.501-1.063-.501-2.639 0-1.636.519-2.692.52-1.056 1.358-1.564a3.47 3.47 0 0 1 1.817-.507q.73 0 1.25.254.52.247.857.64.339.392.513.815h.061v-4.679h2.952v12.364h-2.922v-1.504h-.091a2.9 2.9 0 0 1-.531.803q-.344.375-.863.604-.513.23-1.214.23m1.027-2.3q.537 0 .917-.302.38-.309.586-.864t.205-1.304q0-.76-.205-1.31-.2-.55-.586-.845a1.45 1.45 0 0 0-.917-.296q-.55 0-.93.302t-.58.851q-.192.55-.193 1.298 0 .75.199 1.304.2.555.574.864.38.3.93.301m10.795 2.342q-1.455 0-2.511-.574a3.97 3.97 0 0 1-1.618-1.648q-.562-1.074-.562-2.553 0-1.437.568-2.512.567-1.08 1.6-1.678 1.032-.604 2.433-.604.99 0 1.811.308.82.308 1.418.912.599.604.93 1.49.332.882.332 2.023v.737h-8.059v-1.715h5.312a1.66 1.66 0 0 0-.223-.839 1.5 1.5 0 0 0-.598-.573 1.7 1.7 0 0 0-.863-.212q-.495 0-.887.224a1.68 1.68 0 0 0-.864 1.449v1.744q0 .567.224.996.223.423.634.658.41.236.977.236.393 0 .713-.109t.549-.32q.23-.21.344-.52l2.711.08a3.35 3.35 0 0 1-.743 1.587q-.567.67-1.491 1.044-.924.369-2.137.369m8.861-12.539V26.5h-2.952V14.137zm9.974 5.922-2.71.073a1 1 0 0 0-.23-.513 1.2 1.2 0 0 0-.489-.357 1.7 1.7 0 0 0-.688-.132q-.513 0-.875.205-.356.206-.35.555a.6.6 0 0 0 .217.471q.23.2.815.32l1.787.338q1.389.266 2.065.882.682.615.688 1.63-.006.953-.568 1.66-.555.706-1.521 1.098-.966.387-2.21.387-1.986 0-3.133-.815-1.14-.822-1.304-2.198l2.916-.072q.098.506.501.773.405.265 1.033.265.567 0 .923-.211.356-.21.362-.561a.6.6 0 0 0-.277-.502q-.272-.193-.851-.301l-1.618-.308q-1.395-.254-2.077-.936-.682-.688-.676-1.75-.006-.93.495-1.588.501-.664 1.425-1.015.923-.35 2.179-.35 1.884 0 2.97.791 1.087.785 1.201 2.161"/></g><defs><filter id="b" width="40.952" height="39.202" x="1.65" y=".4" color-interpolation-filters="sRGB" filterUnits="userSpaceOnUse"><feFlood flood-opacity="0" result="BackgroundImageFix"/><feColorMatrix in="SourceAlpha" result="hardAlpha" values="0 0 0 0 0 0 0 0 0 0 0 0 0 0 0 0 0 0 127 0"/><feOffset/><feGaussianBlur stdDeviation="2.8"/><feComposite in2="hardAlpha" operator="out"/><feColorMatrix values="0 0 0 0 0 0 0 0 0 0 0 0 0 0 0 0 0 0 0.25 0"/><feBlend in2="BackgroundImageFix" result="effect1_dropShadow_28_2744"/><feBlend in="SourceGraphic" in2="effect1_dropShadow_28_2744" result="shape"/></filter><filter id="c" width="272.429" height="32.429" x="36.287" y="3.786" color-interpolation-filters="sRGB" filterUnits="userSpaceOnUse"><feFlood flood-opacity="0" result="BackgroundImageFix"/><feColorMatrix in="SourceAlpha" result="hardAlpha" values="0 0 0 0 0 0 0 0 0 0 0 0 0 0 0 0 0 0 127 0"/><feOffset/><feGaussianBlur stdDeviation="2.857"/><feComposite in2="hardAlpha" operator="out"/><feColorMatrix values="0 0 0 0 0 0 0 0 0 0 0 0 0 0 0 0 0 0 0.25 0"/><feBlend in2="BackgroundImageFix" result="effect1_dropShadow_28_2744"/><feBlend in="SourceGraphic" in2="effect1_dropShadow_28_2744" result="shape"/></filter><linearGradient id="a" x1="155.501" x2="155.501" y1="0" y2="38.001" gradientUnits="userSpaceOnUse"><stop stop-color="#343434"/><stop offset="1" stop-color="#232323"/></linearGradient></defs></svg>