<svg xmlns="http://www.w3.org/2000/svg" width="265" height="40" fill="none" viewBox="0 0 265 40"><g clip-path="url(#a)"><rect width="265.001" height="40.001" fill="url(#b)" rx="8"/><g filter="url(#c)"><path fill="#115110" d="M23.084 6v2.011h-2.012v4.023H19.06v2.01h-2.012v1.857h-2.012v2.011h-2.012v2.011h-2.012v2.012H9v4.022h2.012v2.011h2.012v2.011h2.012v2.011h2.012v2.011h2.012v-2.01h2.012v-2.012h2.012v-2.011h2.012v-2.011h2.012v-2.011h1.857v-2.012h4.024v-2.01h2.013V15.9h-2.013v-1.856h-2.011v-2.011h-2.013v-2.012h-1.857v-2.01h-2.012V6z"/><path fill="#9cff55" d="M23.085 8.011v2.011h2.011v2.011h2.012v2.012h1.858V15.9h2.012v-1.856h-2.012v-2.011h-1.858v-2.012h-2.012v-2.01z"/><path fill="#90eb4b" d="M23.085 10.022v2.011h2.01v-2.01z"/><path fill="#9cff55" d="M21.073 12.033v3.868h-4.024v2.011h-2.012v2.011h-2.012v4.023h2.012v2.01h2.012v2.012h4.024v-4.022H19.06v-2.012h4.024v2.012h2.012v-4.023h-2.012v-2.01h4.024V15.9h-2.012v-1.856h-2.012v-2.012z"/><path fill="#115110" d="M23.085 12.033v2.012h2.011V15.9h2.012v2.011h1.858V15.9h-1.858v-1.856h-2.012v-2.012z"/><path fill="#89dc42" d="M25.096 12.033v2.012h2.012v-2.012z"/><path fill="#90eb4b" d="M19.06 14.045V15.9h2.012v-1.856z"/><path fill="#89dc42" d="M27.108 14.045V15.9h1.857v-1.856z"/><path fill="#90eb4b" d="M21.073 15.901v2.011h2.01v-2.011z"/><path fill="#89dc42" d="M28.966 15.901v2.011h2.01v-2.011z"/><path fill="#90eb4b" d="M23.085 17.912v2.011h4.023v-2.01z"/><path fill="#89dc42" d="M27.108 17.912v2.011h-2.012v4.023h2.012v-2.012h1.858v-4.022z"/><path fill="#5e8d2f" d="M30.978 17.912v2.011h2.01v-2.01z"/><path fill="#90eb4b" d="M17.048 19.923v2.012h2.012v-2.012z"/><path fill="#80cc3d" d="M11.012 21.935v2.01h2.012v2.012h2.012v2.011h2.012v2.011h2.012v-2.011h-2.012v-2.011h-2.012v-2.011h-2.012v-2.012z"/><path fill="#90eb4b" d="M19.06 21.935v2.01h4.024v-2.01z"/><path fill="#6eaa33" d="M11.012 23.946v2.01h2.011v-2.01z"/><path fill="#89dc42" d="M21.073 23.946v4.022h2.012v-2.011h2.012v-2.011z"/><path fill="#6eaa33" d="M13.025 25.957v2.011h2.012v-2.011zm2.012 2.011v2.011h2.012v-2.011z"/><path fill="#89dc42" d="M19.06 27.968v2.011h2.012v-2.011z"/><path fill="#6eaa33" d="M17.048 29.98v2.01h2.012v-2.01z"/></g><g filter="url(#d)"><path fill="#e8e8e8" d="M43.36 26.5V14.138h4.407q1.437 0 2.384.495.954.495 1.425 1.37.47.87.47 2.01 0 1.136-.476 1.999-.471.858-1.425 1.334-.948.477-2.384.477h-3.339v-1.606h3.17q.904 0 1.473-.26.573-.259.839-.754.265-.494.265-1.19 0-.699-.271-1.213a1.76 1.76 0 0 0-.84-.784q-.567-.279-1.49-.278h-2.343V26.5zm6.103-5.577 3.055 5.578h-2.125l-2.995-5.578zm8.59 5.765q-1.371 0-2.361-.586a3.97 3.97 0 0 1-1.522-1.66q-.53-1.074-.53-2.517 0-1.425.53-2.512.538-1.087 1.498-1.696.966-.61 2.257-.61.785 0 1.522.26.735.259 1.322.815.585.555.923 1.443.339.881.339 2.143v.64h-7.372v-1.353h5.603q0-.712-.29-1.261a2.2 2.2 0 0 0-.815-.876q-.52-.32-1.22-.32-.76 0-1.328.375a2.5 2.5 0 0 0-.869.966 2.8 2.8 0 0 0-.302 1.285v1.057q0 .93.326 1.582.332.651.924.996.591.338 1.382.338.513 0 .936-.145.423-.15.73-.447a1.94 1.94 0 0 0 .471-.73l1.709.308a3.1 3.1 0 0 1-.737 1.322 3.6 3.6 0 0 1-1.322.875q-.79.308-1.805.308m12.24 3.29v-4.92h-.108a5 5 0 0 1-.471.676 2.6 2.6 0 0 1-.833.664q-.531.285-1.377.284-1.122 0-2.004-.574-.875-.579-1.376-1.648-.495-1.074-.495-2.578t.5-2.571q.508-1.07 1.39-1.636.88-.568 1.997-.568.864 0 1.389.29.531.284.821.664.296.38.459.67h.15v-1.503H72.1v12.75zm-2.39-4.836q.78 0 1.316-.41.543-.417.821-1.153.284-.737.284-1.715 0-.966-.278-1.69-.278-.725-.815-1.129t-1.328-.404q-.815 0-1.358.422-.544.423-.821 1.153a4.7 4.7 0 0 0-.272 1.648q0 .93.278 1.673.277.742.82 1.177.55.428 1.353.428m12.496-2.487v-5.427h1.811v9.273h-1.774v-1.606h-.097a2.9 2.9 0 0 1-1.026 1.237q-.7.49-1.745.49-.894 0-1.582-.393-.682-.399-1.074-1.177-.387-.78-.387-1.926v-5.898h1.805v5.68q0 .95.526 1.51.525.561 1.364.561.507 0 1.008-.253.507-.255.84-.767.337-.513.331-1.304m4.237 3.846v-9.273h1.805v9.273zm.911-10.704q-.47 0-.809-.314a1.02 1.02 0 0 1-.332-.76q0-.447.332-.761.338-.32.81-.32.47 0 .802.32a1 1 0 0 1 .338.76q0 .441-.338.761-.332.315-.803.314m3.322 10.704v-9.273h1.745v1.473h.096q.254-.75.894-1.177.646-.435 1.46-.435a8 8 0 0 1 .768.042v1.727a3 3 0 0 0-.387-.067 4 4 0 0 0-.555-.042q-.64 0-1.141.272a2.02 2.02 0 0 0-1.075 1.817v5.663zm10.189.187q-1.37 0-2.36-.586a3.97 3.97 0 0 1-1.522-1.66q-.531-1.074-.531-2.517 0-1.425.531-2.512.538-1.087 1.497-1.696.966-.61 2.258-.61.784 0 1.522.26a3.7 3.7 0 0 1 1.322.815q.585.555.923 1.443.338.881.338 2.143v.64h-7.37v-1.353h5.602q0-.712-.29-1.261a2.2 2.2 0 0 0-.815-.876q-.52-.32-1.22-.32-.76 0-1.328.375a2.5 2.5 0 0 0-.87.966 2.8 2.8 0 0 0-.301 1.285v1.057q0 .93.326 1.582.332.651.924.996.591.338 1.382.338.513 0 .936-.145.423-.15.73-.447.309-.295.471-.73l1.709.308a3.1 3.1 0 0 1-.737 1.322 3.6 3.6 0 0 1-1.322.875q-.79.308-1.805.308m12.93-7.196-1.636.29a2 2 0 0 0-.326-.598 1.6 1.6 0 0 0-.592-.465q-.374-.18-.936-.181-.766 0-1.28.344-.513.338-.513.875 0 .465.344.749.345.284 1.111.465l1.473.338q1.28.296 1.908.912.628.615.628 1.6a2.43 2.43 0 0 1-.483 1.484q-.477.647-1.334 1.015-.852.368-1.974.368-1.558 0-2.542-.664-.985-.67-1.207-1.902l1.744-.265q.163.681.67 1.032.507.345 1.322.344.888 0 1.419-.368.531-.375.531-.912a.95.95 0 0 0-.326-.73q-.32-.296-.984-.447l-1.569-.344q-1.298-.296-1.92-.942-.616-.645-.616-1.636 0-.82.459-1.437.46-.615 1.268-.96.809-.35 1.853-.35 1.503 0 2.367.652.862.645 1.141 1.733"/><path fill="url(#e)" d="M129.16 18.617h-3.019q-.06-.465-.247-.84a2.1 2.1 0 0 0-.495-.64 2.1 2.1 0 0 0-.731-.404 2.8 2.8 0 0 0-.923-.145q-.9 0-1.552.44-.645.443-.996 1.274-.344.834-.344 2.017 0 1.231.35 2.065.357.825.996 1.25.646.416 1.528.416.495 0 .899-.127.41-.127.719-.368.314-.248.513-.598a2.5 2.5 0 0 0 .283-.803l3.019.018a4.6 4.6 0 0 1-.477 1.618 5.2 5.2 0 0 1-1.081 1.455 5.1 5.1 0 0 1-1.678 1.038q-.984.387-2.258.387-1.679 0-3.006-.737-1.323-.742-2.089-2.161-.767-1.419-.767-3.453 0-2.04.779-3.46.779-1.418 2.107-2.155t2.976-.736q1.123 0 2.077.314a5 5 0 0 1 1.678.906q.725.591 1.177 1.454.453.864.562 1.974m4.662-4.48V26.5h-2.952V14.137zm6.207 12.539q-1.461 0-2.511-.598a4.1 4.1 0 0 1-1.612-1.678q-.561-1.08-.561-2.505 0-1.431.561-2.506.567-1.08 1.612-1.678 1.05-.603 2.511-.604 1.46 0 2.506.604 1.05.598 1.612 1.678.567 1.075.567 2.506 0 1.424-.567 2.505a4.1 4.1 0 0 1-1.612 1.678q-1.045.598-2.506.598m.018-2.228q.532 0 .9-.326t.561-.905q.2-.58.2-1.34 0-.773-.2-1.353-.193-.58-.561-.905a1.3 1.3 0 0 0-.9-.326q-.55 0-.929.326-.375.326-.574.905-.193.58-.193 1.352 0 .762.193 1.34.2.58.574.906.38.326.929.326m11.413-7.22V19.4h-5.85v-2.173zm-4.624-2.222h2.952v8.579q0 .272.085.44.09.165.259.236.17.066.405.066.168 0 .356-.03.193-.036.29-.06l.446 2.13q-.211.061-.597.152-.381.09-.912.115-1.038.048-1.781-.242a2.3 2.3 0 0 1-1.129-.918q-.386-.621-.374-1.563zm9.282 6.206V26.5h-2.952V14.137h2.855v4.793h.103a2.7 2.7 0 0 1 1.026-1.34q.719-.483 1.757-.483.978 0 1.702.435.724.429 1.123 1.213.405.786.399 1.835v5.91h-2.953v-5.33q.007-.773-.386-1.207-.392-.435-1.105-.435-.464 0-.821.205a1.4 1.4 0 0 0-.549.574q-.193.375-.199.905m22.73-2.596h-3.018q-.06-.465-.248-.839a2 2 0 0 0-.495-.64 2.1 2.1 0 0 0-.73-.404 2.8 2.8 0 0 0-.924-.145q-.9 0-1.551.44-.647.443-.996 1.274-.345.834-.345 2.017 0 1.231.351 2.065.355.825.996 1.25.645.416 1.527.416.495 0 .9-.127.41-.127.718-.368.314-.248.513-.598.206-.356.284-.803l3.018.018a4.6 4.6 0 0 1-.477 1.618 5.2 5.2 0 0 1-1.08 1.455 5.1 5.1 0 0 1-1.678 1.038q-.985.387-2.258.387-1.678 0-3.007-.737-1.322-.742-2.088-2.161-.767-1.419-.767-3.453 0-2.04.779-3.46.779-1.418 2.106-2.155 1.329-.736 2.977-.736 1.123 0 2.076.314a5 5 0 0 1 1.679.906q.724.591 1.177 1.454.453.864.561 1.974m6.039 8.06q-1.46 0-2.512-.598a4.1 4.1 0 0 1-1.611-1.678q-.562-1.08-.562-2.505 0-1.431.562-2.506.567-1.08 1.611-1.678 1.051-.603 2.512-.604 1.461 0 2.505.604 1.05.598 1.612 1.678.567 1.075.567 2.506 0 1.424-.567 2.505a4.07 4.07 0 0 1-1.612 1.678q-1.044.598-2.505.598m.018-2.228q.531 0 .899-.326.369-.326.562-.905.2-.58.199-1.34 0-.773-.199-1.353-.193-.58-.562-.905a1.3 1.3 0 0 0-.899-.326q-.549 0-.93.326-.374.326-.573.905-.194.58-.194 1.352 0 .762.194 1.34.199.58.573.906.381.326.93.326m9.131-3.236v5.289h-2.952v-9.273h2.807v1.702h.102a2.6 2.6 0 0 1 1.051-1.334q.743-.489 1.769-.489.978 0 1.696.44.724.435 1.123 1.22.404.78.398 1.823v5.91h-2.952v-5.33q.006-.773-.392-1.207-.393-.435-1.093-.435-.465 0-.821.205a1.36 1.36 0 0 0-.543.574q-.187.375-.193.905m13.092-3.984v2.173h-5.964v-2.173zm-4.721 9.273v-9.744q0-1.075.405-1.78.405-.714 1.123-1.063.718-.357 1.66-.357.615 0 1.159.097.55.09.815.163l-.471 2.161a2.5 2.5 0 0 0-.398-.09 3 3 0 0 0-.435-.036q-.52 0-.712.229-.194.23-.194.628V26.5zm6.141 0v-9.273h2.953v9.273zm1.48-10.354q-.622 0-1.069-.41a1.32 1.32 0 0 1-.447-1.002q0-.58.447-.99a1.5 1.5 0 0 1 1.069-.417q.627 0 1.068.417.447.41.447.99 0 .585-.447 1.002-.441.41-1.068.41m7.674 14.024q-1.322 0-2.264-.368-.942-.369-1.479-1.008a2.8 2.8 0 0 1-.646-1.45l2.795-.156q.079.284.29.495.218.211.561.326.351.114.821.115.743 0 1.226-.363.489-.356.489-1.25v-1.63h-.103a2.2 2.2 0 0 1-.531.767 2.5 2.5 0 0 1-.887.532q-.525.193-1.208.193a3.75 3.75 0 0 1-1.859-.471q-.84-.477-1.346-1.473-.501-1.002-.501-2.578 0-1.623.519-2.674.52-1.056 1.358-1.564a3.47 3.47 0 0 1 1.817-.507q.73 0 1.25.254.525.247.863.64.338.392.513.815h.085v-1.588h2.94v9.309q0 1.177-.592 1.986-.591.81-1.654 1.226-1.062.422-2.457.422m.091-5.946q.537 0 .917-.284t.586-.815.205-1.274q0-.755-.205-1.298-.2-.55-.586-.845a1.45 1.45 0 0 0-.917-.296q-.55 0-.93.302t-.58.851q-.192.544-.193 1.286 0 .743.199 1.274.2.531.574.815.38.285.93.284m12.82 2.276h-3.211l4.171-12.364h3.979l4.171 12.364h-3.211l-2.904-9.249h-.097zm-.428-4.866h6.713v2.27h-6.713zm10.869 4.866V14.137h5.108q1.388 0 2.396.543 1.015.538 1.564 1.504.549.96.549 2.233 0 1.28-.561 2.24a3.77 3.77 0 0 1-1.588 1.479q-1.032.525-2.451.525h-3.151v-2.354h2.596q.675 0 1.129-.236a1.6 1.6 0 0 0 .694-.658q.235-.428.235-.996 0-.573-.235-.99a1.6 1.6 0 0 0-.694-.652q-.46-.23-1.129-.23h-1.473v9.956zm14.078-12.364v12.364h-2.988V14.137z"/></g></g><rect width="262.858" height="37.858" x="1.071" y="1.071" stroke="#fff" stroke-opacity=".15" stroke-width="2.143" rx="6.929"/><defs><linearGradient id="b" x1="132.501" x2="132.501" y1="0" y2="40.001" gradientUnits="userSpaceOnUse"><stop stop-color="#213116"/><stop offset="1" stop-color="#151e0d"/></linearGradient><linearGradient id="e" x1="192.528" x2="192.528" y1="9.501" y2="27.27" gradientUnits="userSpaceOnUse"><stop stop-color="#9cff55"/><stop offset="1" stop-color="#89dc42"/></linearGradient><filter id="c" width="39.202" height="39.202" x="2.4" y=".4" color-interpolation-filters="sRGB" filterUnits="userSpaceOnUse"><feFlood flood-opacity="0" result="BackgroundImageFix"/><feColorMatrix in="SourceAlpha" result="hardAlpha" values="0 0 0 0 0 0 0 0 0 0 0 0 0 0 0 0 0 0 127 0"/><feOffset/><feGaussianBlur stdDeviation="2.8"/><feComposite in2="hardAlpha" operator="out"/><feColorMatrix values="0 0 0 0 0 0 0 0 0 0 0 0 0 0 0 0 0 0 0.25 0"/><feBlend in2="BackgroundImageFix" result="effect1_dropShadow_28_2711"/><feBlend in="SourceGraphic" in2="effect1_dropShadow_28_2711" result="shape"/></filter><filter id="d" width="226.429" height="32.429" x="36.287" y="3.786" color-interpolation-filters="sRGB" filterUnits="userSpaceOnUse"><feFlood flood-opacity="0" result="BackgroundImageFix"/><feColorMatrix in="SourceAlpha" result="hardAlpha" values="0 0 0 0 0 0 0 0 0 0 0 0 0 0 0 0 0 0 127 0"/><feOffset/><feGaussianBlur stdDeviation="2.857"/><feComposite in2="hardAlpha" operator="out"/><feColorMatrix values="0 0 0 0 0 0 0 0 0 0 0 0 0 0 0 0 0 0 0.25 0"/><feBlend in2="BackgroundImageFix" result="effect1_dropShadow_28_2711"/><feBlend in="SourceGraphic" in2="effect1_dropShadow_28_2711" result="shape"/></filter><clipPath id="a"><rect width="265.001" height="40.001" fill="#fff" rx="8"/></clipPath></defs></svg>