<svg xmlns="http://www.w3.org/2000/svg" width="211" height="40" fill="none" viewBox="0 0 211 40"><rect width="211.001" height="40.001" fill="url(#a)" rx="8"/><rect width="208.858" height="37.858" x="1.071" y="1.071" stroke="#fff" stroke-opacity=".15" stroke-width="2.143" rx="6.929"/><g filter="url(#b)"><path fill="#38342a" d="M22.971 6v2h-1.939v4h-1.938v2h-1.939v2h-1.938v2h-1.939v2H11.34v2H9.4v4.001h1.939v2h1.938v2h1.939v2h1.938v2h3.877v-2h1.939v-4h1.939v-2h1.938v-2h1.939v-2h3.877v-2h1.938v-4h-1.938v-2h-1.939v-2h-1.938v-2h-1.939V8H24.91V6z"/><path fill="#dbd0b4" d="M22.971 8v2h1.939v2h1.938v2h1.939v2h1.938v-2h-1.938v-2h-1.939v-2H24.91V8z"/><path fill="#c6bca5" d="M22.971 10v2h1.939v-2z"/><path fill="#dbd0b4" d="M21.033 12v4h-3.878v2h-1.938v2h-1.939v4h1.939v2.001h1.938v2h3.878v-4h-1.939v-2h3.877v2h1.939v-4h-1.94v-2h3.877v-2H24.91v-2h-1.94v-2z"/><path fill="#38342a" d="M22.971 12v2h1.939v2h1.938v2h1.939v-2h-1.939v-2H24.91v-2z"/><path fill="#bcb29c" d="M24.91 12v2h1.938v-2z"/><path fill="#c6bca5" d="M19.094 14v2h1.938v-2z"/><path fill="#bcb29c" d="M26.848 14v2h1.939v-2z"/><path fill="#c6bca5" d="M21.033 16v2h1.938v-2z"/><path fill="#bcb29c" d="M28.786 16v2h1.939v-2z"/><path fill="#c6bca5" d="M22.971 18v2h3.877v-2z"/><path fill="#bcb29c" d="M26.848 18v2H24.91v4h1.938v-2h1.939v-4z"/><path fill="#807a6d" d="M30.726 18v2h1.938v-2z"/><path fill="#c6bca5" d="M17.156 20v2h1.938v-2z"/><path fill="#aea694" d="M11.34 22v2h1.938v2.001h1.939v2h1.938v2h1.939v-2h-1.939v-2h-1.938v-2h-1.939v-2z"/><path fill="#c6bca5" d="M19.094 22v2h3.877v-2z"/><path fill="#9a927e" d="M11.34 24v2.001h1.938v-2z"/><path fill="#bcb29c" d="M21.033 24v4.001h1.938v-2h1.939v-2z"/><path fill="#9a927e" d="M13.278 26.001v2h1.939v-2zm1.939 2v2h1.938v-2z"/><path fill="#bcb29c" d="M19.094 28.001v2h1.938v-2z"/><path fill="#9a927e" d="M17.156 30.001v2h1.938v-2z"/></g><g filter="url(#c)"><path fill="#e8e8e8" d="M43.36 26.5V14.138h4.407q1.437 0 2.384.495.954.495 1.425 1.37.47.87.47 2.01 0 1.136-.476 1.999-.471.858-1.425 1.334-.948.477-2.384.477h-3.339v-1.606h3.17q.904 0 1.473-.26.573-.259.839-.754.265-.494.265-1.19 0-.699-.271-1.213a1.76 1.76 0 0 0-.84-.784q-.567-.279-1.49-.278h-2.343V26.5zm6.103-5.577 3.055 5.578h-2.125l-2.995-5.578zm8.59 5.765q-1.371 0-2.361-.586a3.97 3.97 0 0 1-1.522-1.66q-.53-1.074-.53-2.517 0-1.425.53-2.512.538-1.087 1.498-1.696.966-.61 2.257-.61.785 0 1.522.26.735.259 1.322.815.585.555.923 1.443.339.881.339 2.143v.64h-7.372v-1.353h5.603q0-.712-.29-1.261a2.2 2.2 0 0 0-.815-.876q-.52-.32-1.22-.32-.76 0-1.328.375a2.5 2.5 0 0 0-.869.966 2.8 2.8 0 0 0-.302 1.285v1.057q0 .93.326 1.582.332.651.924.996.591.338 1.382.338.513 0 .936-.145.423-.15.73-.447a1.94 1.94 0 0 0 .471-.73l1.709.308a3.1 3.1 0 0 1-.737 1.322 3.6 3.6 0 0 1-1.322.875q-.79.308-1.805.308m12.24 3.29v-4.92h-.108a5 5 0 0 1-.471.676 2.6 2.6 0 0 1-.833.664q-.531.285-1.377.284-1.122 0-2.004-.574-.875-.579-1.376-1.648-.495-1.074-.495-2.578t.5-2.571q.508-1.07 1.39-1.636.88-.568 1.997-.568.864 0 1.389.29.531.284.821.664.296.38.459.67h.15v-1.503H72.1v12.75zm-2.39-4.836q.78 0 1.316-.41.543-.417.821-1.153.284-.737.284-1.715 0-.966-.278-1.69-.278-.725-.815-1.129t-1.328-.404q-.815 0-1.358.422-.544.423-.821 1.153a4.7 4.7 0 0 0-.272 1.648q0 .93.278 1.673.277.742.82 1.177.55.428 1.353.428m12.496-2.487v-5.427h1.811v9.273h-1.774v-1.606h-.097a2.9 2.9 0 0 1-1.026 1.237q-.7.49-1.745.49-.894 0-1.582-.393-.682-.399-1.074-1.177-.387-.78-.387-1.926v-5.898h1.805v5.68q0 .95.526 1.51.525.561 1.364.561.507 0 1.008-.253.507-.255.84-.767.337-.513.331-1.304m4.237 3.846v-9.273h1.805v9.273zm.911-10.704q-.47 0-.809-.314a1.02 1.02 0 0 1-.332-.76q0-.447.332-.761.338-.32.81-.32.47 0 .802.32a1 1 0 0 1 .338.76q0 .441-.338.761-.332.315-.803.314m3.322 10.704v-9.273h1.745v1.473h.096q.254-.75.894-1.177.646-.435 1.46-.435a8 8 0 0 1 .768.042v1.727a3 3 0 0 0-.387-.067 4 4 0 0 0-.555-.042q-.64 0-1.141.272a2.02 2.02 0 0 0-1.075 1.817v5.663zm10.189.187q-1.37 0-2.36-.586a3.97 3.97 0 0 1-1.522-1.66q-.531-1.074-.531-2.517 0-1.425.531-2.512.538-1.087 1.497-1.696.966-.61 2.258-.61.784 0 1.522.26a3.7 3.7 0 0 1 1.322.815q.585.555.923 1.443.338.881.338 2.143v.64h-7.37v-1.353h5.602q0-.712-.29-1.261a2.2 2.2 0 0 0-.815-.876q-.52-.32-1.22-.32-.76 0-1.328.375a2.5 2.5 0 0 0-.87.966 2.8 2.8 0 0 0-.301 1.285v1.057q0 .93.326 1.582.332.651.924.996.591.338 1.382.338.513 0 .936-.145.423-.15.73-.447.309-.295.471-.73l1.709.308a3.1 3.1 0 0 1-.737 1.322 3.6 3.6 0 0 1-1.322.875q-.79.308-1.805.308m12.93-7.196-1.636.29a2 2 0 0 0-.326-.598 1.6 1.6 0 0 0-.592-.465q-.374-.18-.936-.181-.766 0-1.28.344-.513.338-.513.875 0 .465.344.749.345.284 1.111.465l1.473.338q1.28.296 1.908.912.628.615.628 1.6a2.43 2.43 0 0 1-.483 1.484q-.477.647-1.334 1.015-.852.368-1.974.368-1.558 0-2.542-.664-.985-.67-1.207-1.902l1.744-.265q.163.681.67 1.032.507.345 1.322.344.888 0 1.419-.368.531-.375.531-.912a.95.95 0 0 0-.326-.73q-.32-.296-.984-.447l-1.569-.344q-1.298-.296-1.92-.942-.616-.645-.616-1.636 0-.82.459-1.437.46-.615 1.268-.96.809-.35 1.853-.35 1.503 0 2.367.652.862.645 1.141 1.733"/><path fill="url(#d)" d="M117.937 26.5V14.138h8.44v2.427h-5.452V19.1h4.915v2.433h-4.915v4.969zm12.409.158q-.888 0-1.576-.296a2.45 2.45 0 0 1-1.08-.906q-.393-.609-.393-1.527 0-.773.272-1.304t.749-.863a3.5 3.5 0 0 1 1.098-.501 7 7 0 0 1 1.329-.236q.79-.072 1.273-.15.483-.086.701-.236a.51.51 0 0 0 .223-.44v-.031q0-.465-.32-.718-.32-.255-.863-.254-.587 0-.942.254a1.12 1.12 0 0 0-.453.7l-2.722-.097q.12-.844.621-1.509.507-.67 1.389-1.05.887-.387 2.131-.387.888 0 1.636.212.749.205 1.304.603.555.393.857.966.308.574.308 1.31v6.303h-2.777v-1.292h-.072q-.248.471-.634.797-.381.325-.9.489a3.8 3.8 0 0 1-1.159.163m.912-1.932q.477 0 .857-.193a1.6 1.6 0 0 0 .616-.532q.23-.344.229-.797v-.88a1.7 1.7 0 0 1-.308.12q-.175.054-.386.103t-.435.084l-.428.066a2.7 2.7 0 0 0-.713.206 1.13 1.13 0 0 0-.447.362.9.9 0 0 0-.15.52q0 .457.326.7.332.24.839.24m6.435 1.775V14.137h2.952v4.679h.06q.181-.423.514-.815.338-.393.857-.64.525-.255 1.256-.254.965 0 1.805.507.845.508 1.364 1.564t.519 2.692q0 1.575-.501 2.639-.495 1.063-1.34 1.593a3.4 3.4 0 0 1-1.866.532q-.7 0-1.213-.23a2.6 2.6 0 0 1-.863-.604 2.9 2.9 0 0 1-.532-.803h-.09v1.504zm2.892-4.637q0 .75.199 1.304.205.555.586.864.386.3.923.301.543 0 .924-.301.38-.308.573-.864.2-.555.2-1.304 0-.748-.2-1.298-.193-.55-.573-.85-.375-.303-.924-.303-.543 0-.923.296-.38.297-.586.845-.2.55-.199 1.31m7.982 4.637v-9.273h2.868v1.69h.096q.254-.917.827-1.364a2.1 2.1 0 0 1 1.334-.453q.205 0 .423.03.218.025.404.079v2.566a3 3 0 0 0-.555-.115 5 5 0 0 0-.604-.042q-.525 0-.947.235a1.7 1.7 0 0 0-.658.646 1.9 1.9 0 0 0-.236.966V26.5zm7.155 0v-9.273h2.952V26.5zm1.479-10.354q-.621 0-1.068-.41a1.32 1.32 0 0 1-.447-1.002q0-.58.447-.99a1.5 1.5 0 0 1 1.068-.417 1.5 1.5 0 0 1 1.069.417q.447.41.447.99 0 .585-.447 1.002-.44.41-1.069.41m7.681 10.529q-1.467 0-2.518-.604a4.1 4.1 0 0 1-1.605-1.678q-.562-1.08-.562-2.5 0-1.424.562-2.499a4.1 4.1 0 0 1 1.612-1.684q1.05-.603 2.505-.604 1.286 0 2.24.465.959.465 1.497 1.316.543.846.573 1.986h-2.759q-.084-.712-.483-1.117-.392-.404-1.026-.404-.513 0-.899.29-.387.283-.604.845-.211.555-.211 1.376t.211 1.389q.217.561.604.851.386.285.899.284.41 0 .725-.175.32-.175.525-.513.205-.345.259-.834h2.759q-.042 1.147-.573 2.005a3.55 3.55 0 0 1-1.479 1.334q-.948.47-2.252.47m12.142-.175h-3.212l4.172-12.364h3.978l4.171 12.364h-3.211l-2.904-9.249h-.097zm-.429-4.866h6.713v2.27h-6.713zm10.87 4.866V14.137h5.107q1.388 0 2.396.543a3.8 3.8 0 0 1 1.564 1.504q.549.96.549 2.233 0 1.28-.561 2.24-.555.954-1.588 1.479t-2.451.525h-3.151v-2.354h2.596q.676 0 1.129-.236.459-.235.694-.658.235-.428.235-.996 0-.573-.235-.99a1.6 1.6 0 0 0-.694-.652q-.459-.23-1.129-.23h-1.473v9.956zm14.078-12.364v12.364h-2.989V14.137z"/></g><defs><linearGradient id="a" x1="105.501" x2="105.501" y1="0" y2="40.001" gradientUnits="userSpaceOnUse"><stop stop-color="#2d2a24"/><stop offset="1" stop-color="#1e1c18"/></linearGradient><linearGradient id="d" x1="163.396" x2="163.396" y1="9.501" y2="27.27" gradientUnits="userSpaceOnUse"><stop stop-color="#dbd0b4"/><stop offset="1" stop-color="#bcb29c"/></linearGradient><filter id="b" width="39.202" height="39.202" x="2.4" y=".4" color-interpolation-filters="sRGB" filterUnits="userSpaceOnUse"><feFlood flood-opacity="0" result="BackgroundImageFix"/><feColorMatrix in="SourceAlpha" result="hardAlpha" values="0 0 0 0 0 0 0 0 0 0 0 0 0 0 0 0 0 0 127 0"/><feOffset/><feGaussianBlur stdDeviation="2.8"/><feComposite in2="hardAlpha" operator="out"/><feColorMatrix values="0 0 0 0 0 0 0 0 0 0 0 0 0 0 0 0 0 0 0.25 0"/><feBlend in2="BackgroundImageFix" result="effect1_dropShadow_28_2675"/><feBlend in="SourceGraphic" in2="effect1_dropShadow_28_2675" result="shape"/></filter><filter id="c" width="172.429" height="32.429" x="36.287" y="3.786" color-interpolation-filters="sRGB" filterUnits="userSpaceOnUse"><feFlood flood-opacity="0" result="BackgroundImageFix"/><feColorMatrix in="SourceAlpha" result="hardAlpha" values="0 0 0 0 0 0 0 0 0 0 0 0 0 0 0 0 0 0 127 0"/><feOffset/><feGaussianBlur stdDeviation="2.857"/><feComposite in2="hardAlpha" operator="out"/><feColorMatrix values="0 0 0 0 0 0 0 0 0 0 0 0 0 0 0 0 0 0 0.25 0"/><feBlend in2="BackgroundImageFix" result="effect1_dropShadow_28_2675"/><feBlend in="SourceGraphic" in2="effect1_dropShadow_28_2675" result="shape"/></filter></defs></svg>