<svg xmlns="http://www.w3.org/2000/svg" width="314" height="40" fill="none" viewBox="0 0 314 40"><g clip-path="url(#a)"><rect width="314" height="40" fill="url(#b)" rx="8"/><g filter="url(#c)"><path fill="url(#d)" d="M36 34H8V6h28L21.711 19.794z"/></g><g filter="url(#e)"><path fill="#e8e8e8" d="M43.278 25.5V13.864h4.148q1.353 0 2.244.465.898.466 1.341 1.29.444.82.444 1.892 0 1.07-.45 1.881-.443.807-1.34 1.256-.892.449-2.245.449h-3.142v-1.512h2.983q.852 0 1.387-.244.54-.245.79-.71.25-.466.25-1.12 0-.659-.256-1.142a1.65 1.65 0 0 0-.79-.738q-.534-.262-1.403-.262h-2.205V25.5zm5.745-5.25 2.875 5.25h-2l-2.818-5.25zm8.083 5.426q-1.29 0-2.221-.551a3.74 3.74 0 0 1-1.432-1.562q-.5-1.012-.5-2.37 0-1.341.5-2.364a3.9 3.9 0 0 1 1.41-1.596q.908-.574 2.124-.574.74 0 1.432.244.693.244 1.244.768.552.522.87 1.357.318.83.318 2.018v.602h-6.938v-1.273h5.273q0-.67-.273-1.187a2.06 2.06 0 0 0-.767-.824q-.488-.302-1.147-.302-.717 0-1.25.353a2.36 2.36 0 0 0-.819.909q-.284.556-.284 1.21v.994q0 .876.307 1.489.312.615.87.938.556.318 1.3.318.484 0 .881-.137.398-.142.688-.42.289-.279.443-.688l1.608.29q-.194.71-.693 1.244a3.36 3.36 0 0 1-1.245.824q-.744.29-1.699.29m11.522 3.097v-4.631h-.102q-.154.279-.444.636-.283.358-.784.625-.5.267-1.295.268-1.058 0-1.886-.54-.825-.546-1.296-1.552-.465-1.01-.466-2.426 0-1.415.472-2.42.477-1.006 1.306-1.54a3.4 3.4 0 0 1 1.881-.534q.813 0 1.307.273.499.267.773.625.278.359.432.63h.142v-1.414h1.659v12zm-2.25-4.551q.733 0 1.239-.387.51-.392.772-1.085.267-.693.267-1.614 0-.909-.261-1.59-.261-.683-.767-1.063t-1.25-.38q-.767 0-1.279.397-.51.398-.772 1.085-.255.688-.256 1.551 0 .875.261 1.574.262.699.773 1.108.517.404 1.273.404m11.761-2.341v-5.108h1.705V25.5h-1.67v-1.511h-.092q-.3.698-.965 1.164-.66.46-1.643.46-.84 0-1.488-.369-.642-.375-1.012-1.108-.363-.732-.363-1.812v-5.551h1.699v5.346q0 .893.494 1.42.494.53 1.284.53.478 0 .949-.24.477-.239.79-.721.318-.483.312-1.227m3.987 3.619v-8.727h1.7V25.5zm.858-10.074a1.08 1.08 0 0 1-.761-.295.96.96 0 0 1-.312-.716q0-.421.312-.716.318-.3.761-.301.444 0 .756.3a.94.94 0 0 1 .318.717.95.95 0 0 1-.318.716 1.06 1.06 0 0 1-.756.295M86.111 25.5v-8.727h1.642v1.386h.09q.24-.705.842-1.108.607-.41 1.375-.409a7 7 0 0 1 .721.04v1.625a3 3 0 0 0-.363-.063 3.5 3.5 0 0 0-.523-.04q-.603 0-1.074.256a1.9 1.9 0 0 0-1.011 1.71v5.33zm9.59.176q-1.29 0-2.222-.551a3.74 3.74 0 0 1-1.432-1.562q-.5-1.012-.5-2.37 0-1.341.5-2.364a3.9 3.9 0 0 1 1.409-1.596q.909-.574 2.125-.574.739 0 1.432.244t1.244.768q.55.522.87 1.357.318.83.318 2.018v.602h-6.938v-1.273h5.273q0-.67-.273-1.187a2.06 2.06 0 0 0-.767-.824q-.488-.302-1.148-.302-.716 0-1.25.353a2.36 2.36 0 0 0-.818.909q-.285.556-.284 1.21v.994q0 .876.307 1.489.312.615.87.938.556.318 1.3.318.483 0 .881-.137.397-.142.688-.42.289-.279.443-.688l1.608.29q-.194.71-.694 1.244a3.36 3.36 0 0 1-1.244.824q-.744.29-1.699.29m12.168-6.773-1.539.273a1.8 1.8 0 0 0-.307-.562 1.5 1.5 0 0 0-.557-.438q-.353-.17-.881-.17-.721 0-1.204.323-.483.319-.483.824 0 .438.324.705.323.267 1.045.438l1.386.318q1.205.277 1.796.858.591.58.591 1.505 0 .785-.455 1.398-.449.608-1.255.954-.802.348-1.858.347-1.467 0-2.392-.625-.927-.63-1.137-1.79l1.642-.25q.153.642.631.972.477.324 1.244.324.836 0 1.335-.347.5-.352.5-.858a.9.9 0 0 0-.306-.687q-.302-.279-.927-.42l-1.477-.325q-1.22-.277-1.807-.886-.579-.607-.579-1.54a2.2 2.2 0 0 1 .432-1.352q.431-.579 1.193-.903.761-.33 1.744-.33 1.415 0 2.227.614.813.608 1.074 1.63"/><path fill="url(#f)" d="M113.936 26V13.636h8.439v2.427h-5.451V18.6h4.914v2.433h-4.914V26zm12.409.157q-.888 0-1.576-.296a2.46 2.46 0 0 1-1.081-.905q-.392-.61-.392-1.528 0-.773.272-1.304.271-.531.748-.863a3.5 3.5 0 0 1 1.099-.501 7 7 0 0 1 1.328-.236q.79-.072 1.274-.15.483-.085.7-.236a.51.51 0 0 0 .224-.44v-.03q0-.465-.32-.72-.321-.252-.864-.253-.585 0-.941.254a1.1 1.1 0 0 0-.453.7l-2.723-.096a3.2 3.2 0 0 1 .622-1.51q.507-.67 1.388-1.05.888-.386 2.131-.386.888 0 1.636.21.749.206 1.304.605.556.392.858.965.308.575.308 1.31V26h-2.777v-1.292h-.073q-.247.471-.634.797-.38.326-.899.489a3.8 3.8 0 0 1-1.159.163m.911-1.932q.477 0 .857-.193.387-.194.616-.531.23-.344.23-.797v-.882a2 2 0 0 1-.308.121q-.175.054-.387.103a7 7 0 0 1-.434.084l-.429.067a2.7 2.7 0 0 0-.712.205 1.13 1.13 0 0 0-.447.362.9.9 0 0 0-.151.52q0 .458.326.7.332.24.839.241M133.692 26V13.636h2.952v4.679h.06q.182-.422.513-.815.339-.393.857-.64.526-.253 1.256-.253.966 0 1.805.507.845.507 1.364 1.563t.52 2.693q0 1.575-.501 2.638-.495 1.062-1.341 1.594a3.4 3.4 0 0 1-1.865.53q-.7 0-1.213-.229a2.6 2.6 0 0 1-.864-.603 2.9 2.9 0 0 1-.531-.803h-.091V26zm2.891-4.636q0 .748.199 1.304.206.555.586.863.387.302.924.302.543 0 .923-.302.38-.308.574-.863.2-.555.199-1.304 0-.75-.199-1.298-.193-.55-.574-.851-.374-.303-.923-.302-.543 0-.924.295-.38.297-.586.846-.198.55-.199 1.31M144.566 26v-9.273h2.867v1.69h.097q.253-.917.827-1.364a2.1 2.1 0 0 1 1.334-.453q.206 0 .423.03.216.025.404.08v2.565a3 3 0 0 0-.555-.115 5 5 0 0 0-.604-.042q-.525 0-.948.235a1.7 1.7 0 0 0-.658.646 1.9 1.9 0 0 0-.235.966V26zm7.155 0v-9.273h2.952V26zm1.479-10.353q-.622 0-1.069-.41a1.32 1.32 0 0 1-.446-1.003q0-.579.446-.99a1.5 1.5 0 0 1 1.069-.417q.628 0 1.068.417.447.411.447.99 0 .585-.447 1.002a1.5 1.5 0 0 1-1.068.41m7.68 10.528q-1.467 0-2.517-.604a4.1 4.1 0 0 1-1.606-1.678q-.561-1.08-.561-2.5 0-1.424.561-2.498a4.1 4.1 0 0 1 1.612-1.685q1.05-.604 2.505-.604 1.287 0 2.24.465a3.56 3.56 0 0 1 1.497 1.316q.543.846.574 1.987h-2.759q-.084-.713-.483-1.117-.393-.405-1.026-.405a1.46 1.46 0 0 0-.9.29q-.386.284-.604.845-.21.556-.211 1.377 0 .82.211 1.388.218.561.604.851.387.285.9.284.41 0 .724-.175.32-.176.525-.513.206-.344.26-.833h2.759q-.043 1.147-.574 2.004a3.55 3.55 0 0 1-1.479 1.334q-.947.471-2.252.471m9.468-.175V13.636h2.988v9.937h5.144V26zm12.293.157q-.888 0-1.576-.296a2.46 2.46 0 0 1-1.081-.905q-.392-.61-.392-1.528 0-.773.272-1.304.271-.531.748-.863a3.5 3.5 0 0 1 1.099-.501 7 7 0 0 1 1.328-.236q.79-.072 1.274-.15.483-.085.7-.236a.51.51 0 0 0 .223-.44v-.03q0-.465-.32-.72-.32-.252-.863-.253-.585 0-.942.254a1.12 1.12 0 0 0-.452.7l-2.723-.096q.12-.846.622-1.51.507-.67 1.388-1.05.888-.386 2.131-.386.888 0 1.636.21.749.206 1.304.605.556.392.858.965.307.575.307 1.31V26h-2.777v-1.292h-.072q-.247.471-.634.797-.38.326-.899.489a3.8 3.8 0 0 1-1.159.163m.911-1.932q.477 0 .857-.193.387-.194.616-.531.23-.344.23-.797v-.882a2 2 0 0 1-.308.121q-.175.054-.387.103-.211.048-.434.084l-.429.067a2.7 2.7 0 0 0-.712.205 1.1 1.1 0 0 0-.447.362.9.9 0 0 0-.151.52q0 .458.326.7.332.24.839.241m9.388-3.513V26h-2.953v-9.273h2.808v1.703h.102a2.6 2.6 0 0 1 1.051-1.334q.742-.49 1.769-.49.977 0 1.696.441.724.435 1.123 1.22.404.779.398 1.823V26h-2.952v-5.33q.006-.774-.392-1.208-.393-.435-1.093-.435-.465 0-.821.206a1.36 1.36 0 0 0-.543.573q-.187.375-.193.906m12.144 8.958q-1.322 0-2.264-.368-.94-.367-1.479-1.008a2.8 2.8 0 0 1-.646-1.449l2.796-.157a1.1 1.1 0 0 0 .289.495q.217.212.562.326.35.115.821.115.742 0 1.225-.362.489-.357.489-1.25v-1.63h-.102a2.2 2.2 0 0 1-.532.767 2.5 2.5 0 0 1-.887.531q-.525.193-1.207.193a3.76 3.76 0 0 1-1.86-.47q-.839-.478-1.346-1.474-.501-1.002-.501-2.577 0-1.624.519-2.675.52-1.056 1.358-1.563a3.5 3.5 0 0 1 1.818-.508q.73 0 1.249.254.525.247.863.64.339.393.514.815h.084v-1.588h2.94v9.31q0 1.176-.592 1.985-.59.81-1.654 1.226-1.062.423-2.457.422m.091-5.946q.537 0 .917-.284.38-.283.586-.815.205-.53.205-1.273 0-.755-.205-1.298-.2-.55-.586-.846a1.45 1.45 0 0 0-.917-.295q-.549 0-.93.302-.38.301-.579.85-.194.544-.194 1.287t.2 1.273.573.815q.381.285.93.284m12.477-1.727v-5.27h2.946V26h-2.813v-1.727h-.097a2.7 2.7 0 0 1-1.051 1.353q-.736.495-1.78.495-.948 0-1.667-.435a2.96 2.96 0 0 1-1.116-1.213q-.399-.785-.405-1.836v-5.91h2.952v5.33q.006.755.399 1.19.392.435 1.068.435.441 0 .791-.193.356-.2.561-.574.212-.38.212-.918m7.439 4.16q-.888 0-1.576-.296a2.46 2.46 0 0 1-1.081-.905q-.392-.61-.392-1.528 0-.773.272-1.304.271-.531.748-.863a3.5 3.5 0 0 1 1.099-.501 7 7 0 0 1 1.328-.236q.79-.072 1.274-.15.483-.085.7-.236a.51.51 0 0 0 .224-.44v-.03q0-.465-.32-.72-.32-.252-.864-.253-.585 0-.941.254a1.1 1.1 0 0 0-.453.7l-2.723-.096a3.2 3.2 0 0 1 .622-1.51q.507-.67 1.388-1.05.888-.386 2.131-.386.888 0 1.636.21.75.206 1.304.605.556.392.858.965.308.575.308 1.31V26h-2.777v-1.292h-.073q-.247.471-.634.797-.38.326-.899.489a3.8 3.8 0 0 1-1.159.163m.911-1.932q.477 0 .858-.193.386-.194.615-.531.23-.344.23-.797v-.882a2 2 0 0 1-.308.121q-.175.054-.387.103a7 7 0 0 1-.434.084l-.429.067a2.7 2.7 0 0 0-.712.205 1.13 1.13 0 0 0-.447.362.9.9 0 0 0-.151.52q0 .458.326.7.332.24.839.241m10.758 5.445q-1.322 0-2.264-.368-.942-.367-1.479-1.008a2.8 2.8 0 0 1-.646-1.449l2.795-.157q.079.284.29.495.217.212.562.326.35.115.821.115.742 0 1.225-.362.489-.357.489-1.25v-1.63h-.103a2.2 2.2 0 0 1-.531.767 2.5 2.5 0 0 1-.887.531q-.525.193-1.208.193a3.75 3.75 0 0 1-1.859-.47q-.839-.478-1.346-1.474-.501-1.002-.501-2.577 0-1.624.519-2.675.52-1.056 1.358-1.563a3.47 3.47 0 0 1 1.817-.508q.73 0 1.25.254.525.247.863.64.339.393.513.815h.085v-1.588h2.94v9.31q0 1.176-.592 1.985-.591.81-1.654 1.226-1.062.423-2.457.422m.091-5.946q.537 0 .917-.284.38-.283.586-.815.205-.53.205-1.273 0-.755-.205-1.298-.2-.55-.586-.846a1.45 1.45 0 0 0-.917-.295q-.55 0-.93.302-.38.301-.58.85-.192.544-.193 1.287 0 .743.199 1.273.2.532.574.815.38.285.93.284m10.828 2.451q-1.455 0-2.511-.573a3.97 3.97 0 0 1-1.618-1.649q-.561-1.074-.561-2.553 0-1.437.567-2.511.567-1.08 1.6-1.679 1.032-.604 2.433-.604.99 0 1.811.308.82.309 1.419.912.597.604.929 1.491.333.882.332 2.023v.736h-8.059v-1.715h5.312a1.66 1.66 0 0 0-.223-.839 1.5 1.5 0 0 0-.598-.573 1.7 1.7 0 0 0-.863-.211q-.495 0-.887.223a1.64 1.64 0 0 0-.622.598q-.229.375-.242.85v1.745q0 .568.224.997.223.421.634.658.41.235.978.235.392 0 .712-.109.32-.108.549-.32.23-.21.345-.519l2.71.079a3.36 3.36 0 0 1-.742 1.587q-.568.67-1.492 1.045-.923.368-2.137.368M257.24 26V13.636h2.989v5.228h.163l4.087-5.228h3.519l-4.383 5.518L268.077 26h-3.574l-3.079-4.86-1.195 1.51V26zm15.585.175q-1.46 0-2.512-.598a4.13 4.13 0 0 1-1.612-1.678q-.561-1.08-.561-2.505 0-1.432.561-2.505.568-1.08 1.612-1.679 1.051-.604 2.512-.604t2.505.604q1.05.598 1.612 1.678.567 1.075.567 2.506 0 1.425-.567 2.505a4.07 4.07 0 0 1-1.612 1.678q-1.044.598-2.505.598m.018-2.228q.531 0 .899-.326.369-.326.562-.905.2-.58.199-1.34 0-.773-.199-1.353-.193-.58-.562-.905a1.3 1.3 0 0 0-.899-.326q-.549 0-.93.326-.374.326-.573.905-.194.58-.194 1.353 0 .76.194 1.34.199.58.573.905.381.327.93.326m11.413-7.22v2.174h-5.85v-2.174zm-4.625-2.221h2.952v8.578q0 .272.085.44.09.165.26.236a1.1 1.1 0 0 0 .404.067q.169 0 .356-.03.194-.038.29-.06l.447 2.13q-.211.06-.598.151a5 5 0 0 1-.912.115q-1.038.048-1.78-.242a2.3 2.3 0 0 1-1.129-.917q-.387-.622-.375-1.564zm9.282-.87V26h-2.952V13.636zM290.792 26v-9.273h2.952V26zm1.479-10.353q-.622 0-1.068-.41a1.32 1.32 0 0 1-.447-1.003q0-.579.447-.99a1.5 1.5 0 0 1 1.068-.417 1.5 1.5 0 0 1 1.069.417q.447.411.446.99 0 .585-.446 1.002-.44.41-1.069.41m6.304 5.065V26h-2.952v-9.273h2.807v1.703h.103a2.6 2.6 0 0 1 1.05-1.334q.743-.49 1.769-.49.978 0 1.697.441.725.435 1.122 1.22.405.779.399 1.823V26h-2.952v-5.33q.006-.774-.393-1.208-.392-.435-1.092-.435-.465 0-.821.206a1.36 1.36 0 0 0-.544.573q-.187.375-.193.906"/></g></g><rect width="311.9" height="37.9" x="1.05" y="1.05" stroke="#fff" stroke-opacity=".15" stroke-width="2.1" rx="6.95"/><defs><radialGradient id="b" cx="0" cy="0" r="1" gradientTransform="matrix(-314 0 0 -40 314 0)" gradientUnits="userSpaceOnUse"><stop stop-color="#3d282a"/><stop offset=".504" stop-color="#332336"/><stop offset="1" stop-color="#201d29"/></radialGradient><radialGradient id="d" cx="0" cy="0" r="1" gradientTransform="matrix(-28 0 0 -28 36 6)" gradientUnits="userSpaceOnUse"><stop stop-color="#e44857"/><stop offset=".504" stop-color="#c711e1"/><stop offset="1" stop-color="#7f52ff"/></radialGradient><radialGradient id="f" cx="0" cy="0" r="1" gradientTransform="matrix(-193 0 0 -18 306 11)" gradientUnits="userSpaceOnUse"><stop stop-color="#e998a0"/><stop offset=".504" stop-color="#d88be3"/><stop offset="1" stop-color="#bba3ff"/></radialGradient><filter id="c" width="39.429" height="39.429" x="2.286" y=".286" color-interpolation-filters="sRGB" filterUnits="userSpaceOnUse"><feFlood flood-opacity="0" result="BackgroundImageFix"/><feColorMatrix in="SourceAlpha" result="hardAlpha" values="0 0 0 0 0 0 0 0 0 0 0 0 0 0 0 0 0 0 127 0"/><feOffset/><feGaussianBlur stdDeviation="2.857"/><feComposite in2="hardAlpha" operator="out"/><feColorMatrix values="0 0 0 0 0 0 0 0 0 0 0 0 0 0 0 0 0 0 0.25 0"/><feBlend in2="BackgroundImageFix" result="effect1_dropShadow_65_10"/><feBlend in="SourceGraphic" in2="effect1_dropShadow_65_10" result="shape"/></filter><filter id="e" width="275.2" height="30.37" x="36.4" y="4.9" color-interpolation-filters="sRGB" filterUnits="userSpaceOnUse"><feFlood flood-opacity="0" result="BackgroundImageFix"/><feColorMatrix in="SourceAlpha" result="hardAlpha" values="0 0 0 0 0 0 0 0 0 0 0 0 0 0 0 0 0 0 127 0"/><feOffset/><feGaussianBlur stdDeviation="2.8"/><feComposite in2="hardAlpha" operator="out"/><feColorMatrix values="0 0 0 0 0 0 0 0 0 0 0 0 0 0 0 0 0 0 0.25 0"/><feBlend in2="BackgroundImageFix" result="effect1_dropShadow_65_10"/><feBlend in="SourceGraphic" in2="effect1_dropShadow_65_10" result="shape"/></filter><clipPath id="a"><rect width="314" height="40" fill="#fff" rx="8"/></clipPath></defs></svg>