<svg xmlns="http://www.w3.org/2000/svg" width="325" height="40" fill="none" viewBox="0 0 325 40"><g clip-path="url(#a)"><rect width="325.001" height="40.001" fill="url(#b)" rx="8"/><g filter="url(#c)"><path fill="#9722ff" d="M15.786 9.876a.495.495 0 0 0 .494.495h.842v1.88h-.842a.495.495 0 1 0 0 .99h.842v1.442a.44.44 0 0 1-.439.439h-1.442v-.842a.495.495 0 0 0-.99 0v.842h-1.88v-.842a.495.495 0 1 0-.99 0v.842H9.939a.44.44 0 0 1-.439-.439V7.938a.44.44 0 0 1 .44-.438h6.744a.44.44 0 0 1 .439.438V9.38h-.842a.495.495 0 0 0-.494.496"/><path fill="#dc29dd" d="M24.396 9.876a.495.495 0 0 0 .495.495h.844v1.88h-.842a.495.495 0 1 0 0 .99h.842v1.442a.44.44 0 0 1-.439.439h-6.745a.44.44 0 0 1-.439-.439v-1.442h.841a.495.495 0 1 0 0-.99h-.84v-1.88h.84a.493.493 0 0 0 .471-.689.495.495 0 0 0-.471-.302h-.84V7.938a.437.437 0 0 1 .438-.438h6.744a.44.44 0 0 1 .439.438V9.38h-.842a.495.495 0 0 0-.496.496"/><path fill="#27a2fd" d="M34.345 7.938v6.745a.44.44 0 0 1-.438.439h-1.443v-.842a.495.495 0 1 0-.99 0v.842h-1.88v-.842a.495.495 0 1 0-.99 0v.842h-1.442a.44.44 0 0 1-.438-.439v-1.442h.841a.495.495 0 1 0 0-.99h-.841v-1.88h.841a.495.495 0 0 0 0-.99h-.841V7.937a.44.44 0 0 1 .438-.438h6.745a.44.44 0 0 1 .438.438"/><path fill="#dc29dd" d="M17.122 16.55v6.745a.44.44 0 0 1-.438.438H15.24v-.841a.495.495 0 1 0-.99 0v.842h-1.88v-.841a.495.495 0 1 0-.99 0v.841H9.94a.44.44 0 0 1-.439-.438V16.55a.44.44 0 0 1 .439-.439h1.442v.842a.495.495 0 1 0 .99 0v-.842h1.88v.842a.495.495 0 1 0 .99 0v-.842h1.443a.44.44 0 0 1 .438.439"/><path fill="#27a2fd" d="M24.396 18.487a.495.495 0 0 0 .495.495h.844v1.88h-.842a.495.495 0 1 0 0 .99h.842v1.443a.44.44 0 0 1-.439.438h-1.443v-.841a.495.495 0 0 0-.99 0v.842h-1.88v-.841a.495.495 0 0 0-.99 0v.841H18.55a.436.436 0 0 1-.439-.438V16.55a.44.44 0 0 1 .439-.439h6.744a.44.44 0 0 1 .439.439v1.442h-.842a.494.494 0 0 0-.496.495"/><path fill="#34f" d="M34.345 16.55v6.745a.437.437 0 0 1-.438.438h-6.745a.44.44 0 0 1-.438-.438v-1.443h.841a.495.495 0 1 0 0-.99h-.841v-1.88h.841a.495.495 0 0 0 0-.99h-.841V16.55a.44.44 0 0 1 .438-.439h1.442v.842a.495.495 0 1 0 .99 0v-.842h1.88v.842a.495.495 0 1 0 .99 0v-.842h1.442a.44.44 0 0 1 .44.439"/><path fill="#9722ff" d="M15.786 27.099a.495.495 0 0 0 .495.495h.841v1.88h-.841a.495.495 0 0 0 0 .99h.841v1.442a.44.44 0 0 1-.438.439H9.939a.44.44 0 0 1-.439-.439v-6.744a.44.44 0 0 1 .439-.439h1.442v.841a.495.495 0 1 0 .99 0v-.84h1.88v.84a.495.495 0 1 0 .99 0v-.84h1.443a.437.437 0 0 1 .438.438v1.44h-.841a.496.496 0 0 0-.495.497"/><path fill="#34f" d="M25.735 25.162v6.744a.44.44 0 0 1-.439.439h-6.745a.44.44 0 0 1-.439-.439v-1.442h.841a.495.495 0 1 0 0-.99h-.84v-1.88h.84a.493.493 0 0 0 .471-.689.5.5 0 0 0-.471-.302h-.84v-1.441a.44.44 0 0 1 .438-.439h1.441v.841a.495.495 0 1 0 .99 0v-.84h1.881v.84a.495.495 0 1 0 .99 0v-.84h1.442a.437.437 0 0 1 .44.438"/><path fill="#9722ff" d="m31.803 25.033-4.77 4.77a.44.44 0 0 0 0 .62l4.77 4.768a.44.44 0 0 0 .62 0l4.77-4.769a.44.44 0 0 0 0-.62l-4.77-4.77a.44.44 0 0 0-.62 0"/></g><g filter="url(#d)"><path fill="#e8e8e8" d="M43.36 26.5V14.138h4.407q1.437 0 2.384.495.954.495 1.425 1.37.47.87.47 2.01 0 1.136-.476 1.999-.471.858-1.425 1.334-.948.477-2.384.477h-3.339v-1.606h3.17q.904 0 1.473-.26.573-.259.839-.754.265-.494.265-1.19 0-.699-.271-1.213a1.76 1.76 0 0 0-.84-.784q-.567-.279-1.49-.278h-2.343V26.5zm6.103-5.577 3.055 5.578h-2.125l-2.995-5.578zm8.59 5.765q-1.371 0-2.361-.586a3.97 3.97 0 0 1-1.522-1.66q-.53-1.074-.53-2.517 0-1.425.53-2.512.538-1.087 1.498-1.696.966-.61 2.257-.61.785 0 1.522.26.735.259 1.322.815.585.555.923 1.443.339.881.339 2.143v.64h-7.372v-1.353h5.603q0-.712-.29-1.261a2.2 2.2 0 0 0-.815-.876q-.52-.32-1.22-.32-.76 0-1.328.375a2.5 2.5 0 0 0-.869.966 2.8 2.8 0 0 0-.302 1.285v1.057q0 .93.326 1.582.332.651.924.996.591.338 1.382.338.513 0 .936-.145.423-.15.73-.447a1.94 1.94 0 0 0 .471-.73l1.709.308a3.1 3.1 0 0 1-.737 1.322 3.6 3.6 0 0 1-1.322.875q-.79.308-1.805.308m12.24 3.29v-4.92h-.108a5 5 0 0 1-.471.676 2.6 2.6 0 0 1-.833.664q-.531.285-1.377.284-1.122 0-2.004-.574-.875-.579-1.376-1.648-.495-1.074-.495-2.578t.5-2.571q.508-1.07 1.39-1.636.88-.568 1.997-.568.864 0 1.389.29.531.284.821.664.296.38.459.67h.15v-1.503H72.1v12.75zm-2.39-4.836q.78 0 1.316-.41.543-.417.821-1.153.284-.737.284-1.715 0-.966-.278-1.69-.278-.725-.815-1.129t-1.328-.404q-.815 0-1.358.422-.544.423-.821 1.153a4.7 4.7 0 0 0-.272 1.648q0 .93.278 1.673.277.742.82 1.177.55.428 1.353.428m12.496-2.487v-5.427h1.811v9.273h-1.774v-1.606h-.097a2.9 2.9 0 0 1-1.026 1.237q-.7.49-1.745.49-.894 0-1.582-.393-.682-.399-1.074-1.177-.387-.78-.387-1.926v-5.898h1.805v5.68q0 .95.526 1.51.525.561 1.364.561.507 0 1.008-.253.507-.255.84-.767.337-.513.331-1.304m4.237 3.846v-9.273h1.805v9.273zm.911-10.704q-.47 0-.809-.314a1.02 1.02 0 0 1-.332-.76q0-.447.332-.761.338-.32.81-.32.47 0 .802.32a1 1 0 0 1 .338.76q0 .441-.338.761-.332.315-.803.314m3.322 10.704v-9.273h1.745v1.473h.096q.254-.75.894-1.177.646-.435 1.46-.435a8 8 0 0 1 .768.042v1.727a3 3 0 0 0-.387-.067 4 4 0 0 0-.555-.042q-.64 0-1.141.272a2.02 2.02 0 0 0-1.075 1.817v5.663zm10.189.187q-1.37 0-2.36-.586a3.97 3.97 0 0 1-1.522-1.66q-.531-1.074-.531-2.517 0-1.425.531-2.512.538-1.087 1.497-1.696.966-.61 2.258-.61.784 0 1.522.26a3.7 3.7 0 0 1 1.322.815q.585.555.923 1.443.338.881.338 2.143v.64h-7.37v-1.353h5.602q0-.712-.29-1.261a2.2 2.2 0 0 0-.815-.876q-.52-.32-1.22-.32-.76 0-1.328.375a2.5 2.5 0 0 0-.87.966 2.8 2.8 0 0 0-.301 1.285v1.057q0 .93.326 1.582.332.651.924.996.591.338 1.382.338.513 0 .936-.145.423-.15.73-.447.309-.295.471-.73l1.709.308a3.1 3.1 0 0 1-.737 1.322 3.6 3.6 0 0 1-1.322.875q-.79.308-1.805.308m12.93-7.196-1.636.29a2 2 0 0 0-.326-.598 1.6 1.6 0 0 0-.592-.465q-.374-.18-.936-.181-.766 0-1.28.344-.513.338-.513.875 0 .465.344.749.345.284 1.111.465l1.473.338q1.28.296 1.908.912.628.615.628 1.6a2.43 2.43 0 0 1-.483 1.484q-.477.647-1.334 1.015-.852.368-1.974.368-1.558 0-2.542-.664-.985-.67-1.207-1.902l1.744-.265q.163.681.67 1.032.507.345 1.322.344.888 0 1.419-.368.531-.375.531-.912a.95.95 0 0 0-.326-.73q-.32-.296-.984-.447l-1.569-.344q-1.298-.296-1.92-.942-.616-.645-.616-1.636 0-.82.459-1.437.46-.615 1.268-.96.809-.35 1.853-.35 1.503 0 2.367.652.862.645 1.141 1.733"/><path fill="url(#e)" d="M122.664 22.058h2.415l1.026 1.31 1.346 1.545 2.071 2.554h-2.704l-1.449-1.733-.858-1.232zm6.943-1.74q0 2.041-.785 3.46t-2.125 2.155q-1.335.737-2.995.737-1.665 0-3-.743-1.334-.742-2.119-2.155-.779-1.419-.779-3.453 0-2.04.779-3.46.785-1.418 2.119-2.155t3-.736q1.66 0 2.995.736 1.34.737 2.125 2.156.785 1.418.785 3.459m-3.055 0q0-1.206-.344-2.04-.339-.833-.978-1.261-.634-.429-1.528-.429-.886 0-1.527.429-.64.428-.984 1.261-.338.834-.338 2.04 0 1.209.338 2.041.344.834.984 1.262t1.527.429q.894 0 1.528-.429.639-.428.978-1.262.344-.832.344-2.04m10.798 2.18v-5.27h2.946v9.273h-2.813v-1.727h-.096a2.7 2.7 0 0 1-1.051 1.352q-.736.495-1.781.495-.948 0-1.666-.434a2.96 2.96 0 0 1-1.117-1.214q-.398-.785-.404-1.835v-5.91h2.952v5.33q.006.756.398 1.19.393.434 1.069.434.44 0 .791-.193a1.43 1.43 0 0 0 .561-.573q.211-.381.211-.918m4.825 4.003V17.23h2.953v9.273zm1.48-10.354q-.622 0-1.069-.41a1.32 1.32 0 0 1-.447-1.002q0-.58.447-.99a1.5 1.5 0 0 1 1.069-.417q.627 0 1.068.417.447.41.447.99 0 .585-.447 1.002-.441.41-1.068.41m6.304-2.01v12.364h-2.952V14.137zm7.113 3.091v2.173h-5.85V17.23zm-4.625-2.222h2.952v8.579q0 .272.085.44.09.165.259.236.17.066.405.066.169 0 .356-.03.193-.036.29-.06l.447 2.13q-.211.061-.598.152a5 5 0 0 1-.912.115q-1.038.048-1.781-.242a2.3 2.3 0 0 1-1.128-.918q-.387-.621-.375-1.563zm16.466 2.838q-.06-.664-.537-1.033-.471-.374-1.346-.374-.58 0-.966.151-.387.15-.58.417a1 1 0 0 0-.199.597.9.9 0 0 0 .108.49q.127.21.363.373.242.158.579.278.338.12.761.212l1.062.241q.918.2 1.618.531.707.333 1.184.791.483.459.73 1.057.248.597.254 1.34-.006 1.17-.592 2.01-.585.84-1.684 1.286-1.093.447-2.638.447-1.552 0-2.705-.465t-1.793-1.413-.658-2.396h2.861q.037.597.32.996.285.398.779.603.502.206 1.159.206.604 0 1.027-.163.428-.164.658-.453t.235-.664a.9.9 0 0 0-.217-.598q-.211-.253-.652-.435-.435-.187-1.111-.344l-1.292-.302q-1.606-.368-2.529-1.189-.924-.827-.918-2.233-.006-1.148.616-2.01.621-.864 1.72-1.347 1.1-.483 2.506-.483 1.435 0 2.493.489 1.062.483 1.648 1.358t.598 2.029zm9.774-.616v2.173h-5.85V17.23zm-4.624-2.222h2.952v8.579q0 .272.084.44.09.165.26.236a1.1 1.1 0 0 0 .404.066q.17 0 .356-.03.194-.036.29-.06l.447 2.13q-.211.061-.598.152-.38.09-.911.115-1.039.048-1.781-.242a2.3 2.3 0 0 1-1.129-.918q-.387-.621-.374-1.563zm8.744 11.652q-.888 0-1.576-.296a2.45 2.45 0 0 1-1.08-.906q-.393-.609-.393-1.527 0-.773.272-1.304t.749-.863a3.5 3.5 0 0 1 1.098-.501 7 7 0 0 1 1.328-.236q.791-.072 1.274-.15.483-.086.701-.236a.51.51 0 0 0 .223-.44v-.031q0-.465-.32-.718-.32-.255-.863-.254-.587 0-.942.254a1.12 1.12 0 0 0-.453.7l-2.723-.097a3.2 3.2 0 0 1 .622-1.509q.507-.67 1.389-1.05.887-.387 2.131-.387.887 0 1.636.212.749.205 1.304.603.555.393.857.966.308.574.308 1.31v6.303h-2.777v-1.292h-.073q-.248.471-.633.797-.381.325-.9.489a3.8 3.8 0 0 1-1.159.163m.912-1.932q.476 0 .857-.193a1.6 1.6 0 0 0 .616-.532q.23-.344.229-.797v-.88a2 2 0 0 1-.308.12q-.175.054-.386.103t-.435.084l-.429.066a2.7 2.7 0 0 0-.712.206 1.13 1.13 0 0 0-.447.362.9.9 0 0 0-.151.52q0 .457.326.7.333.24.84.24m9.387-3.514v5.289h-2.952v-9.273h2.807v1.702h.103a2.6 2.6 0 0 1 1.05-1.334q.743-.489 1.769-.489.978 0 1.696.44.725.435 1.123 1.22.405.78.399 1.823v5.91h-2.952v-5.33q.006-.773-.393-1.207-.392-.435-1.092-.435-.465 0-.821.205a1.36 1.36 0 0 0-.544.574q-.187.375-.193.905m11.209 5.422a3.4 3.4 0 0 1-1.865-.532q-.84-.531-1.341-1.593-.501-1.063-.501-2.639 0-1.636.52-2.692.519-1.056 1.358-1.564a3.47 3.47 0 0 1 1.817-.507q.73 0 1.25.254.52.247.857.64.337.392.513.815h.06v-4.679h2.952v12.364h-2.921v-1.504h-.091a2.9 2.9 0 0 1-.531.803q-.344.375-.863.604-.514.23-1.214.23m1.026-2.3q.538 0 .918-.302.38-.308.586-.864.205-.555.205-1.304 0-.76-.205-1.31-.2-.55-.586-.845a1.45 1.45 0 0 0-.918-.296q-.55 0-.929.302-.38.302-.58.851-.193.55-.193 1.298 0 .75.199 1.304.2.555.574.864.38.3.929.301m9.075 2.324q-.887 0-1.575-.296a2.46 2.46 0 0 1-1.081-.906q-.392-.609-.392-1.527 0-.773.271-1.304a2.3 2.3 0 0 1 .749-.863 3.5 3.5 0 0 1 1.099-.501 7 7 0 0 1 1.328-.236q.79-.072 1.274-.15.483-.086.7-.236a.51.51 0 0 0 .223-.44v-.031q0-.465-.32-.718-.32-.255-.863-.254-.585 0-.942.254a1.12 1.12 0 0 0-.453.7l-2.722-.097q.12-.844.622-1.509.507-.67 1.388-1.05.888-.387 2.131-.387.888 0 1.636.212.749.205 1.304.603.555.393.857.966.309.574.308 1.31v6.303h-2.777v-1.292h-.072q-.247.471-.634.797-.38.325-.9.489a3.8 3.8 0 0 1-1.159.163m.912-1.932q.477 0 .857-.193.387-.194.616-.532.23-.344.229-.797v-.88a1.7 1.7 0 0 1-.308.12 5 5 0 0 1-.386.103q-.212.048-.435.084-.222.036-.428.066a2.7 2.7 0 0 0-.713.206 1.1 1.1 0 0 0-.446.362.9.9 0 0 0-.151.52q0 .457.326.7.332.24.839.24m6.435 1.775v-9.273h2.868v1.69h.096q.254-.917.828-1.364a2.1 2.1 0 0 1 1.334-.453q.205 0 .422.03.218.025.405.079v2.566a3 3 0 0 0-.556-.115 5 5 0 0 0-.603-.042q-.525 0-.948.235a1.7 1.7 0 0 0-.658.646 1.9 1.9 0 0 0-.236.966V26.5zm10.061.133a3.4 3.4 0 0 1-1.866-.532q-.839-.531-1.34-1.593-.501-1.063-.501-2.639 0-1.636.519-2.692t1.359-1.564a3.47 3.47 0 0 1 1.817-.507q.73 0 1.249.254.52.247.858.64.337.392.513.815h.06v-4.679h2.952V26.5h-2.922v-1.504h-.09a2.9 2.9 0 0 1-.531.803q-.345.375-.864.604-.513.23-1.213.23m1.026-2.3q.537 0 .918-.302.38-.308.585-.864.206-.555.206-1.304 0-.76-.206-1.31-.199-.55-.585-.845a1.45 1.45 0 0 0-.918-.296q-.549 0-.93.302-.38.302-.579.851-.193.55-.193 1.298 0 .75.199 1.304.2.555.573.864.381.3.93.301m10.114 2.167V14.137h2.988v9.937h5.143V26.5zm9.678 0v-9.273h2.952v9.273zm1.479-10.354q-.621 0-1.068-.41a1.32 1.32 0 0 1-.447-1.002q0-.58.447-.99a1.5 1.5 0 0 1 1.068-.417 1.5 1.5 0 0 1 1.069.417q.447.41.447.99 0 .585-.447 1.002-.44.41-1.069.41m3.352 10.354V14.137h2.952v4.679h.061q.18-.423.513-.815.338-.393.857-.64.525-.255 1.256-.254.965 0 1.805.507.845.508 1.364 1.564t.519 2.692q0 1.575-.501 2.639-.495 1.063-1.34 1.593a3.4 3.4 0 0 1-1.865.532q-.7 0-1.214-.23a2.6 2.6 0 0 1-.863-.604 2.9 2.9 0 0 1-.531-.803h-.091v1.504zm2.892-4.637q0 .75.199 1.304.205.555.586.864.386.3.923.301.545 0 .924-.301.38-.308.574-.864.199-.555.199-1.304 0-.748-.199-1.298-.193-.55-.574-.85-.374-.303-.924-.303-.543 0-.923.296-.38.297-.586.845-.2.55-.199 1.31m7.982 4.637v-9.273h2.868v1.69h.096q.254-.917.827-1.364a2.1 2.1 0 0 1 1.335-.453q.204 0 .422.03.217.025.405.079v2.566a3 3 0 0 0-.556-.115 5 5 0 0 0-.603-.042q-.526 0-.948.235a1.7 1.7 0 0 0-.658.646 1.9 1.9 0 0 0-.236.966V26.5zm9.421.157q-.888 0-1.576-.296a2.45 2.45 0 0 1-1.08-.906q-.393-.609-.393-1.527 0-.773.272-1.304t.749-.863a3.5 3.5 0 0 1 1.098-.501 7 7 0 0 1 1.328-.236q.792-.072 1.274-.15.483-.086.7-.236a.51.51 0 0 0 .224-.44v-.031q0-.465-.32-.718-.32-.255-.863-.254-.587 0-.942.254a1.1 1.1 0 0 0-.453.7l-2.723-.097a3.2 3.2 0 0 1 .622-1.509q.507-.67 1.389-1.05.887-.387 2.131-.387.887 0 1.636.212.748.205 1.304.603.555.393.857.966.308.574.308 1.31v6.303h-2.777v-1.292h-.073q-.248.471-.633.797-.381.325-.9.489a3.8 3.8 0 0 1-1.159.163m.912-1.932q.476 0 .857-.193a1.6 1.6 0 0 0 .616-.532 1.4 1.4 0 0 0 .229-.797v-.88a2 2 0 0 1-.308.12q-.175.054-.386.103t-.435.084l-.429.066a2.7 2.7 0 0 0-.712.206 1.13 1.13 0 0 0-.447.362.9.9 0 0 0-.151.52q0 .457.326.7.332.24.84.24m6.435 1.775v-9.273h2.867v1.69h.097q.254-.917.827-1.364a2.1 2.1 0 0 1 1.334-.453q.206 0 .423.03.218.025.404.079v2.566a3 3 0 0 0-.555-.115 5 5 0 0 0-.604-.042q-.525 0-.948.235a1.7 1.7 0 0 0-.658.646 1.9 1.9 0 0 0-.235.966V26.5zm7.155 0v-9.273h2.952v9.273zm1.479-10.354q-.622 0-1.068-.41a1.32 1.32 0 0 1-.447-1.002q0-.58.447-.99a1.5 1.5 0 0 1 1.068-.417 1.5 1.5 0 0 1 1.069.417q.447.41.446.99 0 .585-.446 1.002-.44.41-1.069.41m7.687 10.529q-1.455 0-2.512-.574a3.97 3.97 0 0 1-1.618-1.648q-.561-1.074-.561-2.553 0-1.437.567-2.512.568-1.08 1.6-1.678 1.032-.603 2.433-.604.99 0 1.811.308t1.419.912q.597.604.93 1.49.332.882.332 2.023v.737h-8.06v-1.715h5.313a1.66 1.66 0 0 0-.224-.839 1.5 1.5 0 0 0-.597-.573 1.7 1.7 0 0 0-.863-.212q-.495 0-.888.224a1.68 1.68 0 0 0-.863 1.449v1.744q0 .567.223.996.223.423.634.658t.978.236q.393 0 .712-.109a1.5 1.5 0 0 0 .55-.32q.229-.21.344-.52l2.71.08a3.35 3.35 0 0 1-.742 1.587q-.567.67-1.491 1.044-.924.369-2.137.369m14.004-6.617-2.711.073a1 1 0 0 0-.229-.513 1.24 1.24 0 0 0-.489-.357 1.7 1.7 0 0 0-.688-.132q-.513 0-.876.205-.356.205-.35.555a.6.6 0 0 0 .218.471q.228.2.815.32l1.786.338q1.389.265 2.065.882.682.615.688 1.63-.006.953-.567 1.66-.556.706-1.521 1.098-.966.387-2.21.387-1.986 0-3.133-.815-1.141-.822-1.304-2.198l2.916-.072q.096.506.501.773.404.265 1.032.265.567 0 .924-.211.356-.21.362-.561a.6.6 0 0 0-.278-.502q-.272-.192-.851-.301l-1.618-.308q-1.395-.254-2.077-.936-.682-.688-.676-1.75-.006-.93.495-1.588.501-.664 1.425-1.015t2.179-.35q1.884 0 2.971.791 1.086.785 1.201 2.161"/></g></g><rect width="322.858" height="37.858" x="1.071" y="1.071" stroke="#fff" stroke-opacity=".15" stroke-width="2.143" rx="6.929"/><defs><linearGradient id="b" x1="162.501" x2="162.501" y1="0" y2="40.001" gradientUnits="userSpaceOnUse"><stop stop-color="#2a0e2b"/><stop offset="1" stop-color="#0c1723"/></linearGradient><linearGradient id="e" x1="117.002" x2="317.002" y1="9.501" y2="9.501" gradientUnits="userSpaceOnUse"><stop stop-color="#e17be1"/><stop offset="1" stop-color="#98a1ff"/></linearGradient><filter id="c" width="40.521" height="40.52" x="2.4" y=".4" color-interpolation-filters="sRGB" filterUnits="userSpaceOnUse"><feFlood flood-opacity="0" result="BackgroundImageFix"/><feColorMatrix in="SourceAlpha" result="hardAlpha" values="0 0 0 0 0 0 0 0 0 0 0 0 0 0 0 0 0 0 127 0"/><feOffset/><feGaussianBlur stdDeviation="2.8"/><feComposite in2="hardAlpha" operator="out"/><feColorMatrix values="0 0 0 0 0 0 0 0 0 0 0 0 0 0 0 0 0 0 0.25 0"/><feBlend in2="BackgroundImageFix" result="effect1_dropShadow_28_2696"/><feBlend in="SourceGraphic" in2="effect1_dropShadow_28_2696" result="shape"/></filter><filter id="d" width="286.429" height="32.429" x="36.287" y="3.786" color-interpolation-filters="sRGB" filterUnits="userSpaceOnUse"><feFlood flood-opacity="0" result="BackgroundImageFix"/><feColorMatrix in="SourceAlpha" result="hardAlpha" values="0 0 0 0 0 0 0 0 0 0 0 0 0 0 0 0 0 0 127 0"/><feOffset/><feGaussianBlur stdDeviation="2.857"/><feComposite in2="hardAlpha" operator="out"/><feColorMatrix values="0 0 0 0 0 0 0 0 0 0 0 0 0 0 0 0 0 0 0.25 0"/><feBlend in2="BackgroundImageFix" result="effect1_dropShadow_28_2696"/><feBlend in="SourceGraphic" in2="effect1_dropShadow_28_2696" result="shape"/></filter><clipPath id="a"><rect width="325.001" height="40.001" fill="#fff" rx="8"/></clipPath></defs></svg>