<svg xmlns="http://www.w3.org/2000/svg" width="219" height="40" fill="none" viewBox="0 0 219 40"><g clip-path="url(#a)"><rect width="219" height="40" fill="url(#b)" rx="8"/><g filter="url(#c)"><path fill="#f1f1f1" d="M33.385 11.714V32c0 .79-.64 1.429-1.429 1.429H12.044c-.789 0-1.428-.64-1.428-1.429V8c0-.789.64-1.428 1.428-1.428h19.912c.79 0 1.429.64 1.429 1.428z"/><path fill="#231f20" d="M28.223 15.143h-14.6a.7.7 0 1 0 0 1.4h14.6a.7.7 0 1 0 0-1.4m2 3.429H13.777a.7.7 0 1 0 0 1.4h16.446a.7.7 0 1 0 0-1.4m0 3.428H13.777a.7.7 0 1 0 0 1.4h16.446a.7.7 0 1 0 0-1.4m0 3.429H13.777a.7.7 0 1 0 0 1.4h16.446a.7.7 0 1 0 0-1.4m-3.693 3.428H13.778a.7.7 0 1 0 0 1.4H26.53a.7.7 0 1 0 0-1.4m3.693 0h-.754a.7.7 0 1 0 0 1.4h.754a.7.7 0 1 0 0-1.4M16.07 8.572h-2.293a.7.7 0 1 0 0 1.4h2.292a.7.7 0 1 0 0-1.4m3.693 2h-5.985a.7.7 0 1 0 0 1.4h5.985a.7.7 0 1 0 0-1.4"/></g><g filter="url(#d)"><path fill="#e8e8e8" d="M43.358 26.5V14.136h4.407q1.437 0 2.385.495.953.495 1.425 1.37.47.87.47 2.011 0 1.136-.477 1.998-.47.857-1.424 1.334-.948.477-2.385.477h-3.338v-1.605h3.17q.905 0 1.472-.26.574-.26.84-.755.264-.495.265-1.189 0-.7-.272-1.213a1.76 1.76 0 0 0-.839-.785q-.567-.278-1.491-.278h-2.342V26.5zm6.104-5.578 3.054 5.578h-2.125l-2.994-5.578zm8.589 5.765q-1.37 0-2.36-.585a3.97 3.97 0 0 1-1.522-1.66q-.531-1.075-.531-2.518 0-1.425.53-2.511.539-1.087 1.498-1.697.966-.61 2.258-.61.785 0 1.521.26.737.26 1.322.815t.924 1.443q.338.882.338 2.143v.64h-7.371v-1.352h5.602q0-.713-.29-1.262a2.2 2.2 0 0 0-.815-.875q-.519-.32-1.219-.32-.76 0-1.328.374a2.5 2.5 0 0 0-.87.966 2.8 2.8 0 0 0-.301 1.286v1.056q0 .93.326 1.582.332.652.923.996.593.338 1.383.338.513 0 .935-.145.423-.15.731-.447.308-.295.47-.73l1.71.308a3.1 3.1 0 0 1-.737 1.322q-.525.561-1.322.875-.792.308-1.805.308m8.68.018a3.8 3.8 0 0 1-1.594-.326 2.7 2.7 0 0 1-1.13-.96q-.41-.627-.41-1.539 0-.785.302-1.292t.815-.803a4.3 4.3 0 0 1 1.147-.447q.634-.15 1.292-.229l1.352-.157q.52-.067.755-.211.235-.146.235-.471v-.042q0-.791-.447-1.226-.44-.434-1.316-.434-.91 0-1.436.404-.52.399-.719.887l-1.696-.386q.302-.845.881-1.364.586-.525 1.347-.761a5.3 5.3 0 0 1 1.6-.241q.555 0 1.176.132.629.127 1.172.471.549.345.9.984.35.634.35 1.648V26.5h-1.764v-1.268h-.072a2.6 2.6 0 0 1-.525.688 2.8 2.8 0 0 1-.9.562q-.55.223-1.316.223m.392-1.449q.748 0 1.28-.295.537-.296.814-.773.284-.483.284-1.032V21.96q-.096.097-.374.181a6 6 0 0 1-.622.14l-.682.102-.555.072q-.525.067-.96.224a1.65 1.65 0 0 0-.689.452q-.253.29-.253.773 0 .67.495 1.014.495.338 1.262.338m10.059 1.425q-1.123 0-2.005-.573-.875-.58-1.376-1.649-.495-1.074-.495-2.577t.501-2.572q.507-1.069 1.389-1.636.88-.567 1.998-.567.863 0 1.388.29.532.284.821.663.295.38.46.67h.108v-4.594h1.805V26.5h-1.763v-1.443h-.15a5 5 0 0 1-.472.676 2.6 2.6 0 0 1-.833.664q-.531.285-1.376.284m.398-1.54q.78 0 1.316-.41.543-.417.821-1.153.285-.735.284-1.714 0-.966-.278-1.69-.278-.725-.815-1.13t-1.328-.404q-.815 0-1.358.422-.543.423-.821 1.154a4.7 4.7 0 0 0-.272 1.648q0 .93.278 1.672t.82 1.177q.55.429 1.353.429m15.6-7.914v1.45h-5.065v-1.45zm-3.707-2.221h1.805v8.771q0 .525.157.791a.82.82 0 0 0 .404.356q.255.09.55.09.217 0 .38-.03l.254-.048.326 1.492q-.158.06-.447.12a3.5 3.5 0 0 1-.725.073 3.2 3.2 0 0 1-1.328-.254 2.3 2.3 0 0 1-.996-.82q-.38-.556-.38-1.395zm7.708 5.988V26.5h-1.805V14.136h1.78v4.6h.115q.326-.748.996-1.189.67-.44 1.751-.44.954 0 1.666.392.718.393 1.111 1.171.398.773.398 1.932V26.5h-1.805v-5.68q0-1.02-.525-1.582-.525-.568-1.46-.568-.642 0-1.148.272a1.96 1.96 0 0 0-.79.797q-.284.519-.284 1.255m12.418 5.693q-1.371 0-2.361-.585a3.97 3.97 0 0 1-1.521-1.66q-.531-1.075-.531-2.518 0-1.425.531-2.511.537-1.087 1.497-1.697.966-.61 2.258-.61.784 0 1.521.26t1.322.815.924 1.443q.338.882.338 2.143v.64h-7.371v-1.352h5.602q0-.713-.29-1.262a2.2 2.2 0 0 0-.815-.875q-.519-.32-1.219-.32-.76 0-1.328.374a2.5 2.5 0 0 0-.87.966 2.8 2.8 0 0 0-.301 1.286v1.056q0 .93.326 1.582.332.652.923.996.592.338 1.383.338.513 0 .935-.145.423-.15.731-.447.307-.295.471-.73l1.708.308a3.1 3.1 0 0 1-.736 1.322 3.6 3.6 0 0 1-1.322.875q-.791.308-1.805.308"/><path fill="#f1f1f1" d="M131.158 18.116h-3.018q-.06-.465-.248-.84a2 2 0 0 0-.495-.64 2.1 2.1 0 0 0-.73-.404 2.8 2.8 0 0 0-.924-.145q-.9 0-1.551.441-.646.44-.996 1.274-.344.832-.344 2.016 0 1.232.35 2.065.356.827.996 1.25.646.416 1.527.416.495 0 .9-.127.41-.126.718-.368.313-.247.513-.598.206-.356.284-.803l3.018.019a4.6 4.6 0 0 1-.477 1.617 5.2 5.2 0 0 1-1.08 1.455 5.1 5.1 0 0 1-1.678 1.039q-.984.386-2.258.386-1.678 0-3.007-.736-1.322-.743-2.088-2.162-.767-1.418-.767-3.453 0-2.04.779-3.459.778-1.419 2.107-2.155 1.328-.737 2.976-.737 1.123 0 2.076.314a5 5 0 0 1 1.679.906q.724.592 1.177 1.455.453.862.561 1.974m4.662 2.596V26h-2.952V13.636h2.856v4.794h.102a2.7 2.7 0 0 1 1.027-1.34q.718-.484 1.756-.483.978 0 1.703.434.724.428 1.123 1.214.404.785.398 1.835V26h-2.952v-5.33q.006-.774-.386-1.208-.393-.435-1.105-.435-.465 0-.821.206a1.4 1.4 0 0 0-.549.573q-.194.375-.2.906m10.47 5.445q-.888 0-1.576-.296a2.45 2.45 0 0 1-1.08-.905q-.393-.61-.393-1.528 0-.773.272-1.304t.749-.863a3.5 3.5 0 0 1 1.098-.501 7 7 0 0 1 1.328-.236q.791-.072 1.274-.15.483-.085.7-.236a.51.51 0 0 0 .224-.44v-.03q0-.465-.32-.72-.32-.252-.863-.253-.587 0-.942.254a1.1 1.1 0 0 0-.453.7l-2.723-.096a3.2 3.2 0 0 1 .622-1.51q.507-.67 1.389-1.05.887-.386 2.131-.386.887 0 1.636.21.748.206 1.304.605.555.392.857.965.308.575.308 1.31V26h-2.777v-1.292h-.073q-.247.471-.633.797-.381.326-.9.489a3.8 3.8 0 0 1-1.159.163m.912-1.932q.476 0 .857-.193a1.6 1.6 0 0 0 .616-.531 1.4 1.4 0 0 0 .229-.797v-.882a2 2 0 0 1-.308.121q-.175.054-.386.103t-.435.084l-.429.067a2.7 2.7 0 0 0-.712.205 1.13 1.13 0 0 0-.447.362.9.9 0 0 0-.151.52q0 .458.326.7.332.24.84.241m9.387-3.513V26h-2.952v-9.273h2.807v1.703h.103a2.6 2.6 0 0 1 1.05-1.334q.743-.49 1.769-.49.978 0 1.696.441.725.435 1.123 1.22.405.779.399 1.823V26h-2.952v-5.33q.006-.774-.393-1.208-.392-.435-1.093-.435-.464 0-.821.206a1.36 1.36 0 0 0-.543.573q-.187.375-.193.906m12.145 8.958q-1.322 0-2.264-.368-.942-.367-1.479-1.008a2.8 2.8 0 0 1-.646-1.449l2.795-.157q.078.284.29.495.217.212.561.326.35.115.821.115.743 0 1.226-.362.489-.357.489-1.25v-1.63h-.103a2.2 2.2 0 0 1-.531.767 2.5 2.5 0 0 1-.888.531q-.525.193-1.207.193a3.75 3.75 0 0 1-1.859-.47q-.84-.478-1.347-1.474-.501-1.002-.501-2.577 0-1.624.52-2.675.519-1.056 1.358-1.563a3.47 3.47 0 0 1 1.817-.508q.73 0 1.25.254.524.247.863.64.337.393.513.815h.085v-1.588h2.94v9.31q0 1.176-.592 1.985t-1.654 1.226q-1.064.423-2.457.422m.09-5.946q.537 0 .918-.284.38-.283.585-.815.206-.53.206-1.273 0-.755-.206-1.298-.199-.55-.585-.846a1.45 1.45 0 0 0-.918-.295q-.55 0-.929.302-.38.301-.58.85-.193.544-.193 1.287t.199 1.273q.2.532.574.815.38.285.929.284m10.829 2.451q-1.455 0-2.511-.573a3.96 3.96 0 0 1-1.618-1.649q-.562-1.074-.562-2.553 0-1.437.568-2.511.567-1.08 1.6-1.679 1.032-.604 2.432-.604.99 0 1.812.308a3.9 3.9 0 0 1 1.418.912q.599.604.93 1.491.332.882.332 2.023v.736h-8.059v-1.715h5.312a1.66 1.66 0 0 0-.223-.839 1.5 1.5 0 0 0-.598-.573 1.7 1.7 0 0 0-.863-.211q-.495 0-.888.223a1.68 1.68 0 0 0-.863 1.449v1.744q0 .568.224.997.223.421.633.658.411.235.978.235.392 0 .713-.109.32-.108.549-.32.23-.21.344-.519l2.711.079a3.35 3.35 0 0 1-.743 1.587q-.567.67-1.491 1.045-.924.368-2.137.368m8.861-12.539V26h-2.952V13.636zm6.207 12.54q-1.461 0-2.511-.599a4.1 4.1 0 0 1-1.612-1.678q-.561-1.08-.561-2.505 0-1.432.561-2.505.567-1.08 1.612-1.679 1.05-.604 2.511-.604 1.46 0 2.506.604 1.05.598 1.611 1.678.568 1.075.568 2.506 0 1.425-.568 2.505a4.07 4.07 0 0 1-1.611 1.678q-1.045.598-2.506.598m.018-2.229q.531 0 .9-.326.367-.326.561-.905.2-.58.199-1.34 0-.773-.199-1.353-.194-.58-.561-.905a1.3 1.3 0 0 0-.9-.326q-.55 0-.929.326-.375.326-.574.905-.193.58-.193 1.353 0 .76.193 1.34.2.58.574.905.38.327.929.326m10.502 5.723q-1.322 0-2.264-.368-.942-.367-1.479-1.008a2.8 2.8 0 0 1-.646-1.449l2.795-.157q.078.284.29.495.217.212.561.326.35.115.821.115.743 0 1.226-.362.489-.357.489-1.25v-1.63h-.103a2.2 2.2 0 0 1-.531.767 2.5 2.5 0 0 1-.888.531q-.525.193-1.207.193a3.76 3.76 0 0 1-1.86-.47q-.839-.478-1.346-1.474-.501-1.002-.501-2.577 0-1.624.519-2.675.519-1.056 1.359-1.563a3.47 3.47 0 0 1 1.817-.508q.73 0 1.249.254.526.247.864.64t.513.815h.084v-1.588h2.94v9.31q0 1.176-.591 1.985-.592.81-1.654 1.226-1.064.423-2.457.422m.09-5.946q.537 0 .918-.284.38-.283.585-.815.206-.53.206-1.273 0-.755-.206-1.298-.199-.55-.585-.846a1.45 1.45 0 0 0-.918-.295q-.549 0-.93.302-.38.301-.579.85-.193.544-.193 1.287t.199 1.273.573.815q.381.285.93.284"/></g></g><rect width="216.9" height="37.9" x="1.05" y="1.05" stroke="#fff" stroke-opacity=".15" stroke-width="2.1" rx="6.95"/><defs><filter id="c" width="39.429" height="39.429" x="2.286" y=".286" color-interpolation-filters="sRGB" filterUnits="userSpaceOnUse"><feFlood flood-opacity="0" result="BackgroundImageFix"/><feColorMatrix in="SourceAlpha" result="hardAlpha" values="0 0 0 0 0 0 0 0 0 0 0 0 0 0 0 0 0 0 127 0"/><feOffset/><feGaussianBlur stdDeviation="2.857"/><feComposite in2="hardAlpha" operator="out"/><feColorMatrix values="0 0 0 0 0 0 0 0 0 0 0 0 0 0 0 0 0 0 0.25 0"/><feBlend in2="BackgroundImageFix" result="effect1_dropShadow_7_203"/><feBlend in="SourceGraphic" in2="effect1_dropShadow_7_203" result="shape"/></filter><filter id="d" width="180.2" height="32.2" x="36.4" y="3.9" color-interpolation-filters="sRGB" filterUnits="userSpaceOnUse"><feFlood flood-opacity="0" result="BackgroundImageFix"/><feColorMatrix in="SourceAlpha" result="hardAlpha" values="0 0 0 0 0 0 0 0 0 0 0 0 0 0 0 0 0 0 127 0"/><feOffset/><feGaussianBlur stdDeviation="2.8"/><feComposite in2="hardAlpha" operator="out"/><feColorMatrix values="0 0 0 0 0 0 0 0 0 0 0 0 0 0 0 0 0 0 0.25 0"/><feBlend in2="BackgroundImageFix" result="effect1_dropShadow_7_203"/><feBlend in="SourceGraphic" in2="effect1_dropShadow_7_203" result="shape"/></filter><linearGradient id="b" x1="109.5" x2="109.5" y1="0" y2="40" gradientUnits="userSpaceOnUse"><stop stop-color="#303030"/><stop offset="1" stop-color="#1d1d1d"/></linearGradient><clipPath id="a"><rect width="219" height="40" fill="#fff" rx="8"/></clipPath></defs></svg>