<svg xmlns="http://www.w3.org/2000/svg" width="258" height="40" fill="none" viewBox="0 0 258 40"><rect width="258.001" height="40.001" fill="url(#a)" rx="8"/><rect width="255.858" height="37.858" x="1.071" y="1.071" stroke="#fff" stroke-opacity=".15" stroke-width="2.143" rx="6.929"/><g filter="url(#b)"><path fill="#4285fd" d="M20.604 26.67c.437 0 .83.346.83.822a.825.825 0 0 1-.83.822.826.826 0 0 1-.831-.822c0-.476.393-.823.83-.823m12.86-5.02a.826.826 0 0 1-.83-.822c0-.433.35-.822.83-.822.438 0 .831.346.831.822 0 .433-.393.822-.83.822m0-3.331c-1.4 0-2.537 1.125-2.537 2.51q0 .388.131.778l-8.355 4.413a2.54 2.54 0 0 0-2.1-1.081c-.962 0-1.836.562-2.274 1.384l-7.524-3.894c-.787-.432-1.4-1.687-1.312-2.899.044-.606.262-1.082.569-1.255.218-.13.437-.086.743.044l.044.043c2.012 1.038 8.53 4.413 8.792 4.543.438.173.657.26 1.4-.086l13.473-6.923c.219-.087.438-.26.438-.563 0-.39-.394-.562-.394-.562-.788-.347-1.969-.91-3.106-1.428-2.45-1.125-5.25-2.423-6.474-3.072-1.05-.563-1.925-.087-2.056 0l-.306.13c-5.555 2.769-12.904 6.36-13.342 6.62-.743.432-1.224 1.34-1.268 2.466-.088 1.774.83 3.635 2.143 4.284l7.961 4.067C18.285 29.049 19.38 30 20.604 30c1.4 0 2.493-1.082 2.537-2.466l8.749-4.673c.437.346 1.006.52 1.574.52 1.4 0 2.537-1.126 2.537-2.51a2.535 2.535 0 0 0-2.537-2.553"/></g><g filter="url(#c)"><path fill="#e8e8e8" d="M43.36 26.5V14.138h4.407q1.437 0 2.384.495.954.495 1.425 1.37.47.87.47 2.01 0 1.136-.476 1.999-.471.858-1.425 1.334-.948.477-2.384.477h-3.339v-1.606h3.17q.904 0 1.473-.26.573-.259.839-.754.265-.494.265-1.19 0-.699-.271-1.213a1.76 1.76 0 0 0-.84-.784q-.567-.279-1.49-.278h-2.343V26.5zm6.103-5.577 3.055 5.578h-2.125l-2.995-5.578zm8.59 5.765q-1.371 0-2.361-.586a3.97 3.97 0 0 1-1.522-1.66q-.53-1.074-.53-2.517 0-1.425.53-2.512.538-1.087 1.498-1.696.966-.61 2.257-.61.785 0 1.522.26.735.259 1.322.815.585.555.923 1.443.339.881.339 2.143v.64h-7.372v-1.353h5.603q0-.712-.29-1.261a2.2 2.2 0 0 0-.815-.876q-.52-.32-1.22-.32-.76 0-1.328.375a2.5 2.5 0 0 0-.869.966 2.8 2.8 0 0 0-.302 1.285v1.057q0 .93.326 1.582.332.651.924.996.591.338 1.382.338.513 0 .936-.145.423-.15.73-.447a1.94 1.94 0 0 0 .471-.73l1.709.308a3.1 3.1 0 0 1-.737 1.322 3.6 3.6 0 0 1-1.322.875q-.79.308-1.805.308m8.679.018a3.8 3.8 0 0 1-1.594-.326 2.7 2.7 0 0 1-1.129-.96q-.41-.628-.41-1.54 0-.784.301-1.291.303-.507.815-.803a4.3 4.3 0 0 1 1.147-.447q.635-.15 1.292-.23l1.353-.156q.519-.066.754-.212.236-.144.236-.47v-.043q0-.79-.447-1.225-.441-.435-1.316-.435-.912 0-1.437.405-.519.398-.718.887l-1.697-.386q.302-.845.882-1.365.585-.525 1.346-.76a5.3 5.3 0 0 1 1.6-.242q.555 0 1.177.133.627.128 1.171.47.549.345.9.985.35.634.35 1.648v6.158h-1.763v-1.268h-.073a2.6 2.6 0 0 1-.525.688 2.8 2.8 0 0 1-.9.562q-.548.222-1.315.223m.392-1.449q.75 0 1.28-.296.537-.295.815-.772.285-.483.284-1.033v-1.195q-.097.097-.375.181a6 6 0 0 1-.621.139l-.683.103-.555.072q-.525.066-.96.223a1.65 1.65 0 0 0-.688.453q-.255.289-.254.773 0 .67.495 1.014.495.338 1.262.338m10.06 1.425q-1.125 0-2.005-.574-.876-.579-1.377-1.648-.495-1.074-.495-2.578t.501-2.571q.508-1.07 1.389-1.636.882-.568 1.998-.568.864 0 1.389.29.532.284.82.664.296.38.46.67h.108v-4.594h1.805v12.364h-1.763v-1.443h-.15a5 5 0 0 1-.471.676 2.6 2.6 0 0 1-.833.664q-.532.285-1.377.284m.398-1.54q.779 0 1.316-.41.543-.417.82-1.153.284-.737.284-1.715 0-.966-.277-1.69-.278-.725-.815-1.129t-1.328-.404q-.815 0-1.359.422-.543.423-.82 1.153a4.7 4.7 0 0 0-.272 1.648q0 .93.277 1.673.28.742.821 1.177.55.428 1.353.428m15.599-7.914v1.449h-5.065v-1.449zm-3.707-2.222h1.805v8.772q0 .526.157.79.157.261.405.357.253.09.55.09.216 0 .38-.03l.253-.048.326 1.491q-.157.06-.447.121a3.5 3.5 0 0 1-.724.072 3.2 3.2 0 0 1-1.328-.253 2.3 2.3 0 0 1-.996-.821q-.38-.555-.38-1.395zm7.708 5.989v5.506h-1.805V14.137h1.78v4.6h.116q.326-.748.996-1.19.67-.44 1.75-.44.954 0 1.667.393a2.65 2.65 0 0 1 1.11 1.17q.399.774.399 1.933V26.5h-1.805v-5.68q0-1.02-.525-1.582-.526-.567-1.461-.567-.641 0-1.147.271a1.96 1.96 0 0 0-.791.797q-.285.52-.284 1.256m12.418 5.693q-1.37 0-2.36-.586a3.97 3.97 0 0 1-1.522-1.66q-.531-1.074-.531-2.517 0-1.425.531-2.512.537-1.087 1.497-1.696.966-.61 2.258-.61a4.6 4.6 0 0 1 1.522.26 3.7 3.7 0 0 1 1.322.815q.585.555.923 1.443.338.881.338 2.143v.64h-7.371v-1.353h5.603q0-.712-.29-1.261a2.2 2.2 0 0 0-.815-.876q-.52-.32-1.22-.32-.76 0-1.328.375a2.5 2.5 0 0 0-.869.966 2.8 2.8 0 0 0-.302 1.285v1.057q0 .93.326 1.582.331.651.924.996.591.338 1.382.338.513 0 .936-.145.423-.15.73-.447.309-.295.471-.73l1.709.308a3.1 3.1 0 0 1-.737 1.322 3.6 3.6 0 0 1-1.322.875q-.79.308-1.805.308"/><path fill="#4285fd" d="M124.507 26.5h-4.57V14.138h4.564q1.89 0 3.254.743a5.07 5.07 0 0 1 2.113 2.125q.742 1.382.742 3.308 0 1.932-.742 3.32a5.07 5.07 0 0 1-2.107 2.131q-1.37.737-3.254.737m-1.582-2.547h1.467q1.039 0 1.757-.35.724-.357 1.093-1.153.374-.803.374-2.137t-.374-2.125q-.375-.797-1.105-1.147-.724-.357-1.787-.356h-1.425zm13.759 2.723q-1.46 0-2.512-.598a4.13 4.13 0 0 1-1.612-1.678q-.561-1.08-.561-2.505 0-1.431.561-2.506.568-1.08 1.612-1.678 1.051-.603 2.512-.604 1.461 0 2.505.604 1.05.598 1.612 1.678.567 1.075.567 2.506 0 1.424-.567 2.505a4.07 4.07 0 0 1-1.612 1.678q-1.044.598-2.505.598m.018-2.228q.531 0 .899-.326.369-.326.562-.905.199-.58.199-1.34 0-.773-.199-1.353-.193-.58-.562-.905a1.3 1.3 0 0 0-.899-.326q-.549 0-.93.326-.374.326-.573.905-.194.58-.194 1.352 0 .762.194 1.34.199.58.573.906.381.326.93.326m10.507 2.228q-1.467 0-2.517-.604a4.1 4.1 0 0 1-1.606-1.678q-.561-1.08-.562-2.5 0-1.424.562-2.499a4.1 4.1 0 0 1 1.612-1.684q1.05-.603 2.505-.604 1.286 0 2.24.465a3.56 3.56 0 0 1 1.497 1.316q.543.846.573 1.986h-2.759q-.084-.712-.482-1.117-.393-.404-1.027-.404-.513 0-.899.29-.387.283-.604.845-.211.555-.211 1.376t.211 1.389q.217.561.604.851.386.285.899.284.41 0 .725-.175.32-.175.525-.513.205-.345.259-.834h2.759q-.042 1.147-.573 2.005a3.55 3.55 0 0 1-1.479 1.334q-.948.47-2.252.47m11.798-4.178v-5.27h2.946v9.273h-2.813v-1.727h-.097a2.7 2.7 0 0 1-1.051 1.352q-.736.495-1.78.495-.948 0-1.667-.434a2.96 2.96 0 0 1-1.116-1.214q-.399-.785-.405-1.835v-5.91h2.952v5.33q.006.756.399 1.19.392.434 1.068.434.441 0 .791-.193.356-.2.561-.573.212-.381.212-.918m4.825 4.003v-9.273h2.807v1.702h.103a2.64 2.64 0 0 1 .977-1.334q.689-.489 1.643-.489.965 0 1.654.495.687.495.875 1.328h.097a2.4 2.4 0 0 1 1.014-1.322q.755-.5 1.781-.5 1.315 0 2.137.844.82.84.821 2.307v6.24h-2.952v-5.566q0-.694-.356-1.057-.357-.368-.924-.368-.61 0-.96.398-.344.393-.344 1.057V26.5h-2.837v-5.597q0-.645-.351-1.02-.35-.374-.923-.374a1.25 1.25 0 0 0-1.147.706 1.8 1.8 0 0 0-.163.797V26.5zm20.072.175q-1.454 0-2.511-.574a3.97 3.97 0 0 1-1.618-1.648q-.561-1.074-.561-2.553 0-1.437.567-2.512.568-1.08 1.6-1.678 1.032-.603 2.433-.604.99 0 1.811.308.82.308 1.419.912.597.604.929 1.49.332.882.332 2.023v.737h-8.059v-1.715h5.313a1.66 1.66 0 0 0-.224-.839 1.5 1.5 0 0 0-.597-.573 1.73 1.73 0 0 0-.864-.212q-.495 0-.887.224a1.68 1.68 0 0 0-.863 1.449v1.744q0 .567.223.996.223.423.634.658t.978.236q.392 0 .712-.109.32-.108.55-.32.228-.21.344-.52l2.71.08a3.35 3.35 0 0 1-.742 1.587q-.569.67-1.491 1.044-.924.369-2.138.369m8.861-5.464v5.289h-2.952v-9.273h2.807v1.702h.103a2.6 2.6 0 0 1 1.05-1.334q.743-.489 1.769-.489.978 0 1.697.44.725.435 1.122 1.22.405.78.399 1.823v5.91h-2.952v-5.33q.006-.773-.393-1.207-.391-.435-1.092-.435-.465 0-.821.205a1.36 1.36 0 0 0-.544.574q-.186.375-.193.905m13.057-3.984v2.173h-5.85v-2.173zm-4.625-2.222h2.952v8.579q0 .272.085.44.09.165.259.236.17.066.405.066.169 0 .356-.03.193-.036.29-.06l.447 2.13q-.211.061-.598.152a5 5 0 0 1-.912.115q-1.038.048-1.781-.242a2.3 2.3 0 0 1-1.128-.918q-.387-.621-.375-1.563zm8.745 11.652q-.888 0-1.576-.296a2.45 2.45 0 0 1-1.08-.906q-.393-.609-.393-1.527 0-.773.272-1.304.271-.531.748-.863a3.5 3.5 0 0 1 1.099-.501 7 7 0 0 1 1.328-.236q.79-.072 1.274-.15.483-.086.7-.236a.51.51 0 0 0 .224-.44v-.031q0-.465-.32-.718-.32-.255-.864-.254-.585 0-.941.254a1.1 1.1 0 0 0-.453.7l-2.723-.097a3.2 3.2 0 0 1 .622-1.509q.507-.67 1.389-1.05.886-.387 2.131-.387.887 0 1.636.212.748.205 1.304.603.555.393.857.966.308.574.308 1.31v6.303h-2.777V25.21h-.073q-.247.471-.634.797-.38.325-.899.489a3.8 3.8 0 0 1-1.159.163m.911-1.932q.477 0 .858-.193.385-.194.615-.532.23-.344.23-.797v-.88a2 2 0 0 1-.308.12q-.176.054-.386.103-.212.048-.435.084l-.429.066a2.7 2.7 0 0 0-.712.206 1.13 1.13 0 0 0-.447.362.9.9 0 0 0-.151.52q0 .457.326.7.333.24.839.24m11.67-7.498v2.173h-5.85v-2.173zm-4.625-2.222h2.953v8.579q0 .272.084.44.09.165.26.236a1.1 1.1 0 0 0 .404.066q.17 0 .356-.03.194-.036.29-.06l.447 2.13q-.211.061-.598.152-.38.09-.911.115-1.039.048-1.781-.242a2.3 2.3 0 0 1-1.129-.918q-.387-.621-.375-1.563zm6.131 11.495v-9.273h2.952v9.273zm1.479-10.354q-.622 0-1.069-.41a1.32 1.32 0 0 1-.446-1.002q0-.58.446-.99a1.5 1.5 0 0 1 1.069-.417 1.5 1.5 0 0 1 1.069.417q.446.41.446.99 0 .585-.446 1.002-.44.41-1.069.41m7.68 10.529q-1.46 0-2.511-.598a4.13 4.13 0 0 1-1.612-1.678q-.561-1.08-.561-2.505 0-1.431.561-2.506.568-1.08 1.612-1.678 1.05-.603 2.511-.604 1.461 0 2.506.604 1.05.598 1.612 1.678.567 1.075.567 2.506 0 1.424-.567 2.505a4.1 4.1 0 0 1-1.612 1.678q-1.045.598-2.506.598m.019-2.228q.531 0 .899-.326.369-.326.562-.905.199-.58.199-1.34 0-.773-.199-1.353-.193-.58-.562-.905a1.3 1.3 0 0 0-.899-.326q-.55 0-.93.326-.375.326-.574.905a4.3 4.3 0 0 0-.193 1.352q0 .762.193 1.34.2.58.574.906.38.326.93.326m9.13-3.236v5.289h-2.952v-9.273h2.808v1.702h.102a2.6 2.6 0 0 1 1.051-1.334q.742-.489 1.768-.489.978 0 1.697.44.724.435 1.123 1.22.404.78.398 1.823v5.91h-2.952v-5.33q.006-.773-.392-1.207-.393-.435-1.093-.435-.465 0-.821.205a1.36 1.36 0 0 0-.543.574q-.188.375-.194.905"/></g><defs><filter id="b" width="39.202" height="39.202" x="2.4" y=".4" color-interpolation-filters="sRGB" filterUnits="userSpaceOnUse"><feFlood flood-opacity="0" result="BackgroundImageFix"/><feColorMatrix in="SourceAlpha" result="hardAlpha" values="0 0 0 0 0 0 0 0 0 0 0 0 0 0 0 0 0 0 127 0"/><feOffset/><feGaussianBlur stdDeviation="2.8"/><feComposite in2="hardAlpha" operator="out"/><feColorMatrix values="0 0 0 0 0 0 0 0 0 0 0 0 0 0 0 0 0 0 0.25 0"/><feBlend in2="BackgroundImageFix" result="effect1_dropShadow_28_2402"/><feBlend in="SourceGraphic" in2="effect1_dropShadow_28_2402" result="shape"/></filter><filter id="c" width="219.429" height="32.429" x="36.287" y="3.786" color-interpolation-filters="sRGB" filterUnits="userSpaceOnUse"><feFlood flood-opacity="0" result="BackgroundImageFix"/><feColorMatrix in="SourceAlpha" result="hardAlpha" values="0 0 0 0 0 0 0 0 0 0 0 0 0 0 0 0 0 0 127 0"/><feOffset/><feGaussianBlur stdDeviation="2.857"/><feComposite in2="hardAlpha" operator="out"/><feColorMatrix values="0 0 0 0 0 0 0 0 0 0 0 0 0 0 0 0 0 0 0.25 0"/><feBlend in2="BackgroundImageFix" result="effect1_dropShadow_28_2402"/><feBlend in="SourceGraphic" in2="effect1_dropShadow_28_2402" result="shape"/></filter><linearGradient id="a" x1="129.001" x2="129.001" y1="0" y2="40.001" gradientUnits="userSpaceOnUse"><stop stop-color="#121e34"/><stop offset="1" stop-color="#0a121f"/></linearGradient></defs></svg>