<svg xmlns="http://www.w3.org/2000/svg" width="227" height="40" fill="none" viewBox="0 0 227 40"><g clip-path="url(#a)"><rect width="227" height="40" fill="url(#b)" rx="8"/><g filter="url(#c)"><g stroke="#3fb950" stroke-linecap="round" stroke-linejoin="round" stroke-width="2.86" clip-path="url(#d)"><path d="M22 31.667c6.443 0 11.667-5.224 11.667-11.667S28.443 8.333 22 8.333 10.333 13.557 10.333 20 15.557 31.667 22 31.667"/><path fill="#3fb950" d="M22 21.167a1.167 1.167 0 1 0 0-2.334 1.167 1.167 0 0 0 0 2.334"/></g></g><g filter="url(#e)"><path fill="#e8e8e8" d="M50.102 17.384q-.097-.857-.797-1.328-.7-.477-1.763-.477-.76 0-1.316.242-.555.235-.863.652a1.54 1.54 0 0 0-.302.935q0 .441.205.761.21.32.55.537.343.212.736.357.392.139.755.229l1.207.314q.591.144 1.213.392t1.153.652q.531.405.858 1.002.331.599.332 1.431 0 1.05-.544 1.866-.538.814-1.563 1.285-1.02.471-2.47.471-1.388 0-2.402-.44t-1.588-1.25q-.573-.814-.634-1.932h1.872q.053.671.434 1.117.387.44.984.658.605.21 1.322.211.792 0 1.407-.247.622-.255.978-.7.356-.453.356-1.057 0-.549-.314-.9-.308-.35-.839-.58a8 8 0 0 0-1.189-.404l-1.461-.398q-1.485-.405-2.354-1.19-.864-.785-.864-2.076 0-1.068.58-1.865.58-.798 1.57-1.238.99-.447 2.233-.447 1.256 0 2.216.441.965.44 1.521 1.213.555.768.58 1.763zm8.048 9.303q-1.37 0-2.36-.585a3.97 3.97 0 0 1-1.521-1.66q-.532-1.075-.532-2.518 0-1.425.532-2.511.537-1.087 1.497-1.697.965-.61 2.258-.61.785 0 1.52.26.738.26 1.323.815t.924 1.443q.338.882.338 2.143v.64h-7.371v-1.352h5.602q0-.713-.29-1.262a2.2 2.2 0 0 0-.815-.875q-.52-.32-1.22-.32-.76 0-1.327.374a2.5 2.5 0 0 0-.87.966 2.8 2.8 0 0 0-.302 1.286v1.056q0 .93.326 1.582.333.652.924.996.591.338 1.382.338.514 0 .936-.145.423-.15.73-.447a1.94 1.94 0 0 0 .471-.73l1.709.308a3.1 3.1 0 0 1-.737 1.322q-.525.561-1.322.875-.79.308-1.805.308m9.978 0q-1.37 0-2.36-.585a3.97 3.97 0 0 1-1.522-1.66q-.531-1.075-.531-2.518 0-1.425.531-2.511.537-1.087 1.497-1.697.966-.61 2.258-.61.784 0 1.521.26t1.322.815.924 1.443q.338.882.338 2.143v.64h-7.37v-1.352h5.601q0-.713-.29-1.262a2.2 2.2 0 0 0-.814-.875q-.52-.32-1.22-.32-.76 0-1.328.374a2.5 2.5 0 0 0-.87.966 2.8 2.8 0 0 0-.301 1.286v1.056q0 .93.326 1.582.333.652.923.996.593.338 1.383.338.513 0 .936-.145.422-.15.73-.447a1.94 1.94 0 0 0 .471-.73l1.709.308a3.1 3.1 0 0 1-.737 1.322 3.6 3.6 0 0 1-1.322.875q-.79.308-1.805.308m14.808-9.46v1.45h-5.065v-1.45zm-3.706-2.221h1.805v8.771q0 .525.157.791a.82.82 0 0 0 .404.356q.254.09.55.09.216 0 .38-.03l.254-.048.326 1.492q-.157.06-.447.12a3.5 3.5 0 0 1-.725.073 3.2 3.2 0 0 1-1.328-.254 2.3 2.3 0 0 1-.996-.82q-.38-.556-.38-1.395zm7.707 5.988V26.5h-1.805V14.136h1.781v4.6h.115q.326-.748.996-1.189.67-.44 1.75-.44.955 0 1.667.392.72.393 1.11 1.171.4.773.4 1.932V26.5h-1.806v-5.68q0-1.02-.525-1.582-.525-.568-1.461-.568-.64 0-1.147.272a1.96 1.96 0 0 0-.79.797q-.285.519-.285 1.255m12.418 5.693q-1.37 0-2.36-.585a3.97 3.97 0 0 1-1.521-1.66q-.532-1.075-.532-2.518 0-1.425.532-2.511.537-1.087 1.497-1.697.966-.61 2.258-.61.785 0 1.521.26.737.26 1.322.815t.924 1.443q.338.882.338 2.143v.64h-7.371v-1.352h5.602q0-.713-.29-1.262a2.2 2.2 0 0 0-.815-.875q-.518-.32-1.22-.32-.76 0-1.328.374a2.5 2.5 0 0 0-.869.966 2.8 2.8 0 0 0-.302 1.286v1.056q0 .93.326 1.582.333.652.924.996.591.338 1.383.338.513 0 .935-.145.422-.15.731-.447.307-.295.471-.73l1.708.308a3.1 3.1 0 0 1-.737 1.322q-.525.561-1.322.875-.79.308-1.805.308"/><path fill="#fff" d="M112.924 13.636V26h-2.988V13.636zm9.972 5.923-2.711.072a1 1 0 0 0-.229-.513 1.24 1.24 0 0 0-.489-.356 1.7 1.7 0 0 0-.689-.133q-.513 0-.875.205-.356.205-.35.556a.6.6 0 0 0 .217.47q.23.2.815.32l1.787.338q1.389.265 2.065.882.681.616.688 1.63-.006.954-.568 1.66-.555.706-1.521 1.099-.966.386-2.209.386-1.986 0-3.134-.815-1.14-.821-1.304-2.197l2.916-.073q.097.507.501.773.405.265 1.033.265.567 0 .923-.21.357-.213.363-.562a.6.6 0 0 0-.278-.501q-.272-.194-.851-.302l-1.618-.308q-1.395-.253-2.077-.936-.682-.688-.676-1.75-.006-.93.495-1.588.501-.664 1.425-1.014.923-.35 2.179-.35 1.884 0 2.97.79 1.087.785 1.202 2.162m9.778 0-2.711.072a1 1 0 0 0-.229-.513 1.24 1.24 0 0 0-.489-.356 1.7 1.7 0 0 0-.688-.133q-.513 0-.876.205-.356.205-.35.556a.6.6 0 0 0 .217.47q.23.2.815.32l1.787.338q1.389.265 2.065.882.682.616.688 1.63-.006.954-.567 1.66-.556.706-1.522 1.099-.965.386-2.209.386-1.987 0-3.133-.815-1.142-.821-1.304-2.197l2.916-.073q.096.507.501.773.404.265 1.032.265.567 0 .924-.21.356-.213.362-.562a.6.6 0 0 0-.278-.501q-.272-.194-.851-.302l-1.618-.308q-1.395-.253-2.077-.936-.682-.688-.676-1.75-.006-.93.495-1.588.501-.664 1.425-1.014t2.179-.35q1.884 0 2.97.79 1.087.785 1.202 2.162m7.665 2.438v-5.27h2.946V26h-2.813v-1.727h-.097a2.7 2.7 0 0 1-1.05 1.353q-.737.495-1.781.495-.948 0-1.666-.435a2.96 2.96 0 0 1-1.117-1.213q-.398-.785-.404-1.836v-5.91h2.952v5.33q.006.755.398 1.19.393.435 1.069.435.44 0 .79-.193.357-.2.562-.574.211-.38.211-.918m9.16 4.178q-1.455 0-2.512-.573a3.97 3.97 0 0 1-1.618-1.649q-.561-1.074-.561-2.553 0-1.437.568-2.511.567-1.08 1.599-1.679 1.033-.604 2.433-.604.99 0 1.811.308.822.309 1.419.912.597.604.93 1.491.332.882.332 2.023v.736h-8.06v-1.715h5.313a1.66 1.66 0 0 0-.224-.839 1.5 1.5 0 0 0-.597-.573 1.7 1.7 0 0 0-.863-.211q-.495 0-.888.223a1.68 1.68 0 0 0-.863 1.449v1.744q0 .568.223.997.223.421.634.658.411.235.978.235.393 0 .712-.109a1.5 1.5 0 0 0 .55-.32q.229-.21.344-.519l2.71.079a3.35 3.35 0 0 1-.742 1.587q-.567.67-1.491 1.045-.924.368-2.137.368m14.795-9.448v2.174h-5.85v-2.174zm-4.625-2.221h2.953v8.578q0 .272.084.44.09.165.26.236a1.1 1.1 0 0 0 .404.067q.17 0 .356-.03.194-.038.29-.06l.447 2.13q-.211.06-.598.151-.38.09-.911.115-1.039.048-1.781-.242a2.3 2.3 0 0 1-1.129-.917q-.387-.622-.375-1.564zM165.8 26v-9.273h2.868v1.69h.096q.254-.917.827-1.364a2.1 2.1 0 0 1 1.334-.453q.206 0 .423.03.218.025.404.08v2.565a3 3 0 0 0-.555-.115 5 5 0 0 0-.604-.042q-.525 0-.948.235a1.7 1.7 0 0 0-.658.646 1.9 1.9 0 0 0-.235.966V26zm9.421.157q-.888 0-1.576-.296a2.46 2.46 0 0 1-1.081-.905q-.392-.61-.392-1.528 0-.773.272-1.304.271-.531.748-.863a3.5 3.5 0 0 1 1.099-.501 7 7 0 0 1 1.328-.236q.79-.072 1.274-.15.483-.085.7-.236a.51.51 0 0 0 .223-.44v-.03q0-.465-.319-.72-.321-.252-.864-.253-.585 0-.942.254a1.12 1.12 0 0 0-.452.7l-2.723-.096a3.2 3.2 0 0 1 .622-1.51q.507-.67 1.388-1.05.888-.386 2.131-.386.888 0 1.636.21.749.206 1.304.605.556.392.858.965.307.575.307 1.31V26h-2.776v-1.292h-.073q-.247.471-.634.797-.38.326-.899.489a3.8 3.8 0 0 1-1.159.163m.911-1.932q.477 0 .857-.193.387-.194.616-.531.23-.344.23-.797v-.882a2 2 0 0 1-.308.121q-.175.054-.387.103-.211.048-.434.084l-.429.067a2.7 2.7 0 0 0-.712.205 1.13 1.13 0 0 0-.447.362.9.9 0 0 0-.151.52q0 .458.326.7.332.24.839.241m10.764 1.95q-1.467 0-2.517-.604a4.1 4.1 0 0 1-1.606-1.678q-.562-1.08-.562-2.5 0-1.424.562-2.498a4.1 4.1 0 0 1 1.612-1.685q1.05-.604 2.505-.604 1.286 0 2.24.465a3.56 3.56 0 0 1 1.497 1.316q.543.846.573 1.987h-2.759q-.084-.713-.482-1.117-.393-.405-1.027-.405-.513 0-.899.29-.387.284-.604.845-.211.556-.211 1.377 0 .82.211 1.388.217.561.604.851.386.285.899.284.41 0 .725-.175.32-.176.525-.513.205-.344.259-.833h2.759q-.042 1.147-.573 2.004a3.55 3.55 0 0 1-1.479 1.334q-.948.471-2.252.471m8.477-2.608.012-3.52h.411l2.608-3.32h3.344l-3.875 4.757h-.779zM192.711 26V13.636h2.952V26zm5.759 0-2.427-3.852 1.944-2.094L201.881 26zm8.288.175q-1.456 0-2.512-.573a3.97 3.97 0 0 1-1.618-1.649q-.561-1.074-.561-2.553 0-1.437.567-2.511.568-1.08 1.6-1.679 1.032-.604 2.433-.604.99 0 1.811.308.82.309 1.419.912.597.604.929 1.491.332.882.332 2.023v.736h-8.059v-1.715h5.313a1.66 1.66 0 0 0-.224-.839 1.5 1.5 0 0 0-.597-.573 1.73 1.73 0 0 0-.864-.211q-.494 0-.887.223a1.68 1.68 0 0 0-.863 1.449v1.744q0 .568.223.997.223.421.634.658.411.235.978.235.392 0 .712-.109a1.5 1.5 0 0 0 .55-.32q.229-.21.344-.519l2.71.079a3.35 3.35 0 0 1-.742 1.587q-.569.67-1.491 1.045-.925.368-2.137.368m5.908-.175v-9.273h2.868v1.69h.096q.254-.917.827-1.364a2.1 2.1 0 0 1 1.335-.453q.204 0 .422.03.217.025.405.08v2.565a3 3 0 0 0-.556-.115 5 5 0 0 0-.604-.042q-.525 0-.947.235a1.7 1.7 0 0 0-.658.646 1.9 1.9 0 0 0-.236.966V26z"/></g></g><rect width="224.9" height="37.9" x="1.05" y="1.05" stroke="#fff" stroke-opacity=".15" stroke-width="2.1" rx="6.95"/><defs><clipPath id="a"><rect width="227" height="40" fill="#fff" rx="8"/></clipPath><clipPath id="d"><path fill="#fff" d="M8 6h28v28H8z"/></clipPath><filter id="c" width="39.429" height="39.429" x="2.286" y=".286" color-interpolation-filters="sRGB" filterUnits="userSpaceOnUse"><feFlood flood-opacity="0" result="BackgroundImageFix"/><feColorMatrix in="SourceAlpha" result="hardAlpha" values="0 0 0 0 0 0 0 0 0 0 0 0 0 0 0 0 0 0 127 0"/><feOffset/><feGaussianBlur stdDeviation="2.857"/><feComposite in2="hardAlpha" operator="out"/><feColorMatrix values="0 0 0 0 0 0 0 0 0 0 0 0 0 0 0 0 0 0 0.25 0"/><feBlend in2="BackgroundImageFix" result="effect1_dropShadow_8_39"/><feBlend in="SourceGraphic" in2="effect1_dropShadow_8_39" result="shape"/></filter><filter id="e" width="188.2" height="32.2" x="36.4" y="3.9" color-interpolation-filters="sRGB" filterUnits="userSpaceOnUse"><feFlood flood-opacity="0" result="BackgroundImageFix"/><feColorMatrix in="SourceAlpha" result="hardAlpha" values="0 0 0 0 0 0 0 0 0 0 0 0 0 0 0 0 0 0 127 0"/><feOffset/><feGaussianBlur stdDeviation="2.8"/><feComposite in2="hardAlpha" operator="out"/><feColorMatrix values="0 0 0 0 0 0 0 0 0 0 0 0 0 0 0 0 0 0 0.25 0"/><feBlend in2="BackgroundImageFix" result="effect1_dropShadow_8_39"/><feBlend in="SourceGraphic" in2="effect1_dropShadow_8_39" result="shape"/></filter><linearGradient id="b" x1="113.5" x2="113.5" y1="0" y2="40" gradientUnits="userSpaceOnUse"><stop stop-color="#181f29"/><stop offset="1" stop-color="#0f131a"/></linearGradient></defs></svg>