<svg xmlns="http://www.w3.org/2000/svg" width="230" height="40" fill="none" viewBox="0 0 230 40"><rect width="230.001" height="40.001" fill="url(#a)" rx="8"/><rect width="227.858" height="37.858" x="1.071" y="1.071" stroke="#fff" stroke-opacity=".15" stroke-width="2.143" rx="6.929"/><g fill="#00d845" filter="url(#b)"><path d="M20.608 6.08c-4.831.48-9.026 3.377-11.198 7.74a14 14 0 0 0-1.373 4.704L8 18.886h1.248c.687 0 1.249-.019 1.255-.05.068-1.016.518-2.611 1.06-3.751 1.93-4.039 5.943-6.575 10.387-6.575 1.885 0 3.483.368 5.118 1.178a11.4 11.4 0 0 1 4.494 3.932c.506.754 1.205 2.131 1.118 2.206-.032.031-.53.18-1.105.33l-1.049.28-.274-.535a9.38 9.38 0 0 0-4.114-4.132c-.63-.318-1.28-.56-1.38-.523-.043.012-.099.162-.118.33-.025.162-.093.592-.162.954-.062.36-.131.76-.15.884l-.043.231.53.25c1.823.847 3.14 2.417 3.695 4.399.162.573.181.704.181 1.714s-.019 1.14-.18 1.713c-.332 1.172-.918 2.207-1.724 3.017-.461.467-1.142.972-1.635 1.227-.168.081-.3.187-.3.231.007.106.6 2.287.643 2.324.057.057 1.111-.504 1.73-.916.773-.517 1.847-1.589 2.365-2.361a9.6 9.6 0 0 0 1.454-3.372c.119-.548.144-.829.144-1.845 0-1.01.012-1.202.094-1.221.761-.218 2.078-.542 2.103-.523.044.05.112 1.09.112 1.726 0 .86-.08 1.701-.218 2.306-.063.286-.113.53-.106.535.006.013.53.2 1.16.43.875.318 1.162.4 1.2.337.099-.168.367-1.814.436-2.692.144-1.963-.2-4.22-.918-5.995-2.022-5.004-6.441-8.332-11.759-8.85-1.067-.105-1.63-.105-2.684 0"/><path d="M20.92 10.828c-.455.044-1.473.287-1.99.468-2.554.897-4.657 2.947-5.606 5.471-.736 1.95-.761 4.4-.062 6.313l.156.424-.574.33c-1.149.667-1.355.785-1.399.785-.056 0-.33-.691-.505-1.277-.2-.698-.412-1.708-.437-2.169-.006-.025-.568-.043-1.255-.043H8l.037.355c.331 3.222 1.817 6.263 4.182 8.562 5.55 5.385 14.406 5.254 19.818-.293a14.7 14.7 0 0 0 1.916-2.461c.43-.717.762-1.39.712-1.44-.025-.025-.325-.143-.668-.268-.343-.124-.805-.293-1.03-.367-.225-.081-.45-.169-.5-.187-.068-.025-.155.08-.33.417-1.049 2.044-3.009 3.901-5.224 4.96-1.892.898-3.814 1.235-6.092 1.054-2.229-.175-4.713-1.271-6.517-2.873-.512-.455-1.254-1.253-1.535-1.651-.094-.137-.144-.1 1.304-.941l.543-.318.768.766c1.373 1.378 2.846 2.188 4.731 2.611.556.119.824.144 1.848.144.655 0 1.21-.019 1.23-.038.024-.018-.076-.455-.213-.966l-.318-1.184-.069-.255-.88-.038c-1.66-.068-2.977-.592-4.213-1.676a6 6 0 0 1-.506-.492l-.125-.162 1.38-.798 1.386-.791 1.448 1.533 1.666-.343 1.667-.337 2.247-2.243-.2-.736c-.125-.467-.225-.729-.274-.729s-.556.125-1.13.28l-1.049.287-.437.424c-.474.461-.405.443-1.435.536l-.375.038-.45-.443a6 6 0 0 1-.455-.461c0-.019-.069-.28-.15-.592l-.15-.567.406-.542c.225-.306.418-.555.43-.567.007-.013.275-.094.6-.175l.58-.15.793-.79c.443-.437.8-.823.8-.86s-.238-.3-.525-.587l-.524-.517-1.517.411-1.523.412-.312.324c-.169.18-.525.567-.78.86-.256.286-.581.654-.718.81-.53.598-.512.417-.181 1.552.156.554.28 1.022.268 1.028a105 105 0 0 1-2.122 1.228c-.3.168-.568.305-.606.305-.03 0-.124-.262-.206-.58-.13-.492-.15-.716-.15-1.632.007-.966.02-1.116.182-1.683.337-1.197.917-2.2 1.754-3.035 1.148-1.147 2.659-1.85 4.194-1.957.65-.05.6 0 .705-.68.038-.242.094-.547.125-.685.031-.137.069-.361.088-.498.024-.137.056-.343.075-.455l.037-.2-.643.013c-.356 0-.749.019-.868.031"/></g><g filter="url(#c)"><path fill="#e8e8e8" d="M53.629 18.158h-1.884a2.88 2.88 0 0 0-1.129-1.842 3.1 3.1 0 0 0-.96-.483 3.8 3.8 0 0 0-1.117-.163q-1.068 0-1.913.538-.84.537-1.328 1.575-.483 1.04-.483 2.536 0 1.509.483 2.547.489 1.04 1.334 1.57a3.5 3.5 0 0 0 1.901.531q.586 0 1.111-.157a3.2 3.2 0 0 0 .96-.477q.429-.313.724-.766a2.9 2.9 0 0 0 .417-1.05l1.884.005a5 5 0 0 1-.586 1.679 4.6 4.6 0 0 1-1.105 1.316q-.67.55-1.533.85a5.7 5.7 0 0 1-1.884.303q-1.605 0-2.861-.76-1.256-.768-1.98-2.192-.72-1.425-.719-3.4 0-1.98.725-3.398.724-1.425 1.98-2.185 1.256-.767 2.855-.767.984 0 1.836.284a4.8 4.8 0 0 1 1.539.82q.682.538 1.129 1.317.447.773.604 1.769m3.892 2.837v5.506h-1.805V14.137h1.78v4.6h.115q.327-.748.997-1.19.67-.44 1.75-.44.954 0 1.667.393.718.392 1.11 1.17.399.774.399 1.933V26.5h-1.805v-5.68q0-1.02-.526-1.582-.525-.567-1.46-.567-.64 0-1.148.271a1.96 1.96 0 0 0-.79.797q-.284.52-.284 1.256m12.418 5.693q-1.37 0-2.36-.586a3.97 3.97 0 0 1-1.522-1.66q-.531-1.074-.531-2.517 0-1.425.531-2.512.537-1.087 1.497-1.696.966-.61 2.258-.61.784 0 1.521.26.736.259 1.323.815.585.555.923 1.443.338.881.338 2.143v.64h-7.37v-1.353h5.601q0-.712-.29-1.261a2.2 2.2 0 0 0-.814-.876q-.52-.32-1.22-.32-.76 0-1.328.375a2.5 2.5 0 0 0-.87.966 2.8 2.8 0 0 0-.301 1.285v1.057q0 .93.326 1.582.332.651.924.996.591.338 1.382.338.513 0 .936-.145.422-.15.73-.447.308-.295.471-.73l1.709.308a3.1 3.1 0 0 1-.737 1.322q-.525.561-1.322.875-.79.308-1.805.308m9.887 0q-1.347 0-2.318-.61a4.04 4.04 0 0 1-1.485-1.696q-.52-1.08-.52-2.475 0-1.413.532-2.494a4.07 4.07 0 0 1 1.497-1.696q.966-.61 2.276-.61 1.056 0 1.883.393.828.386 1.334 1.086.514.701.61 1.636h-1.757a2.1 2.1 0 0 0-.664-1.123q-.512-.47-1.376-.47-.755 0-1.322.398-.562.393-.876 1.123-.313.724-.313 1.714 0 1.015.307 1.751.308.736.87 1.141.567.405 1.334.404.513 0 .93-.187.422-.193.706-.549.29-.357.404-.857h1.757q-.097.9-.585 1.606a3.37 3.37 0 0 1-1.31 1.11q-.816.405-1.914.405m7.4-3.332-.013-2.204h.315l3.694-3.924h2.161l-4.213 4.467h-.284zm-1.66 3.145V14.137h1.805v12.364zm5.855 0-3.32-4.407 1.244-1.262 4.292 5.669zm12.012.187q-1.304 0-2.276-.598a4.03 4.03 0 0 1-1.509-1.672q-.537-1.074-.537-2.511 0-1.443.537-2.524t1.509-1.678 2.276-.598 2.276.598a4 4 0 0 1 1.509 1.678q.538 1.08.538 2.524 0 1.436-.538 2.511a4.03 4.03 0 0 1-1.509 1.672q-.972.598-2.276.598m.006-1.515q.846 0 1.401-.447t.821-1.19q.272-.742.272-1.635 0-.888-.272-1.63-.266-.75-.821-1.202-.555-.453-1.401-.453-.85 0-1.412.453-.556.453-.827 1.202a4.8 4.8 0 0 0-.266 1.63q0 .892.266 1.636.271.742.827 1.189.561.447 1.412.447m12.205-2.518v-5.427h1.812v9.273h-1.775v-1.606h-.097a2.9 2.9 0 0 1-1.026 1.237q-.7.49-1.745.49-.893 0-1.582-.393-.682-.399-1.074-1.177-.386-.78-.386-1.926v-5.898h1.805v5.68q0 .95.525 1.51.525.561 1.364.561.507 0 1.008-.253.507-.255.839-.767.338-.513.332-1.304m8.565-5.427v1.449h-5.065v-1.449zm-3.706-2.222h1.805v8.772q0 .526.157.79a.8.8 0 0 0 .404.357q.253.09.55.09.216 0 .38-.03l.253-.048.326 1.491q-.156.06-.446.121a3.5 3.5 0 0 1-.725.072 3.2 3.2 0 0 1-1.328-.253 2.3 2.3 0 0 1-.996-.821q-.38-.555-.38-1.395zm14.531 2.222v1.449h-5.065v-1.449zm-3.707-2.222h1.805v8.772q0 .526.157.79a.82.82 0 0 0 .404.357q.254.09.55.09.217 0 .38-.03l.254-.048.326 1.491q-.157.06-.447.121a3.5 3.5 0 0 1-.725.072 3.2 3.2 0 0 1-1.328-.253 2.3 2.3 0 0 1-.996-.821q-.38-.555-.38-1.395zm7.708 5.989v5.506h-1.805V14.137h1.78v4.6h.115q.326-.748.996-1.19.67-.44 1.751-.44.954 0 1.666.393.718.392 1.111 1.17.398.774.398 1.933V26.5h-1.805v-5.68q0-1.02-.525-1.582-.525-.567-1.461-.567-.64 0-1.147.271a1.96 1.96 0 0 0-.791.797q-.283.52-.283 1.256m12.418 5.693q-1.371 0-2.361-.586a3.97 3.97 0 0 1-1.521-1.66q-.531-1.074-.531-2.517 0-1.425.531-2.512.537-1.087 1.497-1.696.965-.61 2.258-.61.785 0 1.521.26.737.259 1.322.815t.924 1.443q.338.881.338 2.143v.64h-7.371v-1.353h5.602q0-.712-.29-1.261a2.2 2.2 0 0 0-.815-.876q-.519-.32-1.219-.32-.76 0-1.328.375a2.5 2.5 0 0 0-.87.966 2.8 2.8 0 0 0-.301 1.285v1.057q0 .93.326 1.582.332.651.923.996.592.338 1.383.338.513 0 .935-.145.423-.15.731-.447.308-.295.471-.73l1.708.308a3.1 3.1 0 0 1-.736 1.322 3.6 3.6 0 0 1-1.322.875q-.791.308-1.805.308"/><path fill="#00d845" d="M170.051 18.176a2.2 2.2 0 0 0-.302-.67 1.9 1.9 0 0 0-.489-.501 2.1 2.1 0 0 0-.664-.308 3 3 0 0 0-.821-.109q-.9 0-1.558.435-.651.434-1.008 1.268-.356.825-.356 2.01 0 1.19.344 2.028.345.84.996 1.28.652.44 1.582.44.82 0 1.388-.265.575-.272.87-.767t.296-1.165l.555.067h-3.006v-2.18h5.33v1.636q0 1.66-.706 2.844a4.7 4.7 0 0 1-1.932 1.817q-1.226.634-2.819.634-1.769 0-3.109-.767t-2.089-2.185q-.749-1.425-.749-3.381 0-1.521.453-2.698a5.7 5.7 0 0 1 1.262-2.005 5.45 5.45 0 0 1 1.883-1.243 6.3 6.3 0 0 1 2.313-.423q1.074 0 1.998.308.93.308 1.642.87a4.6 4.6 0 0 1 1.165 1.333 4.4 4.4 0 0 1 .555 1.697zm7.532 8.482q-.887 0-1.575-.296a2.46 2.46 0 0 1-1.081-.906q-.392-.609-.392-1.527 0-.773.271-1.304a2.3 2.3 0 0 1 .749-.863 3.5 3.5 0 0 1 1.099-.501 7 7 0 0 1 1.328-.236q.79-.072 1.274-.15.483-.086.7-.236a.51.51 0 0 0 .223-.44v-.031q0-.465-.32-.718-.32-.255-.863-.254-.585 0-.942.254a1.12 1.12 0 0 0-.452.7l-2.723-.097q.12-.844.622-1.509.507-.67 1.388-1.05.888-.387 2.131-.387.888 0 1.636.212.749.205 1.304.603.555.393.857.966.308.574.308 1.31v6.303h-2.777v-1.292h-.072q-.247.471-.634.797-.38.325-.9.489a3.8 3.8 0 0 1-1.159.163m.912-1.932q.477 0 .857-.193.387-.194.616-.532.23-.344.229-.797v-.88a2 2 0 0 1-.307.12q-.175.054-.387.103t-.435.084-.428.066a2.7 2.7 0 0 0-.712.206 1.1 1.1 0 0 0-.447.362.9.9 0 0 0-.151.52q0 .457.326.7.332.24.839.24m9.387-10.589V26.5h-2.952V14.137zm4.831 0V26.5h-2.952V14.137zm6.214 12.539q-1.455 0-2.511-.574a3.96 3.96 0 0 1-1.618-1.648q-.562-1.074-.562-2.553 0-1.437.568-2.512.567-1.08 1.6-1.678 1.032-.603 2.432-.604.99 0 1.811.308.822.308 1.419.912.599.604.93 1.49.332.882.332 2.023v.737h-8.059v-1.715h5.312a1.66 1.66 0 0 0-.223-.839 1.5 1.5 0 0 0-.598-.573 1.7 1.7 0 0 0-.863-.212q-.495 0-.888.224a1.68 1.68 0 0 0-.863 1.449v1.744q0 .567.223.996.224.423.634.658t.978.236q.393 0 .713-.109.32-.108.549-.32.23-.21.344-.52l2.711.08a3.35 3.35 0 0 1-.743 1.587q-.567.67-1.491 1.044-.924.369-2.137.369m5.909-.175v-9.273h2.867v1.69h.097q.253-.917.827-1.364a2.1 2.1 0 0 1 1.334-.453q.206 0 .423.03.216.025.404.079v2.566a3 3 0 0 0-.555-.115 5 5 0 0 0-.604-.042q-.525 0-.948.235a1.7 1.7 0 0 0-.658.646 1.9 1.9 0 0 0-.235.966V26.5zm9.242 3.477q-.531 0-1.002-.085a4 4 0 0 1-.809-.21l.652-2.144q.434.145.785.17.356.023.61-.116.259-.132.398-.477l.115-.277-3.296-9.611h3.09l1.709 6.616h.097l1.732-6.616h3.109l-3.495 10.16a4.3 4.3 0 0 1-.719 1.34 3.1 3.1 0 0 1-1.189.918q-.725.332-1.787.332"/></g><defs><filter id="b" width="39.202" height="39.202" x="2.399" y=".4" color-interpolation-filters="sRGB" filterUnits="userSpaceOnUse"><feFlood flood-opacity="0" result="BackgroundImageFix"/><feColorMatrix in="SourceAlpha" result="hardAlpha" values="0 0 0 0 0 0 0 0 0 0 0 0 0 0 0 0 0 0 127 0"/><feOffset/><feGaussianBlur stdDeviation="2.8"/><feComposite in2="hardAlpha" operator="out"/><feColorMatrix values="0 0 0 0 0 0 0 0 0 0 0 0 0 0 0 0 0 0 0.25 0"/><feBlend in2="BackgroundImageFix" result="effect1_dropShadow_28_2379"/><feBlend in="SourceGraphic" in2="effect1_dropShadow_28_2379" result="shape"/></filter><filter id="c" width="191.429" height="32.429" x="36.287" y="3.786" color-interpolation-filters="sRGB" filterUnits="userSpaceOnUse"><feFlood flood-opacity="0" result="BackgroundImageFix"/><feColorMatrix in="SourceAlpha" result="hardAlpha" values="0 0 0 0 0 0 0 0 0 0 0 0 0 0 0 0 0 0 127 0"/><feOffset/><feGaussianBlur stdDeviation="2.857"/><feComposite in2="hardAlpha" operator="out"/><feColorMatrix values="0 0 0 0 0 0 0 0 0 0 0 0 0 0 0 0 0 0 0.25 0"/><feBlend in2="BackgroundImageFix" result="effect1_dropShadow_28_2379"/><feBlend in="SourceGraphic" in2="effect1_dropShadow_28_2379" result="shape"/></filter><linearGradient id="a" x1="115.001" x2="115.001" y1="0" y2="40.001" gradientUnits="userSpaceOnUse"><stop stop-color="#072c13"/><stop offset="1" stop-color="#041c0b"/></linearGradient></defs></svg>