<svg xmlns="http://www.w3.org/2000/svg" width="228" height="40" fill="none" viewBox="0 0 228 40"><g clip-path="url(#a)"><rect width="228" height="40" fill="url(#b)" rx="8"/><g filter="url(#c)"><g stroke="#3fb950" stroke-linecap="round" stroke-linejoin="round" stroke-width="2.86" clip-path="url(#d)"><path d="M13.833 16.5a3.5 3.5 0 1 0 0-7 3.5 3.5 0 0 0 0 7m0 0v14m16.334 0a3.5 3.5 0 1 0 0-7 3.5 3.5 0 0 0 0 7m-4.667-14L22 13l3.5-3.5"/><path d="M22 13h5.833a2.333 2.333 0 0 1 2.334 2.333V23.5"/></g></g><g filter="url(#e)"><path fill="#e8e8e8" d="M50.102 17.384q-.097-.857-.797-1.328-.7-.477-1.763-.477-.76 0-1.316.242-.555.235-.863.652a1.54 1.54 0 0 0-.302.935q0 .441.205.761.21.32.55.537.343.212.736.357.392.139.755.229l1.207.314q.591.144 1.213.392t1.153.652q.531.405.858 1.002.331.599.332 1.431 0 1.05-.544 1.866-.538.814-1.563 1.285-1.02.471-2.47.471-1.388 0-2.402-.44t-1.588-1.25q-.573-.814-.634-1.932h1.872q.053.671.434 1.117.387.44.984.658.605.21 1.322.211.792 0 1.407-.247.622-.255.978-.7.356-.453.356-1.057 0-.549-.314-.9-.308-.35-.839-.58a8 8 0 0 0-1.189-.404l-1.461-.398q-1.485-.405-2.354-1.19-.864-.785-.864-2.076 0-1.068.58-1.865.58-.798 1.57-1.238.99-.447 2.233-.447 1.256 0 2.216.441.965.44 1.521 1.213.555.768.58 1.763zm8.048 9.303q-1.37 0-2.36-.585a3.97 3.97 0 0 1-1.521-1.66q-.532-1.075-.532-2.518 0-1.425.532-2.511.537-1.087 1.497-1.697.965-.61 2.258-.61.785 0 1.52.26.738.26 1.323.815t.924 1.443q.338.882.338 2.143v.64h-7.371v-1.352h5.602q0-.713-.29-1.262a2.2 2.2 0 0 0-.815-.875q-.52-.32-1.22-.32-.76 0-1.327.374a2.5 2.5 0 0 0-.87.966 2.8 2.8 0 0 0-.302 1.286v1.056q0 .93.326 1.582.333.652.924.996.591.338 1.382.338.514 0 .936-.145.423-.15.73-.447a1.94 1.94 0 0 0 .471-.73l1.709.308a3.1 3.1 0 0 1-.737 1.322q-.525.561-1.322.875-.79.308-1.805.308m9.978 0q-1.37 0-2.36-.585a3.97 3.97 0 0 1-1.522-1.66q-.531-1.075-.531-2.518 0-1.425.531-2.511.537-1.087 1.497-1.697.966-.61 2.258-.61.784 0 1.521.26t1.322.815.924 1.443q.338.882.338 2.143v.64h-7.37v-1.352h5.601q0-.713-.29-1.262a2.2 2.2 0 0 0-.814-.875q-.52-.32-1.22-.32-.76 0-1.328.374a2.5 2.5 0 0 0-.87.966 2.8 2.8 0 0 0-.301 1.286v1.056q0 .93.326 1.582.333.652.923.996.593.338 1.383.338.513 0 .936-.145.422-.15.73-.447a1.94 1.94 0 0 0 .471-.73l1.709.308a3.1 3.1 0 0 1-.737 1.322 3.6 3.6 0 0 1-1.322.875q-.79.308-1.805.308m14.808-9.46v1.45h-5.065v-1.45zm-3.706-2.221h1.805v8.771q0 .525.157.791a.82.82 0 0 0 .404.356q.254.09.55.09.216 0 .38-.03l.254-.048.326 1.492q-.157.06-.447.12a3.5 3.5 0 0 1-.725.073 3.2 3.2 0 0 1-1.328-.254 2.3 2.3 0 0 1-.996-.82q-.38-.556-.38-1.395zm7.707 5.988V26.5h-1.805V14.136h1.781v4.6h.115q.326-.748.996-1.189.67-.44 1.75-.44.955 0 1.667.392.72.393 1.11 1.171.4.773.4 1.932V26.5h-1.806v-5.68q0-1.02-.525-1.582-.525-.568-1.461-.568-.64 0-1.147.272a1.96 1.96 0 0 0-.79.797q-.285.519-.285 1.255m12.418 5.693q-1.37 0-2.36-.585a3.97 3.97 0 0 1-1.521-1.66q-.532-1.075-.532-2.518 0-1.425.532-2.511.537-1.087 1.497-1.697.966-.61 2.258-.61.785 0 1.521.26.737.26 1.322.815t.924 1.443q.338.882.338 2.143v.64h-7.371v-1.352h5.602q0-.713-.29-1.262a2.2 2.2 0 0 0-.815-.875q-.518-.32-1.22-.32-.76 0-1.328.374a2.5 2.5 0 0 0-.869.966 2.8 2.8 0 0 0-.302 1.286v1.056q0 .93.326 1.582.333.652.924.996.591.338 1.383.338.513 0 .935-.145.422-.15.731-.447.307-.295.471-.73l1.708.308a3.1 3.1 0 0 1-.737 1.322q-.525.561-1.322.875-.79.308-1.805.308"/><path fill="#fff" d="M109.936 26V13.636h5.107q1.389 0 2.397.544 1.014.537 1.563 1.503.55.96.55 2.233 0 1.28-.562 2.24a3.76 3.76 0 0 1-1.588 1.48q-1.032.525-2.451.524h-3.151v-2.354h2.596q.676 0 1.129-.235.459-.236.694-.658.236-.429.236-.997 0-.573-.236-.99a1.6 1.6 0 0 0-.694-.651q-.459-.23-1.129-.23h-1.473V26zm17.072-4.003v-5.27h2.946V26h-2.813v-1.727h-.097a2.7 2.7 0 0 1-1.05 1.353q-.737.495-1.781.495-.948 0-1.666-.435a2.96 2.96 0 0 1-1.117-1.213q-.398-.785-.404-1.836v-5.91h2.952v5.33q.006.755.398 1.19.393.435 1.069.435.44 0 .79-.193.357-.2.562-.574.211-.38.211-.918m7.777-8.36V26h-2.952V13.636zm4.831 0V26h-2.952V13.636zM145.148 26v-9.273h2.867v1.69h.097q.253-.917.827-1.364a2.1 2.1 0 0 1 1.334-.453q.206 0 .423.03.216.025.404.08v2.565a3 3 0 0 0-.555-.115 5 5 0 0 0-.604-.042q-.525 0-.948.235a1.7 1.7 0 0 0-.658.646 1.9 1.9 0 0 0-.235.966V26zm11.008.175q-1.455 0-2.511-.573a3.96 3.96 0 0 1-1.618-1.649q-.562-1.074-.562-2.553 0-1.437.568-2.511.567-1.08 1.6-1.679 1.032-.604 2.432-.604.99 0 1.811.308.822.309 1.419.912.599.604.93 1.491.332.882.332 2.023v.736h-8.059v-1.715h5.312a1.66 1.66 0 0 0-.223-.839 1.5 1.5 0 0 0-.598-.573 1.7 1.7 0 0 0-.863-.211q-.495 0-.888.223a1.68 1.68 0 0 0-.863 1.449v1.744q0 .568.223.997.224.421.634.658.411.235.978.235.393 0 .713-.109.32-.108.549-.32.23-.21.344-.519l2.711.079a3.35 3.35 0 0 1-.743 1.587q-.567.67-1.491 1.045-.924.368-2.137.368m11.964 3.302v-4.98h-.061a2.9 2.9 0 0 1-.531.803q-.344.374-.863.603-.513.23-1.214.23a3.4 3.4 0 0 1-1.865-.531q-.84-.532-1.34-1.594t-.501-2.638q0-1.637.519-2.693.52-1.056 1.358-1.563a3.47 3.47 0 0 1 1.817-.508q.73 0 1.25.254.52.247.857.64.339.393.513.815h.091v-1.588h2.922v12.75zm-1.642-5.644q.537 0 .917-.302.38-.308.586-.863t.205-1.304q0-.761-.205-1.31-.2-.55-.586-.846a1.45 1.45 0 0 0-.917-.295q-.55 0-.93.302-.38.301-.58.85-.192.55-.193 1.299 0 .748.199 1.304.2.555.574.863.38.302.93.302m12.443-1.835v-5.27h2.946V26h-2.813v-1.727h-.097a2.7 2.7 0 0 1-1.05 1.353q-.737.495-1.781.495-.948 0-1.666-.435a2.96 2.96 0 0 1-1.117-1.213q-.398-.785-.404-1.836v-5.91h2.952v5.33q.006.755.398 1.19.393.435 1.069.435.44 0 .791-.193a1.43 1.43 0 0 0 .561-.574q.211-.38.211-.918m9.16 4.177q-1.455 0-2.512-.573a3.97 3.97 0 0 1-1.617-1.649q-.562-1.074-.562-2.553 0-1.437.568-2.511.567-1.08 1.599-1.679 1.033-.604 2.433-.604.99 0 1.811.308.822.309 1.419.912.597.604.93 1.491.332.882.332 2.023v.736h-8.06V20.36h5.313a1.67 1.67 0 0 0-.223-.839 1.5 1.5 0 0 0-.598-.573 1.7 1.7 0 0 0-.863-.211q-.495 0-.888.223a1.68 1.68 0 0 0-.863 1.449v1.744q0 .568.223.997.223.421.634.658.411.235.978.235.393 0 .712-.109a1.5 1.5 0 0 0 .55-.32q.229-.21.344-.519l2.711.079a3.36 3.36 0 0 1-.743 1.587q-.567.67-1.491 1.045-.924.368-2.137.368m14.004-6.616-2.711.072a1 1 0 0 0-.229-.513 1.24 1.24 0 0 0-.489-.356 1.7 1.7 0 0 0-.688-.133q-.513 0-.876.205-.356.205-.35.556a.6.6 0 0 0 .218.47q.229.2.815.32l1.786.338q1.389.265 2.065.882.682.616.688 1.63-.006.954-.567 1.66-.556.706-1.521 1.099-.966.386-2.21.386-1.986 0-3.133-.815-1.141-.821-1.304-2.197l2.916-.073q.096.507.501.773.404.265 1.032.265.567 0 .924-.21.356-.213.362-.562a.6.6 0 0 0-.278-.501q-.272-.194-.851-.302l-1.618-.308q-1.395-.253-2.077-.936-.682-.688-.676-1.75-.006-.93.495-1.588.501-.664 1.425-1.014t2.179-.35q1.884 0 2.971.79 1.086.785 1.201 2.162m6.917-2.832V18.9h-5.85v-2.174zm-4.625-2.221h2.953v8.578q0 .272.084.44.09.165.26.236a1.1 1.1 0 0 0 .404.067q.17 0 .356-.03.194-.038.29-.06l.447 2.13q-.211.06-.598.151-.38.09-.911.115-1.039.048-1.781-.242a2.3 2.3 0 0 1-1.129-.917q-.387-.622-.375-1.564zm14.11 5.053-2.71.072a1 1 0 0 0-.23-.513 1.2 1.2 0 0 0-.489-.356 1.7 1.7 0 0 0-.688-.133q-.513 0-.875.205-.357.205-.35.556a.6.6 0 0 0 .217.47q.23.2.815.32l1.787.338q1.388.265 2.064.882.683.616.689 1.63a2.62 2.62 0 0 1-.568 1.66q-.555.706-1.521 1.099-.966.386-2.21.386-1.986 0-3.133-.815-1.14-.821-1.304-2.197l2.916-.073q.096.507.501.773.405.265 1.032.265.569 0 .924-.21.357-.213.362-.562a.6.6 0 0 0-.277-.501q-.272-.194-.852-.302l-1.617-.308q-1.395-.253-2.077-.936-.682-.688-.676-1.75-.006-.93.495-1.588.501-.664 1.424-1.014.924-.35 2.18-.35 1.882 0 2.97.79 1.087.785 1.201 2.162"/></g></g><rect width="225.9" height="37.9" x="1.05" y="1.05" stroke="#fff" stroke-opacity=".15" stroke-width="2.1" rx="6.95"/><defs><clipPath id="a"><rect width="228" height="40" fill="#fff" rx="8"/></clipPath><clipPath id="d"><path fill="#fff" d="M8 6h28v28H8z"/></clipPath><filter id="c" width="39.429" height="39.429" x="2.286" y=".286" color-interpolation-filters="sRGB" filterUnits="userSpaceOnUse"><feFlood flood-opacity="0" result="BackgroundImageFix"/><feColorMatrix in="SourceAlpha" result="hardAlpha" values="0 0 0 0 0 0 0 0 0 0 0 0 0 0 0 0 0 0 127 0"/><feOffset/><feGaussianBlur stdDeviation="2.857"/><feComposite in2="hardAlpha" operator="out"/><feColorMatrix values="0 0 0 0 0 0 0 0 0 0 0 0 0 0 0 0 0 0 0.25 0"/><feBlend in2="BackgroundImageFix" result="effect1_dropShadow_8_47"/><feBlend in="SourceGraphic" in2="effect1_dropShadow_8_47" result="shape"/></filter><filter id="e" width="189.2" height="32.2" x="36.4" y="3.9" color-interpolation-filters="sRGB" filterUnits="userSpaceOnUse"><feFlood flood-opacity="0" result="BackgroundImageFix"/><feColorMatrix in="SourceAlpha" result="hardAlpha" values="0 0 0 0 0 0 0 0 0 0 0 0 0 0 0 0 0 0 127 0"/><feOffset/><feGaussianBlur stdDeviation="2.8"/><feComposite in2="hardAlpha" operator="out"/><feColorMatrix values="0 0 0 0 0 0 0 0 0 0 0 0 0 0 0 0 0 0 0.25 0"/><feBlend in2="BackgroundImageFix" result="effect1_dropShadow_8_47"/><feBlend in="SourceGraphic" in2="effect1_dropShadow_8_47" result="shape"/></filter><linearGradient id="b" x1="114" x2="114" y1="0" y2="40" gradientUnits="userSpaceOnUse"><stop stop-color="#181f29"/><stop offset="1" stop-color="#0f131a"/></linearGradient></defs></svg>