<svg xmlns="http://www.w3.org/2000/svg" width="192" height="40" fill="none" viewBox="0 0 192 40"><g clip-path="url(#a)"><rect width="192.001" height="40.001" fill="url(#b)" rx="8"/><g filter="url(#c)"><g stroke="#fff" stroke-linecap="round" stroke-linejoin="round" stroke-width="2.86" clip-path="url(#d)"><path d="M19.665 21.16a5.832 5.832 0 0 0 8.797.63l3.5-3.5a5.834 5.834 0 0 0-8.249-8.249l-2.007 1.995"/><path d="M24.331 18.826a5.834 5.834 0 0 0-8.796-.63l-3.5 3.5a5.833 5.833 0 0 0 8.248 8.249l1.995-1.995"/></g></g><g filter="url(#e)"><path fill="#e8e8e8" d="m44.44 14.137 3.441 10.07h.14l3.44-10.07h2.017l-4.45 12.364h-2.155l-4.449-12.364zm10.678 12.364v-9.273h1.805v9.273zm.912-10.704q-.471 0-.81-.314a1.02 1.02 0 0 1-.331-.76q0-.447.332-.761.338-.32.809-.32.47 0 .803.32a1 1 0 0 1 .338.76q0 .441-.338.761-.333.315-.803.314m10.27 3.695-1.636.29a2 2 0 0 0-.326-.598 1.6 1.6 0 0 0-.591-.465q-.375-.18-.936-.181-.767 0-1.28.344-.513.338-.513.875 0 .465.344.749.345.284 1.11.465l1.474.338q1.28.296 1.907.912.628.615.628 1.6 0 .833-.483 1.484-.476.647-1.334 1.015-.85.368-1.974.368-1.558 0-2.541-.664-.985-.67-1.208-1.902l1.745-.265q.162.681.67 1.032.507.345 1.322.344.888 0 1.419-.368.53-.375.53-.912a.95.95 0 0 0-.325-.73q-.32-.296-.984-.447l-1.57-.344q-1.297-.296-1.92-.942-.615-.645-.615-1.636 0-.82.459-1.437.458-.615 1.267-.96.81-.35 1.854-.35 1.503 0 2.366.652.864.645 1.141 1.733m2.166 7.009v-9.273h1.805v9.273zm.911-10.704q-.47 0-.808-.314a1.02 1.02 0 0 1-.332-.76q0-.447.332-.761.338-.32.808-.32t.803.32a1 1 0 0 1 .338.76q0 .441-.338.761-.332.315-.803.314m7.65 1.431v1.449h-5.064v-1.449zm-3.706-2.222h1.805v8.772q0 .526.157.79.158.261.404.357.255.09.55.09.218 0 .38-.03l.254-.048.326 1.491q-.157.06-.447.121a3.5 3.5 0 0 1-.724.072 3.2 3.2 0 0 1-1.328-.253 2.3 2.3 0 0 1-.997-.821q-.38-.555-.38-1.395zm14.53 2.222v1.449h-5.064v-1.449zm-3.706-2.222h1.805v8.772q0 .526.157.79.157.261.405.357.253.09.55.09.215 0 .38-.03l.253-.048.326 1.491q-.158.06-.447.121a3.5 3.5 0 0 1-.724.072 3.2 3.2 0 0 1-1.328-.253 2.3 2.3 0 0 1-.996-.821q-.38-.555-.38-1.395zm7.708 5.989v5.506h-1.805V14.137h1.78v4.6h.115q.327-.748.997-1.19.67-.44 1.75-.44.954 0 1.666.393.72.392 1.111 1.17.399.774.399 1.933V26.5H96.06v-5.68q0-1.02-.526-1.582-.525-.567-1.46-.567-.64 0-1.148.271a1.96 1.96 0 0 0-.79.797q-.285.52-.284 1.256m12.418 5.693q-1.371 0-2.361-.586a3.97 3.97 0 0 1-1.521-1.66q-.531-1.074-.531-2.517 0-1.425.531-2.512.537-1.087 1.497-1.696.966-.61 2.258-.61.784 0 1.521.26.737.259 1.323.815.585.555.923 1.443.338.881.338 2.143v.64h-7.371v-1.353h5.602q0-.712-.289-1.261a2.2 2.2 0 0 0-.815-.876q-.52-.32-1.22-.32-.76 0-1.328.375a2.5 2.5 0 0 0-.869.966 2.8 2.8 0 0 0-.302 1.285v1.057q0 .93.326 1.582.332.651.924.996.591.338 1.382.338.513 0 .936-.145.422-.15.73-.447.308-.295.471-.73l1.709.308a3.1 3.1 0 0 1-.737 1.322 3.6 3.6 0 0 1-1.322.875q-.79.308-1.805.308"/><path fill="#f1f1f1" d="m117.901 26.5-3.598-12.363h3.303l1.865 8.102h.103l2.131-8.102h2.692l2.131 8.12h.103l1.871-8.12h3.296l-3.592 12.364h-2.879l-2.228-7.498h-.096l-2.228 7.498zm18.437.176q-1.455 0-2.511-.574a3.96 3.96 0 0 1-1.618-1.648q-.562-1.074-.562-2.553 0-1.437.568-2.512.567-1.08 1.6-1.678 1.032-.603 2.433-.604.99 0 1.811.308a3.9 3.9 0 0 1 1.418.912q.599.604.93 1.49.332.882.332 2.023v.737h-8.059v-1.715h5.312a1.66 1.66 0 0 0-.223-.839 1.5 1.5 0 0 0-.598-.573 1.7 1.7 0 0 0-.863-.212q-.495 0-.888.224a1.68 1.68 0 0 0-.863 1.449v1.744q0 .567.224.996.223.423.633.658t.978.236q.392 0 .713-.109.32-.108.549-.32.23-.21.344-.52l2.711.08a3.35 3.35 0 0 1-.743 1.587q-.567.67-1.491 1.044-.924.369-2.137.369m5.909-.175V14.137h2.952v4.679h.06q.181-.423.513-.815.338-.393.858-.64.525-.255 1.255-.254.966 0 1.805.507.846.508 1.365 1.564t.519 2.692q0 1.575-.501 2.639-.495 1.063-1.34 1.593a3.4 3.4 0 0 1-1.866.532q-.7 0-1.213-.23a2.7 2.7 0 0 1-.864-.604 2.9 2.9 0 0 1-.531-.803h-.09v1.504zm2.891-4.637q0 .75.2 1.304.205.555.585.864.387.3.924.301.543 0 .924-.301.38-.308.573-.864.2-.555.199-1.304 0-.748-.199-1.298-.193-.55-.573-.85-.375-.303-.924-.303-.543 0-.924.296-.38.297-.585.845-.2.55-.2 1.31m16.078-1.805-2.71.073a1 1 0 0 0-.23-.513 1.2 1.2 0 0 0-.489-.357 1.7 1.7 0 0 0-.688-.132q-.513 0-.875.205-.357.205-.35.555a.6.6 0 0 0 .217.471q.23.2.815.32l1.787.338q1.389.265 2.064.882.683.615.689 1.63-.006.953-.568 1.66-.555.706-1.521 1.098-.966.387-2.21.387-1.986 0-3.133-.815-1.14-.822-1.304-2.198l2.916-.072q.097.506.501.773.405.265 1.032.265.569 0 .924-.211.357-.21.362-.561a.6.6 0 0 0-.277-.502q-.272-.192-.852-.301l-1.617-.308q-1.395-.254-2.077-.936-.682-.688-.676-1.75-.006-.93.495-1.588.501-.664 1.424-1.015.924-.35 2.18-.35 1.883 0 2.97.791 1.087.785 1.201 2.161m1.683 6.442v-9.273h2.952v9.273zm1.479-10.354q-.622 0-1.068-.41a1.32 1.32 0 0 1-.447-1.002q0-.58.447-.99a1.5 1.5 0 0 1 1.068-.417 1.5 1.5 0 0 1 1.069.417q.446.41.446.99 0 .585-.446 1.002-.44.41-1.069.41m8.586 1.081v2.173h-5.85v-2.173zm-4.624-2.222h2.952v8.579q0 .272.084.44a.53.53 0 0 0 .26.236q.17.066.405.066.168 0 .356-.03.192-.036.289-.06l.447 2.13q-.211.061-.597.152-.381.09-.912.115-1.038.048-1.781-.242a2.3 2.3 0 0 1-1.129-.918q-.386-.621-.374-1.563zm10.365 11.67q-1.455 0-2.511-.574a3.97 3.97 0 0 1-1.618-1.648q-.561-1.074-.561-2.553 0-1.437.567-2.512.567-1.08 1.6-1.678 1.032-.603 2.433-.604.99 0 1.811.308a3.9 3.9 0 0 1 1.418.912q.599.604.93 1.49.333.882.332 2.023v.737h-8.059v-1.715h5.312a1.66 1.66 0 0 0-.223-.839 1.5 1.5 0 0 0-.598-.573 1.7 1.7 0 0 0-.863-.212q-.495 0-.887.224a1.68 1.68 0 0 0-.864 1.449v1.744q0 .567.224.996.223.423.634.658.41.236.978.236.392 0 .712-.109.32-.108.549-.32.23-.21.344-.52l2.711.08a3.35 3.35 0 0 1-.743 1.587q-.567.67-1.491 1.044-.923.369-2.137.369"/></g></g><rect width="189.858" height="37.858" x="1.071" y="1.071" stroke="#fff" stroke-opacity=".15" stroke-width="2.143" rx="6.929"/><defs><clipPath id="a"><rect width="192.001" height="40.001" fill="#fff" rx="8"/></clipPath><clipPath id="d"><path fill="#fff" d="M7.998 5.993h28v28h-28z"/></clipPath><filter id="c" width="39.204" height="39.209" x="2.398" y=".393" color-interpolation-filters="sRGB" filterUnits="userSpaceOnUse"><feFlood flood-opacity="0" result="BackgroundImageFix"/><feColorMatrix in="SourceAlpha" result="hardAlpha" values="0 0 0 0 0 0 0 0 0 0 0 0 0 0 0 0 0 0 127 0"/><feOffset/><feGaussianBlur stdDeviation="2.8"/><feComposite in2="hardAlpha" operator="out"/><feColorMatrix values="0 0 0 0 0 0 0 0 0 0 0 0 0 0 0 0 0 0 0.25 0"/><feBlend in2="BackgroundImageFix" result="effect1_dropShadow_4_124"/><feBlend in="SourceGraphic" in2="effect1_dropShadow_4_124" result="shape"/></filter><filter id="e" width="153.429" height="32.429" x="36.287" y="3.786" color-interpolation-filters="sRGB" filterUnits="userSpaceOnUse"><feFlood flood-opacity="0" result="BackgroundImageFix"/><feColorMatrix in="SourceAlpha" result="hardAlpha" values="0 0 0 0 0 0 0 0 0 0 0 0 0 0 0 0 0 0 127 0"/><feOffset/><feGaussianBlur stdDeviation="2.857"/><feComposite in2="hardAlpha" operator="out"/><feColorMatrix values="0 0 0 0 0 0 0 0 0 0 0 0 0 0 0 0 0 0 0.25 0"/><feBlend in2="BackgroundImageFix" result="effect1_dropShadow_4_124"/><feBlend in="SourceGraphic" in2="effect1_dropShadow_4_124" result="shape"/></filter><linearGradient id="b" x1="96.001" x2="96.001" y1="0" y2="40.001" gradientUnits="userSpaceOnUse"><stop stop-color="#2c2935"/><stop offset="1" stop-color="#262022"/></linearGradient></defs></svg>