<svg xmlns="http://www.w3.org/2000/svg" width="40" height="40" fill="none" viewBox="0 0 40 40"><rect width="40" height="40" fill="url(#a)" rx="8"/><rect width="37.9" height="37.9" x="1.05" y="1.05" stroke="#fff" stroke-opacity=".15" stroke-width="2.1" rx="6.95"/><g filter="url(#b)"><path fill="#0d0c22" d="m28.05 11.979-.02-.013-.047-.014q.03.024.068.027m.292 2.143-.02.006zm-.285-2.147-.008-.002v.005z"/><path fill="#0d0c22" d="M28.05 11.979h.003v-.002zm.277 2.139.034-.02.013-.007.012-.013a.2.2 0 0 0-.06.04m-.216-2.093-.034-.032-.023-.013a.1.1 0 0 0 .057.045m-8.38 20.798a.2.2 0 0 0-.068.053l.021-.014zm4.866-.975c0-.03-.015-.025-.012.084l.006-.026zm-.504.975a.2.2 0 0 0-.07.053l.022-.014zm-7.788.232a.15.15 0 0 0-.072-.035l.058.03zm-.771-.752a.2.2 0 0 0-.029-.09q.016.043.028.088z"/><path fill="#fd0" d="M20.712 18.859c-1.059.46-2.26.984-3.817.984a7 7 0 0 1-1.927-.27l1.077 11.254c.038.47.249.909.59 1.228.34.32.787.497 1.251.497 0 0 1.527.081 2.036.081.549 0 2.193-.08 2.193-.08.463 0 .91-.178 1.251-.498s.552-.758.59-1.228l1.153-12.437c-.516-.179-1.036-.298-1.622-.298-1.014 0-1.831.355-2.775.767"/><path fill="#0d0c22" d="m11.635 14.057.018.017.012.007z"/><path fill="#e8e8e8" d="m30.088 13.018-.162-.832c-.146-.747-.476-1.453-1.23-1.723-.24-.087-.515-.124-.7-.302-.185-.18-.24-.457-.282-.714-.08-.473-.154-.946-.235-1.418-.07-.405-.126-.861-.309-1.233-.238-.5-.731-.792-1.222-.985a7 7 0 0 0-.769-.243c-1.226-.329-2.515-.45-3.777-.519a31 31 0 0 0-4.543.077c-1.124.104-2.309.23-3.377.626-.39.145-.793.319-1.09.626-.364.377-.483.96-.217 1.431.19.334.51.57.85.727q.665.301 1.378.457c1.32.297 2.688.413 4.036.463 1.495.061 2.993.011 4.48-.15q.552-.06 1.102-.147c.432-.068.709-.642.582-1.043-.153-.478-.562-.664-1.024-.592l-.204.031-.05.008q-.234.03-.47.056-.486.054-.974.087-1.093.077-2.19.077c-.717 0-1.435-.02-2.15-.069a27 27 0 0 1-1.421-.134l-.14-.018-.031-.004-.146-.022a15 15 0 0 1-.889-.161.13.13 0 0 1-.075-.048.14.14 0 0 1 0-.17.13.13 0 0 1 .075-.048h.006a14 14 0 0 1 1.028-.184h.002c.162-.01.324-.04.485-.06a30 30 0 0 1 4.206-.15 28 28 0 0 1 2.477.18l.167.022.113.017q.492.075.98.181c.48.107 1.099.141 1.313.678.068.17.099.36.136.538l.048.228.003.013.34 1.614a.3.3 0 0 1-.132.315.3.3 0 0 1-.112.04h-.003l-.07.01-.068.009q-.325.044-.652.08-.644.075-1.29.13a44 44 0 0 1-3.881.159 45 45 0 0 1-5.769-.38l-.156-.022-.357-.052c-.399-.061-.796-.136-1.194-.202-.482-.081-.943-.04-1.378.202a2 2 0 0 0-.83.875c-.188.396-.244.826-.328 1.251s-.215.883-.165 1.319c.106.941.753 1.707 1.683 1.878a47.9 47.9 0 0 0 13.927.47.59.59 0 0 1 .484.172.6.6 0 0 1 .172.491l-.088.871-.532 5.28-.558 5.543-.159 1.56c-.05.513-.058 1.04-.153 1.547-.151.796-.68 1.285-1.453 1.464-.707.163-1.43.25-2.155.256-.805.005-1.609-.032-2.413-.027-.86.005-1.91-.076-2.574-.727-.582-.571-.663-1.466-.742-2.24q-.159-1.536-.314-3.072l-.583-5.694-.377-3.685-.019-.182c-.045-.44-.35-.87-.832-.848-.413.019-.881.375-.833.848l.28 2.731.578 5.65q.247 2.407.492 4.816l.095.924c.181 1.68 1.442 2.586 3.003 2.84.912.15 1.846.18 2.772.196 1.186.02 2.384.066 3.55-.153 1.73-.323 3.027-1.498 3.212-3.32l.159-1.58.526-5.225.573-5.69.263-2.608a.6.6 0 0 1 .153-.347.6.6 0 0 1 .326-.186c.495-.098.967-.265 1.319-.648.56-.61.67-1.405.473-2.207m-18.597.563c.007-.004-.007.062-.013.093 0-.047.002-.088.013-.093m.048.378c.004-.003.016.013.028.032q-.03-.027-.029-.032m.047.063c.017.03.026.048 0 0m.095.078h.002q.001.004.006.009zm16.592-.117c-.177.172-.445.252-.71.292-2.965.448-5.974.675-8.972.575-2.145-.075-4.268-.317-6.393-.623-.208-.03-.433-.069-.577-.225-.27-.294-.137-.888-.066-1.244.064-.326.187-.76.568-.807.594-.07 1.285.185 1.873.275q1.063.165 2.133.265c3.046.282 6.142.238 9.175-.175a38 38 0 0 0 1.652-.264c.489-.089 1.03-.256 1.326.26.202.35.23.82.198 1.217a.68.68 0 0 1-.207.454"/></g><defs><linearGradient id="a" x1="20" x2="20" y1="0" y2="40" gradientUnits="userSpaceOnUse"><stop stop-color="#372e00"/><stop offset="1" stop-color="#1e1900"/></linearGradient><filter id="b" width="36" height="38" x="2" y="1" color-interpolation-filters="sRGB" filterUnits="userSpaceOnUse"><feFlood flood-opacity="0" result="BackgroundImageFix"/><feColorMatrix in="SourceAlpha" result="hardAlpha" values="0 0 0 0 0 0 0 0 0 0 0 0 0 0 0 0 0 0 127 0"/><feOffset/><feGaussianBlur stdDeviation="2"/><feComposite in2="hardAlpha" operator="out"/><feColorMatrix values="0 0 0 0 0 0 0 0 0 0 0 0 0 0 0 0 0 0 0.25 0"/><feBlend in2="BackgroundImageFix" result="effect1_dropShadow_2_2120"/><feBlend in="SourceGraphic" in2="effect1_dropShadow_2_2120" result="shape"/></filter></defs></svg>