<svg xmlns="http://www.w3.org/2000/svg" width="40" height="40" fill="none" viewBox="0 0 40 40"><g clip-path="url(#a)"><rect width="40" height="40" fill="url(#b)" rx="8"/><g filter="url(#c)"><path fill="#00d632" d="M24.244 6c2.8 0 4.2 0 5.731.481a5.95 5.95 0 0 1 3.544 3.544C34 11.556 34 12.956 34 15.761v8.474c0 2.809 0 4.218-.481 5.731a5.95 5.95 0 0 1-3.544 3.544c-1.531.49-2.931.49-5.731.49h-8.488c-2.809 0-4.217 0-5.731-.481a5.95 5.95 0 0 1-3.544-3.544C6 28.444 6 27.044 6 24.239v-8.483c0-2.809 0-4.217.481-5.731a5.95 5.95 0 0 1 3.544-3.544C11.556 6 12.956 6 15.756 6z"/><path fill="#fff" d="M24.58 16.413a.554.554 0 0 0 .788 0l1.094-1.138c.232-.219.219-.613-.026-.849a8.6 8.6 0 0 0-2.94-1.68l.345-1.662a.58.58 0 0 0-.56-.705h-2.117a.58.58 0 0 0-.56.464l-.307 1.479c-2.817.144-5.206 1.575-5.206 4.506 0 2.538 1.973 3.627 4.06 4.375 1.973.753 3.019 1.033 3.019 2.091 0 1.09-1.041 1.729-2.581 1.729-1.4 0-2.87-.469-4.008-1.61a.57.57 0 0 0-.805 0l-1.181 1.18a.595.595 0 0 0 0 .84c.919.906 2.082 1.563 3.409 1.926l-.324 1.562a.58.58 0 0 0 .556.704l2.122.017a.58.58 0 0 0 .568-.463l.307-1.483c3.39-.228 5.454-2.096 5.454-4.822 0-2.51-2.056-3.57-4.55-4.431-1.426-.53-2.66-.893-2.66-1.982 0-1.06 1.151-1.48 2.306-1.48 1.47 0 2.883.609 3.806 1.44z"/></g></g><rect width="37.9" height="37.9" x="1.05" y="1.05" stroke="#fff" stroke-opacity=".15" stroke-width="2.1" rx="6.95"/><defs><linearGradient id="b" x1="20" x2="20" y1="0" y2="40" gradientUnits="userSpaceOnUse"><stop stop-color="#003401"/><stop offset="1" stop-color="#001f03"/></linearGradient><clipPath id="a"><rect width="40" height="40" fill="#fff" rx="8"/></clipPath><filter id="c" width="39.429" height="39.429" x=".286" y=".286" color-interpolation-filters="sRGB" filterUnits="userSpaceOnUse"><feFlood flood-opacity="0" result="BackgroundImageFix"/><feColorMatrix in="SourceAlpha" result="hardAlpha" values="0 0 0 0 0 0 0 0 0 0 0 0 0 0 0 0 0 0 127 0"/><feOffset/><feGaussianBlur stdDeviation="2.857"/><feComposite in2="hardAlpha" operator="out"/><feColorMatrix values="0 0 0 0 0 0 0 0 0 0 0 0 0 0 0 0 0 0 0.25 0"/><feBlend in2="BackgroundImageFix" result="effect1_dropShadow_59_48"/><feBlend in="SourceGraphic" in2="effect1_dropShadow_59_48" result="shape"/></filter></defs></svg>