<svg xmlns="http://www.w3.org/2000/svg" width="40" height="40" fill="none" viewBox="0 0 40 40"><rect width="40" height="40" fill="url(#a)" rx="8"/><rect width="37.9" height="37.9" x="1.05" y="1.05" stroke="#fff" stroke-opacity=".15" stroke-width="2.1" rx="6.95"/><g filter="url(#b)"><path fill="#fff" stroke="#fff" stroke-width=".5" d="M24.91 7.75a4.34 4.34 0 0 1 4.323 4.73 4.34 4.34 0 0 1-.587 1.816h1.445a2.16 2.16 0 0 1 2.16 2.158v2.728c0 .804-.44 1.504-1.091 1.876v9.033A2.16 2.16 0 0 1 29 32.25H11a2.16 2.16 0 0 1-2.159-2.16v-9.033a2.16 2.16 0 0 1-1.09-1.876v-2.728a2.16 2.16 0 0 1 2.159-2.158h1.446a4.3 4.3 0 0 1-.605-2.205 4.34 4.34 0 0 1 4.34-4.34c1.581 0 3.666.916 4.91 3.104 1.243-2.188 3.327-3.105 4.909-3.105Zm-3.841 22.363H29a.02.02 0 0 0 .015-.005.02.02 0 0 0 .007-.017v-8.75h-7.954zm-10.091-.022c0 .012.01.022.023.022h7.931v-8.772h-7.954zm10.09-10.887h9.023a.02.02 0 0 0 .017-.006.02.02 0 0 0 .006-.016v-2.728a.02.02 0 0 0-.006-.015.03.03 0 0 0-.017-.007H21.07zM9.894 16.44a.02.02 0 0 0-.006.015v2.728q.002.02.023.022h9.022v-2.772H9.91a.02.02 0 0 0-.017.007ZM24.91 9.887c-1.098 0-3.388.95-3.782 4.409h3.782a2.205 2.205 0 0 0 0-4.41Zm-9.819 0a2.204 2.204 0 1 0 0 4.409h3.782c-.394-3.459-2.684-4.41-3.782-4.41Z"/></g><defs><linearGradient id="a" x1="20" x2="20" y1="0" y2="40" gradientUnits="userSpaceOnUse"><stop stop-color="#2d2d2d"/><stop offset="1" stop-color="#222"/></linearGradient><filter id="b" width="36" height="36" x="2" y="2" color-interpolation-filters="sRGB" filterUnits="userSpaceOnUse"><feFlood flood-opacity="0" result="BackgroundImageFix"/><feColorMatrix in="SourceAlpha" result="hardAlpha" values="0 0 0 0 0 0 0 0 0 0 0 0 0 0 0 0 0 0 127 0"/><feOffset/><feGaussianBlur stdDeviation="2"/><feComposite in2="hardAlpha" operator="out"/><feColorMatrix values="0 0 0 0 0 0 0 0 0 0 0 0 0 0 0 0 0 0 0.25 0"/><feBlend in2="BackgroundImageFix" result="effect1_dropShadow_2_2218"/><feBlend in="SourceGraphic" in2="effect1_dropShadow_2_2218" result="shape"/></filter></defs></svg>