<svg xmlns="http://www.w3.org/2000/svg" width="40" height="40" fill="none" viewBox="0 0 40 40"><g clip-path="url(#a)"><rect width="40" height="40" fill="url(#b)" rx="8"/><g filter="url(#c)"><path fill="#ff5e5b" d="M8.778 12.222h15.556v14.444H8.778z"/><path fill="#fff" d="M36.4 16.007C35.4 10.664 30.103 10 30.103 10H6.382c-.783 0-.88 1.044-.88 1.044s-.107 9.579-.03 15.461C5.686 29.675 8.826 30 8.826 30s10.716-.03 15.511-.064c3.16-.557 3.478-3.356 3.446-4.884 5.641.314 9.62-3.702 8.619-9.045M22.062 20.6c-1.615 1.9-5.2 5.2-5.2 5.2s-.156.156-.4.03c-.1-.074-.14-.117-.14-.117-.575-.577-4.367-3.988-5.23-5.172-.92-1.262-1.35-3.531-.118-4.852s3.895-1.42 5.656.532c0 0 2.028-2.33 4.495-1.26 2.468 1.073 2.375 3.939.937 5.639m8.002.625c-1.203.152-2.18.037-2.18.037v-7.43h2.294s2.555.72 2.555 3.45c0 2.502-1.277 3.488-2.669 3.943"/></g></g><rect width="37.9" height="37.9" x="1.05" y="1.05" stroke="#fff" stroke-opacity=".15" stroke-width="2.1" rx="6.95"/><defs><linearGradient id="b" x1="20" x2="20" y1="0" y2="40" gradientUnits="userSpaceOnUse"><stop stop-color="#002634"/><stop offset="1" stop-color="#00161f"/></linearGradient><clipPath id="a"><rect width="40" height="40" fill="#fff" rx="8"/></clipPath><filter id="c" width="39.111" height="36" x="1.444" y="2" color-interpolation-filters="sRGB" filterUnits="userSpaceOnUse"><feFlood flood-opacity="0" result="BackgroundImageFix"/><feColorMatrix in="SourceAlpha" result="hardAlpha" values="0 0 0 0 0 0 0 0 0 0 0 0 0 0 0 0 0 0 127 0"/><feOffset/><feGaussianBlur stdDeviation="2"/><feComposite in2="hardAlpha" operator="out"/><feColorMatrix values="0 0 0 0 0 0 0 0 0 0 0 0 0 0 0 0 0 0 0.25 0"/><feBlend in2="BackgroundImageFix" result="effect1_dropShadow_2_2156"/><feBlend in="SourceGraphic" in2="effect1_dropShadow_2_2156" result="shape"/></filter></defs></svg>