<svg xmlns="http://www.w3.org/2000/svg" width="40" height="40" fill="none" viewBox="0 0 40 40"><g clip-path="url(#a)"><rect width="40.001" height="40.001" fill="url(#b)" rx="8"/><g filter="url(#c)"><path fill="#fff" d="M32.5 14.4c-.005-3.576-2.728-6.506-5.922-7.563-3.967-1.313-9.2-1.123-12.988.705C9 9.757 7.557 14.61 7.503 19.452c-.044 3.979.344 14.46 6.126 14.535 4.295.056 4.935-5.605 6.923-8.33 1.414-1.94 3.234-2.488 5.476-3.055 3.852-.975 6.478-4.085 6.472-8.203"/></g></g><rect width="37.858" height="37.858" x="1.071" y="1.071" stroke="#fff" stroke-opacity=".15" stroke-width="2.143" rx="6.929"/><defs><linearGradient id="b" x1="20.001" x2="20.001" y1="0" y2="40.001" gradientUnits="userSpaceOnUse"><stop stop-color="#242424"/><stop offset="1" stop-color="#1d1d1d"/></linearGradient><clipPath id="a"><rect width="40.001" height="40.001" fill="#fff" rx="8"/></clipPath><filter id="c" width="39.202" height="39.215" x=".4" y=".387" color-interpolation-filters="sRGB" filterUnits="userSpaceOnUse"><feFlood flood-opacity="0" result="BackgroundImageFix"/><feColorMatrix in="SourceAlpha" result="hardAlpha" values="0 0 0 0 0 0 0 0 0 0 0 0 0 0 0 0 0 0 127 0"/><feOffset/><feGaussianBlur stdDeviation="2.8"/><feComposite in2="hardAlpha" operator="out"/><feColorMatrix values="0 0 0 0 0 0 0 0 0 0 0 0 0 0 0 0 0 0 0.25 0"/><feBlend in2="BackgroundImageFix" result="effect1_dropShadow_56_62"/><feBlend in="SourceGraphic" in2="effect1_dropShadow_56_62" result="shape"/></filter></defs></svg>