<svg xmlns="http://www.w3.org/2000/svg" width="40" height="40" fill="none" viewBox="0 0 40 40"><rect width="40" height="40" fill="url(#a)" rx="8"/><rect width="37.9" height="37.9" x="1.05" y="1.05" stroke="#fff" stroke-opacity=".15" stroke-width="2.1" rx="6.95"/><g filter="url(#b)"><path fill="#0045d9" d="m28.673 14.964-14.07 15.258H9.442c-.358 0-.645-.356-.574-.712l3.44-21.655A1 1 0 0 1 13.313 7h8.745c6.02.214 7.67 3.277 6.594 7.978z"/><path fill="#00a4ee" d="M28.902 13.554c2.15 1.14 2.652 3.276 1.935 6.126-.932 4.202-3.727 5.983-7.812 6.054l-1.147.072c-.43 0-.717.284-.789.712l-.931 5.627a1 1 0 0 1-1.004.855h-4.3a.604.604 0 0 1-.574-.712L15.857 22.1c.072-.356 13.045-8.547 13.045-8.547"/><path fill="#002788" d="m15.772 22.6 1.433-9.047a.996.996 0 0 1 .932-.783h6.88c1.65 0 2.868.285 3.871.783-.358 3.135-1.863 8.192-9.174 8.335H16.56c-.358 0-.717.285-.788.712"/></g><defs><linearGradient id="a" x1="20" x2="20" y1="0" y2="40" gradientUnits="userSpaceOnUse"><stop stop-color="#0e1b35"/><stop offset="1" stop-color="#0a1d25"/></linearGradient><filter id="b" width="36" height="36" x="2" y="2" color-interpolation-filters="sRGB" filterUnits="userSpaceOnUse"><feFlood flood-opacity="0" result="BackgroundImageFix"/><feColorMatrix in="SourceAlpha" result="hardAlpha" values="0 0 0 0 0 0 0 0 0 0 0 0 0 0 0 0 0 0 127 0"/><feOffset/><feGaussianBlur stdDeviation="2"/><feComposite in2="hardAlpha" operator="out"/><feColorMatrix values="0 0 0 0 0 0 0 0 0 0 0 0 0 0 0 0 0 0 0.25 0"/><feBlend in2="BackgroundImageFix" result="effect1_dropShadow_2_2181"/><feBlend in="SourceGraphic" in2="effect1_dropShadow_2_2181" result="shape"/></filter></defs></svg>