<svg xmlns="http://www.w3.org/2000/svg" width="56" height="56" fill="none" viewBox="0 0 56 56"><rect width="56" height="56" fill="url(#a)" rx="8"/><rect width="53.9" height="53.9" x="1.05" y="1.05" stroke="#fff" stroke-opacity=".15" stroke-width="2.1" rx="6.95"/><g fill="#0c9ef0" filter="url(#b)"><path d="M43.026 26.2a1 1 0 0 0-.903.464c-.36-.226-1.335-.702-1.713-.897l-.138-.07a.1.1 0 0 0-.07 0v-.107c.384-7.89-7.586-14.02-15.302-11.647a12.1 12.1 0 0 0-4.894 2.986 12.14 12.14 0 0 0-2.976 4.908 14 14 0 0 0-.497 3.523l-.291.115-.21.088q-.575.254-1.148.545c-.383.195-.765.383-1.113.625a.12.12 0 0 0-.046.15.12.12 0 0 0 .157.057 18 18 0 0 1 1.147-.48 13 13 0 0 1 1.182-.383h.023q.287-.084.578-.157l.298-.069h.035l.268-.057a13 13 0 0 1 1.212-.192h.046a.416.416 0 0 0 .271-.668.42.42 0 0 0-.466-.141c-.382.092-.765.192-1.113.31l.073-.023c.022-1.061.175-2.116.455-3.14a11.2 11.2 0 0 1 2.75-4.528 11.2 11.2 0 0 1 4.519-2.756q.459-.14.93-.242c.302-.065 1.51-.238.19.502a10.1 10.1 0 0 0-4.59 5.728c-.383 1.239-.532 3.681-.264 5.556.084.587-.115.702-.478.855-.765.326-2.104.916-2.793 1.752-.268.322-.383 0-.448-.23a12 12 0 0 1-.245-1.917.2.2 0 0 0-.075-.142.2.2 0 0 0-.158-.03c-.187.046-.383.091-.558.153a.19.19 0 0 0-.127.184c.107 2.465.731 4.758 2.223 4.685a.2.2 0 0 0 .18-.242 1.15 1.15 0 0 1-.517-.575c-.493-1.48 4.082-3.416 9.947-4.294 5.387-.809 10.013-.44 10.816.79a.65.65 0 0 1 .046.732 3.64 3.64 0 0 1-1.458 1.438.223.223 0 0 0-.069.315.22.22 0 0 0 .283.076 4.25 4.25 0 0 0 1.799-1.671 4.6 4.6 0 0 0 .382-1.718c.383.119 1.393.525 1.78.682h.03q-.025.097-.03.196a1.113 1.113 0 0 0 1.002 1.15 1.006 1.006 0 0 0 1.052-.97 1.106 1.106 0 0 0-.984-1.17zm-7.544-2.492a.526.526 0 0 1-.551.544 20.3 20.3 0 0 0-3.864.07.523.523 0 0 1-.566-.541v-.453a.246.246 0 0 1 .191-.238 15 15 0 0 1 4.591-.053.23.23 0 0 1 .191.234zm2.7-1.285a.2.2 0 0 1-.24.077c-3.336-1.269-8.543-.552-8.543-.552a21.2 21.2 0 0 0-5.226 1.204.59.59 0 0 1-.8-.568q.021-.69.138-1.368a6.97 6.97 0 0 1 1.442-3.386q.068-.08.142-.157a.2.2 0 0 1 .03-.038l.023-.027.058-.061.027-.027c2.268-2.377 6.259-2.65 9.06-1.1a8.9 8.9 0 0 1 3.358 3.343c.123.23.895 2.02.532 2.66"/><path d="M36.408 19.448a5.8 5.8 0 0 0-2.75-2.415 8.4 8.4 0 0 0-4.075-.621 5.4 5.4 0 0 0-1.442.318.195.195 0 0 0 .05.383 12 12 0 0 1 3.14.085c3.826.767 5.05 2.61 5.184 2.683.038.02.084-.019.065-.057a4 4 0 0 0-.168-.383m-17.113 6.698a.382.382 0 0 0 .585.046 1.1 1.1 0 0 0 .272-.46c.117-.446.09-.918-.08-1.346a1.3 1.3 0 0 0-.563-.648.2.2 0 0 0-.157-.027.74.74 0 0 0-.382.295.127.127 0 0 0 .034.188 1.15 1.15 0 0 1 .593.81 1.24 1.24 0 0 1-.302.977.126.126 0 0 0 0 .165m-7.154.56a1.24 1.24 0 0 0-1.34 1.15 1.33 1.33 0 0 0 1.256 1.345 1.24 1.24 0 0 0 1.323-1.127 1.32 1.32 0 0 0-1.24-1.369"/><path d="M47.989 28.04c0-9.37-6.48-17.49-15.603-19.549-9.124-2.058-18.45 2.496-22.457 10.964-4.006 8.467-1.62 18.586 5.743 24.362l.383.303c.13.1.264.196.382.292a19.9 19.9 0 0 0 6.814 3.105h.057l.34.08.104.02.322.069.126.023.314.057.122.023q.31.05.62.092l.122.02.233.026.238.027.222.023.256.023h3.156l.218-.019.28-.023.23-.027.267-.03.233-.031.257-.038.237-.039.248-.038.242-.046.244-.046.241-.054.237-.05.242-.057.233-.058.294-.042.222-.061.25-.07.217-.064.245-.08q.11-.03.214-.07l.249-.084.206-.073.25-.092.198-.077.245-.096.191-.076.253-.108.187-.08.253-.115.18-.085.252-.122.172-.088.253-.127.168-.092q.132-.064.253-.134l.164-.092.253-.146.153-.092.256-.153.145-.092.257-.161.137-.092.257-.173.13-.088.26-.184.119-.088.264-.196.107-.08.267-.207.096-.08.272-.22.08-.072.28-.234.064-.058.287-.26.042-.035.303-.287a20 20 0 0 0 4.563-6.601 20 20 0 0 0 1.6-7.869M34.086 34.75c-.027-.222-.054-.449-.088-.671-.035-.223-.065-.445-.107-.663-.043-.219-.077-.441-.12-.66a9 9 0 0 0-.148-.64.3.3 0 0 1 .416-.335.3.3 0 0 1 .15.155c.084.237.141.452.203.682.06.23.114.449.164.675.096.456.172.909.245 1.365.092.598.153 1.2.203 1.798.382.02.792.046 1.186.084 1.068.11 2.122.333 3.145.664a.272.272 0 0 1-.13.525h-.02c-.512-.088-1.01-.211-1.53-.268l-.383-.058-.19-.027h-.192l-.765-.073c-.13-.019-.26 0-.383-.026l-.382-.023h-.283v.195l.03.686v2.07c0 .46-.034.917-.05 1.373-.015.456-.065.917-.107 1.373a.299.299 0 0 1-.593-.027c0-.452 0-.905.023-1.357.023-.453 0-.909 0-1.361 0-.453 0-.905-.023-1.354l-.023-.678v-.997h-1.278c-.26 0-.52.023-.765.03-.245.008-.52.027-.765.05a39 39 0 0 0-4.648.61.275.275 0 0 1-.322-.215.276.276 0 0 1 .195-.314 23 23 0 0 1 1.561-.357 36 36 0 0 1 1.573-.268c.26-.042.528-.07.792-.104q.396-.05.792-.084c.264-.023.528-.05.795-.061.268-.012.532-.039.8-.042.42-.02.842-.023 1.266 0q-.066-.846-.168-1.68m-10.215-2.718c-.191.636-.639 2.17-.918 3.37a97 97 0 0 0-1.565 10.59 18.8 18.8 0 0 1-4.816-2.63 43 43 0 0 1 1.473-6.818 11 11 0 0 1 1.002-2.32 3.25 3.25 0 0 1 1.347-1.126l.1-.046.164-.092.21-.108q.217-.105.428-.199l.219-.096.214-.088.436-.169a26 26 0 0 1 1.438-.46c.21-.061.322 0 .268.192m17.04 5.368c-.596-2.228-1.404-5.717-3.787-6.518-2.54-.867-5.272-.963-7.912-.794-1.88.121-3.739.454-5.544.993-.8.234-3.362 1.22-3.871 1.48-.582.263-1.08.68-1.443 1.208a12 12 0 0 0-1.075 2.484 48 48 0 0 0-1.473 6.518 20 20 0 0 1-1.3-1.192c-7.426-7.44-7.46-19.494-.075-26.975s19.412-7.578 26.916-.216c7.503 7.361 7.662 19.414.356 26.972a31 31 0 0 0-.792-3.957"/></g><defs><linearGradient id="a" x1="28" x2="28" y1="0" y2="56" gradientUnits="userSpaceOnUse"><stop stop-color="#152531"/><stop offset="1" stop-color="#0c161c"/></linearGradient><filter id="b" width="51.429" height="51.429" x="2.286" y="2.286" color-interpolation-filters="sRGB" filterUnits="userSpaceOnUse"><feFlood flood-opacity="0" result="BackgroundImageFix"/><feColorMatrix in="SourceAlpha" result="hardAlpha" values="0 0 0 0 0 0 0 0 0 0 0 0 0 0 0 0 0 0 127 0"/><feOffset/><feGaussianBlur stdDeviation="2.857"/><feComposite in2="hardAlpha" operator="out"/><feColorMatrix values="0 0 0 0 0 0 0 0 0 0 0 0 0 0 0 0 0 0 0.25 0"/><feBlend in2="BackgroundImageFix" result="effect1_dropShadow_8_113"/><feBlend in="SourceGraphic" in2="effect1_dropShadow_8_113" result="shape"/></filter></defs></svg>