<svg xmlns="http://www.w3.org/2000/svg" width="56" height="56" fill="none" viewBox="0 0 56 56"><rect width="56" height="56" fill="url(#a)" rx="8.4"/><rect width="53.9" height="53.9" x="1.05" y="1.05" stroke="#fff" stroke-opacity=".15" stroke-width="2.1" rx="7.35"/><g filter="url(#b)"><path fill="#fff" d="M43.38 20.923c-.235.18-4.368 2.488-4.368 7.62 0 5.937 5.259 8.038 5.416 8.09-.024.128-.835 2.876-2.772 5.676-1.728 2.464-3.532 4.925-6.276 4.925-2.745 0-3.451-1.58-6.62-1.58-3.087 0-4.185 1.632-6.695 1.632s-4.262-2.28-6.276-5.08c-2.333-3.29-4.218-8.398-4.218-13.246 0-7.777 5.102-11.901 10.123-11.901 2.667 0 4.891 1.736 6.566 1.736 1.594 0 4.08-1.84 7.116-1.84 1.15 0 5.283.104 8.003 3.968m-9.445-7.26c1.255-1.477 2.143-3.525 2.143-5.573 0-.284-.024-.572-.077-.804-2.042.076-4.472 1.348-5.937 3.032-1.15 1.296-2.224 3.344-2.224 5.42 0 .313.053.625.077.725.13.024.34.052.549.052 1.832 0 4.137-1.216 5.469-2.853"/></g><defs><linearGradient id="a" x1="28" x2="28" y1="0" y2="56" gradientUnits="userSpaceOnUse"><stop stop-color="#1e1e1e"/><stop offset="1" stop-color="#0d0d0d"/></linearGradient><filter id="b" width="51.429" height="52.143" x="2.286" y="1.571" color-interpolation-filters="sRGB" filterUnits="userSpaceOnUse"><feFlood flood-opacity="0" result="BackgroundImageFix"/><feColorMatrix in="SourceAlpha" result="hardAlpha" values="0 0 0 0 0 0 0 0 0 0 0 0 0 0 0 0 0 0 127 0"/><feOffset/><feGaussianBlur stdDeviation="2.857"/><feComposite in2="hardAlpha" operator="out"/><feColorMatrix values="0 0 0 0 0 0 0 0 0 0 0 0 0 0 0 0 0 0 0.25 0"/><feBlend in2="BackgroundImageFix" result="effect1_dropShadow_28_3449"/><feBlend in="SourceGraphic" in2="effect1_dropShadow_28_3449" result="shape"/></filter></defs></svg>