<svg xmlns="http://www.w3.org/2000/svg" width="56" height="56" fill="none" viewBox="0 0 56 56"><rect width="56" height="56" fill="url(#a)" rx="8.4"/><rect width="53.9" height="53.9" x="1.05" y="1.05" stroke="#fff" stroke-opacity=".15" stroke-width="2.1" rx="7.35"/><g filter="url(#b)"><path fill="#2f87c2" d="M27.896 8.01c-1.41.186-3.203 1.665-4.437 2.368-3.153 1.794-6.358 3.495-9.524 5.264-1.047.584-2.101 1.159-3.139 1.76-.32.184-.976.47-.732.952.288.569 1.495.943 2.03 1.242a191 191 0 0 0 5.737 3.064c.695.358 1.567 1.137 2.381.806 1.937-.789 3.825-2.165 5.628-3.232.58-.343 1.569-1.206 2.273-1.12.61.075 1.31.679 1.84.982 1.373.787 2.752 1.574 4.112 2.386.6.358 1.54 1.167 2.273 1.079.725-.087 1.518-.735 2.164-1.063 1.822-.927 3.592-1.958 5.412-2.89.452-.232 2.24-.897 2.083-1.543-.094-.39-.69-.613-1-.788l-2.923-1.635c-3.419-1.91-6.845-3.811-10.282-5.688-.943-.515-2.799-2.09-3.896-1.945M9.838 21.114c-.591.144-.34 1.713-.34 2.173V36.26c0 .661-.215 1.795.11 2.387.526.955 2.734 1.7 3.677 2.216 3.113 1.706 6.191 3.476 9.308 5.174.94.512 1.879 1.024 2.814 1.545.328.183.774.53 1.174.38.617-.228.341-1.905.341-2.436v-5.56c0-.723.204-1.821-.065-2.497-.241-.605-1.247-.95-1.775-1.255-1.487-.86-3.923-1.73-5.052-3.03-.416-.478-.25-1.349-.25-1.939 0-1.424.325-3.308-.035-4.683-.191-.729-1.432-1.077-2.022-1.407a182 182 0 0 0-5.736-3.094c-.51-.261-1.567-1.088-2.149-.947m36.234-.011c-.684-.027-1.785.805-2.375 1.14-1.746.991-3.54 1.903-5.303 2.864-.603.328-1.935.718-2.13 1.455-.37 1.404-.034 3.337-.034 4.792 0 .527.155 1.37-.189 1.81-.362.466-1.147.766-1.651 1.055q-1.734.995-3.463 1.995c-.537.31-1.508.644-1.76 1.255-.28.68-.08 1.77-.08 2.497v5.669c0 .527-.28 2.227.444 2.352.443.077.926-.31 1.287-.514.899-.505 1.806-.993 2.706-1.496 3.063-1.71 6.123-3.428 9.2-5.114.967-.53 3.073-1.217 3.676-2.154.277-.43.111-1.302.111-1.795v-13.19c0-.514.3-2.591-.439-2.62"/></g><defs><linearGradient id="a" x1="28" x2="28" y1="0" y2="56" gradientUnits="userSpaceOnUse"><stop stop-color="#09202f"/><stop offset="1" stop-color="#05111a"/></linearGradient><filter id="b" width="51.429" height="51.429" x="2.286" y="2.286" color-interpolation-filters="sRGB" filterUnits="userSpaceOnUse"><feFlood flood-opacity="0" result="BackgroundImageFix"/><feColorMatrix in="SourceAlpha" result="hardAlpha" values="0 0 0 0 0 0 0 0 0 0 0 0 0 0 0 0 0 0 127 0"/><feOffset/><feGaussianBlur stdDeviation="2.857"/><feComposite in2="hardAlpha" operator="out"/><feColorMatrix values="0 0 0 0 0 0 0 0 0 0 0 0 0 0 0 0 0 0 0.25 0"/><feBlend in2="BackgroundImageFix" result="effect1_dropShadow_45_28"/><feBlend in="SourceGraphic" in2="effect1_dropShadow_45_28" result="shape"/></filter></defs></svg>