<svg xmlns="http://www.w3.org/2000/svg" width="56" height="56" fill="none" viewBox="0 0 56 56"><rect width="56" height="56" fill="url(#a)" rx="8.4"/><rect width="53.9" height="53.9" x="1.05" y="1.05" stroke="#fff" stroke-opacity=".15" stroke-width="2.1" rx="7.35"/><g filter="url(#b)"><path fill="#353535" d="M18.522 8v3.27h-5.997v2.884H9.43v3.27h3.095v2.884h3.095v3.077h6.19v3.077h12.382v-3.077h6.19v-3.077h2.902v9.423h-2.902v9.038h-3.289v6.154H18.522V48h18.571v-3.077h3.29V38.77h2.9v-9.038h3.29V14.154h-3.29v3.27h-2.9v2.884h-6.191v3.077H21.81v-3.077h-6.19v-2.885h-3.096v-3.269h5.997v-2.885h9.48V8z"/><path fill="#515151" d="M28.002 8v3.27h9.092v2.884h6.19v-2.885h-6.19V8z"/><path fill="#a37b63" d="M18.523 11.27v2.884h3.288v-2.885z"/><path fill="#ab826b" d="M21.81 11.27v2.884h3.096v-2.885z"/><path fill="#aba26b" d="M24.906 11.27v2.884h5.997v-2.885z"/><path fill="#ab826b" d="M30.903 11.27v2.884h3.289v-2.885z"/><path fill="#bf967e" d="M34.192 11.27v2.884h2.902v3.27h3.289v-3.27h-3.289v-2.885z"/><path fill="#958c55" d="M12.525 14.154v3.27h3.095v-3.27z"/><path fill="#956c55" d="M15.62 14.154v3.27h2.902v-3.27z"/><path fill="#c33e1f" d="M18.523 14.154v3.27h3.288v-3.27z"/><path fill="#e38c3f" d="M21.81 14.154v3.27h3.096v2.884H28v3.077h6.19v-3.077H28v-2.885h-3.095v-3.269z"/><path fill="#e4d25c" d="M24.906 14.154v3.27h3.096v2.884h6.19v-2.885h-3.289v-3.27z"/><path fill="#e38c3f" d="M30.903 14.154v3.27h3.289v-3.27z"/><path fill="#cc4628" d="M34.192 14.154v3.27h2.902v2.884h3.289v-2.885h-3.289v-3.269z"/><path fill="#bfb67e" d="M40.382 14.154v3.27h2.902v-3.27z"/><path fill="#515151" d="M9.43 17.423v12.308h3.095v9.038h3.095v6.154h2.902V38.77H15.62v-9.038h-3.095V17.423z"/><path fill="#dc8638" d="M15.62 17.423v2.885h2.902v-2.885z"/><path fill="#e2cf5a" d="M18.523 17.423v2.885h3.288v3.077h3.095v-5.962z"/><path fill="#ea9346" d="M34.192 17.423v2.885h2.902v-2.885z"/><path fill="#e7e7e7" d="M12.525 20.308v3.077h3.095v3.077h6.19v-3.077h-6.19v-3.077z"/><path fill="#c54021" d="M24.906 20.308v3.077h3.096v-3.077z"/><path fill="#a9a9a9" d="M40.382 20.308v3.077h2.902v-3.077z"/><path fill="#d8d8d8" d="M12.525 23.385v6.346h3.095v9.038h2.902v3.27h3.289v2.884H28V32.615h-3.095v-2.884H21.81v2.884h-3.29v-6.153h-2.9v-3.077z"/><path fill="#ead762" d="M34.192 23.385v3.077h2.902v-3.077z"/><path fill="#cb4627" d="M37.094 23.385v3.077h3.288v-3.077z"/><path fill="#727272" d="M40.382 23.385v6.346h-3.288v9.038h3.288v-9.038h2.902v-6.346z"/><path fill="#fff" d="M18.523 26.462v6.153h3.288v-6.153z"/><path fill="#d85334" d="M21.81 26.462v3.269h3.096v-3.27z"/><path fill="#cacaca" d="M24.906 26.462v3.269h9.286v-3.27z"/><path fill="#e99245" d="M34.192 26.462v3.269h2.902v-3.27z"/><path fill="#969696" d="M37.094 26.462v3.269h3.288v-3.27z"/><path fill="#a8a8a8" d="M24.906 29.73v2.885h3.096v9.423h2.901v-9.422h3.289V29.73z"/><path fill="#cb4627" d="M34.192 29.731v2.885h2.902V29.73z"/><path fill="#fff" d="M21.81 32.615v6.154h3.096v-6.154z"/><path fill="#969696" d="M30.903 32.615v9.423h-2.901v2.885h9.092v-6.154h-2.902v-2.884h2.902v-3.27z"/><path fill="#cb4627" d="M34.192 35.885v2.884h2.902v-2.884z"/><path fill="#969696" d="M18.523 42.039v2.884h3.288V42.04z"/></g><defs><linearGradient id="a" x1="28" x2="28" y1="0" y2="56" gradientUnits="userSpaceOnUse"><stop stop-color="#342c18"/><stop offset="1" stop-color="#251a11"/></linearGradient><filter id="b" width="51.429" height="51.429" x="2.286" y="2.286" color-interpolation-filters="sRGB" filterUnits="userSpaceOnUse"><feFlood flood-opacity="0" result="BackgroundImageFix"/><feColorMatrix in="SourceAlpha" result="hardAlpha" values="0 0 0 0 0 0 0 0 0 0 0 0 0 0 0 0 0 0 127 0"/><feOffset/><feGaussianBlur stdDeviation="2.857"/><feComposite in2="hardAlpha" operator="out"/><feColorMatrix values="0 0 0 0 0 0 0 0 0 0 0 0 0 0 0 0 0 0 0.25 0"/><feBlend in2="BackgroundImageFix" result="effect1_dropShadow_2_3423"/><feBlend in="SourceGraphic" in2="effect1_dropShadow_2_3423" result="shape"/></filter></defs></svg>