<svg xmlns="http://www.w3.org/2000/svg" width="56" height="56" fill="none" viewBox="0 0 56 56"><rect width="56" height="56" fill="url(#a)" rx="8.4"/><rect width="53.9" height="53.9" x="1.05" y="1.05" stroke="#fff" stroke-opacity=".15" stroke-width="2.1" rx="7.35"/><g filter="url(#b)"><ellipse cx="28.002" cy="28.01" fill="#fff" rx="19.998" ry="19.99"/><path fill="url(#c)" d="M28.398 17.329c-.046 0-.114 0-.137.045l-.046.115 7.707 28.867a20 20 0 0 0 9.038-7.75L28.536 17.397a.18.18 0 0 0-.138-.069" opacity=".5"/><path fill="#2185d0" d="M27.929 8a20 20 0 0 0-17.446 10.342 19.98 19.98 0 0 0 .572 20.267l16.676-21.551c.052-.063.156-.104.27-.104s.21.041.272.104l16.665 21.551A20 20 0 0 0 48 27.99C48 16.955 39.042 8 28.002 8z"/></g><defs><linearGradient id="a" x1="28" x2="28" y1="0" y2="56" gradientUnits="userSpaceOnUse"><stop stop-color="#132430"/><stop offset="1" stop-color="#323232"/></linearGradient><linearGradient id="c" x1="28.398" x2="41.235" y1="17.328" y2="42.99" gradientUnits="userSpaceOnUse"><stop stop-color="#fff" stop-opacity="0"/><stop offset=".5" stop-color="#71c2ff"/><stop offset="1" stop-color="#39aaff"/></linearGradient><filter id="b" width="51.429" height="51.429" x="2.286" y="2.286" color-interpolation-filters="sRGB" filterUnits="userSpaceOnUse"><feFlood flood-opacity="0" result="BackgroundImageFix"/><feColorMatrix in="SourceAlpha" result="hardAlpha" values="0 0 0 0 0 0 0 0 0 0 0 0 0 0 0 0 0 0 127 0"/><feOffset/><feGaussianBlur stdDeviation="2.857"/><feComposite in2="hardAlpha" operator="out"/><feColorMatrix values="0 0 0 0 0 0 0 0 0 0 0 0 0 0 0 0 0 0 0.25 0"/><feBlend in2="BackgroundImageFix" result="effect1_dropShadow_28_3430"/><feBlend in="SourceGraphic" in2="effect1_dropShadow_28_3430" result="shape"/></filter></defs></svg>