<svg xmlns="http://www.w3.org/2000/svg" width="56" height="56" fill="none" viewBox="0 0 56 56"><rect width="56" height="56" fill="url(#a)" rx="8.4"/><rect width="53.9" height="53.9" x="1.05" y="1.05" stroke="#fff" stroke-opacity=".15" stroke-width="2.1" rx="7.35"/><g fill="#ff3e3e" filter="url(#b)"><path d="m18.69 21.497 9.525-3.108c.631-.206 1.035-.83.852-1.49-.17-.614-.869-1.05-1.5-.847l-9.525 3.107c-.632.206-1.036.83-.853 1.49.17.614.869 1.051 1.501.848"/><path d="m27.565 18.389 9.517 3.103c.632.206 1.331-.233 1.501-.846.183-.66-.221-1.285-.852-1.49l-9.515-3.104c-.632-.206-1.332.233-1.502.846-.182.66.222 1.285.853 1.49zm-9.815 2.985 9.499 4.305c.604.275 1.308.178 1.669-.434.31-.526.167-1.383-.438-1.658l-9.498-4.306c-.605-.273-1.308-.177-1.67.436-.31.526-.167 1.383.438 1.657"/><path d="M36.788 19.277 27.25 23.59c-.606.273-.748 1.13-.438 1.657.362.613 1.064.709 1.67.435l9.54-4.311c.605-.274.747-1.131.437-1.658-.361-.613-1.064-.709-1.67-.436M17.75 34.767l9.472 4.29c.605.274 1.308.178 1.669-.434.31-.526.168-1.384-.438-1.658l-9.471-4.29c-.605-.275-1.308-.178-1.67.434-.31.526-.167 1.384.438 1.658"/><path d="m28.453 39.057 9.578-4.318c.605-.273.747-1.13.437-1.657-.362-.614-1.064-.708-1.67-.435l-9.576 4.318c-.606.273-.748 1.13-.438 1.657.361.613 1.064.708 1.67.435"/><path d="m36.187 20.324.009 12.02v1.35c0 1.561 2.44 1.562 2.44 0l-.009-12.02v-1.35c0-1.563-2.44-1.563-2.44 0m-19.041.005V33.72c0 1.563 2.44 1.563 2.44 0V20.329c0-1.564-2.44-1.564-2.44 0m9.498 4.307-.025 12.025v1.35c0 1.562 2.44 1.562 2.44 0l.024-12.025v-1.35c0-1.563-2.44-1.563-2.44 0m-18.195 3.21V26.46q1.865 0 2.603-.782.75-.782.749-2.614v-3.576q0-1.542.29-2.67.302-1.13.972-1.866.67-.738 1.788-1.095 1.117-.358 2.76-.358v2.19q-1.296 0-2.045.402-.738.403-1.05 1.252-.302.838-.302 2.145v4.47a5 5 0 0 1-.234 1.586 2.6 2.6 0 0 1-.838 1.23q-.615.513-1.755.792-1.129.28-2.938.28m9.162 14.257q-1.642 0-2.76-.358-1.117-.357-1.788-1.095-.67-.737-.972-1.865-.29-1.13-.29-2.671v-3.575q0-1.833-.749-2.615-.738-.782-2.603-.782v-1.386q1.81 0 2.938.28 1.14.279 1.755.793.614.514.838 1.23a5 5 0 0 1 .234 1.586v4.469q0 1.308.302 2.145.312.838 1.05 1.24.749.414 2.045.414zM8.448 29.142V26.46h2.637v2.682zm39.104-1.537V26.22q-1.866 0-2.603-.782-.75-.782-.75-2.615v-3.575q0-1.542-.29-2.67-.3-1.13-.972-1.867-.67-.737-1.787-1.095-1.117-.357-2.76-.357v2.19q1.296 0 2.044.402.738.402 1.05 1.251.302.838.302 2.146v4.469q0 .871.235 1.587.223.714.838 1.229.614.514 1.754.793 1.129.28 2.939.28M38.39 41.862q1.642 0 2.76-.357 1.116-.358 1.787-1.095.67-.738.972-1.866.29-1.128.29-2.67v-3.576q0-1.833.75-2.615.737-.781 2.603-.782v-1.385q-1.81 0-2.939.28-1.14.279-1.754.793a2.6 2.6 0 0 0-.838 1.229 5 5 0 0 0-.235 1.586v4.47q0 1.307-.301 2.145-.314.838-1.05 1.24-.75.413-2.045.413zm9.162-12.96V26.22h-2.637v2.68z"/></g><defs><linearGradient id="a" x1="28" x2="28" y1="0" y2="56" gradientUnits="userSpaceOnUse"><stop stop-color="#310d0d"/><stop offset="1" stop-color="#1d0808"/></linearGradient><filter id="b" width="51.429" height="51.786" x="2.286" y="1.929" color-interpolation-filters="sRGB" filterUnits="userSpaceOnUse"><feFlood flood-opacity="0" result="BackgroundImageFix"/><feColorMatrix in="SourceAlpha" result="hardAlpha" values="0 0 0 0 0 0 0 0 0 0 0 0 0 0 0 0 0 0 127 0"/><feOffset/><feGaussianBlur stdDeviation="2.857"/><feComposite in2="hardAlpha" operator="out"/><feColorMatrix values="0 0 0 0 0 0 0 0 0 0 0 0 0 0 0 0 0 0 0.25 0"/><feBlend in2="BackgroundImageFix" result="effect1_dropShadow_5_324"/><feBlend in="SourceGraphic" in2="effect1_dropShadow_5_324" result="shape"/></filter></defs></svg>