<svg xmlns="http://www.w3.org/2000/svg" width="56" height="56" fill="none" viewBox="0 0 56 56"><rect width="56" height="56" fill="url(#a)" rx="8.4"/><rect width="53.9" height="53.9" x="1.05" y="1.05" stroke="#fff" stroke-opacity=".15" stroke-width="2.1" rx="7.35"/><g filter="url(#b)"><path fill="#f16436" d="M38.543 23.235S46.71 21.913 48 18.06H35.49V15H8l3.386 4.033v4.132s8.545-.456 11.85 2.116c4.524 4.304-5.088 10.121-5.088 10.121L16.499 41c2.578-2.519 7.49-5.777 16.498-5.62-3.428 1.111-6.875 2.848-9.558 5.62h18.208l-1.714-5.598s-13.197-7.987-1.39-12.167"/></g><defs><linearGradient id="a" x1="28" x2="28" y1="0" y2="56" gradientUnits="userSpaceOnUse"><stop stop-color="#2e140b"/><stop offset="1" stop-color="#1e0c07"/></linearGradient><filter id="b" width="51.429" height="51.428" x="2.286" y="2.286" color-interpolation-filters="sRGB" filterUnits="userSpaceOnUse"><feFlood flood-opacity="0" result="BackgroundImageFix"/><feColorMatrix in="SourceAlpha" result="hardAlpha" values="0 0 0 0 0 0 0 0 0 0 0 0 0 0 0 0 0 0 127 0"/><feOffset/><feGaussianBlur stdDeviation="2.857"/><feComposite in2="hardAlpha" operator="out"/><feColorMatrix values="0 0 0 0 0 0 0 0 0 0 0 0 0 0 0 0 0 0 0.25 0"/><feBlend in2="BackgroundImageFix" result="effect1_dropShadow_28_3514"/><feBlend in="SourceGraphic" in2="effect1_dropShadow_28_3514" result="shape"/></filter></defs></svg>