<svg xmlns="http://www.w3.org/2000/svg" width="56" height="56" fill="none" viewBox="0 0 56 56"><rect width="56" height="56" fill="url(#a)" rx="8.4"/><rect width="53.9" height="53.9" x="1.05" y="1.05" stroke="#fff" stroke-opacity=".15" stroke-width="2.1" rx="7.35"/><g fill="#fff" filter="url(#b)"><path d="M26.426 8.01c-.094.01-.394.045-.664.07-3.847.402-7.635 2.03-10.724 4.618-.57.472-1.87 1.77-2.341 2.341-2.558 3.055-4.054 6.484-4.605 10.542-.123.9-.123 3.94 0 4.84.551 4.058 2.047 7.487 4.605 10.541.472.57 1.77 1.87 2.341 2.342 3.055 2.557 6.483 4.053 10.542 4.604.9.123 3.94.123 4.84 0 4.058-.551 7.487-2.047 10.542-4.604.57-.473 1.87-1.771 2.341-2.342 2.558-3.054 4.054-6.483 4.605-10.541.123-.9.123-3.94 0-4.84-.551-4.058-2.047-7.487-4.605-10.542-.472-.57-1.77-1.869-2.341-2.341-3.045-2.548-6.508-4.063-10.512-4.6-.433-.058-1.063-.083-2.229-.093-.89-.01-1.702-.005-1.795.005m.246 2.125c0 .576.04 1.825.093 3.01.03.581.064 1.412.079 1.845.054 1.535.216 5.564.241 5.923l.025.359-.222-.025a.8.8 0 0 1-.256-.054c-.014-.02-.049-.359-.068-.758-.089-1.75-.38-8.544-.409-9.537l-.03-1.092.139-.02c.073-.01.196-.025.275-.03l.133-.004zm4.707-.118c.005.005.02 1.49.035 3.3.02 1.816.044 3.444.059 3.621.015.182.01.34-.015.35-.02.014-.142.014-.265 0l-.227-.02-.034-1.432c-.02-.792-.044-1.667-.054-1.953-.04-.87-.074-3.826-.045-3.9.02-.054.074-.06.28-.025.143.03.262.054.266.06m-11.378 1.648c.03.044.261 2.755.546 6.301.094 1.205.187 2.307.202 2.445.025.25.02.26-.138.359a.8.8 0 0 1-.196.098c-.015 0-.045-.127-.06-.285-.068-.64-.334-3.728-.52-5.962a303 303 0 0 0-.222-2.617c-.025-.216-.02-.236.108-.304.157-.084.246-.099.28-.035m13.543.989c.138.049.152.073.182.354.05.492.034 2.843-.02 2.843-.143 0-.438-.167-.462-.26-.015-.06-.03-.758-.03-1.55 0-1.599-.02-1.505.33-1.387m-9.086.231c0 .133.035.866.074 1.638.04.772.084 1.751.103 2.174.035.856.045.826-.285.846-.162.005-.162.005-.172-.24-.01-.139-.035-.567-.064-.96-.025-.394-.084-1.245-.123-1.894-.04-.65-.089-1.293-.103-1.431-.03-.246-.025-.256.108-.305.079-.03.216-.054.305-.054.157-.005.157-.005.157.226m13.646.674.167.069.035.659c.014.359.024 1.136.014 1.722l-.014 1.072-.207-.104-.207-.098-.014-1.633c-.01-.9-.005-1.663.005-1.697.02-.074.02-.074.22.01m-8.982.644c.03.03.098 2.415.103 3.625l.005.729-.231-.035a2 2 0 0 1-.246-.034c-.015-.01-.163-3.655-.163-4.01v-.363l.251.03c.143.019.266.043.28.058m11.328.35c.06.068.07 1.146.084 7.088.015 6.822.015 7-.074 7a.3.3 0 0 1-.172-.065c-.074-.054-.084-.649-.108-6.478-.02-3.532-.044-6.739-.06-7.127l-.029-.709.143.104c.084.059.177.142.216.187m-4.412 1.008c.025.02.05.3.054.62.025 1.087.03 7.752.005 7.772-.01.01-.099-.015-.197-.055l-.177-.073v-8.367l.138.03a.5.5 0 0 1 .177.073m-13.577.275c.015.133.04.433.054.68.015.24.05.791.079 1.219.059.866.05.92-.231.92-.148 0-.168-.015-.187-.163-.05-.29-.222-2.71-.197-2.75.025-.034.28-.122.398-.132.03-.005.07.098.084.226m-8.136 1.255c.054.521.162 1.613.24 2.425.084.811.153 1.5.153 1.53 0 .059-.379.245-.418.206-.024-.024-.516-4.378-.516-4.574 0-.119.378-.615.428-.561.014.01.064.447.113.974m19.288.516.142.084.005 1.062c.005.58.015 1.23.015 1.442.01.442-.044.516-.31.422l-.152-.054v-.423c0-.236-.015-.92-.035-1.524l-.03-1.093h.114c.059 0 .172.04.25.084m-17.129 1.909c.089.944.231 2.538.325 3.541l.167 1.82-.192.192-.187.192-.034-.389c-.02-.216-.118-1.22-.221-2.233s-.251-2.484-.325-3.266l-.138-1.417.192-.177c.172-.162.192-.167.226-.078.02.049.104.865.187 1.815m-3.684.595c.108.969.393 3.546.64 5.726.245 2.179.476 4.279.52 4.672.04.394.109.99.148 1.329.07.575.07.614-.01.673-.118.089-.167.08-.167-.024 0-.044-.044-.418-.098-.822-.089-.673-.236-1.815-.566-4.377-.069-.517-.201-1.545-.295-2.288-.098-.742-.241-1.85-.32-2.46-.078-.61-.211-1.652-.295-2.326-.088-.669-.143-1.264-.128-1.328.035-.133.325-.595.354-.566.01.015.109.817.217 1.79m-1.505 2.12a694 694 0 0 0 .57 4.417l.094.689-.104.088c-.059.05-.118.07-.137.05s-.06-.217-.089-.433c-.03-.217-.211-1.481-.408-2.804l-.35-2.41.114-.335c.059-.182.123-.33.137-.33.02 0 .094.483.173 1.068m27.006-.645c.069.07.078.374.078 2.632v2.553h-.137c-.3 0-.295.074-.315-2.72l-.015-2.543h.157c.084 0 .192.034.232.079m-10.768.881a9.6 9.6 0 0 1 3.04.97c.62.319.915.54 1.603 1.2 1.023.978 1.653 1.834 2.243 3.044.861 1.761 1.196 3.32 1.619 7.501.192 1.875.443 5.274.497 6.666.015.403.049 1.067.078 1.475.054.866.118.748-.644 1.117-1.058.512-2.076.866-3.419 1.195-1.643.404-2.705.532-4.329.536l-1.18.005.01-.565c0-.31.03-1.033.059-1.599.147-2.74.118-6.198-.074-8.116-.108-1.102-.32-2.44-.438-2.735-.025-.064.089-.118.576-.285.89-.31 1.662-.699 1.78-.89.212-.365-.167-.886-.649-.886-.084 0-.334.088-.566.192-1.102.506-3.31 1.101-4.584 1.234-.88.094-2.248.04-3.198-.133-.516-.093-1.441-.442-2.213-.84-.89-.463-1.437-1.078-1.6-1.806-.088-.393-.063-1.18.05-1.623.123-.487.467-1.195.782-1.609 1.402-1.844 4.295-3.443 7.26-4.004.945-.177 2.283-.196 3.297-.044m15.175.152c.177.074.197.094.197.261.01 1.343-.02 4.413-.044 4.54-.005.045-.261.05-.37.01-.068-.024-.078-.29-.078-2.46 0-1.554.02-2.43.05-2.43.024 0 .137.035.245.08m2.15 2.701.177.074-.034 4.073c-.04 5.19-.045 5.342-.232 5.79-.305.732-.29.88-.26-2.337.01-1.609.034-3.237.044-3.616.01-.378.02-1.446.025-2.375q-.002-1.683.049-1.683c.03 0 .133.035.23.074M15.27 26.547c.03.398.02.438-.123.752l-.157.335-.06-.492c-.093-.787-.093-.821.094-.94.084-.058.172-.098.187-.088s.044.207.06.433m-3.04 2.966c.044.403.389 3.08.566 4.393.265 2.031.285 2.321.167 2.198-.015-.014-.128-.698-.246-1.52-.767-5.302-.762-5.268-.698-5.307.132-.089.177-.04.211.236m3.542 2.253c.03.123.172 1.456.172 1.618 0 .138-.177.266-.256.187-.024-.025-.088-.443-.137-.925l-.123-1.126-.03-.246.172.197c.099.108.187.24.202.295m3.97 1.854c.054.05.088.246.133.777.073.96.083.886-.119.886-.206 0-.201.015-.27-.851-.069-.88-.069-.87.064-.87a.4.4 0 0 1 .192.058m3.896.074c.01.05.034.344.054.654.014.31.059 1.009.098 1.55.138 1.987.143 2.238.06 2.238-.094 0-.104-.074-.212-1.476-.04-.58-.113-1.495-.163-2.031-.044-.537-.073-.984-.059-.994.054-.059.197-.015.222.059m-9.248.944c.03.045.216 1.619.447 3.768.07.65.138 1.274.153 1.392l.024.212-.123-.079c-.093-.064-.127-.128-.127-.24 0-.31-.212-2.352-.374-3.601a38 38 0 0 1-.168-1.392c0-.104.118-.143.168-.06m28.388 2.057-.034 2.056-.123.182c-.28.413-.266.492-.251-1.81l.01-2.11.182-.188c.098-.098.196-.182.216-.182.015 0 .015.925 0 2.052m-4.55 3.26c.024 2.859.02 3.08-.06 3.169-.048.054-.093.088-.107.073-.035-.039-.084-6.271-.045-6.306.02-.02.07-.03.113-.024.064.014.08.364.099 3.089m-16.066-1.957c.034.305.157 1.766.206 2.455.03.462.03.477-.078.511-.06.02-.128.015-.148-.01-.034-.034-.142-1.126-.275-2.808l-.035-.404h.153c.142 0 .152.01.177.256m-3.867 1.722c.035.034.06.157.06.28 0 .128.058.792.122 1.48.187 1.885.202 2.14.118 2.091-.127-.074-.24-.187-.216-.216.01-.02-.01-.266-.05-.546a25 25 0 0 1-.098-1.033c-.02-.285-.063-.807-.103-1.156-.093-.86-.088-.96.02-.96.05 0 .113.025.147.06m2.327 3.31c.015.108.044.512.064.895.035.738.02.792-.182.64-.059-.044-.098-.231-.157-.792-.104-1.013-.108-.974.083-.954.143.014.163.034.192.211"/><path d="M18.87 24.823c-.512.222-.551.915-.07 1.161.35.177.704.094.886-.211a.652.652 0 0 0-.816-.95m3.335.473a.754.754 0 0 0 0 1.278c.468.28 1.073-.088 1.073-.649 0-.541-.62-.905-1.073-.63"/></g><defs><linearGradient id="a" x1="28" x2="28" y1="0" y2="56" gradientUnits="userSpaceOnUse"><stop stop-color="#282828"/><stop offset="1" stop-color="#1a1a1a"/></linearGradient><filter id="b" width="51.429" height="51.429" x="2.286" y="2.286" color-interpolation-filters="sRGB" filterUnits="userSpaceOnUse"><feFlood flood-opacity="0" result="BackgroundImageFix"/><feColorMatrix in="SourceAlpha" result="hardAlpha" values="0 0 0 0 0 0 0 0 0 0 0 0 0 0 0 0 0 0 127 0"/><feOffset/><feGaussianBlur stdDeviation="2.857"/><feComposite in2="hardAlpha" operator="out"/><feColorMatrix values="0 0 0 0 0 0 0 0 0 0 0 0 0 0 0 0 0 0 0.25 0"/><feBlend in2="BackgroundImageFix" result="effect1_dropShadow_9_39"/><feBlend in="SourceGraphic" in2="effect1_dropShadow_9_39" result="shape"/></filter></defs></svg>