<svg xmlns="http://www.w3.org/2000/svg" width="56" height="56" fill="none" viewBox="0 0 56 56"><rect width="56" height="56" fill="url(#a)" rx="8.4"/><rect width="53.9" height="53.9" x="1.05" y="1.05" stroke="#fff" stroke-opacity=".15" stroke-width="2.1" rx="7.35"/><g fill="#fff" filter="url(#b)"><path d="m43.145 36.99-.008.077-.007.085-.016.078-.024.078-.015.07-.024.078-.032.07-.031.062-.031.07-.04.062-.039.062-.047.063-.04.062-.046.054-.056.055-.047.046-.063.055-.054.046-.064.047-.062.038-.063.047-.071.039-.07.031-.071.039-.08.031-.078.031-.078.023-.078.024-.072.023-.078.016-.07.015-.071.016-.08.015-.078.008-.07.008-.08.008-.085.008-.08.007h-.329l-.079-.008h-.086l-.078-.007-.08-.008-.086-.008-.078-.016-.079-.007-.079-.016-.078-.015-.079-.016-.078-.016-.08-.023-.07-.015-.078-.024-.079-.023-.07-.031-.08-.024-.07-.023-.078-.03-.071-.032-.07-.031-.071-.038-.071-.032-.071-.038-.063-.04-.07-.038-.063-.04-.064-.038-.062-.047-.063-.046-.063-.047-.063-.047-.055-.046-.063-.055.048-.062.054-.054.048-.063.055-.062.047-.054.047-.062.055-.063.047-.054.055-.062.047-.055.055-.062.047-.062.048-.054.054-.063.048-.062.055-.054.047-.062.063.046.07.047.063.047.071.046.063.039.07.047.063.039.072.03.062.04.07.03.072.032.07.03.071.024.071.031.078.024.079.023.07.023.08.016.078.015.078.016.087.008.079.015h.078l.086.008h.173l.087-.008.079-.015.07-.016.07-.015.064-.024.055-.03.063-.048.047-.054.031-.062.024-.07.008-.078v-.015l-.008-.094-.032-.078-.039-.054-.055-.047-.063-.046-.063-.031-.07-.032-.08-.03-.093-.04-.055-.015-.063-.015-.071-.024-.07-.015-.079-.024-.079-.015-.086-.024-.079-.015-.086-.023-.079-.016-.079-.023-.078-.016-.079-.023-.07-.024-.079-.015-.07-.023-.071-.024-.071-.023-.087-.031-.078-.031-.079-.032-.079-.03-.07-.04-.079-.038-.063-.04-.07-.038-.063-.047-.063-.039-.055-.046-.055-.055-.055-.054-.047-.055-.047-.054-.04-.054-.039-.063-.04-.07-.03-.053-.024-.063-.024-.07-.023-.062-.016-.078-.016-.07-.008-.078-.008-.077-.008-.086v-.179l.008-.077.008-.07.008-.078.016-.07.016-.07.023-.07.016-.07.031-.07.032-.07.031-.07.04-.07.039-.07.047-.062.047-.062.055-.062.055-.055.055-.062.063-.055.055-.038.063-.047.063-.047.062-.039.071-.039.071-.03.07-.04.072-.03.078-.024.078-.031.072-.023.062-.016.071-.016.071-.015.078-.016.071-.015.078-.008.08-.008.078-.008.078-.007h.338l.087.008.086.007h.079l.086.008.079.016.086.007.079.016.07.015.08.016.078.016.07.015.08.023.07.024.07.015.08.032.07.023.07.03.071.032.08.031.07.039.062.031.071.039.071.039.063.039.07.046.064.04.063.046.062.047.063.046-.047.062-.04.063-.046.062-.048.062-.047.07-.039.062-.047.063-.047.062-.04.062-.047.062-.047.062-.04.063-.046.07-.048.062-.047.062-.04.062-.046.062-.063-.046-.07-.04-.064-.038-.063-.047-.07-.03-.063-.04-.07-.03-.064-.032-.07-.031-.063-.031-.07-.023-.064-.032-.087-.023-.078-.023-.078-.024-.08-.015-.078-.016-.078-.015-.079-.008-.079-.008-.07-.008h-.173l-.086.016-.08.015-.07.016-.063.031-.055.031-.07.063-.048.07-.03.07-.009.077v.016l.008.1.04.086.03.047.055.054.072.04.062.038.079.031.087.032.094.03.062.016.063.023.071.016.07.023.08.016.086.023.087.023.086.024.086.015.079.024.086.023.079.016.078.023.079.023.07.023.08.024.07.023.07.023.087.031.079.04.078.03.079.039.07.039.071.039.063.039.063.046.063.04.063.054.063.054.055.062.055.055.047.062.047.07.04.062.039.07.031.062.024.07.023.07.016.07.016.078.015.078.008.078.008.085v.187zm-5.511 1.554H33.13v-5.66h4.542v1.283H34.63v.925h2.736v1.205H34.63v.964h3.081v1.283zm-5.742 0h-1.438v-3.347l-.04.062-.047.07-.04.063-.046.062-.04.07-.047.062-.039.063-.04.07-.046.062-.04.062-.047.063-.04.07-.047.062-.038.063-.04.07-.047.062-.04.062-.047.07-.039.063-.047.062-.04.07-.039.062-.047.063-.039.07-.047.062-.04.062-.047.063-.04.07-.038.062-.047.063-.04.07-.047.062-.04.062-.046.07-.04.063h-.03l-.048-.07-.04-.063-.047-.07-.04-.062-.046-.07-.04-.063-.046-.07-.04-.062-.047-.07-.04-.062-.047-.07-.039-.063-.047-.07-.04-.062-.046-.07-.04-.063-.047-.07-.047-.062-.04-.07-.046-.063-.04-.07-.047-.062-.04-.07-.046-.062-.04-.07-.047-.063-.039-.07-.047-.062-.04-.07-.047-.062-.04-.07-.046-.063-.04-.07-.047-.062v3.331h-1.493v-5.66h1.612l.038.062.04.07.047.062.04.07.039.062.039.07.04.062.046.07.04.062.04.062.038.07.04.062.047.07.039.062.04.07.038.062.048.062.04.07.038.062.04.07.039.062.047.07.04.062.039.07.04.062.038.062.047.07.04.062.039.07.04.062.038.07.048.062.04.07.038.062.04-.063.04-.07.046-.061.04-.07.039-.062.039-.07.047-.062.04-.07.039-.062.039-.062.047-.07.04-.062.039-.07.04-.062.046-.07.04-.062.039-.07.039-.062.04-.062.046-.07.04-.062.04-.07.038-.062.048-.07.039-.062.04-.062.039-.07.047-.062.04-.07.038-.062.04-.07.047-.062.039-.07.04-.062h1.61v5.66zm-9.119-2.332-.023-.07-.032-.079-.031-.07-.024-.07-.031-.07-.032-.078-.023-.07-.032-.07-.03-.07-.025-.07-.031-.078-.023-.07-.032-.07-.032-.07-.023-.07-.031-.079-.032-.07-.024-.07-.031-.07-.031-.078-.024-.07-.032-.07-.03.07-.024.07-.032.078-.032.07-.023.07-.031.07-.032.078-.03.07-.025.07-.031.07-.032.07-.023.079-.032.07-.031.07-.024.07-.031.07-.032.078-.031.07-.023.07-.032.07-.031.078-.024.07-.031.07h1.328zm2.468 2.332h-1.54l-.032-.07-.023-.07-.032-.07-.031-.078-.024-.07-.031-.07-.032-.07-.023-.07-.032-.07-.031-.07-.024-.07-.031-.077-.032-.07-.023-.07-.032-.07h-2.255l-.031.07-.024.07-.032.07-.031.078-.023.07-.032.07-.032.07-.023.07-.031.07-.032.07-.024.07-.03.077-.032.07-.024.07-.031.07h-1.588l.031-.07.032-.07.031-.07.032-.078.023-.07.032-.07.032-.07.03-.07.032-.07.032-.077.03-.07.033-.07.023-.07.032-.07.03-.07.032-.078.032-.07.031-.07.032-.07.031-.07.024-.07.031-.077.032-.07.031-.07.031-.07.032-.07.032-.07.03-.078.024-.07.032-.07.031-.07.032-.07.031-.07.032-.078.03-.07.032-.07.024-.07.032-.07.03-.07.032-.077.032-.07.031-.07.032-.07.031-.07.024-.07.031-.07.032-.078.031-.07.031-.07.032-.07.031-.07.032-.07.023-.077.032-.07.031-.07.031-.07.032-.07.032-.07.03-.078.032-.07.024-.07.032-.07.03-.07.032-.07.032-.078.03-.07.032-.07.032-.07.023-.07.032-.07.031-.077.032-.07.031-.07.032-.07.031-.07.031-.07.024-.078.032-.07.031-.07.031-.07h1.454l.032.07.031.07.032.07.031.078.024.07.03.07.033.07.031.07.032.07.03.078.032.07.032.07.023.07.032.07.031.07.032.077.031.07.031.07.032.07.031.07.024.07.031.078.032.07.031.07.032.07.031.07.031.07.032.078.024.07.03.07.032.07.032.07.032.07.03.077.032.07.032.07.023.07.031.07.032.07.031.07.032.077.031.07.032.07.031.07.024.07.031.07.032.078.031.07.032.07.031.07.031.07.032.07.023.078.032.07.031.07.032.07.03.07.032.07.032.077.032.07.023.07.032.07.031.07.031.07.032.078.031.07.032.07.03.07.025.07.031.07.031.078.032.07.031.07.032.07.031.07.032.07.023.077.031.07.032.07.032.07zm-6.885-.723-.063.047-.055.039-.063.046-.062.04-.063.046-.063.039-.063.039-.071.039-.07.038-.071.04-.071.03-.07.039-.08.03-.07.032-.079.031-.07.031-.071.023-.071.024-.07.023-.08.023-.07.024-.079.016-.07.015-.079.015-.079.016-.078.008-.087.008-.078.008-.086.007-.08.008-.086.008h-.338l-.078-.008-.087-.008-.078-.008-.079-.007-.079-.008-.078-.016-.079-.015-.07-.016-.079-.015-.07-.024-.079-.015-.071-.024-.07-.03-.071-.024-.079-.031-.07-.031-.071-.031-.07-.031-.072-.04-.063-.038-.07-.039-.063-.038-.063-.04-.063-.046-.063-.047-.063-.046-.055-.047-.055-.047-.055-.054-.055-.047-.055-.054-.055-.055-.047-.054-.047-.062-.047-.055-.04-.062-.047-.062-.04-.062-.038-.062-.04-.07-.04-.063-.03-.07-.032-.07-.031-.07-.032-.07-.023-.062-.032-.07-.016-.07-.023-.07-.016-.077-.023-.07-.016-.078-.008-.07-.016-.078-.008-.07-.008-.078-.007-.078-.008-.077v-.257l.008-.085v-.078l.007-.078.008-.085.016-.078.008-.077.016-.07.024-.078.015-.078.024-.07.023-.078.024-.07.031-.077.032-.07.031-.07.032-.07.03-.07.04-.07.04-.062.039-.063.04-.062.039-.062.047-.062.047-.062.047-.063.047-.054.055-.055.047-.054.055-.054.055-.055.055-.047.063-.054.055-.047.063-.046.063-.04.063-.046.063-.039.063-.039.07-.039.071-.038.07-.04.071-.03.071-.031.079-.04.063-.023.078-.023.071-.031.07-.016.071-.023.08-.016.07-.023.078-.015.079-.008.079-.016.078-.008.079-.007.078-.008.08-.008h.337l.087.008.086.008h.078l.079.008.086.015.071.008.079.015.078.016.071.015.07.016.071.016.071.023.071.015.063.024.07.023.071.031.07.031.072.031.07.04.071.03.063.04.07.038.064.039.07.039.063.046.063.04.063.046.063.047.063.054.063.047-.048.062-.055.054-.047.063-.055.062-.047.062-.047.054-.055.063-.047.062-.047.054-.055.063-.048.062-.055.062-.047.054-.047.063-.055.062-.047.062-.055.054-.047.063-.063-.047-.063-.054-.063-.04-.063-.046-.062-.039-.064-.039-.062-.038-.07-.04-.064-.03-.063-.032-.063-.023-.07-.023-.071-.024-.071-.015-.079-.016-.078-.015-.079-.008-.086-.008-.087-.008h-.165l-.078.008-.071.008-.079.015-.07.016-.071.023-.07.024-.071.03-.07.032-.064.039-.063.039-.063.039-.055.046-.055.047-.055.047-.047.054-.055.054-.047.063-.04.054-.039.062-.039.07-.04.062-.03.07-.024.07-.032.07-.023.078-.016.077-.016.07-.016.086-.008.078-.007.077v.179l.008.078.007.07.008.078.016.07.016.07.016.07.023.07.024.062.031.078.032.07.039.07.04.062.039.062.047.062.047.055.055.054.047.055.055.046.063.047.063.047.062.038.064.04.07.03.07.031.072.032.078.023.079.023.079.016.078.015.079.008.086.008h.181l.087-.008.086-.008.078-.008.079-.015.079-.016.078-.023.07-.015.071-.032.063-.03.071-.032.055-.03.063-.04v-.707h-1.148v-1.135h2.594v2.527zm-2.527-17.743h3.406v-2.595h-3.406v-5.298h3.542V9.589h-6.434v18.73h6.487v-2.595H15.83zm24.397.562v4.228c0 .749-.352 1.097-1.082 1.097h-.54c-.757 0-1.109-.348-1.109-1.097V13.04c0-.75.352-1.097 1.108-1.097h.487c.73 0 1.082.347 1.082 1.097v3.666h2.838V12.88c0-2.328-1.136-3.451-3.487-3.451h-1.406c-2.352 0-3.514 1.15-3.514 3.478v12.094c0 2.328 1.162 3.479 3.514 3.479h1.433c2.352 0 3.514-1.15 3.514-3.479V20.64zm-10.045 7.68h2.893V9.59h-2.893zm-4.197-10.41c0 .75-.351 1.098-1.081 1.098h-1.19v-6.903h1.19c.73 0 1.081.347 1.081 1.096zm-.622-8.32h-4.541v18.73h2.892v-6.797h1.65c2.351 0 3.513-1.15 3.513-3.478v-4.977c0-2.328-1.162-3.479-3.514-3.479"/><path fill-rule="evenodd" d="M19.76 45.255h16.56L27.867 48z" clip-rule="evenodd"/></g><defs><linearGradient id="a" x1="28" x2="28" y1="0" y2="56" gradientUnits="userSpaceOnUse"><stop stop-color="#181818"/><stop offset="1" stop-color="#0f0f0f"/></linearGradient><filter id="b" width="51.429" height="51.429" x="2.286" y="2.286" color-interpolation-filters="sRGB" filterUnits="userSpaceOnUse"><feFlood flood-opacity="0" result="BackgroundImageFix"/><feColorMatrix in="SourceAlpha" result="hardAlpha" values="0 0 0 0 0 0 0 0 0 0 0 0 0 0 0 0 0 0 127 0"/><feOffset/><feGaussianBlur stdDeviation="2.857"/><feComposite in2="hardAlpha" operator="out"/><feColorMatrix values="0 0 0 0 0 0 0 0 0 0 0 0 0 0 0 0 0 0 0.25 0"/><feBlend in2="BackgroundImageFix" result="effect1_dropShadow_28_3469"/><feBlend in="SourceGraphic" in2="effect1_dropShadow_28_3469" result="shape"/></filter></defs></svg>