<svg xmlns="http://www.w3.org/2000/svg" width="56" height="56" fill="none" viewBox="0 0 56 56"><rect width="56" height="56" fill="url(#a)" rx="8.4"/><rect width="53.9" height="53.9" x="1.05" y="1.05" stroke="#fff" stroke-opacity=".15" stroke-width="2.1" rx="7.35"/><g filter="url(#b)"><path fill="#dd4c35" d="M47.249 26.22 29.784 8.757a2.57 2.57 0 0 0-3.643 0l-3.627 3.627 4.6 4.6a3.058 3.058 0 0 1 3.874 3.9l4.429 4.429a3.062 3.062 0 1 1-1.836 1.729l-4.135-4.136v10.881a3.059 3.059 0 1 1-2.52-.088V22.716a3.066 3.066 0 0 1-1.665-4.02l-4.528-4.531-11.976 11.98a2.57 2.57 0 0 0 0 3.644l17.464 17.459a2.57 2.57 0 0 0 3.643 0L47.25 29.859a2.573 2.573 0 0 0 0-3.644"/><path fill="#fff" d="m22.514 12.384 4.6 4.6a3.058 3.058 0 0 1 3.875 3.9l4.428 4.428a3.061 3.061 0 1 1-1.836 1.729l-4.135-4.136v10.881a3.059 3.059 0 1 1-2.52-.088V22.716a3.065 3.065 0 0 1-1.664-4.02l-4.53-4.531"/></g><defs><linearGradient id="a" x1="28" x2="28" y1="0" y2="56" gradientUnits="userSpaceOnUse"><stop stop-color="#361712"/><stop offset="1" stop-color="#1d0c09"/></linearGradient><filter id="b" width="51.434" height="51.433" x="2.286" y="2.286" color-interpolation-filters="sRGB" filterUnits="userSpaceOnUse"><feFlood flood-opacity="0" result="BackgroundImageFix"/><feColorMatrix in="SourceAlpha" result="hardAlpha" values="0 0 0 0 0 0 0 0 0 0 0 0 0 0 0 0 0 0 127 0"/><feOffset/><feGaussianBlur stdDeviation="2.857"/><feComposite in2="hardAlpha" operator="out"/><feColorMatrix values="0 0 0 0 0 0 0 0 0 0 0 0 0 0 0 0 0 0 0.25 0"/><feBlend in2="BackgroundImageFix" result="effect1_dropShadow_28_3403"/><feBlend in="SourceGraphic" in2="effect1_dropShadow_28_3403" result="shape"/></filter></defs></svg>