<svg xmlns="http://www.w3.org/2000/svg" width="56" height="56" fill="none" viewBox="0 0 56 56"><rect width="56" height="56" fill="url(#a)" rx="8.4"/><rect width="53.9" height="53.9" x="1.05" y="1.05" stroke="#fff" stroke-opacity=".15" stroke-width="2.1" rx="7.35"/><g filter="url(#b)"><path fill="#609926" d="M15.015 16.573c-.412 0-.875.031-1.4.136-.555.108-2.133.437-3.423 1.587-2.863 2.366-2.133 6.128-2.043 6.695.108.689.438 2.606 2.016 4.276 2.915 3.307 9.189 3.232 9.189 3.232s.77 1.704 1.946 3.273c1.592 1.951 3.227 3.473 4.817 3.657 4.01 0 12.02-.007 12.02-.007s.763.007 1.8-.608c.891-.5 1.688-1.38 1.688-1.38s.82-.814 1.967-2.672c.35-.572.641-1.126.896-1.65 0 0 3.512-6.907 3.512-13.63-.07-2.036-.612-2.395-.738-2.513-.26-.241-.61-.237-.61-.237s-7.459.39-11.32.473c-.847.017-1.687.035-2.52.042v6.911l-1.057-.465c0-2.147-.007-6.442-.007-6.442-1.845.025-5.675-.13-5.675-.13s-8.998-.417-9.978-.5c-.311-.017-.668-.05-1.08-.05zm.59 2.83h.185s.452 3.505 1 5.557c.459 1.722 1.577 4.585 1.577 4.585s-1.66-.184-2.735-.538c-1.65-.5-2.348-1.103-2.348-1.103s-1.217-.79-1.827-2.348c-1.05-2.608-.089-4.199-.089-4.199s.534-1.327 2.45-1.768c.659-.164 1.439-.186 1.787-.186m13.883 3.946c.434.004.849.196.849.196l1.446.652-.881 1.66a1.2 1.2 0 0 0-.596.145c-.18.098-.328.24-.428.41a.99.99 0 0 0 .12 1.168l-1.565 2.972a1.2 1.2 0 0 0-.7.233 1.06 1.06 0 0 0-.4.581 1 1 0 0 0 .073.68 1.1 1.1 0 0 0 .506.499c.242.115.52.146.786.088.264-.058.498-.202.659-.406.157-.204.23-.452.21-.7a1.03 1.03 0 0 0-.325-.663l1.526-2.895q.201.018.395-.03c.167-.038.321-.11.452-.212q.874.346 1.693.79c.199.104.363.254.477.436.122.325-.122.88-.122.88-.145.447-1.17 2.394-1.17 2.394a1.2 1.2 0 0 0-.695.195 1.08 1.08 0 0 0-.431.542 1 1 0 0 0-.024.542c.043.18.136.346.27.481.134.136.305.237.494.293s.39.064.585.025a1.2 1.2 0 0 0 .52-.249c.148-.123.257-.28.318-.456a1 1 0 0 0 .03-.542 1.03 1.03 0 0 0-.265-.484c.122-.218.235-.435.357-.665.316-.614.858-1.793.858-1.793.058-.101.363-.608.172-1.257-.159-.672-.8-.986-.8-.986-.779-.465-1.86-.896-1.86-.896s0-.24-.07-.417a1.05 1.05 0 0 0-.247-.372l.86-1.64 4.817 2.164s.8.337.971.956c.122.436-.031.825-.115 1.015-.4.907-3.5 6.669-3.5 6.669s-.386.856-1.246.908a1.9 1.9 0 0 1-.655-.07l-.337-.123-7.183-3.244s-.695-.337-.817-.92c-.138-.48.173-1.068.173-1.068l3.455-6.6s.305-.571.777-.767a1.5 1.5 0 0 1 .583-.12"/></g><defs><linearGradient id="a" x1="28" x2="28" y1="0" y2="56" gradientUnits="userSpaceOnUse"><stop stop-color="#263813"/><stop offset="1" stop-color="#131f07"/></linearGradient><filter id="b" width="51.429" height="51.429" x="2.286" y="2.286" color-interpolation-filters="sRGB" filterUnits="userSpaceOnUse"><feFlood flood-opacity="0" result="BackgroundImageFix"/><feColorMatrix in="SourceAlpha" result="hardAlpha" values="0 0 0 0 0 0 0 0 0 0 0 0 0 0 0 0 0 0 127 0"/><feOffset/><feGaussianBlur stdDeviation="2.857"/><feComposite in2="hardAlpha" operator="out"/><feColorMatrix values="0 0 0 0 0 0 0 0 0 0 0 0 0 0 0 0 0 0 0.25 0"/><feBlend in2="BackgroundImageFix" result="effect1_dropShadow_2_1273"/><feBlend in="SourceGraphic" in2="effect1_dropShadow_2_1273" result="shape"/></filter></defs></svg>