<svg xmlns="http://www.w3.org/2000/svg" width="56" height="56" fill="none" viewBox="0 0 56 56"><rect width="56" height="56" fill="url(#a)" rx="8.4"/><rect width="53.9" height="53.9" x="1.05" y="1.05" stroke="#fff" stroke-opacity=".15" stroke-width="2.1" rx="7.35"/><g filter="url(#b)"><path fill="#ea4335" d="M26.774 27.105 9.582 44.685a4.5 4.5 0 0 0 1.014 1.8 4.7 4.7 0 0 0 1.723 1.182 4.77 4.77 0 0 0 4.091-.282l19.345-10.752z"/><path fill="#fbbc04" d="m44.159 24.117-8.366-4.676-9.416 8.064 9.455 9.103 8.301-4.626a4.5 4.5 0 0 0 1.781-1.635c.43-.693.658-1.488.658-2.298a4.36 4.36 0 0 0-.658-2.298 4.5 4.5 0 0 0-1.78-1.634z"/><path fill="#4285f4" d="M9.582 11.326a4.2 4.2 0 0 0-.154 1.15v31.058q.002.586.154 1.15l17.781-17.129z"/><path fill="#34a853" d="m26.902 28.005 8.89-8.564L16.475 8.638A4.86 4.86 0 0 0 14.08 8a4.74 4.74 0 0 0-2.82.919 4.55 4.55 0 0 0-1.677 2.394z"/></g><defs><linearGradient id="a" x1="28" x2="28" y1="0" y2="56" gradientUnits="userSpaceOnUse"><stop stop-color="#00171c"/><stop offset=".333" stop-color="#0a1209"/><stop offset=".667" stop-color="#100f06"/><stop offset="1" stop-color="#1a0000"/></linearGradient><filter id="b" width="51.429" height="51.429" x="2.286" y="2.286" color-interpolation-filters="sRGB" filterUnits="userSpaceOnUse"><feFlood flood-opacity="0" result="BackgroundImageFix"/><feColorMatrix in="SourceAlpha" result="hardAlpha" values="0 0 0 0 0 0 0 0 0 0 0 0 0 0 0 0 0 0 127 0"/><feOffset/><feGaussianBlur stdDeviation="2.857"/><feComposite in2="hardAlpha" operator="out"/><feColorMatrix values="0 0 0 0 0 0 0 0 0 0 0 0 0 0 0 0 0 0 0.25 0"/><feBlend in2="BackgroundImageFix" result="effect1_dropShadow_1_152"/><feBlend in="SourceGraphic" in2="effect1_dropShadow_1_152" result="shape"/></filter></defs></svg>