<svg xmlns="http://www.w3.org/2000/svg" width="56" height="56" fill="none" viewBox="0 0 56 56"><rect width="56" height="56" fill="url(#a)" rx="8.4"/><rect width="53.9" height="53.9" x="1.05" y="1.05" stroke="#fff" stroke-opacity=".15" stroke-width="2.1" rx="7.35"/><g filter="url(#b)"><path fill="#7dc1d1" d="M45.816 14.935c-2.501-2.551-6.337-2.551-8.838-.17-.166.17-.166.34-.166.51s0 .34.166.51l.834.851c.167.17.5.17.834 0 .667-.51 1.334-.68 2.167-.68 2.001 0 3.669 1.7 3.669 3.742q0 1.53-1 2.551c-5.003 5.103-11.84-9.185-27.013-1.87-1 .51-1.5 1.7-1 2.72v.17l2.5 4.593c.501 1.02 1.835 1.36 2.835.85l1.168-.68c1.333-.85 2.5-1.7 3.668-2.721.167-.17.667-.17.834 0 .333.17.333.51.166.85l-.166.17a32.6 32.6 0 0 1-3.835 2.892l-1.168.51c-.5.34-1 .51-1.667.51-1.167 0-2.334-.68-2.835-1.7l-2.5-4.423c-4.67 3.402-7.671 10.035-6.004 18.37 0 .34.334.51.667.51h2.835c.333 0 .5-.17.667-.51.333-2.382 2.334-3.912 4.669-3.572 1.834.17 3.335 1.7 3.501 3.572 0 .34.334.51.667.51h2.668c.334 0 .5-.17.667-.51.334-2.382 2.335-3.912 4.669-3.572 1.834.17 3.335 1.7 3.502 3.572 0 .34.333.51.667.51h2.667c.334 0 .667-.34.667-.68 0-3.912 1.168-8.335 4.002-10.546 9.838-7.824 7.17-14.457 4.836-16.839M35.478 26.672l-2.001-1.021c0-.68.5-1.19 1.167-1.19s1.167.51 1.167 1.19c.167.51 0 .85-.333 1.02"/></g><defs><linearGradient id="a" x1="28" x2="28" y1="0" y2="56" gradientUnits="userSpaceOnUse"><stop stop-color="#19282c"/><stop offset="1" stop-color="#121c1f"/></linearGradient><filter id="b" width="51.429" height="51.429" x="2.286" y="2.286" color-interpolation-filters="sRGB" filterUnits="userSpaceOnUse"><feFlood flood-opacity="0" result="BackgroundImageFix"/><feColorMatrix in="SourceAlpha" result="hardAlpha" values="0 0 0 0 0 0 0 0 0 0 0 0 0 0 0 0 0 0 127 0"/><feOffset/><feGaussianBlur stdDeviation="2.857"/><feComposite in2="hardAlpha" operator="out"/><feColorMatrix values="0 0 0 0 0 0 0 0 0 0 0 0 0 0 0 0 0 0 0.25 0"/><feBlend in2="BackgroundImageFix" result="effect1_dropShadow_28_3486"/><feBlend in="SourceGraphic" in2="effect1_dropShadow_28_3486" result="shape"/></filter></defs></svg>