<svg xmlns="http://www.w3.org/2000/svg" width="56" height="56" fill="none" viewBox="0 0 56 56"><rect width="56" height="56" fill="url(#a)" rx="8.4"/><rect width="53.9" height="53.9" x="1.05" y="1.05" stroke="#fff" stroke-opacity=".15" stroke-width="2.1" rx="7.35"/><g fill="#fff" filter="url(#b)"><path d="M41 25.676c-2.915-1.141-7.213 3.232-9.317 9.949A28 28 0 0 0 30.631 47l-1.352-.602c-2.585-8.46-1.142-17.712 3.336-24.398z"/><path d="m43.526 39.413-10.373-4.278c1.906-5.777 5.437-9.243 7.717-9.243q.353.013.688.125l.187.094c.813.375 3.281 2.498 1.781 13.302m-3.718-25.636a22.9 22.9 0 0 0-8.061 7.307c-4.562 6.62-6.124 15.581-3.75 23.95.283 1.008.627 2 1.031 2.966l-13.904-5.745C9.874 29.39 14.687 14.058 25.904 8z"/></g><defs><linearGradient id="a" x1="28" x2="28" y1="0" y2="56" gradientUnits="userSpaceOnUse"><stop stop-color="#1c252c"/><stop offset="1" stop-color="#13191d"/></linearGradient><filter id="b" width="51.429" height="51.429" x="2.286" y="2.286" color-interpolation-filters="sRGB" filterUnits="userSpaceOnUse"><feFlood flood-opacity="0" result="BackgroundImageFix"/><feColorMatrix in="SourceAlpha" result="hardAlpha" values="0 0 0 0 0 0 0 0 0 0 0 0 0 0 0 0 0 0 127 0"/><feOffset/><feGaussianBlur stdDeviation="2.857"/><feComposite in2="hardAlpha" operator="out"/><feColorMatrix values="0 0 0 0 0 0 0 0 0 0 0 0 0 0 0 0 0 0 0.25 0"/><feBlend in2="BackgroundImageFix" result="effect1_dropShadow_4_1058"/><feBlend in="SourceGraphic" in2="effect1_dropShadow_4_1058" result="shape"/></filter></defs></svg>