<svg xmlns="http://www.w3.org/2000/svg" width="56" height="56" fill="none" viewBox="0 0 56 56"><rect width="56" height="56" fill="url(#a)" rx="8.4"/><rect width="53.9" height="53.9" x="1.05" y="1.05" stroke="#fff" stroke-opacity=".15" stroke-width="2.1" rx="7.35"/><g filter="url(#b)"><path fill="#6e93b7" d="M33.324 8c-3.387.655-5.782 1.999-7.215 3.864l4.808 2.772a4.7 4.7 0 0 1 3.141-.323c.301-1.818.079-3.93-.734-6.313m-8.24 5.1-7.379 12.76 7.9 4.56 1.855-3.21c-.842-.83-1.194-2.092-1.238-3.408-.054-1.608.337-3.397 1.065-5.015.54-1.2 1.265-2.313 2.182-3.154zm17.512.25c-2.493.481-4.447 1.338-5.877 2.5a4.7 4.7 0 0 1 1.296 2.883l4.795 2.764c.907-2.175.89-4.913-.214-8.148m-30.63.683L8.746 19.6l8.652 3.623 5.158-8.924zm20.918 1.692c-.555.008-1.068.191-1.575.495-1.013.608-1.94 1.808-2.573 3.215-.634 1.407-.974 3.01-.93 4.314.042 1.303.45 2.208 1.086 2.576h.003c.636.366 1.624.267 2.775-.347 1.152-.615 2.37-1.709 3.273-2.96.903-1.252 1.48-2.657 1.5-3.837s-.396-2.14-1.738-2.913c-.671-.388-1.267-.552-1.821-.543m4.988 4.756c-.271 1.213-.873 2.396-1.643 3.464-1.038 1.438-2.39 2.67-3.812 3.429-1.165.622-2.442.949-3.586.63l-1.853 3.204 7.899 4.558 7.371-12.761zm4.599 5.307-5.155 8.927 7.466 5.677L48 34.82zm-23.466 2.65c-1.906.834-3.37 1.962-4.395 3.334l7.422 4.282c.682-1.574.937-3.398.72-5.452zm-5.097 4.76L8 43.412v3.165l7.281-12.59zm14.369.59c-1.907.833-3.37 1.96-4.395 3.334l7.422 4.282c.682-1.576.938-3.4.721-5.456zm-11.458 1.088L9.185 48h1.834l7.175-12.33zm2.92 1.684L13.143 48h1.83l6.138-10.648zm3.465 2L17.842 48h1.823l4.912-8.649zm2.92 1.686L21.795 48h1.813l3.89-6.965zm2.922 1.685L25.743 48h1.808l2.87-5.279z"/></g><defs><linearGradient id="a" x1="28" x2="28" y1="0" y2="56" gradientUnits="userSpaceOnUse"><stop stop-color="#1e2833"/><stop offset="1" stop-color="#141b22"/></linearGradient><filter id="b" width="51.429" height="51.429" x="2.286" y="2.286" color-interpolation-filters="sRGB" filterUnits="userSpaceOnUse"><feFlood flood-opacity="0" result="BackgroundImageFix"/><feColorMatrix in="SourceAlpha" result="hardAlpha" values="0 0 0 0 0 0 0 0 0 0 0 0 0 0 0 0 0 0 127 0"/><feOffset/><feGaussianBlur stdDeviation="2.857"/><feComposite in2="hardAlpha" operator="out"/><feColorMatrix values="0 0 0 0 0 0 0 0 0 0 0 0 0 0 0 0 0 0 0.25 0"/><feBlend in2="BackgroundImageFix" result="effect1_dropShadow_28_3500"/><feBlend in="SourceGraphic" in2="effect1_dropShadow_28_3500" result="shape"/></filter></defs></svg>