<svg xmlns="http://www.w3.org/2000/svg" width="56" height="56" fill="none" viewBox="0 0 56 56"><g clip-path="url(#a)"><rect width="56" height="56" fill="url(#b)" rx="8.4"/><g filter="url(#c)"><path fill="#fff" d="M9.382 15.143v.721c5.036 3.772 3.94 20.463 1.405 25.955h-.703l-2.81-1.442-.703 2.884c3.746 1.618 6.756-1.332 7.963-5.047 2.364-7.28.3-15.83 2.576-23.07zm9.836 0v.721c4.5 3.37 5.677 9.824 7.26 15.14.742 2.493.712 5.524 3.278 6.489l4.216-12.977h.702l4.216 12.977h.702c2.974-6.823 3.61-16.967 9.836-21.629v-.72H41.7l2.108 1.441-3.513 13.698c-2.644-5.426-3.925-9.886-2.108-15.14H30.46l3.044 6.249-3.044 9.612h-.703l-2.107-15.86z"/></g></g><rect width="53.9" height="53.9" x="1.05" y="1.05" stroke="#fff" stroke-opacity=".15" stroke-width="2.1" rx="7.35"/><defs><linearGradient id="b" x1="28" x2="28" y1="0" y2="56" gradientUnits="userSpaceOnUse"><stop stop-color="#3a0809"/><stop offset="1" stop-color="#230506"/></linearGradient><clipPath id="a"><rect width="56" height="56" fill="#fff" rx="8.4"/></clipPath><filter id="c" width="54.285" height="51.429" x=".857" y="2.286" color-interpolation-filters="sRGB" filterUnits="userSpaceOnUse"><feFlood flood-opacity="0" result="BackgroundImageFix"/><feColorMatrix in="SourceAlpha" result="hardAlpha" values="0 0 0 0 0 0 0 0 0 0 0 0 0 0 0 0 0 0 127 0"/><feOffset/><feGaussianBlur stdDeviation="2.857"/><feComposite in2="hardAlpha" operator="out"/><feColorMatrix values="0 0 0 0 0 0 0 0 0 0 0 0 0 0 0 0 0 0 0.25 0"/><feBlend in2="BackgroundImageFix" result="effect1_dropShadow_1_124"/><feBlend in="SourceGraphic" in2="effect1_dropShadow_1_124" result="shape"/></filter></defs></svg>