<svg xmlns="http://www.w3.org/2000/svg" width="56" height="56" fill="none" viewBox="0 0 56 56"><rect width="56" height="56" fill="url(#a)" rx="8.4"/><rect width="53.9" height="53.9" x="1.05" y="1.05" stroke="#fff" stroke-opacity=".15" stroke-width="2.1" rx="7.35"/><g fill="#00d845" filter="url(#b)"><path d="M26.011 8.114c-6.901.685-12.893 4.825-15.996 11.056a20 20 0 0 0-1.962 6.721L8 26.408h1.783c.981 0 1.784-.027 1.793-.072.098-1.45.74-3.73 1.515-5.359 2.755-5.768 8.489-9.391 14.837-9.391 2.693 0 4.975.525 7.311 1.682 2.658 1.317 4.789 3.187 6.42 5.617.722 1.077 1.721 3.045 1.596 3.152-.044.044-.758.258-1.578.472l-1.498.4-.392-.765c-1.266-2.529-3.38-4.647-5.876-5.903-.9-.454-1.828-.8-1.97-.747-.063.017-.143.231-.17.471-.036.232-.134.846-.232 1.362-.089.517-.187 1.086-.214 1.264l-.062.33.758.356c2.603 1.21 4.484 3.454 5.278 6.285.232.819.259 1.006.259 2.448s-.027 1.63-.259 2.448c-.472 1.674-1.31 3.152-2.46 4.309-.66.668-1.633 1.389-2.337 1.754-.24.115-.428.267-.428.329.009.151.856 3.267.919 3.32.08.08 1.587-.72 2.47-1.308 1.105-.739 2.639-2.27 3.379-3.374 1.034-1.549 1.676-3.036 2.077-4.816.17-.784.205-1.184.205-2.635 0-1.442.018-1.718.134-1.745 1.088-.312 2.97-.775 3.005-.748.062.071.16 1.558.16 2.466 0 1.229-.116 2.43-.312 3.294-.089.41-.16.757-.151.765.008.018.758.285 1.658.615 1.248.454 1.658.57 1.712.48.143-.24.526-2.59.624-3.845.205-2.804-.285-6.027-1.31-8.564-2.89-7.149-9.202-11.903-16.799-12.641-1.525-.152-2.327-.152-3.834 0"/><path d="M26.457 14.897c-.651.062-2.104.41-2.844.668-3.647 1.282-6.652 4.21-8.007 7.816-1.053 2.786-1.088 6.285-.09 9.018l.223.605-.82.472c-1.64.953-1.935 1.122-1.997 1.122-.08 0-.473-.988-.722-1.825-.286-.997-.589-2.44-.624-3.098-.01-.036-.812-.062-1.793-.062H8l.053.507c.473 4.602 2.595 8.947 5.974 12.232 7.927 7.691 20.58 7.504 28.31-.419 1.016-1.05 2.024-2.341 2.737-3.516.615-1.024 1.088-1.985 1.017-2.057-.036-.035-.464-.204-.955-.382s-1.15-.419-1.47-.526c-.322-.115-.643-.24-.714-.267-.098-.035-.223.116-.472.597-1.498 2.92-4.298 5.573-7.463 7.086-2.702 1.282-5.448 1.763-8.703 1.504-3.183-.249-6.732-1.816-9.308-4.103-.732-.65-1.793-1.79-2.194-2.36-.134-.195-.205-.142 1.864-1.344l.775-.454 1.097 1.095c1.962 1.967 4.066 3.125 6.759 3.73.793.17 1.177.205 2.639.205.936 0 1.73-.027 1.756-.053.036-.027-.107-.65-.303-1.38s-.401-1.487-.454-1.692l-.099-.365-1.257-.053c-2.372-.098-4.253-.846-6.018-2.395-.295-.258-.625-.579-.723-.703l-.178-.232 1.97-1.14 1.98-1.13 2.069 2.19 2.38-.49 2.381-.48 3.21-3.205-.285-1.05c-.179-.668-.322-1.042-.393-1.042s-.793.178-1.614.4l-1.498.41-.624.605c-.677.66-.58.633-2.05.766l-.536.053-.642-.632c-.356-.338-.65-.64-.65-.658 0-.027-.098-.4-.214-.846l-.214-.81.58-.775c.32-.436.597-.792.614-.81.01-.017.393-.133.856-.249l.83-.214 1.132-1.13c.633-.623 1.141-1.175 1.141-1.229 0-.053-.338-.427-.749-.837l-.749-.738-2.166.587-2.176.588-.446.463a60 60 0 0 0-1.114 1.228c-.366.41-.83.935-1.026 1.157-.758.855-.73.597-.258 2.217.223.792.401 1.46.383 1.469-.044.035-1.89 1.113-3.031 1.754-.428.24-.812.436-.865.436-.045 0-.179-.374-.294-.828-.188-.703-.215-1.024-.215-2.332.01-1.38.027-1.594.26-2.404.48-1.71 1.31-3.143 2.505-4.335 1.64-1.638 3.798-2.644 5.991-2.796.928-.07.856 0 1.008-.97.053-.347.134-.784.178-.98.045-.195.098-.516.125-.712.036-.195.08-.49.107-.65l.054-.284-.919.018c-.508 0-1.07.026-1.24.044"/></g><defs><linearGradient id="a" x1="28" x2="28" y1="0" y2="56" gradientUnits="userSpaceOnUse"><stop stop-color="#072c13"/><stop offset="1" stop-color="#041c0b"/></linearGradient><filter id="b" width="51.429" height="51.429" x="2.286" y="2.286" color-interpolation-filters="sRGB" filterUnits="userSpaceOnUse"><feFlood flood-opacity="0" result="BackgroundImageFix"/><feColorMatrix in="SourceAlpha" result="hardAlpha" values="0 0 0 0 0 0 0 0 0 0 0 0 0 0 0 0 0 0 127 0"/><feOffset/><feGaussianBlur stdDeviation="2.857"/><feComposite in2="hardAlpha" operator="out"/><feColorMatrix values="0 0 0 0 0 0 0 0 0 0 0 0 0 0 0 0 0 0 0.25 0"/><feBlend in2="BackgroundImageFix" result="effect1_dropShadow_28_3506"/><feBlend in="SourceGraphic" in2="effect1_dropShadow_28_3506" result="shape"/></filter></defs></svg>