<svg xmlns="http://www.w3.org/2000/svg" width="56" height="56" fill="none" viewBox="0 0 56 56"><g clip-path="url(#a)"><rect width="56" height="56" fill="url(#b)" rx="8.4"/><g filter="url(#c)"><path fill="url(#d)" stroke="#544125" stroke-width="1.357" d="m26.3 7.354 5 1.587.411.13.056.428 1.667 12.696.013.094-.015.094-.833 5.555-.113.754-.736-.2-5.834-1.588-.617-.168.132-.626.809-3.854-.58-4.423-3.164 4.821-.202.307h-2.399l-.201-.307-3.164-4.82-.581 4.422.81 3.854.131.627-.617.167-5.833 1.587-.736.2-.114-.753-.833-5.555-.014-.094.012-.095L10.422 9.5l.056-.429.411-.13 5-1.586.383-.122.291.277 4.531 4.314 4.532-4.314.291-.277z"/><circle cx="26.214" cy="13.357" r="1.786" fill="#000"/><circle cx="16.214" cy="13.357" r="1.786" fill="#000"/><path fill="url(#e)" stroke="#959595" stroke-width="1.357" d="m30.05 48.647-4.896-1.554-.41-.13-.056-.428-1.632-12.428-.013-.095.015-.095.815-5.437.113-.755.736.2 5.71 1.554.619.168-.132.627-.792 3.773.563 4.286 3.077-4.687.2-.307h2.365l.201.307 3.077 4.687.563-4.288-.792-3.771-.132-.627.617-.168 5.711-1.554.736-.2.114.755.815 5.437.015.095-.013.095-1.632 12.428-.055.428-.413.13-4.894 1.554-.383.122-.29-.278-4.427-4.213-4.427 4.213-.291.278z"/></g></g><rect width="53.9" height="53.9" x="1.05" y="1.05" stroke="#fff" stroke-opacity=".15" stroke-width="2.1" rx="7.35"/><defs><linearGradient id="b" x1="28" x2="28" y1="0" y2="56" gradientUnits="userSpaceOnUse"><stop stop-color="#2c2a07"/><stop offset="1" stop-color="#1c1604"/></linearGradient><linearGradient id="d" x1="21.095" x2="21.095" y1="8" y2="27.837" gradientUnits="userSpaceOnUse"><stop stop-color="#fff500"/><stop offset="1" stop-color="#d7a700"/></linearGradient><linearGradient id="e" x1="35.15" x2="35.15" y1="48" y2="28.58" gradientUnits="userSpaceOnUse"><stop stop-color="#111000"/><stop offset="1" stop-color="#161100"/></linearGradient><clipPath id="a"><rect width="56" height="56" fill="#fff" rx="8.4"/></clipPath><filter id="c" width="51.429" height="54.501" x="2.286" y=".749" color-interpolation-filters="sRGB" filterUnits="userSpaceOnUse"><feFlood flood-opacity="0" result="BackgroundImageFix"/><feColorMatrix in="SourceAlpha" result="hardAlpha" values="0 0 0 0 0 0 0 0 0 0 0 0 0 0 0 0 0 0 127 0"/><feOffset/><feGaussianBlur stdDeviation="2.857"/><feComposite in2="hardAlpha" operator="out"/><feColorMatrix values="0 0 0 0 0 0 0 0 0 0 0 0 0 0 0 0 0 0 0.25 0"/><feBlend in2="BackgroundImageFix" result="effect1_dropShadow_4_42"/><feBlend in="SourceGraphic" in2="effect1_dropShadow_4_42" result="shape"/></filter></defs></svg>