<svg xmlns="http://www.w3.org/2000/svg" width="56" height="56" fill="none" viewBox="0 0 56 56"><rect width="56" height="56" fill="url(#a)" rx="8.4"/><rect width="53.9" height="53.9" x="1.05" y="1.05" stroke="#fff" stroke-opacity=".15" stroke-width="2.1" rx="7.35"/><g filter="url(#b)"><path fill="url(#c)" d="M8 28c0 11.046 8.954 20 20 20s20-8.954 20-20S39.046 8 28 8 8 16.954 8 28"/><path fill="#fff" d="M23.29 25.453c-.898-1.212-2.668-2.008-4.317-2.008-2.725 0-5.259 1.634-5.259 6.118v7.518c0 .509.424.92.946.92a.934.934 0 0 0 .945-.92v-7.518c0-3.408 1.684-4.275 3.368-4.275s3.368 1.366 3.368 3.672v8.12c0 .51.424.92.946.92h.008c.522 0 .945-.41.945-.92v-8.12c0-2.306 1.684-3.672 3.368-3.672 1.07 0 3.368.463 3.368 3.672l.064 2.728c0 5.039 3.465 6.312 5.67 6.312s5.508-1.486 5.576-5.945V24.92c0-1.227-1.897-1.227-1.897 0v7.135c0 3.382-2.576 4.103-3.679 4.103s-3.78-.507-3.78-4.47l-.063-2.578c0-3.822-2.457-5.818-5.259-5.818-1.649 0-3.42.949-4.318 2.16m9.433-4.62c0-1.846 1.392-3.844 3.799-3.844s3.794 1.999 3.794 3.843a.951.951 0 0 0 1.894 0c0-3.228-2.494-5.688-5.688-5.688-3.195 0-5.688 2.46-5.688 5.688a.949.949 0 0 0 1.889 0"/><path fill="#fff" d="M37.951 20.883c0-.673-.558-1.218-1.247-1.218s-1.248.545-1.248 1.218.559 1.218 1.248 1.218c.69 0 1.247-.545 1.247-1.218"/></g><defs><linearGradient id="a" x1="28" x2="28" y1="0" y2="56" gradientUnits="userSpaceOnUse"><stop stop-color="#170b3f"/><stop offset="1" stop-color="#0f0729"/></linearGradient><linearGradient id="c" x1="28" x2="28" y1="8" y2="48" gradientUnits="userSpaceOnUse"><stop stop-color="#5529e5"/><stop offset="1" stop-color="#0f0239"/></linearGradient><filter id="b" width="51.429" height="51.429" x="2.286" y="2.286" color-interpolation-filters="sRGB" filterUnits="userSpaceOnUse"><feFlood flood-opacity="0" result="BackgroundImageFix"/><feColorMatrix in="SourceAlpha" result="hardAlpha" values="0 0 0 0 0 0 0 0 0 0 0 0 0 0 0 0 0 0 127 0"/><feOffset/><feGaussianBlur stdDeviation="2.857"/><feComposite in2="hardAlpha" operator="out"/><feColorMatrix values="0 0 0 0 0 0 0 0 0 0 0 0 0 0 0 0 0 0 0.25 0"/><feBlend in2="BackgroundImageFix" result="effect1_dropShadow_1_113"/><feBlend in="SourceGraphic" in2="effect1_dropShadow_1_113" result="shape"/></filter></defs></svg>