<svg xmlns="http://www.w3.org/2000/svg" width="56" height="56" fill="none" viewBox="0 0 56 56"><rect width="56" height="56" fill="url(#a)" rx="8.4"/><rect width="53.9" height="53.9" x="1.05" y="1.05" stroke="#fff" stroke-opacity=".15" stroke-width="2.1" rx="7.35"/><g filter="url(#b)"><path fill="#fefefe" d="M36.577 8.93a9.5 9.5 0 0 1 2.188-.921c.188-.032.377.03.56.076.948.3 1.791.846 2.613 1.393a25 25 0 0 1 3.295 2.707c.12.108.238.221.336.35q-.178-.018-.355-.04c-.878-.096-1.743.173-2.543.51-.9.408-1.731.958-2.495 1.584q-.175.142-.34.296c-.194.106-.32.295-.482.44-.201.185-.38.397-.607.552a9 9 0 0 1-.897.938c-.287.402-.614.773-.92 1.161-.29.391-.562.794-.851 1.186a2 2 0 0 0-.172.299c-.336.416-.58.9-.836 1.368-.085.224-.26.42-.255.67.295.126.57.293.854.442q.728.372 1.438.778c-.293.171-.626.246-.927.4-.372.108-.715.295-1.086.405-.465.207-.95.365-1.417.568-.62.22-1.222.487-1.839.716-.827.318-1.643.67-2.487.944-.15-.156-.134-.398-.185-.596-.152-.431-.257-.877-.374-1.318-.051-.178-.106-.354-.133-.538l-.076-.113c-.035-.357-.183-.687-.248-1.038-.046-.242-.156-.468-.18-.715l-.06-.092c-.034-.306-.149-.593-.223-.89a84 84 0 0 0-.576-2.154c-.063-.308-.173-.606-.213-.919.218.03.388.169.574.273.324.136.616.334.935.482.185.081.345.22.549.26.622-1.425 1.304-2.827 2.122-4.151.037-.064.065-.133.096-.2.22-.264.378-.57.579-.848.268-.376.53-.759.835-1.107.223-.255.422-.531.661-.771l.48-.481c.442-.413.916-.792 1.422-1.124.416-.256.81-.547 1.24-.782"/><path fill="#f9a332" d="M23.83 10.335c1.295-.323 2.629-.456 3.96-.5 2.075-.004 4.167.294 6.124 1l-.48.482c-.238.24-.437.516-.66.771-.306.348-.567.731-.836 1.107-.2.278-.359.584-.578.848-.031.067-.06.136-.097.2-.817 1.324-1.5 2.726-2.122 4.15-.203-.038-.363-.177-.549-.26-.319-.147-.61-.345-.935-.481-.185-.104-.356-.244-.573-.273.04.313.15.61.213.919q.303 1.074.575 2.154c.075.297.19.584.224.89l.058.092c.025.247.135.473.18.716.067.35.214.68.25 1.037l.076.114c.026.183.081.36.132.537.117.44.222.887.375 1.318.05.198.035.44.185.597.844-.274 1.66-.627 2.487-.945.617-.229 1.218-.497 1.838-.716.467-.203.953-.36 1.417-.568.372-.11.714-.297 1.087-.405.3-.154.634-.229.926-.4q-.71-.406-1.438-.778c-.283-.149-.558-.316-.853-.442-.005-.25.17-.445.254-.67.256-.468.5-.952.836-1.368.051-.103.104-.206.172-.3.29-.39.562-.794.852-1.184.305-.389.633-.76.92-1.162.319-.291.622-.604.897-.938.227-.155.405-.367.607-.552.162-.145.287-.334.48-.44q.166-.154.342-.296c.617.449 1.077 1.066 1.59 1.621.195.198.345.433.53.64.38.525.767 1.048 1.087 1.613.201.281.355.591.525.892.131.24.204.509.363.734.778 1.58 1.286 3.29 1.558 5.029.2 1.274.222 2.57.17 3.856a17.4 17.4 0 0 1-.921 4.692c-1.41-1.433-3.132-2.513-4.897-3.45-.423-.246-.875-.434-1.31-.656a14 14 0 0 0-1.143-.523c-.082-.025-.1-.108-.116-.18l.148-.114c.143-.42.405-.784.59-1.186.089-.211.237-.392.312-.61a.95.95 0 0 0-.397.06 997 997 0 0 0-6.518 1.758c-.494.096-.968.283-1.463.384.037.172.088.34.142.508.19.438.33.896.525 1.332.17.444.327.895.518 1.331.588 1.558 1.22 3.098 1.8 4.658.189-.211.282-.482.426-.722.284-.523.562-1.05.846-1.575.1.01.202.02.291.073.26.143.54.251.787.419a.9.9 0 0 0 .277.114c.305.26.676.426.99.675.681.44 1.322.94 1.94 1.465.276.195.491.463.776.645.115.152.246.29.384.42.181.172.34.37.55.511.243.331.54.62.802.937-.11.252-.34.409-.522.603-.523.598-1.167 1.068-1.77 1.58-.253.232-.558.393-.83.6-.65.486-1.357.887-2.086 1.242a17.7 17.7 0 0 1-6.929 1.887c-.619.07-1.244.025-1.866.036-1.538-.079-3.075-.316-4.549-.774-.183-.054-.37-.1-.54-.192a14 14 0 0 0 1.516-1.836 4 4 0 0 1 .174-.233l.039-.13c.24-.202.363-.497.543-.746.174-.244.275-.53.448-.776.276-.462.51-.949.79-1.407.077-.26.238-.483.328-.738a10 10 0 0 0 .49-1.036l.103-.035q.02-.177.042-.353c.25.02.458.167.677.275.473.244.925.53 1.41.75-.005-.395-.166-.76-.254-1.137-.27-.988-.515-1.982-.794-2.968a2 2 0 0 0-.11-.288c-.097-.58-.305-1.137-.423-1.715-.118-.265-.142-.558-.224-.834a19 19 0 0 1-.376-1.443c-.264-.04-.473.146-.712.218-.454.151-.89.353-1.34.515-.382.161-.779.286-1.159.452q-.17.074-.347.125c-.452.203-.927.349-1.38.548-.445.163-.89.325-1.323.518-.378.144-.764.273-1.128.45l-.31.086-.022.179c.73.376 1.453.767 2.172 1.163-.012.092-.016.191-.064.276-.292.552-.559 1.12-.918 1.633a26 26 0 0 1-1.814 2.453c-.276.327-.585.626-.852.962a7 7 0 0 0-.926.92c-.206.137-.38.313-.568.473-.359-.332-.702-.682-1.048-1.028a27 27 0 0 1-1.752-2.21c-.153-.281-.377-.517-.52-.805-.186-.392-.435-.75-.64-1.133a4 4 0 0 0-.389-.859c-.186-.38-.323-.783-.482-1.175.094-.044.058-.155.024-.223a.6.6 0 0 0-.053.203 3 3 0 0 0-.165-.55 17.5 17.5 0 0 1-.712-3.113c-.056-.423-.131-.846-.121-1.274a15.6 15.6 0 0 1-.002-2.39c.02-.189-.023-.4.049-.572l.026.01.023.04c-.01-.08-.023-.16-.018-.239.082-.73.197-1.458.37-2.173.09-.407.224-.803.323-1.209l.11-.04c.43.43.878.84 1.364 1.207.374.263.734.547 1.11.808a32 32 0 0 0 4.17 2.277c.25.136.542.191.763.38a.22.22 0 0 1-.023.14c-.248.45-.486.903-.727 1.356-.095.16-.181.324-.241.5.326.02.625-.122.94-.179.285-.055.548-.19.839-.224 1.52-.43 3.047-.827 4.572-1.236.368-.072.716-.22 1.088-.273l.101-.076c.291-.005.55-.162.838-.184-.168-.577-.428-1.12-.627-1.687-.42-1.064-.828-2.132-1.237-3.2-.13-.268-.203-.56-.343-.824-.215-.648-.488-1.274-.727-1.913-.027-.066-.058-.194-.158-.134-.081.106-.133.23-.192.35-.13.275-.304.53-.406.817-.227.32-.387.68-.57 1.025-.27.006-.504-.138-.734-.262-1.079-.536-2.044-1.266-3.005-1.986-.384-.322-.783-.625-1.15-.966-.737-.713-1.478-1.429-2.114-2.235.283-.364.629-.67.942-1.005.335-.312.657-.64 1.024-.916.44-.319.82-.718 1.292-.995.573-.37 1.119-.793 1.75-1.064.684-.412 1.43-.707 2.168-1.007.71-.257 1.43-.488 2.166-.662"/><path fill="#9d6b36" d="M12.487 10.687c.364-.12.748-.107 1.125-.105.408.01.822-.035 1.223.057a9 9 0 0 1 2.24.482c.555.18 1.112.36 1.648.596.251.11.5.238.773.287-.631.27-1.177.694-1.75 1.064-.471.276-.852.676-1.292.995-.367.276-.69.603-1.024.915-.313.337-.66.642-.942 1.006-.944-1.198-1.774-2.565-1.988-4.102-.06-.387 0-.778-.008-1.165z"/><path fill="#fefefe" d="M8.84 15.343c1.012-1.691 2.27-3.225 3.652-4.626.008.387-.052.778.008 1.165.214 1.537 1.044 2.904 1.988 4.102.636.806 1.377 1.521 2.114 2.235.367.34.766.644 1.15.965.96.721 1.926 1.45 3.005 1.987.23.123.463.268.734.262.183-.344.343-.705.57-1.025.102-.288.276-.542.406-.817.06-.12.111-.244.192-.35.1-.06.13.068.158.134.24.64.512 1.265.727 1.913.14.264.212.556.343.824.409 1.068.816 2.136 1.237 3.2.199.566.459 1.11.627 1.687-.288.022-.547.179-.838.184l-.101.076c-.372.053-.72.2-1.088.273-1.524.409-3.052.805-4.572 1.236-.29.033-.554.169-.84.224-.314.056-.613.2-.94.18.06-.177.147-.342.242-.5.241-.454.48-.908.727-1.357a.22.22 0 0 0 .023-.14c-.22-.19-.514-.244-.764-.38a32.4 32.4 0 0 1-4.17-2.277c-.375-.261-.735-.545-1.11-.808a13 13 0 0 1-1.477-1.327 10.7 10.7 0 0 1-1.315-1.729c-.667-.955-1.203-2.007-1.518-3.131a.9.9 0 0 1 .031-.402c.16-.634.48-1.211.798-1.778"/><path fill="#9d6b36" d="M42.67 13.006c.8-.338 1.666-.607 2.544-.51.138.028.29.023.417.09.077.644.096 1.298.033 1.945-.04 1.015-.309 2.004-.648 2.955-.132.383-.253.77-.42 1.14-.151.349-.258.726-.47 1.043.05.14.107.277.145.42-.158-.225-.232-.494-.363-.734-.17-.3-.323-.61-.525-.892-.32-.565-.707-1.088-1.086-1.614-.185-.206-.336-.44-.53-.639-.514-.555-.974-1.172-1.59-1.62.763-.627 1.593-1.177 2.494-1.584m-31.828 9.377.113.12-.11.04c-.098.406-.233.801-.322 1.21a18 18 0 0 0-.37 2.172c-.005.08.008.16.018.24l-.024-.042c-.07-.271.014-.545.043-.815.116-.995.38-1.964.652-2.925"/><path fill="#fefefe" d="M38.265 27.008a.95.95 0 0 1 .396-.062c-.074.219-.223.4-.312.611-.184.401-.446.767-.589 1.185l-.149.115c.018.071.035.155.117.18q.583.234 1.142.523c.435.222.888.41 1.31.655 1.765.938 3.487 2.018 4.897 3.45.512.543.977 1.13 1.369 1.766.643.921 1.174 1.928 1.5 3.006.134.353-.013.727-.129 1.063-.397.999-.999 1.899-1.615 2.773-.62.842-1.269 1.667-1.992 2.422a28 28 0 0 0-.57.613.42.42 0 0 1-.286.19c.048-.062.128-.104.144-.185.119-.873-.067-1.764-.405-2.569-.426-1.023-1.04-1.96-1.756-2.804-.261-.318-.558-.606-.802-.937-.209-.141-.368-.339-.55-.51a3.4 3.4 0 0 1-.383-.42c-.285-.183-.5-.452-.777-.646a18.5 18.5 0 0 0-1.939-1.465c-.314-.249-.685-.414-.99-.675a.9.9 0 0 1-.278-.115c-.247-.167-.526-.275-.786-.418-.09-.053-.192-.062-.292-.074-.283.525-.561 1.052-.845 1.576-.145.24-.238.51-.426.721-.58-1.56-1.212-3.1-1.8-4.657-.19-.436-.348-.887-.519-1.331-.195-.436-.334-.895-.524-1.332a5 5 0 0 1-.142-.508c.495-.101.968-.288 1.463-.384 2.17-.591 4.343-1.18 6.518-1.757M25.913 30.49c.239-.072.448-.257.711-.218.11.485.228.968.376 1.443.083.276.106.568.224.834.119.577.327 1.134.424 1.715.043.093.083.188.11.288.278.985.523 1.98.793 2.967.088.378.25.743.255 1.137-.485-.219-.937-.506-1.41-.75-.22-.107-.427-.255-.678-.274q-.022.176-.041.353l-.103.034c-.148.353-.304.702-.49 1.036-.09.255-.252.478-.328.738-.281.459-.514.946-.79 1.407-.173.246-.275.532-.448.777-.18.249-.303.543-.544.745l-.038.13q-.091.113-.175.234a14 14 0 0 1-1.515 1.836c-.465.44-.941.871-1.474 1.228-.715.474-1.427.962-2.211 1.317-.475.215-.962.419-1.472.533-.327.005-.638-.117-.939-.233-.781-.337-1.513-.778-2.212-1.263a25 25 0 0 1-3.604-3.011c.382.02.767.073 1.148.005.674-.072 1.32-.295 1.928-.584.917-.431 1.745-1.027 2.524-1.67.187-.162.362-.337.568-.473a7 7 0 0 1 .926-.922c.267-.335.575-.634.852-.961a26 26 0 0 0 1.814-2.454c.359-.512.626-1.08.918-1.632.048-.085.051-.184.064-.277a93 93 0 0 0-2.172-1.163l.021-.178.31-.087c.365-.177.75-.305 1.128-.45.433-.193.879-.354 1.323-.518.454-.198.929-.344 1.38-.547q.178-.052.348-.126c.38-.165.776-.29 1.158-.452.451-.161.887-.363 1.34-.515"/><path fill="#9d6b36" d="M11.586 35.208c.159.272.295.558.388.86.205.382.454.74.64 1.132.143.288.367.524.52.806.55.763 1.126 1.507 1.752 2.209.346.346.69.696 1.049 1.028-.779.644-1.607 1.24-2.524 1.67-.609.29-1.255.513-1.928.585-.381.068-.766.015-1.149-.005l-.037-.002c-.134-.709-.11-1.437-.052-2.153.063-1.04.347-2.052.71-3.023.252-.798.603-1.563.958-2.319-.076-.272-.27-.505-.327-.788m29.23 5.335c.182-.194.411-.351.521-.603.715.844 1.33 1.782 1.757 2.805.337.805.523 1.695.404 2.568-.016.082-.095.123-.143.184l-.016.018c-.523.04-1.05.083-1.574.033a3.8 3.8 0 0 1-.862-.084c-.662-.051-1.308-.224-1.936-.432-.453-.132-.9-.287-1.33-.48-.292-.088-.568-.218-.851-.329-.214-.099-.417-.227-.656-.258a13 13 0 0 0 2.086-1.243c.271-.206.577-.367.83-.598.603-.513 1.247-.983 1.77-1.581"/></g><defs><linearGradient id="a" x1="28" x2="28" y1="0" y2="56" gradientUnits="userSpaceOnUse"><stop stop-color="#301f09"/><stop offset="1" stop-color="#20150a"/></linearGradient><filter id="b" width="51.429" height="51.429" x="2.286" y="2.286" color-interpolation-filters="sRGB" filterUnits="userSpaceOnUse"><feFlood flood-opacity="0" result="BackgroundImageFix"/><feColorMatrix in="SourceAlpha" result="hardAlpha" values="0 0 0 0 0 0 0 0 0 0 0 0 0 0 0 0 0 0 127 0"/><feOffset/><feGaussianBlur stdDeviation="2.857"/><feComposite in2="hardAlpha" operator="out"/><feColorMatrix values="0 0 0 0 0 0 0 0 0 0 0 0 0 0 0 0 0 0 0.25 0"/><feBlend in2="BackgroundImageFix" result="effect1_dropShadow_44_39"/><feBlend in="SourceGraphic" in2="effect1_dropShadow_44_39" result="shape"/></filter></defs></svg>