<svg xmlns="http://www.w3.org/2000/svg" width="56" height="56" fill="none" viewBox="0 0 56 56"><rect width="56" height="56" fill="url(#a)" rx="8.4"/><rect width="53.9" height="53.9" x="1.05" y="1.05" stroke="#fff" stroke-opacity=".15" stroke-width="2.1" rx="7.35"/><g filter="url(#b)"><path fill="#fff" d="M12.286 43c0 .395.32.714.714.714h14.286c.394 0 .714-.32.714-.714V20.857c0-.394.32-.714.714-.714h6.429c.394 0 .714.32.714.714V43c0 .395.32.714.714.714H43c.394 0 .714-.32.714-.714V13a.714.714 0 0 0-.714-.714H13a.714.714 0 0 0-.714.714z"/></g><defs><linearGradient id="a" x1="28" x2="28" y1="0" y2="56" gradientUnits="userSpaceOnUse"><stop stop-color="#310d0d"/><stop offset="1" stop-color="#220909"/></linearGradient><filter id="b" width="51.429" height="51.429" x="2.286" y="2.286" color-interpolation-filters="sRGB" filterUnits="userSpaceOnUse"><feFlood flood-opacity="0" result="BackgroundImageFix"/><feColorMatrix in="SourceAlpha" result="hardAlpha" values="0 0 0 0 0 0 0 0 0 0 0 0 0 0 0 0 0 0 127 0"/><feOffset/><feGaussianBlur stdDeviation="2.857"/><feComposite in2="hardAlpha" operator="out"/><feColorMatrix values="0 0 0 0 0 0 0 0 0 0 0 0 0 0 0 0 0 0 0.25 0"/><feBlend in2="BackgroundImageFix" result="effect1_dropShadow_40_43"/><feBlend in="SourceGraphic" in2="effect1_dropShadow_40_43" result="shape"/></filter></defs></svg>