<svg xmlns="http://www.w3.org/2000/svg" width="56" height="56" fill="none" viewBox="0 0 56 56"><rect width="56" height="56" fill="url(#a)" rx="8.4"/><rect width="53.9" height="53.9" x="1.05" y="1.05" stroke="#fff" stroke-opacity=".15" stroke-width="2.1" rx="7.35"/><g filter="url(#b)"><path fill="#05bbab" d="m14.734 32.802 9.096-.85.81-5.716c-3.34 2.01-6.196 2.366-10.119 2.366v-13.01c5.968 0 12.535 2.027 11.13 9.265l4.655-3.351c-1.404-7.232-5.863-10.644-13.356-10.644-2.062 0-6.195-.143-7.522 1.156v31.176c0 2.598 5.306 2.598 5.306 0z"/><path fill="#fbfbfb" fill-rule="evenodd" d="M32.734 20.87C16.45 23.919 20.94 46.92 37.186 44.284c15.229-2.472 10.612-26.231-4.452-23.412m.404 4.742c-9.855 2.222-5.984 16.598 3.643 13.842C45.349 37 41.836 23.65 33.138 25.612" clip-rule="evenodd"/></g><defs><linearGradient id="a" x1="28" x2="28" y1="0" y2="56" gradientUnits="userSpaceOnUse"><stop stop-color="#012d29"/><stop offset="1" stop-color="#242424"/></linearGradient><filter id="b" width="51.429" height="51.429" x="2.286" y="2.286" color-interpolation-filters="sRGB" filterUnits="userSpaceOnUse"><feFlood flood-opacity="0" result="BackgroundImageFix"/><feColorMatrix in="SourceAlpha" result="hardAlpha" values="0 0 0 0 0 0 0 0 0 0 0 0 0 0 0 0 0 0 127 0"/><feOffset/><feGaussianBlur stdDeviation="2.857"/><feComposite in2="hardAlpha" operator="out"/><feColorMatrix values="0 0 0 0 0 0 0 0 0 0 0 0 0 0 0 0 0 0 0.25 0"/><feBlend in2="BackgroundImageFix" result="effect1_dropShadow_45_63"/><feBlend in="SourceGraphic" in2="effect1_dropShadow_45_63" result="shape"/></filter></defs></svg>