<svg xmlns="http://www.w3.org/2000/svg" width="56" height="56" fill="none" viewBox="0 0 56 56"><rect width="56" height="56" fill="url(#a)" rx="8.4"/><rect width="53.9" height="53.9" x="1.05" y="1.05" stroke="#fff" stroke-opacity=".15" stroke-width="2.1" rx="7.35"/><g filter="url(#b)"><path fill="#e9e9ff" stroke="#ccc" stroke-linejoin="bevel" stroke-width=".304" d="m19.478 21.463 5.685 2.18v7.041l-5.685-2.18z"/><path fill="#353564" stroke="#ccc" stroke-linejoin="bevel" stroke-width=".304" d="M13.71 23.675v7.041l5.768-2.212v-7.041z"/><path fill="#afafde" stroke="#ccc" stroke-linejoin="bevel" stroke-width=".304" d="m13.71 30.716 5.684 2.18 5.769-2.212-5.685-2.18z"/><path fill="#f7f7f4" stroke="#ccc" stroke-linejoin="bevel" stroke-width=".304" d="m13.71 23.675 5.684 2.18 5.769-2.212-5.685-2.18z"/><path fill="#fff" stroke="#ccc" stroke-linejoin="bevel" stroke-width=".304" d="M19.394 25.856v7.04l5.769-2.212v-7.041z"/><path fill="#efeeea" stroke="#ccc" stroke-linejoin="bevel" stroke-width=".304" d="m13.71 23.675 5.684 2.18v7.042l-5.684-2.18z"/><path fill="#e9e9ff" stroke="#ccc" stroke-linejoin="bevel" stroke-width=".304" d="m25.188 16.54 5.684 2.18v7.041l-5.684-2.18z"/><path fill="#353564" stroke="#ccc" stroke-linejoin="bevel" stroke-width=".304" d="M19.419 18.752v7.042l5.769-2.213V16.54z"/><path fill="#afafde" stroke="#ccc" stroke-linejoin="bevel" stroke-width=".304" d="m19.419 25.793 5.685 2.18 5.768-2.212-5.684-2.18z"/><path fill="#f7f7f4" stroke="#ccc" stroke-linejoin="bevel" stroke-width=".304" d="m19.419 18.752 5.685 2.18 5.768-2.212-5.684-2.18z"/><path fill="#fff" stroke="#ccc" stroke-linejoin="bevel" stroke-width=".304" d="M25.103 20.933v7.04l5.769-2.212v-7.04z"/><path fill="#efeeea" stroke="#ccc" stroke-linejoin="bevel" stroke-width=".304" d="m19.419 18.752 5.685 2.18v7.042l-5.685-2.18z"/><path fill="#e9e9ff" stroke="#ccc" stroke-linejoin="bevel" stroke-width=".304" d="m13.769 30.761 5.684 2.18v7.042l-5.684-2.18z"/><path fill="#353564" stroke="#ccc" stroke-linejoin="bevel" stroke-width=".304" d="M8 32.974v7.041l5.769-2.213v-7.04z"/><path fill="#afafde" stroke="#ccc" stroke-linejoin="bevel" stroke-width=".304" d="m8 40.015 5.685 2.18 5.768-2.213-5.684-2.18z"/><path fill="#f7f7f4" stroke="#ccc" stroke-linejoin="bevel" stroke-width=".304" d="m8 32.974 5.685 2.18 5.768-2.213-5.684-2.18z"/><path fill="#fff" stroke="#ccc" stroke-linejoin="bevel" stroke-width=".304" d="M13.685 35.155v7.04l5.768-2.212v-7.041z"/><path fill="#efeeea" stroke="#ccc" stroke-linejoin="bevel" stroke-width=".304" d="m8 32.974 5.685 2.18v7.041L8 40.016z"/><path fill="#e9e9ff" stroke="#ccc" stroke-linejoin="bevel" stroke-width=".304" d="m19.478 32.95 5.685 2.18v7.04l-5.685-2.18z"/><path fill="#353564" stroke="#ccc" stroke-linejoin="bevel" stroke-width=".304" d="M13.71 35.162v7.041l5.768-2.213v-7.04z"/><path fill="#afafde" stroke="#ccc" stroke-linejoin="bevel" stroke-width=".304" d="m13.71 42.203 5.684 2.18 5.769-2.213-5.685-2.18z"/><path fill="#f7f7f4" stroke="#ccc" stroke-linejoin="bevel" stroke-width=".304" d="m13.71 35.162 5.684 2.18 5.769-2.213-5.685-2.18z"/><path fill="#fff" stroke="#ccc" stroke-linejoin="bevel" stroke-width=".304" d="M19.394 37.343v7.04l5.769-2.212V35.13z"/><path fill="#efeeea" stroke="#ccc" stroke-linejoin="bevel" stroke-width=".304" d="m13.71 35.162 5.684 2.18v7.042l-5.684-2.18z"/><path fill="#e9e9ff" stroke="#ccc" stroke-linejoin="bevel" stroke-width=".304" d="m19.478 25.839 5.685 2.18v7.041l-5.685-2.18z"/><path fill="#353564" stroke="#ccc" stroke-linejoin="bevel" stroke-width=".304" d="M13.71 28.051v7.041l5.768-2.212v-7.042z"/><path fill="#afafde" stroke="#ccc" stroke-linejoin="bevel" stroke-width=".304" d="m13.71 35.092 5.684 2.18 5.769-2.212-5.685-2.18z"/><path fill="#f7f7f4" stroke="#ccc" stroke-linejoin="bevel" stroke-width=".304" d="m13.71 28.05 5.684 2.18 5.769-2.212-5.685-2.18z"/><path fill="#fff" stroke="#ccc" stroke-linejoin="bevel" stroke-width=".304" d="M19.394 30.232v7.04l5.769-2.212v-7.041z"/><path fill="#efeeea" stroke="#ccc" stroke-linejoin="bevel" stroke-width=".304" d="m13.71 28.051 5.684 2.18v7.042l-5.684-2.18z"/><path fill="#e9e9ff" stroke="#ccc" stroke-linejoin="bevel" stroke-width=".304" d="M42.315 28.573 48 30.753v7.042l-5.685-2.18z"/><path fill="#353564" stroke="#ccc" stroke-linejoin="bevel" stroke-width=".304" d="M36.547 30.786v7.041l5.769-2.213v-7.04z"/><path fill="#afafde" stroke="#ccc" stroke-linejoin="bevel" stroke-width=".304" d="m36.547 37.827 5.684 2.18 5.77-2.212-5.685-2.18z"/><path fill="#f7f7f4" stroke="#ccc" stroke-linejoin="bevel" stroke-width=".304" d="m36.547 30.786 5.684 2.18 5.77-2.213-5.685-2.18z"/><path fill="#fff" stroke="#ccc" stroke-linejoin="bevel" stroke-width=".304" d="M42.231 32.967v7.04l5.77-2.212v-7.041z"/><path fill="#efeeea" stroke="#ccc" stroke-linejoin="bevel" stroke-width=".304" d="m36.547 30.786 5.684 2.18v7.042l-5.684-2.18z"/><path fill="#e9e9ff" stroke="#ccc" stroke-linejoin="bevel" stroke-width=".304" d="m36.606 30.761 5.685 2.18v7.042l-5.685-2.18z"/><path fill="#353564" stroke="#ccc" stroke-linejoin="bevel" stroke-width=".304" d="M30.837 32.974v7.041l5.77-2.213v-7.04z"/><path fill="#afafde" stroke="#ccc" stroke-linejoin="bevel" stroke-width=".304" d="m30.837 40.015 5.685 2.18 5.769-2.213-5.685-2.18z"/><path fill="#f7f7f4" stroke="#ccc" stroke-linejoin="bevel" stroke-width=".304" d="m30.837 32.974 5.685 2.18 5.769-2.213-5.685-2.18z"/><path fill="#ffd242" stroke="#ccc" stroke-linejoin="bevel" stroke-width=".304" d="M36.522 35.155v7.04l5.769-2.212v-7.041z"/><path fill="#efeeea" stroke="#ccc" stroke-linejoin="bevel" stroke-width=".304" d="m30.837 32.974 5.685 2.18v7.042l-5.685-2.18z"/><path fill="#fff" d="M40.138 38.538c.611-.234 1.108-.98 1.108-1.667 0-.686-.497-1.052-1.108-.817-.612.234-1.108.981-1.108 1.667s.496 1.052 1.108.817"/><path fill="#e9e9ff" stroke="#ccc" stroke-linejoin="bevel" stroke-width=".304" d="m30.897 32.95 5.685 2.18v7.04l-5.685-2.18z"/><path fill="#353564" stroke="#ccc" stroke-linejoin="bevel" stroke-width=".304" d="M25.128 35.162v7.041l5.769-2.213v-7.04z"/><path fill="#afafde" stroke="#ccc" stroke-linejoin="bevel" stroke-width=".304" d="m25.128 42.203 5.685 2.18 5.768-2.212-5.684-2.18z"/><path fill="#f7f7f4" stroke="#ccc" stroke-linejoin="bevel" stroke-width=".304" d="m25.128 35.162 5.685 2.18 5.768-2.213-5.684-2.18z"/><path fill="#ffd242" stroke="#ccc" stroke-linejoin="bevel" stroke-width=".304" d="M30.813 37.343v7.04l5.768-2.212V35.13z"/><path fill="#efeeea" stroke="#ccc" stroke-linejoin="bevel" stroke-width=".304" d="m25.128 35.162 5.685 2.18v7.042l-5.685-2.18z"/><path fill="#e9e9ff" stroke="#ccc" stroke-linejoin="bevel" stroke-width=".304" d="m25.188 35.137 5.684 2.18v7.042l-5.684-2.18z"/><path fill="#353564" stroke="#ccc" stroke-linejoin="bevel" stroke-width=".304" d="M19.419 37.35v7.041l5.769-2.213v-7.04z"/><path fill="#afafde" stroke="#ccc" stroke-linejoin="bevel" stroke-width=".304" d="m19.419 44.39 5.685 2.18 5.768-2.212-5.684-2.18z"/><path fill="#f7f7f4" stroke="#ccc" stroke-linejoin="bevel" stroke-width=".304" d="m19.419 37.35 5.685 2.18 5.768-2.213-5.684-2.18z"/><path fill="#fff" stroke="#ccc" stroke-linejoin="bevel" stroke-width=".304" d="M25.103 39.53v7.042l5.769-2.213v-7.041z"/><path fill="#efeeea" stroke="#ccc" stroke-linejoin="bevel" stroke-width=".304" d="m19.419 37.35 5.685 2.18v7.042l-5.685-2.18z"/><path fill="#e9e9ff" stroke="#ccc" stroke-linejoin="bevel" stroke-width=".304" d="M42.315 21.463 48 23.643v7.041l-5.685-2.18z"/><path fill="#353564" stroke="#ccc" stroke-linejoin="bevel" stroke-width=".304" d="M36.547 23.675v7.041l5.769-2.212v-7.041z"/><path fill="#afafde" stroke="#ccc" stroke-linejoin="bevel" stroke-width=".304" d="m36.547 30.716 5.684 2.18 5.77-2.212-5.685-2.18z"/><path fill="#f7f7f4" stroke="#ccc" stroke-linejoin="bevel" stroke-width=".304" d="m36.547 23.675 5.684 2.18 5.77-2.212-5.685-2.18z"/><path fill="#ffd242" stroke="#ccc" stroke-linejoin="bevel" stroke-width=".304" d="M42.231 25.856v7.04l5.77-2.212v-7.041z"/><path fill="#efeeea" stroke="#ccc" stroke-linejoin="bevel" stroke-width=".304" d="m36.547 23.675 5.684 2.18v7.042l-5.684-2.18z"/><path fill="#e9e9ff" stroke="#ccc" stroke-linejoin="bevel" stroke-width=".304" d="M42.315 14.352 48 16.532v7.041l-5.685-2.18z"/><path fill="#353564" stroke="#ccc" stroke-linejoin="bevel" stroke-width=".304" d="M36.547 16.564v7.041l5.769-2.212v-7.041z"/><path fill="#afafde" stroke="#ccc" stroke-linejoin="bevel" stroke-width=".304" d="m36.547 23.605 5.684 2.18 5.77-2.212-5.685-2.18z"/><path fill="#ffc91d" stroke="#ccc" stroke-linejoin="bevel" stroke-width=".304" d="m36.547 16.564 5.684 2.18 5.77-2.212-5.685-2.18z"/><path fill="#ffd242" stroke="#ccc" stroke-linejoin="bevel" stroke-width=".304" d="M42.231 18.745v7.04l5.77-2.212v-7.04z"/><path fill="#efeeea" stroke="#ccc" stroke-linejoin="bevel" stroke-width=".304" d="m36.547 16.564 5.684 2.18v7.042l-5.684-2.18z"/><path fill="#e9e9ff" stroke="#ccc" stroke-linejoin="bevel" stroke-width=".304" d="m36.606 23.65 5.685 2.18v7.042l-5.685-2.18z"/><path fill="#353564" stroke="#ccc" stroke-linejoin="bevel" stroke-width=".304" d="M30.837 25.863v7.041l5.77-2.213v-7.04z"/><path fill="#afafde" stroke="#ccc" stroke-linejoin="bevel" stroke-width=".304" d="m30.837 32.904 5.685 2.18 5.769-2.212-5.685-2.18z"/><path fill="#f7f7f4" stroke="#ccc" stroke-linejoin="bevel" stroke-width=".304" d="m30.837 25.863 5.685 2.18 5.769-2.213-5.685-2.18z"/><path fill="#ffd242" stroke="#ccc" stroke-linejoin="bevel" stroke-width=".304" d="M36.522 28.044v7.04l5.769-2.212v-7.04z"/><path fill="#efeeea" stroke="#ccc" stroke-linejoin="bevel" stroke-width=".304" d="m30.837 25.863 5.685 2.18v7.042l-5.685-2.18z"/><path fill="#e9e9ff" stroke="#ccc" stroke-linejoin="bevel" stroke-width=".304" d="m36.606 16.54 5.685 2.18v7.041l-5.685-2.18z"/><path fill="#353564" stroke="#ccc" stroke-linejoin="bevel" stroke-width=".304" d="M30.837 18.752v7.042l5.77-2.213V16.54z"/><path fill="#afafde" stroke="#ccc" stroke-linejoin="bevel" stroke-width=".304" d="m30.837 25.793 5.685 2.18 5.769-2.212-5.685-2.18z"/><path fill="#f7f7f4" stroke="#ccc" stroke-linejoin="bevel" stroke-width=".304" d="m30.837 18.752 5.685 2.18 5.769-2.212-5.685-2.18z"/><path fill="#3775a9" stroke="#ccc" stroke-linejoin="bevel" stroke-width=".304" d="M36.522 20.933v7.04l5.769-2.212V18.72z"/><path fill="#efeeea" stroke="#ccc" stroke-linejoin="bevel" stroke-width=".304" d="m30.837 18.752 5.685 2.18v7.042l-5.685-2.18z"/><path fill="#e9e9ff" stroke="#ccc" stroke-linejoin="bevel" stroke-width=".304" d="m36.606 9.429 5.685 2.18v7.041l-5.685-2.18z"/><path fill="#353564" stroke="#ccc" stroke-linejoin="bevel" stroke-width=".304" d="M30.837 11.641v7.042l5.77-2.213V9.429z"/><path fill="#afafde" stroke="#ccc" stroke-linejoin="bevel" stroke-width=".304" d="m30.837 18.682 5.685 2.18 5.769-2.212-5.685-2.18z"/><path fill="#2f6491" stroke="#ccc" stroke-linejoin="bevel" stroke-width=".304" d="m30.837 11.641 5.685 2.18 5.769-2.212-5.685-2.18z"/><path fill="#3775a9" stroke="#ccc" stroke-linejoin="bevel" stroke-width=".304" d="M36.522 13.822v7.041l5.769-2.213v-7.04z"/><path fill="#efeeea" stroke="#ccc" stroke-linejoin="bevel" stroke-width=".304" d="m30.837 11.642 5.685 2.18v7.041l-5.685-2.18z"/><path fill="#e9e9ff" stroke="#ccc" stroke-linejoin="bevel" stroke-width=".304" d="m30.897 25.839 5.685 2.18v7.041l-5.685-2.18z"/><path fill="#353564" stroke="#ccc" stroke-linejoin="bevel" stroke-width=".304" d="M25.128 28.051v7.041l5.769-2.212v-7.042z"/><path fill="#afafde" stroke="#ccc" stroke-linejoin="bevel" stroke-width=".304" d="m25.128 35.092 5.685 2.18 5.768-2.212-5.684-2.18z"/><path fill="#f7f7f4" stroke="#ccc" stroke-linejoin="bevel" stroke-width=".304" d="m25.128 28.05 5.685 2.18 5.768-2.212-5.684-2.18z"/><path fill="#ffd242" stroke="#ccc" stroke-linejoin="bevel" stroke-width=".304" d="M30.813 30.232v7.04l5.768-2.212v-7.041z"/><path fill="#efeeea" stroke="#ccc" stroke-linejoin="bevel" stroke-width=".304" d="m25.128 28.051 5.685 2.18v7.042l-5.685-2.18z"/><path fill="#e9e9ff" stroke="#ccc" stroke-linejoin="bevel" stroke-width=".304" d="m30.897 18.728 5.685 2.18v7.041l-5.685-2.18z"/><path fill="#353564" stroke="#ccc" stroke-linejoin="bevel" stroke-width=".304" d="M25.128 20.94v7.041l5.769-2.212v-7.041z"/><path fill="#afafde" stroke="#ccc" stroke-linejoin="bevel" stroke-width=".304" d="m25.128 27.98 5.685 2.18 5.768-2.212-5.684-2.18z"/><path fill="#f7f7f4" stroke="#ccc" stroke-linejoin="bevel" stroke-width=".304" d="m25.128 20.94 5.685 2.18 5.768-2.212-5.684-2.18z"/><path fill="#3775a9" stroke="#ccc" stroke-linejoin="bevel" stroke-width=".304" d="M30.813 23.12v7.042l5.768-2.213v-7.04z"/><path fill="#efeeea" stroke="#ccc" stroke-linejoin="bevel" stroke-width=".304" d="m25.128 20.94 5.685 2.18v7.042l-5.685-2.18z"/><path fill="#e9e9ff" stroke="#ccc" stroke-linejoin="bevel" stroke-width=".304" d="m25.188 28.027 5.684 2.18v7.041l-5.684-2.18z"/><path fill="#353564" stroke="#ccc" stroke-linejoin="bevel" stroke-width=".304" d="M19.419 30.24v7.04l5.769-2.212v-7.041z"/><path fill="#afafde" stroke="#ccc" stroke-linejoin="bevel" stroke-width=".304" d="m19.419 37.28 5.685 2.18 5.768-2.212-5.684-2.18z"/><path fill="#f7f7f4" stroke="#ccc" stroke-linejoin="bevel" stroke-width=".304" d="m19.419 30.239 5.685 2.18 5.768-2.212-5.684-2.18z"/><path fill="#3775a9" stroke="#ccc" stroke-linejoin="bevel" stroke-width=".304" d="M25.103 32.42v7.04l5.769-2.212v-7.041z"/><path fill="#2f6491" stroke="#ccc" stroke-linejoin="bevel" stroke-width=".304" d="m19.419 30.24 5.685 2.18v7.04l-5.685-2.18z"/><path fill="#e9e9ff" stroke="#ccc" stroke-linejoin="bevel" stroke-width=".304" d="m25.188 20.916 5.684 2.18v7.041l-5.684-2.18z"/><path fill="#353564" stroke="#ccc" stroke-linejoin="bevel" stroke-width=".304" d="M19.419 23.128v7.041l5.769-2.212v-7.041z"/><path fill="#afafde" stroke="#ccc" stroke-linejoin="bevel" stroke-width=".304" d="m19.419 30.169 5.685 2.18 5.768-2.212-5.684-2.18z"/><path fill="#2f6491" stroke="#ccc" stroke-linejoin="bevel" stroke-width=".304" d="m19.419 23.128 5.685 2.18 5.768-2.212-5.684-2.18z"/><path fill="#3775a9" stroke="#ccc" stroke-linejoin="bevel" stroke-width=".304" d="M25.103 25.309v7.04l5.769-2.212v-7.04z"/><path fill="#2f6491" stroke="#ccc" stroke-linejoin="bevel" stroke-width=".304" d="m19.419 23.128 5.685 2.18v7.042l-5.685-2.18z"/><path fill="#e9e9ff" stroke="#ccc" stroke-linejoin="bevel" stroke-width=".304" d="m30.897 11.617 5.685 2.18v7.041l-5.685-2.18z"/><path fill="#353564" stroke="#ccc" stroke-linejoin="bevel" stroke-width=".304" d="M25.128 13.83v7.04l5.769-2.212v-7.041z"/><path fill="#afafde" stroke="#ccc" stroke-linejoin="bevel" stroke-width=".304" d="m25.128 20.87 5.685 2.18 5.768-2.212-5.684-2.18z"/><path fill="#2f6491" stroke="#ccc" stroke-linejoin="bevel" stroke-width=".304" d="m25.128 13.829 5.685 2.18 5.768-2.212-5.684-2.18z"/><path fill="#3775a9" stroke="#ccc" stroke-linejoin="bevel" stroke-width=".304" d="M30.813 16.01v7.04l5.768-2.212v-7.04z"/><path fill="#2f6491" stroke="#ccc" stroke-linejoin="bevel" stroke-width=".304" d="m25.128 13.83 5.685 2.18v7.041l-5.685-2.18z"/><path fill="#fff" d="M32.966 19.938c.612-.234 1.108-.98 1.108-1.667 0-.686-.496-1.052-1.108-.817s-1.108.98-1.108 1.667c0 .686.496 1.052 1.108.817"/></g><defs><linearGradient id="a" x1="28" x2="28" y1="0" y2="56" gradientUnits="userSpaceOnUse"><stop stop-color="#001f31"/><stop offset="1" stop-color="#00121d"/></linearGradient><filter id="b" width="51.733" height="51.429" x="2.134" y="2.286" color-interpolation-filters="sRGB" filterUnits="userSpaceOnUse"><feFlood flood-opacity="0" result="BackgroundImageFix"/><feColorMatrix in="SourceAlpha" result="hardAlpha" values="0 0 0 0 0 0 0 0 0 0 0 0 0 0 0 0 0 0 127 0"/><feOffset/><feGaussianBlur stdDeviation="2.857"/><feComposite in2="hardAlpha" operator="out"/><feColorMatrix values="0 0 0 0 0 0 0 0 0 0 0 0 0 0 0 0 0 0 0.25 0"/><feBlend in2="BackgroundImageFix" result="effect1_dropShadow_48_311"/><feBlend in="SourceGraphic" in2="effect1_dropShadow_48_311" result="shape"/></filter></defs></svg>