<svg xmlns="http://www.w3.org/2000/svg" width="56" height="56" fill="none" viewBox="0 0 56 56"><g clip-path="url(#a)"><rect width="56" height="56" fill="url(#b)" rx="8.4"/><g filter="url(#c)"><path fill="url(#d)" d="M4.264 30.242c-.101 0-.182.085-.195.206l-.355 2.923.355 2.873c.013.121.094.206.195.206.098 0 .178-.084.194-.205l.42-2.874-.42-2.924c-.015-.12-.096-.205-.194-.205m1.997-1.598c-.016-.125-.1-.212-.202-.212s-.188.09-.202.212l-.477 4.727.477 4.622c.014.124.099.214.202.214.102 0 .185-.087.202-.213l.543-4.623zm7.524-4.36c-.195 0-.357.174-.367.395l-.38 8.696.38 5.62c.01.22.172.393.367.393s.357-.174.368-.394v.002l.43-5.62-.43-8.697c-.011-.22-.173-.394-.368-.394m-3.894 3.023c-.15 0-.273.13-.285.304l-.428 5.762.428 5.574c.011.173.135.303.285.303s.272-.13.285-.303l.487-5.574-.487-5.763c-.013-.173-.136-.303-.285-.303m7.852 12.08c.243 0 .44-.212.45-.484l.373-5.525-.372-11.578c-.01-.271-.208-.484-.45-.484-.246 0-.444.213-.451.485l-.331 11.576.33 5.528c.008.27.206.482.45.482m8.102.026c.334 0 .61-.298.616-.665l.26-5.367-.26-13.371c-.006-.366-.282-.665-.616-.665-.335 0-.612.298-.617.666l-.232 13.366.232 5.375c.005.363.282.661.617.661m-4.082-.02c.29 0 .525-.254.533-.576v.004l.317-5.442-.317-11.661c-.008-.323-.243-.575-.534-.575-.293 0-.527.252-.534.575l-.281 11.662.282 5.44c.006.32.24.572.534.572m-9.932-.052c.173 0 .313-.15.326-.347l.458-5.621-.458-5.347c-.013-.198-.153-.347-.326-.347-.176 0-.316.15-.327.35l-.403 5.344.403 5.62c.012.198.151.348.327.348m-3.864-.308c.127 0 .23-.108.244-.257l.515-5.404-.515-5.608c-.015-.15-.117-.258-.244-.258-.128 0-.23.108-.243.258l-.453 5.608.453 5.403c.013.15.115.258.243.258m15.829-17.51c-.316 0-.57.273-.576.621l-.257 11.236.257 5.407c.007.344.26.616.576.616s.567-.272.575-.62v.004l.288-5.406-.288-11.238c-.008-.347-.26-.62-.575-.62M15.756 39.4c.22 0 .4-.193.41-.44l.401-5.582-.401-10.685c-.011-.247-.19-.44-.41-.44s-.4.193-.409.44l-.355 10.685.356 5.585c.009.244.188.437.409.437m4.48-.527v-.003l.345-5.49-.344-11.968c-.009-.297-.225-.53-.492-.53-.268 0-.485.232-.492.53l-.306 11.967.306 5.493c.008.294.224.527.492.527.267 0 .483-.233.492-.529zM46.313 26.48c-.819 0-1.6.18-2.311.503-.476-5.835-4.991-10.412-10.499-10.412a10 10 0 0 0-3.821.774c-.451.19-.571.384-.575.761v20.547c.004.396.288.726.645.765.015.002 16.454.01 16.56.01 3.3 0 5.974-2.898 5.974-6.473 0-3.576-2.674-6.475-5.973-6.475m-18.428-8.392c-.358 0-.653.32-.658.712l-.27 14.583.27 5.293c.005.386.3.705.658.705s.653-.319.658-.71v.005l.293-5.293-.293-14.584c-.005-.391-.3-.71-.658-.71"/></g></g><rect width="53.9" height="53.9" x="1.05" y="1.05" stroke="#fff" stroke-opacity=".15" stroke-width="2.1" rx="7.35"/><defs><linearGradient id="b" x1="28" x2="28" y1="0" y2="56" gradientUnits="userSpaceOnUse"><stop stop-color="#402806"/><stop offset="1" stop-color="#270802"/></linearGradient><linearGradient id="d" x1="27.997" x2="27.997" y1="16.567" y2="46.569" gradientUnits="userSpaceOnUse"><stop stop-color="#f79810"/><stop offset="1" stop-color="#f8310e"/></linearGradient><clipPath id="a"><rect width="56" height="56" fill="#fff" rx="8.4"/></clipPath><filter id="c" width="60" height="51.429" x="-2" y="2.286" color-interpolation-filters="sRGB" filterUnits="userSpaceOnUse"><feFlood flood-opacity="0" result="BackgroundImageFix"/><feColorMatrix in="SourceAlpha" result="hardAlpha" values="0 0 0 0 0 0 0 0 0 0 0 0 0 0 0 0 0 0 127 0"/><feOffset/><feGaussianBlur stdDeviation="2.857"/><feComposite in2="hardAlpha" operator="out"/><feColorMatrix values="0 0 0 0 0 0 0 0 0 0 0 0 0 0 0 0 0 0 0.25 0"/><feBlend in2="BackgroundImageFix" result="effect1_dropShadow_1_106"/><feBlend in="SourceGraphic" in2="effect1_dropShadow_1_106" result="shape"/></filter></defs></svg>