<svg xmlns="http://www.w3.org/2000/svg" width="56" height="56" fill="none" viewBox="0 0 56 56"><rect width="56" height="56" fill="url(#a)" rx="8.4"/><rect width="53.9" height="53.9" x="1.05" y="1.05" stroke="#fff" stroke-opacity=".15" stroke-width="2.1" rx="7.35"/><g filter="url(#b)"><path fill="url(#c)" fill-rule="evenodd" d="M28.75 10.941c-.445.142-.786.4-1.173.883-.11.136-.297.184-.54.138-.29-.054-1.388-.125-4.261-.275-.84-.044-1.01-.02-1.16.162-.36.436-.264 1.84.147 2.145.118.087.756.1 1.384.028a83 83 0 0 1 1.45-.149l1.608-.159c.302-.03.744-.095.984-.144l.435-.091.13.087c.38.255.486.44.431.76-.101.6-.112.93-.097 3.05.018 2.618.079 2.387-.645 2.444-.453.035-.63.164-.709.518-.038.169-.029 1.784.012 2.225.027.276-.19.434-.688.499-.49.063-.607.343-.503 1.19.023.185-.089.334-.378.503a.478.478 0 0 0-.111.735c.224.237.236.355.058.613-.185.268-.19.31-.191 1.95-.002 1.648-.023 1.918-.168 2.134-.21.312-1.24 1.26-1.482 1.365-.074.032-.701.05-2.38.066-1.255.013-2.325.035-2.378.05-.216.059-.415-.01-.608-.21-.27-.28-.24-.276-2.088-.257-1.817.019-1.798.021-1.841-.238a2 2 0 0 0-.197-.643c-.225-.49-.423-.585-1.05-.506-.4.05-.49.158-.588.708-.123.69-.25.833-.616.695-.24-.09-.277-.092-1.224-.06a1.4 1.4 0 0 1-.236-.02.6.6 0 0 0-.265.023 1.8 1.8 0 0 1-.4.054c-.653.02-.762.053-.911.28-.33.501-.608 3.302-.46 4.637.167 1.521.377 2.242.692 2.373.432.178 2.298.261 2.788.123l.253-.072.114.081c.148.105.228.293.299.704.085.493.172.603.535.671.247.047.582.029.733-.04.318-.144.495-1.133.303-1.688-.11-.317-.028-.393.117-.107.203.401.411.441 2.29.441 1.7 0 1.577.03 1.815-.438.192-.377.279-.446.547-.436.11.004.996.02 1.968.037 1.94.033 1.756.012 2.37.282 1.605.707 3.364 1.105 5.568 1.261 1.212.086 2.879.05 3.924-.086 1.88-.244 3.12-.557 4.402-1.112.934-.405 1.349-.19 1.54.798.15.772.115.886-.338 1.07-.638.258-1.033.525-1.127.76-.069.169-.037.355.146.862.05.136.094.335.1.441.016.303.047.428.155.62.055.097.11.255.122.352.03.224.115.49.216.669.048.085.088.233.102.375.063.665.35.858 1.435.966.127.013.268.029.314.036 2.203.337 5.247-.583 7.436-2.248 1.02-.776 1.277-1.144 1.077-1.544a.8.8 0 0 1-.059-.305c0-.204-.102-.52-.215-.663a.55.55 0 0 1-.087-.247 1.7 1.7 0 0 0-.212-.598.4.4 0 0 1-.051-.189c0-.13-.087-.37-.185-.512a1.2 1.2 0 0 1-.117-.266c-.145-.486-.968-.78-1.802-.643-.715.117-.764.091-.97-.515-.657-1.928-1.552-3.35-2.587-4.115-.394-.29-.54-.357-2.012-.917-1.442-.549-1.807-.702-2.468-1.038a15 15 0 0 1-.972-.528c-2.136-1.375-1.906-1.015-1.984-3.1-.052-1.402-.063-1.457-.338-1.678-.223-.179-.255-.261-.194-.494.107-.398.051-.575-.245-.776-.232-.158-.264-.225-.228-.48.121-.86-.017-1.17-.55-1.227-.324-.035-.459-.078-.55-.176l-.084-.088-.003-1.261c-.004-1.675.008-1.65-.763-1.687-.55-.027-.678-.058-.793-.195l-.09-.108-.001-2.37c0-1.376-.015-2.5-.036-2.682-.043-.368-.037-.38.29-.688.251-.235.41-.33.506-.304.57.154.477.147 3.589.284 2.388.105 2.368.107 2.563-.283.256-.511.083-1.893-.254-2.036-.116-.048-.572-.046-1 .005-.318.038-.401.047-1.945.216-1.918.21-1.956.216-2.427.298-.462.08-.49.071-.754-.248-.566-.683-1.408-.966-2.16-.727" clip-rule="evenodd"/></g><defs><linearGradient id="a" x1="28" x2="28" y1="0" y2="56" gradientUnits="userSpaceOnUse"><stop stop-color="#342a1d"/><stop offset="1" stop-color="#1c1610"/></linearGradient><linearGradient id="c" x1="28" x2="28" y1="10.857" y2="45.143" gradientUnits="userSpaceOnUse"><stop stop-color="#cea260"/><stop offset="1" stop-color="#81562e"/></linearGradient><filter id="b" width="51.429" height="51.429" x="2.286" y="2.286" color-interpolation-filters="sRGB" filterUnits="userSpaceOnUse"><feFlood flood-opacity="0" result="BackgroundImageFix"/><feColorMatrix in="SourceAlpha" result="hardAlpha" values="0 0 0 0 0 0 0 0 0 0 0 0 0 0 0 0 0 0 127 0"/><feOffset/><feGaussianBlur stdDeviation="2.857"/><feComposite in2="hardAlpha" operator="out"/><feColorMatrix values="0 0 0 0 0 0 0 0 0 0 0 0 0 0 0 0 0 0 0.25 0"/><feBlend in2="BackgroundImageFix" result="effect1_dropShadow_2_3466"/><feBlend in="SourceGraphic" in2="effect1_dropShadow_2_3466" result="shape"/></filter></defs></svg>