<svg xmlns="http://www.w3.org/2000/svg" width="56" height="56" fill="none" viewBox="0 0 56 56"><rect width="56" height="56" fill="url(#a)" rx="8.4"/><rect width="53.9" height="53.9" x="1.05" y="1.05" stroke="#fff" stroke-opacity=".15" stroke-width="2.1" rx="7.35"/><g filter="url(#b)"><path fill="#1ed760" d="M28 8C16.955 8 8 16.955 8 28s8.955 20 20 20c11.047 0 20-8.954 20-20S39.047 8.001 28 8.001zm9.172 28.846a1.246 1.246 0 0 1-1.715.413c-4.696-2.868-10.607-3.518-17.569-1.927a1.247 1.247 0 0 1-.555-2.432c7.619-1.74 14.154-.99 19.426 2.231.587.36.773 1.127.413 1.715M39.62 31.4a1.56 1.56 0 0 1-2.145.514c-5.376-3.304-13.57-4.261-19.93-2.331a1.56 1.56 0 0 1-1.945-1.04 1.56 1.56 0 0 1 1.04-1.944c7.263-2.204 16.293-1.136 22.466 2.658.733.451.965 1.41.514 2.143m.21-5.67c-6.446-3.83-17.08-4.181-23.235-2.314a1.87 1.87 0 1 1-1.086-3.58c7.064-2.144 18.809-1.73 26.23 2.676a1.87 1.87 0 0 1 .654 2.563 1.87 1.87 0 0 1-2.562.654z"/></g><defs><linearGradient id="a" x1="28" x2="28" y1="0" y2="56" gradientUnits="userSpaceOnUse"><stop stop-color="#073417"/><stop offset="1" stop-color="#041f0e"/></linearGradient><filter id="b" width="51.429" height="51.429" x="2.286" y="2.286" color-interpolation-filters="sRGB" filterUnits="userSpaceOnUse"><feFlood flood-opacity="0" result="BackgroundImageFix"/><feColorMatrix in="SourceAlpha" result="hardAlpha" values="0 0 0 0 0 0 0 0 0 0 0 0 0 0 0 0 0 0 127 0"/><feOffset/><feGaussianBlur stdDeviation="2.857"/><feComposite in2="hardAlpha" operator="out"/><feColorMatrix values="0 0 0 0 0 0 0 0 0 0 0 0 0 0 0 0 0 0 0.25 0"/><feBlend in2="BackgroundImageFix" result="effect1_dropShadow_1_99"/><feBlend in="SourceGraphic" in2="effect1_dropShadow_1_99" result="shape"/></filter></defs></svg>