<svg xmlns="http://www.w3.org/2000/svg" width="56" height="56" fill="none" viewBox="0 0 56 56"><rect width="56" height="56" fill="url(#a)" rx="8.4"/><rect width="53.9" height="53.9" x="1.05" y="1.05" stroke="#fff" stroke-opacity=".15" stroke-width="2.1" rx="7.35"/><g filter="url(#b)"><path fill="url(#c)" d="M8.816 33.751C11.29 41.991 18.937 48 27.987 48 39.04 48 48 39.046 48 28S39.04 8 27.987 8C17.382 8 8.703 16.246 8.017 26.671c1.298 2.173 1.801 3.518.798 7.08z"/><path fill="#fff" d="m26.956 22.99.002.1-4.897 7.109a5.5 5.5 0 0 0-3.281.913L8.026 26.684s-.249 4.091.788 7.14l7.603 3.135a5.52 5.52 0 0 0 3.278 3.919 5.557 5.557 0 0 0 7.684-5.274l7-5.003.172.003c4.194 0 7.602-3.416 7.602-7.612 0-4.197-3.402-7.6-7.602-7.61-4.191 0-7.601 3.413-7.601 7.61zM25.78 37.398a4.28 4.28 0 0 1-5.6 2.309 4.28 4.28 0 0 1-2.203-2.102l2.475 1.025a3.155 3.155 0 0 0 2.424-5.825l-2.564-1.059a4.26 4.26 0 0 1 3.158.048 4.23 4.23 0 0 1 2.311 2.325 4.26 4.26 0 0 1-.006 3.279m8.783-9.334a5.08 5.08 0 0 1-5.064-5.071 5.074 5.074 0 0 1 5.064-5.07 5.08 5.08 0 0 1 5.066 5.07 5.074 5.074 0 0 1-5.066 5.07m-3.795-5.08a3.805 3.805 0 0 1 3.803-3.809 3.81 3.81 0 0 1 0 7.618 3.81 3.81 0 0 1-3.803-3.808"/></g><defs><linearGradient id="a" x1="28" x2="28" y1="0" y2="56" gradientUnits="userSpaceOnUse"><stop stop-color="#0d1b31"/><stop offset="1" stop-color="#081320"/></linearGradient><linearGradient id="c" x1="28.009" x2="28.009" y1="8" y2="48" gradientUnits="userSpaceOnUse"><stop stop-color="#111d2e"/><stop offset=".212" stop-color="#051839"/><stop offset=".407" stop-color="#0a1b48"/><stop offset=".581" stop-color="#132e62"/><stop offset=".738" stop-color="#144b7e"/><stop offset=".873" stop-color="#136497"/><stop offset="1" stop-color="#1387b8"/></linearGradient><filter id="b" width="51.429" height="51.429" x="2.286" y="2.286" color-interpolation-filters="sRGB" filterUnits="userSpaceOnUse"><feFlood flood-opacity="0" result="BackgroundImageFix"/><feColorMatrix in="SourceAlpha" result="hardAlpha" values="0 0 0 0 0 0 0 0 0 0 0 0 0 0 0 0 0 0 127 0"/><feOffset/><feGaussianBlur stdDeviation="2.857"/><feComposite in2="hardAlpha" operator="out"/><feColorMatrix values="0 0 0 0 0 0 0 0 0 0 0 0 0 0 0 0 0 0 0.25 0"/><feBlend in2="BackgroundImageFix" result="effect1_dropShadow_28_3461"/><feBlend in="SourceGraphic" in2="effect1_dropShadow_28_3461" result="shape"/></filter></defs></svg>