<svg xmlns="http://www.w3.org/2000/svg" width="56" height="56" fill="none" viewBox="0 0 56 56"><rect width="56" height="56" fill="url(#a)" rx="8"/><rect width="53.9" height="53.9" x="1.05" y="1.05" stroke="#fff" stroke-opacity=".15" stroke-width="2.1" rx="6.95"/><g filter="url(#b)"><path fill="url(#c)" fill-rule="evenodd" d="M40.964 11H15.042A4.043 4.043 0 0 0 11 15.04v25.9A4.046 4.046 0 0 0 15.042 45h25.922A4.04 4.04 0 0 0 45 40.94V15.039A4.043 4.043 0 0 0 40.964 11m-15.3 24.49a1.35 1.35 0 0 1-1.363 1.345h-5.664a1.346 1.346 0 0 1-1.34-1.346V18.62c0-.74.599-1.342 1.34-1.345h5.665a1.35 1.35 0 0 1 1.345 1.346zm13.072-7.746a1.346 1.346 0 0 1-1.362 1.346H31.71a1.35 1.35 0 0 1-1.345-1.346V18.62a1.35 1.35 0 0 1 1.345-1.346h5.665c.741.003 1.34.604 1.34 1.346z" clip-rule="evenodd"/></g><defs><linearGradient id="a" x1="28" x2="28" y1="0" y2="56" gradientUnits="userSpaceOnUse"><stop stop-color="#081f3e"/><stop offset="1" stop-color="#051428"/></linearGradient><linearGradient id="c" x1="5320.1" x2="5320.1" y1="2187" y2="11" gradientUnits="userSpaceOnUse"><stop stop-color="#0052cc"/><stop offset="1" stop-color="#2684ff"/></linearGradient><filter id="b" width="51.429" height="51.428" x="2.286" y="2.286" color-interpolation-filters="sRGB" filterUnits="userSpaceOnUse"><feFlood flood-opacity="0" result="BackgroundImageFix"/><feColorMatrix in="SourceAlpha" result="hardAlpha" values="0 0 0 0 0 0 0 0 0 0 0 0 0 0 0 0 0 0 127 0"/><feOffset/><feGaussianBlur stdDeviation="2.857"/><feComposite in2="hardAlpha" operator="out"/><feColorMatrix values="0 0 0 0 0 0 0 0 0 0 0 0 0 0 0 0 0 0 0.25 0"/><feBlend in2="BackgroundImageFix" result="effect1_dropShadow_7_263"/><feBlend in="SourceGraphic" in2="effect1_dropShadow_7_263" result="shape"/></filter></defs></svg>