<svg xmlns="http://www.w3.org/2000/svg" width="40" height="40" fill="none" viewBox="0 0 40 40"><rect width="40" height="40" fill="url(#a)" rx="8"/><rect width="37.9" height="37.9" x="1.05" y="1.05" stroke="#fff" stroke-opacity=".15" stroke-width="2.1" rx="6.95"/><g filter="url(#b)"><path fill="#353535" d="M13.365 6v2.29H9.167v2.019H7v2.288h2.167v2.02h2.167v2.153h4.333v2.154h8.667V16.77h4.333v-2.154h2.031v6.597h-2.03v6.326h-2.303v4.308h-13V34h13v-2.154h2.302v-4.308h2.031v-6.326h2.303V10.308h-2.303v2.288h-2.03v2.02h-4.334v2.153h-8.667v-2.154h-4.333v-2.019H9.167v-2.288h4.198v-2.02H20V6z"/><path fill="#515151" d="M20.001 6v2.29h6.365v2.019h4.333v-2.02h-4.333V6z"/><path fill="#a37b63" d="M13.366 8.288v2.02h2.302v-2.02z"/><path fill="#ab826b" d="M15.667 8.289v2.019h2.167v-2.02z"/><path fill="#aba26b" d="M17.834 8.288v2.02h4.198v-2.02z"/><path fill="#ab826b" d="M22.032 8.289v2.019h2.302v-2.02z"/><path fill="#bf967e" d="M24.335 8.289v2.019h2.03v2.288h2.303v-2.288h-2.302v-2.02z"/><path fill="#958c55" d="M9.167 10.308v2.288h2.167v-2.288z"/><path fill="#956c55" d="M11.334 10.308v2.288h2.031v-2.288z"/><path fill="#c33e1f" d="M13.366 10.308v2.288h2.302v-2.288z"/><path fill="#e38c3f" d="M15.667 10.308v2.288h2.167v2.02H20v2.153h4.334v-2.153H20v-2.02h-2.166v-2.288z"/><path fill="#e4d25c" d="M17.834 10.308v2.288h2.167v2.02h4.333v-2.02h-2.302v-2.288z"/><path fill="#e38c3f" d="M22.032 10.308v2.288h2.302v-2.288z"/><path fill="#cc4628" d="M24.335 10.308v2.288h2.03v2.02h2.303v-2.02h-2.302v-2.288z"/><path fill="#bfb67e" d="M28.668 10.308v2.288h2.03v-2.288z"/><path fill="#515151" d="M7 12.596v8.616h2.167v6.326h2.167v4.308h2.031v-4.308h-2.031v-6.326H9.167v-8.616z"/><path fill="#dc8638" d="M11.334 12.596v2.02h2.031v-2.02z"/><path fill="#e2cf5a" d="M13.366 12.596v2.02h2.302v2.153h2.166v-4.173z"/><path fill="#ea9346" d="M24.335 12.596v2.02h2.03v-2.02z"/><path fill="#e7e7e7" d="M9.167 14.615v2.154h2.167v2.154h4.333V16.77h-4.333v-2.154z"/><path fill="#c54021" d="M17.834 14.615v2.154h2.167v-2.154z"/><path fill="#a9a9a9" d="M28.668 14.615v2.154h2.03v-2.154z"/><path fill="#d8d8d8" d="M9.167 16.77v4.442h2.167v6.326h2.03v2.289h2.303v2.02H20V23.23h-2.166v-2.02h-2.167v2.02h-2.302v-4.308h-2.031V16.77z"/><path fill="#ead762" d="M24.335 16.77v2.153h2.03V16.77z"/><path fill="#cb4627" d="M26.365 16.77v2.153h2.302V16.77z"/><path fill="#727272" d="M28.667 16.77v4.442h-2.302v6.327h2.302v-6.327H30.7v-4.443z"/><path fill="#fff" d="M13.366 18.923v4.308h2.302v-4.308z"/><path fill="#d85334" d="M15.667 18.923v2.289h2.167v-2.289z"/><path fill="#cacaca" d="M17.834 18.923v2.289h6.5v-2.289z"/><path fill="#e99245" d="M24.335 18.923v2.289h2.03v-2.289z"/><path fill="#969696" d="M26.365 18.923v2.289h2.302v-2.289z"/><path fill="#a8a8a8" d="M17.834 21.212v2.019h2.167v6.596h2.03v-6.596h2.303v-2.02z"/><path fill="#cb4627" d="M24.335 21.212v2.019h2.03v-2.02z"/><path fill="#fff" d="M15.667 23.23v4.308h2.167v-4.307z"/><path fill="#969696" d="M22.032 23.23v6.597h-2.031v2.02h6.365v-4.309h-2.032V25.52h2.032v-2.288z"/><path fill="#cb4627" d="M24.335 25.52v2.019h2.03v-2.02z"/><path fill="#969696" d="M13.366 29.827v2.02h2.302v-2.02z"/></g><defs><linearGradient id="a" x1="20" x2="20" y1="0" y2="40" gradientUnits="userSpaceOnUse"><stop stop-color="#342c18"/><stop offset="1" stop-color="#251a11"/></linearGradient><filter id="b" width="36" height="36" x="2" y="2" color-interpolation-filters="sRGB" filterUnits="userSpaceOnUse"><feFlood flood-opacity="0" result="BackgroundImageFix"/><feColorMatrix in="SourceAlpha" result="hardAlpha" values="0 0 0 0 0 0 0 0 0 0 0 0 0 0 0 0 0 0 127 0"/><feOffset/><feGaussianBlur stdDeviation="2"/><feComposite in2="hardAlpha" operator="out"/><feColorMatrix values="0 0 0 0 0 0 0 0 0 0 0 0 0 0 0 0 0 0 0.25 0"/><feBlend in2="BackgroundImageFix" result="effect1_dropShadow_2_2666"/><feBlend in="SourceGraphic" in2="effect1_dropShadow_2_2666" result="shape"/></filter></defs></svg>