<svg xmlns="http://www.w3.org/2000/svg" width="40" height="40" fill="none" viewBox="0 0 40 40"><rect width="40" height="40" fill="url(#a)" rx="8"/><rect width="37.9" height="37.9" x="1.05" y="1.05" stroke="#fff" stroke-opacity=".15" stroke-width="2.1" rx="6.95"/><g filter="url(#b)"><path fill="#fcfcfc" fill-rule="evenodd" d="M26.796 18.055c.158.247.317.495.498.725q.06-.136.126-.276c.112-.238.227-.482.271-.73.033-.184-.007-.363-.047-.542-.031-.144-.063-.288-.058-.434.015-.437.2-.89.368-1.303l.072-.176c.084-.212.21-.424.408-.547.057-.036.123-.06.19-.085.096-.036.193-.072.263-.143.214-.218.37-.814.395-1.113.044-.523-.158-1.09-.352-1.63a9 9 0 0 1-.246-.761c-.348-1.393.129-3.054 1.457-3.75.99-.52 2.368-.335 3.12.509.53.594.739 1.33.739 2.108 0 .525-.03 1.43-.484 1.794-.284.228-.856.211-1.045-.128-.17-.303-.085-.63 0-.961.067-.258.135-.517.082-.768-.11-.524-.645-1.205-1.241-1.123-.474.064-.843.518-1.005.934-.178.456-.024.935.122 1.389q.041.125.078.247l.005.019c.247.832.482 1.622.38 2.498-.024.216-.102.425-.179.632-.081.218-.162.435-.18.659-.01.124.037.247.086.372.04.105.082.211.088.32.037.608-.177 1.217-.438 1.762-.118.246-.303.4-.49.555-.14.115-.28.232-.396.389-.216.293-.35.657-.483 1.013a8 8 0 0 1-.21.529c-.051.111-.114.224-.177.338-.12.217-.242.439-.293.669-.04.177.02.4.076.603.023.087.046.17.06.246.1.554.19 1.136.203 1.7.06 2.52-.561 5.095-2.287 7.016a8 8 0 0 1-1.856 1.53c-2.562 1.527-5.77.862-8.097-.767-.806-.564-1.466-1.247-2.134-1.938a44 44 0 0 0-.692-.705c-.206-.204-.433-.27-.666-.338a2.2 2.2 0 0 1-.462-.174c-.415-.231-.879-.84-1.095-1.258-.098-.187-.09-.38-.082-.568.006-.16.013-.32-.046-.47-.067-.17-.195-.322-.323-.474a2.5 2.5 0 0 1-.259-.344c-.295-.513-.395-1.086-.436-1.668a8 8 0 0 1 0-.75c.025-.843.052-1.745-.732-2.22-.897-.544-1.987.502-1.854 1.428.04.27.167.483.294.694.153.254.304.504.294.848-.01.368-.264.59-.632.592-.485 0-.788-.336-1.03-.718-.488-.767-.57-1.777-.345-2.643.528-2.028 3.199-2.795 4.728-1.35.866.817.904 1.886.944 2.986l.003.095q.006.152.008.296c.016.664.028 1.197.504 1.78.157.191.36.217.573.244.134.018.272.035.404.096.297.136.53.43.74.696l.128.16c.147.178.299.37.354.598.028.117.038.235.05.35.019.216.038.427.169.625.432.653 1.067 1.238 1.658 1.745.892.766 1.834 1.45 2.942 1.873 2.828 1.08 5.63-.76 6.8-3.335.648-1.43.706-2.808.696-4.342-.205.175-.383.388-.562.6-.145.173-.29.346-.45.5-.774.742-1.633 1.343-2.625 1.76a7 7 0 0 1-2.847.537 5.9 5.9 0 0 1-2.15-.467c-4.047-1.748-4.85-7.773-1.266-10.448a5.9 5.9 0 0 1 1.74-.905 6.3 6.3 0 0 1 2.404-.288 7.2 7.2 0 0 1 2.973.908 7.8 7.8 0 0 1 2.263 1.95c.18.23.338.477.496.723m-8.39-1.173a4.3 4.3 0 0 1 1.803-.605c2.09-.236 4.048 1.21 5.156 2.849.244.361.449.741.64 1.133l.042.084c.077.15.166.324.157.482-.01.147-.112.29-.201.413l-.042.06c-.218.31-.44.623-.687.912-1.042 1.216-2.495 2.358-4.148 2.545-.603.068-1.22.039-1.802-.148a4.1 4.1 0 0 1-1.392-.768c-2.233-1.895-2.036-5.39.474-6.957" clip-rule="evenodd"/></g><defs><linearGradient id="a" x1="20" x2="20" y1="0" y2="40" gradientUnits="userSpaceOnUse"><stop stop-color="#322e20"/><stop offset="1" stop-color="#201c15"/></linearGradient><filter id="b" width="36" height="36" x="2" y="2" color-interpolation-filters="sRGB" filterUnits="userSpaceOnUse"><feFlood flood-opacity="0" result="BackgroundImageFix"/><feColorMatrix in="SourceAlpha" result="hardAlpha" values="0 0 0 0 0 0 0 0 0 0 0 0 0 0 0 0 0 0 127 0"/><feOffset/><feGaussianBlur stdDeviation="2"/><feComposite in2="hardAlpha" operator="out"/><feColorMatrix values="0 0 0 0 0 0 0 0 0 0 0 0 0 0 0 0 0 0 0.25 0"/><feBlend in2="BackgroundImageFix" result="effect1_dropShadow_2_2737"/><feBlend in="SourceGraphic" in2="effect1_dropShadow_2_2737" result="shape"/></filter></defs></svg>