<svg xmlns="http://www.w3.org/2000/svg" width="40" height="40" fill="none" viewBox="0 0 40 40"><rect width="40" height="40" fill="url(#a)" rx="8"/><rect width="37.9" height="37.9" x="1.05" y="1.05" stroke="#fff" stroke-opacity=".15" stroke-width="2.1" rx="6.95"/><g filter="url(#b)"><path fill="#38342a" d="M21 6v2h-2v4h-2v2h-2v2h-2v2h-2v2H9v2H7v4h2v2h2v2h2v2h2v2h4v-2h2v-4h2v-2h2v-2h2v-2h4v-2h2v-4h-2v-2h-2v-2h-2v-2h-2V8h-2V6z"/><path fill="#dbd0b4" d="M21 8v2h2v2h2v2h2v2h2v-2h-2v-2h-2v-2h-2V8z"/><path fill="#c6bca5" d="M21 10v2h2v-2z"/><path fill="#dbd0b4" d="M19 12v4h-4v2h-2v2h-2v4h2v2h2v2h4v-4h-2v-2h4v2h2v-4h-2v-2h4v-2h-2v-2h-2v-2z"/><path fill="#38342a" d="M21 12v2h2v2h2v2h2v-2h-2v-2h-2v-2z"/><path fill="#bcb29c" d="M23.001 12v2h2v-2z"/><path fill="#c6bca5" d="M17 14v2h2v-2z"/><path fill="#bcb29c" d="M25.001 14v2h2v-2z"/><path fill="#c6bca5" d="M19.001 16v2h2v-2z"/><path fill="#bcb29c" d="M27.001 16v2h2v-2z"/><path fill="#c6bca5" d="M21 18v2h4v-2z"/><path fill="#bcb29c" d="M25.001 18v2h-2v4h2v-2h2v-4z"/><path fill="#807a6d" d="M29.001 18v2h2v-2z"/><path fill="#c6bca5" d="M15 20v2h2v-2z"/><path fill="#aea694" d="M9.001 22v2h2v2h2v2h2v2h2v-2h-2v-2h-2v-2h-2v-2z"/><path fill="#c6bca5" d="M17 22v2h4v-2z"/><path fill="#9a927e" d="M9.001 24v2h2v-2z"/><path fill="#bcb29c" d="M19.001 24v4h2v-2h2v-2z"/><path fill="#9a927e" d="M11 26v2h2v-2zm2 2v2h2v-2z"/><path fill="#bcb29c" d="M17 28v2h2v-2z"/><path fill="#9a927e" d="M15 30v2h2v-2z"/></g><defs><linearGradient id="a" x1="20" x2="20" y1="0" y2="40" gradientUnits="userSpaceOnUse"><stop stop-color="#2d2a24"/><stop offset="1" stop-color="#1e1c18"/></linearGradient><filter id="b" width="36" height="36" x="2" y="2" color-interpolation-filters="sRGB" filterUnits="userSpaceOnUse"><feFlood flood-opacity="0" result="BackgroundImageFix"/><feColorMatrix in="SourceAlpha" result="hardAlpha" values="0 0 0 0 0 0 0 0 0 0 0 0 0 0 0 0 0 0 127 0"/><feOffset/><feGaussianBlur stdDeviation="2"/><feComposite in2="hardAlpha" operator="out"/><feColorMatrix values="0 0 0 0 0 0 0 0 0 0 0 0 0 0 0 0 0 0 0.25 0"/><feBlend in2="BackgroundImageFix" result="effect1_dropShadow_2_2600"/><feBlend in="SourceGraphic" in2="effect1_dropShadow_2_2600" result="shape"/></filter></defs></svg>