<svg xmlns="http://www.w3.org/2000/svg" width="40" height="40" fill="none" viewBox="0 0 40 40"><rect width="40" height="40" fill="url(#a)" rx="8"/><rect width="37.9" height="37.9" x="1.05" y="1.05" stroke="#fff" stroke-opacity=".15" stroke-width="2.1" rx="6.95"/><g filter="url(#b)"><path fill="#dfa86a" d="m31.327 14.766-12.027-.6H34V13H17.39v4.414c0 .032-.476-2.869-.604-3.689h-1.304v4.099c0 .032-.573-3.437-.605-3.878H6c.605.504 3.945 3.342 6.332 4.509 1.177.568 2.64.6 3.945.63.668.032 1.337.064 1.846.568.732.694.89 1.797.254 2.617-.604.82-2.322 1.01-2.322 1.01l-1.464 1.702V27h3.277l.096-1.986 2.831-1.987c-.286.252-.986.883-1.972 2.428a5 5 0 0 0-.541 1.104c.7-.6 2.163-1.01 3.882-1.01 1.686 0 3.15.41 3.85 1.01a5 5 0 0 0-.541-1.104c-1.018-1.545-1.687-2.176-1.973-2.428l2.832 1.986.095 1.987h3.055v-2.018l-1.432-1.734s-2.132-.126-2.673-1.01c-1.654-2.459.605-6.306 5.95-7.472"/></g><defs><linearGradient id="a" x1="20" x2="20" y1="0" y2="40" gradientUnits="userSpaceOnUse"><stop stop-color="#251e17"/><stop offset="1" stop-color="#1b1610"/></linearGradient><filter id="b" width="36" height="36" x="2" y="2" color-interpolation-filters="sRGB" filterUnits="userSpaceOnUse"><feFlood flood-opacity="0" result="BackgroundImageFix"/><feColorMatrix in="SourceAlpha" result="hardAlpha" values="0 0 0 0 0 0 0 0 0 0 0 0 0 0 0 0 0 0 127 0"/><feOffset/><feGaussianBlur stdDeviation="2"/><feComposite in2="hardAlpha" operator="out"/><feColorMatrix values="0 0 0 0 0 0 0 0 0 0 0 0 0 0 0 0 0 0 0.25 0"/><feBlend in2="BackgroundImageFix" result="effect1_dropShadow_2_2627"/><feBlend in="SourceGraphic" in2="effect1_dropShadow_2_2627" result="shape"/></filter></defs></svg>