<svg xmlns="http://www.w3.org/2000/svg" width="40" height="40" fill="none" viewBox="0 0 40 40"><rect width="40" height="40" fill="url(#a)" rx="8"/><rect width="37.9" height="37.9" x="1.05" y="1.05" stroke="#fff" stroke-opacity=".15" stroke-width="2.1" rx="6.95"/><g filter="url(#b)"><path fill="url(#c)" fill-rule="evenodd" d="M22.376 7.393a2.776 2.776 0 0 1-1.024 3.775l-8.2 4.713a.7.7 0 0 0-.35.608v7.4a.7.7 0 0 0 .35.608l6.492 3.731a.69.69 0 0 0 .689 0l6.49-3.729a.7.7 0 0 0 .35-.608v-4.6l-5.834 3.308a2.74 2.74 0 0 1-3.747-1.05 2.776 2.776 0 0 1 1.044-3.769l8.349-4.738a3.816 3.816 0 0 1 5.69 3.342v8.067a5.27 5.27 0 0 1-2.638 4.572l-7.452 4.283a5.21 5.21 0 0 1-5.195 0l-7.452-4.284A5.27 5.27 0 0 1 7.3 24.45v-8.522a5.27 5.27 0 0 1 2.638-4.572l8.685-4.992a2.743 2.743 0 0 1 3.753 1.029" clip-rule="evenodd"/></g><defs><linearGradient id="a" x1="-.187" x2="14.751" y1="40" y2="6.597" gradientUnits="userSpaceOnUse"><stop stop-color="#331c00"/><stop offset="1" stop-color="#392916"/></linearGradient><linearGradient id="c" x1="26.369" x2="13.237" y1="10.214" y2="30.741" gradientUnits="userSpaceOnUse"><stop stop-color="#ffb45b"/><stop offset="1" stop-color="#ff8a00"/></linearGradient><filter id="b" width="36" height="36" x="2" y="2" color-interpolation-filters="sRGB" filterUnits="userSpaceOnUse"><feFlood flood-opacity="0" result="BackgroundImageFix"/><feColorMatrix in="SourceAlpha" result="hardAlpha" values="0 0 0 0 0 0 0 0 0 0 0 0 0 0 0 0 0 0 127 0"/><feOffset/><feGaussianBlur stdDeviation="2"/><feComposite in2="hardAlpha" operator="out"/><feColorMatrix values="0 0 0 0 0 0 0 0 0 0 0 0 0 0 0 0 0 0 0.25 0"/><feBlend in2="BackgroundImageFix" result="effect1_dropShadow_2_2772"/><feBlend in="SourceGraphic" in2="effect1_dropShadow_2_2772" result="shape"/></filter></defs></svg>