<svg xmlns="http://www.w3.org/2000/svg" width="40" height="40" fill="none" viewBox="0 0 40 40"><rect width="40" height="40" fill="url(#a)" rx="8"/><rect width="37.9" height="37.9" x="1.05" y="1.05" stroke="#fff" stroke-opacity=".15" stroke-width="2.1" rx="6.95"/><g filter="url(#b)"><path fill="#4e84c4" d="M8.5 16.26v-3.467c.045-.003.09-.063.132-.078.748-.38 1.488-.778 2.245-1.136.227-.108.31-.214.305-.469-.017-.926-.007-1.853-.006-2.78 0-.286 0-.288.235-.407.977-.496 1.956-.988 2.932-1.485.274-.14.57-.235.81-.438h.217c.01.02.012.053.027.06 1.24.624 2.48 1.244 3.717 1.871.075.039.103.042.18 0 .415-.217.844-.41 1.258-.632.114-.061.17-.052.279.009.32.18.656.332.987.498.214.108.214.112.396.016.308-.163.613-.33.92-.491.218-.115.24-.115.441-.012l3.65 1.86c1.346.683 2.696 1.361 4.04 2.051.084.043.156.036.235.046v10.262c-.08.01-.151.003-.235.046-1.583.81-3.167 1.618-4.763 2.407-.266.13-.365.272-.362.577.014 2.124.004 4.25.013 6.373 0 .211-.06.324-.244.41-.355.164-.702.347-1.052.522l-.077.044a1 1 0 0 1 .096.03c.378.195.754.394 1.136.584.068.034.064.048.017.085a1 1 0 0 1-.118.065c-.58.292-1.164.575-1.735.885-.26.141-.552.228-.777.434h-.072a2 2 0 0 0-.21-.146q-3.905-1.981-7.812-3.96l-.069-.049q.031-.011.062-.026c.818-.415 1.637-.826 2.452-1.248a.44.44 0 0 1 .449 0c.372.199.75.384 1.127.575q.57-.285 1.138-.574c.03-.015.055-.07.079-.068.113.011.108-.058.108-.136 0-.452-.003-.904 0-1.355 0-.09-.037-.098-.112-.136-.623-.305-1.237-.628-1.856-.942q-2.991-1.52-5.986-3.035c-.102-.052-.155-.095-.153-.227.01-.756.002-1.513.006-2.27 0-.132-.032-.204-.168-.266-.336-.15-.655-.343-.987-.502-.144-.07-.233-.128-.227-.32.017-.548 0-1.098.012-1.647.003-.13-.058-.151-.144-.195-.768-.385-1.54-.77-2.303-1.166-.082-.044-.152-.035-.233-.046m16.2 11.473v-2.708c0-.084.018-.12-.102-.058-.744.383-1.5.747-2.25 1.118-.101.049-.245.079-.289.161-.054.106-.03.255-.035.386-.005.11 0 .22 0 .33l.002 2.122c0 .098-.032.126-.12.169-.375.177-.738.376-1.104.568l-.069.048.062.026c.83.416 1.66.827 2.486 1.251.07.035.09.04.162 0a23 23 0 0 1 1.112-.549c.107-.049.15-.1.15-.228-.008-.878-.005-1.757-.005-2.636"/></g><defs><linearGradient id="a" x1="20" x2="20" y1="0" y2="40" gradientUnits="userSpaceOnUse"><stop stop-color="#131f2e"/><stop offset="1" stop-color="#0c141e"/></linearGradient><filter id="b" width="36" height="36" x="2" y="2" color-interpolation-filters="sRGB" filterUnits="userSpaceOnUse"><feFlood flood-opacity="0" result="BackgroundImageFix"/><feColorMatrix in="SourceAlpha" result="hardAlpha" values="0 0 0 0 0 0 0 0 0 0 0 0 0 0 0 0 0 0 127 0"/><feOffset/><feGaussianBlur stdDeviation="2"/><feComposite in2="hardAlpha" operator="out"/><feColorMatrix values="0 0 0 0 0 0 0 0 0 0 0 0 0 0 0 0 0 0 0.25 0"/><feBlend in2="BackgroundImageFix" result="effect1_dropShadow_2_2633"/><feBlend in="SourceGraphic" in2="effect1_dropShadow_2_2633" result="shape"/></filter></defs></svg>