<svg xmlns="http://www.w3.org/2000/svg" width="40" height="40" fill="none" viewBox="0 0 40 40"><rect width="40" height="40" fill="url(#a)" rx="8"/><rect width="37.9" height="37.9" x="1.05" y="1.05" stroke="#fff" stroke-opacity=".15" stroke-width="2.1" rx="6.95"/><g filter="url(#b)"><path fill="#fff" d="m30.985 9.025-3.428 20.57a.83.83 0 0 1-.433.6.9.9 0 0 1-.416.107.8.8 0 0 1-.316-.066l-6.065-2.497-3.237 3.953a.83.83 0 0 1-.948.25.835.835 0 0 1-.566-.832v-4.635L27.14 12.328 12.83 24.686l-5.283-2.172a.83.83 0 0 1-.541-.733.83.83 0 0 1 .433-.832L29.712 8.134a.83.83 0 0 1 .907 0 .88.88 0 0 1 .366.89"/></g><defs><linearGradient id="a" x1="20" x2="20" y1="0" y2="40" gradientUnits="userSpaceOnUse"><stop stop-color="#1d262d"/><stop offset="1" stop-color="#12181c"/></linearGradient><filter id="b" width="36" height="36" x="2" y="2" color-interpolation-filters="sRGB" filterUnits="userSpaceOnUse"><feFlood flood-opacity="0" result="BackgroundImageFix"/><feColorMatrix in="SourceAlpha" result="hardAlpha" values="0 0 0 0 0 0 0 0 0 0 0 0 0 0 0 0 0 0 127 0"/><feOffset/><feGaussianBlur stdDeviation="2"/><feComposite in2="hardAlpha" operator="out"/><feColorMatrix values="0 0 0 0 0 0 0 0 0 0 0 0 0 0 0 0 0 0 0.25 0"/><feBlend in2="BackgroundImageFix" result="effect1_dropShadow_2_2715"/><feBlend in="SourceGraphic" in2="effect1_dropShadow_2_2715" result="shape"/></filter></defs></svg>