<svg xmlns="http://www.w3.org/2000/svg" width="40" height="40" fill="none" viewBox="0 0 40 40"><rect width="40" height="40" fill="url(#a)" rx="8"/><rect width="37.9" height="37.9" x="1.05" y="1.05" stroke="#fff" stroke-opacity=".15" stroke-width="2.1" rx="6.95"/><g filter="url(#b)"><path fill="#9c9c9c" d="m18.96 25.037-3.69.665 7.381 3.994 1.23-1.997z"/><path fill="#7e7e7e" d="m18.96 25.037 4.921 2.662v-2.662l-4.92-2.663z"/><path fill="#6a6a6a" d="M31.262 17.05v13.312L11.58 19.712V6.4z"/><path fill="#9c9c9c" d="m12.318 6-.738.4 19.682 10.649.738-.4z"/><path fill="#7e7e7e" d="m31.262 30.362.738-.4V16.65l-.738.4z"/><path fill="#fff" d="m12.81 8.396 17.222 9.319v10.65l-17.222-9.32z"/><path fill="#7e7e7e" d="M11.69 25.08 8 27.345 20.3 34l3.691-2.263z"/><path fill="#2d2d2d" d="m20.3 34 3.691-1.997v-.266z"/></g><defs><linearGradient id="a" x1="0" x2="13.882" y1="40" y2="5.603" gradientUnits="userSpaceOnUse"><stop stop-color="#161616"/><stop offset="1" stop-color="#2d2d2d"/></linearGradient><filter id="b" width="36" height="36" x="2" y="2" color-interpolation-filters="sRGB" filterUnits="userSpaceOnUse"><feFlood flood-opacity="0" result="BackgroundImageFix"/><feColorMatrix in="SourceAlpha" result="hardAlpha" values="0 0 0 0 0 0 0 0 0 0 0 0 0 0 0 0 0 0 127 0"/><feOffset/><feGaussianBlur stdDeviation="2"/><feComposite in2="hardAlpha" operator="out"/><feColorMatrix values="0 0 0 0 0 0 0 0 0 0 0 0 0 0 0 0 0 0 0.25 0"/><feBlend in2="BackgroundImageFix" result="effect1_dropShadow_2_2778"/><feBlend in="SourceGraphic" in2="effect1_dropShadow_2_2778" result="shape"/></filter></defs></svg>