<svg xmlns="http://www.w3.org/2000/svg" width="40" height="40" fill="none" viewBox="0 0 40 40"><rect width="40" height="40" fill="url(#a)" rx="8"/><rect width="37.9" height="37.9" x="1.05" y="1.05" stroke="#fff" stroke-opacity=".15" stroke-width="2.1" rx="6.95"/><g filter="url(#b)"><path fill="#fff" fill-rule="evenodd" d="M33.751 25.838c-.547.703-1.887 1.203-1.887 1.203l-9.968 3.645V28l7.336-2.661c.832-.304.96-.733.283-.959-.675-.226-1.898-.161-2.731.144l-4.888 1.753v-2.79l.281-.097s1.413-.51 3.4-.733c1.985-.223 4.417.03 6.326.767 2.152.692 2.394 1.712 1.848 2.415M22.845 21.26v-6.875c0-.807-.147-1.55-.89-1.76-.57-.187-.924.352-.924 1.159V31l-4.56-1.474V9c1.938.366 4.763 1.233 6.282 1.754 3.862 1.35 5.172 3.03 5.172 6.816 0 3.69-2.238 5.088-5.08 3.69M8.102 27.718c-2.21-.634-2.577-1.953-1.57-2.713.93-.702 2.513-1.23 2.513-1.23l6.54-2.367v2.698l-4.707 1.714c-.83.304-.959.734-.283.96.676.224 1.9.16 2.732-.144l2.257-.834v2.414c-.143.026-.303.052-.45.078a14.55 14.55 0 0 1-7.032-.577" clip-rule="evenodd"/></g><defs><linearGradient id="a" x1="0" x2="-13.883" y1="0" y2="34.397" gradientUnits="userSpaceOnUse"><stop stop-color="#131f33"/><stop offset="1" stop-color="#0d1422"/></linearGradient><filter id="b" width="36" height="36" x="2" y="2" color-interpolation-filters="sRGB" filterUnits="userSpaceOnUse"><feFlood flood-opacity="0" result="BackgroundImageFix"/><feColorMatrix in="SourceAlpha" result="hardAlpha" values="0 0 0 0 0 0 0 0 0 0 0 0 0 0 0 0 0 0 127 0"/><feOffset/><feGaussianBlur stdDeviation="2"/><feComposite in2="hardAlpha" operator="out"/><feColorMatrix values="0 0 0 0 0 0 0 0 0 0 0 0 0 0 0 0 0 0 0.25 0"/><feBlend in2="BackgroundImageFix" result="effect1_dropShadow_2_2804"/><feBlend in="SourceGraphic" in2="effect1_dropShadow_2_2804" result="shape"/></filter></defs></svg>