<svg xmlns="http://www.w3.org/2000/svg" width="40" height="40" fill="none" viewBox="0 0 40 40"><rect width="40" height="40" fill="url(#a)" rx="8"/><rect width="37.9" height="37.9" x="1.05" y="1.05" stroke="#fff" stroke-opacity=".15" stroke-width="2.1" rx="6.95"/><g stroke-linejoin="round" stroke-width=".6" filter="url(#b)"><path stroke="url(#c)" d="m26.48 9.666-5.524 3.13 5.53 3.125 5.523-3.13z"/><path stroke="url(#d)" d="m19.99 6-5.527 3.13 5.53 3.122 5.526-3.127z"/><path stroke="url(#e)" d="M13.505 9.674 7.98 12.802l5.53 3.125 5.523-3.128z"/><path stroke="url(#f)" d="m19.995 13.34-5.526 3.13 5.529 3.122 5.526-3.127z"/><path stroke="url(#g)" d="m7.5 13.617.002 6.256 5.53 3.121-.003-6.252z"/><path stroke="url(#h)" d="m13.99 17.286.003 6.252 5.53 3.125-.003-6.252z"/><path stroke="url(#i)" d="m7.503 20.957.003 6.253 5.53 3.122-.004-6.253z"/><path stroke="url(#j)" d="m13.993 24.626.003 6.252L19.525 34l-.003-6.253z"/><path stroke="url(#k)" d="m20.486 34 5.526-3.128-.003-6.252-5.526 3.127z"/><path stroke="url(#l)" d="m26.974 30.326 5.526-3.128-.006-6.252-5.523 3.127z"/><path stroke="url(#m)" d="m26.968 22.986 5.526-3.128-.003-6.252-5.526 3.127z"/><path stroke="url(#n)" d="m20.48 20.408.003 6.252 5.524-3.127-.003-6.253z"/></g><defs><linearGradient id="a" x1="0" x2="43.848" y1="0" y2="4.792" gradientUnits="userSpaceOnUse"><stop stop-color="#092230"/><stop offset="1" stop-color="#200521"/></linearGradient><linearGradient id="c" x1="5.423" x2="34.032" y1="5.7" y2="34.902" gradientUnits="userSpaceOnUse"><stop offset=".15" stop-color="#25b8ff"/><stop offset=".85" stop-color="#fa02ff"/></linearGradient><linearGradient id="d" x1="5.423" x2="34.032" y1="5.7" y2="34.902" gradientUnits="userSpaceOnUse"><stop offset=".15" stop-color="#25b8ff"/><stop offset=".85" stop-color="#fa02ff"/></linearGradient><linearGradient id="e" x1="5.423" x2="34.032" y1="5.7" y2="34.902" gradientUnits="userSpaceOnUse"><stop offset=".15" stop-color="#25b8ff"/><stop offset=".85" stop-color="#fa02ff"/></linearGradient><linearGradient id="f" x1="5.423" x2="34.032" y1="5.7" y2="34.902" gradientUnits="userSpaceOnUse"><stop offset=".15" stop-color="#25b8ff"/><stop offset=".85" stop-color="#fa02ff"/></linearGradient><linearGradient id="g" x1="5.423" x2="34.032" y1="5.699" y2="34.902" gradientUnits="userSpaceOnUse"><stop offset=".15" stop-color="#25b8ff"/><stop offset=".85" stop-color="#fa02ff"/></linearGradient><linearGradient id="h" x1="5.423" x2="34.032" y1="5.7" y2="34.902" gradientUnits="userSpaceOnUse"><stop offset=".15" stop-color="#25b8ff"/><stop offset=".85" stop-color="#fa02ff"/></linearGradient><linearGradient id="i" x1="5.423" x2="34.032" y1="5.7" y2="34.902" gradientUnits="userSpaceOnUse"><stop offset=".15" stop-color="#25b8ff"/><stop offset=".85" stop-color="#fa02ff"/></linearGradient><linearGradient id="j" x1="5.423" x2="34.032" y1="5.699" y2="34.902" gradientUnits="userSpaceOnUse"><stop offset=".15" stop-color="#25b8ff"/><stop offset=".85" stop-color="#fa02ff"/></linearGradient><linearGradient id="k" x1="5.423" x2="34.032" y1="5.699" y2="34.902" gradientUnits="userSpaceOnUse"><stop offset=".15" stop-color="#25b8ff"/><stop offset=".85" stop-color="#fa02ff"/></linearGradient><linearGradient id="l" x1="5.423" x2="34.032" y1="5.699" y2="34.902" gradientUnits="userSpaceOnUse"><stop offset=".15" stop-color="#25b8ff"/><stop offset=".85" stop-color="#fa02ff"/></linearGradient><linearGradient id="m" x1="5.423" x2="34.032" y1="5.7" y2="34.902" gradientUnits="userSpaceOnUse"><stop offset=".15" stop-color="#25b8ff"/><stop offset=".85" stop-color="#fa02ff"/></linearGradient><linearGradient id="n" x1="5.423" x2="34.032" y1="5.7" y2="34.902" gradientUnits="userSpaceOnUse"><stop offset=".15" stop-color="#25b8ff"/><stop offset=".85" stop-color="#fa02ff"/></linearGradient><filter id="b" width="36" height="36.6" x="2" y="1.7" color-interpolation-filters="sRGB" filterUnits="userSpaceOnUse"><feFlood flood-opacity="0" result="BackgroundImageFix"/><feColorMatrix in="SourceAlpha" result="hardAlpha" values="0 0 0 0 0 0 0 0 0 0 0 0 0 0 0 0 0 0 127 0"/><feOffset/><feGaussianBlur stdDeviation="2"/><feComposite in2="hardAlpha" operator="out"/><feColorMatrix values="0 0 0 0 0 0 0 0 0 0 0 0 0 0 0 0 0 0 0.25 0"/><feBlend in2="BackgroundImageFix" result="effect1_dropShadow_2_2746"/><feBlend in="SourceGraphic" in2="effect1_dropShadow_2_2746" result="shape"/></filter></defs></svg>