<svg xmlns="http://www.w3.org/2000/svg" width="40" height="40" fill="none" viewBox="0 0 40 40"><g clip-path="url(#a)"><rect width="40" height="40" fill="url(#b)" rx="8"/><g filter="url(#c)"><path fill="#9722ff" d="M13.785 9.875a.495.495 0 0 0 .494.495h.842v1.881h-.842a.495.495 0 1 0 0 .99h.842v1.442a.44.44 0 0 1-.439.438H13.24v-.841a.495.495 0 1 0-.99 0v.841h-1.88v-.841a.495.495 0 0 0-.99 0v.841H7.938a.44.44 0 0 1-.438-.438V7.938a.44.44 0 0 1 .438-.438h6.744a.44.44 0 0 1 .439.438V9.38h-.842a.495.495 0 0 0-.495.495"/><path fill="#dc29dd" d="M22.395 9.875a.495.495 0 0 0 .495.495h.843v1.881h-.84a.495.495 0 1 0 0 .99h.84v1.442a.44.44 0 0 1-.438.438H16.55a.44.44 0 0 1-.439-.438V13.24h.841a.495.495 0 1 0 0-.99h-.84v-1.88h.84a.497.497 0 0 0 .472-.689.495.495 0 0 0-.472-.302h-.84V7.938a.44.44 0 0 1 .438-.438h6.744a.44.44 0 0 1 .439.438V9.38h-.842a.495.495 0 0 0-.496.495"/><path fill="#27a2fd" d="M32.343 7.938v6.745a.44.44 0 0 1-.438.438h-1.442v-.841a.495.495 0 1 0-.99 0v.841h-1.88v-.841a.495.495 0 1 0-.99 0v.841H25.16a.44.44 0 0 1-.438-.438V13.24h.842a.495.495 0 1 0 0-.99h-.842v-1.88h.842a.495.495 0 0 0 0-.99h-.842V7.937a.44.44 0 0 1 .438-.438h6.745a.44.44 0 0 1 .438.438"/><path fill="#dc29dd" d="M15.12 16.55v6.744a.44.44 0 0 1-.438.438H13.24v-.841a.494.494 0 1 0-.99 0v.842h-1.88v-.841a.495.495 0 0 0-.99 0v.841H7.938a.44.44 0 0 1-.438-.438v-6.746a.44.44 0 0 1 .438-.438H9.38v.841a.495.495 0 1 0 .99 0v-.841h1.88v.841a.495.495 0 1 0 .99 0v-.841h1.442a.44.44 0 0 1 .439.438"/><path fill="#27a2fd" d="M22.395 18.486a.495.495 0 0 0 .495.495h.843v1.88h-.84a.495.495 0 0 0 0 .99h.84v1.443a.44.44 0 0 1-.438.438h-1.443v-.841a.494.494 0 1 0-.99 0v.842h-1.88v-.841a.495.495 0 0 0-.99 0v.841H16.55a.44.44 0 0 1-.439-.438v-6.746a.44.44 0 0 1 .439-.438h6.744a.44.44 0 0 1 .439.438v1.442h-.842a.494.494 0 0 0-.496.495"/><path fill="#34f" d="M32.343 16.55v6.744a.44.44 0 0 1-.438.438H25.16a.44.44 0 0 1-.438-.438V21.85h.842a.495.495 0 1 0 0-.99h-.842v-1.88h.842a.495.495 0 1 0 0-.99h-.842v-1.44a.44.44 0 0 1 .438-.438h1.442v.841a.495.495 0 1 0 .99 0v-.841h1.88v.841a.495.495 0 0 0 .99 0v-.841h1.442a.44.44 0 0 1 .44.438"/><path fill="#9722ff" d="M13.785 27.098a.495.495 0 0 0 .494.495h.842v1.88h-.842a.495.495 0 0 0 0 .99h.842v1.442a.44.44 0 0 1-.439.438H7.938a.44.44 0 0 1-.438-.438v-6.744a.44.44 0 0 1 .438-.439H9.38v.841a.495.495 0 0 0 .99 0v-.84h1.88v.84a.495.495 0 1 0 .99 0v-.84h1.442a.44.44 0 0 1 .439.438v1.44h-.842a.496.496 0 0 0-.495.497"/><path fill="#34f" d="M23.734 25.16v6.745a.44.44 0 0 1-.439.438H16.55a.44.44 0 0 1-.439-.438v-1.442h.841a.495.495 0 1 0 0-.99h-.84v-1.88h.84a.497.497 0 0 0 .472-.689.5.5 0 0 0-.472-.302h-.84v-1.441a.44.44 0 0 1 .438-.439h1.441v.841a.496.496 0 1 0 .99 0v-.84h1.881v.84a.496.496 0 0 0 .99 0v-.84h1.442a.437.437 0 0 1 .44.438"/><path fill="#9722ff" d="M29.801 25.032 25.032 29.8a.44.44 0 0 0 0 .62l4.77 4.769a.44.44 0 0 0 .62 0l4.768-4.77a.44.44 0 0 0 0-.62l-4.769-4.768a.44.44 0 0 0-.62 0"/></g></g><rect width="37.9" height="37.9" x="1.05" y="1.05" stroke="#fff" stroke-opacity=".15" stroke-width="2.1" rx="6.95"/><defs><linearGradient id="b" x1="20" x2="20" y1="0" y2="40" gradientUnits="userSpaceOnUse"><stop stop-color="#260c26"/><stop offset="1" stop-color="#0e1c2c"/></linearGradient><clipPath id="a"><rect width="40" height="40" fill="#fff" rx="8"/></clipPath><filter id="c" width="37.318" height="37.318" x="2" y="2" color-interpolation-filters="sRGB" filterUnits="userSpaceOnUse"><feFlood flood-opacity="0" result="BackgroundImageFix"/><feColorMatrix in="SourceAlpha" result="hardAlpha" values="0 0 0 0 0 0 0 0 0 0 0 0 0 0 0 0 0 0 127 0"/><feOffset/><feGaussianBlur stdDeviation="2"/><feComposite in2="hardAlpha" operator="out"/><feColorMatrix values="0 0 0 0 0 0 0 0 0 0 0 0 0 0 0 0 0 0 0.25 0"/><feBlend in2="BackgroundImageFix" result="effect1_dropShadow_2_2645"/><feBlend in="SourceGraphic" in2="effect1_dropShadow_2_2645" result="shape"/></filter></defs></svg>