<svg xmlns="http://www.w3.org/2000/svg" width="40" height="40" fill="none" viewBox="0 0 40 40"><rect width="40" height="40" fill="url(#a)" rx="8"/><rect width="37.9" height="37.9" x="1.05" y="1.05" stroke="#fff" stroke-opacity=".15" stroke-width="2.1" rx="6.95"/><g filter="url(#b)"><path fill="url(#c)" fill-rule="evenodd" d="M20.525 8.059c-.311.1-.55.28-.821.618-.077.095-.208.129-.379.096-.202-.038-.97-.087-2.982-.192-.588-.031-.707-.014-.812.113-.252.305-.184 1.288.103 1.502.082.06.53.07.969.02.237-.028.473-.052 1.015-.105l.495-.048.63-.063a8 8 0 0 0 .69-.101l.304-.064.091.061c.266.18.34.308.302.532-.072.42-.079.652-.069 2.136.013 1.832.056 1.67-.451 1.71-.317.025-.44.115-.496.362-.027.119-.02 1.25.009 1.558.018.194-.135.304-.483.35-.342.044-.425.24-.351.833.016.129-.063.233-.265.352a.335.335 0 0 0-.078.514c.157.166.165.248.04.429-.129.188-.132.217-.133 1.365-.001 1.154-.016 1.343-.118 1.494-.147.218-.867.883-1.037.956-.052.022-.49.034-1.667.046-.878.009-1.626.024-1.664.034q-.223.064-.426-.147c-.188-.196-.167-.193-1.461-.18-1.272.014-1.258.016-1.289-.166a1.4 1.4 0 0 0-.137-.45c-.158-.342-.296-.41-.735-.354-.28.035-.343.11-.412.495-.086.483-.175.584-.431.487-.169-.063-.194-.065-.857-.042a1 1 0 0 1-.165-.014.4.4 0 0 0-.186.016 1.3 1.3 0 0 1-.28.038c-.457.014-.533.037-.638.196-.23.35-.425 2.311-.322 3.245.117 1.066.265 1.57.485 1.662.302.125 1.609.182 1.952.086l.177-.05.08.056c.103.074.16.206.209.493.06.345.12.422.374.47.173.033.408.02.513-.028.223-.101.347-.794.212-1.182-.077-.222-.02-.275.082-.075.142.28.288.31 1.603.31 1.19 0 1.104.02 1.271-.308.134-.263.195-.312.383-.305.077.003.697.015 1.378.026 1.358.023 1.229.008 1.658.197 1.124.495 2.355.774 3.898.883.848.06 2.015.035 2.747-.06 1.316-.17 2.184-.39 3.081-.779.654-.283.944-.133 1.079.559.105.54.08.62-.237.749-.447.18-.724.367-.79.532-.047.118-.025.249.103.604.034.095.066.234.07.309.011.212.033.299.108.433.039.068.077.18.086.247.02.157.08.342.151.468.034.06.062.163.071.263.045.465.246.6 1.005.676.089.009.187.02.22.025 1.542.236 3.673-.408 5.205-1.574.714-.543.894-.8.754-1.08a.6.6 0 0 1-.041-.214.9.9 0 0 0-.151-.464.4.4 0 0 1-.06-.173 1.2 1.2 0 0 0-.15-.419.3.3 0 0 1-.035-.132c0-.091-.06-.26-.13-.358a.8.8 0 0 1-.081-.186c-.101-.34-.678-.546-1.262-.45-.5.081-.534.063-.679-.361-.46-1.35-1.086-2.346-1.811-2.88-.275-.203-.378-.25-1.408-.642-1.01-.385-1.265-.492-1.728-.727a11 11 0 0 1-.68-.37c-1.495-.962-1.334-.71-1.388-2.17-.037-.981-.045-1.02-.237-1.174-.156-.125-.18-.183-.136-.346.075-.28.036-.402-.172-.544-.162-.11-.185-.157-.16-.336.086-.602-.011-.818-.385-.858-.226-.024-.32-.055-.385-.123l-.058-.062-.002-.883c-.003-1.172.005-1.155-.534-1.18-.386-.02-.475-.042-.555-.137l-.064-.076v-1.658c0-.964-.01-1.75-.026-1.878-.03-.258-.025-.267.204-.482.176-.164.287-.231.354-.213.398.108.334.103 2.512.199 1.672.073 1.658.075 1.794-.198.18-.358.059-1.325-.178-1.425-.08-.034-.4-.033-.7.003-.222.027-.28.033-1.361.152-1.343.147-1.369.15-1.7.208-.322.056-.341.05-.527-.174-.396-.478-.986-.676-1.511-.508" clip-rule="evenodd"/></g><defs><linearGradient id="a" x1="20" x2="20" y1="0" y2="40" gradientUnits="userSpaceOnUse"><stop stop-color="#342a1d"/><stop offset="1" stop-color="#1c1610"/></linearGradient><linearGradient id="c" x1="20" x2="20" y1="8" y2="32" gradientUnits="userSpaceOnUse"><stop stop-color="#cea260"/><stop offset="1" stop-color="#81562e"/></linearGradient><filter id="b" width="36" height="36" x="2" y="2" color-interpolation-filters="sRGB" filterUnits="userSpaceOnUse"><feFlood flood-opacity="0" result="BackgroundImageFix"/><feColorMatrix in="SourceAlpha" result="hardAlpha" values="0 0 0 0 0 0 0 0 0 0 0 0 0 0 0 0 0 0 127 0"/><feOffset/><feGaussianBlur stdDeviation="2"/><feComposite in2="hardAlpha" operator="out"/><feColorMatrix values="0 0 0 0 0 0 0 0 0 0 0 0 0 0 0 0 0 0 0.25 0"/><feBlend in2="BackgroundImageFix" result="effect1_dropShadow_2_2709"/><feBlend in="SourceGraphic" in2="effect1_dropShadow_2_2709" result="shape"/></filter></defs></svg>