<svg xmlns="http://www.w3.org/2000/svg" width="40" height="40" fill="none" viewBox="0 0 40 40"><rect width="40" height="40" fill="url(#a)" rx="8"/><rect width="37.9" height="37.9" x="1.05" y="1.05" stroke="#fff" stroke-opacity=".15" stroke-width="2.1" rx="6.95"/><g fill="#fff" filter="url(#b)"><path d="M11.995 6.093c-2.79.499-5.034 2.562-5.741 5.275-.255.98-.273 1.554-.244 9.155.018 6.98.024 7.142.14 7.681.643 2.904 2.707 4.974 5.641 5.658.383.087.87.105 4.007.122 3.248.023 3.584.017 3.67-.07.088-.087.094-1.205.094-13.89 0-9.403-.018-13.832-.058-13.914-.058-.104-.157-.11-3.555-.104-2.76.006-3.59.023-3.954.087m5.247 13.914v11.745l-2.36-.029c-2.174-.023-2.406-.035-2.841-.145-1.867-.481-3.253-1.919-3.642-3.791-.127-.586-.127-15.01-.005-15.584a4.98 4.98 0 0 1 3.003-3.588c.766-.307 1.12-.342 3.601-.348l2.244-.006z"/><path d="M12.493 11.803c-.365.07-.922.348-1.218.609-.609.527-.91 1.275-.864 2.156.024.459.053.58.238.951.273.563.684.974 1.247 1.252.388.192.487.215.991.232.458.018.62 0 .928-.104 1.258-.423 2.018-1.646 1.803-2.899-.249-1.49-1.664-2.487-3.125-2.197m9.892-5.763c-.023.018-.04 6.302-.04 13.966 0 12.645.006 13.926.093 13.96.156.059 4.656.035 5.212-.023 2.355-.266 4.43-1.698 5.561-3.826.145-.272.337-.73.435-1.014.365-1.09.354-.8.354-9.131 0-6.65-.012-7.641-.093-8.064-.574-3.02-2.876-5.3-5.903-5.82-.406-.07-1.032-.088-3.05-.088-1.392 0-2.551.018-2.569.04m6.193 12.627a2.84 2.84 0 0 1 1.948 1.81c.192.544.186 1.344-.005 1.843-.354.916-1.05 1.56-1.943 1.797-1.45.377-2.992-.499-3.415-1.937-.128-.44-.122-1.182.023-1.634.435-1.42 1.942-2.255 3.392-1.879"/></g><defs><linearGradient id="a" x1="0" x2="-13.883" y1="0" y2="34.397" gradientUnits="userSpaceOnUse"><stop stop-color="#40080b"/><stop offset="1" stop-color="#240507"/></linearGradient><filter id="b" width="36" height="36" x="2" y="2" color-interpolation-filters="sRGB" filterUnits="userSpaceOnUse"><feFlood flood-opacity="0" result="BackgroundImageFix"/><feColorMatrix in="SourceAlpha" result="hardAlpha" values="0 0 0 0 0 0 0 0 0 0 0 0 0 0 0 0 0 0 127 0"/><feOffset/><feGaussianBlur stdDeviation="2"/><feComposite in2="hardAlpha" operator="out"/><feColorMatrix values="0 0 0 0 0 0 0 0 0 0 0 0 0 0 0 0 0 0 0.25 0"/><feBlend in2="BackgroundImageFix" result="effect1_dropShadow_2_2810"/><feBlend in="SourceGraphic" in2="effect1_dropShadow_2_2810" result="shape"/></filter></defs></svg>