<svg xmlns="http://www.w3.org/2000/svg" width="40" height="40" fill="none" viewBox="0 0 40 40"><rect width="40" height="40" fill="url(#a)" rx="8"/><rect width="37.9" height="37.9" x="1.05" y="1.05" stroke="#fff" stroke-opacity=".15" stroke-width="2.1" rx="6.95"/><g filter="url(#b)"><path fill="#fff" fill-rule="evenodd" d="M14.579 6.19c-.59.64-.113.997 1.332.998 1.313 0 2.477.18 3.761.58.5.155.503.115-.04.736-.604.69-1.026 1.214-1.346 1.673l-.462.661c-1.214 1.739-2.822 5.402-3.068 6.991-.015.094-.061.287-.103.428s-.118.467-.169.724-.143.684-.203.95-.111.581-.112.7c-.002.474-.055.529-.645.676-3.028.756-5.508 2.09-6.626 3.562-1.546 2.035-1.071 4.373 1.236 6.09.643.479 1.827 1.165 2.294 1.33.178.063.437.166.575.227 1.03.464 3.586 1.122 4.87 1.256.189.02.556.079.817.13.317.063 1.404.096 3.274.097 2.92.003 2.742.017 5.093-.387 1.626-.28 2.664-.58 4.433-1.28 4.842-1.916 5.96-5.991 2.374-8.659-1.521-1.132-3.894-2.105-6.224-2.552a38 38 0 0 1-.792-.161 3 3 0 0 0-.525-.072c-.246 0-.269-.463-.084-1.737.063-.436.17-1.178.236-1.649.193-1.357.563-3.2.73-3.64.045-.117.065-.213.045-.213s.012-.132.072-.292c.104-.284.462-1.42.471-1.499.005-.042.174-.49.278-.74.036-.085.172-.414.3-.731.306-.749 1.055-2 1.288-2.153.852-.56 3.046-1.036 4.804-1.045C33.76 7.183 34 7.081 34 6.531c0-.817-3.922-.638-6.066.277-.107.046-.384.159-.616.25-1.355.538-3.088 4.758-3.89 9.47a34 34 0 0 0-.197 1.285c-.025.214-.077.617-.116.896-.357 2.57-.461 8.22-.156 8.516.191.185.57.187.815.002.136-.102.16-.235.194-1.038l.04-.92.745.25c1.217.409 1.937.886 1.937 1.286 0 .504-1.548 1.299-3.246 1.666-.886.191-1.684.34-1.847.346-1.924.065-2.47.331-2.061 1.004l.153.253h.682c1.056.001 2.639-.24 3.909-.594l.544-.149c1.191-.302 2.542-1.173 2.869-1.848.65-1.346-.883-2.832-3.472-3.364-.248-.05-.253-.06-.253-.479 0-.37.019-.421.137-.386.074.022.416.114.758.202 5.922 1.538 6.104 4.946.353 6.621a11 11 0 0 1-.777.202c-.11.018-.25.053-.315.077-1.299.485-6.944.485-8.243 0a2 2 0 0 0-.315-.077c-.732-.122-1.877-.534-2.796-1.004-3.045-1.558-2.984-3.492.159-5.027.837-.408.868-.408.838.004-.024.317-.042.338-.569.639-1.654.944-1.99 2.371-.79 3.345 1.216.985 3.254 1.058 2.964.106-.094-.306-.276-.448-.579-.448-.778 0-1.945-.63-1.945-1.052 0-.143.624-.816.757-.816.042 0 .062.082.043.181-.043.22.312.675.526.675.541 0 .658-.292.731-1.829a35 35 0 0 1 .292-3.23c.048-.322.095-.672.105-.78.034-.364.203-1.205.476-2.373.915-3.91 2.346-6.64 5.216-9.954.396-.457.72-.885.72-.95 0-.27-.237-.567-.524-.66a2 2 0 0 1-.37-.154c-.553-.418-2.735-.853-4.55-.907L14.754 6zm10.305.973c-.299.078-1.59 2.07-2.345 3.614-.495 1.013-1.207 2.832-1.333 3.406-.015.07-.134.537-.264 1.039-.13.5-.29 1.184-.354 1.518-.065.333-.153.781-.197.995-.043.215-.092.53-.109.701a14 14 0 0 1-.109.779c-.132.78-.401 3.535-.442 4.515a162 162 0 0 1-.115 2.147c-.105 1.774-.018 2.077.572 1.998.512-.069.567-.258.624-2.126a58 58 0 0 1 .833-8.325c.228-1.3.913-3.766 1.278-4.593.056-.128.196-.461.31-.74.301-.729.698-1.501 1.154-2.243.219-.356.433-.707.476-.779.043-.071.229-.333.414-.582.62-.833.411-1.535-.393-1.324m-2.043.19c-.701.22-3.188 4.164-3.994 6.335a44 44 0 0 0-.839 2.53c-.257.942-.479 1.855-.567 2.335-.052.278-.141.734-.2 1.012-.057.278-.14.769-.185 1.09-.166 1.212-.268 2.051-.263 2.172.003.068-.042.548-.1 1.066-.282 2.526-.16 3.49.44 3.473.427-.012.528-.194.572-1.029.077-1.488.318-4.182.437-4.904.04-.235.085-.57.102-.745.017-.174.069-.506.116-.74.401-1.964.437-2.131.554-2.57.552-2.072 1.168-3.728 1.965-5.28.462-.902 1.693-2.779 2.173-3.315.589-.658.673-.99.337-1.327-.21-.209-.211-.21-.548-.103m2.863 14.985c1.836.43 3.59 1.113 5.023 1.955 1.64.964 2.47 2.725 1.888 4.01-.748 1.65-3.902 3.464-6.939 3.99a9 9 0 0 0-.541.115c-.282.072-.835.158-2.1.33-.461.062-1.6.1-3.032.1-1.434 0-2.572-.038-3.033-.1-1.265-.172-1.818-.258-2.1-.33a9 9 0 0 0-.541-.116c-.99-.17-2.77-.773-3.824-1.294-4.476-2.209-4.432-5.223.107-7.416.814-.393 2.49-.987 3.072-1.089.307-.053.34.084.04.157-.119.029-.521.185-.896.347-5.106 2.204-4.476 6.36 1.226 8.092l.622.193c.17.055.538.14.816.191l.856.158c2.007.38 5.302.38 7.31 0l.855-.158c.278-.05.645-.136.816-.19.171-.055.451-.142.622-.194 6.781-2.072 6.083-7.215-1.205-8.875-.194-.044-.22-.065-.092-.071.1-.005.572.083 1.05.195" clip-rule="evenodd"/></g><defs><linearGradient id="a" x1="20" x2="20" y1="0" y2="40" gradientUnits="userSpaceOnUse"><stop stop-color="#11192c"/><stop offset="1" stop-color="#13111d"/></linearGradient><filter id="b" width="36" height="36" x="2" y="2" color-interpolation-filters="sRGB" filterUnits="userSpaceOnUse"><feFlood flood-opacity="0" result="BackgroundImageFix"/><feColorMatrix in="SourceAlpha" result="hardAlpha" values="0 0 0 0 0 0 0 0 0 0 0 0 0 0 0 0 0 0 127 0"/><feOffset/><feGaussianBlur stdDeviation="2"/><feComposite in2="hardAlpha" operator="out"/><feColorMatrix values="0 0 0 0 0 0 0 0 0 0 0 0 0 0 0 0 0 0 0.25 0"/><feBlend in2="BackgroundImageFix" result="effect1_dropShadow_2_2722"/><feBlend in="SourceGraphic" in2="effect1_dropShadow_2_2722" result="shape"/></filter></defs></svg>