<svg xmlns="http://www.w3.org/2000/svg" width="40" height="40" fill="none" viewBox="0 0 40 40"><rect width="40" height="40" fill="url(#a)" rx="8"/><rect width="37.9" height="37.9" x="1.05" y="1.05" stroke="#fff" stroke-opacity=".15" stroke-width="2.1" rx="6.95"/><g filter="url(#b)"><path fill="#fff" d="M18.604 33.942c-2.157-.206-4.34-.98-6.216-2.203-1.572-1.025-1.927-1.447-1.927-2.288 0-1.689 1.858-4.647 5.037-8.02 1.806-1.915 4.32-4.16 4.593-4.1.529.119 4.756 4.24 6.339 6.18 2.502 3.068 3.653 5.58 3.068 6.7-.444.851-3.201 2.515-5.227 3.154-1.669.527-3.861.75-5.667.577M8.338 27.695c-1.306-2.003-1.966-3.974-2.285-6.826-.105-.942-.068-1.48.239-3.413.382-2.41 1.754-5.196 3.404-6.911.702-.73.765-.748 1.621-.46 1.04.35 2.15 1.116 3.873 2.673l1.004.908-.548.674c-2.547 3.127-5.236 7.56-6.25 10.302-.55 1.491-.772 2.988-.535 3.611.16.42.013.264-.523-.558m22.928.34c.129-.629-.034-1.785-.417-2.951-.828-2.526-3.597-7.224-6.14-10.419l-.8-1.005.866-.795c1.13-1.038 1.915-1.659 2.762-2.187.669-.416 1.624-.784 2.035-.784.253 0 1.144.924 1.863 1.932 1.114 1.563 1.934 3.457 2.35 5.428.268 1.274.29 4 .042 5.271-.203 1.043-.631 2.396-1.05 3.313-.313.688-1.093 2.022-1.434 2.457-.176.223-.176.223-.077-.26M18.835 9.418c-1.173-.596-2.983-1.235-3.983-1.407a7.3 7.3 0 0 0-1.328-.075c-.825.042-.788-.001.535-.626 1.1-.52 2.018-.825 3.263-1.086 1.402-.294 4.036-.298 5.415-.007 1.49.313 3.243.966 4.231 1.574l.294.18-.674-.034c-1.34-.067-3.29.473-5.386 1.493-.632.307-1.182.552-1.222.545s-.556-.258-1.145-.557"/></g><defs><linearGradient id="a" x1="20" x2="6.117" y1="0" y2="34.397" gradientUnits="userSpaceOnUse"><stop stop-color="#083407"/><stop offset="1" stop-color="#041d04"/></linearGradient><filter id="b" width="36" height="36" x="2" y="2" color-interpolation-filters="sRGB" filterUnits="userSpaceOnUse"><feFlood flood-opacity="0" result="BackgroundImageFix"/><feColorMatrix in="SourceAlpha" result="hardAlpha" values="0 0 0 0 0 0 0 0 0 0 0 0 0 0 0 0 0 0 127 0"/><feOffset/><feGaussianBlur stdDeviation="2"/><feComposite in2="hardAlpha" operator="out"/><feColorMatrix values="0 0 0 0 0 0 0 0 0 0 0 0 0 0 0 0 0 0 0.25 0"/><feBlend in2="BackgroundImageFix" result="effect1_dropShadow_2_2833"/><feBlend in="SourceGraphic" in2="effect1_dropShadow_2_2833" result="shape"/></filter></defs></svg>