<svg xmlns="http://www.w3.org/2000/svg" width="56" height="56" fill="none" viewBox="0 0 56 56"><g clip-path="url(#a)"><rect width="56" height="56" fill="url(#b)" rx="8.4"/><g filter="url(#c)"><path fill="#0d0c22" d="m39.291 16.54-.029-.017-.068-.02a.16.16 0 0 0 .097.038m.418 3.062-.03.008z"/><path fill="#0d0c22" d="m39.3 16.536-.01-.003v.008z"/><path fill="#0d0c22" d="M39.29 16.541h.004v-.003zm.395 3.056.05-.028.018-.01.016-.019a.3.3 0 0 0-.084.057m-.309-2.989-.048-.047-.033-.017a.14.14 0 0 0 .08.064m-11.969 29.71a.25.25 0 0 0-.098.076l.03-.02c.02-.018.05-.04.068-.056m6.95-1.392c0-.044-.022-.036-.016.12q.002-.02.007-.037zm-.721 1.392a.25.25 0 0 0-.098.076l.03-.02zm-11.125.332a.2.2 0 0 0-.103-.05c.031.016.062.03.083.042zm-1.102-1.075a.3.3 0 0 0-.04-.129q.024.063.04.127z"/><path fill="#fd0" d="M28.807 26.37c-1.512.658-3.228 1.406-5.452 1.406a10.2 10.2 0 0 1-2.753-.387l1.538 16.078c.055.672.355 1.298.843 1.755.487.456 1.125.71 1.787.71 0 0 2.182.115 2.91.115.783 0 3.131-.115 3.131-.115.663 0 1.3-.254 1.788-.71a2.7 2.7 0 0 0 .842-1.755L35.09 25.7c-.737-.256-1.48-.427-2.317-.427-1.45 0-2.616.508-3.965 1.095"/><path fill="#0d0c22" d="m15.84 19.51.026.024.017.01a.3.3 0 0 0-.043-.034"/><path fill="#e8e8e8" d="m42.202 18.026-.232-1.19c-.208-1.066-.68-2.075-1.755-2.46-.345-.124-.737-.177-1.001-.432-.265-.256-.343-.653-.404-1.02-.113-.675-.22-1.351-.336-2.025-.1-.58-.18-1.23-.44-1.762-.34-.714-1.045-1.131-1.747-1.408a10 10 0 0 0-1.098-.346c-1.752-.47-3.593-.643-5.396-.742a44.5 44.5 0 0 0-6.49.11c-1.606.149-3.298.329-4.824.894-.558.207-1.133.456-1.557.894-.52.54-.69 1.373-.31 2.046.27.477.728.814 1.213 1.037a9.7 9.7 0 0 0 1.97.653c1.886.424 3.84.591 5.766.662 2.135.088 4.274.017 6.4-.213a36 36 0 0 0 1.574-.211c.617-.097 1.012-.918.83-1.49-.217-.684-.801-.949-1.462-.845l-.292.044-.07.01q-.336.044-.672.081-.694.075-1.39.124a46 46 0 0 1-6.202.012 39 39 0 0 1-2.03-.191l-.2-.026-.044-.007-.208-.03q-.639-.096-1.27-.23a.2.2 0 0 1-.107-.069.196.196 0 0 1 .107-.311h.008q.546-.119 1.1-.205.183-.03.369-.058h.003c.23-.016.462-.058.692-.085a43 43 0 0 1 6.008-.216 40 40 0 0 1 2.916.187q.312.033.623.071l.239.031.16.024q.704.106 1.4.259c.688.152 1.57.202 1.877.969.097.243.141.513.195.769l.069.325.004.018.486 2.307a.43.43 0 0 1-.19.448.4.4 0 0 1-.159.058h-.004l-.1.014-.097.013q-.466.063-.933.116-.92.106-1.84.184a63 63 0 0 1-5.547.227 64 64 0 0 1-8.24-.542c.207.027-.151-.021-.224-.031l-.51-.076c-.57-.087-1.137-.194-1.706-.288-.688-.115-1.346-.058-1.968.288a2.9 2.9 0 0 0-1.186 1.251c-.268.565-.348 1.18-.468 1.788-.12.607-.307 1.26-.236 1.883.152 1.345 1.076 2.439 2.404 2.683a68.4 68.4 0 0 0 19.895.671.84.84 0 0 1 .692.246.87.87 0 0 1 .247.702l-.126 1.244-.76 7.542a6151 6151 0 0 1-1.025 10.149c-.072.731-.082 1.486-.219 2.21-.215 1.136-.971 1.834-2.075 2.09-1.01.234-2.043.357-3.08.366-1.149.007-2.297-.045-3.446-.039-1.227.007-2.73-.108-3.677-1.038-.832-.816-.947-2.094-1.06-3.2l-.449-4.389-.833-8.135-.538-5.263-.027-.26c-.064-.628-.501-1.243-1.19-1.211-.588.026-1.258.536-1.188 1.21l.399 3.903.825 8.071.704 6.88c.046.44.088.88.136 1.319.259 2.4 2.06 3.695 4.29 4.059 1.303.213 2.637.257 3.959.279 1.695.028 3.406.094 5.073-.218 2.47-.462 4.323-2.14 4.587-4.745l.227-2.256.752-7.464.82-8.129.375-3.726a.87.87 0 0 1 .218-.495.85.85 0 0 1 .466-.265c.706-.14 1.381-.38 1.884-.927.8-.871.958-2.007.676-3.152m-26.568.804c.01-.005-.009.089-.017.133-.002-.067.001-.126.017-.133m.069.54c.005-.005.022.019.04.046-.027-.025-.044-.044-.04-.046m.067.09c.024.042.037.069 0 0m.135.112h.004c0 .004.006.008.008.012zm23.704-.167c-.254.245-.636.36-1.014.417-4.236.64-8.534.964-12.817.82-3.065-.106-6.098-.453-9.133-.889-.297-.043-.62-.098-.824-.321-.385-.421-.196-1.269-.096-1.777.092-.466.268-1.087.812-1.153.85-.102 1.836.263 2.677.393q1.518.236 3.047.378c4.35.403 8.774.34 13.106-.25q1.185-.162 2.36-.377c.698-.127 1.473-.366 1.895.37.289.502.327 1.173.283 1.74a.98.98 0 0 1-.297.649z"/></g></g><rect width="53.9" height="53.9" x="1.05" y="1.05" stroke="#fff" stroke-opacity=".15" stroke-width="2.1" rx="7.35"/><defs><linearGradient id="b" x1="28" x2="28" y1="0" y2="56" gradientUnits="userSpaceOnUse"><stop stop-color="#372e00"/><stop offset="1" stop-color="#1e1900"/></linearGradient><clipPath id="a"><rect width="56" height="56" fill="#fff" rx="8.4"/></clipPath><filter id="c" width="51.429" height="54.286" x="2.286" y=".857" color-interpolation-filters="sRGB" filterUnits="userSpaceOnUse"><feFlood flood-opacity="0" result="BackgroundImageFix"/><feColorMatrix in="SourceAlpha" result="hardAlpha" values="0 0 0 0 0 0 0 0 0 0 0 0 0 0 0 0 0 0 127 0"/><feOffset/><feGaussianBlur stdDeviation="2.857"/><feComposite in2="hardAlpha" operator="out"/><feColorMatrix values="0 0 0 0 0 0 0 0 0 0 0 0 0 0 0 0 0 0 0.25 0"/><feBlend in2="BackgroundImageFix" result="effect1_dropShadow_28_3290"/><feBlend in="SourceGraphic" in2="effect1_dropShadow_28_3290" result="shape"/></filter></defs></svg>