<svg xmlns="http://www.w3.org/2000/svg" width="56" height="56" fill="none" viewBox="0 0 56 56"><rect width="56" height="56" fill="url(#a)" rx="8"/><rect width="53.9" height="53.9" x="1.05" y="1.05" stroke="#fff" stroke-opacity=".15" stroke-width="2.1" rx="6.95"/><g filter="url(#b)"><path fill="#00d632" d="M34.063 8c4 0 6 0 8.187.688a8.5 8.5 0 0 1 5.063 5.062C48 15.938 48 17.938 48 21.944V34.05c0 4.013 0 6.025-.687 8.188A8.5 8.5 0 0 1 42.25 47.3c-2.187.7-4.187.7-8.187.7H21.937c-4.012 0-6.025 0-8.187-.687a8.5 8.5 0 0 1-5.062-5.063C8 40.063 8 38.063 8 34.056V21.938c0-4.013 0-6.025.688-8.188a8.5 8.5 0 0 1 5.062-5.062C15.938 8 17.938 8 21.938 8z"/><path fill="#fff" d="M34.544 22.875c.312.313.831.313 1.125 0l1.562-1.625c.331-.312.313-.875-.037-1.212a12.3 12.3 0 0 0-4.2-2.4l.493-2.376a.83.83 0 0 0-.8-1.006h-3.024a.826.826 0 0 0-.8.663l-.438 2.112c-4.025.207-7.437 2.25-7.437 6.438 0 3.625 2.818 5.181 5.8 6.25 2.818 1.075 4.312 1.475 4.312 2.987 0 1.556-1.488 2.469-3.687 2.469-2 0-4.1-.669-5.725-2.3a.81.81 0 0 0-1.15 0l-1.688 1.688a.85.85 0 0 0 0 1.2c1.313 1.293 2.975 2.23 4.87 2.75l-.462 2.23a.83.83 0 0 0 .793 1.007l3.032.025a.826.826 0 0 0 .812-.663l.438-2.118c4.842-.325 7.792-2.994 7.792-6.888 0-3.587-2.937-5.1-6.5-6.331-2.038-.756-3.8-1.275-3.8-2.831 0-1.513 1.644-2.113 3.294-2.113 2.1 0 4.118.869 5.437 2.057z"/></g><defs><linearGradient id="a" x1="28" x2="28" y1="0" y2="56" gradientUnits="userSpaceOnUse"><stop stop-color="#003401"/><stop offset="1" stop-color="#001f03"/></linearGradient><filter id="b" width="51.429" height="51.429" x="2.286" y="2.286" color-interpolation-filters="sRGB" filterUnits="userSpaceOnUse"><feFlood flood-opacity="0" result="BackgroundImageFix"/><feColorMatrix in="SourceAlpha" result="hardAlpha" values="0 0 0 0 0 0 0 0 0 0 0 0 0 0 0 0 0 0 127 0"/><feOffset/><feGaussianBlur stdDeviation="2.857"/><feComposite in2="hardAlpha" operator="out"/><feColorMatrix values="0 0 0 0 0 0 0 0 0 0 0 0 0 0 0 0 0 0 0.25 0"/><feBlend in2="BackgroundImageFix" result="effect1_dropShadow_59_73"/><feBlend in="SourceGraphic" in2="effect1_dropShadow_59_73" result="shape"/></filter></defs></svg>