<svg xmlns="http://www.w3.org/2000/svg" width="56" height="56" fill="none" viewBox="0 0 56 56"><rect width="56" height="56" fill="url(#a)" rx="8.4"/><rect width="53.9" height="53.9" x="1.05" y="1.05" stroke="#fff" stroke-opacity=".15" stroke-width="2.1" rx="7.35"/><g filter="url(#b)"><path fill="#fff" stroke="#fff" stroke-width=".714" d="M35.014 10.5a6.2 6.2 0 0 1 6.176 6.759 6.2 6.2 0 0 1-.838 2.591h2.065a3.085 3.085 0 0 1 3.084 3.085v3.896c0 1.149-.629 2.15-1.56 2.682v12.903a3.084 3.084 0 0 1-3.083 3.084H15.144a3.086 3.086 0 0 1-3.085-3.084V29.512a3.09 3.09 0 0 1-1.558-2.681v-3.896a3.086 3.086 0 0 1 3.084-3.085h2.061a6.202 6.202 0 0 1 5.342-9.35c2.258 0 5.236 1.31 7.012 4.435 1.777-3.126 4.754-4.435 7.014-4.435Zm-5.487 31.948h11.33a.03.03 0 0 0 .023-.01h.001a.03.03 0 0 0 .01-.022v-12.5H29.526zm-14.416-.032c0 .018.015.032.033.032h11.331V29.916H15.111zm14.416-15.552h12.89a.033.033 0 0 0 .032-.033v-3.896a.03.03 0 0 0-.01-.023.03.03 0 0 0-.023-.009h-12.89zm-15.965-3.952a.03.03 0 0 0-.01.023v3.896c0 .018.016.033.033.033h12.89v-3.96h-12.89a.03.03 0 0 0-.023.008Zm21.452-9.36c-1.567 0-4.84 1.358-5.402 6.298h5.402a3.149 3.149 0 1 0 0-6.298Zm-14.026 0a3.15 3.15 0 0 0 0 6.298h5.402c-.563-4.94-3.835-6.298-5.402-6.298Z"/></g><defs><linearGradient id="a" x1="28" x2="28" y1="0" y2="56" gradientUnits="userSpaceOnUse"><stop stop-color="#2d2d2d"/><stop offset="1" stop-color="#222"/></linearGradient><filter id="b" width="51.429" height="51.428" x="2.286" y="2.286" color-interpolation-filters="sRGB" filterUnits="userSpaceOnUse"><feFlood flood-opacity="0" result="BackgroundImageFix"/><feColorMatrix in="SourceAlpha" result="hardAlpha" values="0 0 0 0 0 0 0 0 0 0 0 0 0 0 0 0 0 0 127 0"/><feOffset/><feGaussianBlur stdDeviation="2.857"/><feComposite in2="hardAlpha" operator="out"/><feColorMatrix values="0 0 0 0 0 0 0 0 0 0 0 0 0 0 0 0 0 0 0.25 0"/><feBlend in2="BackgroundImageFix" result="effect1_dropShadow_28_3395"/><feBlend in="SourceGraphic" in2="effect1_dropShadow_28_3395" result="shape"/></filter></defs></svg>