<svg xmlns="http://www.w3.org/2000/svg" width="56" height="56" fill="none" viewBox="0 0 56 56"><g clip-path="url(#a)"><rect width="56" height="56" fill="url(#b)" rx="8.4"/><g filter="url(#c)"><path fill="#ff5e5b" d="M11.968 16.889H34.19v20.635H11.968z"/><path fill="#fff" d="M51.43 22.296c-1.432-7.632-8.999-8.582-8.999-8.582H8.545c-1.119 0-1.258 1.491-1.258 1.491s-.151 13.684-.04 22.088c.303 4.53 4.789 4.993 4.789 4.993s15.309-.043 22.159-.092c4.514-.796 4.968-4.794 4.922-6.976 8.059.448 13.744-5.29 12.313-12.922m-20.485 6.56c-2.308 2.715-7.428 7.429-7.428 7.429s-.224.222-.574.043c-.14-.107-.2-.169-.2-.169-.82-.824-6.237-5.696-7.47-7.387-1.313-1.803-1.928-5.045-.169-6.932 1.761-1.887 5.565-2.03 8.08.76 0 0 2.898-3.33 6.422-1.799 3.526 1.532 3.392 5.626 1.338 8.055m11.43.893c-1.718.217-3.114.052-3.114.052V19.187h3.278s3.65 1.03 3.65 4.929c0 3.574-1.824 4.983-3.813 5.633"/></g></g><rect width="53.9" height="53.9" x="1.05" y="1.05" stroke="#fff" stroke-opacity=".15" stroke-width="2.1" rx="7.35"/><defs><linearGradient id="b" x1="28" x2="28" y1="0" y2="56" gradientUnits="userSpaceOnUse"><stop stop-color="#002634"/><stop offset="1" stop-color="#00161f"/></linearGradient><clipPath id="a"><rect width="56" height="56" fill="#fff" rx="8.4"/></clipPath><filter id="c" width="55.873" height="51.429" x="1.492" y="2.286" color-interpolation-filters="sRGB" filterUnits="userSpaceOnUse"><feFlood flood-opacity="0" result="BackgroundImageFix"/><feColorMatrix in="SourceAlpha" result="hardAlpha" values="0 0 0 0 0 0 0 0 0 0 0 0 0 0 0 0 0 0 127 0"/><feOffset/><feGaussianBlur stdDeviation="2.857"/><feComposite in2="hardAlpha" operator="out"/><feColorMatrix values="0 0 0 0 0 0 0 0 0 0 0 0 0 0 0 0 0 0 0.25 0"/><feBlend in2="BackgroundImageFix" result="effect1_dropShadow_28_3334"/><feBlend in="SourceGraphic" in2="effect1_dropShadow_28_3334" result="shape"/></filter></defs></svg>