<svg xmlns="http://www.w3.org/2000/svg" width="56" height="56" fill="none" viewBox="0 0 56 56"><rect width="56" height="56" fill="url(#a)" rx="8.4"/><rect width="53.9" height="53.9" x="1.05" y="1.05" stroke="#fff" stroke-opacity=".15" stroke-width="2.1" rx="7.35"/><g filter="url(#b)"><path fill="#0045d9" d="m40.39 20.806-20.1 21.797h-7.373c-.512 0-.922-.509-.82-1.018l4.916-30.935a1.43 1.43 0 0 1 1.433-1.221h12.492c8.601.305 10.957 4.68 9.42 11.397z"/><path fill="#00a4ee" d="M40.717 18.79c3.072 1.629 3.789 4.682 2.765 8.752-1.331 6.004-5.325 8.548-11.161 8.65l-1.638.102c-.615 0-1.024.407-1.127 1.017l-1.33 8.04a1.43 1.43 0 0 1-1.434 1.22h-6.144c-.512 0-.922-.508-.82-1.017l2.253-14.552c.103-.509 18.636-12.211 18.636-12.211"/><path fill="#002788" d="m21.959 31.714 2.048-12.923c.067-.306.234-.582.474-.784.241-.203.542-.32.857-.336h9.83c2.355 0 4.096.407 5.53 1.12-.513 4.477-2.663 11.702-13.107 11.906h-4.506c-.512 0-1.024.407-1.126 1.017"/></g><defs><linearGradient id="a" x1="28" x2="28" y1="0" y2="56" gradientUnits="userSpaceOnUse"><stop stop-color="#0e1b35"/><stop offset="1" stop-color="#0a1d25"/></linearGradient><filter id="b" width="51.429" height="51.429" x="2.286" y="2.286" color-interpolation-filters="sRGB" filterUnits="userSpaceOnUse"><feFlood flood-opacity="0" result="BackgroundImageFix"/><feColorMatrix in="SourceAlpha" result="hardAlpha" values="0 0 0 0 0 0 0 0 0 0 0 0 0 0 0 0 0 0 127 0"/><feOffset/><feGaussianBlur stdDeviation="2.857"/><feComposite in2="hardAlpha" operator="out"/><feColorMatrix values="0 0 0 0 0 0 0 0 0 0 0 0 0 0 0 0 0 0 0.25 0"/><feBlend in2="BackgroundImageFix" result="effect1_dropShadow_28_3342"/><feBlend in="SourceGraphic" in2="effect1_dropShadow_28_3342" result="shape"/></filter></defs></svg>