<svg xmlns="http://www.w3.org/2000/svg" width="208" height="40" fill="none" viewBox="0 0 208 40"><g clip-path="url(#a)"><rect width="208.001" height="40.001" fill="url(#b)" rx="8"/><g filter="url(#c)"><path fill="#353535" d="M15.57 6v2.289h-4.068v2.019h-2.1v2.289h2.1v2.019h2.1v2.154h4.2v2.154h8.4V16.77h4.2v-2.154h1.97v6.596h-1.97v6.328h-2.23v4.307H15.57v2.154h12.601v-2.154h2.231V27.54h1.97v-6.327h2.23V10.308h-2.23v2.289h-1.97v2.019h-4.2v2.154h-8.4v-2.154h-4.2v-2.02h-2.1v-2.288h4.068v-2.02h6.432V6z"/><path fill="#515151" d="M22.002 6v2.289h6.169v2.019h4.2v-2.02h-4.2V6z"/><path fill="#a37b63" d="M15.57 8.289v2.019h2.23v-2.02z"/><path fill="#ab826b" d="M17.801 8.289v2.019h2.1v-2.02z"/><path fill="#aba26b" d="M19.902 8.289v2.019h4.07v-2.02z"/><path fill="#ab826b" d="M23.97 8.289v2.019h2.232v-2.02z"/><path fill="#bf967e" d="M26.202 8.289v2.019h1.969v2.289h2.231v-2.29h-2.231V8.29z"/><path fill="#958c55" d="M11.501 10.308v2.289h2.1v-2.29z"/><path fill="#956c55" d="M13.601 10.308v2.289h1.969v-2.29z"/><path fill="#c33e1f" d="M15.57 10.308v2.289h2.23v-2.29z"/><path fill="#e38c3f" d="M17.801 10.308v2.289h2.1v2.019h2.1v2.154h4.2v-2.154h-4.2v-2.02h-2.1v-2.288z"/><path fill="#e4d25c" d="M19.902 10.308v2.289h2.1v2.019h4.2v-2.02h-2.23v-2.288z"/><path fill="#e38c3f" d="M23.97 10.308v2.289h2.232v-2.29z"/><path fill="#cc4628" d="M26.202 10.308v2.289h1.969v2.019h2.231v-2.02h-2.231v-2.288z"/><path fill="#bfb67e" d="M30.402 10.308v2.289h1.97v-2.29z"/><path fill="#515151" d="M9.4 12.597v8.615h2.101v6.328h2.1v4.307h1.969V27.54H13.6v-6.327h-2.1v-8.615z"/><path fill="#dc8638" d="M13.601 12.597v2.019h1.969v-2.02z"/><path fill="#e2cf5a" d="M15.57 12.597v2.019h2.23v2.154h2.1v-4.173z"/><path fill="#ea9346" d="M26.202 12.597v2.019h1.969v-2.02z"/><path fill="#e7e7e7" d="M11.501 14.616v2.154h2.1v2.154h4.2V16.77h-4.2v-2.154z"/><path fill="#c54021" d="M19.902 14.616v2.154h2.1v-2.154z"/><path fill="#a9a9a9" d="M30.402 14.616v2.154h1.97v-2.154z"/><path fill="#d8d8d8" d="M11.501 16.77v4.442h2.1v6.328h1.969v2.288h2.23v2.02H22v-8.616h-2.1v-2.02h-2.1v2.02h-2.23v-4.308H13.6V16.77z"/><path fill="#ead762" d="M26.202 16.77v2.154h1.969V16.77z"/><path fill="#cb4627" d="M28.17 16.77v2.154h2.232V16.77z"/><path fill="#727272" d="M30.402 16.77v4.442h-2.231v6.328h2.231v-6.328h1.97V16.77z"/><path fill="#fff" d="M15.57 18.924v4.308h2.23v-4.308z"/><path fill="#d85334" d="M17.801 18.924v2.288h2.1v-2.288z"/><path fill="#cacaca" d="M19.902 18.924v2.288h6.3v-2.288z"/><path fill="#e99245" d="M26.202 18.924v2.288h1.969v-2.288z"/><path fill="#969696" d="M28.17 18.924v2.288h2.232v-2.288z"/><path fill="#a8a8a8" d="M19.902 21.212v2.02h2.1v6.596h1.97v-6.596h2.23v-2.02z"/><path fill="#cb4627" d="M26.202 21.212v2.02h1.969v-2.02z"/><path fill="#fff" d="M17.801 23.232v4.308h2.1v-4.308z"/><path fill="#969696" d="M23.97 23.232v6.596h-1.968v2.02h6.169V27.54H26.2v-2.02h1.97v-2.288z"/><path fill="#cb4627" d="M26.202 25.52v2.02h1.969v-2.02z"/><path fill="#969696" d="M15.57 29.828v2.02h2.23v-2.02z"/></g><g filter="url(#d)"><path fill="#e8e8e8" d="M44.404 26.5h-1.98l4.45-12.363h2.154l4.45 12.364h-1.98l-3.496-10.118h-.096zm.332-4.84h6.424v1.569h-6.424zm17.153-4.432-3.363 9.273h-1.932l-3.368-9.273h1.938l2.348 7.136h.096l2.343-7.136zm4.129 9.478a3.8 3.8 0 0 1-1.594-.326 2.7 2.7 0 0 1-1.129-.96q-.41-.628-.41-1.54 0-.784.302-1.291.301-.507.814-.803a4.3 4.3 0 0 1 1.148-.447q.633-.15 1.291-.23l1.353-.156q.519-.066.754-.212.236-.144.236-.47v-.043q0-.79-.447-1.225-.44-.435-1.316-.435-.912 0-1.437.405-.519.398-.718.887l-1.696-.386q.301-.845.88-1.365.587-.525 1.347-.76a5.3 5.3 0 0 1 1.6-.242q.556 0 1.177.133.628.128 1.171.47.55.345.9.985.35.634.35 1.648v6.158H68.83v-1.268h-.072a2.6 2.6 0 0 1-.526.688 2.8 2.8 0 0 1-.9.562q-.548.222-1.315.223m.392-1.449q.75 0 1.28-.296.537-.295.815-.772.284-.483.284-1.033v-1.195q-.098.097-.374.181a6 6 0 0 1-.622.139l-.682.103-.556.072q-.525.066-.96.223a1.65 1.65 0 0 0-.688.453q-.254.289-.254.773 0 .67.496 1.014.495.338 1.261.338m6.588 1.244v-9.273h1.805v9.273zm.912-10.704q-.471 0-.81-.314a1.02 1.02 0 0 1-.331-.76q0-.447.332-.761.338-.32.809-.32.47 0 .803.32a1 1 0 0 1 .338.76q0 .441-.338.761-.333.315-.803.314m5.127-1.66v12.364H77.23V14.137zm5.126 12.569a3.8 3.8 0 0 1-1.593-.326 2.7 2.7 0 0 1-1.13-.96q-.41-.628-.41-1.54 0-.784.302-1.291t.815-.803a4.3 4.3 0 0 1 1.147-.447q.634-.15 1.292-.23l1.352-.156q.52-.066.755-.212.235-.144.235-.47v-.043q0-.79-.446-1.225-.441-.435-1.317-.435-.91 0-1.436.405-.52.398-.719.887l-1.696-.386q.302-.845.881-1.365.586-.525 1.347-.76a5.3 5.3 0 0 1 1.6-.242q.555 0 1.177.133.627.128 1.17.47.55.345.9.985.35.634.35 1.648v6.158h-1.762v-1.268h-.073a2.6 2.6 0 0 1-.525.688 2.8 2.8 0 0 1-.9.562q-.55.222-1.316.223m.393-1.449q.748 0 1.28-.296.537-.295.815-.772.283-.483.283-1.033v-1.195q-.096.097-.374.181a6 6 0 0 1-.622.139l-.682.103-.555.072q-.525.066-.96.223a1.65 1.65 0 0 0-.688.453q-.255.289-.254.773 0 .67.495 1.014.494.338 1.262.338m6.733 1.244V14.137h1.805v4.594h.108q.157-.29.453-.67.295-.38.821-.664.525-.29 1.389-.29 1.122 0 2.004.568.88.567 1.382 1.636.507 1.069.507 2.571 0 1.504-.5 2.578-.502 1.07-1.377 1.648-.876.574-1.998.574-.846 0-1.383-.284a2.6 2.6 0 0 1-.833-.664 5 5 0 0 1-.465-.676h-.15V26.5zm1.768-4.637q0 .978.284 1.715.284.736.821 1.153.537.41 1.316.41.81 0 1.352-.428.544-.435.821-1.177.284-.743.284-1.673 0-.916-.278-1.648-.27-.73-.82-1.153-.544-.422-1.359-.422-.785 0-1.328.404-.537.405-.815 1.129t-.278 1.69m10.533-7.727v12.364h-1.805V14.137zm6.425 12.55q-1.37 0-2.36-.585a3.97 3.97 0 0 1-1.522-1.66q-.531-1.074-.531-2.517 0-1.425.531-2.512a4.13 4.13 0 0 1 1.497-1.696q.966-.61 2.258-.61a4.6 4.6 0 0 1 1.522.26 3.7 3.7 0 0 1 1.322.815q.585.555.923 1.443.339.881.338 2.143v.64h-7.371v-1.353h5.603q0-.712-.29-1.261a2.2 2.2 0 0 0-.815-.876q-.52-.32-1.22-.32-.76 0-1.328.375a2.5 2.5 0 0 0-.869.966 2.8 2.8 0 0 0-.302 1.285v1.057q0 .93.326 1.582.332.651.924.996.591.338 1.382.338.513 0 .936-.145.423-.15.73-.447.309-.295.471-.73l1.709.308a3.1 3.1 0 0 1-.737 1.322 3.6 3.6 0 0 1-1.322.875q-.79.308-1.805.308m14.893-9.459v1.449h-5.24v-1.449zm-3.803 9.273V16.153q0-.87.38-1.442.381-.58 1.008-.864a3.2 3.2 0 0 1 1.365-.29q.543 0 .929.091.387.084.574.157l-.423 1.461a8 8 0 0 0-.326-.085 2 2 0 0 0-.483-.054q-.657 0-.941.326-.278.326-.278.942V26.5zm9.206.187q-1.304 0-2.276-.598a4.03 4.03 0 0 1-1.509-1.672q-.537-1.074-.537-2.511 0-1.443.537-2.524a4 4 0 0 1 1.509-1.678q.972-.597 2.276-.598 1.304 0 2.276.598a4 4 0 0 1 1.509 1.678q.538 1.08.538 2.524 0 1.436-.538 2.511a4.03 4.03 0 0 1-1.509 1.672q-.971.598-2.276.598m.006-1.515q.846 0 1.401-.447t.821-1.19q.271-.742.271-1.635 0-.888-.271-1.63-.266-.75-.821-1.202-.555-.453-1.401-.453-.85 0-1.412.453-.556.453-.827 1.202a4.8 4.8 0 0 0-.266 1.63q0 .892.266 1.636.271.742.827 1.189.561.447 1.412.447m6.331 1.328v-9.273h1.745v1.473h.097q.254-.75.893-1.177.647-.435 1.461-.435a8 8 0 0 1 .767.042v1.727a3 3 0 0 0-.387-.067 4 4 0 0 0-.555-.042q-.64 0-1.141.272a2.02 2.02 0 0 0-1.075 1.817v5.663z"/><path fill="url(#e)" d="M146.937 26.5V14.138h5.156q1.388 0 2.324.393.942.391 1.413 1.098.477.706.477 1.636 0 .707-.296 1.262-.297.549-.815.912-.52.361-1.202.507v.12q.749.037 1.383.405.64.367 1.026 1.026.387.652.386 1.546a3.2 3.2 0 0 1-.507 1.78q-.507.78-1.467 1.232-.96.447-2.33.447zm2.988-2.408h1.848q.972 0 1.431-.368.464-.369.464-1.027 0-.476-.223-.82a1.44 1.44 0 0 0-.634-.538q-.411-.193-.984-.193h-1.902zm0-4.872h1.655q.489 0 .869-.163a1.34 1.34 0 0 0 .592-.47 1.26 1.26 0 0 0 .217-.743q0-.622-.441-.978-.44-.357-1.189-.356h-1.703zm14.284 3.278v-5.27h2.946v9.273h-2.813v-1.727h-.097a2.7 2.7 0 0 1-1.05 1.352q-.737.495-1.781.495-.948 0-1.666-.434a2.96 2.96 0 0 1-1.117-1.214q-.399-.785-.405-1.835v-5.91h2.952v5.33q.006.756.399 1.19.392.434 1.068.434.441 0 .791-.193.357-.2.562-.573.21-.381.211-.918m7.487 1.57.012-3.52h.411l2.608-3.32h3.344l-3.876 4.757h-.778zm-2.662 2.433V14.137h2.952v12.364zm5.759 0-2.427-3.852 1.944-2.095 3.894 5.947zm6.997-2.433.012-3.52h.41l2.608-3.32h3.345l-3.876 4.757h-.779zm-2.662 2.433V14.137h2.952v12.364zm5.759 0-2.427-3.852 1.944-2.095 3.894 5.947zm4.334 0v-9.273h2.952v9.273zm1.479-10.354q-.621 0-1.068-.41a1.32 1.32 0 0 1-.447-1.002q0-.58.447-.99a1.5 1.5 0 0 1 1.068-.417 1.5 1.5 0 0 1 1.069.417q.447.41.447.99 0 .585-.447 1.002-.44.41-1.069.41m8.586 1.081v2.173h-5.849v-2.173zm-4.624-2.222h2.952v8.579q0 .272.085.44.09.165.259.236.17.066.405.066.168 0 .356-.03.193-.036.29-.06l.446 2.13q-.21.061-.597.152-.381.09-.912.115-1.038.048-1.781-.242a2.3 2.3 0 0 1-1.129-.918q-.386-.621-.374-1.563z"/></g></g><rect width="205.858" height="37.858" x="1.071" y="1.071" stroke="#fff" stroke-opacity=".15" stroke-width="2.143" rx="6.929"/><defs><linearGradient id="b" x1="104.001" x2="104.001" y1="0" y2="40.001" gradientUnits="userSpaceOnUse"><stop stop-color="#342c18"/><stop offset="1" stop-color="#251a11"/></linearGradient><linearGradient id="e" x1="173.001" x2="173.001" y1="9.501" y2="30.501" gradientUnits="userSpaceOnUse"><stop stop-color="#fff"/><stop offset="1" stop-color="#b9b9b9"/></linearGradient><filter id="c" width="39.202" height="39.202" x="2.4" y=".4" color-interpolation-filters="sRGB" filterUnits="userSpaceOnUse"><feFlood flood-opacity="0" result="BackgroundImageFix"/><feColorMatrix in="SourceAlpha" result="hardAlpha" values="0 0 0 0 0 0 0 0 0 0 0 0 0 0 0 0 0 0 127 0"/><feOffset/><feGaussianBlur stdDeviation="2.8"/><feComposite in2="hardAlpha" operator="out"/><feColorMatrix values="0 0 0 0 0 0 0 0 0 0 0 0 0 0 0 0 0 0 0.25 0"/><feBlend in2="BackgroundImageFix" result="effect1_dropShadow_28_2968"/><feBlend in="SourceGraphic" in2="effect1_dropShadow_28_2968" result="shape"/></filter><filter id="d" width="169.429" height="32.429" x="36.287" y="3.786" color-interpolation-filters="sRGB" filterUnits="userSpaceOnUse"><feFlood flood-opacity="0" result="BackgroundImageFix"/><feColorMatrix in="SourceAlpha" result="hardAlpha" values="0 0 0 0 0 0 0 0 0 0 0 0 0 0 0 0 0 0 127 0"/><feOffset/><feGaussianBlur stdDeviation="2.857"/><feComposite in2="hardAlpha" operator="out"/><feColorMatrix values="0 0 0 0 0 0 0 0 0 0 0 0 0 0 0 0 0 0 0.25 0"/><feBlend in2="BackgroundImageFix" result="effect1_dropShadow_28_2968"/><feBlend in="SourceGraphic" in2="effect1_dropShadow_28_2968" result="shape"/></filter><clipPath id="a"><rect width="208.001" height="40.001" fill="#fff" rx="8"/></clipPath></defs></svg>