<svg xmlns="http://www.w3.org/2000/svg" width="260" height="40" fill="none" viewBox="0 0 260 40"><rect width="260.001" height="40.001" fill="url(#a)" rx="8"/><rect width="257.858" height="37.858" x="1.071" y="1.071" stroke="#fff" stroke-opacity=".15" stroke-width="2.143" rx="6.929"/><g filter="url(#b)"><path fill="#fcfcfc" fill-rule="evenodd" d="M28.796 18.055c.159.248.317.495.5.726q.056-.136.125-.276c.111-.238.227-.483.27-.731.033-.183-.006-.362-.046-.541-.032-.144-.064-.288-.059-.435.016-.436.2-.89.369-1.303l.071-.176c.085-.211.21-.424.409-.547a1 1 0 0 1 .189-.084c.096-.036.193-.072.264-.144.214-.218.37-.814.394-1.113.045-.522-.158-1.089-.351-1.63a8 8 0 0 1-.246-.761c-.348-1.393.128-3.053 1.457-3.75.989-.52 2.368-.335 3.12.51.53.593.739 1.328.739 2.107 0 .525-.03 1.43-.484 1.795-.284.228-.857.21-1.046-.128-.17-.304-.084-.631.001-.962.067-.257.134-.517.082-.768-.11-.524-.646-1.204-1.242-1.123-.473.064-.842.518-1.004.934-.178.456-.024.935.122 1.389l.078.247.005.019c.247.833.481 1.622.38 2.499-.024.216-.102.424-.18.632-.08.218-.161.435-.18.658-.01.124.038.248.086.372.041.106.083.212.09.32.036.609-.178 1.218-.44 1.762-.117.247-.302.4-.49.555-.14.116-.28.232-.395.39-.216.293-.351.656-.483 1.013-.068.181-.134.36-.21.528a6 6 0 0 1-.177.339c-.12.217-.242.438-.294.668-.04.178.02.4.076.604.024.087.047.17.06.246.101.554.19 1.136.203 1.7.06 2.52-.56 5.095-2.287 7.016a8 8 0 0 1-1.855 1.53c-2.563 1.527-5.77.862-8.098-.767-.806-.564-1.466-1.247-2.134-1.938q-.34-.354-.692-.705c-.206-.204-.433-.27-.666-.338a2 2 0 0 1-.462-.174c-.415-.23-.88-.84-1.096-1.258-.097-.187-.089-.38-.081-.568.006-.16.013-.32-.046-.47-.067-.17-.195-.322-.323-.474-.095-.113-.19-.225-.26-.344-.295-.513-.394-1.087-.435-1.668a8 8 0 0 1 0-.75c.024-.843.051-1.745-.732-2.22-.897-.544-1.987.502-1.854 1.428.039.27.167.483.294.694.153.254.303.504.294.848-.01.368-.265.59-.632.591-.486.002-.789-.335-1.031-.717-.487-.767-.57-1.777-.344-2.643.528-2.029 3.198-2.795 4.728-1.35.865.817.904 1.885.944 2.986q0 .048.003.094.006.152.008.296c.016.665.028 1.198.504 1.78.157.192.36.218.572.245.135.018.272.035.404.096.298.135.531.43.741.696l.128.16c.147.178.299.37.354.598.028.117.038.235.049.35.02.216.039.427.17.625.432.653 1.067 1.238 1.658 1.745.892.766 1.835 1.45 2.942 1.873 2.828 1.08 5.631-.76 6.8-3.335.649-1.43.706-2.808.697-4.342a5 5 0 0 0-.562.6c-.145.173-.29.346-.45.5-.775.742-1.634 1.343-2.626 1.76a7 7 0 0 1-2.847.538 5.9 5.9 0 0 1-2.15-.468c-4.047-1.748-4.85-7.773-1.266-10.449a5.9 5.9 0 0 1 1.74-.904 6.3 6.3 0 0 1 2.404-.289 7.2 7.2 0 0 1 2.973.908 7.8 7.8 0 0 1 2.263 1.951c.181.23.339.476.496.722m-8.39-1.172a4.3 4.3 0 0 1 1.804-.606c2.09-.235 4.047 1.21 5.155 2.85.245.361.45.741.64 1.133l.043.084c.077.149.166.324.157.482-.01.147-.113.29-.201.413l-.043.059c-.217.31-.439.624-.686.913-1.042 1.216-2.495 2.358-4.148 2.545-.604.068-1.22.039-1.803-.148a4.1 4.1 0 0 1-1.392-.768c-2.233-1.895-2.035-5.39.475-6.957" clip-rule="evenodd"/></g><g filter="url(#c)"><path fill="#e8e8e8" d="M44.404 26.5h-1.98l4.45-12.363h2.154l4.45 12.364h-1.98l-3.496-10.118h-.096zm.332-4.841h6.424v1.57h-6.424zm17.153-4.431L58.526 26.5h-1.932l-3.368-9.273h1.938l2.348 7.136h.096l2.343-7.136zm4.129 9.478a3.8 3.8 0 0 1-1.594-.326 2.7 2.7 0 0 1-1.129-.96q-.41-.628-.41-1.54 0-.784.302-1.291.301-.507.814-.803a4.3 4.3 0 0 1 1.148-.447q.633-.15 1.291-.23l1.353-.156q.519-.066.754-.212.236-.144.236-.47v-.043q0-.79-.447-1.225-.44-.435-1.316-.435-.912 0-1.437.405-.519.398-.718.887l-1.696-.386q.301-.845.88-1.365.587-.525 1.347-.76a5.3 5.3 0 0 1 1.6-.242q.556 0 1.177.133.628.128 1.171.47.55.345.9.985.35.634.35 1.648v6.158H68.83v-1.268h-.072a2.6 2.6 0 0 1-.526.688 2.8 2.8 0 0 1-.9.562q-.548.222-1.315.223m.392-1.449q.75 0 1.28-.296a2.07 2.07 0 0 0 .815-.772q.284-.484.284-1.033v-1.195q-.098.097-.374.181a6 6 0 0 1-.622.139l-.682.103-.556.072q-.525.067-.96.223a1.65 1.65 0 0 0-.688.453q-.254.289-.254.773 0 .67.496 1.014.495.338 1.261.338m6.588 1.244v-9.273h1.805V26.5zm.912-10.704q-.471 0-.81-.314a1.02 1.02 0 0 1-.331-.76q0-.447.332-.761.338-.32.809-.32.47 0 .803.32a1 1 0 0 1 .338.76q0 .441-.338.761-.333.315-.803.314m5.127-1.66v12.364H77.23V14.137zm5.126 12.569a3.8 3.8 0 0 1-1.593-.326 2.7 2.7 0 0 1-1.13-.96q-.41-.628-.41-1.54 0-.784.302-1.291t.815-.803a4.3 4.3 0 0 1 1.147-.447q.634-.15 1.292-.23l1.352-.156q.52-.066.755-.212.235-.144.235-.47v-.043q0-.79-.446-1.225-.441-.435-1.317-.435-.91 0-1.436.405-.52.398-.719.887l-1.696-.386q.302-.845.881-1.365.586-.525 1.347-.76a5.3 5.3 0 0 1 1.6-.242q.555 0 1.177.133.627.128 1.17.47.55.345.9.985.35.634.35 1.648v6.158h-1.762v-1.268h-.073a2.6 2.6 0 0 1-.525.688 2.8 2.8 0 0 1-.9.562q-.55.222-1.316.223m.393-1.449q.748 0 1.28-.296a2.07 2.07 0 0 0 .815-.772q.283-.484.283-1.033v-1.195q-.096.097-.374.181a6 6 0 0 1-.622.139l-.682.103-.555.072q-.525.067-.96.223a1.65 1.65 0 0 0-.688.453q-.255.289-.254.773 0 .67.495 1.014.494.338 1.262.338m6.733 1.244V14.137h1.805v4.594h.108q.157-.29.453-.67.295-.38.821-.664.525-.29 1.389-.29 1.122 0 2.004.568.88.567 1.382 1.636.507 1.069.507 2.571t-.5 2.578q-.502 1.069-1.377 1.648-.876.574-1.998.574-.846 0-1.383-.284a2.6 2.6 0 0 1-.833-.664 5 5 0 0 1-.465-.676h-.15V26.5zm1.768-4.637q0 .978.284 1.715.284.736.821 1.153.537.41 1.316.41.81 0 1.352-.428.544-.435.821-1.177.284-.743.284-1.673 0-.916-.278-1.648-.27-.73-.82-1.153-.544-.422-1.359-.422-.785 0-1.328.404-.537.405-.815 1.129t-.278 1.69m10.533-7.727v12.364h-1.805V14.137zm6.425 12.55q-1.37 0-2.36-.585a3.97 3.97 0 0 1-1.522-1.66q-.531-1.074-.531-2.517 0-1.425.531-2.512a4.13 4.13 0 0 1 1.497-1.696q.966-.61 2.258-.61.785 0 1.522.26.736.259 1.322.815.585.555.923 1.443.339.881.338 2.143v.64h-7.371v-1.353h5.603q0-.712-.29-1.261a2.2 2.2 0 0 0-.815-.876q-.52-.32-1.22-.32-.76 0-1.328.375a2.5 2.5 0 0 0-.869.966 2.8 2.8 0 0 0-.302 1.285v1.057q0 .93.326 1.582.332.651.924.996.591.338 1.382.338.513 0 .936-.145.423-.15.73-.447.309-.295.471-.73l1.709.308a3.1 3.1 0 0 1-.737 1.322 3.6 3.6 0 0 1-1.322.875q-.79.308-1.805.308m14.893-9.46v1.45h-5.24v-1.45zm-3.803 9.274V16.153q0-.87.38-1.442.381-.58 1.008-.864a3.2 3.2 0 0 1 1.365-.29q.543 0 .929.091.387.084.574.157l-.423 1.46a8 8 0 0 0-.326-.084 2 2 0 0 0-.483-.054q-.657 0-.941.326-.278.326-.278.942V26.5zm9.206.187q-1.304 0-2.276-.598a4.03 4.03 0 0 1-1.509-1.672q-.537-1.075-.537-2.511 0-1.443.537-2.524a4 4 0 0 1 1.509-1.678q.972-.598 2.276-.598t2.276.598a4 4 0 0 1 1.509 1.678q.538 1.08.538 2.524 0 1.436-.538 2.51a4.03 4.03 0 0 1-1.509 1.673q-.971.598-2.276.598m.006-1.515q.846 0 1.401-.447t.821-1.19q.271-.742.271-1.636 0-.886-.271-1.63-.266-.748-.821-1.2-.555-.454-1.401-.454-.85 0-1.412.453-.556.453-.827 1.202a4.8 4.8 0 0 0-.266 1.63q0 .892.266 1.636.271.742.827 1.189.561.447 1.412.447m6.331 1.328v-9.273h1.745V18.7h.097q.254-.75.893-1.177.647-.435 1.461-.435a8 8 0 0 1 .767.042v1.727a3 3 0 0 0-.387-.067 4 4 0 0 0-.555-.042q-.64 0-1.141.272a2.02 2.02 0 0 0-1.075 1.817V26.5z"/><path fill="#fff" d="M146.937 26.5V14.138h5.156q1.388 0 2.324.392.942.393 1.413 1.1.477.705.477 1.635 0 .707-.296 1.262-.297.549-.815.912-.52.36-1.202.507v.12q.749.037 1.383.405.64.367 1.026 1.026.387.652.386 1.546a3.2 3.2 0 0 1-.507 1.78q-.507.78-1.467 1.232-.96.447-2.33.447zm2.988-2.408h1.848q.972 0 1.431-.368.464-.369.464-1.027 0-.476-.223-.82a1.44 1.44 0 0 0-.634-.538q-.411-.193-.984-.193h-1.902zm0-4.872h1.655q.489 0 .869-.163.38-.162.592-.47a1.26 1.26 0 0 0 .217-.743q0-.622-.441-.978-.44-.357-1.189-.357h-1.703zm14.284 3.278v-5.27h2.946V26.5h-2.813v-1.727h-.097a2.7 2.7 0 0 1-1.05 1.352q-.737.495-1.781.495-.948 0-1.666-.434a2.96 2.96 0 0 1-1.117-1.214q-.399-.785-.405-1.835v-5.91h2.952v5.33q.006.756.399 1.19.392.434 1.068.434.441 0 .791-.193.357-.2.562-.573.21-.381.211-.918m7.777-1.286V26.5h-2.952v-9.273h2.807v1.702h.103a2.6 2.6 0 0 1 1.05-1.334q.743-.489 1.769-.489.978 0 1.696.44.725.435 1.123 1.22.405.78.399 1.823v5.91h-2.952v-5.33q.006-.773-.393-1.207-.392-.435-1.093-.435-.464 0-.821.205a1.36 1.36 0 0 0-.543.574q-.187.375-.193.905m12.145 8.96q-1.322 0-2.264-.37-.942-.367-1.479-1.007a2.8 2.8 0 0 1-.646-1.45l2.795-.156q.078.284.29.495.218.211.561.326.35.114.821.115.743 0 1.226-.363.489-.356.489-1.25v-1.63h-.103a2.2 2.2 0 0 1-.531.767 2.5 2.5 0 0 1-.888.532q-.525.193-1.207.193a3.75 3.75 0 0 1-1.859-.471q-.84-.477-1.347-1.473-.501-1.002-.501-2.578 0-1.623.519-2.674.52-1.056 1.359-1.564a3.47 3.47 0 0 1 1.817-.507q.73 0 1.25.254.524.247.863.64.337.392.513.815h.084v-1.588h2.94v9.309q0 1.177-.591 1.986-.592.81-1.654 1.226-1.063.422-2.457.422m.09-5.947q.537 0 .918-.284.38-.284.585-.815.206-.531.206-1.274 0-.755-.206-1.298-.199-.55-.585-.845a1.45 1.45 0 0 0-.918-.296q-.55 0-.929.302-.38.302-.58.851-.193.544-.193 1.286 0 .743.199 1.274.2.531.574.815.38.285.929.284m10.829 2.45q-1.455 0-2.511-.573a3.96 3.96 0 0 1-1.618-1.648q-.562-1.074-.562-2.553 0-1.437.568-2.512a4.1 4.1 0 0 1 1.6-1.678q1.032-.604 2.432-.604.99 0 1.812.308.82.308 1.418.912.599.604.93 1.49.332.882.332 2.023v.737h-8.059V20.86h5.312a1.66 1.66 0 0 0-.223-.839 1.5 1.5 0 0 0-.598-.573 1.7 1.7 0 0 0-.863-.212q-.495 0-.888.224a1.68 1.68 0 0 0-.863 1.449v1.744q0 .567.223.996.224.423.634.658t.978.236q.392 0 .713-.109t.549-.32q.23-.21.344-.52l2.711.08a3.35 3.35 0 0 1-.743 1.587q-.567.67-1.491 1.044-.924.369-2.137.369m10.243 0q-1.455 0-2.511-.573a3.97 3.97 0 0 1-1.618-1.648q-.561-1.074-.562-2.553 0-1.437.568-2.512.567-1.08 1.6-1.678 1.032-.604 2.433-.604.99 0 1.811.308.82.308 1.418.912.599.604.93 1.49.332.882.332 2.023v.737h-8.059v-1.715h5.312a1.66 1.66 0 0 0-.223-.839 1.5 1.5 0 0 0-.598-.573 1.7 1.7 0 0 0-.863-.212q-.495 0-.887.224a1.68 1.68 0 0 0-.864 1.449v1.744q0 .567.224.996.223.423.634.658.41.236.978.236.392 0 .712-.109t.549-.32.344-.52l2.711.08a3.35 3.35 0 0 1-.743 1.587q-.567.67-1.491 1.044-.924.369-2.137.369m17.131-8.059h-3.018q-.06-.465-.248-.839a2 2 0 0 0-.495-.64 2.1 2.1 0 0 0-.73-.404 2.8 2.8 0 0 0-.924-.145q-.899 0-1.551.44-.647.443-.996 1.274-.344.834-.344 2.017 0 1.231.35 2.065.355.825.996 1.25.647.416 1.527.416.495 0 .9-.127.41-.127.718-.368.314-.248.513-.598a2.4 2.4 0 0 0 .284-.803l3.018.018a4.6 4.6 0 0 1-.476 1.618 5.2 5.2 0 0 1-1.081 1.455 5.1 5.1 0 0 1-1.678 1.038q-.984.387-2.258.387-1.678 0-3.007-.737-1.321-.742-2.088-2.161t-.767-3.453q0-2.04.779-3.46.778-1.418 2.107-2.155 1.327-.736 2.976-.736 1.122 0 2.077.314a5 5 0 0 1 1.678.906q.724.591 1.177 1.454.453.864.561 1.974m6.039 8.06q-1.461 0-2.511-.598a4.1 4.1 0 0 1-1.612-1.678q-.562-1.08-.562-2.505 0-1.431.562-2.506.567-1.08 1.612-1.678 1.05-.604 2.511-.604t2.505.604a4 4 0 0 1 1.612 1.678q.567 1.075.568 2.506 0 1.424-.568 2.505a4.07 4.07 0 0 1-1.612 1.678q-1.044.598-2.505.598m.018-2.228q.531 0 .9-.326.368-.327.561-.905.2-.58.199-1.34 0-.773-.199-1.353-.193-.58-.561-.905a1.3 1.3 0 0 0-.9-.326q-.549 0-.93.326-.373.326-.573.905-.193.58-.193 1.352 0 .762.193 1.34.2.58.573.906.381.326.93.326m6.179 2.053v-9.273h2.867v1.69h.097q.254-.917.827-1.364a2.1 2.1 0 0 1 1.334-.453q.206 0 .423.03.217.024.404.079v2.566a3 3 0 0 0-.555-.115 5 5 0 0 0-.604-.042q-.525 0-.948.235a1.7 1.7 0 0 0-.658.646 1.9 1.9 0 0 0-.235.966V26.5zm10.06.133a3.4 3.4 0 0 1-1.865-.532q-.839-.531-1.34-1.593-.501-1.063-.501-2.639 0-1.636.519-2.692.52-1.056 1.358-1.564a3.47 3.47 0 0 1 1.817-.507q.73 0 1.25.254.52.247.857.64.339.392.513.815h.061v-4.679h2.952v12.364h-2.922v-1.504h-.091a2.9 2.9 0 0 1-.531.803q-.344.375-.863.604-.513.23-1.214.23m1.027-2.3q.537 0 .917-.302.38-.309.586-.864t.205-1.304q0-.76-.205-1.31-.2-.55-.586-.845a1.45 1.45 0 0 0-.917-.296q-.55 0-.93.302t-.58.851q-.192.55-.193 1.298 0 .75.199 1.304.2.555.574.864.38.3.93.301"/></g><defs><filter id="b" width="39.203" height="39.202" x="2.399" y=".4" color-interpolation-filters="sRGB" filterUnits="userSpaceOnUse"><feFlood flood-opacity="0" result="BackgroundImageFix"/><feColorMatrix in="SourceAlpha" result="hardAlpha" values="0 0 0 0 0 0 0 0 0 0 0 0 0 0 0 0 0 0 127 0"/><feOffset/><feGaussianBlur stdDeviation="2.8"/><feComposite in2="hardAlpha" operator="out"/><feColorMatrix values="0 0 0 0 0 0 0 0 0 0 0 0 0 0 0 0 0 0 0.25 0"/><feBlend in2="BackgroundImageFix" result="effect1_dropShadow_31_14"/><feBlend in="SourceGraphic" in2="effect1_dropShadow_31_14" result="shape"/></filter><filter id="c" width="221.429" height="32.429" x="36.287" y="3.786" color-interpolation-filters="sRGB" filterUnits="userSpaceOnUse"><feFlood flood-opacity="0" result="BackgroundImageFix"/><feColorMatrix in="SourceAlpha" result="hardAlpha" values="0 0 0 0 0 0 0 0 0 0 0 0 0 0 0 0 0 0 127 0"/><feOffset/><feGaussianBlur stdDeviation="2.857"/><feComposite in2="hardAlpha" operator="out"/><feColorMatrix values="0 0 0 0 0 0 0 0 0 0 0 0 0 0 0 0 0 0 0.25 0"/><feBlend in2="BackgroundImageFix" result="effect1_dropShadow_31_14"/><feBlend in="SourceGraphic" in2="effect1_dropShadow_31_14" result="shape"/></filter><linearGradient id="a" x1="130.001" x2="130.001" y1="0" y2="40.001" gradientUnits="userSpaceOnUse"><stop stop-color="#322e20"/><stop offset="1" stop-color="#201c15"/></linearGradient></defs></svg>