<svg xmlns="http://www.w3.org/2000/svg" width="202" height="40" fill="none" viewBox="0 0 202 40"><rect width="202.001" height="40.001" fill="url(#a)" rx="8"/><rect width="199.858" height="37.858" x="1.071" y="1.071" stroke="#fff" stroke-opacity=".15" stroke-width="2.143" rx="6.929"/><g filter="url(#b)"><path fill="#dfa86a" d="M33.329 14.766 21.3 14.167H36V13H19.39v4.415c0 .032-.477-2.87-.604-3.69h-1.305v4.1c0 .031-.572-3.437-.604-3.879H8c.605.505 3.946 3.343 6.332 4.51 1.177.567 2.641.599 3.946.63.668.032 1.336.063 1.845.568.732.694.891 1.797.255 2.617-.605.82-2.323 1.01-2.323 1.01l-1.464 1.702V27h3.278l.095-1.986 2.832-1.987c-.286.252-.986.883-1.973 2.428a5 5 0 0 0-.54 1.104c.7-.6 2.163-1.01 3.881-1.01 1.687 0 3.15.41 3.85 1.01a5 5 0 0 0-.54-1.104c-1.018-1.545-1.687-2.176-1.973-2.428l2.832 1.987.095 1.986h3.055v-2.018l-1.432-1.734s-2.132-.127-2.673-1.01c-1.654-2.459.605-6.306 5.95-7.473"/></g><g filter="url(#c)"><path fill="#e8e8e8" d="M44.404 26.5h-1.98l4.45-12.363h2.154l4.45 12.364h-1.98l-3.496-10.118h-.096zm.332-4.84h6.424v1.569h-6.424zm17.153-4.432-3.363 9.273h-1.932l-3.368-9.273h1.938l2.348 7.136h.096l2.343-7.136zm4.129 9.478a3.8 3.8 0 0 1-1.594-.326 2.7 2.7 0 0 1-1.129-.96q-.41-.628-.41-1.54 0-.784.302-1.291.301-.507.814-.803a4.3 4.3 0 0 1 1.148-.447q.633-.15 1.291-.23l1.353-.156q.519-.066.754-.212.236-.144.236-.47v-.043q0-.79-.447-1.225-.44-.435-1.316-.435-.912 0-1.437.405-.519.398-.718.887l-1.696-.386q.301-.845.88-1.365.587-.525 1.347-.76a5.3 5.3 0 0 1 1.6-.242q.556 0 1.177.133.628.128 1.171.47.55.345.9.985.35.634.35 1.648v6.158H68.83v-1.268h-.072a2.6 2.6 0 0 1-.526.688 2.8 2.8 0 0 1-.9.562q-.548.222-1.315.223m.392-1.449q.75 0 1.28-.296.537-.295.815-.772.284-.483.284-1.033v-1.195q-.098.097-.374.181a6 6 0 0 1-.622.139l-.682.103-.556.072q-.525.066-.96.223a1.65 1.65 0 0 0-.688.453q-.254.289-.254.773 0 .67.496 1.014.495.338 1.261.338m6.588 1.244v-9.273h1.805v9.273zm.912-10.704q-.471 0-.81-.314a1.02 1.02 0 0 1-.331-.76q0-.447.332-.761.338-.32.809-.32.47 0 .803.32a1 1 0 0 1 .338.76q0 .441-.338.761-.333.315-.803.314m5.127-1.66v12.364H77.23V14.137zm5.126 12.569a3.8 3.8 0 0 1-1.593-.326 2.7 2.7 0 0 1-1.13-.96q-.41-.628-.41-1.54 0-.784.302-1.291t.815-.803a4.3 4.3 0 0 1 1.147-.447q.634-.15 1.292-.23l1.352-.156q.52-.066.755-.212.235-.144.235-.47v-.043q0-.79-.446-1.225-.441-.435-1.317-.435-.91 0-1.436.405-.52.398-.719.887l-1.696-.386q.302-.845.881-1.365.586-.525 1.347-.76a5.3 5.3 0 0 1 1.6-.242q.555 0 1.177.133.627.128 1.17.47.55.345.9.985.35.634.35 1.648v6.158h-1.762v-1.268h-.073a2.6 2.6 0 0 1-.525.688 2.8 2.8 0 0 1-.9.562q-.55.222-1.316.223m.393-1.449q.748 0 1.28-.296.537-.295.815-.772.283-.483.283-1.033v-1.195q-.096.097-.374.181a6 6 0 0 1-.622.139l-.682.103-.555.072q-.525.066-.96.223a1.65 1.65 0 0 0-.688.453q-.255.289-.254.773 0 .67.495 1.014.494.338 1.262.338m6.733 1.244V14.137h1.805v4.594h.108q.157-.29.453-.67.295-.38.821-.664.525-.29 1.389-.29 1.122 0 2.004.568.88.567 1.382 1.636.507 1.069.507 2.571 0 1.504-.5 2.578-.502 1.07-1.377 1.648-.876.574-1.998.574-.846 0-1.383-.284a2.6 2.6 0 0 1-.833-.664 5 5 0 0 1-.465-.676h-.15V26.5zm1.768-4.637q0 .978.284 1.715.284.736.821 1.153.537.41 1.316.41.81 0 1.352-.428.544-.435.821-1.177.284-.743.284-1.673 0-.916-.278-1.648-.27-.73-.82-1.153-.544-.422-1.359-.422-.785 0-1.328.404-.537.405-.815 1.129t-.278 1.69m10.533-7.727v12.364h-1.805V14.137zm6.425 12.55q-1.37 0-2.36-.585a3.97 3.97 0 0 1-1.522-1.66q-.531-1.074-.531-2.517 0-1.425.531-2.512a4.13 4.13 0 0 1 1.497-1.696q.966-.61 2.258-.61a4.6 4.6 0 0 1 1.522.26 3.7 3.7 0 0 1 1.322.815q.585.555.923 1.443.339.881.338 2.143v.64h-7.371v-1.353h5.603q0-.712-.29-1.261a2.2 2.2 0 0 0-.815-.876q-.52-.32-1.22-.32-.76 0-1.328.375a2.5 2.5 0 0 0-.869.966 2.8 2.8 0 0 0-.302 1.285v1.057q0 .93.326 1.582.332.651.924.996.591.338 1.382.338.513 0 .936-.145.423-.15.73-.447.309-.295.471-.73l1.709.308a3.1 3.1 0 0 1-.737 1.322 3.6 3.6 0 0 1-1.322.875q-.79.308-1.805.308m14.893-9.459v1.449h-5.24v-1.449zm-3.803 9.273V16.153q0-.87.38-1.442.381-.58 1.008-.864a3.2 3.2 0 0 1 1.365-.29q.543 0 .929.091.387.084.574.157l-.423 1.461a8 8 0 0 0-.326-.085 2 2 0 0 0-.483-.054q-.657 0-.941.326-.278.326-.278.942V26.5zm9.206.187q-1.304 0-2.276-.598a4.03 4.03 0 0 1-1.509-1.672q-.537-1.074-.537-2.511 0-1.443.537-2.524a4 4 0 0 1 1.509-1.678q.972-.597 2.276-.598 1.304 0 2.276.598a4 4 0 0 1 1.509 1.678q.538 1.08.538 2.524 0 1.436-.538 2.511a4.03 4.03 0 0 1-1.509 1.672q-.971.598-2.276.598m.006-1.515q.846 0 1.401-.447t.821-1.19q.271-.742.271-1.635 0-.888-.271-1.63-.266-.75-.821-1.202-.555-.453-1.401-.453-.85 0-1.412.453-.556.453-.827 1.202a4.8 4.8 0 0 0-.266 1.63q0 .892.266 1.636.271.742.827 1.189.561.447 1.412.447m6.331 1.328v-9.273h1.745v1.473h.097q.254-.75.893-1.177.647-.435 1.461-.435a8 8 0 0 1 .767.042v1.727a3 3 0 0 0-.387-.067 4 4 0 0 0-.555-.042q-.64 0-1.141.272a2.02 2.02 0 0 0-1.075 1.817v5.663z"/><path fill="#dfa86a" d="M146.937 26.5V14.138h8.44v2.427h-5.452V19.1h4.915v2.433h-4.915v4.969zm13.592.176q-1.461 0-2.511-.598a4.1 4.1 0 0 1-1.612-1.678q-.561-1.08-.561-2.505 0-1.431.561-2.506.567-1.08 1.612-1.678 1.05-.603 2.511-.604 1.46 0 2.506.604 1.05.598 1.612 1.678.567 1.075.567 2.506 0 1.424-.567 2.505a4.1 4.1 0 0 1-1.612 1.678q-1.045.598-2.506.598m.018-2.228q.532 0 .9-.326t.561-.905q.2-.58.2-1.34 0-.773-.2-1.353-.193-.58-.561-.905a1.3 1.3 0 0 0-.9-.326q-.55 0-.929.326-.375.326-.574.905-.193.58-.193 1.352 0 .762.193 1.34.2.58.574.906.38.326.929.326m6.179 2.053v-9.273h2.868v1.69h.096q.254-.917.827-1.364a2.1 2.1 0 0 1 1.335-.453q.204 0 .422.03.218.025.405.079v2.566a3 3 0 0 0-.556-.115 5 5 0 0 0-.603-.042q-.526 0-.948.235a1.7 1.7 0 0 0-.658.646 1.9 1.9 0 0 0-.236.966V26.5zm10.997 3.67q-1.322 0-2.264-.368-.942-.369-1.479-1.008a2.8 2.8 0 0 1-.646-1.45l2.795-.156q.078.284.29.495.217.211.561.326.35.114.821.115.743 0 1.225-.363.489-.356.489-1.25v-1.63h-.102a2.2 2.2 0 0 1-.531.767 2.5 2.5 0 0 1-.888.532q-.525.193-1.207.193a3.76 3.76 0 0 1-1.86-.471q-.839-.477-1.346-1.473-.501-1.002-.501-2.578 0-1.623.519-2.674.519-1.056 1.359-1.564a3.47 3.47 0 0 1 1.817-.507q.73 0 1.249.254.526.247.864.64.337.392.513.815h.084v-1.588h2.94v9.309q0 1.177-.591 1.986-.592.81-1.654 1.226-1.064.422-2.457.422m.09-5.946q.537 0 .918-.284.38-.284.585-.815.206-.531.206-1.274 0-.755-.206-1.298-.2-.55-.585-.845a1.45 1.45 0 0 0-.918-.296q-.549 0-.93.302-.38.302-.579.851-.193.544-.193 1.286 0 .743.199 1.274.2.531.573.815.381.285.93.284m10.829 2.45q-1.455 0-2.512-.573a3.97 3.97 0 0 1-1.617-1.648q-.562-1.074-.562-2.553 0-1.437.568-2.512.567-1.08 1.599-1.678 1.034-.603 2.433-.604.99 0 1.811.308.822.308 1.419.912t.93 1.49q.332.882.332 2.023v.737h-8.06v-1.715h5.313a1.67 1.67 0 0 0-.223-.839 1.5 1.5 0 0 0-.598-.573 1.7 1.7 0 0 0-.863-.212q-.495 0-.888.224a1.68 1.68 0 0 0-.863 1.449v1.744q0 .567.223.996.223.423.634.658t.978.236q.393 0 .713-.109.32-.108.549-.32.229-.21.344-.52l2.711.08a3.36 3.36 0 0 1-.743 1.587q-.567.67-1.491 1.044-.924.369-2.137.369"/></g><defs><filter id="b" width="39.202" height="39.202" x="2.4" y=".4" color-interpolation-filters="sRGB" filterUnits="userSpaceOnUse"><feFlood flood-opacity="0" result="BackgroundImageFix"/><feColorMatrix in="SourceAlpha" result="hardAlpha" values="0 0 0 0 0 0 0 0 0 0 0 0 0 0 0 0 0 0 127 0"/><feOffset/><feGaussianBlur stdDeviation="2.8"/><feComposite in2="hardAlpha" operator="out"/><feColorMatrix values="0 0 0 0 0 0 0 0 0 0 0 0 0 0 0 0 0 0 0.25 0"/><feBlend in2="BackgroundImageFix" result="effect1_dropShadow_28_2929"/><feBlend in="SourceGraphic" in2="effect1_dropShadow_28_2929" result="shape"/></filter><filter id="c" width="163.429" height="32.429" x="36.287" y="3.786" color-interpolation-filters="sRGB" filterUnits="userSpaceOnUse"><feFlood flood-opacity="0" result="BackgroundImageFix"/><feColorMatrix in="SourceAlpha" result="hardAlpha" values="0 0 0 0 0 0 0 0 0 0 0 0 0 0 0 0 0 0 127 0"/><feOffset/><feGaussianBlur stdDeviation="2.857"/><feComposite in2="hardAlpha" operator="out"/><feColorMatrix values="0 0 0 0 0 0 0 0 0 0 0 0 0 0 0 0 0 0 0.25 0"/><feBlend in2="BackgroundImageFix" result="effect1_dropShadow_28_2929"/><feBlend in="SourceGraphic" in2="effect1_dropShadow_28_2929" result="shape"/></filter><linearGradient id="a" x1="101.001" x2="101.001" y1="0" y2="40.001" gradientUnits="userSpaceOnUse"><stop stop-color="#251e17"/><stop offset="1" stop-color="#1b1610"/></linearGradient></defs></svg>