<svg xmlns="http://www.w3.org/2000/svg" width="190" height="40" fill="none" viewBox="0 0 190 40"><g clip-path="url(#a)"><rect width="190.001" height="40.001" fill="url(#b)" rx="8"/><g filter="url(#c)"><path fill="url(#d)" fill-rule="evenodd" d="M24.377 7.393a2.776 2.776 0 0 1-1.024 3.775l-8.2 4.713a.7.7 0 0 0-.35.608v7.4a.7.7 0 0 0 .35.609l6.491 3.731a.69.69 0 0 0 .69 0l6.49-3.73a.7.7 0 0 0 .35-.607v-4.6L23.34 22.6a2.74 2.74 0 0 1-3.748-1.05 2.776 2.776 0 0 1 1.044-3.77l8.35-4.738a3.816 3.816 0 0 1 5.69 3.342v8.068a5.27 5.27 0 0 1-2.638 4.572l-7.452 4.283a5.21 5.21 0 0 1-5.196 0l-7.452-4.284A5.27 5.27 0 0 1 9.3 24.451v-8.523a5.27 5.27 0 0 1 2.638-4.572l8.685-4.992a2.743 2.743 0 0 1 3.754 1.029" clip-rule="evenodd"/></g><g filter="url(#e)"><path fill="#e8e8e8" d="M43.36 26.5V14.138h4.407q1.437 0 2.384.495.954.495 1.425 1.37.47.87.47 2.01 0 1.135-.476 1.999-.471.858-1.425 1.334-.948.477-2.384.477h-3.339v-1.606h3.17q.904 0 1.473-.26.573-.258.839-.754.265-.494.265-1.19 0-.699-.271-1.213a1.75 1.75 0 0 0-.84-.784q-.567-.279-1.49-.278h-2.343V26.5zm6.103-5.578 3.055 5.579h-2.125l-2.995-5.579zm8.59 5.766q-1.371 0-2.361-.586a3.97 3.97 0 0 1-1.522-1.66q-.53-1.074-.53-2.517 0-1.425.53-2.512.538-1.087 1.498-1.696.966-.61 2.257-.61.785 0 1.522.26.735.259 1.322.815.585.555.923 1.443.339.881.339 2.143v.64h-7.372v-1.353h5.603q0-.712-.29-1.261a2.2 2.2 0 0 0-.815-.876q-.52-.32-1.22-.32-.76 0-1.328.375a2.5 2.5 0 0 0-.869.966 2.8 2.8 0 0 0-.302 1.285v1.057q0 .93.326 1.582.332.651.924.996.591.338 1.382.338.513 0 .936-.145.423-.15.73-.447a1.94 1.94 0 0 0 .471-.73l1.709.308a3.1 3.1 0 0 1-.737 1.322 3.6 3.6 0 0 1-1.322.875q-.79.308-1.805.308m8.679.018a3.8 3.8 0 0 1-1.594-.326 2.7 2.7 0 0 1-1.129-.96q-.41-.628-.41-1.54 0-.784.301-1.291.303-.507.815-.803a4.3 4.3 0 0 1 1.147-.447q.635-.15 1.292-.23l1.353-.156q.519-.066.754-.212.236-.144.236-.47v-.043q0-.79-.447-1.225-.441-.435-1.316-.435-.912 0-1.437.405-.519.398-.718.887l-1.697-.386q.302-.845.882-1.365.585-.525 1.346-.76a5.3 5.3 0 0 1 1.6-.242q.555 0 1.177.133.627.128 1.171.47.549.345.9.985.35.634.35 1.648v6.158h-1.763v-1.268h-.073a2.6 2.6 0 0 1-.525.688 2.8 2.8 0 0 1-.9.562q-.548.222-1.315.223m.392-1.449q.75 0 1.28-.296.537-.295.815-.772.285-.484.284-1.033v-1.195q-.097.097-.375.181a6 6 0 0 1-.621.139l-.683.103-.555.072q-.525.067-.96.223a1.65 1.65 0 0 0-.688.453q-.255.289-.254.773 0 .67.495 1.014.495.338 1.262.338m10.06 1.425q-1.125 0-2.005-.574-.876-.58-1.377-1.648-.495-1.075-.495-2.578t.501-2.571q.508-1.07 1.389-1.636.882-.568 1.998-.568.864 0 1.389.29.532.284.82.664.296.38.46.67h.108v-4.594h1.805v12.364h-1.763v-1.443h-.15a5 5 0 0 1-.471.676 2.6 2.6 0 0 1-.833.664q-.532.285-1.377.284m.398-1.54q.779 0 1.316-.41.543-.417.82-1.153.284-.737.284-1.715 0-.966-.277-1.69-.278-.725-.815-1.129t-1.328-.404q-.815 0-1.359.422-.543.423-.82 1.153a4.7 4.7 0 0 0-.272 1.648q0 .93.277 1.672.28.744.821 1.178.55.428 1.353.428m7.913 4.836q-.405 0-.737-.067a2.3 2.3 0 0 1-.495-.132l.435-1.48q.495.134.881.115.387-.017.682-.29.302-.27.532-.887l.223-.616-3.393-9.393h1.932l2.348 7.196H88l2.348-7.196h1.938l-3.821 10.51a4.2 4.2 0 0 1-.676 1.226q-.411.507-.978.76-.568.255-1.317.254m17.399-12.75v1.449h-5.24v-1.45zM99.091 26.5V16.153q0-.87.38-1.442a2.33 2.33 0 0 1 1.009-.864q.627-.29 1.364-.29.543 0 .93.091.386.084.573.157l-.422 1.46a10 10 0 0 0-.326-.084 2 2 0 0 0-.483-.054q-.658 0-.942.326-.278.326-.278.942V26.5zm9.207.187q-1.305 0-2.276-.598a4.04 4.04 0 0 1-1.51-1.672q-.537-1.075-.537-2.511 0-1.443.537-2.524.538-1.08 1.51-1.678t2.276-.598 2.275.598a4.03 4.03 0 0 1 1.51 1.678q.537 1.08.537 2.524 0 1.436-.537 2.51a4.04 4.04 0 0 1-1.51 1.673q-.972.598-2.275.598m.006-1.515q.845 0 1.4-.447t.821-1.19q.272-.742.272-1.636 0-.886-.272-1.63-.266-.748-.821-1.2-.555-.454-1.4-.454-.852 0-1.413.453-.555.453-.827 1.202a4.8 4.8 0 0 0-.266 1.63q0 .892.266 1.636.272.742.827 1.189.561.447 1.413.447m6.331 1.328v-9.273h1.744V18.7h.097q.254-.75.894-1.177.645-.435 1.46-.435a8 8 0 0 1 .767.042v1.727a3 3 0 0 0-.386-.067 4 4 0 0 0-.556-.042q-.64 0-1.141.272a2.02 2.02 0 0 0-1.074 1.817V26.5z"/><path fill="url(#f)" d="M133.051 18.176a2.2 2.2 0 0 0-.302-.67 1.9 1.9 0 0 0-.489-.501 2.1 2.1 0 0 0-.664-.308 3 3 0 0 0-.821-.109q-.9 0-1.558.435-.651.435-1.008 1.267-.356.828-.356 2.01 0 1.19.344 2.03.345.838.996 1.279.652.44 1.582.44.82 0 1.388-.265.575-.272.87-.767t.296-1.165l.555.067h-3.006v-2.18h5.33v1.636q0 1.66-.706 2.844a4.7 4.7 0 0 1-1.932 1.817q-1.226.634-2.819.634-1.769 0-3.109-.767t-2.089-2.185q-.749-1.425-.749-3.381 0-1.521.453-2.698a5.7 5.7 0 0 1 1.262-2.005 5.45 5.45 0 0 1 1.883-1.243 6.3 6.3 0 0 1 2.313-.423q1.074 0 1.998.308.93.308 1.642.87a4.6 4.6 0 0 1 1.165 1.333 4.4 4.4 0 0 1 .555 1.697zm5.499 8.325v-9.273h2.953V26.5zm1.48-10.354q-.622 0-1.069-.41a1.32 1.32 0 0 1-.447-1.002q0-.58.447-.99a1.5 1.5 0 0 1 1.069-.417q.627 0 1.068.417.447.41.447.99 0 .585-.447 1.002a1.5 1.5 0 0 1-1.068.41m8.586 1.08v2.174h-5.85v-2.173zm-4.625-2.22h2.952v8.578q0 .271.085.44.09.164.259.236.17.066.405.066.169 0 .356-.03.193-.036.29-.06l.447 2.13q-.212.061-.598.152a5 5 0 0 1-.912.115q-1.038.048-1.781-.242a2.3 2.3 0 0 1-1.128-.918q-.387-.621-.375-1.563zm6.131 14.97v-12.75h2.922v1.589h.09q.181-.423.513-.815.338-.393.858-.64.525-.255 1.255-.254.966 0 1.805.507.846.508 1.365 1.564t.519 2.692q0 1.575-.501 2.639-.495 1.063-1.34 1.593a3.4 3.4 0 0 1-1.866.532q-.7 0-1.213-.23a2.7 2.7 0 0 1-.864-.604 2.9 2.9 0 0 1-.531-.803h-.06v4.98zm2.891-8.113q0 .75.2 1.304.205.555.585.864.387.3.924.301.543 0 .924-.301.38-.309.573-.864.2-.555.199-1.304 0-.748-.199-1.298-.193-.55-.573-.85-.375-.303-.924-.303-.543 0-.924.296-.38.296-.585.845-.2.55-.2 1.31m12.311 4.812q-1.461 0-2.511-.598a4.1 4.1 0 0 1-1.612-1.678q-.561-1.08-.561-2.505 0-1.431.561-2.506.567-1.08 1.612-1.678 1.05-.604 2.511-.604 1.46 0 2.506.604 1.05.598 1.611 1.678.568 1.075.568 2.506 0 1.424-.568 2.505a4.07 4.07 0 0 1-1.611 1.678q-1.045.598-2.506.598m.018-2.228q.532 0 .9-.326.368-.327.561-.905.2-.58.2-1.34 0-.773-.2-1.353-.193-.58-.561-.905a1.3 1.3 0 0 0-.9-.326q-.55 0-.929.326-.375.326-.574.905-.193.58-.193 1.352 0 .762.193 1.34.2.58.574.906.38.326.929.326m9.566 2.186a3.4 3.4 0 0 1-1.866-.532q-.839-.531-1.34-1.593-.501-1.063-.501-2.639 0-1.636.519-2.692t1.359-1.564a3.47 3.47 0 0 1 1.817-.507q.73 0 1.249.254.52.247.858.64.337.392.513.815h.06v-4.679h2.952v12.364h-2.922v-1.504h-.09a2.9 2.9 0 0 1-.531.803q-.345.375-.864.604-.513.23-1.213.23m1.026-2.3q.537 0 .918-.302.38-.309.585-.864.206-.555.206-1.304 0-.76-.206-1.31-.199-.55-.585-.845a1.45 1.45 0 0 0-.918-.296q-.549 0-.93.302-.38.302-.579.851-.193.55-.193 1.298 0 .75.199 1.304.2.555.573.864.381.3.93.301"/></g></g><rect width="187.858" height="37.858" x="1.071" y="1.071" stroke="#fff" stroke-opacity=".15" stroke-width="2.143" rx="6.929"/><defs><linearGradient id="b" x1="-.888" x2="2.853" y1="40.002" y2=".269" gradientUnits="userSpaceOnUse"><stop stop-color="#331c00"/><stop offset="1" stop-color="#392916"/></linearGradient><linearGradient id="d" x1="28.37" x2="15.237" y1="10.214" y2="30.742" gradientUnits="userSpaceOnUse"><stop stop-color="#ffb45b"/><stop offset="1" stop-color="#ff8a00"/></linearGradient><linearGradient id="f" x1="124.001" x2="124.001" y1="30.501" y2="9.501" gradientUnits="userSpaceOnUse"><stop stop-color="#ff8a00"/><stop offset="1" stop-color="#ffb45b"/></linearGradient><filter id="c" width="39.202" height="39.202" x="2.4" y=".4" color-interpolation-filters="sRGB" filterUnits="userSpaceOnUse"><feFlood flood-opacity="0" result="BackgroundImageFix"/><feColorMatrix in="SourceAlpha" result="hardAlpha" values="0 0 0 0 0 0 0 0 0 0 0 0 0 0 0 0 0 0 127 0"/><feOffset/><feGaussianBlur stdDeviation="2.8"/><feComposite in2="hardAlpha" operator="out"/><feColorMatrix values="0 0 0 0 0 0 0 0 0 0 0 0 0 0 0 0 0 0 0.25 0"/><feBlend in2="BackgroundImageFix" result="effect1_dropShadow_28_3013"/><feBlend in="SourceGraphic" in2="effect1_dropShadow_28_3013" result="shape"/></filter><filter id="e" width="151.429" height="32.429" x="36.287" y="3.786" color-interpolation-filters="sRGB" filterUnits="userSpaceOnUse"><feFlood flood-opacity="0" result="BackgroundImageFix"/><feColorMatrix in="SourceAlpha" result="hardAlpha" values="0 0 0 0 0 0 0 0 0 0 0 0 0 0 0 0 0 0 127 0"/><feOffset/><feGaussianBlur stdDeviation="2.857"/><feComposite in2="hardAlpha" operator="out"/><feColorMatrix values="0 0 0 0 0 0 0 0 0 0 0 0 0 0 0 0 0 0 0.25 0"/><feBlend in2="BackgroundImageFix" result="effect1_dropShadow_28_3013"/><feBlend in="SourceGraphic" in2="effect1_dropShadow_28_3013" result="shape"/></filter><clipPath id="a"><rect width="190.001" height="40.001" fill="#fff" rx="8"/></clipPath></defs></svg>