<svg xmlns="http://www.w3.org/2000/svg" width="203" height="40" fill="none" viewBox="0 0 203 40"><rect width="203.001" height="40.001" fill="url(#a)" rx="8"/><rect width="200.858" height="37.858" x="1.071" y="1.071" stroke="#fff" stroke-opacity=".15" stroke-width="2.143" rx="6.929"/><g filter="url(#b)"><path fill="#fff" d="m32.986 9.025-3.428 20.571a.83.83 0 0 1-.433.6.9.9 0 0 1-.416.108.8.8 0 0 1-.316-.067l-6.066-2.496-3.237 3.952a.83.83 0 0 1-.948.25.835.835 0 0 1-.566-.832v-4.635l11.566-14.147L14.83 24.686l-5.283-2.172a.83.83 0 0 1-.541-.732.83.83 0 0 1 .433-.832L31.713 8.134a.83.83 0 0 1 .907 0 .88.88 0 0 1 .366.89"/></g><g filter="url(#c)"><path fill="#e8e8e8" d="M44.404 26.5h-1.98l4.45-12.363h2.154l4.45 12.364h-1.98l-3.496-10.118h-.096zm.332-4.84h6.424v1.569h-6.424zm17.153-4.432-3.363 9.273h-1.932l-3.368-9.273h1.938l2.348 7.136h.096l2.343-7.136zm4.129 9.478a3.8 3.8 0 0 1-1.594-.326 2.7 2.7 0 0 1-1.129-.96q-.41-.628-.41-1.54 0-.784.302-1.291.301-.507.814-.803a4.3 4.3 0 0 1 1.148-.447q.633-.15 1.291-.23l1.353-.156q.519-.066.754-.212.236-.144.236-.47v-.043q0-.79-.447-1.225-.44-.435-1.316-.435-.912 0-1.437.405-.519.398-.718.887l-1.696-.386q.301-.845.88-1.365.587-.525 1.347-.76a5.3 5.3 0 0 1 1.6-.242q.556 0 1.177.133.628.128 1.171.47.55.345.9.985.35.634.35 1.648v6.158H68.83v-1.268h-.072a2.6 2.6 0 0 1-.526.688 2.8 2.8 0 0 1-.9.562q-.548.222-1.315.223m.392-1.449q.75 0 1.28-.296.537-.295.815-.772.284-.483.284-1.033v-1.195q-.098.097-.374.181a6 6 0 0 1-.622.139l-.682.103-.556.072q-.525.066-.96.223a1.65 1.65 0 0 0-.688.453q-.254.289-.254.773 0 .67.496 1.014.495.338 1.261.338m6.588 1.244v-9.273h1.805v9.273zm.912-10.704q-.471 0-.81-.314a1.02 1.02 0 0 1-.331-.76q0-.447.332-.761.338-.32.809-.32.47 0 .803.32a1 1 0 0 1 .338.76q0 .441-.338.761-.333.315-.803.314m5.127-1.66v12.364H77.23V14.137zm5.126 12.569a3.8 3.8 0 0 1-1.593-.326 2.7 2.7 0 0 1-1.13-.96q-.41-.628-.41-1.54 0-.784.302-1.291t.815-.803a4.3 4.3 0 0 1 1.147-.447q.634-.15 1.292-.23l1.352-.156q.52-.066.755-.212.235-.144.235-.47v-.043q0-.79-.446-1.225-.441-.435-1.317-.435-.91 0-1.436.405-.52.398-.719.887l-1.696-.386q.302-.845.881-1.365.586-.525 1.347-.76a5.3 5.3 0 0 1 1.6-.242q.555 0 1.177.133.627.128 1.17.47.55.345.9.985.35.634.35 1.648v6.158h-1.762v-1.268h-.073a2.6 2.6 0 0 1-.525.688 2.8 2.8 0 0 1-.9.562q-.55.222-1.316.223m.393-1.449q.748 0 1.28-.296.537-.295.815-.772.283-.483.283-1.033v-1.195q-.096.097-.374.181a6 6 0 0 1-.622.139l-.682.103-.555.072q-.525.066-.96.223a1.65 1.65 0 0 0-.688.453q-.255.289-.254.773 0 .67.495 1.014.494.338 1.262.338m6.733 1.244V14.137h1.805v4.594h.108q.157-.29.453-.67.295-.38.821-.664.525-.29 1.389-.29 1.122 0 2.004.568.88.567 1.382 1.636.507 1.069.507 2.571 0 1.504-.5 2.578-.502 1.07-1.377 1.648-.876.574-1.998.574-.846 0-1.383-.284a2.6 2.6 0 0 1-.833-.664 5 5 0 0 1-.465-.676h-.15V26.5zm1.768-4.637q0 .978.284 1.715.284.736.821 1.153.537.41 1.316.41.81 0 1.352-.428.544-.435.821-1.177.284-.743.284-1.673 0-.916-.278-1.648-.27-.73-.82-1.153-.544-.422-1.359-.422-.785 0-1.328.404-.537.405-.815 1.129t-.278 1.69m10.533-7.727v12.364h-1.805V14.137zm6.425 12.55q-1.37 0-2.36-.585a3.97 3.97 0 0 1-1.522-1.66q-.531-1.074-.531-2.517 0-1.425.531-2.512a4.13 4.13 0 0 1 1.497-1.696q.966-.61 2.258-.61a4.6 4.6 0 0 1 1.522.26 3.7 3.7 0 0 1 1.322.815q.585.555.923 1.443.339.881.338 2.143v.64h-7.371v-1.353h5.603q0-.712-.29-1.261a2.2 2.2 0 0 0-.815-.876q-.52-.32-1.22-.32-.76 0-1.328.375a2.5 2.5 0 0 0-.869.966 2.8 2.8 0 0 0-.302 1.285v1.057q0 .93.326 1.582.332.651.924.996.591.338 1.382.338.513 0 .936-.145.423-.15.73-.447.309-.295.471-.73l1.709.308a3.1 3.1 0 0 1-.737 1.322 3.6 3.6 0 0 1-1.322.875q-.79.308-1.805.308m14.893-9.459v1.449h-5.24v-1.449zm-3.803 9.273V16.153q0-.87.38-1.442.381-.58 1.008-.864a3.2 3.2 0 0 1 1.365-.29q.543 0 .929.091.387.084.574.157l-.423 1.461a8 8 0 0 0-.326-.085 2 2 0 0 0-.483-.054q-.657 0-.941.326-.278.326-.278.942V26.5zm9.206.187q-1.304 0-2.276-.598a4.03 4.03 0 0 1-1.509-1.672q-.537-1.074-.537-2.511 0-1.443.537-2.524a4 4 0 0 1 1.509-1.678q.972-.597 2.276-.598 1.304 0 2.276.598a4 4 0 0 1 1.509 1.678q.538 1.08.538 2.524 0 1.436-.538 2.511a4.03 4.03 0 0 1-1.509 1.672q-.971.598-2.276.598m.006-1.515q.846 0 1.401-.447t.821-1.19q.271-.742.271-1.635 0-.888-.271-1.63-.266-.75-.821-1.202-.555-.453-1.401-.453-.85 0-1.412.453-.556.453-.827 1.202a4.8 4.8 0 0 0-.266 1.63q0 .892.266 1.636.271.742.827 1.189.561.447 1.412.447m6.331 1.328v-9.273h1.745v1.473h.097q.254-.75.893-1.177.647-.435 1.461-.435a8 8 0 0 1 .767.042v1.727a3 3 0 0 0-.387-.067 4 4 0 0 0-.555-.042q-.64 0-1.141.272a2.02 2.02 0 0 0-1.075 1.817v5.663z"/><path fill="#fff" d="M146.937 26.5V14.138h5.107q1.389 0 2.397.543 1.014.538 1.564 1.504.549.96.549 2.233 0 1.28-.561 2.24a3.77 3.77 0 0 1-1.588 1.479q-1.032.525-2.451.525h-3.151v-2.354h2.595q.677 0 1.129-.236.46-.235.695-.658.235-.428.235-.996 0-.573-.235-.99a1.6 1.6 0 0 0-.695-.652q-.458-.23-1.129-.23h-1.473v9.956zm13.372.158q-.888 0-1.576-.296a2.45 2.45 0 0 1-1.08-.906q-.393-.609-.393-1.527 0-.773.272-1.304t.749-.863a3.5 3.5 0 0 1 1.098-.501 7 7 0 0 1 1.328-.236q.791-.072 1.274-.15.483-.086.701-.236a.51.51 0 0 0 .223-.44v-.031q0-.465-.32-.718-.32-.255-.863-.254-.587 0-.942.254a1.1 1.1 0 0 0-.453.7l-2.723-.097a3.2 3.2 0 0 1 .622-1.509q.507-.67 1.389-1.05.887-.387 2.131-.387.887 0 1.636.212.748.205 1.304.603.555.393.857.966.308.574.308 1.31v6.303h-2.777v-1.292h-.073q-.247.471-.633.797-.381.325-.9.489a3.8 3.8 0 0 1-1.159.163m.912-1.932q.477 0 .857-.193a1.6 1.6 0 0 0 .616-.532q.23-.344.229-.797v-.88a2 2 0 0 1-.308.12q-.175.054-.386.103t-.435.084l-.429.066a2.7 2.7 0 0 0-.712.206 1.13 1.13 0 0 0-.447.362.9.9 0 0 0-.151.52q0 .457.326.7.332.24.84.24m6.435 5.252v-12.75h2.922v1.588h.09q.181-.423.514-.815.338-.393.857-.64.525-.255 1.255-.254.966 0 1.805.507.846.508 1.365 1.564t.519 2.692q0 1.575-.501 2.639-.495 1.063-1.34 1.593a3.4 3.4 0 0 1-1.866.532q-.7 0-1.213-.23a2.6 2.6 0 0 1-.863-.604 2.9 2.9 0 0 1-.532-.803h-.06v4.981zm2.892-8.114q0 .75.199 1.304.206.555.585.864.387.3.924.301.543 0 .924-.301.38-.308.573-.864.2-.555.199-1.304 0-.748-.199-1.298-.193-.55-.573-.85-.375-.303-.924-.303-.543 0-.924.296-.38.297-.585.845-.2.55-.199 1.31m12.316 4.812q-1.454 0-2.511-.574a3.97 3.97 0 0 1-1.618-1.648q-.561-1.074-.561-2.553 0-1.437.567-2.512.568-1.08 1.6-1.678 1.032-.603 2.433-.604.99 0 1.811.308.82.308 1.419.912.597.604.929 1.49.333.882.332 2.023v.737h-8.059v-1.715h5.313a1.66 1.66 0 0 0-.224-.839 1.5 1.5 0 0 0-.597-.573 1.73 1.73 0 0 0-.864-.212q-.495 0-.887.224a1.68 1.68 0 0 0-.863 1.449v1.744q0 .567.223.996.223.423.634.658.41.236.978.236.392 0 .712-.109.32-.108.55-.32.228-.21.344-.52l2.71.08a3.35 3.35 0 0 1-.742 1.587q-.568.67-1.491 1.044-.924.369-2.138.369m5.909-.175v-9.273h2.868v1.69h.096q.254-.917.827-1.364a2.1 2.1 0 0 1 1.334-.453q.206 0 .423.03.218.025.405.079v2.566a3 3 0 0 0-.556-.115 5 5 0 0 0-.604-.042q-.525 0-.947.235a1.7 1.7 0 0 0-.658.646 1.9 1.9 0 0 0-.236.966V26.5z"/></g><defs><filter id="b" width="39.202" height="39.202" x="2.4" y=".4" color-interpolation-filters="sRGB" filterUnits="userSpaceOnUse"><feFlood flood-opacity="0" result="BackgroundImageFix"/><feColorMatrix in="SourceAlpha" result="hardAlpha" values="0 0 0 0 0 0 0 0 0 0 0 0 0 0 0 0 0 0 127 0"/><feOffset/><feGaussianBlur stdDeviation="2.8"/><feComposite in2="hardAlpha" operator="out"/><feColorMatrix values="0 0 0 0 0 0 0 0 0 0 0 0 0 0 0 0 0 0 0.25 0"/><feBlend in2="BackgroundImageFix" result="effect1_dropShadow_28_2980"/><feBlend in="SourceGraphic" in2="effect1_dropShadow_28_2980" result="shape"/></filter><filter id="c" width="164.429" height="32.429" x="36.287" y="3.786" color-interpolation-filters="sRGB" filterUnits="userSpaceOnUse"><feFlood flood-opacity="0" result="BackgroundImageFix"/><feColorMatrix in="SourceAlpha" result="hardAlpha" values="0 0 0 0 0 0 0 0 0 0 0 0 0 0 0 0 0 0 127 0"/><feOffset/><feGaussianBlur stdDeviation="2.857"/><feComposite in2="hardAlpha" operator="out"/><feColorMatrix values="0 0 0 0 0 0 0 0 0 0 0 0 0 0 0 0 0 0 0.25 0"/><feBlend in2="BackgroundImageFix" result="effect1_dropShadow_28_2980"/><feBlend in="SourceGraphic" in2="effect1_dropShadow_28_2980" result="shape"/></filter><linearGradient id="a" x1="101.501" x2="101.501" y1="0" y2="40.001" gradientUnits="userSpaceOnUse"><stop stop-color="#1d262d"/><stop offset="1" stop-color="#12181c"/></linearGradient></defs></svg>