<svg xmlns="http://www.w3.org/2000/svg" width="177" height="40" fill="none" viewBox="0 0 177 40"><g clip-path="url(#a)"><rect width="177.001" height="40.001" fill="url(#b)" rx="8"/><g filter="url(#c)"><path fill="#9c9c9c" d="m20.96 25.037-3.69.666 7.381 3.994 1.23-1.997z"/><path fill="#7e7e7e" d="m20.96 25.038 4.921 2.662v-2.662l-4.92-2.663z"/><path fill="#6a6a6a" d="M33.263 17.05v13.313l-19.682-10.65V6.4z"/><path fill="#9c9c9c" d="m14.319 6-.738.4 19.682 10.65.738-.4z"/><path fill="#7e7e7e" d="m33.264 30.363.738-.4V16.65l-.738.4z"/><path fill="#fff" d="m14.812 8.396 17.221 9.32v10.65l-17.221-9.32z"/><path fill="#7e7e7e" d="M13.69 25.082 10 27.345l12.3 6.656 3.691-2.263z"/><path fill="#2d2d2d" d="m22.302 34.001 3.69-1.997v-.266z"/></g><g filter="url(#d)"><path fill="#e8e8e8" d="M44.404 26.5h-1.98l4.45-12.363h2.154l4.45 12.364h-1.98l-3.496-10.118h-.096zm.332-4.841h6.424v1.57h-6.424zm17.153-4.431L58.526 26.5h-1.932l-3.368-9.273h1.938l2.348 7.136h.096l2.343-7.136zm4.129 9.478a3.8 3.8 0 0 1-1.594-.326 2.7 2.7 0 0 1-1.129-.96q-.41-.628-.41-1.54 0-.784.302-1.291.301-.507.814-.803a4.3 4.3 0 0 1 1.148-.447q.633-.15 1.291-.23l1.353-.156q.519-.066.754-.212.236-.144.236-.47v-.043q0-.79-.447-1.225-.44-.435-1.316-.435-.912 0-1.437.405-.519.398-.718.887l-1.696-.386q.301-.845.88-1.365.587-.525 1.347-.76a5.3 5.3 0 0 1 1.6-.242q.556 0 1.177.133.628.128 1.171.47.55.345.9.985.35.634.35 1.648v6.158H68.83v-1.268h-.072a2.6 2.6 0 0 1-.526.688 2.8 2.8 0 0 1-.9.562q-.548.222-1.315.223m.392-1.449q.75 0 1.28-.296a2.07 2.07 0 0 0 .815-.772q.284-.484.284-1.033v-1.195q-.098.097-.374.181a6 6 0 0 1-.622.139l-.682.103-.556.072q-.525.067-.96.223a1.65 1.65 0 0 0-.688.453q-.254.289-.254.773 0 .67.496 1.014.495.338 1.261.338m6.588 1.244v-9.273h1.805V26.5zm.912-10.704q-.471 0-.81-.314a1.02 1.02 0 0 1-.331-.76q0-.447.332-.761.338-.32.809-.32.47 0 .803.32a1 1 0 0 1 .338.76q0 .441-.338.761-.333.315-.803.314m5.127-1.66v12.364H77.23V14.137zm5.126 12.569a3.8 3.8 0 0 1-1.593-.326 2.7 2.7 0 0 1-1.13-.96q-.41-.628-.41-1.54 0-.784.302-1.291t.815-.803a4.3 4.3 0 0 1 1.147-.447q.634-.15 1.292-.23l1.352-.156q.52-.066.755-.212.235-.144.235-.47v-.043q0-.79-.446-1.225-.441-.435-1.317-.435-.91 0-1.436.405-.52.398-.719.887l-1.696-.386q.302-.845.881-1.365.586-.525 1.347-.76a5.3 5.3 0 0 1 1.6-.242q.555 0 1.177.133.627.128 1.17.47.55.345.9.985.35.634.35 1.648v6.158h-1.762v-1.268h-.073a2.6 2.6 0 0 1-.525.688 2.8 2.8 0 0 1-.9.562q-.55.222-1.316.223m.393-1.449q.748 0 1.28-.296a2.07 2.07 0 0 0 .815-.772q.283-.484.283-1.033v-1.195q-.096.097-.374.181a6 6 0 0 1-.622.139l-.682.103-.555.072q-.525.067-.96.223a1.65 1.65 0 0 0-.688.453q-.255.289-.254.773 0 .67.495 1.014.494.338 1.262.338m6.733 1.244V14.137h1.805v4.594h.108q.157-.29.453-.67.295-.38.821-.664.525-.29 1.389-.29 1.122 0 2.004.568.88.567 1.382 1.636.507 1.069.507 2.571t-.5 2.578q-.502 1.069-1.377 1.648-.876.574-1.998.574-.846 0-1.383-.284a2.6 2.6 0 0 1-.833-.664 5 5 0 0 1-.465-.676h-.15V26.5zm1.768-4.637q0 .978.284 1.715.284.736.821 1.153.537.41 1.316.41.81 0 1.352-.428.544-.435.821-1.177.284-.743.284-1.673 0-.916-.278-1.648-.27-.73-.82-1.153-.544-.422-1.359-.422-.785 0-1.328.404-.537.405-.815 1.129t-.278 1.69m10.533-7.727v12.364h-1.805V14.137zm6.425 12.55q-1.37 0-2.36-.585a3.97 3.97 0 0 1-1.522-1.66q-.531-1.074-.531-2.517 0-1.425.531-2.512a4.13 4.13 0 0 1 1.497-1.696q.966-.61 2.258-.61.785 0 1.522.26.736.259 1.322.815.585.555.923 1.443.339.881.338 2.143v.64h-7.371v-1.353h5.603q0-.712-.29-1.261a2.2 2.2 0 0 0-.815-.876q-.52-.32-1.22-.32-.76 0-1.328.375a2.5 2.5 0 0 0-.869.966 2.8 2.8 0 0 0-.302 1.285v1.057q0 .93.326 1.582.332.651.924.996.591.338 1.382.338.513 0 .936-.145.423-.15.73-.447.309-.295.471-.73l1.709.308a3.1 3.1 0 0 1-.737 1.322 3.6 3.6 0 0 1-1.322.875q-.79.308-1.805.308m14.386 0q-1.304 0-2.276-.597a4.03 4.03 0 0 1-1.509-1.672q-.537-1.075-.537-2.511 0-1.443.537-2.524a4 4 0 0 1 1.509-1.678q.972-.598 2.276-.598t2.276.598a4 4 0 0 1 1.509 1.678q.537 1.08.537 2.524 0 1.436-.537 2.51a4.03 4.03 0 0 1-1.509 1.673q-.972.598-2.276.598m.006-1.515q.845 0 1.401-.446.555-.447.821-1.19.271-.742.271-1.636 0-.886-.271-1.63-.266-.748-.821-1.2-.556-.454-1.401-.454-.85 0-1.413.453-.555.453-.827 1.202a4.8 4.8 0 0 0-.265 1.63q0 .892.265 1.636.272.742.827 1.189.563.447 1.413.447m8.136-4.177v5.506h-1.805v-9.273h1.733v1.51h.115a2.65 2.65 0 0 1 1.002-1.184q.688-.447 1.732-.447.949 0 1.66.399.713.392 1.105 1.17.393.78.393 1.927V26.5h-1.805v-5.68q0-1.008-.526-1.576-.525-.573-1.442-.573-.628 0-1.117.271a1.95 1.95 0 0 0-.767.797q-.278.52-.278 1.256"/><path fill="#fff" d="M144.937 26.5V14.138h5.107q1.389 0 2.397.543 1.014.538 1.564 1.504.549.96.549 2.233 0 1.28-.561 2.24a3.77 3.77 0 0 1-1.588 1.479q-1.032.525-2.451.525h-3.151v-2.354h2.595q.677 0 1.129-.236.46-.235.695-.658.235-.428.235-.996 0-.573-.235-.99a1.6 1.6 0 0 0-.695-.652q-.458-.23-1.129-.23h-1.473v9.956zm22.313-7.884h-3.019q-.06-.465-.247-.839a2.1 2.1 0 0 0-.495-.64 2.1 2.1 0 0 0-.731-.404 2.8 2.8 0 0 0-.923-.145q-.9 0-1.552.44-.647.443-.996 1.274-.344.834-.344 2.017 0 1.231.35 2.065.356.825.996 1.25.647.416 1.527.416.495 0 .9-.127.41-.127.718-.368.315-.248.513-.598a2.4 2.4 0 0 0 .284-.803l3.019.018a4.6 4.6 0 0 1-.477 1.618 5.2 5.2 0 0 1-1.081 1.455 5.1 5.1 0 0 1-1.678 1.038q-.984.387-2.258.387-1.679 0-3.006-.737-1.323-.742-2.089-2.161-.767-1.419-.767-3.453 0-2.04.779-3.46.778-1.418 2.107-2.155 1.328-.736 2.976-.736 1.123 0 2.077.314a5 5 0 0 1 1.678.906q.724.591 1.177 1.454.453.864.562 1.974"/></g></g><rect width="174.859" height="37.858" x="1.071" y="1.071" stroke="#fff" stroke-opacity=".15" stroke-width="2.143" rx="6.929"/><defs><filter id="c" width="39.202" height="39.202" x="2.4" y=".4" color-interpolation-filters="sRGB" filterUnits="userSpaceOnUse"><feFlood flood-opacity="0" result="BackgroundImageFix"/><feColorMatrix in="SourceAlpha" result="hardAlpha" values="0 0 0 0 0 0 0 0 0 0 0 0 0 0 0 0 0 0 127 0"/><feOffset/><feGaussianBlur stdDeviation="2.8"/><feComposite in2="hardAlpha" operator="out"/><feColorMatrix values="0 0 0 0 0 0 0 0 0 0 0 0 0 0 0 0 0 0 0.25 0"/><feBlend in2="BackgroundImageFix" result="effect1_dropShadow_28_3019"/><feBlend in="SourceGraphic" in2="effect1_dropShadow_28_3019" result="shape"/></filter><filter id="d" width="138.429" height="32.429" x="36.287" y="3.786" color-interpolation-filters="sRGB" filterUnits="userSpaceOnUse"><feFlood flood-opacity="0" result="BackgroundImageFix"/><feColorMatrix in="SourceAlpha" result="hardAlpha" values="0 0 0 0 0 0 0 0 0 0 0 0 0 0 0 0 0 0 127 0"/><feOffset/><feGaussianBlur stdDeviation="2.857"/><feComposite in2="hardAlpha" operator="out"/><feColorMatrix values="0 0 0 0 0 0 0 0 0 0 0 0 0 0 0 0 0 0 0.25 0"/><feBlend in2="BackgroundImageFix" result="effect1_dropShadow_28_3019"/><feBlend in="SourceGraphic" in2="effect1_dropShadow_28_3019" result="shape"/></filter><linearGradient id="b" x1="0" x2="3.619" y1="40.002" y2=".33" gradientUnits="userSpaceOnUse"><stop stop-color="#161616"/><stop offset="1" stop-color="#2d2d2d"/></linearGradient><clipPath id="a"><rect width="177.001" height="40.001" fill="#fff" rx="8"/></clipPath></defs></svg>