<svg xmlns="http://www.w3.org/2000/svg" width="212" height="40" fill="none" viewBox="0 0 212 40"><g clip-path="url(#a)"><rect width="212.001" height="40.001" fill="url(#b)" rx="8"/><g stroke-linejoin="round" stroke-width=".84" filter="url(#c)"><path stroke="url(#d)" d="m28.48 9.666-5.524 3.13 5.53 3.125 5.524-3.13z"/><path stroke="url(#e)" d="m21.99 6-5.526 3.13 5.53 3.123 5.526-3.128z"/><path stroke="url(#f)" d="M15.505 9.674 9.98 12.802l5.53 3.125 5.523-3.128z"/><path stroke="url(#g)" d="m21.996 13.34-5.526 3.13L22 19.594l5.526-3.128z"/><path stroke="url(#h)" d="m9.499 13.618.003 6.255 5.53 3.122-.003-6.252z"/><path stroke="url(#i)" d="m15.99 17.286.003 6.253 5.53 3.125-.003-6.253z"/><path stroke="url(#j)" d="m9.502 20.958.003 6.253 5.53 3.122-.004-6.253z"/><path stroke="url(#k)" d="m15.993 24.627.003 6.252 5.53 3.122-.003-6.252z"/><path stroke="url(#l)" d="m22.486 34.001 5.527-3.127-.003-6.253-5.527 3.128z"/><path stroke="url(#m)" d="m28.974 30.327 5.526-3.128-.006-6.253-5.523 3.128z"/><path stroke="url(#n)" d="m28.969 22.987 5.526-3.128-.003-6.253-5.526 3.128z"/><path stroke="url(#o)" d="m22.481 20.409.003 6.252 5.524-3.128-.003-6.252z"/></g><g filter="url(#p)"><path fill="#e8e8e8" d="M44.404 26.5h-1.98l4.45-12.363h2.154l4.45 12.364h-1.98l-3.496-10.118h-.096zm.332-4.841h6.424v1.57h-6.424zm17.153-4.431L58.526 26.5h-1.932l-3.368-9.273h1.938l2.348 7.136h.096l2.343-7.136zm4.129 9.478a3.8 3.8 0 0 1-1.594-.326 2.7 2.7 0 0 1-1.129-.96q-.41-.628-.41-1.54 0-.784.302-1.291.301-.507.814-.803a4.3 4.3 0 0 1 1.148-.447q.633-.15 1.291-.23l1.353-.156q.519-.066.754-.212.236-.144.236-.47v-.043q0-.79-.447-1.225-.44-.435-1.316-.435-.912 0-1.437.405-.519.398-.718.887l-1.696-.386q.301-.845.88-1.365.587-.525 1.347-.76a5.3 5.3 0 0 1 1.6-.242q.556 0 1.177.133.628.128 1.171.47.55.345.9.985.35.634.35 1.648v6.158H68.83v-1.268h-.072a2.6 2.6 0 0 1-.526.688 2.8 2.8 0 0 1-.9.562q-.548.222-1.315.223m.392-1.449q.75 0 1.28-.296a2.07 2.07 0 0 0 .815-.772q.284-.484.284-1.033v-1.195q-.098.097-.374.181a6 6 0 0 1-.622.139l-.682.103-.556.072q-.525.067-.96.223a1.65 1.65 0 0 0-.688.453q-.254.289-.254.773 0 .67.496 1.014.495.338 1.261.338m6.588 1.244v-9.273h1.805V26.5zm.912-10.704q-.471 0-.81-.314a1.02 1.02 0 0 1-.331-.76q0-.447.332-.761.338-.32.809-.32.47 0 .803.32a1 1 0 0 1 .338.76q0 .441-.338.761-.333.315-.803.314m5.127-1.66v12.364H77.23V14.137zm5.126 12.569a3.8 3.8 0 0 1-1.593-.326 2.7 2.7 0 0 1-1.13-.96q-.41-.628-.41-1.54 0-.784.302-1.291t.815-.803a4.3 4.3 0 0 1 1.147-.447q.634-.15 1.292-.23l1.352-.156q.52-.066.755-.212.235-.144.235-.47v-.043q0-.79-.446-1.225-.441-.435-1.317-.435-.91 0-1.436.405-.52.398-.719.887l-1.696-.386q.302-.845.881-1.365.586-.525 1.347-.76a5.3 5.3 0 0 1 1.6-.242q.555 0 1.177.133.627.128 1.17.47.55.345.9.985.35.634.35 1.648v6.158h-1.762v-1.268h-.073a2.6 2.6 0 0 1-.525.688 2.8 2.8 0 0 1-.9.562q-.55.222-1.316.223m.393-1.449q.748 0 1.28-.296a2.07 2.07 0 0 0 .815-.772q.283-.484.283-1.033v-1.195q-.096.097-.374.181a6 6 0 0 1-.622.139l-.682.103-.555.072q-.525.067-.96.223a1.65 1.65 0 0 0-.688.453q-.255.289-.254.773 0 .67.495 1.014.494.338 1.262.338m6.733 1.244V14.137h1.805v4.594h.108q.157-.29.453-.67.295-.38.821-.664.525-.29 1.389-.29 1.122 0 2.004.568.88.567 1.382 1.636.507 1.069.507 2.571t-.5 2.578q-.502 1.069-1.377 1.648-.876.574-1.998.574-.846 0-1.383-.284a2.6 2.6 0 0 1-.833-.664 5 5 0 0 1-.465-.676h-.15V26.5zm1.768-4.637q0 .978.284 1.715.284.736.821 1.153.537.41 1.316.41.81 0 1.352-.428.544-.435.821-1.177.284-.743.284-1.673 0-.916-.278-1.648-.27-.73-.82-1.153-.544-.422-1.359-.422-.785 0-1.328.404-.537.405-.815 1.129t-.278 1.69m10.533-7.727v12.364h-1.805V14.137zm6.425 12.55q-1.37 0-2.36-.585a3.97 3.97 0 0 1-1.522-1.66q-.531-1.074-.531-2.517 0-1.425.531-2.512a4.13 4.13 0 0 1 1.497-1.696q.966-.61 2.258-.61.785 0 1.522.26.736.259 1.322.815.585.555.923 1.443.339.881.338 2.143v.64h-7.371v-1.353h5.603q0-.712-.29-1.261a2.2 2.2 0 0 0-.815-.876q-.52-.32-1.22-.32-.76 0-1.328.375a2.5 2.5 0 0 0-.869.966 2.8 2.8 0 0 0-.302 1.285v1.057q0 .93.326 1.582.332.651.924.996.591.338 1.382.338.513 0 .936-.145.423-.15.73-.447.309-.295.471-.73l1.709.308a3.1 3.1 0 0 1-.737 1.322 3.6 3.6 0 0 1-1.322.875q-.79.308-1.805.308m14.893-9.46v1.45h-5.24v-1.45zm-3.803 9.274V16.153q0-.87.38-1.442.381-.58 1.008-.864a3.2 3.2 0 0 1 1.365-.29q.543 0 .929.091.387.084.574.157l-.423 1.46a8 8 0 0 0-.326-.084 2 2 0 0 0-.483-.054q-.657 0-.941.326-.278.326-.278.942V26.5zm9.206.187q-1.304 0-2.276-.598a4.03 4.03 0 0 1-1.509-1.672q-.537-1.075-.537-2.511 0-1.443.537-2.524a4 4 0 0 1 1.509-1.678q.972-.598 2.276-.598t2.276.598a4 4 0 0 1 1.509 1.678q.538 1.08.538 2.524 0 1.436-.538 2.51a4.03 4.03 0 0 1-1.509 1.673q-.971.598-2.276.598m.006-1.515q.846 0 1.401-.447t.821-1.19q.271-.742.271-1.636 0-.886-.271-1.63-.266-.748-.821-1.2-.555-.454-1.401-.454-.85 0-1.412.453-.556.453-.827 1.202a4.8 4.8 0 0 0-.266 1.63q0 .892.266 1.636.271.742.827 1.189.561.447 1.412.447m6.331 1.328v-9.273h1.745V18.7h.097q.254-.75.893-1.177.647-.435 1.461-.435a8 8 0 0 1 .767.042v1.727a3 3 0 0 0-.387-.067 4 4 0 0 0-.555-.042q-.64 0-1.141.272a2.02 2.02 0 0 0-1.075 1.817V26.5z"/><path fill="url(#q)" d="M146.937 26.5V14.138h5.107q1.389 0 2.397.543 1.014.538 1.564 1.504.549.96.549 2.233 0 1.28-.561 2.24a3.77 3.77 0 0 1-1.588 1.479q-1.032.525-2.451.525h-3.151v-2.354h2.595q.677 0 1.129-.236.46-.235.695-.658.235-.428.235-.996 0-.573-.235-.99a1.6 1.6 0 0 0-.695-.652q-.458-.23-1.129-.23h-1.473v9.956zm17.073-4.002v-5.27h2.946V26.5h-2.814v-1.727h-.096a2.7 2.7 0 0 1-1.051 1.352q-.736.495-1.78.495-.948 0-1.667-.434a2.95 2.95 0 0 1-1.116-1.214q-.399-.785-.405-1.835v-5.91h2.952v5.33q.006.756.399 1.19.391.434 1.068.434.44 0 .791-.193a1.43 1.43 0 0 0 .561-.573q.212-.381.212-.918m4.825 4.003v-9.273h2.867v1.69h.097q.253-.917.827-1.364a2.1 2.1 0 0 1 1.334-.453q.205 0 .423.03.216.024.404.079v2.566a3 3 0 0 0-.555-.115 5 5 0 0 0-.604-.042q-.525 0-.948.235a1.7 1.7 0 0 0-.658.646 1.9 1.9 0 0 0-.235.966V26.5zm7.155 3.477v-12.75h2.922v1.588h.09q.182-.423.513-.815.339-.393.858-.64.525-.255 1.255-.254.966 0 1.805.507.846.508 1.365 1.564t.519 2.692q0 1.575-.501 2.639-.495 1.063-1.34 1.593a3.4 3.4 0 0 1-1.866.532q-.7 0-1.213-.23a2.6 2.6 0 0 1-.863-.604 2.9 2.9 0 0 1-.532-.803h-.06v4.98zm2.892-8.114q0 .75.199 1.304.206.555.585.864.387.3.924.301.543 0 .924-.301.38-.309.573-.864.2-.555.199-1.304 0-.748-.199-1.298-.194-.55-.573-.85-.375-.303-.924-.303-.543 0-.924.296-.38.296-.585.845-.2.55-.199 1.31m13.965.634v-5.27h2.946V26.5h-2.814v-1.727h-.096a2.7 2.7 0 0 1-1.051 1.352q-.736.495-1.781.495-.947 0-1.666-.434a2.96 2.96 0 0 1-1.117-1.214q-.398-.785-.404-1.835v-5.91h2.952v5.33q.006.756.398 1.19.393.434 1.069.434.44 0 .791-.193a1.43 1.43 0 0 0 .561-.573q.212-.381.212-.918m4.825 4.003v-9.273h2.867v1.69h.097q.253-.917.827-1.364a2.1 2.1 0 0 1 1.334-.453q.206 0 .422.03.217.024.405.079v2.566a3 3 0 0 0-.555-.115 5 5 0 0 0-.604-.042q-.525 0-.948.235a1.7 1.7 0 0 0-.658.646 1.9 1.9 0 0 0-.235.966V26.5z"/></g></g><rect width="209.858" height="37.858" x="1.071" y="1.071" stroke="#fff" stroke-opacity=".15" stroke-width="2.143" rx="6.929"/><defs><linearGradient id="b" x1="0" x2="176.098" y1="0" y2="101.992" gradientUnits="userSpaceOnUse"><stop stop-color="#092230"/><stop offset="1" stop-color="#200521"/></linearGradient><linearGradient id="d" x1="7.422" x2="36.033" y1="5.7" y2="34.904" gradientUnits="userSpaceOnUse"><stop offset=".15" stop-color="#25b8ff"/><stop offset=".85" stop-color="#fa02ff"/></linearGradient><linearGradient id="e" x1="7.423" x2="36.034" y1="5.7" y2="34.904" gradientUnits="userSpaceOnUse"><stop offset=".15" stop-color="#25b8ff"/><stop offset=".85" stop-color="#fa02ff"/></linearGradient><linearGradient id="f" x1="7.423" x2="36.033" y1="5.7" y2="34.904" gradientUnits="userSpaceOnUse"><stop offset=".15" stop-color="#25b8ff"/><stop offset=".85" stop-color="#fa02ff"/></linearGradient><linearGradient id="g" x1="7.423" x2="36.034" y1="5.699" y2="34.904" gradientUnits="userSpaceOnUse"><stop offset=".15" stop-color="#25b8ff"/><stop offset=".85" stop-color="#fa02ff"/></linearGradient><linearGradient id="h" x1="7.422" x2="36.033" y1="5.699" y2="34.904" gradientUnits="userSpaceOnUse"><stop offset=".15" stop-color="#25b8ff"/><stop offset=".85" stop-color="#fa02ff"/></linearGradient><linearGradient id="i" x1="7.423" x2="36.033" y1="5.7" y2="34.904" gradientUnits="userSpaceOnUse"><stop offset=".15" stop-color="#25b8ff"/><stop offset=".85" stop-color="#fa02ff"/></linearGradient><linearGradient id="j" x1="7.422" x2="36.033" y1="5.7" y2="34.904" gradientUnits="userSpaceOnUse"><stop offset=".15" stop-color="#25b8ff"/><stop offset=".85" stop-color="#fa02ff"/></linearGradient><linearGradient id="k" x1="7.423" x2="36.033" y1="5.699" y2="34.904" gradientUnits="userSpaceOnUse"><stop offset=".15" stop-color="#25b8ff"/><stop offset=".85" stop-color="#fa02ff"/></linearGradient><linearGradient id="l" x1="7.422" x2="36.033" y1="5.7" y2="34.904" gradientUnits="userSpaceOnUse"><stop offset=".15" stop-color="#25b8ff"/><stop offset=".85" stop-color="#fa02ff"/></linearGradient><linearGradient id="m" x1="7.422" x2="36.033" y1="5.699" y2="34.904" gradientUnits="userSpaceOnUse"><stop offset=".15" stop-color="#25b8ff"/><stop offset=".85" stop-color="#fa02ff"/></linearGradient><linearGradient id="n" x1="7.423" x2="36.034" y1="5.7" y2="34.904" gradientUnits="userSpaceOnUse"><stop offset=".15" stop-color="#25b8ff"/><stop offset=".85" stop-color="#fa02ff"/></linearGradient><linearGradient id="o" x1="7.423" x2="36.034" y1="5.7" y2="34.904" gradientUnits="userSpaceOnUse"><stop offset=".15" stop-color="#25b8ff"/><stop offset=".85" stop-color="#fa02ff"/></linearGradient><linearGradient id="q" x1="146.001" x2="204.001" y1="9.501" y2="9.501" gradientUnits="userSpaceOnUse"><stop stop-color="#93daff"/><stop offset="1" stop-color="#fc80ff"/></linearGradient><filter id="c" width="39.202" height="40.042" x="2.4" y="-.02" color-interpolation-filters="sRGB" filterUnits="userSpaceOnUse"><feFlood flood-opacity="0" result="BackgroundImageFix"/><feColorMatrix in="SourceAlpha" result="hardAlpha" values="0 0 0 0 0 0 0 0 0 0 0 0 0 0 0 0 0 0 127 0"/><feOffset/><feGaussianBlur stdDeviation="2.8"/><feComposite in2="hardAlpha" operator="out"/><feColorMatrix values="0 0 0 0 0 0 0 0 0 0 0 0 0 0 0 0 0 0 0.25 0"/><feBlend in2="BackgroundImageFix" result="effect1_dropShadow_28_2987"/><feBlend in="SourceGraphic" in2="effect1_dropShadow_28_2987" result="shape"/></filter><filter id="p" width="173.429" height="32.429" x="36.287" y="3.786" color-interpolation-filters="sRGB" filterUnits="userSpaceOnUse"><feFlood flood-opacity="0" result="BackgroundImageFix"/><feColorMatrix in="SourceAlpha" result="hardAlpha" values="0 0 0 0 0 0 0 0 0 0 0 0 0 0 0 0 0 0 127 0"/><feOffset/><feGaussianBlur stdDeviation="2.857"/><feComposite in2="hardAlpha" operator="out"/><feColorMatrix values="0 0 0 0 0 0 0 0 0 0 0 0 0 0 0 0 0 0 0.25 0"/><feBlend in2="BackgroundImageFix" result="effect1_dropShadow_28_2987"/><feBlend in="SourceGraphic" in2="effect1_dropShadow_28_2987" result="shape"/></filter><clipPath id="a"><rect width="212.001" height="40.001" fill="#fff" rx="8"/></clipPath></defs></svg>