<svg xmlns="http://www.w3.org/2000/svg" width="195" height="40" fill="none" viewBox="0 0 195 40"><g clip-path="url(#a)"><rect width="195.001" height="40.001" fill="url(#b)" rx="8"/><g filter="url(#c)"><path fill="#9722ff" d="M15.784 9.876a.495.495 0 0 0 .495.495h.842v1.88h-.842a.495.495 0 1 0 0 .99h.842v1.442a.44.44 0 0 1-.439.439H15.24v-.842a.495.495 0 1 0-.99 0v.842h-1.88v-.842a.495.495 0 1 0-.99 0v.842H9.937a.44.44 0 0 1-.438-.439V7.938a.44.44 0 0 1 .438-.438h6.745a.44.44 0 0 1 .439.438V9.38h-.842a.495.495 0 0 0-.495.496"/><path fill="#dc29dd" d="M24.395 9.876a.495.495 0 0 0 .495.495h.843v1.88h-.841a.495.495 0 1 0 0 .99h.841v1.442a.44.44 0 0 1-.438.439h-6.746a.44.44 0 0 1-.438-.439v-1.442h.84a.495.495 0 1 0 0-.99h-.84v-1.88h.84a.494.494 0 0 0 .36-.851.5.5 0 0 0-.36-.14h-.84V7.938a.44.44 0 0 1 .438-.438h6.745a.44.44 0 0 1 .438.438V9.38h-.841a.495.495 0 0 0-.496.496"/><path fill="#27a2fd" d="M34.343 7.938v6.745a.44.44 0 0 1-.438.439h-1.443v-.842a.495.495 0 1 0-.99 0v.842h-1.88v-.842a.495.495 0 1 0-.99 0v.842H27.16a.44.44 0 0 1-.438-.439v-1.442h.841a.495.495 0 1 0 0-.99h-.841v-1.88h.841a.495.495 0 0 0 0-.99h-.841V7.937a.44.44 0 0 1 .438-.438h6.745a.44.44 0 0 1 .438.438"/><path fill="#dc29dd" d="M17.12 16.55v6.745a.44.44 0 0 1-.438.438H15.24v-.841a.495.495 0 1 0-.99 0v.842h-1.88v-.842a.494.494 0 1 0-.99 0v.842H9.937a.44.44 0 0 1-.438-.438V16.55a.44.44 0 0 1 .438-.439h1.443v.842a.495.495 0 1 0 .99 0v-.842h1.88v.842a.495.495 0 1 0 .99 0v-.842h1.442a.44.44 0 0 1 .439.439"/><path fill="#27a2fd" d="M24.395 18.487a.495.495 0 0 0 .495.495h.843v1.88h-.841a.495.495 0 1 0 0 .99h.841v1.443a.44.44 0 0 1-.438.438h-1.443v-.841a.495.495 0 1 0-.99 0v.842h-1.88v-.842a.495.495 0 0 0-.99 0v.842h-1.443a.44.44 0 0 1-.438-.438V16.55a.44.44 0 0 1 .438-.439h6.745a.44.44 0 0 1 .438.439v1.442h-.841a.494.494 0 0 0-.496.495"/><path fill="#34f" d="M34.343 16.55v6.745a.44.44 0 0 1-.438.438H27.16a.44.44 0 0 1-.438-.438v-1.443h.841a.495.495 0 1 0 0-.99h-.841v-1.88h.841a.495.495 0 1 0 0-.99h-.841V16.55a.44.44 0 0 1 .438-.439h1.442v.842a.495.495 0 1 0 .99 0v-.842h1.88v.842a.495.495 0 1 0 .99 0v-.842h1.442a.437.437 0 0 1 .44.439"/><path fill="#9722ff" d="M15.784 27.099a.495.495 0 0 0 .495.495h.842v1.88h-.842a.495.495 0 0 0 0 .99h.842v1.442a.44.44 0 0 1-.439.439H9.937a.44.44 0 0 1-.438-.439v-6.744a.44.44 0 0 1 .438-.439h1.443v.841a.495.495 0 1 0 .99 0v-.84h1.88v.84a.495.495 0 1 0 .99 0v-.84h1.442a.44.44 0 0 1 .439.438v1.44h-.842a.497.497 0 0 0-.495.497"/><path fill="#34f" d="M25.733 25.162v6.744a.44.44 0 0 1-.438.439h-6.746a.44.44 0 0 1-.438-.439v-1.442h.84a.494.494 0 0 0 .36-.85.5.5 0 0 0-.36-.14h-.84v-1.88h.84a.496.496 0 1 0 0-.99h-.84v-1.442a.44.44 0 0 1 .438-.439h1.442v.841a.497.497 0 0 0 .688.472.495.495 0 0 0 .302-.472v-.84h1.881v.84a.495.495 0 1 0 .99 0v-.84h1.442a.44.44 0 0 1 .44.438"/><path fill="#9722ff" d="m31.801 25.033-4.77 4.77a.44.44 0 0 0 0 .62l4.77 4.768a.44.44 0 0 0 .62 0l4.77-4.769a.44.44 0 0 0 0-.62l-4.77-4.77a.44.44 0 0 0-.62 0"/></g><g filter="url(#d)"><path fill="#e8e8e8" d="M44.404 26.5h-1.98l4.45-12.363h2.154l4.45 12.364h-1.98l-3.496-10.118h-.096zm.332-4.84h6.424v1.569h-6.424zm17.153-4.432-3.363 9.273h-1.932l-3.368-9.273h1.938l2.348 7.136h.096l2.343-7.136zm4.129 9.478a3.8 3.8 0 0 1-1.594-.326 2.7 2.7 0 0 1-1.129-.96q-.41-.628-.41-1.54 0-.784.302-1.291.301-.507.814-.803a4.3 4.3 0 0 1 1.148-.447q.633-.15 1.291-.23l1.353-.156q.519-.066.754-.212.236-.144.236-.47v-.043q0-.79-.447-1.225-.44-.435-1.316-.435-.912 0-1.437.405-.519.398-.718.887l-1.696-.386q.301-.845.88-1.365.587-.525 1.347-.76a5.3 5.3 0 0 1 1.6-.242q.556 0 1.177.133.628.128 1.171.47.55.345.9.985.35.634.35 1.648v6.158H68.83v-1.268h-.072a2.6 2.6 0 0 1-.526.688 2.8 2.8 0 0 1-.9.562q-.548.222-1.315.223m.392-1.449q.75 0 1.28-.296.537-.295.815-.772.284-.483.284-1.033v-1.195q-.098.097-.374.181a6 6 0 0 1-.622.139l-.682.103-.556.072q-.525.066-.96.223a1.65 1.65 0 0 0-.688.453q-.254.289-.254.773 0 .67.496 1.014.495.338 1.261.338m6.588 1.244v-9.273h1.805v9.273zm.912-10.704q-.471 0-.81-.314a1.02 1.02 0 0 1-.331-.76q0-.447.332-.761.338-.32.809-.32.47 0 .803.32a1 1 0 0 1 .338.76q0 .441-.338.761-.333.315-.803.314m5.127-1.66v12.364H77.23V14.137zm5.126 12.569a3.8 3.8 0 0 1-1.593-.326 2.7 2.7 0 0 1-1.13-.96q-.41-.628-.41-1.54 0-.784.302-1.291t.815-.803a4.3 4.3 0 0 1 1.147-.447q.634-.15 1.292-.23l1.352-.156q.52-.066.755-.212.235-.144.235-.47v-.043q0-.79-.446-1.225-.441-.435-1.317-.435-.91 0-1.436.405-.52.398-.719.887l-1.696-.386q.302-.845.881-1.365.586-.525 1.347-.76a5.3 5.3 0 0 1 1.6-.242q.555 0 1.177.133.627.128 1.17.47.55.345.9.985.35.634.35 1.648v6.158h-1.762v-1.268h-.073a2.6 2.6 0 0 1-.525.688 2.8 2.8 0 0 1-.9.562q-.55.222-1.316.223m.393-1.449q.748 0 1.28-.296.537-.295.815-.772.283-.483.283-1.033v-1.195q-.096.097-.374.181a6 6 0 0 1-.622.139l-.682.103-.555.072q-.525.066-.96.223a1.65 1.65 0 0 0-.688.453q-.255.289-.254.773 0 .67.495 1.014.494.338 1.262.338m6.733 1.244V14.137h1.805v4.594h.108q.157-.29.453-.67.295-.38.821-.664.525-.29 1.389-.29 1.122 0 2.004.568.88.567 1.382 1.636.507 1.069.507 2.571 0 1.504-.5 2.578-.502 1.07-1.377 1.648-.876.574-1.998.574-.846 0-1.383-.284a2.6 2.6 0 0 1-.833-.664 5 5 0 0 1-.465-.676h-.15V26.5zm1.768-4.637q0 .978.284 1.715.284.736.821 1.153.537.41 1.316.41.81 0 1.352-.428.544-.435.821-1.177.284-.743.284-1.673 0-.916-.278-1.648-.27-.73-.82-1.153-.544-.422-1.359-.422-.785 0-1.328.404-.537.405-.815 1.129t-.278 1.69m10.533-7.727v12.364h-1.805V14.137zm6.425 12.55q-1.37 0-2.36-.585a3.97 3.97 0 0 1-1.522-1.66q-.531-1.074-.531-2.517 0-1.425.531-2.512a4.13 4.13 0 0 1 1.497-1.696q.966-.61 2.258-.61a4.6 4.6 0 0 1 1.522.26 3.7 3.7 0 0 1 1.322.815q.585.555.923 1.443.339.881.338 2.143v.64h-7.371v-1.353h5.603q0-.712-.29-1.261a2.2 2.2 0 0 0-.815-.876q-.52-.32-1.22-.32-.76 0-1.328.375a2.5 2.5 0 0 0-.869.966 2.8 2.8 0 0 0-.302 1.285v1.057q0 .93.326 1.582.332.651.924.996.591.338 1.382.338.513 0 .936-.145.423-.15.73-.447.309-.295.471-.73l1.709.308a3.1 3.1 0 0 1-.737 1.322 3.6 3.6 0 0 1-1.322.875q-.79.308-1.805.308m14.893-9.459v1.449h-5.24v-1.449zm-3.803 9.273V16.153q0-.87.38-1.442.381-.58 1.008-.864a3.2 3.2 0 0 1 1.365-.29q.543 0 .929.091.387.084.574.157l-.423 1.461a8 8 0 0 0-.326-.085 2 2 0 0 0-.483-.054q-.657 0-.941.326-.278.326-.278.942V26.5zm9.206.187q-1.304 0-2.276-.598a4.03 4.03 0 0 1-1.509-1.672q-.537-1.074-.537-2.511 0-1.443.537-2.524a4 4 0 0 1 1.509-1.678q.972-.597 2.276-.598 1.304 0 2.276.598a4 4 0 0 1 1.509 1.678q.538 1.08.538 2.524 0 1.436-.538 2.511a4.03 4.03 0 0 1-1.509 1.672q-.971.598-2.276.598m.006-1.515q.846 0 1.401-.447t.821-1.19q.271-.742.271-1.635 0-.888-.271-1.63-.266-.75-.821-1.202-.555-.453-1.401-.453-.85 0-1.412.453-.556.453-.827 1.202a4.8 4.8 0 0 0-.266 1.63q0 .892.266 1.636.271.742.827 1.189.561.447 1.412.447m6.331 1.328v-9.273h1.745v1.473h.097q.254-.75.893-1.177.647-.435 1.461-.435a8 8 0 0 1 .767.042v1.727a3 3 0 0 0-.387-.067 4 4 0 0 0-.555-.042q-.64 0-1.141.272a2.02 2.02 0 0 0-1.075 1.817v5.663z"/><path fill="url(#e)" d="M151.664 22.058h2.415l1.026 1.31 1.346 1.545 2.071 2.554h-2.704l-1.449-1.733-.858-1.232zm6.943-1.74q0 2.041-.785 3.46t-2.125 2.155q-1.335.737-2.995.737-1.665 0-3-.743-1.334-.742-2.119-2.155-.779-1.419-.779-3.453 0-2.04.779-3.46.785-1.418 2.119-2.155t3-.736q1.66 0 2.995.736 1.34.737 2.125 2.156.785 1.418.785 3.459m-3.055 0q0-1.206-.344-2.04-.339-.833-.978-1.261-.634-.429-1.528-.429-.887 0-1.527.429-.64.428-.984 1.261-.338.834-.338 2.04 0 1.209.338 2.041.344.834.984 1.262t1.527.429q.894 0 1.528-.429.639-.428.978-1.262.344-.832.344-2.04m10.798 2.18v-5.27h2.946v9.273h-2.813v-1.727h-.096a2.7 2.7 0 0 1-1.051 1.352q-.736.495-1.781.495-.948 0-1.666-.434a2.96 2.96 0 0 1-1.117-1.214q-.398-.785-.404-1.835v-5.91h2.952v5.33q.006.756.398 1.19.393.434 1.069.434.44 0 .791-.193a1.43 1.43 0 0 0 .561-.573q.211-.381.211-.918m4.825 4.003V17.23h2.953v9.273zm1.48-10.354q-.622 0-1.069-.41a1.32 1.32 0 0 1-.447-1.002q0-.58.447-.99a1.5 1.5 0 0 1 1.069-.417q.627 0 1.068.417.447.41.447.99 0 .585-.447 1.002-.441.41-1.068.41m6.304-2.01v12.364h-2.952V14.137zm7.113 3.091v2.173h-5.85V17.23zm-4.625-2.222h2.952v8.579q0 .272.085.44.09.165.259.236.17.066.405.066.169 0 .356-.03.193-.036.29-.06l.447 2.13q-.211.061-.598.152a5 5 0 0 1-.912.115q-1.038.048-1.781-.242a2.3 2.3 0 0 1-1.128-.918q-.387-.621-.375-1.563z"/></g></g><rect width="192.858" height="37.858" x="1.071" y="1.071" stroke="#fff" stroke-opacity=".15" stroke-width="2.143" rx="6.929"/><defs><linearGradient id="b" x1="97.501" x2="97.501" y1="0" y2="40.001" gradientUnits="userSpaceOnUse"><stop stop-color="#260c26"/><stop offset="1" stop-color="#0e1c2c"/></linearGradient><linearGradient id="e" x1="146.001" x2="187.001" y1="9.501" y2="9.501" gradientUnits="userSpaceOnUse"><stop stop-color="#e17be1"/><stop offset="1" stop-color="#98a1ff"/></linearGradient><filter id="c" width="40.519" height="40.52" x="2.4" y=".4" color-interpolation-filters="sRGB" filterUnits="userSpaceOnUse"><feFlood flood-opacity="0" result="BackgroundImageFix"/><feColorMatrix in="SourceAlpha" result="hardAlpha" values="0 0 0 0 0 0 0 0 0 0 0 0 0 0 0 0 0 0 127 0"/><feOffset/><feGaussianBlur stdDeviation="2.8"/><feComposite in2="hardAlpha" operator="out"/><feColorMatrix values="0 0 0 0 0 0 0 0 0 0 0 0 0 0 0 0 0 0 0.25 0"/><feBlend in2="BackgroundImageFix" result="effect1_dropShadow_28_2947"/><feBlend in="SourceGraphic" in2="effect1_dropShadow_28_2947" result="shape"/></filter><filter id="d" width="156.429" height="32.429" x="36.287" y="3.786" color-interpolation-filters="sRGB" filterUnits="userSpaceOnUse"><feFlood flood-opacity="0" result="BackgroundImageFix"/><feColorMatrix in="SourceAlpha" result="hardAlpha" values="0 0 0 0 0 0 0 0 0 0 0 0 0 0 0 0 0 0 127 0"/><feOffset/><feGaussianBlur stdDeviation="2.857"/><feComposite in2="hardAlpha" operator="out"/><feColorMatrix values="0 0 0 0 0 0 0 0 0 0 0 0 0 0 0 0 0 0 0.25 0"/><feBlend in2="BackgroundImageFix" result="effect1_dropShadow_28_2947"/><feBlend in="SourceGraphic" in2="effect1_dropShadow_28_2947" result="shape"/></filter><clipPath id="a"><rect width="195.001" height="40.001" fill="#fff" rx="8"/></clipPath></defs></svg>