<svg xmlns="http://www.w3.org/2000/svg" width="219" height="40" fill="none" viewBox="0 0 219 40"><g clip-path="url(#a)"><rect width="219.001" height="40.001" fill="url(#b)" rx="8"/><g fill="#f7cf0d" filter="url(#c)"><path d="M34.6 6H9.4C8.63 6 8 6.63 8 7.4v25.201c0 .77.63 1.4 1.4 1.4h2.254c-.238-6.398-.014-7.35.434-7.98.546-.784.77-.882 1.596-1.54.7-.56.448-1.47-.056-2.128-.308-.406-.742-.882-1.078-1.344-.21-.308.308-2.114.504-2.772s.532-2.8 3.472-3.375c1.106-.224 4.144-.378 6.23-.252-.014-.084-.042-.182-.056-.28-.042-.168-.07-.35-.112-.546-.042-.182-.084-.378-.126-.574s-.098-.392-.14-.602c-.056-.21-.098-.406-.168-.616a9 9 0 0 0-.42-1.218 5 5 0 0 0-.266-.546c-.098-.154-.196-.294-.28-.35-.014-.014-.028-.028-.042-.028h-.014.028s.014 0 0 0l-.042-.014h-.028l-.056-.014h-.07a4 4 0 0 0-.588 0 8 8 0 0 0-1.26.21c-.42.098-.826.224-1.218.336-.168.056-.322.112-.476.154.014.126.028.238.028.364 0 1.82-1.47 3.29-3.29 3.29a3.274 3.274 0 0 1-3.276-3.29c0-1.82 1.47-3.29 3.29-3.29a3.29 3.29 0 0 1 2.856 1.652c.14-.056.294-.112.448-.168.392-.154.826-.308 1.274-.448.462-.14.938-.28 1.47-.35.266-.042.546-.056.854-.042h.112c.042 0 .084.014.112.014h.098l.042.014h.014l.042.014s.028 0 .042.014l.056.014c.084.028.126.042.182.07s.098.042.154.07c.098.056.182.112.266.168q.231.189.378.378c.112.126.196.252.28.378.168.252.294.49.406.728.224.476.406.952.546 1.4l.21.672c.07.224.112.434.168.644.028.098.056.21.07.308.028.098.042.196.07.294.042.196.084.392.126.574.056.28.098.546.14.784 3.137.308 5.53.714 6.609 1.792 1.582 1.54 2.8 8.541 2.002 17.431h1.4c.77 0 1.4-.63 1.4-1.4v-25.2A1.406 1.406 0 0 0 34.6 6"/><path d="M20.796 25.713c-.182.504-.336 6.398 1.4 6.398s1.75-6.048 1.694-6.398c-.056-.336-2.912-.49-3.094 0M18.5 20c-1.19-.168-1.904 5.628-.238 5.964 1.568.308 1.414-5.796.238-5.964m7.812 0c-1.19-.168-1.904 5.628-.238 5.964 1.568.308 1.428-5.796.238-5.964"/></g><g filter="url(#d)"><path fill="#e8e8e8" d="M44.404 26.5h-1.98l4.45-12.363h2.154l4.45 12.364h-1.98l-3.496-10.118h-.096zm.332-4.841h6.424v1.57h-6.424zm17.153-4.431L58.526 26.5h-1.932l-3.368-9.273h1.938l2.348 7.136h.096l2.343-7.136zm4.129 9.478a3.8 3.8 0 0 1-1.594-.326 2.7 2.7 0 0 1-1.129-.96q-.41-.628-.41-1.54 0-.784.302-1.291.301-.507.814-.803a4.3 4.3 0 0 1 1.148-.447q.633-.15 1.291-.23l1.353-.156q.519-.066.754-.212.236-.144.236-.47v-.043q0-.79-.447-1.225-.44-.435-1.316-.435-.912 0-1.437.405-.519.398-.718.887l-1.696-.386q.301-.845.88-1.365.587-.525 1.347-.76a5.3 5.3 0 0 1 1.6-.242q.556 0 1.177.133.628.128 1.171.47.55.345.9.985.35.634.35 1.648v6.158H68.83v-1.268h-.072a2.6 2.6 0 0 1-.526.688 2.8 2.8 0 0 1-.9.562q-.548.222-1.315.223m.392-1.449q.75 0 1.28-.296a2.07 2.07 0 0 0 .815-.772q.284-.484.284-1.033v-1.195q-.098.097-.374.181a6 6 0 0 1-.622.139l-.682.103-.556.072q-.525.067-.96.223a1.65 1.65 0 0 0-.688.453q-.254.289-.254.773 0 .67.496 1.014.495.338 1.261.338m6.588 1.244v-9.273h1.805V26.5zm.912-10.704q-.471 0-.81-.314a1.02 1.02 0 0 1-.331-.76q0-.447.332-.761.338-.32.809-.32.47 0 .803.32a1 1 0 0 1 .338.76q0 .441-.338.761-.333.315-.803.314m5.127-1.66v12.364H77.23V14.137zm5.126 12.569a3.8 3.8 0 0 1-1.593-.326 2.7 2.7 0 0 1-1.13-.96q-.41-.628-.41-1.54 0-.784.302-1.291t.815-.803a4.3 4.3 0 0 1 1.147-.447q.634-.15 1.292-.23l1.352-.156q.52-.066.755-.212.235-.144.235-.47v-.043q0-.79-.446-1.225-.441-.435-1.317-.435-.91 0-1.436.405-.52.398-.719.887l-1.696-.386q.302-.845.881-1.365.586-.525 1.347-.76a5.3 5.3 0 0 1 1.6-.242q.555 0 1.177.133.627.128 1.17.47.55.345.9.985.35.634.35 1.648v6.158h-1.762v-1.268h-.073a2.6 2.6 0 0 1-.525.688 2.8 2.8 0 0 1-.9.562q-.55.222-1.316.223m.393-1.449q.748 0 1.28-.296a2.07 2.07 0 0 0 .815-.772q.283-.484.283-1.033v-1.195q-.096.097-.374.181a6 6 0 0 1-.622.139l-.682.103-.555.072q-.525.067-.96.223a1.65 1.65 0 0 0-.688.453q-.255.289-.254.773 0 .67.495 1.014.494.338 1.262.338m6.733 1.244V14.137h1.805v4.594h.108q.157-.29.453-.67.295-.38.821-.664.525-.29 1.389-.29 1.122 0 2.004.568.88.567 1.382 1.636.507 1.069.507 2.571t-.5 2.578q-.502 1.069-1.377 1.648-.876.574-1.998.574-.846 0-1.383-.284a2.6 2.6 0 0 1-.833-.664 5 5 0 0 1-.465-.676h-.15V26.5zm1.768-4.637q0 .978.284 1.715.284.736.821 1.153.537.41 1.316.41.81 0 1.352-.428.544-.435.821-1.177.284-.743.284-1.673 0-.916-.278-1.648-.27-.73-.82-1.153-.544-.422-1.359-.422-.785 0-1.328.404-.537.405-.815 1.129t-.278 1.69m10.533-7.727v12.364h-1.805V14.137zm6.425 12.55q-1.37 0-2.36-.585a3.97 3.97 0 0 1-1.522-1.66q-.531-1.074-.531-2.517 0-1.425.531-2.512a4.13 4.13 0 0 1 1.497-1.696q.966-.61 2.258-.61.785 0 1.522.26.736.259 1.322.815.585.555.923 1.443.339.881.338 2.143v.64h-7.371v-1.353h5.603q0-.712-.29-1.261a2.2 2.2 0 0 0-.815-.876q-.52-.32-1.22-.32-.76 0-1.328.375a2.5 2.5 0 0 0-.869.966 2.8 2.8 0 0 0-.302 1.285v1.057q0 .93.326 1.582.332.651.924.996.591.338 1.382.338.513 0 .936-.145.423-.15.73-.447.309-.295.471-.73l1.709.308a3.1 3.1 0 0 1-.737 1.322 3.6 3.6 0 0 1-1.322.875q-.79.308-1.805.308m14.893-9.46v1.45h-5.24v-1.45zm-3.803 9.274V16.153q0-.87.38-1.442.381-.58 1.008-.864a3.2 3.2 0 0 1 1.365-.29q.543 0 .929.091.387.084.574.157l-.423 1.46a8 8 0 0 0-.326-.084 2 2 0 0 0-.483-.054q-.657 0-.941.326-.278.326-.278.942V26.5zm9.206.187q-1.304 0-2.276-.598a4.03 4.03 0 0 1-1.509-1.672q-.537-1.075-.537-2.511 0-1.443.537-2.524a4 4 0 0 1 1.509-1.678q.972-.598 2.276-.598t2.276.598a4 4 0 0 1 1.509 1.678q.538 1.08.538 2.524 0 1.436-.538 2.51a4.03 4.03 0 0 1-1.509 1.673q-.971.598-2.276.598m.006-1.515q.846 0 1.401-.447t.821-1.19q.271-.742.271-1.636 0-.886-.271-1.63-.266-.748-.821-1.2-.555-.454-1.401-.454-.85 0-1.412.453-.556.453-.827 1.202a4.8 4.8 0 0 0-.266 1.63q0 .892.266 1.636.271.742.827 1.189.561.447 1.412.447m6.331 1.328v-9.273h1.745V18.7h.097q.254-.75.893-1.177.647-.435 1.461-.435a8 8 0 0 1 .767.042v1.727a3 3 0 0 0-.387-.067 4 4 0 0 0-.555-.042q-.64 0-1.141.272a2.02 2.02 0 0 0-1.075 1.817V26.5z"/><path fill="#f7cf0d" d="M153.62 17.844q-.06-.664-.537-1.033-.471-.374-1.346-.374-.58 0-.966.151-.387.15-.58.417a1 1 0 0 0-.199.597.9.9 0 0 0 .109.49q.126.21.362.373.242.158.579.278.338.12.761.212l1.062.241q.918.2 1.618.531.707.332 1.184.791.483.459.73 1.056.248.599.254 1.34-.007 1.172-.592 2.011t-1.684 1.286q-1.093.447-2.638.447-1.552 0-2.705-.465t-1.793-1.413-.658-2.396h2.862q.036.597.319.996.285.398.779.603.502.206 1.159.206.604 0 1.027-.163.428-.164.658-.453t.235-.664a.9.9 0 0 0-.217-.598q-.211-.254-.652-.435-.435-.187-1.111-.344l-1.292-.302q-1.606-.368-2.529-1.189-.924-.827-.918-2.233-.006-1.148.616-2.01.621-.864 1.72-1.347 1.1-.483 2.506-.483 1.436 0 2.493.489 1.063.483 1.648 1.358t.598 2.029zm4.54 12.134v-12.75h2.922v1.588h.09q.181-.423.513-.815.339-.393.858-.64.525-.255 1.255-.254.966 0 1.805.507.846.508 1.365 1.564t.519 2.692q0 1.575-.501 2.639-.495 1.063-1.34 1.593a3.4 3.4 0 0 1-1.866.532q-.7 0-1.213-.23a2.6 2.6 0 0 1-.863-.604 2.9 2.9 0 0 1-.532-.803h-.06v4.98zm2.892-8.114q0 .75.199 1.304.206.555.585.864.387.3.924.301.543 0 .924-.301.38-.309.573-.864.2-.555.199-1.304 0-.748-.199-1.298-.193-.55-.573-.85-.375-.303-.924-.303-.543 0-.924.296-.38.296-.585.845-.2.55-.199 1.31m12.31 4.812q-1.461 0-2.511-.598a4.1 4.1 0 0 1-1.612-1.678q-.561-1.08-.561-2.505 0-1.431.561-2.506.567-1.08 1.612-1.678 1.05-.604 2.511-.604 1.46 0 2.506.604 1.05.598 1.612 1.678.567 1.075.567 2.506 0 1.424-.567 2.505a4.1 4.1 0 0 1-1.612 1.678q-1.045.598-2.506.598m.018-2.228q.532 0 .9-.326.368-.327.561-.905.2-.58.2-1.34 0-.773-.2-1.353-.193-.58-.561-.905a1.3 1.3 0 0 0-.9-.326q-.55 0-.929.326-.375.326-.574.905-.193.58-.193 1.352 0 .762.193 1.34.2.58.574.906.38.326.929.326m9.131-3.236v5.289h-2.952v-9.273h2.807v1.702h.103a2.6 2.6 0 0 1 1.05-1.334q.744-.489 1.769-.489.978 0 1.697.44.724.435 1.123 1.22.404.78.398 1.823v5.91h-2.952v-5.33q.006-.773-.392-1.207-.393-.435-1.093-.435-.465 0-.821.205a1.36 1.36 0 0 0-.544.574q-.186.375-.193.905m12.145 8.96q-1.322 0-2.264-.37-.942-.367-1.479-1.007a2.8 2.8 0 0 1-.646-1.45l2.795-.156q.079.284.29.495.217.211.562.326.35.114.821.115.742 0 1.225-.363.489-.356.489-1.25v-1.63h-.103a2.2 2.2 0 0 1-.531.767 2.5 2.5 0 0 1-.887.532q-.525.193-1.208.193a3.75 3.75 0 0 1-1.859-.471q-.839-.477-1.346-1.473-.501-1.002-.501-2.578 0-1.623.519-2.674.52-1.056 1.358-1.564a3.47 3.47 0 0 1 1.817-.507q.73 0 1.25.254.525.247.863.64.339.392.513.815h.085v-1.588h2.94v9.309q0 1.177-.592 1.986-.592.81-1.654 1.226-1.062.422-2.457.422m.091-5.947q.537 0 .917-.284t.586-.815q.205-.531.205-1.274 0-.755-.205-1.298-.2-.55-.586-.845a1.45 1.45 0 0 0-.917-.296q-.55 0-.93.302t-.58.851q-.192.544-.193 1.286 0 .743.199 1.274.2.531.574.815.38.285.93.284m10.828 2.45q-1.455 0-2.511-.573a3.97 3.97 0 0 1-1.618-1.648q-.561-1.074-.561-2.553 0-1.437.567-2.512.567-1.08 1.6-1.678 1.032-.604 2.433-.604.99 0 1.811.308a3.9 3.9 0 0 1 1.419.912q.597.604.929 1.49.333.882.332 2.023v.737h-8.059v-1.715h5.313a1.7 1.7 0 0 0-.224-.839 1.5 1.5 0 0 0-.598-.573 1.7 1.7 0 0 0-.863-.212q-.495 0-.887.224a1.68 1.68 0 0 0-.863 1.449v1.744q0 .567.223.996.223.423.634.658.41.236.978.236.392 0 .712-.109t.549-.32.345-.52l2.71.08a3.36 3.36 0 0 1-.742 1.587q-.568.67-1.492 1.044-.923.369-2.137.369"/></g></g><rect width="216.858" height="37.858" x="1.071" y="1.071" stroke="#fff" stroke-opacity=".15" stroke-width="2.143" rx="6.929"/><defs><filter id="c" width="39.203" height="39.202" x="2.399" y=".4" color-interpolation-filters="sRGB" filterUnits="userSpaceOnUse"><feFlood flood-opacity="0" result="BackgroundImageFix"/><feColorMatrix in="SourceAlpha" result="hardAlpha" values="0 0 0 0 0 0 0 0 0 0 0 0 0 0 0 0 0 0 127 0"/><feOffset/><feGaussianBlur stdDeviation="2.8"/><feComposite in2="hardAlpha" operator="out"/><feColorMatrix values="0 0 0 0 0 0 0 0 0 0 0 0 0 0 0 0 0 0 0.25 0"/><feBlend in2="BackgroundImageFix" result="effect1_dropShadow_28_3005"/><feBlend in="SourceGraphic" in2="effect1_dropShadow_28_3005" result="shape"/></filter><filter id="d" width="180.429" height="32.429" x="36.287" y="3.786" color-interpolation-filters="sRGB" filterUnits="userSpaceOnUse"><feFlood flood-opacity="0" result="BackgroundImageFix"/><feColorMatrix in="SourceAlpha" result="hardAlpha" values="0 0 0 0 0 0 0 0 0 0 0 0 0 0 0 0 0 0 127 0"/><feOffset/><feGaussianBlur stdDeviation="2.857"/><feComposite in2="hardAlpha" operator="out"/><feColorMatrix values="0 0 0 0 0 0 0 0 0 0 0 0 0 0 0 0 0 0 0.25 0"/><feBlend in2="BackgroundImageFix" result="effect1_dropShadow_28_3005"/><feBlend in="SourceGraphic" in2="effect1_dropShadow_28_3005" result="shape"/></filter><linearGradient id="b" x1="109.501" x2="109.501" y1="0" y2="40.001" gradientUnits="userSpaceOnUse"><stop stop-color="#353518"/><stop offset="1" stop-color="#241f10"/></linearGradient><clipPath id="a"><rect width="219.001" height="40.001" fill="#fff" rx="8"/></clipPath></defs></svg>