<svg xmlns="http://www.w3.org/2000/svg" width="211" height="40" fill="none" viewBox="0 0 211 40"><g clip-path="url(#a)"><rect width="211.001" height="40.001" fill="url(#b)" rx="8"/><g fill="#fff" filter="url(#c)"><path d="M13.994 6.093c-2.789.498-5.033 2.562-5.74 5.276-.256.98-.273 1.553-.244 9.154.017 6.98.023 7.143.14 7.682.643 2.905 2.707 4.974 5.641 5.659.383.087.87.104 4.007.121 3.248.023 3.584.018 3.671-.07.087-.086.093-1.205.093-13.89 0-9.404-.018-13.834-.058-13.915-.058-.104-.157-.11-3.555-.104-2.76.006-3.59.023-3.955.087m5.248 13.914v11.746l-2.36-.029c-2.175-.023-2.406-.035-2.841-.145-1.868-.48-3.254-1.919-3.642-3.791-.128-.586-.128-15.01-.006-15.584a4.98 4.98 0 0 1 3.004-3.59c.765-.306 1.12-.341 3.601-.347l2.244-.006z"/><path d="M14.493 11.804c-.366.07-.922.347-1.218.608-.609.528-.91 1.276-.864 2.157.023.458.052.58.238.95a2.64 2.64 0 0 0 1.246 1.253c.389.192.488.215.992.232.458.017.62 0 .928-.104 1.258-.423 2.018-1.647 1.803-2.9-.25-1.49-1.664-2.486-3.125-2.196m9.892-5.764c-.023.018-.04 6.303-.04 13.967 0 12.645.006 13.926.093 13.961.156.058 4.656.035 5.213-.023 2.354-.267 4.43-1.699 5.56-3.827.146-.272.337-.73.436-1.014.365-1.09.353-.8.353-9.131 0-6.65-.011-7.642-.092-8.065-.575-3.02-2.877-5.3-5.904-5.82C29.6 6.017 28.972 6 26.954 6c-1.392 0-2.551.018-2.569.04m6.193 12.628a2.84 2.84 0 0 1 1.949 1.809c.191.545.185 1.345-.006 1.843-.354.917-1.05 1.56-1.943 1.798-1.45.377-2.992-.499-3.415-1.937-.128-.44-.122-1.182.023-1.634.435-1.421 1.943-2.256 3.392-1.879"/></g><g filter="url(#d)"><path fill="#e8e8e8" d="M44.404 26.5h-1.98l4.45-12.363h2.154l4.45 12.364h-1.98l-3.496-10.118h-.096zm.332-4.841h6.424v1.57h-6.424zm17.153-4.431L58.526 26.5h-1.932l-3.368-9.273h1.938l2.348 7.136h.096l2.343-7.136zm4.129 9.478a3.8 3.8 0 0 1-1.594-.326 2.7 2.7 0 0 1-1.129-.96q-.41-.628-.41-1.54 0-.784.302-1.291.301-.507.814-.803a4.3 4.3 0 0 1 1.148-.447q.633-.15 1.291-.23l1.353-.156q.519-.066.754-.212.236-.144.236-.47v-.043q0-.79-.447-1.225-.44-.435-1.316-.435-.912 0-1.437.405-.519.398-.718.887l-1.696-.386q.301-.845.88-1.365.587-.525 1.347-.76a5.3 5.3 0 0 1 1.6-.242q.556 0 1.177.133.628.128 1.171.47.55.345.9.985.35.634.35 1.648v6.158H68.83v-1.268h-.072a2.6 2.6 0 0 1-.526.688 2.8 2.8 0 0 1-.9.562q-.548.222-1.315.223m.392-1.449q.75 0 1.28-.296a2.07 2.07 0 0 0 .815-.772q.284-.484.284-1.033v-1.195q-.098.097-.374.181a6 6 0 0 1-.622.139l-.682.103-.556.072q-.525.067-.96.223a1.65 1.65 0 0 0-.688.453q-.254.289-.254.773 0 .67.496 1.014.495.338 1.261.338m6.588 1.244v-9.273h1.805V26.5zm.912-10.704q-.471 0-.81-.314a1.02 1.02 0 0 1-.331-.76q0-.447.332-.761.338-.32.809-.32.47 0 .803.32a1 1 0 0 1 .338.76q0 .441-.338.761-.333.315-.803.314m5.127-1.66v12.364H77.23V14.137zm5.126 12.569a3.8 3.8 0 0 1-1.593-.326 2.7 2.7 0 0 1-1.13-.96q-.41-.628-.41-1.54 0-.784.302-1.291t.815-.803a4.3 4.3 0 0 1 1.147-.447q.634-.15 1.292-.23l1.352-.156q.52-.066.755-.212.235-.144.235-.47v-.043q0-.79-.446-1.225-.441-.435-1.317-.435-.91 0-1.436.405-.52.398-.719.887l-1.696-.386q.302-.845.881-1.365.586-.525 1.347-.76a5.3 5.3 0 0 1 1.6-.242q.555 0 1.177.133.627.128 1.17.47.55.345.9.985.35.634.35 1.648v6.158h-1.762v-1.268h-.073a2.6 2.6 0 0 1-.525.688 2.8 2.8 0 0 1-.9.562q-.55.222-1.316.223m.393-1.449q.748 0 1.28-.296a2.07 2.07 0 0 0 .815-.772q.283-.484.283-1.033v-1.195q-.096.097-.374.181a6 6 0 0 1-.622.139l-.682.103-.555.072q-.525.067-.96.223a1.65 1.65 0 0 0-.688.453q-.255.289-.254.773 0 .67.495 1.014.494.338 1.262.338m6.733 1.244V14.137h1.805v4.594h.108q.157-.29.453-.67.295-.38.821-.664.525-.29 1.389-.29 1.122 0 2.004.568.88.567 1.382 1.636.507 1.069.507 2.571t-.5 2.578q-.502 1.069-1.377 1.648-.876.574-1.998.574-.846 0-1.383-.284a2.6 2.6 0 0 1-.833-.664 5 5 0 0 1-.465-.676h-.15V26.5zm1.768-4.637q0 .978.284 1.715.284.736.821 1.153.537.41 1.316.41.81 0 1.352-.428.544-.435.821-1.177.284-.743.284-1.673 0-.916-.278-1.648-.27-.73-.82-1.153-.544-.422-1.359-.422-.785 0-1.328.404-.537.405-.815 1.129t-.278 1.69m10.533-7.727v12.364h-1.805V14.137zm6.425 12.55q-1.37 0-2.36-.585a3.97 3.97 0 0 1-1.522-1.66q-.531-1.074-.531-2.517 0-1.425.531-2.512a4.13 4.13 0 0 1 1.497-1.696q.966-.61 2.258-.61.785 0 1.522.26.736.259 1.322.815.585.555.923 1.443.339.881.338 2.143v.64h-7.371v-1.353h5.603q0-.712-.29-1.261a2.2 2.2 0 0 0-.815-.876q-.52-.32-1.22-.32-.76 0-1.328.375a2.5 2.5 0 0 0-.869.966 2.8 2.8 0 0 0-.302 1.285v1.057q0 .93.326 1.582.332.651.924.996.591.338 1.382.338.513 0 .936-.145.423-.15.73-.447.309-.295.471-.73l1.709.308a3.1 3.1 0 0 1-.737 1.322 3.6 3.6 0 0 1-1.322.875q-.79.308-1.805.308m14.386 0q-1.304 0-2.276-.597a4.03 4.03 0 0 1-1.509-1.672q-.537-1.075-.537-2.511 0-1.443.537-2.524a4 4 0 0 1 1.509-1.678q.972-.598 2.276-.598t2.276.598a4 4 0 0 1 1.509 1.678q.537 1.08.537 2.524 0 1.436-.537 2.51a4.03 4.03 0 0 1-1.509 1.673q-.972.598-2.276.598m.006-1.515q.845 0 1.401-.446.555-.447.821-1.19.271-.742.271-1.636 0-.886-.271-1.63-.266-.748-.821-1.2-.556-.454-1.401-.454-.85 0-1.413.453-.555.453-.827 1.202a4.8 4.8 0 0 0-.265 1.63q0 .892.265 1.636.272.742.827 1.189.563.447 1.413.447m8.136-4.177v5.506h-1.805v-9.273h1.733v1.51h.115a2.65 2.65 0 0 1 1.002-1.184q.688-.447 1.732-.447.949 0 1.66.399.713.392 1.105 1.17.393.78.393 1.927V26.5h-1.805v-5.68q0-1.008-.526-1.576-.525-.573-1.442-.573-.628 0-1.117.271a1.95 1.95 0 0 0-.767.797q-.278.52-.278 1.256"/><path fill="#fff" d="M151.62 17.844q-.06-.664-.537-1.033-.471-.374-1.346-.374-.58 0-.966.151-.387.15-.58.417a1 1 0 0 0-.199.597.9.9 0 0 0 .109.49q.126.21.362.373.242.158.579.278.338.12.761.212l1.062.241q.918.2 1.618.531.707.332 1.184.791.483.459.73 1.056.248.599.254 1.34-.007 1.172-.592 2.011t-1.684 1.286q-1.093.447-2.638.447-1.552 0-2.705-.465t-1.793-1.413-.658-2.396h2.862q.036.597.319.996.285.398.779.603.502.206 1.159.206.604 0 1.027-.163.428-.164.658-.453t.235-.664a.9.9 0 0 0-.217-.598q-.211-.254-.652-.435-.435-.187-1.111-.344l-1.292-.302q-1.606-.368-2.529-1.189-.924-.827-.918-2.233-.006-1.148.616-2.01.621-.864 1.72-1.347 1.1-.483 2.506-.483 1.436 0 2.493.489 1.063.483 1.648 1.358t.598 2.029zm6.272 8.657-2.414-9.273h2.964l1.249 5.94h.079l1.34-5.94h2.892l1.376 5.898h.079l1.213-5.898h2.964l-2.421 9.273h-3.157l-1.449-5.403h-.102l-1.449 5.403zm12.927 0v-9.273h2.952V26.5zm1.479-10.354q-.622 0-1.068-.41a1.32 1.32 0 0 1-.447-1.002q0-.58.447-.99a1.5 1.5 0 0 1 1.068-.417 1.5 1.5 0 0 1 1.069.417q.446.41.446.99 0 .585-.446 1.002-.44.41-1.069.41m8.586 1.08v2.174h-5.85v-2.173zm-4.624-2.22h2.952v8.578q0 .271.084.44a.53.53 0 0 0 .26.236q.169.066.404.066.17 0 .357-.03.192-.036.289-.06l.447 2.13q-.211.061-.598.152-.38.09-.911.115-1.038.048-1.781-.242a2.3 2.3 0 0 1-1.129-.918q-.386-.621-.374-1.563zm10.359 11.669q-1.467 0-2.517-.604a4.1 4.1 0 0 1-1.606-1.678q-.561-1.08-.561-2.5 0-1.424.561-2.499a4.1 4.1 0 0 1 1.612-1.684q1.05-.604 2.505-.604 1.286 0 2.24.465.96.465 1.497 1.316.543.845.574 1.986h-2.759q-.085-.712-.483-1.117-.393-.404-1.027-.404-.513 0-.899.29-.387.283-.604.845-.211.555-.211 1.376t.211 1.389q.217.561.604.851.386.285.899.284.411 0 .725-.175.32-.175.525-.514.205-.344.26-.833h2.759q-.043 1.147-.574 2.005a3.55 3.55 0 0 1-1.479 1.334q-.948.47-2.252.47m8.767-5.464V26.5h-2.952V14.137h2.856v4.793h.102a2.7 2.7 0 0 1 1.027-1.34q.718-.483 1.756-.483.978 0 1.703.435.724.429 1.123 1.213.404.786.398 1.835v5.91h-2.952v-5.33q.006-.773-.386-1.207-.393-.435-1.105-.435-.465 0-.821.205a1.4 1.4 0 0 0-.549.574q-.194.375-.2.905"/></g></g><rect width="208.858" height="37.858" x="1.071" y="1.071" stroke="#fff" stroke-opacity=".15" stroke-width="2.143" rx="6.929"/><defs><filter id="c" width="39.203" height="39.202" x="2.399" y=".4" color-interpolation-filters="sRGB" filterUnits="userSpaceOnUse"><feFlood flood-opacity="0" result="BackgroundImageFix"/><feColorMatrix in="SourceAlpha" result="hardAlpha" values="0 0 0 0 0 0 0 0 0 0 0 0 0 0 0 0 0 0 127 0"/><feOffset/><feGaussianBlur stdDeviation="2.8"/><feComposite in2="hardAlpha" operator="out"/><feColorMatrix values="0 0 0 0 0 0 0 0 0 0 0 0 0 0 0 0 0 0 0.25 0"/><feBlend in2="BackgroundImageFix" result="effect1_dropShadow_28_3051"/><feBlend in="SourceGraphic" in2="effect1_dropShadow_28_3051" result="shape"/></filter><filter id="d" width="172.429" height="32.429" x="36.287" y="3.786" color-interpolation-filters="sRGB" filterUnits="userSpaceOnUse"><feFlood flood-opacity="0" result="BackgroundImageFix"/><feColorMatrix in="SourceAlpha" result="hardAlpha" values="0 0 0 0 0 0 0 0 0 0 0 0 0 0 0 0 0 0 127 0"/><feOffset/><feGaussianBlur stdDeviation="2.857"/><feComposite in2="hardAlpha" operator="out"/><feColorMatrix values="0 0 0 0 0 0 0 0 0 0 0 0 0 0 0 0 0 0 0.25 0"/><feBlend in2="BackgroundImageFix" result="effect1_dropShadow_28_3051"/><feBlend in="SourceGraphic" in2="effect1_dropShadow_28_3051" result="shape"/></filter><linearGradient id="b" x1="0" x2="-3.042" y1="0" y2="39.769" gradientUnits="userSpaceOnUse"><stop stop-color="#40080b"/><stop offset="1" stop-color="#240507"/></linearGradient><clipPath id="a"><rect width="211.001" height="40.001" fill="#fff" rx="8"/></clipPath></defs></svg>