<svg xmlns="http://www.w3.org/2000/svg" width="224" height="40" fill="none" viewBox="0 0 224 40"><rect width="224.001" height="40.001" fill="url(#a)" rx="8"/><rect width="221.858" height="37.858" x="1.071" y="1.071" stroke="#fff" stroke-opacity=".15" stroke-width="2.143" rx="6.929"/><g fill="#fff" filter="url(#b)"><path d="M12.073 26.856c-.194.068-.38.146-.585.144a1.28 1.28 0 0 1-.982-.485c-.242-.3-.48-.594-.703-.902-.553-.766-1.076-1.553-1.62-2.325-.244-.345-.515-.668-.76-1.012-.255-.357-.493-.727-.74-1.089-.027-.038-.081-.042-.081-.089q-.001-.269.005-.541c.005-.171.096-.317.208-.447a.4.4 0 0 0 .046-.064c.155-.283.285-.58.437-.866.705-1.32 1.404-2.645 2.129-3.953.165-.298.234-.695.59-.842.226-.093.47-.143.71-.196q1.23-.27 2.46-.529c.889-.187 1.779-.366 2.667-.554.082-.018.128-.106.212-.106l.391.003c.251.005.496.102.676.276q.079.073.14.157a61 61 0 0 1 1.15 1.666c.147.219.303.324.588.323 5.053-.013 10.106-.009 15.158-.009.422 0 .689.263.69.678 0 .442-.254.695-.7.695H27.11c-.123 0-.247-.005-.37 0-.335.014-.679.277-.734.558a.756.756 0 0 0 .467.882c.085.034.184.04.277.04q2.412.005 4.823.001c.577 0 .878.516.673 1.021-.131.325-.42.402-.72.405-.901.008-1.802.003-2.703.003h-4.664c-.411 0-.667.302-.708.719-.039.402.407.769.84.768 4-.008 8.002-.005 12.004-.005.389 0 .8-.075 1.06.341q.01.012.023.006c.01-.008.025 0 .025.013 0 .17 0 .341-.01.525a.3.3 0 0 1-.115.215c-.192.151-.36.288-.639.285-2.455-.023-4.91-.012-7.366-.012-.463 0-.822.321-.83.732-.008.379.299.765.81.756 1.218-.02 2.437-.003 3.656-.007a.7.7 0 0 1 .68.954c-.126.32-.365.475-.801.475H18.162c-.087 0-.213-.023-.253.025-.235.28-.574.285-.872.349-1.634.35-3.274.667-4.911 1.003zm4.123-12.544c-.271-.132-.615.046-.789.293-.154.22-.277.465-.404.704-.505.952-.997 1.91-1.517 2.853-.144.26-.337.521-.568.694-.195.146-.474.182-.722.235-1.222.263-2.446.515-3.67.773a.6.6 0 0 0-.487.483c-.063.304-.006.582.268.783.269.198.536.116.819.055 1.13-.244 2.262-.483 3.397-.706.423-.083.832.013 1.102.38.757 1.034 1.491 2.086 2.235 3.13.247.347.635.426.962.195.29-.206.38-.689.16-1.006a243 243 0 0 0-2.039-2.88c-.251-.35-.454-.71-.33-1.16.054-.2.16-.386.258-.57.347-.658.706-1.31 1.05-1.97.25-.48.501-.96.718-1.456.11-.253-.021-.492-.213-.663a1 1 0 0 0-.23-.166"/><path d="M33.156 18.676c.288-.381.507-.467.841-.35.288.102.494.462.436.765-.066.352-.426.65-.73.607a.69.69 0 0 1-.592-.688c.001-.104.025-.208.045-.334"/></g><g filter="url(#c)"><path fill="#e8e8e8" d="M44.404 26.5h-1.98l4.45-12.363h2.154l4.45 12.364h-1.98l-3.496-10.118h-.096zm.332-4.841h6.424v1.57h-6.424zm17.153-4.431L58.526 26.5h-1.932l-3.368-9.273h1.938l2.348 7.136h.096l2.343-7.136zm4.129 9.478a3.8 3.8 0 0 1-1.594-.326 2.7 2.7 0 0 1-1.129-.96q-.41-.628-.41-1.54 0-.784.302-1.291.301-.507.814-.803a4.3 4.3 0 0 1 1.148-.447q.633-.15 1.291-.23l1.353-.156q.519-.066.754-.212.236-.144.236-.47v-.043q0-.79-.447-1.225-.44-.435-1.316-.435-.912 0-1.437.405-.519.398-.718.887l-1.696-.386q.301-.845.88-1.365.587-.525 1.347-.76a5.3 5.3 0 0 1 1.6-.242q.556 0 1.177.133.628.128 1.171.47.55.345.9.985.35.634.35 1.648v6.158H68.83v-1.268h-.072a2.6 2.6 0 0 1-.526.688 2.8 2.8 0 0 1-.9.562q-.548.222-1.315.223m.392-1.449q.75 0 1.28-.296a2.07 2.07 0 0 0 .815-.772q.284-.484.284-1.033v-1.195q-.098.097-.374.181a6 6 0 0 1-.622.139l-.682.103-.556.072q-.525.067-.96.223a1.65 1.65 0 0 0-.688.453q-.254.289-.254.773 0 .67.496 1.014.495.338 1.261.338m6.588 1.244v-9.273h1.805V26.5zm.912-10.704q-.471 0-.81-.314a1.02 1.02 0 0 1-.331-.76q0-.447.332-.761.338-.32.809-.32.47 0 .803.32a1 1 0 0 1 .338.76q0 .441-.338.761-.333.315-.803.314m5.127-1.66v12.364H77.23V14.137zm5.126 12.569a3.8 3.8 0 0 1-1.593-.326 2.7 2.7 0 0 1-1.13-.96q-.41-.628-.41-1.54 0-.784.302-1.291t.815-.803a4.3 4.3 0 0 1 1.147-.447q.634-.15 1.292-.23l1.352-.156q.52-.066.755-.212.235-.144.235-.47v-.043q0-.79-.446-1.225-.441-.435-1.317-.435-.91 0-1.436.405-.52.398-.719.887l-1.696-.386q.302-.845.881-1.365.586-.525 1.347-.76a5.3 5.3 0 0 1 1.6-.242q.555 0 1.177.133.627.128 1.17.47.55.345.9.985.35.634.35 1.648v6.158h-1.762v-1.268h-.073a2.6 2.6 0 0 1-.525.688 2.8 2.8 0 0 1-.9.562q-.55.222-1.316.223m.393-1.449q.748 0 1.28-.296a2.07 2.07 0 0 0 .815-.772q.283-.484.283-1.033v-1.195q-.096.097-.374.181a6 6 0 0 1-.622.139l-.682.103-.555.072q-.525.067-.96.223a1.65 1.65 0 0 0-.688.453q-.255.289-.254.773 0 .67.495 1.014.494.338 1.262.338m6.733 1.244V14.137h1.805v4.594h.108q.157-.29.453-.67.295-.38.821-.664.525-.29 1.389-.29 1.122 0 2.004.568.88.567 1.382 1.636.507 1.069.507 2.571t-.5 2.578q-.502 1.069-1.377 1.648-.876.574-1.998.574-.846 0-1.383-.284a2.6 2.6 0 0 1-.833-.664 5 5 0 0 1-.465-.676h-.15V26.5zm1.768-4.637q0 .978.284 1.715.284.736.821 1.153.537.41 1.316.41.81 0 1.352-.428.544-.435.821-1.177.284-.743.284-1.673 0-.916-.278-1.648-.27-.73-.82-1.153-.544-.422-1.359-.422-.785 0-1.328.404-.537.405-.815 1.129t-.278 1.69m10.533-7.727v12.364h-1.805V14.137zm6.425 12.55q-1.37 0-2.36-.585a3.97 3.97 0 0 1-1.522-1.66q-.531-1.074-.531-2.517 0-1.425.531-2.512a4.13 4.13 0 0 1 1.497-1.696q.966-.61 2.258-.61.785 0 1.522.26.736.259 1.322.815.585.555.923 1.443.339.881.338 2.143v.64h-7.371v-1.353h5.603q0-.712-.29-1.261a2.2 2.2 0 0 0-.815-.876q-.52-.32-1.22-.32-.76 0-1.328.375a2.5 2.5 0 0 0-.869.966 2.8 2.8 0 0 0-.302 1.285v1.057q0 .93.326 1.582.332.651.924.996.591.338 1.382.338.513 0 .936-.145.423-.15.73-.447.309-.295.471-.73l1.709.308a3.1 3.1 0 0 1-.737 1.322 3.6 3.6 0 0 1-1.322.875q-.79.308-1.805.308m14.893-9.46v1.45h-5.24v-1.45zm-3.803 9.274V16.153q0-.87.38-1.442.381-.58 1.008-.864a3.2 3.2 0 0 1 1.365-.29q.543 0 .929.091.387.084.574.157l-.423 1.46a8 8 0 0 0-.326-.084 2 2 0 0 0-.483-.054q-.657 0-.941.326-.278.326-.278.942V26.5zm9.206.187q-1.304 0-2.276-.598a4.03 4.03 0 0 1-1.509-1.672q-.537-1.075-.537-2.511 0-1.443.537-2.524a4 4 0 0 1 1.509-1.678q.972-.598 2.276-.598t2.276.598a4 4 0 0 1 1.509 1.678q.538 1.08.538 2.524 0 1.436-.538 2.51a4.03 4.03 0 0 1-1.509 1.673q-.971.598-2.276.598m.006-1.515q.846 0 1.401-.447t.821-1.19q.271-.742.271-1.636 0-.886-.271-1.63-.266-.748-.821-1.2-.555-.454-1.401-.454-.85 0-1.412.453-.556.453-.827 1.202a4.8 4.8 0 0 0-.266 1.63q0 .892.266 1.636.271.742.827 1.189.561.447 1.412.447m6.331 1.328v-9.273h1.745V18.7h.097q.254-.75.893-1.177.647-.435 1.461-.435a8 8 0 0 1 .767.042v1.727a3 3 0 0 0-.387-.067 4 4 0 0 0-.555-.042q-.64 0-1.141.272a2.02 2.02 0 0 0-1.075 1.817V26.5z"/><path fill="#fff" d="m149.744 14.137 2.765 9.055h.103l2.765-9.055h3.344l-4.171 12.364h-3.979L146.4 14.137zm13.531 12.539q-1.455 0-2.512-.574a3.97 3.97 0 0 1-1.618-1.648q-.561-1.074-.561-2.553 0-1.437.567-2.512.568-1.08 1.6-1.678 1.032-.604 2.433-.604.99 0 1.811.308t1.419.912.93 1.49q.332.882.332 2.023v.737h-8.06v-1.715h5.313a1.66 1.66 0 0 0-.224-.839 1.5 1.5 0 0 0-.597-.573 1.73 1.73 0 0 0-.864-.212q-.495 0-.887.224a1.68 1.68 0 0 0-.863 1.449v1.744q0 .567.223.996.223.423.634.658t.978.236q.393 0 .712-.109.32-.109.55-.32.229-.21.344-.52l2.71.08a3.35 3.35 0 0 1-.742 1.587q-.568.67-1.491 1.044-.924.369-2.137.369m8.86-12.539v12.364h-2.952V14.137zm6.208 12.539q-1.46 0-2.512-.598a4.1 4.1 0 0 1-1.611-1.678q-.562-1.08-.562-2.505 0-1.431.562-2.506.567-1.08 1.611-1.678 1.051-.604 2.512-.604t2.505.604q1.05.598 1.612 1.678.567 1.075.567 2.506 0 1.424-.567 2.505a4.07 4.07 0 0 1-1.612 1.678q-1.044.598-2.505.598m.018-2.228q.531 0 .899-.326.369-.327.562-.905.2-.58.199-1.34 0-.773-.199-1.353-.193-.58-.562-.905a1.3 1.3 0 0 0-.899-.326q-.549 0-.93.326-.374.326-.573.905-.193.58-.193 1.352 0 .762.193 1.34.2.58.573.906.381.326.93.326m10.507 2.228q-1.467 0-2.517-.604a4.1 4.1 0 0 1-1.606-1.678q-.561-1.08-.561-2.5 0-1.424.561-2.499a4.1 4.1 0 0 1 1.612-1.684q1.05-.604 2.505-.604 1.286 0 2.24.465.96.465 1.497 1.316.543.845.574 1.986h-2.759q-.085-.712-.483-1.117-.393-.404-1.027-.404-.513 0-.899.29-.387.283-.604.845-.211.555-.211 1.376t.211 1.389q.217.561.604.851.386.285.899.284.411 0 .725-.175.32-.175.525-.514.205-.344.26-.833h2.759q-.043 1.147-.574 2.005a3.55 3.55 0 0 1-1.479 1.334q-.948.47-2.252.47m5.815-.175v-9.273h2.952V26.5zm1.479-10.354q-.621 0-1.068-.41a1.32 1.32 0 0 1-.447-1.002q0-.58.447-.99a1.5 1.5 0 0 1 1.068-.417 1.5 1.5 0 0 1 1.069.417q.447.41.447.99 0 .585-.447 1.002-.44.41-1.069.41m8.586 1.08V19.4h-5.849v-2.173zm-4.624-2.22h2.952v8.578q0 .271.085.44.09.164.259.236.17.066.405.066.168 0 .356-.03.193-.036.29-.06l.446 2.13q-.21.061-.597.152a5 5 0 0 1-.912.115q-1.038.048-1.781-.242a2.3 2.3 0 0 1-1.129-.918q-.386-.621-.374-1.563zm7.936 14.97a5.7 5.7 0 0 1-1.003-.084 4 4 0 0 1-.808-.21l.652-2.144q.434.145.784.17.357.023.61-.116.26-.132.398-.477l.115-.277-3.296-9.611h3.091l1.708 6.616h.097l1.733-6.616h3.109l-3.496 10.16a4.3 4.3 0 0 1-.718 1.34 3.1 3.1 0 0 1-1.189.918q-.725.332-1.787.332"/></g><defs><filter id="b" width="42.002" height="39.202" x="1.001" y=".4" color-interpolation-filters="sRGB" filterUnits="userSpaceOnUse"><feFlood flood-opacity="0" result="BackgroundImageFix"/><feColorMatrix in="SourceAlpha" result="hardAlpha" values="0 0 0 0 0 0 0 0 0 0 0 0 0 0 0 0 0 0 127 0"/><feOffset/><feGaussianBlur stdDeviation="2.8"/><feComposite in2="hardAlpha" operator="out"/><feColorMatrix values="0 0 0 0 0 0 0 0 0 0 0 0 0 0 0 0 0 0 0.25 0"/><feBlend in2="BackgroundImageFix" result="effect1_dropShadow_29_43"/><feBlend in="SourceGraphic" in2="effect1_dropShadow_29_43" result="shape"/></filter><filter id="c" width="185.429" height="32.429" x="36.287" y="3.786" color-interpolation-filters="sRGB" filterUnits="userSpaceOnUse"><feFlood flood-opacity="0" result="BackgroundImageFix"/><feColorMatrix in="SourceAlpha" result="hardAlpha" values="0 0 0 0 0 0 0 0 0 0 0 0 0 0 0 0 0 0 127 0"/><feOffset/><feGaussianBlur stdDeviation="2.857"/><feComposite in2="hardAlpha" operator="out"/><feColorMatrix values="0 0 0 0 0 0 0 0 0 0 0 0 0 0 0 0 0 0 0.25 0"/><feBlend in2="BackgroundImageFix" result="effect1_dropShadow_29_43"/><feBlend in="SourceGraphic" in2="effect1_dropShadow_29_43" result="shape"/></filter><linearGradient id="a" x1="112.001" x2="112.001" y1="0" y2="40.001" gradientUnits="userSpaceOnUse"><stop stop-color="#1d292c"/><stop offset="1" stop-color="#12161c"/></linearGradient></defs></svg>