<svg xmlns="http://www.w3.org/2000/svg" width="232" height="40" fill="none" viewBox="0 0 232 40"><g clip-path="url(#a)"><rect width="232.001" height="40.001" fill="url(#b)" rx="8"/><g filter="url(#c)"><path fill="#fff" fill-rule="evenodd" d="M16.579 6.19c-.59.64-.113.997 1.332.998 1.313 0 2.477.18 3.761.58.501.155.503.115-.04.736-.604.69-1.026 1.214-1.346 1.673l-.462.662c-1.214 1.738-2.822 5.402-3.068 6.99a4 4 0 0 1-.103.429c-.042.141-.118.467-.17.724-.05.257-.142.684-.202.95s-.111.58-.112.7c-.002.473-.055.529-.645.676-3.028.756-5.508 2.09-6.627 3.562-1.546 2.035-1.07 4.373 1.237 6.091.642.478 1.826 1.165 2.294 1.33.178.063.437.165.575.227 1.03.463 3.586 1.122 4.87 1.256.189.02.556.078.817.13.317.063 1.404.095 3.274.097 2.92.002 2.742.016 5.094-.388 1.625-.28 2.664-.579 4.432-1.279 4.843-1.917 5.96-5.992 2.375-8.66-1.522-1.132-3.894-2.105-6.224-2.552-.257-.05-.613-.122-.793-.161a3 3 0 0 0-.525-.072c-.246 0-.268-.463-.084-1.737l.237-1.65c.193-1.357.562-3.2.73-3.639.044-.118.065-.214.045-.214s.012-.131.071-.292c.105-.283.462-1.42.472-1.499.005-.042.173-.49.278-.74l.3-.73c.306-.75 1.054-2.001 1.287-2.154.852-.56 3.047-1.036 4.805-1.045C35.762 7.183 36 7.081 36 6.531c0-.817-3.922-.638-6.066.277-.107.046-.384.159-.617.251-1.355.537-3.088 4.757-3.89 9.47a35 35 0 0 0-.197 1.285 48 48 0 0 1-.115.895c-.358 2.57-.462 8.221-.157 8.517.192.186.571.187.816.002.135-.102.16-.235.194-1.038l.039-.92.745.25c1.218.409 1.938.886 1.938 1.286 0 .504-1.549 1.3-3.247 1.666-.886.191-1.684.341-1.847.346-1.924.065-2.47.331-2.061 1.005l.153.252h.682c1.057.002 2.64-.239 3.909-.593.235-.066.48-.133.544-.15 1.192-.302 2.543-1.172 2.87-1.848.65-1.346-.884-2.833-3.472-3.364-.248-.05-.253-.06-.253-.479 0-.37.018-.422.136-.386.075.022.416.114.758.202 5.923 1.538 6.105 4.946.354 6.621a11 11 0 0 1-.778.202c-.109.018-.25.053-.315.077-1.298.486-6.944.486-8.243 0a2 2 0 0 0-.314-.077c-.733-.122-1.878-.534-2.797-1.004-3.045-1.558-2.984-3.492.159-5.027.837-.409.867-.408.837.004-.023.317-.041.338-.568.639-1.654.944-1.99 2.371-.79 3.345 1.216.986 3.254 1.059 2.964.106-.094-.306-.276-.448-.579-.448-.779 0-1.945-.63-1.945-1.052 0-.143.624-.816.757-.816.042 0 .061.081.042.181-.042.22.313.676.526.676.542 0 .66-.293.732-1.83a35 35 0 0 1 .292-3.23c.048-.322.095-.672.105-.78.035-.365.203-1.205.477-2.374.915-3.909 2.345-6.64 5.215-9.954.396-.457.72-.884.72-.95 0-.27-.236-.567-.524-.66a2 2 0 0 1-.37-.153c-.552-.419-2.735-.854-4.55-.908L16.753 6zm10.305.973c-.299.078-1.59 2.07-2.345 3.614-.495 1.013-1.206 2.832-1.332 3.407-.016.07-.135.537-.265 1.038a31 31 0 0 0-.354 1.518c-.065.334-.153.782-.197.996-.043.214-.092.53-.108.7a14 14 0 0 1-.11.78c-.131.78-.4 3.534-.441 4.515-.017.385-.068 1.351-.116 2.147-.105 1.774-.018 2.077.572 1.998.512-.069.568-.258.624-2.126a58 58 0 0 1 .834-8.325c.227-1.3.913-3.766 1.277-4.594.057-.128.197-.46.311-.739.3-.73.697-1.502 1.153-2.244.22-.356.433-.707.476-.778s.23-.334.414-.583c.62-.833.412-1.535-.393-1.324m-2.043.19c-.701.22-3.188 4.164-3.994 6.335a44 44 0 0 0-.839 2.53c-.257.943-.478 1.855-.567 2.335-.052.279-.141.734-.2 1.012-.057.279-.14.77-.185 1.09-.166 1.212-.268 2.052-.263 2.172.003.069-.042.549-.1 1.067-.282 2.526-.16 3.49.44 3.473.427-.012.528-.194.572-1.029.077-1.488.318-4.182.438-4.904.039-.236.084-.57.101-.745a9 9 0 0 1 .117-.74c.4-1.965.436-2.131.553-2.57.552-2.073 1.168-3.728 1.965-5.282.463-.901 1.693-2.777 2.173-3.314.59-.658.674-.99.337-1.327-.209-.209-.21-.21-.548-.103m2.863 14.986c1.837.43 3.59 1.113 5.024 1.955 1.64.964 2.47 2.725 1.888 4.01-.748 1.65-3.902 3.464-6.94 3.99a9 9 0 0 0-.54.115c-.283.072-.835.159-2.1.33-.462.062-1.6.1-3.033.1-1.434 0-2.572-.038-3.033-.1-1.265-.171-1.818-.258-2.1-.33a9 9 0 0 0-.541-.115c-.99-.171-2.77-.774-3.825-1.295-4.475-2.208-4.432-5.223.107-7.416.815-.393 2.49-.987 3.073-1.089.307-.053.34.083.039.157-.118.029-.52.185-.896.346-5.105 2.205-4.476 6.36 1.226 8.093.172.052.451.14.623.194.17.054.538.14.816.19s.663.122.856.159c2.007.38 5.302.38 7.31 0 .192-.037.577-.108.855-.159a8 8 0 0 0 .817-.19c.17-.055.45-.142.622-.194 6.781-2.072 6.083-7.215-1.205-8.875-.194-.045-.22-.065-.092-.071.099-.005.571.082 1.05.195" clip-rule="evenodd"/></g><g filter="url(#d)"><path fill="#e8e8e8" d="M44.404 26.5h-1.98l4.45-12.363h2.154l4.45 12.364h-1.98l-3.496-10.118h-.096zm.332-4.84h6.424v1.569h-6.424zm17.153-4.432-3.363 9.273h-1.932l-3.368-9.273h1.938l2.348 7.136h.096l2.343-7.136zm4.129 9.478a3.8 3.8 0 0 1-1.594-.326 2.7 2.7 0 0 1-1.129-.96q-.41-.628-.41-1.54 0-.784.302-1.291.301-.507.814-.803a4.3 4.3 0 0 1 1.148-.447q.633-.15 1.291-.23l1.353-.156q.519-.066.754-.212.236-.144.236-.47v-.043q0-.79-.447-1.225-.44-.435-1.316-.435-.912 0-1.437.405-.519.398-.718.887l-1.696-.386q.301-.845.88-1.365.587-.525 1.347-.76a5.3 5.3 0 0 1 1.6-.242q.556 0 1.177.133.628.128 1.171.47.55.345.9.985.35.634.35 1.648v6.158H68.83v-1.268h-.072a2.6 2.6 0 0 1-.526.688 2.8 2.8 0 0 1-.9.562q-.548.222-1.315.223m.392-1.449q.75 0 1.28-.296.537-.295.815-.772.284-.483.284-1.033v-1.195q-.098.097-.374.181a6 6 0 0 1-.622.139l-.682.103-.556.072q-.525.066-.96.223a1.65 1.65 0 0 0-.688.453q-.254.289-.254.773 0 .67.496 1.014.495.338 1.261.338m6.588 1.244v-9.273h1.805v9.273zm.912-10.704q-.471 0-.81-.314a1.02 1.02 0 0 1-.331-.76q0-.447.332-.761.338-.32.809-.32.47 0 .803.32a1 1 0 0 1 .338.76q0 .441-.338.761-.333.315-.803.314m5.127-1.66v12.364H77.23V14.137zm5.126 12.569a3.8 3.8 0 0 1-1.593-.326 2.7 2.7 0 0 1-1.13-.96q-.41-.628-.41-1.54 0-.784.302-1.291t.815-.803a4.3 4.3 0 0 1 1.147-.447q.634-.15 1.292-.23l1.352-.156q.52-.066.755-.212.235-.144.235-.47v-.043q0-.79-.446-1.225-.441-.435-1.317-.435-.91 0-1.436.405-.52.398-.719.887l-1.696-.386q.302-.845.881-1.365.586-.525 1.347-.76a5.3 5.3 0 0 1 1.6-.242q.555 0 1.177.133.627.128 1.17.47.55.345.9.985.35.634.35 1.648v6.158h-1.762v-1.268h-.073a2.6 2.6 0 0 1-.525.688 2.8 2.8 0 0 1-.9.562q-.55.222-1.316.223m.393-1.449q.748 0 1.28-.296.537-.295.815-.772.283-.483.283-1.033v-1.195q-.096.097-.374.181a6 6 0 0 1-.622.139l-.682.103-.555.072q-.525.066-.96.223a1.65 1.65 0 0 0-.688.453q-.255.289-.254.773 0 .67.495 1.014.494.338 1.262.338m6.733 1.244V14.137h1.805v4.594h.108q.157-.29.453-.67.295-.38.821-.664.525-.29 1.389-.29 1.122 0 2.004.568.88.567 1.382 1.636.507 1.069.507 2.571 0 1.504-.5 2.578-.502 1.07-1.377 1.648-.876.574-1.998.574-.846 0-1.383-.284a2.6 2.6 0 0 1-.833-.664 5 5 0 0 1-.465-.676h-.15V26.5zm1.768-4.637q0 .978.284 1.715.284.736.821 1.153.537.41 1.316.41.81 0 1.352-.428.544-.435.821-1.177.284-.743.284-1.673 0-.916-.278-1.648-.27-.73-.82-1.153-.544-.422-1.359-.422-.785 0-1.328.404-.537.405-.815 1.129t-.278 1.69m10.533-7.727v12.364h-1.805V14.137zm6.425 12.55q-1.37 0-2.36-.585a3.97 3.97 0 0 1-1.522-1.66q-.531-1.074-.531-2.517 0-1.425.531-2.512a4.13 4.13 0 0 1 1.497-1.696q.966-.61 2.258-.61a4.6 4.6 0 0 1 1.522.26 3.7 3.7 0 0 1 1.322.815q.585.555.923 1.443.339.881.338 2.143v.64h-7.371v-1.353h5.603q0-.712-.29-1.261a2.2 2.2 0 0 0-.815-.876q-.52-.32-1.22-.32-.76 0-1.328.375a2.5 2.5 0 0 0-.869.966 2.8 2.8 0 0 0-.302 1.285v1.057q0 .93.326 1.582.332.651.924.996.591.338 1.382.338.513 0 .936-.145.423-.15.73-.447.309-.295.471-.73l1.709.308a3.1 3.1 0 0 1-.737 1.322 3.6 3.6 0 0 1-1.322.875q-.79.308-1.805.308m14.893-9.459v1.449h-5.24v-1.449zm-3.803 9.273V16.153q0-.87.38-1.442.381-.58 1.008-.864a3.2 3.2 0 0 1 1.365-.29q.543 0 .929.091.387.084.574.157l-.423 1.461a8 8 0 0 0-.326-.085 2 2 0 0 0-.483-.054q-.657 0-.941.326-.278.326-.278.942V26.5zm9.206.187q-1.304 0-2.276-.598a4.03 4.03 0 0 1-1.509-1.672q-.537-1.074-.537-2.511 0-1.443.537-2.524a4 4 0 0 1 1.509-1.678q.972-.597 2.276-.598 1.304 0 2.276.598a4 4 0 0 1 1.509 1.678q.538 1.08.538 2.524 0 1.436-.538 2.511a4.03 4.03 0 0 1-1.509 1.672q-.971.598-2.276.598m.006-1.515q.846 0 1.401-.447t.821-1.19q.271-.742.271-1.635 0-.888-.271-1.63-.266-.75-.821-1.202-.555-.453-1.401-.453-.85 0-1.412.453-.556.453-.827 1.202a4.8 4.8 0 0 0-.266 1.63q0 .892.266 1.636.271.742.827 1.189.561.447 1.412.447m6.331 1.328v-9.273h1.745v1.473h.097q.254-.75.893-1.177.647-.435 1.461-.435a8 8 0 0 1 .767.042v1.727a3 3 0 0 0-.387-.067 4 4 0 0 0-.555-.042q-.64 0-1.141.272a2.02 2.02 0 0 0-1.075 1.817v5.663z"/><path fill="#fff" d="m149.901 26.5-3.598-12.363h3.303l1.865 8.102h.103l2.131-8.102h2.692l2.131 8.12h.103l1.871-8.12h3.296l-3.592 12.364h-2.879l-2.228-7.498h-.096l-2.228 7.498zm16.717.158q-.888 0-1.576-.296a2.46 2.46 0 0 1-1.081-.906q-.392-.609-.392-1.527 0-.773.272-1.304.271-.531.748-.863a3.5 3.5 0 0 1 1.099-.501 7 7 0 0 1 1.328-.236q.79-.072 1.274-.15.483-.086.7-.236a.51.51 0 0 0 .223-.44v-.031q0-.465-.319-.718-.321-.255-.864-.254-.585 0-.942.254a1.12 1.12 0 0 0-.452.7l-2.723-.097a3.2 3.2 0 0 1 .622-1.509q.507-.67 1.388-1.05.888-.387 2.131-.387.888 0 1.636.212.749.205 1.304.603.556.393.858.966.307.574.307 1.31v6.303h-2.777v-1.292h-.072q-.247.471-.634.797-.38.325-.899.489a3.8 3.8 0 0 1-1.159.163m.911-1.932q.477 0 .857-.193.387-.194.616-.532.23-.344.23-.797v-.88a2 2 0 0 1-.308.12q-.175.054-.387.103-.211.048-.434.084l-.429.066a2.7 2.7 0 0 0-.712.206 1.13 1.13 0 0 0-.447.362.9.9 0 0 0-.151.52q0 .457.326.7.332.24.839.24m11.67-7.498V19.4h-5.85v-2.173zm-4.625-2.222h2.952v8.579q0 .272.085.44.09.165.259.236.17.066.405.066.169 0 .356-.03.193-.036.29-.06l.447 2.13q-.212.061-.598.152a5 5 0 0 1-.912.115q-1.038.048-1.781-.242a2.3 2.3 0 0 1-1.128-.918q-.387-.621-.375-1.563zm10.366 11.67q-1.455 0-2.512-.574a3.97 3.97 0 0 1-1.618-1.648q-.561-1.074-.561-2.553 0-1.437.567-2.512.568-1.08 1.6-1.678 1.032-.603 2.433-.604.99 0 1.811.308t1.419.912q.597.604.93 1.49.332.882.332 2.023v.737h-8.06v-1.715h5.313a1.66 1.66 0 0 0-.224-.839 1.5 1.5 0 0 0-.597-.573 1.73 1.73 0 0 0-.864-.212q-.495 0-.887.224a1.68 1.68 0 0 0-.863 1.449v1.744q0 .567.223.996.223.423.634.658t.978.236q.393 0 .712-.109a1.5 1.5 0 0 0 .55-.32q.229-.21.344-.52l2.71.08a3.35 3.35 0 0 1-.742 1.587q-.567.67-1.491 1.044-.924.369-2.137.369m5.908-.175v-9.273h2.868v1.69h.096q.254-.917.828-1.364a2.1 2.1 0 0 1 1.334-.453q.204 0 .422.03.218.025.405.079v2.566a3 3 0 0 0-.556-.115 5 5 0 0 0-.603-.042q-.526 0-.948.235a1.7 1.7 0 0 0-.658.646 1.9 1.9 0 0 0-.236.966V26.5zm12.857-9.273V19.4h-5.964v-2.173zm-4.72 9.273v-9.744q0-1.075.404-1.78.405-.714 1.123-1.063.718-.357 1.66-.357.616 0 1.159.097.55.09.815.163l-.471 2.161a2.4 2.4 0 0 0-.398-.09 3 3 0 0 0-.435-.036q-.519 0-.712.229-.193.23-.193.628V26.5zm8.389.157q-.887 0-1.575-.296a2.46 2.46 0 0 1-1.081-.906q-.392-.609-.392-1.527 0-.773.271-1.304a2.3 2.3 0 0 1 .749-.863 3.5 3.5 0 0 1 1.099-.501 7 7 0 0 1 1.328-.236q.79-.072 1.274-.15.483-.086.7-.236a.51.51 0 0 0 .223-.44v-.031q0-.465-.32-.718-.32-.255-.863-.254-.585 0-.942.254a1.12 1.12 0 0 0-.452.7l-2.723-.097q.12-.844.622-1.509.507-.67 1.388-1.05.888-.387 2.131-.387.888 0 1.636.212.749.205 1.304.603.555.393.857.966.309.574.308 1.31V26.5h-2.777v-1.292h-.072q-.247.471-.634.797-.38.325-.9.489a3.8 3.8 0 0 1-1.159.163m.912-1.932q.477 0 .857-.193.387-.194.616-.532.23-.344.229-.797v-.88a2 2 0 0 1-.307.12q-.175.054-.387.103t-.435.084q-.222.036-.428.066a2.7 2.7 0 0 0-.712.206 1.1 1.1 0 0 0-.447.362.9.9 0 0 0-.151.52q0 .457.326.7.332.24.839.24m9.387-10.589v12.364h-2.952V14.137zm4.831 0v12.364h-2.952V14.137z"/></g></g><rect width="229.858" height="37.858" x="1.071" y="1.071" stroke="#fff" stroke-opacity=".15" stroke-width="2.143" rx="6.929"/><defs><filter id="c" width="39.203" height="39.202" x="2.399" y=".4" color-interpolation-filters="sRGB" filterUnits="userSpaceOnUse"><feFlood flood-opacity="0" result="BackgroundImageFix"/><feColorMatrix in="SourceAlpha" result="hardAlpha" values="0 0 0 0 0 0 0 0 0 0 0 0 0 0 0 0 0 0 127 0"/><feOffset/><feGaussianBlur stdDeviation="2.8"/><feComposite in2="hardAlpha" operator="out"/><feColorMatrix values="0 0 0 0 0 0 0 0 0 0 0 0 0 0 0 0 0 0 0.25 0"/><feBlend in2="BackgroundImageFix" result="effect1_dropShadow_29_12"/><feBlend in="SourceGraphic" in2="effect1_dropShadow_29_12" result="shape"/></filter><filter id="d" width="193.429" height="32.429" x="36.287" y="3.786" color-interpolation-filters="sRGB" filterUnits="userSpaceOnUse"><feFlood flood-opacity="0" result="BackgroundImageFix"/><feColorMatrix in="SourceAlpha" result="hardAlpha" values="0 0 0 0 0 0 0 0 0 0 0 0 0 0 0 0 0 0 127 0"/><feOffset/><feGaussianBlur stdDeviation="2.857"/><feComposite in2="hardAlpha" operator="out"/><feColorMatrix values="0 0 0 0 0 0 0 0 0 0 0 0 0 0 0 0 0 0 0.25 0"/><feBlend in2="BackgroundImageFix" result="effect1_dropShadow_29_12"/><feBlend in="SourceGraphic" in2="effect1_dropShadow_29_12" result="shape"/></filter><linearGradient id="b" x1="116.001" x2="116.001" y1="0" y2="40.001" gradientUnits="userSpaceOnUse"><stop stop-color="#11192c"/><stop offset="1" stop-color="#13111d"/></linearGradient><clipPath id="a"><rect width="232.001" height="40.001" fill="#fff" rx="8"/></clipPath></defs></svg>