<svg xmlns="http://www.w3.org/2000/svg" width="235" height="40" fill="none" viewBox="0 0 235 40"><g clip-path="url(#a)"><rect width="235.001" height="40.001" fill="url(#b)" rx="8"/><g filter="url(#c)"><path fill="#fff" d="M20.604 33.944c-2.157-.207-4.34-.98-6.217-2.204-1.572-1.025-1.927-1.446-1.927-2.287 0-1.69 1.859-4.648 5.038-8.02 1.806-1.916 4.321-4.161 4.593-4.1.529.118 4.756 4.239 6.34 6.18 2.502 3.067 3.652 5.58 3.068 6.7-.445.85-3.202 2.514-5.227 3.154-1.67.527-3.862.75-5.668.577m-10.267-6.248c-1.306-2.003-1.966-3.974-2.285-6.826-.105-.942-.067-1.48.24-3.414.381-2.409 1.754-5.196 3.403-6.91.703-.731.766-.749 1.622-.46 1.04.35 2.15 1.116 3.872 2.672l1.005.909-.548.673c-2.548 3.128-5.236 7.56-6.25 10.303-.55 1.491-.773 2.988-.536 3.611.16.42.013.264-.523-.558m22.93.341c.128-.63-.035-1.786-.417-2.952-.829-2.526-3.598-7.225-6.14-10.42l-.8-1.005.865-.794c1.13-1.038 1.916-1.66 2.763-2.187.668-.417 1.624-.785 2.034-.785.253 0 1.145.924 1.864 1.933 1.114 1.562 1.934 3.456 2.35 5.428.267 1.274.29 4 .042 5.271-.203 1.043-.632 2.396-1.05 3.313-.313.688-1.093 2.023-1.434 2.457-.176.224-.176.223-.078-.259M20.835 9.417c-1.173-.596-2.983-1.235-3.983-1.407a7.3 7.3 0 0 0-1.329-.074c-.824.041-.788-.002.536-.627 1.1-.52 2.018-.825 3.263-1.086 1.402-.294 4.036-.298 5.415-.007 1.49.314 3.244.966 4.232 1.574l.294.18-.674-.034c-1.34-.067-3.291.474-5.387 1.493-.632.307-1.182.553-1.222.545-.04-.007-.555-.258-1.145-.557"/></g><g filter="url(#d)"><path fill="#e8e8e8" d="M44.404 26.5h-1.98l4.45-12.363h2.154l4.45 12.364h-1.98l-3.496-10.118h-.096zm.332-4.84h6.424v1.569h-6.424zm17.153-4.432-3.363 9.273h-1.932l-3.368-9.273h1.938l2.348 7.136h.096l2.343-7.136zm4.129 9.478a3.8 3.8 0 0 1-1.594-.326 2.7 2.7 0 0 1-1.129-.96q-.41-.627-.41-1.54 0-.784.302-1.291.301-.507.814-.803a4.3 4.3 0 0 1 1.148-.447q.633-.15 1.291-.23l1.353-.156q.519-.066.754-.212.236-.144.236-.47v-.043q0-.79-.447-1.225-.44-.435-1.316-.435-.912 0-1.437.405-.519.398-.718.887l-1.696-.386q.301-.845.88-1.365.587-.525 1.347-.76a5.3 5.3 0 0 1 1.6-.242q.556 0 1.177.133.628.128 1.171.471.55.344.9.984.35.634.35 1.648v6.158H68.83v-1.268h-.072a2.6 2.6 0 0 1-.526.688 2.8 2.8 0 0 1-.9.562q-.548.222-1.315.223m.392-1.449q.75 0 1.28-.296.537-.295.815-.772.284-.483.284-1.033v-1.195q-.098.096-.374.181a6 6 0 0 1-.622.139l-.682.103-.556.072q-.525.066-.96.223a1.65 1.65 0 0 0-.688.453q-.254.289-.254.773 0 .67.496 1.014.495.338 1.261.338m6.588 1.244v-9.273h1.805v9.273zm.912-10.704q-.471 0-.81-.314a1.02 1.02 0 0 1-.331-.76q0-.447.332-.761.338-.32.809-.32.47 0 .803.32a1 1 0 0 1 .338.76q0 .442-.338.761-.333.315-.803.314m5.127-1.66v12.364H77.23V14.137zm5.126 12.569a3.8 3.8 0 0 1-1.593-.326 2.7 2.7 0 0 1-1.13-.96q-.41-.627-.41-1.54 0-.784.302-1.291t.815-.803a4.3 4.3 0 0 1 1.147-.447q.634-.15 1.292-.23l1.352-.156q.52-.066.755-.212.235-.144.235-.47v-.043q0-.79-.446-1.225-.441-.435-1.317-.435-.91 0-1.436.405-.52.398-.719.887l-1.696-.386q.302-.845.881-1.365.586-.525 1.347-.76a5.3 5.3 0 0 1 1.6-.242q.555 0 1.177.133.627.128 1.17.471.55.344.9.984.35.634.35 1.648v6.158h-1.762v-1.268h-.073a2.6 2.6 0 0 1-.525.688 2.8 2.8 0 0 1-.9.562q-.55.222-1.316.223m.393-1.449q.748 0 1.28-.296.537-.295.815-.772.283-.483.283-1.033v-1.195q-.096.096-.374.181a6 6 0 0 1-.622.139l-.682.103-.555.072q-.525.066-.96.223a1.65 1.65 0 0 0-.688.453q-.255.289-.254.773 0 .67.495 1.014.494.338 1.262.338m6.733 1.244V14.137h1.805v4.594h.108q.157-.29.453-.67.295-.38.821-.664.525-.29 1.389-.29 1.122 0 2.004.568.88.567 1.382 1.636.507 1.069.507 2.572 0 1.502-.5 2.577-.502 1.07-1.377 1.648-.876.574-1.998.574-.846 0-1.383-.284a2.6 2.6 0 0 1-.833-.664 5 5 0 0 1-.465-.676h-.15V26.5zm1.768-4.637q0 .978.284 1.715.284.735.821 1.153.537.41 1.316.41.81 0 1.352-.428.544-.435.821-1.177.284-.743.284-1.673 0-.916-.278-1.648-.27-.73-.82-1.153-.544-.422-1.359-.422-.785 0-1.328.404-.537.405-.815 1.129t-.278 1.69m10.533-7.727v12.364h-1.805V14.137zm6.425 12.55q-1.37 0-2.36-.585a3.97 3.97 0 0 1-1.522-1.66q-.531-1.074-.531-2.517 0-1.425.531-2.512a4.13 4.13 0 0 1 1.497-1.696q.966-.61 2.258-.61.785 0 1.522.26a3.7 3.7 0 0 1 1.322.815q.585.555.923 1.443.339.881.338 2.143v.64h-7.371v-1.353h5.603q0-.712-.29-1.261a2.2 2.2 0 0 0-.815-.876q-.52-.32-1.22-.32-.76 0-1.328.375a2.5 2.5 0 0 0-.869.966 2.8 2.8 0 0 0-.302 1.285v1.057q0 .93.326 1.582.332.651.924.996.591.338 1.382.338.513 0 .936-.145.423-.15.73-.447.309-.295.471-.73l1.709.308a3.1 3.1 0 0 1-.737 1.322 3.6 3.6 0 0 1-1.322.875q-.79.308-1.805.308m14.386 0q-1.304 0-2.276-.597a4.03 4.03 0 0 1-1.509-1.672q-.537-1.074-.537-2.511 0-1.443.537-2.524a4 4 0 0 1 1.509-1.678q.972-.597 2.276-.598 1.304 0 2.276.598a4 4 0 0 1 1.509 1.678q.537 1.08.537 2.524 0 1.436-.537 2.511a4.03 4.03 0 0 1-1.509 1.672q-.972.598-2.276.598m.006-1.514q.845 0 1.401-.447a2.6 2.6 0 0 0 .821-1.19q.271-.742.271-1.635 0-.888-.271-1.63a2.66 2.66 0 0 0-.821-1.202q-.556-.453-1.401-.453-.85 0-1.413.453-.555.453-.827 1.202a4.8 4.8 0 0 0-.265 1.63q0 .892.265 1.636.272.742.827 1.189.563.447 1.413.447m8.136-4.178v5.506h-1.805V17.23h1.733v1.51h.115a2.65 2.65 0 0 1 1.002-1.184q.688-.447 1.732-.447.949 0 1.66.399.713.392 1.105 1.17.393.78.393 1.927V26.5h-1.805v-5.68q0-1.008-.526-1.576-.525-.573-1.442-.573-.628 0-1.117.271a1.95 1.95 0 0 0-.767.797q-.278.52-.278 1.256"/><path fill="#fff" d="m147.962 14.137 2.258 3.906h.096l2.282-3.906h3.345l-3.731 6.182 3.851 6.182h-3.429l-2.318-3.948h-.096l-2.319 3.948h-3.405l3.834-6.182-3.737-6.182zm9.526 12.364V14.137h2.952v4.679h.06q.181-.423.514-.815.338-.393.857-.64.525-.255 1.255-.254.966 0 1.806.507.845.508 1.364 1.564t.519 2.692q0 1.575-.501 2.639-.495 1.063-1.34 1.593a3.4 3.4 0 0 1-1.866.532q-.7 0-1.213-.23a2.6 2.6 0 0 1-.863-.604 2.9 2.9 0 0 1-.532-.803h-.09v1.504zm2.892-4.637q0 .75.199 1.304.205.555.585.864.387.301.924.302.543 0 .924-.302.38-.308.573-.864.2-.555.199-1.304 0-.748-.199-1.298-.194-.55-.573-.85-.375-.303-.924-.303-.543 0-.924.296-.38.297-.585.845-.2.55-.199 1.31m12.31 4.812q-1.46 0-2.511-.598a4.13 4.13 0 0 1-1.612-1.678q-.561-1.08-.561-2.505 0-1.431.561-2.506a4.1 4.1 0 0 1 1.612-1.678q1.05-.604 2.511-.604t2.506.604q1.05.598 1.612 1.678.567 1.075.567 2.506 0 1.425-.567 2.505a4.1 4.1 0 0 1-1.612 1.678q-1.044.598-2.506.598m.019-2.228q.531 0 .899-.326.369-.326.562-.905.198-.58.199-1.34 0-.773-.199-1.353-.193-.58-.562-.905a1.3 1.3 0 0 0-.899-.326q-.55 0-.93.326-.375.326-.574.905a4.3 4.3 0 0 0-.193 1.352q0 .762.193 1.34.2.58.574.906.38.327.93.326m8.358-7.22 1.527 3.055 1.582-3.055h2.976l-2.59 4.636 2.687 4.637h-2.953l-1.702-3.08-1.66 3.08h-2.994l2.692-4.637-2.56-4.636zm15.764 9.442q-1.413 0-2.506-.483-1.087-.49-1.714-1.346-.628-.858-.64-1.975h3.006q.018.405.26.719.241.307.658.483.417.175.948.175t.935-.187q.41-.194.64-.525a1.3 1.3 0 0 0 .224-.773 1.23 1.23 0 0 0-.248-.773 1.63 1.63 0 0 0-.718-.525q-.459-.187-1.087-.187h-1.201v-2.125h1.201q.549 0 .966-.181.423-.181.658-.508.236-.33.229-.76a1.26 1.26 0 0 0-.199-.73 1.3 1.3 0 0 0-.561-.496 1.85 1.85 0 0 0-.827-.175q-.495 0-.9.175a1.54 1.54 0 0 0-.634.495q-.235.32-.247.743h-2.856q.013-1.104.616-1.944.604-.845 1.642-1.322 1.044-.477 2.379-.477 1.328 0 2.336.465 1.008.464 1.57 1.268a3.06 3.06 0 0 1 .561 1.805q.006 1.044-.682 1.72-.682.677-1.757.833v.097q1.437.169 2.167.93.737.76.731 1.901 0 1.075-.634 1.908-.628.827-1.751 1.304-1.116.47-2.565.47m11.592 0a5.8 5.8 0 0 1-1.944-.326 4.45 4.45 0 0 1-1.654-1.05q-.724-.726-1.141-1.896-.416-1.177-.41-2.868.005-1.527.374-2.74.368-1.22 1.05-2.071.688-.852 1.642-1.298.96-.453 2.143-.453 1.298 0 2.288.507a4.2 4.2 0 0 1 1.594 1.352q.598.846.706 1.884h-2.939q-.133-.585-.586-.887-.447-.309-1.063-.308-1.135 0-1.696.984-.555.984-.567 2.632h.078a2.7 2.7 0 0 1 .731-.954 3.4 3.4 0 0 1 1.092-.61 4 4 0 0 1 1.316-.217q1.112 0 1.962.513a3.6 3.6 0 0 1 1.334 1.407q.483.887.477 2.034.006 1.292-.603 2.282a4.16 4.16 0 0 1-1.691 1.533q-1.074.55-2.493.55m-.018-2.294q.549 0 .984-.26t.682-.706a2 2 0 0 0 .242-1.008 2 2 0 0 0-.242-1.009 1.8 1.8 0 0 0-.676-.7 1.86 1.86 0 0 0-.984-.26q-.404 0-.755.151-.35.152-.609.423a2 2 0 0 0-.399.628 2.07 2.07 0 0 0 .103 1.769q.247.447.676.712.429.26.978.26m11.613 2.427q-1.617 0-2.789-.767-1.17-.773-1.805-2.216-.633-1.449-.627-3.483t.633-3.453q.635-1.425 1.799-2.167 1.172-.75 2.789-.749 1.618 0 2.79.749 1.176.742 1.811 2.167.633 1.424.627 3.453 0 2.04-.633 3.49-.635 1.448-1.805 2.215-1.165.76-2.79.76m0-2.445q.966 0 1.564-.984.597-.99.592-3.037 0-1.34-.272-2.21-.272-.875-.755-1.303a1.65 1.65 0 0 0-1.129-.43q-.96 0-1.551.973-.591.966-.598 2.97-.006 1.358.26 2.252.272.893.761 1.334.489.435 1.128.435"/></g></g><rect width="232.858" height="37.858" x="1.071" y="1.071" stroke="#fff" stroke-opacity=".15" stroke-width="2.143" rx="6.929"/><defs><filter id="c" width="39.203" height="39.202" x="2.399" y=".4" color-interpolation-filters="sRGB" filterUnits="userSpaceOnUse"><feFlood flood-opacity="0" result="BackgroundImageFix"/><feColorMatrix in="SourceAlpha" result="hardAlpha" values="0 0 0 0 0 0 0 0 0 0 0 0 0 0 0 0 0 0 127 0"/><feOffset/><feGaussianBlur stdDeviation="2.8"/><feComposite in2="hardAlpha" operator="out"/><feColorMatrix values="0 0 0 0 0 0 0 0 0 0 0 0 0 0 0 0 0 0 0.25 0"/><feBlend in2="BackgroundImageFix" result="effect1_dropShadow_28_3074"/><feBlend in="SourceGraphic" in2="effect1_dropShadow_28_3074" result="shape"/></filter><filter id="d" width="196.429" height="32.429" x="36.287" y="3.786" color-interpolation-filters="sRGB" filterUnits="userSpaceOnUse"><feFlood flood-opacity="0" result="BackgroundImageFix"/><feColorMatrix in="SourceAlpha" result="hardAlpha" values="0 0 0 0 0 0 0 0 0 0 0 0 0 0 0 0 0 0 127 0"/><feOffset/><feGaussianBlur stdDeviation="2.857"/><feComposite in2="hardAlpha" operator="out"/><feColorMatrix values="0 0 0 0 0 0 0 0 0 0 0 0 0 0 0 0 0 0 0.25 0"/><feBlend in2="BackgroundImageFix" result="effect1_dropShadow_28_3074"/><feBlend in="SourceGraphic" in2="effect1_dropShadow_28_3074" result="shape"/></filter><linearGradient id="b" x1="117.501" x2="114.766" y1="0" y2="39.814" gradientUnits="userSpaceOnUse"><stop stop-color="#083407"/><stop offset="1" stop-color="#041d04"/></linearGradient><clipPath id="a"><rect width="235.001" height="40.001" fill="#fff" rx="8"/></clipPath></defs></svg>