<svg xmlns="http://www.w3.org/2000/svg" width="56" height="56" fill="none" viewBox="0 0 56 56"><rect width="56" height="56" fill="url(#a)" rx="8.4"/><rect width="53.9" height="53.9" x="1.05" y="1.05" stroke="#fff" stroke-opacity=".15" stroke-width="2.1" rx="7.35"/><g filter="url(#b)"><path fill="#fff9ae" d="M28.085 9.875a18.005 18.005 0 0 0-17.992 17.639 18 18 0 0 0 2.167 8.94l-3.258 10.48L20.7 44.29a17.998 17.998 0 0 0 24.992-12.628A18.004 18.004 0 0 0 28.1 9.875z"/><path fill="#00aeef" d="M42.367 16.926a17.997 17.997 0 0 1-21.668 27.336L9.002 46.94l11.908-1.407a17.994 17.994 0 0 0 27.025-17.055 18 18 0 0 0-5.568-11.551"/><path fill="#00a94f" d="M39.052 13.606a17.997 17.997 0 0 1-18.695 29.449L9.002 46.939 20.7 44.291a17.993 17.993 0 0 0 22.85-7.163 17.997 17.997 0 0 0-4.497-23.522"/><path fill="#f15d22" d="M13.336 36.853A18.003 18.003 0 0 1 31.398 12.01a18 18 0 0 1 10.98 4.91A18 18 0 0 0 12.26 36.454l-3.258 10.48z"/><path fill="#e31b23" d="M12.26 36.454A18.004 18.004 0 0 1 27.629 9.887a18 18 0 0 1 11.424 3.718A18 18 0 0 0 8.189 23.4a18 18 0 0 0 2.96 12.776L9.01 46.939z"/></g><defs><linearGradient id="a" x1="28" x2="28" y1="0" y2="56" gradientUnits="userSpaceOnUse"><stop stop-color="#353426"/><stop offset="1" stop-color="#27261c"/></linearGradient><filter id="b" width="51.429" height="51.429" x="2.286" y="2.286" color-interpolation-filters="sRGB" filterUnits="userSpaceOnUse"><feFlood flood-opacity="0" result="BackgroundImageFix"/><feColorMatrix in="SourceAlpha" result="hardAlpha" values="0 0 0 0 0 0 0 0 0 0 0 0 0 0 0 0 0 0 127 0"/><feOffset/><feGaussianBlur stdDeviation="2.857"/><feComposite in2="hardAlpha" operator="out"/><feColorMatrix values="0 0 0 0 0 0 0 0 0 0 0 0 0 0 0 0 0 0 0.25 0"/><feBlend in2="BackgroundImageFix" result="effect1_dropShadow_3_913"/><feBlend in="SourceGraphic" in2="effect1_dropShadow_3_913" result="shape"/></filter></defs></svg>