<svg xmlns="http://www.w3.org/2000/svg" width="56" height="56" fill="none" viewBox="0 0 56 56"><rect width="56" height="56" fill="url(#a)" rx="8.4"/><rect width="53.9" height="53.9" x="1.05" y="1.05" stroke="#fff" stroke-opacity=".15" stroke-width="2.1" rx="7.35"/><g filter="url(#b)"><path fill="#5865f2" d="M41.86 15.493a33.7 33.7 0 0 0-8.146-2.491c-.053 0-.106 0-.128.063a22 22 0 0 0-1.014 2.05 31 31 0 0 0-9.15 0 14.4 14.4 0 0 0-1.067-2.05c-.032-.042-.075-.073-.128-.063-2.456.483-5.594 1.366-8.114 2.491-.021 0-.043.021-.053.042-5.232 7.673-6.62 15.03-5.872 22.388 0 .032.021.074.053.105 3.417 2.48 6.726 3.995 9.993 4.972.053 0 .107 0 .139-.042a23.6 23.6 0 0 0 2.05-3.28.12.12 0 0 0-.075-.168 24 24 0 0 1-3.128-1.471.122.122 0 0 1 0-.21c.213-.158.427-.316.62-.473.031-.032.084-.032.127-.021 6.555 2.943 13.666 2.943 20.071 0a.14.14 0 0 1 .128.01c.203.168.406.326.62.484.074.052.064.168 0 .21a21 21 0 0 1-3.129 1.471c-.074.032-.106.105-.064.179a26 26 0 0 0 2.029 3.258.12.12 0 0 0 .139.042 33.6 33.6 0 0 0 10.014-4.971c.032-.021.053-.053.053-.105.833-8.504-1.398-15.872-5.914-22.388 0-.021-.032-.042-.054-.042zM21.362 33.467c-2.028 0-3.63-1.787-3.63-3.994s1.602-3.995 3.63-3.995c2.029 0 3.63 1.787 3.63 3.994s-1.601 3.995-3.63 3.995m13.345 0c-2.028 0-3.63-1.787-3.63-3.994s1.602-3.995 3.63-3.995c2.029 0 3.63 1.787 3.63 3.994s-1.601 3.995-3.63 3.995"/></g><defs><linearGradient id="a" x1="28" x2="28" y1="0" y2="56" gradientUnits="userSpaceOnUse"><stop stop-color="#1b1d31"/><stop offset="1" stop-color="#11121f"/></linearGradient><filter id="b" width="51.429" height="51.429" x="2.286" y="2.286" color-interpolation-filters="sRGB" filterUnits="userSpaceOnUse"><feFlood flood-opacity="0" result="BackgroundImageFix"/><feColorMatrix in="SourceAlpha" result="hardAlpha" values="0 0 0 0 0 0 0 0 0 0 0 0 0 0 0 0 0 0 127 0"/><feOffset/><feGaussianBlur stdDeviation="2.857"/><feComposite in2="hardAlpha" operator="out"/><feColorMatrix values="0 0 0 0 0 0 0 0 0 0 0 0 0 0 0 0 0 0 0.25 0"/><feBlend in2="BackgroundImageFix" result="effect1_dropShadow_28_3624"/><feBlend in="SourceGraphic" in2="effect1_dropShadow_28_3624" result="shape"/></filter></defs></svg>