<svg xmlns="http://www.w3.org/2000/svg" width="56" height="56" fill="none" viewBox="0 0 56 56"><rect width="56" height="56" fill="url(#a)" rx="8.4"/><rect width="53.9" height="53.9" x="1.05" y="1.05" stroke="#fff" stroke-opacity=".15" stroke-width="2.1" rx="7.35"/><g filter="url(#b)"><path fill="#2299f8" d="M28.73 46.572c-4.752 0-9.102-1.66-12.46-4.405L8 43.238l3.19-7.537A17.8 17.8 0 0 1 9.458 28c0-10.26 8.632-18.572 19.27-18.572C39.38 9.429 48 17.74 48 28c0 10.258-8.62 18.572-19.27 18.572"/><path fill="#fcfcfc" d="M28.853 18.095H21.75v19.81h7.003c6.625 0 10.497-4.247 10.497-9.96v-.051c0-5.71-3.822-9.799-10.397-9.799m5.155 9.918c0 3.209-2.025 5.019-5.08 5.019h-2.075V22.954h2.075c3.055 0 5.08 1.837 5.08 5.007z"/></g><defs><linearGradient id="a" x1="28" x2="28" y1="0" y2="56" gradientUnits="userSpaceOnUse"><stop stop-color="#051f30"/><stop offset="1" stop-color="#031420"/></linearGradient><filter id="b" width="51.429" height="51.429" x="2.286" y="2.286" color-interpolation-filters="sRGB" filterUnits="userSpaceOnUse"><feFlood flood-opacity="0" result="BackgroundImageFix"/><feColorMatrix in="SourceAlpha" result="hardAlpha" values="0 0 0 0 0 0 0 0 0 0 0 0 0 0 0 0 0 0 127 0"/><feOffset/><feGaussianBlur stdDeviation="2.857"/><feComposite in2="hardAlpha" operator="out"/><feColorMatrix values="0 0 0 0 0 0 0 0 0 0 0 0 0 0 0 0 0 0 0.25 0"/><feBlend in2="BackgroundImageFix" result="effect1_dropShadow_3_943"/><feBlend in="SourceGraphic" in2="effect1_dropShadow_3_943" result="shape"/></filter></defs></svg>