<svg xmlns="http://www.w3.org/2000/svg" width="56" height="56" fill="none" viewBox="0 0 56 56"><rect width="56" height="56" fill="url(#a)" rx="8.4"/><rect width="53.9" height="53.9" x="1.05" y="1.05" stroke="#fff" stroke-opacity=".15" stroke-width="2.1" rx="7.35"/><g filter="url(#b)"><path fill="#fff" d="M28.001 8.716C16.951 8.716 8 17.573 8 28.488c0 8.741 5.73 16.15 13.672 18.764 1.004.186 1.366-.426 1.366-.955 0-.47-.01-1.711-.018-3.36-5.567 1.192-6.74-2.658-6.74-2.658-.91-2.279-2.226-2.89-2.226-2.89-1.81-1.223.144-1.197.144-1.197 2.005.135 3.06 2.033 3.06 2.033 1.784 3.026 4.68 2.15 5.827 1.641.175-1.274.696-2.15 1.264-2.638-4.44-.496-9.11-2.195-9.11-9.772 0-2.163.775-3.926 2.057-5.31-.222-.495-.9-2.51.176-5.233 0 0 1.674-.528 5.5 2.028a19.5 19.5 0 0 1 5-.669c1.7.011 3.4.231 5 .669 3.805-2.556 5.477-2.028 5.477-2.028 1.074 2.723.397 4.736.202 5.233 1.268 1.384 2.043 3.148 2.043 5.31 0 7.595-4.675 9.269-9.12 9.752.695.592 1.346 1.81 1.346 3.657 0 2.645-.025 4.775-.025 5.419 0 .514.35 1.132 1.38.933C42.275 44.63 48 37.216 48 28.487c0-10.916-8.952-19.773-20.001-19.773z"/></g><defs><linearGradient id="a" x1="28" x2="28" y1="0" y2="56" gradientUnits="userSpaceOnUse"><stop stop-color="#181f29"/><stop offset="1" stop-color="#0f131a"/></linearGradient><filter id="b" width="51.429" height="51.429" x="2.286" y="2.286" color-interpolation-filters="sRGB" filterUnits="userSpaceOnUse"><feFlood flood-opacity="0" result="BackgroundImageFix"/><feColorMatrix in="SourceAlpha" result="hardAlpha" values="0 0 0 0 0 0 0 0 0 0 0 0 0 0 0 0 0 0 127 0"/><feOffset/><feGaussianBlur stdDeviation="2.857"/><feComposite in2="hardAlpha" operator="out"/><feColorMatrix values="0 0 0 0 0 0 0 0 0 0 0 0 0 0 0 0 0 0 0.25 0"/><feBlend in2="BackgroundImageFix" result="effect1_dropShadow_28_3682"/><feBlend in="SourceGraphic" in2="effect1_dropShadow_28_3682" result="shape"/></filter></defs></svg>