<svg xmlns="http://www.w3.org/2000/svg" width="56" height="56" fill="none" viewBox="0 0 56 56"><rect width="56" height="56" fill="url(#a)" rx="8.4"/><rect width="53.9" height="53.9" x="1.05" y="1.05" stroke="#fff" stroke-opacity=".15" stroke-width="2.1" rx="7.35"/><g filter="url(#b)"><path fill="#e24329" d="m28 46.566 7.366-22.847H20.635z"/><path fill="#fc6d26" d="m28 46.566-7.366-22.847H10.313z"/><path fill="#fca326" d="m10.313 23.72-2.238 6.942a1.55 1.55 0 0 0 .554 1.718L28 46.571z"/><path fill="#e24329" d="M10.313 23.72h10.321L16.2 9.96a.77.77 0 0 0-.725-.53.76.76 0 0 0-.725.53z"/><path fill="#fc6d26" d="m28 46.566 7.366-22.847h10.321z"/><path fill="#fca326" d="m45.687 23.72 2.239 6.942a1.55 1.55 0 0 1-.555 1.718L28 46.571z"/><path fill="#e24329" d="M45.688 23.72H35.366l4.436-13.762a.77.77 0 0 1 .725-.53.76.76 0 0 1 .725.53z"/></g><defs><linearGradient id="a" x1="28" x2="28" y1="0" y2="56" gradientUnits="userSpaceOnUse"><stop stop-color="#2e0e09"/><stop offset="1" stop-color="#1f1506"/></linearGradient><filter id="b" width="51.429" height="51.429" x="2.286" y="2.286" color-interpolation-filters="sRGB" filterUnits="userSpaceOnUse"><feFlood flood-opacity="0" result="BackgroundImageFix"/><feColorMatrix in="SourceAlpha" result="hardAlpha" values="0 0 0 0 0 0 0 0 0 0 0 0 0 0 0 0 0 0 127 0"/><feOffset/><feGaussianBlur stdDeviation="2.857"/><feComposite in2="hardAlpha" operator="out"/><feColorMatrix values="0 0 0 0 0 0 0 0 0 0 0 0 0 0 0 0 0 0 0.25 0"/><feBlend in2="BackgroundImageFix" result="effect1_dropShadow_28_3694"/><feBlend in="SourceGraphic" in2="effect1_dropShadow_28_3694" result="shape"/></filter></defs></svg>