<svg xmlns="http://www.w3.org/2000/svg" width="56" height="56" fill="none" viewBox="0 0 56 56"><rect width="56" height="56" fill="url(#a)" rx="8.4"/><rect width="53.9" height="53.9" x="1.05" y="1.05" stroke="#fff" stroke-opacity=".15" stroke-width="2.1" rx="7.35"/><g filter="url(#b)"><path fill="#f5c400" d="M17.626 19.725s.031 4.454 2.293 9.06c2.324 4.434 5.528 7.282 8.171 8.417 2.732-1.291 5.37-3.532 6.81-5.946h-7.498c-1.94-1.625-3.467-4.322-3.817-7.44h21.996c-1.085 5.012-3.386 9.57-5.579 12.473a26.5 26.5 0 0 1-11.896 8.854h-.069c-7.889-3.178-12.133-8.183-14.934-13.831-1.796-3.62-3.674-10.19-3.674-19.026H46.57a54 54 0 0 1-.495 7.44z"/></g><defs><linearGradient id="a" x1="28" x2="28" y1="0" y2="56" gradientUnits="userSpaceOnUse"><stop stop-color="#322c16"/><stop offset="1" stop-color="#231f0f"/></linearGradient><filter id="b" width="51.429" height="51.429" x="2.286" y="2.286" color-interpolation-filters="sRGB" filterUnits="userSpaceOnUse"><feFlood flood-opacity="0" result="BackgroundImageFix"/><feColorMatrix in="SourceAlpha" result="hardAlpha" values="0 0 0 0 0 0 0 0 0 0 0 0 0 0 0 0 0 0 127 0"/><feOffset/><feGaussianBlur stdDeviation="2.857"/><feComposite in2="hardAlpha" operator="out"/><feColorMatrix values="0 0 0 0 0 0 0 0 0 0 0 0 0 0 0 0 0 0 0.25 0"/><feBlend in2="BackgroundImageFix" result="effect1_dropShadow_28_3675"/><feBlend in="SourceGraphic" in2="effect1_dropShadow_28_3675" result="shape"/></filter></defs></svg>