<svg xmlns="http://www.w3.org/2000/svg" width="56" height="56" fill="none" viewBox="0 0 56 56"><rect width="56" height="56" fill="url(#a)" rx="8.4"/><rect width="53.9" height="53.9" x="1.05" y="1.05" stroke="#fff" stroke-opacity=".15" stroke-width="2.1" rx="7.35"/><g filter="url(#b)"><path fill="url(#c)" d="M46.423 16.856c-.573-4.298-4.279-7.685-8.672-8.342C37.009 8.405 34.2 8 27.695 8h-.049c-6.507 0-7.903.404-8.645.515-4.27.638-8.172 3.681-9.118 8.03-.455 2.141-.504 4.516-.42 6.694.121 3.123.145 6.241.425 9.352a44 44 0 0 0 1.013 6.134c.9 3.727 4.542 6.828 8.11 8.093a21.53 21.53 0 0 0 11.863.633q.649-.153 1.283-.354c.957-.308 2.078-.651 2.902-1.255a.1.1 0 0 0 .038-.072v-3.015a.1.1 0 0 0-.034-.069.1.1 0 0 0-.074-.016 32.6 32.6 0 0 1-7.699.909c-4.462 0-5.662-2.14-6.005-3.03a9.5 9.5 0 0 1-.522-2.39.09.09 0 0 1 .067-.09.1.1 0 0 1 .04.001c2.48.605 5.022.91 7.573.91.614 0 1.226 0 1.84-.017 2.565-.073 5.269-.206 7.793-.704.063-.013.126-.023.18-.04 3.982-.772 7.77-3.198 8.156-9.339.014-.242.05-2.532.05-2.783.002-.853.272-6.049-.04-9.241"/><path fill="#fff" d="M40.114 21.684v10.678h-4.186V21.999c0-2.182-.9-3.294-2.73-3.294-2.011 0-3.019 1.316-3.019 3.916v5.672h-4.161V22.62c0-2.6-1.01-3.916-3.021-3.916-1.819 0-2.728 1.112-2.728 3.294v10.363h-4.184V21.684q0-3.272 1.653-5.2c1.137-1.281 2.629-1.94 4.48-1.94 2.143 0 3.762.834 4.842 2.497l1.041 1.767 1.044-1.767c1.08-1.663 2.698-2.496 4.838-2.496 1.85 0 3.34.658 4.482 1.94q1.65 1.925 1.65 5.2"/></g><defs><linearGradient id="a" x1="28" x2="28" y1="0" y2="56" gradientUnits="userSpaceOnUse"><stop stop-color="#1c1036"/><stop offset="1" stop-color="#0b0920"/></linearGradient><linearGradient id="c" x1="28.001" x2="28.001" y1="8" y2="48" gradientUnits="userSpaceOnUse"><stop stop-color="#6364ff"/><stop offset="1" stop-color="#563acc"/></linearGradient><filter id="b" width="51.429" height="51.429" x="2.286" y="2.286" color-interpolation-filters="sRGB" filterUnits="userSpaceOnUse"><feFlood flood-opacity="0" result="BackgroundImageFix"/><feColorMatrix in="SourceAlpha" result="hardAlpha" values="0 0 0 0 0 0 0 0 0 0 0 0 0 0 0 0 0 0 127 0"/><feOffset/><feGaussianBlur stdDeviation="2.857"/><feComposite in2="hardAlpha" operator="out"/><feColorMatrix values="0 0 0 0 0 0 0 0 0 0 0 0 0 0 0 0 0 0 0.25 0"/><feBlend in2="BackgroundImageFix" result="effect1_dropShadow_28_3746"/><feBlend in="SourceGraphic" in2="effect1_dropShadow_28_3746" result="shape"/></filter></defs></svg>