<svg xmlns="http://www.w3.org/2000/svg" width="56" height="56" fill="none" viewBox="0 0 56 56"><rect width="56" height="56" fill="url(#a)" rx="8"/><rect width="53.9" height="53.9" x="1.05" y="1.05" stroke="#fff" stroke-opacity=".15" stroke-width="2.1" rx="6.95"/><g filter="url(#b)"><g fill="#fff" clip-path="url(#c)"><path d="M44.377 47.006V8.881H41.63v-.915h3.813v40H41.63v-.915zm-23.672-26v1.925h.055a5.6 5.6 0 0 1 1.87-1.712c.727-.404 1.568-.607 2.496-.607.903 0 1.731.176 2.471.526q1.122.52 1.706 1.85.634-.939 1.732-1.65c.727-.48 1.593-.718 2.584-.718q1.134 0 2.095.275a4.2 4.2 0 0 1 1.656.884q.69.605 1.077 1.587.387.977.387 2.363v9.537h-3.927v-8.075q0-.718-.055-1.35a2.9 2.9 0 0 0-.304-1.102 1.84 1.84 0 0 0-.732-.745q-.483-.275-1.317-.275-.828 0-1.343.316a2.3 2.3 0 0 0-.801.828c-.2.358-.332.752-.387 1.158a9 9 0 0 0-.098 1.313v7.937h-3.926v-8q0-.635-.026-1.25a3.5 3.5 0 0 0-.236-1.145 1.76 1.76 0 0 0-.69-.841q-.484-.315-1.43-.316-.375.015-.733.125a2.45 2.45 0 0 0-.884.467q-.429.345-.733.993-.303.647-.303 1.7v8.275h-3.927v-14.25zm-9.15-12.085v38.125h2.747v.915H10.49v-40h3.8v.915z"/></g></g><defs><linearGradient id="a" x1="28" x2="28" y1="0" y2="56" gradientUnits="userSpaceOnUse"><stop stop-color="#373737"/><stop offset="1" stop-color="#202020"/></linearGradient><clipPath id="c"><path fill="#fff" d="M10.5 8h35v40h-35z"/></clipPath><filter id="b" width="51.429" height="51.429" x="2.286" y="2.286" color-interpolation-filters="sRGB" filterUnits="userSpaceOnUse"><feFlood flood-opacity="0" result="BackgroundImageFix"/><feColorMatrix in="SourceAlpha" result="hardAlpha" values="0 0 0 0 0 0 0 0 0 0 0 0 0 0 0 0 0 0 127 0"/><feOffset/><feGaussianBlur stdDeviation="2.857"/><feComposite in2="hardAlpha" operator="out"/><feColorMatrix values="0 0 0 0 0 0 0 0 0 0 0 0 0 0 0 0 0 0 0.25 0"/><feBlend in2="BackgroundImageFix" result="effect1_dropShadow_2_3295"/><feBlend in="SourceGraphic" in2="effect1_dropShadow_2_3295" result="shape"/></filter></defs></svg>