<svg xmlns="http://www.w3.org/2000/svg" width="56" height="56" fill="none" viewBox="0 0 56 56"><rect width="56" height="56" fill="url(#a)" rx="8.4"/><rect width="53.9" height="53.9" x="1.05" y="1.05" stroke="#fff" stroke-opacity=".15" stroke-width="2.1" rx="7.35"/><g filter="url(#b)"><path fill="#ff4654" d="M34.342 21.993c0 2.686-1.442 4.298-4.52 4.298h-5.096v-8.499h5.097c3.077 0 4.52 1.66 4.52 4.201m-22.77-11.136 4.933 6.952V45.14h8.222V32.2H26.7l7.02 12.943H43l-7.79-13.578a9.8 9.8 0 0 0 5.468-3.616 10.1 10.1 0 0 0 2.032-6.298c0-5.959-4.135-10.794-12.406-10.794z"/></g><defs><linearGradient id="a" x1="28" x2="28" y1="0" y2="56" gradientUnits="userSpaceOnUse"><stop stop-color="#301515"/><stop offset="1" stop-color="#1e0d0d"/></linearGradient><filter id="b" width="51.429" height="51.429" x="2.286" y="2.286" color-interpolation-filters="sRGB" filterUnits="userSpaceOnUse"><feFlood flood-opacity="0" result="BackgroundImageFix"/><feColorMatrix in="SourceAlpha" result="hardAlpha" values="0 0 0 0 0 0 0 0 0 0 0 0 0 0 0 0 0 0 127 0"/><feOffset/><feGaussianBlur stdDeviation="2.857"/><feComposite in2="hardAlpha" operator="out"/><feColorMatrix values="0 0 0 0 0 0 0 0 0 0 0 0 0 0 0 0 0 0 0.25 0"/><feBlend in2="BackgroundImageFix" result="effect1_dropShadow_28_3636"/><feBlend in="SourceGraphic" in2="effect1_dropShadow_28_3636" result="shape"/></filter></defs></svg>