<svg xmlns="http://www.w3.org/2000/svg" width="56" height="56" fill="none" viewBox="0 0 56 56"><rect width="56" height="56" fill="url(#a)" rx="8.4"/><rect width="53.9" height="53.9" x="1.05" y="1.05" stroke="#fff" stroke-opacity=".15" stroke-width="2.1" rx="7.35"/><g filter="url(#b)"><path fill="#e01e5a" d="M16.433 33.287a4.2 4.2 0 0 1-4.2 4.203 4.2 4.2 0 0 1-4.201-4.203 4.2 4.2 0 0 1 4.2-4.204h4.2zm2.1 0a4.2 4.2 0 0 1 4.2-4.204c2.323 0 4.2 1.879 4.2 4.204v10.51a4.2 4.2 0 0 1-4.2 4.203 4.2 4.2 0 0 1-4.2-4.204z"/><path fill="#36c5f0" d="M22.734 16.408a4.2 4.2 0 0 1-4.201-4.204A4.2 4.2 0 0 1 22.733 8a4.2 4.2 0 0 1 4.201 4.204v4.204zm0 2.133a4.2 4.2 0 0 1 4.2 4.204 4.2 4.2 0 0 1-4.2 4.204H12.2A4.2 4.2 0 0 1 8 22.745a4.2 4.2 0 0 1 4.2-4.204z"/><path fill="#2eb67d" d="M39.567 22.745a4.2 4.2 0 0 1 4.2-4.204 4.2 4.2 0 0 1 4.201 4.204 4.2 4.2 0 0 1-4.2 4.204h-4.2zm-2.1 0a4.2 4.2 0 0 1-4.2 4.204 4.2 4.2 0 0 1-4.201-4.204V12.204A4.2 4.2 0 0 1 33.266 8c2.323 0 4.2 1.879 4.2 4.204z"/><path fill="#ecb22e" d="M33.266 39.592c2.323 0 4.2 1.88 4.2 4.204a4.2 4.2 0 0 1-4.2 4.204 4.2 4.2 0 0 1-4.2-4.204v-4.204zm0-2.102a4.2 4.2 0 0 1-4.2-4.203 4.2 4.2 0 0 1 4.2-4.204H43.8c2.323 0 4.2 1.879 4.2 4.204a4.2 4.2 0 0 1-4.2 4.203z"/></g><defs><linearGradient id="a" x1="27.799" x2="27.799" y1="0" y2="56" gradientUnits="userSpaceOnUse"><stop stop-color="#2c0c2c"/><stop offset="1" stop-color="#1c081c"/></linearGradient><filter id="b" width="51.429" height="51.429" x="2.286" y="2.286" color-interpolation-filters="sRGB" filterUnits="userSpaceOnUse"><feFlood flood-opacity="0" result="BackgroundImageFix"/><feColorMatrix in="SourceAlpha" result="hardAlpha" values="0 0 0 0 0 0 0 0 0 0 0 0 0 0 0 0 0 0 127 0"/><feOffset/><feGaussianBlur stdDeviation="2.857"/><feComposite in2="hardAlpha" operator="out"/><feColorMatrix values="0 0 0 0 0 0 0 0 0 0 0 0 0 0 0 0 0 0 0.25 0"/><feBlend in2="BackgroundImageFix" result="effect1_dropShadow_28_3648"/><feBlend in="SourceGraphic" in2="effect1_dropShadow_28_3648" result="shape"/></filter></defs></svg>