<svg xmlns="http://www.w3.org/2000/svg" width="56" height="56" fill="none" viewBox="0 0 56 56"><rect width="56" height="56" fill="url(#a)" rx="8.4"/><rect width="53.9" height="53.9" x="1.05" y="1.05" stroke="#fff" stroke-opacity=".15" stroke-width="2.1" rx="7.35"/><g filter="url(#b)"><path fill="#1d9bf0" d="M43.905 19.751c.024.357.024.713.024 1.073 0 10.962-8.255 23.605-23.35 23.605v-.007A23.05 23.05 0 0 1 8 40.702q.973.12 1.953.12a16.36 16.36 0 0 0 10.192-3.558c-3.511-.067-6.59-2.382-7.666-5.76 1.23.24 2.497.19 3.705-.144-3.829-.782-6.583-4.182-6.583-8.131v-.105a8.1 8.1 0 0 0 3.724 1.038c-3.606-2.436-4.717-7.286-2.54-11.077 4.167 5.183 10.314 8.334 16.914 8.667a8.36 8.36 0 0 1 2.374-7.926 8.153 8.153 0 0 1 11.61.36 16.4 16.4 0 0 0 5.212-2.015 8.3 8.3 0 0 1-3.608 4.589A16.2 16.2 0 0 0 48 15.454a16.8 16.8 0 0 1-4.095 4.297"/></g><defs><linearGradient id="a" x1="28" x2="28" y1="0" y2="56" gradientUnits="userSpaceOnUse"><stop stop-color="#051f30"/><stop offset="1" stop-color="#031420"/></linearGradient><filter id="b" width="51.429" height="51.429" x="2.286" y="2.286" color-interpolation-filters="sRGB" filterUnits="userSpaceOnUse"><feFlood flood-opacity="0" result="BackgroundImageFix"/><feColorMatrix in="SourceAlpha" result="hardAlpha" values="0 0 0 0 0 0 0 0 0 0 0 0 0 0 0 0 0 0 127 0"/><feOffset/><feGaussianBlur stdDeviation="2.857"/><feComposite in2="hardAlpha" operator="out"/><feColorMatrix values="0 0 0 0 0 0 0 0 0 0 0 0 0 0 0 0 0 0 0.25 0"/><feBlend in2="BackgroundImageFix" result="effect1_dropShadow_28_3754"/><feBlend in="SourceGraphic" in2="effect1_dropShadow_28_3754" result="shape"/></filter></defs></svg>