<svg xmlns="http://www.w3.org/2000/svg" width="56" height="56" fill="none" viewBox="0 0 56 56"><rect width="56" height="56" fill="url(#a)" rx="8.4"/><rect width="53.9" height="53.9" x="1.05" y="1.05" stroke="#fff" stroke-opacity=".15" stroke-width="2.1" rx="7.35"/><g filter="url(#b)"><path fill="#f22f21" d="M39.693 13.714H16.308C11.719 13.714 8 17.47 8 22.1v11.8c0 4.631 3.72 8.386 8.308 8.386h23.385C44.28 42.286 48 38.53 48 33.9V22.1c0-4.631-3.72-8.386-8.307-8.386m-5.619 14.86L23.136 33.84a.44.44 0 0 1-.628-.4V22.58a.44.44 0 0 1 .638-.396l10.938 5.595a.445.445 0 0 1-.01.795"/></g><defs><linearGradient id="a" x1="28" x2="28" y1="0" y2="56" gradientUnits="userSpaceOnUse"><stop stop-color="#300e0c"/><stop offset="1" stop-color="#200908"/></linearGradient><filter id="b" width="51.429" height="51.429" x="2.286" y="2.286" color-interpolation-filters="sRGB" filterUnits="userSpaceOnUse"><feFlood flood-opacity="0" result="BackgroundImageFix"/><feColorMatrix in="SourceAlpha" result="hardAlpha" values="0 0 0 0 0 0 0 0 0 0 0 0 0 0 0 0 0 0 127 0"/><feOffset/><feGaussianBlur stdDeviation="2.857"/><feComposite in2="hardAlpha" operator="out"/><feColorMatrix values="0 0 0 0 0 0 0 0 0 0 0 0 0 0 0 0 0 0 0.25 0"/><feBlend in2="BackgroundImageFix" result="effect1_dropShadow_28_3598"/><feBlend in="SourceGraphic" in2="effect1_dropShadow_28_3598" result="shape"/></filter></defs></svg>