<svg xmlns="http://www.w3.org/2000/svg" width="209" height="56" fill="none" viewBox="0 0 209 56"><g clip-path="url(#a)"><rect width="209" height="56" fill="url(#b)" rx="8"/><g filter="url(#c)"><path fill="#0d0c22" d="m43.041 16.54-.029-.017-.068-.02a.16.16 0 0 0 .097.038m.418 3.062-.03.008z"/><path fill="#0d0c22" d="m43.052 16.536-.012-.003v.008z"/><path fill="#0d0c22" d="M43.04 16.541h.005v-.003zm.395 3.056.05-.028.018-.01.017-.018a.3.3 0 0 0-.085.056m-.309-2.989-.049-.047-.032-.017a.14.14 0 0 0 .08.064m-11.969 29.71a.25.25 0 0 0-.098.076l.03-.02c.02-.018.05-.04.068-.056m6.95-1.392c0-.044-.022-.035-.016.12q.002-.02.007-.037zm-.72 1.392a.25.25 0 0 0-.098.076l.03-.02c.02-.018.05-.04.068-.056m-11.126.332a.2.2 0 0 0-.103-.05c.031.016.062.03.083.042zm-1.101-1.075a.3.3 0 0 0-.041-.129q.024.063.04.127z"/><path fill="#fd0" d="M32.557 26.37c-1.512.658-3.228 1.406-5.453 1.406a10.2 10.2 0 0 1-2.752-.387l1.538 16.078c.055.672.355 1.298.843 1.755a2.6 2.6 0 0 0 1.787.71s2.182.115 2.91.115c.782 0 3.131-.115 3.131-.115.663 0 1.3-.254 1.788-.71a2.7 2.7 0 0 0 .842-1.755L38.839 25.7c-.737-.256-1.48-.427-2.317-.427-1.45 0-2.617.508-3.965 1.095"/><path fill="#0d0c22" d="m19.59 19.51.026.024.017.01a.3.3 0 0 0-.043-.034"/><path fill="#e8e8e8" d="m45.952 18.026-.232-1.19c-.208-1.066-.68-2.075-1.755-2.46-.345-.124-.737-.177-1.001-.432-.265-.256-.343-.653-.404-1.02-.113-.675-.22-1.351-.336-2.025-.1-.58-.18-1.23-.44-1.762-.34-.714-1.045-1.131-1.747-1.408a10 10 0 0 0-1.098-.345c-1.752-.471-3.593-.644-5.396-.743a44.5 44.5 0 0 0-6.49.11c-1.606.149-3.298.329-4.824.894-.558.207-1.133.456-1.557.895-.52.539-.69 1.372-.31 2.045.27.477.728.814 1.213 1.037a9.7 9.7 0 0 0 1.97.653c1.886.424 3.84.591 5.766.662 2.135.088 4.274.017 6.4-.213a36 36 0 0 0 1.574-.211c.617-.097 1.012-.918.83-1.49-.217-.684-.801-.949-1.462-.845l-.292.044-.07.01q-.336.044-.672.081-.694.075-1.39.124a46 46 0 0 1-6.202.012 39 39 0 0 1-2.03-.191l-.2-.026-.044-.007-.208-.03a22 22 0 0 1-1.27-.23.2.2 0 0 1-.107-.069.196.196 0 0 1 .107-.311h.008q.546-.119 1.1-.205.183-.03.369-.058h.003c.23-.016.462-.058.692-.085a43 43 0 0 1 6.008-.216 40 40 0 0 1 2.916.187q.312.032.623.071l.239.031.16.024q.704.106 1.4.259c.688.152 1.57.202 1.877.969.097.243.141.513.195.769l.069.325.004.018.486 2.307a.43.43 0 0 1-.19.448.4.4 0 0 1-.159.058h-.004l-.1.014-.097.013q-.466.063-.933.116-.92.106-1.84.184a63 63 0 0 1-5.547.227 64 64 0 0 1-8.24-.542c.207.027-.151-.021-.224-.031q-.255-.036-.51-.076c-.57-.087-1.137-.194-1.706-.288-.688-.115-1.346-.058-1.968.288a2.9 2.9 0 0 0-1.186 1.251c-.268.565-.348 1.18-.468 1.788-.12.607-.307 1.26-.236 1.883.152 1.345 1.076 2.439 2.404 2.683a68.4 68.4 0 0 0 19.895.671.84.84 0 0 1 .692.246.87.87 0 0 1 .247.702l-.126 1.244-.76 7.542a6133 6133 0 0 1-1.025 10.149c-.072.731-.082 1.486-.219 2.21-.215 1.136-.971 1.834-2.075 2.09-1.01.234-2.043.357-3.08.366-1.149.007-2.297-.045-3.446-.039-1.227.007-2.73-.108-3.677-1.038-.832-.816-.947-2.094-1.06-3.2l-.449-4.389-.833-8.135-.538-5.263-.027-.26c-.064-.628-.501-1.243-1.19-1.211-.588.026-1.258.536-1.188 1.21l.399 3.903.825 8.071.704 6.88c.046.44.088.88.136 1.319.259 2.4 2.06 3.695 4.29 4.059 1.303.213 2.637.257 3.959.279 1.695.028 3.406.094 5.073-.218 2.47-.462 4.323-2.14 4.587-4.745l.227-2.256.752-7.464.82-8.129.375-3.726a.87.87 0 0 1 .218-.495.85.85 0 0 1 .466-.265c.706-.14 1.381-.38 1.884-.927.8-.87.958-2.007.676-3.152m-26.568.804c.01-.005-.009.089-.017.133-.002-.067.001-.126.017-.133m.069.54c.005-.005.022.019.04.046-.027-.025-.044-.044-.04-.046m.067.09c.024.042.037.069 0 0m.135.112h.004c0 .004.006.008.008.012zm23.704-.167c-.254.245-.636.36-1.014.417-4.236.64-8.534.964-12.817.82-3.065-.106-6.098-.453-9.133-.889-.297-.043-.62-.098-.824-.321-.385-.421-.196-1.269-.096-1.777.092-.466.268-1.087.812-1.153.85-.102 1.836.263 2.677.393q1.518.236 3.047.378c4.35.403 8.774.34 13.106-.25q1.185-.162 2.36-.377c.698-.127 1.473-.366 1.895.37.289.502.327 1.173.283 1.74a.98.98 0 0 1-.297.649z"/></g><g filter="url(#d)"><path fill="#fd0" d="M60.936 34V21.636h5.155q1.388 0 2.325.393.94.392 1.412 1.099.477.706.477 1.636 0 .705-.296 1.261-.296.549-.815.912-.519.361-1.201.507v.12q.749.038 1.382.405.641.369 1.027 1.026.386.652.386 1.546a3.2 3.2 0 0 1-.507 1.78q-.507.78-1.467 1.232-.96.447-2.33.447zm2.988-2.409h1.847q.972 0 1.431-.368.465-.368.465-1.026 0-.477-.224-.821a1.44 1.44 0 0 0-.633-.538q-.411-.192-.984-.193h-1.902zm0-4.872h1.654q.489 0 .87-.163.38-.162.591-.47.217-.308.217-.743 0-.622-.44-.978t-1.19-.356h-1.702zm14.283 3.278v-5.27h2.946V34H78.34v-1.727h-.096a2.7 2.7 0 0 1-1.05 1.353q-.737.495-1.782.495-.948 0-1.666-.435a2.96 2.96 0 0 1-1.117-1.213q-.398-.785-.404-1.836v-5.91h2.952v5.33q.006.755.398 1.19.393.435 1.069.435.44 0 .79-.193.357-.2.562-.574.211-.38.211-.918m6.63 7.48q-.531 0-1.002-.084a4 4 0 0 1-.809-.212l.652-2.143q.435.145.785.17.356.023.61-.115.26-.134.398-.477l.115-.278-3.296-9.61h3.09l1.71 6.616h.096l1.732-6.617h3.11l-3.496 10.16a4.3 4.3 0 0 1-.718 1.34 3.1 3.1 0 0 1-1.19.918q-.724.332-1.787.332m11.975-15.84h3.7l3.14 7.654h.144l3.14-7.655h3.7V34h-2.91v-7.594h-.102l-2.97 7.516h-1.86l-2.97-7.559h-.102V34h-2.91zm20.023 12.538q-1.455 0-2.512-.573a3.97 3.97 0 0 1-1.618-1.648q-.561-1.075-.561-2.554 0-1.437.567-2.511.568-1.08 1.6-1.679 1.032-.604 2.433-.604.99 0 1.811.308.821.309 1.419.912.597.604.93 1.491.332.882.332 2.023v.736h-8.06v-1.715h5.313a1.66 1.66 0 0 0-.224-.839 1.5 1.5 0 0 0-.597-.573 1.73 1.73 0 0 0-.864-.211q-.494 0-.887.223a1.68 1.68 0 0 0-.863 1.449v1.744q0 .568.223.997.223.421.634.658.411.234.978.235.393 0 .712-.109a1.5 1.5 0 0 0 .55-.32q.229-.21.344-.519l2.71.079a3.35 3.35 0 0 1-.742 1.587q-.567.67-1.491 1.045-.924.368-2.137.368m12.175-.018q-.888 0-1.576-.296a2.46 2.46 0 0 1-1.081-.905q-.392-.61-.392-1.528 0-.773.272-1.304.271-.531.748-.863a3.5 3.5 0 0 1 1.099-.501 7 7 0 0 1 1.328-.236q.79-.072 1.274-.15.483-.085.7-.236a.51.51 0 0 0 .224-.44v-.03q0-.465-.32-.72-.32-.252-.864-.253-.585 0-.941.254a1.1 1.1 0 0 0-.453.7l-2.723-.096a3.2 3.2 0 0 1 .622-1.51q.507-.67 1.388-1.05.888-.386 2.131-.386.888 0 1.636.21.75.206 1.304.605.556.392.858.965.308.575.308 1.31V34h-2.777v-1.292h-.073q-.247.471-.634.797-.38.325-.899.489a3.8 3.8 0 0 1-1.159.163m.911-1.932q.477 0 .857-.193.387-.194.616-.531.23-.344.23-.797v-.882a2 2 0 0 1-.308.121q-.175.054-.387.103a7 7 0 0 1-.434.084l-.429.067a2.7 2.7 0 0 0-.712.205 1.13 1.13 0 0 0-.447.362.9.9 0 0 0-.151.52q0 .458.326.7.332.24.839.241m21.311-6.11h-3.019a2.6 2.6 0 0 0-.247-.838 2.1 2.1 0 0 0-.495-.64 2.1 2.1 0 0 0-.731-.405 2.8 2.8 0 0 0-.924-.145q-.899 0-1.551.441-.647.44-.996 1.274-.344.833-.344 2.016 0 1.232.35 2.065.355.827.996 1.25.647.416 1.527.416.495 0 .9-.127.41-.126.718-.368.315-.247.513-.598.206-.356.284-.803l3.019.019a4.6 4.6 0 0 1-.477 1.617 5.2 5.2 0 0 1-1.081 1.455 5.1 5.1 0 0 1-1.678 1.039q-.984.386-2.258.386-1.678 0-3.006-.736-1.323-.743-2.089-2.162-.767-1.418-.767-3.453 0-2.04.779-3.459.778-1.419 2.107-2.155 1.327-.737 2.976-.737a6.6 6.6 0 0 1 2.077.314 5 5 0 0 1 1.678.906q.724.592 1.177 1.455.453.862.562 1.974m6.038 8.06q-1.461 0-2.511-.598a4.1 4.1 0 0 1-1.612-1.678q-.562-1.08-.562-2.505 0-1.432.562-2.505a4.07 4.07 0 0 1 1.612-1.679q1.05-.604 2.511-.604t2.505.604a4 4 0 0 1 1.612 1.678q.568 1.075.568 2.506 0 1.425-.568 2.505a4.07 4.07 0 0 1-1.612 1.678q-1.044.598-2.505.598m.018-2.228q.531 0 .9-.326.367-.326.561-.905.2-.58.199-1.34 0-.773-.199-1.353-.194-.58-.561-.905a1.3 1.3 0 0 0-.9-.326q-.549 0-.93.326-.373.326-.573.905-.193.58-.193 1.353 0 .76.193 1.34.2.58.573.905.381.327.93.326m11.449-7.22v2.174h-5.964v-2.174zM164.016 34v-9.744q0-1.075.405-1.78.404-.713 1.123-1.063.718-.357 1.66-.356.615 0 1.159.096.55.09.815.163l-.471 2.162a2.5 2.5 0 0 0-.398-.09 3 3 0 0 0-.435-.037q-.52 0-.712.23-.194.228-.194.627V34zm11.412-9.273v2.174h-5.965v-2.174zM170.707 34v-9.744q0-1.075.404-1.78.405-.713 1.123-1.063.718-.357 1.66-.356.616 0 1.159.096.55.09.815.163l-.471 2.162a2.4 2.4 0 0 0-.398-.09 3 3 0 0 0-.435-.037q-.519 0-.712.23-.193.228-.193.627V34zm10.176.175q-1.454 0-2.511-.573a3.97 3.97 0 0 1-1.618-1.648q-.561-1.075-.561-2.554 0-1.437.567-2.511.568-1.08 1.6-1.679 1.032-.604 2.433-.604.99 0 1.811.308.82.309 1.419.912.597.604.929 1.491.333.882.332 2.023v.736h-8.059v-1.715h5.313a1.66 1.66 0 0 0-.224-.839 1.5 1.5 0 0 0-.597-.573 1.73 1.73 0 0 0-.864-.211q-.495 0-.887.223a1.68 1.68 0 0 0-.863 1.449v1.744q0 .568.223.997.223.421.634.658.411.234.978.235.392 0 .712-.109.32-.108.55-.32.228-.21.344-.519l2.71.079a3.35 3.35 0 0 1-.742 1.587q-.568.67-1.491 1.045-.924.368-2.138.368m10.244 0q-1.455 0-2.512-.573a3.97 3.97 0 0 1-1.618-1.648q-.561-1.075-.561-2.554 0-1.437.567-2.511.568-1.08 1.6-1.679 1.032-.604 2.433-.604.99 0 1.811.308.821.309 1.419.912.597.604.93 1.491.332.882.332 2.023v.736h-8.06v-1.715h5.313a1.66 1.66 0 0 0-.224-.839 1.5 1.5 0 0 0-.597-.573 1.73 1.73 0 0 0-.864-.211q-.495 0-.887.223a1.68 1.68 0 0 0-.863 1.449v1.744q0 .568.223.997.223.421.634.658.411.234.978.235.393 0 .712-.109a1.5 1.5 0 0 0 .55-.32q.229-.21.344-.519l2.71.079a3.35 3.35 0 0 1-.742 1.587q-.568.67-1.491 1.045-.924.368-2.137.368"/></g></g><rect width="206.9" height="53.9" x="1.05" y="1.05" stroke="#fff" stroke-opacity=".15" stroke-width="2.1" rx="6.95"/><defs><filter id="c" width="51.429" height="54.286" x="6.286" y=".857" color-interpolation-filters="sRGB" filterUnits="userSpaceOnUse"><feFlood flood-opacity="0" result="BackgroundImageFix"/><feColorMatrix in="SourceAlpha" result="hardAlpha" values="0 0 0 0 0 0 0 0 0 0 0 0 0 0 0 0 0 0 127 0"/><feOffset/><feGaussianBlur stdDeviation="2.857"/><feComposite in2="hardAlpha" operator="out"/><feColorMatrix values="0 0 0 0 0 0 0 0 0 0 0 0 0 0 0 0 0 0 0.25 0"/><feBlend in2="BackgroundImageFix" result="effect1_dropShadow_28_426"/><feBlend in="SourceGraphic" in2="effect1_dropShadow_28_426" result="shape"/></filter><filter id="d" width="148.2" height="29.677" x="54.4" y="13.4" color-interpolation-filters="sRGB" filterUnits="userSpaceOnUse"><feFlood flood-opacity="0" result="BackgroundImageFix"/><feColorMatrix in="SourceAlpha" result="hardAlpha" values="0 0 0 0 0 0 0 0 0 0 0 0 0 0 0 0 0 0 127 0"/><feOffset/><feGaussianBlur stdDeviation="2.8"/><feComposite in2="hardAlpha" operator="out"/><feColorMatrix values="0 0 0 0 0 0 0 0 0 0 0 0 0 0 0 0 0 0 0.25 0"/><feBlend in2="BackgroundImageFix" result="effect1_dropShadow_28_426"/><feBlend in="SourceGraphic" in2="effect1_dropShadow_28_426" result="shape"/></filter><linearGradient id="b" x1="104.5" x2="104.5" y1="0" y2="56" gradientUnits="userSpaceOnUse"><stop stop-color="#372e00"/><stop offset="1" stop-color="#1e1900"/></linearGradient><clipPath id="a"><rect width="209" height="56" fill="#fff" rx="8"/></clipPath></defs></svg>