<svg xmlns="http://www.w3.org/2000/svg" width="180" height="56" fill="none" viewBox="0 0 180 56"><rect width="180" height="56" fill="url(#a)" rx="8"/><rect width="177.9" height="53.9" x="1.05" y="1.05" stroke="#fff" stroke-opacity=".15" stroke-width="2.1" rx="6.95"/><g filter="url(#b)"><path fill="#00d632" d="M38.063 8c4 0 6 0 8.187.688a8.5 8.5 0 0 1 5.063 5.062C52 15.938 52 17.938 52 21.944V34.05c0 4.013 0 6.025-.687 8.188A8.5 8.5 0 0 1 46.25 47.3c-2.187.7-4.187.7-8.187.7H25.937c-4.012 0-6.024 0-8.187-.687a8.5 8.5 0 0 1-5.062-5.063C12 40.063 12 38.063 12 34.056V21.938c0-4.013 0-6.025.688-8.188a8.5 8.5 0 0 1 5.062-5.062C19.938 8 21.938 8 25.938 8z"/><path fill="#fff" d="M38.544 22.875c.312.313.831.313 1.125 0l1.562-1.625c.331-.312.313-.875-.037-1.212a12.3 12.3 0 0 0-4.2-2.4l.493-2.376a.83.83 0 0 0-.8-1.006h-3.024a.826.826 0 0 0-.8.663l-.438 2.112c-4.025.207-7.437 2.25-7.437 6.438 0 3.625 2.818 5.181 5.8 6.25 2.818 1.075 4.312 1.475 4.312 2.987 0 1.556-1.488 2.469-3.687 2.469-2 0-4.1-.669-5.725-2.3a.81.81 0 0 0-1.15 0l-1.688 1.688a.85.85 0 0 0 0 1.2c1.313 1.293 2.975 2.23 4.87 2.75l-.462 2.23a.83.83 0 0 0 .793 1.007l3.032.025a.826.826 0 0 0 .812-.663l.438-2.118c4.842-.325 7.792-2.994 7.792-6.888 0-3.587-2.937-5.1-6.5-6.331-2.038-.756-3.8-1.275-3.8-2.831 0-1.513 1.644-2.113 3.294-2.113 2.1 0 4.118.869 5.437 2.057z"/></g><g filter="url(#c)"><path fill="#e8e8e8" d="M67.625 15.92a1.66 1.66 0 0 0-.75-1.25q-.659-.448-1.66-.448-.715 0-1.238.227-.522.222-.812.614-.284.385-.284.88 0 .415.193.716.199.301.517.506.324.198.693.335.37.131.71.216l1.137.295q.556.136 1.142.37t1.085.613.807.944q.312.562.312 1.346 0 .989-.511 1.756-.506.767-1.472 1.21-.96.444-2.323.443-1.308 0-2.262-.415-.954-.414-1.494-1.176-.54-.767-.597-1.818h1.762q.05.63.409 1.051.362.415.926.62.568.198 1.244.198.744 0 1.324-.232.585-.24.92-.66.336-.426.336-.994 0-.517-.296-.846a2.2 2.2 0 0 0-.79-.546 8 8 0 0 0-1.119-.38l-1.375-.376q-1.398-.38-2.216-1.119-.812-.738-.812-1.954 0-1.006.545-1.756.546-.75 1.477-1.165.932-.42 2.103-.42 1.182 0 2.085.414.909.416 1.432 1.142.522.722.545 1.66zm9.342 4.96v-5.107h1.705V24.5h-1.67v-1.511h-.091q-.301.698-.966 1.164-.66.46-1.642.46-.841 0-1.49-.369-.64-.375-1.01-1.108-.364-.732-.364-1.812v-5.551h1.699v5.346q0 .893.494 1.42.495.53 1.284.53.477 0 .95-.24.475-.239.789-.721.318-.483.312-1.227m3.987 6.893v-12h1.66v1.415h.142q.147-.273.426-.631.278-.358.772-.625.495-.273 1.307-.273 1.058 0 1.887.534.83.535 1.3 1.54.478 1.005.478 2.42t-.472 2.427q-.471 1.005-1.295 1.55-.825.54-1.88.54-.796 0-1.302-.267a2.5 2.5 0 0 1-.784-.625 5 5 0 0 1-.437-.636h-.103v4.63zm1.665-7.637q0 .921.267 1.614t.773 1.085q.505.387 1.239.387.76 0 1.272-.404.512-.41.773-1.108.267-.699.267-1.574a4.3 4.3 0 0 0-.261-1.55q-.255-.689-.773-1.086-.51-.398-1.278-.398-.74 0-1.25.381-.506.38-.767 1.063-.262.681-.262 1.59m8.21 7.637v-12h1.66v1.415h.142q.147-.273.426-.631.278-.358.772-.625.495-.273 1.307-.273 1.058 0 1.887.534.83.535 1.3 1.54.478 1.005.478 2.42t-.472 2.427q-.471 1.005-1.295 1.55-.825.54-1.88.54-.796 0-1.302-.267a2.5 2.5 0 0 1-.784-.625 5 5 0 0 1-.437-.636h-.103v4.63zm1.665-7.637q0 .921.267 1.614t.773 1.085q.506.387 1.239.387.76 0 1.272-.404.512-.41.773-1.108.267-.699.267-1.574a4.3 4.3 0 0 0-.261-1.55q-.255-.689-.773-1.086-.51-.398-1.278-.398-.74 0-1.25.381-.506.38-.767 1.063-.262.681-.262 1.59m11.887 4.54q-1.229 0-2.142-.562a3.8 3.8 0 0 1-1.421-1.574q-.506-1.011-.506-2.364 0-1.358.506-2.375a3.8 3.8 0 0 1 1.421-1.58q.913-.561 2.142-.562 1.227 0 2.142.563t1.42 1.58q.506 1.016.506 2.374 0 1.353-.506 2.364a3.8 3.8 0 0 1-1.42 1.574q-.915.562-2.142.562m.005-1.426q.796 0 1.319-.42t.772-1.12q.256-.699.256-1.54 0-.835-.256-1.534a2.5 2.5 0 0 0-.772-1.13q-.523-.426-1.319-.427-.801 0-1.329.427a2.54 2.54 0 0 0-.779 1.13q-.25.7-.25 1.535 0 .84.25 1.54.256.697.779 1.119.528.42 1.329.42m5.959 1.25v-8.727h1.642v1.386h.091q.239-.705.841-1.108.608-.41 1.375-.409a7 7 0 0 1 .722.04v1.625a3 3 0 0 0-.364-.063 3.5 3.5 0 0 0-.523-.04 2.2 2.2 0 0 0-1.074.256 1.9 1.9 0 0 0-1.011 1.71v5.33zm10.73-8.727v1.363h-4.767v-1.363zm-3.488-2.091h1.698v8.256q0 .493.148.744a.78.78 0 0 0 .381.335q.238.085.517.085.204 0 .358-.028l.239-.046.306 1.404a3 3 0 0 1-.42.114 3.3 3.3 0 0 1-.682.068 3 3 0 0 1-1.25-.239 2.14 2.14 0 0 1-.937-.773q-.358-.523-.358-1.312zm15.13 7.199v-5.108h1.705V24.5h-1.671v-1.511h-.091q-.3.698-.965 1.164-.66.46-1.642.46-.841 0-1.489-.369-.642-.375-1.011-1.108-.364-.732-.364-1.812v-5.551h1.699v5.346q0 .893.494 1.42.495.53 1.284.53.477 0 .949-.24.477-.239.79-.721.318-.483.312-1.227m10.527-2.978-1.539.273a1.8 1.8 0 0 0-.307-.562 1.5 1.5 0 0 0-.557-.438q-.353-.17-.881-.17-.721 0-1.204.323-.483.319-.483.824 0 .438.324.705.323.267 1.045.438l1.386.318q1.205.277 1.796.858.591.58.591 1.505 0 .785-.455 1.398-.449.608-1.255.954-.802.348-1.858.347-1.467 0-2.392-.625-.927-.63-1.137-1.79l1.642-.25q.153.642.631.972.477.324 1.244.324.835 0 1.335-.347.5-.352.5-.858a.9.9 0 0 0-.306-.687q-.302-.279-.927-.42l-1.477-.325q-1.22-.277-1.807-.886-.579-.607-.579-1.54a2.2 2.2 0 0 1 .432-1.352q.431-.579 1.193-.903.761-.33 1.744-.33 1.415 0 2.227.614.813.608 1.074 1.63m9.949 6.773q-1.227 0-2.142-.562a3.8 3.8 0 0 1-1.42-1.574q-.506-1.011-.506-2.364 0-1.358.506-2.375a3.8 3.8 0 0 1 1.42-1.58q.915-.561 2.142-.562 1.227 0 2.142.563t1.421 1.58q.505 1.016.505 2.374 0 1.353-.505 2.364a3.8 3.8 0 0 1-1.421 1.574q-.915.562-2.142.562m.006-1.426q.796 0 1.318-.42.523-.42.773-1.12.255-.699.255-1.54 0-.835-.255-1.534a2.5 2.5 0 0 0-.773-1.13q-.523-.426-1.318-.427-.8 0-1.33.427a2.54 2.54 0 0 0-.778 1.13q-.25.7-.25 1.535 0 .84.25 1.54.256.697.778 1.119.53.42 1.33.42m7.658-3.932V24.5h-1.699v-8.727h1.63v1.42h.108q.301-.693.943-1.114.648-.42 1.631-.42.893 0 1.563.375.67.37 1.039 1.102.37.733.37 1.813V24.5h-1.699v-5.347q0-.948-.494-1.482-.495-.54-1.358-.54-.591 0-1.052.255-.454.255-.721.75-.261.489-.261 1.182"/><path fill="#00d632" d="M72.158 35.616H69.14q-.06-.465-.248-.84a2 2 0 0 0-.495-.64 2.1 2.1 0 0 0-.73-.404 2.8 2.8 0 0 0-.924-.145q-.9 0-1.551.441-.646.44-.996 1.274-.344.832-.344 2.016 0 1.232.35 2.065.356.827.996 1.25.646.416 1.527.416.495 0 .9-.127.41-.126.718-.368.314-.247.513-.598a2.4 2.4 0 0 0 .284-.803l3.018.019a4.6 4.6 0 0 1-.477 1.617 5.2 5.2 0 0 1-1.08 1.455 5.1 5.1 0 0 1-1.678 1.039q-.984.386-2.258.386-1.679 0-3.007-.736-1.322-.743-2.088-2.162-.767-1.418-.767-3.453 0-2.04.779-3.459.778-1.419 2.107-2.155 1.327-.737 2.976-.737 1.122 0 2.076.314a5 5 0 0 1 1.679.906q.724.592 1.177 1.455.453.862.561 1.974m4.324 8.041q-.887 0-1.575-.296a2.45 2.45 0 0 1-1.08-.905q-.394-.61-.393-1.528 0-.773.271-1.304.272-.531.749-.863a3.5 3.5 0 0 1 1.099-.501 7 7 0 0 1 1.328-.235q.79-.074 1.274-.151.483-.085.7-.236a.51.51 0 0 0 .223-.44v-.03q0-.465-.32-.72-.319-.252-.863-.253-.585 0-.942.254a1.12 1.12 0 0 0-.453.7l-2.722-.096q.12-.846.622-1.51.506-.67 1.388-1.05.888-.387 2.131-.387.888 0 1.636.212.75.205 1.304.604.555.392.857.965.309.575.308 1.31V43.5h-2.777v-1.292h-.072q-.247.471-.634.797-.38.326-.9.489a3.8 3.8 0 0 1-1.159.163m.912-1.932q.477 0 .857-.193.387-.194.616-.531.23-.344.23-.797v-.882a2 2 0 0 1-.309.121 5 5 0 0 1-.386.103q-.21.048-.435.084-.222.036-.428.067a2.7 2.7 0 0 0-.713.205 1.1 1.1 0 0 0-.446.362.9.9 0 0 0-.151.52q0 .458.326.7.331.24.839.241m14.53-4.666-2.71.072a1 1 0 0 0-.23-.513 1.2 1.2 0 0 0-.488-.356 1.7 1.7 0 0 0-.688-.133q-.514 0-.876.205-.356.205-.35.556a.6.6 0 0 0 .217.47q.23.2.815.32l1.787.339q1.389.265 2.065.88.682.617.688 1.63-.006.955-.567 1.661-.556.706-1.522 1.099-.966.386-2.21.386-1.985 0-3.132-.815-1.141-.821-1.304-2.197l2.916-.073q.096.507.5.773.405.266 1.033.266.567 0 .924-.212.356-.21.362-.561a.6.6 0 0 0-.278-.501q-.272-.194-.851-.302l-1.618-.308q-1.395-.253-2.077-.936-.681-.688-.676-1.75-.006-.93.495-1.588.502-.664 1.425-1.014.924-.35 2.18-.35 1.883 0 2.97.79 1.086.785 1.2 2.162m4.636 1.153V43.5h-2.952V31.136h2.855v4.794h.103a2.7 2.7 0 0 1 1.026-1.34q.718-.484 1.757-.484.978 0 1.702.435.724.428 1.123 1.214.404.785.398 1.835v5.91H99.62v-5.33q.007-.773-.386-1.208t-1.105-.435q-.465 0-.82.206a1.4 1.4 0 0 0-.55.573q-.193.375-.2.906m14.182 5.288h-3.212l4.172-12.364h3.978l4.172 12.364h-3.212l-2.904-9.249h-.096zm-.429-4.866h6.713v2.27h-6.713zm10.87 8.343v-12.75h2.922v1.588h.09q.181-.422.513-.815.338-.393.858-.64.525-.254 1.255-.254.966 0 1.805.508.846.507 1.365 1.563t.519 2.693q0 1.575-.501 2.638-.495 1.063-1.34 1.594a3.4 3.4 0 0 1-1.866.53q-.7 0-1.213-.229a2.7 2.7 0 0 1-.864-.603 2.9 2.9 0 0 1-.531-.803h-.06v4.98zm2.891-8.113q0 .748.2 1.304.206.555.585.863.387.302.924.302.543 0 .924-.302.38-.308.573-.863.2-.555.199-1.304 0-.75-.199-1.298-.194-.55-.573-.852-.375-.3-.924-.301-.543 0-.924.295-.38.297-.585.846-.2.548-.2 1.31m7.983 8.113v-12.75h2.922v1.588h.09q.181-.422.513-.815.338-.393.858-.64.525-.254 1.255-.254.966 0 1.805.508.846.507 1.365 1.563t.519 2.693q0 1.575-.501 2.638-.495 1.063-1.34 1.594a3.4 3.4 0 0 1-1.866.53q-.7 0-1.213-.229a2.7 2.7 0 0 1-.864-.603 2.9 2.9 0 0 1-.531-.803h-.06v4.98zm2.891-8.113q0 .748.2 1.304.206.555.585.863.387.302.924.302.543 0 .924-.302.38-.308.573-.863.2-.555.199-1.304 0-.75-.199-1.298-.193-.55-.573-.852-.375-.3-.924-.301-.543 0-.924.295-.38.297-.585.846-.2.548-.2 1.31"/></g><defs><filter id="b" width="51.429" height="51.429" x="6.286" y="2.286" color-interpolation-filters="sRGB" filterUnits="userSpaceOnUse"><feFlood flood-opacity="0" result="BackgroundImageFix"/><feColorMatrix in="SourceAlpha" result="hardAlpha" values="0 0 0 0 0 0 0 0 0 0 0 0 0 0 0 0 0 0 127 0"/><feOffset/><feGaussianBlur stdDeviation="2.857"/><feComposite in2="hardAlpha" operator="out"/><feColorMatrix values="0 0 0 0 0 0 0 0 0 0 0 0 0 0 0 0 0 0 0.25 0"/><feBlend in2="BackgroundImageFix" result="effect1_dropShadow_59_23"/><feBlend in="SourceGraphic" in2="effect1_dropShadow_59_23" result="shape"/></filter><filter id="c" width="119.2" height="48.677" x="54.4" y="3.9" color-interpolation-filters="sRGB" filterUnits="userSpaceOnUse"><feFlood flood-opacity="0" result="BackgroundImageFix"/><feColorMatrix in="SourceAlpha" result="hardAlpha" values="0 0 0 0 0 0 0 0 0 0 0 0 0 0 0 0 0 0 127 0"/><feOffset/><feGaussianBlur stdDeviation="2.8"/><feComposite in2="hardAlpha" operator="out"/><feColorMatrix values="0 0 0 0 0 0 0 0 0 0 0 0 0 0 0 0 0 0 0.25 0"/><feBlend in2="BackgroundImageFix" result="effect1_dropShadow_59_23"/><feBlend in="SourceGraphic" in2="effect1_dropShadow_59_23" result="shape"/></filter><linearGradient id="a" x1="90" x2="90" y1="0" y2="56" gradientUnits="userSpaceOnUse"><stop stop-color="#003401"/><stop offset="1" stop-color="#001f03"/></linearGradient></defs></svg>