<svg xmlns="http://www.w3.org/2000/svg" width="186" height="56" fill="none" viewBox="0 0 186 56"><rect width="186" height="56" fill="url(#a)" rx="8"/><rect width="183.9" height="53.9" x="1.05" y="1.05" stroke="#fff" stroke-opacity=".15" stroke-width="2.1" rx="6.95"/><g filter="url(#b)"><path fill="#ff5e5b" d="M15.968 16.889H38.19v20.635H15.968z"/><path fill="#fff" d="M55.43 22.296c-1.432-7.632-8.998-8.582-8.998-8.582H12.545c-1.118 0-1.257 1.491-1.257 1.491s-.152 13.684-.041 22.088c.304 4.53 4.789 4.993 4.789 4.993s15.309-.043 22.159-.092c4.514-.796 4.968-4.794 4.922-6.976 8.06.448 13.744-5.29 12.313-12.922m-20.485 6.56c-2.308 2.714-7.428 7.429-7.428 7.429s-.224.222-.574.043c-.14-.107-.2-.169-.2-.169-.82-.824-6.237-5.696-7.47-7.387-1.313-1.803-1.928-5.045-.169-6.932 1.761-1.887 5.565-2.03 8.08.76 0 0 2.898-3.33 6.422-1.799 3.526 1.532 3.392 5.626 1.339 8.055m11.431.893c-1.718.217-3.115.052-3.115.052V19.187h3.278s3.65 1.03 3.65 4.929c0 3.574-1.824 4.983-3.813 5.633"/></g><g filter="url(#c)"><path fill="#e8e8e8" d="M67.625 15.92a1.66 1.66 0 0 0-.75-1.25q-.659-.448-1.66-.448-.715 0-1.238.227-.522.222-.812.614-.284.385-.284.88 0 .415.193.716.199.301.517.506.324.198.693.335.37.131.71.216l1.137.295q.556.136 1.142.37t1.085.613.807.944q.312.562.312 1.346 0 .989-.511 1.756-.506.767-1.472 1.21-.96.444-2.323.443-1.308 0-2.262-.415-.954-.414-1.494-1.176-.54-.767-.597-1.818h1.762q.05.63.409 1.051.362.415.926.62.568.198 1.244.198.744 0 1.324-.232.585-.24.92-.66.336-.426.336-.994 0-.517-.296-.846a2.2 2.2 0 0 0-.79-.546 8 8 0 0 0-1.119-.38l-1.375-.376q-1.398-.38-2.216-1.119-.812-.738-.812-1.954 0-1.006.545-1.756.546-.75 1.477-1.165.932-.42 2.103-.42 1.182 0 2.085.414.909.416 1.432 1.142.522.722.545 1.66zm9.342 4.96v-5.107h1.705V24.5h-1.67v-1.511h-.091q-.301.698-.966 1.164-.66.46-1.642.46-.841 0-1.49-.369-.64-.375-1.01-1.108-.364-.732-.364-1.812v-5.551h1.699v5.346q0 .893.494 1.42.495.53 1.284.53.477 0 .95-.24.475-.239.789-.721.318-.483.312-1.227m3.987 6.893v-12h1.66v1.415h.142q.147-.273.426-.631.278-.358.772-.625.495-.273 1.307-.273 1.058 0 1.887.534.83.535 1.3 1.54.478 1.005.478 2.42t-.472 2.427q-.471 1.005-1.295 1.55-.825.54-1.88.54-.796 0-1.302-.267a2.5 2.5 0 0 1-.784-.625 5 5 0 0 1-.437-.636h-.103v4.63zm1.665-7.637q0 .921.267 1.614t.773 1.085q.505.387 1.239.387.76 0 1.272-.404.512-.41.773-1.108.267-.699.267-1.574a4.3 4.3 0 0 0-.261-1.55q-.255-.689-.773-1.086-.51-.398-1.278-.398-.74 0-1.25.381-.506.38-.767 1.063-.262.681-.262 1.59m8.21 7.637v-12h1.66v1.415h.142q.147-.273.426-.631.278-.358.772-.625.495-.273 1.307-.273 1.058 0 1.887.534.83.535 1.3 1.54.478 1.005.478 2.42t-.472 2.427q-.471 1.005-1.295 1.55-.825.54-1.88.54-.796 0-1.302-.267a2.5 2.5 0 0 1-.784-.625 5 5 0 0 1-.437-.636h-.103v4.63zm1.665-7.637q0 .921.267 1.614t.773 1.085q.506.387 1.239.387.76 0 1.272-.404.512-.41.773-1.108.267-.699.267-1.574a4.3 4.3 0 0 0-.261-1.55q-.255-.689-.773-1.086-.51-.398-1.278-.398-.74 0-1.25.381-.506.38-.767 1.063-.262.681-.262 1.59m11.887 4.54q-1.229 0-2.142-.562a3.8 3.8 0 0 1-1.421-1.574q-.506-1.011-.506-2.364 0-1.358.506-2.375a3.8 3.8 0 0 1 1.421-1.58q.913-.561 2.142-.562 1.227 0 2.142.563t1.42 1.58q.506 1.016.506 2.374 0 1.353-.506 2.364a3.8 3.8 0 0 1-1.42 1.574q-.915.562-2.142.562m.005-1.426q.796 0 1.319-.42t.772-1.12q.256-.699.256-1.54 0-.835-.256-1.534a2.5 2.5 0 0 0-.772-1.13q-.523-.426-1.319-.427-.801 0-1.329.427a2.54 2.54 0 0 0-.779 1.13q-.25.7-.25 1.535 0 .84.25 1.54.256.697.779 1.119.528.42 1.329.42m5.959 1.25v-8.727h1.642v1.386h.091q.239-.705.841-1.108.608-.41 1.375-.409a7 7 0 0 1 .722.04v1.625a3 3 0 0 0-.364-.063 3.5 3.5 0 0 0-.523-.04 2.2 2.2 0 0 0-1.074.256 1.9 1.9 0 0 0-1.011 1.71v5.33zm10.73-8.727v1.363h-4.767v-1.363zm-3.488-2.091h1.698v8.256q0 .493.148.744a.78.78 0 0 0 .381.335q.238.085.517.085.204 0 .358-.028l.239-.046.306 1.404a3 3 0 0 1-.42.114 3.3 3.3 0 0 1-.682.068 3 3 0 0 1-1.25-.239 2.14 2.14 0 0 1-.937-.773q-.358-.523-.358-1.312zm9.602 10.818v-8.727h1.631v1.42h.108a2.25 2.25 0 0 1 .892-1.125q.619-.41 1.483-.409.875 0 1.465.41.597.408.881 1.124h.091q.313-.699.994-1.114.683-.42 1.625-.42 1.188 0 1.938.744.756.745.756 2.245V24.5h-1.699v-5.693q0-.887-.483-1.284a1.76 1.76 0 0 0-1.154-.398q-.83 0-1.289.511-.46.506-.461 1.302V24.5h-1.693v-5.801q0-.71-.443-1.142-.444-.432-1.153-.432-.483 0-.893.256-.402.25-.653.698a2.14 2.14 0 0 0-.244 1.04V24.5zm17.902.176q-1.29 0-2.222-.551a3.75 3.75 0 0 1-1.432-1.562q-.5-1.012-.5-2.37 0-1.341.5-2.364.506-1.021 1.41-1.596.909-.574 2.125-.574.738 0 1.431.244t1.245.768q.55.522.869 1.357.318.83.318 2.018v.602h-6.937v-1.273h5.272q0-.67-.272-1.187a2.07 2.07 0 0 0-.767-.824q-.49-.302-1.148-.302-.716 0-1.25.353a2.36 2.36 0 0 0-.818.909q-.284.556-.284 1.21v.994q0 .876.306 1.489.313.615.87.938.557.318 1.301.318.483 0 .881-.137a1.83 1.83 0 0 0 1.13-1.108l1.608.29q-.194.71-.693 1.244a3.35 3.35 0 0 1-1.244.824q-.744.29-1.699.29m13.54 0q-1.228 0-2.142-.562a3.8 3.8 0 0 1-1.421-1.574q-.506-1.011-.506-2.364 0-1.358.506-2.375a3.8 3.8 0 0 1 1.421-1.58q.914-.561 2.142-.562 1.227 0 2.142.563t1.42 1.58q.506 1.016.506 2.374 0 1.353-.506 2.364a3.8 3.8 0 0 1-1.42 1.574q-.915.562-2.142.562m.005-1.426q.796 0 1.319-.42t.772-1.12q.256-.699.256-1.54 0-.835-.256-1.534a2.5 2.5 0 0 0-.772-1.13q-.523-.426-1.319-.427-.801 0-1.329.427a2.54 2.54 0 0 0-.779 1.13q-.25.7-.25 1.535 0 .84.25 1.54.256.697.779 1.119.528.42 1.329.42m7.658-3.932V24.5h-1.699v-8.727h1.631v1.42h.108q.301-.693.943-1.114.647-.42 1.631-.42.891 0 1.562.375.67.37 1.04 1.102.369.733.369 1.813V24.5h-1.699v-5.347q0-.948-.494-1.482-.494-.54-1.358-.54-.59 0-1.051.255-.455.255-.722.75-.261.489-.261 1.182"/><path fill="#ff5e5b" d="M60.936 43.5V31.136h2.988v5.228h.163l4.087-5.228h3.52l-4.383 5.518 4.461 6.846h-3.574l-3.079-4.86-1.195 1.51v3.35zm15.584.175q-1.461 0-2.511-.598a4.1 4.1 0 0 1-1.612-1.678q-.562-1.08-.562-2.505 0-1.432.562-2.505.567-1.08 1.612-1.679 1.05-.603 2.511-.604 1.462 0 2.505.604 1.05.598 1.612 1.678.568 1.075.568 2.506 0 1.425-.568 2.505a4.07 4.07 0 0 1-1.612 1.678q-1.044.598-2.505.598m.018-2.228q.531 0 .9-.326.368-.326.561-.905.2-.58.2-1.34 0-.773-.2-1.353-.194-.58-.561-.905a1.3 1.3 0 0 0-.9-.326 1.38 1.38 0 0 0-.93.326q-.373.327-.573.905-.193.58-.193 1.353 0 .76.193 1.34.2.58.574.905.38.327.93.326m12.113-4.087v2.276h-5.723V37.36zm7.355-3.133v2.174H90.04v-2.174zM91.285 43.5v-9.744q0-1.075.404-1.78.405-.713 1.123-1.063.719-.357 1.66-.356.615 0 1.16.096.549.09.814.163l-.47 2.162a2.5 2.5 0 0 0-.399-.09 3 3 0 0 0-.434-.037q-.52 0-.713.23-.193.228-.193.627V43.5zm6.14 0v-9.273h2.953V43.5zm1.48-10.353q-.621 0-1.069-.41a1.32 1.32 0 0 1-.446-1.003q0-.579.447-.99a1.5 1.5 0 0 1 1.068-.417q.628 0 1.069.417.446.411.446.99 0 .585-.447 1.002a1.5 1.5 0 0 1-1.068.41"/></g><defs><filter id="b" width="55.873" height="51.429" x="5.492" y="2.286" color-interpolation-filters="sRGB" filterUnits="userSpaceOnUse"><feFlood flood-opacity="0" result="BackgroundImageFix"/><feColorMatrix in="SourceAlpha" result="hardAlpha" values="0 0 0 0 0 0 0 0 0 0 0 0 0 0 0 0 0 0 127 0"/><feOffset/><feGaussianBlur stdDeviation="2.857"/><feComposite in2="hardAlpha" operator="out"/><feColorMatrix values="0 0 0 0 0 0 0 0 0 0 0 0 0 0 0 0 0 0 0.25 0"/><feBlend in2="BackgroundImageFix" result="effect1_dropShadow_28_466"/><feBlend in="SourceGraphic" in2="effect1_dropShadow_28_466" result="shape"/></filter><filter id="c" width="125.2" height="48.2" x="54.4" y="3.9" color-interpolation-filters="sRGB" filterUnits="userSpaceOnUse"><feFlood flood-opacity="0" result="BackgroundImageFix"/><feColorMatrix in="SourceAlpha" result="hardAlpha" values="0 0 0 0 0 0 0 0 0 0 0 0 0 0 0 0 0 0 127 0"/><feOffset/><feGaussianBlur stdDeviation="2.8"/><feComposite in2="hardAlpha" operator="out"/><feColorMatrix values="0 0 0 0 0 0 0 0 0 0 0 0 0 0 0 0 0 0 0.25 0"/><feBlend in2="BackgroundImageFix" result="effect1_dropShadow_28_466"/><feBlend in="SourceGraphic" in2="effect1_dropShadow_28_466" result="shape"/></filter><linearGradient id="a" x1="93" x2="93" y1="0" y2="56" gradientUnits="userSpaceOnUse"><stop stop-color="#002634"/><stop offset="1" stop-color="#00161f"/></linearGradient></defs></svg>