<svg xmlns="http://www.w3.org/2000/svg" width="186" height="56" fill="none" viewBox="0 0 186 56"><rect width="186" height="56" fill="url(#a)" rx="8"/><rect width="183.9" height="53.9" x="1.05" y="1.05" stroke="#fff" stroke-opacity=".15" stroke-width="2.1" rx="6.95"/><g filter="url(#b)"><path fill="#0045d9" d="m44.39 20.806-20.1 21.797h-7.373c-.512 0-.922-.509-.82-1.018l4.916-30.935a1.43 1.43 0 0 1 1.433-1.221h12.492c8.601.305 10.956 4.68 9.42 11.397z"/><path fill="#00a4ee" d="M44.717 18.79c3.072 1.629 3.788 4.682 2.764 8.752-1.33 6.004-5.324 8.548-11.16 8.65l-1.639.102c-.614 0-1.024.407-1.126 1.017l-1.331 8.04a1.43 1.43 0 0 1-1.434 1.22h-6.143c-.512 0-.922-.508-.82-1.017l2.253-14.552c.103-.509 18.636-12.211 18.636-12.211"/><path fill="#002788" d="m25.958 31.714 2.048-12.923a1.44 1.44 0 0 1 1.331-1.12h9.83c2.355 0 4.096.407 5.53 1.12-.513 4.477-2.663 11.702-13.107 11.906h-4.505c-.512 0-1.024.407-1.127 1.017"/></g><g filter="url(#c)"><path fill="#e8e8e8" d="M67.625 15.92a1.66 1.66 0 0 0-.75-1.25q-.659-.448-1.66-.448-.715 0-1.238.227-.522.222-.812.614-.284.385-.284.88 0 .415.193.716.199.301.517.506.324.198.693.335.37.131.71.216l1.137.295q.556.136 1.142.37t1.085.613.807.944q.312.562.312 1.346 0 .989-.511 1.756-.506.767-1.472 1.21-.96.444-2.323.443-1.308 0-2.262-.415-.954-.414-1.494-1.176-.54-.767-.597-1.818h1.762q.05.63.409 1.051.362.415.926.62.568.198 1.244.198.744 0 1.324-.232.585-.24.92-.66.336-.426.336-.994 0-.517-.296-.846a2.2 2.2 0 0 0-.79-.546 8 8 0 0 0-1.119-.38l-1.375-.376q-1.398-.38-2.216-1.119-.812-.738-.812-1.954 0-1.006.545-1.756.546-.75 1.477-1.165.932-.42 2.103-.42 1.182 0 2.085.414.909.416 1.432 1.142.522.722.545 1.66zm9.342 4.96v-5.107h1.705V24.5h-1.67v-1.511h-.091q-.301.698-.966 1.164-.66.46-1.642.46-.841 0-1.49-.369-.64-.375-1.01-1.108-.364-.732-.364-1.812v-5.551h1.699v5.346q0 .893.494 1.42.495.53 1.284.53.477 0 .95-.24.475-.239.789-.721.318-.483.312-1.227m3.987 6.893v-12h1.66v1.415h.142q.147-.273.426-.631.278-.358.772-.625.495-.273 1.307-.273 1.058 0 1.887.534.83.535 1.3 1.54.478 1.005.478 2.42t-.472 2.427q-.471 1.005-1.295 1.55-.825.54-1.88.54-.796 0-1.302-.267a2.5 2.5 0 0 1-.784-.625 5 5 0 0 1-.437-.636h-.103v4.63zm1.665-7.637q0 .921.267 1.614t.773 1.085q.505.387 1.239.387.76 0 1.272-.404.512-.41.773-1.108.267-.699.267-1.574a4.3 4.3 0 0 0-.261-1.55q-.255-.689-.773-1.086-.51-.398-1.278-.398-.74 0-1.25.381-.506.38-.767 1.063-.262.681-.262 1.59m8.21 7.637v-12h1.66v1.415h.142q.147-.273.426-.631.278-.358.772-.625.495-.273 1.307-.273 1.058 0 1.887.534.83.535 1.3 1.54.478 1.005.478 2.42t-.472 2.427q-.471 1.005-1.295 1.55-.825.54-1.88.54-.796 0-1.302-.267a2.5 2.5 0 0 1-.784-.625 5 5 0 0 1-.437-.636h-.103v4.63zm1.665-7.637q0 .921.267 1.614t.773 1.085q.506.387 1.239.387.76 0 1.272-.404.512-.41.773-1.108.267-.699.267-1.574a4.3 4.3 0 0 0-.261-1.55q-.255-.689-.773-1.086-.51-.398-1.278-.398-.74 0-1.25.381-.506.38-.767 1.063-.262.681-.262 1.59m11.887 4.54q-1.229 0-2.142-.562a3.8 3.8 0 0 1-1.421-1.574q-.506-1.011-.506-2.364 0-1.358.506-2.375a3.8 3.8 0 0 1 1.421-1.58q.913-.561 2.142-.562 1.227 0 2.142.563t1.42 1.58q.506 1.016.506 2.374 0 1.353-.506 2.364a3.8 3.8 0 0 1-1.42 1.574q-.915.562-2.142.562m.005-1.426q.796 0 1.319-.42t.772-1.12q.256-.699.256-1.54 0-.835-.256-1.534a2.5 2.5 0 0 0-.772-1.13q-.523-.426-1.319-.427-.801 0-1.329.427a2.54 2.54 0 0 0-.779 1.13q-.25.7-.25 1.535 0 .84.25 1.54.256.697.779 1.119.528.42 1.329.42m5.959 1.25v-8.727h1.642v1.386h.091q.239-.705.841-1.108.608-.41 1.375-.409a7 7 0 0 1 .722.04v1.625a3 3 0 0 0-.364-.063 3.5 3.5 0 0 0-.523-.04 2.2 2.2 0 0 0-1.074.256 1.9 1.9 0 0 0-1.011 1.71v5.33zm10.73-8.727v1.363h-4.767v-1.363zm-3.488-2.091h1.698v8.256q0 .493.148.744a.78.78 0 0 0 .381.335q.238.085.517.085.204 0 .358-.028l.239-.046.306 1.404a3 3 0 0 1-.42.114 3.3 3.3 0 0 1-.682.068 3 3 0 0 1-1.25-.239 2.14 2.14 0 0 1-.937-.773q-.358-.523-.358-1.312zm9.602 10.818v-8.727h1.631v1.42h.108a2.25 2.25 0 0 1 .892-1.125q.619-.41 1.483-.409.875 0 1.465.41.597.408.881 1.124h.091q.313-.699.994-1.114.683-.42 1.625-.42 1.188 0 1.938.744.756.745.756 2.245V24.5h-1.699v-5.693q0-.887-.483-1.284a1.76 1.76 0 0 0-1.154-.398q-.83 0-1.289.511-.46.506-.461 1.302V24.5h-1.693v-5.801q0-.71-.443-1.142-.444-.432-1.153-.432-.483 0-.893.256-.402.25-.653.698a2.14 2.14 0 0 0-.244 1.04V24.5zm17.902.176q-1.29 0-2.222-.551a3.75 3.75 0 0 1-1.432-1.562q-.5-1.012-.5-2.37 0-1.341.5-2.364.506-1.021 1.41-1.596.909-.574 2.125-.574.738 0 1.431.244t1.245.768q.55.522.869 1.357.318.83.318 2.018v.602h-6.937v-1.273h5.272q0-.67-.272-1.187a2.07 2.07 0 0 0-.767-.824q-.49-.302-1.148-.302-.716 0-1.25.353a2.36 2.36 0 0 0-.818.909q-.284.556-.284 1.21v.994q0 .876.306 1.489.313.615.87.938.557.318 1.301.318.483 0 .881-.137a1.83 1.83 0 0 0 1.13-1.108l1.608.29q-.194.71-.693 1.244a3.35 3.35 0 0 1-1.244.824q-.744.29-1.699.29m13.54 0q-1.228 0-2.142-.562a3.8 3.8 0 0 1-1.421-1.574q-.506-1.011-.506-2.364 0-1.358.506-2.375a3.8 3.8 0 0 1 1.421-1.58q.914-.561 2.142-.562 1.227 0 2.142.563t1.42 1.58q.506 1.016.506 2.374 0 1.353-.506 2.364a3.8 3.8 0 0 1-1.42 1.574q-.915.562-2.142.562m.005-1.426q.796 0 1.319-.42t.772-1.12q.256-.699.256-1.54 0-.835-.256-1.534a2.5 2.5 0 0 0-.772-1.13q-.523-.426-1.319-.427-.801 0-1.329.427a2.54 2.54 0 0 0-.779 1.13q-.25.7-.25 1.535 0 .84.25 1.54.256.697.779 1.119.528.42 1.329.42m7.658-3.932V24.5h-1.699v-8.727h1.631v1.42h.108q.301-.693.943-1.114.647-.42 1.631-.42.891 0 1.562.375.67.37 1.04 1.102.369.733.369 1.813V24.5h-1.699v-5.347q0-.948-.494-1.482-.494-.54-1.358-.54-.59 0-1.051.255-.455.255-.722.75-.261.489-.261 1.182"/><path fill="#0045d9" d="M60.936 43.5V31.136h5.107q1.388 0 2.397.544 1.014.537 1.563 1.503.55.96.55 2.233 0 1.28-.562 2.24-.556.954-1.588 1.48-1.032.525-2.45.524H62.8v-2.354h2.596q.675 0 1.129-.235.459-.236.694-.658.236-.429.236-.996 0-.575-.236-.99a1.6 1.6 0 0 0-.694-.652q-.459-.23-1.129-.23h-1.473V43.5zm13.372.157q-.888 0-1.576-.296a2.45 2.45 0 0 1-1.08-.905q-.393-.61-.393-1.528 0-.773.272-1.304.27-.531.748-.863a3.5 3.5 0 0 1 1.099-.501 7 7 0 0 1 1.328-.235q.79-.074 1.274-.151.483-.085.7-.236a.51.51 0 0 0 .223-.44v-.03q0-.465-.32-.72-.319-.252-.863-.253-.585 0-.942.254a1.12 1.12 0 0 0-.452.7l-2.723-.096q.12-.846.622-1.51.506-.67 1.388-1.05.888-.387 2.131-.387.888 0 1.636.212.75.205 1.304.604.555.392.858.965.307.575.307 1.31V43.5h-2.777v-1.292H77q-.247.471-.634.797-.38.326-.9.489a3.8 3.8 0 0 1-1.158.163m.911-1.932q.477 0 .857-.193.387-.194.616-.531.23-.344.23-.797v-.882a2 2 0 0 1-.308.121 5 5 0 0 1-.387.103q-.21.048-.434.084t-.429.067a2.7 2.7 0 0 0-.712.205 1.1 1.1 0 0 0-.447.362.9.9 0 0 0-.151.52q0 .458.326.7.332.24.84.241m7.909 5.252q-.532 0-1.003-.084a4 4 0 0 1-.809-.212l.652-2.143q.435.145.785.17.356.023.61-.115.26-.133.398-.477l.115-.278-3.296-9.61h3.09l1.71 6.616h.096l1.732-6.617h3.11l-3.496 10.16q-.253.762-.718 1.34a3.1 3.1 0 0 1-1.19.918q-.724.332-1.787.332"/><path fill="#00a4ee" d="M91.45 43.5V31.136h5.107q1.388 0 2.396.544 1.014.537 1.564 1.503.549.96.549 2.233 0 1.28-.561 2.24-.556.954-1.588 1.48-1.032.525-2.45.524h-3.152v-2.354h2.596q.675 0 1.129-.235.458-.236.694-.658.235-.429.235-.996 0-.575-.235-.99a1.6 1.6 0 0 0-.694-.652q-.46-.23-1.13-.23h-1.472V43.5zm13.371.157q-.887 0-1.575-.296a2.46 2.46 0 0 1-1.081-.905q-.393-.61-.392-1.528 0-.773.271-1.304.272-.531.749-.863a3.5 3.5 0 0 1 1.098-.501 7 7 0 0 1 1.329-.235q.79-.074 1.273-.151.483-.085.701-.236a.51.51 0 0 0 .223-.44v-.03q0-.465-.32-.72-.32-.252-.863-.253-.586 0-.942.254a1.12 1.12 0 0 0-.453.7l-2.722-.096q.12-.846.621-1.51.508-.67 1.389-1.05.888-.387 2.131-.387.888 0 1.636.212.749.205 1.304.604.555.392.857.965.308.575.308 1.31V43.5h-2.777v-1.292h-.072q-.248.471-.634.797-.381.326-.9.489a3.8 3.8 0 0 1-1.159.163m.912-1.932q.476 0 .857-.193.387-.194.616-.531.23-.344.229-.797v-.882a1.7 1.7 0 0 1-.308.121 5 5 0 0 1-.386.103q-.212.048-.435.084l-.428.067a2.7 2.7 0 0 0-.713.205 1.1 1.1 0 0 0-.446.362.9.9 0 0 0-.151.52q0 .458.326.7.332.24.839.241m9.387-10.589V43.5h-2.952V31.136z"/></g><defs><filter id="b" width="51.429" height="51.429" x="6.286" y="2.286" color-interpolation-filters="sRGB" filterUnits="userSpaceOnUse"><feFlood flood-opacity="0" result="BackgroundImageFix"/><feColorMatrix in="SourceAlpha" result="hardAlpha" values="0 0 0 0 0 0 0 0 0 0 0 0 0 0 0 0 0 0 127 0"/><feOffset/><feGaussianBlur stdDeviation="2.857"/><feComposite in2="hardAlpha" operator="out"/><feColorMatrix values="0 0 0 0 0 0 0 0 0 0 0 0 0 0 0 0 0 0 0.25 0"/><feBlend in2="BackgroundImageFix" result="effect1_dropShadow_28_498"/><feBlend in="SourceGraphic" in2="effect1_dropShadow_28_498" result="shape"/></filter><filter id="c" width="125.2" height="48.677" x="54.4" y="3.9" color-interpolation-filters="sRGB" filterUnits="userSpaceOnUse"><feFlood flood-opacity="0" result="BackgroundImageFix"/><feColorMatrix in="SourceAlpha" result="hardAlpha" values="0 0 0 0 0 0 0 0 0 0 0 0 0 0 0 0 0 0 127 0"/><feOffset/><feGaussianBlur stdDeviation="2.8"/><feComposite in2="hardAlpha" operator="out"/><feColorMatrix values="0 0 0 0 0 0 0 0 0 0 0 0 0 0 0 0 0 0 0.25 0"/><feBlend in2="BackgroundImageFix" result="effect1_dropShadow_28_498"/><feBlend in="SourceGraphic" in2="effect1_dropShadow_28_498" result="shape"/></filter><linearGradient id="a" x1="93" x2="93" y1="0" y2="56" gradientUnits="userSpaceOnUse"><stop stop-color="#0e1b35"/><stop offset="1" stop-color="#0a1d25"/></linearGradient></defs></svg>