<svg xmlns="http://www.w3.org/2000/svg" width="56" height="56" fill="none" viewBox="0 0 56 56"><rect width="56" height="56" fill="url(#a)" rx="8.4"/><rect width="53.9" height="53.9" x="1.05" y="1.05" stroke="#fff" stroke-opacity=".15" stroke-width="2.1" rx="7.35"/><g filter="url(#b)"><path fill="url(#c)" fill-rule="evenodd" d="M14.679 8.157c-.377.29-.44.802-.44 3.547 0 2.011-.038 2.75-.144 2.816-.078.05-1.152.254-2.385.455l-2.242.365-.031 2.993c-.024 2.305.003 3.02.118 3.11.1.08.836.01 2.269-.22 1.166-.185 2.187-.313 2.268-.283.118.043.142 2.077.118 9.862l-.03 9.807-2.356.06-2.356.06V48h20.495v-7.271l-2.414-.06-2.415-.06-.03-10.701c-.024-8.5 0-10.713.118-10.756.152-.055 13.695-2.183 14.223-2.235.279-.027.297.007.327.627l.033.656-2.306 2.145-2.305 2.146-.672.06-.672.059v4.768h12.721V22.61l-.614-.036-.615-.036-1.947-2.158-1.947-2.158v-.742c0-.881.065-.951.99-1.065.876-.107 1.011-.161 1.015-.404.006-.378-.86-5.8-.941-5.891-.045-.051-3.937.526-8.65 1.284-4.712.756-8.617 1.345-8.677 1.307s-.11-.889-.11-1.891c0-1.894-.106-2.495-.476-2.696-.341-.185-9.677-.154-9.92.033m8.486 3.238c.037 1.742.058 1.693-.778 1.854l-.619.118-2.116-1.684c-1.163-.926-2.115-1.731-2.115-1.788s1.259-.09 2.797-.072l2.798.032zm-4.686 1.6c.883.718.854.76-.697 1.007-1.763.281-1.659.36-1.659-1.262 0-1.81-.218-1.833 2.356.256m4.688 7.202c.04.79-.015.817-.638.315-.251-.204-.56-.444-.686-.534-.289-.207-.223-.27.419-.4.834-.167.866-.145.905.62m18.538.926c.603.658 1.115 1.248 1.137 1.311.024.073-.889.116-2.444.116-1.366 0-2.485-.04-2.487-.09-.004-.103 2.497-2.52 2.616-2.527.044-.003.574.533 1.178 1.19m-21.606-.29c1.296 1.046 1.347 1.012-1.473.975l-2.444-.032-.037-.523c-.049-.695-.027-.71 1.522-.962.738-.12 1.369-.224 1.401-.23s.496.34 1.03.772m3.065 4.727c.018 1.033-.009 1.877-.059 1.876-.133-.002-4.56-3.555-4.607-3.698-.026-.079.765-.109 2.297-.088l2.337.033zm-4.382.75c1.317 1.046 2.353 1.944 2.303 1.994s-1.173.078-2.497.06l-2.406-.032-.032-2.008c-.024-1.468.004-1.995.103-1.962.074.025 1.212.902 2.529 1.948m4.382 5.708c.018.978-.008 1.817-.059 1.863-.09.083-4.529-3.382-4.607-3.597-.024-.065.909-.097 2.297-.078l2.337.033zm-4.39.804c1.331 1.06 2.375 1.974 2.32 2.03-.054.055-1.182.086-2.506.068l-2.406-.032-.032-1.997c-.02-1.28.01-1.996.086-1.996.065 0 1.207.867 2.538 1.927m4.39 5.731c.025 1.463 0 1.876-.118 1.87-.195-.01-4.476-3.461-4.54-3.66-.038-.12.44-.145 2.289-.12l2.337.033zm-2.924 2.03c.003.05-.908.077-2.026.06l-2.032-.034-.033-1.483c-.018-.816-.007-1.554.026-1.64.058-.152 4.052 2.89 4.065 3.097" clip-rule="evenodd"/></g><defs><linearGradient id="a" x1="28" x2="28" y1="0" y2="56" gradientUnits="userSpaceOnUse"><stop stop-color="#311d14"/><stop offset="1" stop-color="#1c0b0b"/></linearGradient><linearGradient id="c" x1="28" x2="28" y1="8" y2="48" gradientUnits="userSpaceOnUse"><stop stop-color="#e05718"/><stop offset="1" stop-color="#d63833"/></linearGradient><filter id="b" width="51.429" height="51.429" x="2.286" y="2.286" color-interpolation-filters="sRGB" filterUnits="userSpaceOnUse"><feFlood flood-opacity="0" result="BackgroundImageFix"/><feColorMatrix in="SourceAlpha" result="hardAlpha" values="0 0 0 0 0 0 0 0 0 0 0 0 0 0 0 0 0 0 127 0"/><feOffset/><feGaussianBlur stdDeviation="2.857"/><feComposite in2="hardAlpha" operator="out"/><feColorMatrix values="0 0 0 0 0 0 0 0 0 0 0 0 0 0 0 0 0 0 0.25 0"/><feBlend in2="BackgroundImageFix" result="effect1_dropShadow_28_3563"/><feBlend in="SourceGraphic" in2="effect1_dropShadow_28_3563" result="shape"/></filter></defs></svg>