<svg xmlns="http://www.w3.org/2000/svg" width="56" height="56" fill="none" viewBox="0 0 56 56"><g clip-path="url(#a)"><rect width="56" height="56" fill="url(#b)" rx="8.4"/><g filter="url(#c)"><path fill="#fff" d="M9 36.5V34h7.5v2.5zm7.5-2.5v-2.5H19V34zm-10 0V21.5H9V34zm10-10v-2.5H19V24zM9 21.5V19h7.5v2.5zm12.5 15V19H34v2.5H24V24h5v2.5h-5V34h10v2.5zm20-10V24H44v2.5zm-5 10V19H39v2.5h2.5V24H39v12.5zm10 0V24H44v-2.5h2.5V19H49v17.5z"/></g></g><rect width="53.9" height="53.9" x="1.05" y="1.05" stroke="#fff" stroke-opacity=".15" stroke-width="2.1" rx="7.35"/><defs><linearGradient id="b" x1="28" x2="28" y1="0" y2="53.2" gradientUnits="userSpaceOnUse"><stop stop-color="#343434"/><stop offset="1" stop-color="#232323"/></linearGradient><clipPath id="a"><rect width="56" height="56" fill="#fff" rx="8.4"/></clipPath><filter id="c" width="53.929" height="51.429" x=".786" y="2.286" color-interpolation-filters="sRGB" filterUnits="userSpaceOnUse"><feFlood flood-opacity="0" result="BackgroundImageFix"/><feColorMatrix in="SourceAlpha" result="hardAlpha" values="0 0 0 0 0 0 0 0 0 0 0 0 0 0 0 0 0 0 127 0"/><feOffset/><feGaussianBlur stdDeviation="2.857"/><feComposite in2="hardAlpha" operator="out"/><feColorMatrix values="0 0 0 0 0 0 0 0 0 0 0 0 0 0 0 0 0 0 0.25 0"/><feBlend in2="BackgroundImageFix" result="effect1_dropShadow_28_3590"/><feBlend in="SourceGraphic" in2="effect1_dropShadow_28_3590" result="shape"/></filter></defs></svg>