<svg xmlns="http://www.w3.org/2000/svg" width="56" height="56" fill="none" viewBox="0 0 56 56"><rect width="56" height="56" fill="url(#a)" rx="8.4"/><rect width="53.9" height="53.9" x="1.05" y="1.05" stroke="#fff" stroke-opacity=".15" stroke-width="2.1" rx="7.35"/><g filter="url(#b)"><path fill="#fff" d="M11.5 36.5V34H19v2.5zM19 34v-2.5h2.5V34zM9 34V21.5h2.5V34zm10-10v-2.5h2.5V24zm-7.5-2.5V19H19v2.5zm12.5 15V34h2.5V21.5H24V19h7.5v2.5H29V34h2.5v2.5zm15 0v-15h-5V19h12.5v2.5h-5v15z"/></g><defs><linearGradient id="a" x1="28" x2="28" y1="0" y2="53.2" gradientUnits="userSpaceOnUse"><stop stop-color="#343434"/><stop offset="1" stop-color="#232323"/></linearGradient><filter id="b" width="51.429" height="51.429" x="2.286" y="2.286" color-interpolation-filters="sRGB" filterUnits="userSpaceOnUse"><feFlood flood-opacity="0" result="BackgroundImageFix"/><feColorMatrix in="SourceAlpha" result="hardAlpha" values="0 0 0 0 0 0 0 0 0 0 0 0 0 0 0 0 0 0 127 0"/><feOffset/><feGaussianBlur stdDeviation="2.857"/><feComposite in2="hardAlpha" operator="out"/><feColorMatrix values="0 0 0 0 0 0 0 0 0 0 0 0 0 0 0 0 0 0 0.25 0"/><feBlend in2="BackgroundImageFix" result="effect1_dropShadow_28_3583"/><feBlend in="SourceGraphic" in2="effect1_dropShadow_28_3583" result="shape"/></filter></defs></svg>