<svg xmlns="http://www.w3.org/2000/svg" width="56" height="56" fill="none" viewBox="0 0 56 56"><rect width="56" height="56" fill="url(#a)" rx="8.4"/><rect width="53.9" height="53.9" x="1.05" y="1.05" stroke="#fff" stroke-opacity=".15" stroke-width="2.1" rx="7.35"/><g filter="url(#b)"><path fill="#115110" d="M29.548 8v2.873h-2.874v5.746H23.8v2.873h-2.874v2.652h-2.874v2.873h-2.874v2.873h-2.875v2.872H9.43v5.746h2.874v2.873h2.874v2.873h2.875v2.873h2.874V48H23.8v-2.873h2.874v-2.873h2.874v-2.873h2.874v-2.873h2.875v-2.873h2.653v-2.872h5.748V27.89h2.874v-5.746h-2.874v-2.652h-2.874v-2.873H37.95v-2.873h-2.654v-2.873h-2.874V8z"/><path fill="#9cff55" d="M29.548 10.873v2.873h2.875v2.873h2.874v2.873h2.653v2.652h2.874v-2.652H37.95v-2.873h-2.653v-2.873h-2.874v-2.873z"/><path fill="#90eb4b" d="M29.548 13.746v2.873h2.873v-2.873z"/><path fill="#9cff55" d="M26.674 16.619v5.525h-5.748v2.873h-2.874v2.873h-2.874v5.745h2.874v2.873h2.874v2.873h5.748v-5.746H23.8v-2.872h5.749v2.872h2.874V27.89h-2.875v-2.873h5.749v-2.873h-2.874v-2.652h-2.875v-2.873z"/><path fill="#115110" d="M29.548 16.619v2.873h2.875v2.652h2.874v2.873h2.653v-2.873h-2.653v-2.652h-2.874v-2.873z"/><path fill="#89dc42" d="M32.422 16.619v2.873h2.873v-2.873z"/><path fill="#90eb4b" d="M23.8 19.492v2.652h2.873v-2.652z"/><path fill="#89dc42" d="M35.297 19.492v2.652h2.652v-2.652z"/><path fill="#90eb4b" d="M26.674 22.144v2.873h2.873v-2.873z"/><path fill="#89dc42" d="M37.95 22.144v2.873h2.873v-2.873z"/><path fill="#90eb4b" d="M29.548 25.017v2.873h5.749v-2.873z"/><path fill="#89dc42" d="M35.297 25.017v2.873h-2.875v5.745h2.875v-2.872h2.653v-5.746z"/><path fill="#5e8d2f" d="M40.824 25.017v2.873h2.873v-2.873z"/><path fill="#90eb4b" d="M20.926 27.89v2.872H23.8V27.89z"/><path fill="#80cc3d" d="M12.303 30.763v2.872h2.874v2.873h2.875v2.873h2.874v2.873H23.8v-2.873h-2.874v-2.873h-2.874v-2.873h-2.875v-2.872z"/><path fill="#90eb4b" d="M23.8 30.763v2.872h5.749v-2.872z"/><path fill="#6eaa33" d="M12.303 33.635v2.873h2.873v-2.873z"/><path fill="#89dc42" d="M26.674 33.635v5.746h2.874v-2.873h2.874v-2.873z"/><path fill="#6eaa33" d="M15.178 36.508v2.873h2.874v-2.873zm2.874 2.873v2.873h2.874v-2.873z"/><path fill="#89dc42" d="M23.8 39.381v2.873h2.873v-2.873z"/><path fill="#6eaa33" d="M20.926 42.254v2.873H23.8v-2.873z"/></g><defs><linearGradient id="a" x1="28" x2="28" y1="0" y2="56" gradientUnits="userSpaceOnUse"><stop stop-color="#213116"/><stop offset="1" stop-color="#151e0d"/></linearGradient><filter id="b" width="51.429" height="51.429" x="2.286" y="2.286" color-interpolation-filters="sRGB" filterUnits="userSpaceOnUse"><feFlood flood-opacity="0" result="BackgroundImageFix"/><feColorMatrix in="SourceAlpha" result="hardAlpha" values="0 0 0 0 0 0 0 0 0 0 0 0 0 0 0 0 0 0 127 0"/><feOffset/><feGaussianBlur stdDeviation="2.857"/><feComposite in2="hardAlpha" operator="out"/><feColorMatrix values="0 0 0 0 0 0 0 0 0 0 0 0 0 0 0 0 0 0 0.25 0"/><feBlend in2="BackgroundImageFix" result="effect1_dropShadow_28_3557"/><feBlend in="SourceGraphic" in2="effect1_dropShadow_28_3557" result="shape"/></filter></defs></svg>