<svg xmlns="http://www.w3.org/2000/svg" width="56" height="56" fill="none" viewBox="0 0 56 56"><g clip-path="url(#a)"><rect width="56" height="56" fill="url(#b)" rx="8.4"/><g filter="url(#c)"><path fill="#9722ff" d="M19.121 13.536a.71.71 0 0 0 .707.707h1.202v2.687h-1.202a.707.707 0 1 0 0 1.414h1.202v2.06a.627.627 0 0 1-.626.626h-2.06v-1.202a.707.707 0 1 0-1.414 0v1.202h-2.687v-1.202a.706.706 0 1 0-1.414 0v1.202h-2.06a.627.627 0 0 1-.626-.626V10.77a.626.626 0 0 1 .626-.626h9.635a.626.626 0 0 1 .626.626v2.06h-1.202a.707.707 0 0 0-.707.707"/><path fill="#dc29dd" d="M31.421 13.536a.707.707 0 0 0 .707.707h1.206v2.687h-1.202a.707.707 0 1 0 0 1.414h1.202v2.06a.627.627 0 0 1-.627.626h-9.636a.626.626 0 0 1-.626-.626v-2.06h1.201a.707.707 0 1 0 0-1.414h-1.201v-2.687h1.201a.708.708 0 1 0 0-1.414h-1.201v-2.06a.626.626 0 0 1 .626-.626h9.635a.626.626 0 0 1 .626.626v2.06H32.13a.705.705 0 0 0-.709.707"/><path fill="#27a2fd" d="M45.634 10.77v9.634a.627.627 0 0 1-.627.626h-2.06v-1.202a.706.706 0 1 0-1.414 0v1.202h-2.687v-1.202a.707.707 0 1 0-1.413 0v1.202h-2.06a.627.627 0 0 1-.627-.626v-2.06h1.202a.707.707 0 0 0 0-1.414h-1.202v-2.687h1.202a.708.708 0 0 0 0-1.414h-1.202v-2.06a.626.626 0 0 1 .626-.626h9.635a.626.626 0 0 1 .627.626"/><path fill="#dc29dd" d="M21.03 23.07v9.635a.624.624 0 0 1-.626.627h-2.06V32.13a.707.707 0 0 0-1.414 0v1.203h-2.687v-1.202a.707.707 0 1 0-1.414 0v1.202h-2.06a.626.626 0 0 1-.626-.626V23.07a.627.627 0 0 1 .626-.626h2.06v1.202a.706.706 0 1 0 1.414 0v-1.202h2.687v1.202a.707.707 0 1 0 1.413 0v-1.202h2.06a.626.626 0 0 1 .627.626"/><path fill="#27a2fd" d="M31.421 25.838a.707.707 0 0 0 .707.706h1.206v2.687h-1.202a.707.707 0 0 0 0 1.414h1.202v2.06a.626.626 0 0 1-.627.627h-2.061V32.13a.707.707 0 0 0-1.414 0v1.203h-2.687v-1.202a.707.707 0 0 0-1.414 0v1.202h-2.06a.626.626 0 0 1-.626-.626V23.07a.626.626 0 0 1 .626-.626h9.635a.627.627 0 0 1 .626.626v2.06H32.13a.707.707 0 0 0-.709.708"/><path fill="#34f" d="M45.634 23.07v9.635a.624.624 0 0 1-.627.627h-9.635a.626.626 0 0 1-.626-.627v-2.06h1.202a.707.707 0 0 0 0-1.414h-1.202v-2.687h1.202a.707.707 0 0 0 0-1.413h-1.202v-2.06a.627.627 0 0 1 .626-.627h2.06v1.202a.707.707 0 0 0 1.413 0v-1.202h2.687v1.202a.707.707 0 0 0 1.414 0v-1.202h2.06a.626.626 0 0 1 .627.626"/><path fill="#9722ff" d="M19.121 38.14a.71.71 0 0 0 .707.706h1.202v2.687h-1.202a.708.708 0 0 0 0 1.414h1.202v2.06a.626.626 0 0 1-.626.627h-9.635a.627.627 0 0 1-.626-.627v-9.635a.626.626 0 0 1 .626-.626h2.06v1.201a.707.707 0 1 0 1.414 0v-1.201h2.687v1.201a.707.707 0 0 0 1.413 0v-1.201h2.06a.626.626 0 0 1 .627.626v2.059h-1.202a.707.707 0 0 0-.707.709"/><path fill="#34f" d="M33.334 35.372v9.635a.627.627 0 0 1-.627.627h-9.636a.626.626 0 0 1-.626-.627v-2.06h1.201a.706.706 0 1 0 0-1.415h-1.201v-2.686h1.201a.705.705 0 0 0 .73-.707.707.707 0 0 0-.73-.707h-1.201v-2.06a.626.626 0 0 1 .626-.626h2.06v1.201a.71.71 0 0 0 1.215.515.7.7 0 0 0 .2-.515v-1.201h2.686v1.201a.707.707 0 0 0 1.414 0v-1.201h2.06a.626.626 0 0 1 .628.626"/><path fill="#9722ff" d="m42.002 35.188-6.813 6.813a.626.626 0 0 0 0 .886l6.813 6.813a.626.626 0 0 0 .886 0l6.812-6.813a.626.626 0 0 0 0-.886l-6.812-6.813a.626.626 0 0 0-.886 0"/></g></g><rect width="53.9" height="53.9" x="1.05" y="1.05" stroke="#fff" stroke-opacity=".15" stroke-width="2.1" rx="7.35"/><defs><linearGradient id="b" x1="28" x2="28" y1="0" y2="56" gradientUnits="userSpaceOnUse"><stop stop-color="#2a0e2b"/><stop offset="1" stop-color="#0c1723"/></linearGradient><clipPath id="a"><rect width="56" height="56" fill="#fff" rx="8.4"/></clipPath><filter id="c" width="53.312" height="53.312" x="2.286" y="2.286" color-interpolation-filters="sRGB" filterUnits="userSpaceOnUse"><feFlood flood-opacity="0" result="BackgroundImageFix"/><feColorMatrix in="SourceAlpha" result="hardAlpha" values="0 0 0 0 0 0 0 0 0 0 0 0 0 0 0 0 0 0 127 0"/><feOffset/><feGaussianBlur stdDeviation="2.857"/><feComposite in2="hardAlpha" operator="out"/><feColorMatrix values="0 0 0 0 0 0 0 0 0 0 0 0 0 0 0 0 0 0 0.25 0"/><feBlend in2="BackgroundImageFix" result="effect1_dropShadow_28_3542"/><feBlend in="SourceGraphic" in2="effect1_dropShadow_28_3542" result="shape"/></filter></defs></svg>