<svg xmlns="http://www.w3.org/2000/svg" width="253" height="40" fill="none" viewBox="0 0 253 40"><g clip-path="url(#a)"><rect width="253" height="40" fill="url(#b)" rx="8"/><g fill="#0c9ef0" filter="url(#c)"><path d="M32.518 18.74a.7.7 0 0 0-.632.325c-.251-.159-.934-.492-1.2-.628l-.096-.049a.06.06 0 0 0-.048 0v-.016a.4.4 0 0 0 0-.059c.268-5.523-5.31-9.815-10.712-8.153a8.5 8.5 0 0 0-3.426 2.09 8.5 8.5 0 0 0-2.083 3.436 9.8 9.8 0 0 0-.348 2.466l-.204.08-.147.062a16 16 0 0 0-.803.381c-.268.137-.536.269-.78.438a.084.084 0 0 0-.032.105.086.086 0 0 0 .11.04q.402-.184.803-.336c.268-.102.55-.193.828-.268h.016q.2-.059.404-.11l.21-.048h.023l.188-.04c.281-.062.565-.1.849-.135h.032a.293.293 0 1 0-.137-.566 9 9 0 0 0-.779.217l.05-.016a9 9 0 0 1 .32-2.198 7.85 7.85 0 0 1 1.925-3.17 7.8 7.8 0 0 1 3.163-1.93q.321-.096.65-.168c.212-.046 1.059-.167.135.351a7.07 7.07 0 0 0-3.214 4.01c-.268.867-.372 2.576-.185 3.889.059.41-.08.491-.335.598-.535.229-1.473.642-1.955 1.227-.187.225-.267 0-.313-.161a8 8 0 0 1-.171-1.342.132.132 0 0 0-.164-.12c-.13.031-.268.064-.39.107a.13.13 0 0 0-.09.128c.076 1.726.512 3.331 1.557 3.28a.14.14 0 0 0 .126-.17.8.8 0 0 1-.362-.402c-.345-1.036 2.858-2.391 6.963-3.006 3.77-.566 7.009-.308 7.571.553.116.148.13.352.032.513a2.55 2.55 0 0 1-1.02 1.006.156.156 0 0 0-.048.22.15.15 0 0 0 .198.054 3 3 0 0 0 1.259-1.17c.166-.38.257-.788.267-1.202.268.083.975.367 1.246.477h.021a1 1 0 0 0-.021.137.78.78 0 0 0 .701.805.703.703 0 0 0 .737-.679.774.774 0 0 0-.689-.818zm-5.28-1.745a.37.37 0 0 1-.237.358.4.4 0 0 1-.15.023 14.3 14.3 0 0 0-2.704.049.367.367 0 0 1-.396-.379v-.316a.17.17 0 0 1 .133-.167 10.5 10.5 0 0 1 3.214-.037.16.16 0 0 1 .134.163zm1.89-.899a.14.14 0 0 1-.169.054c-2.335-.888-5.98-.386-5.98-.386-1.25.124-2.48.407-3.658.842a.412.412 0 0 1-.56-.397q.015-.482.097-.958a4.9 4.9 0 0 1 1.01-2.37q.047-.056.098-.11a.1.1 0 0 1 .022-.027l.016-.018.04-.044.019-.018c1.588-1.664 4.381-1.855 6.341-.77a6.24 6.24 0 0 1 2.352 2.34c.085.16.626 1.414.372 1.862"/><path d="M27.886 14.014a4.06 4.06 0 0 0-1.926-1.691 5.9 5.9 0 0 0-2.852-.435 3.8 3.8 0 0 0-1.01.223.136.136 0 0 0-.053.233.14.14 0 0 0 .088.035 8.3 8.3 0 0 1 2.199.06c2.678.536 3.535 1.827 3.628 1.878.027.013.06-.013.046-.04a3 3 0 0 0-.118-.269M15.91 18.697a.268.268 0 0 0 .41.032q.136-.137.19-.322a1.5 1.5 0 0 0-.056-.942.9.9 0 0 0-.394-.453.14.14 0 0 0-.11-.02.52.52 0 0 0-.267.207.09.09 0 0 0 .024.132.8.8 0 0 1 .415.566.87.87 0 0 1-.212.685.09.09 0 0 0 0 .115m-5.008.392a.867.867 0 0 0-.937.805.93.93 0 0 0 .878.942.866.866 0 0 0 .927-.79.924.924 0 0 0-.868-.957"/><path d="M35.992 20.028c0-6.56-4.536-12.243-10.922-13.684S12.155 8.09 9.35 14.018a14.045 14.045 0 0 0 4.02 17.054l.268.212c.091.07.185.137.268.204a13.9 13.9 0 0 0 4.77 2.174h.04l.238.056.072.014.225.048.089.016.22.04.085.017q.218.034.434.064l.086.013.163.02.166.018.155.016.18.016h2.21l.152-.013.195-.016.161-.02.188-.02.163-.022.18-.027.165-.027.174-.027.17-.032.17-.032.17-.038.165-.035.169-.04.163-.04.207-.03.155-.043.174-.048.153-.045.171-.057q.076-.02.15-.048l.174-.06.145-.05.174-.064.139-.054.171-.067.134-.054.177-.075.131-.056.177-.081.126-.06.177-.085.12-.062.177-.088.118-.065q.092-.045.176-.094l.116-.064.176-.102.107-.064.18-.108.102-.064.18-.113.096-.064.179-.121.091-.062.182-.129.083-.061.185-.137.075-.057.187-.144.067-.057.19-.153.057-.05.195-.165.046-.04.2-.182.03-.024.212-.202A13.98 13.98 0 0 0 36 20.034m-9.74 4.69q-.027-.234-.062-.469c-.024-.155-.045-.311-.075-.464s-.053-.309-.083-.462a7 7 0 0 0-.104-.448.21.21 0 0 1 .14-.243.21.21 0 0 1 .256.117 11 11 0 0 1 .257.95c.067.32.12.636.172.955.064.42.107.84.142 1.26.268.013.554.031.83.058.748.077 1.486.233 2.201.464a.19.19 0 0 1-.09.368h-.014c-.36-.061-.707-.147-1.071-.188l-.268-.04-.134-.019h-.134l-.536-.05c-.09-.014-.182 0-.268-.02l-.267-.016h-.199v.137l.022.48v1.45c0 .322-.024.641-.035.96-.01.32-.045.642-.075.961a.21.21 0 0 1-.353.119.2.2 0 0 1-.062-.137c0-.317 0-.634.016-.95.016-.317 0-.636 0-.953s0-.634-.016-.948l-.016-.474v-.698h-.895c-.182 0-.364.016-.535.021a9 9 0 0 0-.536.035q-.546.038-1.09.1c-.725.083-1.454.187-2.163.327a.193.193 0 0 1-.226-.15.194.194 0 0 1 .137-.22c.367-.1.726-.178 1.093-.25s.73-.132 1.1-.188c.183-.03.37-.048.555-.073q.278-.035.554-.058c.185-.017.37-.035.557-.044s.372-.026.56-.029c.294-.013.589-.016.886 0a28 28 0 0 0-.117-1.175m-7.15-1.903a44 44 0 0 0-.644 2.359 68 68 0 0 0-1.095 7.412 13.2 13.2 0 0 1-3.372-1.84 30.4 30.4 0 0 1 1.031-4.773c.172-.566.407-1.11.702-1.623.236-.345.562-.618.943-.79l.07-.031.114-.065.148-.075q.151-.074.3-.14l.152-.067.15-.061.306-.119c.267-.099.723-.238 1.007-.322.147-.042.225 0 .187.135m11.927 3.757c-.418-1.56-.983-4.002-2.651-4.562-1.778-.607-3.69-.674-5.538-.556a17.5 17.5 0 0 0-3.88.695c-.56.164-2.355.854-2.711 1.036a2.45 2.45 0 0 0-1.01.845 8.4 8.4 0 0 0-.752 1.74 33 33 0 0 0-1.031 4.562 14 14 0 0 1-.91-.835c-5.199-5.207-5.222-13.645-.053-18.882s13.588-5.304 18.84-.151 5.365 13.59.25 18.88q-.187-1.403-.554-2.77"/></g><g filter="url(#d)"><path fill="#e8e8e8" d="M43.358 26.5V14.136h4.407q1.437 0 2.385.495.953.495 1.425 1.37.47.87.47 2.011 0 1.136-.477 1.998-.47.857-1.424 1.334-.948.477-2.385.477h-3.338v-1.605h3.17q.905 0 1.472-.26.574-.26.84-.755.264-.495.265-1.189 0-.7-.272-1.213a1.76 1.76 0 0 0-.839-.785q-.567-.278-1.491-.278h-2.342V26.5zm6.104-5.578 3.054 5.578h-2.125l-2.994-5.578zm8.589 5.765q-1.37 0-2.36-.585a3.97 3.97 0 0 1-1.522-1.66q-.531-1.075-.531-2.518 0-1.425.53-2.511.539-1.087 1.498-1.697.966-.61 2.258-.61.785 0 1.521.26.737.26 1.322.815t.924 1.443q.338.882.338 2.143v.64h-7.371v-1.352h5.602q0-.713-.29-1.262a2.2 2.2 0 0 0-.815-.875q-.519-.32-1.219-.32-.76 0-1.328.374a2.5 2.5 0 0 0-.87.966 2.8 2.8 0 0 0-.301 1.286v1.056q0 .93.326 1.582.332.652.923.996.593.338 1.383.338.513 0 .935-.145.423-.15.731-.447.308-.295.47-.73l1.71.308a3.1 3.1 0 0 1-.737 1.322q-.525.561-1.322.875-.792.308-1.805.308m13.648-9.46L68.336 26.5h-1.932l-3.368-9.273h1.938l2.348 7.136h.096l2.343-7.136zm1.696 9.273v-9.273H75.2V26.5zm.912-10.703q-.471 0-.81-.314a1.02 1.02 0 0 1-.331-.761q0-.447.332-.76.338-.32.809-.32.47 0 .802.32a1 1 0 0 1 .339.76q0 .44-.338.76-.333.315-.803.315m7.318 10.89q-1.37 0-2.36-.585a3.97 3.97 0 0 1-1.522-1.66q-.531-1.075-.531-2.518 0-1.425.531-2.511.537-1.087 1.497-1.697.966-.61 2.258-.61.785 0 1.521.26.737.26 1.322.815t.924 1.443q.338.882.338 2.143v.64h-7.37v-1.352h5.601q0-.713-.29-1.262a2.2 2.2 0 0 0-.814-.875q-.52-.32-1.22-.32-.76 0-1.328.374a2.5 2.5 0 0 0-.87.966 2.8 2.8 0 0 0-.301 1.286v1.056q0 .93.326 1.582.332.652.924.996.591.338 1.382.338.513 0 .936-.145.423-.15.73-.447a1.94 1.94 0 0 0 .471-.73l1.709.308a3.1 3.1 0 0 1-.737 1.322q-.525.561-1.322.875-.79.308-1.805.308M89.6 26.5l-2.729-9.273h1.865l1.817 6.81h.091l1.823-6.81h1.866l1.81 6.78h.091l1.805-6.78h1.866L97.182 26.5h-1.841l-1.884-6.695h-.139L91.435 26.5zm20.423.187q-1.305 0-2.276-.598a4.04 4.04 0 0 1-1.51-1.672q-.537-1.074-.537-2.511 0-1.443.537-2.523.538-1.081 1.51-1.679t2.276-.598 2.276.598a4 4 0 0 1 1.509 1.678q.537 1.08.537 2.524 0 1.437-.537 2.511a4.03 4.03 0 0 1-1.509 1.672q-.972.598-2.276.598m.006-1.515q.845 0 1.4-.447.555-.446.821-1.19.272-.742.272-1.635 0-.888-.272-1.63-.266-.75-.821-1.201-.555-.453-1.4-.453-.852 0-1.413.453-.555.452-.827 1.2a4.8 4.8 0 0 0-.266 1.63q0 .894.266 1.637.272.742.827 1.19.561.446 1.413.446m8.136-4.178V26.5h-1.805v-9.273h1.732v1.51h.115a2.65 2.65 0 0 1 1.002-1.184q.689-.447 1.733-.447.948 0 1.66.399.712.393 1.105 1.171.392.78.392 1.926V26.5h-1.805v-5.68q0-1.01-.525-1.576-.525-.574-1.443-.574-.627 0-1.117.272a1.95 1.95 0 0 0-.766.797q-.278.519-.278 1.255"/><path fill="#0c9ef0" d="M133.61 26h-3.212l4.172-12.364h3.978L142.72 26h-3.212l-2.904-9.249h-.096zm-.429-4.866h6.714v2.27h-6.714zm13.822-7.498V26h-2.952V13.636zm7.113 3.091v2.174h-5.85v-2.174zm-4.624-2.221h2.952v8.578q0 .272.084.44a.53.53 0 0 0 .26.236q.169.067.404.067.17 0 .357-.03.192-.038.289-.06l.447 2.13q-.211.06-.598.151-.38.09-.911.115-1.038.048-1.781-.242a2.3 2.3 0 0 1-1.129-.917q-.387-.622-.374-1.564zm10.365 11.67q-1.455 0-2.511-.574a3.96 3.96 0 0 1-1.618-1.649q-.562-1.074-.562-2.553 0-1.437.568-2.511.567-1.08 1.6-1.679 1.032-.604 2.433-.604.99 0 1.811.308a3.9 3.9 0 0 1 1.418.912q.599.604.93 1.491.332.882.332 2.023v.736h-8.059v-1.715h5.312a1.66 1.66 0 0 0-.223-.839 1.5 1.5 0 0 0-.598-.573 1.7 1.7 0 0 0-.863-.211q-.495 0-.887.223a1.68 1.68 0 0 0-.864 1.449v1.744q0 .568.224.997.224.421.633.658.411.235.978.235.393 0 .713-.109.32-.108.549-.32.23-.21.344-.519l2.711.079a3.35 3.35 0 0 1-.743 1.587q-.567.67-1.491 1.045-.924.368-2.137.368m5.909-.176v-9.273h2.867v1.69h.097q.254-.917.827-1.364a2.1 2.1 0 0 1 1.334-.453q.206 0 .423.03.217.025.404.08v2.565a3 3 0 0 0-.555-.115 5 5 0 0 0-.604-.042q-.525 0-.948.235a1.7 1.7 0 0 0-.658.646 1.9 1.9 0 0 0-.235.966V26zm10.107-5.288V26h-2.952v-9.273h2.807v1.703h.103a2.6 2.6 0 0 1 1.05-1.334q.743-.49 1.769-.49.978 0 1.696.441.725.435 1.123 1.22.405.779.399 1.823V26h-2.952v-5.33q.006-.774-.393-1.208-.391-.435-1.092-.435-.465 0-.821.206a1.36 1.36 0 0 0-.544.573q-.186.375-.193.906m10.436 5.445q-.887 0-1.575-.296a2.46 2.46 0 0 1-1.081-.905q-.392-.61-.392-1.528 0-.773.271-1.304a2.3 2.3 0 0 1 .749-.863 3.5 3.5 0 0 1 1.099-.501 7 7 0 0 1 1.328-.236q.79-.072 1.274-.15.483-.085.7-.236a.51.51 0 0 0 .223-.44v-.03q0-.465-.32-.72-.32-.252-.863-.253-.585 0-.942.254a1.12 1.12 0 0 0-.452.7l-2.723-.096q.12-.846.622-1.51.507-.67 1.388-1.05.888-.386 2.131-.386.888 0 1.636.21.749.206 1.304.605.556.392.857.965.308.575.308 1.31V26h-2.777v-1.292h-.072q-.247.471-.634.797-.38.326-.899.489a3.8 3.8 0 0 1-1.16.163m.912-1.932q.477 0 .857-.193.387-.194.616-.531.23-.344.229-.797v-.882a2 2 0 0 1-.307.121q-.175.054-.387.103t-.434.084l-.429.067a2.7 2.7 0 0 0-.712.205 1.1 1.1 0 0 0-.447.362.9.9 0 0 0-.151.52q0 .458.326.7.332.24.839.241m11.669-7.498v2.174h-5.849v-2.174zm-4.624-2.221h2.952v8.578q0 .272.085.44.09.165.259.236.17.067.405.067.168 0 .356-.03.193-.038.29-.06l.446 2.13q-.21.06-.597.151-.381.09-.912.115-1.038.048-1.781-.242a2.3 2.3 0 0 1-1.129-.917q-.386-.622-.374-1.564zM200.397 26v-9.273h2.952V26zm1.479-10.353q-.622 0-1.069-.41a1.32 1.32 0 0 1-.447-1.003q0-.579.447-.99a1.5 1.5 0 0 1 1.069-.417q.627 0 1.068.417.447.411.447.99 0 .585-.447 1.002a1.5 1.5 0 0 1-1.068.41m12.347 1.08L211.041 26h-3.38l-3.176-9.273h3.109l1.709 6.387h.096l1.715-6.387zm5.167 9.448q-1.455 0-2.511-.573a3.97 3.97 0 0 1-1.618-1.649q-.561-1.074-.561-2.553 0-1.437.567-2.511.567-1.08 1.6-1.679 1.032-.604 2.433-.604.99 0 1.811.308.82.309 1.419.912.597.604.929 1.491.333.882.332 2.023v.736h-8.059V20.36h5.312a1.66 1.66 0 0 0-.223-.839 1.5 1.5 0 0 0-.598-.573 1.7 1.7 0 0 0-.863-.211q-.495 0-.887.223a1.68 1.68 0 0 0-.864 1.449v1.744q0 .568.224.997.223.421.634.658.41.235.978.235.392 0 .712-.109.32-.108.549-.32.23-.21.344-.519l2.711.079a3.36 3.36 0 0 1-.742 1.587q-.568.67-1.492 1.045-.923.368-2.137.368m4.641-10.112v-2.427h10.45v2.427h-3.749V26h-2.946v-9.937zm14.893 10.112q-1.461 0-2.511-.598a4.1 4.1 0 0 1-1.612-1.678q-.561-1.08-.561-2.505 0-1.432.561-2.505.567-1.08 1.612-1.679 1.05-.604 2.511-.604 1.46 0 2.506.604 1.05.598 1.612 1.678.567 1.075.567 2.506 0 1.425-.567 2.505a4.1 4.1 0 0 1-1.612 1.678q-1.045.598-2.506.598m.018-2.228q.532 0 .9-.326t.561-.905q.2-.58.2-1.34 0-.773-.2-1.353-.193-.58-.561-.905a1.3 1.3 0 0 0-.9-.326q-.55 0-.929.326-.375.326-.574.905-.193.58-.193 1.353 0 .76.193 1.34.2.58.574.905.38.327.929.326"/></g></g><rect width="250.9" height="37.9" x="1.05" y="1.05" stroke="#fff" stroke-opacity=".15" stroke-width="2.1" rx="6.95"/><defs><filter id="c" width="39.429" height="39.429" x="2.286" y=".286" color-interpolation-filters="sRGB" filterUnits="userSpaceOnUse"><feFlood flood-opacity="0" result="BackgroundImageFix"/><feColorMatrix in="SourceAlpha" result="hardAlpha" values="0 0 0 0 0 0 0 0 0 0 0 0 0 0 0 0 0 0 127 0"/><feOffset/><feGaussianBlur stdDeviation="2.857"/><feComposite in2="hardAlpha" operator="out"/><feColorMatrix values="0 0 0 0 0 0 0 0 0 0 0 0 0 0 0 0 0 0 0.25 0"/><feBlend in2="BackgroundImageFix" result="effect1_dropShadow_8_104"/><feBlend in="SourceGraphic" in2="effect1_dropShadow_8_104" result="shape"/></filter><filter id="d" width="214.2" height="32.2" x="36.4" y="3.9" color-interpolation-filters="sRGB" filterUnits="userSpaceOnUse"><feFlood flood-opacity="0" result="BackgroundImageFix"/><feColorMatrix in="SourceAlpha" result="hardAlpha" values="0 0 0 0 0 0 0 0 0 0 0 0 0 0 0 0 0 0 127 0"/><feOffset/><feGaussianBlur stdDeviation="2.8"/><feComposite in2="hardAlpha" operator="out"/><feColorMatrix values="0 0 0 0 0 0 0 0 0 0 0 0 0 0 0 0 0 0 0.25 0"/><feBlend in2="BackgroundImageFix" result="effect1_dropShadow_8_104"/><feBlend in="SourceGraphic" in2="effect1_dropShadow_8_104" result="shape"/></filter><linearGradient id="b" x1="126.5" x2="126.5" y1="0" y2="40" gradientUnits="userSpaceOnUse"><stop stop-color="#152531"/><stop offset="1" stop-color="#0c161c"/></linearGradient><clipPath id="a"><rect width="253" height="40" fill="#fff" rx="8"/></clipPath></defs></svg>