<svg xmlns="http://www.w3.org/2000/svg" width="208" height="40" fill="none" viewBox="0 0 208 40"><g clip-path="url(#a)"><rect width="208" height="40" fill="url(#b)" rx="8"/><g filter="url(#c)"><path stroke="#00ddc3" stroke-linecap="round" stroke-linejoin="round" stroke-width="3" d="M11.5 9.5v21h21M29 25.834V16.5m-5.833 9.334v-14m-5.834 14v-3.5"/></g><g filter="url(#d)"><path fill="#e8e8e8" d="M44.403 26.5h-1.98l4.449-12.364h2.155l4.45 12.364h-1.98L48 16.382h-.097zm.332-4.842h6.423v1.57h-6.423zm17.152-4.43L58.525 26.5h-1.932l-3.369-9.273h1.938l2.348 7.136h.097l2.342-7.136zm4.13 9.477a3.8 3.8 0 0 1-1.594-.326 2.7 2.7 0 0 1-1.13-.96q-.41-.627-.41-1.539 0-.785.302-1.292t.815-.803a4.3 4.3 0 0 1 1.147-.447q.634-.15 1.292-.229l1.352-.157q.52-.067.755-.211.235-.146.235-.471v-.042q0-.791-.446-1.226-.441-.434-1.316-.434-.912 0-1.437.404-.52.399-.719.887l-1.696-.386q.302-.845.881-1.364.586-.525 1.347-.761a5.3 5.3 0 0 1 1.6-.241q.555 0 1.177.132.628.127 1.17.471.55.345.9.984.35.634.35 1.648V26.5H68.83v-1.268h-.073a2.6 2.6 0 0 1-.525.688 2.8 2.8 0 0 1-.9.562q-.549.223-1.316.223m.392-1.449q.748 0 1.28-.295.537-.296.815-.773.283-.483.283-1.032V21.96q-.096.097-.374.181a6 6 0 0 1-.622.14l-.682.102-.555.072q-.525.067-.96.224a1.65 1.65 0 0 0-.688.452q-.255.29-.254.773 0 .67.495 1.014.494.338 1.262.338m6.588 1.244v-9.273h1.805V26.5zm.911-10.703q-.47 0-.809-.314a1.02 1.02 0 0 1-.332-.761q0-.447.332-.76.338-.32.81-.32.47 0 .802.32a1 1 0 0 1 .338.76q0 .44-.338.76-.332.315-.803.315m5.127-1.66V26.5H77.23V14.136zm5.127 12.568a3.8 3.8 0 0 1-1.594-.326 2.7 2.7 0 0 1-1.129-.96q-.41-.627-.41-1.539 0-.785.302-1.292.3-.507.815-.803a4.3 4.3 0 0 1 1.147-.447q.633-.15 1.291-.229l1.353-.157q.519-.067.754-.211.236-.146.236-.471v-.042q0-.791-.447-1.226-.44-.434-1.316-.434-.912 0-1.437.404-.519.399-.718.887l-1.697-.386q.303-.845.882-1.364.585-.525 1.346-.761a5.3 5.3 0 0 1 1.6-.241q.556 0 1.177.132.629.127 1.171.471.55.345.9.984.35.634.35 1.648V26.5h-1.763v-1.268h-.072a2.6 2.6 0 0 1-.526.688 2.8 2.8 0 0 1-.899.562q-.55.223-1.316.223m.392-1.449q.75 0 1.28-.295.537-.296.815-.773.284-.483.284-1.032V21.96q-.098.097-.374.181a6 6 0 0 1-.622.14l-.682.102-.556.072q-.525.067-.96.224a1.65 1.65 0 0 0-.688.452q-.253.29-.253.773 0 .67.495 1.014.495.338 1.261.338m6.733 1.244V14.136h1.805v4.595h.109q.156-.29.453-.67.295-.381.82-.665.525-.29 1.389-.29 1.124 0 2.004.568.882.567 1.383 1.636.507 1.069.507 2.572t-.501 2.577q-.501 1.069-1.377 1.649-.875.573-1.998.573-.845 0-1.382-.284a2.6 2.6 0 0 1-.833-.664 5 5 0 0 1-.465-.676h-.151V26.5zm1.769-4.636q0 .978.284 1.714.283.736.82 1.153.538.41 1.317.41.809 0 1.352-.428.543-.435.82-1.177.285-.743.285-1.672a4.6 4.6 0 0 0-.278-1.648q-.272-.73-.821-1.154-.543-.422-1.358-.422-.785 0-1.329.404-.538.405-.814 1.13-.279.723-.278 1.69m10.533-7.728V26.5h-1.805V14.136zm6.425 12.551q-1.371 0-2.361-.585a3.97 3.97 0 0 1-1.521-1.66q-.531-1.075-.531-2.518 0-1.425.531-2.511.537-1.087 1.497-1.697.966-.61 2.258-.61.784 0 1.521.26t1.322.815.924 1.443q.338.882.338 2.143v.64h-7.371v-1.352h5.602q0-.713-.29-1.262a2.2 2.2 0 0 0-.815-.875q-.519-.32-1.219-.32-.76 0-1.328.374a2.5 2.5 0 0 0-.87.966 2.8 2.8 0 0 0-.301 1.286v1.056q0 .93.326 1.582.332.652.923.996.592.338 1.383.338.513 0 .935-.145.423-.15.731-.447.307-.295.471-.73l1.708.308a3.1 3.1 0 0 1-.736 1.322 3.6 3.6 0 0 1-1.322.875q-.792.308-1.805.308m14.386 0q-1.304 0-2.276-.598a4.04 4.04 0 0 1-1.51-1.672q-.537-1.074-.537-2.511 0-1.443.537-2.523.538-1.081 1.51-1.679t2.276-.598 2.275.598a4 4 0 0 1 1.51 1.678q.537 1.08.537 2.524 0 1.437-.537 2.511a4.03 4.03 0 0 1-1.51 1.672q-.971.598-2.275.598m.006-1.515q.845 0 1.4-.447.555-.446.821-1.19.272-.742.272-1.635 0-.888-.272-1.63-.266-.75-.821-1.201-.555-.453-1.4-.453-.852 0-1.413.453-.555.452-.827 1.2a4.8 4.8 0 0 0-.266 1.63q0 .894.266 1.637.272.742.827 1.19.561.446 1.413.446m8.136-4.178V26.5h-1.805v-9.273h1.732v1.51h.115a2.65 2.65 0 0 1 1.002-1.184q.689-.447 1.733-.447.948 0 1.66.399.712.393 1.105 1.171.392.78.392 1.926V26.5h-1.805v-5.68q0-1.01-.525-1.576-.525-.574-1.443-.574-.627 0-1.117.272a1.95 1.95 0 0 0-.766.797q-.279.519-.278 1.255"/><path fill="#00ddc3" d="M144.936 26V13.636h2.952v4.679h.06q.181-.422.513-.815.338-.393.858-.64.525-.253 1.255-.253.966 0 1.805.507.845.507 1.365 1.563.519 1.056.519 2.693 0 1.575-.501 2.638-.495 1.062-1.34 1.594a3.4 3.4 0 0 1-1.866.53q-.7 0-1.213-.229a2.7 2.7 0 0 1-.864-.603 2.9 2.9 0 0 1-.531-.803h-.09V26zm2.891-4.636q0 .748.2 1.304.205.555.585.863.387.302.924.302.543 0 .924-.302.38-.308.573-.863.2-.555.199-1.304 0-.75-.199-1.298-.194-.55-.573-.851-.375-.303-.924-.302-.543 0-.924.295-.38.297-.585.846-.2.55-.2 1.31m14.666-4.021q-.061-.665-.538-1.032-.47-.375-1.346-.375-.579 0-.966.151-.386.151-.579.417a1 1 0 0 0-.2.598.9.9 0 0 0 .109.489q.127.21.362.374.241.157.58.277t.761.212l1.062.241q.918.2 1.618.532.706.331 1.183.79.483.459.731 1.057.247.597.253 1.34-.006 1.17-.591 2.01-.586.84-1.685 1.286-1.093.447-2.638.447-1.552 0-2.704-.465-1.154-.464-1.793-1.413-.64-.947-.658-2.396h2.861q.036.597.32.996.284.398.779.604.5.204 1.159.205.603 0 1.026-.163.429-.164.658-.453a1.07 1.07 0 0 0 .236-.664.92.92 0 0 0-.218-.598q-.211-.254-.652-.434a6.7 6.7 0 0 0-1.11-.344l-1.292-.302q-1.606-.368-2.53-1.19-.924-.825-.917-2.233-.007-1.147.615-2.01.622-.864 1.721-1.347 1.098-.483 2.505-.483 1.437 0 2.493.49 1.063.482 1.648 1.358.586.875.598 2.028zm9.773-.616v2.174h-5.849v-2.174zm-4.624-2.221h2.952v8.578q0 .272.085.44.09.165.259.236.17.067.405.067.168 0 .356-.03.193-.038.29-.06l.446 2.13q-.21.06-.597.151-.381.09-.912.115-1.038.048-1.781-.242a2.3 2.3 0 0 1-1.129-.917q-.386-.622-.374-1.564zm8.745 11.651q-.888 0-1.576-.296a2.46 2.46 0 0 1-1.081-.905q-.392-.61-.392-1.528 0-.773.272-1.304.271-.531.748-.863a3.5 3.5 0 0 1 1.099-.501 7 7 0 0 1 1.328-.236q.79-.072 1.274-.15.483-.085.7-.236a.51.51 0 0 0 .224-.44v-.03q0-.465-.32-.72-.321-.252-.864-.253-.585 0-.941.254a1.1 1.1 0 0 0-.453.7l-2.723-.096a3.2 3.2 0 0 1 .622-1.51q.507-.67 1.388-1.05.888-.386 2.131-.386.888 0 1.636.21.749.206 1.304.605.556.392.858.965.308.575.308 1.31V26h-2.777v-1.292h-.073q-.247.471-.634.797-.38.326-.899.489a3.8 3.8 0 0 1-1.159.163m.911-1.932q.477 0 .857-.193.387-.194.616-.531.23-.344.23-.797v-.882a2 2 0 0 1-.308.121q-.175.054-.387.103a7 7 0 0 1-.434.084l-.429.067a2.7 2.7 0 0 0-.712.205 1.13 1.13 0 0 0-.447.362.9.9 0 0 0-.151.52q0 .458.326.7.332.24.839.241m11.67-7.498v2.174h-5.85v-2.174zm-4.625-2.221h2.952v8.578q0 .272.085.44.09.165.259.236.17.067.405.067.169 0 .356-.03.193-.038.29-.06l.447 2.13q-.211.06-.598.151a5 5 0 0 1-.912.115q-1.037.048-1.781-.242a2.3 2.3 0 0 1-1.128-.917q-.387-.622-.375-1.564zm14.11 5.053-2.71.072a1 1 0 0 0-.23-.513 1.24 1.24 0 0 0-.489-.356 1.7 1.7 0 0 0-.688-.133q-.513 0-.875.205-.357.205-.351.556a.6.6 0 0 0 .218.47q.229.2.815.32l1.787.338q1.388.265 2.064.882.682.616.689 1.63-.007.954-.568 1.66-.555.706-1.521 1.099-.966.386-2.21.386-1.986 0-3.133-.815-1.141-.821-1.304-2.197l2.916-.073q.096.507.501.773.405.265 1.032.265.568 0 .924-.21.356-.213.362-.562a.6.6 0 0 0-.278-.501q-.271-.194-.851-.302l-1.618-.308q-1.394-.253-2.076-.936-.683-.688-.676-1.75-.007-.93.495-1.588.5-.664 1.424-1.014t2.18-.35q1.882 0 2.97.79 1.087.785 1.201 2.162"/></g></g><rect width="205.9" height="37.9" x="1.05" y="1.05" stroke="#fff" stroke-opacity=".15" stroke-width="2.1" rx="6.95"/><defs><filter id="c" width="39.429" height="39.429" x="2.286" y=".286" color-interpolation-filters="sRGB" filterUnits="userSpaceOnUse"><feFlood flood-opacity="0" result="BackgroundImageFix"/><feColorMatrix in="SourceAlpha" result="hardAlpha" values="0 0 0 0 0 0 0 0 0 0 0 0 0 0 0 0 0 0 127 0"/><feOffset/><feGaussianBlur stdDeviation="2.857"/><feComposite in2="hardAlpha" operator="out"/><feColorMatrix values="0 0 0 0 0 0 0 0 0 0 0 0 0 0 0 0 0 0 0.25 0"/><feBlend in2="BackgroundImageFix" result="effect1_dropShadow_2_3794"/><feBlend in="SourceGraphic" in2="effect1_dropShadow_2_3794" result="shape"/></filter><filter id="d" width="169.2" height="32.2" x="36.4" y="3.9" color-interpolation-filters="sRGB" filterUnits="userSpaceOnUse"><feFlood flood-opacity="0" result="BackgroundImageFix"/><feColorMatrix in="SourceAlpha" result="hardAlpha" values="0 0 0 0 0 0 0 0 0 0 0 0 0 0 0 0 0 0 127 0"/><feOffset/><feGaussianBlur stdDeviation="2.8"/><feComposite in2="hardAlpha" operator="out"/><feColorMatrix values="0 0 0 0 0 0 0 0 0 0 0 0 0 0 0 0 0 0 0.25 0"/><feBlend in2="BackgroundImageFix" result="effect1_dropShadow_2_3794"/><feBlend in="SourceGraphic" in2="effect1_dropShadow_2_3794" result="shape"/></filter><linearGradient id="b" x1="104" x2="104" y1="0" y2="40" gradientUnits="userSpaceOnUse"><stop stop-color="#002723"/><stop offset="1" stop-color="#001d19"/></linearGradient><clipPath id="a"><rect width="208" height="40" fill="#fff" rx="8"/></clipPath></defs></svg>