<svg xmlns="http://www.w3.org/2000/svg" width="235" height="40" fill="none" viewBox="0 0 235 40"><g clip-path="url(#a)"><rect width="235.001" height="40.001" fill="url(#b)" rx="8"/><g filter="url(#c)"><path fill="#2f87c2" d="M21.929 6.007c-.988.13-2.243 1.166-3.107 1.658-2.206 1.255-4.45 2.446-6.667 3.684-.732.41-1.47.812-2.197 1.232-.224.13-.683.33-.512.667.201.398 1.046.66 1.421.87 1.323.738 2.67 1.452 4.016 2.145.486.25 1.097.796 1.666.564 1.356-.553 2.678-1.516 3.94-2.263.406-.24 1.099-.844 1.591-.784.428.052.918.475 1.288.688.962.55 1.927 1.101 2.88 1.67.42.25 1.077.817 1.59.755.508-.06 1.063-.514 1.515-.744 1.276-.648 2.515-1.37 3.789-2.023.316-.162 1.568-.628 1.458-1.08-.066-.273-.483-.43-.7-.552l-2.046-1.145a850 850 0 0 0-7.198-3.98c-.66-.361-1.96-1.464-2.727-1.362M9.287 15.18c-.413.1-.238 1.199-.238 1.521v9.082c0 .463-.15 1.256.078 1.67.368.67 1.914 1.19 2.574 1.552 2.179 1.194 4.334 2.434 6.515 3.622a243 243 0 0 1 1.97 1.082c.23.128.542.37.822.266.432-.16.239-1.334.239-1.706v-3.892c0-.506.143-1.275-.046-1.748-.169-.423-.873-.665-1.242-.879-1.041-.601-2.746-1.21-3.537-2.12-.29-.335-.176-.945-.176-1.358 0-.997.229-2.315-.024-3.279-.133-.51-1.002-.753-1.415-.984a127 127 0 0 0-4.016-2.166c-.356-.183-1.096-.761-1.504-.663m25.365-.008c-.478-.019-1.25.564-1.662.798-1.222.694-2.478 1.332-3.712 2.005-.423.23-1.355.503-1.491 1.019-.26.983-.025 2.336-.025 3.354 0 .369.11.959-.131 1.268-.254.326-.804.536-1.157.738q-1.213.696-2.424 1.396c-.375.217-1.055.451-1.232.88-.196.475-.056 1.238-.056 1.747v3.969c0 .368-.195 1.559.311 1.646.31.054.648-.218.901-.36.63-.353 1.265-.695 1.894-1.047 2.144-1.198 4.287-2.4 6.44-3.58.678-.37 2.152-.852 2.574-1.508.194-.3.078-.911.078-1.257v-9.234c0-.36.21-1.814-.308-1.834"/></g><g filter="url(#d)"><path fill="#e8e8e8" d="M44.404 26.5h-1.98l4.45-12.363h2.154l4.45 12.364h-1.98l-3.496-10.118h-.096zm.332-4.841h6.424v1.57h-6.424zm17.153-4.431L58.526 26.5h-1.932l-3.368-9.273h1.938l2.348 7.136h.096l2.343-7.136zm4.129 9.478a3.8 3.8 0 0 1-1.594-.326 2.7 2.7 0 0 1-1.129-.96q-.41-.628-.41-1.54 0-.784.302-1.291.301-.507.814-.803a4.3 4.3 0 0 1 1.148-.447q.633-.15 1.291-.23l1.353-.156q.519-.066.754-.212.236-.144.236-.47v-.043q0-.79-.447-1.225-.44-.435-1.316-.435-.912 0-1.437.405-.519.398-.718.887l-1.696-.386q.301-.845.88-1.365.587-.525 1.347-.76a5.3 5.3 0 0 1 1.6-.242q.556 0 1.177.133.628.128 1.171.47.55.345.9.985.35.634.35 1.648v6.158H68.83v-1.268h-.072a2.6 2.6 0 0 1-.526.688 2.8 2.8 0 0 1-.9.562q-.548.222-1.315.223m.392-1.449q.75 0 1.28-.296a2.07 2.07 0 0 0 .815-.772q.284-.484.284-1.033v-1.195q-.098.097-.374.181a6 6 0 0 1-.622.139l-.682.103-.556.072q-.525.067-.96.223a1.65 1.65 0 0 0-.688.453q-.254.289-.254.773 0 .67.496 1.014.495.338 1.261.338m6.588 1.244v-9.273h1.805V26.5zm.912-10.704q-.471 0-.81-.314a1.02 1.02 0 0 1-.331-.76q0-.447.332-.761.338-.32.809-.32.47 0 .803.32a1 1 0 0 1 .338.76q0 .441-.338.761-.333.315-.803.314m5.127-1.66v12.364H77.23V14.137zm5.126 12.569a3.8 3.8 0 0 1-1.593-.326 2.7 2.7 0 0 1-1.13-.96q-.41-.628-.41-1.54 0-.784.302-1.291t.815-.803a4.3 4.3 0 0 1 1.147-.447q.634-.15 1.292-.23l1.352-.156q.52-.066.755-.212.235-.144.235-.47v-.043q0-.79-.446-1.225-.441-.435-1.317-.435-.91 0-1.436.405-.52.398-.719.887l-1.696-.386q.302-.845.881-1.365.586-.525 1.347-.76a5.3 5.3 0 0 1 1.6-.242q.555 0 1.177.133.627.128 1.17.47.55.345.9.985.35.634.35 1.648v6.158h-1.762v-1.268h-.073a2.6 2.6 0 0 1-.525.688 2.8 2.8 0 0 1-.9.562q-.55.222-1.316.223m.393-1.449q.748 0 1.28-.296a2.07 2.07 0 0 0 .815-.772q.283-.484.283-1.033v-1.195q-.096.097-.374.181a6 6 0 0 1-.622.139l-.682.103-.555.072q-.525.067-.96.223a1.65 1.65 0 0 0-.688.453q-.255.289-.254.773 0 .67.495 1.014.494.338 1.262.338m6.733 1.244V14.137h1.805v4.594h.108q.157-.29.453-.67.295-.38.821-.664.525-.29 1.389-.29 1.122 0 2.004.568.88.567 1.382 1.636.507 1.069.507 2.571t-.5 2.578q-.502 1.069-1.377 1.648-.876.574-1.998.574-.846 0-1.383-.284a2.6 2.6 0 0 1-.833-.664 5 5 0 0 1-.465-.676h-.15V26.5zm1.768-4.637q0 .978.284 1.715.284.736.821 1.153.537.41 1.316.41.81 0 1.352-.428.544-.435.821-1.177.284-.743.284-1.673 0-.916-.278-1.648-.27-.73-.82-1.153-.544-.422-1.359-.422-.785 0-1.328.404-.537.405-.815 1.129t-.278 1.69m10.533-7.727v12.364h-1.805V14.137zm6.425 12.55q-1.37 0-2.36-.585a3.97 3.97 0 0 1-1.522-1.66q-.531-1.074-.531-2.517 0-1.425.531-2.512a4.13 4.13 0 0 1 1.497-1.696q.966-.61 2.258-.61.785 0 1.522.26.736.259 1.322.815.585.555.923 1.443.339.881.338 2.143v.64h-7.371v-1.353h5.603q0-.712-.29-1.261a2.2 2.2 0 0 0-.815-.876q-.52-.32-1.22-.32-.76 0-1.328.375a2.5 2.5 0 0 0-.869.966 2.8 2.8 0 0 0-.302 1.285v1.057q0 .93.326 1.582.332.651.924.996.591.338 1.382.338.513 0 .936-.145.423-.15.73-.447.309-.295.471-.73l1.709.308a3.1 3.1 0 0 1-.737 1.322 3.6 3.6 0 0 1-1.322.875q-.79.308-1.805.308m14.386 0q-1.304 0-2.276-.597a4.03 4.03 0 0 1-1.509-1.672q-.537-1.075-.537-2.511 0-1.443.537-2.524a4 4 0 0 1 1.509-1.678q.972-.598 2.276-.598t2.276.598a4 4 0 0 1 1.509 1.678q.537 1.08.537 2.524 0 1.436-.537 2.51a4.03 4.03 0 0 1-1.509 1.673q-.972.598-2.276.598m.006-1.515q.845 0 1.401-.446.555-.447.821-1.19.271-.742.271-1.636 0-.886-.271-1.63-.266-.748-.821-1.2-.556-.454-1.401-.454-.85 0-1.413.453-.555.453-.827 1.202a4.8 4.8 0 0 0-.265 1.63q0 .892.265 1.636.272.742.827 1.189.563.447 1.413.447m8.136-4.177v5.506h-1.805v-9.273h1.733v1.51h.115a2.65 2.65 0 0 1 1.002-1.184q.688-.447 1.732-.447.949 0 1.66.399.713.392 1.105 1.17.393.78.393 1.927V26.5h-1.805v-5.68q0-1.008-.526-1.576-.525-.573-1.442-.573-.628 0-1.117.271a1.95 1.95 0 0 0-.767.797q-.278.52-.278 1.256"/><path fill="#2f87c2" d="M144.937 26.5V14.138h5.156q1.388 0 2.324.392.942.393 1.413 1.1.477.705.477 1.635 0 .707-.296 1.262-.297.549-.815.912-.52.36-1.202.507v.12q.749.037 1.383.405.64.367 1.026 1.026.387.652.386 1.546a3.2 3.2 0 0 1-.507 1.78q-.507.78-1.467 1.232-.96.447-2.33.447zm2.988-2.408h1.848q.972 0 1.431-.368.464-.369.464-1.027 0-.476-.223-.82a1.44 1.44 0 0 0-.634-.538q-.411-.193-.984-.193h-1.902zm0-4.872h1.655q.489 0 .869-.163.38-.162.592-.47a1.26 1.26 0 0 0 .217-.743q0-.622-.441-.978-.44-.357-1.189-.357h-1.703zm14.284 3.278v-5.27h2.946V26.5h-2.813v-1.727h-.097a2.7 2.7 0 0 1-1.05 1.352q-.737.495-1.781.495-.948 0-1.666-.434a2.96 2.96 0 0 1-1.117-1.214q-.399-.785-.405-1.835v-5.91h2.952v5.33q.006.756.399 1.19.392.434 1.068.434.441 0 .791-.193.357-.2.562-.573.21-.381.211-.918m4.825 4.003v-9.273h2.952V26.5zm1.479-10.354q-.622 0-1.069-.41a1.32 1.32 0 0 1-.446-1.002q0-.58.446-.99a1.5 1.5 0 0 1 1.069-.417q.628 0 1.068.417.447.41.447.99 0 .585-.447 1.002a1.5 1.5 0 0 1-1.068.41m6.304-2.01V26.5h-2.952V14.137zm7.113 3.09V19.4h-5.85v-2.173zm-4.624-2.22h2.952v8.578q0 .271.084.44a.53.53 0 0 0 .26.236q.169.066.404.066.17 0 .357-.03.192-.036.289-.06l.447 2.13q-.211.061-.598.152-.38.09-.911.115-1.038.048-1.781-.242a2.3 2.3 0 0 1-1.129-.918q-.387-.621-.374-1.563zm6.329 11.494V14.137h5.156q1.388 0 2.324.392.942.393 1.413 1.1.477.705.477 1.635 0 .707-.296 1.262-.296.549-.815.912a3.3 3.3 0 0 1-1.201.507v.12a3 3 0 0 1 1.382.405q.64.367 1.026 1.026.387.652.387 1.546a3.2 3.2 0 0 1-.507 1.78q-.507.78-1.467 1.232-.96.447-2.331.447zm2.989-2.41h1.847q.972 0 1.431-.367.465-.369.465-1.027 0-.476-.224-.82a1.44 1.44 0 0 0-.634-.538q-.41-.193-.984-.193h-1.901zm0-4.87h1.654q.49 0 .869-.164.38-.162.592-.47.217-.309.217-.743 0-.622-.441-.978-.44-.357-1.189-.357h-1.702zm10.106 10.757a5.7 5.7 0 0 1-1.003-.085 4 4 0 0 1-.809-.21l.652-2.144q.435.145.785.17.357.023.61-.116.26-.132.398-.477l.115-.277-3.296-9.611h3.091l1.708 6.616h.097l1.732-6.616h3.11l-3.496 10.16a4.3 4.3 0 0 1-.718 1.34q-.46.586-1.19.918-.724.332-1.786.332m8.321-3.477V14.137h5.156q1.388 0 2.324.392.942.393 1.413 1.1.477.705.477 1.635 0 .707-.296 1.262-.296.549-.815.912a3.3 3.3 0 0 1-1.201.507v.12a3 3 0 0 1 1.382.405q.64.367 1.026 1.026.387.652.387 1.546a3.2 3.2 0 0 1-.507 1.78q-.507.78-1.467 1.232-.96.447-2.331.447zm2.989-2.41h1.847q.972 0 1.431-.367.465-.369.465-1.027 0-.476-.224-.82a1.44 1.44 0 0 0-.634-.538q-.41-.193-.984-.193h-1.901zm0-4.87h1.654q.49 0 .869-.164.38-.162.592-.47.217-.309.217-.743 0-.622-.441-.978-.44-.357-1.189-.357h-1.702zm8.3 7.28v-9.273h2.953V26.5zm1.48-10.354q-.622 0-1.069-.41a1.32 1.32 0 0 1-.447-1.002q0-.58.447-.99a1.5 1.5 0 0 1 1.069-.417q.627 0 1.068.417.447.41.447.99 0 .585-.447 1.002a1.5 1.5 0 0 1-1.068.41m8.586 1.08V19.4h-5.85v-2.173zm-4.625-2.22h2.952v8.578q0 .271.085.44.09.164.259.236.17.066.405.066.169 0 .356-.03.193-.036.29-.06l.447 2.13q-.211.061-.598.152a5 5 0 0 1-.912.115q-1.038.048-1.781-.242a2.3 2.3 0 0 1-1.128-.918q-.387-.621-.375-1.563z"/></g></g><rect width="232.858" height="37.858" x="1.071" y="1.071" stroke="#fff" stroke-opacity=".15" stroke-width="2.143" rx="6.929"/><defs><filter id="c" width="39.202" height="39.202" x="2.4" y=".4" color-interpolation-filters="sRGB" filterUnits="userSpaceOnUse"><feFlood flood-opacity="0" result="BackgroundImageFix"/><feColorMatrix in="SourceAlpha" result="hardAlpha" values="0 0 0 0 0 0 0 0 0 0 0 0 0 0 0 0 0 0 127 0"/><feOffset/><feGaussianBlur stdDeviation="2.8"/><feComposite in2="hardAlpha" operator="out"/><feColorMatrix values="0 0 0 0 0 0 0 0 0 0 0 0 0 0 0 0 0 0 0.25 0"/><feBlend in2="BackgroundImageFix" result="effect1_dropShadow_45_21"/><feBlend in="SourceGraphic" in2="effect1_dropShadow_45_21" result="shape"/></filter><filter id="d" width="196.429" height="32.429" x="36.287" y="3.786" color-interpolation-filters="sRGB" filterUnits="userSpaceOnUse"><feFlood flood-opacity="0" result="BackgroundImageFix"/><feColorMatrix in="SourceAlpha" result="hardAlpha" values="0 0 0 0 0 0 0 0 0 0 0 0 0 0 0 0 0 0 127 0"/><feOffset/><feGaussianBlur stdDeviation="2.857"/><feComposite in2="hardAlpha" operator="out"/><feColorMatrix values="0 0 0 0 0 0 0 0 0 0 0 0 0 0 0 0 0 0 0.25 0"/><feBlend in2="BackgroundImageFix" result="effect1_dropShadow_45_21"/><feBlend in="SourceGraphic" in2="effect1_dropShadow_45_21" result="shape"/></filter><linearGradient id="b" x1="117.501" x2="117.501" y1="0" y2="40.001" gradientUnits="userSpaceOnUse"><stop stop-color="#09202f"/><stop offset="1" stop-color="#05111a"/></linearGradient><clipPath id="a"><rect width="235.001" height="40.001" fill="#fff" rx="8"/></clipPath></defs></svg>