<svg xmlns="http://www.w3.org/2000/svg" width="236" height="40" fill="none" viewBox="0 0 236 40"><g clip-path="url(#a)"><rect width="236.001" height="40.001" fill="url(#b)" rx="8"/><g filter="url(#c)"><ellipse cx="22.002" cy="20.008" fill="#fff" rx="13.999" ry="13.993"/><path fill="url(#d)" d="M22.28 12.53c-.033 0-.08 0-.097.032l-.032.08 5.395 20.209a14 14 0 0 0 6.327-5.425L22.376 12.577a.13.13 0 0 0-.097-.048" opacity=".5"/><path fill="#2185d0" d="M21.951 6a14 14 0 0 0-12.213 7.24 13.99 13.99 0 0 0 .401 14.187l11.673-15.086c.037-.044.11-.073.19-.073s.146.03.19.073l11.666 15.086A14 14 0 0 0 36 19.993C36.001 12.268 29.731 6 22.002 6z"/></g><g filter="url(#e)"><path fill="#e8e8e8" d="M44.404 26.5h-1.98l4.45-12.363h2.154l4.45 12.364h-1.98l-3.496-10.118h-.096zm.332-4.84h6.424v1.569h-6.424zm17.153-4.432-3.363 9.273h-1.932l-3.368-9.273h1.938l2.348 7.136h.096l2.343-7.136zm4.129 9.478a3.8 3.8 0 0 1-1.594-.326 2.7 2.7 0 0 1-1.129-.96q-.41-.628-.41-1.54 0-.784.302-1.291.301-.507.814-.803a4.3 4.3 0 0 1 1.148-.447q.633-.15 1.291-.23l1.353-.156q.519-.066.754-.212.236-.144.236-.47v-.043q0-.79-.447-1.225-.44-.435-1.316-.435-.912 0-1.437.405-.519.398-.718.887l-1.696-.386q.301-.845.88-1.365.587-.525 1.347-.76a5.3 5.3 0 0 1 1.6-.242q.556 0 1.177.133.628.128 1.171.47.55.345.9.985.35.634.35 1.648v6.158H68.83v-1.268h-.072a2.6 2.6 0 0 1-.526.688 2.8 2.8 0 0 1-.9.562q-.548.222-1.315.223m.392-1.449q.75 0 1.28-.296.537-.295.815-.772.284-.483.284-1.033v-1.195q-.098.097-.374.181a6 6 0 0 1-.622.139l-.682.103-.556.072q-.525.066-.96.223a1.65 1.65 0 0 0-.688.453q-.254.289-.254.773 0 .67.496 1.014.495.338 1.261.338m6.588 1.244v-9.273h1.805v9.273zm.912-10.704q-.471 0-.81-.314a1.02 1.02 0 0 1-.331-.76q0-.447.332-.761.338-.32.809-.32.47 0 .803.32a1 1 0 0 1 .338.76q0 .441-.338.761-.333.315-.803.314m5.127-1.66v12.364H77.23V14.137zm5.126 12.569a3.8 3.8 0 0 1-1.593-.326 2.7 2.7 0 0 1-1.13-.96q-.41-.628-.41-1.54 0-.784.302-1.291t.815-.803a4.3 4.3 0 0 1 1.147-.447q.634-.15 1.292-.23l1.352-.156q.52-.066.755-.212.235-.144.235-.47v-.043q0-.79-.446-1.225-.441-.435-1.317-.435-.91 0-1.436.405-.52.398-.719.887l-1.696-.386q.302-.845.881-1.365.586-.525 1.347-.76a5.3 5.3 0 0 1 1.6-.242q.555 0 1.177.133.627.128 1.17.47.55.345.9.985.35.634.35 1.648v6.158h-1.762v-1.268h-.073a2.6 2.6 0 0 1-.525.688 2.8 2.8 0 0 1-.9.562q-.55.222-1.316.223m.393-1.449q.748 0 1.28-.296.537-.295.815-.772.283-.483.283-1.033v-1.195q-.096.097-.374.181a6 6 0 0 1-.622.139l-.682.103-.555.072q-.525.066-.96.223a1.65 1.65 0 0 0-.688.453q-.255.289-.254.773 0 .67.495 1.014.494.338 1.262.338m6.733 1.244V14.137h1.805v4.594h.108q.157-.29.453-.67.295-.38.821-.664.525-.29 1.389-.29 1.122 0 2.004.568.88.567 1.382 1.636.507 1.069.507 2.571 0 1.504-.5 2.578-.502 1.07-1.377 1.648-.876.574-1.998.574-.846 0-1.383-.284a2.6 2.6 0 0 1-.833-.664 5 5 0 0 1-.465-.676h-.15V26.5zm1.768-4.637q0 .978.284 1.715.284.736.821 1.153.537.41 1.316.41.81 0 1.352-.428.544-.435.821-1.177.284-.743.284-1.673 0-.916-.278-1.648-.27-.73-.82-1.153-.544-.422-1.359-.422-.785 0-1.328.404-.537.405-.815 1.129t-.278 1.69m10.533-7.727v12.364h-1.805V14.137zm6.425 12.55q-1.37 0-2.36-.585a3.97 3.97 0 0 1-1.522-1.66q-.531-1.074-.531-2.517 0-1.425.531-2.512a4.13 4.13 0 0 1 1.497-1.696q.966-.61 2.258-.61a4.6 4.6 0 0 1 1.522.26 3.7 3.7 0 0 1 1.322.815q.585.555.923 1.443.339.881.338 2.143v.64h-7.371v-1.353h5.603q0-.712-.29-1.261a2.2 2.2 0 0 0-.815-.876q-.52-.32-1.22-.32-.76 0-1.328.375a2.5 2.5 0 0 0-.869.966 2.8 2.8 0 0 0-.302 1.285v1.057q0 .93.326 1.582.332.651.924.996.591.338 1.382.338.513 0 .936-.145.423-.15.73-.447.309-.295.471-.73l1.709.308a3.1 3.1 0 0 1-.737 1.322 3.6 3.6 0 0 1-1.322.875q-.79.308-1.805.308m14.386 0q-1.304 0-2.276-.597a4.03 4.03 0 0 1-1.509-1.672q-.537-1.074-.537-2.511 0-1.443.537-2.524a4 4 0 0 1 1.509-1.678q.972-.597 2.276-.598 1.304 0 2.276.598a4 4 0 0 1 1.509 1.678q.537 1.08.537 2.524 0 1.436-.537 2.511a4.03 4.03 0 0 1-1.509 1.672q-.972.598-2.276.598m.006-1.514q.845 0 1.401-.447.555-.447.821-1.19.271-.742.271-1.635 0-.888-.271-1.63-.266-.75-.821-1.202-.556-.453-1.401-.453-.85 0-1.413.453-.555.453-.827 1.202a4.8 4.8 0 0 0-.265 1.63q0 .892.265 1.636.272.742.827 1.189.563.447 1.413.447m8.136-4.178v5.506h-1.805V17.23h1.733v1.51h.115a2.65 2.65 0 0 1 1.002-1.184q.688-.447 1.732-.447.949 0 1.66.399.713.392 1.105 1.17.393.78.393 1.927V26.5h-1.805v-5.68q0-1.008-.526-1.576-.525-.573-1.442-.573-.628 0-1.117.271a1.95 1.95 0 0 0-.767.797q-.278.52-.278 1.256"/><path fill="url(#f)" d="M156.16 18.617h-3.019q-.06-.465-.247-.84a2.1 2.1 0 0 0-.495-.64 2.1 2.1 0 0 0-.731-.404 2.8 2.8 0 0 0-.923-.145q-.9 0-1.552.44-.645.443-.996 1.274-.344.834-.344 2.017 0 1.231.35 2.065.357.825.996 1.25.646.416 1.528.416.495 0 .899-.127.41-.127.719-.368.314-.248.513-.598a2.5 2.5 0 0 0 .283-.803l3.019.018a4.6 4.6 0 0 1-.477 1.618 5.2 5.2 0 0 1-1.081 1.455 5.1 5.1 0 0 1-1.678 1.038q-.984.387-2.258.387-1.678 0-3.006-.737-1.323-.742-2.089-2.161-.767-1.419-.767-3.453 0-2.04.779-3.46.779-1.418 2.107-2.155t2.976-.736q1.123 0 2.077.314a5 5 0 0 1 1.678.906q.725.591 1.177 1.454.453.864.562 1.974m6.038 8.059q-1.461 0-2.511-.598a4.1 4.1 0 0 1-1.612-1.678q-.561-1.08-.561-2.505 0-1.431.561-2.506.567-1.08 1.612-1.678 1.05-.603 2.511-.604 1.46 0 2.506.604 1.05.598 1.611 1.678.568 1.075.568 2.506 0 1.424-.568 2.505a4.07 4.07 0 0 1-1.611 1.678q-1.045.598-2.506.598m.018-2.228q.532 0 .9-.326t.561-.905q.2-.58.2-1.34 0-.773-.2-1.353-.193-.58-.561-.905a1.3 1.3 0 0 0-.9-.326q-.55 0-.929.326-.375.326-.574.905-.193.58-.193 1.352 0 .762.193 1.34.2.58.574.906.38.326.929.326m9.566 2.186a3.4 3.4 0 0 1-1.866-.532q-.839-.531-1.34-1.593-.501-1.063-.501-2.639 0-1.636.519-2.692.52-1.056 1.359-1.564a3.47 3.47 0 0 1 1.817-.507q.73 0 1.249.254.52.247.858.64.337.392.513.815h.06v-4.679h2.952V26.5h-2.922v-1.504h-.09a2.9 2.9 0 0 1-.531.803q-.345.375-.864.604-.513.23-1.213.23m1.026-2.3q.537 0 .918-.302.38-.308.585-.864.206-.555.206-1.304 0-.76-.206-1.31-.199-.55-.585-.845a1.45 1.45 0 0 0-.918-.296q-.549 0-.93.302-.38.302-.579.851-.193.55-.193 1.298 0 .75.199 1.304.2.555.573.864.381.3.93.301m10.796 2.342q-1.455 0-2.512-.574a3.97 3.97 0 0 1-1.618-1.648q-.561-1.074-.561-2.553 0-1.437.568-2.512.567-1.08 1.599-1.678 1.032-.603 2.433-.604.99 0 1.811.308t1.419.912.93 1.49q.332.882.332 2.023v.737h-8.06V20.86h5.313a1.66 1.66 0 0 0-.224-.839 1.5 1.5 0 0 0-.597-.573 1.7 1.7 0 0 0-.863-.212q-.495 0-.888.224a1.68 1.68 0 0 0-.863 1.449v1.744q0 .567.223.996.223.423.634.658t.978.236q.393 0 .712-.109a1.5 1.5 0 0 0 .55-.32q.229-.21.344-.52l2.71.08a3.35 3.35 0 0 1-.742 1.587q-.567.67-1.491 1.044-.924.369-2.137.369m5.908-.175V14.137h2.952v4.679h.061q.182-.423.513-.815.338-.393.857-.64.525-.255 1.256-.254.966 0 1.805.507.845.508 1.364 1.564t.519 2.692q0 1.575-.501 2.639-.495 1.063-1.34 1.593a3.4 3.4 0 0 1-1.865.532q-.7 0-1.214-.23a2.6 2.6 0 0 1-.863-.604 2.9 2.9 0 0 1-.531-.803h-.091v1.504zm2.892-4.637q0 .75.199 1.304.205.555.586.864.386.3.924.301.543 0 .923-.301.38-.308.574-.864.199-.555.199-1.304 0-.748-.199-1.298-.193-.55-.574-.85-.374-.303-.923-.303-.544 0-.924.296-.38.297-.586.845-.2.55-.199 1.31m12.317 4.812q-1.455 0-2.511-.574a3.96 3.96 0 0 1-1.618-1.648q-.562-1.074-.562-2.553 0-1.437.568-2.512.567-1.08 1.599-1.678 1.034-.603 2.433-.604.99 0 1.811.308.822.308 1.419.912t.93 1.49q.332.882.332 2.023v.737h-8.059V20.86h5.312a1.66 1.66 0 0 0-.223-.839 1.5 1.5 0 0 0-.598-.573 1.7 1.7 0 0 0-.863-.212q-.495 0-.888.224a1.65 1.65 0 0 0-.622.597q-.228.375-.241.851v1.745q0 .567.223.996.224.423.634.658t.978.236q.393 0 .713-.109.32-.108.549-.32.23-.21.344-.52l2.711.08a3.36 3.36 0 0 1-.743 1.587q-.567.67-1.491 1.044-.924.369-2.137.369m5.909-.175v-9.273h2.867v1.69h.097q.253-.917.827-1.364a2.1 2.1 0 0 1 1.334-.453q.206 0 .422.03.218.025.405.079v2.566a3 3 0 0 0-.555-.115 5 5 0 0 0-.604-.042q-.525 0-.948.235a1.7 1.7 0 0 0-.658.646 1.9 1.9 0 0 0-.235.966V26.5zm10.996 3.67q-1.322 0-2.264-.368-.942-.369-1.479-1.008a2.8 2.8 0 0 1-.646-1.45l2.795-.156q.078.284.29.495.218.211.561.326.35.114.821.115.743 0 1.226-.363.489-.356.489-1.25v-1.63h-.103a2.2 2.2 0 0 1-.531.767 2.5 2.5 0 0 1-.888.532q-.525.193-1.207.193a3.75 3.75 0 0 1-1.859-.471q-.84-.477-1.347-1.473-.501-1.002-.501-2.578 0-1.623.52-2.674.519-1.056 1.358-1.564a3.47 3.47 0 0 1 1.817-.507q.73 0 1.25.254.525.247.863.64.337.392.513.815h.085v-1.588h2.94v9.309q0 1.177-.592 1.986-.591.81-1.654 1.226-1.062.422-2.457.422m.09-5.946q.538 0 .918-.284t.586-.815q.205-.531.205-1.274 0-.755-.205-1.298-.2-.55-.586-.845a1.45 1.45 0 0 0-.918-.296q-.55 0-.929.302-.38.302-.58.851-.193.544-.193 1.286 0 .743.199 1.274.2.531.574.815.38.285.929.284"/></g></g><rect width="233.858" height="37.858" x="1.071" y="1.071" stroke="#fff" stroke-opacity=".15" stroke-width="2.143" rx="6.929"/><defs><linearGradient id="b" x1="118.001" x2="118.001" y1="0" y2="40.001" gradientUnits="userSpaceOnUse"><stop stop-color="#132430"/><stop offset="1" stop-color="#323232"/></linearGradient><linearGradient id="d" x1="22.279" x2="31.266" y1="12.53" y2="30.494" gradientUnits="userSpaceOnUse"><stop stop-color="#fff" stop-opacity="0"/><stop offset=".5" stop-color="#71c2ff"/><stop offset="1" stop-color="#39aaff"/></linearGradient><linearGradient id="f" x1="186.001" x2="186.001" y1="9.501" y2="30.501" gradientUnits="userSpaceOnUse"><stop stop-color="#7ab3de"/><stop offset="1" stop-color="#c1d8ea"/></linearGradient><filter id="c" width="39.202" height="39.202" x="2.4" y=".4" color-interpolation-filters="sRGB" filterUnits="userSpaceOnUse"><feFlood flood-opacity="0" result="BackgroundImageFix"/><feColorMatrix in="SourceAlpha" result="hardAlpha" values="0 0 0 0 0 0 0 0 0 0 0 0 0 0 0 0 0 0 127 0"/><feOffset/><feGaussianBlur stdDeviation="2.8"/><feComposite in2="hardAlpha" operator="out"/><feColorMatrix values="0 0 0 0 0 0 0 0 0 0 0 0 0 0 0 0 0 0 0.25 0"/><feBlend in2="BackgroundImageFix" result="effect1_dropShadow_28_2584"/><feBlend in="SourceGraphic" in2="effect1_dropShadow_28_2584" result="shape"/></filter><filter id="e" width="197.429" height="32.429" x="36.287" y="3.786" color-interpolation-filters="sRGB" filterUnits="userSpaceOnUse"><feFlood flood-opacity="0" result="BackgroundImageFix"/><feColorMatrix in="SourceAlpha" result="hardAlpha" values="0 0 0 0 0 0 0 0 0 0 0 0 0 0 0 0 0 0 127 0"/><feOffset/><feGaussianBlur stdDeviation="2.857"/><feComposite in2="hardAlpha" operator="out"/><feColorMatrix values="0 0 0 0 0 0 0 0 0 0 0 0 0 0 0 0 0 0 0.25 0"/><feBlend in2="BackgroundImageFix" result="effect1_dropShadow_28_2584"/><feBlend in="SourceGraphic" in2="effect1_dropShadow_28_2584" result="shape"/></filter><clipPath id="a"><rect width="236.001" height="40.001" fill="#fff" rx="8"/></clipPath></defs></svg>