<svg xmlns="http://www.w3.org/2000/svg" width="226" height="40" fill="none" viewBox="0 0 226 40"><g clip-path="url(#a)"><rect width="226.001" height="40.001" fill="url(#b)" rx="8"/><g fill="#ff3e3e" filter="url(#c)"><path d="m14.88 15.555 7.286-2.378c.483-.157.791-.635.651-1.14-.13-.469-.664-.803-1.148-.647l-7.286 2.377c-.482.158-.792.635-.652 1.14.13.47.665.803 1.148.648"/><path d="m21.668 13.177 7.28 2.375c.484.157 1.018-.179 1.148-.648.14-.505-.169-.982-.652-1.14l-7.278-2.374c-.483-.158-1.019.178-1.149.647-.14.505.17.983.652 1.14m-7.509 2.284 7.266 3.294c.462.21 1 .136 1.277-.333.237-.402.128-1.058-.335-1.268l-7.266-3.294c-.462-.21-1-.135-1.277.333-.237.403-.128 1.058.335 1.268"/><path d="m28.723 13.857-7.297 3.299c-.463.21-.572.865-.335 1.268.277.468.814.542 1.277.332l7.298-3.298c.463-.21.572-.865.335-1.268-.277-.469-.814-.542-1.278-.333M14.16 25.706l7.246 3.282c.463.21 1 .136 1.276-.332.238-.403.129-1.059-.334-1.268l-7.246-3.283c-.462-.21-1-.136-1.277.333-.237.402-.128 1.059.335 1.268"/><path d="m22.348 28.988 7.326-3.303c.463-.209.572-.865.335-1.268-.277-.47-.814-.541-1.277-.333l-7.327 3.303c-.463.21-.571.866-.334 1.268.276.469.813.542 1.276.333"/><path d="m28.264 14.658.007 9.195v1.032c0 1.195 1.866 1.196 1.866 0l-.006-9.195v-1.032c0-1.196-1.867-1.196-1.867 0m-14.566.003v10.245c0 1.196 1.867 1.196 1.867 0V14.66c0-1.196-1.867-1.196-1.867 0m7.266 3.296-.02 9.2v1.032c0 1.195 1.868 1.195 1.868 0l.018-9.2v-1.032c0-1.195-1.867-1.195-1.867 0M6.982 20.093v-.987q1.329 0 1.854-.556.533-.558.533-1.862v-2.545q0-1.098.207-1.902.215-.803.692-1.328t1.272-.78 1.965-.254v1.559q-.923 0-1.455.286-.526.287-.748.891-.215.597-.215 1.527v3.183q0 .62-.167 1.13-.159.508-.597.874t-1.249.565q-.803.2-2.092.199m6.523 10.15q-1.17 0-1.965-.254-.795-.255-1.272-.78-.478-.525-.692-1.328-.207-.804-.207-1.901v-2.546q0-1.304-.533-1.862-.525-.556-1.854-.556v-.987q1.29 0 2.092.2.812.198 1.25.564t.596.875q.167.51.167 1.13v3.182q0 .93.215 1.527.223.597.748.883.533.294 1.455.294zm-6.523-9.227v-1.91H8.86v1.91zm30.037-1.107v-.987q-1.329 0-1.854-.557-.533-.556-.533-1.861v-2.546q0-1.098-.206-1.9-.215-.805-.693-1.33-.477-.525-1.272-.779-.796-.255-1.965-.255v1.56q.922 0 1.456.286.525.286.747.891.216.597.215 1.527v3.182q0 .62.167 1.13.159.51.597.875.437.366 1.249.565.803.199 2.092.199m-6.523 10.15q1.17 0 1.965-.254.795-.255 1.273-.78t.692-1.328q.206-.804.206-1.902V23.25q0-1.305.533-1.862.525-.557 1.854-.557v-.986q-1.29 0-2.092.199-.812.198-1.25.565-.436.366-.596.875-.167.51-.167 1.13v3.181q0 .93-.215 1.528a1.6 1.6 0 0 1-.747.883q-.534.294-1.456.294zm6.523-9.228v-1.909h-1.877v1.91z"/></g><g filter="url(#d)"><path fill="#e8e8e8" d="M44.404 26.5h-1.98l4.45-12.363h2.154l4.45 12.364h-1.98l-3.496-10.118h-.096zm.332-4.84h6.424v1.569h-6.424zm17.153-4.432-3.363 9.273h-1.932l-3.368-9.273h1.938l2.348 7.136h.096l2.343-7.136zm4.129 9.478a3.8 3.8 0 0 1-1.594-.326 2.7 2.7 0 0 1-1.129-.96q-.41-.627-.41-1.54 0-.784.302-1.291.301-.507.814-.803a4.3 4.3 0 0 1 1.148-.447q.633-.15 1.291-.23l1.353-.156q.519-.066.754-.212.236-.144.236-.47v-.043q0-.79-.447-1.225-.44-.435-1.316-.435-.912 0-1.437.405-.519.398-.718.887l-1.696-.386q.301-.845.88-1.365.587-.525 1.347-.76a5.3 5.3 0 0 1 1.6-.242q.556 0 1.177.133.628.128 1.171.471.55.344.9.984.35.634.35 1.648v6.158H68.83v-1.268h-.072a2.6 2.6 0 0 1-.526.688 2.8 2.8 0 0 1-.9.562q-.548.222-1.315.223m.392-1.449q.75 0 1.28-.296.537-.295.815-.772.284-.483.284-1.033v-1.195q-.098.096-.374.181a6 6 0 0 1-.622.139l-.682.103-.556.072q-.525.066-.96.223a1.65 1.65 0 0 0-.688.453q-.254.289-.254.773 0 .67.496 1.014.495.338 1.261.338m6.588 1.244v-9.273h1.805v9.273zm.912-10.704q-.471 0-.81-.314a1.02 1.02 0 0 1-.331-.76q0-.447.332-.761.338-.32.809-.32.47 0 .803.32a1 1 0 0 1 .338.76q0 .442-.338.761-.333.315-.803.314m5.127-1.66v12.364H77.23V14.137zm5.126 12.569a3.8 3.8 0 0 1-1.593-.326 2.7 2.7 0 0 1-1.13-.96q-.41-.627-.41-1.54 0-.784.302-1.291t.815-.803a4.3 4.3 0 0 1 1.147-.447q.634-.15 1.292-.23l1.352-.156q.52-.066.755-.212.235-.144.235-.47v-.043q0-.79-.446-1.225-.441-.435-1.317-.435-.91 0-1.436.405-.52.398-.719.887l-1.696-.386q.302-.845.881-1.365.586-.525 1.347-.76a5.3 5.3 0 0 1 1.6-.242q.555 0 1.177.133.627.128 1.17.471.55.344.9.984.35.634.35 1.648v6.158h-1.762v-1.268h-.073a2.6 2.6 0 0 1-.525.688 2.8 2.8 0 0 1-.9.562q-.55.222-1.316.223m.393-1.449q.748 0 1.28-.296.537-.295.815-.772.283-.483.283-1.033v-1.195q-.096.096-.374.181a6 6 0 0 1-.622.139l-.682.103-.555.072q-.525.066-.96.223a1.65 1.65 0 0 0-.688.453q-.255.289-.254.773 0 .67.495 1.014.494.338 1.262.338m6.733 1.244V14.137h1.805v4.594h.108q.157-.29.453-.67.295-.38.821-.664.525-.29 1.389-.29 1.122 0 2.004.568.88.567 1.382 1.636.507 1.069.507 2.572 0 1.502-.5 2.577-.502 1.07-1.377 1.648-.876.574-1.998.574-.846 0-1.383-.284a2.6 2.6 0 0 1-.833-.664 5 5 0 0 1-.465-.676h-.15V26.5zm1.768-4.637q0 .978.284 1.715.284.735.821 1.153.537.41 1.316.41.81 0 1.352-.428.544-.435.821-1.177.284-.743.284-1.673 0-.916-.278-1.648-.27-.73-.82-1.153-.544-.422-1.359-.422-.785 0-1.328.404-.537.405-.815 1.129t-.278 1.69m10.533-7.727v12.364h-1.805V14.137zm6.425 12.55q-1.37 0-2.36-.585a3.97 3.97 0 0 1-1.522-1.66q-.531-1.074-.531-2.517 0-1.425.531-2.512a4.13 4.13 0 0 1 1.497-1.696q.966-.61 2.258-.61.785 0 1.522.26a3.7 3.7 0 0 1 1.322.815q.585.555.923 1.443.339.881.338 2.143v.64h-7.371v-1.353h5.603q0-.712-.29-1.261a2.2 2.2 0 0 0-.815-.876q-.52-.32-1.22-.32-.76 0-1.328.375a2.5 2.5 0 0 0-.869.966 2.8 2.8 0 0 0-.302 1.285v1.057q0 .93.326 1.582.332.651.924.996.591.338 1.382.338.513 0 .936-.145.423-.15.73-.447.309-.295.471-.73l1.709.308a3.1 3.1 0 0 1-.737 1.322 3.6 3.6 0 0 1-1.322.875q-.79.308-1.805.308m14.386 0q-1.304 0-2.276-.597a4.03 4.03 0 0 1-1.509-1.672q-.537-1.074-.537-2.511 0-1.443.537-2.524a4 4 0 0 1 1.509-1.678q.972-.597 2.276-.598 1.304 0 2.276.598a4 4 0 0 1 1.509 1.678q.537 1.08.537 2.524 0 1.436-.537 2.511a4.03 4.03 0 0 1-1.509 1.672q-.972.598-2.276.598m.006-1.514q.845 0 1.401-.447a2.6 2.6 0 0 0 .821-1.19q.271-.742.271-1.635 0-.888-.271-1.63a2.66 2.66 0 0 0-.821-1.202q-.556-.453-1.401-.453-.85 0-1.413.453-.555.453-.827 1.202a4.8 4.8 0 0 0-.265 1.63q0 .892.265 1.636.272.742.827 1.189.563.447 1.413.447m8.136-4.178v5.506h-1.805V17.23h1.733v1.51h.115a2.65 2.65 0 0 1 1.002-1.184q.688-.447 1.732-.447.949 0 1.66.399.713.392 1.105 1.17.393.78.393 1.927V26.5h-1.805v-5.68q0-1.008-.526-1.576-.525-.573-1.442-.573-.628 0-1.117.271a1.95 1.95 0 0 0-.767.797q-.278.52-.278 1.256"/><path fill="#ff3e3e" d="M156.16 18.617h-3.019q-.06-.465-.247-.84a2.1 2.1 0 0 0-.495-.64 2.1 2.1 0 0 0-.731-.404 2.8 2.8 0 0 0-.923-.145q-.9 0-1.552.44-.645.442-.996 1.275-.344.832-.344 2.016 0 1.231.35 2.065.357.826.996 1.25.646.416 1.528.416.495 0 .899-.127.41-.127.719-.368.314-.247.513-.598.204-.356.283-.803l3.019.018a4.6 4.6 0 0 1-.477 1.618 5.2 5.2 0 0 1-1.081 1.455 5.1 5.1 0 0 1-1.678 1.038q-.984.387-2.258.387-1.678 0-3.006-.737-1.323-.742-2.089-2.161-.767-1.419-.767-3.453 0-2.04.779-3.46.779-1.418 2.107-2.154 1.328-.737 2.976-.737 1.123 0 2.077.314a5 5 0 0 1 1.678.906q.725.591 1.177 1.454.453.864.562 1.974m6.038 8.059q-1.461 0-2.511-.598a4.1 4.1 0 0 1-1.612-1.678q-.561-1.08-.561-2.505 0-1.431.561-2.506.567-1.08 1.612-1.678 1.05-.604 2.511-.604 1.46 0 2.506.604 1.05.598 1.611 1.678.568 1.075.568 2.506 0 1.425-.568 2.505a4.07 4.07 0 0 1-1.611 1.678q-1.045.598-2.506.598m.018-2.228q.532 0 .9-.326t.561-.905q.2-.58.2-1.34 0-.773-.2-1.353-.193-.58-.561-.905a1.3 1.3 0 0 0-.9-.326q-.55 0-.929.326-.375.326-.574.905-.193.58-.193 1.352 0 .762.193 1.34.2.58.574.906.38.327.929.326m9.566 2.186a3.4 3.4 0 0 1-1.866-.532q-.839-.531-1.34-1.593-.501-1.063-.501-2.639 0-1.636.519-2.692.52-1.056 1.359-1.564a3.47 3.47 0 0 1 1.817-.507q.73 0 1.249.254.52.247.858.64.337.392.513.815h.06v-4.679h2.952V26.5h-2.922v-1.504h-.09a2.9 2.9 0 0 1-.531.803q-.345.375-.864.604-.513.23-1.213.23m1.026-2.3q.537 0 .918-.302.38-.308.585-.864.206-.555.206-1.304 0-.76-.206-1.31-.199-.55-.585-.845a1.45 1.45 0 0 0-.918-.296q-.549 0-.93.302-.38.302-.579.851-.193.55-.193 1.298 0 .75.199 1.304.2.555.573.864.381.301.93.302m10.796 2.342q-1.455 0-2.512-.574a3.97 3.97 0 0 1-1.618-1.648q-.561-1.074-.561-2.553 0-1.437.568-2.512.567-1.08 1.599-1.678 1.032-.604 2.433-.604.99 0 1.811.308t1.419.912.93 1.49q.332.883.332 2.023v.737h-8.06v-1.715h5.313a1.66 1.66 0 0 0-.224-.839 1.5 1.5 0 0 0-.597-.573 1.7 1.7 0 0 0-.863-.212q-.495 0-.888.224a1.68 1.68 0 0 0-.863 1.449v1.744q0 .567.223.996.223.423.634.658t.978.236q.393 0 .712-.109.32-.108.55-.32.229-.21.344-.519l2.71.078a3.35 3.35 0 0 1-.742 1.588q-.567.67-1.491 1.044-.924.369-2.137.369m5.908-12.539h3.701l3.139 7.655h.145l3.139-7.655h3.701V26.5h-2.91v-7.595h-.102l-2.971 7.516h-1.859l-2.97-7.558h-.103V26.5h-2.91zm26.911 4.48h-3.018q-.06-.465-.247-.84a2.04 2.04 0 0 0-1.226-1.044 2.8 2.8 0 0 0-.924-.145q-.899 0-1.551.44-.647.442-.996 1.275-.344.832-.344 2.016 0 1.231.35 2.065.355.826.996 1.25.647.416 1.527.416.495 0 .9-.127a2.2 2.2 0 0 0 .718-.368q.313-.247.513-.598.206-.356.284-.803l3.018.018a4.6 4.6 0 0 1-.476 1.618 5.2 5.2 0 0 1-1.081 1.455 5.1 5.1 0 0 1-1.678 1.038q-.984.387-2.258.387-1.678 0-3.007-.737-1.322-.742-2.088-2.161-.767-1.419-.767-3.453 0-2.04.779-3.46.778-1.418 2.107-2.154 1.328-.737 2.976-.737 1.123 0 2.077.314a5 5 0 0 1 1.678.906q.724.591 1.177 1.454.453.864.561 1.974"/></g></g><rect width="223.858" height="37.858" x="1.071" y="1.071" stroke="#fff" stroke-opacity=".15" stroke-width="2.143" rx="6.929"/><defs><filter id="c" width="41.237" height="39.452" x="1.382" y=".15" color-interpolation-filters="sRGB" filterUnits="userSpaceOnUse"><feFlood flood-opacity="0" result="BackgroundImageFix"/><feColorMatrix in="SourceAlpha" result="hardAlpha" values="0 0 0 0 0 0 0 0 0 0 0 0 0 0 0 0 0 0 127 0"/><feOffset/><feGaussianBlur stdDeviation="2.8"/><feComposite in2="hardAlpha" operator="out"/><feColorMatrix values="0 0 0 0 0 0 0 0 0 0 0 0 0 0 0 0 0 0 0.25 0"/><feBlend in2="BackgroundImageFix" result="effect1_dropShadow_5_343"/><feBlend in="SourceGraphic" in2="effect1_dropShadow_5_343" result="shape"/></filter><filter id="d" width="187.429" height="32.429" x="36.287" y="3.786" color-interpolation-filters="sRGB" filterUnits="userSpaceOnUse"><feFlood flood-opacity="0" result="BackgroundImageFix"/><feColorMatrix in="SourceAlpha" result="hardAlpha" values="0 0 0 0 0 0 0 0 0 0 0 0 0 0 0 0 0 0 127 0"/><feOffset/><feGaussianBlur stdDeviation="2.857"/><feComposite in2="hardAlpha" operator="out"/><feColorMatrix values="0 0 0 0 0 0 0 0 0 0 0 0 0 0 0 0 0 0 0.25 0"/><feBlend in2="BackgroundImageFix" result="effect1_dropShadow_5_343"/><feBlend in="SourceGraphic" in2="effect1_dropShadow_5_343" result="shape"/></filter><linearGradient id="b" x1="113.001" x2="113.001" y1="0" y2="40.001" gradientUnits="userSpaceOnUse"><stop stop-color="#310d0d"/><stop offset="1" stop-color="#1d0808"/></linearGradient><clipPath id="a"><rect width="226.001" height="40.001" fill="#fff" rx="8"/></clipPath></defs></svg>