<svg xmlns="http://www.w3.org/2000/svg" width="251" height="40" fill="none" viewBox="0 0 251 40"><rect width="251" height="40" fill="url(#a)" rx="8"/><rect width="248.857" height="37.857" x="1.071" y="1.071" stroke="#fff" stroke-opacity=".15" stroke-width="2.143" rx="6.929"/><g filter="url(#b)"><path fill="#f16436" d="M29.38 16.665s5.717-.925 6.62-3.624h-8.758V10.9H8l2.37 2.823v2.892s5.982-.319 8.295 1.482c3.167 3.012-3.562 7.084-3.562 7.084L13.95 29.1c1.805-1.763 5.244-4.044 11.549-3.934-2.4.778-4.812 1.994-6.69 3.934h12.745l-1.2-3.919s-9.238-5.59-.973-8.516"/></g><g filter="url(#c)"><path fill="#e8e8e8" d="M44.403 26.5h-1.98l4.449-12.364h2.155l4.45 12.364h-1.98L48 16.382h-.097zm.332-4.842h6.423v1.57h-6.423zm17.152-4.43L58.525 26.5h-1.932l-3.369-9.273h1.938l2.348 7.136h.097l2.342-7.136zm4.13 9.477a3.8 3.8 0 0 1-1.594-.326 2.7 2.7 0 0 1-1.13-.96q-.41-.627-.41-1.539 0-.785.302-1.292t.815-.803a4.3 4.3 0 0 1 1.147-.447q.634-.15 1.292-.229l1.352-.157q.52-.067.755-.211.235-.146.235-.471v-.042q0-.791-.446-1.226-.441-.434-1.316-.434-.912 0-1.437.404-.52.399-.719.887l-1.696-.386q.302-.845.881-1.364.586-.525 1.347-.761a5.3 5.3 0 0 1 1.6-.241q.555 0 1.177.132.628.127 1.17.471.55.345.9.984.35.634.35 1.648V26.5H68.83v-1.268h-.073a2.6 2.6 0 0 1-.525.688 2.8 2.8 0 0 1-.9.562q-.549.223-1.316.223m.392-1.449q.748 0 1.28-.295.537-.296.815-.773.283-.483.283-1.032V21.96q-.096.097-.374.181a6 6 0 0 1-.622.14l-.682.102-.555.072q-.525.067-.96.224a1.65 1.65 0 0 0-.688.452q-.255.29-.254.773 0 .67.495 1.014.494.338 1.262.338m6.588 1.244v-9.273h1.805V26.5zm.911-10.703q-.47 0-.809-.314a1.02 1.02 0 0 1-.332-.761q0-.447.332-.76.338-.32.81-.32.47 0 .802.32a1 1 0 0 1 .338.76q0 .44-.338.76-.332.315-.803.315m5.127-1.66V26.5H77.23V14.136zm5.127 12.568a3.8 3.8 0 0 1-1.594-.326 2.7 2.7 0 0 1-1.129-.96q-.41-.627-.41-1.539 0-.785.302-1.292.3-.507.815-.803a4.3 4.3 0 0 1 1.147-.447q.633-.15 1.291-.229l1.353-.157q.519-.067.754-.211.236-.146.236-.471v-.042q0-.791-.447-1.226-.44-.434-1.316-.434-.912 0-1.437.404-.519.399-.718.887l-1.697-.386q.303-.845.882-1.364.585-.525 1.346-.761a5.3 5.3 0 0 1 1.6-.241q.556 0 1.177.132.629.127 1.171.471.55.345.9.984.35.634.35 1.648V26.5h-1.763v-1.268h-.072a2.6 2.6 0 0 1-.526.688 2.8 2.8 0 0 1-.899.562q-.55.223-1.316.223m.392-1.449q.75 0 1.28-.295.537-.296.815-.773.284-.483.284-1.032V21.96q-.098.097-.374.181a6 6 0 0 1-.622.14l-.682.102-.556.072q-.525.067-.96.224a1.65 1.65 0 0 0-.688.452q-.253.29-.253.773 0 .67.495 1.014.495.338 1.261.338m6.733 1.244V14.136h1.805v4.595h.109q.156-.29.453-.67.295-.381.82-.665.525-.29 1.389-.29 1.124 0 2.004.568.882.567 1.383 1.636.507 1.069.507 2.572t-.501 2.577q-.501 1.069-1.377 1.649-.875.573-1.998.573-.845 0-1.382-.284a2.6 2.6 0 0 1-.833-.664 5 5 0 0 1-.465-.676h-.151V26.5zm1.769-4.636q0 .978.284 1.714.283.736.82 1.153.538.41 1.317.41.809 0 1.352-.428.543-.435.82-1.177.285-.743.285-1.672a4.6 4.6 0 0 0-.278-1.648q-.272-.73-.821-1.154-.543-.422-1.358-.422-.785 0-1.329.404-.538.405-.814 1.13-.279.723-.278 1.69m10.533-7.728V26.5h-1.805V14.136zm6.425 12.551q-1.371 0-2.361-.585a3.97 3.97 0 0 1-1.521-1.66q-.531-1.075-.531-2.518 0-1.425.531-2.511.537-1.087 1.497-1.697.966-.61 2.258-.61.784 0 1.521.26t1.322.815.924 1.443q.338.882.338 2.143v.64h-7.371v-1.352h5.602q0-.713-.29-1.262a2.2 2.2 0 0 0-.815-.875q-.519-.32-1.219-.32-.76 0-1.328.374a2.5 2.5 0 0 0-.87.966 2.8 2.8 0 0 0-.301 1.286v1.056q0 .93.326 1.582.332.652.923.996.592.338 1.383.338.513 0 .935-.145.423-.15.731-.447.307-.295.471-.73l1.708.308a3.1 3.1 0 0 1-.736 1.322 3.6 3.6 0 0 1-1.322.875q-.792.308-1.805.308m14.386 0q-1.304 0-2.276-.598a4.04 4.04 0 0 1-1.51-1.672q-.537-1.074-.537-2.511 0-1.443.537-2.523.538-1.081 1.51-1.679t2.276-.598 2.275.598a4 4 0 0 1 1.51 1.678q.537 1.08.537 2.524 0 1.437-.537 2.511a4.03 4.03 0 0 1-1.51 1.672q-.971.598-2.275.598m.006-1.515q.845 0 1.4-.447.555-.446.821-1.19.272-.742.272-1.635 0-.888-.272-1.63-.266-.75-.821-1.201-.555-.453-1.4-.453-.852 0-1.413.453-.555.452-.827 1.2a4.8 4.8 0 0 0-.266 1.63q0 .894.266 1.637.272.742.827 1.19.561.446 1.413.446m8.136-4.178V26.5h-1.805v-9.273h1.732v1.51h.115a2.65 2.65 0 0 1 1.002-1.184q.689-.447 1.733-.447.948 0 1.66.399.712.393 1.105 1.171.392.78.392 1.926V26.5h-1.805v-5.68q0-1.01-.525-1.576-.525-.574-1.443-.574-.627 0-1.117.272a1.95 1.95 0 0 0-.766.797q-.279.519-.278 1.255"/><path fill="#f16436" d="M156.158 18.616h-3.018q-.06-.465-.248-.84a2 2 0 0 0-.495-.64 2.1 2.1 0 0 0-.73-.404 2.8 2.8 0 0 0-.924-.145q-.9 0-1.551.441-.647.44-.996 1.274-.344.832-.344 2.016 0 1.232.35 2.065.356.827.996 1.25.646.416 1.527.416.495 0 .9-.127.41-.126.718-.368.314-.247.513-.598.206-.356.284-.803l3.018.019a4.6 4.6 0 0 1-.477 1.617 5.2 5.2 0 0 1-1.08 1.455 5.1 5.1 0 0 1-1.678 1.039q-.984.386-2.258.386-1.678 0-3.007-.736-1.321-.743-2.088-2.162-.767-1.418-.767-3.453 0-2.04.779-3.459.778-1.419 2.107-2.155 1.328-.737 2.976-.737 1.123 0 2.076.314a5 5 0 0 1 1.679.906q.724.592 1.177 1.455.453.862.561 1.974m7.693 3.881v-5.27h2.946V26.5h-2.813v-1.727h-.097a2.7 2.7 0 0 1-1.05 1.353q-.737.495-1.781.495-.948 0-1.666-.435a2.96 2.96 0 0 1-1.117-1.213q-.399-.785-.405-1.836v-5.91h2.952v5.33q.006.755.399 1.19.392.435 1.068.435.441 0 .791-.193.357-.2.562-.574.211-.38.211-.918m4.825 4.003v-9.273h2.867v1.69h.097q.254-.917.827-1.364a2.1 2.1 0 0 1 1.334-.453q.206 0 .423.03.218.025.404.08v2.565a3 3 0 0 0-.555-.115 5 5 0 0 0-.604-.042q-.525 0-.948.235a1.7 1.7 0 0 0-.658.646 1.9 1.9 0 0 0-.235.966V26.5zm15.251-6.441-2.711.072a1 1 0 0 0-.229-.513 1.24 1.24 0 0 0-.489-.356 1.7 1.7 0 0 0-.688-.133q-.514 0-.876.205-.356.205-.35.556a.6.6 0 0 0 .217.47q.23.2.815.32l1.787.338q1.389.265 2.065.882.682.616.688 1.63-.006.954-.567 1.66-.556.706-1.522 1.099-.966.386-2.209.386-1.987 0-3.133-.815-1.142-.821-1.304-2.197l2.916-.073q.096.507.501.773.404.265 1.032.265.567 0 .924-.21.356-.213.362-.562a.6.6 0 0 0-.278-.501q-.272-.194-.851-.302l-1.618-.308q-1.395-.253-2.077-.936-.682-.688-.676-1.75-.006-.93.495-1.588.501-.664 1.425-1.014t2.179-.35q1.884 0 2.97.79 1.087.785 1.202 2.162m6.017 6.616q-1.455 0-2.511-.573a3.96 3.96 0 0 1-1.618-1.649q-.561-1.074-.562-2.553 0-1.437.568-2.511.567-1.08 1.6-1.679 1.032-.604 2.433-.604.99 0 1.811.308a3.9 3.9 0 0 1 1.418.912q.599.604.93 1.491.332.882.332 2.023v.736h-8.059v-1.715h5.312a1.66 1.66 0 0 0-.223-.839 1.5 1.5 0 0 0-.598-.573 1.7 1.7 0 0 0-.863-.211q-.495 0-.888.223a1.68 1.68 0 0 0-.863 1.449v1.744q0 .568.224.997.223.421.633.658.411.235.978.235.392 0 .713-.109.32-.108.549-.32.23-.21.344-.519l2.711.079a3.35 3.35 0 0 1-.743 1.587q-.567.67-1.491 1.045-.924.368-2.137.368m5.909-.175V14.136h8.439v2.427h-5.451V19.1h4.914v2.433h-4.914V26.5zm13.592.175q-1.46 0-2.512-.598a4.1 4.1 0 0 1-1.611-1.678q-.562-1.08-.562-2.505 0-1.432.562-2.505.567-1.08 1.611-1.679 1.051-.604 2.512-.604t2.505.604q1.05.598 1.612 1.678.567 1.075.568 2.506 0 1.425-.568 2.505a4.07 4.07 0 0 1-1.612 1.678q-1.044.598-2.505.598m.018-2.228q.531 0 .899-.326.369-.326.562-.905.2-.58.199-1.34 0-.773-.199-1.353-.193-.58-.562-.905a1.3 1.3 0 0 0-.899-.326q-.549 0-.93.326-.374.326-.573.905-.193.58-.193 1.353 0 .76.193 1.34.2.58.573.905.381.327.93.326m6.179 2.053v-9.273h2.867v1.69h.097q.254-.917.827-1.364a2.1 2.1 0 0 1 1.334-.453q.206 0 .423.03.217.025.404.08v2.565a3 3 0 0 0-.555-.115 5 5 0 0 0-.604-.042q-.525 0-.948.235a1.7 1.7 0 0 0-.658.646 1.9 1.9 0 0 0-.235.966V26.5zm10.996 3.67q-1.322 0-2.264-.368-.942-.367-1.479-1.008a2.8 2.8 0 0 1-.646-1.449l2.795-.157q.079.284.29.495.218.212.561.326.351.115.822.115.742 0 1.225-.362.489-.357.489-1.25v-1.63h-.103a2.2 2.2 0 0 1-.531.767 2.5 2.5 0 0 1-.887.531q-.525.193-1.208.193a3.75 3.75 0 0 1-1.859-.47q-.839-.478-1.346-1.474-.501-1.002-.501-2.577 0-1.624.519-2.675.52-1.056 1.358-1.563a3.47 3.47 0 0 1 1.817-.508q.73 0 1.25.254.525.247.863.64.339.393.513.815h.085v-1.588h2.94v9.31q0 1.176-.592 1.985t-1.654 1.226q-1.062.423-2.457.422m.091-5.946q.537 0 .917-.284.38-.283.586-.815.205-.53.205-1.273 0-.755-.205-1.298-.2-.55-.586-.846a1.45 1.45 0 0 0-.917-.295q-.55 0-.93.302-.38.301-.58.85-.192.544-.193 1.287 0 .743.199 1.273.2.532.574.815.38.285.93.284m10.828 2.451q-1.455 0-2.511-.573a3.97 3.97 0 0 1-1.618-1.649q-.561-1.074-.561-2.553 0-1.437.567-2.511.567-1.08 1.6-1.679 1.032-.604 2.433-.604.99 0 1.811.308.82.309 1.419.912.597.604.929 1.491.333.882.332 2.023v.736h-8.059v-1.715h5.312a1.66 1.66 0 0 0-.223-.839 1.5 1.5 0 0 0-.598-.573 1.7 1.7 0 0 0-.863-.211q-.495 0-.887.223a1.68 1.68 0 0 0-.864 1.449v1.744q0 .568.224.997.223.421.634.658.41.235.978.235.392 0 .712-.109.32-.108.549-.32.23-.21.344-.519l2.711.079a3.36 3.36 0 0 1-.742 1.587q-.568.67-1.492 1.045-.923.368-2.137.368"/></g><defs><filter id="b" width="39.429" height="39.429" x="2.286" y=".286" color-interpolation-filters="sRGB" filterUnits="userSpaceOnUse"><feFlood flood-opacity="0" result="BackgroundImageFix"/><feColorMatrix in="SourceAlpha" result="hardAlpha" values="0 0 0 0 0 0 0 0 0 0 0 0 0 0 0 0 0 0 127 0"/><feOffset/><feGaussianBlur stdDeviation="2.857"/><feComposite in2="hardAlpha" operator="out"/><feColorMatrix values="0 0 0 0 0 0 0 0 0 0 0 0 0 0 0 0 0 0 0.25 0"/><feBlend in2="BackgroundImageFix" result="effect1_dropShadow_28_2668"/><feBlend in="SourceGraphic" in2="effect1_dropShadow_28_2668" result="shape"/></filter><filter id="c" width="212.429" height="32.429" x="36.286" y="3.786" color-interpolation-filters="sRGB" filterUnits="userSpaceOnUse"><feFlood flood-opacity="0" result="BackgroundImageFix"/><feColorMatrix in="SourceAlpha" result="hardAlpha" values="0 0 0 0 0 0 0 0 0 0 0 0 0 0 0 0 0 0 127 0"/><feOffset/><feGaussianBlur stdDeviation="2.857"/><feComposite in2="hardAlpha" operator="out"/><feColorMatrix values="0 0 0 0 0 0 0 0 0 0 0 0 0 0 0 0 0 0 0.25 0"/><feBlend in2="BackgroundImageFix" result="effect1_dropShadow_28_2668"/><feBlend in="SourceGraphic" in2="effect1_dropShadow_28_2668" result="shape"/></filter><linearGradient id="a" x1="125.5" x2="125.5" y1="0" y2="40" gradientUnits="userSpaceOnUse"><stop stop-color="#2e140b"/><stop offset="1" stop-color="#1e0c07"/></linearGradient></defs></svg>