<svg xmlns="http://www.w3.org/2000/svg" width="196" height="40" fill="none" viewBox="0 0 196 40"><g clip-path="url(#a)"><rect width="196.001" height="40.001" fill="url(#b)" rx="8"/><g fill="#fff" filter="url(#c)"><path d="M20.899 6.007c-.066.007-.276.031-.465.048-2.693.283-5.345 1.423-7.507 3.234-.4.33-1.309 1.24-1.64 1.639-1.79 2.138-2.837 4.538-3.223 7.38-.086.63-.086 2.757 0 3.387.386 2.841 1.433 5.241 3.223 7.38.331.4 1.24 1.308 1.64 1.639 2.138 1.79 4.538 2.837 7.38 3.223.63.086 2.758.086 3.388 0 2.84-.386 5.24-1.433 7.38-3.223a18 18 0 0 0 1.638-1.64c1.791-2.138 2.838-4.538 3.224-7.379.086-.63.086-2.758 0-3.388-.386-2.84-1.433-5.24-3.224-7.38a18 18 0 0 0-1.639-1.638c-2.131-1.784-4.556-2.845-7.359-3.22-.303-.041-.744-.058-1.56-.065a31 31 0 0 0-1.257.003m.172 1.488c0 .403.027 1.277.065 2.107.02.406.045.988.055 1.291.038 1.075.152 3.895.169 4.146l.017.252-.155-.018a.6.6 0 0 1-.179-.037 4 4 0 0 1-.048-.53 803 803 0 0 1-.286-6.678l-.02-.764.096-.014c.052-.007.138-.017.193-.02l.093-.004zm3.295-.083c.004.004.014 1.043.024 2.31.014 1.271.031 2.411.042 2.535.01.127.007.238-.01.245-.015.01-.1.01-.187 0l-.158-.014-.024-1.002c-.014-.555-.031-1.168-.038-1.367-.028-.61-.052-2.68-.031-2.731.014-.038.052-.041.196-.017.1.02.183.038.186.041M16.4 8.566c.02.03.183 1.928.382 4.41.066.844.131 1.616.142 1.712.017.176.013.182-.097.251a.6.6 0 0 1-.137.07c-.01 0-.031-.09-.042-.2a387 387 0 0 1-.365-4.174 192 192 0 0 0-.155-1.832c-.017-.151-.014-.165.076-.213.11-.059.172-.07.196-.024m9.48.692c.097.034.107.051.128.248.034.344.024 1.99-.014 1.99-.1 0-.306-.117-.324-.183-.01-.04-.02-.53-.02-1.084 0-1.12-.014-1.054.23-.971m-6.36.162c0 .093.024.606.052 1.146s.058 1.226.072 1.522c.024.6.031.579-.2.593-.113.003-.113.003-.12-.17-.007-.096-.024-.395-.045-.67-.017-.276-.059-.872-.086-1.326a36 36 0 0 0-.072-1.002c-.021-.173-.018-.18.075-.214a.7.7 0 0 1 .214-.038c.11-.003.11-.003.11.159m9.553.471.117.049.024.461c.01.251.017.795.01 1.205l-.01.75-.145-.072-.145-.068-.01-1.144a25 25 0 0 1 .004-1.188c.013-.051.013-.051.155.007m-6.288.451c.02.021.069 1.691.072 2.538l.003.51-.162-.024a2 2 0 0 1-.172-.024c-.01-.007-.113-2.559-.113-2.807v-.255l.175.021a1 1 0 0 1 .197.041m7.93.245c.041.048.048.802.059 4.962.01 4.776.01 4.9-.052 4.9a.23.23 0 0 1-.12-.045c-.052-.038-.059-.454-.076-4.535a477 477 0 0 0-.042-4.99l-.02-.495.1.072c.058.041.124.1.151.13m-3.089.706c.018.014.035.21.038.434.017.76.02 5.427.004 5.44-.007.007-.07-.01-.138-.038l-.124-.051V11.22l.096.02a.4.4 0 0 1 .124.052m-9.504.193c.01.093.027.303.038.475.01.169.034.554.055.854.041.606.034.644-.162.644-.103 0-.117-.01-.13-.114-.035-.203-.156-1.897-.139-1.925.018-.024.197-.086.28-.093.02-.003.048.07.058.159m-5.696.878c.038.365.114 1.13.17 1.697.058.569.106 1.05.106 1.071 0 .042-.265.172-.293.145-.017-.017-.361-3.065-.361-3.202 0-.083.265-.43.3-.393.01.007.044.313.078.682m13.503.361.1.059.003.744c.003.406.01.86.01 1.008.007.31-.03.362-.217.297l-.107-.038v-.296c0-.166-.01-.644-.024-1.068l-.02-.764h.079c.041 0 .12.027.176.058m-11.99 1.336c.061.662.16 1.777.226 2.48l.117 1.274-.134.134-.13.134-.025-.272a209 209 0 0 0-.155-1.563 450 450 0 0 1-.227-2.287l-.097-.991.135-.124c.12-.114.134-.117.158-.055.014.034.072.606.131 1.27m-2.58.417c.076.678.275 2.483.447 4.008a979 979 0 0 1 .469 4.201c.048.403.048.43-.007.472-.083.062-.117.055-.117-.017 0-.031-.031-.293-.069-.575-.062-.472-.165-1.271-.396-3.065-.048-.362-.141-1.081-.207-1.601-.069-.52-.168-1.295-.223-1.722-.056-.427-.149-1.157-.207-1.629-.062-.468-.1-.885-.09-.93.024-.092.228-.416.248-.395.007.01.076.571.152 1.253m-1.054 1.484.214 1.68c.065.51.148 1.147.186 1.412l.065.482-.072.062c-.042.035-.083.049-.097.035s-.041-.152-.062-.303a231 231 0 0 0-.286-1.963l-.244-1.687.08-.234c.04-.128.085-.231.096-.231.013 0 .065.337.12.747m18.905-.451c.049.048.055.262.055 1.842v1.787h-.096c-.21 0-.207.052-.22-1.904l-.01-1.78h.11c.058 0 .134.024.161.055m-7.538.616a6.7 6.7 0 0 1 2.128.679c.434.224.641.378 1.123.84.716.685 1.157 1.284 1.57 2.131.603 1.233.837 2.325 1.133 5.252a102 102 0 0 1 .348 4.666c.01.282.034.747.055 1.032.038.607.083.524-.451.782-.74.358-1.453.606-2.393.837-1.15.282-1.894.372-3.03.375l-.827.004.007-.396c0-.217.02-.723.041-1.12.104-1.917.083-4.338-.051-5.681-.076-.771-.224-1.708-.307-1.915-.017-.044.062-.082.403-.2.623-.216 1.164-.488 1.247-.623.148-.254-.118-.62-.455-.62-.059 0-.234.063-.396.135-.771.355-2.318.771-3.21.864-.616.066-1.573.028-2.238-.093-.361-.065-1.009-.31-1.55-.589-.623-.323-1.005-.754-1.119-1.263-.062-.276-.044-.827.035-1.137.086-.34.327-.836.547-1.126.982-1.29 3.007-2.41 5.083-2.803.661-.124 1.598-.137 2.307-.03m10.624.107c.124.052.138.066.138.183.006.94-.014 3.088-.032 3.178-.003.03-.182.034-.258.007-.048-.017-.055-.203-.055-1.722 0-1.088.014-1.7.035-1.7a1 1 0 0 1 .172.054m1.505 1.89.124.052-.025 2.851c-.027 3.633-.03 3.74-.161 4.053-.214.513-.204.617-.183-1.635.007-1.126.024-2.266.031-2.531s.014-1.013.017-1.663q-.001-1.178.035-1.178a1 1 0 0 1 .162.052m-20.71.858c.02.279.014.306-.086.527l-.11.234-.042-.344c-.065-.551-.065-.575.066-.658.058-.041.12-.069.13-.062s.032.145.042.303m-2.128 2.076c.03.283.272 2.156.396 3.075.186 1.422.2 1.626.117 1.54-.01-.01-.09-.49-.172-1.064-.537-3.713-.534-3.688-.49-3.716.094-.062.125-.027.149.165m2.48 1.578c.02.086.12 1.019.12 1.132 0 .097-.124.186-.18.131-.017-.017-.061-.31-.096-.647l-.086-.789-.02-.172.12.138c.069.076.13.169.141.207m2.778 1.298c.038.034.062.172.093.544.052.671.059.62-.082.62-.145 0-.142.01-.19-.596-.048-.617-.048-.61.045-.61a.3.3 0 0 1 .134.042m2.727.051c.007.035.025.241.038.458.01.217.042.706.07 1.085.096 1.391.1 1.567.04 1.567-.065 0-.072-.052-.148-1.033a73 73 0 0 0-.113-1.422c-.031-.376-.052-.69-.041-.696.037-.041.137-.01.154.041m-6.474.661c.021.031.152 1.133.314 2.638.048.455.096.892.107.975l.017.148-.086-.055c-.066-.045-.09-.09-.09-.17 0-.216-.148-1.645-.261-2.52a26 26 0 0 1-.118-.974c0-.073.083-.1.117-.042m19.873 1.44-.024 1.44-.086.127c-.196.289-.186.344-.175-1.268l.006-1.477.128-.13a.7.7 0 0 1 .151-.128c.01 0 .01.647 0 1.436M29.16 28.37c.017 2 .014 2.155-.041 2.217-.035.038-.066.062-.076.052-.024-.028-.058-4.39-.031-4.414.014-.014.048-.021.08-.018.044.01.054.255.068 2.163M17.913 27c.024.213.11 1.236.145 1.718.02.323.02.334-.055.358-.041.014-.09.01-.103-.007-.024-.024-.1-.789-.193-1.966l-.024-.283h.106c.1 0 .107.007.124.18m-2.706 1.204c.024.025.041.11.041.197 0 .09.041.554.086 1.036.131 1.32.141 1.498.083 1.464-.09-.052-.169-.131-.152-.152a2.4 2.4 0 0 0-.034-.382c-.024-.2-.055-.523-.069-.723s-.045-.565-.072-.81c-.066-.602-.062-.67.013-.67.035 0 .08.016.104.04m1.628 2.318c.01.076.031.358.045.627.024.516.014.554-.127.447-.041-.03-.069-.162-.11-.554-.073-.71-.076-.682.058-.668.1.01.114.024.134.148"/><path d="M15.61 17.777c-.359.155-.386.64-.049.813.245.123.493.065.62-.149a.457.457 0 0 0-.572-.664m2.335.33a.528.528 0 0 0 0 .896c.327.196.75-.062.75-.455 0-.379-.433-.633-.75-.44"/></g><g filter="url(#d)"><path fill="#e8e8e8" d="M44.404 26.5h-1.98l4.45-12.363h2.154l4.45 12.364h-1.98l-3.496-10.118h-.096zm.332-4.84h6.424v1.569h-6.424zm17.153-4.432-3.363 9.273h-1.932l-3.368-9.273h1.938l2.348 7.136h.096l2.343-7.136zm4.129 9.478a3.8 3.8 0 0 1-1.594-.326 2.7 2.7 0 0 1-1.129-.96q-.41-.628-.41-1.54 0-.784.302-1.291.301-.507.814-.803a4.3 4.3 0 0 1 1.148-.447q.633-.15 1.291-.23l1.353-.156q.519-.066.754-.212.236-.144.236-.47v-.043q0-.79-.447-1.225-.44-.435-1.316-.435-.912 0-1.437.405-.519.398-.718.887l-1.696-.386q.301-.845.88-1.365.587-.525 1.347-.76a5.3 5.3 0 0 1 1.6-.242q.556 0 1.177.133.628.128 1.171.47.55.345.9.985.35.634.35 1.648v6.158H68.83v-1.268h-.072a2.6 2.6 0 0 1-.526.688 2.8 2.8 0 0 1-.9.562q-.548.222-1.315.223m.392-1.449q.75 0 1.28-.296.537-.295.815-.772.284-.483.284-1.033v-1.195q-.098.097-.374.181a6 6 0 0 1-.622.139l-.682.103-.556.072q-.525.066-.96.223a1.65 1.65 0 0 0-.688.453q-.254.289-.254.773 0 .67.496 1.014.495.338 1.261.338m6.588 1.244v-9.273h1.805v9.273zm.912-10.704q-.471 0-.81-.314a1.02 1.02 0 0 1-.331-.76q0-.447.332-.761.338-.32.809-.32.47 0 .803.32a1 1 0 0 1 .338.76q0 .441-.338.761-.333.315-.803.314m5.127-1.66v12.364H77.23V14.137zm5.126 12.569a3.8 3.8 0 0 1-1.593-.326 2.7 2.7 0 0 1-1.13-.96q-.41-.628-.41-1.54 0-.784.302-1.291t.815-.803a4.3 4.3 0 0 1 1.147-.447q.634-.15 1.292-.23l1.352-.156q.52-.066.755-.212.235-.144.235-.47v-.043q0-.79-.446-1.225-.441-.435-1.317-.435-.91 0-1.436.405-.52.398-.719.887l-1.696-.386q.302-.845.881-1.365.586-.525 1.347-.76a5.3 5.3 0 0 1 1.6-.242q.555 0 1.177.133.627.128 1.17.47.55.345.9.985.35.634.35 1.648v6.158h-1.762v-1.268h-.073a2.6 2.6 0 0 1-.525.688 2.8 2.8 0 0 1-.9.562q-.55.222-1.316.223m.393-1.449q.748 0 1.28-.296.537-.295.815-.772.283-.483.283-1.033v-1.195q-.096.097-.374.181a6 6 0 0 1-.622.139l-.682.103-.555.072q-.525.066-.96.223a1.65 1.65 0 0 0-.688.453q-.255.289-.254.773 0 .67.495 1.014.494.338 1.262.338m6.733 1.244V14.137h1.805v4.594h.108q.157-.29.453-.67.295-.38.821-.664.525-.29 1.389-.29 1.122 0 2.004.568.88.567 1.382 1.636.507 1.069.507 2.571 0 1.504-.5 2.578-.502 1.07-1.377 1.648-.876.574-1.998.574-.846 0-1.383-.284a2.6 2.6 0 0 1-.833-.664 5 5 0 0 1-.465-.676h-.15V26.5zm1.768-4.637q0 .978.284 1.715.284.736.821 1.153.537.41 1.316.41.81 0 1.352-.428.544-.435.821-1.177.284-.743.284-1.673 0-.916-.278-1.648-.27-.73-.82-1.153-.544-.422-1.359-.422-.785 0-1.328.404-.537.405-.815 1.129t-.278 1.69m10.533-7.727v12.364h-1.805V14.137zm6.425 12.55q-1.37 0-2.36-.585a3.97 3.97 0 0 1-1.522-1.66q-.531-1.074-.531-2.517 0-1.425.531-2.512a4.13 4.13 0 0 1 1.497-1.696q.966-.61 2.258-.61a4.6 4.6 0 0 1 1.522.26 3.7 3.7 0 0 1 1.322.815q.585.555.923 1.443.339.881.338 2.143v.64h-7.371v-1.353h5.603q0-.712-.29-1.261a2.2 2.2 0 0 0-.815-.876q-.52-.32-1.22-.32-.76 0-1.328.375a2.5 2.5 0 0 0-.869.966 2.8 2.8 0 0 0-.302 1.285v1.057q0 .93.326 1.582.332.651.924.996.591.338 1.382.338.513 0 .936-.145.423-.15.73-.447.309-.295.471-.73l1.709.308a3.1 3.1 0 0 1-.737 1.322 3.6 3.6 0 0 1-1.322.875q-.79.308-1.805.308m14.386 0q-1.304 0-2.276-.597a4.03 4.03 0 0 1-1.509-1.672q-.537-1.074-.537-2.511 0-1.443.537-2.524a4 4 0 0 1 1.509-1.678q.972-.597 2.276-.598 1.304 0 2.276.598a4 4 0 0 1 1.509 1.678q.537 1.08.537 2.524 0 1.436-.537 2.511a4.03 4.03 0 0 1-1.509 1.672q-.972.598-2.276.598m.006-1.514q.845 0 1.401-.447.555-.447.821-1.19.271-.742.271-1.635 0-.888-.271-1.63-.266-.75-.821-1.202-.556-.453-1.401-.453-.85 0-1.413.453-.555.453-.827 1.202a4.8 4.8 0 0 0-.265 1.63q0 .892.265 1.636.272.742.827 1.189.563.447 1.413.447m8.136-4.178v5.506h-1.805V17.23h1.733v1.51h.115a2.65 2.65 0 0 1 1.002-1.184q.688-.447 1.732-.447.949 0 1.66.399.713.392 1.105 1.17.393.78.393 1.927V26.5h-1.805v-5.68q0-1.008-.526-1.576-.525-.573-1.442-.573-.628 0-1.117.271a1.95 1.95 0 0 0-.767.797q-.278.52-.278 1.256"/><path fill="#fff" d="M149.507 26.5h-4.57V14.138h4.564q1.89 0 3.254.743a5.07 5.07 0 0 1 2.113 2.125q.742 1.382.742 3.308 0 1.932-.742 3.32a5.07 5.07 0 0 1-2.107 2.131q-1.37.737-3.254.737m-1.582-2.547h1.467q1.039 0 1.757-.35.724-.357 1.093-1.153.374-.803.374-2.137t-.374-2.125q-.375-.797-1.105-1.147-.724-.357-1.787-.356h-1.425zm13.765 2.723q-1.455 0-2.512-.574a3.97 3.97 0 0 1-1.618-1.648q-.561-1.074-.561-2.553 0-1.437.567-2.512.568-1.08 1.6-1.678 1.032-.603 2.433-.604.99 0 1.811.308t1.419.912q.597.604.93 1.49.332.882.332 2.023v.737h-8.06v-1.715h5.313a1.66 1.66 0 0 0-.224-.839 1.5 1.5 0 0 0-.597-.573 1.73 1.73 0 0 0-.864-.212q-.495 0-.887.224a1.68 1.68 0 0 0-.863 1.449v1.744q0 .567.223.996.223.423.634.658t.978.236q.393 0 .712-.109a1.5 1.5 0 0 0 .55-.32q.229-.21.344-.52l2.71.08a3.35 3.35 0 0 1-.742 1.587q-.567.67-1.491 1.044-.924.369-2.137.369m8.86-5.464v5.289h-2.952V17.23h2.807v1.702h.103a2.6 2.6 0 0 1 1.051-1.334q.742-.489 1.768-.489.978 0 1.697.44.724.435 1.123 1.22.404.78.398 1.823v5.91h-2.952v-5.33q.006-.773-.392-1.207-.393-.435-1.093-.435-.465 0-.821.205a1.35 1.35 0 0 0-.543.574q-.188.375-.194.905m12.151 5.464q-1.461 0-2.511-.598a4.1 4.1 0 0 1-1.612-1.678q-.561-1.08-.561-2.505 0-1.431.561-2.506.567-1.08 1.612-1.678 1.05-.603 2.511-.604 1.46 0 2.506.604 1.05.598 1.611 1.678.568 1.075.568 2.506 0 1.424-.568 2.505a4.07 4.07 0 0 1-1.611 1.678q-1.045.598-2.506.598m.018-2.228q.531 0 .9-.326.367-.326.561-.905.2-.58.199-1.34 0-.773-.199-1.353-.194-.58-.561-.905a1.3 1.3 0 0 0-.9-.326q-.55 0-.929.326-.375.326-.574.905-.193.58-.193 1.352 0 .762.193 1.34.2.58.574.906.38.326.929.326"/></g></g><rect width="193.858" height="37.858" x="1.071" y="1.071" stroke="#fff" stroke-opacity=".15" stroke-width="2.143" rx="6.929"/><defs><filter id="c" width="39.202" height="39.202" x="2.399" y=".4" color-interpolation-filters="sRGB" filterUnits="userSpaceOnUse"><feFlood flood-opacity="0" result="BackgroundImageFix"/><feColorMatrix in="SourceAlpha" result="hardAlpha" values="0 0 0 0 0 0 0 0 0 0 0 0 0 0 0 0 0 0 127 0"/><feOffset/><feGaussianBlur stdDeviation="2.8"/><feComposite in2="hardAlpha" operator="out"/><feColorMatrix values="0 0 0 0 0 0 0 0 0 0 0 0 0 0 0 0 0 0 0.25 0"/><feBlend in2="BackgroundImageFix" result="effect1_dropShadow_9_21"/><feBlend in="SourceGraphic" in2="effect1_dropShadow_9_21" result="shape"/></filter><filter id="d" width="157.429" height="32.429" x="36.287" y="3.786" color-interpolation-filters="sRGB" filterUnits="userSpaceOnUse"><feFlood flood-opacity="0" result="BackgroundImageFix"/><feColorMatrix in="SourceAlpha" result="hardAlpha" values="0 0 0 0 0 0 0 0 0 0 0 0 0 0 0 0 0 0 127 0"/><feOffset/><feGaussianBlur stdDeviation="2.857"/><feComposite in2="hardAlpha" operator="out"/><feColorMatrix values="0 0 0 0 0 0 0 0 0 0 0 0 0 0 0 0 0 0 0.25 0"/><feBlend in2="BackgroundImageFix" result="effect1_dropShadow_9_21"/><feBlend in="SourceGraphic" in2="effect1_dropShadow_9_21" result="shape"/></filter><linearGradient id="b" x1="98.001" x2="98.001" y1="0" y2="40.001" gradientUnits="userSpaceOnUse"><stop stop-color="#282828"/><stop offset="1" stop-color="#1a1a1a"/></linearGradient><clipPath id="a"><rect width="196.001" height="40.001" fill="#fff" rx="8"/></clipPath></defs></svg>