<svg xmlns="http://www.w3.org/2000/svg" width="251" height="40" fill="none" viewBox="0 0 251 40"><rect width="251.001" height="40.001" fill="url(#a)" rx="8"/><rect width="248.858" height="37.858" x="1.071" y="1.071" stroke="#fff" stroke-opacity=".15" stroke-width="2.143" rx="6.929"/><g fill="#fff" filter="url(#b)"><path d="m32.603 26.293-.005.055-.006.06-.011.054-.017.055-.01.049-.017.054-.022.049-.022.043-.022.05-.027.043-.028.044-.033.043-.028.044-.032.038-.04.038-.032.032-.044.039-.038.032-.045.033-.044.027-.044.032-.05.028-.049.021-.049.028-.055.021-.055.022-.055.016-.055.017-.05.016-.055.011-.05.011-.049.01-.055.012-.055.005-.05.006-.054.005-.06.006-.056.005h-.231l-.055-.005h-.06l-.055-.006-.056-.005-.06-.006-.055-.01-.055-.006-.055-.011-.055-.01-.055-.012-.055-.01-.055-.017-.05-.01-.055-.017-.054-.017-.05-.021-.055-.017-.05-.016-.055-.022-.05-.021-.049-.022-.05-.027-.049-.022-.05-.027-.043-.027-.05-.028-.044-.027-.044-.027-.044-.033-.044-.032-.044-.033-.044-.033-.038-.032-.044-.038.033-.044.038-.038.033-.044.039-.043.033-.038.033-.044.038-.043.033-.038.039-.044.033-.038.038-.044.033-.043.033-.038.039-.044.033-.043.038-.038.033-.044.044.033.05.032.044.033.05.033.043.027.05.032.044.028.05.021.043.028.05.021.05.022.049.022.05.016.05.022.054.016.055.017.05.016.055.011.055.01.055.012.06.005.055.011h.055l.06.006h.122l.06-.006.055-.01.05-.012.05-.01.043-.017.039-.022.044-.032.033-.038.022-.044.017-.049.005-.055v-.01l-.006-.066-.022-.054-.027-.038-.039-.033-.044-.032-.044-.022-.05-.022-.054-.022-.066-.027-.039-.01-.044-.012-.05-.016-.049-.011-.055-.016-.055-.011-.06-.017-.055-.01-.06-.017-.056-.01-.055-.017-.055-.01-.055-.017-.05-.017-.055-.01-.049-.017-.05-.016-.05-.016-.06-.022-.055-.022-.054-.022-.056-.022-.05-.027-.054-.027-.044-.027-.05-.027-.044-.033-.044-.027-.038-.033-.039-.038-.038-.038-.033-.038-.033-.038-.028-.038-.027-.044-.028-.049-.022-.038-.017-.043-.016-.05-.016-.043-.011-.054-.011-.05-.006-.054-.005-.054-.006-.06v-.125l.006-.055.005-.049.006-.054.01-.049.012-.049.016-.05.011-.048.022-.049.022-.049.022-.049.028-.049.027-.049.033-.043.033-.044.039-.044.038-.038.039-.043.044-.038.038-.028.044-.032.044-.033.044-.027.05-.027.05-.022.049-.027.05-.022.054-.016.055-.022.05-.017.044-.01.05-.011.05-.011.054-.011.05-.011.054-.005.056-.006.055-.005.055-.006h.236l.06.006.061.005h.055l.06.006.056.01.06.006.055.01.05.012.055.01.055.011.05.011.054.017.05.016.05.01.055.023.049.016.05.022.049.021.055.022.05.027.043.022.05.027.05.028.043.027.05.033.044.027.044.032.044.033.044.033-.033.043-.028.044-.032.044-.033.043-.033.049-.028.043-.033.044-.033.044-.028.043-.033.044-.033.043-.027.044-.033.049-.033.043-.033.044-.028.043-.033.044-.044-.033-.05-.027-.043-.027-.044-.033-.05-.021-.044-.028-.05-.022-.043-.021-.05-.022-.044-.022-.05-.016-.043-.022-.06-.016-.056-.017-.055-.016-.055-.01-.055-.012-.055-.01-.055-.006-.055-.006-.05-.005h-.12l-.06.01-.056.012-.05.01-.043.023-.04.021-.049.044-.033.049-.021.049-.006.054v.011l.006.07.027.06.022.033.038.039.05.027.044.027.055.022.06.022.067.021.044.011.044.017.05.01.049.017.055.01.06.017.06.016.061.017.06.01.056.017.06.016.055.011.055.016.055.017.05.016.055.016.05.017.049.016.06.021.055.028.055.021.055.028.05.027.05.027.043.027.044.033.044.027.044.038.045.038.038.044.039.038.032.044.034.049.027.043.028.05.022.043.016.049.017.049.01.049.011.054.012.054.005.055.006.06v.13zm-3.858 1.089h-3.152V23.42h3.179v.898h-2.129v.647h1.915v.844h-1.915v.675H28.8v.898zm-4.02 0h-1.007v-2.343l-.027.043-.033.05-.028.043-.032.044-.028.049-.033.043-.028.044-.027.05-.033.043-.028.043-.033.044-.027.05-.033.043-.028.043-.027.05-.033.043-.028.044-.033.049-.027.043-.033.044-.028.049-.027.044-.033.043-.028.05-.033.043-.027.044-.033.043-.028.049-.027.044-.033.043-.028.05-.033.043-.027.043-.033.05-.028.043h-.022l-.033-.049-.027-.044-.033-.049-.028-.043-.033-.049-.027-.044-.033-.049-.028-.043-.033-.05-.027-.043-.034-.05-.027-.043-.033-.049-.028-.043-.032-.05-.028-.043-.033-.05-.033-.043-.028-.049-.032-.044-.028-.049-.033-.043-.028-.05-.033-.043-.027-.049-.033-.043-.028-.05-.033-.043-.027-.05-.033-.043-.028-.049-.033-.043-.027-.05-.033-.043v2.332H20.57V23.42h1.13l.027.043.027.05.033.042.028.05.027.043.028.049.027.043.033.05.028.043.027.043.028.049.027.043.033.05.028.043.027.049.028.043.033.044.028.048.027.044.028.049.027.043.033.05.028.043.027.049.028.043.027.043.033.05.028.043.027.049.028.043.027.05.033.043.028.048.027.044.028-.044.027-.048.033-.044.028-.049.027-.043.028-.049.032-.044.028-.049.028-.043.027-.043.033-.05.027-.043.028-.049.028-.043.033-.05.027-.043.028-.048.027-.044.028-.043.033-.049.027-.044.028-.049.027-.043.033-.049.028-.043.027-.044.028-.049.033-.043.027-.05.028-.043.027-.049.034-.043.027-.049.027-.043h1.128v3.962zm-6.383-1.633-.017-.05-.021-.054-.023-.049-.016-.049-.022-.049-.022-.055-.017-.049-.022-.049-.021-.049-.017-.049-.022-.055-.016-.049-.023-.049-.022-.049-.016-.049-.022-.054-.022-.05-.017-.049-.022-.049-.022-.054-.016-.05-.022-.049-.022.05-.017.049-.022.054-.022.05-.016.048-.022.05-.022.054-.022.05-.017.048-.022.05-.022.049-.016.054-.022.05-.022.048-.017.05-.022.049-.022.054-.022.049-.016.05-.022.048-.022.055-.017.049-.022.049h.93zm1.728 1.633h-1.08l-.022-.05-.016-.048-.022-.05-.023-.054-.016-.048-.022-.05-.022-.048-.016-.05-.022-.048-.022-.05-.017-.048-.022-.055-.022-.049-.017-.049-.022-.049H17.11l-.022.05-.017.048-.022.05-.022.054-.016.049-.022.049-.023.049-.016.049-.022.049-.022.049-.016.048-.022.055-.022.049-.017.049-.022.049h-1.111l.022-.05.022-.048.022-.05.022-.054.016-.048.022-.05.022-.048.022-.05.022-.048.022-.055.022-.049.022-.049.017-.049.022-.049.022-.049.022-.054.022-.05.022-.048.022-.05.022-.048.017-.05.021-.054.022-.049.023-.049.021-.049.022-.049.022-.048.022-.055.017-.049.022-.049.022-.049.022-.049.022-.049.022-.054.022-.05.022-.048.017-.05.022-.048.021-.05.023-.054.022-.049.021-.049.022-.049.023-.049.016-.049.022-.048.022-.055.022-.049.022-.049.022-.049.022-.049.022-.049.017-.054.022-.05.022-.048.022-.05.022-.048.022-.05.021-.054.023-.049.016-.049.022-.048.022-.05.022-.049.022-.054.022-.049.022-.049.022-.049.017-.049.022-.049.022-.054.022-.05.022-.048.022-.05.022-.048.021-.05.017-.054.022-.049.022-.049.022-.049h1.018l.022.05.022.048.022.05.022.054.017.049.021.049.022.049.023.049.022.049.021.054.023.05.022.048.016.05.022.048.022.05.022.053.022.05.022.049.022.049.022.049.017.048.022.055.021.049.023.049.022.049.022.049.021.049.023.054.016.05.022.048.022.05.022.048.022.05.022.054.022.048.022.05.017.048.022.05.022.048.022.05.022.054.022.049.022.049.022.049.016.049.022.049.022.054.022.05.022.048.022.05.022.048.022.049.017.055.022.049.022.049.022.049.022.049.022.048.022.055.022.049.016.049.022.049.023.049.021.049.022.054.022.05.022.048.022.05.017.048.022.05.022.054.022.049.022.049.022.049.022.049.022.048.017.055.021.049.022.049.023.049zm-4.82-.506-.044.032-.039.028-.044.032-.044.027-.044.033-.044.027-.044.028-.05.027-.049.027-.05.027-.05.022-.048.027-.055.022-.05.021-.055.022-.05.022-.049.016-.05.017-.05.016-.054.016-.05.017-.055.01-.05.012-.054.01-.055.011-.055.006-.06.005-.056.006-.06.005-.055.006-.06.005h-.237l-.055-.005-.06-.006-.056-.005-.055-.006-.055-.005-.055-.011-.055-.011-.05-.011-.055-.01-.049-.017-.055-.011-.05-.017-.049-.021-.05-.017-.054-.021-.05-.022-.05-.022-.049-.022-.05-.027-.043-.027-.05-.027-.044-.027-.044-.027-.044-.033-.044-.033-.044-.032-.039-.033-.038-.033-.039-.038-.038-.032-.039-.039-.038-.038-.033-.038-.033-.043-.033-.038-.028-.044-.033-.044-.027-.043-.028-.044-.027-.049-.028-.043-.022-.05-.022-.048-.022-.05-.022-.048-.016-.044-.022-.049-.011-.049L11.47 26l-.01-.054-.017-.049-.011-.054-.006-.05-.011-.054-.005-.049-.006-.054-.005-.055-.006-.054v-.18l.006-.06v-.054l.005-.055.006-.06.01-.053.006-.055.011-.049.017-.054.01-.055.017-.049.017-.054.016-.05.022-.054.022-.049.022-.049.022-.049.022-.049.028-.049.027-.043.028-.044.027-.043.028-.044.033-.043.033-.044.033-.043.033-.039.038-.038.033-.038.039-.038.038-.038.039-.033.044-.038.038-.032.044-.033.044-.027.044-.033.045-.027.043-.027.05-.028.05-.027.049-.027.05-.022.05-.021.054-.028.044-.016.055-.016.05-.022.05-.011.048-.016.056-.011.05-.017.054-.01.055-.006.055-.01.055-.006.055-.006.055-.005.055-.006h.236l.061.006.06.005h.056l.055.006.06.01.05.006.055.01.055.012.05.01.049.012.05.01.05.017.048.01.044.017.05.016.05.022.049.022.05.022.05.027.049.022.044.027.05.027.043.027.05.027.044.033.044.027.044.033.044.033.044.038.044.033-.034.043-.038.038-.033.044-.038.043-.033.044-.033.038-.039.043-.033.044-.033.038-.038.044-.034.043-.038.044-.033.038-.033.043-.038.044-.033.043-.039.039-.033.043-.044-.033-.044-.038-.044-.027-.044-.033-.044-.027-.044-.027-.044-.027-.05-.027-.044-.022-.043-.022-.045-.016-.05-.017-.049-.016-.05-.01-.054-.012-.055-.01-.055-.006-.06-.005-.061-.006h-.116l-.055.006-.05.005-.054.01-.05.012-.05.016-.049.016-.05.022-.049.022-.044.027-.044.027-.044.028-.038.032-.04.033-.037.033-.034.038-.038.038-.033.043-.027.038-.028.044-.027.049-.028.043-.022.05-.017.048-.021.05-.017.054-.011.054-.011.049-.011.06-.006.054-.005.055v.125l.005.054.006.05.005.054.011.049.011.049.011.049.017.049.016.043.022.055.023.049.027.049.027.043.028.044.033.043.033.038.039.039.033.038.038.032.044.033.044.033.044.027.044.027.05.022.049.022.05.021.055.017.055.016.055.011.055.01.055.006.06.006h.127l.06-.006.06-.005.056-.006.055-.01.055-.011.055-.017.05-.01.049-.022.044-.022.05-.022.038-.022.044-.027v-.495h-.803v-.795h1.815v1.769zm-1.769-12.421h2.385v-1.817H13.48V8.93h2.48V7.112h-4.505v13.112h4.542v-1.817H13.48zm17.079.394v2.959c0 .524-.247.768-.758.768h-.378c-.53 0-.776-.244-.776-.768v-8.28c0-.524.246-.767.776-.767h.34c.511 0 .757.243.757.768v2.566h1.987V9.416c0-1.63-.795-2.416-2.44-2.416h-.985c-1.646 0-2.46.805-2.46 2.435v8.466c0 1.63.814 2.436 2.46 2.436h1.003c1.647 0 2.46-.806 2.46-2.436V14.85zm-7.032 5.375h2.025V7.112h-2.025zm-2.938-7.286c0 .524-.247.768-.758.768H19V8.873h.832c.511 0 .757.244.757.768zm-.436-5.826h-3.18v13.112H19v-4.758h1.154c1.646 0 2.46-.805 2.46-2.434V9.547c0-1.63-.814-2.435-2.46-2.435"/><path fill-rule="evenodd" d="M16.232 32.08h11.592L21.907 34z" clip-rule="evenodd"/></g><g filter="url(#c)"><path fill="#e8e8e8" d="M44.404 26.5h-1.98l4.45-12.363h2.154l4.45 12.364h-1.98l-3.496-10.118h-.096zm.332-4.84h6.424v1.569h-6.424zm17.153-4.432-3.363 9.273h-1.932l-3.368-9.273h1.938l2.348 7.136h.096l2.343-7.136zm4.129 9.478a3.8 3.8 0 0 1-1.594-.326 2.7 2.7 0 0 1-1.129-.96q-.41-.628-.41-1.54 0-.784.302-1.291.301-.507.814-.803a4.3 4.3 0 0 1 1.148-.447q.633-.15 1.291-.23l1.353-.156q.519-.066.754-.212.236-.144.236-.47v-.043q0-.79-.447-1.225-.44-.435-1.316-.435-.912 0-1.437.405-.519.398-.718.887l-1.696-.386q.301-.845.88-1.365.587-.525 1.347-.76a5.3 5.3 0 0 1 1.6-.242q.556 0 1.177.133.628.128 1.171.47.55.345.9.985.35.634.35 1.648v6.158H68.83v-1.268h-.072a2.6 2.6 0 0 1-.526.688 2.8 2.8 0 0 1-.9.562q-.548.222-1.315.223m.392-1.449q.75 0 1.28-.296.537-.295.815-.772.284-.483.284-1.033v-1.195q-.098.097-.374.181a6 6 0 0 1-.622.139l-.682.103-.556.072q-.525.066-.96.223a1.65 1.65 0 0 0-.688.453q-.254.289-.254.773 0 .67.496 1.014.495.338 1.261.338m6.588 1.244v-9.273h1.805v9.273zm.912-10.704q-.471 0-.81-.314a1.02 1.02 0 0 1-.331-.76q0-.447.332-.761.338-.32.809-.32.47 0 .803.32a1 1 0 0 1 .338.76q0 .441-.338.761-.333.315-.803.314m5.127-1.66v12.364H77.23V14.137zm5.126 12.569a3.8 3.8 0 0 1-1.593-.326 2.7 2.7 0 0 1-1.13-.96q-.41-.628-.41-1.54 0-.784.302-1.291t.815-.803a4.3 4.3 0 0 1 1.147-.447q.634-.15 1.292-.23l1.352-.156q.52-.066.755-.212.235-.144.235-.47v-.043q0-.79-.446-1.225-.441-.435-1.317-.435-.91 0-1.436.405-.52.398-.719.887l-1.696-.386q.302-.845.881-1.365.586-.525 1.347-.76a5.3 5.3 0 0 1 1.6-.242q.555 0 1.177.133.627.128 1.17.47.55.345.9.985.35.634.35 1.648v6.158h-1.762v-1.268h-.073a2.6 2.6 0 0 1-.525.688 2.8 2.8 0 0 1-.9.562q-.55.222-1.316.223m.393-1.449q.748 0 1.28-.296.537-.295.815-.772.283-.483.283-1.033v-1.195q-.096.097-.374.181a6 6 0 0 1-.622.139l-.682.103-.555.072q-.525.066-.96.223a1.65 1.65 0 0 0-.688.453q-.255.289-.254.773 0 .67.495 1.014.494.338 1.262.338m6.733 1.244V14.137h1.805v4.594h.108q.157-.29.453-.67.295-.38.821-.664.525-.29 1.389-.29 1.122 0 2.004.568.88.567 1.382 1.636.507 1.069.507 2.571 0 1.504-.5 2.578-.502 1.07-1.377 1.648-.876.574-1.998.574-.846 0-1.383-.284a2.6 2.6 0 0 1-.833-.664 5 5 0 0 1-.465-.676h-.15V26.5zm1.768-4.637q0 .978.284 1.715.284.736.821 1.153.537.41 1.316.41.81 0 1.352-.428.544-.435.821-1.177.284-.743.284-1.673 0-.916-.278-1.648-.27-.73-.82-1.153-.544-.422-1.359-.422-.785 0-1.328.404-.537.405-.815 1.129t-.278 1.69m10.533-7.727v12.364h-1.805V14.137zm6.425 12.55q-1.37 0-2.36-.585a3.97 3.97 0 0 1-1.522-1.66q-.531-1.074-.531-2.517 0-1.425.531-2.512a4.13 4.13 0 0 1 1.497-1.696q.966-.61 2.258-.61a4.6 4.6 0 0 1 1.522.26 3.7 3.7 0 0 1 1.322.815q.585.555.923 1.443.339.881.338 2.143v.64h-7.371v-1.353h5.603q0-.712-.29-1.261a2.2 2.2 0 0 0-.815-.876q-.52-.32-1.22-.32-.76 0-1.328.375a2.5 2.5 0 0 0-.869.966 2.8 2.8 0 0 0-.302 1.285v1.057q0 .93.326 1.582.332.651.924.996.591.338 1.382.338.513 0 .936-.145.423-.15.73-.447.309-.295.471-.73l1.709.308a3.1 3.1 0 0 1-.737 1.322 3.6 3.6 0 0 1-1.322.875q-.79.308-1.805.308m14.386 0q-1.304 0-2.276-.597a4.03 4.03 0 0 1-1.509-1.672q-.537-1.074-.537-2.511 0-1.443.537-2.524a4 4 0 0 1 1.509-1.678q.972-.597 2.276-.598 1.304 0 2.276.598a4 4 0 0 1 1.509 1.678q.537 1.08.537 2.524 0 1.436-.537 2.511a4.03 4.03 0 0 1-1.509 1.672q-.972.598-2.276.598m.006-1.514q.845 0 1.401-.447.555-.447.821-1.19.271-.742.271-1.635 0-.888-.271-1.63-.266-.75-.821-1.202-.556-.453-1.401-.453-.85 0-1.413.453-.555.453-.827 1.202a4.8 4.8 0 0 0-.265 1.63q0 .892.265 1.636.272.742.827 1.189.563.447 1.413.447m8.136-4.178v5.506h-1.805V17.23h1.733v1.51h.115a2.65 2.65 0 0 1 1.002-1.184q.688-.447 1.732-.447.949 0 1.66.399.713.392 1.105 1.17.393.78.393 1.927V26.5h-1.805v-5.68q0-1.008-.526-1.576-.525-.573-1.442-.573-.628 0-1.117.271a1.95 1.95 0 0 0-.767.797q-.278.52-.278 1.256"/><path fill="#fff" d="M144.937 26.5V14.138h8.621v2.427h-5.633V19.1h5.192v2.433h-5.192v2.542h5.633V26.5zm10.492 3.478v-12.75h2.922v1.588h.091q.181-.423.513-.815.338-.393.857-.64.525-.255 1.256-.254.966 0 1.805.507.845.508 1.364 1.564t.519 2.692q0 1.575-.501 2.639-.495 1.063-1.34 1.593a3.4 3.4 0 0 1-1.865.532q-.7 0-1.214-.23a2.6 2.6 0 0 1-.863-.604 2.9 2.9 0 0 1-.531-.803h-.061v4.981zm2.892-8.114q0 .75.199 1.304.205.555.586.864.385.3.924.301.543 0 .923-.301.38-.308.574-.864.199-.555.199-1.304 0-.748-.199-1.298-.193-.55-.574-.85-.374-.303-.923-.303-.544 0-.924.296-.38.297-.586.845-.2.55-.199 1.31m7.982 4.637v-9.273h2.952v9.273zm1.479-10.354q-.621 0-1.068-.41a1.32 1.32 0 0 1-.447-1.002q0-.58.447-.99a1.5 1.5 0 0 1 1.068-.417 1.5 1.5 0 0 1 1.069.417q.447.41.447.99 0 .585-.447 1.002-.44.41-1.069.41m7.681 10.529q-1.467 0-2.517-.604a4.1 4.1 0 0 1-1.606-1.678q-.562-1.08-.562-2.5 0-1.424.562-2.499a4.1 4.1 0 0 1 1.612-1.684q1.05-.603 2.505-.604 1.286 0 2.24.465a3.56 3.56 0 0 1 1.497 1.316q.543.846.573 1.986h-2.759q-.084-.712-.483-1.117-.392-.404-1.026-.404-.513 0-.899.29-.387.283-.604.845-.211.555-.211 1.376t.211 1.389q.217.561.604.851.386.285.899.284.41 0 .725-.175.32-.175.525-.513.205-.345.259-.834h2.759q-.042 1.147-.573 2.005a3.55 3.55 0 0 1-1.479 1.334q-.948.47-2.252.47m17.581-8.5a2.2 2.2 0 0 0-.302-.67 1.9 1.9 0 0 0-.489-.501 2.1 2.1 0 0 0-.664-.308 3 3 0 0 0-.821-.109q-.9 0-1.557.435-.652.434-1.009 1.268-.356.825-.356 2.01 0 1.19.344 2.028.345.84.996 1.28.652.44 1.582.44.82 0 1.389-.265.573-.272.869-.767t.296-1.165l.555.067h-3.006v-2.18h5.33v1.636q0 1.66-.706 2.844a4.7 4.7 0 0 1-1.932 1.817q-1.226.634-2.819.634-1.769 0-3.109-.767t-2.089-2.185q-.748-1.425-.748-3.381 0-1.521.452-2.698a5.7 5.7 0 0 1 1.262-2.005 5.45 5.45 0 0 1 1.884-1.243 6.3 6.3 0 0 1 2.312-.423q1.074 0 1.998.308.93.308 1.642.87a4.6 4.6 0 0 1 1.165 1.333 4.4 4.4 0 0 1 .555 1.697zm7.533 8.482q-.888 0-1.576-.296a2.46 2.46 0 0 1-1.081-.906q-.392-.609-.392-1.527 0-.773.272-1.304.271-.531.748-.863a3.5 3.5 0 0 1 1.099-.501 7 7 0 0 1 1.328-.236q.79-.072 1.274-.15.483-.086.7-.236a.51.51 0 0 0 .223-.44v-.031q0-.465-.32-.718-.32-.255-.863-.254-.585 0-.942.254a1.12 1.12 0 0 0-.452.7l-2.723-.097a3.2 3.2 0 0 1 .622-1.509q.507-.67 1.388-1.05.888-.387 2.131-.387.888 0 1.636.212.749.205 1.304.603.556.393.858.966.307.574.307 1.31V26.5h-2.777v-1.292h-.072q-.247.471-.634.797-.38.325-.899.489a3.8 3.8 0 0 1-1.159.163m.911-1.932q.477 0 .857-.193.387-.194.616-.532.23-.344.23-.797v-.88a2 2 0 0 1-.308.12q-.175.054-.387.103-.211.048-.434.084l-.429.066a2.7 2.7 0 0 0-.712.206 1.1 1.1 0 0 0-.447.362.9.9 0 0 0-.151.52q0 .457.326.7.332.24.839.24m6.435 1.775v-9.273h2.808v1.702h.102a2.64 2.64 0 0 1 .978-1.334q.688-.489 1.642-.489.967 0 1.654.495.689.495.876 1.328h.096a2.4 2.4 0 0 1 1.015-1.322q.754-.5 1.78-.5 1.316 0 2.138.844.82.84.821 2.307V26.5h-2.952v-5.566q0-.694-.357-1.057-.356-.368-.923-.368-.61 0-.96.398-.345.393-.344 1.057V26.5h-2.838v-5.597q0-.645-.35-1.02-.35-.374-.923-.374-.387 0-.683.187-.296.18-.464.52a1.8 1.8 0 0 0-.163.796V26.5zm20.073.175q-1.455 0-2.511-.574a3.97 3.97 0 0 1-1.618-1.648q-.561-1.074-.561-2.553 0-1.437.567-2.512.567-1.08 1.6-1.678 1.032-.603 2.433-.604.99 0 1.811.308a3.9 3.9 0 0 1 1.418.912q.599.604.93 1.49.333.882.332 2.023v.737h-8.059V20.86h5.312a1.66 1.66 0 0 0-.223-.839 1.5 1.5 0 0 0-.598-.573 1.7 1.7 0 0 0-.863-.212q-.495 0-.887.224a1.68 1.68 0 0 0-.864 1.449v1.744q0 .567.224.996.223.423.634.658.41.236.978.236.392 0 .712-.109.32-.108.549-.32.23-.21.344-.52l2.711.08a3.35 3.35 0 0 1-.743 1.587q-.567.67-1.491 1.044-.923.369-2.137.369M242 20.059l-2.71.073a1 1 0 0 0-.23-.513 1.2 1.2 0 0 0-.489-.357 1.7 1.7 0 0 0-.688-.132q-.513 0-.875.205-.357.205-.35.555a.6.6 0 0 0 .217.471q.23.2.815.32l1.787.338q1.389.265 2.065.882.681.615.688 1.63-.006.953-.568 1.66-.555.706-1.521 1.098-.966.387-2.209.387-1.987 0-3.134-.815-1.14-.822-1.304-2.198l2.916-.072q.097.506.501.773.405.265 1.033.265.567 0 .923-.211.356-.21.363-.561a.6.6 0 0 0-.278-.502q-.272-.192-.851-.301l-1.618-.308q-1.395-.254-2.077-.936-.682-.688-.676-1.75-.006-.93.495-1.588.501-.664 1.425-1.015.923-.35 2.179-.35 1.884 0 2.97.791 1.087.785 1.201 2.161"/></g><defs><filter id="b" width="39.202" height="39.202" x="2.4" y=".4" color-interpolation-filters="sRGB" filterUnits="userSpaceOnUse"><feFlood flood-opacity="0" result="BackgroundImageFix"/><feColorMatrix in="SourceAlpha" result="hardAlpha" values="0 0 0 0 0 0 0 0 0 0 0 0 0 0 0 0 0 0 127 0"/><feOffset/><feGaussianBlur stdDeviation="2.8"/><feComposite in2="hardAlpha" operator="out"/><feColorMatrix values="0 0 0 0 0 0 0 0 0 0 0 0 0 0 0 0 0 0 0.25 0"/><feBlend in2="BackgroundImageFix" result="effect1_dropShadow_28_2623"/><feBlend in="SourceGraphic" in2="effect1_dropShadow_28_2623" result="shape"/></filter><filter id="c" width="212.429" height="32.429" x="36.287" y="3.786" color-interpolation-filters="sRGB" filterUnits="userSpaceOnUse"><feFlood flood-opacity="0" result="BackgroundImageFix"/><feColorMatrix in="SourceAlpha" result="hardAlpha" values="0 0 0 0 0 0 0 0 0 0 0 0 0 0 0 0 0 0 127 0"/><feOffset/><feGaussianBlur stdDeviation="2.857"/><feComposite in2="hardAlpha" operator="out"/><feColorMatrix values="0 0 0 0 0 0 0 0 0 0 0 0 0 0 0 0 0 0 0.25 0"/><feBlend in2="BackgroundImageFix" result="effect1_dropShadow_28_2623"/><feBlend in="SourceGraphic" in2="effect1_dropShadow_28_2623" result="shape"/></filter><linearGradient id="a" x1="125.501" x2="125.501" y1="0" y2="40.001" gradientUnits="userSpaceOnUse"><stop stop-color="#181818"/><stop offset="1" stop-color="#0f0f0f"/></linearGradient></defs></svg>