<svg xmlns="http://www.w3.org/2000/svg" width="262" height="40" fill="none" viewBox="0 0 262 40"><rect width="262.001" height="40.001" fill="url(#a)" rx="8"/><rect width="259.858" height="37.858" x="1.071" y="1.071" stroke="#fff" stroke-opacity=".15" stroke-width="2.143" rx="6.929"/><g filter="url(#b)"><path fill="#dd4c35" d="M35.475 18.755 23.25 6.53a1.8 1.8 0 0 0-2.55 0l-2.54 2.54 3.22 3.22a2.141 2.141 0 0 1 2.713 2.73l3.1 3.1a2.143 2.143 0 1 1-1.285 1.21l-2.895-2.895v7.617a2.142 2.142 0 1 1-1.764-.062v-7.687a2.146 2.146 0 0 1-1.165-2.814l-3.17-3.172-8.384 8.386a1.8 1.8 0 0 0 0 2.551l12.226 12.222a1.8 1.8 0 0 0 2.55 0l12.17-12.173a1.8 1.8 0 0 0 0-2.55"/><path fill="#fff" d="m18.16 9.069 3.22 3.22a2.141 2.141 0 0 1 2.713 2.73l3.1 3.1a2.143 2.143 0 1 1-1.285 1.21l-2.895-2.895v7.617a2.142 2.142 0 1 1-1.764-.062v-7.687a2.146 2.146 0 0 1-1.165-2.814l-3.17-3.172"/></g><g filter="url(#c)"><path fill="#e8e8e8" d="M53.629 18.158h-1.884a2.88 2.88 0 0 0-1.129-1.842 3.1 3.1 0 0 0-.96-.483 3.8 3.8 0 0 0-1.117-.163q-1.068 0-1.913.538-.84.537-1.328 1.575-.483 1.04-.483 2.536 0 1.509.483 2.547.489 1.04 1.334 1.57a3.5 3.5 0 0 0 1.901.531q.586 0 1.111-.157a3.2 3.2 0 0 0 .96-.477q.429-.313.724-.766a2.9 2.9 0 0 0 .417-1.05l1.884.005a5 5 0 0 1-.586 1.679 4.6 4.6 0 0 1-1.105 1.316q-.67.55-1.533.85a5.7 5.7 0 0 1-1.884.303q-1.605 0-2.861-.76-1.256-.768-1.98-2.192-.72-1.425-.719-3.4 0-1.98.725-3.398.724-1.425 1.98-2.185 1.256-.767 2.855-.767.984 0 1.836.284a4.8 4.8 0 0 1 1.539.82q.682.538 1.129 1.317.447.773.604 1.769m3.892 2.837v5.506h-1.805V14.137h1.78v4.6h.115q.327-.748.997-1.19.67-.44 1.75-.44.954 0 1.667.393.718.392 1.11 1.17.399.774.399 1.933V26.5h-1.805v-5.68q0-1.02-.526-1.582-.525-.567-1.46-.567-.64 0-1.148.271a1.96 1.96 0 0 0-.79.797q-.284.52-.284 1.256m12.418 5.693q-1.37 0-2.36-.586a3.97 3.97 0 0 1-1.522-1.66q-.531-1.074-.531-2.517 0-1.425.531-2.512.537-1.087 1.497-1.696.966-.61 2.258-.61.784 0 1.521.26.736.259 1.323.815.585.555.923 1.443.338.881.338 2.143v.64h-7.37v-1.353h5.601q0-.712-.29-1.261a2.2 2.2 0 0 0-.814-.876q-.52-.32-1.22-.32-.76 0-1.328.375a2.5 2.5 0 0 0-.87.966 2.8 2.8 0 0 0-.301 1.285v1.057q0 .93.326 1.582.332.651.924.996.591.338 1.382.338.513 0 .936-.145.422-.15.73-.447.308-.295.471-.73l1.709.308a3.1 3.1 0 0 1-.737 1.322q-.525.561-1.322.875-.79.308-1.805.308m9.887 0q-1.347 0-2.318-.61a4.04 4.04 0 0 1-1.485-1.696q-.52-1.08-.52-2.475 0-1.413.532-2.494a4.07 4.07 0 0 1 1.497-1.696q.966-.61 2.276-.61 1.056 0 1.883.393.828.386 1.334 1.086.514.701.61 1.636h-1.757a2.1 2.1 0 0 0-.664-1.123q-.512-.47-1.376-.47-.755 0-1.322.398-.562.393-.876 1.123-.313.724-.313 1.714 0 1.015.307 1.751.308.736.87 1.141.567.405 1.334.404.513 0 .93-.187.422-.193.706-.549.29-.357.404-.857h1.757q-.097.9-.585 1.606a3.37 3.37 0 0 1-1.31 1.11q-.816.405-1.914.405m7.4-3.332-.013-2.204h.315l3.694-3.924h2.161l-4.213 4.467h-.284zm-1.66 3.145V14.137h1.805v12.364zm5.855 0-3.32-4.407 1.244-1.262 4.292 5.669zm12.012.187q-1.304 0-2.276-.598a4.03 4.03 0 0 1-1.509-1.672q-.537-1.074-.537-2.511 0-1.443.537-2.524t1.509-1.678 2.276-.598 2.276.598a4 4 0 0 1 1.509 1.678q.538 1.08.538 2.524 0 1.436-.538 2.511a4.03 4.03 0 0 1-1.509 1.672q-.972.598-2.276.598m.006-1.515q.846 0 1.401-.447t.821-1.19q.272-.742.272-1.635 0-.888-.272-1.63-.266-.75-.821-1.202-.555-.453-1.401-.453-.85 0-1.412.453-.556.453-.827 1.202a4.8 4.8 0 0 0-.266 1.63q0 .892.266 1.636.271.742.827 1.189.561.447 1.412.447m12.205-2.518v-5.427h1.812v9.273h-1.775v-1.606h-.097a2.9 2.9 0 0 1-1.026 1.237q-.7.49-1.745.49-.893 0-1.582-.393-.682-.399-1.074-1.177-.386-.78-.386-1.926v-5.898h1.805v5.68q0 .95.525 1.51.525.561 1.364.561.507 0 1.008-.253.507-.255.839-.767.338-.513.332-1.304m8.565-5.427v1.449h-5.065v-1.449zm-3.706-2.222h1.805v8.772q0 .526.157.79a.8.8 0 0 0 .404.357q.253.09.55.09.216 0 .38-.03l.253-.048.326 1.491q-.156.06-.446.121a3.5 3.5 0 0 1-.725.072 3.2 3.2 0 0 1-1.328-.253 2.3 2.3 0 0 1-.996-.821q-.38-.555-.38-1.395zm14.531 2.222v1.449h-5.065v-1.449zm-3.707-2.222h1.805v8.772q0 .526.157.79a.82.82 0 0 0 .404.357q.254.09.55.09.217 0 .38-.03l.254-.048.326 1.491q-.157.06-.447.121a3.5 3.5 0 0 1-.725.072 3.2 3.2 0 0 1-1.328-.253 2.3 2.3 0 0 1-.996-.821q-.38-.555-.38-1.395zm7.708 5.989v5.506h-1.805V14.137h1.78v4.6h.115q.326-.748.996-1.19.67-.44 1.751-.44.954 0 1.666.393.718.392 1.111 1.17.398.774.398 1.933V26.5h-1.805v-5.68q0-1.02-.525-1.582-.525-.567-1.461-.567-.64 0-1.147.271a1.96 1.96 0 0 0-.791.797q-.283.52-.283 1.256m12.418 5.693q-1.371 0-2.361-.586a3.97 3.97 0 0 1-1.521-1.66q-.531-1.074-.531-2.517 0-1.425.531-2.512.537-1.087 1.497-1.696.965-.61 2.258-.61.785 0 1.521.26.737.259 1.322.815t.924 1.443q.338.881.338 2.143v.64h-7.371v-1.353h5.602q0-.712-.29-1.261a2.2 2.2 0 0 0-.815-.876q-.519-.32-1.219-.32-.76 0-1.328.375a2.5 2.5 0 0 0-.87.966 2.8 2.8 0 0 0-.301 1.285v1.057q0 .93.326 1.582.332.651.923.996.592.338 1.383.338.513 0 .935-.145.423-.15.731-.447.308-.295.471-.73l1.708.308a3.1 3.1 0 0 1-.736 1.322 3.6 3.6 0 0 1-1.322.875q-.791.308-1.805.308"/><path fill="#dd4c35" d="M161.937 26.5V14.138h5.107q1.389 0 2.397.501 1.014.495 1.564 1.425.549.924.549 2.191 0 1.286-.561 2.186-.562.893-1.594 1.364-1.032.465-2.445.465h-3.23v-2.355h2.674q.677 0 1.129-.175a1.42 1.42 0 0 0 .695-.543q.235-.368.235-.942 0-.573-.235-.948a1.4 1.4 0 0 0-.695-.567q-.458-.193-1.129-.193h-1.473V26.5zm6.961-5.65 3.079 5.65h-3.26l-3.019-5.65zm8.447 5.826q-1.455 0-2.511-.574a3.96 3.96 0 0 1-1.618-1.648q-.562-1.074-.562-2.553 0-1.437.568-2.512.567-1.08 1.6-1.678 1.032-.603 2.432-.604.99 0 1.811.308.822.308 1.419.912t.93 1.49q.332.882.332 2.023v.737h-8.059v-1.715h5.312a1.66 1.66 0 0 0-.223-.839 1.5 1.5 0 0 0-.598-.573 1.7 1.7 0 0 0-.863-.212q-.495 0-.888.224a1.68 1.68 0 0 0-.863 1.449v1.744q0 .567.223.996.224.423.634.658t.978.236q.392 0 .713-.109.32-.108.549-.32.23-.21.344-.52l2.711.08a3.36 3.36 0 0 1-.743 1.587q-.567.67-1.491 1.044-.924.369-2.137.369m5.909 3.302v-12.75h2.921v1.588h.091q.182-.423.513-.815.339-.393.857-.64.526-.255 1.256-.254.966 0 1.805.507.845.508 1.364 1.564t.52 2.692q0 1.575-.501 2.639-.495 1.063-1.341 1.593a3.4 3.4 0 0 1-1.865.532q-.7 0-1.213-.23a2.6 2.6 0 0 1-.864-.604 2.9 2.9 0 0 1-.531-.803h-.06v4.981zm2.891-8.114q0 .75.199 1.304.206.555.586.864.387.3.924.301.543 0 .923-.301.38-.308.574-.864.2-.555.199-1.304 0-.748-.199-1.298-.193-.55-.574-.85-.374-.303-.923-.303-.543 0-.924.296-.38.297-.586.845-.199.55-.199 1.31m12.311 4.812q-1.461 0-2.511-.598a4.1 4.1 0 0 1-1.612-1.678q-.561-1.08-.562-2.505 0-1.431.562-2.506a4.07 4.07 0 0 1 1.612-1.678q1.05-.603 2.511-.604 1.461 0 2.505.604a4 4 0 0 1 1.612 1.678q.568 1.075.568 2.506 0 1.424-.568 2.505a4.07 4.07 0 0 1-1.612 1.678q-1.044.598-2.505.598m.018-2.228q.531 0 .9-.326.367-.326.561-.905.2-.58.199-1.34 0-.773-.199-1.353-.194-.58-.561-.905a1.3 1.3 0 0 0-.9-.326q-.55 0-.929.326-.375.326-.574.905-.193.58-.193 1.352 0 .762.193 1.34.2.58.574.906.38.326.929.326m14.275-4.389-2.711.073a1 1 0 0 0-.229-.513 1.24 1.24 0 0 0-.489-.357 1.7 1.7 0 0 0-.689-.132q-.513 0-.875.205-.356.205-.35.555a.6.6 0 0 0 .217.471q.23.2.815.32l1.787.338q1.389.265 2.065.882.682.615.688 1.63-.006.953-.568 1.66-.555.706-1.521 1.098-.966.387-2.209.387-1.986 0-3.134-.815-1.14-.822-1.304-2.198l2.916-.072q.097.506.501.773.405.265 1.033.265.567 0 .923-.211.357-.21.363-.561a.6.6 0 0 0-.278-.502q-.272-.192-.851-.301l-1.618-.308q-1.395-.254-2.077-.936-.682-.688-.676-1.75-.006-.93.495-1.588.501-.664 1.425-1.015.923-.35 2.179-.35 1.884 0 2.97.791 1.087.785 1.202 2.161m1.682 6.442v-9.273h2.952v9.273zm1.479-10.354q-.621 0-1.068-.41a1.32 1.32 0 0 1-.447-1.002q0-.58.447-.99a1.5 1.5 0 0 1 1.068-.417 1.5 1.5 0 0 1 1.069.417q.447.41.447.99 0 .585-.447 1.002-.44.41-1.069.41m8.586 1.081v2.173h-5.849v-2.173zm-4.624-2.222h2.952v8.579q0 .272.085.44.09.165.259.236.17.066.405.066.168 0 .356-.03.193-.036.29-.06l.446 2.13q-.21.061-.597.152-.381.09-.912.115-1.038.048-1.781-.242a2.3 2.3 0 0 1-1.129-.918q-.386-.621-.374-1.563zm10.359 11.67q-1.46 0-2.511-.598a4.13 4.13 0 0 1-1.612-1.678q-.561-1.08-.561-2.505 0-1.431.561-2.506.568-1.08 1.612-1.678 1.05-.603 2.511-.604 1.462 0 2.506.604 1.05.598 1.612 1.678.567 1.075.567 2.506 0 1.424-.567 2.505a4.1 4.1 0 0 1-1.612 1.678q-1.044.598-2.506.598m.019-2.228q.531 0 .899-.326.369-.326.562-.905.198-.58.199-1.34 0-.773-.199-1.353-.193-.58-.562-.905a1.3 1.3 0 0 0-.899-.326q-.55 0-.93.326-.375.326-.574.905a4.3 4.3 0 0 0-.193 1.352q0 .762.193 1.34.2.58.574.906.38.326.93.326m6.178 2.053v-9.273h2.868v1.69h.097q.253-.917.827-1.364a2.1 2.1 0 0 1 1.334-.453q.205 0 .422.03.218.025.405.079v2.566a3 3 0 0 0-.556-.115 5 5 0 0 0-.603-.042q-.525 0-.948.235a1.7 1.7 0 0 0-.658.646 1.9 1.9 0 0 0-.236.966V26.5zm9.243 3.477q-.531 0-1.002-.085a4 4 0 0 1-.809-.21l.652-2.144q.434.145.785.17.355.023.609-.116.26-.132.399-.477l.114-.277-3.296-9.611h3.091l1.709 6.616h.096l1.733-6.616h3.109l-3.495 10.16q-.254.76-.719 1.34a3.1 3.1 0 0 1-1.189.918q-.725.332-1.787.332"/></g><defs><filter id="b" width="39.206" height="39.205" x="2.4" y=".4" color-interpolation-filters="sRGB" filterUnits="userSpaceOnUse"><feFlood flood-opacity="0" result="BackgroundImageFix"/><feColorMatrix in="SourceAlpha" result="hardAlpha" values="0 0 0 0 0 0 0 0 0 0 0 0 0 0 0 0 0 0 127 0"/><feOffset/><feGaussianBlur stdDeviation="2.8"/><feComposite in2="hardAlpha" operator="out"/><feColorMatrix values="0 0 0 0 0 0 0 0 0 0 0 0 0 0 0 0 0 0 0.25 0"/><feBlend in2="BackgroundImageFix" result="effect1_dropShadow_28_2557"/><feBlend in="SourceGraphic" in2="effect1_dropShadow_28_2557" result="shape"/></filter><filter id="c" width="223.429" height="32.429" x="36.287" y="3.786" color-interpolation-filters="sRGB" filterUnits="userSpaceOnUse"><feFlood flood-opacity="0" result="BackgroundImageFix"/><feColorMatrix in="SourceAlpha" result="hardAlpha" values="0 0 0 0 0 0 0 0 0 0 0 0 0 0 0 0 0 0 127 0"/><feOffset/><feGaussianBlur stdDeviation="2.857"/><feComposite in2="hardAlpha" operator="out"/><feColorMatrix values="0 0 0 0 0 0 0 0 0 0 0 0 0 0 0 0 0 0 0.25 0"/><feBlend in2="BackgroundImageFix" result="effect1_dropShadow_28_2557"/><feBlend in="SourceGraphic" in2="effect1_dropShadow_28_2557" result="shape"/></filter><linearGradient id="a" x1="131.001" x2="131.001" y1="0" y2="40.001" gradientUnits="userSpaceOnUse"><stop stop-color="#361712"/><stop offset="1" stop-color="#1d0c09"/></linearGradient></defs></svg>