<svg xmlns="http://www.w3.org/2000/svg" width="252" height="40" fill="none" viewBox="0 0 252 40"><g clip-path="url(#a)"><rect width="252.001" height="40.001" fill="url(#b)" rx="8"/><g filter="url(#c)"><path fill="#ea4335" d="M21.143 19.374 9.108 31.681c.135.467.378.898.71 1.26s.745.645 1.206.827a3.34 3.34 0 0 0 2.864-.197l13.542-7.527z"/><path fill="#fbbc04" d="m33.312 17.282-5.856-3.273-6.591 5.645 6.618 6.372 5.811-3.238a3.15 3.15 0 0 0 1.247-1.144 3.05 3.05 0 0 0 0-3.218c-.3-.485-.732-.88-1.247-1.144z"/><path fill="#4285f4" d="M9.108 8.328a3 3 0 0 0-.107.806v21.741q0 .41.107.806l12.448-11.992z"/><path fill="#34a853" d="m21.233 20.005 6.224-5.996-13.524-7.563A3.4 3.4 0 0 0 12.256 6a3.3 3.3 0 0 0-1.973.643A3.2 3.2 0 0 0 9.108 8.32z"/></g><g filter="url(#d)"><path fill="#e8e8e8" d="M44.404 26.5h-1.98l4.45-12.363h2.154l4.45 12.364h-1.98l-3.496-10.118h-.096zm.332-4.84h6.424v1.569h-6.424zm17.153-4.432-3.363 9.273h-1.932l-3.368-9.273h1.938l2.348 7.136h.096l2.343-7.136zm4.129 9.478a3.8 3.8 0 0 1-1.594-.326 2.7 2.7 0 0 1-1.129-.96q-.41-.628-.41-1.54 0-.784.302-1.291.301-.507.814-.803a4.3 4.3 0 0 1 1.148-.447q.633-.15 1.291-.23l1.353-.156q.519-.066.754-.212.236-.144.236-.47v-.043q0-.79-.447-1.225-.44-.435-1.316-.435-.912 0-1.437.405-.519.398-.718.887l-1.696-.386q.301-.845.88-1.365.587-.525 1.347-.76a5.3 5.3 0 0 1 1.6-.242q.556 0 1.177.133.628.128 1.171.47.55.345.9.985.35.634.35 1.648v6.158H68.83v-1.268h-.072a2.6 2.6 0 0 1-.526.688 2.8 2.8 0 0 1-.9.562q-.548.222-1.315.223m.392-1.449q.75 0 1.28-.296.537-.295.815-.772.284-.483.284-1.033v-1.195q-.098.097-.374.181a6 6 0 0 1-.622.139l-.682.103-.556.072q-.525.066-.96.223a1.65 1.65 0 0 0-.688.453q-.254.289-.254.773 0 .67.496 1.014.495.338 1.261.338m6.588 1.244v-9.273h1.805v9.273zm.912-10.704q-.471 0-.81-.314a1.02 1.02 0 0 1-.331-.76q0-.447.332-.761.338-.32.809-.32.47 0 .803.32a1 1 0 0 1 .338.76q0 .441-.338.761-.333.315-.803.314m5.127-1.66v12.364H77.23V14.137zm5.126 12.569a3.8 3.8 0 0 1-1.593-.326 2.7 2.7 0 0 1-1.13-.96q-.41-.628-.41-1.54 0-.784.302-1.291t.815-.803a4.3 4.3 0 0 1 1.147-.447q.634-.15 1.292-.23l1.352-.156q.52-.066.755-.212.235-.144.235-.47v-.043q0-.79-.446-1.225-.441-.435-1.317-.435-.91 0-1.436.405-.52.398-.719.887l-1.696-.386q.302-.845.881-1.365.586-.525 1.347-.76a5.3 5.3 0 0 1 1.6-.242q.555 0 1.177.133.627.128 1.17.47.55.345.9.985.35.634.35 1.648v6.158h-1.762v-1.268h-.073a2.6 2.6 0 0 1-.525.688 2.8 2.8 0 0 1-.9.562q-.55.222-1.316.223m.393-1.449q.748 0 1.28-.296.537-.295.815-.772.283-.483.283-1.033v-1.195q-.096.097-.374.181a6 6 0 0 1-.622.139l-.682.103-.555.072q-.525.066-.96.223a1.65 1.65 0 0 0-.688.453q-.255.289-.254.773 0 .67.495 1.014.494.338 1.262.338m6.733 1.244V14.137h1.805v4.594h.108q.157-.29.453-.67.295-.38.821-.664.525-.29 1.389-.29 1.122 0 2.004.568.88.567 1.382 1.636.507 1.069.507 2.571 0 1.504-.5 2.578-.502 1.07-1.377 1.648-.876.574-1.998.574-.846 0-1.383-.284a2.6 2.6 0 0 1-.833-.664 5 5 0 0 1-.465-.676h-.15V26.5zm1.768-4.637q0 .978.284 1.715.284.736.821 1.153.537.41 1.316.41.81 0 1.352-.428.544-.435.821-1.177.284-.743.284-1.673 0-.916-.278-1.648-.27-.73-.82-1.153-.544-.422-1.359-.422-.785 0-1.328.404-.537.405-.815 1.129t-.278 1.69m10.533-7.727v12.364h-1.805V14.137zm6.425 12.55q-1.37 0-2.36-.585a3.97 3.97 0 0 1-1.522-1.66q-.531-1.074-.531-2.517 0-1.425.531-2.512a4.13 4.13 0 0 1 1.497-1.696q.966-.61 2.258-.61a4.6 4.6 0 0 1 1.522.26 3.7 3.7 0 0 1 1.322.815q.585.555.923 1.443.339.881.338 2.143v.64h-7.371v-1.353h5.603q0-.712-.29-1.261a2.2 2.2 0 0 0-.815-.876q-.52-.32-1.22-.32-.76 0-1.328.375a2.5 2.5 0 0 0-.869.966 2.8 2.8 0 0 0-.302 1.285v1.057q0 .93.326 1.582.332.651.924.996.591.338 1.382.338.513 0 .936-.145.423-.15.73-.447.309-.295.471-.73l1.709.308a3.1 3.1 0 0 1-.737 1.322 3.6 3.6 0 0 1-1.322.875q-.79.308-1.805.308m14.386 0q-1.304 0-2.276-.597a4.03 4.03 0 0 1-1.509-1.672q-.537-1.074-.537-2.511 0-1.443.537-2.524a4 4 0 0 1 1.509-1.678q.972-.597 2.276-.598 1.304 0 2.276.598a4 4 0 0 1 1.509 1.678q.537 1.08.537 2.524 0 1.436-.537 2.511a4.03 4.03 0 0 1-1.509 1.672q-.972.598-2.276.598m.006-1.514q.845 0 1.401-.447.555-.447.821-1.19.271-.742.271-1.635 0-.888-.271-1.63-.266-.75-.821-1.202-.556-.453-1.401-.453-.85 0-1.413.453-.555.453-.827 1.202a4.8 4.8 0 0 0-.265 1.63q0 .892.265 1.636.272.742.827 1.189.563.447 1.413.447m8.136-4.178v5.506h-1.805V17.23h1.733v1.51h.115a2.65 2.65 0 0 1 1.002-1.184q.688-.447 1.732-.447.949 0 1.66.399.713.392 1.105 1.17.393.78.393 1.927V26.5h-1.805v-5.68q0-1.008-.526-1.576-.525-.573-1.442-.573-.628 0-1.117.271a1.95 1.95 0 0 0-.767.797q-.278.52-.278 1.256"/><path fill="url(#e)" d="M153.051 18.176a2.2 2.2 0 0 0-.302-.67 1.9 1.9 0 0 0-.489-.501 2.1 2.1 0 0 0-.664-.308 3 3 0 0 0-.821-.109q-.9 0-1.558.435-.651.434-1.008 1.268-.356.825-.356 2.01 0 1.19.344 2.028.345.84.996 1.28.652.44 1.582.44.82 0 1.388-.265.575-.272.87-.767t.296-1.165l.555.067h-3.006v-2.18h5.33v1.636q0 1.66-.706 2.844a4.7 4.7 0 0 1-1.932 1.817q-1.226.634-2.819.634-1.769 0-3.109-.767t-2.089-2.185q-.749-1.425-.749-3.381 0-1.521.453-2.698a5.7 5.7 0 0 1 1.262-2.005 5.45 5.45 0 0 1 1.883-1.243 6.3 6.3 0 0 1 2.313-.423q1.074 0 1.998.308.93.308 1.642.87a4.6 4.6 0 0 1 1.165 1.333 4.4 4.4 0 0 1 .555 1.697zm9.247 8.5q-1.461 0-2.511-.598a4.1 4.1 0 0 1-1.612-1.678q-.562-1.08-.562-2.505 0-1.431.562-2.506a4.07 4.07 0 0 1 1.612-1.678q1.05-.603 2.511-.604 1.461 0 2.505.604a4 4 0 0 1 1.612 1.678q.567 1.075.568 2.506 0 1.424-.568 2.505a4.07 4.07 0 0 1-1.612 1.678q-1.044.598-2.505.598m.018-2.228q.531 0 .9-.326.367-.326.561-.905.2-.58.199-1.34 0-.773-.199-1.353-.194-.58-.561-.905a1.3 1.3 0 0 0-.9-.326q-.549 0-.93.326-.374.326-.573.905-.193.58-.193 1.352 0 .762.193 1.34.2.58.573.906.381.326.93.326m10.507 2.228q-1.461 0-2.511-.598A4.1 4.1 0 0 1 168.7 24.4q-.561-1.08-.561-2.505 0-1.431.561-2.506.567-1.08 1.612-1.678 1.05-.603 2.511-.604 1.46 0 2.506.604 1.05.598 1.611 1.678.568 1.075.568 2.506 0 1.424-.568 2.505a4.07 4.07 0 0 1-1.611 1.678q-1.045.598-2.506.598m.018-2.228q.532 0 .9-.326t.561-.905q.2-.58.2-1.34 0-.773-.2-1.353-.193-.58-.561-.905a1.3 1.3 0 0 0-.9-.326q-.55 0-.929.326-.375.326-.574.905-.193.58-.193 1.352 0 .762.193 1.34.2.58.574.906.38.326.929.326m10.502 5.723q-1.322 0-2.264-.368-.942-.369-1.479-1.008a2.8 2.8 0 0 1-.646-1.45l2.795-.156q.078.284.29.495.218.211.561.326.35.114.821.115.743 0 1.226-.363.489-.356.489-1.25v-1.63h-.103a2.2 2.2 0 0 1-.531.767 2.5 2.5 0 0 1-.888.532q-.525.193-1.207.193a3.75 3.75 0 0 1-1.859-.471q-.84-.477-1.347-1.473-.501-1.002-.501-2.578 0-1.623.519-2.674.52-1.056 1.359-1.564a3.47 3.47 0 0 1 1.817-.507q.73 0 1.249.254.526.247.864.64.338.392.513.815h.084v-1.588h2.94v9.309q0 1.177-.591 1.986-.592.81-1.654 1.226-1.064.422-2.457.422m.09-5.946q.537 0 .918-.284.38-.284.585-.815.206-.531.206-1.274 0-.755-.206-1.298-.199-.55-.585-.845a1.45 1.45 0 0 0-.918-.296q-.549 0-.93.302-.38.302-.579.851-.193.544-.193 1.286 0 .743.199 1.274.2.531.573.815.381.285.93.284m9.446-10.088v12.364h-2.952V14.137zm6.214 12.539q-1.455 0-2.511-.574a3.96 3.96 0 0 1-1.618-1.648q-.562-1.074-.562-2.553 0-1.437.568-2.512.567-1.08 1.6-1.678 1.032-.603 2.432-.604.99 0 1.812.308a3.9 3.9 0 0 1 1.418.912q.599.604.93 1.49.332.882.332 2.023v.737h-8.059v-1.715h5.312a1.66 1.66 0 0 0-.223-.839 1.5 1.5 0 0 0-.598-.573 1.7 1.7 0 0 0-.863-.212q-.495 0-.888.224a1.68 1.68 0 0 0-.863 1.449v1.744q0 .567.223.996.224.423.634.658t.978.236q.392 0 .713-.109.32-.108.549-.32.23-.21.344-.52l2.711.08a3.35 3.35 0 0 1-.743 1.587q-.567.67-1.491 1.044-.924.369-2.137.369m9.561-.175V14.137h5.107q1.389 0 2.397.543 1.014.538 1.563 1.504.55.96.55 2.233 0 1.28-.562 2.24a3.76 3.76 0 0 1-1.587 1.479q-1.034.525-2.451.525h-3.152v-2.354h2.596q.676 0 1.129-.236.459-.235.694-.658.236-.428.236-.996 0-.573-.236-.99a1.6 1.6 0 0 0-.694-.652q-.459-.23-1.129-.23h-1.473v9.956zm14.042-12.364v12.364h-2.952V14.137zm4.493 12.52q-.888 0-1.576-.295a2.45 2.45 0 0 1-1.08-.906q-.393-.609-.393-1.527 0-.773.272-1.304.271-.531.748-.863a3.5 3.5 0 0 1 1.099-.501 7 7 0 0 1 1.328-.236q.791-.072 1.274-.15.483-.086.7-.236a.51.51 0 0 0 .224-.44v-.031q0-.465-.32-.718-.32-.255-.864-.254-.585 0-.941.254a1.1 1.1 0 0 0-.453.7l-2.723-.097a3.2 3.2 0 0 1 .622-1.509q.507-.67 1.389-1.05.887-.387 2.131-.387.887 0 1.636.212.748.205 1.304.603.555.393.857.966.308.574.308 1.31v6.303h-2.777v-1.292h-.073q-.247.471-.634.797-.38.325-.899.489a3.8 3.8 0 0 1-1.159.163m.911-1.931q.477 0 .858-.193a1.6 1.6 0 0 0 .615-.532q.23-.344.23-.797v-.88a2 2 0 0 1-.308.12q-.176.054-.386.103-.212.048-.435.084l-.429.066a2.7 2.7 0 0 0-.712.206 1.13 1.13 0 0 0-.447.362.9.9 0 0 0-.151.52q0 .457.326.7.333.24.839.24m7.909 5.252q-.531 0-1.002-.085a4 4 0 0 1-.809-.21l.652-2.144q.434.145.785.17.355.023.609-.116.26-.132.399-.477l.114-.277-3.296-9.611h3.091l1.709 6.616h.096l1.733-6.616h3.109l-3.496 10.16a4.3 4.3 0 0 1-.718 1.34 3.1 3.1 0 0 1-1.189.918q-.725.332-1.787.332"/></g></g><rect width="249.858" height="37.858" x="1.071" y="1.071" stroke="#fff" stroke-opacity=".15" stroke-width="2.143" rx="6.929"/><defs><linearGradient id="b" x1="126.001" x2="126.001" y1="0" y2="40.001" gradientUnits="userSpaceOnUse"><stop stop-color="#00171c"/><stop offset=".333" stop-color="#0a1209"/><stop offset=".667" stop-color="#100f06"/><stop offset="1" stop-color="#1a0000"/></linearGradient><linearGradient id="e" x1="144.001" x2="244.001" y1="9.501" y2="9.501" gradientUnits="userSpaceOnUse"><stop stop-color="#5991ee"/><stop offset=".333" stop-color="#56ab6c"/><stop offset=".667" stop-color="#f5d26a"/><stop offset="1" stop-color="#eb786f"/></linearGradient><filter id="c" width="39.202" height="39.202" x="2.4" y=".4" color-interpolation-filters="sRGB" filterUnits="userSpaceOnUse"><feFlood flood-opacity="0" result="BackgroundImageFix"/><feColorMatrix in="SourceAlpha" result="hardAlpha" values="0 0 0 0 0 0 0 0 0 0 0 0 0 0 0 0 0 0 127 0"/><feOffset/><feGaussianBlur stdDeviation="2.8"/><feComposite in2="hardAlpha" operator="out"/><feColorMatrix values="0 0 0 0 0 0 0 0 0 0 0 0 0 0 0 0 0 0 0.25 0"/><feBlend in2="BackgroundImageFix" result="effect1_dropShadow_1_142"/><feBlend in="SourceGraphic" in2="effect1_dropShadow_1_142" result="shape"/></filter><filter id="d" width="213.429" height="32.429" x="36.287" y="3.786" color-interpolation-filters="sRGB" filterUnits="userSpaceOnUse"><feFlood flood-opacity="0" result="BackgroundImageFix"/><feColorMatrix in="SourceAlpha" result="hardAlpha" values="0 0 0 0 0 0 0 0 0 0 0 0 0 0 0 0 0 0 127 0"/><feOffset/><feGaussianBlur stdDeviation="2.857"/><feComposite in2="hardAlpha" operator="out"/><feColorMatrix values="0 0 0 0 0 0 0 0 0 0 0 0 0 0 0 0 0 0 0.25 0"/><feBlend in2="BackgroundImageFix" result="effect1_dropShadow_1_142"/><feBlend in="SourceGraphic" in2="effect1_dropShadow_1_142" result="shape"/></filter><clipPath id="a"><rect width="252.001" height="40.001" fill="#fff" rx="8"/></clipPath></defs></svg>