<svg xmlns="http://www.w3.org/2000/svg" width="319" height="40" fill="none" viewBox="0 0 319 40"><rect width="319.001" height="40.001" fill="url(#a)" rx="8"/><rect width="316.858" height="37.858" x="1.071" y="1.071" stroke="#fff" stroke-opacity=".15" stroke-width="2.143" rx="6.929"/><g filter="url(#b)"><path fill="#7dc1d1" d="M34.472 10.855c-1.75-1.786-4.435-1.786-6.186-.12-.117.12-.117.239-.117.358 0 .12 0 .238.117.357l.583.596c.117.119.35.119.584 0 .467-.358.934-.477 1.518-.477 1.4 0 2.568 1.191 2.568 2.62q0 1.072-.7 1.786c-3.503 3.572-8.288-6.43-18.91-1.31-.7.357-1.05 1.19-.7 1.905v.12l1.75 3.214c.35.715 1.284.953 1.985.596l.817-.477c.933-.595 1.75-1.19 2.568-1.905.116-.119.466-.119.583 0 .234.12.234.357.117.596l-.117.119a23 23 0 0 1-2.684 2.024l-.818.357c-.35.238-.7.357-1.167.357-.817 0-1.634-.476-1.984-1.19l-1.751-3.096c-3.268 2.381-5.37 7.025-4.202 12.859 0 .238.233.357.467.357h1.984c.234 0 .35-.119.467-.357.233-1.667 1.634-2.738 3.268-2.5 1.284.119 2.335 1.19 2.451 2.5 0 .238.234.357.467.357h1.868c.234 0 .35-.119.467-.357.233-1.667 1.634-2.738 3.268-2.5 1.284.119 2.335 1.19 2.451 2.5 0 .238.234.357.467.357h1.868c.233 0 .467-.238.467-.476 0-2.739.817-5.834 2.801-7.382 6.887-5.477 5.02-10.121 3.385-11.788m-7.237 8.216-1.4-.715c0-.476.35-.833.817-.833s.817.357.817.833c.116.357 0 .596-.234.715"/></g><g filter="url(#c)"><path fill="#e8e8e8" d="M44.404 26.5h-1.98l4.45-12.363h2.154l4.45 12.364h-1.98l-3.496-10.118h-.096zm.332-4.841h6.424v1.57h-6.424zm17.153-4.431L58.526 26.5h-1.932l-3.368-9.273h1.938l2.348 7.136h.096l2.343-7.136zm4.129 9.478a3.8 3.8 0 0 1-1.594-.326 2.7 2.7 0 0 1-1.129-.96q-.41-.628-.41-1.54 0-.784.302-1.291.301-.507.814-.803a4.3 4.3 0 0 1 1.148-.447q.633-.15 1.291-.23l1.353-.156q.519-.066.754-.212.236-.144.236-.47v-.043q0-.79-.447-1.225-.44-.435-1.316-.435-.912 0-1.437.405-.519.398-.718.887l-1.696-.386q.301-.845.88-1.365.587-.525 1.347-.76a5.3 5.3 0 0 1 1.6-.242q.556 0 1.177.133.628.128 1.171.47.55.345.9.985.35.634.35 1.648v6.158H68.83v-1.268h-.072a2.6 2.6 0 0 1-.526.688 2.8 2.8 0 0 1-.9.562q-.548.222-1.315.223m.392-1.449q.75 0 1.28-.296a2.07 2.07 0 0 0 .815-.772q.284-.484.284-1.033v-1.195q-.098.097-.374.181a6 6 0 0 1-.622.139l-.682.103-.556.072q-.525.067-.96.223a1.65 1.65 0 0 0-.688.453q-.254.289-.254.773 0 .67.496 1.014.495.338 1.261.338m6.588 1.244v-9.273h1.805V26.5zm.912-10.704q-.471 0-.81-.314a1.02 1.02 0 0 1-.331-.76q0-.447.332-.761.338-.32.809-.32.47 0 .803.32a1 1 0 0 1 .338.76q0 .441-.338.761-.333.315-.803.314m5.127-1.66v12.364H77.23V14.137zm5.126 12.569a3.8 3.8 0 0 1-1.593-.326 2.7 2.7 0 0 1-1.13-.96q-.41-.628-.41-1.54 0-.784.302-1.291t.815-.803a4.3 4.3 0 0 1 1.147-.447q.634-.15 1.292-.23l1.352-.156q.52-.066.755-.212.235-.144.235-.47v-.043q0-.79-.446-1.225-.441-.435-1.317-.435-.91 0-1.436.405-.52.398-.719.887l-1.696-.386q.302-.845.881-1.365.586-.525 1.347-.76a5.3 5.3 0 0 1 1.6-.242q.555 0 1.177.133.627.128 1.17.47.55.345.9.985.35.634.35 1.648v6.158h-1.762v-1.268h-.073a2.6 2.6 0 0 1-.525.688 2.8 2.8 0 0 1-.9.562q-.55.222-1.316.223m.393-1.449q.748 0 1.28-.296a2.07 2.07 0 0 0 .815-.772q.283-.484.283-1.033v-1.195q-.096.097-.374.181a6 6 0 0 1-.622.139l-.682.103-.555.072q-.525.067-.96.223a1.65 1.65 0 0 0-.688.453q-.255.289-.254.773 0 .67.495 1.014.494.338 1.262.338m6.733 1.244V14.137h1.805v4.594h.108q.157-.29.453-.67.295-.38.821-.664.525-.29 1.389-.29 1.122 0 2.004.568.88.567 1.382 1.636.507 1.069.507 2.571t-.5 2.578q-.502 1.069-1.377 1.648-.876.574-1.998.574-.846 0-1.383-.284a2.6 2.6 0 0 1-.833-.664 5 5 0 0 1-.465-.676h-.15V26.5zm1.768-4.637q0 .978.284 1.715.284.736.821 1.153.537.41 1.316.41.81 0 1.352-.428.544-.435.821-1.177.284-.743.284-1.673 0-.916-.278-1.648-.27-.73-.82-1.153-.544-.422-1.359-.422-.785 0-1.328.404-.537.405-.815 1.129t-.278 1.69m10.533-7.727v12.364h-1.805V14.137zm6.425 12.55q-1.37 0-2.36-.585a3.97 3.97 0 0 1-1.522-1.66q-.531-1.074-.531-2.517 0-1.425.531-2.512a4.13 4.13 0 0 1 1.497-1.696q.966-.61 2.258-.61.785 0 1.522.26.736.259 1.322.815.585.555.923 1.443.339.881.338 2.143v.64h-7.371v-1.353h5.603q0-.712-.29-1.261a2.2 2.2 0 0 0-.815-.876q-.52-.32-1.22-.32-.76 0-1.328.375a2.5 2.5 0 0 0-.869.966 2.8 2.8 0 0 0-.302 1.285v1.057q0 .93.326 1.582.332.651.924.996.591.338 1.382.338.513 0 .936-.145.423-.15.73-.447.309-.295.471-.73l1.709.308a3.1 3.1 0 0 1-.737 1.322 3.6 3.6 0 0 1-1.322.875q-.79.308-1.805.308m14.386 0q-1.304 0-2.276-.597a4.03 4.03 0 0 1-1.509-1.672q-.537-1.075-.537-2.511 0-1.443.537-2.524a4 4 0 0 1 1.509-1.678q.972-.598 2.276-.598t2.276.598a4 4 0 0 1 1.509 1.678q.537 1.08.537 2.524 0 1.436-.537 2.51a4.03 4.03 0 0 1-1.509 1.673q-.972.598-2.276.598m.006-1.515q.845 0 1.401-.446.555-.447.821-1.19.271-.742.271-1.636 0-.886-.271-1.63-.266-.748-.821-1.2-.556-.454-1.401-.454-.85 0-1.413.453-.555.453-.827 1.202a4.8 4.8 0 0 0-.265 1.63q0 .892.265 1.636.272.742.827 1.189.563.447 1.413.447m8.136-4.177v5.506h-1.805v-9.273h1.733v1.51h.115a2.65 2.65 0 0 1 1.002-1.184q.688-.447 1.732-.447.949 0 1.66.399.713.392 1.105 1.17.393.78.393 1.927V26.5h-1.805v-5.68q0-1.008-.526-1.576-.525-.573-1.442-.573-.628 0-1.117.271a1.95 1.95 0 0 0-.767.797q-.278.52-.278 1.256"/><path fill="#7dc1d1" d="M153.051 18.176a2.2 2.2 0 0 0-.302-.67 1.9 1.9 0 0 0-.489-.501 2.1 2.1 0 0 0-.664-.308 3 3 0 0 0-.821-.109q-.9 0-1.558.435-.651.435-1.008 1.267-.356.828-.356 2.01 0 1.19.344 2.03.345.838.996 1.279.652.44 1.582.44.82 0 1.388-.265.575-.272.87-.767t.296-1.165l.555.067h-3.006v-2.18h5.33v1.636q0 1.66-.706 2.844a4.7 4.7 0 0 1-1.932 1.817q-1.226.634-2.819.634-1.769 0-3.109-.767t-2.089-2.185q-.749-1.425-.749-3.381 0-1.521.453-2.698a5.7 5.7 0 0 1 1.262-2.005 5.45 5.45 0 0 1 1.883-1.243 6.3 6.3 0 0 1 2.313-.423q1.074 0 1.998.308.93.308 1.642.87a4.6 4.6 0 0 1 1.165 1.333 4.4 4.4 0 0 1 .555 1.697zm4.918 8.325v-9.273h2.868v1.69h.097q.253-.917.827-1.364a2.1 2.1 0 0 1 1.334-.453q.205 0 .422.03.217.024.405.079v2.566a3 3 0 0 0-.556-.115 5 5 0 0 0-.603-.042q-.525 0-.948.235a1.7 1.7 0 0 0-.658.646 1.9 1.9 0 0 0-.236.966V26.5zm9.421.157q-.888 0-1.576-.296a2.45 2.45 0 0 1-1.08-.906q-.393-.609-.393-1.527 0-.773.272-1.304a2.3 2.3 0 0 1 .749-.863 3.5 3.5 0 0 1 1.098-.501 7 7 0 0 1 1.328-.236q.791-.072 1.274-.15.483-.086.701-.236a.51.51 0 0 0 .223-.44v-.031q0-.466-.32-.718-.32-.255-.863-.254-.587 0-.942.253-.356.255-.453.7l-2.723-.096a3.2 3.2 0 0 1 .622-1.509q.507-.67 1.389-1.05.887-.387 2.131-.387.887 0 1.636.212.749.205 1.304.603.555.393.857.966.308.574.308 1.31v6.303h-2.777v-1.292h-.072a2.6 2.6 0 0 1-.634.797q-.381.325-.9.489a3.8 3.8 0 0 1-1.159.163m.912-1.932q.477 0 .857-.193a1.6 1.6 0 0 0 .616-.532q.23-.344.229-.797v-.88a1.7 1.7 0 0 1-.308.12q-.175.054-.386.103a7 7 0 0 1-.435.084l-.428.066a2.7 2.7 0 0 0-.713.206 1.13 1.13 0 0 0-.447.362.9.9 0 0 0-.151.519q0 .46.326.7.333.242.84.242m9.822 1.908a3.4 3.4 0 0 1-1.866-.532q-.839-.531-1.34-1.593-.501-1.063-.501-2.639 0-1.636.519-2.692t1.359-1.564a3.47 3.47 0 0 1 1.817-.507q.73 0 1.249.254.519.247.858.64.337.392.513.815h.06v-4.679h2.952v12.364h-2.922v-1.504h-.09a2.9 2.9 0 0 1-.532.803q-.344.375-.863.604-.513.23-1.213.23m1.026-2.3q.537 0 .918-.302.38-.309.585-.864t.205-1.304q0-.76-.205-1.31-.2-.55-.585-.845a1.45 1.45 0 0 0-.918-.296q-.549 0-.93.302-.38.302-.579.851-.193.55-.193 1.298 0 .75.199 1.304.2.555.573.864.381.3.93.301m9.413-10.197V26.5h-2.952V14.137zm6.214 12.539q-1.455 0-2.512-.574a3.97 3.97 0 0 1-1.618-1.648q-.561-1.074-.561-2.553 0-1.437.567-2.512.568-1.08 1.6-1.678 1.032-.604 2.433-.604.99 0 1.811.308a3.9 3.9 0 0 1 1.419.912q.597.604.929 1.49.332.882.332 2.023v.737h-8.059v-1.715h5.313a1.66 1.66 0 0 0-.224-.839 1.5 1.5 0 0 0-.597-.573 1.73 1.73 0 0 0-.864-.212q-.494 0-.887.224a1.68 1.68 0 0 0-.863 1.449v1.744q0 .567.223.996.223.423.634.658t.978.236q.393 0 .712-.109.32-.109.55-.32.229-.21.344-.52l2.71.08a3.35 3.35 0 0 1-.742 1.587q-.569.67-1.491 1.044-.924.369-2.137.369m9.561-.175V14.137h5.107q1.388 0 2.396.543 1.015.538 1.564 1.504.549.96.549 2.233 0 1.28-.561 2.24-.556.954-1.588 1.479t-2.451.525h-3.151v-2.354h2.596q.676 0 1.129-.236.459-.235.694-.658.235-.428.235-.996 0-.573-.235-.99a1.6 1.6 0 0 0-.694-.652q-.459-.23-1.129-.23h-1.473v9.956zm14.041-12.364V26.5h-2.952V14.137zm7.862 8.361v-5.27h2.946V26.5h-2.813v-1.727h-.097a2.7 2.7 0 0 1-1.05 1.352q-.737.495-1.781.495-.948 0-1.666-.434a2.96 2.96 0 0 1-1.117-1.214q-.399-.785-.405-1.835v-5.91h2.953v5.33q.005.756.398 1.19t1.068.434q.441 0 .791-.193.357-.2.562-.573.211-.381.211-.918m9.148 7.673q-1.323 0-2.264-.368-.942-.369-1.479-1.008a2.8 2.8 0 0 1-.646-1.45l2.795-.156q.078.284.29.495.217.211.561.326.35.114.821.115.743 0 1.225-.363.489-.356.489-1.25v-1.63h-.102a2.2 2.2 0 0 1-.531.767 2.5 2.5 0 0 1-.888.532q-.525.193-1.207.193a3.76 3.76 0 0 1-1.86-.471q-.839-.477-1.346-1.473-.501-1.002-.501-2.578 0-1.623.519-2.674.519-1.056 1.359-1.564a3.47 3.47 0 0 1 1.817-.507q.73 0 1.249.254.526.247.864.64.337.392.513.815h.084v-1.588h2.94v9.309q0 1.177-.591 1.986-.592.81-1.654 1.226-1.063.422-2.457.422m.09-5.946q.537 0 .918-.284.38-.284.585-.815.206-.531.206-1.274 0-.755-.206-1.298-.2-.55-.585-.845a1.45 1.45 0 0 0-.918-.296q-.549 0-.93.302-.38.302-.579.851-.193.544-.193 1.286 0 .743.199 1.274.2.531.573.815.381.285.93.284m6.494 2.276v-9.273h2.952V26.5zm1.479-10.354q-.621 0-1.068-.41a1.32 1.32 0 0 1-.447-1.002q0-.58.447-.99a1.5 1.5 0 0 1 1.068-.417 1.5 1.5 0 0 1 1.069.417q.447.41.447.99 0 .585-.447 1.002-.44.41-1.069.41m6.304 5.065V26.5h-2.952v-9.273h2.808v1.702h.102a2.6 2.6 0 0 1 1.051-1.334q.742-.489 1.768-.489.978 0 1.697.44.724.435 1.123 1.22.404.78.398 1.823v5.91h-2.952v-5.33q.006-.773-.392-1.207-.393-.435-1.093-.435-.465 0-.821.205a1.35 1.35 0 0 0-.543.574q-.188.375-.194.905m11.475 5.289V14.137h5.107q1.389 0 2.397.543 1.014.538 1.564 1.504.549.96.549 2.233 0 1.28-.562 2.24a3.76 3.76 0 0 1-1.587 1.479q-1.032.525-2.451.525h-3.151v-2.354h2.595q.676 0 1.129-.236.46-.235.695-.658.235-.428.235-.996 0-.573-.235-.99a1.6 1.6 0 0 0-.695-.652q-.459-.23-1.129-.23h-1.473v9.956zm15.236.175q-1.46 0-2.512-.598a4.1 4.1 0 0 1-1.611-1.678q-.562-1.08-.562-2.505 0-1.431.562-2.506.567-1.08 1.611-1.678 1.051-.604 2.512-.604t2.505.604q1.05.598 1.612 1.678.567 1.075.567 2.506 0 1.424-.567 2.505a4.07 4.07 0 0 1-1.612 1.678q-1.044.598-2.505.598m.018-2.228q.531 0 .899-.326.369-.327.562-.905.2-.58.199-1.34 0-.773-.199-1.353-.193-.58-.562-.905a1.3 1.3 0 0 0-.899-.326q-.549 0-.93.326-.374.326-.573.905-.193.58-.193 1.352 0 .762.193 1.34.2.58.573.906.381.326.93.326m6.179 2.053v-9.273h2.867v1.69h.097q.254-.917.827-1.364a2.1 2.1 0 0 1 1.334-.453q.206 0 .423.03.217.024.404.079v2.566a3 3 0 0 0-.555-.115 5 5 0 0 0-.604-.042q-.525 0-.948.235a1.7 1.7 0 0 0-.658.646 1.9 1.9 0 0 0-.235.966V26.5zm12.821-9.273V19.4h-5.85v-2.173zm-4.625-2.222h2.952v8.579q0 .271.085.44.09.164.26.236.168.066.404.066.169 0 .356-.03.194-.036.29-.06l.447 2.13q-.211.061-.598.152a5 5 0 0 1-.912.115q-1.038.048-1.78-.242a2.3 2.3 0 0 1-1.129-.918q-.387-.621-.375-1.563zm8.745 11.652q-.888 0-1.576-.296a2.45 2.45 0 0 1-1.08-.906q-.393-.609-.393-1.527 0-.773.272-1.304.271-.531.748-.863a3.5 3.5 0 0 1 1.099-.501 7 7 0 0 1 1.328-.236q.792-.072 1.274-.15.483-.086.7-.236a.51.51 0 0 0 .224-.44v-.031q0-.466-.32-.718-.32-.255-.864-.254-.585 0-.941.253-.357.255-.453.7l-2.723-.096a3.2 3.2 0 0 1 .622-1.509q.507-.67 1.389-1.05.887-.387 2.131-.387.887 0 1.636.212.748.205 1.304.603.555.393.857.966.308.574.308 1.31V26.5h-2.777v-1.292h-.073q-.247.471-.634.797-.38.325-.899.489a3.8 3.8 0 0 1-1.159.163m.911-1.932q.477 0 .858-.193.385-.194.615-.532.23-.344.23-.797v-.88a2 2 0 0 1-.308.12q-.176.054-.386.103a7 7 0 0 1-.435.084q-.224.036-.429.066a2.7 2.7 0 0 0-.712.206 1.13 1.13 0 0 0-.447.362.9.9 0 0 0-.151.519q0 .46.326.7.332.242.839.242m9.388-10.589V26.5h-2.952V14.137z"/></g><defs><filter id="b" width="39.202" height="39.202" x="2.4" y=".4" color-interpolation-filters="sRGB" filterUnits="userSpaceOnUse"><feFlood flood-opacity="0" result="BackgroundImageFix"/><feColorMatrix in="SourceAlpha" result="hardAlpha" values="0 0 0 0 0 0 0 0 0 0 0 0 0 0 0 0 0 0 127 0"/><feOffset/><feGaussianBlur stdDeviation="2.8"/><feComposite in2="hardAlpha" operator="out"/><feColorMatrix values="0 0 0 0 0 0 0 0 0 0 0 0 0 0 0 0 0 0 0.25 0"/><feBlend in2="BackgroundImageFix" result="effect1_dropShadow_28_2640"/><feBlend in="SourceGraphic" in2="effect1_dropShadow_28_2640" result="shape"/></filter><filter id="c" width="280.429" height="32.429" x="36.287" y="3.786" color-interpolation-filters="sRGB" filterUnits="userSpaceOnUse"><feFlood flood-opacity="0" result="BackgroundImageFix"/><feColorMatrix in="SourceAlpha" result="hardAlpha" values="0 0 0 0 0 0 0 0 0 0 0 0 0 0 0 0 0 0 127 0"/><feOffset/><feGaussianBlur stdDeviation="2.857"/><feComposite in2="hardAlpha" operator="out"/><feColorMatrix values="0 0 0 0 0 0 0 0 0 0 0 0 0 0 0 0 0 0 0.25 0"/><feBlend in2="BackgroundImageFix" result="effect1_dropShadow_28_2640"/><feBlend in="SourceGraphic" in2="effect1_dropShadow_28_2640" result="shape"/></filter><linearGradient id="a" x1="159.501" x2="159.501" y1="0" y2="40.001" gradientUnits="userSpaceOnUse"><stop stop-color="#19282c"/><stop offset="1" stop-color="#121c1f"/></linearGradient></defs></svg>