<svg xmlns="http://www.w3.org/2000/svg" width="215" height="40" fill="none" viewBox="0 0 215 40"><g clip-path="url(#a)"><rect width="215.001" height="40.001" fill="url(#b)" rx="8"/><g filter="url(#c)"><path fill="#6e93b7" d="M25.728 6c-2.372.459-4.048 1.4-5.051 2.705l3.366 1.94a3.28 3.28 0 0 1 2.199-.226c.21-1.272.055-2.751-.515-4.419m-5.77 3.57-5.163 8.932 5.53 3.192 1.298-2.247c-.59-.58-.836-1.464-.866-2.386-.038-1.126.236-2.378.746-3.51.378-.84.885-1.62 1.527-2.208zm12.26.175c-1.745.337-3.113.937-4.114 1.75.554.581.85 1.29.908 2.018l3.356 1.936c.635-1.524.623-3.44-.15-5.704m-21.442.478-2.253 3.898 6.057 2.536 3.61-6.247zm14.643 1.185c-.388.006-.747.134-1.102.346-.709.426-1.358 1.266-1.801 2.25-.444.986-.682 2.107-.652 3.02s.316 1.547.761 1.804h.002c.446.256 1.137.187 1.943-.243s1.66-1.196 2.291-2.072c.632-.876 1.036-1.86 1.05-2.686.015-.827-.277-1.498-1.217-2.04-.47-.27-.886-.386-1.274-.38m3.492 3.329c-.19.85-.61 1.678-1.15 2.425-.726 1.007-1.673 1.87-2.668 2.4-.816.436-1.71.665-2.51.442l-1.298 2.243 5.53 3.19 5.16-8.933zm3.22 3.715-3.61 6.25 5.228 3.974 2.252-3.9zm-16.427 1.856c-1.335.583-2.36 1.373-3.077 2.334l5.196 2.997c.477-1.102.656-2.379.505-3.817zm-3.568 3.33L8 30.792v2.215l5.097-8.813zm10.059.414c-1.335.584-2.36 1.373-3.077 2.334l5.196 2.998c.477-1.103.656-2.38.504-3.819zm-8.022.762L8.83 34.002h1.284l5.023-8.632zm2.045 1.18L11.6 34.001h1.28l4.297-7.455zm2.425 1.399L14.89 34h1.277l3.438-6.054zm2.045 1.18L17.656 34h1.27l2.723-4.875zm2.045 1.18-2.312 4.249h1.265l2.01-3.695z"/></g><g filter="url(#d)"><path fill="#e8e8e8" d="M44.404 26.5h-1.98l4.45-12.363h2.154l4.45 12.364h-1.98l-3.496-10.118h-.096zm.332-4.841h6.424v1.57h-6.424zm17.153-4.431L58.526 26.5h-1.932l-3.368-9.273h1.938l2.348 7.136h.096l2.343-7.136zm4.129 9.478a3.8 3.8 0 0 1-1.594-.326 2.7 2.7 0 0 1-1.129-.96q-.41-.628-.41-1.54 0-.784.302-1.291.301-.507.814-.803a4.3 4.3 0 0 1 1.148-.447q.633-.15 1.291-.23l1.353-.156q.519-.066.754-.212.236-.144.236-.47v-.043q0-.79-.447-1.225-.44-.435-1.316-.435-.912 0-1.437.405-.519.398-.718.887l-1.696-.386q.301-.845.88-1.365.587-.525 1.347-.76a5.3 5.3 0 0 1 1.6-.242q.556 0 1.177.133.628.128 1.171.47.55.345.9.985.35.634.35 1.648v6.158H68.83v-1.268h-.072a2.6 2.6 0 0 1-.526.688 2.8 2.8 0 0 1-.9.562q-.548.222-1.315.223m.392-1.449q.75 0 1.28-.296a2.07 2.07 0 0 0 .815-.772q.284-.484.284-1.033v-1.195q-.098.097-.374.181a6 6 0 0 1-.622.139l-.682.103-.556.072q-.525.067-.96.223a1.65 1.65 0 0 0-.688.453q-.254.289-.254.773 0 .67.496 1.014.495.338 1.261.338m6.588 1.244v-9.273h1.805V26.5zm.912-10.704q-.471 0-.81-.314a1.02 1.02 0 0 1-.331-.76q0-.447.332-.761.338-.32.809-.32.47 0 .803.32a1 1 0 0 1 .338.76q0 .441-.338.761-.333.315-.803.314m5.127-1.66v12.364H77.23V14.137zm5.126 12.569a3.8 3.8 0 0 1-1.593-.326 2.7 2.7 0 0 1-1.13-.96q-.41-.628-.41-1.54 0-.784.302-1.291t.815-.803a4.3 4.3 0 0 1 1.147-.447q.634-.15 1.292-.23l1.352-.156q.52-.066.755-.212.235-.144.235-.47v-.043q0-.79-.446-1.225-.441-.435-1.317-.435-.91 0-1.436.405-.52.398-.719.887l-1.696-.386q.302-.845.881-1.365.586-.525 1.347-.76a5.3 5.3 0 0 1 1.6-.242q.555 0 1.177.133.627.128 1.17.47.55.345.9.985.35.634.35 1.648v6.158h-1.762v-1.268h-.073a2.6 2.6 0 0 1-.525.688 2.8 2.8 0 0 1-.9.562q-.55.222-1.316.223m.393-1.449q.748 0 1.28-.296a2.07 2.07 0 0 0 .815-.772q.283-.484.283-1.033v-1.195q-.096.097-.374.181a6 6 0 0 1-.622.139l-.682.103-.555.072q-.525.067-.96.223a1.65 1.65 0 0 0-.688.453q-.255.289-.254.773 0 .67.495 1.014.494.338 1.262.338m6.733 1.244V14.137h1.805v4.594h.108q.157-.29.453-.67.295-.38.821-.664.525-.29 1.389-.29 1.122 0 2.004.568.88.567 1.382 1.636.507 1.069.507 2.571t-.5 2.578q-.502 1.069-1.377 1.648-.876.574-1.998.574-.846 0-1.383-.284a2.6 2.6 0 0 1-.833-.664 5 5 0 0 1-.465-.676h-.15V26.5zm1.768-4.637q0 .978.284 1.715.284.736.821 1.153.537.41 1.316.41.81 0 1.352-.428.544-.435.821-1.177.284-.743.284-1.673 0-.916-.278-1.648-.27-.73-.82-1.153-.544-.422-1.359-.422-.785 0-1.328.404-.537.405-.815 1.129t-.278 1.69m10.533-7.727v12.364h-1.805V14.137zm6.425 12.55q-1.37 0-2.36-.585a3.97 3.97 0 0 1-1.522-1.66q-.531-1.074-.531-2.517 0-1.425.531-2.512a4.13 4.13 0 0 1 1.497-1.696q.966-.61 2.258-.61.785 0 1.522.26.736.259 1.322.815.585.555.923 1.443.339.881.338 2.143v.64h-7.371v-1.353h5.603q0-.712-.29-1.261a2.2 2.2 0 0 0-.815-.876q-.52-.32-1.22-.32-.76 0-1.328.375a2.5 2.5 0 0 0-.869.966 2.8 2.8 0 0 0-.302 1.285v1.057q0 .93.326 1.582.332.651.924.996.591.338 1.382.338.513 0 .936-.145.423-.15.73-.447.309-.295.471-.73l1.709.308a3.1 3.1 0 0 1-.737 1.322 3.6 3.6 0 0 1-1.322.875q-.79.308-1.805.308m14.386 0q-1.304 0-2.276-.597a4.03 4.03 0 0 1-1.509-1.672q-.537-1.075-.537-2.511 0-1.443.537-2.524a4 4 0 0 1 1.509-1.678q.972-.598 2.276-.598t2.276.598a4 4 0 0 1 1.509 1.678q.537 1.08.537 2.524 0 1.436-.537 2.51a4.03 4.03 0 0 1-1.509 1.673q-.972.598-2.276.598m.006-1.515q.845 0 1.401-.446.555-.447.821-1.19.271-.742.271-1.636 0-.886-.271-1.63-.266-.748-.821-1.2-.556-.454-1.401-.454-.85 0-1.413.453-.555.453-.827 1.202a4.8 4.8 0 0 0-.265 1.63q0 .892.265 1.636.272.742.827 1.189.563.447 1.413.447m8.136-4.177v5.506h-1.805v-9.273h1.733v1.51h.115a2.65 2.65 0 0 1 1.002-1.184q.688-.447 1.732-.447.949 0 1.66.399.713.392 1.105 1.17.393.78.393 1.927V26.5h-1.805v-5.68q0-1.008-.526-1.576-.525-.573-1.442-.573-.628 0-1.117.271a1.95 1.95 0 0 0-.767.797q-.278.52-.278 1.256"/><path fill="#6e93b7" d="M149.96 14.137h2.946v8.548q-.006 1.202-.574 2.101a3.8 3.8 0 0 1-1.569 1.389q-.996.495-2.306.495-1.16 0-2.107-.405a3.34 3.34 0 0 1-1.503-1.256q-.556-.85-.55-2.179h2.976q.019.477.182.815.168.333.464.501.297.17.707.17.429 0 .724-.182.295-.187.447-.55.157-.36.163-.899zm4.822 12.364v-9.273h2.952V26.5zm1.479-10.354q-.622 0-1.069-.41a1.32 1.32 0 0 1-.446-1.002q0-.58.446-.99a1.5 1.5 0 0 1 1.069-.417q.629 0 1.068.417.447.41.447.99 0 .585-.447 1.002-.44.41-1.068.41m8.586 1.08v2.174h-5.85v-2.173zm-4.624-2.22h2.952v8.578q0 .271.084.44a.53.53 0 0 0 .26.236q.169.066.404.066.17 0 .357-.03.192-.036.289-.06l.447 2.13q-.211.061-.598.152-.38.09-.911.115-1.038.048-1.781-.242a2.3 2.3 0 0 1-1.129-.918q-.387-.621-.374-1.563zm6.329 11.494V14.137h5.108q1.388 0 2.396.543 1.014.538 1.564 1.504.549.96.549 2.233 0 1.28-.561 2.24-.555.954-1.588 1.479t-2.451.525h-3.151v-2.354h2.596q.675 0 1.129-.236a1.6 1.6 0 0 0 .694-.658q.235-.428.235-.996 0-.573-.235-.99a1.6 1.6 0 0 0-.694-.652q-.46-.23-1.129-.23h-1.473v9.956zm13.372.157q-.887 0-1.575-.296a2.46 2.46 0 0 1-1.081-.906q-.392-.609-.392-1.527 0-.773.271-1.304a2.3 2.3 0 0 1 .749-.863 3.5 3.5 0 0 1 1.099-.501 7 7 0 0 1 1.328-.236q.79-.072 1.273-.15.483-.086.701-.236a.51.51 0 0 0 .223-.44v-.031q0-.466-.32-.718-.32-.255-.863-.254-.586 0-.942.253-.356.255-.453.7l-2.722-.096q.12-.844.621-1.509.508-.67 1.389-1.05.888-.387 2.131-.387.888 0 1.636.212.749.205 1.304.603.555.393.857.966.308.574.308 1.31v6.303h-2.777v-1.292h-.072a2.6 2.6 0 0 1-.634.797q-.381.325-.9.489a3.8 3.8 0 0 1-1.159.163m.912-1.932q.477 0 .857-.193.387-.194.616-.532.23-.344.229-.797v-.88a1.7 1.7 0 0 1-.308.12 5 5 0 0 1-.386.103 7 7 0 0 1-.435.084l-.428.066a2.7 2.7 0 0 0-.713.206 1.1 1.1 0 0 0-.446.362.9.9 0 0 0-.151.519q0 .46.326.7.332.242.839.242m10.764 1.95q-1.467 0-2.518-.604a4.1 4.1 0 0 1-1.606-1.678q-.561-1.08-.561-2.5 0-1.424.561-2.499a4.1 4.1 0 0 1 1.612-1.684q1.051-.604 2.506-.604 1.285 0 2.239.465.96.465 1.497 1.316.544.845.574 1.986h-2.759q-.084-.712-.483-1.117-.392-.404-1.026-.404a1.46 1.46 0 0 0-.9.29q-.386.283-.603.845-.212.555-.212 1.376t.212 1.389q.218.561.603.851.387.285.9.284.41 0 .724-.175.32-.175.526-.514a2.1 2.1 0 0 0 .259-.833h2.759q-.042 1.147-.574 2.005a3.55 3.55 0 0 1-1.479 1.334q-.947.47-2.251.47m8.477-2.608.012-3.52h.411l2.608-3.32h3.344l-3.876 4.757h-.778zm-2.662 2.433V14.137h2.952v12.364zm5.759 0-2.427-3.852 1.944-2.095 3.894 5.947z"/></g></g><rect width="212.858" height="37.858" x="1.071" y="1.071" stroke="#fff" stroke-opacity=".15" stroke-width="2.143" rx="6.929"/><defs><filter id="c" width="39.202" height="39.202" x="2.4" y=".4" color-interpolation-filters="sRGB" filterUnits="userSpaceOnUse"><feFlood flood-opacity="0" result="BackgroundImageFix"/><feColorMatrix in="SourceAlpha" result="hardAlpha" values="0 0 0 0 0 0 0 0 0 0 0 0 0 0 0 0 0 0 127 0"/><feOffset/><feGaussianBlur stdDeviation="2.8"/><feComposite in2="hardAlpha" operator="out"/><feColorMatrix values="0 0 0 0 0 0 0 0 0 0 0 0 0 0 0 0 0 0 0.25 0"/><feBlend in2="BackgroundImageFix" result="effect1_dropShadow_28_2654"/><feBlend in="SourceGraphic" in2="effect1_dropShadow_28_2654" result="shape"/></filter><filter id="d" width="176.429" height="32.429" x="36.287" y="3.786" color-interpolation-filters="sRGB" filterUnits="userSpaceOnUse"><feFlood flood-opacity="0" result="BackgroundImageFix"/><feColorMatrix in="SourceAlpha" result="hardAlpha" values="0 0 0 0 0 0 0 0 0 0 0 0 0 0 0 0 0 0 127 0"/><feOffset/><feGaussianBlur stdDeviation="2.857"/><feComposite in2="hardAlpha" operator="out"/><feColorMatrix values="0 0 0 0 0 0 0 0 0 0 0 0 0 0 0 0 0 0 0.25 0"/><feBlend in2="BackgroundImageFix" result="effect1_dropShadow_28_2654"/><feBlend in="SourceGraphic" in2="effect1_dropShadow_28_2654" result="shape"/></filter><linearGradient id="b" x1="107.501" x2="107.501" y1="0" y2="40.001" gradientUnits="userSpaceOnUse"><stop stop-color="#1e2833"/><stop offset="1" stop-color="#141b22"/></linearGradient><clipPath id="a"><rect width="215.001" height="40.001" fill="#fff" rx="8"/></clipPath></defs></svg>