<svg xmlns="http://www.w3.org/2000/svg" width="241" height="40" fill="none" viewBox="0 0 241 40"><rect width="241.001" height="40.001" fill="url(#a)" rx="8"/><rect width="238.858" height="37.858" x="1.071" y="1.071" stroke="#fff" stroke-opacity=".15" stroke-width="2.143" rx="6.929"/><g filter="url(#b)"><path fill="#fff" d="M8.967 11v.505c3.526 2.64 2.758 14.325.983 18.17h-.49l-1.968-1.01L7 30.684c2.622 1.133 4.729-.933 5.573-3.533 1.656-5.097.21-11.081 1.804-16.15zm6.885 0v.505c3.15 2.359 3.974 6.877 5.083 10.599.52 1.745.499 3.866 2.295 4.542l2.95-9.085h.493l2.95 9.085h.492c2.082-4.776 2.528-11.878 6.886-15.14V11h-5.41l1.475 1.01-2.459 9.589C28.757 17.8 27.86 14.679 29.132 11h-5.41l2.13 4.374-2.13 6.73h-.492L21.754 11z"/></g><g filter="url(#c)"><path fill="#e8e8e8" d="M44.404 26.5h-1.98l4.45-12.363h2.154l4.45 12.364h-1.98l-3.496-10.118h-.096zm.332-4.84h6.424v1.569h-6.424zm17.153-4.432-3.363 9.273h-1.932l-3.368-9.273h1.938l2.348 7.136h.096l2.343-7.136zm4.129 9.478a3.8 3.8 0 0 1-1.594-.326 2.7 2.7 0 0 1-1.129-.96q-.41-.627-.41-1.54 0-.784.302-1.291.301-.507.814-.803a4.3 4.3 0 0 1 1.148-.447q.633-.15 1.291-.23l1.353-.156q.519-.066.754-.212.236-.144.236-.47v-.043q0-.79-.447-1.225-.44-.435-1.316-.435-.912 0-1.437.405-.519.398-.718.887l-1.696-.386q.301-.845.88-1.365.587-.525 1.347-.76a5.3 5.3 0 0 1 1.6-.242q.556 0 1.177.133.628.128 1.171.471.55.344.9.984.35.634.35 1.648v6.158H68.83v-1.268h-.072a2.6 2.6 0 0 1-.526.688 2.8 2.8 0 0 1-.9.562q-.548.222-1.315.223m.392-1.449q.75 0 1.28-.296.537-.295.815-.772.284-.483.284-1.033v-1.195q-.098.096-.374.181a6 6 0 0 1-.622.139l-.682.103-.556.072q-.525.066-.96.223a1.65 1.65 0 0 0-.688.453q-.254.289-.254.773 0 .67.496 1.014.495.338 1.261.338m6.588 1.244v-9.273h1.805v9.273zm.912-10.704q-.471 0-.81-.314a1.02 1.02 0 0 1-.331-.76q0-.447.332-.761.338-.32.809-.32.47 0 .803.32a1 1 0 0 1 .338.76q0 .442-.338.761-.333.315-.803.314m5.127-1.66v12.364H77.23V14.137zm5.126 12.569a3.8 3.8 0 0 1-1.593-.326 2.7 2.7 0 0 1-1.13-.96q-.41-.627-.41-1.54 0-.784.302-1.291t.815-.803a4.3 4.3 0 0 1 1.147-.447q.634-.15 1.292-.23l1.352-.156q.52-.066.755-.212.235-.144.235-.47v-.043q0-.79-.446-1.225-.441-.435-1.317-.435-.91 0-1.436.405-.52.398-.719.887l-1.696-.386q.302-.845.881-1.365.586-.525 1.347-.76a5.3 5.3 0 0 1 1.6-.242q.555 0 1.177.133.627.128 1.17.471.55.344.9.984.35.634.35 1.648v6.158h-1.762v-1.268h-.073a2.6 2.6 0 0 1-.525.688 2.8 2.8 0 0 1-.9.562q-.55.222-1.316.223m.393-1.449q.748 0 1.28-.296.537-.295.815-.772.283-.483.283-1.033v-1.195q-.096.096-.374.181a6 6 0 0 1-.622.139l-.682.103-.555.072q-.525.066-.96.223a1.65 1.65 0 0 0-.688.453q-.255.289-.254.773 0 .67.495 1.014.494.338 1.262.338m6.733 1.244V14.137h1.805v4.594h.108q.157-.29.453-.67.295-.38.821-.664.525-.29 1.389-.29 1.122 0 2.004.568.88.567 1.382 1.636.507 1.069.507 2.572 0 1.502-.5 2.577-.502 1.07-1.377 1.648-.876.574-1.998.574-.846 0-1.383-.284a2.6 2.6 0 0 1-.833-.664 5 5 0 0 1-.465-.676h-.15V26.5zm1.768-4.637q0 .978.284 1.715.284.735.821 1.153.537.41 1.316.41.81 0 1.352-.428.544-.435.821-1.177.284-.743.284-1.673 0-.916-.278-1.648-.27-.73-.82-1.153-.544-.422-1.359-.422-.785 0-1.328.404-.537.405-.815 1.129t-.278 1.69m10.533-7.727v12.364h-1.805V14.137zm6.425 12.55q-1.37 0-2.36-.585a3.97 3.97 0 0 1-1.522-1.66q-.531-1.074-.531-2.517 0-1.425.531-2.512a4.13 4.13 0 0 1 1.497-1.696q.966-.61 2.258-.61.785 0 1.522.26a3.7 3.7 0 0 1 1.322.815q.585.555.923 1.443.339.881.338 2.143v.64h-7.371v-1.353h5.603q0-.712-.29-1.261a2.2 2.2 0 0 0-.815-.876q-.52-.32-1.22-.32-.76 0-1.328.375a2.5 2.5 0 0 0-.869.966 2.8 2.8 0 0 0-.302 1.285v1.057q0 .93.326 1.582.332.651.924.996.591.338 1.382.338.513 0 .936-.145.423-.15.73-.447.309-.295.471-.73l1.709.308a3.1 3.1 0 0 1-.737 1.322 3.6 3.6 0 0 1-1.322.875q-.79.308-1.805.308m14.386 0q-1.304 0-2.276-.597a4.03 4.03 0 0 1-1.509-1.672q-.537-1.074-.537-2.511 0-1.443.537-2.524a4 4 0 0 1 1.509-1.678q.972-.597 2.276-.598 1.304 0 2.276.598a4 4 0 0 1 1.509 1.678q.537 1.08.537 2.524 0 1.436-.537 2.511a4.03 4.03 0 0 1-1.509 1.672q-.972.598-2.276.598m.006-1.514q.845 0 1.401-.447a2.6 2.6 0 0 0 .821-1.19q.271-.742.271-1.635 0-.888-.271-1.63a2.66 2.66 0 0 0-.821-1.202q-.556-.453-1.401-.453-.85 0-1.413.453-.555.453-.827 1.202a4.8 4.8 0 0 0-.265 1.63q0 .892.265 1.636.272.742.827 1.189.563.447 1.413.447m8.136-4.178v5.506h-1.805V17.23h1.733v1.51h.115a2.65 2.65 0 0 1 1.002-1.184q.688-.447 1.732-.447.949 0 1.66.399.713.392 1.105 1.17.393.78.393 1.927V26.5h-1.805v-5.68q0-1.008-.526-1.576-.525-.573-1.442-.573-.628 0-1.117.271a1.95 1.95 0 0 0-.767.797q-.278.52-.278 1.256"/><path fill="#fff" d="M149.96 14.137h2.946v8.548q-.006 1.202-.574 2.101a3.8 3.8 0 0 1-1.569 1.389q-.996.495-2.306.495-1.16 0-2.107-.405a3.34 3.34 0 0 1-1.503-1.255q-.556-.852-.55-2.18h2.976q.019.477.182.815.168.333.464.501.297.17.707.17.429 0 .724-.182.295-.187.447-.55.157-.36.163-.899zm7.786 12.364-3.598-12.364h3.302l1.866 8.102h.102l2.131-8.102h2.693l2.131 8.12h.102l1.872-8.12h3.296l-3.592 12.364h-2.88l-2.227-7.498h-.097L160.62 26.5zm15.132 0V14.137h5.107q1.388 0 2.397.543 1.014.538 1.563 1.504.549.96.549 2.233 0 1.28-.561 2.24a3.76 3.76 0 0 1-1.588 1.479q-1.032.525-2.451.525h-3.151v-2.354h2.596q.676 0 1.129-.236.459-.235.694-.658.235-.427.235-.996 0-.573-.235-.99a1.6 1.6 0 0 0-.694-.652q-.459-.23-1.129-.23h-1.473v9.956zm15.241.175q-1.455 0-2.511-.574a3.97 3.97 0 0 1-1.618-1.648q-.561-1.074-.561-2.553 0-1.437.567-2.512.567-1.08 1.6-1.678 1.032-.604 2.433-.604.99 0 1.811.308.82.308 1.419.912.597.604.929 1.49.333.883.332 2.023v.737h-8.059v-1.715h5.312a1.66 1.66 0 0 0-.223-.839 1.5 1.5 0 0 0-.598-.573 1.7 1.7 0 0 0-.863-.212q-.495 0-.887.224a1.64 1.64 0 0 0-.622.597q-.229.375-.242.851v1.745q0 .567.224.996.223.423.634.658.41.236.978.236.392 0 .712-.109.32-.108.549-.32.23-.21.345-.519l2.71.078a3.36 3.36 0 0 1-.742 1.588q-.568.67-1.492 1.044-.923.369-2.137.369m5.909 3.302v-12.75h2.922v1.588h.09q.181-.423.514-.815.338-.393.857-.64.525-.255 1.255-.254.966 0 1.806.507.845.508 1.364 1.564t.519 2.692q0 1.575-.501 2.639-.495 1.063-1.34 1.593a3.4 3.4 0 0 1-1.866.532q-.7 0-1.213-.23a2.6 2.6 0 0 1-.863-.604 2.9 2.9 0 0 1-.532-.803h-.06v4.981zm2.892-8.114q0 .75.199 1.304.206.555.585.864.387.301.924.302.543 0 .924-.302.38-.308.573-.864.2-.555.2-1.304 0-.748-.2-1.298-.193-.55-.573-.85-.375-.303-.924-.303-.543 0-.924.296-.38.297-.585.845-.2.55-.199 1.31m7.982 8.114v-12.75h2.922v1.588h.09q.181-.423.514-.815.338-.393.857-.64.525-.255 1.256-.254.965 0 1.805.507.845.508 1.364 1.564t.519 2.692q0 1.575-.501 2.639-.495 1.063-1.34 1.593a3.4 3.4 0 0 1-1.866.532q-.7 0-1.213-.23a2.6 2.6 0 0 1-.863-.604 2.9 2.9 0 0 1-.532-.803h-.06v4.981zm2.892-8.114q0 .75.199 1.304.205.555.586.864.386.301.923.302.543 0 .924-.302.38-.308.573-.864.2-.555.2-1.304 0-.748-.2-1.298-.193-.55-.573-.85-.375-.303-.924-.303-.543 0-.923.296-.38.297-.586.845-.2.55-.199 1.31m12.317 4.812q-1.455 0-2.512-.574a3.97 3.97 0 0 1-1.618-1.648q-.561-1.074-.561-2.553 0-1.437.567-2.512.568-1.08 1.6-1.678 1.032-.604 2.433-.604.99 0 1.811.308.82.308 1.419.912.597.604.929 1.49.333.883.332 2.023v.737h-8.059v-1.715h5.313a1.66 1.66 0 0 0-.224-.839 1.5 1.5 0 0 0-.597-.573 1.73 1.73 0 0 0-.864-.212q-.495 0-.887.224a1.68 1.68 0 0 0-.863 1.449v1.744q0 .567.223.996.223.423.634.658t.978.236q.392 0 .712-.109.32-.108.55-.32.229-.21.344-.519l2.71.078a3.35 3.35 0 0 1-.742 1.588q-.569.67-1.491 1.044-.925.369-2.137.369m5.908-.175v-9.273h2.868v1.69h.096q.254-.917.827-1.364a2.1 2.1 0 0 1 1.335-.453q.204 0 .422.03.218.025.405.079v2.566a3 3 0 0 0-.556-.115 5 5 0 0 0-.603-.042 1.9 1.9 0 0 0-.948.235 1.7 1.7 0 0 0-.658.646 1.9 1.9 0 0 0-.236.966V26.5z"/></g><defs><filter id="b" width="41.202" height="39.202" x="1.399" y=".4" color-interpolation-filters="sRGB" filterUnits="userSpaceOnUse"><feFlood flood-opacity="0" result="BackgroundImageFix"/><feColorMatrix in="SourceAlpha" result="hardAlpha" values="0 0 0 0 0 0 0 0 0 0 0 0 0 0 0 0 0 0 127 0"/><feOffset/><feGaussianBlur stdDeviation="2.8"/><feComposite in2="hardAlpha" operator="out"/><feColorMatrix values="0 0 0 0 0 0 0 0 0 0 0 0 0 0 0 0 0 0 0.25 0"/><feBlend in2="BackgroundImageFix" result="effect1_dropShadow_1_92"/><feBlend in="SourceGraphic" in2="effect1_dropShadow_1_92" result="shape"/></filter><filter id="c" width="202.429" height="32.429" x="36.287" y="3.786" color-interpolation-filters="sRGB" filterUnits="userSpaceOnUse"><feFlood flood-opacity="0" result="BackgroundImageFix"/><feColorMatrix in="SourceAlpha" result="hardAlpha" values="0 0 0 0 0 0 0 0 0 0 0 0 0 0 0 0 0 0 127 0"/><feOffset/><feGaussianBlur stdDeviation="2.857"/><feComposite in2="hardAlpha" operator="out"/><feColorMatrix values="0 0 0 0 0 0 0 0 0 0 0 0 0 0 0 0 0 0 0.25 0"/><feBlend in2="BackgroundImageFix" result="effect1_dropShadow_1_92"/><feBlend in="SourceGraphic" in2="effect1_dropShadow_1_92" result="shape"/></filter><linearGradient id="a" x1="120.501" x2="120.501" y1="0" y2="40.001" gradientUnits="userSpaceOnUse"><stop stop-color="#3a0809"/><stop offset="1" stop-color="#230506"/></linearGradient></defs></svg>