<svg xmlns="http://www.w3.org/2000/svg" width="276" height="40" fill="none" viewBox="0 0 276 40"><g clip-path="url(#a)"><rect width="276.001" height="40.001" fill="url(#b)" rx="8"/><g filter="url(#c)"><path fill="#fff" d="M32.767 14.847c-.164.126-3.058 1.742-3.058 5.334 0 4.156 3.682 5.627 3.792 5.663-.017.09-.585 2.013-1.94 3.974-1.21 1.725-2.473 3.447-4.394 3.447s-2.416-1.106-4.634-1.106c-2.161 0-2.93 1.142-4.687 1.142s-2.984-1.596-4.393-3.556c-1.634-2.302-2.953-5.878-2.953-9.272 0-5.444 3.571-8.332 7.086-8.332 1.867 0 3.424 1.216 4.597 1.216 1.116 0 2.856-1.288 4.98-1.288.806 0 3.7.072 5.604 2.778m-6.612-5.083c.879-1.033 1.5-2.467 1.5-3.901 0-.199-.016-.4-.053-.563-1.43.053-3.13.944-4.156 2.123-.806.907-1.557 2.34-1.557 3.794 0 .219.037.437.054.507.09.017.237.037.384.037 1.283 0 2.896-.852 3.828-1.997"/></g><g filter="url(#d)"><path fill="#e8e8e8" d="M44.404 26.5h-1.98l4.45-12.363h2.154l4.45 12.364h-1.98l-3.496-10.118h-.096zm.332-4.84h6.424v1.569h-6.424zm17.153-4.432-3.363 9.273h-1.932l-3.368-9.273h1.938l2.348 7.136h.096l2.343-7.136zm4.129 9.478a3.8 3.8 0 0 1-1.594-.326 2.7 2.7 0 0 1-1.129-.96q-.41-.628-.41-1.54 0-.784.302-1.291.301-.507.814-.803a4.3 4.3 0 0 1 1.148-.447q.633-.15 1.291-.23l1.353-.156q.519-.066.754-.212.236-.144.236-.47v-.043q0-.79-.447-1.225-.44-.435-1.316-.435-.912 0-1.437.405-.519.398-.718.887l-1.696-.386q.301-.845.88-1.365.587-.525 1.347-.76a5.3 5.3 0 0 1 1.6-.242q.556 0 1.177.133.628.128 1.171.47.55.345.9.985.35.634.35 1.648v6.158H68.83v-1.268h-.072a2.6 2.6 0 0 1-.526.688 2.8 2.8 0 0 1-.9.562q-.548.222-1.315.223m.392-1.449q.75 0 1.28-.296.537-.295.815-.772.284-.483.284-1.033v-1.195q-.098.097-.374.181a6 6 0 0 1-.622.139l-.682.103-.556.072q-.525.066-.96.223a1.65 1.65 0 0 0-.688.453q-.254.289-.254.773 0 .67.496 1.014.495.338 1.261.338m6.588 1.244v-9.273h1.805v9.273zm.912-10.704q-.471 0-.81-.314a1.02 1.02 0 0 1-.331-.76q0-.447.332-.761.338-.32.809-.32.47 0 .803.32a1 1 0 0 1 .338.76q0 .441-.338.761-.333.315-.803.314m5.127-1.66v12.364H77.23V14.137zm5.126 12.569a3.8 3.8 0 0 1-1.593-.326 2.7 2.7 0 0 1-1.13-.96q-.41-.628-.41-1.54 0-.784.302-1.291t.815-.803a4.3 4.3 0 0 1 1.147-.447q.634-.15 1.292-.23l1.352-.156q.52-.066.755-.212.235-.144.235-.47v-.043q0-.79-.446-1.225-.441-.435-1.317-.435-.91 0-1.436.405-.52.398-.719.887l-1.696-.386q.302-.845.881-1.365.586-.525 1.347-.76a5.3 5.3 0 0 1 1.6-.242q.555 0 1.177.133.627.128 1.17.47.55.345.9.985.35.634.35 1.648v6.158h-1.762v-1.268h-.073a2.6 2.6 0 0 1-.525.688 2.8 2.8 0 0 1-.9.562q-.55.222-1.316.223m.393-1.449q.748 0 1.28-.296.537-.295.815-.772.283-.483.283-1.033v-1.195q-.096.097-.374.181a6 6 0 0 1-.622.139l-.682.103-.555.072q-.525.066-.96.223a1.65 1.65 0 0 0-.688.453q-.255.289-.254.773 0 .67.495 1.014.494.338 1.262.338m6.733 1.244V14.137h1.805v4.594h.108q.157-.29.453-.67.295-.38.821-.664.525-.29 1.389-.29 1.122 0 2.004.568.88.567 1.382 1.636.507 1.069.507 2.571 0 1.504-.5 2.578-.502 1.07-1.377 1.648-.876.574-1.998.574-.846 0-1.383-.284a2.6 2.6 0 0 1-.833-.664 5 5 0 0 1-.465-.676h-.15V26.5zm1.768-4.637q0 .978.284 1.715.284.736.821 1.153.537.41 1.316.41.81 0 1.352-.428.544-.435.821-1.177.284-.743.284-1.673 0-.916-.278-1.648-.27-.73-.82-1.153-.544-.422-1.359-.422-.785 0-1.328.404-.537.405-.815 1.129t-.278 1.69m10.533-7.727v12.364h-1.805V14.137zm6.425 12.55q-1.37 0-2.36-.585a3.97 3.97 0 0 1-1.522-1.66q-.531-1.074-.531-2.517 0-1.425.531-2.512a4.13 4.13 0 0 1 1.497-1.696q.966-.61 2.258-.61a4.6 4.6 0 0 1 1.522.26 3.7 3.7 0 0 1 1.322.815q.585.555.923 1.443.339.881.338 2.143v.64h-7.371v-1.353h5.603q0-.712-.29-1.261a2.2 2.2 0 0 0-.815-.876q-.52-.32-1.22-.32-.76 0-1.328.375a2.5 2.5 0 0 0-.869.966 2.8 2.8 0 0 0-.302 1.285v1.057q0 .93.326 1.582.332.651.924.996.591.338 1.382.338.513 0 .936-.145.423-.15.73-.447.309-.295.471-.73l1.709.308a3.1 3.1 0 0 1-.737 1.322 3.6 3.6 0 0 1-1.322.875q-.79.308-1.805.308m14.386 0q-1.304 0-2.276-.597a4.03 4.03 0 0 1-1.509-1.672q-.537-1.074-.537-2.511 0-1.443.537-2.524a4 4 0 0 1 1.509-1.678q.972-.597 2.276-.598 1.304 0 2.276.598a4 4 0 0 1 1.509 1.678q.537 1.08.537 2.524 0 1.436-.537 2.511a4.03 4.03 0 0 1-1.509 1.672q-.972.598-2.276.598m.006-1.514q.845 0 1.401-.447.555-.447.821-1.19.271-.742.271-1.635 0-.888-.271-1.63-.266-.75-.821-1.202-.556-.453-1.401-.453-.85 0-1.413.453-.555.453-.827 1.202a4.8 4.8 0 0 0-.265 1.63q0 .892.265 1.636.272.742.827 1.189.563.447 1.413.447m8.136-4.178v5.506h-1.805V17.23h1.733v1.51h.115a2.65 2.65 0 0 1 1.002-1.184q.688-.447 1.732-.447.949 0 1.66.399.713.392 1.105 1.17.393.78.393 1.927V26.5h-1.805v-5.68q0-1.008-.526-1.576-.525-.573-1.442-.573-.628 0-1.117.271a1.95 1.95 0 0 0-.767.797q-.278.52-.278 1.256"/><path fill="#fff" d="M144.937 14.137h3.701l3.139 7.655h.145l3.139-7.655h3.701v12.364h-2.91v-7.595h-.103l-2.97 7.516h-1.859l-2.97-7.558h-.103v7.637h-2.91zm18.303 12.52q-.888 0-1.576-.295a2.46 2.46 0 0 1-1.081-.906q-.392-.609-.392-1.527 0-.773.272-1.304.271-.531.748-.863a3.5 3.5 0 0 1 1.099-.501 7 7 0 0 1 1.328-.236q.79-.072 1.274-.15.483-.086.7-.236a.51.51 0 0 0 .224-.44v-.031q0-.465-.32-.718-.32-.255-.864-.254-.585 0-.941.254a1.1 1.1 0 0 0-.453.7l-2.723-.097a3.2 3.2 0 0 1 .622-1.509q.507-.67 1.388-1.05.888-.387 2.131-.387.888 0 1.636.212.75.205 1.304.603.556.393.858.966.308.574.308 1.31v6.303h-2.777v-1.292h-.073q-.247.471-.634.797-.38.325-.899.489a3.8 3.8 0 0 1-1.159.163m.911-1.931q.477 0 .857-.193.387-.194.616-.532.23-.344.23-.797v-.88a2 2 0 0 1-.308.12q-.175.054-.387.103a7 7 0 0 1-.434.084l-.429.066a2.7 2.7 0 0 0-.712.206 1.13 1.13 0 0 0-.447.362.9.9 0 0 0-.151.52q0 .457.326.7.332.24.839.24m10.764 1.95q-1.467 0-2.517-.604a4.1 4.1 0 0 1-1.606-1.678q-.562-1.08-.562-2.5 0-1.424.562-2.499a4.1 4.1 0 0 1 1.612-1.684q1.05-.603 2.505-.604 1.286 0 2.24.465a3.56 3.56 0 0 1 1.497 1.316q.543.846.573 1.986h-2.758q-.085-.712-.483-1.117-.393-.404-1.027-.404-.513 0-.899.29-.387.283-.604.845-.211.555-.211 1.376t.211 1.389q.217.561.604.851.386.285.899.284.41 0 .725-.175.32-.175.525-.513.205-.345.26-.834h2.758q-.042 1.147-.573 2.005a3.55 3.55 0 0 1-1.479 1.334q-.948.47-2.252.47m12.142-.175h-3.212l4.172-12.364h3.978l4.172 12.364h-3.212l-2.904-9.249h-.096zm-.429-4.866h6.713v2.27h-6.713zm10.87 8.343v-12.75h2.922v1.588h.09q.181-.423.513-.815.338-.393.858-.64.525-.255 1.255-.254.966 0 1.805.507.845.508 1.365 1.564.519 1.056.519 2.692 0 1.575-.501 2.639-.495 1.063-1.34 1.593a3.4 3.4 0 0 1-1.866.532q-.7 0-1.213-.23a2.7 2.7 0 0 1-.864-.604 2.9 2.9 0 0 1-.531-.803h-.06v4.981zm2.891-8.114q0 .75.2 1.304.205.555.585.864.387.3.924.301.543 0 .924-.301.38-.308.573-.864.2-.555.199-1.304 0-.748-.199-1.298-.194-.55-.573-.85-.375-.303-.924-.303-.543 0-.924.296-.38.297-.585.845-.2.55-.2 1.31m7.983 8.114v-12.75h2.922v1.588h.09q.181-.423.513-.815.338-.393.858-.64.525-.255 1.255-.254.966 0 1.805.507.846.508 1.365 1.564t.519 2.692q0 1.575-.501 2.639-.495 1.063-1.34 1.593a3.4 3.4 0 0 1-1.866.532q-.7 0-1.213-.23a2.7 2.7 0 0 1-.864-.604 2.9 2.9 0 0 1-.531-.803h-.06v4.981zm2.891-8.114q0 .75.2 1.304.205.555.585.864.387.3.924.301.543 0 .924-.301.38-.308.573-.864.2-.555.199-1.304 0-.748-.199-1.298-.193-.55-.573-.85-.375-.303-.924-.303-.543 0-.924.296-.38.297-.585.845-.2.55-.2 1.31m18.318-4.02q-.06-.664-.537-1.033-.471-.374-1.347-.374-.58 0-.965.151-.387.15-.58.417a1 1 0 0 0-.199.597.9.9 0 0 0 .108.49q.127.21.363.373.242.158.579.278.339.12.761.212l1.062.241q.918.2 1.618.531.707.333 1.184.791.482.459.73 1.057.247.597.254 1.34-.007 1.17-.592 2.01t-1.684 1.286q-1.093.447-2.639.447-1.55 0-2.704-.465-1.153-.465-1.793-1.413t-.658-2.396h2.861q.037.597.32.996.285.398.779.603.502.206 1.159.206.604 0 1.027-.163.428-.164.658-.453.228-.29.235-.664a.9.9 0 0 0-.217-.598q-.212-.253-.652-.435-.435-.187-1.111-.344l-1.292-.302q-1.606-.368-2.53-1.189-.923-.827-.917-2.233-.006-1.148.616-2.01.621-.864 1.72-1.347 1.1-.483 2.505-.483 1.437 0 2.494.489 1.062.483 1.648 1.358t.597 2.029zm9.774-.616V19.4h-5.85v-2.173zm-4.625-2.222h2.953v8.579q0 .272.084.44.09.165.26.236a1.1 1.1 0 0 0 .404.066q.17 0 .356-.03.194-.036.29-.06l.447 2.13q-.211.061-.598.152-.38.09-.911.115-1.039.048-1.781-.242a2.3 2.3 0 0 1-1.129-.918q-.387-.621-.375-1.563zm10.36 11.67q-1.46 0-2.512-.598a4.1 4.1 0 0 1-1.611-1.678q-.562-1.08-.562-2.505 0-1.431.562-2.506.567-1.08 1.611-1.678 1.051-.603 2.512-.604 1.461 0 2.505.604 1.05.598 1.612 1.678.567 1.075.568 2.506 0 1.424-.568 2.505a4.07 4.07 0 0 1-1.612 1.678q-1.044.598-2.505.598m.018-2.228q.531 0 .899-.326.369-.326.562-.905.2-.58.199-1.34 0-.773-.199-1.353-.193-.58-.562-.905a1.3 1.3 0 0 0-.899-.326q-.549 0-.93.326-.374.326-.573.905-.193.58-.193 1.352 0 .762.193 1.34.2.58.573.906.381.326.93.326m6.179 2.053v-9.273h2.867v1.69h.097q.254-.917.827-1.364a2.1 2.1 0 0 1 1.334-.453q.205 0 .423.03.217.025.404.079v2.566a3 3 0 0 0-.555-.115 5 5 0 0 0-.604-.042q-.525 0-.948.235a1.7 1.7 0 0 0-.658.646 1.9 1.9 0 0 0-.235.966V26.5zm11.008.175q-1.455 0-2.511-.574a3.96 3.96 0 0 1-1.618-1.648q-.562-1.074-.562-2.553 0-1.437.568-2.512.567-1.08 1.6-1.678 1.032-.603 2.433-.604.99 0 1.811.308a3.9 3.9 0 0 1 1.418.912q.599.604.93 1.49.332.882.332 2.023v.737h-8.059v-1.715h5.312a1.66 1.66 0 0 0-.223-.839 1.5 1.5 0 0 0-.598-.573 1.7 1.7 0 0 0-.863-.212q-.495 0-.888.224a1.68 1.68 0 0 0-.863 1.449v1.744q0 .567.224.996.223.423.633.658t.978.236q.392 0 .713-.109.32-.108.549-.32.23-.21.344-.52l2.711.08a3.35 3.35 0 0 1-.743 1.587q-.567.67-1.491 1.044-.924.369-2.137.369"/></g></g><rect width="273.858" height="37.858" x="1.071" y="1.071" stroke="#fff" stroke-opacity=".15" stroke-width="2.143" rx="6.929"/><defs><filter id="c" width="39.202" height="39.902" x="2.4" y="-.3" color-interpolation-filters="sRGB" filterUnits="userSpaceOnUse"><feFlood flood-opacity="0" result="BackgroundImageFix"/><feColorMatrix in="SourceAlpha" result="hardAlpha" values="0 0 0 0 0 0 0 0 0 0 0 0 0 0 0 0 0 0 127 0"/><feOffset/><feGaussianBlur stdDeviation="2.8"/><feComposite in2="hardAlpha" operator="out"/><feColorMatrix values="0 0 0 0 0 0 0 0 0 0 0 0 0 0 0 0 0 0 0.25 0"/><feBlend in2="BackgroundImageFix" result="effect1_dropShadow_28_2609"/><feBlend in="SourceGraphic" in2="effect1_dropShadow_28_2609" result="shape"/></filter><filter id="d" width="237.429" height="32.429" x="36.287" y="3.786" color-interpolation-filters="sRGB" filterUnits="userSpaceOnUse"><feFlood flood-opacity="0" result="BackgroundImageFix"/><feColorMatrix in="SourceAlpha" result="hardAlpha" values="0 0 0 0 0 0 0 0 0 0 0 0 0 0 0 0 0 0 127 0"/><feOffset/><feGaussianBlur stdDeviation="2.857"/><feComposite in2="hardAlpha" operator="out"/><feColorMatrix values="0 0 0 0 0 0 0 0 0 0 0 0 0 0 0 0 0 0 0.25 0"/><feBlend in2="BackgroundImageFix" result="effect1_dropShadow_28_2609"/><feBlend in="SourceGraphic" in2="effect1_dropShadow_28_2609" result="shape"/></filter><linearGradient id="b" x1="138.001" x2="138.001" y1="0" y2="40.001" gradientUnits="userSpaceOnUse"><stop stop-color="#1e1e1e"/><stop offset="1" stop-color="#0d0d0d"/></linearGradient><clipPath id="a"><rect width="276.001" height="40.001" fill="#fff" rx="8"/></clipPath></defs></svg>