<svg xmlns="http://www.w3.org/2000/svg" width="230" height="40" fill="none" viewBox="0 0 230 40"><g clip-path="url(#a)"><rect width="230.001" height="40.001" fill="url(#b)" rx="8"/><g fill="#00d845" filter="url(#c)"><path d="M20.608 6.08c-4.831.48-9.026 3.377-11.198 7.74a14 14 0 0 0-1.373 4.704L8 18.886h1.248c.687 0 1.249-.019 1.255-.05.068-1.016.518-2.611 1.06-3.752 1.93-4.038 5.943-6.574 10.387-6.574 1.885 0 3.483.367 5.118 1.178a11.4 11.4 0 0 1 4.494 3.932c.506.754 1.205 2.131 1.118 2.206-.032.031-.53.18-1.105.33l-1.049.28-.274-.535a9.38 9.38 0 0 0-4.114-4.132c-.63-.318-1.28-.56-1.38-.523-.043.012-.099.162-.118.33-.025.162-.093.592-.162.953-.062.362-.131.76-.15.885l-.043.23.53.25c1.823.848 3.14 2.418 3.695 4.4.162.573.181.704.181 1.714s-.019 1.14-.18 1.713c-.332 1.172-.918 2.206-1.724 3.017-.461.467-1.142.972-1.635 1.227-.168.081-.3.187-.3.23.007.107.6 2.288.643 2.325.057.056 1.111-.504 1.73-.916.773-.517 1.847-1.589 2.365-2.362a9.6 9.6 0 0 0 1.454-3.371c.119-.548.144-.829.144-1.845 0-1.01.012-1.202.094-1.221.761-.218 2.078-.542 2.103-.524.044.05.112 1.091.112 1.727 0 .86-.08 1.7-.218 2.305-.063.287-.113.53-.106.536.006.013.53.2 1.16.43.875.318 1.162.4 1.2.337.099-.168.367-1.814.436-2.692.144-1.963-.2-4.22-.918-5.995-2.022-5.005-6.441-8.332-11.759-8.85-1.067-.106-1.63-.106-2.684 0"/><path d="M20.92 10.828c-.456.044-1.473.287-1.99.468-2.554.897-4.657 2.947-5.606 5.471-.737 1.95-.761 4.4-.062 6.313l.156.424-.575.33c-1.148.667-1.354.785-1.398.785-.056 0-.33-.692-.505-1.277-.2-.698-.412-1.708-.437-2.169-.007-.025-.568-.044-1.255-.044H8l.037.356c.331 3.221 1.817 6.263 4.182 8.562 5.55 5.385 14.406 5.254 19.818-.293a14.7 14.7 0 0 0 1.916-2.461c.43-.717.761-1.39.711-1.44-.025-.025-.324-.143-.667-.268-.344-.124-.806-.293-1.03-.367-.225-.081-.45-.169-.5-.187-.068-.025-.156.08-.33.417-1.049 2.044-3.009 3.901-5.225 4.96-1.891.898-3.813 1.235-6.092 1.054-2.228-.175-4.712-1.271-6.516-2.873-.512-.455-1.255-1.253-1.536-1.651-.093-.138-.143-.1 1.305-.941l.543-.318.768.766c1.373 1.377 2.846 2.188 4.731 2.611.556.119.824.144 1.848.144.655 0 1.21-.019 1.23-.038.024-.018-.076-.455-.213-.966l-.318-1.184-.069-.255-.88-.038c-1.66-.068-2.977-.592-4.213-1.676a6 6 0 0 1-.506-.492l-.125-.162 1.38-.798 1.385-.792 1.448 1.534 1.667-.343 1.667-.337 2.247-2.243-.2-.736c-.125-.467-.225-.729-.275-.729s-.555.125-1.13.28l-1.048.287-.437.424c-.474.461-.406.443-1.436.536l-.374.037-.45-.442a6 6 0 0 1-.455-.461c0-.019-.069-.28-.15-.592l-.15-.567.406-.542c.225-.306.418-.555.43-.568.007-.012.275-.093.6-.174l.58-.15.793-.791c.443-.436.799-.823.799-.86s-.237-.3-.524-.586l-.525-.517-1.517.411-1.523.412-.312.324c-.168.18-.524.567-.78.86-.256.286-.58.654-.718.81-.53.598-.511.417-.18 1.552.155.554.28 1.021.268 1.028a105 105 0 0 1-2.122 1.228c-.3.168-.568.305-.606.305-.031 0-.125-.262-.206-.58-.13-.492-.15-.716-.15-1.633.007-.965.02-1.115.181-1.682.338-1.197.918-2.2 1.754-3.035 1.149-1.147 2.66-1.85 4.195-1.957.649-.05.599 0 .705-.68.038-.242.094-.547.125-.685.031-.137.069-.361.087-.498.025-.137.056-.343.075-.455l.038-.2-.643.013c-.356 0-.75.019-.868.031"/></g><g filter="url(#d)"><path fill="#e8e8e8" d="M44.404 26.5h-1.98l4.45-12.363h2.154l4.45 12.364h-1.98l-3.496-10.118h-.096zm.332-4.841h6.424v1.57h-6.424zm17.153-4.431L58.526 26.5h-1.932l-3.368-9.273h1.938l2.348 7.136h.096l2.343-7.136zm4.129 9.478a3.8 3.8 0 0 1-1.594-.326 2.7 2.7 0 0 1-1.129-.96q-.41-.628-.41-1.54 0-.784.302-1.291.301-.507.814-.803a4.3 4.3 0 0 1 1.148-.447q.633-.15 1.291-.23l1.353-.156q.519-.066.754-.212.236-.144.236-.47v-.043q0-.79-.447-1.225-.44-.435-1.316-.435-.912 0-1.437.405-.519.398-.718.887l-1.696-.386q.301-.845.88-1.365.587-.525 1.347-.76a5.3 5.3 0 0 1 1.6-.242q.556 0 1.177.133.628.128 1.171.47.55.345.9.985.35.634.35 1.648v6.158H68.83v-1.268h-.072a2.6 2.6 0 0 1-.526.688 2.8 2.8 0 0 1-.9.562q-.548.222-1.315.223m.392-1.449q.75 0 1.28-.296a2.07 2.07 0 0 0 .815-.772q.284-.484.284-1.033v-1.195q-.098.097-.374.181a6 6 0 0 1-.622.139l-.682.103-.556.072q-.525.067-.96.223a1.65 1.65 0 0 0-.688.453q-.254.289-.254.773 0 .67.496 1.014.495.338 1.261.338m6.588 1.244v-9.273h1.805V26.5zm.912-10.704q-.471 0-.81-.314a1.02 1.02 0 0 1-.331-.76q0-.447.332-.761.338-.32.809-.32.47 0 .803.32a1 1 0 0 1 .338.76q0 .441-.338.761-.333.315-.803.314m5.127-1.66v12.364H77.23V14.137zm5.126 12.569a3.8 3.8 0 0 1-1.593-.326 2.7 2.7 0 0 1-1.13-.96q-.41-.628-.41-1.54 0-.784.302-1.291t.815-.803a4.3 4.3 0 0 1 1.147-.447q.634-.15 1.292-.23l1.352-.156q.52-.066.755-.212.235-.144.235-.47v-.043q0-.79-.446-1.225-.441-.435-1.317-.435-.91 0-1.436.405-.52.398-.719.887l-1.696-.386q.302-.845.881-1.365.586-.525 1.347-.76a5.3 5.3 0 0 1 1.6-.242q.555 0 1.177.133.627.128 1.17.47.55.345.9.985.35.634.35 1.648v6.158h-1.762v-1.268h-.073a2.6 2.6 0 0 1-.525.688 2.8 2.8 0 0 1-.9.562q-.55.222-1.316.223m.393-1.449q.748 0 1.28-.296a2.07 2.07 0 0 0 .815-.772q.283-.484.283-1.033v-1.195q-.096.097-.374.181a6 6 0 0 1-.622.139l-.682.103-.555.072q-.525.067-.96.223a1.65 1.65 0 0 0-.688.453q-.255.289-.254.773 0 .67.495 1.014.494.338 1.262.338m6.733 1.244V14.137h1.805v4.594h.108q.157-.29.453-.67.295-.38.821-.664.525-.29 1.389-.29 1.122 0 2.004.568.88.567 1.382 1.636.507 1.069.507 2.571t-.5 2.578q-.502 1.069-1.377 1.648-.876.574-1.998.574-.846 0-1.383-.284a2.6 2.6 0 0 1-.833-.664 5 5 0 0 1-.465-.676h-.15V26.5zm1.768-4.637q0 .978.284 1.715.284.736.821 1.153.537.41 1.316.41.81 0 1.352-.428.544-.435.821-1.177.284-.743.284-1.673 0-.916-.278-1.648-.27-.73-.82-1.153-.544-.422-1.359-.422-.785 0-1.328.404-.537.405-.815 1.129t-.278 1.69m10.533-7.727v12.364h-1.805V14.137zm6.425 12.55q-1.37 0-2.36-.585a3.97 3.97 0 0 1-1.522-1.66q-.531-1.074-.531-2.517 0-1.425.531-2.512a4.13 4.13 0 0 1 1.497-1.696q.966-.61 2.258-.61.785 0 1.522.26.736.259 1.322.815.585.555.923 1.443.339.881.338 2.143v.64h-7.371v-1.353h5.603q0-.712-.29-1.261a2.2 2.2 0 0 0-.815-.876q-.52-.32-1.22-.32-.76 0-1.328.375a2.5 2.5 0 0 0-.869.966 2.8 2.8 0 0 0-.302 1.285v1.057q0 .93.326 1.582.332.651.924.996.591.338 1.382.338.513 0 .936-.145.423-.15.73-.447.309-.295.471-.73l1.709.308a3.1 3.1 0 0 1-.737 1.322 3.6 3.6 0 0 1-1.322.875q-.79.308-1.805.308m14.386 0q-1.304 0-2.276-.597a4.03 4.03 0 0 1-1.509-1.672q-.537-1.075-.537-2.511 0-1.443.537-2.524a4 4 0 0 1 1.509-1.678q.972-.598 2.276-.598t2.276.598a4 4 0 0 1 1.509 1.678q.537 1.08.537 2.524 0 1.436-.537 2.51a4.03 4.03 0 0 1-1.509 1.673q-.972.598-2.276.598m.006-1.515q.845 0 1.401-.446.555-.447.821-1.19.271-.742.271-1.636 0-.886-.271-1.63-.266-.748-.821-1.2-.556-.454-1.401-.454-.85 0-1.413.453-.555.453-.827 1.202a4.8 4.8 0 0 0-.265 1.63q0 .892.265 1.636.272.742.827 1.189.563.447 1.413.447m8.136-4.177v5.506h-1.805v-9.273h1.733v1.51h.115a2.65 2.65 0 0 1 1.002-1.184q.688-.447 1.732-.447.949 0 1.66.399.713.392 1.105 1.17.393.78.393 1.927V26.5h-1.805v-5.68q0-1.008-.526-1.576-.525-.573-1.442-.573-.628 0-1.117.271a1.95 1.95 0 0 0-.767.797q-.278.52-.278 1.256"/><path fill="#00d845" d="M144.937 14.137h3.701l3.139 7.655h.145l3.139-7.655h3.701v12.364h-2.91v-7.595h-.103l-2.97 7.516h-1.859l-2.97-7.558h-.103V26.5h-2.91zm20.017 12.539q-1.461 0-2.511-.598a4.1 4.1 0 0 1-1.612-1.678q-.562-1.08-.562-2.505 0-1.431.562-2.506.567-1.08 1.612-1.678 1.05-.604 2.511-.604t2.505.604a4 4 0 0 1 1.612 1.678q.568 1.075.568 2.506 0 1.424-.568 2.505a4.07 4.07 0 0 1-1.612 1.678q-1.044.598-2.505.598m.018-2.228q.531 0 .9-.326.368-.327.561-.905.2-.58.199-1.34 0-.773-.199-1.353-.193-.58-.561-.905a1.3 1.3 0 0 0-.9-.326q-.55 0-.929.326-.375.326-.574.905-.193.58-.193 1.352 0 .762.193 1.34.2.58.574.906.38.326.929.326m9.566 2.186a3.4 3.4 0 0 1-1.866-.532q-.839-.531-1.34-1.593-.501-1.063-.501-2.639 0-1.636.519-2.692t1.359-1.564a3.47 3.47 0 0 1 1.817-.507q.73 0 1.249.254.519.247.858.64.338.392.513.815h.06v-4.679h2.952v12.364h-2.922v-1.504h-.09a2.9 2.9 0 0 1-.532.803q-.344.375-.863.604-.513.23-1.213.23m1.026-2.3q.537 0 .918-.302.38-.309.585-.864t.205-1.304q0-.76-.205-1.31-.2-.55-.585-.845a1.45 1.45 0 0 0-.918-.296q-.549 0-.93.302-.38.302-.579.851-.193.55-.193 1.298 0 .75.199 1.304.2.555.573.864.381.3.93.301m6.461 2.167v-9.273h2.868v1.69h.096q.254-.917.827-1.364a2.1 2.1 0 0 1 1.334-.453q.206 0 .423.03.218.024.404.079v2.566a3 3 0 0 0-.555-.115 5 5 0 0 0-.604-.042q-.525 0-.947.235a1.7 1.7 0 0 0-.658.646 1.9 1.9 0 0 0-.236.966V26.5zm7.155 0v-9.273h2.952V26.5zm1.479-10.354q-.621 0-1.068-.41a1.32 1.32 0 0 1-.447-1.002q0-.58.447-.99a1.5 1.5 0 0 1 1.068-.417 1.5 1.5 0 0 1 1.069.417q.447.41.447.99 0 .585-.447 1.002-.44.41-1.069.41m6.304 5.065V26.5h-2.952v-9.273h2.808v1.702h.102a2.6 2.6 0 0 1 1.051-1.334q.742-.489 1.768-.489.978 0 1.697.44.724.435 1.123 1.22.404.78.398 1.823v5.91h-2.952v-5.33q.006-.773-.392-1.207-.393-.435-1.093-.435-.465 0-.821.205a1.36 1.36 0 0 0-.543.574q-.188.375-.194.905m13.057-3.984V19.4h-5.85v-2.173zm-4.624-2.222h2.952v8.579q0 .271.084.44.09.164.26.236.168.066.404.066.17 0 .356-.03.194-.036.29-.06l.447 2.13q-.211.061-.598.152-.38.09-.911.115-1.039.048-1.781-.242a2.3 2.3 0 0 1-1.129-.918q-.387-.621-.374-1.563zm9.281 6.206V26.5h-2.952V14.137h2.856v4.793h.102a2.7 2.7 0 0 1 1.027-1.34q.718-.483 1.756-.483.978 0 1.703.435.724.429 1.123 1.213.404.786.398 1.835v5.91h-2.952v-5.33q.006-.773-.386-1.207-.393-.435-1.105-.435-.465 0-.821.205a1.4 1.4 0 0 0-.549.574q-.194.375-.2.905"/></g></g><rect width="227.858" height="37.858" x="1.071" y="1.071" stroke="#fff" stroke-opacity=".15" stroke-width="2.143" rx="6.929"/><defs><filter id="c" width="39.202" height="39.202" x="2.399" y=".4" color-interpolation-filters="sRGB" filterUnits="userSpaceOnUse"><feFlood flood-opacity="0" result="BackgroundImageFix"/><feColorMatrix in="SourceAlpha" result="hardAlpha" values="0 0 0 0 0 0 0 0 0 0 0 0 0 0 0 0 0 0 127 0"/><feOffset/><feGaussianBlur stdDeviation="2.8"/><feComposite in2="hardAlpha" operator="out"/><feColorMatrix values="0 0 0 0 0 0 0 0 0 0 0 0 0 0 0 0 0 0 0.25 0"/><feBlend in2="BackgroundImageFix" result="effect1_dropShadow_28_2660"/><feBlend in="SourceGraphic" in2="effect1_dropShadow_28_2660" result="shape"/></filter><filter id="d" width="191.429" height="32.429" x="36.287" y="3.786" color-interpolation-filters="sRGB" filterUnits="userSpaceOnUse"><feFlood flood-opacity="0" result="BackgroundImageFix"/><feColorMatrix in="SourceAlpha" result="hardAlpha" values="0 0 0 0 0 0 0 0 0 0 0 0 0 0 0 0 0 0 127 0"/><feOffset/><feGaussianBlur stdDeviation="2.857"/><feComposite in2="hardAlpha" operator="out"/><feColorMatrix values="0 0 0 0 0 0 0 0 0 0 0 0 0 0 0 0 0 0 0.25 0"/><feBlend in2="BackgroundImageFix" result="effect1_dropShadow_28_2660"/><feBlend in="SourceGraphic" in2="effect1_dropShadow_28_2660" result="shape"/></filter><linearGradient id="b" x1="115.001" x2="115.001" y1="0" y2="40.001" gradientUnits="userSpaceOnUse"><stop stop-color="#072c13"/><stop offset="1" stop-color="#041c0b"/></linearGradient><clipPath id="a"><rect width="230.001" height="40.001" fill="#fff" rx="8"/></clipPath></defs></svg>