<svg xmlns="http://www.w3.org/2000/svg" width="252" height="40" fill="none" viewBox="0 0 252 40"><g clip-path="url(#a)"><rect width="252.001" height="40.001" fill="url(#b)" rx="8"/><g filter="url(#c)"><path fill="#fefefe" d="M28.004 6.651a6.7 6.7 0 0 1 1.532-.645c.132-.022.264.022.392.053.664.21 1.254.593 1.83.976a17.6 17.6 0 0 1 2.306 1.895c.084.075.167.154.236.245l-.25-.028c-.614-.067-1.22.12-1.78.357a8 8 0 0 0-1.985 1.316c-.135.074-.223.206-.336.307-.141.13-.266.279-.425.387a6 6 0 0 1-.628.657c-.2.281-.43.541-.644.813-.203.273-.394.555-.596.83a1.4 1.4 0 0 0-.12.209c-.236.292-.407.63-.586.958-.059.157-.18.293-.178.469.207.088.399.205.598.31q.51.258 1.006.544c-.204.12-.438.172-.648.28-.261.076-.5.206-.76.283-.326.145-.666.256-.993.398-.434.154-.855.341-1.287.501-.58.223-1.15.47-1.74.661-.106-.11-.095-.279-.13-.417-.107-.302-.18-.614-.263-.923-.035-.124-.073-.248-.092-.376l-.053-.08c-.025-.25-.128-.48-.175-.726-.032-.17-.108-.328-.126-.5l-.04-.065c-.025-.214-.105-.416-.157-.623a59 59 0 0 0-.403-1.508c-.044-.216-.122-.424-.15-.643.153.02.272.118.402.19.227.096.431.235.654.338.13.057.242.154.385.182.436-.997.913-1.979 1.485-2.906q.037-.069.068-.14c.153-.185.264-.399.405-.593.188-.264.37-.532.585-.775.156-.179.295-.372.462-.54q.169-.168.336-.337c.31-.289.641-.554.996-.786.29-.18.567-.384.867-.548"/><path fill="#f9a332" d="M19.081 7.635c.907-.226 1.84-.32 2.772-.35 1.453-.003 2.917.205 4.288.7l-.336.337c-.167.168-.306.362-.463.54-.214.244-.397.512-.585.775-.14.194-.25.409-.405.593q-.03.072-.067.14c-.572.927-1.05 1.909-1.486 2.906-.142-.027-.254-.125-.384-.182-.223-.103-.428-.242-.654-.337-.13-.073-.25-.17-.402-.191.028.219.105.427.15.643q.21.752.402 1.508c.052.208.132.409.157.623l.04.064c.018.173.095.331.127.501.046.246.15.477.174.727q.027.038.053.08c.02.127.058.25.093.375.082.309.156.621.262.923.036.139.025.308.13.417.59-.191 1.162-.438 1.74-.66.433-.16.854-.348 1.288-.502.327-.142.667-.252.992-.398.26-.076.5-.207.76-.283.21-.108.444-.16.649-.28a23 23 0 0 0-1.007-.545c-.198-.104-.39-.221-.597-.31-.003-.175.119-.311.178-.468.179-.328.35-.666.585-.958a1.4 1.4 0 0 1 .12-.21c.203-.274.394-.556.597-.829.213-.272.443-.532.643-.813q.338-.306.629-.657c.159-.108.284-.257.425-.386.113-.102.2-.234.336-.308q.116-.109.24-.207c.431.314.753.746 1.112 1.135.137.138.242.303.372.447.265.368.536.734.76 1.13.141.196.249.414.368.624.092.168.143.356.254.514.545 1.105.9 2.303 1.09 3.52.14.892.156 1.799.12 2.7a12.2 12.2 0 0 1-.645 3.284c-.988-1.003-2.193-1.759-3.429-2.415-.296-.172-.612-.304-.917-.459a9 9 0 0 0-.8-.367c-.057-.017-.069-.075-.081-.125l.104-.08c.1-.294.284-.55.413-.83.062-.148.166-.275.218-.428a.7.7 0 0 0-.278.043q-2.283.607-4.562 1.23c-.347.068-.678.198-1.024.269q.039.18.099.356c.133.306.23.627.367.932.12.311.23.627.363.932.412 1.09.854 2.168 1.26 3.26.132-.147.197-.337.298-.505.2-.366.394-.735.592-1.103.07.008.142.015.204.052.182.1.378.176.55.293a.6.6 0 0 0 .195.08c.214.183.474.298.693.473.477.308.926.657 1.358 1.025.193.136.344.324.544.452q.122.158.268.294c.127.12.239.258.385.357.17.232.378.434.561.656-.077.177-.237.286-.365.422-.366.419-.817.748-1.239 1.107-.177.162-.39.274-.581.419-.455.34-.95.621-1.46.87a12.4 12.4 0 0 1-4.85 1.321c-.434.049-.872.017-1.307.025a13 13 0 0 1-3.184-.542c-.128-.038-.26-.07-.378-.134a10 10 0 0 0 1.06-1.286q.059-.084.123-.163l.027-.091c.168-.141.254-.348.38-.522.122-.17.193-.371.313-.543.194-.323.357-.664.554-.985.053-.182.166-.338.23-.517.13-.234.24-.478.343-.725l.072-.024q.013-.124.029-.247c.175.013.32.116.474.192.33.17.647.371.987.524-.004-.275-.117-.53-.178-.795-.19-.692-.36-1.388-.556-2.077a1 1 0 0 0-.076-.202c-.069-.407-.214-.796-.297-1.2-.083-.186-.1-.392-.157-.585-.104-.332-.187-.67-.263-1.01-.184-.027-.331.102-.498.153-.318.106-.623.247-.939.36-.267.113-.544.2-.81.317q-.12.05-.244.088c-.316.142-.648.243-.966.383-.311.114-.623.227-.926.363-.265.1-.534.19-.79.314l-.217.06c-.004.032-.01.095-.015.126q.766.397 1.52.814c-.008.065-.01.134-.044.194-.205.385-.392.783-.643 1.142a18 18 0 0 1-1.27 1.718c-.193.229-.41.438-.596.673a5 5 0 0 0-.649.645c-.144.095-.266.218-.397.33-.251-.232-.492-.477-.734-.72a19 19 0 0 1-1.226-1.546c-.107-.197-.264-.362-.364-.564-.13-.274-.305-.525-.448-.793a3 3 0 0 0-.272-.601c-.13-.267-.227-.548-.338-.823.066-.03.04-.108.017-.156a.4.4 0 0 0-.037.142 2.3 2.3 0 0 0-.116-.385 12.3 12.3 0 0 1-.498-2.18c-.04-.296-.092-.591-.085-.89a11 11 0 0 1-.001-1.674c.013-.132-.016-.28.034-.4l.018.006.016.029c-.006-.056-.015-.112-.013-.168.058-.511.138-1.02.26-1.52.062-.286.157-.563.226-.847l.076-.029c.301.301.616.589.955.845.263.185.514.384.777.567a23 23 0 0 0 2.92 1.593c.175.096.38.134.534.266a.15.15 0 0 1-.016.099c-.174.314-.34.631-.509.949a2 2 0 0 0-.169.35c.229.014.438-.086.658-.126.2-.038.384-.133.588-.157 1.063-.301 2.133-.579 3.2-.865.258-.05.502-.154.762-.19l.07-.054c.205-.004.385-.113.587-.129-.117-.404-.3-.785-.439-1.181q-.439-1.117-.866-2.24c-.091-.188-.142-.392-.24-.577-.15-.453-.341-.892-.509-1.339-.019-.046-.04-.136-.11-.094-.057.075-.093.162-.135.245-.09.193-.213.37-.284.572-.16.224-.27.476-.4.718-.189.004-.352-.097-.513-.184-.755-.375-1.43-.886-2.103-1.39-.269-.225-.548-.438-.805-.677-.517-.499-1.035-1-1.48-1.564.198-.254.44-.468.66-.704.233-.218.46-.447.716-.64.308-.224.575-.504.904-.697.402-.259.784-.555 1.225-.745.479-.288 1.001-.495 1.518-.705a14 14 0 0 1 1.516-.463"/><path fill="#9d6b36" d="M11.141 7.881c.255-.084.524-.075.788-.074.286.008.575-.024.856.04a6.3 6.3 0 0 1 1.567.338c.39.126.78.251 1.155.417.175.077.35.167.54.2-.441.19-.823.487-1.225.746-.33.193-.596.473-.904.696-.256.194-.482.423-.716.641-.22.235-.462.45-.66.704-.661-.838-1.242-1.795-1.392-2.871-.042-.271 0-.545-.005-.816z"/><path fill="#fefefe" d="M8.587 11.14c.71-1.183 1.59-2.257 2.558-3.238.005.271-.037.545.005.816.15 1.076.73 2.033 1.392 2.871.445.565.964 1.065 1.48 1.564.257.24.536.452.805.677.672.504 1.348 1.015 2.104 1.39.16.087.324.188.513.184.128-.242.24-.494.399-.718.072-.201.194-.38.285-.572.04-.084.077-.17.134-.245.07-.042.091.048.11.094.168.448.36.886.51 1.34.098.184.148.388.24.576.286.748.571 1.496.866 2.24.139.396.32.777.439 1.181-.203.015-.383.125-.587.129l-.071.053c-.26.037-.504.14-.761.191-1.068.286-2.137.564-3.201.865-.204.024-.388.119-.588.157-.22.04-.43.14-.658.126a2 2 0 0 1 .17-.35q.25-.477.508-.95a.15.15 0 0 0 .016-.098c-.154-.132-.36-.17-.534-.266a23 23 0 0 1-2.92-1.593c-.262-.183-.514-.382-.776-.567a9 9 0 0 1-1.035-.928 7.5 7.5 0 0 1-.92-1.21 7.3 7.3 0 0 1-1.063-2.193.6.6 0 0 1 .022-.28c.112-.445.336-.849.558-1.245"/><path fill="#9d6b36" d="M32.27 9.504c.56-.236 1.166-.424 1.781-.357.097.02.203.016.292.063.054.451.068.909.024 1.362-.03.71-.217 1.403-.455 2.069-.092.267-.177.539-.294.798-.105.244-.18.508-.329.73.035.097.075.193.102.294-.11-.158-.162-.346-.254-.514-.118-.21-.226-.428-.367-.624-.224-.396-.495-.762-.76-1.13-.13-.145-.236-.309-.372-.447-.36-.39-.682-.821-1.113-1.135a8 8 0 0 1 1.746-1.109M9.99 16.069l.08.083-.077.029c-.07.284-.164.56-.226.846-.121.5-.201 1.01-.26 1.521-.002.056.007.112.013.168l-.016-.03c-.049-.189.01-.38.03-.57.081-.696.267-1.374.456-2.047"/><path fill="#fefefe" d="M29.187 19.306a.7.7 0 0 1 .277-.043c-.052.153-.156.28-.218.428-.13.28-.313.536-.413.83l-.104.08c.012.05.024.108.082.125q.408.165.8.367c.304.155.62.287.916.459 1.236.656 2.442 1.412 3.429 2.415.358.38.683.79.958 1.236.45.645.821 1.35 1.05 2.104.094.247-.01.509-.09.744-.278.7-.7 1.33-1.13 1.942-.435.589-.89 1.166-1.395 1.695a20 20 0 0 0-.4.43.3.3 0 0 1-.2.131c.034-.043.09-.072.101-.129.083-.61-.047-1.234-.283-1.798a7.6 7.6 0 0 0-1.23-1.963c-.182-.222-.39-.424-.561-.656-.146-.099-.258-.237-.385-.357a2.4 2.4 0 0 1-.268-.294c-.2-.128-.35-.316-.544-.452-.432-.368-.88-.717-1.358-1.025-.22-.175-.48-.29-.693-.473a.6.6 0 0 1-.194-.08c-.173-.117-.368-.193-.55-.293-.063-.037-.135-.044-.205-.052q-.295.553-.592 1.104c-.1.167-.166.357-.298.504-.405-1.092-.848-2.17-1.26-3.26-.133-.305-.243-.62-.363-.932-.136-.305-.233-.626-.367-.932a4 4 0 0 1-.1-.356c.347-.07.679-.201 1.025-.269q2.28-.623 4.563-1.23m-8.647 2.438c.167-.05.314-.18.498-.153.076.34.16.678.263 1.01.058.193.075.398.157.584.083.404.229.794.297 1.201q.047.098.077.201c.195.69.366 1.386.555 2.078.062.264.174.52.178.795-.34-.153-.656-.354-.987-.524-.153-.076-.299-.179-.474-.192l-.029.246-.072.025a7 7 0 0 1-.343.725c-.064.178-.176.335-.23.517-.197.32-.36.662-.553.985-.12.171-.192.372-.313.543-.127.174-.212.38-.38.522l-.028.091a3 3 0 0 0-.122.163 10 10 0 0 1-1.061 1.286c-.325.307-.659.61-1.031.86-.501.331-1 .673-1.549.922-.332.15-.673.293-1.03.372-.229.004-.446-.082-.657-.162a9 9 0 0 1-1.549-.885 17.6 17.6 0 0 1-2.523-2.108c.268.014.537.052.804.004.472-.05.924-.207 1.35-.41.642-.3 1.222-.718 1.767-1.169.13-.112.253-.235.397-.33.193-.236.414-.45.648-.645.187-.235.403-.444.597-.674.459-.544.877-1.122 1.27-1.717.25-.359.438-.757.642-1.143.034-.06.036-.128.045-.193a65 65 0 0 0-1.52-.814l.014-.125.218-.061c.255-.124.525-.213.79-.315.302-.135.614-.248.925-.363.318-.139.65-.24.967-.383a2 2 0 0 0 .243-.088c.266-.116.543-.203.81-.316.316-.113.621-.254.94-.36"/><path fill="#9d6b36" d="M10.51 25.047c.111.19.207.39.272.601.143.268.318.518.448.793.1.202.257.367.364.564.384.534.788 1.056 1.227 1.547.242.242.482.487.733.72-.545.45-1.124.867-1.766 1.169a4.2 4.2 0 0 1-1.35.409c-.267.048-.536.01-.804-.004h-.026c-.094-.497-.077-1.007-.037-1.508.044-.728.243-1.436.498-2.116.176-.56.421-1.095.67-1.623-.053-.191-.189-.354-.229-.552m20.463 3.734c.127-.136.287-.245.365-.422.5.59.93 1.247 1.229 1.963.236.564.366 1.188.283 1.798-.011.058-.067.087-.1.13l-.011.012c-.366.027-.735.058-1.102.023a2.7 2.7 0 0 1-.604-.059c-.463-.035-.915-.156-1.355-.302a7 7 0 0 1-.931-.337c-.204-.06-.398-.152-.596-.23-.15-.069-.292-.159-.459-.18a9 9 0 0 0 1.46-.87c.19-.145.404-.257.582-.419.421-.359.872-.688 1.239-1.107"/></g><g filter="url(#d)"><path fill="#e8e8e8" d="M44.404 26.5h-1.98l4.45-12.363h2.154l4.45 12.364h-1.98l-3.496-10.118h-.096zm.332-4.841h6.424v1.57h-6.424zm17.153-4.431L58.526 26.5h-1.932l-3.368-9.273h1.938l2.348 7.136h.096l2.343-7.136zm4.129 9.478a3.8 3.8 0 0 1-1.594-.326 2.7 2.7 0 0 1-1.129-.96q-.41-.628-.41-1.54 0-.784.302-1.291.301-.507.814-.803a4.3 4.3 0 0 1 1.148-.447q.633-.15 1.291-.23l1.353-.156q.519-.066.754-.212.236-.144.236-.47v-.043q0-.79-.447-1.225-.44-.435-1.316-.435-.912 0-1.437.405-.519.398-.718.887l-1.696-.386q.301-.845.88-1.365.587-.525 1.347-.76a5.3 5.3 0 0 1 1.6-.242q.556 0 1.177.133.628.128 1.171.47.55.345.9.985.35.634.35 1.648v6.158H68.83v-1.268h-.072a2.6 2.6 0 0 1-.526.688 2.8 2.8 0 0 1-.9.562q-.548.222-1.315.223m.392-1.449q.75 0 1.28-.296a2.07 2.07 0 0 0 .815-.772q.284-.484.284-1.033v-1.195q-.098.097-.374.181a6 6 0 0 1-.622.139l-.682.103-.556.072q-.525.067-.96.223a1.65 1.65 0 0 0-.688.453q-.254.289-.254.773 0 .67.496 1.014.495.338 1.261.338m6.588 1.244v-9.273h1.805V26.5zm.912-10.704q-.471 0-.81-.314a1.02 1.02 0 0 1-.331-.76q0-.447.332-.761.338-.32.809-.32.47 0 .803.32a1 1 0 0 1 .338.76q0 .441-.338.761-.333.315-.803.314m5.127-1.66v12.364H77.23V14.137zm5.126 12.569a3.8 3.8 0 0 1-1.593-.326 2.7 2.7 0 0 1-1.13-.96q-.41-.628-.41-1.54 0-.784.302-1.291t.815-.803a4.3 4.3 0 0 1 1.147-.447q.634-.15 1.292-.23l1.352-.156q.52-.066.755-.212.235-.144.235-.47v-.043q0-.79-.446-1.225-.441-.435-1.317-.435-.91 0-1.436.405-.52.398-.719.887l-1.696-.386q.302-.845.881-1.365.586-.525 1.347-.76a5.3 5.3 0 0 1 1.6-.242q.555 0 1.177.133.627.128 1.17.47.55.345.9.985.35.634.35 1.648v6.158h-1.762v-1.268h-.073a2.6 2.6 0 0 1-.525.688 2.8 2.8 0 0 1-.9.562q-.55.222-1.316.223m.393-1.449q.748 0 1.28-.296a2.07 2.07 0 0 0 .815-.772q.283-.484.283-1.033v-1.195q-.096.097-.374.181a6 6 0 0 1-.622.139l-.682.103-.555.072q-.525.067-.96.223a1.65 1.65 0 0 0-.688.453q-.255.289-.254.773 0 .67.495 1.014.494.338 1.262.338m6.733 1.244V14.137h1.805v4.594h.108q.157-.29.453-.67.295-.38.821-.664.525-.29 1.389-.29 1.122 0 2.004.568.88.567 1.382 1.636.507 1.069.507 2.571t-.5 2.578q-.502 1.069-1.377 1.648-.876.574-1.998.574-.846 0-1.383-.284a2.6 2.6 0 0 1-.833-.664 5 5 0 0 1-.465-.676h-.15V26.5zm1.768-4.637q0 .978.284 1.715.284.736.821 1.153.537.41 1.316.41.81 0 1.352-.428.544-.435.821-1.177.284-.743.284-1.673 0-.916-.278-1.648-.27-.73-.82-1.153-.544-.422-1.359-.422-.785 0-1.328.404-.537.405-.815 1.129t-.278 1.69m10.533-7.727v12.364h-1.805V14.137zm6.425 12.55q-1.37 0-2.36-.585a3.97 3.97 0 0 1-1.522-1.66q-.531-1.074-.531-2.517 0-1.425.531-2.512a4.13 4.13 0 0 1 1.497-1.696q.966-.61 2.258-.61.785 0 1.522.26.736.259 1.322.815.585.555.923 1.443.339.881.338 2.143v.64h-7.371v-1.353h5.603q0-.712-.29-1.261a2.2 2.2 0 0 0-.815-.876q-.52-.32-1.22-.32-.76 0-1.328.375a2.5 2.5 0 0 0-.869.966 2.8 2.8 0 0 0-.302 1.285v1.057q0 .93.326 1.582.332.651.924.996.591.338 1.382.338.513 0 .936-.145.423-.15.73-.447.309-.295.471-.73l1.709.308a3.1 3.1 0 0 1-.737 1.322 3.6 3.6 0 0 1-1.322.875q-.79.308-1.805.308m14.386 0q-1.304 0-2.276-.597a4.03 4.03 0 0 1-1.509-1.672q-.537-1.075-.537-2.511 0-1.443.537-2.524a4 4 0 0 1 1.509-1.678q.972-.598 2.276-.598t2.276.598a4 4 0 0 1 1.509 1.678q.537 1.08.537 2.524 0 1.436-.537 2.51a4.03 4.03 0 0 1-1.509 1.673q-.972.598-2.276.598m.006-1.515q.845 0 1.401-.446.555-.447.821-1.19.271-.742.271-1.636 0-.886-.271-1.63-.266-.748-.821-1.2-.556-.454-1.401-.454-.85 0-1.413.453-.555.453-.827 1.202a4.8 4.8 0 0 0-.265 1.63q0 .892.265 1.636.272.742.827 1.189.563.447 1.413.447m8.136-4.177v5.506h-1.805v-9.273h1.733v1.51h.115a2.65 2.65 0 0 1 1.002-1.184q.688-.447 1.732-.447.949 0 1.66.399.713.392 1.105 1.17.393.78.393 1.927V26.5h-1.805v-5.68q0-1.008-.526-1.576-.525-.573-1.442-.573-.628 0-1.117.271a1.95 1.95 0 0 0-.767.797q-.278.52-.278 1.256"/><path fill="#f9a332" d="M155.46 14.137v12.364h-2.536l-4.92-7.136h-.079v7.136h-2.988V14.137h2.572l4.866 7.124h.102v-7.124zm6.213 12.539q-1.455 0-2.511-.574a3.96 3.96 0 0 1-1.618-1.648q-.561-1.074-.562-2.553 0-1.437.568-2.512a4.1 4.1 0 0 1 1.6-1.678q1.032-.604 2.433-.604.99 0 1.811.308.82.308 1.418.912.599.604.93 1.49.332.882.332 2.023v.737h-8.059v-1.715h5.312a1.66 1.66 0 0 0-.223-.839 1.5 1.5 0 0 0-.598-.573 1.7 1.7 0 0 0-.863-.212q-.495 0-.888.224a1.68 1.68 0 0 0-.863 1.449v1.744q0 .567.224.996.223.423.633.658t.978.236q.393 0 .713-.109t.549-.32.344-.52l2.711.08a3.35 3.35 0 0 1-.743 1.587q-.567.67-1.491 1.044-.924.369-2.137.369m8.287-9.448 1.528 3.055 1.581-3.055h2.976l-2.589 4.636 2.686 4.637h-2.952l-1.702-3.08-1.661 3.08h-2.994l2.693-4.637-2.56-4.636zm13.416 5.27v-5.27h2.946V26.5h-2.813v-1.727h-.097a2.7 2.7 0 0 1-1.05 1.352q-.737.495-1.781.495-.948 0-1.666-.434a2.96 2.96 0 0 1-1.117-1.214q-.399-.785-.405-1.835v-5.91h2.952v5.33q.006.756.399 1.19.392.434 1.068.434.441 0 .791-.193.357-.2.562-.573.21-.381.211-.918m12.92-2.439-2.71.073a1 1 0 0 0-.23-.513 1.2 1.2 0 0 0-.489-.357 1.7 1.7 0 0 0-.688-.132q-.513 0-.875.205-.357.206-.35.555a.6.6 0 0 0 .217.471q.23.2.815.32l1.787.338q1.389.266 2.065.882.682.615.688 1.63-.006.953-.568 1.66-.555.706-1.521 1.098-.965.387-2.21.387-1.986 0-3.133-.815-1.14-.822-1.304-2.198l2.916-.072q.097.506.501.773.405.265 1.033.265.567 0 .923-.211.357-.21.362-.561a.6.6 0 0 0-.277-.502q-.272-.193-.851-.301l-1.618-.308q-1.395-.254-2.077-.936-.682-.688-.676-1.75-.006-.93.495-1.588.501-.664 1.425-1.015.923-.35 2.179-.35 1.884 0 2.97.791 1.086.785 1.201 2.161m1.683-5.922h3.701l3.139 7.655h.145l3.139-7.655h3.701V26.5h-2.91v-7.595h-.103l-2.97 7.516h-1.859l-2.97-7.558h-.103V26.5h-2.91zm20.017 12.539q-1.461 0-2.511-.598a4.1 4.1 0 0 1-1.612-1.678q-.561-1.08-.562-2.505 0-1.431.562-2.506.567-1.08 1.612-1.678 1.05-.604 2.511-.604t2.505.604a4 4 0 0 1 1.612 1.678q.568 1.075.568 2.506 0 1.424-.568 2.505a4.07 4.07 0 0 1-1.612 1.678q-1.044.598-2.505.598m.018-2.228q.531 0 .9-.326.367-.327.561-.905.2-.58.199-1.34 0-.773-.199-1.353-.194-.58-.561-.905a1.3 1.3 0 0 0-.9-.326q-.55 0-.929.326-.375.326-.574.905-.193.58-.193 1.352 0 .762.193 1.34.2.58.574.906.38.326.929.326m9.566 2.186a3.4 3.4 0 0 1-1.866-.532q-.839-.531-1.34-1.593-.501-1.063-.501-2.639 0-1.636.519-2.692t1.359-1.564a3.47 3.47 0 0 1 1.817-.507q.73 0 1.249.254.519.247.858.64.337.392.513.815h.06v-4.679h2.952V26.5h-2.922v-1.504h-.09a2.9 2.9 0 0 1-.532.803q-.344.375-.863.604-.513.23-1.213.23m1.026-2.3q.537 0 .918-.302.38-.309.585-.864t.205-1.304q0-.76-.205-1.31-.2-.55-.585-.845a1.45 1.45 0 0 0-.918-.296q-.549 0-.93.302-.38.302-.579.851-.193.55-.193 1.298 0 .75.199 1.304.2.555.573.864.381.3.93.301m14.557-4.275-2.711.073a1 1 0 0 0-.229-.513 1.24 1.24 0 0 0-.489-.357 1.7 1.7 0 0 0-.689-.132q-.513 0-.875.205-.356.206-.35.555a.6.6 0 0 0 .217.471q.23.2.815.32l1.787.338q1.389.266 2.065.882.682.615.688 1.63-.006.953-.568 1.66-.555.706-1.521 1.098-.966.387-2.209.387-1.987 0-3.133-.815-1.142-.822-1.304-2.198l2.915-.072q.098.506.501.773.405.265 1.033.265.567 0 .923-.211.357-.21.363-.561a.6.6 0 0 0-.278-.502q-.272-.193-.851-.301l-1.618-.308q-1.395-.254-2.077-.936-.682-.688-.676-1.75-.006-.93.495-1.588.501-.664 1.425-1.015.923-.35 2.179-.35 1.884 0 2.97.791 1.087.785 1.202 2.161"/></g></g><rect width="249.858" height="37.858" x="1.071" y="1.071" stroke="#fff" stroke-opacity=".15" stroke-width="2.143" rx="6.929"/><defs><filter id="c" width="39.202" height="39.202" x="2.4" y=".4" color-interpolation-filters="sRGB" filterUnits="userSpaceOnUse"><feFlood flood-opacity="0" result="BackgroundImageFix"/><feColorMatrix in="SourceAlpha" result="hardAlpha" values="0 0 0 0 0 0 0 0 0 0 0 0 0 0 0 0 0 0 127 0"/><feOffset/><feGaussianBlur stdDeviation="2.8"/><feComposite in2="hardAlpha" operator="out"/><feColorMatrix values="0 0 0 0 0 0 0 0 0 0 0 0 0 0 0 0 0 0 0.25 0"/><feBlend in2="BackgroundImageFix" result="effect1_dropShadow_44_23"/><feBlend in="SourceGraphic" in2="effect1_dropShadow_44_23" result="shape"/></filter><filter id="d" width="213.429" height="32.429" x="36.287" y="3.786" color-interpolation-filters="sRGB" filterUnits="userSpaceOnUse"><feFlood flood-opacity="0" result="BackgroundImageFix"/><feColorMatrix in="SourceAlpha" result="hardAlpha" values="0 0 0 0 0 0 0 0 0 0 0 0 0 0 0 0 0 0 127 0"/><feOffset/><feGaussianBlur stdDeviation="2.857"/><feComposite in2="hardAlpha" operator="out"/><feColorMatrix values="0 0 0 0 0 0 0 0 0 0 0 0 0 0 0 0 0 0 0.25 0"/><feBlend in2="BackgroundImageFix" result="effect1_dropShadow_44_23"/><feBlend in="SourceGraphic" in2="effect1_dropShadow_44_23" result="shape"/></filter><linearGradient id="b" x1="126.001" x2="126.001" y1="0" y2="40.001" gradientUnits="userSpaceOnUse"><stop stop-color="#301f09"/><stop offset="1" stop-color="#20150a"/></linearGradient><clipPath id="a"><rect width="252.001" height="40.001" fill="#fff" rx="8"/></clipPath></defs></svg>