<svg xmlns="http://www.w3.org/2000/svg" width="190" height="40" fill="none" viewBox="0 0 190 40"><rect width="190.001" height="40.001" fill="url(#a)" rx="8"/><rect width="187.858" height="37.858" x="1.071" y="1.071" stroke="#fff" stroke-opacity=".15" stroke-width="2.143" rx="6.929"/><g filter="url(#b)"><path fill="#e9e9ff" stroke="#ccc" stroke-linejoin="bevel" stroke-width=".298" d="m16.035 15.424 3.98 1.527v4.929l-3.98-1.527z"/><path fill="#353564" stroke="#ccc" stroke-linejoin="bevel" stroke-width=".298" d="M11.997 16.973v4.93l4.038-1.55v-4.929z"/><path fill="#afafde" stroke="#ccc" stroke-linejoin="bevel" stroke-width=".298" d="m11.997 21.902 3.979 1.526 4.038-1.549-3.98-1.526z"/><path fill="#f7f7f4" stroke="#ccc" stroke-linejoin="bevel" stroke-width=".298" d="m11.997 16.973 3.979 1.526 4.038-1.549-3.98-1.526z"/><path fill="#fff" stroke="#ccc" stroke-linejoin="bevel" stroke-width=".298" d="M15.976 18.5v4.929l4.038-1.55v-4.928z"/><path fill="#efeeea" stroke="#ccc" stroke-linejoin="bevel" stroke-width=".298" d="m11.997 16.973 3.979 1.527v4.929l-3.98-1.527z"/><path fill="#e9e9ff" stroke="#ccc" stroke-linejoin="bevel" stroke-width=".298" d="m20.032 11.978 3.98 1.526v4.93l-3.98-1.527z"/><path fill="#353564" stroke="#ccc" stroke-linejoin="bevel" stroke-width=".298" d="M15.994 13.527v4.929l4.038-1.55v-4.928z"/><path fill="#afafde" stroke="#ccc" stroke-linejoin="bevel" stroke-width=".298" d="m15.994 18.456 3.979 1.526 4.038-1.549-3.98-1.526z"/><path fill="#f7f7f4" stroke="#ccc" stroke-linejoin="bevel" stroke-width=".298" d="m15.994 13.527 3.979 1.526 4.038-1.549-3.98-1.526z"/><path fill="#fff" stroke="#ccc" stroke-linejoin="bevel" stroke-width=".298" d="M19.973 15.053v4.93l4.038-1.55v-4.929z"/><path fill="#efeeea" stroke="#ccc" stroke-linejoin="bevel" stroke-width=".298" d="m15.994 13.527 3.979 1.526v4.93l-3.98-1.527z"/><path fill="#e9e9ff" stroke="#ccc" stroke-linejoin="bevel" stroke-width=".298" d="m12.038 21.934 3.98 1.526v4.93l-3.98-1.527z"/><path fill="#353564" stroke="#ccc" stroke-linejoin="bevel" stroke-width=".298" d="M8 23.483v4.929l4.038-1.55v-4.928z"/><path fill="#afafde" stroke="#ccc" stroke-linejoin="bevel" stroke-width=".298" d="m8 28.411 3.98 1.526 4.037-1.548-3.979-1.526z"/><path fill="#f7f7f4" stroke="#ccc" stroke-linejoin="bevel" stroke-width=".298" d="m8 23.482 3.98 1.526 4.037-1.548-3.979-1.526z"/><path fill="#fff" stroke="#ccc" stroke-linejoin="bevel" stroke-width=".298" d="M11.98 25.01v4.928l4.037-1.549V23.46z"/><path fill="#efeeea" stroke="#ccc" stroke-linejoin="bevel" stroke-width=".298" d="m8 23.483 3.98 1.526v4.93L8 28.411z"/><path fill="#e9e9ff" stroke="#ccc" stroke-linejoin="bevel" stroke-width=".298" d="m16.035 23.465 3.98 1.527v4.929l-3.98-1.527z"/><path fill="#353564" stroke="#ccc" stroke-linejoin="bevel" stroke-width=".298" d="M11.997 25.014v4.93l4.038-1.55v-4.929z"/><path fill="#afafde" stroke="#ccc" stroke-linejoin="bevel" stroke-width=".298" d="m11.997 29.943 3.98 1.526 4.038-1.549-3.98-1.526z"/><path fill="#f7f7f4" stroke="#ccc" stroke-linejoin="bevel" stroke-width=".298" d="m11.997 25.014 3.98 1.526 4.038-1.549-3.98-1.526z"/><path fill="#fff" stroke="#ccc" stroke-linejoin="bevel" stroke-width=".298" d="M15.976 26.54v4.93l4.039-1.55v-4.928z"/><path fill="#efeeea" stroke="#ccc" stroke-linejoin="bevel" stroke-width=".298" d="m11.997 25.014 3.98 1.527v4.929l-3.98-1.527z"/><path fill="#e9e9ff" stroke="#ccc" stroke-linejoin="bevel" stroke-width=".298" d="m16.035 18.487 3.98 1.527v4.929l-3.98-1.527z"/><path fill="#353564" stroke="#ccc" stroke-linejoin="bevel" stroke-width=".298" d="M11.997 20.036v4.93l4.038-1.55v-4.929z"/><path fill="#afafde" stroke="#ccc" stroke-linejoin="bevel" stroke-width=".298" d="m11.997 24.965 3.98 1.526 4.038-1.549-3.98-1.526z"/><path fill="#f7f7f4" stroke="#ccc" stroke-linejoin="bevel" stroke-width=".298" d="m11.997 20.036 3.98 1.526 4.038-1.549-3.98-1.526z"/><path fill="#fff" stroke="#ccc" stroke-linejoin="bevel" stroke-width=".298" d="M15.976 21.563v4.929l4.039-1.55v-4.928z"/><path fill="#efeeea" stroke="#ccc" stroke-linejoin="bevel" stroke-width=".298" d="m11.997 20.036 3.98 1.527v4.929l-3.98-1.527z"/><path fill="#e9e9ff" stroke="#ccc" stroke-linejoin="bevel" stroke-width=".298" d="m32.022 20.402 3.98 1.526v4.93l-3.98-1.527z"/><path fill="#353564" stroke="#ccc" stroke-linejoin="bevel" stroke-width=".298" d="M27.984 21.95v4.93l4.038-1.55v-4.928z"/><path fill="#afafde" stroke="#ccc" stroke-linejoin="bevel" stroke-width=".298" d="m27.984 26.88 3.98 1.526 4.038-1.549-3.98-1.526z"/><path fill="#f7f7f4" stroke="#ccc" stroke-linejoin="bevel" stroke-width=".298" d="m27.984 21.95 3.98 1.527 4.038-1.549-3.98-1.526z"/><path fill="#fff" stroke="#ccc" stroke-linejoin="bevel" stroke-width=".298" d="M31.963 23.477v4.93l4.039-1.55v-4.929z"/><path fill="#efeeea" stroke="#ccc" stroke-linejoin="bevel" stroke-width=".298" d="m27.984 21.95 3.98 1.527v4.93l-3.98-1.527z"/><path fill="#e9e9ff" stroke="#ccc" stroke-linejoin="bevel" stroke-width=".298" d="m28.026 21.934 3.979 1.526v4.929l-3.98-1.526z"/><path fill="#353564" stroke="#ccc" stroke-linejoin="bevel" stroke-width=".298" d="M23.988 23.483v4.929l4.038-1.55v-4.928z"/><path fill="#afafde" stroke="#ccc" stroke-linejoin="bevel" stroke-width=".298" d="m23.988 28.411 3.979 1.526 4.038-1.548-3.98-1.526z"/><path fill="#f7f7f4" stroke="#ccc" stroke-linejoin="bevel" stroke-width=".298" d="m23.988 23.482 3.979 1.526 4.038-1.548-3.98-1.526z"/><path fill="#ffd242" stroke="#ccc" stroke-linejoin="bevel" stroke-width=".298" d="M27.967 25.009v4.929l4.038-1.549V23.46z"/><path fill="#efeeea" stroke="#ccc" stroke-linejoin="bevel" stroke-width=".298" d="m23.988 23.483 3.979 1.526v4.929l-3.98-1.526z"/><path fill="#fff" d="M30.498 27.378c.428-.165.775-.687.775-1.167s-.347-.737-.775-.572c-.429.164-.776.686-.776 1.167 0 .48.347.736.776.572"/><path fill="#e9e9ff" stroke="#ccc" stroke-linejoin="bevel" stroke-width=".298" d="m24.029 23.465 3.98 1.527v4.929l-3.98-1.527z"/><path fill="#353564" stroke="#ccc" stroke-linejoin="bevel" stroke-width=".298" d="M19.99 25.014v4.93l4.039-1.55v-4.929z"/><path fill="#afafde" stroke="#ccc" stroke-linejoin="bevel" stroke-width=".298" d="m19.99 29.943 3.98 1.526 4.038-1.549-3.979-1.526z"/><path fill="#f7f7f4" stroke="#ccc" stroke-linejoin="bevel" stroke-width=".298" d="m19.99 25.014 3.98 1.526 4.038-1.549-3.979-1.526z"/><path fill="#ffd242" stroke="#ccc" stroke-linejoin="bevel" stroke-width=".298" d="M23.97 26.54v4.93l4.038-1.55v-4.928z"/><path fill="#efeeea" stroke="#ccc" stroke-linejoin="bevel" stroke-width=".298" d="m19.99 25.014 3.98 1.527v4.929l-3.98-1.527z"/><path fill="#e9e9ff" stroke="#ccc" stroke-linejoin="bevel" stroke-width=".298" d="m20.032 24.997 3.98 1.526v4.93l-3.98-1.527z"/><path fill="#353564" stroke="#ccc" stroke-linejoin="bevel" stroke-width=".298" d="M15.993 26.546v4.929l4.039-1.55v-4.928z"/><path fill="#afafde" stroke="#ccc" stroke-linejoin="bevel" stroke-width=".298" d="M15.993 31.475 19.973 33l4.038-1.55-3.98-1.525z"/><path fill="#f7f7f4" stroke="#ccc" stroke-linejoin="bevel" stroke-width=".298" d="m15.993 26.546 3.98 1.526 4.038-1.549-3.98-1.526z"/><path fill="#fff" stroke="#ccc" stroke-linejoin="bevel" stroke-width=".298" d="M19.973 28.072v4.93l4.038-1.55v-4.929z"/><path fill="#efeeea" stroke="#ccc" stroke-linejoin="bevel" stroke-width=".298" d="m15.993 26.546 3.98 1.526v4.93l-3.98-1.527z"/><path fill="#e9e9ff" stroke="#ccc" stroke-linejoin="bevel" stroke-width=".298" d="m32.022 15.424 3.98 1.527v4.929l-3.98-1.527z"/><path fill="#353564" stroke="#ccc" stroke-linejoin="bevel" stroke-width=".298" d="M27.984 16.973v4.93l4.038-1.55v-4.929z"/><path fill="#afafde" stroke="#ccc" stroke-linejoin="bevel" stroke-width=".298" d="m27.984 21.902 3.98 1.526 4.038-1.549-3.98-1.526z"/><path fill="#f7f7f4" stroke="#ccc" stroke-linejoin="bevel" stroke-width=".298" d="m27.984 16.973 3.98 1.526 4.038-1.549-3.98-1.526z"/><path fill="#ffd242" stroke="#ccc" stroke-linejoin="bevel" stroke-width=".298" d="M31.963 18.5v4.928l4.039-1.549V16.95z"/><path fill="#efeeea" stroke="#ccc" stroke-linejoin="bevel" stroke-width=".298" d="m27.984 16.973 3.98 1.526v4.93l-3.98-1.527z"/><path fill="#e9e9ff" stroke="#ccc" stroke-linejoin="bevel" stroke-width=".298" d="m32.022 10.446 3.98 1.527v4.929l-3.98-1.527z"/><path fill="#353564" stroke="#ccc" stroke-linejoin="bevel" stroke-width=".298" d="M27.984 11.995v4.93l4.038-1.55v-4.929z"/><path fill="#afafde" stroke="#ccc" stroke-linejoin="bevel" stroke-width=".298" d="m27.984 16.924 3.98 1.526 4.038-1.549-3.98-1.526z"/><path fill="#ffc91d" stroke="#ccc" stroke-linejoin="bevel" stroke-width=".298" d="m27.984 11.995 3.98 1.526 4.038-1.549-3.98-1.526z"/><path fill="#ffd242" stroke="#ccc" stroke-linejoin="bevel" stroke-width=".298" d="M31.963 13.522v4.929l4.039-1.55v-4.928z"/><path fill="#efeeea" stroke="#ccc" stroke-linejoin="bevel" stroke-width=".298" d="m27.984 11.995 3.98 1.527v4.929l-3.98-1.527z"/><path fill="#e9e9ff" stroke="#ccc" stroke-linejoin="bevel" stroke-width=".298" d="m28.026 16.956 3.979 1.526v4.929l-3.98-1.526z"/><path fill="#353564" stroke="#ccc" stroke-linejoin="bevel" stroke-width=".298" d="M23.988 18.505v4.929l4.038-1.55v-4.928z"/><path fill="#afafde" stroke="#ccc" stroke-linejoin="bevel" stroke-width=".298" d="m23.988 23.433 3.979 1.526 4.038-1.548-3.98-1.526z"/><path fill="#f7f7f4" stroke="#ccc" stroke-linejoin="bevel" stroke-width=".298" d="m23.988 18.504 3.979 1.526 4.038-1.548-3.98-1.526z"/><path fill="#ffd242" stroke="#ccc" stroke-linejoin="bevel" stroke-width=".298" d="M27.967 20.031v4.93l4.038-1.55v-4.929z"/><path fill="#efeeea" stroke="#ccc" stroke-linejoin="bevel" stroke-width=".298" d="m23.988 18.505 3.979 1.526v4.93l-3.98-1.527z"/><path fill="#e9e9ff" stroke="#ccc" stroke-linejoin="bevel" stroke-width=".298" d="m28.026 11.978 3.979 1.526v4.93l-3.98-1.527z"/><path fill="#353564" stroke="#ccc" stroke-linejoin="bevel" stroke-width=".298" d="M23.988 13.527v4.929l4.038-1.55v-4.928z"/><path fill="#afafde" stroke="#ccc" stroke-linejoin="bevel" stroke-width=".298" d="m23.988 18.456 3.979 1.526 4.038-1.55-3.98-1.525z"/><path fill="#f7f7f4" stroke="#ccc" stroke-linejoin="bevel" stroke-width=".298" d="m23.988 13.527 3.979 1.526 4.038-1.55-3.98-1.525z"/><path fill="#3775a9" stroke="#ccc" stroke-linejoin="bevel" stroke-width=".298" d="M27.967 15.053v4.93l4.038-1.55v-4.929z"/><path fill="#efeeea" stroke="#ccc" stroke-linejoin="bevel" stroke-width=".298" d="m23.988 13.527 3.979 1.526v4.93l-3.98-1.527z"/><path fill="#e9e9ff" stroke="#ccc" stroke-linejoin="bevel" stroke-width=".298" d="m28.026 7 3.979 1.526v4.93l-3.98-1.527z"/><path fill="#353564" stroke="#ccc" stroke-linejoin="bevel" stroke-width=".298" d="M23.988 8.549v4.929l4.038-1.549V7z"/><path fill="#afafde" stroke="#ccc" stroke-linejoin="bevel" stroke-width=".298" d="m23.988 13.478 3.979 1.526 4.038-1.549-3.98-1.526z"/><path fill="#2f6491" stroke="#ccc" stroke-linejoin="bevel" stroke-width=".298" d="m23.988 8.549 3.979 1.526 4.038-1.549L28.025 7z"/><path fill="#3775a9" stroke="#ccc" stroke-linejoin="bevel" stroke-width=".298" d="M27.967 10.075v4.93l4.038-1.55V8.526z"/><path fill="#efeeea" stroke="#ccc" stroke-linejoin="bevel" stroke-width=".298" d="m23.988 8.549 3.979 1.526v4.93l-3.98-1.527z"/><path fill="#e9e9ff" stroke="#ccc" stroke-linejoin="bevel" stroke-width=".298" d="m24.029 18.487 3.98 1.527v4.929l-3.98-1.527z"/><path fill="#353564" stroke="#ccc" stroke-linejoin="bevel" stroke-width=".298" d="M19.99 20.036v4.93l4.039-1.55v-4.929z"/><path fill="#afafde" stroke="#ccc" stroke-linejoin="bevel" stroke-width=".298" d="m19.99 24.965 3.98 1.526 4.038-1.549-3.979-1.526z"/><path fill="#f7f7f4" stroke="#ccc" stroke-linejoin="bevel" stroke-width=".298" d="m19.99 20.036 3.98 1.526 4.038-1.549-3.979-1.526z"/><path fill="#ffd242" stroke="#ccc" stroke-linejoin="bevel" stroke-width=".298" d="M23.97 21.563v4.929l4.038-1.55v-4.928z"/><path fill="#efeeea" stroke="#ccc" stroke-linejoin="bevel" stroke-width=".298" d="m19.99 20.036 3.98 1.527v4.929l-3.98-1.527z"/><path fill="#e9e9ff" stroke="#ccc" stroke-linejoin="bevel" stroke-width=".298" d="m24.029 13.51 3.98 1.526v4.929l-3.98-1.526z"/><path fill="#353564" stroke="#ccc" stroke-linejoin="bevel" stroke-width=".298" d="M19.99 15.059v4.929l4.039-1.55V13.51z"/><path fill="#afafde" stroke="#ccc" stroke-linejoin="bevel" stroke-width=".298" d="m19.99 19.987 3.98 1.526 4.038-1.549-3.979-1.525z"/><path fill="#f7f7f4" stroke="#ccc" stroke-linejoin="bevel" stroke-width=".298" d="m19.99 15.058 3.98 1.526 4.038-1.548-3.979-1.527z"/><path fill="#3775a9" stroke="#ccc" stroke-linejoin="bevel" stroke-width=".298" d="M23.97 16.585v4.929l4.038-1.55v-4.928z"/><path fill="#efeeea" stroke="#ccc" stroke-linejoin="bevel" stroke-width=".298" d="m19.99 15.059 3.98 1.526v4.929l-3.98-1.526z"/><path fill="#e9e9ff" stroke="#ccc" stroke-linejoin="bevel" stroke-width=".298" d="m20.032 20.019 3.98 1.526v4.93l-3.98-1.527z"/><path fill="#353564" stroke="#ccc" stroke-linejoin="bevel" stroke-width=".298" d="M15.993 21.568v4.929l4.039-1.549v-4.929z"/><path fill="#afafde" stroke="#ccc" stroke-linejoin="bevel" stroke-width=".298" d="m15.993 26.497 3.98 1.526 4.038-1.549-3.98-1.526z"/><path fill="#f7f7f4" stroke="#ccc" stroke-linejoin="bevel" stroke-width=".298" d="m15.993 21.568 3.98 1.526 4.038-1.549-3.98-1.526z"/><path fill="#3775a9" stroke="#ccc" stroke-linejoin="bevel" stroke-width=".298" d="M19.973 23.094v4.93l4.038-1.55v-4.929z"/><path fill="#2f6491" stroke="#ccc" stroke-linejoin="bevel" stroke-width=".298" d="m15.993 21.568 3.98 1.526v4.93l-3.98-1.527z"/><path fill="#e9e9ff" stroke="#ccc" stroke-linejoin="bevel" stroke-width=".298" d="m20.032 15.041 3.98 1.526v4.93l-3.98-1.527z"/><path fill="#353564" stroke="#ccc" stroke-linejoin="bevel" stroke-width=".298" d="M15.993 16.59v4.93l4.039-1.55v-4.929z"/><path fill="#afafde" stroke="#ccc" stroke-linejoin="bevel" stroke-width=".298" d="m15.993 21.519 3.98 1.526 4.038-1.549-3.98-1.526z"/><path fill="#2f6491" stroke="#ccc" stroke-linejoin="bevel" stroke-width=".298" d="m15.993 16.59 3.98 1.526 4.038-1.549-3.98-1.526z"/><path fill="#3775a9" stroke="#ccc" stroke-linejoin="bevel" stroke-width=".298" d="M19.973 18.117v4.929l4.038-1.55v-4.928z"/><path fill="#2f6491" stroke="#ccc" stroke-linejoin="bevel" stroke-width=".298" d="m15.993 16.59 3.98 1.526v4.93l-3.98-1.527z"/><path fill="#e9e9ff" stroke="#ccc" stroke-linejoin="bevel" stroke-width=".298" d="m24.029 8.532 3.98 1.526v4.929l-3.98-1.526z"/><path fill="#353564" stroke="#ccc" stroke-linejoin="bevel" stroke-width=".298" d="M19.99 10.08v4.93l4.039-1.55V8.533z"/><path fill="#afafde" stroke="#ccc" stroke-linejoin="bevel" stroke-width=".298" d="m19.99 15.01 3.98 1.525 4.038-1.548-3.979-1.526z"/><path fill="#2f6491" stroke="#ccc" stroke-linejoin="bevel" stroke-width=".298" d="m19.99 10.08 3.98 1.526 4.038-1.548-3.979-1.526z"/><path fill="#3775a9" stroke="#ccc" stroke-linejoin="bevel" stroke-width=".298" d="M23.97 11.607v4.93l4.038-1.55v-4.929z"/><path fill="#2f6491" stroke="#ccc" stroke-linejoin="bevel" stroke-width=".298" d="m19.99 10.08 3.98 1.527v4.929l-3.98-1.526z"/><path fill="#fff" d="M25.477 14.357c.429-.164.776-.687.776-1.167s-.347-.736-.776-.572c-.428.164-.775.687-.775 1.167s.347.736.775.572"/></g><g filter="url(#c)"><path fill="#e8e8e8" d="M44.404 26.5h-1.98l4.45-12.363h2.154l4.45 12.364h-1.98l-3.496-10.118h-.096zm.332-4.841h6.424v1.57h-6.424zm17.153-4.431L58.526 26.5h-1.932l-3.368-9.273h1.938l2.348 7.136h.096l2.343-7.136zm4.129 9.478a3.8 3.8 0 0 1-1.594-.326 2.7 2.7 0 0 1-1.129-.96q-.41-.628-.41-1.54 0-.784.302-1.291.301-.507.814-.803a4.3 4.3 0 0 1 1.148-.447q.633-.15 1.291-.23l1.353-.156q.519-.066.754-.212.236-.144.236-.47v-.043q0-.79-.447-1.225-.44-.435-1.316-.435-.912 0-1.437.405-.519.398-.718.887l-1.696-.386q.301-.845.88-1.365.587-.525 1.347-.76a5.3 5.3 0 0 1 1.6-.242q.556 0 1.177.133.628.128 1.171.47.55.345.9.985.35.634.35 1.648v6.158H68.83v-1.268h-.072a2.6 2.6 0 0 1-.526.688 2.8 2.8 0 0 1-.9.562q-.548.222-1.315.223m.392-1.449q.75 0 1.28-.296a2.07 2.07 0 0 0 .815-.772q.284-.484.284-1.033v-1.195q-.098.097-.374.181a6 6 0 0 1-.622.139l-.682.103-.556.072q-.525.067-.96.223a1.65 1.65 0 0 0-.688.453q-.254.289-.254.773 0 .67.496 1.014.495.338 1.261.338m6.588 1.244v-9.273h1.805V26.5zm.912-10.704q-.471 0-.81-.314a1.02 1.02 0 0 1-.331-.76q0-.447.332-.761.338-.32.809-.32.47 0 .803.32a1 1 0 0 1 .338.76q0 .441-.338.761-.333.315-.803.314m5.127-1.66v12.364H77.23V14.137zm5.126 12.569a3.8 3.8 0 0 1-1.593-.326 2.7 2.7 0 0 1-1.13-.96q-.41-.628-.41-1.54 0-.784.302-1.291t.815-.803a4.3 4.3 0 0 1 1.147-.447q.634-.15 1.292-.23l1.352-.156q.52-.066.755-.212.235-.144.235-.47v-.043q0-.79-.446-1.225-.441-.435-1.317-.435-.91 0-1.436.405-.52.398-.719.887l-1.696-.386q.302-.845.881-1.365.586-.525 1.347-.76a5.3 5.3 0 0 1 1.6-.242q.555 0 1.177.133.627.128 1.17.47.55.345.9.985.35.634.35 1.648v6.158h-1.762v-1.268h-.073a2.6 2.6 0 0 1-.525.688 2.8 2.8 0 0 1-.9.562q-.55.222-1.316.223m.393-1.449q.748 0 1.28-.296a2.07 2.07 0 0 0 .815-.772q.283-.484.283-1.033v-1.195q-.096.097-.374.181a6 6 0 0 1-.622.139l-.682.103-.555.072q-.525.067-.96.223a1.65 1.65 0 0 0-.688.453q-.255.289-.254.773 0 .67.495 1.014.494.338 1.262.338m6.733 1.244V14.137h1.805v4.594h.108q.157-.29.453-.67.295-.38.821-.664.525-.29 1.389-.29 1.122 0 2.004.568.88.567 1.382 1.636.507 1.069.507 2.571t-.5 2.578q-.502 1.069-1.377 1.648-.876.574-1.998.574-.846 0-1.383-.284a2.6 2.6 0 0 1-.833-.664 5 5 0 0 1-.465-.676h-.15V26.5zm1.768-4.637q0 .978.284 1.715.284.736.821 1.153.537.41 1.316.41.81 0 1.352-.428.544-.435.821-1.177.284-.743.284-1.673 0-.916-.278-1.648-.27-.73-.82-1.153-.544-.422-1.359-.422-.785 0-1.328.404-.537.405-.815 1.129t-.278 1.69m10.533-7.727v12.364h-1.805V14.137zm6.425 12.55q-1.37 0-2.36-.585a3.97 3.97 0 0 1-1.522-1.66q-.531-1.074-.531-2.517 0-1.425.531-2.512a4.13 4.13 0 0 1 1.497-1.696q.966-.61 2.258-.61.785 0 1.522.26.736.259 1.322.815.585.555.923 1.443.339.881.338 2.143v.64h-7.371v-1.353h5.603q0-.712-.29-1.261a2.2 2.2 0 0 0-.815-.876q-.52-.32-1.22-.32-.76 0-1.328.375a2.5 2.5 0 0 0-.869.966 2.8 2.8 0 0 0-.302 1.285v1.057q0 .93.326 1.582.332.651.924.996.591.338 1.382.338.513 0 .936-.145.423-.15.73-.447.309-.295.471-.73l1.709.308a3.1 3.1 0 0 1-.737 1.322 3.6 3.6 0 0 1-1.322.875q-.79.308-1.805.308m14.386 0q-1.304 0-2.276-.597a4.03 4.03 0 0 1-1.509-1.672q-.537-1.075-.537-2.511 0-1.443.537-2.524a4 4 0 0 1 1.509-1.678q.972-.598 2.276-.598t2.276.598a4 4 0 0 1 1.509 1.678q.537 1.08.537 2.524 0 1.436-.537 2.51a4.03 4.03 0 0 1-1.509 1.673q-.972.598-2.276.598m.006-1.515q.845 0 1.401-.446.555-.447.821-1.19.271-.742.271-1.636 0-.886-.271-1.63-.266-.748-.821-1.2-.556-.454-1.401-.454-.85 0-1.413.453-.555.453-.827 1.202a4.8 4.8 0 0 0-.265 1.63q0 .892.265 1.636.272.742.827 1.189.563.447 1.413.447m8.136-4.177v5.506h-1.805v-9.273h1.733v1.51h.115a2.65 2.65 0 0 1 1.002-1.184q.688-.447 1.732-.447.949 0 1.66.399.713.392 1.105 1.17.393.78.393 1.927V26.5h-1.805v-5.68q0-1.008-.526-1.576-.525-.573-1.442-.573-.628 0-1.117.271a1.95 1.95 0 0 0-.767.797q-.278.52-.278 1.256"/><path fill="#fff" d="M144.937 26.5V14.138h5.107q1.389 0 2.397.543 1.014.538 1.564 1.504.549.96.549 2.233 0 1.28-.561 2.24a3.77 3.77 0 0 1-1.588 1.479q-1.032.525-2.451.525h-3.151v-2.354h2.595q.677 0 1.129-.236.46-.235.695-.658.235-.428.235-.996 0-.573-.235-.99a1.6 1.6 0 0 0-.695-.652q-.458-.23-1.129-.23h-1.473v9.956zm12.895 3.478q-.531 0-1.002-.085a4 4 0 0 1-.809-.21l.652-2.144q.434.145.785.17.355.023.61-.116.259-.132.398-.477l.115-.277-3.297-9.611h3.091l1.709 6.616h.096l1.733-6.616h3.109l-3.495 10.16a4.3 4.3 0 0 1-.719 1.34 3.1 3.1 0 0 1-1.189.918q-.725.332-1.787.332m8.322-3.477V14.137h5.107q1.389 0 2.397.543 1.014.538 1.563 1.504.55.96.55 2.233 0 1.28-.562 2.24a3.76 3.76 0 0 1-1.587 1.479q-1.034.525-2.451.525h-3.152v-2.354h2.596q.676 0 1.129-.236.459-.235.694-.658.236-.428.236-.996 0-.573-.236-.99a1.6 1.6 0 0 0-.694-.652q-.459-.23-1.129-.23h-1.473v9.956zm14.078-12.364v12.364h-2.988V14.137z"/></g><defs><filter id="b" width="39.5" height="39.202" x="2.251" y=".4" color-interpolation-filters="sRGB" filterUnits="userSpaceOnUse"><feFlood flood-opacity="0" result="BackgroundImageFix"/><feColorMatrix in="SourceAlpha" result="hardAlpha" values="0 0 0 0 0 0 0 0 0 0 0 0 0 0 0 0 0 0 127 0"/><feOffset/><feGaussianBlur stdDeviation="2.8"/><feComposite in2="hardAlpha" operator="out"/><feColorMatrix values="0 0 0 0 0 0 0 0 0 0 0 0 0 0 0 0 0 0 0.25 0"/><feBlend in2="BackgroundImageFix" result="effect1_dropShadow_48_165"/><feBlend in="SourceGraphic" in2="effect1_dropShadow_48_165" result="shape"/></filter><filter id="c" width="151.429" height="32.429" x="36.287" y="3.786" color-interpolation-filters="sRGB" filterUnits="userSpaceOnUse"><feFlood flood-opacity="0" result="BackgroundImageFix"/><feColorMatrix in="SourceAlpha" result="hardAlpha" values="0 0 0 0 0 0 0 0 0 0 0 0 0 0 0 0 0 0 127 0"/><feOffset/><feGaussianBlur stdDeviation="2.857"/><feComposite in2="hardAlpha" operator="out"/><feColorMatrix values="0 0 0 0 0 0 0 0 0 0 0 0 0 0 0 0 0 0 0.25 0"/><feBlend in2="BackgroundImageFix" result="effect1_dropShadow_48_165"/><feBlend in="SourceGraphic" in2="effect1_dropShadow_48_165" result="shape"/></filter><linearGradient id="a" x1="95.001" x2="95.001" y1="0" y2="40.001" gradientUnits="userSpaceOnUse"><stop stop-color="#001f31"/><stop offset="1" stop-color="#00121d"/></linearGradient></defs></svg>