<svg xmlns="http://www.w3.org/2000/svg" width="254" height="40" fill="none" viewBox="0 0 254 40"><g clip-path="url(#a)"><rect width="254.001" height="40.001" fill="url(#b)" rx="8"/><g filter="url(#c)"><path fill="url(#d)" d="M5.385 21.57c-.07 0-.127.06-.136.144L5 23.761l.249 2.011c.009.085.065.144.136.144.069 0 .125-.059.136-.143l.294-2.012-.294-2.047c-.01-.084-.068-.144-.136-.144m1.398-1.118c-.011-.088-.07-.149-.141-.149-.072 0-.132.063-.142.149l-.334 3.309.334 3.236c.01.086.07.149.142.149s.13-.061.141-.149l.38-3.236zM12.05 17.4c-.137 0-.25.122-.257.276l-.266 6.088.266 3.934c.007.154.12.275.258.275.136 0 .249-.122.257-.276v.001l.3-3.934-.3-6.088c-.008-.154-.121-.276-.258-.276m-2.726 2.116c-.105 0-.19.09-.2.213l-.3 4.033.3 3.903c.009.12.095.212.2.212s.19-.092.2-.212l.34-3.903-.34-4.034c-.01-.121-.095-.212-.2-.212m5.497 8.456c.17 0 .308-.148.315-.338l.261-3.868-.26-8.105c-.008-.19-.146-.339-.316-.339-.171 0-.31.149-.315.34l-.232 8.103.232 3.87c.005.188.144.337.315.337m5.671.019c.234 0 .427-.21.432-.466l.182-3.757-.182-9.36c-.004-.257-.198-.466-.432-.466s-.428.209-.431.466l-.163 9.357.163 3.762c.003.255.197.464.431.464m-2.857-.015c.204 0 .368-.177.373-.403v.003l.222-3.81-.222-8.163c-.006-.226-.17-.403-.373-.403-.206 0-.37.177-.374.403l-.197 8.164.197 3.808c.005.224.169.401.374.401m-6.953-.036c.121 0 .22-.105.228-.243l.321-3.935-.32-3.743c-.01-.138-.107-.243-.229-.243s-.22.105-.228.244l-.283 3.742.283 3.935c.008.138.105.243.228.243m-2.704-.215c.088 0 .16-.076.17-.18l.36-3.784-.36-3.925c-.01-.105-.082-.181-.17-.181-.09 0-.162.076-.17.18l-.318 3.926.317 3.783c.009.105.08.18.17.18m11.08-12.258c-.221 0-.398.19-.403.435l-.18 7.865.18 3.785c.005.24.181.431.403.431.221 0 .397-.19.402-.434v.003l.202-3.784-.202-7.867c-.005-.243-.181-.434-.402-.434M13.431 27.98c.152 0 .279-.135.286-.307l.28-3.908-.28-7.48c-.008-.173-.134-.308-.287-.308-.154 0-.28.136-.286.308l-.249 7.48.25 3.91c.005.17.131.305.286.305m3.136-.369v-.002l.24-3.843-.24-8.378c-.006-.208-.158-.371-.345-.371-.188 0-.339.163-.344.371l-.214 8.378.214 3.845c.005.206.157.369.344.369.188 0 .338-.163.345-.37zm18.253-8.674c-.573 0-1.12.125-1.618.352C32.87 15.204 29.71 12 25.853 12c-.944 0-1.863.202-2.675.542-.316.133-.4.269-.403.533v14.383c.003.277.202.508.452.536L34.819 28c2.31 0 4.183-2.029 4.183-4.532s-1.873-4.532-4.182-4.532m-12.9-5.875c-.251 0-.457.224-.46.498l-.19 10.21.19 3.704c.003.271.209.494.46.494.25 0 .457-.223.46-.498v.005l.206-3.706-.205-10.21c-.004-.273-.21-.497-.46-.497"/></g><g filter="url(#e)"><path fill="#e8e8e8" d="M44.404 26.5h-1.98l4.45-12.363h2.154l4.45 12.364h-1.98l-3.496-10.118h-.096zm.332-4.84h6.424v1.569h-6.424zm17.153-4.432-3.363 9.273h-1.932l-3.368-9.273h1.938l2.348 7.136h.096l2.343-7.136zm4.129 9.478a3.8 3.8 0 0 1-1.594-.326 2.7 2.7 0 0 1-1.129-.96q-.41-.627-.41-1.54 0-.784.302-1.291.301-.507.814-.803a4.3 4.3 0 0 1 1.148-.447q.633-.15 1.291-.23l1.353-.156q.519-.066.754-.212.236-.144.236-.47v-.043q0-.79-.447-1.225-.44-.435-1.316-.435-.912 0-1.437.405-.519.398-.718.887l-1.696-.386q.301-.845.88-1.365.587-.525 1.347-.76a5.3 5.3 0 0 1 1.6-.242q.556 0 1.177.133.628.128 1.171.471.55.344.9.984.35.634.35 1.648v6.158H68.83v-1.268h-.072a2.6 2.6 0 0 1-.526.688 2.8 2.8 0 0 1-.9.562q-.548.222-1.315.223m.392-1.449q.75 0 1.28-.296.537-.295.815-.772.284-.483.284-1.033v-1.195q-.098.096-.374.181a6 6 0 0 1-.622.139l-.682.103-.556.072q-.525.066-.96.223a1.65 1.65 0 0 0-.688.453q-.254.289-.254.773 0 .67.496 1.014.495.338 1.261.338m6.588 1.244v-9.273h1.805v9.273zm.912-10.704q-.471 0-.81-.314a1.02 1.02 0 0 1-.331-.76q0-.447.332-.761.338-.32.809-.32.47 0 .803.32a1 1 0 0 1 .338.76q0 .442-.338.761-.333.315-.803.314m5.127-1.66v12.364H77.23V14.137zm5.126 12.569a3.8 3.8 0 0 1-1.593-.326 2.7 2.7 0 0 1-1.13-.96q-.41-.627-.41-1.54 0-.784.302-1.291t.815-.803a4.3 4.3 0 0 1 1.147-.447q.634-.15 1.292-.23l1.352-.156q.52-.066.755-.212.235-.144.235-.47v-.043q0-.79-.446-1.225-.441-.435-1.317-.435-.91 0-1.436.405-.52.398-.719.887l-1.696-.386q.302-.845.881-1.365.586-.525 1.347-.76a5.3 5.3 0 0 1 1.6-.242q.555 0 1.177.133.627.128 1.17.471.55.344.9.984.35.634.35 1.648v6.158h-1.762v-1.268h-.073a2.6 2.6 0 0 1-.525.688 2.8 2.8 0 0 1-.9.562q-.55.222-1.316.223m.393-1.449q.748 0 1.28-.296.537-.295.815-.772.283-.483.283-1.033v-1.195q-.096.096-.374.181a6 6 0 0 1-.622.139l-.682.103-.555.072q-.525.066-.96.223a1.65 1.65 0 0 0-.688.453q-.255.289-.254.773 0 .67.495 1.014.494.338 1.262.338m6.733 1.244V14.137h1.805v4.594h.108q.157-.29.453-.67.295-.38.821-.664.525-.29 1.389-.29 1.122 0 2.004.568.88.567 1.382 1.636.507 1.069.507 2.572 0 1.502-.5 2.577-.502 1.07-1.377 1.648-.876.574-1.998.574-.846 0-1.383-.284a2.6 2.6 0 0 1-.833-.664 5 5 0 0 1-.465-.676h-.15V26.5zm1.768-4.637q0 .978.284 1.715.284.735.821 1.153.537.41 1.316.41.81 0 1.352-.428.544-.435.821-1.177.284-.743.284-1.673 0-.916-.278-1.648-.27-.73-.82-1.153-.544-.422-1.359-.422-.785 0-1.328.404-.537.405-.815 1.129t-.278 1.69m10.533-7.727v12.364h-1.805V14.137zm6.425 12.55q-1.37 0-2.36-.585a3.97 3.97 0 0 1-1.522-1.66q-.531-1.074-.531-2.517 0-1.425.531-2.512a4.13 4.13 0 0 1 1.497-1.696q.966-.61 2.258-.61.785 0 1.522.26a3.7 3.7 0 0 1 1.322.815q.585.555.923 1.443.339.881.338 2.143v.64h-7.371v-1.353h5.603q0-.712-.29-1.261a2.2 2.2 0 0 0-.815-.876q-.52-.32-1.22-.32-.76 0-1.328.375a2.5 2.5 0 0 0-.869.966 2.8 2.8 0 0 0-.302 1.285v1.057q0 .93.326 1.582.332.651.924.996.591.338 1.382.338.513 0 .936-.145.423-.15.73-.447.309-.295.471-.73l1.709.308a3.1 3.1 0 0 1-.737 1.322 3.6 3.6 0 0 1-1.322.875q-.79.308-1.805.308m14.386 0q-1.304 0-2.276-.597a4.03 4.03 0 0 1-1.509-1.672q-.537-1.074-.537-2.511 0-1.443.537-2.524a4 4 0 0 1 1.509-1.678q.972-.597 2.276-.598 1.304 0 2.276.598a4 4 0 0 1 1.509 1.678q.537 1.08.537 2.524 0 1.436-.537 2.511a4.03 4.03 0 0 1-1.509 1.672q-.972.598-2.276.598m.006-1.514q.845 0 1.401-.447a2.6 2.6 0 0 0 .821-1.19q.271-.742.271-1.635 0-.888-.271-1.63a2.66 2.66 0 0 0-.821-1.202q-.556-.453-1.401-.453-.85 0-1.413.453-.555.453-.827 1.202a4.8 4.8 0 0 0-.265 1.63q0 .892.265 1.636.272.742.827 1.189.563.447 1.413.447m8.136-4.178v5.506h-1.805V17.23h1.733v1.51h.115a2.65 2.65 0 0 1 1.002-1.184q.688-.447 1.732-.447.949 0 1.66.399.713.392 1.105 1.17.393.78.393 1.927V26.5h-1.805v-5.68q0-1.008-.526-1.576-.525-.573-1.442-.573-.628 0-1.117.271a1.95 1.95 0 0 0-.767.797q-.278.52-.278 1.256"/><path fill="url(#f)" d="M151.62 17.844q-.06-.664-.537-1.033-.471-.374-1.346-.374-.58 0-.966.151-.387.15-.58.417a1 1 0 0 0-.199.597.9.9 0 0 0 .109.49q.126.21.362.374.242.157.579.277.338.12.761.212l1.062.241q.918.2 1.618.531.707.333 1.184.791.483.459.73 1.057.248.597.254 1.34-.007 1.17-.592 2.01t-1.684 1.286q-1.093.447-2.638.447-1.552 0-2.705-.465-1.153-.464-1.793-1.413-.64-.948-.658-2.396h2.862q.036.597.319.996.285.398.779.603a3 3 0 0 0 1.159.206q.604 0 1.027-.163.428-.164.658-.453t.235-.664a.9.9 0 0 0-.217-.598q-.211-.253-.652-.435-.435-.186-1.111-.344l-1.292-.302q-1.606-.367-2.529-1.189-.924-.827-.918-2.233-.006-1.148.616-2.01.621-.864 1.72-1.347 1.1-.483 2.506-.483 1.436 0 2.493.49 1.063.482 1.648 1.357.585.876.598 2.029zm8.868 8.832q-1.461 0-2.511-.598a4.1 4.1 0 0 1-1.612-1.678q-.561-1.08-.561-2.505 0-1.431.561-2.506.567-1.08 1.612-1.678 1.05-.604 2.511-.604 1.46 0 2.506.604 1.05.598 1.612 1.678.567 1.075.567 2.506 0 1.425-.567 2.505a4.1 4.1 0 0 1-1.612 1.678q-1.045.598-2.506.598m.018-2.228q.532 0 .9-.326t.561-.905q.2-.58.2-1.34 0-.773-.2-1.353-.193-.58-.561-.905a1.3 1.3 0 0 0-.9-.326q-.55 0-.929.326-.375.326-.574.905-.193.58-.193 1.352 0 .762.193 1.34.2.58.574.906.38.327.929.326m12.162-1.95v-5.27h2.946v9.273h-2.813v-1.727h-.097a2.7 2.7 0 0 1-1.05 1.352q-.737.495-1.781.495-.948 0-1.666-.434a2.96 2.96 0 0 1-1.117-1.214q-.399-.785-.405-1.835v-5.91h2.952v5.33q.006.756.399 1.19.392.434 1.068.434.441 0 .791-.193.357-.199.562-.573.21-.381.211-.918m7.777-1.286v5.289h-2.952v-9.273h2.807v1.702h.103a2.6 2.6 0 0 1 1.05-1.334q.743-.489 1.769-.489.978 0 1.696.441.725.434 1.123 1.22.405.778.399 1.823v5.91h-2.952v-5.33q.006-.774-.393-1.208-.392-.435-1.093-.435-.464 0-.821.205a1.36 1.36 0 0 0-.543.574q-.187.375-.193.905m11.209 5.422a3.4 3.4 0 0 1-1.865-.532q-.84-.531-1.341-1.593-.501-1.063-.501-2.639 0-1.636.519-2.692.52-1.056 1.359-1.564a3.47 3.47 0 0 1 1.817-.507q.73 0 1.25.254.518.247.857.64.338.392.513.815h.06v-4.679h2.952v12.364h-2.922v-1.504h-.09a2.9 2.9 0 0 1-.531.803q-.344.375-.864.604-.513.23-1.213.23m1.026-2.3q.537 0 .918-.302.38-.308.585-.864.206-.555.206-1.304 0-.76-.206-1.31-.199-.55-.585-.845a1.45 1.45 0 0 0-.918-.296q-.55 0-.929.302-.38.302-.58.851-.193.55-.193 1.298 0 .75.199 1.304.2.555.574.864.38.301.929.302m10.79 2.342q-1.467 0-2.518-.604a4.1 4.1 0 0 1-1.605-1.678q-.562-1.08-.562-2.5 0-1.424.562-2.499a4.1 4.1 0 0 1 1.611-1.684q1.051-.604 2.506-.604 1.286 0 2.239.465.96.465 1.498 1.316.543.846.573 1.986h-2.759q-.084-.713-.483-1.116-.391-.405-1.026-.405a1.46 1.46 0 0 0-.9.29q-.385.283-.603.845-.212.555-.212 1.376t.212 1.389q.218.561.603.851.387.285.9.284.41 0 .724-.175.32-.175.526-.513a2.1 2.1 0 0 0 .259-.834h2.759q-.042 1.147-.573 2.005a3.56 3.56 0 0 1-1.479 1.334q-.948.47-2.252.47m8.767-12.539V26.5h-2.952V14.137zm6.207 12.539q-1.461 0-2.511-.598a4.1 4.1 0 0 1-1.612-1.678q-.561-1.08-.561-2.505 0-1.431.561-2.506.567-1.08 1.612-1.678 1.05-.604 2.511-.604 1.46 0 2.506.604 1.05.598 1.612 1.678.567 1.075.567 2.506 0 1.425-.567 2.505a4.1 4.1 0 0 1-1.612 1.678q-1.045.598-2.506.598m.018-2.228q.532 0 .9-.326t.561-.905q.2-.58.2-1.34 0-.773-.2-1.353-.193-.58-.561-.905a1.3 1.3 0 0 0-.9-.326q-.55 0-.929.326-.375.326-.574.905-.193.58-.193 1.352 0 .762.193 1.34.2.58.574.906.38.327.929.326m12.162-1.95v-5.27h2.946V26.5h-2.813v-1.727h-.097a2.7 2.7 0 0 1-1.05 1.352q-.737.495-1.781.495-.948 0-1.666-.434a2.96 2.96 0 0 1-1.117-1.214q-.399-.785-.405-1.835v-5.91h2.952v5.33q.006.756.399 1.19.392.434 1.068.434.441 0 .791-.193.357-.199.562-.573.21-.381.211-.918m8.212 4.136a3.4 3.4 0 0 1-1.866-.532q-.839-.531-1.34-1.593-.501-1.063-.501-2.639 0-1.636.519-2.692.52-1.056 1.358-1.564a3.5 3.5 0 0 1 1.818-.507q.73 0 1.249.254.52.247.857.64.339.392.514.815h.06v-4.679h2.952V26.5h-2.922v-1.504h-.09a2.9 2.9 0 0 1-.532.803q-.344.375-.863.604-.514.23-1.213.23m1.026-2.3q.537 0 .917-.302.38-.308.586-.864.205-.555.205-1.304 0-.76-.205-1.31-.2-.55-.586-.845a1.45 1.45 0 0 0-.917-.296q-.549 0-.93.302-.38.302-.579.851-.194.55-.194 1.298 0 .75.2 1.304.199.555.573.864.381.301.93.302"/></g></g><rect width="251.858" height="37.858" x="1.071" y="1.071" stroke="#fff" stroke-opacity=".15" stroke-width="2.143" rx="6.929"/><defs><linearGradient id="b" x1="127.001" x2="127.001" y1="0" y2="40.001" gradientUnits="userSpaceOnUse"><stop stop-color="#402806"/><stop offset="1" stop-color="#270802"/></linearGradient><linearGradient id="d" x1="21.999" x2="21.999" y1="11.998" y2="33" gradientUnits="userSpaceOnUse"><stop stop-color="#f79810"/><stop offset="1" stop-color="#f8310e"/></linearGradient><linearGradient id="f" x1="195.001" x2="195.001" y1="9.501" y2="30.501" gradientUnits="userSpaceOnUse"><stop stop-color="#f4b252"/><stop offset="1" stop-color="#f4644a"/></linearGradient><filter id="c" width="45.202" height="39.202" x="-.6" y=".4" color-interpolation-filters="sRGB" filterUnits="userSpaceOnUse"><feFlood flood-opacity="0" result="BackgroundImageFix"/><feColorMatrix in="SourceAlpha" result="hardAlpha" values="0 0 0 0 0 0 0 0 0 0 0 0 0 0 0 0 0 0 127 0"/><feOffset/><feGaussianBlur stdDeviation="2.8"/><feComposite in2="hardAlpha" operator="out"/><feColorMatrix values="0 0 0 0 0 0 0 0 0 0 0 0 0 0 0 0 0 0 0.25 0"/><feBlend in2="BackgroundImageFix" result="effect1_dropShadow_1_74"/><feBlend in="SourceGraphic" in2="effect1_dropShadow_1_74" result="shape"/></filter><filter id="e" width="215.429" height="32.429" x="36.287" y="3.786" color-interpolation-filters="sRGB" filterUnits="userSpaceOnUse"><feFlood flood-opacity="0" result="BackgroundImageFix"/><feColorMatrix in="SourceAlpha" result="hardAlpha" values="0 0 0 0 0 0 0 0 0 0 0 0 0 0 0 0 0 0 127 0"/><feOffset/><feGaussianBlur stdDeviation="2.857"/><feComposite in2="hardAlpha" operator="out"/><feColorMatrix values="0 0 0 0 0 0 0 0 0 0 0 0 0 0 0 0 0 0 0.25 0"/><feBlend in2="BackgroundImageFix" result="effect1_dropShadow_1_74"/><feBlend in="SourceGraphic" in2="effect1_dropShadow_1_74" result="shape"/></filter><clipPath id="a"><rect width="254.001" height="40.001" fill="#fff" rx="8"/></clipPath></defs></svg>