<svg xmlns="http://www.w3.org/2000/svg" width="208" height="40" fill="none" viewBox="0 0 208 40"><rect width="208.001" height="40.001" fill="url(#a)" rx="8"/><rect width="205.858" height="37.858" x="1.071" y="1.071" stroke="#fff" stroke-opacity=".15" stroke-width="2.143" rx="6.929"/><g filter="url(#b)"><path fill="url(#c)" fill-rule="evenodd" d="M22.526 8.059c-.311.1-.55.28-.822.618-.076.095-.207.129-.378.097-.202-.039-.97-.088-2.982-.193-.588-.031-.707-.014-.813.113-.252.305-.184 1.288.104 1.502.082.06.529.07.969.02.237-.028.473-.052 1.015-.104l.494-.05c.137-.013.42-.04.632-.062.21-.02.52-.066.688-.101l.305-.063.091.06c.266.18.34.308.302.532-.072.42-.079.652-.069 2.136.013 1.833.056 1.67-.451 1.71-.317.025-.44.115-.496.363-.027.118-.02 1.249.009 1.558.018.193-.135.303-.483.349-.342.044-.425.24-.351.834.015.129-.063.233-.265.351a.335.335 0 0 0-.078.515c.157.166.165.248.04.428-.13.188-.132.218-.133 1.366-.002 1.154-.016 1.342-.118 1.494-.147.218-.867.882-1.037.956-.052.022-.49.034-1.667.046-.878.008-1.627.024-1.664.034-.151.042-.29-.007-.426-.147-.188-.196-.167-.193-1.462-.18-1.271.014-1.258.015-1.288-.166a1.4 1.4 0 0 0-.137-.45c-.158-.343-.297-.41-.736-.355-.28.035-.343.111-.411.496-.086.483-.176.584-.432.487-.168-.064-.194-.065-.857-.042a1 1 0 0 1-.165-.014.4.4 0 0 0-.185.016 1.3 1.3 0 0 1-.28.037c-.458.014-.534.038-.638.197-.23.35-.425 2.311-.323 3.245.118 1.066.265 1.57.485 1.662.302.125 1.61.183 1.952.086l.177-.05.08.056c.104.074.16.206.21.493.059.345.12.422.374.47.173.033.407.02.513-.028.222-.101.346-.794.212-1.182-.077-.222-.02-.275.082-.075.142.281.288.31 1.603.31 1.19 0 1.104.02 1.27-.308.135-.263.196-.312.383-.305.078.003.698.015 1.378.026 1.359.024 1.23.008 1.659.197 1.124.495 2.355.774 3.898.883.848.06 2.015.035 2.747-.06 1.316-.17 2.184-.39 3.082-.779.654-.283.944-.133 1.078.559.105.54.08.62-.237.749-.447.181-.724.368-.79.532-.047.118-.025.249.103.604.035.095.066.234.07.309.012.212.034.299.109.433.038.068.077.18.085.247.02.157.08.343.151.468.034.06.062.163.072.263.044.465.245.6 1.004.676.089.009.188.02.22.025 1.543.236 3.673-.408 5.205-1.573.715-.544.895-.802.755-1.082a.6.6 0 0 1-.042-.213.9.9 0 0 0-.15-.464.4.4 0 0 1-.06-.173 1.2 1.2 0 0 0-.15-.419.3.3 0 0 1-.035-.132.8.8 0 0 0-.13-.358.8.8 0 0 1-.081-.186c-.102-.34-.678-.546-1.262-.45-.5.081-.535.063-.68-.36-.46-1.35-1.086-2.347-1.81-2.882-.276-.203-.379-.25-1.408-.641-1.01-.385-1.266-.492-1.728-.727a11 11 0 0 1-.681-.37c-1.495-.962-1.334-.71-1.388-2.17-.037-.982-.045-1.02-.237-1.175-.156-.125-.18-.183-.136-.345.075-.28.036-.403-.172-.544-.162-.11-.184-.158-.16-.336.086-.602-.011-.818-.385-.859-.226-.024-.32-.054-.385-.123l-.058-.062-.002-.882c-.003-1.173.005-1.155-.534-1.181-.386-.02-.475-.041-.555-.137l-.064-.075v-1.659c0-.963-.01-1.75-.025-1.878-.03-.257-.026-.266.203-.482.176-.164.287-.231.354-.213.399.109.334.103 2.512.2 1.672.073 1.658.074 1.795-.199.179-.358.058-1.325-.178-1.425-.081-.034-.4-.032-.7.003-.223.027-.281.033-1.362.152-1.343.147-1.369.15-1.699.208-.323.056-.342.05-.528-.174-.396-.477-.985-.676-1.511-.508" clip-rule="evenodd"/></g><g filter="url(#d)"><path fill="#e8e8e8" d="M44.404 26.5h-1.98l4.45-12.363h2.154l4.45 12.364h-1.98l-3.496-10.118h-.096zm.332-4.84h6.424v1.569h-6.424zm17.153-4.432-3.363 9.273h-1.932l-3.368-9.273h1.938l2.348 7.136h.096l2.343-7.136zm4.129 9.478a3.8 3.8 0 0 1-1.594-.326 2.7 2.7 0 0 1-1.129-.96q-.41-.627-.41-1.54 0-.784.302-1.291.301-.507.814-.803a4.3 4.3 0 0 1 1.148-.447q.633-.15 1.291-.23l1.353-.156q.519-.066.754-.212.236-.144.236-.47v-.043q0-.79-.447-1.225-.44-.435-1.316-.435-.912 0-1.437.405-.519.398-.718.887l-1.696-.386q.301-.845.88-1.365.587-.525 1.347-.76a5.3 5.3 0 0 1 1.6-.242q.556 0 1.177.133.628.128 1.171.471.55.344.9.984.35.634.35 1.648v6.158H68.83v-1.268h-.072a2.6 2.6 0 0 1-.526.688 2.8 2.8 0 0 1-.9.562q-.548.222-1.315.223m.392-1.449q.75 0 1.28-.296.537-.295.815-.772.284-.483.284-1.033v-1.195q-.098.096-.374.181a6 6 0 0 1-.622.139l-.682.103-.556.072q-.525.066-.96.223a1.65 1.65 0 0 0-.688.453q-.254.289-.254.773 0 .67.496 1.014.495.338 1.261.338m6.588 1.244v-9.273h1.805v9.273zm.912-10.704q-.471 0-.81-.314a1.02 1.02 0 0 1-.331-.76q0-.447.332-.761.338-.32.809-.32.47 0 .803.32a1 1 0 0 1 .338.76q0 .442-.338.761-.333.315-.803.314m5.127-1.66v12.364H77.23V14.137zm5.126 12.569a3.8 3.8 0 0 1-1.593-.326 2.7 2.7 0 0 1-1.13-.96q-.41-.627-.41-1.54 0-.784.302-1.291t.815-.803a4.3 4.3 0 0 1 1.147-.447q.634-.15 1.292-.23l1.352-.156q.52-.066.755-.212.235-.144.235-.47v-.043q0-.79-.446-1.225-.441-.435-1.317-.435-.91 0-1.436.405-.52.398-.719.887l-1.696-.386q.302-.845.881-1.365.586-.525 1.347-.76a5.3 5.3 0 0 1 1.6-.242q.555 0 1.177.133.627.128 1.17.471.55.344.9.984.35.634.35 1.648v6.158h-1.762v-1.268h-.073a2.6 2.6 0 0 1-.525.688 2.8 2.8 0 0 1-.9.562q-.55.222-1.316.223m.393-1.449q.748 0 1.28-.296.537-.295.815-.772.283-.483.283-1.033v-1.195q-.096.096-.374.181a6 6 0 0 1-.622.139l-.682.103-.555.072q-.525.066-.96.223a1.65 1.65 0 0 0-.688.453q-.255.289-.254.773 0 .67.495 1.014.494.338 1.262.338m6.733 1.244V14.137h1.805v4.594h.108q.157-.29.453-.67.295-.38.821-.664.525-.29 1.389-.29 1.122 0 2.004.568.88.567 1.382 1.636.507 1.069.507 2.572 0 1.502-.5 2.577-.502 1.07-1.377 1.648-.876.574-1.998.574-.846 0-1.383-.284a2.6 2.6 0 0 1-.833-.664 5 5 0 0 1-.465-.676h-.15V26.5zm1.768-4.637q0 .978.284 1.715.284.735.821 1.153.537.41 1.316.41.81 0 1.352-.428.544-.435.821-1.177.284-.743.284-1.673 0-.916-.278-1.648-.27-.73-.82-1.153-.544-.422-1.359-.422-.785 0-1.328.404-.537.405-.815 1.129t-.278 1.69m10.533-7.727v12.364h-1.805V14.137zm6.425 12.55q-1.37 0-2.36-.585a3.97 3.97 0 0 1-1.522-1.66q-.531-1.074-.531-2.517 0-1.425.531-2.512a4.13 4.13 0 0 1 1.497-1.696q.966-.61 2.258-.61.785 0 1.522.26a3.7 3.7 0 0 1 1.322.815q.585.555.923 1.443.339.881.338 2.143v.64h-7.371v-1.353h5.603q0-.712-.29-1.261a2.2 2.2 0 0 0-.815-.876q-.52-.32-1.22-.32-.76 0-1.328.375a2.5 2.5 0 0 0-.869.966 2.8 2.8 0 0 0-.302 1.285v1.057q0 .93.326 1.582.332.651.924.996.591.338 1.382.338.513 0 .936-.145.423-.15.73-.447.309-.295.471-.73l1.709.308a3.1 3.1 0 0 1-.737 1.322 3.6 3.6 0 0 1-1.322.875q-.79.308-1.805.308m14.386 0q-1.304 0-2.276-.597a4.03 4.03 0 0 1-1.509-1.672q-.537-1.074-.537-2.511 0-1.443.537-2.524a4 4 0 0 1 1.509-1.678q.972-.597 2.276-.598 1.304 0 2.276.598a4 4 0 0 1 1.509 1.678q.537 1.08.537 2.524 0 1.436-.537 2.511a4.03 4.03 0 0 1-1.509 1.672q-.972.598-2.276.598m.006-1.514q.845 0 1.401-.447a2.6 2.6 0 0 0 .821-1.19q.271-.742.271-1.635 0-.888-.271-1.63a2.66 2.66 0 0 0-.821-1.202q-.556-.453-1.401-.453-.85 0-1.413.453-.555.453-.827 1.202a4.8 4.8 0 0 0-.265 1.63q0 .892.265 1.636.272.742.827 1.189.563.447 1.413.447m8.136-4.178v5.506h-1.805V17.23h1.733v1.51h.115a2.65 2.65 0 0 1 1.002-1.184q.688-.447 1.732-.447.949 0 1.66.399.713.392 1.105 1.17.393.78.393 1.927V26.5h-1.805v-5.68q0-1.008-.526-1.576-.525-.573-1.442-.573-.628 0-1.117.271a1.95 1.95 0 0 0-.767.797q-.278.52-.278 1.256"/><path fill="url(#e)" d="M151.62 17.844q-.06-.664-.537-1.033-.471-.374-1.346-.374-.58 0-.966.151-.387.15-.58.417a1 1 0 0 0-.199.597.9.9 0 0 0 .109.49q.126.21.362.374.242.157.579.277.338.12.761.212l1.062.241q.918.2 1.618.531.707.333 1.184.791.483.459.73 1.057.248.597.254 1.34-.007 1.17-.592 2.01t-1.684 1.286q-1.093.447-2.638.447-1.552 0-2.705-.465-1.153-.464-1.793-1.413-.64-.948-.658-2.396h2.862q.036.597.319.996.285.398.779.603a3 3 0 0 0 1.159.206q.604 0 1.027-.163.428-.164.658-.453t.235-.664a.9.9 0 0 0-.217-.598q-.211-.253-.652-.435-.435-.186-1.111-.344l-1.292-.302q-1.606-.367-2.529-1.189-.924-.827-.918-2.233-.006-1.148.616-2.01.621-.864 1.72-1.347 1.1-.483 2.506-.483 1.436 0 2.493.49 1.063.482 1.648 1.357.585.876.598 2.029zm4.54 12.134v-12.75h2.922v1.588h.09q.181-.423.513-.815.339-.393.858-.64.525-.255 1.255-.254.966 0 1.805.507.846.508 1.365 1.564t.519 2.692q0 1.575-.501 2.639-.495 1.063-1.34 1.593a3.4 3.4 0 0 1-1.866.532q-.7 0-1.213-.23a2.6 2.6 0 0 1-.863-.604 2.9 2.9 0 0 1-.532-.803h-.06v4.981zm2.892-8.114q0 .75.199 1.304.206.555.585.864.387.301.924.302.543 0 .924-.302.38-.308.573-.864.2-.555.199-1.304 0-.748-.199-1.298-.193-.55-.573-.85-.375-.303-.924-.303-.543 0-.924.296-.38.297-.585.845-.2.55-.199 1.31m7.982 4.637v-9.273h2.952v9.273zm1.479-10.354q-.622 0-1.069-.41a1.32 1.32 0 0 1-.446-1.002q0-.58.446-.99a1.5 1.5 0 0 1 1.069-.417q.628 0 1.068.417.447.41.447.99 0 .585-.447 1.002a1.5 1.5 0 0 1-1.068.41m7.674 14.024q-1.322 0-2.263-.368-.942-.369-1.48-1.008a2.8 2.8 0 0 1-.645-1.45l2.795-.156q.079.284.289.495.217.211.562.326.35.114.821.115.742 0 1.225-.363.489-.356.489-1.25v-1.63h-.102a2.2 2.2 0 0 1-.532.767 2.5 2.5 0 0 1-.887.532q-.525.193-1.207.193a3.76 3.76 0 0 1-1.86-.47q-.839-.478-1.346-1.474-.501-1.002-.501-2.578 0-1.623.519-2.674.52-1.056 1.358-1.564a3.5 3.5 0 0 1 1.818-.507q.73 0 1.249.254.525.247.863.64.339.392.514.815h.084v-1.588h2.94v9.309q0 1.177-.591 1.986-.592.81-1.655 1.226-1.062.422-2.457.422m.091-5.946q.537 0 .918-.284.38-.284.585-.815t.205-1.274q0-.754-.205-1.298-.2-.55-.585-.845a1.45 1.45 0 0 0-.918-.296q-.549 0-.93.302-.38.302-.579.851-.194.544-.194 1.286 0 .743.2 1.274t.573.815q.381.285.93.284m10.823 2.45q-1.46 0-2.512-.597a4.13 4.13 0 0 1-1.612-1.678q-.561-1.08-.561-2.505 0-1.431.561-2.506a4.1 4.1 0 0 1 1.612-1.678q1.051-.604 2.512-.604t2.505.604q1.05.598 1.612 1.678.567 1.075.567 2.506 0 1.425-.567 2.505a4.07 4.07 0 0 1-1.612 1.678q-1.044.598-2.505.598m.018-2.227q.531 0 .899-.326.369-.326.562-.905.199-.58.199-1.34 0-.773-.199-1.353-.193-.58-.562-.905a1.3 1.3 0 0 0-.899-.326 1.38 1.38 0 0 0-.93.326q-.374.326-.573.905-.194.58-.194 1.352 0 .762.194 1.34.199.58.573.906.38.327.93.326m11.413-7.22v2.173h-5.85v-2.173zm-4.625-2.222h2.952v8.579q0 .272.085.44.09.165.259.236.17.066.405.066.169 0 .356-.03a6 6 0 0 0 .29-.06l.447 2.13q-.212.061-.598.152a5 5 0 0 1-.912.115q-1.038.048-1.781-.242a2.3 2.3 0 0 1-1.128-.918q-.387-.621-.375-1.563z"/></g><defs><linearGradient id="a" x1="104.001" x2="104.001" y1="0" y2="40.001" gradientUnits="userSpaceOnUse"><stop stop-color="#342a1d"/><stop offset="1" stop-color="#1c1610"/></linearGradient><linearGradient id="c" x1="22.001" x2="22.001" y1="8" y2="32.001" gradientUnits="userSpaceOnUse"><stop stop-color="#cea260"/><stop offset="1" stop-color="#81562e"/></linearGradient><linearGradient id="e" x1="172.001" x2="172.001" y1="9.501" y2="30.501" gradientUnits="userSpaceOnUse"><stop stop-color="#e9c48d"/><stop offset="1" stop-color="#a2825d"/></linearGradient><filter id="b" width="39.202" height="39.202" x="2.4" y=".4" color-interpolation-filters="sRGB" filterUnits="userSpaceOnUse"><feFlood flood-opacity="0" result="BackgroundImageFix"/><feColorMatrix in="SourceAlpha" result="hardAlpha" values="0 0 0 0 0 0 0 0 0 0 0 0 0 0 0 0 0 0 127 0"/><feOffset/><feGaussianBlur stdDeviation="2.8"/><feComposite in2="hardAlpha" operator="out"/><feColorMatrix values="0 0 0 0 0 0 0 0 0 0 0 0 0 0 0 0 0 0 0.25 0"/><feBlend in2="BackgroundImageFix" result="effect1_dropShadow_2_3417"/><feBlend in="SourceGraphic" in2="effect1_dropShadow_2_3417" result="shape"/></filter><filter id="d" width="169.429" height="32.429" x="36.287" y="3.786" color-interpolation-filters="sRGB" filterUnits="userSpaceOnUse"><feFlood flood-opacity="0" result="BackgroundImageFix"/><feColorMatrix in="SourceAlpha" result="hardAlpha" values="0 0 0 0 0 0 0 0 0 0 0 0 0 0 0 0 0 0 127 0"/><feOffset/><feGaussianBlur stdDeviation="2.857"/><feComposite in2="hardAlpha" operator="out"/><feColorMatrix values="0 0 0 0 0 0 0 0 0 0 0 0 0 0 0 0 0 0 0.25 0"/><feBlend in2="BackgroundImageFix" result="effect1_dropShadow_2_3417"/><feBlend in="SourceGraphic" in2="effect1_dropShadow_2_3417" result="shape"/></filter></defs></svg>