<svg xmlns="http://www.w3.org/2000/svg" width="206" height="40" fill="none" viewBox="0 0 206 40"><g clip-path="url(#a)"><rect width="206.001" height="40.001" fill="url(#b)" rx="8"/><g filter="url(#c)"><path fill="url(#d)" d="M8.571 24.027C10.302 29.795 15.656 34 21.991 34c7.738 0 14.01-6.268 14.01-14S29.73 6 21.991 6c-7.424 0-13.5 5.772-13.979 13.07.908 1.522 1.26 2.463.558 4.957z"/><path fill="#fff" d="m21.27 16.494.001.07-3.428 4.976a3.84 3.84 0 0 0-2.297.64l-7.528-3.101s-.174 2.864.552 4.998l5.322 2.195a3.87 3.87 0 0 0 2.295 2.743 3.89 3.89 0 0 0 5.38-3.692l4.9-3.502.12.002c2.935 0 5.321-2.392 5.321-5.329a5.33 5.33 0 0 0-5.321-5.326 5.33 5.33 0 0 0-5.322 5.326zm-.823 10.085a2.997 2.997 0 0 1-3.92 1.616 3 3 0 0 1-1.543-1.47l1.733.717a2.207 2.207 0 0 0 1.697-4.078l-1.796-.742a2.98 2.98 0 0 1 2.211.034 2.96 2.96 0 0 1 1.619 1.628c.304.74.302 1.557-.005 2.295m6.149-6.535a3.556 3.556 0 0 1-3.546-3.55 3.55 3.55 0 0 1 3.546-3.548 3.556 3.556 0 0 1 3.546 3.549 3.55 3.55 0 0 1-3.546 3.55m-2.657-3.555a2.664 2.664 0 1 1 4.546 1.884c-.5.5-1.177.781-1.884.782a2.667 2.667 0 0 1-2.662-2.666"/></g><g filter="url(#e)"><path fill="#e8e8e8" d="M44.404 26.5h-1.98l4.45-12.363h2.154l4.45 12.364h-1.98l-3.496-10.118h-.096zm.332-4.84h6.424v1.569h-6.424zm17.153-4.432-3.363 9.273h-1.932l-3.368-9.273h1.938l2.348 7.136h.096l2.343-7.136zm4.129 9.478a3.8 3.8 0 0 1-1.594-.326 2.7 2.7 0 0 1-1.129-.96q-.41-.628-.41-1.54 0-.784.302-1.291.301-.507.814-.803a4.3 4.3 0 0 1 1.148-.447q.633-.15 1.291-.23l1.353-.156q.519-.066.754-.212.236-.144.236-.47v-.043q0-.79-.447-1.225-.44-.435-1.316-.435-.912 0-1.437.405-.519.398-.718.887l-1.696-.386q.301-.845.88-1.365.587-.525 1.347-.76a5.3 5.3 0 0 1 1.6-.242q.556 0 1.177.133.628.128 1.171.47.55.345.9.985.35.634.35 1.648v6.158H68.83v-1.268h-.072a2.6 2.6 0 0 1-.526.688 2.8 2.8 0 0 1-.9.562q-.548.222-1.315.223m.392-1.449q.75 0 1.28-.296.537-.295.815-.772.284-.483.284-1.033v-1.195q-.098.097-.374.181a6 6 0 0 1-.622.139l-.682.103-.556.072q-.525.066-.96.223a1.65 1.65 0 0 0-.688.453q-.254.289-.254.773 0 .67.496 1.014.495.338 1.261.338m6.588 1.244v-9.273h1.805v9.273zm.912-10.704q-.471 0-.81-.314a1.02 1.02 0 0 1-.331-.76q0-.447.332-.761.338-.32.809-.32.47 0 .803.32a1 1 0 0 1 .338.76q0 .441-.338.761-.333.315-.803.314m5.127-1.66v12.364H77.23V14.137zm5.126 12.569a3.8 3.8 0 0 1-1.593-.326 2.7 2.7 0 0 1-1.13-.96q-.41-.628-.41-1.54 0-.784.302-1.291t.815-.803a4.3 4.3 0 0 1 1.147-.447q.634-.15 1.292-.23l1.352-.156q.52-.066.755-.212.235-.144.235-.47v-.043q0-.79-.446-1.225-.441-.435-1.317-.435-.91 0-1.436.405-.52.398-.719.887l-1.696-.386q.302-.845.881-1.365.586-.525 1.347-.76a5.3 5.3 0 0 1 1.6-.242q.555 0 1.177.133.627.128 1.17.47.55.345.9.985.35.634.35 1.648v6.158h-1.762v-1.268h-.073a2.6 2.6 0 0 1-.525.688 2.8 2.8 0 0 1-.9.562q-.55.222-1.316.223m.393-1.449q.748 0 1.28-.296.537-.295.815-.772.283-.483.283-1.033v-1.195q-.096.097-.374.181a6 6 0 0 1-.622.139l-.682.103-.555.072q-.525.066-.96.223a1.65 1.65 0 0 0-.688.453q-.255.289-.254.773 0 .67.495 1.014.494.338 1.262.338m6.733 1.244V14.137h1.805v4.594h.108q.157-.29.453-.67.295-.38.821-.664.525-.29 1.389-.29 1.122 0 2.004.568.88.567 1.382 1.636.507 1.069.507 2.571 0 1.504-.5 2.578-.502 1.07-1.377 1.648-.876.574-1.998.574-.846 0-1.383-.284a2.6 2.6 0 0 1-.833-.664 5 5 0 0 1-.465-.676h-.15V26.5zm1.768-4.637q0 .978.284 1.715.284.736.821 1.153.537.41 1.316.41.81 0 1.352-.428.544-.435.821-1.177.284-.743.284-1.673 0-.916-.278-1.648-.27-.73-.82-1.153-.544-.422-1.359-.422-.785 0-1.328.404-.537.405-.815 1.129t-.278 1.69m10.533-7.727v12.364h-1.805V14.137zm6.425 12.55q-1.37 0-2.36-.585a3.97 3.97 0 0 1-1.522-1.66q-.531-1.074-.531-2.517 0-1.425.531-2.512a4.13 4.13 0 0 1 1.497-1.696q.966-.61 2.258-.61a4.6 4.6 0 0 1 1.522.26 3.7 3.7 0 0 1 1.322.815q.585.555.923 1.443.339.881.338 2.143v.64h-7.371v-1.353h5.603q0-.712-.29-1.261a2.2 2.2 0 0 0-.815-.876q-.52-.32-1.22-.32-.76 0-1.328.375a2.5 2.5 0 0 0-.869.966 2.8 2.8 0 0 0-.302 1.285v1.057q0 .93.326 1.582.332.651.924.996.591.338 1.382.338.513 0 .936-.145.423-.15.73-.447.309-.295.471-.73l1.709.308a3.1 3.1 0 0 1-.737 1.322 3.6 3.6 0 0 1-1.322.875q-.79.308-1.805.308m14.386 0q-1.304 0-2.276-.597a4.03 4.03 0 0 1-1.509-1.672q-.537-1.074-.537-2.511 0-1.443.537-2.524a4 4 0 0 1 1.509-1.678q.972-.597 2.276-.598 1.304 0 2.276.598a4 4 0 0 1 1.509 1.678q.537 1.08.537 2.524 0 1.436-.537 2.511a4.03 4.03 0 0 1-1.509 1.672q-.972.598-2.276.598m.006-1.514q.845 0 1.401-.447.555-.447.821-1.19.271-.742.271-1.635 0-.888-.271-1.63-.266-.75-.821-1.202-.556-.453-1.401-.453-.85 0-1.413.453-.555.453-.827 1.202a4.8 4.8 0 0 0-.265 1.63q0 .892.265 1.636.272.742.827 1.189.563.447 1.413.447m8.136-4.178v5.506h-1.805V17.23h1.733v1.51h.115a2.65 2.65 0 0 1 1.002-1.184q.688-.447 1.732-.447.949 0 1.66.399.713.392 1.105 1.17.393.78.393 1.927V26.5h-1.805v-5.68q0-1.008-.526-1.576-.525-.573-1.442-.573-.628 0-1.117.271a1.95 1.95 0 0 0-.767.797q-.278.52-.278 1.256"/><path fill="#fff" d="M151.62 17.844q-.06-.664-.537-1.033-.471-.374-1.346-.374-.58 0-.966.151-.387.15-.58.417a1 1 0 0 0-.199.597.9.9 0 0 0 .109.49q.126.21.362.373.242.158.579.278.338.12.761.212l1.062.241q.918.2 1.618.531.707.333 1.184.791.483.459.73 1.057.248.597.254 1.34-.007 1.17-.592 2.01t-1.684 1.286q-1.093.447-2.638.447-1.552 0-2.705-.465t-1.793-1.413-.658-2.396h2.862q.036.597.319.996.285.398.779.603.502.206 1.159.206.604 0 1.027-.163.428-.164.658-.453t.235-.664a.9.9 0 0 0-.217-.598q-.211-.253-.652-.435-.435-.187-1.111-.344l-1.292-.302q-1.606-.368-2.529-1.189-.924-.827-.918-2.233-.006-1.148.616-2.01.621-.864 1.72-1.347 1.1-.483 2.506-.483 1.436 0 2.493.489 1.063.483 1.648 1.358t.598 2.029zm9.774-.616v2.173h-5.85v-2.173zm-4.624-2.222h2.952v8.579q0 .272.084.44a.53.53 0 0 0 .26.236 1.1 1.1 0 0 0 .404.066q.17 0 .356-.03.194-.036.29-.06l.447 2.13q-.211.061-.598.152-.38.09-.911.115-1.039.048-1.781-.242a2.3 2.3 0 0 1-1.129-.918q-.387-.621-.374-1.563zm10.365 11.67q-1.455 0-2.511-.574a3.96 3.96 0 0 1-1.618-1.648q-.562-1.074-.562-2.553 0-1.437.568-2.512.567-1.08 1.6-1.678 1.032-.603 2.432-.604.99 0 1.812.308a3.9 3.9 0 0 1 1.418.912q.599.604.93 1.49.332.882.332 2.023v.737h-8.059v-1.715h5.312a1.66 1.66 0 0 0-.223-.839 1.5 1.5 0 0 0-.598-.573 1.7 1.7 0 0 0-.863-.212q-.495 0-.888.224a1.68 1.68 0 0 0-.863 1.449v1.744q0 .567.223.996.224.423.634.658t.978.236q.393 0 .713-.109.32-.108.549-.32.23-.21.344-.52l2.711.08a3.35 3.35 0 0 1-.743 1.587q-.567.67-1.491 1.044-.924.369-2.137.369m8.523-.018q-.888 0-1.576-.296a2.46 2.46 0 0 1-1.081-.906q-.392-.609-.392-1.527 0-.773.272-1.304.271-.531.748-.863a3.5 3.5 0 0 1 1.099-.501 7 7 0 0 1 1.328-.236q.79-.072 1.274-.15.483-.086.7-.236a.51.51 0 0 0 .223-.44v-.031q0-.465-.319-.718-.321-.255-.864-.254-.585 0-.942.254a1.12 1.12 0 0 0-.452.7l-2.723-.097a3.2 3.2 0 0 1 .622-1.509q.507-.67 1.388-1.05.888-.387 2.131-.387.888 0 1.636.212.749.205 1.304.603.556.393.858.966.308.574.308 1.31v6.303h-2.777v-1.292h-.073q-.247.471-.634.797-.38.325-.899.489a3.8 3.8 0 0 1-1.159.163m.911-1.932q.477 0 .857-.193.387-.194.616-.532.23-.344.23-.797v-.88a2 2 0 0 1-.308.12q-.175.054-.387.103-.211.048-.434.084l-.429.066a2.7 2.7 0 0 0-.712.206 1.13 1.13 0 0 0-.447.362.9.9 0 0 0-.151.52q0 .457.326.7.332.24.839.24m6.436 1.775v-9.273h2.807v1.702h.102q.291-.845.978-1.334t1.642-.489q.966 0 1.655.495.687.495.875 1.328h.096a2.4 2.4 0 0 1 1.015-1.322q.754-.5 1.781-.5 1.315 0 2.137.844.82.84.821 2.307V26.5h-2.952v-5.566q0-.694-.357-1.057-.356-.368-.923-.368-.61 0-.96.398-.344.393-.344 1.057V26.5h-2.838v-5.597q0-.645-.35-1.02-.35-.374-.923-.374-.387 0-.683.187-.296.18-.464.52a1.8 1.8 0 0 0-.163.796V26.5z"/></g></g><rect width="203.858" height="37.858" x="1.071" y="1.071" stroke="#fff" stroke-opacity=".15" stroke-width="2.143" rx="6.929"/><defs><linearGradient id="b" x1="103.001" x2="103.001" y1="0" y2="40.001" gradientUnits="userSpaceOnUse"><stop stop-color="#0d1b31"/><stop offset="1" stop-color="#081320"/></linearGradient><linearGradient id="d" x1="22.007" x2="22.007" y1="6" y2="34.001" gradientUnits="userSpaceOnUse"><stop stop-color="#111d2e"/><stop offset=".212" stop-color="#051839"/><stop offset=".407" stop-color="#0a1b48"/><stop offset=".581" stop-color="#132e62"/><stop offset=".738" stop-color="#144b7e"/><stop offset=".873" stop-color="#136497"/><stop offset="1" stop-color="#1387b8"/></linearGradient><filter id="c" width="39.202" height="39.202" x="2.4" y=".4" color-interpolation-filters="sRGB" filterUnits="userSpaceOnUse"><feFlood flood-opacity="0" result="BackgroundImageFix"/><feColorMatrix in="SourceAlpha" result="hardAlpha" values="0 0 0 0 0 0 0 0 0 0 0 0 0 0 0 0 0 0 127 0"/><feOffset/><feGaussianBlur stdDeviation="2.8"/><feComposite in2="hardAlpha" operator="out"/><feColorMatrix values="0 0 0 0 0 0 0 0 0 0 0 0 0 0 0 0 0 0 0.25 0"/><feBlend in2="BackgroundImageFix" result="effect1_dropShadow_28_2615"/><feBlend in="SourceGraphic" in2="effect1_dropShadow_28_2615" result="shape"/></filter><filter id="e" width="167.429" height="32.429" x="36.287" y="3.786" color-interpolation-filters="sRGB" filterUnits="userSpaceOnUse"><feFlood flood-opacity="0" result="BackgroundImageFix"/><feColorMatrix in="SourceAlpha" result="hardAlpha" values="0 0 0 0 0 0 0 0 0 0 0 0 0 0 0 0 0 0 127 0"/><feOffset/><feGaussianBlur stdDeviation="2.857"/><feComposite in2="hardAlpha" operator="out"/><feColorMatrix values="0 0 0 0 0 0 0 0 0 0 0 0 0 0 0 0 0 0 0.25 0"/><feBlend in2="BackgroundImageFix" result="effect1_dropShadow_28_2615"/><feBlend in="SourceGraphic" in2="effect1_dropShadow_28_2615" result="shape"/></filter><clipPath id="a"><rect width="206.001" height="40.001" fill="#fff" rx="8"/></clipPath></defs></svg>