<svg xmlns="http://www.w3.org/2000/svg" width="168" height="40" fill="none" viewBox="0 0 168 40"><rect width="168" height="40" fill="url(#a)" rx="8"/><rect width="165.9" height="37.9" x="1.05" y="1.05" stroke="#fff" stroke-opacity=".15" stroke-width="2.1" rx="6.95"/><g filter="url(#b)"><path fill="url(#c)" fill-rule="evenodd" d="M31.15 8H12.854A2.854 2.854 0 0 0 10 10.85v18.284A2.856 2.856 0 0 0 12.853 32h18.298A2.85 2.85 0 0 0 34 29.134V10.85A2.854 2.854 0 0 0 31.15 8m-10.8 17.286a.954.954 0 0 1-.96.95h-4a.95.95 0 0 1-.945-.95V13.38a.95.95 0 0 1 .946-.95h3.998a.954.954 0 0 1 .95.95zm9.228-5.467a.95.95 0 0 1-.96.95h-4a.954.954 0 0 1-.95-.95v-6.44a.954.954 0 0 1 .95-.95h4a.95.95 0 0 1 .945.95z" clip-rule="evenodd"/></g><g filter="url(#d)"><path fill="#e8e8e8" d="m44.439 14.136 3.441 10.07h.139l3.44-10.07h2.017L49.027 26.5h-2.155l-4.45-12.364zM55.117 26.5v-9.273h1.805V26.5zm.911-10.703q-.47 0-.809-.314a1.02 1.02 0 0 1-.332-.761q0-.447.332-.76.338-.32.81-.32.47 0 .802.32a1 1 0 0 1 .338.76q0 .44-.338.76-.332.315-.803.315m7.319 10.89q-1.37 0-2.36-.585a3.97 3.97 0 0 1-1.522-1.66q-.531-1.075-.531-2.518 0-1.425.53-2.511.538-1.087 1.498-1.697.966-.61 2.258-.61.785 0 1.521.26.737.26 1.322.815t.924 1.443q.338.882.338 2.143v.64h-7.371v-1.352h5.602q0-.713-.29-1.262a2.2 2.2 0 0 0-.815-.875q-.519-.32-1.22-.32-.76 0-1.327.374a2.5 2.5 0 0 0-.87.966 2.8 2.8 0 0 0-.301 1.286v1.056q0 .93.326 1.582.331.652.923.996.592.338 1.383.338.513 0 .935-.145.423-.15.73-.447.309-.295.472-.73l1.708.308a3.1 3.1 0 0 1-.736 1.322q-.525.561-1.322.875-.792.308-1.805.308m7.974-.187-2.728-9.273h1.865l1.817 6.81h.09l1.824-6.81h1.865l1.811 6.78h.091l1.805-6.78h1.865L78.904 26.5h-1.841l-1.884-6.695h-.139L73.157 26.5zm20.423.187q-1.304 0-2.276-.598a4.03 4.03 0 0 1-1.509-1.672q-.537-1.074-.537-2.511 0-1.443.537-2.523t1.51-1.679q.971-.598 2.275-.598 1.305 0 2.276.598a4 4 0 0 1 1.51 1.678q.537 1.08.537 2.524 0 1.437-.537 2.511a4.03 4.03 0 0 1-1.51 1.672q-.972.598-2.276.598m.006-1.515q.845 0 1.4-.447.557-.446.822-1.19a4.7 4.7 0 0 0 .272-1.635q0-.888-.272-1.63-.265-.75-.821-1.201-.555-.453-1.4-.453-.852 0-1.413.453-.555.452-.827 1.2a4.8 4.8 0 0 0-.266 1.63q0 .894.266 1.637.27.742.827 1.19.561.446 1.412.446m8.137-4.178V26.5h-1.805v-9.273h1.732v1.51h.115a2.65 2.65 0 0 1 1.002-1.184q.688-.447 1.733-.447.947 0 1.66.399.712.393 1.105 1.171.392.78.392 1.926V26.5h-1.805v-5.68q0-1.01-.525-1.576-.525-.574-1.443-.574-.628 0-1.117.272a1.95 1.95 0 0 0-.767.797q-.277.519-.277 1.255"/><path fill="#2684ff" d="M112.531 16.063v-2.427h10.45v2.427h-3.749V26h-2.946v-9.937zM123.478 26v-9.273h2.867v1.69h.097q.254-.917.827-1.364a2.1 2.1 0 0 1 1.334-.453q.206 0 .423.03.217.025.404.08v2.565a3 3 0 0 0-.555-.115 5 5 0 0 0-.604-.042q-.525 0-.948.235a1.7 1.7 0 0 0-.658.646 1.9 1.9 0 0 0-.235.966V26zm11.008.175q-1.455 0-2.511-.573a3.96 3.96 0 0 1-1.618-1.649q-.561-1.074-.562-2.553 0-1.437.568-2.511.567-1.08 1.6-1.679 1.032-.604 2.433-.604.99 0 1.811.308a3.9 3.9 0 0 1 1.418.912q.599.604.93 1.491.332.882.332 2.023v.736h-8.059v-1.715h5.312a1.66 1.66 0 0 0-.223-.839 1.5 1.5 0 0 0-.598-.573 1.7 1.7 0 0 0-.863-.211q-.495 0-.888.223a1.68 1.68 0 0 0-.863 1.449v1.744q0 .568.224.997.223.421.633.658.411.235.978.235.393 0 .713-.109.32-.108.549-.32.23-.21.344-.519l2.711.079a3.35 3.35 0 0 1-.743 1.587q-.567.67-1.491 1.045-.924.368-2.137.368m8.861-12.539V26h-2.952V13.636zm4.831 0V26h-2.952V13.636zm6.207 12.54q-1.461 0-2.511-.599a4.1 4.1 0 0 1-1.612-1.678q-.561-1.08-.561-2.505 0-1.432.561-2.505.567-1.08 1.612-1.679 1.05-.604 2.511-.604 1.46 0 2.506.604 1.05.598 1.611 1.678.568 1.075.568 2.506 0 1.425-.568 2.505a4.07 4.07 0 0 1-1.611 1.678q-1.045.598-2.506.598m.018-2.229q.532 0 .9-.326t.561-.905q.2-.58.2-1.34 0-.773-.2-1.353-.193-.58-.561-.905a1.3 1.3 0 0 0-.9-.326q-.55 0-.929.326-.375.326-.574.905-.193.58-.193 1.353 0 .76.193 1.34.2.58.574.905.38.327.929.326"/></g><defs><linearGradient id="a" x1="84" x2="84" y1="0" y2="40" gradientUnits="userSpaceOnUse"><stop stop-color="#081f3e"/><stop offset="1" stop-color="#051428"/></linearGradient><linearGradient id="c" x1="3757.6" x2="3757.6" y1="1544" y2="8" gradientUnits="userSpaceOnUse"><stop stop-color="#0052cc"/><stop offset="1" stop-color="#2684ff"/></linearGradient><filter id="b" width="39.429" height="39.429" x="2.286" y=".286" color-interpolation-filters="sRGB" filterUnits="userSpaceOnUse"><feFlood flood-opacity="0" result="BackgroundImageFix"/><feColorMatrix in="SourceAlpha" result="hardAlpha" values="0 0 0 0 0 0 0 0 0 0 0 0 0 0 0 0 0 0 127 0"/><feOffset/><feGaussianBlur stdDeviation="2.857"/><feComposite in2="hardAlpha" operator="out"/><feColorMatrix values="0 0 0 0 0 0 0 0 0 0 0 0 0 0 0 0 0 0 0.25 0"/><feBlend in2="BackgroundImageFix" result="effect1_dropShadow_7_256"/><feBlend in="SourceGraphic" in2="effect1_dropShadow_7_256" result="shape"/></filter><filter id="d" width="129.2" height="32.2" x="36.4" y="3.9" color-interpolation-filters="sRGB" filterUnits="userSpaceOnUse"><feFlood flood-opacity="0" result="BackgroundImageFix"/><feColorMatrix in="SourceAlpha" result="hardAlpha" values="0 0 0 0 0 0 0 0 0 0 0 0 0 0 0 0 0 0 127 0"/><feOffset/><feGaussianBlur stdDeviation="2.8"/><feComposite in2="hardAlpha" operator="out"/><feColorMatrix values="0 0 0 0 0 0 0 0 0 0 0 0 0 0 0 0 0 0 0.25 0"/><feBlend in2="BackgroundImageFix" result="effect1_dropShadow_7_256"/><feBlend in="SourceGraphic" in2="effect1_dropShadow_7_256" result="shape"/></filter></defs></svg>